<svg width="39" height="39" viewBox="0 0 39 39" fill="none" xmlns="http://www.w3.org/2000/svg">
<path fill-rule="evenodd" clip-rule="evenodd" d="M14.625 12.1875C14.625 13.4804 15.1386 14.7204 16.0529 15.6346C16.9671 16.5489 18.2071 17.0625 19.5 17.0625C20.7929 17.0625 22.0329 16.5489 22.9471 15.6346C23.8614 14.7204 24.375 13.4804 24.375 12.1875C24.375 10.8946 23.8614 9.65459 22.9471 8.74035C22.0329 7.82611 20.7929 7.3125 19.5 7.3125C18.2071 7.3125 16.9671 7.82611 16.0529 8.74035C15.1386 9.65459 14.625 10.8946 14.625 12.1875ZM19.5 19.5C17.5606 19.5 15.7006 18.7296 14.3293 17.3582C12.9579 15.9869 12.1875 14.1269 12.1875 12.1875C12.1875 10.2481 12.9579 8.38814 14.3293 7.01678C15.7006 5.64542 17.5606 4.875 19.5 4.875C21.4394 4.875 23.2994 5.64542 24.6707 7.01678C26.0421 8.38814 26.8125 10.2481 26.8125 12.1875C26.8125 14.1269 26.0421 15.9869 24.6707 17.3582C23.2994 18.7296 21.4394 19.5 19.5 19.5ZM4.875 31.6875C4.875 34.125 7.3125 34.125 7.3125 34.125H31.6875C31.6875 34.125 34.125 34.125 34.125 31.6875C34.125 29.25 31.6875 21.9375 19.5 21.9375C7.3125 21.9375 4.875 29.25 4.875 31.6875ZM7.3125 31.6778C7.31494 31.0781 7.68787 29.2744 9.3405 27.6217C10.9297 26.0325 13.9206 24.375 19.5 24.375C25.0819 24.375 28.0703 26.0325 29.6595 27.6217C31.3121 29.2744 31.6826 31.0781 31.6875 31.6778H7.3125Z" fill="#363636"/>
</svg>
