<svg width="56" height="56" viewBox="0 0 56 56" fill="none" xmlns="http://www.w3.org/2000/svg">
<path fill-rule="evenodd" clip-rule="evenodd" d="M35 17.5C35 19.3565 34.2625 21.137 32.9497 22.4497C31.637 23.7625 29.8565 24.5 28 24.5C26.1435 24.5 24.363 23.7625 23.0503 22.4497C21.7375 21.137 21 19.3565 21 17.5C21 15.6435 21.7375 13.863 23.0503 12.5503C24.363 11.2375 26.1435 10.5 28 10.5C29.8565 10.5 31.637 11.2375 32.9497 12.5503C34.2625 13.863 35 15.6435 35 17.5ZM28 28C30.7848 28 33.4555 26.8938 35.4246 24.9246C37.3938 22.9555 38.5 20.2848 38.5 17.5C38.5 14.7152 37.3938 12.0445 35.4246 10.0754C33.4555 8.10625 30.7848 7 28 7C25.2152 7 22.5445 8.10625 20.5754 10.0754C18.6062 12.0445 17.5 14.7152 17.5 17.5C17.5 20.2848 18.6062 22.9555 20.5754 24.9246C22.5445 26.8938 25.2152 28 28 28ZM49 45.5C49 49 45.5 49 45.5 49H10.5C10.5 49 7 49 7 45.5C7 42 10.5 31.5 28 31.5C45.5 31.5 49 42 49 45.5ZM45.5 45.486C45.4965 44.625 44.961 42.035 42.588 39.662C40.306 37.38 36.0115 35 28 35C19.985 35 15.694 37.38 13.412 39.662C11.039 42.035 10.507 44.625 10.5 45.486H45.5Z" fill="#939393"/>
</svg>
