<svg width="16" height="16" viewBox="0 0 16 16" fill="none" xmlns="http://www.w3.org/2000/svg">
<path fill-rule="evenodd" clip-rule="evenodd" d="M1 1.5C1 1.36739 1.05268 1.24021 1.14645 1.14645C1.24021 1.05268 1.36739 1 1.5 1H3C3.11153 1.00003 3.21985 1.03735 3.30773 1.10602C3.39561 1.1747 3.45801 1.27078 3.485 1.379L3.89 3H15.5C15.5734 3.00007 15.6459 3.0163 15.7124 3.04755C15.7788 3.0788 15.8375 3.12429 15.8844 3.1808C15.9313 3.23731 15.9651 3.30345 15.9835 3.37452C16.002 3.44558 16.0045 3.51984 15.991 3.592L14.491 11.592C14.4696 11.7066 14.4087 11.8101 14.3191 11.8846C14.2294 11.9591 14.1166 11.9999 14 12H5C4.88343 11.9999 4.77057 11.9591 4.68091 11.8846C4.59126 11.8101 4.53045 11.7066 4.509 11.592L3.01 3.607L2.61 2H1.5C1.36739 2 1.24021 1.94732 1.14645 1.85355C1.05268 1.75979 1 1.63261 1 1.5ZM4.102 4L5.415 11H13.585L14.898 4H4.102ZM6 12C5.46957 12 4.96086 12.2107 4.58579 12.5858C4.21071 12.9609 4 13.4696 4 14C4 14.5304 4.21071 15.0391 4.58579 15.4142C4.96086 15.7893 5.46957 16 6 16C6.53043 16 7.03914 15.7893 7.41421 15.4142C7.78929 15.0391 8 14.5304 8 14C8 13.4696 7.78929 12.9609 7.41421 12.5858C7.03914 12.2107 6.53043 12 6 12ZM13 12C12.4696 12 11.9609 12.2107 11.5858 12.5858C11.2107 12.9609 11 13.4696 11 14C11 14.5304 11.2107 15.0391 11.5858 15.4142C11.9609 15.7893 12.4696 16 13 16C13.5304 16 14.0391 15.7893 14.4142 15.4142C14.7893 15.0391 15 14.5304 15 14C15 13.4696 14.7893 12.9609 14.4142 12.5858C14.0391 12.2107 13.5304 12 13 12ZM6 13C5.73478 13 5.48043 13.1054 5.29289 13.2929C5.10536 13.4804 5 13.7348 5 14C5 14.2652 5.10536 14.5196 5.29289 14.7071C5.48043 14.8946 5.73478 15 6 15C6.26522 15 6.51957 14.8946 6.70711 14.7071C6.89464 14.5196 7 14.2652 7 14C7 13.7348 6.89464 13.4804 6.70711 13.2929C6.51957 13.1054 6.26522 13 6 13ZM13 13C12.7348 13 12.4804 13.1054 12.2929 13.2929C12.1054 13.4804 12 13.7348 12 14C12 14.2652 12.1054 14.5196 12.2929 14.7071C12.4804 14.8946 12.7348 15 13 15C13.2652 15 13.5196 14.8946 13.7071 14.7071C13.8946 14.5196 14 14.2652 14 14C14 13.7348 13.8946 13.4804 13.7071 13.2929C13.5196 13.1054 13.2652 13 13 13Z" fill="#363636"/>
</svg>
