<svg width="25" height="13" viewBox="0 0 25 13" fill="none" xmlns="http://www.w3.org/2000/svg">
<path d="M23.0365 2.53613C22.9354 2.37598 22.7691 2.27988 22.5957 2.27988H19.2354V0.694336C19.2354 0.366016 18.9896 0.09375 18.6934 0.09375H6.5166C6.22031 0.09375 5.97461 0.366016 5.97461 0.694336V10.3998C5.97461 10.7281 6.22031 11.0004 6.5166 11.0004H8.04863C8.33047 12.0895 9.24102 12.8982 10.3105 12.8982C11.3801 12.8982 12.2906 12.0975 12.5725 11.0004H18.5777C18.8596 12.0895 19.7701 12.8982 20.8396 12.8982C21.9092 12.8982 22.8197 12.0975 23.1016 11.0004H24.2217C24.518 11.0004 24.7637 10.7281 24.7637 10.3998V5.45898C24.7637 5.33086 24.7275 5.21074 24.6625 5.11465L23.0365 2.53613ZM23.6869 5.63516H21.2588V3.48906H22.3211L23.6869 5.63516ZM7.05859 1.30293H18.1514V9.80722H12.623C12.4135 8.59805 11.4596 7.68515 10.3105 7.68515C9.16152 7.68515 8.20039 8.59805 7.99805 9.80722H7.05859V1.30293ZM10.3105 11.6971C9.60957 11.6971 9.03867 11.0645 9.03867 10.2877C9.03867 9.51094 9.60957 8.87832 10.3105 8.87832C11.0115 8.87832 11.5824 9.51094 11.5824 10.2877C11.5824 11.0645 11.0115 11.6971 10.3105 11.6971ZM20.8469 11.6971C20.1459 11.6971 19.575 11.0645 19.575 10.2877C19.575 9.51094 20.1459 8.87832 20.8469 8.87832C21.5479 8.87832 22.1188 9.51094 22.1188 10.2877C22.1188 11.0645 21.5479 11.6971 20.8469 11.6971ZM23.1594 9.80722C22.9498 8.59805 21.9959 7.68515 20.8469 7.68515C20.2254 7.68515 19.6545 7.95742 19.2354 8.39785V3.48906H20.1676V6.23574C20.1676 6.56406 20.4133 6.83633 20.7096 6.83633H23.6941V9.80722H23.1594Z" fill="#363636"/>
<path d="M0.76416 1.30298H4.63037C4.92666 1.30298 5.17236 1.03071 5.17236 0.702393C5.17236 0.374072 4.92666 0.101807 4.63037 0.101807H0.76416C0.467871 0.101807 0.222168 0.374072 0.222168 0.702393C0.222168 1.03071 0.467871 1.30298 0.76416 1.30298Z" fill="#363636"/>
<path d="M4.63066 2.28784H1.65332C1.35703 2.28784 1.11133 2.56011 1.11133 2.88843C1.11133 3.21675 1.35703 3.48901 1.65332 3.48901H4.63066C4.92695 3.48901 5.17265 3.21675 5.17265 2.88843C5.17265 2.56011 4.93418 2.28784 4.63066 2.28784Z" fill="#363636"/>
<path d="M4.63037 4.47412H2.75147C2.45518 4.47412 2.20947 4.74639 2.20947 5.07471C2.20947 5.40303 2.45518 5.67529 2.75147 5.67529H4.63037C4.92666 5.67529 5.17236 5.40303 5.17236 5.07471C5.17236 4.74639 4.93389 4.47412 4.63037 4.47412Z" fill="#363636"/>
<path d="M4.63037 6.66016H3.97998C3.68369 6.66016 3.43799 6.93242 3.43799 7.26074C3.43799 7.58906 3.68369 7.86133 3.97998 7.86133H4.63037C4.92666 7.86133 5.17236 7.58906 5.17236 7.26074C5.17236 6.93242 4.93389 6.66016 4.63037 6.66016Z" fill="#363636"/>
</svg>
