<svg width="29" height="29" viewBox="0 0 29 29" fill="none" xmlns="http://www.w3.org/2000/svg">
<g clip-path="url(#clip0)">
<path d="M12.244 17.4302C16.1885 21.2403 20.7706 22.6799 22.6756 20.7077L23.1003 20.268C23.8027 19.5409 23.7825 18.3775 23.0554 17.6751L21.2968 15.9765C20.5696 15.2741 19.4062 15.2942 18.7039 16.0214L18.2792 16.461C17.8566 16.8985 16.6143 16.5526 14.792 14.7923C12.9697 13.0321 12.5809 11.8025 13.0034 11.3651L13.4281 10.9254C14.1305 10.1982 14.1103 9.03487 13.3832 8.33248L11.6246 6.63382C10.8974 5.93142 9.73404 5.95159 9.03165 6.67876L8.60698 7.1184C6.70193 9.09065 8.29905 13.6197 12.244 17.4302ZM9.91094 7.52809C10.1454 7.2854 10.5326 7.27869 10.7752 7.51311L12.5338 9.21177C12.7765 9.44618 12.7832 9.8334 12.5488 10.0761L12.1241 10.5157C11.4897 11.1726 10.8823 12.7155 13.9427 15.6716C17.003 18.6277 18.524 17.9672 19.1585 17.3104L19.5831 16.8707C19.8176 16.628 20.2048 16.6213 20.4475 16.8557L22.206 18.5544C22.4487 18.7888 22.4554 19.176 22.221 19.4187L21.7964 19.8584C20.2947 21.4129 16.0047 19.3631 13.0933 16.5509C9.46625 13.0474 8.28107 9.21545 9.48627 7.96773L9.91094 7.52809Z" fill="#363636"/>
</g>
<defs>
<clipPath id="clip0">
<rect width="19.5601" height="19.5601" fill="white" transform="translate(15.0317 28.6213) rotate(-135.993)"/>
</clipPath>
</defs>
</svg>
