<svg width="35" height="35" viewBox="0 0 35 35" fill="none" xmlns="http://www.w3.org/2000/svg">
<path d="M34.5215 17.5683C34.5215 19.9472 34.4736 22.333 34.5352 24.7119C34.6377 28.9228 31.9922 32.1767 28.6221 33.6259C27.2686 34.207 25.8467 34.5146 24.377 34.5146C19.7764 34.5214 15.1689 34.583 10.5684 34.4941C7.10254 34.4257 4.25195 32.9765 2.20801 30.1191C1.13477 28.6152 0.62207 26.9062 0.62207 25.0537C0.62207 20.1523 0.62207 15.2578 0.62207 10.3564C0.62207 6.35738 2.57031 3.56148 6.0293 1.74312C7.5332 0.956988 9.16699 0.622027 10.8691 0.615191C15.333 0.615191 19.8037 0.587847 24.2676 0.628863C27.7334 0.656206 30.625 1.98238 32.7578 4.77144C33.9473 6.33003 34.5215 8.12105 34.5215 10.0898C34.5215 12.5781 34.5215 15.0732 34.5215 17.5683ZM3.14453 17.5683C3.14453 20.0771 3.14453 22.5791 3.14453 25.0878C3.14453 26.2089 3.4043 27.2617 3.98535 28.2119C5.50977 30.707 7.81348 31.9238 10.6709 31.9716C15.2578 32.04 19.8516 31.999 24.4453 31.9853C25.5732 31.9853 26.667 31.7529 27.6855 31.2675C30.4609 29.9414 32.0127 27.8291 31.999 24.6572C31.9717 19.8037 31.9922 14.9502 31.9922 10.0966C31.9922 8.72261 31.6025 7.4648 30.7891 6.35738C29.2168 4.2314 27.043 3.1855 24.4453 3.15816C19.8652 3.10347 15.2852 3.13765 10.7051 3.14449C9.72754 3.14449 8.78418 3.34273 7.86816 3.68453C5.35254 4.62105 3.01465 6.99312 3.12402 10.4863C3.20605 12.8515 3.14453 15.2099 3.14453 17.5683Z" fill="#363636"/>
<path d="M17.6094 24.8144C13.2002 24.8144 9.64552 21.3007 9.63868 16.9257C9.63185 12.6191 13.2139 9.09175 17.5957 9.09175C21.9912 9.08491 25.5596 12.6054 25.5664 16.9462C25.5664 21.2802 22.0049 24.8076 17.6094 24.8144ZM17.6094 22.2851C20.6104 22.2851 23.044 19.8857 23.0371 16.9326C23.0303 14.0068 20.5967 11.6142 17.6094 11.6142C14.6084 11.6142 12.1611 13.9999 12.1611 16.9462C12.168 19.8994 14.6084 22.2919 17.6094 22.2851Z" fill="#363636"/>
<path d="M26.4893 6.69922C27.4122 6.69922 28.1641 7.48535 28.1641 8.44922C28.1573 9.41309 27.3985 10.1924 26.4756 10.1855C25.5665 10.1787 24.8213 9.39942 24.8213 8.45606C24.8145 7.49219 25.5665 6.69922 26.4893 6.69922Z" fill="#363636"/>
</svg>
