<svg width="33" height="33" viewBox="0 0 33 33" fill="none" xmlns="http://www.w3.org/2000/svg">
<g clip-path="url(#clip0)">
<path d="M21.9277 23.7167L21.9306 23.7141L23.1018 22.6891C23.1025 22.6885 23.1032 22.6879 23.1039 22.6873C23.8379 22.0536 24.497 21.964 25.1814 22.1407C25.9524 22.3398 26.8125 22.8975 27.7825 23.7271C27.7828 23.7274 27.7832 23.7277 27.7835 23.728L28.9803 24.7576L28.9819 24.759C29.9712 25.6065 30.5879 26.3206 30.8004 26.9123C30.8944 27.1741 30.8976 27.3814 30.8397 27.5719C30.7785 27.7736 30.6195 28.0505 30.2295 28.3896L30.2283 28.3906L29.1633 29.3191L29.1314 29.3469L29.102 29.3772C28.4506 30.0501 26.3093 31.9603 22.7448 31.9988L22.7447 31.9988C18.4406 32.0455 13.6913 29.3536 8.65074 23.5474L8.65019 23.5468C3.60267 17.7425 1.5964 12.6683 2.23929 8.41591L2.23936 8.41547C2.77163 4.88406 4.9611 3.03678 5.72207 2.48242L5.75788 2.45633L5.79124 2.42718L6.84971 1.50229C6.85014 1.50192 6.85057 1.50155 6.851 1.50118C7.24179 1.16246 7.53881 1.04347 7.7479 1.01078C7.94569 0.979855 8.15126 1.01206 8.39795 1.14162C8.95532 1.43432 9.57669 2.14318 10.2806 3.23707C10.281 3.23771 10.2814 3.23835 10.2818 3.23899L11.1318 4.57425L11.1327 4.57567C11.8202 5.6517 12.2529 6.58149 12.3426 7.37215C12.4223 8.07434 12.2414 8.7131 11.5117 9.34882L11.5115 9.34894L10.3326 10.3763C10.2885 10.4138 10.22 10.4599 10.0658 10.5635C10.0448 10.5776 10.0222 10.5927 9.99787 10.6091C9.82118 10.7279 9.58922 10.8872 9.35664 11.088C8.88113 11.4983 8.37078 12.1095 8.1856 13.0237C8.00317 13.9243 8.16604 14.9727 8.73325 16.2096C9.29895 17.4431 10.2942 18.9257 11.8739 20.7411C13.4537 22.5584 14.7843 23.7504 15.9275 24.4824C17.0737 25.2165 18.0892 25.524 19.0063 25.4691C19.9373 25.4134 20.6134 24.9935 21.086 24.5807C21.3171 24.3788 21.5073 24.1718 21.6495 24.0143C21.6642 23.998 21.6781 23.9826 21.6913 23.968C21.8263 23.8184 21.8835 23.755 21.9277 23.7167Z" stroke="#363636" stroke-width="2"/>
</g>
<defs>
<clipPath id="clip0">
<rect width="33" height="33" fill="white"/>
</clipPath>
</defs>
</svg>
