<svg width="35" height="35" viewBox="0 0 35 35" fill="none" xmlns="http://www.w3.org/2000/svg">
<path d="M6.89648 0.5C3.39251 0.5 0.5 3.39251 0.5 6.89648V28.4785C0.5 31.9825 3.39251 34.875 6.89648 34.875H28.4785C31.9825 34.875 34.875 31.9825 34.875 28.4785V6.89648C34.875 3.39251 31.9825 0.5 28.4785 0.5H6.89648ZM6.89648 2.6875H28.332C30.1468 2.6875 32.6875 4.37272 32.6875 6.1875V28.4785C32.6875 30.2933 31.0023 32.6875 29.1875 32.6875H6.1875C4.37272 32.6875 2.6875 30.2933 2.6875 28.4785V6.89648C2.6875 5.0817 5.0817 2.6875 6.89648 2.6875ZM17.248 11.7793C16.1012 11.7684 15.1125 11.802 14.5625 12.0723C14.1969 12.252 13.9023 12.6348 14.0742 12.6582C14.2867 12.6863 14.7961 12.7996 15.0508 13.1465C15.3805 13.5949 15.3438 14.6113 15.3438 14.6113C15.3438 14.6113 15.5355 17.391 14.9043 17.7363C14.4715 17.9723 13.8859 17.4508 12.6094 15.2461C11.9547 14.1164 11.4863 12.9023 11.4863 12.9023C11.4863 12.9023 11.3637 12.6367 11.1934 12.5117C10.9871 12.3602 10.7051 12.3164 10.7051 12.3164L7.67773 12.3652C7.67773 12.3652 7.21016 12.3605 7.04297 12.5605C6.89297 12.7387 6.99414 13.0977 6.99414 13.0977C6.99414 13.0977 9.41172 18.7246 12.1211 21.5449C14.6086 24.1293 17.4434 23.9375 17.4434 23.9375H18.7129C18.7129 23.9375 19.102 23.9059 19.2988 23.6934C19.4801 23.498 19.4453 23.1074 19.4453 23.1074C19.4453 23.1074 19.4312 21.4059 20.2266 21.1543C21.0109 20.9059 22.0387 22.8141 23.1074 23.5469C23.9152 24.1016 24.5234 23.9863 24.5234 23.9863L27.3555 23.9375C27.3555 23.9375 28.8445 23.843 28.1367 22.668C28.0789 22.5727 27.748 21.8141 26.0371 20.2266C24.2465 18.5641 24.4652 18.8047 26.623 15.9297C27.9371 14.1781 28.4961 13.116 28.332 12.6582C28.1758 12.2223 27.209 12.3652 27.209 12.3652H23.9863C23.9863 12.3652 23.7234 12.3566 23.5469 12.4629C23.3734 12.566 23.2539 12.8047 23.2539 12.8047C23.2539 12.8047 22.7602 14.1418 22.082 15.2949C20.6508 17.7262 20.0703 17.8375 19.8359 17.6875C19.2906 17.3359 19.4453 16.2922 19.4453 15.5391C19.4453 13.1828 19.8148 12.1805 18.7617 11.9258C18.4117 11.8414 18.1434 11.7887 17.248 11.7793Z" fill="#363636"/>
</svg>
