<svg width="56" height="56" viewBox="0 0 56 56" fill="none" xmlns="http://www.w3.org/2000/svg">
<path d="M5.90956 41.0172L5.76396 40.7638C3.51276 36.8634 2.32136 32.4072 2.32276 27.8768C2.32836 13.664 13.8966 2.09999 28.1094 2.09999C35.0058 2.10279 41.4836 4.78659 46.3514 9.65859C51.2192 14.5306 53.9002 21.0084 53.9002 27.8978C53.8932 42.112 42.325 53.6774 28.1122 53.6774C23.7974 53.6746 19.5358 52.591 15.7768 50.5414L15.5332 50.407L2.39416 53.851L5.90956 41.0172Z" fill="#F2FAFF"/>
<path d="M28.1091 2.80001C34.8165 2.80141 41.1193 5.41381 45.8555 10.1542C50.5917 14.8946 53.1999 21.196 53.1999 27.8978C53.1929 41.727 41.9397 52.9774 28.1021 52.9774C23.9147 52.976 19.7693 51.9204 16.1125 49.9254L15.6239 49.6594L15.0863 49.8008L3.3907 52.8668L6.5071 41.4834L6.6611 40.9192L6.3699 40.4138C4.1775 36.6184 3.0197 32.2826 3.0225 27.8768C3.0281 14.0504 14.2827 2.80001 28.1091 2.80001ZM28.1091 1.40001C13.5113 1.40001 1.6281 13.279 1.6211 27.8768C1.6183 32.543 2.8377 37.1 5.1561 41.1138L1.3999 54.8366L15.4419 51.1546C19.3101 53.2644 23.6669 54.3746 28.1007 54.3774H28.1119C42.7097 54.3774 54.5929 42.4984 54.5999 27.8978C54.5999 20.8222 51.8475 14.168 46.8467 9.16301C41.8459 4.15941 35.1959 1.40281 28.1091 1.40001Z" fill="#788B9C"/>
<path d="M27.993 49C24.4874 48.9986 21.0182 48.1152 17.9606 46.4478L15.9544 45.353L13.7438 45.9326L9.2064 47.1226L10.3684 42.8806L11.0026 40.5622L9.8 38.479C7.9674 35.3052 6.9986 31.6778 7 27.9902C7.0056 16.4164 16.4248 7.0014 27.9972 7C33.6126 7.0014 38.8878 9.1882 42.8512 13.1558C46.8174 17.1234 49 22.3986 49 28.007C48.9944 39.5822 39.5752 49 27.993 49Z" fill="#79BA7E"/>
<path d="M39.5921 33.1632C38.9621 32.8496 35.8681 31.325 35.2927 31.1164C34.7145 30.905 34.2959 30.8028 33.8759 31.43C33.4559 32.06 32.2505 33.4768 31.8837 33.8954C31.5169 34.3154 31.1501 34.3672 30.5201 34.0536C29.8901 33.74 27.8615 33.0736 25.4591 30.9302C23.5873 29.2628 22.3245 27.202 21.9577 26.572C21.5909 25.942 21.9171 25.6018 22.2335 25.2882C22.5163 25.0054 22.8635 24.5532 23.1771 24.1864C23.4907 23.8196 23.5971 23.5564 23.8071 23.1364C24.0185 22.7164 23.9121 22.3482 23.7539 22.0346C23.5957 21.721 22.3371 18.6228 21.8121 17.3642C21.3025 16.1378 20.7817 16.3044 20.3953 16.2848C20.0285 16.2652 19.6085 16.2638 19.1899 16.2638C18.7699 16.2638 18.0881 16.422 17.5127 17.052C16.9373 17.682 15.3105 19.2038 15.3105 22.3006C15.3105 25.3974 17.5659 28.3906 17.8795 28.8092C18.1931 29.2292 22.3161 35.5838 28.6315 38.3096C30.1323 38.9564 31.3069 39.3442 32.2183 39.6354C33.7247 40.1142 35.0981 40.047 36.1831 39.8846C37.3927 39.704 39.9071 38.3628 40.4307 36.8942C40.9557 35.4256 40.9557 34.1642 40.7975 33.9038C40.6421 33.635 40.2235 33.4768 39.5921 33.1632Z" fill="white"/>
</svg>
