<svg width="22" height="24" viewBox="0 0 22 24" fill="none" xmlns="http://www.w3.org/2000/svg">
<path d="M17.2583 12.5622C15.6015 15.4319 11.9319 16.4152 9.06218 14.7583C6.19242 13.1015 5.20917 9.43193 6.86603 6.56218C8.52288 3.69242 12.1924 2.70917 15.0622 4.36603C17.9319 6.02288 18.9152 9.69242 17.2583 12.5622Z" stroke="#221A13" stroke-width="2"/>
<path d="M5.19614 19.4544C4.92 19.9327 5.08387 20.5443 5.56216 20.8204C6.04046 21.0966 6.65205 20.9327 6.92819 20.4544L5.19614 19.4544ZM9.42819 16.1243L9.92819 15.2582L8.19614 14.2582L7.69614 15.1243L9.42819 16.1243ZM6.92819 20.4544L9.42819 16.1243L7.69614 15.1243L5.19614 19.4544L6.92819 20.4544Z" fill="#221A13"/>
</svg>
