<svg width="67" height="89" viewBox="0 0 67 89" fill="none" xmlns="http://www.w3.org/2000/svg">
<g clip-path="url(#clip0_26_560)">
<path d="M59.4987 87.338C61.9378 87.187 64.1157 85.9216 65.3933 83.8914C66.671 81.8611 66.6419 79.3776 65.5675 77.2624C64.4931 75.1472 62.2379 73.6835 59.8375 73.5041C57.7661 73.3436 55.5302 74.3351 54.2042 75.8743C52.5974 77.744 52.0941 80.1803 53.2266 82.4088C54.0106 83.9669 55.8109 85.1945 57.5435 85.4967C59.7891 85.8933 62.0734 85.2606 63.3704 83.3248C64.5028 81.6439 64.2802 79.321 63.2058 77.6684C61.7927 75.4966 59.1793 74.3823 56.6917 75.4966C55.4722 76.0443 54.6591 77.3379 54.4849 78.6033C54.2623 80.2369 55.1237 81.8234 56.8369 82.2672C58.0565 82.5788 59.5181 81.8706 59.8181 80.6147C60.1182 79.3587 59.4406 78.0462 58.1243 77.7062C57.7952 77.6212 58.4727 77.8667 58.4533 77.8573C58.4243 77.8384 58.9663 78.3011 58.7631 78.0839C58.9276 78.2539 59.0535 78.4333 59.1406 78.6505C59.3535 79.1604 59.1696 78.4617 59.2374 79.0188C59.3245 79.6892 59.2374 78.981 59.2664 78.9999C59.3148 79.0188 59.1115 79.6515 59.2277 79.3587C59.247 79.3021 59.2761 79.236 59.2858 79.1793C59.1502 79.8026 59.0535 79.6515 59.1599 79.4815C59.1696 79.4626 59.2664 79.3115 59.2664 79.321C59.2858 79.3587 58.8212 79.7837 59.0728 79.5759C59.1019 79.5476 59.1502 79.5098 59.1793 79.4721C59.2954 79.3304 58.6663 79.8875 59.0438 79.6043C58.5792 79.9442 58.5405 79.7837 58.7534 79.7365C58.8695 79.7176 59.189 79.6609 58.7244 79.7176C58.2598 79.7742 58.6663 79.7459 58.7921 79.7365C59.1599 79.727 58.1436 79.5854 58.5792 79.7081C58.6856 79.7365 59.1599 79.9064 58.705 79.7176C58.2501 79.5287 58.6953 79.727 58.8018 79.7931C59.2664 80.0764 58.6469 79.7365 58.676 79.6798C58.676 79.6798 58.947 79.9348 58.9663 79.9536C59.0438 80.0292 59.3341 80.388 59.0438 80.0197C58.7534 79.6515 59.0825 80.1047 59.1406 80.1992C59.1986 80.2936 59.3825 80.7091 59.1986 80.2841C59.0147 79.8592 59.189 80.2747 59.218 80.3786C59.247 80.4825 59.2761 80.6052 59.3051 80.7185C59.4213 81.1529 59.2664 80.0764 59.2858 80.6335C59.2858 80.7469 59.2761 80.8602 59.2761 80.9735C59.2761 81.2473 59.4116 80.3786 59.3148 80.6335C59.2954 80.6808 59.2954 80.728 59.2761 80.7752C59.2761 80.7657 59.218 80.9546 59.218 80.964C59.1986 80.9452 59.5181 80.388 59.3438 80.6713C59.3148 80.7091 59.2954 80.7563 59.2664 80.8035C59.0825 81.2001 59.4019 80.5769 59.4406 80.6147C59.4503 80.6335 59.2277 80.8413 59.189 80.8696C59.1212 80.9452 58.9083 81.0962 59.2374 80.8413C59.5664 80.5863 59.3729 80.7469 59.2761 80.7941C59.218 80.8224 58.9954 80.9074 58.976 80.9546C58.976 80.9357 59.5955 80.7374 59.2858 80.8224C59.2277 80.8413 59.1599 80.8602 59.1018 80.8791C58.8502 80.9452 58.4727 80.9168 59.2664 80.8791C59.1502 80.8791 59.0341 80.8979 58.9179 80.8979C58.8018 80.8979 58.6856 80.8979 58.5695 80.8885C58.2307 80.8885 58.8986 80.9263 58.9179 80.9357C58.8695 80.8979 58.7244 80.8979 58.6663 80.8885C58.5501 80.8602 58.434 80.8318 58.3178 80.8035C58.2017 80.7752 57.7952 80.6052 58.221 80.7846C58.6469 80.964 58.2404 80.7846 58.1436 80.7374C58.0081 80.6619 57.8823 80.5863 57.7468 80.5013C57.3306 80.2464 58.1243 80.8413 57.8726 80.5958C57.7758 80.5013 57.6693 80.4163 57.5822 80.3219C57.5532 80.2841 57.5145 80.2464 57.4854 80.2086C57.2822 80.0292 57.8145 80.6808 57.679 80.4541C57.6113 80.3408 57.5241 80.2369 57.4661 80.1236C57.437 80.067 57.408 80.0103 57.379 79.9536C57.2434 79.7176 57.5629 80.5108 57.5048 80.2464C57.4757 80.1331 57.4274 80.0292 57.408 79.9159C57.408 79.8875 57.3693 79.7176 57.3693 79.7176C57.408 79.7176 57.3983 80.2842 57.4274 80.067C57.437 79.9536 57.3596 79.6326 57.437 79.5287C57.4757 79.4815 57.3112 80.1142 57.3983 79.8687C57.4274 79.7931 57.4274 79.7176 57.4467 79.642C57.4854 79.5098 57.5435 79.3871 57.5725 79.2549C57.4661 79.7648 57.3693 79.6798 57.4757 79.5004C57.5145 79.4343 57.5532 79.3587 57.5919 79.2926C57.6597 79.1699 57.7468 78.981 57.8532 78.896C57.8532 78.896 57.437 79.3682 57.708 79.0943C57.7468 79.0471 57.7855 79.0094 57.8339 78.9621C57.9307 78.8583 58.0371 78.7638 58.1436 78.6694C58.192 78.6316 58.2694 78.5466 58.3372 78.5183C58.3275 78.5183 57.8145 78.8677 58.1436 78.6694C58.2888 78.5844 58.4243 78.49 58.5695 78.4144C58.7824 78.3011 59.2374 78.2067 58.5501 78.3956C58.6856 78.3578 58.8212 78.3011 58.9567 78.2634C59.0922 78.2256 59.2374 78.1973 59.3729 78.1689C59.5955 78.1217 59.5955 78.2539 59.0922 78.2067C59.1696 78.2067 59.2567 78.1973 59.3342 78.1878C59.4406 78.1878 59.7407 78.1406 59.8278 78.1973C59.8375 78.1973 59.1599 78.0745 59.5471 78.1595C59.6052 78.1784 59.6729 78.1878 59.731 78.1973C59.8859 78.235 60.0214 78.2822 60.1762 78.3295C60.544 78.4428 59.9827 78.2634 59.9633 78.235C60.0311 78.3011 60.1762 78.3389 60.2537 78.3861C60.3892 78.4617 60.515 78.5466 60.6408 78.6222C60.8441 78.7544 60.6796 78.7922 60.4666 78.49C60.5053 78.5466 60.6215 78.6222 60.6602 78.66C60.7763 78.7638 60.8828 78.8677 60.9796 78.981C61.3281 79.3587 60.7183 78.5939 61.0086 79.0093C61.1248 79.1699 61.2216 79.3304 61.3184 79.5004C61.3474 79.557 61.3765 79.6137 61.4055 79.6704C61.541 79.9159 61.2216 79.1415 61.3377 79.5193C61.3958 79.6987 61.4636 79.8781 61.5023 80.067C61.5216 80.1331 61.5313 80.1897 61.541 80.2558C61.6378 80.6996 61.512 79.812 61.512 80.0764C61.512 80.2653 61.5216 80.4636 61.512 80.6524C61.512 80.7374 61.4732 80.9829 61.5313 80.5958C61.5991 80.1708 61.5313 80.558 61.512 80.6524C61.4732 80.8413 61.4055 81.0113 61.3571 81.1907C61.2893 81.4268 61.4926 80.8979 61.4829 80.9168C61.4345 81.0113 61.3958 81.1057 61.3474 81.2001C61.2603 81.3701 61.1538 81.5212 61.0474 81.6817C60.999 81.7478 60.8538 81.9367 61.0861 81.6439C61.3474 81.3229 61.0861 81.625 61.028 81.7006C60.9119 81.8234 60.7957 81.9461 60.6602 82.0594C60.6118 82.1066 60.5053 82.1633 60.4666 82.22C60.757 81.8517 60.8054 81.9744 60.5924 82.1161C60.4279 82.22 60.2634 82.3238 60.0988 82.4088C60.0407 82.4371 59.9827 82.4655 59.9246 82.4938C59.6729 82.626 60.4763 82.3144 60.0891 82.4277C59.9246 82.4749 59.76 82.5316 59.5955 82.5694C59.5568 82.5694 59.3922 82.626 59.3438 82.6166L59.731 82.5694C59.6439 82.5694 59.5568 82.5882 59.4697 82.5882C58.2114 82.6638 56.9918 83.6175 57.0499 84.949C57.1079 86.1671 58.1146 87.3947 59.4697 87.3097L59.4987 87.338Z" fill="#D9D9D9"/>
<path d="M33.7516 86.7431C35.8423 86.3937 37.7588 85.3833 39.3559 84.0519C40.1689 83.372 40.8658 82.5504 41.4466 81.6911C41.9692 80.9262 42.3951 80.0575 42.066 79.1132C41.8821 78.5844 41.6401 78.0461 41.3014 77.5834C39.9947 75.7798 37.8266 74.4484 35.4939 74.5711C34.1485 74.6372 32.987 75.0905 31.961 75.9215C31.1479 76.5825 30.6252 77.4701 30.2478 78.4144C29.4831 80.303 29.8993 82.6921 31.4093 84.118C33.0838 85.6855 35.4939 85.7705 37.5168 84.864C38.4073 84.4673 39.1913 83.7591 39.6946 82.9376C39.9269 82.5599 40.1205 82.1066 40.2076 81.6722C40.2754 81.3417 40.3335 80.9923 40.3238 80.6524C40.3238 79.8686 39.9269 79.302 39.4333 78.7449C37.6717 76.7619 34.3711 76.4503 32.3481 78.2067C30.2187 80.048 30.4317 83.9196 33.0547 85.2417C34.6324 86.0349 36.3844 85.6572 37.7201 84.609C38.8719 83.7025 39.472 82.0311 38.9687 80.6429C38.7558 80.0575 38.417 79.557 37.8556 79.2359C37.3329 78.9432 36.5683 78.811 35.9875 78.9999C34.8066 79.3681 33.8484 80.6524 34.2937 81.9083C34.3227 81.9933 34.342 82.0688 34.3614 82.1538L34.2743 81.5306C34.284 81.6439 34.2937 81.7478 34.2743 81.8516L34.3614 81.2284C34.342 81.3606 34.3033 81.4928 34.2549 81.6156L34.4969 81.049C34.4388 81.1717 34.3614 81.2945 34.2743 81.3984L34.6518 80.9168C34.5356 81.049 34.4195 81.1623 34.2743 81.2756L34.7679 80.9073C34.6227 81.0112 34.4679 81.0962 34.3033 81.1623L34.8841 80.9262C34.7486 80.9734 34.6034 81.0112 34.4582 81.0395L35.097 80.9546C34.9518 80.9734 34.8163 80.9734 34.6711 80.964L35.31 81.049C35.1648 81.0301 35.0293 80.9923 34.8938 80.9357L35.4745 81.1717C35.368 81.1245 35.2712 81.0584 35.1745 80.9923L35.6681 81.3606C35.5616 81.2662 35.4648 81.1717 35.3777 81.0679L35.7552 81.5495C35.6778 81.4362 35.61 81.3228 35.5519 81.1906L35.7939 81.7572C35.7262 81.5967 35.6875 81.4456 35.6584 81.2756L35.7455 81.8989C35.7165 81.6722 35.7165 81.4456 35.7455 81.219L35.6584 81.8422C35.6971 81.6439 35.7455 81.455 35.823 81.2662L35.581 81.8328C35.6487 81.6722 35.7359 81.5306 35.8423 81.3889L35.4648 81.8705C35.5713 81.7383 35.6971 81.6156 35.8326 81.5117L35.339 81.88C35.4648 81.7855 35.6003 81.71 35.7455 81.6439L35.1648 81.88C35.3777 81.795 35.6003 81.7383 35.8326 81.71L35.1938 81.795C35.4261 81.7761 35.6584 81.7761 35.8907 81.8139L35.2519 81.7289C35.4842 81.7667 35.7068 81.8328 35.9294 81.9177L35.3487 81.6817C35.6003 81.7855 35.8326 81.9177 36.0553 82.0783L35.5616 81.71C35.7455 81.8611 35.9101 82.0122 36.0649 82.201L35.6875 81.7194C35.7262 81.7761 35.7649 81.8233 35.8036 81.88L35.4745 80.6902C35.4745 80.794 35.4745 80.8979 35.4552 81.0018L35.5423 80.3785C35.5132 80.558 35.4648 80.7185 35.3971 80.8885L35.6391 80.3219C35.5519 80.5107 35.4455 80.6713 35.3196 80.8318L35.6971 80.3502C35.5616 80.5107 35.4164 80.6524 35.2519 80.7751L35.7455 80.4069C35.5132 80.5863 35.2616 80.7279 34.9809 80.8412L35.5616 80.6052C35.2809 80.7185 35.0002 80.794 34.7002 80.8318L35.339 80.7468C35.068 80.7751 34.797 80.7846 34.5356 80.7468L35.1745 80.8318C34.9325 80.8035 34.7099 80.7468 34.4776 80.6618L35.0583 80.8979C34.8647 80.8129 34.6808 80.7185 34.5066 80.5863L35.0002 80.9546C34.8454 80.8318 34.7099 80.6996 34.584 80.5485L34.9615 81.0301C34.8163 80.8507 34.7099 80.6618 34.6131 80.4541L34.855 81.0207C34.7583 80.7846 34.6905 80.5485 34.6518 80.2935L34.7389 80.9168C34.7002 80.6052 34.7002 80.2935 34.7389 79.9819L34.6518 80.6052C34.7002 80.2558 34.797 79.9253 34.9422 79.6042L34.7002 80.1708C34.8357 79.8781 35.0002 79.6042 35.2035 79.3493L34.826 79.8308C34.9906 79.6325 35.1745 79.4437 35.3874 79.2832L34.8938 79.6514C35.1067 79.4909 35.3293 79.3587 35.5713 79.2548L34.9906 79.4909C35.2616 79.3776 35.5423 79.302 35.8423 79.2643L35.2035 79.3493C35.5326 79.3115 35.8617 79.3115 36.1908 79.3493L35.5519 79.2643C35.9198 79.3209 36.2682 79.4154 36.6167 79.5476L36.0359 79.3115C36.4134 79.472 36.7618 79.6703 37.0813 79.9158L36.5876 79.5476C36.878 79.7742 37.149 80.0291 37.3813 80.3219L37.0038 79.8403C37.2361 80.133 37.42 80.4446 37.5749 80.7751L37.3329 80.2086C37.3716 80.303 37.4103 80.3974 37.4394 80.4919L37.6814 78.6694C37.4491 79.0848 37.178 79.4909 36.878 79.8686L37.2555 79.387C36.7715 79.9914 36.2101 80.5391 35.5907 81.0207L36.0843 80.6524C35.4261 81.1434 34.7099 81.5589 33.9549 81.8705L34.5356 81.6344C33.8774 81.8989 33.1902 82.0972 32.4836 82.2199C31.9223 82.3143 31.3125 82.8432 31.0414 83.3059C30.7414 83.8158 30.6059 84.5618 30.7995 85.1284C30.9931 85.6949 31.3512 86.2521 31.9126 86.5354C32.5224 86.847 33.1031 86.8847 33.7807 86.7714L33.7516 86.7431Z" fill="#D9D9D9"/>
<path d="M8.80899 88.9717C9.3607 89.0378 9.93177 88.9717 10.4641 88.8583C10.9965 88.745 11.5192 88.5373 11.9838 88.2823C12.9517 87.7819 13.7454 86.9792 14.3455 86.0916C14.9456 85.2039 15.2553 84.1369 15.3231 83.0698C15.3521 82.541 15.2844 81.9744 15.1392 81.4645C14.9456 80.7657 14.5681 80.1897 14.0745 79.6515C13.4066 78.9243 12.3709 78.3767 11.3933 78.1689C10.3673 77.9517 9.21552 77.9328 8.21856 78.3106C7.06674 78.7449 6.02139 79.4626 5.44064 80.5674C5.20834 81.0112 4.9954 81.5023 4.91796 82.0028C4.85989 82.3427 4.80181 82.6921 4.80181 83.0415C4.80181 83.3909 4.85989 83.7591 4.91796 84.118C5.06315 85.1284 5.58583 86.0443 6.26337 86.8092C7.01834 87.6685 8.13145 88.1879 9.26391 88.339C10.3964 88.4901 11.6159 88.2634 12.671 87.7063C13.5808 87.2247 14.4713 86.3937 14.9165 85.4778C15.2747 84.7412 15.5554 83.9575 15.4392 83.1359C15.3037 82.1538 14.5971 81.4834 13.8131 80.9451C13.0291 80.4069 12.0225 80.1803 11.1126 80.1897C9.16712 80.2086 7.32808 81.1907 6.25369 82.7676C6.00203 83.1454 5.80845 83.5892 5.6923 84.0236C5.57615 84.4579 5.50839 84.949 5.54711 85.4022C5.58582 85.8555 5.63422 86.3087 5.89556 86.7054C6.1569 87.102 6.45695 87.3475 6.83444 87.6119C7.11513 87.8007 7.45391 87.9329 7.77332 88.0368C8.09273 88.1407 8.44118 88.1785 8.77027 88.2068C8.92514 88.2257 9.07033 88.2162 9.21551 88.2068C9.95113 88.1218 10.5125 87.9896 11.1804 87.6402C11.6063 87.4136 12.0225 87.102 12.3516 86.7526C13.1356 85.931 13.7163 84.8168 13.6679 83.6647C13.6389 82.9848 13.4744 82.371 13.1259 81.7761C12.8258 81.2662 12.2645 80.8507 11.6837 80.6902C11.103 80.5296 10.3286 80.6052 9.81562 80.9263C8.7122 81.625 8.27664 83.0132 8.9445 84.1558C8.98321 84.2219 9.02193 84.2974 9.05097 84.3635L8.80899 83.7969C8.85739 83.9197 8.88642 84.0424 8.90578 84.1746L8.81867 83.5514C8.82835 83.6836 8.82835 83.8064 8.81867 83.9291L8.90578 83.3059C8.87674 83.4759 8.83803 83.6269 8.77027 83.7875L9.01225 83.2209C8.93482 83.4003 8.82835 83.5608 8.7122 83.7119L9.08968 83.2303C8.95418 83.4003 8.79931 83.5514 8.62508 83.6836L9.11872 83.3153C8.9445 83.4475 8.76059 83.5514 8.55733 83.6458L9.13808 83.4098C8.95418 83.4853 8.77995 83.5325 8.58637 83.5703L9.2252 83.4853C9.07033 83.5042 8.92514 83.5042 8.77995 83.4853L9.41878 83.5703C9.28327 83.5514 9.16712 83.5231 9.04129 83.4759L9.62204 83.7119C9.49621 83.6553 9.38006 83.5892 9.26391 83.5136L9.75755 83.8819L9.70915 83.8441L10.3286 84.8829L10.3286 84.8262L10.4061 85.4494C10.3867 85.27 10.377 85.0906 10.4061 84.9017L10.3189 85.525C10.348 85.3361 10.3964 85.1473 10.4738 84.9679L10.2318 85.5344C10.3189 85.3361 10.4254 85.1567 10.5609 84.9867L10.1834 85.4683C10.348 85.27 10.5319 85.0906 10.7351 84.9395L10.2415 85.3078C10.4835 85.1284 10.7448 84.9773 11.0255 84.864L10.4448 85.1001C10.7448 84.9773 11.0546 84.8923 11.374 84.8545L10.7351 84.9395C10.9965 84.9112 11.2481 84.9017 11.5095 84.9395L10.8707 84.8545C11.103 84.8829 11.3256 84.9395 11.5482 85.034L10.9674 84.7979C11.132 84.8734 11.2869 84.9584 11.432 85.0623L10.9384 84.694C11.0836 84.8073 11.2191 84.9395 11.3353 85.0812L10.9578 84.5996L10.9965 84.6468L10.6674 83.457C10.6674 83.457 10.6674 83.5514 10.648 83.5892L10.7351 82.9659C10.7061 83.1642 10.648 83.3625 10.5706 83.5514L10.8126 82.9848C10.7158 83.2115 10.59 83.4192 10.4351 83.6175L10.8126 83.1359C10.6384 83.3531 10.4448 83.542 10.2221 83.7119L10.7158 83.3437C10.4738 83.5231 10.2125 83.6742 9.93177 83.7875L10.5125 83.5514C10.2512 83.6553 9.98985 83.7214 9.70915 83.7591L10.348 83.6742C10.0963 83.7025 9.84466 83.7025 9.593 83.6742L10.2318 83.7591C9.99953 83.7214 9.78659 83.6647 9.56396 83.5797L10.1447 83.8158C9.96081 83.7403 9.79627 83.6364 9.6414 83.5231L10.135 83.8913C9.94145 83.7497 9.77691 83.5892 9.63172 83.4098L10.0092 83.8913C9.83498 83.6742 9.69947 83.4381 9.58332 83.1831L9.8253 83.7497C9.70915 83.4664 9.63172 83.1831 9.593 82.8904L9.68011 83.5136C9.65108 83.2398 9.65108 82.9659 9.68011 82.6826L9.593 83.3059C9.63172 83.0509 9.69947 82.8148 9.79627 82.5788L9.55429 83.1454C9.6414 82.9471 9.74787 82.7676 9.88338 82.5977L9.50589 83.0793C9.6414 82.9093 9.79627 82.7582 9.97049 82.626L9.47685 82.9943C9.65108 82.8715 9.84466 82.7582 10.0382 82.6732L9.45749 82.9093C9.71883 82.8054 9.99953 82.7299 10.2802 82.6921L9.6414 82.7771C9.93177 82.7488 10.2125 82.7488 10.5028 82.7771L9.86402 82.6921C10.1544 82.7299 10.4254 82.8054 10.6964 82.9093L10.1157 82.6732C10.3577 82.7771 10.59 82.8998 10.7932 83.0509L10.2996 82.6826C10.4738 82.8148 10.6287 82.9659 10.7642 83.1265L10.3867 82.6449C10.4641 82.7487 10.5416 82.8526 10.6093 82.9659L10.3673 82.3994C10.4641 82.6354 10.5222 82.8809 10.5609 83.1265L10.4738 82.5032C10.5028 82.7771 10.5028 83.0415 10.4738 83.3153L10.5609 82.6921C10.5125 83.0132 10.4254 83.3153 10.2996 83.6081L10.5416 83.0415C10.3867 83.3814 10.2028 83.7025 9.97049 83.9952L10.348 83.5136C10.1254 83.7875 9.8737 84.033 9.593 84.2407L10.0866 83.8725C9.8253 84.0613 9.54461 84.2313 9.24455 84.3541L9.8253 84.118C9.56397 84.2219 9.30263 84.2974 9.02193 84.3352L9.66075 84.2502C9.38006 84.288 9.09936 84.288 8.81867 84.2502C8.2476 84.1746 7.49262 84.5618 7.10545 84.9395C6.68925 85.3456 6.36984 86.0255 6.39887 86.6109C6.42791 87.1964 6.63117 87.8574 7.10545 88.2823L7.59909 88.6506C7.97658 88.8678 8.3831 88.9717 8.81867 88.9717L8.80899 88.9717Z" fill="#D9D9D9"/>
<path d="M57.8824 60.1894C59.1697 60.1045 60.5248 60.0289 61.7541 59.6134C63.2446 59.1129 64.4545 58.3009 65.345 57.0261C66.1581 55.8551 66.4194 54.3631 66.1097 52.9939C65.7322 51.3414 64.3287 50.2366 62.7994 49.6322C60.6022 48.7635 57.6791 49.4339 56.1014 51.1525C55.1722 52.1629 54.5915 53.4377 54.6399 54.8164C54.6883 56.1951 55.2303 57.4321 56.1208 58.4897C57.0113 59.5473 58.3083 60.095 59.673 60.2272C61.0378 60.3594 62.2961 59.7645 63.264 58.9052C64.0674 58.197 64.6965 57.111 64.8804 56.0629C65.1321 54.5709 64.8127 53.1733 63.7673 52.0307C62.9543 51.1431 61.6089 50.6709 60.4086 50.7276C59.1116 50.7937 57.9695 51.2564 56.9919 52.0779C56.0821 52.8428 55.4819 54.1459 55.5884 55.3169C55.7239 56.8278 56.4789 57.9987 57.7372 58.858C58.6761 59.4907 59.9828 59.7834 61.1055 59.7551C62.3058 59.7267 63.5447 59.3962 64.532 58.7069C65.9064 57.7437 66.9227 56.3745 67.0002 54.6559C67.0776 52.9372 65.9451 51.3508 64.3868 50.7087C63.5641 50.3688 62.6736 50.2649 61.8024 50.5293C60.5926 50.8976 59.7021 52.1912 60.1086 53.4377C60.5151 54.6842 61.7928 55.4868 63.0898 55.0902C63.1866 55.0619 63.2737 55.043 63.3705 55.0241L62.7316 55.1091C62.8284 55.1091 62.9156 55.1091 63.0123 55.1091L62.3735 55.0241C62.5284 55.043 62.6736 55.0902 62.8188 55.1469L62.238 54.9108C62.3542 54.9675 62.4606 55.0336 62.5671 55.0997L62.0735 54.7314C62.1993 54.8353 62.3154 54.9392 62.4219 55.0714L62.0444 54.5898C62.1703 54.7503 62.267 54.9108 62.3445 55.0902L62.1025 54.5237C62.1606 54.6748 62.1993 54.8258 62.2283 54.9958L62.1412 54.3726C62.1509 54.5048 62.1509 54.6275 62.1412 54.7597L62.2283 54.1365C62.1993 54.3348 62.1509 54.5331 62.0735 54.722L62.3154 54.1554C62.2187 54.3726 62.1025 54.5709 61.9573 54.7692L62.3348 54.2876C62.1315 54.5331 61.9089 54.7503 61.6573 54.9392L62.1509 54.5709C61.8702 54.7786 61.5701 54.9486 61.2411 55.0808L61.8218 54.8447C61.5218 54.9675 61.2023 55.043 60.8829 55.0902L61.5218 55.0053C61.1636 55.043 60.8055 55.043 60.4474 55.0053L61.0862 55.0902C60.7377 55.043 60.399 54.958 60.0796 54.8258L60.6603 55.0619C60.428 54.958 60.2151 54.8353 60.0215 54.6936L60.5151 55.0619C60.3699 54.9486 60.2344 54.8164 60.1183 54.6748L60.4958 55.1563C60.3796 55.0053 60.2925 54.8542 60.2151 54.6842L60.457 55.2508C60.399 55.0997 60.3506 54.9392 60.3215 54.7786L60.4086 55.4019C60.3893 55.2508 60.3893 55.1091 60.4086 54.958L60.3215 55.5813C60.3409 55.4113 60.3893 55.2602 60.457 55.1091L60.2151 55.6757C60.2828 55.5246 60.3699 55.3924 60.4764 55.2602L60.0989 55.7418C60.2247 55.5907 60.3603 55.4585 60.5248 55.3452L60.0312 55.7135C60.2151 55.5813 60.4086 55.468 60.6216 55.3735L60.0408 55.6096C60.2828 55.5152 60.5248 55.4396 60.7765 55.4019L60.1376 55.4868C60.3893 55.4585 60.6409 55.4491 60.8926 55.4868L60.2538 55.4019C60.428 55.4302 60.5926 55.468 60.7474 55.5341L60.1667 55.298C60.3312 55.3641 60.4764 55.4491 60.6119 55.5529L60.1183 55.1847C60.2441 55.2791 60.3409 55.3924 60.4474 55.5152L60.0699 55.0336C60.1667 55.1658 60.2441 55.298 60.3119 55.4491L60.0699 54.8825C60.1376 55.0525 60.186 55.2224 60.2151 55.4113L60.1279 54.7881C60.157 54.9958 60.157 55.2036 60.1279 55.4207L60.2151 54.7975C60.1763 55.0714 60.0989 55.3263 59.9924 55.5718L60.2344 55.0053C60.1279 55.2319 60.0021 55.4396 59.8569 55.6474L60.2344 55.1658C60.0602 55.383 59.8666 55.5718 59.644 55.7418L60.1376 55.3735C59.9537 55.5057 59.7698 55.6096 59.5666 55.6946L60.1473 55.4585C59.9634 55.5246 59.7795 55.5718 59.5956 55.6096L60.2344 55.5246C60.0312 55.5435 59.8279 55.5435 59.6246 55.5246L60.2635 55.6096C60.0215 55.5718 59.7989 55.5152 59.5859 55.4207L60.1667 55.6568C59.9537 55.5624 59.7505 55.4396 59.5666 55.298L60.0602 55.6663C59.8473 55.4963 59.6633 55.3169 59.4988 55.0997L59.8763 55.5813C59.6924 55.3452 59.5472 55.0902 59.4214 54.8164L59.6633 55.383C59.5472 55.1091 59.4698 54.8258 59.4214 54.5237L59.5085 55.1469C59.4794 54.8825 59.4794 54.6181 59.5085 54.3537L59.4214 54.9769C59.4601 54.7409 59.5182 54.5142 59.615 54.297L59.373 54.8636C59.4698 54.6464 59.5956 54.4387 59.7408 54.2404L59.3633 54.722C59.5472 54.4859 59.7601 54.2781 60.0021 54.0987L59.5085 54.467C59.7601 54.2876 60.0215 54.1365 60.3022 54.0137L59.7214 54.2498C60.0699 54.1082 60.428 54.0137 60.7958 53.9571L60.157 54.0421C60.4958 54.0043 60.8345 53.9949 61.183 54.0421L60.5442 53.9571C60.8829 54.0043 61.212 54.0893 61.5314 54.212L60.9507 53.976C61.212 54.0893 61.4637 54.2309 61.696 54.4009L61.2023 54.0326C61.3766 54.1743 61.5411 54.3254 61.6766 54.4953L61.2991 54.0137C61.4056 54.1554 61.4927 54.2876 61.5701 54.4481L61.3282 53.8815C61.4153 54.0893 61.4734 54.2876 61.5024 54.5048L61.4153 53.8815C61.4346 54.0987 61.4346 54.3159 61.4056 54.5331L61.4927 53.9099C61.454 54.1648 61.3766 54.4103 61.2798 54.6464L61.5218 54.0798C61.3959 54.3537 61.2507 54.5992 61.0668 54.8447L61.4443 54.3631C61.2604 54.5992 61.0475 54.807 60.8152 54.9958L61.3088 54.6275C60.9991 54.8542 60.67 55.0336 60.3119 55.1941L60.8926 54.958C60.2441 55.2224 59.5666 55.3641 58.8793 55.4585L59.5182 55.3735C58.9858 55.4396 58.4438 55.4774 57.9114 55.5152C57.2629 55.5529 56.6628 55.7513 56.1982 56.2045C55.782 56.6106 55.4626 57.2905 55.4916 57.8759C55.5497 59.0846 56.5563 60.3216 57.9114 60.2367L57.8824 60.1894Z" fill="#D9D9D9"/>
<path d="M36.9462 60.7561C37.585 60.5389 38.2142 60.2745 38.7659 59.8779C39.4918 59.3491 40.0339 58.8297 40.5662 58.112C40.9534 57.6021 41.2244 56.9978 41.4277 56.3934C41.6309 55.7891 41.7277 55.0808 41.66 54.4293C41.5825 53.6455 41.418 52.8995 40.9824 52.2196C40.5759 51.5775 40.0726 51.1148 39.4434 50.6899C38.9885 50.3782 38.4465 50.1611 37.9141 50.0194C37.3818 49.8778 36.8107 49.7928 36.259 49.8306C34.7297 49.9155 33.4327 50.5293 32.5422 51.7475C31.7194 52.8712 31.7678 54.5237 32.1453 55.808C32.5519 57.1866 33.4133 58.3859 34.6522 59.1697C35.3588 59.6229 36.1912 59.8401 37.0333 59.8968C37.8754 59.9534 38.6304 59.6985 39.3563 59.368C39.908 59.113 40.4404 58.7164 40.8372 58.2631C41.3405 57.6871 41.8051 57.0072 41.96 56.2518C42.0374 55.8929 42.1052 55.5152 42.0762 55.1469C42.0278 54.5143 41.8923 54.0516 41.6212 53.4755C41.2534 52.6918 40.5178 52.0213 39.7628 51.5964C37.4302 50.2649 34.2941 51.0581 32.639 53.06C32.1163 53.6927 31.7678 54.2593 31.4871 55.0242C31.4097 55.2225 31.3613 55.4208 31.3323 55.6285C31.2742 56.0157 31.1968 56.4217 31.2355 56.8183C31.342 58.0932 31.8453 59.368 32.8713 60.2178C33.7037 60.9166 34.6909 61.436 35.7944 61.5871C36.3751 61.672 36.9075 61.7381 37.4882 61.672C38.3013 61.5776 38.9014 61.4265 39.6467 61.1055C40.6049 60.69 41.4954 59.8684 41.96 58.9525C42.715 57.451 42.2891 55.7796 41.1954 54.5709C39.7241 52.9373 36.8204 52.3707 34.9136 53.5889C34.3328 53.9571 33.8198 54.4576 33.5004 55.062C33.21 55.6285 33.0745 56.2518 33.2584 56.8845C33.4133 57.4321 33.8489 58.0271 34.3715 58.2915C35.475 58.858 37.072 58.622 37.6818 57.4416C37.7399 57.3377 37.798 57.2433 37.8657 57.1489L37.4882 57.6304C37.585 57.5171 37.6818 57.4133 37.8076 57.3283L37.314 57.6965C37.4302 57.6116 37.556 57.5455 37.6915 57.4888L37.1107 57.7249C37.285 57.6588 37.4592 57.6116 37.6431 57.5927L37.0043 57.6777C37.2366 57.6493 37.4592 57.6588 37.6915 57.6777L37.0527 57.5927C37.3237 57.6304 37.5947 57.706 37.8464 57.8099L37.2656 57.5738C37.4979 57.6777 37.7205 57.8004 37.9141 57.9515L37.4205 57.5832C37.5657 57.6965 37.7012 57.8287 37.8173 57.9704L37.4398 57.4888C37.5366 57.621 37.6237 57.7532 37.6915 57.8949L37.4495 57.3283C37.5076 57.4605 37.5463 57.5927 37.5657 57.7343L37.4786 57.1111C37.4979 57.2622 37.4979 57.4038 37.4786 57.5549L37.5657 56.9317C37.5657 56.9883 37.5463 57.045 37.5366 57.1016L37.7786 56.5351C37.7012 56.705 37.6044 56.8656 37.4882 57.0072L37.8657 56.5256C37.7302 56.705 37.5657 56.8561 37.3914 56.9978L37.8851 56.6295C37.6721 56.79 37.4398 56.9222 37.1979 57.0261L37.7786 56.79C37.4882 56.9033 37.1882 56.9883 36.8688 57.0355L37.5076 56.9506C37.1495 56.9978 36.7817 56.9978 36.4235 56.9506L37.0623 57.0355C36.7236 56.9883 36.3945 56.9033 36.0848 56.7806L36.6655 57.0167C36.3945 56.9033 36.1428 56.7711 35.9105 56.6012L36.4042 56.9694C36.2106 56.8184 36.0364 56.6578 35.8815 56.4595L36.259 56.9411C36.1235 56.7617 36.0073 56.5728 35.9202 56.3651L36.1622 56.9317C36.0848 56.7334 36.0267 56.5351 35.9976 56.3368L36.0848 56.96C36.0557 56.7239 36.0557 56.4973 36.0848 56.2612L35.9976 56.8845C36.0364 56.6295 36.1041 56.384 36.2009 56.1479L35.9589 56.7145C36.0848 56.4312 36.2493 56.1668 36.4429 55.9213L36.0654 56.4029C36.2687 56.1573 36.4913 55.9402 36.7429 55.7419L36.2493 56.1101C36.5203 55.9024 36.8204 55.7324 37.1398 55.5908L36.559 55.8268C36.8494 55.7041 37.1495 55.6285 37.4689 55.5813L36.83 55.6663C37.072 55.638 37.3043 55.638 37.5463 55.6663L36.9075 55.5813C37.1495 55.6097 37.3818 55.6758 37.6044 55.7607L37.0236 55.5247C37.2366 55.6191 37.4302 55.7324 37.6237 55.8646L37.1301 55.4963C37.285 55.6191 37.4205 55.7419 37.556 55.8929L37.1785 55.4113C37.2946 55.553 37.3818 55.6946 37.4592 55.8646L37.2172 55.298C37.2753 55.4302 37.3043 55.5624 37.3334 55.7041L37.2463 55.0808C37.2656 55.2225 37.2656 55.3547 37.2463 55.4869L37.3334 54.8637C37.3043 55.0525 37.2559 55.2225 37.1785 55.3925L37.4205 54.8259C37.343 55.0053 37.2366 55.1658 37.1204 55.3169L37.4979 54.8353C37.3527 55.0147 37.1979 55.1658 37.0236 55.3075L37.5173 54.9392C37.314 55.0903 37.1011 55.213 36.8591 55.3169L37.4398 55.0808C37.2463 55.1564 37.0623 55.2036 36.8591 55.2414L37.4979 55.1564C37.2946 55.1847 37.1011 55.1847 36.8978 55.1564L37.5366 55.2414C37.3334 55.213 37.1301 55.1469 36.9365 55.0714L37.5173 55.3075C37.3043 55.213 37.1107 55.0997 36.9172 54.9581L37.4108 55.3264C37.2075 55.1658 37.0236 54.9864 36.8688 54.7881L37.2463 55.2697C37.0527 55.0242 36.8978 54.7503 36.7623 54.4671L37.0043 55.0336C36.8591 54.6937 36.7526 54.3349 36.7042 53.9666L36.7913 54.5898C36.7429 54.2215 36.7429 53.8533 36.7913 53.485L36.7042 54.1082C36.7042 54.061 36.7139 54.0138 36.7429 53.976L36.501 54.5426C36.5687 54.3915 36.6461 54.2593 36.7429 54.1271L36.3654 54.6087C36.4622 54.4859 36.5784 54.3821 36.7042 54.2876L36.2106 54.6559C36.3558 54.552 36.5106 54.4671 36.6752 54.401L36.0944 54.637C36.288 54.5615 36.4816 54.5143 36.6849 54.4859L36.046 54.5709C36.3171 54.5332 36.5881 54.5332 36.8591 54.5709L36.2203 54.4859C36.5203 54.5237 36.8107 54.5993 37.0817 54.722L36.501 54.4859C36.7139 54.5804 36.9172 54.6937 37.1107 54.8259L36.6171 54.4576C36.7817 54.5804 36.9365 54.722 37.0623 54.892L36.6849 54.4104C36.801 54.5615 36.8978 54.7126 36.9752 54.892L36.7333 54.3254C36.8204 54.5426 36.8784 54.7598 36.9172 54.9959L36.83 54.3726C36.8688 54.637 36.8688 54.9014 36.83 55.1658L36.9172 54.5426C36.8688 54.8637 36.7817 55.1658 36.6558 55.468L36.8978 54.9014C36.7526 55.2319 36.5687 55.5341 36.3461 55.8174L36.7236 55.3358C36.4719 55.6474 36.1912 55.9213 35.8815 56.1573L36.3751 55.7891C36.0751 56.0063 35.7653 56.1951 35.4169 56.3368L35.9976 56.1007C35.8912 56.1479 35.7847 56.1857 35.6782 56.214C35.0781 56.4123 34.5554 56.7523 34.236 57.2999C33.936 57.8099 33.8005 58.5559 33.9941 59.1224C34.1876 59.689 34.5458 60.2461 35.1072 60.5294C35.6685 60.8127 36.3558 60.9733 36.9752 60.7655L36.9462 60.7561Z" fill="#D9D9D9"/>
<path d="M13.2127 61.7288C15.4486 61.0395 16.8327 58.9809 16.8714 56.724C16.8908 55.742 16.6101 54.656 16.039 53.8439C15.6712 53.3246 15.2066 52.7958 14.6355 52.4841C13.6676 51.9364 12.7191 52.2197 11.7802 52.5974C9.76691 53.4095 7.51167 54.7599 7.04707 57.0168C6.53407 59.4719 8.14081 61.946 10.7155 62.3709C12.7771 62.7109 14.8291 62.2859 16.7166 61.455C17.9942 60.8884 19.088 59.9158 19.5816 58.6126C20.2204 56.9318 19.2428 55.1754 17.7329 54.3444C15.2453 52.9752 12.0125 52.843 9.76691 54.7127C7.773 56.3746 7.20193 59.793 9.25392 61.6438C10.3961 62.6731 11.8673 63.013 13.3772 62.7675C14.7323 62.5503 16.0487 61.4927 16.4068 60.1707C16.8521 58.5371 15.4776 56.7524 14.0064 56.1008C12.5352 55.4492 10.9091 55.3737 9.55397 56.2424C8.49894 56.9223 7.94723 58.3577 8.68285 59.4719C9.36039 60.5012 10.8607 61.0489 11.9931 60.3218C12.0996 60.2557 12.1964 60.199 12.3125 60.1518L11.7318 60.3879C11.906 60.3218 12.0706 60.2746 12.2545 60.2557L11.6156 60.3407C11.7995 60.3218 11.9738 60.3218 12.1577 60.3407L11.5188 60.2557C11.7318 60.284 11.935 60.3407 12.1383 60.4162L11.5576 60.1802C11.7608 60.2651 11.935 60.369 12.1093 60.4918L11.6156 60.1235C11.7608 60.2368 11.8867 60.3596 12.0028 60.5012L11.6253 60.0196C11.7124 60.1424 11.7899 60.2651 11.8576 60.3973L11.6156 59.8308C11.664 59.9441 11.7027 60.048 11.7318 60.1707L11.7318 58.9148L11.7027 58.9903L11.9447 58.4238C11.8963 58.5182 11.8479 58.6032 11.7802 58.6976L12.1577 58.216C12.0802 58.3199 11.9834 58.4049 11.8867 58.4804L12.3803 58.1121C12.2738 58.1877 12.1674 58.2538 12.0415 58.301L12.6223 58.0649C12.448 58.131 12.2738 58.1782 12.0802 58.2066L12.7191 58.1216C12.5255 58.1405 12.3319 58.1405 12.1383 58.1216L12.7771 58.2066C12.5545 58.1782 12.3416 58.1216 12.1383 58.0366L12.7191 58.2727C12.5642 58.2066 12.4287 58.1216 12.2932 58.0272L12.7868 58.3954C12.6803 58.3104 12.5836 58.216 12.4964 58.1216L12.8739 58.6032C12.7578 58.4615 12.6803 58.3104 12.6029 58.1499L12.8449 58.7165C12.7868 58.556 12.7481 58.4049 12.7191 58.2443L12.8062 58.8676C12.7868 58.6693 12.7771 58.4804 12.8062 58.2821L12.7191 58.9054C12.7578 58.641 12.8255 58.386 12.932 58.1405L12.69 58.707C12.8062 58.4521 12.9514 58.2255 13.1159 58.0083L12.7384 58.4899C12.8933 58.301 13.0675 58.1405 13.2611 57.9894L12.7675 58.3577C12.9707 58.2066 13.1837 58.0838 13.416 57.9799L12.8352 58.216C13.1643 58.0838 13.4934 57.9988 13.8418 57.9516L13.203 58.0366C13.5999 57.9988 13.987 57.9988 14.3839 58.046L13.7451 57.9611C14.2774 58.0366 14.7904 58.1782 15.284 58.3765L14.7033 58.1405C15.0033 58.2727 15.2937 58.4049 15.5647 58.5937L15.0711 58.2255C15.1969 58.3199 15.3034 58.4143 15.4002 58.5371L15.0227 58.0555C15.0711 58.1121 15.1098 58.1782 15.1389 58.2443L14.8969 57.6778C14.9356 57.7722 14.9646 57.8572 14.9937 57.9611L14.9066 57.3378C14.9162 57.4323 14.9259 57.5172 14.9066 57.6117L14.9937 56.9884C14.9743 57.1112 14.9453 57.2245 14.8969 57.3473L15.1389 56.7807C15.0808 56.9034 15.013 57.0073 14.9259 57.1206L15.3034 56.639C15.1389 56.8373 14.955 57.0073 14.7517 57.1678L15.2453 56.7996C14.9066 57.0451 14.5387 57.2434 14.1516 57.4039L14.7323 57.1678C13.9774 57.47 13.1933 57.6872 12.3803 57.8005L13.0191 57.7155C12.5158 57.7816 12.0125 57.8005 11.5092 57.7439L12.148 57.8289C11.8383 57.7911 11.5382 57.7155 11.2381 57.5928L11.8189 57.8289C11.6447 57.7533 11.4898 57.6589 11.3349 57.555L11.8286 57.9233C11.7027 57.8289 11.5963 57.7155 11.4898 57.5928L11.8673 58.0744C11.7511 57.9233 11.6544 57.7628 11.5769 57.5833L11.8189 58.1499C11.7511 57.9705 11.7027 57.8005 11.6737 57.6117L11.7608 58.2349C11.7415 58.0555 11.7415 57.8855 11.7608 57.7061L11.6737 58.3293C11.7027 58.1594 11.7511 57.9894 11.8092 57.8289L11.5672 58.3954C11.664 58.1688 11.7899 57.9705 11.935 57.7816L11.5576 58.2632C11.7899 57.9799 12.0512 57.7344 12.3319 57.5172L11.8383 57.8855C12.3803 57.4795 12.9804 57.1584 13.6095 56.894L13.0288 57.1301C13.3482 56.9979 13.6773 56.8751 14.0161 56.7712L12.148 56.5352L12.2157 56.5824L11.7221 56.2141C11.877 56.3369 12.0125 56.4691 12.1383 56.6202L11.7608 56.1386C11.8963 56.3085 12.0028 56.4974 12.0899 56.6957L11.8479 56.1291C11.9447 56.3557 12.0028 56.5918 12.0415 56.8279L11.9544 56.2047C11.9931 56.5068 11.9931 56.809 11.9544 57.1112L12.0415 56.488C12.0028 56.7618 11.9254 57.0262 11.8189 57.2812L12.0609 56.7146C11.9544 56.9695 11.8092 57.1962 11.6447 57.4228L12.0222 56.9412C11.8867 57.1112 11.7318 57.2623 11.5576 57.3945L12.0512 57.0262C11.8963 57.1395 11.7318 57.2339 11.5479 57.3095L12.1286 57.0734C12.0512 57.1017 11.9738 57.1301 11.8867 57.1584C10.6864 57.5267 9.78627 58.8204 10.1928 60.0668C10.58 61.2472 11.877 62.116 13.174 61.7194L13.2127 61.7288Z" fill="#D9D9D9"/>
<path d="M57.2243 38.0741C59.6634 37.923 61.8412 36.6577 63.1189 34.6274C64.3965 32.5972 64.3675 30.1137 63.2931 27.9985C62.2187 25.8833 59.9635 24.4196 57.5631 24.2402C55.4917 24.0796 53.2558 25.0712 51.9298 26.6104C50.323 28.4801 49.8197 30.9164 50.9522 33.1449C51.7362 34.703 53.5365 35.9306 55.2691 36.2327C57.5147 36.6294 59.7989 35.9967 61.096 34.0609C62.2284 32.38 62.0058 30.057 60.9314 28.4045C59.5182 26.2326 56.9049 25.1184 54.4173 26.2326C53.1977 26.7803 52.3847 28.074 52.2105 29.3394C51.9878 30.973 52.8493 32.5594 54.5625 33.0033C55.7821 33.3149 57.2436 32.6067 57.5437 31.3507C57.8437 30.0948 57.1662 28.7822 55.8498 28.4423C55.5207 28.3573 56.1983 28.6028 56.1789 28.5934C56.1499 28.5745 56.6919 29.0372 56.4887 28.82C56.6532 28.99 56.779 29.1694 56.8662 29.3866C57.0791 29.8965 56.8952 29.1977 56.9629 29.7549C57.0501 30.4253 56.9629 29.7171 56.992 29.736C57.0404 29.7549 56.8371 30.3876 56.9533 30.0948C56.9726 30.0382 57.0017 29.9721 57.0113 29.9154C56.8758 30.5386 56.779 30.3876 56.8855 30.2176C56.8952 30.1987 56.992 30.0476 56.992 30.057C57.0113 30.0948 56.5467 30.5198 56.7984 30.312C56.8274 30.2837 56.8758 30.2459 56.9049 30.2081C57.021 30.0665 56.3919 30.6236 56.7694 30.3403C56.3048 30.6803 56.266 30.5198 56.479 30.4725C56.5951 30.4537 56.9145 30.397 56.4499 30.4537C55.9853 30.5103 56.3919 30.482 56.5177 30.4725C56.8855 30.4631 55.8692 30.3215 56.3048 30.4442C56.4112 30.4725 56.8855 30.6425 56.4306 30.4537C55.9757 30.2648 56.4209 30.4631 56.5274 30.5292C56.992 30.8125 56.3725 30.4725 56.4016 30.4159C56.4016 30.4159 56.6726 30.6708 56.6919 30.6897C56.7694 30.7653 57.0597 31.1241 56.7694 30.7558C56.479 30.3876 56.8081 30.8408 56.8662 30.9352C56.9242 31.0297 57.1081 31.4452 56.9242 31.0202C56.7403 30.5953 56.9145 31.0108 56.9436 31.1147C56.9726 31.2185 57.0017 31.3413 57.0307 31.4546C57.1468 31.889 56.992 30.8125 57.0113 31.3696C57.0113 31.4829 57.0017 31.5963 57.0017 31.7096C57.0017 31.9834 57.1372 31.1147 57.0404 31.3696C57.021 31.4168 57.021 31.464 57.0017 31.5113C57.0017 31.5018 56.9436 31.6907 56.9436 31.7001C56.9242 31.6812 57.2436 31.1241 57.0694 31.4074C57.0404 31.4452 57.021 31.4924 56.992 31.5396C56.8081 31.9362 57.1275 31.313 57.1662 31.3507C57.1759 31.3696 56.9533 31.5774 56.9145 31.6057C56.8468 31.6812 56.6339 31.8323 56.9629 31.5774C57.292 31.3224 57.0985 31.4829 57.0017 31.5302C56.9436 31.5585 56.721 31.6435 56.7016 31.6907C56.7016 31.6718 57.3211 31.4735 57.0113 31.5585C56.9533 31.5774 56.8855 31.5963 56.8274 31.6151C56.5758 31.6812 56.1983 31.6529 56.992 31.6151C56.8758 31.6151 56.7597 31.634 56.6435 31.634C56.5274 31.634 56.4112 31.634 56.2951 31.6246C55.9563 31.6246 56.6242 31.6624 56.6435 31.6718C56.5951 31.634 56.4499 31.634 56.3919 31.6246C56.2757 31.5963 56.1596 31.5679 56.0434 31.5396C55.9273 31.5113 55.5207 31.3413 55.9466 31.5207C56.3725 31.7001 55.966 31.5207 55.8692 31.4735C55.7337 31.398 55.6079 31.3224 55.4724 31.2374C55.0561 30.9825 55.8498 31.5774 55.5982 31.3318C55.5014 31.2374 55.3949 31.1524 55.3078 31.058C55.2788 31.0202 55.2401 30.9825 55.211 30.9447C55.0078 30.7653 55.5401 31.4168 55.4046 31.1902C55.3368 31.0769 55.2497 30.973 55.1917 30.8597C55.1626 30.803 55.1336 30.7464 55.1045 30.6897C54.969 30.4537 55.2884 31.2469 55.2304 30.9825C55.2013 30.8691 55.1529 30.7653 55.1336 30.652C55.1336 30.6236 55.0949 30.4537 55.0949 30.4537C55.1336 30.4537 55.1239 31.0202 55.1529 30.803C55.1626 30.6897 55.0852 30.3687 55.1626 30.2648C55.2013 30.2176 55.0368 30.8503 55.1239 30.6047C55.1529 30.5292 55.1529 30.4537 55.1723 30.3781C55.211 30.2459 55.2691 30.1231 55.2981 29.9909C55.1917 30.5009 55.0949 30.4159 55.2013 30.2365C55.2401 30.1704 55.2788 30.0948 55.3175 30.0287C55.3852 29.906 55.4724 29.7171 55.5788 29.6321C55.5788 29.6321 55.1626 30.1043 55.4336 29.8304C55.4724 29.7832 55.5111 29.7454 55.5595 29.6982C55.6563 29.5943 55.7627 29.4999 55.8692 29.4055C55.9176 29.3677 55.995 29.2827 56.0628 29.2544C56.0531 29.2544 55.5401 29.6038 55.8692 29.4055C56.0144 29.3205 56.1499 29.2261 56.2951 29.1505C56.508 29.0372 56.9629 28.9428 56.2757 29.1316C56.4112 29.0939 56.5467 29.0372 56.6822 28.9994C56.8178 28.9617 56.9629 28.9333 57.0985 28.905C57.3211 28.8578 57.3211 28.99 56.8178 28.9428C56.8952 28.9428 56.9823 28.9333 57.0597 28.9239C57.1662 28.9239 57.4663 28.8767 57.5534 28.9333C57.5631 28.9333 56.8855 28.8106 57.2727 28.8956C57.3308 28.9144 57.3985 28.9239 57.4566 28.9333C57.6114 28.9711 57.747 29.0183 57.9018 29.0655C58.2696 29.1789 57.7082 28.9994 57.6889 28.9711C57.7566 29.0372 57.9018 29.075 57.9793 29.1222C58.1148 29.1977 58.2406 29.2827 58.3664 29.3583C58.5697 29.4905 58.4051 29.5282 58.1922 29.2261C58.2309 29.2827 58.3471 29.3583 58.3858 29.396C58.5019 29.4999 58.6084 29.6038 58.7052 29.7171C59.0536 30.0948 58.4439 29.3299 58.7342 29.7454C58.8504 29.906 58.9472 30.0665 59.044 30.2365C59.073 30.2931 59.102 30.3498 59.1311 30.4064C59.2666 30.652 58.9472 29.8776 59.0633 30.2554C59.1214 30.4348 59.1892 30.6142 59.2279 30.803C59.2472 30.8691 59.2569 30.9258 59.2666 30.9919C59.3634 31.4357 59.2375 30.5481 59.2375 30.8125C59.2375 31.0013 59.2472 31.1996 59.2375 31.3885C59.2375 31.4735 59.1988 31.719 59.2569 31.3318C59.3247 30.9069 59.2569 31.2941 59.2375 31.3885C59.1988 31.5774 59.1311 31.7473 59.0827 31.9268C59.0149 32.1628 59.2182 31.634 59.2085 31.6529C59.1601 31.7473 59.1214 31.8418 59.073 31.9362C58.9859 32.1062 58.8794 32.2573 58.7729 32.4178C58.7246 32.4839 58.5794 32.6728 58.8117 32.38C59.073 32.059 58.8117 32.3611 58.7536 32.4367C58.6374 32.5594 58.5213 32.6822 58.3858 32.7955C58.3374 32.8427 58.2309 32.8994 58.1922 32.956C58.4826 32.5878 58.531 32.7105 58.318 32.8522C58.1535 32.956 57.9889 33.0599 57.8244 33.1449C57.7663 33.1732 57.7082 33.2016 57.6502 33.2299C57.3985 33.3621 58.2019 33.0505 57.8147 33.1638C57.6502 33.211 57.4856 33.2677 57.3211 33.3054C57.2824 33.3054 57.1178 33.3621 57.0694 33.3526L57.4566 33.3054C57.3695 33.3054 57.2824 33.3243 57.1952 33.3243C55.937 33.3999 54.7174 34.3536 54.7755 35.6851C54.8335 36.9032 55.8402 38.1308 57.1952 38.0458L57.2243 38.0741Z" fill="#D9D9D9"/>
<path d="M31.4772 37.4886C33.5679 37.1393 35.4844 36.1289 37.0814 34.7974C37.8945 34.1175 38.5914 33.296 39.1721 32.4367C39.6948 31.6718 40.1207 30.803 39.7916 29.8587C39.6077 29.3299 39.3657 28.7917 39.027 28.329C37.7203 26.5254 35.5521 25.1939 33.2195 25.3167C31.8741 25.3828 30.7126 25.836 29.6866 26.667C28.8735 27.328 28.3508 28.2156 27.9733 29.1599C27.2087 31.0485 27.6249 33.4376 29.1348 34.8635C30.8093 36.431 33.2195 36.516 35.2424 35.6095C36.1329 35.2129 36.9169 34.5047 37.4202 33.6831C37.6525 33.3054 37.8461 32.8521 37.9332 32.4178C38.001 32.0873 38.059 31.7379 38.0494 31.3979C38.0494 30.6142 37.6525 30.0476 37.1589 29.4904C35.3973 27.5074 32.0967 27.1958 30.0737 28.9522C27.9443 30.7936 28.1572 34.6652 30.7803 35.9872C32.358 36.7804 34.1099 36.4027 35.4457 35.3545C36.5975 34.448 37.1976 32.7766 36.6943 31.3885C36.4813 30.803 36.1426 30.3025 35.5812 29.9815C35.0585 29.6888 34.2938 29.5565 33.7131 29.7454C32.5322 30.1137 31.574 31.3979 32.0192 32.6538C32.0483 32.7388 32.0676 32.8144 32.087 32.8994L31.9999 32.2761C32.0096 32.3894 32.0192 32.4933 31.9999 32.5972L32.087 31.974C32.0676 32.1062 32.0289 32.2384 31.9805 32.3611L32.2225 31.7945C32.1644 31.9173 32.087 32.0401 31.9999 32.1439L32.3774 31.6623C32.2612 31.7945 32.1451 31.9078 31.9999 32.0212L32.4935 31.6529C32.3483 31.7568 32.1935 31.8417 32.0289 31.9079L32.6097 31.6718C32.4742 31.719 32.329 31.7568 32.1838 31.7851L32.8226 31.7001C32.6774 31.719 32.5419 31.719 32.3967 31.7095L33.0356 31.7945C32.8904 31.7756 32.7549 31.7379 32.6193 31.6812L33.2001 31.9173C33.0936 31.8701 32.9968 31.804 32.9 31.7379L33.3937 32.1062C33.2872 32.0117 33.1904 31.9173 33.1033 31.8134L33.4808 32.295C33.4034 32.1817 33.3356 32.0684 33.2775 31.9362L33.5195 32.5028C33.4518 32.3422 33.413 32.1911 33.384 32.0212L33.4711 32.6444C33.4421 32.4178 33.4421 32.1911 33.4711 31.9645L33.384 32.5877C33.4227 32.3894 33.4711 32.2006 33.5485 32.0117L33.3066 32.5783C33.3743 32.4178 33.4614 32.2761 33.5679 32.1345L33.1904 32.6161C33.2969 32.4839 33.4227 32.3611 33.5582 32.2572L33.0646 32.6255C33.1904 32.5311 33.3259 32.4555 33.4711 32.3894L32.8904 32.6255C33.1033 32.5405 33.3259 32.4839 33.5582 32.4555L32.9194 32.5405C33.1517 32.5216 33.384 32.5216 33.6163 32.5594L32.9775 32.4744C33.2098 32.5122 33.4324 32.5783 33.655 32.6633L33.0743 32.4272C33.3259 32.5311 33.5582 32.6633 33.7808 32.8238L33.2872 32.4555C33.4711 32.6066 33.6357 32.7577 33.7905 32.9466L33.413 32.465C33.4518 32.5216 33.4905 32.5689 33.5292 32.6255L33.2001 31.4357C33.2001 31.5396 33.2001 31.6434 33.1807 31.7473L33.2679 31.1241C33.2388 31.3035 33.1904 31.464 33.1227 31.634L33.3646 31.0674C33.2775 31.2563 33.1711 31.4168 33.0452 31.5773L33.4227 31.0958C33.2872 31.2563 33.142 31.3979 32.9775 31.5207L33.4711 31.1524C33.2388 31.3318 32.9872 31.4735 32.7065 31.5868L33.2872 31.3507C33.0065 31.464 32.7258 31.5396 32.4258 31.5773L33.0646 31.4924C32.7936 31.5207 32.5226 31.5301 32.2612 31.4924L32.9 31.5773C32.6581 31.549 32.4354 31.4924 32.2031 31.4074L32.7839 31.6434C32.5903 31.5585 32.4064 31.464 32.2322 31.3318L32.7258 31.7001C32.571 31.5773 32.4354 31.4451 32.3096 31.2941L32.6871 31.7756C32.5419 31.5962 32.4354 31.4074 32.3387 31.1996L32.5806 31.7662C32.4838 31.5301 32.4161 31.2941 32.3774 31.0391L32.4645 31.6623C32.4258 31.3507 32.4258 31.0391 32.4645 30.7275L32.3774 31.3507C32.4258 31.0013 32.5226 30.6708 32.6677 30.3498L32.4258 30.9163C32.5613 30.6236 32.7258 30.3498 32.9291 30.0948L32.5516 30.5764C32.7161 30.3781 32.9 30.1892 33.113 30.0287L32.6193 30.397C32.8323 30.2364 33.0549 30.1042 33.2969 30.0004L32.7161 30.2364C32.9872 30.1231 33.2679 30.0476 33.5679 30.0098L32.9291 30.0948C33.2582 30.057 33.5873 30.057 33.9164 30.0948L33.2775 30.0098C33.6453 30.0665 33.9938 30.1609 34.3422 30.2931L33.7615 30.057C34.139 30.2176 34.4874 30.4159 34.8068 30.6614L34.3132 30.2931C34.6036 30.5197 34.8746 30.7747 35.1069 31.0674L34.7294 30.5858C34.9617 30.8786 35.1456 31.1902 35.3005 31.5207L35.0585 30.9541C35.0972 31.0485 35.1359 31.143 35.165 31.2374L35.407 29.4149C35.1746 29.8304 34.9036 30.2364 34.6036 30.6142L34.9811 30.1326C34.4971 30.7369 33.9357 31.2846 33.3162 31.7662L33.8099 31.3979C33.1517 31.889 32.4354 32.3045 31.6805 32.6161L32.2612 32.38C31.603 32.6444 30.9158 32.8427 30.2092 32.9655C29.6478 33.0599 29.0381 33.5887 28.767 34.0514C28.467 34.5613 28.3315 35.3073 28.5251 35.8739C28.7186 36.4405 29.0768 36.9976 29.6382 37.2809C30.248 37.5925 30.8287 37.6303 31.5062 37.517L31.4772 37.4886Z" fill="#D9D9D9"/>
<path d="M6.54336 39.7172C7.09508 39.7833 7.66615 39.7172 8.1985 39.6039C8.73086 39.4906 9.25353 39.2828 9.71813 39.0279C10.686 38.5274 11.4797 37.7247 12.0798 36.8371C12.68 35.9495 12.9897 34.8824 13.0574 33.8154C13.0865 33.2865 13.0187 32.72 12.8735 32.21C12.68 31.5113 12.3025 30.9352 11.8088 30.397C11.141 29.6699 10.1053 29.1222 9.1277 28.9145C8.10171 28.6973 6.94989 28.6784 5.95294 29.0561C4.80111 29.4905 3.75576 30.2081 3.17501 31.313C2.94271 31.7568 2.72977 32.2478 2.65233 32.7483C2.59426 33.0882 2.53619 33.4376 2.53619 33.787C2.53619 34.1364 2.59426 34.5047 2.65233 34.8635C2.79752 35.8739 3.3202 36.7899 3.99775 37.5548C4.75272 38.4141 5.86582 38.9334 6.99828 39.0845C8.13075 39.2356 9.35032 39.009 10.4054 38.4519C11.3152 37.9703 12.2057 37.1393 12.6509 36.2233C13.0091 35.4868 13.2897 34.703 13.1736 33.8815C13.0381 32.8994 12.3315 32.2289 11.5475 31.6907C10.7635 31.1524 9.75685 30.9258 8.84701 30.9352C6.90149 30.9541 5.06245 31.9362 3.98806 33.5132C3.73641 33.8909 3.54282 34.3347 3.42667 34.7691C3.31052 35.2035 3.24277 35.6945 3.28148 36.1478C3.3202 36.601 3.36859 37.0543 3.62993 37.4509C3.89127 37.8475 4.19133 38.093 4.56881 38.3574C4.84951 38.5463 5.18828 38.6785 5.50769 38.7824C5.82711 38.8862 6.17556 38.924 6.50465 38.9523C6.65951 38.9712 6.8047 38.9618 6.94989 38.9523C7.68551 38.8673 8.2469 38.7351 8.91476 38.3858C9.34065 38.1591 9.75685 37.8475 10.0859 37.4981C10.87 36.6766 11.4507 35.5623 11.4023 34.4103C11.3733 33.7304 11.2087 33.1166 10.8603 32.5217C10.5602 32.0117 9.99883 31.5963 9.41808 31.4357C8.83733 31.2752 8.063 31.3507 7.55 31.6718C6.44657 32.3706 6.01101 33.7587 6.67887 34.9013C6.71759 34.9674 6.75631 35.0429 6.78534 35.109L6.54337 34.5425C6.59176 34.6652 6.6208 34.788 6.64016 34.9202L6.55304 34.2969C6.56272 34.4291 6.56272 34.5519 6.55304 34.6747L6.64016 34.0514C6.61112 34.2214 6.5724 34.3725 6.50465 34.533L6.74663 33.9664C6.66919 34.1459 6.56272 34.3064 6.44657 34.4575L6.82406 33.9759C6.68855 34.1459 6.53368 34.2969 6.35946 34.4291L6.8531 34.0609C6.67887 34.1931 6.49497 34.2969 6.2917 34.3914L6.87246 34.1553C6.68855 34.2308 6.51433 34.2781 6.32074 34.3158L6.95957 34.2308C6.8047 34.2497 6.65951 34.2497 6.51433 34.2308L7.15315 34.3158C7.01764 34.2969 6.90149 34.2686 6.77566 34.2214L7.35642 34.4575C7.23059 34.4008 7.11443 34.3347 6.99828 34.2592L7.49192 34.6274L7.44353 34.5897L8.063 35.6284L8.063 35.5717L8.14043 36.195C8.12107 36.0156 8.11139 35.8361 8.14043 35.6473L8.05331 36.2705C8.08235 36.0817 8.13075 35.8928 8.20818 35.7134L7.9662 36.28C8.05331 36.0817 8.15978 35.9023 8.29529 35.7323L7.91781 36.2139C8.08235 36.0156 8.26626 35.8361 8.46952 35.6851L7.97588 36.0533C8.21786 35.8739 8.4792 35.7228 8.7599 35.6095L8.17914 35.8456C8.4792 35.7228 8.78893 35.6378 9.10834 35.6001L8.46952 35.6851C8.73086 35.6567 8.98252 35.6473 9.24386 35.6851L8.60503 35.6001C8.83733 35.6284 9.05995 35.6851 9.28257 35.7795L8.70182 35.5434C8.86637 35.619 9.02123 35.7039 9.16642 35.8078L8.67278 35.4395C8.81797 35.5529 8.95348 35.6851 9.06963 35.8267L8.69214 35.3451L8.73086 35.3923L8.40176 34.2025C8.40176 34.2025 8.40176 34.2969 8.38241 34.3347L8.46952 33.7115C8.44048 33.9098 8.38241 34.1081 8.30497 34.2969L8.54695 33.7304C8.45016 33.957 8.32433 34.1647 8.16947 34.363L8.54695 33.8815C8.37273 34.0986 8.17914 34.2875 7.95652 34.4575L8.45016 34.0892C8.20818 34.2686 7.94685 34.4197 7.66615 34.533L8.2469 34.2969C7.98556 34.4008 7.72422 34.4669 7.44353 34.5047L8.08235 34.4197C7.8307 34.448 7.57903 34.448 7.32738 34.4197L7.9662 34.5047C7.7339 34.4669 7.52096 34.4103 7.29834 34.3253L7.87909 34.5613C7.69518 34.4858 7.53064 34.3819 7.37577 34.2686L7.86941 34.6369C7.67583 34.4952 7.51128 34.3347 7.36609 34.1553L7.74358 34.6369C7.56936 34.4197 7.43385 34.1836 7.3177 33.9287L7.55968 34.4952C7.44353 34.212 7.36609 33.9287 7.32738 33.6359L7.41449 34.2592C7.38545 33.9853 7.38545 33.7115 7.41449 33.4282L7.32738 34.0514C7.36609 33.7965 7.43385 33.5604 7.53064 33.3243L7.28866 33.8909C7.37577 33.6926 7.48225 33.5132 7.61775 33.3432L7.24026 33.8248C7.37577 33.6548 7.53064 33.5037 7.70487 33.3715L7.21123 33.7398C7.38545 33.617 7.57904 33.5037 7.77262 33.4187L7.19187 33.6548C7.45321 33.5509 7.7339 33.4754 8.0146 33.4376L7.37577 33.5226C7.66615 33.4943 7.94685 33.4943 8.23722 33.5226L7.5984 33.4376C7.88877 33.4754 8.15979 33.5509 8.4308 33.6548L7.85005 33.4187C8.09203 33.5226 8.32433 33.6454 8.52759 33.7965L8.03396 33.4282C8.20818 33.5604 8.36305 33.7115 8.49856 33.872L8.12107 33.3904C8.1985 33.4943 8.27594 33.5982 8.34369 33.7115L8.10171 33.1449C8.1985 33.381 8.25658 33.6265 8.29529 33.872L8.20818 33.2488C8.23722 33.5226 8.23722 33.787 8.20818 34.0609L8.29529 33.4376C8.2469 33.7587 8.15979 34.0609 8.03396 34.3536L8.27594 33.787C8.12107 34.127 7.93717 34.448 7.70487 34.7408L8.08235 34.2592C7.85973 34.533 7.60807 34.7785 7.32738 34.9863L7.82102 34.618C7.55968 34.8069 7.27898 34.9768 6.97893 35.0996L7.55968 34.8635C7.29834 34.9674 7.037 35.0429 6.7563 35.0807L7.39513 34.9957C7.11443 35.0335 6.83374 35.0335 6.55304 34.9957C5.98197 34.9202 5.227 35.3073 4.83983 35.6851C4.42362 36.0911 4.10422 36.771 4.13325 37.3565C4.16229 37.9419 4.36555 38.6029 4.83983 39.0279L5.33347 39.3962C5.71096 39.6133 6.11748 39.7172 6.55304 39.7172L6.54336 39.7172Z" fill="#D9D9D9"/>
<path d="M55.6072 10.935C56.8946 10.85 58.2497 10.7745 59.4789 10.359C60.9695 9.85849 62.1794 9.0464 63.0699 7.77159C63.8829 6.60067 64.1443 5.10868 63.8345 3.73945C63.4571 2.08693 62.0536 0.982099 60.5243 0.377749C58.3271 -0.491004 55.404 0.179447 53.8263 1.89807C52.8971 2.90847 52.3163 4.18327 52.3647 5.56194C52.4131 6.94061 52.9552 8.17764 53.8456 9.23525C54.7361 10.2929 56.0331 10.8406 57.3979 10.9728C58.7627 11.105 60.021 10.5101 60.9889 9.65075C61.7922 8.94252 62.4214 7.85658 62.6053 6.80841C62.857 5.31642 62.5375 3.91886 61.4922 2.77626C60.6791 1.88862 59.3337 1.41648 58.1335 1.47313C56.8365 1.53923 55.6944 2.00194 54.7168 2.82348C53.8069 3.58836 53.2068 4.89149 53.3133 6.06242C53.4488 7.57329 54.2038 8.74422 55.4621 9.60353C56.4009 10.2362 57.7076 10.5289 58.8304 10.5006C60.0306 10.4723 61.2696 10.1418 62.2568 9.45244C63.6506 8.47982 64.667 7.12003 64.7444 5.40141C64.8218 3.68279 63.6603 2.09637 62.1117 1.45425C61.2889 1.1143 60.3984 1.01043 59.5273 1.27483C58.3174 1.64311 57.4269 2.93679 57.8335 4.18327C58.24 5.42974 59.5176 6.23239 60.8146 5.83579C60.9114 5.80746 60.9986 5.78857 61.0953 5.76969L60.4565 5.85467C60.5533 5.85467 60.6404 5.85467 60.7372 5.85467L60.0984 5.76969C60.2533 5.78857 60.3984 5.83579 60.5436 5.89244L59.9629 5.65637C60.079 5.71303 60.1855 5.77913 60.292 5.84523L59.7983 5.47695C59.9242 5.58083 60.0403 5.6847 60.1468 5.8169L59.7693 5.33531C59.8951 5.49584 59.9919 5.65637 60.0693 5.83579L59.8274 5.26921C59.8854 5.4203 59.9242 5.57138 59.9532 5.74136L59.8661 5.11812C59.8758 5.25032 59.8758 5.37308 59.8661 5.50528L59.9532 4.88205C59.9242 5.08035 59.8758 5.27865 59.7983 5.46751L60.0403 4.90093C59.9435 5.11812 59.8274 5.31642 59.6822 5.51473L60.0597 5.03313C59.8564 5.27865 59.6338 5.49584 59.3821 5.6847L59.8758 5.31642C59.5951 5.52417 59.295 5.69414 58.9659 5.82634L59.5467 5.59027C59.2466 5.71303 58.9272 5.78857 58.6078 5.83579L59.2466 5.7508C58.8885 5.78857 58.5304 5.78857 58.1722 5.7508L58.8111 5.83579C58.4626 5.78857 58.1238 5.70358 57.8044 5.57138L58.3852 5.80746C58.1529 5.70358 57.9399 5.58083 57.7463 5.43918L58.24 5.80746C58.0948 5.69414 57.9593 5.56194 57.8431 5.4203L58.2206 5.90189C58.1045 5.7508 58.0174 5.59971 57.9399 5.42974L58.1819 5.99632C58.1238 5.84523 58.0754 5.6847 58.0464 5.52417L58.1335 6.1474C58.1142 5.99632 58.1142 5.85467 58.1335 5.70358L58.0464 6.32682C58.0658 6.15685 58.1142 6.00576 58.1819 5.85467L57.9399 6.42125C58.0077 6.27016 58.0948 6.13796 58.2013 6.00576L57.8238 6.48735C57.9496 6.33626 58.0851 6.20406 58.2497 6.09075L57.756 6.45902C57.9399 6.32682 58.1335 6.2135 58.3465 6.11908L57.7657 6.35515C58.0077 6.26072 58.2497 6.18518 58.5013 6.1474L57.8625 6.23239C58.1142 6.20406 58.3658 6.19462 58.6175 6.23239L57.9786 6.1474C58.1529 6.17573 58.3174 6.2135 58.4723 6.27961L57.8915 6.04353C58.0561 6.10963 58.2013 6.19462 58.3368 6.29849L57.8431 5.93022C57.969 6.02465 58.0658 6.13796 58.1722 6.26072L57.7947 5.77913C57.8915 5.91133 57.969 6.04353 58.0367 6.19462L57.7947 5.62804C57.8625 5.79801 57.9109 5.96799 57.9399 6.15685L57.8528 5.53361C57.8819 5.74136 57.8819 5.9491 57.8528 6.16629L57.9399 5.54305C57.9012 5.8169 57.8238 6.07186 57.7173 6.31738L57.9593 5.7508C57.8528 5.97743 57.727 6.18518 57.5818 6.39292L57.9593 5.91133C57.7851 6.12852 57.5915 6.31738 57.3689 6.48735L57.8625 6.11908C57.6786 6.25128 57.4947 6.35515 57.2914 6.44014L57.8722 6.20406C57.6883 6.27016 57.5044 6.31738 57.3205 6.35515L57.9593 6.27016C57.756 6.28905 57.5528 6.28905 57.3495 6.27016L57.9883 6.35515C57.7463 6.31738 57.5237 6.26072 57.3108 6.16629L57.8915 6.40236C57.6786 6.30793 57.4753 6.18518 57.2914 6.04353L57.7851 6.41181C57.5721 6.24183 57.3882 6.06242 57.2237 5.84523L57.6012 6.32682C57.4173 6.09075 57.2721 5.83579 57.1462 5.56194L57.3882 6.12852C57.2721 5.85467 57.1946 5.57138 57.1462 5.26921L57.2334 5.89244C57.2043 5.62804 57.2043 5.36364 57.2334 5.09923L57.1462 5.72247C57.185 5.4864 57.243 5.25976 57.3398 5.04258L57.0978 5.60915C57.1946 5.39197 57.3205 5.18422 57.4657 4.98592L57.0882 5.46751C57.2721 5.23144 57.485 5.02369 57.727 4.84427L57.2334 5.21255C57.485 5.03313 57.7463 4.88205 58.027 4.75929L57.4463 4.99536C57.7947 4.85372 58.1529 4.75929 58.5207 4.70263L57.8819 4.78762C58.2206 4.74984 58.5594 4.7404 58.9078 4.78762L58.269 4.70263C58.6078 4.74984 58.9369 4.83483 59.2563 4.95759L58.6755 4.72152C58.9369 4.83483 59.1885 4.97648 59.4208 5.14645L58.9272 4.77817C59.1014 4.91982 59.266 5.07091 59.4015 5.24088L59.024 4.75929C59.1305 4.90093 59.2176 5.03313 59.295 5.19366L59.053 4.62709C59.1401 4.83483 59.1982 5.03313 59.2273 5.25032L59.1401 4.62709C59.1595 4.84427 59.1595 5.06146 59.1305 5.27865L59.2176 4.65541C59.1789 4.91037 59.1014 5.15589 59.0046 5.39197L59.2466 4.82539C59.1208 5.09923 58.9756 5.34475 58.7917 5.59027L59.1692 5.10868C58.9853 5.34475 58.7723 5.5525 58.54 5.74136L59.0337 5.37308C58.7239 5.59971 58.3949 5.77913 58.0367 5.93966L58.6175 5.70358C57.969 5.96799 57.2914 6.10963 56.6042 6.20406L57.243 6.11908C56.7107 6.18518 56.1686 6.22295 55.6363 6.26072C54.9878 6.29849 54.3877 6.49679 53.9231 6.95006C53.5069 7.3561 53.1875 8.036 53.2165 8.62146C53.2746 9.83016 54.2812 11.0672 55.6363 10.9822L55.6072 10.935Z" fill="#D9D9D9"/>
<path d="M34.6718 11.4922C35.3106 11.275 35.9398 11.0106 36.4915 10.614C37.2174 10.0852 37.7594 9.5658 38.2918 8.84814C38.679 8.33822 38.95 7.73387 39.1532 7.12952C39.3565 6.52517 39.4533 5.81694 39.3855 5.16538C39.3081 4.38161 39.1436 3.63562 38.708 2.95572C38.3015 2.3136 37.7982 1.8509 37.169 1.42596C36.7141 1.11434 36.1721 0.897156 35.6397 0.755511C35.1073 0.613866 34.5363 0.52888 33.9846 0.566652C32.4553 0.651638 31.1582 1.26543 30.2678 2.48357C29.445 3.60729 29.4934 5.25981 29.8709 6.54405C30.2774 7.92273 31.1389 9.12198 32.3778 9.90575C33.0844 10.359 33.9168 10.5762 34.7589 10.6329C35.601 10.6895 36.356 10.4346 37.0819 10.1041C37.6336 9.84909 38.166 9.45249 38.5628 8.99923C39.0661 8.4232 39.5307 7.74331 39.6856 6.98787C39.763 6.62904 39.8308 6.25132 39.8017 5.88305C39.7533 5.25037 39.6178 4.78766 39.3468 4.21164C38.979 3.42787 38.2434 2.75742 37.4884 2.33249C35.1557 1.00103 32.0197 1.79424 30.3646 3.79615C29.8419 4.42883 29.4934 4.99541 29.2127 5.76029C29.1353 5.95859 29.0869 6.15689 29.0579 6.36464C28.9998 6.7518 28.9224 7.15785 28.9611 7.55445C29.0675 8.82925 29.5709 10.1041 30.5968 10.9539C31.4293 11.6527 32.4165 12.1721 33.52 12.3232C34.1007 12.4081 34.6331 12.4742 35.2138 12.4081C36.0269 12.3137 36.627 12.1626 37.3723 11.8416C38.3305 11.4261 39.221 10.6045 39.6856 9.68856C40.4406 8.18713 40.0147 6.51572 38.9209 5.30702C37.4497 3.67339 34.546 3.10681 32.6392 4.32495C32.0584 4.69323 31.5454 5.19371 31.226 5.79806C30.9356 6.36464 30.8001 6.98787 30.984 7.62055C31.1389 8.16824 31.5744 8.76315 32.0971 9.02756C33.2005 9.59413 34.7976 9.35806 35.4074 8.17769C35.4655 8.07381 35.5235 7.97939 35.5913 7.88496L35.2138 8.36655C35.3106 8.25323 35.4074 8.14936 35.5332 8.06437L35.0396 8.43265C35.1557 8.34766 35.2816 8.28156 35.4171 8.2249L34.8363 8.46098C35.0106 8.39488 35.1848 8.34766 35.3687 8.32877L34.7299 8.41376C34.9622 8.38543 35.1848 8.39488 35.4171 8.41376L34.7783 8.32877C35.0493 8.36655 35.3203 8.44209 35.5719 8.54596L34.9912 8.30989C35.2235 8.41376 35.4461 8.53652 35.6397 8.68761L35.1461 8.31933C35.2913 8.43265 35.4268 8.56485 35.5429 8.70649L35.1654 8.2249C35.2622 8.3571 35.3493 8.48931 35.4171 8.63095L35.1751 8.06437C35.2332 8.19657 35.2719 8.32877 35.2913 8.47042L35.2041 7.84718C35.2235 7.99827 35.2235 8.13991 35.2041 8.291L35.2913 7.66777C35.2913 7.72442 35.2719 7.78108 35.2622 7.83774L35.5042 7.27116C35.4268 7.44114 35.33 7.60167 35.2138 7.74331L35.5913 7.26172C35.4558 7.44114 35.2913 7.59222 35.117 7.73387L35.6107 7.36559C35.3977 7.52612 35.1654 7.65832 34.9234 7.7622L35.5042 7.52612C35.2138 7.63944 34.9138 7.72442 34.5944 7.77164L35.2332 7.68665C34.875 7.73387 34.5072 7.73387 34.1491 7.68665L34.7879 7.77164C34.4492 7.72442 34.1201 7.63944 33.8103 7.51668L34.3911 7.75275C34.1201 7.63944 33.8684 7.50724 33.6361 7.33726L34.1298 7.70554C33.9362 7.55445 33.7619 7.39392 33.6071 7.19562L33.9846 7.67721C33.8491 7.49779 33.7329 7.30893 33.6458 7.10119L33.8878 7.66777C33.8103 7.46946 33.7523 7.27116 33.7232 7.07286L33.8103 7.6961C33.7813 7.46002 33.7813 7.23339 33.8103 6.99732L33.7232 7.62055C33.7619 7.36559 33.8297 7.12007 33.9265 6.884L33.6845 7.45058C33.8103 7.16729 33.9749 6.90289 34.1685 6.65737L33.791 7.13896C33.9942 6.89344 34.2169 6.67625 34.4685 6.47795L33.9749 6.84623C34.2459 6.63848 34.546 6.46851 34.8654 6.32686L34.2846 6.56294C34.575 6.44018 34.875 6.36464 35.1945 6.31742L34.5556 6.40241C34.7976 6.37408 35.0299 6.37408 35.2719 6.40241L34.6331 6.31742C34.875 6.34575 35.1073 6.41185 35.33 6.49684L34.7492 6.26076C34.9622 6.35519 35.1557 6.46851 35.3493 6.60071L34.8557 6.23243C35.0106 6.35519 35.1461 6.47795 35.2816 6.62904L34.9041 6.14745C35.0202 6.28909 35.1073 6.43074 35.1848 6.60071L34.9428 6.03413C35.0009 6.16633 35.0299 6.29854 35.059 6.44018L34.9718 5.81694C34.9912 5.95859 34.9912 6.09079 34.9718 6.22299L35.059 5.59976C35.0299 5.78862 34.9815 5.95859 34.9041 6.12856L35.1461 5.56198C35.0686 5.7414 34.9622 5.90193 34.846 6.05302L35.2235 5.57143C35.0783 5.75084 34.9234 5.90193 34.7492 6.04358L35.2429 5.6753C35.0396 5.82639 34.8266 5.94915 34.5847 6.05302L35.1654 5.81694C34.9718 5.89249 34.7879 5.9397 34.5847 5.97747L35.2235 5.89249C35.0202 5.92082 34.8266 5.92082 34.6234 5.89249L35.2622 5.97747C35.0589 5.94915 34.8557 5.88304 34.6621 5.8075L35.2429 6.04358C35.0299 5.94915 34.8363 5.83583 34.6427 5.69419L35.1364 6.06246C34.9331 5.90193 34.7492 5.72251 34.5944 5.52421L34.9718 6.0058C34.7783 5.76029 34.6234 5.48644 34.4879 5.20315L34.7299 5.76973C34.5847 5.42978 34.4782 5.07095 34.4298 4.70267L34.5169 5.32591C34.4685 4.95763 34.4685 4.58936 34.5169 4.22108L34.4298 4.84432C34.4298 4.7971 34.4395 4.74989 34.4685 4.71212L34.2265 5.27869C34.2943 5.12761 34.3717 4.99541 34.4685 4.8632L34.091 5.3448C34.1878 5.22204 34.304 5.11816 34.4298 5.02373L33.9362 5.39201C34.0814 5.28814 34.2362 5.20315 34.4008 5.13705L33.82 5.37312C34.0136 5.29758 34.2072 5.25037 34.4104 5.22204L33.7716 5.30702C34.0426 5.26925 34.3137 5.26925 34.5847 5.30702L33.9458 5.22204C34.2459 5.25981 34.5363 5.33535 34.8073 5.45811L34.2265 5.22204C34.4395 5.31647 34.6427 5.42978 34.8363 5.56198L34.3427 5.19371C34.5072 5.31647 34.6621 5.45811 34.7879 5.62808L34.4104 5.14649C34.5266 5.29758 34.6234 5.44867 34.7008 5.62808L34.4588 5.06151C34.546 5.27869 34.604 5.49588 34.6427 5.73196L34.5556 5.10872C34.5943 5.37312 34.5943 5.63753 34.5556 5.90193L34.6427 5.27869C34.5943 5.59976 34.5072 5.90193 34.3814 6.20411L34.6234 5.63753C34.4782 5.96803 34.2943 6.27021 34.0717 6.5535L34.4492 6.0719C34.1975 6.38352 33.9168 6.65737 33.6071 6.89344L34.1007 6.52517C33.8007 6.74236 33.4909 6.93121 33.1425 7.07286L33.7232 6.83678C33.6168 6.884 33.5103 6.92177 33.4038 6.9501C32.8037 7.1484 32.281 7.48835 31.9616 8.03604C31.6616 8.54596 31.5261 9.29196 31.7196 9.85854C31.9132 10.4251 32.2713 10.9822 32.8327 11.2655C33.3941 11.5488 34.0814 11.7094 34.7008 11.5016L34.6718 11.4922Z" fill="#D9D9D9"/>
<path d="M10.9383 12.4741C13.1742 11.7848 14.5583 9.72621 14.597 7.46934C14.6164 6.48727 14.3357 5.40133 13.7646 4.58924C13.3968 4.06987 12.9322 3.54107 12.3611 3.22945C11.3932 2.68176 10.4446 2.96505 9.50576 3.34277C7.4925 4.15486 5.23725 5.50521 4.77265 7.76208C4.25965 10.2172 5.8664 12.6913 8.44106 13.1162C10.5027 13.4562 12.5547 13.0313 14.4421 12.2003C15.7198 11.6337 16.8135 10.6611 17.3072 9.35794C17.946 7.67709 16.9684 5.9207 15.4585 5.08972C12.9709 3.72048 9.73807 3.58828 7.4925 5.45799C5.49859 7.11995 4.92752 10.5383 6.9795 12.3891C8.12165 13.4184 9.59288 13.7584 11.1028 13.5128C12.4579 13.2957 13.7743 12.238 14.1324 10.916C14.5777 9.2824 13.2032 7.49767 11.732 6.84611C10.2607 6.19454 8.63464 6.119 7.27956 6.98775C6.22453 7.66765 5.67282 9.10298 6.40843 10.2172C7.08597 11.2465 8.58624 11.7942 9.71871 11.0671C9.82518 11.001 9.92197 10.9444 10.0381 10.8971L9.45737 11.1332C9.63159 11.0671 9.79614 11.0199 9.98005 11.001L9.34122 11.086C9.52512 11.0671 9.69935 11.0671 9.88326 11.086L9.24443 11.001C9.45737 11.0293 9.66063 11.086 9.8639 11.1615L9.28314 10.9255C9.48641 11.0105 9.66063 11.1143 9.83486 11.2371L9.34122 10.8688C9.48641 10.9821 9.61224 11.1049 9.72839 11.2465L9.3509 10.7649C9.43801 10.8877 9.51545 11.0105 9.5832 11.1427L9.34122 10.5761C9.38962 10.6894 9.42833 10.7933 9.45737 10.916L9.45737 9.66011L9.42833 9.73566L9.67031 9.16908C9.62192 9.26351 9.57352 9.3485 9.50576 9.44293L9.88326 8.96133C9.80582 9.06521 9.70903 9.15019 9.61224 9.22574L10.1059 8.85746C9.99941 8.933 9.89293 8.99911 9.7671 9.04632L10.3479 8.81025C10.1736 8.87635 9.9994 8.92356 9.80582 8.95189L10.4446 8.8669C10.2511 8.88579 10.0575 8.88579 9.8639 8.8669L10.5027 8.95189C10.2801 8.92356 10.0672 8.8669 9.8639 8.78192L10.4446 9.01799C10.2898 8.95189 10.1543 8.8669 10.0188 8.77247L10.5124 9.14075C10.4059 9.05576 10.3091 8.96133 10.222 8.8669L10.5995 9.34849C10.4834 9.20685 10.4059 9.05576 10.3285 8.89523L10.5705 9.46181C10.5124 9.30128 10.4737 9.15019 10.4446 8.98966L10.5318 9.6129C10.5124 9.4146 10.5027 9.22574 10.5318 9.02743L10.4446 9.65067C10.4834 9.38627 10.5511 9.13131 10.6576 8.88579L10.4156 9.45237C10.5318 9.19741 10.6769 8.97078 10.8415 8.75359L10.464 9.23518C10.6189 9.04632 10.7931 8.88579 10.9867 8.7347L10.493 9.10298C10.6963 8.95189 10.9092 8.82913 11.1415 8.72526L10.5608 8.96133C10.8899 8.82913 11.219 8.74415 11.5674 8.69693L10.9286 8.78192C11.3255 8.74415 11.7126 8.74415 12.1095 8.79136L11.4706 8.70637C12.003 8.78192 12.516 8.92356 13.0096 9.12186L12.4289 8.88579C12.7289 9.01799 13.0193 9.15019 13.2903 9.33905L12.7967 8.97078C12.9225 9.06521 13.029 9.15964 13.1258 9.28239L12.7483 8.8008C12.7967 8.85746 12.8354 8.92356 12.8644 8.98966L12.6225 8.42308C12.6612 8.51751 12.6902 8.6025 12.7193 8.70637L12.6321 8.08314C12.6418 8.17757 12.6515 8.26255 12.6321 8.35698L12.7193 7.73375C12.6999 7.85651 12.6709 7.96982 12.6225 8.09258L12.8644 7.526C12.8064 7.64876 12.7386 7.75263 12.6515 7.86595L13.029 7.38436C12.8644 7.58266 12.6805 7.75263 12.4773 7.91316L12.9709 7.54489C12.6321 7.7904 12.2643 7.98871 11.8772 8.14924L12.4579 7.91316C11.7029 8.21534 10.9189 8.43253 10.1059 8.54584L10.7447 8.46086C10.2414 8.52696 9.73807 8.54584 9.23475 8.48918L9.87357 8.57417C9.56384 8.5364 9.26379 8.46086 8.96373 8.3381L9.54448 8.57417C9.37026 8.49863 9.21539 8.4042 9.06052 8.30033L9.55416 8.6686C9.42833 8.57417 9.32186 8.46086 9.21539 8.3381L9.59288 8.81969C9.47673 8.6686 9.37994 8.50807 9.3025 8.32865L9.54448 8.89523C9.47673 8.71582 9.42833 8.54584 9.3993 8.35698L9.48641 8.98022C9.46705 8.8008 9.46705 8.63083 9.48641 8.45141L9.3993 9.07465C9.42833 8.90468 9.47673 8.7347 9.5348 8.57417L9.29283 9.14075C9.38962 8.91412 9.51544 8.71582 9.66063 8.52696L9.28314 9.00855C9.51544 8.72526 9.77678 8.47974 10.0575 8.26255L9.56384 8.63083C10.1059 8.22478 10.706 7.90372 11.3351 7.63932L10.7544 7.87539C11.0738 7.74319 11.4029 7.62043 11.7417 7.51656L9.87357 7.28048L9.94133 7.3277L9.44769 6.95942C9.60256 7.08218 9.73807 7.21438 9.8639 7.36547L9.48641 6.88388C9.62192 7.05385 9.72839 7.24271 9.8155 7.44101L9.57352 6.87444C9.67031 7.10107 9.72839 7.33714 9.7671 7.57322L9.67999 6.94998C9.71871 7.25216 9.71871 7.55433 9.67999 7.85651L9.7671 7.23327C9.72839 7.50712 9.65095 7.77152 9.54448 8.02648L9.78646 7.4599C9.67999 7.71486 9.5348 7.94149 9.37026 8.16812L9.74774 7.68653C9.61224 7.85651 9.45737 8.00759 9.28314 8.13979L9.77678 7.77152C9.62192 7.88483 9.45737 7.97926 9.27347 8.05481L9.85422 7.81873C9.77678 7.84706 9.69935 7.87539 9.61224 7.90372C8.41202 8.272 7.51186 9.56568 7.91838 10.8122C8.30555 11.9925 9.60256 12.8613 10.8996 12.4647L10.9383 12.4741Z" fill="#D9D9D9"/>
</g>
<defs>
<clipPath id="clip0_26_560">
<rect width="89" height="89" fill="white" transform="translate(67) rotate(90)"/>
</clipPath>
</defs>
</svg>
