<svg width="125" height="119" viewBox="0 0 125 119" fill="none" xmlns="http://www.w3.org/2000/svg">
<path d="M2.33159 108.443C2.54379 111.689 4.32098 114.587 7.17244 116.287C10.0239 117.988 13.512 117.949 16.4828 116.519C19.4536 115.089 21.5093 112.088 21.7613 108.894C21.9868 106.137 20.5942 103.161 18.4324 101.397C15.8064 99.2584 12.3846 98.5886 9.25467 100.096C7.06634 101.139 5.34219 103.535 4.91779 105.841C4.36076 108.829 5.24936 111.869 7.96819 113.595C10.3289 115.102 13.5915 114.806 15.9125 113.376C18.9629 111.496 20.5279 108.018 18.9629 104.707C18.1937 103.084 16.3767 102.002 14.5995 101.77C12.3051 101.474 10.0769 102.62 9.4536 104.9C9.01593 106.523 10.0106 108.469 11.7746 108.868C13.5385 109.267 15.382 108.365 15.8594 106.614C15.9788 106.176 15.634 107.077 15.6472 107.052C15.6738 107.013 15.0239 107.734 15.3289 107.464C15.0902 107.683 14.8382 107.85 14.5332 107.966C13.817 108.25 14.7984 108.005 14.0159 108.095C13.0743 108.211 14.069 108.095 14.0425 108.134C14.0159 108.198 13.1273 107.927 13.5385 108.082C13.6181 108.108 13.7109 108.146 13.7905 108.159C12.9151 107.979 13.1273 107.85 13.3661 107.992C13.3926 108.005 13.6048 108.134 13.5915 108.134C13.5385 108.159 12.9417 107.541 13.2334 107.876C13.2732 107.915 13.3263 107.979 13.3793 108.018C13.5783 108.172 12.7958 107.335 13.1937 107.837C12.7162 107.219 12.9417 107.168 13.008 107.451C13.0345 107.605 13.1141 108.031 13.0345 107.412C12.9549 106.794 12.9947 107.335 13.008 107.502C13.0212 107.992 13.2202 106.639 13.0478 107.219C13.008 107.361 12.7693 107.992 13.0345 107.386C13.2998 106.781 13.0212 107.374 12.9284 107.515C12.5305 108.134 13.008 107.309 13.0876 107.348C13.0876 107.348 12.7295 107.709 12.7029 107.734C12.5968 107.837 12.0929 108.224 12.6101 107.837C13.1273 107.451 12.4907 107.889 12.3581 107.966C12.2255 108.043 11.6419 108.288 12.2388 108.043C12.8356 107.799 12.252 108.031 12.1061 108.069C11.9602 108.108 11.7878 108.146 11.6287 108.185C11.0186 108.34 12.5305 108.134 11.748 108.159C11.5889 108.159 11.4297 108.146 11.2706 108.146C10.886 108.146 12.1061 108.327 11.748 108.198C11.6817 108.172 11.6154 108.172 11.5491 108.146C11.5624 108.146 11.2971 108.069 11.2838 108.069C11.3104 108.043 12.0929 108.469 11.695 108.237C11.6419 108.198 11.5756 108.172 11.5093 108.134C10.9523 107.889 11.8276 108.314 11.7746 108.365C11.748 108.378 11.4563 108.082 11.4165 108.031C11.3104 107.94 11.0982 107.657 11.4563 108.095C11.8143 108.533 11.5889 108.275 11.5226 108.146C11.4828 108.069 11.3634 107.773 11.2971 107.747C11.3236 107.747 11.6021 108.572 11.4828 108.159C11.4563 108.082 11.4297 107.992 11.4032 107.915C11.3104 107.58 11.3502 107.077 11.4032 108.134C11.4032 107.979 11.3767 107.824 11.3767 107.67C11.3767 107.515 11.3767 107.361 11.3899 107.206C11.3899 106.755 11.3369 107.644 11.3236 107.67C11.3767 107.605 11.3767 107.412 11.3899 107.335C11.4297 107.18 11.4695 107.026 11.5093 106.871C11.5491 106.717 11.7878 106.176 11.5358 106.742C11.2838 107.309 11.5358 106.768 11.6021 106.639C11.7082 106.459 11.8143 106.292 11.9337 106.111C12.2918 105.557 11.4563 106.614 11.8011 106.279C11.9337 106.15 12.0531 106.008 12.1857 105.892C12.2388 105.854 12.2918 105.802 12.3448 105.763C12.5968 105.493 11.6817 106.201 12 106.021C12.1592 105.931 12.3051 105.815 12.4642 105.738C12.5438 105.699 12.6234 105.66 12.7029 105.622C13.0345 105.441 11.9204 105.867 12.2918 105.789C12.4509 105.751 12.5968 105.686 12.756 105.66C12.7958 105.66 13.0345 105.609 13.0345 105.609C13.0345 105.66 12.2387 105.648 12.5438 105.686C12.7029 105.699 13.1539 105.596 13.2998 105.699C13.3661 105.751 12.4775 105.532 12.8223 105.648C12.9284 105.686 13.0345 105.686 13.1406 105.712C13.3263 105.763 13.4987 105.841 13.6844 105.879C12.9682 105.738 13.0876 105.609 13.3395 105.751C13.4324 105.802 13.5385 105.854 13.6313 105.905C13.8037 105.995 14.069 106.111 14.1883 106.253C14.1883 106.253 13.5252 105.699 13.9098 106.06C13.9761 106.111 14.0292 106.163 14.0955 106.227C14.2414 106.356 14.374 106.498 14.5067 106.639C14.5597 106.704 14.6791 106.807 14.7189 106.897C14.7189 106.884 14.2281 106.201 14.5067 106.639C14.626 106.833 14.7586 107.013 14.8647 107.206C15.0239 107.49 15.1565 108.095 14.8913 107.18C14.9443 107.361 15.0239 107.541 15.0769 107.721C15.13 107.902 15.1698 108.095 15.2096 108.275C15.2759 108.572 15.0902 108.572 15.1565 107.902C15.1565 108.005 15.1698 108.121 15.183 108.224C15.183 108.365 15.2494 108.765 15.1698 108.881C15.1698 108.894 15.3422 107.992 15.2228 108.507C15.1963 108.584 15.183 108.675 15.1698 108.752C15.1167 108.958 15.0504 109.138 14.9841 109.344C14.825 109.834 15.0769 109.087 15.1167 109.061C15.0239 109.151 14.9708 109.344 14.9045 109.447C14.7984 109.628 14.6791 109.795 14.573 109.963C14.3873 110.233 14.3342 110.014 14.7586 109.731C14.6791 109.782 14.573 109.937 14.5199 109.988C14.374 110.143 14.2281 110.285 14.069 110.414C13.5385 110.877 14.6128 110.066 14.0292 110.452C13.8037 110.607 13.5783 110.736 13.3395 110.864C13.26 110.903 13.1804 110.942 13.1008 110.98C12.756 111.161 13.8435 110.736 13.313 110.89C13.061 110.967 12.809 111.058 12.5438 111.109C12.4509 111.135 12.3714 111.148 12.2785 111.161C11.6552 111.289 12.9019 111.122 12.5305 111.122C12.2653 111.122 11.9868 111.135 11.7215 111.122C11.6021 111.122 11.2573 111.071 11.8011 111.148C12.3979 111.238 11.8541 111.148 11.7215 111.122C11.4562 111.071 11.2175 110.98 10.9655 110.916C10.634 110.826 11.3767 111.096 11.3501 111.083C11.2175 111.019 11.0849 110.967 10.9523 110.903C10.7136 110.787 10.5013 110.645 10.2759 110.504C10.183 110.439 9.91779 110.246 10.3289 110.555C10.7799 110.903 10.3555 110.555 10.2494 110.478C10.0769 110.323 9.90453 110.169 9.74538 109.988C9.67906 109.924 9.59949 109.782 9.51991 109.731C10.0372 110.117 9.86474 110.182 9.6658 109.898C9.51992 109.679 9.37403 109.46 9.25467 109.241C9.21488 109.164 9.17509 109.087 9.1353 109.01C8.94962 108.675 9.38729 109.744 9.22814 109.228C9.16182 109.01 9.08225 108.791 9.02919 108.572C9.02919 108.52 8.94963 108.301 8.96289 108.237L9.02919 108.752C9.02919 108.636 9.00267 108.52 9.00267 108.404C8.89657 106.73 7.55705 105.107 5.68702 105.184C3.97615 105.261 2.25201 106.601 2.37137 108.404L2.33159 108.443Z" fill="#D9D9D9"/>
<path d="M3.16693 74.1788C3.65765 76.9611 5.07674 79.5116 6.94677 81.637C7.90167 82.719 9.05552 83.6465 10.2624 84.4193C11.3367 85.1149 12.5568 85.6817 13.8831 85.2437C14.6258 84.999 15.3818 84.677 16.0316 84.2261C18.5648 82.4871 20.4348 79.6018 20.2624 76.4974C20.1696 74.7069 19.533 73.1612 18.3659 71.7957C17.4375 70.7137 16.1908 70.0181 14.8645 69.5158C12.212 68.4982 8.85658 69.0521 6.85393 71.0615C4.65234 73.29 4.53297 76.4974 5.80618 79.1896C6.36321 80.3746 7.35791 81.418 8.51175 82.0878C9.04226 82.397 9.67887 82.6546 10.2889 82.7705C10.7531 82.8607 11.2438 82.938 11.7213 82.9251C12.8221 82.9251 13.6179 82.397 14.4003 81.74C17.1855 79.3957 17.6232 75.0032 15.1563 72.311C12.5701 69.4771 7.13245 69.7605 5.27569 73.2513C4.16163 75.351 4.69213 77.6825 6.16428 79.4601C7.43749 80.9929 9.78496 81.7916 11.7346 81.1217C12.5568 80.8384 13.2598 80.3875 13.7107 79.6404C14.1218 78.9448 14.3075 77.9272 14.0423 77.1543C13.525 75.5828 11.7213 74.3076 9.95738 74.9001C9.83802 74.9388 9.73192 74.9645 9.61255 74.9903L10.4879 74.8744C10.3287 74.8872 10.1828 74.9001 10.037 74.8744L10.9123 74.9903C10.7266 74.9645 10.5409 74.913 10.3685 74.8486L11.1643 75.1706C10.9919 75.0933 10.8195 74.9903 10.6736 74.8744L11.3499 75.3767C11.1643 75.2222 11.0051 75.0676 10.846 74.8744L11.3632 75.5313C11.2173 75.3381 11.098 75.132 11.0051 74.913L11.3367 75.6859C11.2704 75.5055 11.2173 75.3123 11.1775 75.1191L11.2969 75.9693C11.2704 75.776 11.2704 75.5957 11.2836 75.4025L11.1643 76.2526C11.1908 76.0594 11.2439 75.8791 11.3234 75.6988L10.9919 76.4716C11.0582 76.3299 11.151 76.2011 11.2439 76.0723L10.7266 76.7293C10.8592 76.5876 10.9919 76.4587 11.1378 76.3428L10.4614 76.8452C10.6205 76.7421 10.7797 76.652 10.9653 76.5747L10.1696 76.8967C10.395 76.8065 10.6072 76.755 10.846 76.7164L9.97064 76.8323C10.2889 76.7937 10.6072 76.7937 10.9255 76.8323L10.0502 76.7164C10.3287 76.7679 10.594 76.8323 10.8592 76.9354L10.0635 76.6133C10.2889 76.7035 10.4879 76.8194 10.6868 76.9611L10.0104 76.4587C10.1961 76.6004 10.3685 76.7679 10.5144 76.9482L9.99717 76.2913C10.1298 76.4587 10.2359 76.6391 10.3287 76.8323L9.99717 76.0594C10.1165 76.3428 10.1961 76.6391 10.2359 76.9482L10.1165 76.0981C10.1431 76.4072 10.1431 76.7164 10.09 77.0255L10.2094 76.1754C10.1563 76.4845 10.0635 76.7808 9.94412 77.077L10.2757 76.3042C10.1298 76.6391 9.94412 76.9482 9.71865 77.2445L10.2359 76.5876C10.0237 76.8323 9.81149 77.0513 9.54623 77.2574L10.2226 76.755C10.1431 76.8065 10.0767 76.8581 9.99717 76.9096L11.6683 76.4716C11.5224 76.4716 11.3765 76.4716 11.2306 76.4459L12.1059 76.5618C11.8539 76.5232 11.6285 76.4587 11.3897 76.3686L12.1855 76.6906C11.9202 76.5747 11.6948 76.433 11.4693 76.2655L12.1457 76.7679C11.9202 76.5876 11.7213 76.3943 11.5489 76.1754L12.0661 76.8323C11.8141 76.5231 11.6152 76.1882 11.4561 75.8147L11.7876 76.5876C11.6285 76.214 11.5224 75.8404 11.4693 75.4411L11.5887 76.2913C11.5489 75.9306 11.5356 75.5699 11.5887 75.2221L11.4693 76.0723C11.5091 75.7503 11.5887 75.454 11.708 75.1449L11.3765 75.9177C11.4958 75.6601 11.6285 75.4154 11.8141 75.1835L11.2969 75.8404C11.4693 75.6343 11.655 75.454 11.8672 75.2866L11.1908 75.7889C11.4428 75.5957 11.708 75.454 11.9998 75.3252L11.2041 75.6472C11.5356 75.5184 11.8672 75.4283 12.2253 75.3767L11.3499 75.4927C11.7876 75.4411 12.2253 75.4411 12.663 75.4927L11.7876 75.3767C12.2783 75.4411 12.7425 75.5699 13.1934 75.7632L12.3977 75.4411C12.8088 75.6215 13.1935 75.8404 13.5515 76.111L12.8751 75.6086C13.1537 75.8276 13.4189 76.0723 13.6444 76.3557L13.1271 75.6988C13.3526 75.9821 13.5383 76.2784 13.6842 76.6004L13.3526 75.8276C13.5118 76.1882 13.6179 76.5618 13.6709 76.9611L13.5515 76.111C13.6046 76.5489 13.6046 76.9869 13.5515 77.4248L13.6709 76.5747C13.5913 77.0642 13.4587 77.5279 13.273 77.9916L13.6046 77.2187C13.3791 77.7211 13.1006 78.1848 12.7558 78.6099L13.273 77.953C12.9547 78.3394 12.5966 78.7001 12.1855 79.0092L12.8619 78.5069C12.4507 78.816 12.0131 79.0607 11.5489 79.2668L12.3446 78.9448C12.212 78.9963 12.0794 79.0479 11.9468 79.0865L14.5065 79.4085C13.9229 79.0994 13.3526 78.7387 12.8221 78.3394L13.4985 78.8418C12.6497 78.1977 11.8805 77.4506 11.2041 76.6262L11.7213 77.2831C11.0316 76.4072 10.4481 75.454 10.0104 74.4493L10.342 75.2221C9.97065 74.3462 9.69213 73.4317 9.51971 72.4913C9.38709 71.7442 8.64438 70.9327 7.99451 70.572C7.27833 70.1727 6.23059 69.9924 5.43483 70.25C4.63908 70.5076 3.85659 70.9842 3.45871 71.7313C3.02104 72.5429 2.96799 73.3157 3.12714 74.2174L3.16693 74.1788Z" fill="#D9D9D9"/>
<path d="M0.0371083 40.9838C-0.0557301 41.718 0.0371119 42.478 0.196263 43.1865C0.355414 43.8949 0.647192 44.5905 1.00528 45.2088C1.7082 46.4969 2.83552 47.5532 4.0822 48.3518C5.32889 49.1505 6.82756 49.5627 8.32623 49.6528C9.06894 49.6915 9.8647 49.6013 10.5809 49.4081C11.5623 49.1505 12.3713 48.6481 13.1273 47.9912C14.1485 47.1024 14.9177 45.7241 15.2095 44.4231C15.5146 43.0577 15.5411 41.5248 15.0106 40.198C14.4005 38.6652 13.3925 37.274 11.8408 36.5011C11.2175 36.192 10.5278 35.9086 9.82491 35.8055C9.34746 35.7283 8.85674 35.651 8.36602 35.651C7.8753 35.651 7.35806 35.7283 6.85408 35.8055C5.43499 35.9988 4.14852 36.6943 3.07425 37.596C1.86735 38.6008 1.1379 40.0821 0.9257 41.5892C0.713499 43.0963 1.03181 44.7193 1.8143 46.1234C2.49069 47.3342 3.6578 48.5193 4.94427 49.1118C5.97876 49.5884 7.07955 49.962 8.23339 49.8074C9.6127 49.6271 10.5543 48.6867 11.3103 47.6434C12.0663 46.6 12.3846 45.2603 12.3713 44.0495C12.3448 41.4604 10.9655 39.013 8.75064 37.5831C8.22013 37.2482 7.59679 36.9906 6.98671 36.836C6.37663 36.6815 5.68697 36.5913 5.05037 36.6428C4.41376 36.6943 3.77716 36.7587 3.22013 37.1065C2.66311 37.4543 2.31828 37.8537 1.94693 38.356C1.68167 38.7296 1.49599 39.1804 1.3501 39.6055C1.20421 40.0306 1.15116 40.4943 1.11138 40.9323C1.08485 41.1384 1.09811 41.3316 1.11138 41.5248C1.23074 42.5038 1.41642 43.2509 1.90714 44.1397C2.22544 44.7065 2.6631 45.2603 3.15382 45.6983C4.30766 46.7417 5.87266 47.5146 7.49069 47.4501C8.4456 47.4115 9.30767 47.1925 10.1432 46.7288C10.8594 46.3295 11.4429 45.5824 11.6684 44.8095C11.8939 44.0366 11.7878 43.0061 11.3368 42.3234C10.3554 40.855 8.40581 40.2753 6.80103 41.1641C6.70819 41.2156 6.6021 41.2672 6.50926 41.3058L7.30502 40.9838C7.1326 41.0482 6.96019 41.0868 6.77451 41.1126L7.64984 40.9967C7.46416 41.0095 7.29176 41.0095 7.11934 40.9967L7.99467 41.1126C7.75594 41.074 7.54374 41.0224 7.31827 40.9323L8.11404 41.2543C7.86205 41.1512 7.63658 41.0095 7.42438 40.855L8.10077 41.3573C7.86204 41.177 7.64984 40.9709 7.46416 40.739L7.9814 41.396C7.79573 41.1641 7.64984 40.9194 7.51721 40.6489L7.84878 41.4217C7.74268 41.177 7.67637 40.9451 7.62332 40.6875L7.74268 41.5377C7.71615 41.3316 7.71615 41.1384 7.74268 40.9451L7.62332 41.7953C7.64984 41.615 7.68963 41.4604 7.75594 41.2929L7.42438 42.0658C7.50395 41.8984 7.59679 41.7438 7.70289 41.5892L7.18565 42.2461L7.2387 42.1817L5.77982 43.0061L5.85939 43.0061L4.98406 43.1092C5.23605 43.0834 5.48803 43.0705 5.75329 43.1092L4.87796 42.9932C5.14321 43.0319 5.40846 43.0963 5.66045 43.1993L4.86469 42.8773C5.14321 42.9932 5.3952 43.1349 5.63393 43.3153L4.95753 42.8129C5.23605 43.0319 5.48804 43.2766 5.70024 43.5471L5.183 42.8902C5.43499 43.2122 5.64718 43.56 5.80634 43.9336L5.47477 43.1607C5.64718 43.56 5.76655 43.9722 5.8196 44.3973L5.70024 43.5471C5.74003 43.8949 5.75329 44.2298 5.70024 44.5776L5.8196 43.7275C5.77981 44.0366 5.70023 44.3329 5.56761 44.6292L5.89917 43.8563C5.79307 44.0753 5.67371 44.2814 5.52782 44.4746L6.04506 43.8176C5.88591 44.0109 5.70024 44.1912 5.5013 44.3458L6.1777 43.8434L6.11138 43.8949L7.78247 43.457C7.78247 43.457 7.64985 43.457 7.5968 43.4312L8.47212 43.5471C8.19361 43.5085 7.91509 43.4312 7.64984 43.3282L8.4456 43.6502C8.1273 43.5214 7.83551 43.3539 7.557 43.1478L8.23339 43.6502C7.92835 43.4183 7.6631 43.1607 7.42438 42.8644L7.94162 43.5214C7.68963 43.1993 7.47742 42.8516 7.31827 42.478L7.64984 43.2509C7.50395 42.9031 7.41112 42.5553 7.35807 42.1817L7.47743 43.0319C7.43764 42.697 7.43764 42.3621 7.47743 42.0272L7.35807 42.8773C7.41112 42.5682 7.49069 42.2848 7.61005 41.9885L7.27849 42.7614C7.38459 42.5166 7.53048 42.2977 7.68963 42.0916L7.17239 42.7485C7.37133 42.4909 7.59679 42.2719 7.84878 42.0787L7.17239 42.5811C7.47743 42.3492 7.809 42.1689 8.16709 42.0143L7.37132 42.3363C7.7692 42.1817 8.16708 42.0787 8.57823 42.0272L7.70289 42.1431C8.0875 42.1044 8.47213 42.1044 8.87 42.1431L7.99467 42.0272C8.35276 42.0787 8.68433 42.1689 9.01589 42.2977L8.22013 41.9756C8.49864 42.0916 8.75064 42.2333 8.98936 42.4136L8.31297 41.9112C8.55169 42.0916 8.7639 42.2977 8.94958 42.5295L8.43234 41.8726C8.60475 42.1044 8.7639 42.3621 8.88326 42.6197L8.55169 41.8468C8.69758 42.1946 8.80369 42.5682 8.85674 42.9417L8.73737 42.0916C8.77716 42.478 8.77716 42.8516 8.73737 43.238L8.85674 42.3878C8.80369 42.7743 8.69758 43.1349 8.55169 43.4956L8.88326 42.7227C8.73737 43.0448 8.56496 43.3539 8.35276 43.6244L8.87 42.9675C8.68433 43.1993 8.47212 43.4055 8.24666 43.5858L8.92306 43.0834C8.77717 43.1865 8.63127 43.2895 8.47212 43.3797L9.26788 43.0577C8.93631 43.1865 8.59149 43.2638 8.24666 43.3153L9.12199 43.1993C8.73737 43.238 8.36602 43.238 7.9814 43.1993L8.85674 43.3153C8.40581 43.2509 7.98141 43.1349 7.57026 42.9675L8.36602 43.2895C7.88857 43.0834 7.43764 42.8387 7.0265 42.5295L7.70289 43.0319C7.31827 42.7356 6.97345 42.4007 6.68167 42.0272L7.19891 42.6841C6.93366 42.3363 6.69493 41.9628 6.52252 41.5634L6.85408 42.3363C6.70819 41.9885 6.6021 41.6407 6.54905 41.2672L6.66841 42.1173C6.61536 41.7438 6.61536 41.3702 6.66841 40.9967C6.77451 40.2367 6.23075 39.2319 5.70024 38.7167C5.12995 38.1628 4.17504 37.7377 3.35276 37.7764C2.53048 37.815 1.6021 38.0855 1.00528 38.7167L0.488042 39.3736C0.183002 39.876 0.0371083 40.417 0.0371083 40.9967L0.0371083 40.9838Z" fill="#D9D9D9"/>
<path d="M40.4615 106.292C40.5809 108.005 40.687 109.808 41.2705 111.444C41.9735 113.428 43.114 115.038 44.9045 116.223C46.5491 117.305 48.6445 117.653 50.5676 117.241C52.8886 116.738 54.4403 114.87 55.2891 112.835C56.5093 109.911 55.5676 106.021 53.1538 103.921C51.7347 102.685 49.9443 101.912 48.0079 101.976C46.0716 102.041 44.3342 102.762 42.8488 103.947C41.3634 105.132 40.5941 106.858 40.4085 108.675C40.2228 110.491 41.0583 112.165 42.2652 113.454C43.2599 114.523 44.7851 115.36 46.2573 115.605C48.3528 115.94 50.3156 115.515 51.9204 114.123C53.1671 113.041 53.8302 111.251 53.7506 109.654C53.6578 107.928 53.0079 106.408 51.8541 105.107C50.7798 103.896 48.9496 103.097 47.305 103.239C45.183 103.419 43.5384 104.424 42.3315 106.098C41.4429 107.348 41.0318 109.087 41.0716 110.581C41.1114 112.178 41.5756 113.827 42.5438 115.141C43.8965 116.97 45.8196 118.323 48.2334 118.426C50.6472 118.529 52.8753 117.022 53.7772 114.948C54.2546 113.853 54.4005 112.668 54.0292 111.508C53.5119 109.898 51.6949 108.713 49.9443 109.254C48.1936 109.795 47.0663 111.496 47.6233 113.222C47.6631 113.35 47.6896 113.466 47.7162 113.595L47.5968 112.745C47.5968 112.874 47.5968 112.99 47.5968 113.119L47.7162 112.268C47.6896 112.475 47.6233 112.668 47.5437 112.861L47.8753 112.088C47.7957 112.243 47.7029 112.384 47.6101 112.526L48.1273 111.869C47.9814 112.037 47.8355 112.191 47.6498 112.333L48.3262 111.831C48.1008 111.998 47.8753 112.127 47.6233 112.23L48.4191 111.908C48.2069 111.985 47.9947 112.037 47.7559 112.075L48.6313 111.959C48.4456 111.972 48.2732 111.972 48.0875 111.959L48.9628 112.075C48.6843 112.037 48.4058 111.972 48.1406 111.869L48.9363 112.191C48.6313 112.062 48.3528 111.908 48.0743 111.715L48.7506 112.217C48.4058 111.946 48.1008 111.65 47.8355 111.315L48.3528 111.972C48.061 111.599 47.8223 111.199 47.6366 110.761L47.9681 111.534C47.7957 111.135 47.6896 110.71 47.6233 110.285L47.7427 111.135C47.6896 110.658 47.6896 110.182 47.7427 109.705L47.6233 110.555C47.6896 110.092 47.809 109.641 47.9947 109.216L47.6631 109.988C47.809 109.679 47.9814 109.396 48.1804 109.138L47.6631 109.795C47.8223 109.602 48.0079 109.422 48.2069 109.267L47.5305 109.77C47.7427 109.615 47.9549 109.499 48.1936 109.396L47.3979 109.718C47.6101 109.641 47.8355 109.576 48.061 109.538L47.1857 109.654C47.3979 109.628 47.5968 109.628 47.809 109.654L46.9337 109.538C47.1724 109.563 47.3846 109.628 47.5968 109.718L46.801 109.396C47.0132 109.486 47.1989 109.602 47.3846 109.744L46.7082 109.241C46.9204 109.409 47.1061 109.589 47.2652 109.808L46.748 109.151C46.9337 109.396 47.0928 109.654 47.2254 109.937L46.8939 109.164C47.0265 109.486 47.1326 109.808 47.1857 110.143L47.0663 109.293C47.1061 109.628 47.1193 109.963 47.0663 110.298L47.1857 109.447C47.1459 109.679 47.0928 109.898 47 110.104L47.3315 109.332C47.2387 109.551 47.1193 109.744 46.9735 109.924L47.4907 109.267C47.3581 109.435 47.1989 109.563 47.0265 109.705L47.7029 109.203C47.5172 109.332 47.3315 109.435 47.1193 109.525L47.9151 109.203C47.6764 109.293 47.4376 109.357 47.1724 109.396L48.0477 109.28C47.7559 109.319 47.4642 109.319 47.1591 109.28L48.0345 109.396C47.6498 109.344 47.2918 109.241 46.9469 109.1L47.7427 109.422C47.4244 109.28 47.1326 109.113 46.8408 108.919L47.5172 109.422C47.2122 109.19 46.9469 108.932 46.7082 108.636L47.2254 109.293C47.0398 109.048 46.8939 108.803 46.7745 108.533L47.1061 109.306C47.0132 109.061 46.9469 108.816 46.8939 108.572L47.0132 109.422C46.9867 109.151 46.9867 108.881 47.0132 108.61L46.8939 109.46C46.9469 109.138 47.0265 108.842 47.1591 108.559L46.8276 109.332C46.9602 109.048 47.1326 108.778 47.3315 108.533L46.8143 109.19C47.053 108.906 47.305 108.662 47.6101 108.443L46.9337 108.945C47.2652 108.7 47.6233 108.507 48.0079 108.34L47.2122 108.662C47.5968 108.507 47.9947 108.404 48.4191 108.34L47.5437 108.456C47.9151 108.417 48.2865 108.417 48.6578 108.456L47.7825 108.34C48.114 108.391 48.4323 108.469 48.7374 108.597L47.9416 108.275C48.2467 108.404 48.5384 108.572 48.817 108.765L48.1406 108.262C48.4721 108.507 48.7639 108.791 49.0159 109.113L48.4987 108.456C48.7506 108.791 48.9628 109.138 49.1353 109.512L48.8037 108.739C49.0026 109.203 49.1353 109.679 49.2148 110.169L49.0955 109.319C49.1485 109.77 49.1618 110.22 49.0955 110.684L49.2148 109.834C49.1485 110.285 49.0292 110.723 48.8567 111.148L49.1883 110.375C49.0292 110.723 48.8302 111.058 48.5915 111.367L49.1087 110.71C48.9098 110.942 48.6976 111.161 48.4589 111.341L49.1353 110.839C48.9363 110.98 48.7506 111.096 48.5252 111.199L49.3209 110.877C49.0292 110.993 48.7506 111.071 48.4456 111.109L49.3209 110.993C49.0159 111.019 48.7109 111.019 48.4058 110.98L49.2811 111.096C48.9231 111.045 48.5782 110.942 48.2467 110.813L49.0424 111.135C48.6578 110.967 48.313 110.774 47.9681 110.53L48.6445 111.032C48.313 110.787 48.0212 110.504 47.7559 110.195L48.2732 110.852C47.9549 110.439 47.7029 110.001 47.4774 109.525L47.809 110.298C47.4376 109.435 47.2387 108.533 47.1061 107.618L47.2254 108.469C47.1326 107.76 47.0796 107.039 47.0265 106.33C46.9735 105.467 46.6949 104.669 46.0583 104.05C45.488 103.496 44.5331 103.071 43.7109 103.11C42.0132 103.187 40.2758 104.527 40.3952 106.33L40.4615 106.292Z" fill="#D9D9D9"/>
<path d="M39.666 78.4295C39.9711 79.2797 40.3424 80.1169 40.8994 80.8512C41.6421 81.8173 42.3716 82.5386 43.3795 83.2471C44.0957 83.7623 44.9445 84.123 45.7933 84.3935C46.6421 84.664 47.6368 84.7928 48.5519 84.7027C49.6527 84.5996 50.7005 84.3806 51.6554 83.801C52.5573 83.26 53.2071 82.5901 53.8039 81.7529C54.2416 81.1474 54.5466 80.4261 54.7456 79.7176C54.9445 79.0092 55.0639 78.2492 55.0108 77.5149C54.8915 75.4797 54.0294 73.7536 52.3185 72.5686C50.7403 71.4737 48.4193 71.5381 46.6156 72.0404C44.6793 72.5814 42.9949 73.7279 41.8941 75.3767C41.2575 76.317 40.9525 77.4248 40.8729 78.5454C40.7933 79.6661 41.1514 80.6708 41.6156 81.6369C41.9737 82.3712 42.5307 83.0796 43.1673 83.6078C43.9763 84.2776 44.9313 84.8959 45.9923 85.102C46.4962 85.205 47.0267 85.2952 47.544 85.2565C48.4326 85.1921 49.0825 85.0118 49.8915 84.6511C50.9923 84.1616 51.9339 83.1827 52.5307 82.1779C54.4008 79.0736 53.2867 74.9001 50.475 72.6974C49.5864 72.0018 48.7907 71.5381 47.7164 71.1645C47.4379 71.0615 47.1594 70.9971 46.8676 70.9584C46.3238 70.8811 45.7535 70.7781 45.1965 70.8296C43.4061 70.9713 41.6156 71.6411 40.422 73.0065C39.4405 74.1143 38.7111 75.4282 38.4989 76.8966C38.3795 77.6695 38.2867 78.378 38.3795 79.1509C38.5122 80.2329 38.7244 81.0315 39.1753 82.0234C39.7588 83.2986 40.9127 84.4837 42.1992 85.102C44.3079 86.1067 46.6554 85.5399 48.353 84.0844C50.6474 82.1264 51.4432 78.2621 49.7323 75.7245C49.2151 74.9516 48.5122 74.2689 47.6634 73.8438C46.8676 73.4574 45.9923 73.277 45.1037 73.5218C44.3344 73.7279 43.4989 74.3075 43.1275 75.0031C42.3318 76.4716 42.6634 78.597 44.3212 79.4085C44.4671 79.4858 44.5997 79.5631 44.7323 79.6532L44.0559 79.1509C44.2151 79.2797 44.361 79.4085 44.4803 79.5759L43.9631 78.919C44.0825 79.0736 44.1753 79.241 44.2549 79.4214L43.9233 78.6485C44.0161 78.8804 44.0825 79.1122 44.109 79.357L43.9896 78.5068C44.0294 78.8159 44.0161 79.1122 43.9896 79.4214L44.109 78.5712C44.0559 78.9319 43.9498 79.2926 43.8039 79.6275L44.1355 78.8546C43.9896 79.1637 43.8172 79.46 43.605 79.7176L44.1222 79.0607C43.9631 79.2539 43.7774 79.4342 43.5785 79.5888L44.2549 79.0865C44.0692 79.2153 43.8835 79.3312 43.6846 79.4214L44.4803 79.0993C44.2947 79.1766 44.109 79.2281 43.91 79.2539L44.7854 79.138C44.5732 79.1637 44.3742 79.1637 44.162 79.138L45.0374 79.2539C44.9578 79.2539 44.8782 79.2281 44.7986 79.2153L45.5944 79.5373C45.3557 79.4342 45.1302 79.3054 44.9313 79.1509L45.6077 79.6532C45.3557 79.4729 45.1435 79.2539 44.9445 79.022L45.4618 79.679C45.2363 79.3956 45.0506 79.0865 44.9047 78.7644L45.2363 79.5373C45.0771 79.1509 44.9578 78.7515 44.8915 78.3265L45.0108 79.1766C44.9445 78.7 44.9445 78.2105 45.0108 77.7339L44.8915 78.5841C44.9578 78.1332 45.0771 77.6953 45.2496 77.2831L44.918 78.056C45.0771 77.6953 45.2628 77.3604 45.5016 77.0512L44.9843 77.7082C45.1965 77.4505 45.422 77.2187 45.7005 77.0126L45.0241 77.5149C45.2761 77.3346 45.5413 77.18 45.8331 77.0641L45.0374 77.3861C45.3159 77.2831 45.5944 77.2058 45.8729 77.1672L44.9976 77.2831C45.3291 77.2444 45.6474 77.2444 45.979 77.2831L45.1037 77.1672C45.4618 77.2187 45.8066 77.3088 46.1382 77.4377L45.3424 77.1156C45.7403 77.2831 46.1116 77.5021 46.4565 77.7597L45.7801 77.2573C46.1249 77.5278 46.4299 77.8241 46.7085 78.159L46.1912 77.5021C46.483 77.8627 46.7217 78.2621 46.9207 78.6871L46.5891 77.9143C46.7615 78.3007 46.8676 78.7 46.9339 79.1251L46.8145 78.2749C46.8543 78.597 46.8543 78.9061 46.8145 79.2281L46.9339 78.378C46.8941 78.7 46.8013 79.0092 46.6819 79.3054L47.0135 78.5326C46.8809 78.8159 46.7217 79.0736 46.536 79.3312L47.0533 78.6743C46.8809 78.8804 46.7084 79.0607 46.4962 79.241L47.1726 78.7387C46.9737 78.8932 46.7748 79.0092 46.536 79.1122L47.3318 78.7902C47.1461 78.8675 46.9604 78.9061 46.7615 78.9448L47.6368 78.8288C47.4379 78.8546 47.2522 78.8546 47.0665 78.8288L47.9419 78.9448C47.6766 78.9061 47.4379 78.8417 47.1992 78.7387L47.9949 79.0607C47.7429 78.9576 47.5175 78.8159 47.3053 78.6614L47.9817 79.1637C47.7297 78.9705 47.5175 78.7644 47.3185 78.5326L47.8358 79.1895C47.6236 78.919 47.4512 78.6356 47.3053 78.3136L47.6368 79.0865C47.5307 78.8288 47.4644 78.5841 47.4114 78.3136L47.5307 79.1637C47.4909 78.8932 47.4909 78.6356 47.5307 78.3651L47.4114 79.2153C47.4512 78.9448 47.544 78.6743 47.6501 78.4166L47.3185 79.1895C47.4512 78.9061 47.6103 78.6485 47.8092 78.3909L47.292 79.0478C47.5175 78.7773 47.7695 78.5326 48.048 78.3265L47.3716 78.8288C47.7164 78.5712 48.101 78.3651 48.4989 78.1848L47.7031 78.5068C48.1806 78.3136 48.6846 78.1719 49.2018 78.1075L48.3265 78.2234C48.8437 78.159 49.361 78.159 49.8782 78.2234L49.0029 78.1075C49.0692 78.1075 49.1355 78.1204 49.1886 78.159L48.3928 77.837C48.605 77.9271 48.7907 78.0302 48.9764 78.159L48.3 77.6566C48.4724 77.7855 48.6183 77.94 48.7509 78.1075L48.2336 77.4505C48.3795 77.6438 48.4989 77.8499 48.5917 78.0688L48.2602 77.296C48.3663 77.5536 48.4326 77.8112 48.4724 78.0817L48.353 77.2316C48.4061 77.5922 48.4061 77.9529 48.353 78.3136L48.4724 77.4634C48.4193 77.8627 48.3132 78.2492 48.1408 78.6098L48.4724 77.837C48.3397 78.1204 48.1806 78.3909 47.9949 78.6485L48.5122 77.9916C48.3398 78.2105 48.1408 78.4166 47.9021 78.5841L48.5785 78.0817C48.3663 78.2363 48.1541 78.3651 47.9021 78.4682L48.6978 78.1461C48.3928 78.2621 48.0878 78.3393 47.7562 78.3909L48.6315 78.2749C48.2602 78.3265 47.8888 78.3265 47.5175 78.2749L48.3928 78.3909C47.9419 78.3265 47.5175 78.2105 47.0931 78.0431L47.8888 78.3651C47.4246 78.1719 47.0002 77.9271 46.6023 77.6309L47.2787 78.1332C46.8411 77.7983 46.4565 77.4248 46.1249 77.0126L46.6421 77.6695C46.3371 77.2702 46.0718 76.858 45.8729 76.3943L46.2045 77.1672C46.1382 77.0255 46.0851 76.8838 46.0453 76.7421C45.7668 75.9434 45.2893 75.2479 44.5201 74.8228C43.8039 74.4235 42.7562 74.2431 41.9604 74.5007C41.1647 74.7584 40.3822 75.235 39.9843 75.9821C39.5864 76.7292 39.361 77.6438 39.6527 78.4682L39.666 78.4295Z" fill="#D9D9D9"/>
<path d="M38.2997 46.8447C39.2679 49.8203 42.1592 51.6623 45.3289 51.7138C46.7082 51.7396 48.2334 51.366 49.374 50.606C50.1034 50.1165 50.8462 49.4983 51.2838 48.7383C52.053 47.4501 51.6552 46.1878 51.1247 44.9383C49.9841 42.259 48.0875 39.2577 44.9178 38.6394C41.4695 37.9567 37.9947 40.095 37.3979 43.5214C36.9204 46.2651 37.5172 48.9959 38.6843 51.5077C39.4801 53.208 40.8462 54.6636 42.6764 55.3206C45.0371 56.1707 47.504 54.8697 48.6711 52.8602C50.5942 49.5498 50.7798 45.2475 48.1538 42.259C45.8196 39.6055 41.0186 38.8455 38.4191 41.5763C36.9735 43.0963 36.496 45.0542 36.8408 47.0637C37.1459 48.8671 38.6313 50.6189 40.4881 51.0955C42.7825 51.6881 45.2891 49.8589 46.2042 47.901C47.1194 45.943 47.2255 43.779 46.0053 41.9756C45.0504 40.5716 43.0345 39.8374 41.4695 40.8163C40.0239 41.718 39.2546 43.7146 40.2759 45.2217C40.3687 45.3634 40.4483 45.4922 40.5146 45.6468L40.183 44.8739C40.2759 45.1058 40.3422 45.3247 40.3687 45.5695L40.2493 44.7193C40.2759 44.9641 40.2759 45.1959 40.2493 45.4407L40.3687 44.5905C40.3289 44.8739 40.2493 45.1444 40.1432 45.4149L40.4748 44.642C40.3554 44.9125 40.2096 45.1444 40.0371 45.3763L40.5544 44.7193C40.3952 44.9125 40.2228 45.08 40.0239 45.2346L40.7003 44.7322C40.5279 44.8481 40.3554 44.9512 40.1698 45.0414L40.9655 44.7193C40.8064 44.7837 40.6605 44.8353 40.4881 44.8739L42.252 44.8739L42.1459 44.8353L42.9416 45.1573C42.809 45.0929 42.6897 45.0285 42.557 44.9383L43.2334 45.4407C43.0875 45.3376 42.9682 45.2088 42.8621 45.08L43.3793 45.7369C43.2732 45.5952 43.1804 45.4536 43.1141 45.2861L43.4456 46.059C43.3528 45.8271 43.2865 45.5952 43.2467 45.3376L43.366 46.1878C43.3395 45.9302 43.3395 45.6725 43.366 45.4149L43.2467 46.2651C43.2865 45.9688 43.366 45.6854 43.4854 45.4149L43.1538 46.1878C43.2467 45.9817 43.366 45.8013 43.4987 45.621L42.9814 46.278C43.1008 46.1363 43.2334 46.0074 43.366 45.8915L42.6897 46.3939C42.8886 46.2393 43.1008 46.1363 43.3263 46.0332L42.5305 46.3552C42.756 46.278 42.9682 46.2264 43.1936 46.1878L42.3183 46.3037C42.5968 46.278 42.8621 46.2651 43.1406 46.3037L42.2653 46.1878C42.6366 46.2393 42.9947 46.3295 43.3395 46.4712L42.5438 46.1491C42.9019 46.3037 43.2202 46.4969 43.5252 46.7159L42.8488 46.2135C43.1141 46.4196 43.3395 46.6515 43.5517 46.9091L43.0345 46.2522C43.2467 46.5227 43.4191 46.8061 43.565 47.1152L43.2334 46.3424C43.4191 46.7803 43.5385 47.2183 43.6048 47.682L43.4854 46.8318C43.5385 47.36 43.5385 47.8752 43.4721 48.4034L43.5915 47.5532C43.4854 48.2617 43.2865 48.9444 43.008 49.6013L43.3395 48.8284C43.1538 49.2277 42.9682 49.6142 42.7029 49.9749L43.2202 49.3179C43.0875 49.4854 42.9549 49.6271 42.7825 49.7559L43.4589 49.2535C43.3793 49.3179 43.2865 49.3694 43.1936 49.4081L43.9894 49.0861C43.8568 49.1376 43.7374 49.1762 43.5915 49.2149L44.4668 49.0989C44.3342 49.1118 44.2149 49.1247 44.0822 49.0989L44.9576 49.2149C44.7851 49.1891 44.626 49.1505 44.4536 49.0861L45.2493 49.4081C45.0769 49.3308 44.931 49.2406 44.7719 49.1247L45.4483 49.6271C45.1698 49.4081 44.931 49.1633 44.7056 48.8928L45.2228 49.5498C44.878 49.0989 44.5995 48.6095 44.374 48.0942L44.7056 48.8671C44.2812 47.8623 43.9761 46.819 43.817 45.7369L43.9363 46.5871C43.8435 45.9173 43.817 45.2475 43.8966 44.5776L43.7772 45.4278C43.8302 45.0156 43.9363 44.6163 44.1088 44.217L43.7772 44.9898C43.8833 44.758 44.0159 44.5519 44.1618 44.3458L43.6446 45.0027C43.7772 44.8353 43.9363 44.6936 44.1088 44.5519L43.4324 45.0542C43.6446 44.8997 43.87 44.7709 44.122 44.6678L43.3263 44.9898C43.5782 44.8997 43.817 44.8353 44.0822 44.7966L43.2069 44.9125C43.4589 44.8868 43.6976 44.8868 43.9496 44.9125L43.0743 44.7966C43.313 44.8353 43.5517 44.8997 43.7772 44.9769L42.9814 44.6549C43.2997 44.7837 43.5783 44.9512 43.8435 45.1444L43.1671 44.642C43.565 44.9512 43.9098 45.299 44.2149 45.6725L43.6976 45.0156C44.2679 45.7369 44.7188 46.5356 45.0902 47.3729L44.7586 46.6C44.9443 47.0251 45.1167 47.463 45.2626 47.9139L45.5942 45.4278L45.5279 45.518L46.0451 44.861C45.8727 45.0671 45.687 45.2475 45.4748 45.4149L46.1512 44.9125C45.9125 45.0929 45.6472 45.2346 45.3687 45.3505L46.1645 45.0285C45.8462 45.1573 45.5146 45.2346 45.183 45.2861L46.0584 45.1702C45.634 45.2217 45.2096 45.2217 44.7851 45.1702L45.6605 45.2861C45.2759 45.2346 44.9045 45.1315 44.5464 44.9898L45.3422 45.3119C44.9841 45.1702 44.6658 44.977 44.3475 44.758L45.0239 45.2603C44.7851 45.08 44.5729 44.8739 44.3873 44.642L44.9045 45.299C44.7454 45.0929 44.6127 44.8739 44.5066 44.6292L44.8382 45.402C44.7984 45.299 44.7586 45.1959 44.7188 45.08C44.2016 43.4827 42.3846 42.2848 40.634 42.8258C38.9761 43.341 37.756 45.0671 38.313 46.7932L38.2997 46.8447Z" fill="#D9D9D9"/>
<path d="M71.522 105.416C71.7342 108.662 73.5114 111.56 76.3629 113.26C79.2143 114.961 82.7024 114.922 85.6732 113.492C88.644 112.062 90.6997 109.061 90.9517 105.866C91.1772 103.11 89.7846 100.134 87.6228 98.3695C84.9968 96.2313 81.5751 95.5614 78.4451 97.0685C76.2568 98.1119 74.5326 100.508 74.1082 102.814C73.5512 105.802 74.4398 108.842 77.1586 110.568C79.5194 112.075 82.782 111.779 85.1029 110.349C88.1533 108.468 89.7183 104.99 88.1533 101.68C87.3841 100.057 85.5671 98.975 83.7899 98.7431C81.4955 98.4468 79.2674 99.5933 78.644 101.873C78.2064 103.496 79.2011 105.441 80.965 105.841C82.7289 106.24 84.5724 105.338 85.0499 103.586C85.1692 103.148 84.8244 104.05 84.8377 104.024C84.8642 103.986 84.2143 104.707 84.5194 104.437C84.2806 104.656 84.0287 104.823 83.7236 104.939C83.0074 105.222 83.9889 104.978 83.2064 105.068C82.2647 105.184 83.2594 105.068 83.2329 105.106C83.2064 105.171 82.3178 104.9 82.7289 105.055C82.8085 105.081 82.9013 105.119 82.9809 105.132C82.1056 104.952 82.3178 104.823 82.5565 104.965C82.583 104.978 82.7952 105.106 82.782 105.106C82.7289 105.132 82.1321 104.514 82.4239 104.849C82.4637 104.887 82.5167 104.952 82.5698 104.99C82.7687 105.145 81.9862 104.308 82.3841 104.81C81.9066 104.192 82.1321 104.14 82.1984 104.424C82.2249 104.578 82.3045 105.003 82.2249 104.385C82.1454 103.767 82.1852 104.308 82.1984 104.475C82.2117 104.965 82.4106 103.612 82.2382 104.192C82.1984 104.334 81.9597 104.965 82.2249 104.359C82.4902 103.754 82.2117 104.346 82.1188 104.488C81.721 105.106 82.1984 104.282 82.278 104.321C82.278 104.321 81.9199 104.681 81.8934 104.707C81.7873 104.81 81.2833 105.197 81.8005 104.81C82.3178 104.424 81.6812 104.862 81.5485 104.939C81.4159 105.016 80.8324 105.261 81.4292 105.016C82.026 104.771 81.4424 105.003 81.2966 105.042C81.1507 105.081 80.9783 105.119 80.8191 105.158C80.209 105.313 81.721 105.106 80.9385 105.132C80.7793 105.132 80.6202 105.119 80.461 105.119C80.0764 105.119 81.2966 105.3 80.9385 105.171C80.8722 105.145 80.8058 105.145 80.7395 105.119C80.7528 105.119 80.4875 105.042 80.4743 105.042C80.5008 105.016 81.2833 105.441 80.8854 105.209C80.8324 105.171 80.7661 105.145 80.6997 105.106C80.1427 104.862 81.018 105.287 80.965 105.338C80.9385 105.351 80.6467 105.055 80.6069 105.003C80.5008 104.913 80.2886 104.63 80.6467 105.068C81.0048 105.506 80.7793 105.248 80.713 105.119C80.6732 105.042 80.5538 104.746 80.4875 104.72C80.5141 104.72 80.7926 105.544 80.6732 105.132C80.6467 105.055 80.6202 104.965 80.5936 104.887C80.5008 104.553 80.5406 104.05 80.5936 105.106C80.5936 104.952 80.5671 104.797 80.5671 104.643C80.5671 104.488 80.5671 104.334 80.5804 104.179C80.5804 103.728 80.5273 104.617 80.5141 104.643C80.5671 104.578 80.5671 104.385 80.5804 104.308C80.6202 104.153 80.6599 103.999 80.6997 103.844C80.7395 103.689 80.9783 103.148 80.7263 103.715C80.4743 104.282 80.7263 103.741 80.7926 103.612C80.8987 103.432 81.0048 103.264 81.1241 103.084C81.4822 102.53 80.6467 103.586 80.9915 103.252C81.1241 103.123 81.2435 102.981 81.3761 102.865C81.4292 102.826 81.4822 102.775 81.5353 102.736C81.7873 102.466 80.8722 103.174 81.1905 102.994C81.3496 102.904 81.4955 102.788 81.6546 102.711C81.7342 102.672 81.8138 102.633 81.8934 102.595C82.2249 102.414 81.1109 102.839 81.4822 102.762C81.6414 102.723 81.7873 102.659 81.9464 102.633C81.9862 102.633 82.2249 102.582 82.2249 102.582C82.2249 102.633 81.4292 102.62 81.7342 102.659C81.8934 102.672 82.3443 102.569 82.4902 102.672C82.5565 102.723 81.6679 102.504 82.0127 102.62C82.1188 102.659 82.2249 102.659 82.331 102.685C82.5167 102.736 82.6891 102.814 82.8748 102.852C82.1586 102.711 82.278 102.582 82.53 102.723C82.6228 102.775 82.7289 102.826 82.8218 102.878C82.9942 102.968 83.2594 103.084 83.3788 103.226C83.3788 103.226 82.7157 102.672 83.1003 103.033C83.1666 103.084 83.2196 103.136 83.2859 103.2C83.4318 103.329 83.5645 103.47 83.6971 103.612C83.7501 103.677 83.8695 103.78 83.9093 103.87C83.9093 103.857 83.4186 103.174 83.6971 103.612C83.8165 103.805 83.9491 103.986 84.0552 104.179C84.2143 104.462 84.347 105.068 84.0817 104.153C84.1348 104.334 84.2143 104.514 84.2674 104.694C84.3204 104.875 84.3602 105.068 84.4 105.248C84.4663 105.544 84.2806 105.544 84.347 104.875C84.347 104.978 84.3602 105.094 84.3735 105.197C84.3735 105.338 84.4398 105.738 84.3602 105.854C84.3602 105.866 84.5326 104.965 84.4133 105.48C84.3867 105.557 84.3735 105.647 84.3602 105.725C84.3072 105.931 84.2409 106.111 84.1745 106.317C84.0154 106.807 84.2674 106.06 84.3072 106.034C84.2143 106.124 84.1613 106.317 84.095 106.42C83.9889 106.601 83.8695 106.768 83.7634 106.936C83.5777 107.206 83.5247 106.987 83.9491 106.704C83.8695 106.755 83.7634 106.91 83.7104 106.961C83.5645 107.116 83.4186 107.258 83.2594 107.386C82.7289 107.85 83.8032 107.039 83.2196 107.425C82.9942 107.58 82.7687 107.708 82.53 107.837C82.4504 107.876 82.3708 107.915 82.2912 107.953C81.9464 108.133 83.034 107.708 82.5035 107.863C82.2515 107.94 81.9995 108.03 81.7342 108.082C81.6414 108.108 81.5618 108.121 81.469 108.133C80.8456 108.262 82.0923 108.095 81.721 108.095C81.4557 108.095 81.1772 108.108 80.9119 108.095C80.7926 108.095 80.4477 108.043 80.9915 108.121C81.5883 108.211 81.0446 108.121 80.9119 108.095C80.6467 108.043 80.408 107.953 80.156 107.889C79.8244 107.799 80.5671 108.069 80.5406 108.056C80.408 107.992 80.2753 107.94 80.1427 107.876C79.904 107.76 79.6918 107.618 79.4663 107.477C79.3735 107.412 79.1082 107.219 79.5194 107.528C79.9703 107.876 79.5459 107.528 79.4398 107.451C79.2674 107.296 79.095 107.142 78.9358 106.961C78.8695 106.897 78.7899 106.755 78.7103 106.704C79.2276 107.09 79.0552 107.155 78.8562 106.871C78.7103 106.652 78.5645 106.433 78.4451 106.214C78.4053 106.137 78.3655 106.06 78.3257 105.982C78.1401 105.647 78.5777 106.717 78.4186 106.201C78.3523 105.982 78.2727 105.763 78.2196 105.544C78.2196 105.493 78.1401 105.274 78.1533 105.209L78.2196 105.725C78.2196 105.609 78.1931 105.493 78.1931 105.377C78.087 103.702 76.7475 102.079 74.8775 102.157C73.1666 102.234 71.4424 103.574 71.5618 105.377L71.522 105.416Z" fill="#D9D9D9"/>
<path d="M72.3447 71.1515C72.8354 73.9339 74.2545 76.4844 76.1245 78.6098C77.0794 79.6918 78.2333 80.6192 79.4402 81.3921C80.5144 82.0877 81.7346 82.6545 83.0608 82.2165C83.8035 81.9718 84.5595 81.6497 85.2094 81.1989C87.7425 79.4599 89.6126 76.5745 89.4402 73.4702C89.3473 71.6797 88.7107 70.1339 87.5436 68.7685C86.6152 67.6865 85.3685 66.9909 84.0423 66.4886C81.3898 65.4709 78.0343 66.0248 76.0317 68.0343C73.8301 70.2627 73.7107 73.4702 74.9839 76.1623C75.5409 77.3474 76.5356 78.3908 77.6895 79.0606C78.22 79.3698 78.8566 79.6274 79.4667 79.7433C79.9309 79.8335 80.4216 79.9108 80.899 79.8979C81.9998 79.8979 82.7956 79.3698 83.5781 78.7128C86.3632 76.3684 86.8009 71.9759 84.334 69.2838C81.7478 66.4499 76.3102 66.7333 74.4534 70.2241C73.3394 72.3237 73.8699 74.6552 75.342 76.4328C76.6152 77.9657 78.9627 78.7643 80.9123 78.0945C81.7346 77.8111 82.4375 77.3603 82.8884 76.6132C83.2996 75.9176 83.4852 74.9 83.22 74.1271C82.7027 72.5556 80.899 71.2804 79.1351 71.8729C79.0157 71.9115 78.9096 71.9373 78.7903 71.9631L79.6656 71.8471C79.5065 71.86 79.3606 71.8729 79.2147 71.8471L80.09 71.9631C79.9043 71.9373 79.7187 71.8858 79.5463 71.8214L80.342 72.1434C80.1696 72.0661 79.9972 71.9631 79.8513 71.8471L80.5277 72.3495C80.342 72.1949 80.1829 72.0404 80.0237 71.8471L80.5409 72.5041C80.3951 72.3109 80.2757 72.1048 80.1829 71.8858L80.5144 72.6587C80.4481 72.4783 80.3951 72.2851 80.3553 72.0919L80.4746 72.942C80.4481 72.7488 80.4481 72.5685 80.4614 72.3753L80.342 73.2254C80.3685 73.0322 80.4216 72.8519 80.5012 72.6715L80.1696 73.4444C80.2359 73.3027 80.3287 73.1739 80.4216 73.0451L79.9043 73.702C80.037 73.5603 80.1696 73.4315 80.3155 73.3156L79.6391 73.818C79.7982 73.7149 79.9574 73.6247 80.1431 73.5475L79.3473 73.8695C79.5728 73.7793 79.785 73.7278 80.0237 73.6891L79.1484 73.8051C79.4667 73.7664 79.785 73.7664 80.1033 73.8051L79.228 73.6891C79.5065 73.7407 79.7717 73.8051 80.037 73.9081L79.2412 73.5861C79.4667 73.6763 79.6656 73.7922 79.8646 73.9339L79.1882 73.4315C79.3738 73.5732 79.5463 73.7407 79.6921 73.921L79.1749 73.2641C79.3075 73.4315 79.4136 73.6119 79.5065 73.8051L79.1749 73.0322C79.2943 73.3156 79.3738 73.6119 79.4136 73.921L79.2943 73.0709C79.3208 73.38 79.3208 73.6891 79.2677 73.9983L79.3871 73.1481C79.3341 73.4573 79.2412 73.7536 79.1218 74.0498L79.4534 73.2769C79.3075 73.6119 79.1218 73.921 78.8964 74.2173L79.4136 73.5603C79.2014 73.8051 78.9892 74.0241 78.724 74.2302L79.4004 73.7278C79.3208 73.7793 79.2545 73.8308 79.1749 73.8824L80.846 73.4444C80.7001 73.4444 80.5542 73.4444 80.4083 73.4186L81.2837 73.5346C81.0317 73.4959 80.8062 73.4315 80.5675 73.3414L81.3632 73.6634C81.098 73.5475 80.8725 73.4058 80.647 73.2383L81.3234 73.7407C81.098 73.5603 80.899 73.3671 80.7266 73.1481L81.2439 73.8051C80.9919 73.4959 80.7929 73.161 80.6338 72.7875L80.9653 73.5603C80.8062 73.1868 80.7001 72.8132 80.647 72.4139L80.7664 73.2641C80.7266 72.9034 80.7134 72.5427 80.7664 72.1949L80.647 73.0451C80.6868 72.7231 80.7664 72.4268 80.8858 72.1176L80.5542 72.8905C80.6736 72.6329 80.8062 72.3881 80.9919 72.1563L80.4746 72.8132C80.647 72.6071 80.8327 72.4268 81.0449 72.2593L80.3685 72.7617C80.6205 72.5685 80.8858 72.4268 81.1775 72.298L80.3818 72.62C80.7134 72.4912 81.0449 72.401 81.403 72.3495L80.5277 72.4654C80.9654 72.4139 81.403 72.4139 81.8407 72.4654L80.9653 72.3495C81.4561 72.4139 81.9203 72.5427 82.3712 72.7359L81.5754 72.4139C81.9866 72.5942 82.3712 72.8132 82.7293 73.0837L82.0529 72.5814C82.3314 72.8003 82.5967 73.0451 82.8221 73.3285L82.3049 72.6715C82.5303 72.9549 82.716 73.2512 82.8619 73.5732L82.5303 72.8003C82.6895 73.161 82.7956 73.5346 82.8486 73.9339L82.7293 73.0837C82.7823 73.5217 82.7823 73.9597 82.7293 74.3976L82.8486 73.5475C82.7691 74.0369 82.6364 74.5007 82.4508 74.9644L82.7823 74.1915C82.5569 74.6939 82.2783 75.1576 81.9335 75.5827L82.4508 74.9257C82.1325 75.3122 81.7744 75.6729 81.3632 75.982L82.0396 75.4796C81.6285 75.7888 81.1908 76.0335 80.7266 76.2396L81.5224 75.9176C81.3898 75.9691 81.2571 76.0206 81.1245 76.0593L83.6842 76.3813C83.1006 76.0722 82.5303 75.7115 81.9998 75.3122L82.6762 75.8145C81.8274 75.1705 81.0582 74.4234 80.3818 73.599L80.899 74.2559C80.2094 73.38 79.6258 72.4268 79.1882 71.4221L79.5197 72.1949C79.1484 71.319 78.8699 70.4044 78.6974 69.4641C78.5648 68.717 77.8221 67.9055 77.1722 67.5448C76.4561 67.1455 75.4083 66.9652 74.6126 67.2228C73.8168 67.4804 73.0343 67.957 72.6364 68.7041C72.1988 69.5156 72.1457 70.2885 72.3049 71.1902L72.3447 71.1515Z" fill="#D9D9D9"/>
<path d="M69.2148 37.9697C69.122 38.7039 69.2148 39.4639 69.374 40.1723C69.5332 40.8808 69.8249 41.5764 70.183 42.1947C70.8859 43.4828 72.0133 44.5391 73.2599 45.3377C74.5066 46.1363 76.0053 46.5485 77.504 46.6387C78.2467 46.6773 79.0424 46.5872 79.7586 46.394C80.74 46.1363 81.5491 45.634 82.305 44.977C83.3263 44.0882 84.0955 42.7099 84.3873 41.4089C84.6923 40.0435 84.7188 38.5107 84.1883 37.1839C83.5782 35.651 82.5703 34.2599 81.0186 33.487C80.3952 33.1778 79.7056 32.8945 79.0026 32.7914C78.5252 32.7141 78.0345 32.6368 77.5438 32.6368C77.053 32.6368 76.5358 32.7141 76.0318 32.7914C74.6127 32.9846 73.3263 33.6802 72.252 34.5819C71.0451 35.5866 70.3156 37.068 70.1034 38.5751C69.8912 40.0822 70.2095 41.7052 70.992 43.1093C71.6684 44.3201 72.8355 45.5052 74.122 46.0977C75.1565 46.5743 76.2573 46.9479 77.4111 46.7933C78.7904 46.6129 79.7321 45.6726 80.4881 44.6292C81.244 43.5859 81.5623 42.2462 81.5491 41.0354C81.5225 38.4463 80.1432 35.9988 77.9284 34.569C77.3979 34.2341 76.7745 33.9765 76.1644 33.8219C75.5544 33.6673 74.8647 33.5772 74.2281 33.6287C73.5915 33.6802 72.9549 33.7446 72.3979 34.0924C71.8408 34.4402 71.496 34.8395 71.1247 35.3419C70.8594 35.7154 70.6737 36.1663 70.5278 36.5914C70.382 37.0164 70.3289 37.4802 70.2891 37.9181C70.2626 38.1242 70.2759 38.3174 70.2891 38.5107C70.4085 39.4896 70.5942 40.2367 71.0849 41.1256C71.4032 41.6923 71.8408 42.2462 72.3316 42.6842C73.4854 43.7276 75.0504 44.5004 76.6684 44.436C77.6233 44.3974 78.4854 44.1784 79.3209 43.7147C80.0371 43.3154 80.6207 42.5682 80.8461 41.7954C81.0716 41.0225 80.9655 39.992 80.5146 39.3093C79.5331 37.8408 77.5835 37.2612 75.9788 38.15C75.8859 38.2015 75.7798 38.253 75.687 38.2917L76.4827 37.9697C76.3103 38.0341 76.1379 38.0727 75.9522 38.0985L76.8276 37.9825C76.6419 37.9954 76.4695 37.9954 76.2971 37.9825L77.1724 38.0985C76.9337 38.0598 76.7215 38.0083 76.496 37.9181L77.2918 38.2402C77.0398 38.1371 76.8143 37.9954 76.6021 37.8408L77.2785 38.3432C77.0398 38.1629 76.8276 37.9568 76.6419 37.7249L77.1591 38.3819C76.9735 38.15 76.8276 37.9052 76.695 37.6347L77.0265 38.4076C76.9204 38.1629 76.8541 37.931 76.8011 37.6734L76.9204 38.5235C76.8939 38.3174 76.8939 38.1242 76.9204 37.931L76.8011 38.7812C76.8276 38.6008 76.8674 38.4463 76.9337 38.2788L76.6021 39.0517C76.6817 38.8842 76.7745 38.7296 76.8806 38.5751L76.3634 39.232L76.4164 39.1676L74.9576 39.992L75.0371 39.992L74.1618 40.0951C74.4138 40.0693 74.6658 40.0564 74.931 40.0951L74.0557 39.9791C74.3209 40.0178 74.5862 40.0822 74.8382 40.1852L74.0424 39.8632C74.3209 39.9791 74.5729 40.1208 74.8117 40.3011L74.1353 39.7988C74.4138 40.0178 74.6658 40.2625 74.878 40.533L74.3607 39.8761C74.6127 40.1981 74.8249 40.5459 74.9841 40.9195L74.6525 40.1466C74.8249 40.5459 74.9443 40.9581 74.9973 41.3832L74.878 40.533C74.9178 40.8808 74.931 41.2157 74.878 41.5635L74.9973 40.7133C74.9576 41.0225 74.878 41.3188 74.7454 41.615L75.0769 40.8422C74.9708 41.0611 74.8515 41.2672 74.7056 41.4605L75.2228 40.8035C75.0637 40.9967 74.878 41.1771 74.679 41.3316L75.3554 40.8293L75.2891 40.8808L76.9602 40.4428C76.9602 40.4428 76.8276 40.4428 76.7745 40.4171L77.6499 40.533C77.3713 40.4944 77.0928 40.4171 76.8276 40.314L77.6233 40.6361C77.305 40.5073 77.0133 40.3398 76.7347 40.1337L77.4111 40.6361C77.1061 40.4042 76.8408 40.1466 76.6021 39.8503L77.1194 40.5072C76.8674 40.1852 76.6552 39.8374 76.496 39.4639L76.8276 40.2367C76.6817 39.889 76.5888 39.5412 76.5358 39.1676L76.6552 40.0178C76.6154 39.6829 76.6154 39.3479 76.6552 39.013L76.5358 39.8632C76.5888 39.554 76.6684 39.2707 76.7878 38.9744L76.4562 39.7473C76.5623 39.5025 76.7082 39.2835 76.8674 39.0774L76.3501 39.7344C76.5491 39.4768 76.7745 39.2578 77.0265 39.0646L76.3501 39.5669C76.6552 39.3351 76.9867 39.1547 77.3448 39.0002L76.5491 39.3222C76.9469 39.1676 77.3448 39.0646 77.756 39.013L76.8806 39.129C77.2652 39.0903 77.6499 39.0903 78.0477 39.129L77.1724 39.013C77.5305 39.0646 77.8621 39.1547 78.1936 39.2835L77.3979 38.9615C77.6764 39.0774 77.9284 39.2191 78.1671 39.3995L77.4907 38.8971C77.7294 39.0774 77.9416 39.2835 78.1273 39.5154L77.6101 38.8585C77.7825 39.0903 77.9416 39.3479 78.061 39.6056L77.7294 38.8327C77.8753 39.1805 77.9814 39.554 78.0345 39.9276L77.9151 39.0774C77.9549 39.4639 77.9549 39.8374 77.9151 40.2239L78.0345 39.3737C77.9814 39.7601 77.8753 40.1208 77.7294 40.4815L78.061 39.7086C77.9151 40.0306 77.7427 40.3398 77.5305 40.6103L78.0477 39.9534C77.8621 40.1852 77.6499 40.3913 77.4244 40.5717L78.1008 40.0693C77.9549 40.1723 77.809 40.2754 77.6499 40.3656L78.4456 40.0435C78.1141 40.1723 77.7692 40.2496 77.4244 40.3011L78.2997 40.1852C77.9151 40.2239 77.5438 40.2239 77.1591 40.1852L78.0345 40.3011C77.5835 40.2367 77.1591 40.1208 76.748 39.9534L77.5438 40.2754C77.0663 40.0693 76.6154 39.8245 76.2042 39.5154L76.8806 40.0178C76.496 39.7215 76.1512 39.3866 75.8594 39.013L76.3766 39.67C76.1114 39.3222 75.8727 38.9486 75.7003 38.5493L76.0318 39.3222C75.8859 38.9744 75.7798 38.6266 75.7268 38.253L75.8461 39.1032C75.7931 38.7296 75.7931 38.3561 75.8461 37.9825C75.9522 37.2225 75.4085 36.2178 74.878 35.7026C74.3077 35.1487 73.3528 34.7236 72.5305 34.7622C71.7082 34.8009 70.7798 35.0714 70.183 35.7026L69.6658 36.3595C69.3607 36.8619 69.2148 37.4029 69.2148 37.9825L69.2148 37.9697Z" fill="#D9D9D9"/>
<path d="M109.639 103.265C109.759 104.978 109.865 106.781 110.448 108.417C111.151 110.401 112.292 112.011 114.082 113.196C115.727 114.278 117.822 114.626 119.745 114.214C122.066 113.711 123.618 111.843 124.467 109.808C125.687 106.884 124.745 102.994 122.332 100.894C120.912 99.6578 119.122 98.8849 117.186 98.9493C115.249 99.0137 113.512 99.7351 112.027 100.92C110.541 102.105 109.772 103.831 109.586 105.648C109.401 107.464 110.236 109.138 111.443 110.426C112.438 111.496 113.963 112.333 115.435 112.578C117.53 112.913 119.493 112.487 121.098 111.096C122.345 110.014 123.008 108.224 122.928 106.627C122.836 104.9 122.186 103.38 121.032 102.079C119.958 100.869 118.127 100.07 116.483 100.212C114.361 100.392 112.716 101.397 111.509 103.071C110.621 104.321 110.21 106.06 110.249 107.554C110.289 109.151 110.753 110.8 111.721 112.114C113.088 113.969 114.997 115.321 117.411 115.424C119.825 115.527 122.053 113.982 122.955 111.921C123.432 110.826 123.578 109.641 123.207 108.481C122.69 106.871 120.873 105.686 119.122 106.227C117.371 106.768 116.244 108.469 116.801 110.195C116.841 110.323 116.867 110.439 116.894 110.568L116.775 109.718C116.775 109.847 116.775 109.963 116.775 110.092L116.894 109.241C116.867 109.448 116.801 109.641 116.721 109.834L117.053 109.061C116.973 109.216 116.881 109.357 116.788 109.499L117.305 108.842C117.159 109.01 117.013 109.164 116.828 109.306L117.504 108.803C117.279 108.971 117.053 109.1 116.801 109.203L117.597 108.881C117.385 108.958 117.172 109.01 116.934 109.048L117.809 108.932C117.623 108.945 117.451 108.945 117.265 108.932L118.141 109.048C117.862 109.01 117.584 108.945 117.318 108.842L118.114 109.164C117.809 109.035 117.53 108.881 117.252 108.688L117.928 109.19C117.584 108.919 117.279 108.623 117.013 108.288L117.53 108.945C117.239 108.572 117 108.172 116.814 107.734L117.146 108.507C116.973 108.108 116.867 107.683 116.801 107.258L116.92 108.108C116.867 107.631 116.867 107.155 116.92 106.678L116.801 107.528C116.867 107.064 116.987 106.614 117.172 106.189L116.841 106.961C116.987 106.652 117.159 106.369 117.358 106.111L116.841 106.768C117 106.575 117.186 106.395 117.385 106.24L116.708 106.742C116.92 106.588 117.133 106.472 117.371 106.369L116.576 106.691C116.788 106.614 117.013 106.549 117.239 106.511L116.363 106.627C116.576 106.601 116.775 106.601 116.987 106.627L116.111 106.511C116.35 106.536 116.562 106.601 116.775 106.691L115.979 106.369C116.191 106.459 116.377 106.575 116.562 106.717L115.886 106.214C116.098 106.382 116.284 106.562 116.443 106.781L115.926 106.124C116.111 106.369 116.271 106.627 116.403 106.91L116.072 106.137C116.204 106.459 116.31 106.781 116.363 107.116L116.244 106.266C116.284 106.601 116.297 106.936 116.244 107.271L116.363 106.42C116.324 106.652 116.271 106.871 116.178 107.077L116.509 106.305C116.416 106.523 116.297 106.717 116.151 106.897L116.668 106.24C116.536 106.408 116.377 106.536 116.204 106.678L116.881 106.176C116.695 106.305 116.509 106.408 116.297 106.498L117.093 106.176C116.854 106.266 116.615 106.33 116.35 106.369L117.225 106.253C116.934 106.292 116.642 106.292 116.337 106.253L117.212 106.369C116.828 106.317 116.469 106.214 116.125 106.073L116.92 106.395C116.602 106.253 116.31 106.086 116.019 105.892L116.695 106.395C116.39 106.163 116.125 105.905 115.886 105.609L116.403 106.266C116.218 106.021 116.072 105.776 115.952 105.506L116.284 106.279C116.191 106.034 116.125 105.789 116.072 105.545L116.191 106.395C116.164 106.124 116.164 105.854 116.191 105.583L116.072 106.433C116.125 106.111 116.204 105.815 116.337 105.532L116.005 106.305C116.138 106.021 116.31 105.751 116.509 105.506L115.992 106.163C116.231 105.879 116.483 105.635 116.788 105.416L116.111 105.918C116.443 105.673 116.801 105.48 117.186 105.313L116.39 105.635C116.775 105.48 117.172 105.377 117.597 105.313L116.721 105.429C117.093 105.39 117.464 105.39 117.836 105.429L116.96 105.313C117.292 105.364 117.61 105.441 117.915 105.57L117.119 105.248C117.424 105.377 117.716 105.545 117.995 105.738L117.318 105.235C117.65 105.48 117.942 105.763 118.194 106.086L117.676 105.429C117.928 105.763 118.141 106.111 118.313 106.485L117.981 105.712C118.18 106.176 118.313 106.652 118.393 107.142L118.273 106.292C118.326 106.742 118.34 107.193 118.273 107.657L118.393 106.807C118.326 107.258 118.207 107.696 118.034 108.121L118.366 107.348C118.207 107.696 118.008 108.031 117.769 108.34L118.286 107.683C118.088 107.915 117.875 108.134 117.637 108.314L118.313 107.812C118.114 107.953 117.928 108.069 117.703 108.172L118.499 107.85C118.207 107.966 117.928 108.043 117.623 108.082L118.499 107.966C118.194 107.992 117.889 107.992 117.584 107.953L118.459 108.069C118.101 108.018 117.756 107.915 117.424 107.786L118.22 108.108C117.836 107.94 117.491 107.747 117.146 107.502L117.822 108.005C117.491 107.76 117.199 107.477 116.934 107.168L117.451 107.824C117.133 107.412 116.881 106.974 116.655 106.498L116.987 107.271C116.615 106.408 116.416 105.506 116.284 104.591L116.403 105.441C116.31 104.733 116.257 104.012 116.204 103.303C116.151 102.44 115.873 101.642 115.236 101.023C114.666 100.469 113.711 100.044 112.889 100.083C111.191 100.16 109.454 101.5 109.573 103.303L109.639 103.265Z" fill="#D9D9D9"/>
<path d="M108.856 75.4024C109.161 76.2526 109.533 77.0899 110.09 77.8241C110.833 78.7902 111.562 79.5115 112.57 80.22C113.286 80.7353 114.135 81.0959 114.984 81.3664C115.833 81.6369 116.827 81.7658 117.742 81.6756C118.843 81.5725 119.891 81.3536 120.846 80.7739C121.748 80.2329 122.398 79.5631 122.994 78.7258C123.432 78.1204 123.737 77.399 123.936 76.6906C124.135 75.9821 124.254 75.2221 124.201 74.4879C124.082 72.4526 123.22 70.7266 121.509 69.5415C119.931 68.4466 117.61 68.511 115.806 69.0134C113.87 69.5544 112.185 70.7008 111.085 72.3496C110.448 73.2899 110.143 74.3977 110.063 75.5184C109.984 76.639 110.342 77.6438 110.806 78.6099C111.164 79.3441 111.721 80.0526 112.358 80.5807C113.167 81.2505 114.122 81.8688 115.183 82.0749C115.687 82.178 116.217 82.2681 116.734 82.2295C117.623 82.1651 118.273 81.9847 119.082 81.6241C120.183 81.1346 121.124 80.1556 121.721 79.1509C123.591 76.0465 122.477 71.873 119.665 69.6703C118.777 68.9747 117.981 68.511 116.907 68.1374C116.628 68.0344 116.35 67.97 116.058 67.9313C115.514 67.8541 114.944 67.751 114.387 67.8025C112.596 67.9442 110.806 68.614 109.612 69.9795C108.631 71.0872 107.902 72.4011 107.689 73.8696C107.57 74.6425 107.477 75.3509 107.57 76.1238C107.703 77.2058 107.915 78.0044 108.366 78.9963C108.949 80.2715 110.103 81.4566 111.39 82.0749C113.498 83.0796 115.846 82.5129 117.543 81.0573C119.838 79.0993 120.634 75.235 118.923 72.6974C118.406 71.9245 117.703 71.2418 116.854 70.8167C116.058 70.4303 115.183 70.25 114.294 70.4947C113.525 70.7008 112.689 71.2805 112.318 71.976C111.522 73.4445 111.854 75.5699 113.512 76.3814C113.657 76.4587 113.79 76.536 113.923 76.6262L113.246 76.1238C113.406 76.2526 113.551 76.3814 113.671 76.5489L113.154 75.8919C113.273 76.0465 113.366 76.214 113.445 76.3943L113.114 75.6214C113.207 75.8533 113.273 76.0851 113.299 76.3299L113.18 75.4797C113.22 75.7889 113.207 76.0851 113.18 76.3943L113.299 75.5441C113.246 75.9048 113.14 76.2655 112.994 76.6004L113.326 75.8275C113.18 76.1367 113.008 76.4329 112.795 76.6906L113.313 76.0336C113.154 76.2268 112.968 76.4072 112.769 76.5618L113.445 76.0594C113.26 76.1882 113.074 76.3041 112.875 76.3943L113.671 76.0723C113.485 76.1496 113.299 76.2011 113.1 76.2268L113.976 76.1109C113.764 76.1367 113.565 76.1367 113.352 76.1109L114.228 76.2268C114.148 76.2268 114.069 76.2011 113.989 76.1882L114.785 76.5102C114.546 76.4072 114.321 76.2784 114.122 76.1238L114.798 76.6262C114.546 76.4458 114.334 76.2268 114.135 75.995L114.652 76.6519C114.427 76.3685 114.241 76.0594 114.095 75.7374L114.427 76.5102C114.268 76.1238 114.148 75.7245 114.082 75.2994L114.201 76.1496C114.135 75.6729 114.135 75.1835 114.201 74.7069L114.082 75.557C114.148 75.1062 114.268 74.6682 114.44 74.256L114.108 75.0289C114.268 74.6682 114.453 74.3333 114.692 74.0242L114.175 74.6811C114.387 74.4235 114.612 74.1916 114.891 73.9855L114.215 74.4879C114.467 74.3075 114.732 74.153 115.024 74.037L114.228 74.3591C114.506 74.256 114.785 74.1787 115.063 74.1401L114.188 74.256C114.52 74.2174 114.838 74.2174 115.169 74.256L114.294 74.1401C114.652 74.1916 114.997 74.2818 115.329 74.4106L114.533 74.0886C114.931 74.256 115.302 74.475 115.647 74.7326L114.97 74.2303C115.315 74.5008 115.62 74.797 115.899 75.1319L115.382 74.475C115.673 74.8357 115.912 75.235 116.111 75.6601L115.78 74.8872C115.952 75.2736 116.058 75.6729 116.124 76.098L116.005 75.2479C116.045 75.5699 116.045 75.879 116.005 76.2011L116.124 75.3509C116.085 75.6729 115.992 75.9821 115.872 76.2784L116.204 75.5055C116.071 75.7889 115.912 76.0465 115.726 76.3041L116.244 75.6472C116.071 75.8533 115.899 76.0336 115.687 76.214L116.363 75.7116C116.164 75.8662 115.965 75.9821 115.726 76.0851L116.522 75.7631C116.337 75.8404 116.151 75.879 115.952 75.9177L116.827 75.8018C116.628 75.8275 116.443 75.8275 116.257 75.8018L117.132 75.9177C116.867 75.879 116.628 75.8146 116.39 75.7116L117.185 76.0336C116.933 75.9306 116.708 75.7889 116.496 75.6343L117.172 76.1367C116.92 75.9435 116.708 75.7374 116.509 75.5055L117.026 76.1624C116.814 75.8919 116.642 75.6085 116.496 75.2865L116.827 76.0594C116.721 75.8018 116.655 75.557 116.602 75.2865L116.721 76.1367C116.681 75.8662 116.681 75.6085 116.721 75.338L116.602 76.1882C116.642 75.9177 116.734 75.6472 116.841 75.3896L116.509 76.1624C116.642 75.879 116.801 75.6214 117 75.3638L116.482 76.0207C116.708 75.7502 116.96 75.5055 117.238 75.2994L116.562 75.8018C116.907 75.5441 117.291 75.338 117.689 75.1577L116.894 75.4797C117.371 75.2865 117.875 75.1448 118.392 75.0804L117.517 75.1963C118.034 75.1319 118.551 75.1319 119.069 75.1963L118.193 75.0804C118.26 75.0804 118.326 75.0933 118.379 75.1319L117.583 74.8099C117.795 74.9001 117.981 75.0031 118.167 75.1319L117.49 74.6296C117.663 74.7584 117.809 74.913 117.941 75.0804L117.424 74.4235C117.57 74.6167 117.689 74.8228 117.782 75.0418L117.451 74.2689C117.557 74.5265 117.623 74.7841 117.663 75.0547L117.543 74.2045C117.596 74.5652 117.596 74.9258 117.543 75.2865L117.663 74.4364C117.61 74.8357 117.504 75.2221 117.331 75.5828L117.663 74.8099C117.53 75.0933 117.371 75.3638 117.185 75.6214L117.703 74.9645C117.53 75.1835 117.331 75.3896 117.093 75.557L117.769 75.0547C117.557 75.2092 117.345 75.338 117.093 75.4411L117.888 75.1191C117.583 75.235 117.278 75.3123 116.947 75.3638L117.822 75.2479C117.451 75.2994 117.079 75.2994 116.708 75.2479L117.583 75.3638C117.132 75.2994 116.708 75.1835 116.283 75.016L117.079 75.338C116.615 75.1448 116.191 74.9001 115.793 74.6038L116.469 75.1062C116.032 74.7713 115.647 74.3977 115.315 73.9855L115.833 74.6424C115.528 74.2431 115.262 73.8309 115.063 73.3672L115.395 74.1401C115.329 73.9984 115.276 73.8567 115.236 73.715C114.957 72.9164 114.48 72.2208 113.711 71.7957C112.994 71.3964 111.947 71.2161 111.151 71.4737C110.355 71.7313 109.573 72.2079 109.175 72.955C108.777 73.7021 108.551 74.6167 108.843 75.4411L108.856 75.4024Z" fill="#D9D9D9"/>
<path d="M0.832944 8.18823C1.32366 10.9706 2.74277 13.521 4.61279 15.6464C5.5677 16.7285 6.72154 17.6559 7.92844 18.4288C9.00271 19.1244 10.2229 19.6911 11.5491 19.2532C12.2918 19.0084 13.0478 18.6864 13.6977 18.2356C16.2308 16.4966 18.1008 13.6112 17.9284 10.5068C17.8356 8.71636 17.199 7.17062 16.0319 5.80521C15.1035 4.72319 13.8568 4.02761 12.5306 3.52524C9.87804 2.50762 6.52261 3.06151 4.51996 5.07098C2.31836 7.29943 2.199 10.5068 3.47221 13.199C4.02924 14.3841 5.02393 15.4275 6.17778 16.0973C6.70828 16.4064 7.34488 16.6641 7.95496 16.78C8.41915 16.8702 8.90987 16.9474 9.38733 16.9346C10.4881 16.9346 11.2839 16.4064 12.0664 15.7495C14.8515 13.4051 15.2892 9.01263 12.8223 6.32046C10.2361 3.48659 4.79847 3.76997 2.9417 7.26078C1.82764 9.36041 2.35815 11.6919 3.83029 13.4695C5.1035 15.0024 7.45098 15.801 9.40058 15.1312C10.2229 14.8478 10.9258 14.397 11.3767 13.6499C11.7879 12.9543 11.9735 11.9367 11.7083 11.1638C11.191 9.59229 9.38732 8.31705 7.6234 8.90958C7.50403 8.94823 7.39793 8.97399 7.27857 8.99975L8.1539 8.88381C7.99475 8.89669 7.84886 8.90958 7.70297 8.88381L8.57831 8.99975C8.39263 8.97399 8.20695 8.92246 8.03454 8.85806L8.8303 9.18009C8.65789 9.1028 8.48547 8.99974 8.33958 8.88381L9.01597 9.38618C8.8303 9.2316 8.67114 9.07703 8.51199 8.88381L9.02923 9.54076C8.88334 9.34754 8.76398 9.14144 8.67114 8.92246L9.00271 9.69533C8.9364 9.51499 8.88334 9.32178 8.84355 9.12856L8.96292 9.97871C8.9364 9.7855 8.93639 9.60517 8.94966 9.41195L8.8303 10.2621C8.85682 10.0689 8.90987 9.88855 8.98944 9.70821L8.65788 10.4811C8.72419 10.3394 8.81703 10.2106 8.90987 10.0818L8.39263 10.7387C8.52526 10.597 8.65788 10.4682 8.80377 10.3523L8.12737 10.8546C8.28652 10.7516 8.44568 10.6614 8.63136 10.5841L7.8356 10.9062C8.06107 10.816 8.27326 10.7645 8.51199 10.7258L7.63666 10.8418C7.95497 10.8031 8.27327 10.8031 8.59157 10.8418L7.71623 10.7258C7.99475 10.7774 8.26 10.8418 8.52526 10.9448L7.7295 10.6228C7.95497 10.7129 8.15391 10.8289 8.35284 10.9706L7.67645 10.4682C7.86213 10.6099 8.03454 10.7774 8.18042 10.9577L7.66318 10.3007C7.79581 10.4682 7.90191 10.6485 7.99475 10.8418L7.66318 10.0689C7.78255 10.3523 7.86212 10.6485 7.90191 10.9577L7.78255 10.1075C7.80908 10.4167 7.80907 10.7258 7.75602 11.035L7.87539 10.1848C7.82234 10.494 7.7295 10.7902 7.61013 11.0865L7.9417 10.3136C7.79581 10.6485 7.61013 10.9577 7.38467 11.254L7.90191 10.597C7.68971 10.8418 7.47751 11.0607 7.21226 11.2668L7.88865 10.7645C7.80907 10.816 7.74276 10.8675 7.66318 10.919L9.33427 10.4811C9.18839 10.4811 9.04249 10.4811 8.89661 10.4553L9.77194 10.5712C9.51995 10.5326 9.29449 10.4682 9.05576 10.378L9.85151 10.7001C9.58626 10.5841 9.3608 10.4424 9.13533 10.275L9.81173 10.7774C9.58626 10.597 9.38732 10.4038 9.21491 10.1848L9.73215 10.8418C9.48016 10.5326 9.28122 10.1977 9.12207 9.82415L9.45363 10.597C9.29448 10.2235 9.18838 9.84991 9.13533 9.45059L9.2547 10.3007C9.21491 9.94007 9.20165 9.5794 9.2547 9.23161L9.13533 10.0818C9.17512 9.75974 9.2547 9.46347 9.37406 9.15432L9.0425 9.92719C9.16186 9.66956 9.29449 9.42482 9.48016 9.19296L8.96292 9.8499C9.13534 9.6438 9.32101 9.46347 9.53322 9.29601L8.85682 9.79838C9.10881 9.60516 9.37406 9.46347 9.66584 9.33465L8.87009 9.65668C9.20165 9.52787 9.53321 9.4377 9.8913 9.38618L9.01597 9.50212C9.45364 9.45059 9.8913 9.45059 10.329 9.50212L9.45363 9.38618C9.94435 9.45059 10.4085 9.5794 10.8595 9.77262L10.0637 9.45059C10.4749 9.63093 10.8595 9.8499 11.2176 10.1204L10.5412 9.61804C10.8197 9.83702 11.0849 10.0818 11.3104 10.3652L10.7932 9.70821C11.0186 9.9916 11.2043 10.2879 11.3502 10.6099L11.0186 9.83702C11.1778 10.1977 11.2839 10.5713 11.3369 10.9706L11.2176 10.1204C11.2706 10.5584 11.2706 10.9963 11.2176 11.4343L11.3369 10.5841C11.2574 11.0736 11.1247 11.5373 10.939 12.0011L11.2706 11.2282C11.0451 11.7306 10.7666 12.1943 10.4218 12.6194L10.939 11.9624C10.6207 12.3489 10.2627 12.7095 9.85151 13.0187L10.5279 12.5163C10.1168 12.8255 9.6791 13.0702 9.21491 13.2763L10.0107 12.9543C9.87804 13.0058 9.74541 13.0573 9.61279 13.096L12.1725 13.418C11.5889 13.1089 11.0186 12.7482 10.4881 12.3489L11.1645 12.8512C10.3157 12.2072 9.54648 11.4601 8.87009 10.6357L9.38733 11.2926C8.69767 10.4167 8.11411 9.46346 7.67645 8.45873L8.00801 9.23161C7.63666 8.35569 7.35814 7.44112 7.18573 6.50079C7.0531 5.75368 6.3104 4.94217 5.66053 4.5815C4.94435 4.18218 3.8966 4.00184 3.10085 4.25947C2.30509 4.51709 1.5226 4.99369 1.12472 5.7408C0.687057 6.55231 0.634006 7.32518 0.793159 8.22687L0.832944 8.18823Z" fill="#D9D9D9"/>
<path d="M37.332 12.452C37.6371 13.3022 38.0084 14.1395 38.5654 14.8737C39.3081 15.8398 40.0376 16.5611 41.0455 17.2696C41.7617 17.7848 42.6105 18.1455 43.4593 18.416C44.3081 18.6865 45.3028 18.8153 46.218 18.7252C47.3188 18.6221 48.3665 18.4031 49.3214 17.8235C50.2233 17.2825 50.8731 16.6127 51.47 15.7754C51.9076 15.17 52.2127 14.4486 52.4116 13.7402C52.6105 13.0317 52.7299 12.2717 52.6769 11.5375C52.5575 9.50223 51.6954 7.77615 49.9845 6.59108C48.4063 5.49618 46.0853 5.56058 44.2816 6.06295C42.3453 6.60396 40.6609 7.75039 39.5601 9.39919C38.9235 10.3395 38.6185 11.4473 38.5389 12.568C38.4593 13.6886 38.8174 14.6934 39.2816 15.6595C39.6397 16.3937 40.1967 17.1021 40.8333 17.6303C41.6424 18.3001 42.5973 18.9184 43.6583 19.1245C44.1623 19.2275 44.6928 19.3177 45.21 19.2791C46.0986 19.2147 46.7485 19.0343 47.5575 18.6736C48.6583 18.1842 49.5999 17.2052 50.1967 16.2005C52.0668 13.0961 50.9527 8.92258 48.141 6.71989C47.2524 6.02431 46.4567 5.56058 45.3824 5.18703C45.1039 5.08398 44.8254 5.01958 44.5336 4.98093C43.9898 4.90365 43.4196 4.8006 42.8625 4.85212C41.0721 4.99382 39.2816 5.66363 38.088 7.02904C37.1066 8.13682 36.3771 9.45071 36.1649 10.9192C36.0455 11.692 35.9527 12.4005 36.0455 13.1734C36.1782 14.2554 36.3904 15.054 36.8413 16.0459C37.4249 17.3211 38.5787 18.5062 39.8652 19.1245C41.9739 20.1292 44.3214 19.5625 46.019 18.1069C48.3135 16.1489 49.1092 12.2846 47.3983 9.74697C46.8811 8.9741 46.1782 8.2914 45.3294 7.86632C44.5336 7.47988 43.6583 7.29955 42.7697 7.54429C42.0005 7.75039 41.1649 8.33004 40.7936 9.02563C39.9978 10.4941 40.3294 12.6195 41.9872 13.431C42.1331 13.5083 42.2657 13.5856 42.3983 13.6757L41.7219 13.1734C41.8811 13.3022 42.027 13.431 42.1463 13.5985L41.6291 12.9415C41.7485 13.0961 41.8413 13.2635 41.9209 13.4439L41.5893 12.671C41.6822 12.9029 41.7485 13.1347 41.775 13.3795L41.6556 12.5293C41.6954 12.8385 41.6822 13.1347 41.6556 13.4439L41.775 12.5937C41.7219 12.9544 41.6158 13.3151 41.47 13.65L41.8015 12.8771C41.6556 13.1863 41.4832 13.4825 41.271 13.7402L41.7883 13.0832C41.6291 13.2764 41.4434 13.4568 41.2445 13.6113L41.9209 13.109C41.7352 13.2378 41.5495 13.3537 41.3506 13.4439L42.1463 13.1219C41.9607 13.1991 41.775 13.2507 41.5761 13.2764L42.4514 13.1605C42.2392 13.1863 42.0402 13.1863 41.828 13.1605L42.7034 13.2764C42.6238 13.2764 42.5442 13.2507 42.4646 13.2378L43.2604 13.5598C43.0217 13.4568 42.7962 13.328 42.5973 13.1734L43.2737 13.6757C43.0217 13.4954 42.8095 13.2764 42.6105 13.0446L43.1278 13.7015C42.9023 13.4181 42.7166 13.109 42.5707 12.7869L42.9023 13.5598C42.7432 13.1734 42.6238 12.7741 42.5575 12.349L42.6768 13.1991C42.6105 12.7225 42.6105 12.2331 42.6768 11.7564L42.5575 12.6066C42.6238 12.1558 42.7432 11.7178 42.9156 11.3056L42.584 12.0785C42.7432 11.7178 42.9288 11.3829 43.1676 11.0737L42.6503 11.7307C42.8625 11.4731 43.088 11.2412 43.3665 11.0351L42.6901 11.5375C42.9421 11.3571 43.2074 11.2026 43.4991 11.0866L42.7034 11.4086C42.9819 11.3056 43.2604 11.2283 43.5389 11.1897L42.6636 11.3056C42.9951 11.267 43.3135 11.267 43.645 11.3056L42.7697 11.1897C43.1278 11.2412 43.4726 11.3314 43.8042 11.4602L43.0084 11.1381C43.4063 11.3056 43.7776 11.5246 44.1225 11.7822L43.4461 11.2798C43.7909 11.5503 44.0959 11.8466 44.3745 12.1815L43.8572 11.5246C44.149 11.8853 44.3877 12.2846 44.5867 12.7097L44.2551 11.9368C44.4275 12.3232 44.5336 12.7225 44.5999 13.1476L44.4806 12.2975C44.5204 12.6195 44.5204 12.9286 44.4806 13.2507L44.5999 12.4005C44.5601 12.7225 44.4673 13.0317 44.3479 13.328L44.6795 12.5551C44.5469 12.8385 44.3877 13.0961 44.202 13.3537L44.7193 12.6968C44.5469 12.9029 44.3745 13.0832 44.1623 13.2635L44.8387 12.7612C44.6397 12.9158 44.4408 13.0317 44.202 13.1347L44.9978 12.8127C44.8121 12.89 44.6265 12.9286 44.4275 12.9673L45.3028 12.8513C45.1039 12.8771 44.9182 12.8771 44.7326 12.8513L45.6079 12.9673C45.3426 12.9286 45.1039 12.8642 44.8652 12.7612L45.6609 13.0832C45.4089 12.9802 45.1835 12.8385 44.9713 12.6839L45.6477 13.1863C45.3957 12.993 45.1835 12.7869 44.9845 12.5551L45.5018 13.212C45.2896 12.9415 45.1172 12.6581 44.9713 12.3361L45.3028 13.109C45.1967 12.8513 45.1304 12.6066 45.0774 12.3361L45.1967 13.1863C45.157 12.9158 45.157 12.6581 45.1967 12.3876L45.0774 13.2378C45.1172 12.9673 45.21 12.6968 45.3161 12.4392L44.9845 13.212C45.1172 12.9286 45.2763 12.671 45.4753 12.4134L44.958 13.0703C45.1835 12.7998 45.4355 12.5551 45.714 12.349L45.0376 12.8513C45.3824 12.5937 45.767 12.3876 46.1649 12.2073L45.3692 12.5293C45.8466 12.3361 46.3506 12.1944 46.8678 12.13L45.9925 12.2459C46.5097 12.1815 47.027 12.1815 47.5442 12.2459L46.6689 12.13C46.7352 12.13 46.8015 12.1429 46.8546 12.1815L46.0588 11.8595C46.271 11.9497 46.4567 12.0527 46.6424 12.1815L45.966 11.6792C46.1384 11.808 46.2843 11.9625 46.4169 12.13L45.8997 11.4731C46.0456 11.6663 46.1649 11.8724 46.2578 12.0914L45.9262 11.3185C46.0323 11.5761 46.0986 11.8337 46.1384 12.1042L46.019 11.2541C46.0721 11.6148 46.0721 11.9754 46.019 12.3361L46.1384 11.4859C46.0853 11.8853 45.9792 12.2717 45.8068 12.6324L46.1384 11.8595C46.0058 12.1429 45.8466 12.4134 45.6609 12.671L46.1782 12.0141C46.0058 12.233 45.8068 12.4391 45.5681 12.6066L46.2445 12.1042C46.0323 12.2588 45.8201 12.3876 45.5681 12.4907L46.3639 12.1686C46.0588 12.2846 45.7538 12.3619 45.4222 12.4134L46.2975 12.2975C45.9262 12.349 45.5548 12.349 45.1835 12.2975L46.0588 12.4134C45.6079 12.349 45.1835 12.233 44.7591 12.0656L45.5548 12.3876C45.0906 12.1944 44.6662 11.9497 44.2684 11.6534L44.9448 12.1558C44.5071 11.8209 44.1225 11.4473 43.7909 11.0351L44.3081 11.692C44.0031 11.2927 43.7379 10.8805 43.5389 10.4168L43.8705 11.1897C43.8042 11.048 43.7511 10.9063 43.7113 10.7646C43.4328 9.96595 42.9554 9.27037 42.1861 8.84529C41.47 8.44598 40.4222 8.26564 39.6264 8.52326C38.8307 8.78089 38.0482 9.25749 37.6503 10.0046C37.2524 10.7517 37.027 11.6663 37.3188 12.4907L37.332 12.452Z" fill="#D9D9D9"/>
<path d="M70.0107 5.16119C70.5014 7.94353 71.9205 10.494 73.7905 12.6194C74.7454 13.7014 75.8993 14.6289 77.1062 15.4017C78.1804 16.0973 79.4006 16.6641 80.7269 16.2261C81.4696 15.9814 82.2255 15.6594 82.8754 15.2085C85.4086 13.4696 87.2786 10.5842 87.1062 7.47981C87.0133 5.68932 86.3767 4.14358 85.2096 2.77817C84.2812 1.69615 83.0345 1.00056 81.7083 0.498192C79.0558 -0.519423 75.7003 0.0344744 73.6977 2.04394C71.4961 4.27239 71.3767 7.4798 72.6499 10.172C73.207 11.357 74.2017 12.4004 75.3555 13.0702C75.886 13.3794 76.5226 13.637 77.1327 13.7529C77.5969 13.8431 78.0876 13.9204 78.5651 13.9075C79.6658 13.9075 80.4616 13.3794 81.2441 12.7225C84.0292 10.3781 84.4669 5.98559 82.0001 3.29342C79.4139 0.459556 73.9762 0.742936 72.1194 4.23374C71.0054 6.33338 71.5359 8.66487 73.008 10.4425C74.2812 11.9753 76.6287 12.774 78.5783 12.1042C79.4006 11.8208 80.1035 11.3699 80.5544 10.6228C80.9656 9.92723 81.1513 8.90962 80.886 8.13674C80.3688 6.56524 78.5651 5.29 76.8011 5.88253C76.6818 5.92118 76.5757 5.94694 76.4563 5.9727L77.3316 5.85678C77.1725 5.86966 77.0266 5.88254 76.8807 5.85678L77.756 5.9727C77.5704 5.94694 77.3847 5.89541 77.2123 5.83101L78.008 6.15304C77.8356 6.07575 77.6632 5.97271 77.5173 5.85678L78.1937 6.35914C78.008 6.20457 77.8489 6.04999 77.6897 5.85678L78.207 6.51372C78.0611 6.3205 77.9417 6.1144 77.8489 5.89542L78.1804 6.66829C78.1141 6.48795 78.0611 6.29474 78.0213 6.10152L78.1406 6.95168C78.1141 6.75846 78.1141 6.57812 78.1274 6.3849L78.008 7.23506C78.0345 7.04185 78.0876 6.86151 78.1672 6.68117L77.8356 7.45404C77.9019 7.31235 77.9948 7.18354 78.0876 7.05473L77.5704 7.71167C77.703 7.56998 77.8356 7.44116 77.9815 7.32523L77.3051 7.8276C77.4643 7.72455 77.6234 7.63438 77.8091 7.55709L77.0133 7.87912C77.2388 7.78896 77.451 7.73743 77.6897 7.69879L76.8144 7.81471C77.1327 7.77607 77.451 7.77607 77.7693 7.81471L76.894 7.69879C77.1725 7.75031 77.4377 7.81472 77.703 7.91777L76.9072 7.59574C77.1327 7.6859 77.3316 7.80184 77.5306 7.94353L76.8542 7.44116C77.0399 7.58285 77.2123 7.75031 77.3582 7.93065L76.8409 7.27371C76.9735 7.44116 77.0796 7.6215 77.1725 7.81471L76.8409 7.04184C76.9603 7.32523 77.0399 7.6215 77.0796 7.93065L76.9603 7.08049C76.9868 7.38964 76.9868 7.69879 76.9337 8.00793L77.0531 7.15778C77.0001 7.46693 76.9072 7.76319 76.7879 8.05946L77.1194 7.28659C76.9735 7.6215 76.7879 7.93065 76.5624 8.22691L77.0796 7.56998C76.8674 7.81472 76.6552 8.0337 76.39 8.2398L77.0664 7.73743C76.9868 7.78895 76.9205 7.84048 76.8409 7.89201L78.512 7.45404C78.3661 7.45404 78.2202 7.45405 78.0743 7.42828L78.9497 7.54421C78.6977 7.50557 78.4722 7.44116 78.2335 7.35099L79.0292 7.67302C78.764 7.55709 78.5385 7.4154 78.3131 7.24795L78.9895 7.75031C78.764 7.56998 78.5651 7.37676 78.3926 7.15778L78.9099 7.81471C78.6579 7.50557 78.459 7.17065 78.2998 6.7971L78.6314 7.56998C78.4722 7.19642 78.3661 6.82287 78.3131 6.42355L78.4324 7.27371C78.3926 6.91303 78.3794 6.55236 78.4324 6.20456L78.3131 7.05473C78.3528 6.7327 78.4324 6.43643 78.5518 6.12728L78.2202 6.90015C78.3396 6.64253 78.4722 6.39778 78.6579 6.16592L78.1406 6.82287C78.3131 6.61677 78.4987 6.43643 78.7109 6.26897L78.0345 6.77134C78.2865 6.57812 78.5518 6.43643 78.8436 6.30762L78.0478 6.62965C78.3794 6.50083 78.7109 6.41067 79.069 6.35914L78.1937 6.47507C78.6314 6.42354 79.069 6.42354 79.5067 6.47507L78.6314 6.35914C79.1221 6.42355 79.5863 6.55236 80.0372 6.74558L79.2414 6.42355C79.6526 6.60389 80.0372 6.82286 80.3953 7.09337L79.7189 6.591C79.9974 6.80998 80.2627 7.05473 80.4881 7.33812L79.9709 6.68117C80.1964 6.96456 80.382 7.26082 80.5279 7.58285L80.1964 6.80998C80.3555 7.17066 80.4616 7.54422 80.5147 7.94353L80.3953 7.09337C80.4483 7.53133 80.4483 7.96929 80.3953 8.40725L80.5147 7.55709C80.4351 8.04658 80.3025 8.5103 80.1168 8.97402L80.4483 8.20115C80.2229 8.70352 79.9444 9.16725 79.5995 9.59233L80.1168 8.93538C79.7985 9.32182 79.4404 9.68249 79.0292 9.99164L79.7056 9.48927C79.2945 9.79842 78.8568 10.0432 78.3926 10.2493L79.1884 9.92723C79.0558 9.97876 78.9231 10.0303 78.7905 10.0689L81.3502 10.391C80.7666 10.0818 80.1964 9.72114 79.6658 9.32182L80.3422 9.82419C79.4934 9.18013 78.7242 8.43302 78.0478 7.60862L78.5651 8.26556C77.8754 7.38964 77.2918 6.43643 76.8542 5.43169L77.1857 6.20456C76.8144 5.32864 76.5359 4.41408 76.3635 3.47376C76.2308 2.72665 75.4881 1.91512 74.8383 1.55445C74.1221 1.15513 73.0743 0.974795 72.2786 1.23242C71.4828 1.49004 70.7003 1.96665 70.3025 2.71376C69.8648 3.52527 69.8117 4.29815 69.9709 5.19983L70.0107 5.16119Z" fill="#D9D9D9"/>
<path d="M106.509 9.42481C106.814 10.275 107.185 11.1123 107.742 11.8465C108.485 12.8126 109.214 13.5339 110.222 14.2424C110.938 14.7576 111.787 15.1183 112.636 15.3888C113.485 15.6593 114.48 15.7881 115.395 15.698C116.496 15.5949 117.543 15.3759 118.498 14.7963C119.4 14.2553 120.05 13.5854 120.647 12.7482C121.084 12.1427 121.389 11.4214 121.588 10.7129C121.787 10.0045 121.907 9.24448 121.854 8.51025C121.734 6.47502 120.872 4.74894 119.161 3.56387C117.583 2.46897 115.262 2.53337 113.458 3.03574C111.522 3.57675 109.838 4.72318 108.737 6.37197C108.1 7.3123 107.795 8.42008 107.716 9.54075C107.636 10.6614 107.994 11.6661 108.458 12.6322C108.816 13.3665 109.374 14.0749 110.01 14.6031C110.819 15.2729 111.774 15.8912 112.835 16.0973C113.339 16.2003 113.87 16.2905 114.387 16.2519C115.275 16.1874 115.925 16.0071 116.734 15.6464C117.835 15.1569 118.777 14.178 119.374 13.1732C121.244 10.0689 120.129 5.89537 117.318 3.69268C116.429 2.99709 115.633 2.53337 114.559 2.15981C114.281 2.05676 114.002 1.99236 113.71 1.95372C113.167 1.87643 112.596 1.77338 112.039 1.82491C110.249 1.9666 108.458 2.63642 107.265 4.00183C106.283 5.10961 105.554 6.4235 105.342 7.89195C105.222 8.66483 105.129 9.37329 105.222 10.1462C105.355 11.2282 105.567 12.0268 106.018 13.0187C106.602 14.2939 107.755 15.479 109.042 16.0973C111.151 17.102 113.498 16.5352 115.196 15.0797C117.49 13.1217 118.286 9.25736 116.575 6.71976C116.058 5.94689 115.355 5.26419 114.506 4.83911C113.71 4.45267 112.835 4.27233 111.946 4.51708C111.177 4.72318 110.342 5.30283 109.97 5.99842C109.175 7.46687 109.506 9.59227 111.164 10.4038C111.31 10.4811 111.442 10.5584 111.575 10.6485L110.899 10.1462C111.058 10.275 111.204 10.4038 111.323 10.5712L110.806 9.9143C110.925 10.0689 111.018 10.2363 111.098 10.4167L110.766 9.6438C110.859 9.87566 110.925 10.1075 110.952 10.3523L110.832 9.50211C110.872 9.81125 110.859 10.1075 110.832 10.4167L110.952 9.56651C110.899 9.92718 110.793 10.2879 110.647 10.6228L110.978 9.84989C110.832 10.159 110.66 10.4553 110.448 10.7129L110.965 10.056C110.806 10.2492 110.62 10.4295 110.421 10.5841L111.098 10.0818C110.912 10.2106 110.726 10.3265 110.527 10.4167L111.323 10.0946C111.137 10.1719 110.952 10.2234 110.753 10.2492L111.628 10.1333C111.416 10.159 111.217 10.159 111.005 10.1333L111.88 10.2492C111.801 10.2492 111.721 10.2234 111.641 10.2106L112.437 10.5326C112.198 10.4295 111.973 10.3007 111.774 10.1462L112.45 10.6485C112.198 10.4682 111.986 10.2492 111.787 10.0173L112.305 10.6743C112.079 10.3909 111.893 10.0818 111.748 9.75973L112.079 10.5326C111.92 10.1462 111.801 9.74685 111.734 9.32177L111.854 10.1719C111.787 9.69532 111.787 9.20583 111.854 8.72923L111.734 9.57939C111.801 9.12855 111.92 8.69058 112.092 8.27839L111.761 9.05126C111.92 8.69058 112.106 8.35567 112.344 8.04652L111.827 8.70347C112.039 8.44584 112.265 8.21398 112.543 8.00788L111.867 8.51025C112.119 8.32991 112.384 8.17534 112.676 8.05941L111.88 8.38144C112.159 8.27839 112.437 8.2011 112.716 8.16246L111.84 8.27839C112.172 8.23974 112.49 8.23974 112.822 8.27839L111.946 8.16246C112.305 8.21398 112.649 8.30415 112.981 8.43296L112.185 8.11093C112.583 8.27839 112.954 8.49737 113.299 8.75499L112.623 8.25263C112.968 8.52313 113.273 8.8194 113.551 9.15431L113.034 8.49737C113.326 8.85805 113.564 9.25736 113.763 9.68244L113.432 8.90957C113.604 9.29601 113.71 9.69532 113.777 10.1204L113.657 9.27024C113.697 9.59227 113.697 9.90142 113.657 10.2234L113.777 9.37329C113.737 9.69532 113.644 10.0045 113.525 10.3007L113.856 9.52786C113.724 9.81125 113.564 10.0689 113.379 10.3265L113.896 9.66956C113.724 9.87566 113.551 10.056 113.339 10.2363L114.015 9.73397C113.816 9.88854 113.618 10.0045 113.379 10.1075L114.175 9.78549C113.989 9.86278 113.803 9.90142 113.604 9.94006L114.48 9.82414C114.281 9.8499 114.095 9.8499 113.909 9.82414L114.785 9.94006C114.519 9.90142 114.281 9.83702 114.042 9.73397L114.838 10.056C114.586 9.95295 114.36 9.81125 114.148 9.65667L114.824 10.159C114.572 9.96582 114.36 9.75973 114.161 9.52786L114.679 10.1848C114.466 9.9143 114.294 9.63092 114.148 9.30889L114.48 10.0818C114.374 9.82413 114.307 9.57939 114.254 9.30889L114.374 10.159C114.334 9.88853 114.334 9.63092 114.374 9.36041L114.254 10.2106C114.294 9.94006 114.387 9.66956 114.493 9.41194L114.161 10.1848C114.294 9.90142 114.453 9.64379 114.652 9.38617L114.135 10.0431C114.36 9.77261 114.612 9.52787 114.891 9.32177L114.214 9.82414C114.559 9.56651 114.944 9.36041 115.342 9.18008L114.546 9.50211C115.023 9.30889 115.527 9.16719 116.045 9.10278L115.169 9.21872C115.686 9.15431 116.204 9.15431 116.721 9.21872L115.846 9.10278C115.912 9.10278 115.978 9.11566 116.031 9.15431L115.236 8.83228C115.448 8.92245 115.633 9.0255 115.819 9.15431L115.143 8.65194C115.315 8.78075 115.461 8.93533 115.594 9.10278L115.076 8.44585C115.222 8.63907 115.342 8.84516 115.435 9.06414L115.103 8.29127C115.209 8.54889 115.275 8.80652 115.315 9.07702L115.196 8.22686C115.249 8.58753 115.249 8.94821 115.196 9.30889L115.315 8.45872C115.262 8.85804 115.156 9.24447 114.984 9.60515L115.315 8.83228C115.183 9.11566 115.023 9.38618 114.838 9.6438L115.355 8.98686C115.183 9.20584 114.984 9.41193 114.745 9.57939L115.421 9.07702C115.209 9.2316 114.997 9.36041 114.745 9.46346L115.541 9.14143C115.236 9.25736 114.931 9.33465 114.599 9.38617L115.474 9.27024C115.103 9.32177 114.732 9.32177 114.36 9.27024L115.236 9.38617C114.785 9.32176 114.36 9.20584 113.936 9.03838L114.732 9.36041C114.267 9.16719 113.843 8.92245 113.445 8.62618L114.122 9.12855C113.684 8.79364 113.299 8.42008 112.968 8.00788L113.485 8.66483C113.18 8.26551 112.915 7.85331 112.716 7.38959L113.047 8.16246C112.981 8.02077 112.928 7.87907 112.888 7.73738C112.61 6.93874 112.132 6.24316 111.363 5.81808C110.647 5.41876 109.599 5.23843 108.803 5.49605C108.007 5.75367 107.225 6.23028 106.827 6.97739C106.429 7.7245 106.204 8.63907 106.496 9.46346L106.509 9.42481Z" fill="#D9D9D9"/>
<path d="M107.477 43.8177C108.446 46.7932 111.337 48.6353 114.507 48.6868C115.886 48.7125 117.411 48.339 118.552 47.579C119.281 47.0895 120.024 46.4712 120.462 45.7112C121.231 44.4231 120.833 43.1607 120.302 41.9113C119.162 39.232 117.265 36.2307 114.096 35.6124C110.647 34.9297 107.172 37.0679 106.576 40.4943C106.098 43.238 106.695 45.9688 107.862 48.4807C108.658 50.181 110.024 51.6366 111.854 52.2935C114.215 53.1437 116.682 51.8427 117.849 49.8332C119.772 46.5227 119.958 42.2204 117.332 39.232C114.997 36.5785 110.196 35.8185 107.597 38.5493C106.151 40.0693 105.674 42.0272 106.019 44.0367C106.324 45.84 107.809 47.5919 109.666 48.0685C111.96 48.661 114.467 46.8319 115.382 44.8739C116.297 42.916 116.403 40.752 115.183 38.9486C114.228 37.5445 112.212 36.8103 110.647 37.7893C109.202 38.691 108.432 40.6876 109.454 42.1947C109.546 42.3363 109.626 42.4652 109.692 42.6197L109.361 41.8469C109.454 42.0787 109.52 42.2977 109.546 42.5424L109.427 41.6923C109.454 41.937 109.454 42.1689 109.427 42.4136L109.546 41.5635C109.507 41.8469 109.427 42.1174 109.321 42.3879L109.653 41.615C109.533 41.8855 109.387 42.1174 109.215 42.3492L109.732 41.6923C109.573 41.8855 109.401 42.053 109.202 42.2075L109.878 41.7052C109.706 41.8211 109.533 41.9241 109.347 42.0143L110.143 41.6923C109.984 41.7567 109.838 41.8082 109.666 41.8469L111.43 41.8469L111.324 41.8082L112.119 42.1302C111.987 42.0658 111.867 42.0014 111.735 41.9113L112.411 42.4136C112.265 42.3106 112.146 42.1818 112.04 42.053L112.557 42.7099C112.451 42.5682 112.358 42.4265 112.292 42.2591L112.623 43.0319C112.531 42.8001 112.464 42.5682 112.424 42.3106L112.544 43.1607C112.517 42.9031 112.517 42.6455 112.544 42.3879L112.424 43.238C112.464 42.9418 112.544 42.6584 112.663 42.3879L112.332 43.1607C112.424 42.9546 112.544 42.7743 112.676 42.594L112.159 43.2509C112.279 43.1092 112.411 42.9804 112.544 42.8645L111.867 43.3668C112.066 43.2123 112.279 43.1092 112.504 43.0062L111.708 43.3282C111.934 43.2509 112.146 43.1994 112.371 43.1607L111.496 43.2767C111.775 43.2509 112.04 43.238 112.318 43.2767L111.443 43.1607C111.814 43.2123 112.172 43.3024 112.517 43.4441L111.722 43.1221C112.08 43.2767 112.398 43.4699 112.703 43.6889L112.027 43.1865C112.292 43.3926 112.517 43.6245 112.729 43.8821L112.212 43.2251C112.424 43.4957 112.597 43.779 112.743 44.0882L112.411 43.3153C112.597 43.7533 112.716 44.1912 112.783 44.655L112.663 43.8048C112.716 44.3329 112.716 44.8482 112.65 45.3763L112.769 44.5262C112.663 45.2346 112.464 45.9173 112.186 46.5743L112.517 45.8014C112.332 46.2007 112.146 46.5871 111.881 46.9478L112.398 46.2909C112.265 46.4583 112.133 46.6 111.96 46.7288L112.637 46.2265C112.557 46.2909 112.464 46.3424 112.371 46.381L113.167 46.059C113.034 46.1105 112.915 46.1492 112.769 46.1878L113.645 46.0719C113.512 46.0848 113.393 46.0977 113.26 46.0719L114.135 46.1878C113.963 46.1621 113.804 46.1234 113.631 46.059L114.427 46.381C114.255 46.3038 114.109 46.2136 113.95 46.0977L114.626 46.6C114.347 46.381 114.109 46.1363 113.883 45.8658L114.401 46.5227C114.056 46.0719 113.777 45.5824 113.552 45.0672L113.883 45.84C113.459 44.8353 113.154 43.7919 112.995 42.7099L113.114 43.5601C113.021 42.8902 112.995 42.2204 113.074 41.5506L112.955 42.4008C113.008 41.9886 113.114 41.5892 113.286 41.1899L112.955 41.9628C113.061 41.7309 113.194 41.5248 113.34 41.3187L112.822 41.9757C112.955 41.8082 113.114 41.6665 113.286 41.5248L112.61 42.0272C112.822 41.8726 113.048 41.7438 113.3 41.6408L112.504 41.9628C112.756 41.8726 112.995 41.8082 113.26 41.7696L112.385 41.8855C112.637 41.8597 112.875 41.8597 113.127 41.8855L112.252 41.7696C112.491 41.8082 112.729 41.8726 112.955 41.9499L112.159 41.6279C112.477 41.7567 112.756 41.9241 113.021 42.1174L112.345 41.615C112.743 41.9241 113.088 42.2719 113.393 42.6455L112.875 41.9886C113.446 42.7099 113.897 43.5085 114.268 44.3458L113.936 43.5729C114.122 43.998 114.294 44.436 114.44 44.8868L114.772 42.4008L114.706 42.4909L115.223 41.834C115.05 42.0401 114.865 42.2204 114.653 42.3879L115.329 41.8855C115.09 42.0658 114.825 42.2075 114.546 42.3235L115.342 42.0014C115.024 42.1302 114.692 42.2075 114.361 42.2591L115.236 42.1431C114.812 42.1947 114.387 42.1947 113.963 42.1431L114.838 42.2591C114.454 42.2075 114.082 42.1045 113.724 41.9628L114.52 42.2848C114.162 42.1431 113.844 41.9499 113.525 41.7309L114.202 42.2333C113.963 42.053 113.751 41.8469 113.565 41.615L114.082 42.2719C113.923 42.0658 113.79 41.8469 113.684 41.6021L114.016 42.375C113.976 42.2719 113.936 42.1689 113.897 42.053C113.379 40.4557 111.562 39.2577 109.812 39.7987C108.154 40.314 106.934 42.0401 107.491 43.7662L107.477 43.8177Z" fill="#D9D9D9"/>
</svg>
