<svg width="45" height="89" viewBox="0 0 45 89" fill="none" xmlns="http://www.w3.org/2000/svg">
<g id="&#208;&#162;&#208;&#190;&#209;&#135;&#208;&#181;&#209;&#135;&#208;&#186;&#208;&#184;" clip-path="url(#clip0_26_542)">
<g id="&#208;&#162;&#208;&#190;&#209;&#135;&#208;&#181;&#209;&#135;&#208;&#186;&#208;&#184;_2">
<path id="Vector" d="M30.809 88.9717C31.3607 89.0378 31.9318 88.9717 32.4641 88.8583C32.9965 88.745 33.5192 88.5373 33.9838 88.2823C34.9517 87.7819 35.7454 86.9792 36.3455 86.0916C36.9456 85.2039 37.2553 84.1369 37.3231 83.0698C37.3521 82.541 37.2844 81.9744 37.1392 81.4645C36.9456 80.7657 36.5681 80.1897 36.0745 79.6515C35.4066 78.9243 34.3709 78.3767 33.3933 78.1689C32.3673 77.9517 31.2155 77.9328 30.2186 78.3106C29.0667 78.7449 28.0214 79.4626 27.4406 80.5674C27.2083 81.0112 26.9954 81.5023 26.918 82.0028C26.8599 82.3427 26.8018 82.6921 26.8018 83.0415C26.8018 83.3909 26.8599 83.7591 26.918 84.118C27.0632 85.1284 27.5858 86.0443 28.2634 86.8092C29.0183 87.6685 30.1314 88.1879 31.2639 88.339C32.3964 88.4901 33.6159 88.2634 34.671 87.7063C35.5808 87.2247 36.4713 86.3937 36.9165 85.4778C37.2747 84.7412 37.5554 83.9575 37.4392 83.1359C37.3037 82.1538 36.5971 81.4834 35.8131 80.9451C35.0291 80.4069 34.0225 80.1803 33.1126 80.1897C31.1671 80.2086 29.3281 81.1907 28.2537 82.7676C28.002 83.1454 27.8084 83.5892 27.6923 84.0236C27.5761 84.4579 27.5084 84.949 27.5471 85.4022C27.5858 85.8555 27.6342 86.3087 27.8956 86.7054C28.1569 87.102 28.457 87.3475 28.8344 87.6119C29.1151 87.8007 29.4539 87.9329 29.7733 88.0368C30.0927 88.1407 30.4412 88.1785 30.7703 88.2068C30.9251 88.2257 31.0703 88.2162 31.2155 88.2068C31.9511 88.1218 32.5125 87.9896 33.1804 87.6402C33.6063 87.4136 34.0225 87.102 34.3516 86.7526C35.1356 85.931 35.7163 84.8168 35.6679 83.6647C35.6389 82.9848 35.4744 82.371 35.1259 81.7761C34.8258 81.2662 34.2645 80.8507 33.6837 80.6902C33.103 80.5296 32.3286 80.6052 31.8156 80.9263C30.7122 81.625 30.2766 83.0132 30.9445 84.1558C30.9832 84.2219 31.0219 84.2974 31.051 84.3635L30.809 83.7969C30.8574 83.9197 30.8864 84.0424 30.9058 84.1746L30.8187 83.5514C30.8283 83.6836 30.8283 83.8064 30.8187 83.9291L30.9058 83.3059C30.8767 83.4759 30.838 83.6269 30.7703 83.7875L31.0123 83.2209C30.9348 83.4003 30.8283 83.5608 30.7122 83.7119L31.0897 83.2303C30.9542 83.4003 30.7993 83.5514 30.6251 83.6836L31.1187 83.3153C30.9445 83.4475 30.7606 83.5514 30.5573 83.6458L31.1381 83.4098C30.9542 83.4853 30.78 83.5325 30.5864 83.5703L31.2252 83.4853C31.0703 83.5042 30.9251 83.5042 30.78 83.4853L31.4188 83.5703C31.2833 83.5514 31.1671 83.5231 31.0413 83.4759L31.622 83.7119C31.4962 83.6553 31.3801 83.5892 31.2639 83.5136L31.7575 83.8819L31.7092 83.8441L32.3286 84.8829L32.3286 84.8262L32.4061 85.4494C32.3867 85.27 32.377 85.0906 32.4061 84.9017L32.3189 85.525C32.348 85.3361 32.3964 85.1473 32.4738 84.9679L32.2318 85.5344C32.3189 85.3361 32.4254 85.1567 32.5609 84.9867L32.1834 85.4683C32.348 85.27 32.5319 85.0906 32.7351 84.9395L32.2415 85.3078C32.4835 85.1284 32.7448 84.9773 33.0255 84.864L32.4448 85.1001C32.7448 84.9773 33.0546 84.8923 33.374 84.8545L32.7351 84.9395C32.9965 84.9112 33.2481 84.9017 33.5095 84.9395L32.8707 84.8545C33.103 84.8829 33.3256 84.9395 33.5482 85.034L32.9674 84.7979C33.132 84.8734 33.2869 84.9584 33.432 85.0623L32.9384 84.694C33.0836 84.8073 33.2191 84.9395 33.3353 85.0812L32.9578 84.5996L32.9965 84.6468L32.6674 83.457C32.6674 83.457 32.6674 83.5514 32.648 83.5892L32.7351 82.9659C32.7061 83.1642 32.648 83.3625 32.5706 83.5514L32.8126 82.9848C32.7158 83.2115 32.59 83.4192 32.4351 83.6175L32.8126 83.1359C32.6384 83.3531 32.4448 83.542 32.2221 83.7119L32.7158 83.3437C32.4738 83.5231 32.2125 83.6742 31.9318 83.7875L32.5125 83.5514C32.2512 83.6553 31.9898 83.7214 31.7092 83.7591L32.348 83.6742C32.0963 83.7025 31.8447 83.7025 31.593 83.6742L32.2318 83.7591C31.9995 83.7214 31.7866 83.6647 31.564 83.5797L32.1447 83.8158C31.9608 83.7403 31.7963 83.6364 31.6414 83.5231L32.135 83.8913C31.9415 83.7497 31.7769 83.5892 31.6317 83.4098L32.0092 83.8913C31.835 83.6742 31.6995 83.4381 31.5833 83.1831L31.8253 83.7497C31.7092 83.4664 31.6317 83.1831 31.593 82.8904L31.6801 83.5136C31.6511 83.2398 31.6511 82.9659 31.6801 82.6826L31.593 83.3059C31.6317 83.0509 31.6995 82.8148 31.7963 82.5788L31.5543 83.1454C31.6414 82.9471 31.7479 82.7676 31.8834 82.5977L31.5059 83.0793C31.6414 82.9093 31.7963 82.7582 31.9705 82.626L31.4769 82.9943C31.6511 82.8715 31.8447 82.7582 32.0382 82.6732L31.4575 82.9093C31.7188 82.8054 31.9995 82.7299 32.2802 82.6921L31.6414 82.7771C31.9318 82.7488 32.2125 82.7488 32.5028 82.7771L31.864 82.6921C32.1544 82.7299 32.4254 82.8054 32.6964 82.9093L32.1157 82.6732C32.3577 82.7771 32.59 82.8998 32.7932 83.0509L32.2996 82.6826C32.4738 82.8148 32.6287 82.9659 32.7642 83.1265L32.3867 82.6449C32.4641 82.7487 32.5416 82.8526 32.6093 82.9659L32.3673 82.3994C32.4641 82.6354 32.5222 82.8809 32.5609 83.1265L32.4738 82.5032C32.5028 82.7771 32.5028 83.0415 32.4738 83.3153L32.5609 82.6921C32.5125 83.0132 32.4254 83.3153 32.2996 83.6081L32.5416 83.0415C32.3867 83.3814 32.2028 83.7025 31.9705 83.9952L32.348 83.5136C32.1254 83.7875 31.8737 84.033 31.593 84.2407L32.0866 83.8725C31.8253 84.0613 31.5446 84.2313 31.2446 84.3541L31.8253 84.118C31.564 84.2219 31.3026 84.2974 31.0219 84.3352L31.6608 84.2502C31.3801 84.288 31.0994 84.288 30.8187 84.2502C30.2476 84.1746 29.4926 84.5618 29.1055 84.9395C28.6892 85.3456 28.3698 86.0255 28.3989 86.6109C28.4279 87.1964 28.6312 87.8574 29.1055 88.2823L29.5991 88.6506C29.9766 88.8678 30.3831 88.9717 30.8187 88.9717L30.809 88.9717Z" fill="#D9D9D9"/>
<path id="Vector_2" d="M35.2127 61.7288C37.4486 61.0395 38.8327 58.9809 38.8714 56.724C38.8908 55.742 38.6101 54.656 38.039 53.8439C37.6712 53.3246 37.2066 52.7958 36.6355 52.4841C35.6676 51.9364 34.7191 52.2197 33.7802 52.5974C31.7669 53.4095 29.5117 54.7599 29.0471 57.0168C28.5341 59.4719 30.1408 61.946 32.7155 62.3709C34.7771 62.7109 36.8291 62.2859 38.7166 61.455C39.9942 60.8884 41.088 59.9158 41.5816 58.6126C42.2204 56.9318 41.2428 55.1754 39.7329 54.3444C37.2453 52.9752 34.0125 52.843 31.7669 54.7127C29.773 56.3746 29.2019 59.793 31.2539 61.6438C32.3961 62.6731 33.8673 63.013 35.3772 62.7675C36.7323 62.5503 38.0487 61.4927 38.4068 60.1707C38.8521 58.5371 37.4776 56.7524 36.0064 56.1008C34.5352 55.4492 32.9091 55.3737 31.554 56.2424C30.4989 56.9223 29.9472 58.3577 30.6828 59.4719C31.3604 60.5012 32.8607 61.0489 33.9931 60.3218C34.0996 60.2557 34.1964 60.199 34.3125 60.1518L33.7318 60.3879C33.906 60.3218 34.0706 60.2746 34.2545 60.2557L33.6156 60.3407C33.7995 60.3218 33.9738 60.3218 34.1577 60.3407L33.5188 60.2557C33.7318 60.284 33.935 60.3407 34.1383 60.4162L33.5576 60.1802C33.7608 60.2651 33.935 60.369 34.1093 60.4918L33.6156 60.1235C33.7608 60.2368 33.8867 60.3596 34.0028 60.5012L33.6253 60.0196C33.7124 60.1424 33.7899 60.2651 33.8576 60.3973L33.6156 59.8308C33.664 59.9441 33.7027 60.048 33.7318 60.1707L33.7318 58.9148L33.7027 58.9903L33.9447 58.4238C33.8963 58.5182 33.8479 58.6032 33.7802 58.6976L34.1577 58.216C34.0802 58.3199 33.9834 58.4049 33.8867 58.4804L34.3803 58.1121C34.2738 58.1877 34.1674 58.2538 34.0415 58.301L34.6223 58.0649C34.448 58.131 34.2738 58.1782 34.0802 58.2066L34.7191 58.1216C34.5255 58.1405 34.3319 58.1405 34.1383 58.1216L34.7771 58.2066C34.5545 58.1782 34.3416 58.1216 34.1383 58.0366L34.7191 58.2727C34.5642 58.2066 34.4287 58.1216 34.2932 58.0272L34.7868 58.3954C34.6803 58.3104 34.5836 58.216 34.4964 58.1216L34.8739 58.6032C34.7578 58.4615 34.6803 58.3104 34.6029 58.1499L34.8449 58.7165C34.7868 58.556 34.7481 58.4049 34.7191 58.2443L34.8062 58.8676C34.7868 58.6693 34.7771 58.4804 34.8062 58.2821L34.7191 58.9054C34.7578 58.641 34.8255 58.386 34.932 58.1405L34.69 58.707C34.8062 58.4521 34.9514 58.2255 35.1159 58.0083L34.7384 58.4899C34.8933 58.301 35.0675 58.1405 35.2611 57.9894L34.7675 58.3577C34.9707 58.2066 35.1837 58.0838 35.416 57.9799L34.8352 58.216C35.1643 58.0838 35.4934 57.9988 35.8418 57.9516L35.203 58.0366C35.5999 57.9988 35.987 57.9988 36.3839 58.046L35.7451 57.9611C36.2774 58.0366 36.7904 58.1782 37.284 58.3765L36.7033 58.1405C37.0033 58.2727 37.2937 58.4049 37.5647 58.5937L37.0711 58.2255C37.1969 58.3199 37.3034 58.4143 37.4002 58.5371L37.0227 58.0555C37.0711 58.1121 37.1098 58.1782 37.1389 58.2443L36.8969 57.6778C36.9356 57.7722 36.9646 57.8572 36.9937 57.9611L36.9066 57.3378C36.9162 57.4323 36.9259 57.5172 36.9066 57.6117L36.9937 56.9884C36.9743 57.1112 36.9453 57.2245 36.8969 57.3473L37.1389 56.7807C37.0808 56.9034 37.013 57.0073 36.9259 57.1206L37.3034 56.639C37.1389 56.8373 36.955 57.0073 36.7517 57.1678L37.2453 56.7996C36.9066 57.0451 36.5387 57.2434 36.1516 57.4039L36.7323 57.1678C35.9774 57.47 35.1933 57.6872 34.3803 57.8005L35.0191 57.7155C34.5158 57.7816 34.0125 57.8005 33.5092 57.7439L34.148 57.8289C33.8383 57.7911 33.5382 57.7155 33.2381 57.5928L33.8189 57.8289C33.6447 57.7533 33.4898 57.6589 33.3349 57.555L33.8286 57.9233C33.7027 57.8289 33.5963 57.7155 33.4898 57.5928L33.8673 58.0744C33.7511 57.9233 33.6544 57.7628 33.5769 57.5833L33.8189 58.1499C33.7511 57.9705 33.7027 57.8005 33.6737 57.6117L33.7608 58.2349C33.7415 58.0555 33.7415 57.8855 33.7608 57.7061L33.6737 58.3293C33.7027 58.1594 33.7511 57.9894 33.8092 57.8289L33.5672 58.3954C33.664 58.1688 33.7899 57.9705 33.935 57.7816L33.5576 58.2632C33.7899 57.9799 34.0512 57.7344 34.3319 57.5172L33.8383 57.8855C34.3803 57.4795 34.9804 57.1584 35.6095 56.894L35.0288 57.1301C35.3482 56.9979 35.6773 56.8751 36.0161 56.7712L34.148 56.5352L34.2157 56.5824L33.7221 56.2141C33.877 56.3369 34.0125 56.4691 34.1383 56.6202L33.7608 56.1386C33.8963 56.3085 34.0028 56.4974 34.0899 56.6957L33.8479 56.1291C33.9447 56.3557 34.0028 56.5918 34.0415 56.8279L33.9544 56.2047C33.9931 56.5068 33.9931 56.809 33.9544 57.1112L34.0415 56.488C34.0028 56.7618 33.9254 57.0262 33.8189 57.2812L34.0609 56.7146C33.9544 56.9695 33.8092 57.1962 33.6447 57.4228L34.0222 56.9412C33.8867 57.1112 33.7318 57.2623 33.5576 57.3945L34.0512 57.0262C33.8963 57.1395 33.7318 57.2339 33.5479 57.3095L34.1286 57.0734C34.0512 57.1017 33.9738 57.1301 33.8867 57.1584C32.6864 57.5267 31.7863 58.8204 32.1928 60.0668C32.58 61.2472 33.877 62.116 35.174 61.7194L35.2127 61.7288Z" fill="#D9D9D9"/>
<path id="Vector_3" d="M28.5434 39.7172C29.0951 39.7833 29.6661 39.7172 30.1985 39.6039C30.7309 39.4906 31.2535 39.2828 31.7181 39.0279C32.686 38.5274 33.4797 37.7247 34.0798 36.8371C34.68 35.9494 34.9897 34.8824 35.0574 33.8153C35.0865 33.2865 35.0187 32.72 34.8735 32.21C34.68 31.5113 34.3025 30.9352 33.8088 30.397C33.141 29.6699 32.1053 29.1222 31.1277 28.9144C30.1017 28.6972 28.9499 28.6784 27.9529 29.0561C26.8011 29.4905 25.7558 30.2081 25.175 31.3129C24.9427 31.7568 24.7298 32.2478 24.6523 32.7483C24.5943 33.0882 24.5362 33.4376 24.5362 33.787C24.5362 34.1364 24.5943 34.5047 24.6523 34.8635C24.7975 35.8739 25.3202 36.7899 25.9977 37.5548C26.7527 38.4141 27.8658 38.9334 28.9983 39.0845C30.1307 39.2356 31.3503 39.009 32.4054 38.4518C33.3152 37.9702 34.2057 37.1393 34.6509 36.2233C35.0091 35.4867 35.2897 34.703 35.1736 33.8814C35.0381 32.8994 34.3315 32.2289 33.5475 31.6907C32.7635 31.1524 31.7568 30.9258 30.847 30.9352C28.9015 30.9541 27.0625 31.9362 25.9881 33.5132C25.7364 33.8909 25.5428 34.3347 25.4267 34.7691C25.3105 35.2035 25.2428 35.6945 25.2815 36.1478C25.3202 36.601 25.3686 37.0543 25.6299 37.4509C25.8913 37.8475 26.1913 38.093 26.5688 38.3574C26.8495 38.5463 27.1883 38.6785 27.5077 38.7823C27.8271 38.8862 28.1756 38.924 28.5046 38.9523C28.6595 38.9712 28.8047 38.9618 28.9499 38.9523C29.6855 38.8673 30.2469 38.7351 30.9148 38.3857C31.3406 38.1591 31.7569 37.8475 32.0859 37.4981C32.87 36.6766 33.4507 35.5623 33.4023 34.4102C33.3733 33.7303 33.2087 33.1166 32.8603 32.5216C32.5602 32.0117 31.9988 31.5962 31.4181 31.4357C30.8373 31.2752 30.063 31.3507 29.55 31.6718C28.4466 32.3706 28.011 33.7587 28.6789 34.9013C28.7176 34.9674 28.7563 35.0429 28.7853 35.109L28.5434 34.5424C28.5918 34.6652 28.6208 34.788 28.6402 34.9202L28.553 34.2969C28.5627 34.4291 28.5627 34.5519 28.553 34.6746L28.6402 34.0514C28.6111 34.2214 28.5724 34.3725 28.5046 34.533L28.7466 33.9664C28.6692 34.1458 28.5627 34.3064 28.4466 34.4575L28.8241 33.9759C28.6886 34.1458 28.5337 34.2969 28.3595 34.4291L28.8531 34.0609C28.6789 34.1931 28.495 34.2969 28.2917 34.3914L28.8725 34.1553C28.6886 34.2308 28.5143 34.278 28.3207 34.3158L28.9596 34.2308C28.8047 34.2497 28.6595 34.2497 28.5143 34.2308L29.1532 34.3158C29.0176 34.2969 28.9015 34.2686 28.7757 34.2214L29.3564 34.4575C29.2306 34.4008 29.1144 34.3347 28.9983 34.2592L29.4919 34.6274L29.4435 34.5897L30.063 35.6284L30.063 35.5717L30.1404 36.195C30.1211 36.0156 30.1114 35.8361 30.1404 35.6473L30.0533 36.2705C30.0824 36.0817 30.1307 35.8928 30.2082 35.7134L29.9662 36.28C30.0533 36.0816 30.1598 35.9022 30.2953 35.7323L29.9178 36.2139C30.0824 36.0155 30.2663 35.8361 30.4695 35.685L29.9759 36.0533C30.2179 35.8739 30.4792 35.7228 30.7599 35.6095L30.1791 35.8456C30.4792 35.7228 30.7889 35.6378 31.1083 35.6001L30.4695 35.685C30.7309 35.6567 30.9825 35.6473 31.2439 35.685L30.605 35.6001C30.8373 35.6284 31.0599 35.685 31.2826 35.7795L30.7018 35.5434C30.8664 35.6189 31.0212 35.7039 31.1664 35.8078L30.6728 35.4395C30.818 35.5528 30.9535 35.685 31.0696 35.8267L30.6921 35.3451L30.7309 35.3923L30.4018 34.2025C30.4018 34.2025 30.4018 34.2969 30.3824 34.3347L30.4695 33.7115C30.4405 33.9098 30.3824 34.1081 30.305 34.2969L30.547 33.7304C30.4502 33.957 30.3243 34.1647 30.1695 34.363L30.547 33.8814C30.3727 34.0986 30.1791 34.2875 29.9565 34.4575L30.4502 34.0892C30.2082 34.2686 29.9468 34.4197 29.6661 34.533L30.2469 34.2969C29.9856 34.4008 29.7242 34.4669 29.4435 34.5047L30.0824 34.4197C29.8307 34.448 29.579 34.448 29.3274 34.4197L29.9662 34.5047C29.7339 34.4669 29.521 34.4102 29.2983 34.3253L29.8791 34.5613C29.6952 34.4858 29.5306 34.3819 29.3758 34.2686L29.8694 34.6369C29.6758 34.4952 29.5113 34.3347 29.3661 34.1553L29.7436 34.6369C29.5694 34.4197 29.4338 34.1836 29.3177 33.9287L29.5597 34.4952C29.4435 34.2119 29.3661 33.9287 29.3274 33.6359L29.4145 34.2592C29.3855 33.9853 29.3855 33.7115 29.4145 33.4282L29.3274 34.0514C29.3661 33.7965 29.4338 33.5604 29.5306 33.3243L29.2887 33.8909C29.3758 33.6926 29.4822 33.5132 29.6178 33.3432L29.2403 33.8248C29.3758 33.6548 29.5306 33.5037 29.7049 33.3715L29.2112 33.7398C29.3855 33.617 29.579 33.5037 29.7726 33.4187L29.1919 33.6548C29.4532 33.5509 29.7339 33.4754 30.0146 33.4376L29.3758 33.5226C29.6661 33.4943 29.9468 33.4943 30.2372 33.5226L29.5984 33.4376C29.8888 33.4754 30.1598 33.5509 30.4308 33.6548L29.8501 33.4187C30.092 33.5226 30.3243 33.6454 30.5276 33.7965L30.034 33.4282C30.2082 33.5604 30.3631 33.7115 30.4986 33.872L30.1211 33.3904C30.1985 33.4943 30.2759 33.5982 30.3437 33.7115L30.1017 33.1449C30.1985 33.381 30.2566 33.6265 30.2953 33.872L30.2082 33.2488C30.2372 33.5226 30.2372 33.787 30.2082 34.0609L30.2953 33.4376C30.2469 33.7587 30.1598 34.0609 30.034 34.3536L30.2759 33.787C30.1211 34.127 29.9372 34.448 29.7049 34.7408L30.0824 34.2592C29.8597 34.533 29.6081 34.7785 29.3274 34.9863L29.821 34.618C29.5597 34.8068 29.279 34.9768 28.9789 35.0996L29.5597 34.8635C29.2983 34.9674 29.037 35.0429 28.7563 35.0807L29.3951 34.9957C29.1144 35.0335 28.8337 35.0335 28.553 34.9957C27.982 34.9202 27.227 35.3073 26.8398 35.685C26.4236 36.0911 26.1042 36.771 26.1333 37.3565C26.1623 37.9419 26.3655 38.6029 26.8398 39.0279L27.3335 39.3961C27.711 39.6133 28.1175 39.7172 28.553 39.7172L28.5434 39.7172Z" fill="#D9D9D9"/>
<path id="Vector_4" d="M6.16568 88.4051C8.25638 88.0557 10.1729 87.0453 11.7699 85.7138C12.583 85.0339 13.2799 84.2124 13.8606 83.3531C14.3833 82.5882 14.8092 81.7194 14.4801 80.7751C14.2962 80.2463 14.0542 79.7081 13.7154 79.2454C12.4087 77.4418 10.2406 76.1103 7.90793 76.2331C6.56253 76.2992 5.40102 76.7524 4.37503 77.5834C3.56198 78.2444 3.03931 79.1321 2.66182 80.0764C1.89717 81.965 2.31337 84.354 3.82332 85.7799C5.49782 87.3475 7.90793 87.4324 9.93088 86.5259C10.8214 86.1293 11.6054 85.4211 12.1087 84.5995C12.341 84.2218 12.5346 83.7686 12.6217 83.3342C12.6894 83.0037 12.7475 82.6543 12.7378 82.3144C12.7378 81.5306 12.341 80.964 11.8474 80.4069C10.0857 78.4239 6.78515 78.1122 4.7622 79.8686C2.63278 81.71 2.84572 85.5816 5.46878 86.9036C7.04648 87.6968 8.79841 87.3191 10.1341 86.271C11.286 85.3644 11.8861 83.693 11.3828 82.3049C11.1698 81.7194 10.831 81.219 10.2697 80.8979C9.74698 80.6052 8.98232 80.473 8.40157 80.6618C7.22071 81.0301 6.26247 82.3144 6.70772 83.5703C6.73675 83.6553 6.75611 83.7308 6.77547 83.8158L6.68835 83.1925C6.69803 83.3059 6.70771 83.4097 6.68835 83.5136L6.77547 82.8904C6.75611 83.0226 6.7174 83.1548 6.669 83.2775L6.91098 82.711C6.8529 82.8337 6.77547 82.9565 6.68835 83.0603L7.06584 82.5788C6.94969 82.711 6.83354 82.8243 6.68835 82.9376L7.18199 82.5693C7.03681 82.6732 6.88194 82.7582 6.71739 82.8243L7.29814 82.5882C7.16263 82.6354 7.01745 82.6732 6.87226 82.7015L7.51108 82.6165C7.36589 82.6354 7.23039 82.6354 7.0852 82.626L7.72403 82.711C7.57884 82.6921 7.44333 82.6543 7.30782 82.5976L7.88857 82.8337C7.7821 82.7865 7.68531 82.7204 7.58852 82.6543L8.08216 83.0226C7.97569 82.9281 7.87889 82.8337 7.79178 82.7298L8.16927 83.2114C8.09183 83.0981 8.02408 82.9848 7.966 82.8526L8.20798 83.4192C8.14023 83.2586 8.10151 83.1076 8.07248 82.9376L8.15959 83.5608C8.13055 83.3342 8.13055 83.1076 8.15959 82.8809L8.07248 83.5042C8.11119 83.3059 8.15959 83.117 8.23702 82.9281L7.99504 83.4947C8.0628 83.3342 8.14991 83.1925 8.25638 83.0509L7.8789 83.5325C7.98537 83.4003 8.11119 83.2775 8.2467 83.1737L7.75306 83.5419C7.87889 83.4475 8.0144 83.372 8.15959 83.3059L7.57884 83.5419C7.79178 83.457 8.0144 83.4003 8.2467 83.372L7.60788 83.4569C7.84018 83.4381 8.07247 83.4381 8.30477 83.4758L7.66595 83.3908C7.89825 83.4286 8.12087 83.4947 8.34349 83.5797L7.76274 83.3436C8.0144 83.4475 8.2467 83.5797 8.46933 83.7402L7.97569 83.372C8.15959 83.5231 8.32413 83.6741 8.479 83.863L8.10151 83.3814C8.14023 83.4381 8.17895 83.4853 8.21767 83.5419L7.88857 82.3521C7.88857 82.456 7.88857 82.5599 7.86921 82.6637L7.95632 82.0405C7.92729 82.2199 7.8789 82.3805 7.81114 82.5504L8.05312 81.9838C7.96601 82.1727 7.85954 82.3332 7.73371 82.4938L8.11119 82.0122C7.97569 82.1727 7.8305 82.3144 7.66595 82.4371L8.15959 82.0688C7.92729 82.2483 7.67563 82.3899 7.39494 82.5032L7.97569 82.2671C7.69499 82.3805 7.41429 82.456 7.11424 82.4938L7.75306 82.4088C7.48204 82.4371 7.21103 82.4466 6.9497 82.4088L7.58852 82.4938C7.34654 82.4654 7.12392 82.4088 6.89162 82.3238L7.47236 82.5599C7.27878 82.4749 7.09488 82.3805 6.92065 82.2483L7.41429 82.6165C7.25943 82.4938 7.12392 82.3616 6.99809 82.2105L7.37557 82.6921C7.23039 82.5127 7.12392 82.3238 7.02712 82.116L7.2691 82.6826C7.17231 82.4466 7.10456 82.2105 7.06584 81.9555L7.15296 82.5788C7.11424 82.2671 7.11424 81.9555 7.15296 81.6439L7.06584 82.2671C7.11424 81.9178 7.21103 81.5872 7.35622 81.2662L7.11424 81.8328C7.24975 81.54 7.41429 81.2662 7.61755 81.0112L7.24007 81.4928C7.40461 81.2945 7.58852 81.1057 7.80146 80.9451L7.30782 81.3134C7.52076 81.1529 7.74339 81.0207 7.98537 80.9168L7.40461 81.1529C7.67563 81.0396 7.95633 80.964 8.25638 80.9262L7.61755 81.0112C7.94665 80.9735 8.27574 80.9735 8.60483 81.0112L7.966 80.9262C8.33381 80.9829 8.68226 81.0773 9.03071 81.2095L8.44996 80.9735C8.82745 81.134 9.1759 81.3323 9.49532 81.5778L9.00168 81.2095C9.29205 81.4362 9.56307 81.6911 9.79537 81.9838L9.41788 81.5023C9.65018 81.795 9.83409 82.1066 9.98896 82.4371L9.74698 81.8705C9.78569 81.965 9.82441 82.0594 9.85345 82.1538L10.0954 80.3313C9.86313 80.7468 9.59211 81.1529 9.29205 81.5306L9.66954 81.049C9.18558 81.6533 8.62419 82.201 8.00472 82.6826L8.49836 82.3144C7.84018 82.8054 7.12391 83.2209 6.36894 83.5325L6.9497 83.2964C6.29151 83.5608 5.60429 83.7591 4.89771 83.8819C4.33632 83.9763 3.72653 84.5051 3.45551 84.9678C3.15546 85.4778 3.01995 86.2237 3.21353 86.7903C3.40712 87.3569 3.76524 87.914 4.32663 88.1973C4.93642 88.5089 5.51717 88.5467 6.19471 88.4334L6.16568 88.4051Z" fill="#D9D9D9"/>
<path id="Vector_5" d="M9.36905 62.418C10.0079 62.2009 10.637 61.9365 11.1887 61.5398C11.9147 61.011 12.4567 60.4917 12.9891 59.774C13.3762 59.2641 13.6472 58.6597 13.8505 58.0554C14.0538 57.451 14.1506 56.7428 14.0828 56.0913C14.0054 55.3075 13.8408 54.5615 13.4053 53.8816C12.9987 53.2395 12.4954 52.7768 11.8663 52.3518C11.4113 52.0402 10.8693 51.823 10.337 51.6814C9.80461 51.5397 9.23353 51.4548 8.68182 51.4925C7.15251 51.5775 5.85551 52.1913 4.96502 53.4094C4.14229 54.5332 4.19069 56.1857 4.56817 57.4699C4.9747 58.8486 5.83615 60.0479 7.07508 60.8316C7.78166 61.2849 8.61407 61.5021 9.45616 61.5587C10.2982 61.6154 11.0532 61.3604 11.7792 61.0299C12.3309 60.775 12.8632 60.3784 13.2601 59.9251C13.7634 59.3491 14.228 58.6692 14.3829 57.9137C14.4603 57.5549 14.528 57.1772 14.499 56.8089C14.4506 56.1762 14.3151 55.7135 14.0441 55.1375C13.6763 54.3537 12.9407 53.6833 12.1857 53.2584C9.853 51.9269 6.71695 52.7201 5.06181 54.722C4.53914 55.3547 4.19069 55.9213 3.90999 56.6862C3.83256 56.8845 3.78416 57.0828 3.75513 57.2905C3.69705 57.6777 3.61962 58.0837 3.65834 58.4803C3.76481 59.7551 4.26812 61.0299 5.29411 61.8798C6.12652 62.5786 7.1138 63.0979 8.21723 63.249C8.79798 63.334 9.33033 63.4001 9.91108 63.334C10.7241 63.2396 11.3242 63.0885 12.0695 62.7674C13.0278 62.3519 13.9183 61.5304 14.3829 60.6144C15.1378 59.113 14.712 57.4416 13.6182 56.2329C12.147 54.5993 9.24321 54.0327 7.33642 55.2508C6.75567 55.6191 6.24267 56.1196 5.92326 56.7239C5.63288 57.2905 5.49737 57.9137 5.68128 58.5464C5.83615 59.0941 6.27171 59.689 6.79439 59.9534C7.89781 60.52 9.49487 60.2839 10.1047 59.1036C10.1627 58.9997 10.2208 58.9053 10.2886 58.8108L9.91108 59.2924C10.0079 59.1791 10.1047 59.0752 10.2305 58.9902L9.73686 59.3585C9.85301 59.2735 9.97883 59.2074 10.1143 59.1508L9.53359 59.3869C9.70782 59.3207 9.88204 59.2735 10.0659 59.2546L9.42712 59.3396C9.65942 59.3113 9.88204 59.3208 10.1143 59.3396L9.47551 59.2546C9.74653 59.2924 10.0176 59.368 10.2692 59.4718L9.68846 59.2358C9.92076 59.3396 10.1434 59.4624 10.337 59.6135L9.84333 59.2452C9.98851 59.3585 10.124 59.4907 10.2402 59.6324L9.86268 59.1508C9.95947 59.283 10.0466 59.4152 10.1143 59.5568L9.87236 58.9902C9.93044 59.1224 9.96916 59.2547 9.98852 59.3963L9.9014 58.7731C9.92076 58.9241 9.92076 59.0658 9.9014 59.2169L9.98852 58.5936C9.98852 58.6503 9.96915 58.707 9.95947 58.7636L10.2015 58.197C10.124 58.367 10.0272 58.5275 9.91108 58.6692L10.2886 58.1876C10.1531 58.367 9.98852 58.5181 9.81429 58.6597L10.3079 58.2915C10.095 58.452 9.86268 58.5842 9.6207 58.6881L10.2015 58.452C9.91108 58.5653 9.61103 58.6503 9.29161 58.6975L9.93044 58.6125C9.57231 58.6597 9.2045 58.6597 8.84637 58.6125L9.48519 58.6975C9.14642 58.6503 8.81733 58.5653 8.5076 58.4426L9.08835 58.6786C8.81734 58.5653 8.56568 58.4331 8.33338 58.2631L8.82701 58.6314C8.63343 58.4803 8.4592 58.3198 8.30433 58.1215L8.68182 58.6031C8.54631 58.4237 8.43016 58.2348 8.34305 58.0271L8.58503 58.5936C8.5076 58.3953 8.44952 58.197 8.42049 57.9987L8.5076 58.622C8.47856 58.3859 8.47856 58.1593 8.5076 57.9232L8.42049 58.5464C8.4592 58.2915 8.52696 58.0459 8.62375 57.8099L8.38177 58.3765C8.5076 58.0932 8.67214 57.8288 8.86573 57.5832L8.48824 58.0648C8.6915 57.8193 8.91412 57.6021 9.16578 57.4038L8.67215 57.7721C8.94316 57.5644 9.24322 57.3944 9.56263 57.2527L8.98188 57.4888C9.27226 57.3661 9.57231 57.2905 9.89172 57.2433L9.2529 57.3283C9.49488 57.3 9.72717 57.3 9.96915 57.3283L9.33033 57.2433C9.57231 57.2716 9.80461 57.3377 10.0272 57.4227L9.44648 57.1866C9.65942 57.2811 9.853 57.3944 10.0466 57.5266L9.55295 57.1583C9.70782 57.2811 9.84333 57.4038 9.97883 57.5549L9.60135 57.0733C9.7175 57.215 9.80461 57.3566 9.88204 57.5266L9.64006 56.96C9.69814 57.0922 9.72717 57.2244 9.75621 57.3661L9.6691 56.7428C9.68846 56.8845 9.68846 57.0167 9.6691 57.1489L9.75621 56.5256C9.72717 56.7145 9.67878 56.8845 9.60135 57.0544L9.84333 56.4879C9.76589 56.6673 9.65942 56.8278 9.54327 56.9789L9.92076 56.4973C9.77557 56.6767 9.6207 56.8278 9.44648 56.9695L9.94012 56.6012C9.73685 56.7523 9.52391 56.875 9.28193 56.9789L9.86268 56.7428C9.6691 56.8184 9.4852 56.8656 9.28193 56.9033L9.92076 56.8184C9.7175 56.8467 9.52391 56.8467 9.32065 56.8184L9.95947 56.9033C9.75621 56.875 9.55295 56.8089 9.35937 56.7334L9.94012 56.9695C9.72718 56.875 9.53359 56.7617 9.34001 56.6201L9.83365 56.9883C9.63038 56.8278 9.44648 56.6484 9.29161 56.4501L9.6691 56.9317C9.47552 56.6862 9.32065 56.4123 9.18514 56.129L9.42712 56.6956C9.28193 56.3557 9.17547 55.9968 9.12707 55.6285L9.21418 56.2518C9.16578 55.8835 9.16578 55.5152 9.21418 55.147L9.12707 55.7702C9.12707 55.723 9.13674 55.6758 9.16578 55.638L8.9238 56.2046C8.99156 56.0535 9.06899 55.9213 9.16578 55.7891L8.78829 56.2707C8.88508 56.1479 9.00124 56.044 9.12707 55.9496L8.63343 56.3179C8.77862 56.214 8.93348 56.129 9.09803 56.0629L8.51728 56.299C8.71086 56.2235 8.90444 56.1762 9.10771 56.1479L8.46889 56.2329C8.7399 56.1951 9.01092 56.1951 9.28193 56.2329L8.64311 56.1479C8.94317 56.1857 9.23354 56.2612 9.50456 56.384L8.9238 56.1479C9.13674 56.2423 9.34001 56.3557 9.53359 56.4879L9.03995 56.1196C9.2045 56.2423 9.35937 56.384 9.48519 56.554L9.10771 56.0724C9.22386 56.2235 9.32065 56.3745 9.39809 56.554L9.15611 55.9874C9.24322 56.2046 9.30129 56.4218 9.34001 56.6578L9.2529 56.0346C9.29161 56.299 9.29161 56.5634 9.2529 56.8278L9.34001 56.2046C9.29161 56.5256 9.2045 56.8278 9.07867 57.13L9.32065 56.5634C9.17546 56.8939 8.99156 57.1961 8.76894 57.4794L9.14643 56.9978C8.89477 57.3094 8.61407 57.5832 8.30433 57.8193L8.79797 57.451C8.49792 57.6682 8.18819 57.8571 7.83974 57.9987L8.42049 57.7627C8.31402 57.8099 8.20754 57.8476 8.10107 57.876C7.50096 58.0743 6.97829 58.4142 6.65888 58.9619C6.35882 59.4718 6.22331 60.2178 6.4169 60.7844C6.61048 61.351 6.96861 61.9081 7.53 62.1914C8.0914 62.4747 8.77862 62.6352 9.39809 62.4275L9.36905 62.418Z" fill="#D9D9D9"/>
<path id="Vector_6" d="M3.89126 39.1506C5.98197 38.8012 7.89844 37.7908 9.49551 36.4594C10.3086 35.7795 11.0055 34.9579 11.5862 34.0986C12.1089 33.3337 12.5348 32.465 12.2057 31.5207C12.0218 30.9919 11.7798 30.4536 11.441 29.9909C10.1343 28.1873 7.9662 26.8559 5.63352 26.9786C4.28811 27.0447 3.12661 27.498 2.10062 28.329C1.28757 28.99 0.764889 29.8776 0.387401 30.8219C-0.377254 32.7105 0.0389553 35.0996 1.54891 36.5255C3.2234 38.093 5.63351 38.178 7.65646 37.2715C8.54695 36.8748 9.33096 36.1666 9.83428 35.3451C10.0666 34.9674 10.2602 34.5141 10.3473 34.0797C10.415 33.7492 10.4731 33.3998 10.4634 33.0599C10.4634 32.2761 10.0666 31.7095 9.57294 31.1524C7.81133 29.1694 4.51073 28.8578 2.48779 30.6142C0.358369 32.4555 0.571307 36.3272 3.19436 37.6492C4.77207 38.4424 6.524 38.0647 7.85972 37.0165C9.01155 36.11 9.61165 34.4386 9.10834 33.0504C8.8954 32.465 8.55662 31.9645 7.99523 31.6434C7.47256 31.3507 6.7079 31.2185 6.12715 31.4074C4.94629 31.7756 3.98805 33.0599 4.4333 34.3158C4.46233 34.4008 4.48169 34.4763 4.50105 34.5613L4.41394 33.9381C4.42362 34.0514 4.4333 34.1553 4.41394 34.2591L4.50105 33.6359C4.48169 33.7681 4.44297 33.9003 4.39458 34.0231L4.63656 33.4565C4.57848 33.5792 4.50105 33.702 4.41394 33.8059L4.79143 33.3243C4.67528 33.4565 4.55913 33.5698 4.41394 33.6831L4.90758 33.3148C4.76239 33.4187 4.60752 33.5037 4.44298 33.5698L5.02373 33.3337C4.88822 33.3809 4.74303 33.4187 4.59785 33.447L5.23667 33.3621C5.09148 33.3809 4.95597 33.3809 4.81078 33.3715L5.44961 33.4565C5.30442 33.4376 5.16892 33.3998 5.03341 33.3432L5.61416 33.5793C5.50768 33.532 5.4109 33.4659 5.3141 33.3998L5.80774 33.7681C5.70127 33.6737 5.60448 33.5792 5.51737 33.4754L5.89485 33.957C5.81742 33.8437 5.74967 33.7303 5.69159 33.5981L5.93357 34.1647C5.86582 34.0042 5.8271 33.8531 5.79806 33.6831L5.88517 34.3064C5.85613 34.0797 5.85613 33.8531 5.88517 33.6265L5.79806 34.2497C5.83678 34.0514 5.88517 33.8625 5.96261 33.6737L5.72063 34.2403C5.78838 34.0797 5.8755 33.9381 5.98197 33.7964L5.60447 34.278C5.71095 34.1458 5.83678 34.0231 5.97229 33.9192L5.47865 34.2875C5.60448 34.193 5.73998 34.1175 5.88517 34.0514L5.30442 34.2875C5.51736 34.2025 5.73999 34.1458 5.97229 34.1175L5.33346 34.2025C5.56576 34.1836 5.79806 34.1836 6.03036 34.2214L5.39154 34.1364C5.62384 34.1742 5.84646 34.2403 6.06908 34.3252L5.48833 34.0892C5.73999 34.193 5.97228 34.3252 6.1949 34.4858L5.70127 34.1175C5.88518 34.2686 6.04972 34.4197 6.20459 34.6085L5.8271 34.1269C5.86582 34.1836 5.90453 34.2308 5.94325 34.2875L5.61416 33.0977C5.61416 33.2015 5.61416 33.3054 5.5948 33.4093L5.68191 32.786C5.65287 32.9655 5.60447 33.126 5.53672 33.296L5.7787 32.7294C5.69159 32.9182 5.58512 33.0788 5.45929 33.2393L5.83678 32.7577C5.70127 32.9182 5.55608 33.0599 5.39154 33.1826L5.88517 32.8144C5.65287 32.9938 5.40121 33.1354 5.12052 33.2487L5.70127 33.0127C5.42058 33.126 5.13988 33.2015 4.83983 33.2393L5.47865 33.1543C5.20763 33.1826 4.93661 33.1921 4.67528 33.1543L5.3141 33.2393C5.07212 33.211 4.8495 33.1543 4.6172 33.0693L5.19795 33.3054C5.00437 33.2204 4.82046 33.126 4.64624 32.9938L5.13988 33.3621C4.98501 33.2393 4.8495 33.1071 4.72367 32.956L5.10116 33.4376C4.95597 33.2582 4.8495 33.0693 4.75271 32.8616L4.99469 33.4282C4.8979 33.1921 4.83014 32.956 4.79143 32.7011L4.87854 33.3243C4.83982 33.0127 4.83982 32.7011 4.87854 32.3894L4.79143 33.0127C4.83982 32.6633 4.93662 32.3328 5.08181 32.0117L4.83983 32.5783C4.97533 32.2856 5.13988 32.0117 5.34314 31.7568L4.96565 32.2383C5.1302 32.04 5.31411 31.8512 5.52705 31.6907L5.03341 32.0589C5.24635 31.8984 5.46897 31.7662 5.71095 31.6623L5.1302 31.8984C5.40121 31.7851 5.68192 31.7095 5.98197 31.6718L5.34314 31.7568C5.67223 31.719 6.00132 31.719 6.33041 31.7568L5.69159 31.6718C6.0594 31.7284 6.40785 31.8229 6.7563 31.9551L6.17555 31.719C6.55304 31.8795 6.90149 32.0778 7.2209 32.3233L6.72726 31.9551C7.01764 32.1817 7.28865 32.4366 7.52095 32.7294L7.14347 32.2478C7.37577 32.5405 7.55967 32.8521 7.71453 33.1826L7.47256 32.6161C7.51127 32.7105 7.54999 32.8049 7.57903 32.8994L7.82101 31.0769C7.58871 31.4924 7.31769 31.8984 7.01764 32.2761L7.39513 31.7945C6.91117 32.3989 6.34978 32.9466 5.73031 33.4282L6.22395 33.0599C5.56576 33.5509 4.8495 33.9664 4.09453 34.278L4.67528 34.042C4.01709 34.3064 3.32987 34.5047 2.62329 34.6274C2.0619 34.7218 1.45211 35.2507 1.18109 35.7134C0.881038 36.2233 0.74553 36.9693 0.939113 37.5359C1.1327 38.1024 1.49083 38.6596 2.05222 38.9429C2.66201 39.2545 3.24276 39.2922 3.9203 39.1789L3.89126 39.1506Z" fill="#D9D9D9"/>
<path id="Vector_7" d="M7.09464 13.1636C7.73346 12.9464 8.36261 12.682 8.91432 12.2854C9.64026 11.7566 10.1823 11.2372 10.7147 10.5196C11.1018 10.0096 11.3728 9.40528 11.5761 8.80093C11.7794 8.19658 11.8761 7.48836 11.8084 6.8368C11.731 6.05303 11.5664 5.30704 11.1309 4.62714C10.7243 3.98502 10.221 3.52231 9.59186 3.09738C9.13694 2.78576 8.59491 2.56857 8.06255 2.42693C7.5302 2.28528 6.95913 2.2003 6.40741 2.23807C4.87811 2.32306 3.5811 2.93685 2.69062 4.15499C1.86789 5.27871 1.91628 6.93123 2.29377 8.21547C2.70029 9.59414 3.56174 10.7934 4.80068 11.5772C5.50726 12.0304 6.33966 12.2476 7.18175 12.3043C8.02384 12.3609 8.77882 12.106 9.50475 11.7755C10.0565 11.5205 10.5888 11.1239 10.9857 10.6706C11.489 10.0946 11.9536 9.41473 12.1084 8.65929C12.1859 8.30046 12.2536 7.92274 12.2246 7.55446C12.1762 6.92178 12.0407 6.45908 11.7697 5.88306C11.4019 5.09929 10.6663 4.42884 9.91128 4.0039C7.5786 2.67245 4.44254 3.46566 2.78741 5.46757C2.26473 6.10024 1.91628 6.66682 1.63558 7.4317C1.55815 7.63001 1.50976 7.82831 1.48072 8.03605C1.42264 8.42322 1.34521 8.82926 1.38393 9.22587C1.4904 10.5007 1.99371 11.7755 3.0197 12.6253C3.85211 13.3241 4.83939 13.8435 5.94282 13.9946C6.52357 14.0796 7.05592 14.1457 7.63667 14.0796C8.44972 13.9851 9.04983 13.834 9.79512 13.513C10.7534 13.0975 11.6438 12.2759 12.1084 11.36C12.8634 9.85855 12.4375 8.18714 11.3438 6.97844C9.87256 5.34481 6.96881 4.77823 5.06201 5.99637C4.48126 6.36465 3.96826 6.86512 3.64885 7.46947C3.35848 8.03605 3.22297 8.65929 3.40687 9.29197C3.56174 9.83966 3.9973 10.4346 4.51998 10.699C5.6234 11.2656 7.22047 11.0295 7.83025 9.84911C7.88833 9.74523 7.94641 9.6508 8.01416 9.55637L7.63667 10.038C7.73347 9.92465 7.83025 9.82078 7.95608 9.73579L7.46245 10.1041C7.5786 10.0191 7.70443 9.95298 7.83994 9.89632L7.25919 10.1324C7.43341 10.0663 7.60763 10.0191 7.79154 10.0002L7.15272 10.0852C7.38502 10.0569 7.60764 10.0663 7.83994 10.0852L7.20111 10.0002C7.47212 10.038 7.74314 10.1135 7.9948 10.2174L7.41405 9.98131C7.64635 10.0852 7.86897 10.2079 8.06255 10.359L7.56892 9.99075C7.71411 10.1041 7.84961 10.2363 7.96576 10.3779L7.58828 9.89632C7.68507 10.0285 7.77218 10.1607 7.83994 10.3024L7.59796 9.73579C7.65603 9.86799 7.69474 10.0002 7.7141 10.1418L7.62699 9.5186C7.64635 9.66969 7.64635 9.81133 7.62699 9.96242L7.7141 9.33918C7.7141 9.39584 7.69474 9.4525 7.68507 9.50916L7.92704 8.94258C7.84961 9.11255 7.75282 9.27308 7.63667 9.41473L8.01416 8.93314C7.87865 9.11255 7.7141 9.26364 7.53988 9.40528L8.03352 9.03701C7.82057 9.19754 7.58828 9.32974 7.3463 9.43361L7.92704 9.19754C7.63667 9.31085 7.33662 9.39584 7.01721 9.44306L7.65603 9.35807C7.2979 9.40528 6.93009 9.40528 6.57196 9.35807L7.21079 9.44306C6.87202 9.39584 6.54292 9.31085 6.23319 9.1881L6.81394 9.42417C6.54292 9.31085 6.29126 9.17865 6.05896 9.00868L6.5526 9.37696C6.35902 9.22587 6.18479 9.06534 6.02993 8.86704L6.40741 9.34863C6.27191 9.16921 6.15576 8.98035 6.06865 8.77261L6.31062 9.33918C6.23319 9.14088 6.17512 8.94258 6.14608 8.74428L6.23319 9.36751C6.20415 9.13144 6.20415 8.90481 6.23319 8.66873L6.14608 9.29197C6.1848 9.03701 6.25255 8.79149 6.34934 8.55542L6.10736 9.122C6.23319 8.83871 6.39774 8.5743 6.59132 8.32879L6.21383 8.81038C6.4171 8.56486 6.63971 8.34767 6.89137 8.14937L6.39774 8.51765C6.66876 8.3099 6.96881 8.13993 7.28822 7.99828L6.70747 8.23436C6.99785 8.1116 7.2979 8.03605 7.61731 7.98884L6.97849 8.07383C7.22047 8.0455 7.45277 8.0455 7.69475 8.07383L7.05592 7.98884C7.2979 8.01717 7.5302 8.08327 7.75282 8.16826L7.17207 7.93218C7.38501 8.02661 7.5786 8.13993 7.77218 8.27213L7.27854 7.90385C7.43341 8.02661 7.56892 8.14937 7.70443 8.30046L7.32694 7.81887C7.44309 7.96051 7.5302 8.10215 7.60764 8.27213L7.36566 7.70555C7.42373 7.83775 7.45277 7.96995 7.4818 8.1116L7.39469 7.48836C7.41405 7.63001 7.41405 7.76221 7.39469 7.89441L7.4818 7.27117C7.45277 7.46003 7.40437 7.63001 7.32694 7.79998L7.56892 7.2334C7.49149 7.41282 7.38501 7.57335 7.26886 7.72444L7.64635 7.24284C7.50116 7.42226 7.3463 7.57335 7.17207 7.71499L7.66571 7.34672C7.46245 7.4978 7.24951 7.62056 7.00753 7.72444L7.58828 7.48836C7.39469 7.56391 7.21079 7.61112 7.00753 7.64889L7.64635 7.56391C7.44308 7.59223 7.24951 7.59223 7.04624 7.56391L7.68507 7.64889C7.4818 7.62056 7.27854 7.55446 7.08496 7.47892L7.66571 7.71499C7.45277 7.62056 7.25918 7.50725 7.0656 7.3656L7.55924 7.73388C7.35598 7.57335 7.17207 7.39393 7.01721 7.19563L7.39469 7.67722C7.20111 7.4317 7.04624 7.15786 6.91074 6.87457L7.15272 7.44115C7.00753 7.1012 6.90105 6.74237 6.85266 6.37409L6.93977 6.99733C6.89138 6.62905 6.89138 6.26077 6.93977 5.8925L6.85266 6.51574C6.85266 6.46852 6.86234 6.42131 6.89137 6.38353L6.64939 6.95011C6.71715 6.79902 6.79458 6.66682 6.89137 6.53462L6.51389 7.01621C6.61068 6.89345 6.72683 6.78958 6.85266 6.69515L6.35902 7.06343C6.50421 6.95955 6.65907 6.87457 6.82362 6.80847L6.24287 7.04454C6.43645 6.969 6.63004 6.92178 6.8333 6.89345L6.19447 6.97844C6.46549 6.94067 6.73651 6.94067 7.00753 6.97844L6.3687 6.89345C6.66875 6.93123 6.95913 7.00677 7.23014 7.12953L6.64939 6.89345C6.86234 6.98788 7.0656 7.1012 7.25919 7.2334L6.76555 6.86512C6.93009 6.98788 7.08496 7.12953 7.21079 7.2995L6.8333 6.81791C6.94945 6.969 7.04625 7.12009 7.12368 7.2995L6.8817 6.73292C6.96881 6.95011 7.02688 7.1673 7.0656 7.40337L6.97849 6.78014C7.01721 7.04454 7.01721 7.30895 6.97849 7.57335L7.0656 6.95011C7.0172 7.27117 6.93009 7.57335 6.80426 7.87552L7.04624 7.30894C6.90106 7.63945 6.71715 7.94162 6.49453 8.22491L6.87202 7.74332C6.62036 8.05494 6.33966 8.32879 6.02993 8.56486L6.52357 8.19658C6.22351 8.41377 5.91378 8.60263 5.56533 8.74428L6.14608 8.5082C6.03961 8.55542 5.93314 8.59319 5.82667 8.62152C5.22656 8.81982 4.70388 9.15977 4.38447 9.70746C4.08442 10.2174 3.94891 10.9634 4.14249 11.53C4.33607 12.0965 4.69421 12.6537 5.2556 12.937C5.81699 13.2202 6.50421 13.3808 7.12368 13.173L7.09464 13.1636Z" fill="#D9D9D9"/>
<path id="Vector_8" d="M32.9383 12.4741C35.1742 11.7848 36.5583 9.72621 36.597 7.46934C36.6164 6.48727 36.3357 5.40133 35.7646 4.58924C35.3968 4.06987 34.9322 3.54107 34.3611 3.22945C33.3932 2.68176 32.4446 2.96505 31.5058 3.34277C29.4925 4.15486 27.2373 5.50521 26.7726 7.76208C26.2597 10.2172 27.8664 12.6913 30.4411 13.1162C32.5027 13.4562 34.5547 13.0313 36.4421 12.2003C37.7198 11.6337 38.8135 10.6611 39.3072 9.35794C39.946 7.67709 38.9684 5.9207 37.4585 5.08972C34.9709 3.72048 31.7381 3.58828 29.4925 5.45799C27.4986 7.11995 26.9275 10.5383 28.9795 12.3891C30.1216 13.4184 31.5929 13.7584 33.1028 13.5128C34.4579 13.2957 35.7743 12.238 36.1324 10.916C36.5777 9.2824 35.2032 7.49767 33.732 6.84611C32.2607 6.19454 30.6346 6.119 29.2796 6.98775C28.2245 7.66765 27.6728 9.10298 28.4084 10.2172C29.086 11.2465 30.5862 11.7942 31.7187 11.0671C31.8252 11.001 31.922 10.9444 32.0381 10.8971L31.4574 11.1332C31.6316 11.0671 31.7961 11.0199 31.98 11.001L31.3412 11.086C31.5251 11.0671 31.6994 11.0671 31.8833 11.086L31.2444 11.001C31.4574 11.0293 31.6606 11.086 31.8639 11.1615L31.2831 10.9255C31.4864 11.0105 31.6606 11.1143 31.8349 11.2371L31.3412 10.8688C31.4864 10.9821 31.6122 11.1049 31.7284 11.2465L31.3509 10.7649C31.438 10.8877 31.5154 11.0105 31.5832 11.1427L31.3412 10.5761C31.3896 10.6894 31.4283 10.7933 31.4574 10.916L31.4574 9.66011L31.4283 9.73566L31.6703 9.16908C31.6219 9.26351 31.5735 9.3485 31.5058 9.44293L31.8833 8.96133C31.8058 9.06521 31.709 9.15019 31.6122 9.22574L32.1059 8.85746C31.9994 8.933 31.8929 8.99911 31.7671 9.04632L32.3479 8.81025C32.1736 8.87635 31.9994 8.92356 31.8058 8.95189L32.4446 8.8669C32.2511 8.88579 32.0575 8.88579 31.8639 8.8669L32.5027 8.95189C32.2801 8.92356 32.0672 8.8669 31.8639 8.78192L32.4446 9.01799C32.2898 8.95189 32.1543 8.8669 32.0188 8.77247L32.5124 9.14075C32.4059 9.05576 32.3091 8.96133 32.222 8.8669L32.5995 9.34849C32.4834 9.20685 32.4059 9.05576 32.3285 8.89523L32.5705 9.46181C32.5124 9.30128 32.4737 9.15019 32.4446 8.98966L32.5318 9.6129C32.5124 9.4146 32.5027 9.22574 32.5318 9.02743L32.4446 9.65067C32.4834 9.38627 32.5511 9.13131 32.6576 8.88579L32.4156 9.45237C32.5318 9.19741 32.6769 8.97078 32.8415 8.75359L32.464 9.23518C32.6189 9.04632 32.7931 8.88579 32.9867 8.7347L32.493 9.10298C32.6963 8.95189 32.9092 8.82913 33.1415 8.72526L32.5608 8.96133C32.8899 8.82913 33.219 8.74415 33.5674 8.69693L32.9286 8.78192C33.3255 8.74415 33.7126 8.74415 34.1095 8.79136L33.4706 8.70637C34.003 8.78192 34.516 8.92356 35.0096 9.12186L34.4289 8.88579C34.7289 9.01799 35.0193 9.15019 35.2903 9.33905L34.7967 8.97078C34.9225 9.06521 35.029 9.15964 35.1258 9.28239L34.7483 8.8008C34.7967 8.85746 34.8354 8.92356 34.8644 8.98966L34.6225 8.42308C34.6612 8.51751 34.6902 8.6025 34.7193 8.70637L34.6321 8.08314C34.6418 8.17757 34.6515 8.26255 34.6321 8.35698L34.7193 7.73375C34.6999 7.85651 34.6709 7.96982 34.6225 8.09258L34.8644 7.526C34.8064 7.64876 34.7386 7.75263 34.6515 7.86595L35.029 7.38436C34.8644 7.58266 34.6805 7.75263 34.4773 7.91316L34.9709 7.54489C34.6321 7.7904 34.2643 7.98871 33.8772 8.14924L34.4579 7.91316C33.7029 8.21534 32.9189 8.43253 32.1059 8.54584L32.7447 8.46086C32.2414 8.52696 31.7381 8.54584 31.2347 8.48918L31.8736 8.57417C31.5638 8.5364 31.2638 8.46086 30.9637 8.3381L31.5445 8.57417C31.3703 8.49863 31.2154 8.4042 31.0605 8.30033L31.5542 8.6686C31.4283 8.57417 31.3219 8.46086 31.2154 8.3381L31.5929 8.81969C31.4767 8.6686 31.3799 8.50807 31.3025 8.32865L31.5445 8.89523C31.4767 8.71582 31.4283 8.54584 31.3993 8.35698L31.4864 8.98022C31.4671 8.8008 31.4671 8.63083 31.4864 8.45141L31.3993 9.07465C31.4283 8.90468 31.4767 8.7347 31.5348 8.57417L31.2928 9.14075C31.3896 8.91412 31.5154 8.71582 31.6606 8.52696L31.2831 9.00855C31.5154 8.72526 31.7768 8.47974 32.0575 8.26255L31.5638 8.63083C32.1059 8.22478 32.706 7.90372 33.3351 7.63932L32.7544 7.87539C33.0738 7.74319 33.4029 7.62043 33.7417 7.51656L31.8736 7.28048L31.9413 7.3277L31.4477 6.95942C31.6026 7.08218 31.7381 7.21438 31.8639 7.36547L31.4864 6.88388C31.6219 7.05385 31.7284 7.24271 31.8155 7.44101L31.5735 6.87444C31.6703 7.10107 31.7284 7.33714 31.7671 7.57322L31.68 6.94998C31.7187 7.25216 31.7187 7.55433 31.68 7.85651L31.7671 7.23327C31.7284 7.50712 31.651 7.77152 31.5445 8.02648L31.7865 7.4599C31.68 7.71486 31.5348 7.94149 31.3703 8.16812L31.7477 7.68653C31.6122 7.85651 31.4574 8.00759 31.2831 8.13979L31.7768 7.77152C31.6219 7.88483 31.4574 7.97926 31.2735 8.05481L31.8542 7.81873C31.7768 7.84706 31.6993 7.87539 31.6122 7.90372C30.412 8.272 29.5119 9.56568 29.9184 10.8122C30.3055 11.9925 31.6026 12.8613 32.8996 12.4647L32.9383 12.4741Z" fill="#D9D9D9"/>
</g>
</g>
<defs>
<clipPath id="clip0_26_542">
<rect width="89" height="89" fill="white" transform="translate(89) rotate(90)"/>
</clipPath>
</defs>
</svg>
