<svg width="19" height="40" viewBox="0 0 19 40" fill="none" xmlns="http://www.w3.org/2000/svg">
<path d="M18.9936 19.9686C18.9948 19.3022 18.7741 18.6564 18.3696 18.1432L4.8052 1.03035C4.34472 0.447889 3.68302 0.0816034 2.96566 0.0120687C2.2483 -0.0574659 1.53405 0.175446 0.980034 0.659566C0.426018 1.14369 0.0776191 1.83936 0.0114797 2.59354C-0.0546596 3.34773 0.166878 4.09864 0.627359 4.6811L12.7811 19.9686L1.06142 35.2562C0.836076 35.5479 0.667791 35.8836 0.566243 36.2439C0.464695 36.6043 0.431886 36.9821 0.469701 37.3559C0.507517 37.7296 0.61521 38.0917 0.786593 38.4216C0.957976 38.7514 1.18967 39.0423 1.46836 39.2777C1.7473 39.5389 2.07454 39.7367 2.42959 39.8588C2.78463 39.9808 3.15983 40.0245 3.53166 39.987C3.9035 39.9495 4.26397 39.8317 4.59048 39.6409C4.91699 39.4502 5.20252 39.1906 5.42917 38.8784L18.5324 21.7655C18.8729 21.2376 19.0353 20.6049 18.9936 19.9686Z" fill="#303030"/>
</svg>
