<svg width="19" height="40" viewBox="0 0 19 40" fill="none" xmlns="http://www.w3.org/2000/svg">
<path d="M0.00641926 19.9686C0.00518142 19.3022 0.225942 18.6564 0.630382 18.1432L14.1948 1.03035C14.6553 0.447889 15.317 0.0816034 16.0343 0.0120687C16.7517 -0.0574659 17.4659 0.175446 18.02 0.659566C18.574 1.14369 18.9224 1.83936 18.9885 2.59354C19.0547 3.34773 18.8331 4.09864 18.3726 4.6811L6.21892 19.9686L17.9386 35.2562C18.1639 35.5479 18.3322 35.8836 18.4338 36.2439C18.5353 36.6043 18.5681 36.9821 18.5303 37.3559C18.4925 37.7296 18.3848 38.0917 18.2134 38.4216C18.042 38.7514 17.8103 39.0423 17.5316 39.2777C17.2527 39.5389 16.9255 39.7367 16.5704 39.8588C16.2154 39.9808 15.8402 40.0245 15.4683 39.987C15.0965 39.9495 14.736 39.8317 14.4095 39.6409C14.083 39.4502 13.7975 39.1906 13.5708 38.8784L0.46761 21.7655C0.127099 21.2376 -0.0352792 20.6049 0.00641926 19.9686Z" fill="#303030"/>
</svg>
