<svg width="89" height="89" viewBox="0 0 89 89" fill="none" xmlns="http://www.w3.org/2000/svg">
<path d="M41.0636 19.7568L38.9023 8.9542C38.7329 8.10731 37.9104 7.55913 37.0636 7.72857C36.2167 7.89801 35.6685 8.72041 35.8379 9.5673L37.9992 20.3699C21.9771 24.4138 11.7269 40.3795 15.0041 56.7592C18.3847 73.656 34.8807 84.6517 51.7775 81.2711C68.6743 77.8904 79.67 61.3944 76.2894 44.4976C73.0122 28.1179 57.4083 17.325 41.0636 19.7568ZM30.287 27.0924C28.6883 29.758 27.5271 33.0348 26.8662 36.7294C24.9676 36.6615 23.1879 36.4864 21.553 36.2077C23.7266 32.5799 26.6924 29.4449 30.287 27.0924ZM20.0391 39.0871C21.9891 39.4799 24.1319 39.7352 26.4488 39.8311C26.0834 43.5627 26.196 47.6213 26.8438 51.8492C22.5091 51.39 19.32 50.3251 17.6037 48.9367C17.8134 45.484 18.6507 42.1563 20.0391 39.0871ZM18.0683 56.1461C17.8323 54.9666 17.7005 53.792 17.6167 52.6221C20.0879 53.8883 23.45 54.705 27.4304 55.0404C28.3996 59.5621 29.878 63.6879 31.7196 67.2783C27.2285 67.0051 23.558 66.1328 21.3211 64.697C19.8185 62.1047 18.688 59.2434 18.0683 56.1461ZM24.7774 69.426C27.2902 70.0644 30.2688 70.4052 33.5386 70.4831C35.599 73.7274 37.9725 76.3791 40.5249 78.2622C34.4248 77.1232 28.8962 73.9826 24.7774 69.426ZM49.6043 78.3736C45.3083 78.4584 40.8966 75.4567 37.2877 70.4528C40.6024 70.3242 44.1309 69.9363 47.7841 69.2762L49.6043 78.3736ZM47.1711 66.212C43.044 66.95 39.0108 67.3381 35.329 67.3656C33.3453 63.8902 31.7293 59.7608 30.6722 55.2045C34.9277 55.2867 39.7046 54.884 44.7229 53.9752L47.1712 66.2119L47.1711 66.212ZM44.1095 50.91C38.8229 51.8652 34.0717 52.1972 30.0463 52.0617C29.3317 47.7682 29.1974 43.6255 29.59 39.8743C33.374 39.8215 37.4676 39.4017 41.6557 38.6455L44.1095 50.91V50.91ZM41.0428 35.582C37.2268 36.2689 33.5061 36.6689 30.0647 36.7479C31.3509 30.1442 34.3676 25.1729 38.6248 23.4963L41.0428 35.582ZM62.3365 28.0469C60.935 28.9331 59.3599 29.7796 57.6335 30.573C55.6021 27.4174 53.2696 24.8398 50.7685 22.9946C54.9913 23.7828 58.9345 25.535 62.3365 28.0469ZM41.6891 22.883C46.2639 22.7926 50.961 26.221 54.6891 31.8215C51.4822 33.0728 47.8932 34.1347 44.1072 34.9689L41.6891 22.883ZM44.7201 38.0325C48.8765 37.1192 52.816 35.9313 56.3293 34.5237C58.13 37.8255 59.5967 41.6889 60.5892 45.9126C56.9092 47.6059 52.3891 49.1468 47.1738 50.2961L44.7201 38.0325V38.0325ZM47.7871 53.3619C52.7696 52.2699 57.3338 50.804 61.2294 49.0912C62.0066 53.7033 62.1037 58.1367 61.61 62.1076C58.2005 63.4988 54.3284 64.6921 50.2356 65.5988L47.7873 53.3619L47.7871 53.3619ZM52.6687 77.7605L50.8485 68.6631C54.4742 67.8667 57.8806 66.8672 60.9897 65.7101C59.584 71.718 56.6667 76.1859 52.6687 77.7605ZM61.0064 74.1644C62.6378 71.444 63.8085 68.0833 64.462 64.2955C67.4501 62.9654 70.0688 61.5048 72.1422 59.9488C70.0938 65.7397 66.1987 70.7661 61.0064 74.1644ZM73.2252 45.1107C73.8451 48.2092 73.9023 51.2864 73.5123 54.2582C72 56.4424 68.9467 58.6589 64.9079 60.6382C65.2261 56.6156 65.0035 52.239 64.1585 47.6924C67.7038 45.8512 70.4926 43.8036 72.2861 41.6837C72.659 42.796 72.9891 43.9308 73.2252 45.1107ZM70.8799 38.2772C69.8373 40.1759 67.2832 42.3806 63.4617 44.4773C62.4336 40.3422 60.9792 36.5678 59.2122 33.2754C61.3134 32.2954 63.1929 31.235 64.8415 30.1222C67.3044 32.4209 69.358 35.1706 70.8799 38.2772Z" fill="white"/>
<path d="M58.4007 12.9633C60.0049 13.0796 60.0715 13.124 60.796 14.56C61.113 15.1875 61.8079 15.5262 62.4976 15.3882C63.1874 15.2502 63.6984 14.6702 63.7495 13.9691C63.8658 12.3648 63.9102 12.2983 65.3462 11.5737C65.9737 11.2568 66.3124 10.5619 66.1744 9.87216C66.0364 9.18241 65.4564 8.67132 64.7553 8.62024C63.151 8.50395 63.0845 8.45959 62.3599 7.02359C61.7259 5.7686 59.5086 6.21223 59.4063 7.61454C59.29 9.21877 59.2457 9.28531 57.8097 10.0099C57.1823 10.3266 56.8435 11.0215 56.9815 11.7113C57.1195 12.401 57.6995 12.9121 58.4007 12.9633Z" fill="white"/>
<path d="M21.8602 80.9405C20.256 80.8243 20.1895 80.7799 19.4649 79.3439C18.8309 78.0889 16.6136 78.5325 16.5113 79.9349C16.395 81.5391 16.3506 81.6056 14.9146 82.3302C14.2873 82.6471 13.9486 83.342 14.0866 84.0317C14.2246 84.7215 14.8046 85.2326 15.5057 85.2836C17.1099 85.3999 17.1765 85.4443 17.901 86.8803C18.2179 87.5078 18.9128 87.8465 19.6026 87.7085C20.2923 87.5705 20.8034 86.9905 20.8545 86.2894C20.9708 84.6851 21.0151 84.6186 22.4512 83.894C23.0787 83.5771 23.4174 82.8822 23.2794 82.1925C23.1414 81.5027 22.5614 80.9916 21.8602 80.9405Z" fill="white"/>
<path d="M76.094 17.5058C75.8746 17.4905 75.7432 17.4717 75.7318 17.4849C75.6965 17.4328 75.6354 17.3299 75.5374 17.1348C74.9034 15.8798 72.686 16.3234 72.5837 17.7257C72.5682 17.9437 72.5514 18.0621 72.5628 18.0879C72.5107 18.1232 72.4078 18.1843 72.2127 18.2823C71.5852 18.5993 71.2468 19.2957 71.3845 19.9839C71.5222 20.6721 72.1025 21.1847 72.8036 21.2358C73.023 21.2511 73.141 21.2493 73.1658 21.2567C73.2011 21.3088 73.2622 21.4118 73.3602 21.6068C73.6772 22.2343 74.3736 22.5727 75.0618 22.4351C75.75 22.2974 76.2626 21.7171 76.3137 21.0159C76.3293 20.798 76.3461 20.6796 76.3346 20.6538C76.3867 20.6184 76.4897 20.5574 76.6847 20.4593C77.3124 20.1424 77.6508 19.446 77.5131 18.7577C77.3754 18.0694 76.7951 17.5569 76.094 17.5058Z" fill="white"/>
</svg>
