<svg width="81" height="87" viewBox="0 0 81 87" fill="none" xmlns="http://www.w3.org/2000/svg">
<path d="M56.0979 42.1704C56.0985 42.1694 56.099 42.1683 56.0997 42.1673C56.0998 42.1669 56.1001 42.1666 56.1002 42.1664L69.4169 17.3756C69.6832 16.8798 69.6419 16.275 69.3105 15.8199C68.9791 15.365 68.4164 15.1399 67.8625 15.2413L47.5514 18.9593C45.6469 12.6156 39.2167 8.5709 32.5528 9.79074C28.139 10.5987 24.6394 13.5307 22.9145 17.338C22.685 17.1264 22.4457 16.9246 22.1943 16.736C21.613 16.2999 20.9795 15.9342 20.3033 15.6324C20.7808 15.0643 21.5332 15.0028 21.6387 14.9972C22.1883 15.0067 22.6765 14.7075 22.9357 14.2216C23.1962 13.7331 23.1377 13.1391 22.8181 12.6868C22.7214 12.5499 21.8292 11.3246 20.3162 10.4808C18.1658 9.28175 15.8037 9.44773 13.6653 10.9491C13.0973 11.3477 12.6294 11.8136 12.2681 12.3332C11.7463 11.9754 11.1436 11.7054 10.4711 11.5338C7.93933 10.8875 5.6717 11.5689 4.08555 13.452C2.96954 14.7771 2.5694 16.239 2.52732 16.4013C2.39074 16.9299 2.55937 17.4907 2.96494 17.8563C3.37049 18.2219 3.9456 18.3316 4.45761 18.1406C4.46582 18.1375 5.23815 17.8831 5.923 18.2661C3.64975 20.5317 2.67827 23.6274 3.28933 26.9655C3.69779 29.1969 5.73165 32.5783 8.35004 35.38C10.2093 37.369 13.847 40.6117 17.326 39.981C17.3313 39.98 17.3367 39.979 17.342 39.9781C18.9467 39.6787 20.4894 38.5294 21.8634 36.6271L33.1037 46.3857C33.104 46.386 33.1042 46.3864 33.1046 46.3866C33.1056 46.3876 33.1068 46.3884 33.1079 46.3894L41.8995 54.0222L45.3185 72.6998L38.4188 77.194C37.4273 77.8398 37.0406 79.0589 37.4786 80.1582C37.9166 81.2574 39.0357 81.8765 40.1997 81.6635L61.919 77.6876C63.0833 77.4745 63.9104 76.4991 63.9303 75.3155C63.9501 74.132 63.1564 73.1291 61.9996 72.877L53.9657 71.1255L50.5544 52.49L56.0979 42.1704ZM44.6475 19.4911L38.142 20.6819L41.8965 15.2451C43.1276 16.3841 44.09 17.8295 44.6475 19.4911ZM34.5404 12.5125C36.2916 12.4452 37.9839 12.8327 39.4853 13.5806L35.7311 19.0171L34.5404 12.5125V12.5125ZM31.6585 13.0402L32.8492 19.5447L27.4127 15.7906C28.5517 14.5594 29.9971 13.5976 31.6585 13.0402ZM25.7474 18.2012L31.1842 21.9556L24.6787 23.1464C24.6116 21.3951 24.9993 19.7026 25.7474 18.2012ZM15.3485 13.3472C16.5611 12.4961 17.6645 12.3866 18.8209 13.0027C18.8283 13.0067 18.8359 13.0107 18.8433 13.0147C18.3669 13.3633 17.9239 13.8275 17.5819 14.4375C17.5119 14.5622 17.4445 14.6777 17.378 14.7892C16.5117 14.6568 15.4635 14.6426 14.3548 14.7438C14.4663 14.1922 14.7907 13.7387 15.3485 13.3472ZM6.37706 15.2806C7.24004 14.2947 8.31084 14.0063 9.74618 14.3727C10.4063 14.5412 10.8704 14.8505 11.1706 15.3269C10.098 15.6249 9.12266 16.0096 8.35923 16.4403C8.25764 16.3596 8.15365 16.2756 8.04405 16.1836C7.50834 15.7343 6.92953 15.4571 6.36034 15.2999C6.36599 15.2934 6.37153 15.287 6.37706 15.2806ZM16.812 37.0963C16.8075 37.097 16.8031 37.0976 16.7991 37.0986C15.304 37.3682 12.8872 35.9432 10.4907 33.3792C8.02828 30.7448 6.42746 27.8368 6.17143 26.4381C5.48509 22.6887 7.50023 20.519 9.11391 19.4168C9.11618 19.4153 9.11827 19.4137 9.12054 19.4123C9.32032 19.2761 9.51417 19.1554 9.6955 19.051C9.7009 19.048 9.70629 19.0449 9.71166 19.0417C10.5408 18.5504 11.8665 18.1055 13.264 17.8496C13.2646 17.8495 13.265 17.8494 13.2656 17.8493C13.271 17.8484 13.2761 17.847 13.2815 17.8464C14.6859 17.5879 16.0823 17.5349 17.035 17.7011C17.0412 17.7022 17.0473 17.7032 17.0534 17.7043C18.3625 17.9154 19.5007 18.3784 20.4365 19.0805C20.9918 19.4969 21.47 19.9972 21.8579 20.5675C21.8755 20.5935 21.895 20.6172 21.9139 20.6416C21.7521 21.6296 21.7021 22.6473 21.7748 23.6783L12.5287 25.3708C11.9749 25.4722 11.5281 25.8822 11.3794 26.4253C11.2309 26.9683 11.4068 27.5488 11.8321 27.918L19.6404 34.697C18.6934 36.0724 17.6921 36.9297 16.812 37.0963ZM59.0544 75.2331L42.0057 78.3539L47.7347 74.6223C48.2295 74.3 48.4825 73.7121 48.3761 73.131L44.6947 53.0203C44.6929 53.0097 44.6912 52.9993 44.6894 52.9894C44.6295 52.6622 44.46 52.3651 44.2089 52.1471L41.7476 50.0103C43.0219 50.1079 44.3186 50.0432 45.6105 49.8067C45.6124 49.8063 45.6147 49.8059 45.6166 49.8056C46.9104 49.5681 48.1476 49.168 49.306 48.6236L47.7309 51.556C47.5736 51.8486 47.5205 52.1861 47.5803 52.5129L51.2597 72.6125C51.3661 73.1938 51.8111 73.654 52.3886 73.78L59.0544 75.2331ZM45.0878 46.9234C45.0861 46.9237 45.0846 46.924 45.0829 46.9243C41.4671 47.5862 37.8013 46.5837 35.0254 44.1737C35.0253 44.1735 35.0253 44.1735 35.0251 44.1734L23.563 34.2221L47.8131 29.783C48.6089 29.6373 49.136 28.8741 48.9903 28.0782C48.8446 27.2824 48.0814 26.7552 47.2855 26.9009L20.7295 31.7621L16.0544 27.7034L65.3944 18.6714L53.5179 40.7821C51.7775 44.0216 48.7047 46.2598 45.0878 46.9234Z" fill="white"/>
<path d="M54.0735 26.095C53.7565 25.8761 53.3565 25.7899 52.9775 25.8593C52.5986 25.9287 52.255 26.1509 52.0361 26.468C51.8171 26.785 51.731 27.185 51.8004 27.564C51.8698 27.9429 52.092 28.2865 52.409 28.5054C52.7261 28.7244 53.1261 28.8105 53.505 28.7411C53.884 28.6717 54.2275 28.4495 54.4465 28.1325C54.6654 27.8154 54.7516 27.4154 54.6822 27.0365C54.6128 26.6575 54.3906 26.314 54.0735 26.095Z" fill="white"/>
</svg>
