<svg width="50" height="58" viewBox="0 0 50 58" fill="none" xmlns="http://www.w3.org/2000/svg">
<path d="M47.817 45.4012L43.3115 40.8956L46.4382 37.769L23.7894 11.9062C23.794 8.79123 22.5732 5.77847 20.3798 3.54718C15.8061 -1.10614 8.2813 -1.19223 3.60612 3.35496C1.30483 5.59315 0.0251665 8.59243 0.00273812 11.8003C-0.019577 15.0088 1.21749 18.025 3.48605 20.2937C5.72209 22.5297 8.75365 23.7767 11.8992 23.7766H11.9191L37.7819 46.4254L40.9086 43.2988L45.4141 47.8045C46.8012 49.1916 46.7695 50.9555 46.2773 52.1439C45.7851 53.3323 44.5601 54.6021 42.5983 54.6021C41.9486 54.6021 41.3019 54.4408 40.7281 54.1356L31.6338 49.2978C23.2495 44.8376 13.2391 44.8384 4.85565 49.2998L0.903158 51.4031L2.49965 54.4029L6.45214 52.2997C13.8362 48.3703 22.6531 48.3695 30.0378 52.2979L39.1322 57.1357C40.1955 57.7014 41.3941 58.0003 42.5984 58.0003C45.6403 58.0003 48.253 56.2545 49.4169 53.4443C50.5809 50.6339 49.9678 47.552 47.817 45.4012V45.4012ZM26.4755 20.1317L20.1445 26.4626L15.0202 21.9751L21.9879 15.0075L26.4755 20.1317ZM20.3877 11.802L11.8148 20.3749C10.1707 20.3585 8.57298 19.8663 7.21346 18.9688L18.9813 7.20108C19.8784 8.56038 20.3712 10.1586 20.3877 11.802V11.802ZM3.40075 11.8237C3.41672 9.5325 4.33096 7.39002 5.97526 5.79081C8.87916 2.96642 13.3217 2.64654 16.5796 4.79694L4.80694 16.5697C3.88047 15.1752 3.38886 13.538 3.40075 11.8237V11.8237ZM37.6278 41.7732L22.7067 28.7064L28.7192 22.6939L41.7861 37.6151L37.6278 41.7732Z" fill="white"/>
</svg>
