<svg width="88" height="77" viewBox="0 0 88 77" fill="none" xmlns="http://www.w3.org/2000/svg">
<path d="M47.3704 20.2111L21.4015 35.7134C20.6157 36.1854 20.0496 36.9503 19.8282 37.84C19.6009 38.7282 19.7362 39.6702 20.2039 40.4585L31.2089 58.8936C32.1932 60.5346 34.3191 61.0711 35.9642 60.0938L61.9267 44.5953C62.7122 44.1227 63.2779 43.3579 63.5 42.4687C63.7274 41.5806 63.5921 40.6385 63.1243 39.8502L52.1193 21.4151C51.1364 19.7765 49.0152 19.2387 47.3704 20.2111ZM60.6603 41.3124C60.743 41.4476 60.7684 41.6104 60.7308 41.7644C60.6909 41.9178 60.5913 42.0489 60.4543 42.1288L34.4854 57.6311C34.2025 57.7952 33.8402 57.7038 33.669 57.425L22.6679 38.9963C22.5859 38.8608 22.5607 38.6984 22.5974 38.5444C22.6382 38.3913 22.7375 38.2603 22.8739 38.18L48.8428 22.6776C49.1258 22.5135 49.488 22.6049 49.6592 22.8837L60.6603 41.3124Z" fill="white"/>
<path d="M71.6674 13.7846C72.3486 13.3779 72.5711 12.4963 72.1644 11.8151L67.0873 3.31003C66.103 1.66911 63.9771 1.13258 62.332 2.10988L62.3243 2.0971L3.88154 36.9849C3.09873 37.4572 2.53538 38.2206 2.31461 39.1077C2.07942 40.0041 2.21433 40.9571 2.68902 41.753L7.76999 50.2645C8.17662 50.9457 9.05829 51.1682 9.73947 50.7615C13.1821 48.7065 17.6389 49.8313 19.694 53.2739C21.7491 56.7165 20.6242 61.1733 17.1816 63.2284C16.5005 63.635 16.278 64.5167 16.6846 65.1979L21.7617 73.7029C22.7461 75.3439 24.8719 75.8804 26.5171 74.9031L84.9662 40.0115C85.7453 39.5427 86.3087 38.786 86.5344 37.9053C86.7696 37.0089 86.6347 36.0559 86.16 35.26L81.079 26.7485C80.6724 26.0673 79.7907 25.8448 79.1096 26.2514C75.667 28.3065 71.2101 27.1817 69.155 23.7391C67.1 20.2965 68.2248 15.8397 71.6674 13.7846ZM67.5328 26.3906C70.3616 29.8763 75.1473 31.0843 79.2915 29.3583L83.6935 36.7324C83.7762 36.8676 83.8016 37.0303 83.7639 37.1843C83.724 37.3377 83.6244 37.4689 83.4874 37.5487L25.0446 72.4366C24.7617 72.6007 24.3994 72.5093 24.2283 72.2305L19.8301 64.8629C24.1736 61.3381 24.8372 54.9595 21.3124 50.6159C18.4837 47.1303 13.6979 45.9223 9.55372 47.6483L5.15555 40.2806C5.0736 40.1451 5.04837 39.9827 5.08509 39.8286C5.12589 39.6756 5.22516 39.5446 5.36159 39.4642L51.4589 11.9461L53.6714 15.6523C54.126 16.3024 55.0214 16.4609 55.6715 16.0065C56.2564 15.5975 56.4523 14.8212 56.1315 14.1837L53.9115 10.4647L63.7968 4.56363C64.0797 4.3995 64.442 4.49093 64.6131 4.76967L69.0151 12.1437C64.6716 15.6685 64.008 22.0471 67.5328 26.3906Z" fill="white"/>
<path d="M65.9071 33.3614C65.2259 33.768 65.0034 34.6497 65.41 35.3309L68.3511 40.2575C68.8057 40.9077 69.7011 41.0661 70.3512 40.6117C70.936 40.2028 71.132 39.4265 70.8112 38.7889L67.8702 33.8623C67.4651 33.1836 66.5878 32.9598 65.9071 33.3614Z" fill="white"/>
<path d="M58.5565 21.0479C57.8753 21.4545 57.6528 22.3362 58.0594 23.0174L61.0005 27.9441C61.4551 28.5942 62.3505 28.7526 63.0006 28.2982C63.5855 27.8893 63.7814 27.113 63.4606 26.4755L60.5196 21.5488C60.1145 20.8702 59.2372 20.6463 58.5565 21.0479Z" fill="white"/>
</svg>
