<svg width="87" height="92" viewBox="0 0 87 92" fill="none" xmlns="http://www.w3.org/2000/svg">
<path d="M32.713 18.4334L18.3159 19.8351C17.6908 19.8955 17.1749 20.3461 17.0283 20.9558C16.9295 21.3674 14.6208 31.1721 15.7241 42.5032C15.9787 45.1178 16.4978 47.6339 17.2424 49.9513C17.81 51.771 18.5781 53.5441 19.5193 55.201C19.7865 55.6707 20.0717 56.1308 20.3737 56.5788C22.6395 59.939 25.3883 61.8769 28.238 62.1665L30.0212 78.8807L23.3245 79.5326C21.6285 79.6979 20.241 81.0824 20.0833 82.7804C20.0569 83.0683 20.0736 83.3529 20.1018 83.6395C20.1278 83.9111 20.1486 84.1832 20.2085 84.4501C20.398 85.2959 20.897 86.0505 21.595 86.5631C22.3067 87.0859 23.1964 87.3282 24.075 87.243L40.4102 85.6528C41.8266 85.5147 43.0684 84.4967 43.5007 83.1431C43.6137 82.7888 43.6699 82.4168 43.6641 82.0447C43.6573 81.5894 43.6176 81.1056 43.509 80.6633C43.3095 79.8499 42.8154 79.12 42.1415 78.6241C41.4326 78.1028 40.5356 77.858 39.6594 77.943L32.9487 78.5961L31.1653 61.8772C33.7497 61.081 35.9616 58.8607 37.5233 55.467C37.6515 55.19 37.7691 54.9095 37.8835 54.6264C38.9732 51.9448 39.6125 48.7855 39.7669 45.41C39.8457 43.6657 39.7975 41.9139 39.6281 40.1761C38.5256 28.8453 34.3691 19.67 34.1927 19.2849C33.9315 18.715 33.3374 18.3726 32.713 18.4334V18.4334ZM40.4312 81.0185C40.5862 81.146 40.6507 81.3363 40.679 81.5291C40.705 81.7065 40.7308 81.9054 40.7162 82.0847C40.6904 82.4148 40.465 82.6922 40.1251 82.7255L23.7903 84.3155C23.5937 84.3348 23.3945 84.2616 23.255 84.1222C23.0649 83.9329 23.0618 83.6783 23.0361 83.428C23.0133 83.2032 22.9814 82.984 23.1046 82.7806C23.2123 82.6029 23.4021 82.4806 23.6093 82.4606L39.9446 80.8704C40.1825 80.8472 40.3514 80.9533 40.4312 81.0185V81.0185ZM19.674 22.6581L31.926 21.4654C32.9933 24.0658 35.8442 31.6617 36.7014 40.4611C36.7696 41.1626 36.8138 41.8594 36.8398 42.5497L19.6347 47.6791C19.17 45.9523 18.8365 44.1166 18.6514 42.218C17.7969 33.4358 19.1294 25.4178 19.674 22.6581ZM36.4559 48.8345C36.1744 50.512 35.733 52.1716 35.0705 53.7406C34.105 56.0299 32.8548 57.6685 31.4405 58.5404C30.7269 58.977 29.9203 59.2455 29.0809 59.2618C27.665 59.2874 26.2219 58.6166 24.8737 57.3831C23.3118 55.9452 22.1557 54.0842 21.2613 52.1739C21.0007 51.6181 20.7623 51.0508 20.543 50.4773L36.811 45.6273C36.7503 46.7017 36.6358 47.7735 36.4559 48.8345V48.8345Z" fill="white"/>
<path d="M32.7901 36.3688C32.8351 36.3595 32.8791 36.3488 32.9218 36.3361C33.6424 36.1213 34.0931 35.388 33.9419 34.6365C33.3421 31.6591 32.523 28.6414 31.5068 25.6675C31.2436 24.8987 30.4142 24.4862 29.6394 24.7512C28.8704 25.0139 28.4604 25.8497 28.7231 26.6187C29.6984 29.4716 30.4839 32.3644 31.058 35.2175C31.2184 36.014 31.9942 36.529 32.7901 36.3688Z" fill="white"/>
<path d="M84.5822 64.7909C84.328 64.3049 84.0616 63.8159 83.6721 63.4227C83.3388 63.0856 82.9273 62.8231 82.4878 62.6466C81.5123 62.2544 80.4001 62.3071 79.4675 62.796L73.5003 65.9208L65.6847 50.9973C70.4445 47.1194 70.421 37.3269 65.3793 27.7002C60.0976 17.6148 52.7963 10.6752 52.4888 10.3847C52.0322 9.95478 51.3529 9.86116 50.7978 10.1521L37.9829 16.8631C37.4277 17.154 37.1176 17.766 37.211 18.3859C37.2744 18.8047 38.8213 28.758 44.1029 38.8429C49.1445 48.4696 57.1809 54.0658 63.0793 52.3622L70.8949 67.2857L64.9282 70.4104C63.6856 71.0609 62.9176 72.4405 63.0023 73.8381C63.0532 74.6678 63.4204 75.4629 63.8892 76.1382C64.3456 76.7957 65.0239 77.2903 65.7887 77.5244C66.6896 77.8004 67.6866 77.7097 68.5217 77.2726L83.061 69.6582C84.8008 68.7466 85.4952 66.5334 84.5822 64.7909V64.7909ZM40.3028 18.9688L51.2072 13.2579C53.175 15.2698 58.6803 21.2485 62.7737 29.0646C62.9553 29.4111 63.1288 29.7588 63.2965 30.1071L45.6576 35.3658C42.3052 28.2747 40.7879 21.4831 40.3028 18.9688V18.9688ZM82.0221 66.6624C81.9917 66.7604 81.9088 66.941 81.6965 67.0521L67.1579 74.6669C66.9746 74.7628 66.7473 74.7655 66.5611 74.6759C66.3489 74.5749 66.2502 74.3679 66.1475 74.1698C66.0418 73.9673 65.9136 73.7577 65.9435 73.5195C65.97 73.308 66.104 73.1146 66.2931 73.0158L80.8316 65.401C81.1301 65.2445 81.4761 65.3575 81.6772 65.6134C81.8837 65.8755 82.1291 66.32 82.0221 66.6624ZM62.0253 49.6002C60.7879 49.8897 59.4847 49.6722 58.3046 49.249C57.1246 48.8258 56.0266 48.193 55.0064 47.4689C54.3883 47.0298 53.798 46.552 53.2325 46.0471C52.1579 45.0885 51.1003 43.9642 50.0956 42.7012C48.931 41.2403 47.9041 39.6704 47.0062 38.0328L64.4614 32.8288C65.4059 35.3399 66.075 37.9969 66.2273 40.6826C66.2707 41.4488 66.269 42.2184 66.2112 42.9838C65.9929 45.8647 65.0079 47.9843 63.4232 49.0097C62.9953 49.2847 62.5213 49.4834 62.0253 49.6002V49.6002Z" fill="white"/>
<path d="M34.5917 10.7281C34.3597 9.95004 33.5404 9.50705 32.7623 9.73903C31.9836 9.97118 31.5412 10.7903 31.7732 11.5684L33.1384 16.1477C33.3704 16.9259 34.1892 17.369 34.9678 17.1369C35.7459 16.9049 36.1889 16.0856 35.957 15.3075L34.5917 10.7281Z" fill="white"/>
<path d="M28.6367 16.7764C29.0324 17.1344 29.5688 17.2372 30.0453 17.0951C30.2943 17.0209 30.5273 16.8792 30.714 16.6724C31.2587 16.07 31.2124 15.1398 30.61 14.5951L28.0201 12.2528C27.4178 11.7087 26.4882 11.7548 25.9429 12.3574C25.3983 12.9598 25.4451 13.8899 26.0475 14.4345L28.6367 16.7764Z" fill="white"/>
<path d="M38.5522 14.3355C38.8217 14.4063 39.0943 14.3972 39.3432 14.323C39.8197 14.181 40.2123 13.8012 40.3474 13.2851L41.2314 9.90764C41.4373 9.122 40.9671 8.31816 40.1815 8.11233C39.3953 7.90666 38.592 8.37662 38.3862 9.16226L37.5023 12.5402C37.2959 13.326 37.7666 14.1297 38.5522 14.3355V14.3355Z" fill="white"/>
<path d="M52.9901 22.8177C53.9645 24.1274 54.8933 25.4723 55.7666 26.8515C56.112 27.397 56.3909 27.9963 57.0681 28.1706C57.6635 28.3233 58.31 28.0786 58.6535 27.5683C58.9761 27.09 58.9806 26.4683 58.6869 25.9761C58.2842 25.3002 57.8489 24.6412 57.4119 23.9864C56.9601 23.3084 56.4953 22.6385 56.0194 21.9773C55.7838 21.6499 55.5569 21.3073 55.2985 20.9974C55.1224 20.7854 54.8869 20.6263 54.6252 20.5414C54.0269 20.3472 53.3535 20.564 52.9813 21.0721C52.6059 21.587 52.6091 22.3068 52.9901 22.8177Z" fill="white"/>
<path d="M34.7862 40.3243C35.0192 41.1057 34.5743 41.9286 33.7929 42.1616C33.0109 42.3947 32.1886 41.9496 31.9556 41.1682C31.7225 40.3863 32.167 39.5641 32.949 39.331C33.7304 39.098 34.5531 39.5424 34.7862 40.3243Z" fill="white"/>
<path d="M51.9132 16.9562C52.1462 17.7376 51.7012 18.5605 50.9198 18.7934C50.1384 19.0264 49.3156 18.5815 49.0826 17.8001C48.8495 17.0181 49.2945 16.1958 50.0759 15.9628C50.8573 15.7299 51.6801 16.1742 51.9132 16.9562V16.9562Z" fill="white"/>
</svg>
