<svg width="826" height="633" viewBox="0 0 826 633" fill="none" xmlns="http://www.w3.org/2000/svg">
<g clip-path="url(#clip0_514_1285)" filter="url(#filter0_dddddd_514_1285)">
<path d="M395.713 388.433L381.316 389.835C380.691 389.895 380.175 390.346 380.028 390.956C379.929 391.367 377.621 401.172 378.724 412.503C378.979 415.118 379.498 417.634 380.242 419.951C380.81 421.771 381.578 423.544 382.519 425.201C382.786 425.671 383.072 426.131 383.374 426.579C385.64 429.939 388.388 431.877 391.238 432.167L393.021 448.881L386.325 449.533C384.628 449.698 383.241 451.082 383.083 452.78C383.057 453.068 383.074 453.353 383.102 453.639C383.128 453.911 383.149 454.183 383.209 454.45C383.398 455.296 383.897 456.05 384.595 456.563C385.307 457.086 386.196 457.328 387.075 457.243L403.41 455.653C404.827 455.515 406.068 454.497 406.501 453.143C406.614 452.789 406.67 452.417 406.664 452.045C406.657 451.589 406.618 451.106 406.509 450.663C406.309 449.85 405.815 449.12 405.142 448.624C404.433 448.103 403.536 447.858 402.659 447.943L395.949 448.596L394.165 431.877C396.75 431.081 398.962 428.861 400.523 425.467C400.651 425.19 400.769 424.909 400.884 424.626C401.973 421.945 402.612 418.785 402.767 415.41C402.846 413.666 402.798 411.914 402.628 410.176C401.526 398.845 397.369 389.67 397.193 389.285C396.931 388.715 396.337 388.373 395.713 388.433ZM403.431 451.018C403.586 451.146 403.651 451.336 403.679 451.529C403.705 451.706 403.731 451.905 403.716 452.085C403.69 452.415 403.465 452.692 403.125 452.725L386.79 454.316C386.594 454.335 386.395 454.262 386.255 454.122C386.065 453.933 386.062 453.678 386.036 453.428C386.013 453.203 385.981 452.984 386.105 452.781C386.212 452.603 386.402 452.481 386.609 452.461L402.945 450.87C403.182 450.847 403.351 450.953 403.431 451.018ZM382.674 392.658L394.926 391.465C395.993 394.066 398.844 401.662 399.701 410.461C399.77 411.163 399.814 411.859 399.84 412.55L382.635 417.679C382.17 415.952 381.836 414.117 381.651 412.218C380.797 403.436 382.129 395.418 382.674 392.658ZM399.456 418.834C399.174 420.512 398.733 422.172 398.07 423.741C397.105 426.03 395.855 427.669 394.44 428.54C393.727 428.977 392.92 429.246 392.081 429.262C390.665 429.287 389.222 428.617 387.874 427.383C386.312 425.945 385.156 424.084 384.261 422.174C384.001 421.618 383.762 421.051 383.543 420.477L399.811 415.627C399.75 416.702 399.636 417.774 399.456 418.834Z" fill="white"/>
<path d="M395.79 406.369C395.835 406.36 395.879 406.349 395.922 406.336C396.642 406.121 397.093 405.388 396.942 404.637C396.342 401.659 395.523 398.641 394.507 395.668C394.244 394.899 393.414 394.486 392.639 394.751C391.87 395.014 391.46 395.85 391.723 396.619C392.698 399.472 393.484 402.364 394.058 405.217C394.218 406.014 394.994 406.529 395.79 406.369Z" fill="white"/>
<path d="M447.582 434.791C447.328 434.305 447.062 433.816 446.672 433.423C446.339 433.086 445.927 432.823 445.488 432.647C444.512 432.254 443.4 432.307 442.467 432.796L436.5 435.921L428.685 420.997C433.445 417.119 433.421 407.327 428.379 397.7C423.098 387.615 415.796 380.675 415.489 380.385C415.032 379.955 414.353 379.861 413.798 380.152L400.983 386.863C400.428 387.154 400.118 387.766 400.211 388.386C400.274 388.805 401.821 398.758 407.103 408.843C412.145 418.47 420.181 424.066 426.079 422.362L433.895 437.286L427.928 440.41C426.686 441.061 425.918 442.44 426.002 443.838C426.053 444.668 426.42 445.463 426.889 446.138C427.346 446.796 428.024 447.29 428.789 447.524C429.69 447.8 430.687 447.71 431.522 447.273L446.061 439.658C447.801 438.747 448.495 436.533 447.582 434.791ZM403.303 388.969L414.207 383.258C416.175 385.27 421.68 391.249 425.774 399.065C425.955 399.411 426.129 399.759 426.297 400.107L408.658 405.366C405.305 398.275 403.788 391.483 403.303 388.969ZM445.022 436.662C444.992 436.76 444.909 436.941 444.696 437.052L430.158 444.667C429.975 444.763 429.747 444.765 429.561 444.676C429.349 444.575 429.25 444.368 429.148 444.17C429.042 443.967 428.914 443.758 428.944 443.52C428.97 443.308 429.104 443.115 429.293 443.016L443.832 435.401C444.13 435.245 444.476 435.358 444.677 435.613C444.884 435.876 445.129 436.32 445.022 436.662ZM425.025 419.6C423.788 419.89 422.485 419.672 421.305 419.249C420.125 418.826 419.027 418.193 418.006 417.469C417.388 417.03 416.798 416.552 416.232 416.047C415.158 415.088 414.1 413.964 413.096 412.701C411.931 411.24 410.904 409.67 410.006 408.033L427.461 402.829C428.406 405.34 429.075 407.997 429.227 410.683C429.271 411.449 429.269 412.218 429.211 412.984C428.993 415.865 428.008 417.984 426.423 419.01C425.995 419.285 425.521 419.483 425.025 419.6Z" fill="white"/>
<path d="M397.592 380.728C397.36 379.95 396.54 379.507 395.762 379.739C394.984 379.971 394.541 380.79 394.773 381.568L396.138 386.148C396.37 386.926 397.189 387.369 397.968 387.137C398.746 386.905 399.189 386.086 398.957 385.307L397.592 380.728Z" fill="white"/>
<path d="M391.637 386.776C392.032 387.134 392.569 387.237 393.045 387.095C393.294 387.021 393.527 386.879 393.714 386.672C394.259 386.07 394.212 385.14 393.61 384.595L391.02 382.253C390.418 381.709 389.488 381.755 388.943 382.357C388.398 382.96 388.445 383.89 389.048 384.435L391.637 386.776Z" fill="white"/>
<path d="M401.552 384.336C401.822 384.406 402.094 384.397 402.343 384.323C402.82 384.181 403.212 383.801 403.347 383.285L404.231 379.908C404.437 379.122 403.967 378.318 403.182 378.112C402.395 377.907 401.592 378.377 401.386 379.162L400.502 382.54C400.296 383.326 400.767 384.13 401.552 384.336Z" fill="white"/>
<path d="M415.99 392.818C416.965 394.127 417.893 395.472 418.767 396.851C419.112 397.397 419.391 397.996 420.068 398.171C420.663 398.323 421.31 398.079 421.654 397.568C421.976 397.09 421.981 396.468 421.687 395.976C421.284 395.3 420.849 394.641 420.412 393.986C419.96 393.308 419.495 392.639 419.019 391.977C418.784 391.65 418.557 391.307 418.299 390.997C418.122 390.785 417.887 390.626 417.625 390.541C417.027 390.347 416.354 390.564 415.981 391.072C415.606 391.587 415.609 392.307 415.99 392.818Z" fill="white"/>
<path d="M397.786 410.324C398.019 411.106 397.574 411.929 396.793 412.162C396.011 412.395 395.189 411.95 394.956 411.168C394.723 410.386 395.167 409.564 395.949 409.331C396.73 409.098 397.553 409.542 397.786 410.324Z" fill="white"/>
<path d="M414.913 386.956C415.146 387.738 414.701 388.56 413.92 388.793C413.138 389.026 412.316 388.581 412.083 387.8C411.849 387.018 412.295 386.196 413.076 385.963C413.857 385.73 414.68 386.174 414.913 386.956Z" fill="white"/>
</g>
<defs>
<filter id="filter0_dddddd_514_1285" x="-21.9038" y="-19.1658" width="869.808" height="874.332" filterUnits="userSpaceOnUse" color-interpolation-filters="sRGB">
<feFlood flood-opacity="0" result="BackgroundImageFix"/>
<feColorMatrix in="SourceAlpha" type="matrix" values="0 0 0 0 0 0 0 0 0 0 0 0 0 0 0 0 0 0 127 0" result="hardAlpha"/>
<feOffset/>
<feGaussianBlur stdDeviation="4.5"/>
<feColorMatrix type="matrix" values="0 0 0 0 0.776471 0 0 0 0 0.623529 0 0 0 0 0.266667 0 0 0 1 0"/>
<feBlend mode="normal" in2="BackgroundImageFix" result="effect1_dropShadow_514_1285"/>
<feColorMatrix in="SourceAlpha" type="matrix" values="0 0 0 0 0 0 0 0 0 0 0 0 0 0 0 0 0 0 127 0" result="hardAlpha"/>
<feOffset/>
<feGaussianBlur stdDeviation="9"/>
<feColorMatrix type="matrix" values="0 0 0 0 0.776471 0 0 0 0 0.623529 0 0 0 0 0.266667 0 0 0 1 0"/>
<feBlend mode="normal" in2="effect1_dropShadow_514_1285" result="effect2_dropShadow_514_1285"/>
<feColorMatrix in="SourceAlpha" type="matrix" values="0 0 0 0 0 0 0 0 0 0 0 0 0 0 0 0 0 0 127 0" result="hardAlpha"/>
<feOffset/>
<feGaussianBlur stdDeviation="31.5"/>
<feColorMatrix type="matrix" values="0 0 0 0 0.776471 0 0 0 0 0.623529 0 0 0 0 0.266667 0 0 0 1 0"/>
<feBlend mode="normal" in2="effect2_dropShadow_514_1285" result="effect3_dropShadow_514_1285"/>
<feColorMatrix in="SourceAlpha" type="matrix" values="0 0 0 0 0 0 0 0 0 0 0 0 0 0 0 0 0 0 127 0" result="hardAlpha"/>
<feOffset/>
<feGaussianBlur stdDeviation="63"/>
<feColorMatrix type="matrix" values="0 0 0 0 0.776471 0 0 0 0 0.623529 0 0 0 0 0.266667 0 0 0 1 0"/>
<feBlend mode="normal" in2="effect3_dropShadow_514_1285" result="effect4_dropShadow_514_1285"/>
<feColorMatrix in="SourceAlpha" type="matrix" values="0 0 0 0 0 0 0 0 0 0 0 0 0 0 0 0 0 0 127 0" result="hardAlpha"/>
<feOffset/>
<feGaussianBlur stdDeviation="108"/>
<feColorMatrix type="matrix" values="0 0 0 0 0.776471 0 0 0 0 0.623529 0 0 0 0 0.266667 0 0 0 1 0"/>
<feBlend mode="normal" in2="effect4_dropShadow_514_1285" result="effect5_dropShadow_514_1285"/>
<feColorMatrix in="SourceAlpha" type="matrix" values="0 0 0 0 0 0 0 0 0 0 0 0 0 0 0 0 0 0 127 0" result="hardAlpha"/>
<feOffset/>
<feGaussianBlur stdDeviation="189"/>
<feColorMatrix type="matrix" values="0 0 0 0 0.776471 0 0 0 0 0.623529 0 0 0 0 0.266667 0 0 0 1 0"/>
<feBlend mode="normal" in2="effect5_dropShadow_514_1285" result="effect6_dropShadow_514_1285"/>
<feBlend mode="normal" in="SourceGraphic" in2="effect6_dropShadow_514_1285" result="shape"/>
</filter>
<clipPath id="clip0_514_1285">
<rect width="89.9387" height="96.6648" fill="white" transform="translate(356.096 384.53) rotate(-16.601)"/>
</clipPath>
</defs>
</svg>
