<svg width="820" height="838" viewBox="0 0 820 838" fill="none" xmlns="http://www.w3.org/2000/svg">
<g clip-path="url(#clip0_514_1272)" filter="url(#filter0_dddddd_514_1272)">
<path d="M405.064 391.757L402.902 380.954C402.733 380.107 401.91 379.559 401.064 379.729C400.217 379.898 399.668 380.72 399.838 381.567L401.999 392.37C385.977 396.414 375.727 412.379 379.004 428.759C382.385 445.656 398.881 456.652 415.778 453.271C432.674 449.89 443.67 433.394 440.289 416.498C437.012 400.118 421.408 389.325 405.064 391.757ZM394.287 399.092C392.688 401.758 391.527 405.035 390.866 408.729C388.968 408.661 387.188 408.486 385.553 408.208C387.727 404.58 390.692 401.445 394.287 399.092ZM384.039 411.087C385.989 411.48 388.132 411.735 390.449 411.831C390.083 415.563 390.196 419.621 390.844 423.849C386.509 423.39 383.32 422.325 381.604 420.937C381.813 417.484 382.651 414.156 384.039 411.087ZM382.068 428.146C381.832 426.967 381.701 425.792 381.617 424.622C384.088 425.888 387.45 426.705 391.43 427.04C392.4 431.562 393.878 435.688 395.72 439.278C391.228 439.005 387.558 438.133 385.321 436.697C383.819 434.105 382.688 431.243 382.068 428.146ZM388.777 441.426C391.29 442.064 394.269 442.405 397.539 442.483C399.599 445.727 401.973 448.379 404.525 450.262C398.425 449.123 392.896 445.983 388.777 441.426ZM413.604 450.374C409.308 450.458 404.897 447.457 401.288 442.453C404.602 442.324 408.131 441.936 411.784 441.276L413.604 450.374ZM411.171 438.212C407.044 438.95 403.011 439.338 399.329 439.366C397.345 435.89 395.729 431.761 394.672 427.204C398.928 427.287 403.705 426.884 408.723 425.975L411.171 438.212L411.171 438.212ZM408.11 422.91C402.823 423.865 398.072 424.197 394.046 424.062C393.332 419.768 393.197 415.626 393.59 411.874C397.374 411.822 401.468 411.402 405.656 410.645L408.11 422.91ZM405.043 407.582C401.227 408.269 397.506 408.669 394.065 408.748C395.351 402.144 398.368 397.173 402.625 395.496L405.043 407.582ZM426.337 400.047C424.935 400.933 423.36 401.78 421.634 402.573C419.602 399.417 417.27 396.84 414.768 394.995C418.991 395.783 422.935 397.535 426.337 400.047ZM405.689 394.883C410.264 394.793 414.961 398.221 418.689 403.821C415.482 405.073 411.893 406.135 408.107 406.969L405.689 394.883ZM408.72 410.033C412.876 409.119 416.816 407.931 420.329 406.524C422.13 409.825 423.597 413.689 424.589 417.913C420.909 419.606 416.389 421.147 411.174 422.296L408.72 410.033ZM411.787 425.362C416.77 424.27 421.334 422.804 425.229 421.091C426.007 425.703 426.104 430.137 425.61 434.108C422.201 435.499 418.328 436.692 414.236 437.599L411.787 425.362L411.787 425.362ZM416.669 449.761L414.849 440.663C418.474 439.867 421.881 438.867 424.99 437.71C423.584 443.718 420.667 448.186 416.669 449.761ZM425.006 446.164C426.638 443.444 427.809 440.083 428.462 436.296C431.45 434.965 434.069 433.505 436.142 431.949C434.094 437.74 430.199 442.766 425.006 446.164ZM437.225 417.111C437.845 420.209 437.902 423.286 437.512 426.258C436 428.442 432.947 430.659 428.908 432.638C429.226 428.616 429.003 424.239 428.158 419.692C431.704 417.851 434.493 415.804 436.286 413.684C436.659 414.796 436.989 415.931 437.225 417.111ZM434.88 410.277C433.837 412.176 431.283 414.381 427.462 416.477C426.434 412.342 424.979 408.568 423.212 405.275C425.313 404.295 427.193 403.235 428.842 402.122C431.304 404.421 433.358 407.171 434.88 410.277Z" fill="white"/>
<path d="M422.401 384.963C424.005 385.08 424.071 385.124 424.796 386.56C425.113 387.187 425.808 387.526 426.498 387.388C427.187 387.25 427.698 386.67 427.75 385.969C427.866 384.365 427.91 384.298 429.346 383.574C429.974 383.257 430.312 382.562 430.174 381.872C430.036 381.182 429.456 380.671 428.755 380.62C427.151 380.504 427.084 380.46 426.36 379.024C425.726 377.769 423.509 378.212 423.406 379.615C423.29 381.219 423.246 381.285 421.81 382.01C421.182 382.327 420.844 383.022 420.982 383.711C421.12 384.401 421.7 384.912 422.401 384.963Z" fill="white"/>
<path d="M385.86 452.941C384.256 452.824 384.189 452.78 383.465 451.344C382.831 450.089 380.614 450.533 380.511 451.935C380.395 453.539 380.351 453.606 378.915 454.33C378.287 454.647 377.949 455.342 378.087 456.032C378.225 456.721 378.805 457.233 379.506 457.284C381.11 457.4 381.176 457.444 381.901 458.88C382.218 459.508 382.913 459.847 383.603 459.708C384.292 459.57 384.803 458.991 384.855 458.289C384.971 456.685 385.015 456.619 386.451 455.894C387.079 455.577 387.417 454.882 387.279 454.192C387.141 453.503 386.561 452.992 385.86 452.941Z" fill="white"/>
<path d="M440.094 389.506C439.875 389.491 439.743 389.472 439.732 389.485C439.696 389.433 439.635 389.33 439.537 389.135C438.903 387.88 436.686 388.323 436.584 389.726C436.568 389.944 436.551 390.062 436.563 390.088C436.511 390.123 436.408 390.184 436.213 390.282C435.585 390.599 435.247 391.296 435.384 391.984C435.522 392.672 436.102 393.185 436.804 393.236C437.023 393.251 437.141 393.249 437.166 393.257C437.201 393.309 437.262 393.412 437.36 393.607C437.677 394.234 438.374 394.573 439.062 394.435C439.75 394.297 440.263 393.717 440.314 393.016C440.329 392.798 440.346 392.68 440.335 392.654C440.387 392.618 440.49 392.557 440.685 392.459C441.312 392.142 441.651 391.446 441.513 390.758C441.375 390.069 440.795 389.557 440.094 389.506Z" fill="white"/>
</g>
<defs>
<filter id="filter0_dddddd_514_1272" x="-13.708" y="-5.62802" width="844.256" height="844.256" filterUnits="userSpaceOnUse" color-interpolation-filters="sRGB">
<feFlood flood-opacity="0" result="BackgroundImageFix"/>
<feColorMatrix in="SourceAlpha" type="matrix" values="0 0 0 0 0 0 0 0 0 0 0 0 0 0 0 0 0 0 127 0" result="hardAlpha"/>
<feOffset/>
<feGaussianBlur stdDeviation="4.5"/>
<feColorMatrix type="matrix" values="0 0 0 0 0.270588 0 0 0 0 0.298039 0 0 0 0 0.603922 0 0 0 1 0"/>
<feBlend mode="normal" in2="BackgroundImageFix" result="effect1_dropShadow_514_1272"/>
<feColorMatrix in="SourceAlpha" type="matrix" values="0 0 0 0 0 0 0 0 0 0 0 0 0 0 0 0 0 0 127 0" result="hardAlpha"/>
<feOffset/>
<feGaussianBlur stdDeviation="9"/>
<feColorMatrix type="matrix" values="0 0 0 0 0.270588 0 0 0 0 0.298039 0 0 0 0 0.603922 0 0 0 1 0"/>
<feBlend mode="normal" in2="effect1_dropShadow_514_1272" result="effect2_dropShadow_514_1272"/>
<feColorMatrix in="SourceAlpha" type="matrix" values="0 0 0 0 0 0 0 0 0 0 0 0 0 0 0 0 0 0 127 0" result="hardAlpha"/>
<feOffset/>
<feGaussianBlur stdDeviation="31.5"/>
<feColorMatrix type="matrix" values="0 0 0 0 0.270588 0 0 0 0 0.298039 0 0 0 0 0.603922 0 0 0 1 0"/>
<feBlend mode="normal" in2="effect2_dropShadow_514_1272" result="effect3_dropShadow_514_1272"/>
<feColorMatrix in="SourceAlpha" type="matrix" values="0 0 0 0 0 0 0 0 0 0 0 0 0 0 0 0 0 0 127 0" result="hardAlpha"/>
<feOffset/>
<feGaussianBlur stdDeviation="63"/>
<feColorMatrix type="matrix" values="0 0 0 0 0.270588 0 0 0 0 0.298039 0 0 0 0 0.603922 0 0 0 1 0"/>
<feBlend mode="normal" in2="effect3_dropShadow_514_1272" result="effect4_dropShadow_514_1272"/>
<feColorMatrix in="SourceAlpha" type="matrix" values="0 0 0 0 0 0 0 0 0 0 0 0 0 0 0 0 0 0 127 0" result="hardAlpha"/>
<feOffset/>
<feGaussianBlur stdDeviation="108"/>
<feColorMatrix type="matrix" values="0 0 0 0 0.270588 0 0 0 0 0.298039 0 0 0 0 0.603922 0 0 0 1 0"/>
<feBlend mode="normal" in2="effect4_dropShadow_514_1272" result="effect5_dropShadow_514_1272"/>
<feColorMatrix in="SourceAlpha" type="matrix" values="0 0 0 0 0 0 0 0 0 0 0 0 0 0 0 0 0 0 127 0" result="hardAlpha"/>
<feOffset/>
<feGaussianBlur stdDeviation="189"/>
<feColorMatrix type="matrix" values="0 0 0 0 0.270588 0 0 0 0 0.298039 0 0 0 0 0.603922 0 0 0 1 0"/>
<feBlend mode="normal" in2="effect5_dropShadow_514_1272" result="effect6_dropShadow_514_1272"/>
<feBlend mode="normal" in="SourceGraphic" in2="effect6_dropShadow_514_1272" result="shape"/>
</filter>
<clipPath id="clip0_514_1272">
<rect width="75" height="75" fill="white" transform="translate(364.292 387.086) rotate(-11.314)"/>
</clipPath>
</defs>
</svg>
