<svg width="15" height="14" viewBox="0 0 15 14" fill="none" xmlns="http://www.w3.org/2000/svg">
<path d="M0 0.5C0 0.367392 0.0526784 0.240215 0.146447 0.146447C0.240215 0.0526785 0.367392 0 0.5 0H2C2.11153 3.08115e-05 2.21985 0.0373507 2.30773 0.106025C2.39561 0.174699 2.45801 0.270784 2.485 0.379L2.89 2H14.5C14.5759 2.00002 14.6509 2.01734 14.7191 2.05065C14.7874 2.08396 14.8472 2.13238 14.8939 2.19224C14.9407 2.2521 14.9732 2.32182 14.9889 2.39611C15.0047 2.4704 15.0034 2.54731 14.985 2.621L13.485 8.621C13.458 8.72922 13.3956 8.8253 13.3077 8.89398C13.2199 8.96265 13.1115 8.99997 13 9H4C3.88847 8.99997 3.78015 8.96265 3.69227 8.89398C3.60439 8.8253 3.54199 8.72922 3.515 8.621L1.61 1H0.5C0.367392 1 0.240215 0.947321 0.146447 0.853553C0.0526784 0.759785 0 0.632608 0 0.5ZM3.14 3L4.39 8H12.61L13.86 3H3.14ZM5 11C4.73478 11 4.48043 11.1054 4.29289 11.2929C4.10536 11.4804 4 11.7348 4 12C4 12.2652 4.10536 12.5196 4.29289 12.7071C4.48043 12.8946 4.73478 13 5 13C5.26522 13 5.51957 12.8946 5.70711 12.7071C5.89464 12.5196 6 12.2652 6 12C6 11.7348 5.89464 11.4804 5.70711 11.2929C5.51957 11.1054 5.26522 11 5 11ZM3 12C3 11.4696 3.21071 10.9609 3.58579 10.5858C3.96086 10.2107 4.46957 10 5 10C5.53043 10 6.03914 10.2107 6.41421 10.5858C6.78929 10.9609 7 11.4696 7 12C7 12.5304 6.78929 13.0391 6.41421 13.4142C6.03914 13.7893 5.53043 14 5 14C4.46957 14 3.96086 13.7893 3.58579 13.4142C3.21071 13.0391 3 12.5304 3 12ZM12 11C11.7348 11 11.4804 11.1054 11.2929 11.2929C11.1054 11.4804 11 11.7348 11 12C11 12.2652 11.1054 12.5196 11.2929 12.7071C11.4804 12.8946 11.7348 13 12 13C12.2652 13 12.5196 12.8946 12.7071 12.7071C12.8946 12.5196 13 12.2652 13 12C13 11.7348 12.8946 11.4804 12.7071 11.2929C12.5196 11.1054 12.2652 11 12 11ZM10 12C10 11.4696 10.2107 10.9609 10.5858 10.5858C10.9609 10.2107 11.4696 10 12 10C12.5304 10 13.0391 10.2107 13.4142 10.5858C13.7893 10.9609 14 11.4696 14 12C14 12.5304 13.7893 13.0391 13.4142 13.4142C13.0391 13.7893 12.5304 14 12 14C11.4696 14 10.9609 13.7893 10.5858 13.4142C10.2107 13.0391 10 12.5304 10 12Z" fill="white"/>
</svg>
