<svg width="19" height="16" viewBox="0 0 19 16" fill="none" xmlns="http://www.w3.org/2000/svg">
<path fill-rule="evenodd" clip-rule="evenodd" d="M4.29638 1.37644C2.59469 1.80475 1.1875 3.16353 1.1875 5.53401C1.1875 8.68973 3.76319 11.7778 9.5 14.7009C15.2368 11.7778 17.8125 8.68973 17.8125 5.53401C17.8125 3.16476 16.4053 1.80475 14.7036 1.37644C12.9568 0.935818 10.9963 1.50321 9.97856 2.93953C9.9234 3.01737 9.85134 3.08067 9.7682 3.1243C9.68507 3.16792 9.59319 3.19066 9.5 3.19066C9.40681 3.19066 9.31494 3.16792 9.2318 3.1243C9.14866 3.08067 9.0766 3.01737 9.02144 2.93953C8.00375 1.50321 6.04319 0.935818 4.29638 1.37644ZM9.5 1.6349C8.08688 0.166581 5.8995 -0.294962 4.01613 0.178888C1.85844 0.724124 0 2.5186 0 5.53401C0 9.52174 3.28462 12.9581 9.24231 15.939C9.3227 15.9792 9.41077 16 9.5 16C9.58923 16 9.6773 15.9792 9.75769 15.939C15.7154 12.9581 19 9.52297 19 5.53401C19 2.5186 17.1416 0.724124 14.9839 0.180119C13.1005 -0.293731 10.9143 0.169042 9.5 1.6349Z" fill="white"/>
</svg>
