<?xml version="1.0" standalone="no"?>
<!DOCTYPE svg PUBLIC "-//W3C//DTD SVG 1.1//EN" "http://www.w3.org/Graphics/SVG/1.1/DTD/svg11.dtd" >
<svg xmlns="http://www.w3.org/2000/svg" xmlns:xlink="http://www.w3.org/1999/xlink" version="1.1">
<metadata>
Created by FontForge 20201107 at Thu Mar 12 01:29:23 2015
 By 
Grinched 2.0 (c)Sharkshock Productions 2015. All Rights Reserved
</metadata>
<defs>
<font id="Grinched2.0" horiz-adv-x="829" >
  <font-face 
    font-family="Grinched 2.0"
    font-weight="400"
    font-stretch="normal"
    units-per-em="2048"
    panose-1="2 0 5 0 0 0 0 0 0 0"
    ascent="1638"
    descent="-410"
    x-height="898"
    cap-height="1730"
    bbox="-725 -663 1675 2541"
    underline-thickness="150"
    underline-position="-292"
    unicode-range="U+0020-2202"
  />
<missing-glyph horiz-adv-x="1106" 
 />
    <glyph glyph-name=".notdef" horiz-adv-x="1106" 
 />
    <glyph glyph-name=".null" horiz-adv-x="717" 
 />
    <glyph glyph-name="nonmarkingreturn" horiz-adv-x="1014" 
 />
    <glyph glyph-name="space" unicode=" " horiz-adv-x="344" 
 />
    <glyph glyph-name="space" unicode="&#xa0;" horiz-adv-x="344" 
 />
    <glyph glyph-name="exclam" unicode="!" horiz-adv-x="593" 
d="M304 36q-49 -43 -119 -43t-119 43t-49 103q0 61 49 104t119 43t119 -43t49 -104q0 -60 -49 -103zM302 402l-165 31l162 1146l332 -130z" />
    <glyph glyph-name="quotedbl" unicode="&#x22;" horiz-adv-x="682" 
d="M264 1877l-239 -29l104 -436h119zM646 1859l-266 -23l112 -399l109 -18z" />
    <glyph glyph-name="numbersign" unicode="#" horiz-adv-x="1099" 
d="M67 915l-19 -141l159 -2l-41 -335l154 -8l59 341l300 -3l-38 -341l144 18l53 322l145 -2l-13 170l-105 -2l31 187l139 -1l-13 170l-99 -2l50 307l-203 -14l-33 -297l-271 -6l53 306l-210 11l-40 -321l-150 -3l-19 -141l151 -2l-25 -208zM719 1121l-22 -193l-292 -6
l35 202z" />
    <glyph glyph-name="dollar" unicode="$" horiz-adv-x="1007" 
d="M652 1144q32 -6 84 -16l93 255q-49 27 -126 35l19 98l-168 39l-24 -143l-26 -4q-203 -29 -306 -91q-104 -64 -150 -155q-41 -86 -23 -177q19 -91 92 -164q76 -76 194 -114q51 -16 96 -31l-61 -364q-113 25 -170 97l-26 -202q55 -55 165 -77l-15 -95l144 2l16 80
q133 -1 261 41q174 56 246 165q84 127 3 295q-45 94 -307 207q-37 14 -66 28zM555 625q69 -27 98 -42q195 -109 12 -231q-72 -48 -172 -53zM449 927q-43 30 -50 58q-22 95 31 139q22 18 56 26z" />
    <glyph glyph-name="percent" unicode="%" horiz-adv-x="1058" 
d="M418.5 1452.5q73.5 -80.5 73.5 -195.5q0 -114 -73.5 -195t-176.5 -81q-104 0 -177.5 81t-73.5 195q0 115 73.5 195.5t177.5 80.5q103 0 176.5 -80.5zM161.5 1376.5q-26.5 -50.5 -26.5 -121.5t26.5 -121t63.5 -50t63.5 50t26.5 121t-26.5 121.5t-63.5 50.5t-63.5 -50.5z
M992.5 736.5q73.5 -80.5 73.5 -195.5q0 -114 -73.5 -195t-176.5 -81q-104 0 -177.5 81t-73.5 195q0 115 73.5 195.5t177.5 80.5q103 0 176.5 -80.5zM735.5 660.5q-26.5 -50.5 -26.5 -121.5t26.5 -121t63.5 -50t63.5 50t26.5 121t-26.5 121.5t-63.5 50.5t-63.5 -50.5z
M780 1567l-631 -1283l96 -74l659 1219z" />
    <glyph glyph-name="ampersand" unicode="&#x26;" horiz-adv-x="1272" 
d="M297 264q-51 45 -51 146q0 58 20 118q41 128 200 240q123 -204 243 -358q-139 -122 -226 -153q-128 -45 -186 7zM585 1391q51 -59 -57 -221q-33 51 -51 108q-36 113 36 140q47 3 72 -27zM1184 596l-210 141q-12 -53 -94 -152q-113 152 -221 333q2 2 8 7q5 5 8 7
q116 113 116 345q0 142 -54 232q-43 70 -112 98q-69 29 -149 9q-187 -45 -245 -175q-24 -51 -24 -111q0 -117 112 -308l20 -35l3 -6l3 -6v0q-121 -84 -177 -143q-95 -100 -138 -235q-30 -93 -30 -185q0 -204 128 -319q169 -152 441 -56q126 45 297 192q145 -149 261 -218
l181 217q-164 56 -271 169q108 123 147 199z" />
    <glyph glyph-name="quotesingle" unicode="'" horiz-adv-x="402" 
d="M343 1686l12 -145q-29 -276 -319 -299q151 180 77 253l-87 11l18 188z" />
    <glyph glyph-name="parenleft" unicode="(" horiz-adv-x="578" 
d="M601 -234h-289q-146 235 -216.5 483.5t-70.5 544.5t70.5 544.5t216.5 483.5h289q-62 -107 -118.5 -203.5t-104.5 -225.5q-45 -125 -73.5 -276.5t-28.5 -322.5q0 -179 27.5 -324t74.5 -275q46 -123 104 -224t119 -205z" />
    <glyph glyph-name="parenright" unicode=")" horiz-adv-x="637" 
d="M144 -29q58 101 104 224q47 130 74.5 275t27.5 324q0 171 -28.5 322.5t-73.5 276.5q-48 129 -104.5 225.5t-118.5 203.5h289q146 -235 216.5 -483.5t70.5 -544.5t-70.5 -544.5t-216.5 -483.5h-289q61 104 119 205z" />
    <glyph glyph-name="asterisk" unicode="*" horiz-adv-x="575" 
d="M363 1622l-26 -190l148 91l45 -158l-148 -36l126 -125l-133 -107l-112 100l-88 -100l-142 74l131 137l-149 57l39 167l157 -100v161z" />
    <glyph glyph-name="plus" unicode="+" horiz-adv-x="844" 
d="M68 933l-18 -221l257 -11l-16 -298l199 -15l34 312l275 -9l7 228l-261 1l30 279l-244 -15l-14 -262z" />
    <glyph glyph-name="comma" unicode="," horiz-adv-x="402" 
d="M354 454q53 -421 -307 -444q162 158 99 249l-109 15l18 188z" />
    <glyph glyph-name="hyphen" unicode="-" horiz-adv-x="873" 
d="M37 912l748 18l4 -210l-748 -11z" />
    <glyph glyph-name="hyphen" unicode="&#xad;" horiz-adv-x="873" 
d="M37 912l748 18l4 -210l-748 -11z" />
    <glyph glyph-name="period" unicode="." horiz-adv-x="357" 
d="M23 334q-27 -165 135 -181q167 -5 167 160q-43 131 -173 119q-90 -14 -129 -98z" />
    <glyph glyph-name="slash" unicode="/" horiz-adv-x="726" 
d="M-92 -86l107 -269l750 1833l-273 317z" />
    <glyph glyph-name="zero" unicode="0" horiz-adv-x="1061" 
d="M434 547q-54 127 -54 304q0 178 54 304q52 126 127 126q74 0 128 -126q53 -126 53 -304q0 -177 -53 -304q-54 -125 -128 -125q-75 0 -127 125zM158 1294q-151 -204 -151 -492q0 -287 151 -490q151 -204 365 -204q213 0 364 204q152 203 152 490q0 288 -152 492
q-151 204 -364 204q-214 0 -365 -204z" />
    <glyph glyph-name="one" unicode="1" horiz-adv-x="639" 
d="M463 1483l-182 17l-251 -197l7 -283l200 189l7 -1176l333 -35z" />
    <glyph glyph-name="two" unicode="2" horiz-adv-x="1143" 
d="M264 941q80 119 169 197q180 156 235 -51q16 -170 -103 -412l-396 -709l934 46l-2 369l-443 -69q74 85 140 225q131 279 175.5 581t-163.5 371t-359 -7q-193 -71 -439 -388z" />
    <glyph glyph-name="three" unicode="3" horiz-adv-x="1013" 
d="M204 1218q66 67 207 97q108 30 198 -26q273 -236 -316 -354l1 -194q102 -12 228 -101q91 -64 109 -112q19 -56 -95 -86q-108 -29 -335 -33l27 -298q297 14 499 119t199 311.5t-254 281.5q298 150 303.5 318t-117.5 270.5t-250.5 126t-300 6.5t-282.5 -128z" />
    <glyph glyph-name="four" unicode="4" horiz-adv-x="1105" 
d="M1034 925l-25 287l-183 -20l-39 435l-243 -30l11 -435l-280 -31l6 440l-259 -33l54 -671l486 30l21 -842l342 43l-74 815z" />
    <glyph glyph-name="five" unicode="5" horiz-adv-x="1172" 
d="M396 982l53 273l515 -72l52 261l-818 77l-119 -725q190 -14 421 -69q262 -90 277 -174q29 -61 14 -121q-11 -48 -43 -83q-55 -44 -148 -18q-260 57 -473 205l-151 -238q2 -1 7 -5q4 -4 8 -5q244 -164 526.5 -211.5t450.5 94.5t154 329.5t-219 328.5t-507 153z" />
    <glyph glyph-name="six" unicode="6" horiz-adv-x="1193" 
d="M715 341q-96 -9 -201 47t-159 146q-54 89 -25 160q30 69 125 79q94 10 200 -47q105 -56 159 -145q54 -90 25 -159q-29 -71 -124 -81zM432 992q197 264 523 361l-139 272q-640 -396 -747 -801q-69 -265 89 -491q120 -182 338 -253q216 -69 401 11q186 81 232 266
q46 183 -74 363t-336 249q-144 47 -287 23z" />
    <glyph glyph-name="seven" unicode="7" horiz-adv-x="904" 
d="M1 1319h453l-5 -8l-356 -1063l277 -161l491 1464l-881 65z" />
    <glyph glyph-name="eight" unicode="8" horiz-adv-x="1087" 
d="M383 394q-79 47 -79 113t79 113q80 47 192 47q113 0 192 -47q80 -47 80 -113t-80 -113q-79 -46 -192 -46q-112 0 -192 46zM707 1282q55 -35 55 -83q0 -49 -55 -83q-55 -35 -132 -35q-78 0 -131 35q-55 34 -55 83q0 48 55 83q53 33 131 33q77 0 132 -33zM973 1071
q54 84 54 181q0 159 -134 271t-323 112q-190 0 -323 -112q-135 -112 -135 -271q0 -190 182 -305q-121 -62 -193 -167q-74 -109 -74 -236q0 -192 155 -327q154 -136 371 -136q219 0 373 136q155 135 155 327q0 123 -70 228q-66 103 -180 165q91 54 142 134z" />
    <glyph glyph-name="nine" unicode="9" horiz-adv-x="1060" 
d="M413 1404q88 9 186 -44q97 -51 148 -134q50 -84 22 -149q-27 -65 -115 -74t-186 44q-98 51 -148 135q-49 83 -23 148q27 65 116 74zM674 800q-183 -245 -485 -336l129 -251q594 367 693 744q65 245 -82 455q-111 169 -313 235q-201 64 -373 -11t-215 -246t68 -338
q112 -166 312 -231q135 -43 266 -21z" />
    <glyph glyph-name="colon" unicode=":" horiz-adv-x="442" 
d="M49 1018q-30 -154 151 -169q187 -5 187 149q-48 122 -194 111q-100 -13 -144 -91zM49 397q-30 -154 151 -169q187 -5 187 149q-48 122 -194 111q-100 -13 -144 -91z" />
    <glyph glyph-name="semicolon" unicode=";" horiz-adv-x="379" 
d="M12 937q-30 -154 151 -169q187 -5 187 149q-48 122 -194 111q-100 -13 -144 -91zM128 345l113 -2q16 -4 28 -2l62 -2l10 -45l2 -16v-84q-29 -276 -319 -299q151 180 69 275l-34 -7q-27 -4 -45 -4l2 11l2 22v14l4 29v12l2 17l2 14l2 16v13q4 24 4 40h90z" />
    <glyph glyph-name="semicolon" unicode="&#x37e;" horiz-adv-x="379" 
d="M12 937q-30 -154 151 -169q187 -5 187 149q-48 122 -194 111q-100 -13 -144 -91zM128 345l113 -2q16 -4 28 -2l62 -2l10 -45l2 -16v-84q-29 -276 -319 -299q151 180 69 275l-34 -7q-27 -4 -45 -4l2 11l2 22v14l4 29v12l2 17l2 14l2 16v13q4 24 4 40h90z" />
    <glyph glyph-name="less" unicode="&#x3c;" horiz-adv-x="942" 
d="M887 294l-853 369l804 538l4 -279l-341 -191l352 -140z" />
    <glyph glyph-name="equal" unicode="=" horiz-adv-x="887" 
d="M799 561l-757 -52l-6 223l797 33zM50 869l3 227l753 -13l-4 -172z" />
    <glyph glyph-name="greater" unicode="&#x3e;" horiz-adv-x="873" 
d="M66 725l326 130l-316 177l3 259l747 -499l-792 -343z" />
    <glyph glyph-name="question" unicode="?" horiz-adv-x="940" 
d="M117 581l249 -22q-9 119 75 174q36 24 181 68q115 35 190 122q71 84 89 196q19 113 -22 225q-42 119 -143 209q-263 204 -705 86l179 -266q102 16 127 17q119 7 171 -54t30 -177q-9 -48 -60 -83q-25 -17 -112 -57q-169 -79 -213 -192q-51 -129 -36 -246zM318 217
q-49 -43 -119 -43q-69 0 -119 43q-49 43 -49 103q0 61 49 104q50 43 119 43q70 0 119 -43t49 -104q0 -60 -49 -103z" />
    <glyph glyph-name="at" unicode="@" horiz-adv-x="1527" 
d="M624 453q-34 31 -35 102q-1 47 41 111q42 65 98 102q51 34 67 25q2 -1 6 -10q5 -123 -5 -203q-25 -133 -114 -143q-37 -5 -58 16zM982 1470q-299 77 -571 -114q-245 -172 -353 -466q-103 -281 -27 -534q77 -253 308 -395l142 224q-237 133 -277 353q-26 137 26 279
q85 231 273 367q209 150 437 92q176 -45 279 -232q67 -124 85 -279q17 -156 -20 -300q-18 -66 -66 -83q-56 -20 -124 26q-102 72 -96 330q3 129 26 243l-186 5q-35 9 -71 6q-130 -15 -248 -158t-115 -283q3 -159 98 -248q82 -78 200 -64q118 13 192 106q33 -53 71 -84
q152 -126 312 -68q141 50 185 218q47 182 25 379q-23 197 -109 355q-142 260 -396 325z" />
    <glyph glyph-name="A" unicode="A" horiz-adv-x="956" 
d="M-40 48l291 2l35 201l283 20l102 -192l354 110l-715 1549zM507 542l-178 9l56 420z" />
    <glyph glyph-name="B" unicode="B" horiz-adv-x="906" 
d="M363 511q64 2 112 -33q47 -35 52 -88t-35 -95q-40 -43 -103 -53zM299 1238q81 0 141 -55q61 -55 69 -137t-41 -147t-129 -80zM173 0q248 28 428 123q157 83 179 196q26 142 -161 324q64 61 135 155q142 188 172 348q44 226 -141 365q-230 175 -805 206z" />
    <glyph glyph-name="C" unicode="C" horiz-adv-x="986" 
d="M1039 1604q-355 -32 -613.5 -196t-367.5 -436.5t-46 -527t285.5 -302.5t673.5 129l-108 406q-107 -127 -219 -200q-224 -148 -248 115q-31 148 21 309q103 322 515 389z" />
    <glyph glyph-name="D" unicode="D" horiz-adv-x="1292" 
d="M-26 1729l55 -340l255 35l59 -985l-9 -3l-87 -6l-23 -3l-48 -3q0 -12 48 -279q17 -6 269.5 69t532.5 287q425 387 257.5 821t-611.5 460q-422 13 -698 -53zM980 1192q100 -480 -298 -666l-32 -11l-15 -5q-17 -7 -35 -9l-67 952q5 15 17 16q305 18 430 -277z" />
    <glyph glyph-name="E" unicode="E" horiz-adv-x="840" 
d="M115 1717l-134 -1568l726 71q76 318 76 339l-517 -109l49 360l408 71l2 24l-3 10v342l-349 -97q38 248 48 255t373 54q78 319 76 340q-733 -88 -755 -92z" />
    <glyph glyph-name="F" unicode="F" horiz-adv-x="713" 
d="M-22 1621l68 -1630l9 -1l152 64l27 507l253 -10l21 269l-263 -44l26 479l9 3l486 -17l19 527h-22z" />
    <glyph glyph-name="G" unicode="G" horiz-adv-x="1163" 
d="M110 1300q-162 -207 -142 -660.5t623 -751.5q344 -125 661 -22l-218 761l141 61l-96 289l-546 -222l93 -260l132 64l6 -3l65 -334q-170 6 -330.5 160.5t-120 527.5t469.5 227l122 289q-241 126 -482 109q-216 -28 -378 -235z" />
    <glyph glyph-name="H" unicode="H" horiz-adv-x="960" 
d="M-28 1789l240 -1844l14 4l159 142l18 604l229 39l-7 -560l174 -41l173 1684l-336 -52l-21 -809l-230 -56l-27 948z" />
    <glyph glyph-name="I" unicode="I" horiz-adv-x="417" 
d="M158 61l175 -25l96 1638l-474 -73z" />
    <glyph glyph-name="J" unicode="J" horiz-adv-x="1276" 
d="M930 1766l-11 -159q1 -20 0 -34l-5 -47l3 -11l-9 -84l-1 -36l-16 -179q-1 -45 -10 -73q-140 -902 -670 -610l-260 -294l1 -17q399 -231 803 -49.5t550 1580.5l-42 8l-159 19q-18 5 -31 7l-143 15v-36z" />
    <glyph glyph-name="K" unicode="K" horiz-adv-x="1016" 
d="M848 1853l-377 -703l-65 588l-483 -107l417 -1709l247 154l-53 569l361 -460l169 244l-405 407l396 562l-198 465l-7 -1z" />
    <glyph glyph-name="L" unicode="L" horiz-adv-x="751" 
d="M84 27l702 179l-33 266l-418 -156l238 1434l-589 -95z" />
    <glyph glyph-name="M" unicode="M" horiz-adv-x="1215" 
d="M598 603l-325 1023l-293 -1558l274 -44l112 474q302 -538 302 -535l198 640l3 -602l363 45l-153 1714h-6z" />
    <glyph glyph-name="N" unicode="N" horiz-adv-x="1164" 
d="M-9 122l318 -39l57 702l219 -707l641 1574l-357 8l-234 -883l-396 996z" />
    <glyph glyph-name="O" unicode="O" horiz-adv-x="1072" 
d="M1053.5 1448q97.5 -253 17.5 -598q-81 -345 -292.5 -579.5t-430.5 -221.5t-316.5 266t-16.5 598q80 345 291.5 579.5t430.5 221.5t316.5 -266zM554 1123q-73 9 -147 -92.5t-106 -254.5q-31 -153 -1.5 -268t102.5 -124q74 -9 148 93t105 255q32 153 2 267.5t-103 123.5z
" />
    <glyph glyph-name="P" unicode="P" horiz-adv-x="1011" 
d="M-11 1672l44 -1687l240 28l99 524q726 -11 653.5 606.5t-1036.5 528.5zM803 1023q-53 -265 -396 -246l50 521q349 -3 346 -275z" />
    <glyph glyph-name="Q" unicode="Q" horiz-adv-x="1037" 
d="M692 577q25 104 4 232q-25 150 -96 244.5t-147 79.5q-76 -17 -113 -134t-13 -266q24 -150 95 -244.5t148 -79.5q10 2 21 7l-53 73l136 106zM781 156q-66 -48 -145 -69q-222 -61 -410.5 137t-233.5 538q-44 341 81.5 624.5t347.5 343.5q223 61 411.5 -137t232.5 -538
q46 -341 -80 -624q-26 -57 -54 -105l111 -116l-180 -164z" />
    <glyph glyph-name="R" unicode="R" horiz-adv-x="968" 
d="M42 1699l-75 -16l232 -1755l272 114l-48 677l390 -522l202 253l-353 547q439 868 -620 702zM523 1341q18 -164 -179 -180l-30 322q193 24 209 -142z" />
    <glyph glyph-name="S" unicode="S" horiz-adv-x="929" 
d="M618 926q-140 76 -180 104q-82 56 -91 106q-23 125 32 182q56 58 181 38q25 -5 134 -33l96 335q-106 74 -335 33q-209 -38 -315 -120q-107 -83 -153 -203q-43 -112 -24 -232q19 -119 94 -214q78 -100 200 -149q286 -116 351 -163q201 -142 12 -302q-104 -89 -266 -65
q-163 23 -237 139l-26 -263q75 -97 250 -115q173 -18 337 50q179 73 253 216q86 166 3 386q-46 123 -316 270z" />
    <glyph glyph-name="T" unicode="T" horiz-adv-x="1189" 
d="M1209 1768l12 -321l-359 -73l-17 -1304l-273 -37l-116 1285l-455 -69l-34 403z" />
    <glyph glyph-name="U" unicode="U" horiz-adv-x="1089" 
d="M736 1649q61 -809 62 -816q-1 -184 -77 -318q-77 -133 -182 -133q-71 0 -131 76q-122 157 -88 416l66 756l-385 -32l-43 -656q0 -391 171 -666q170 -276 412 -276q241 0 412 275q170 275 170 663v695z" />
    <glyph glyph-name="V" unicode="V" horiz-adv-x="1065" 
d="M707 1718l-65 -708l-287 617l-400 -62l817 -1493l368 1734z" />
    <glyph glyph-name="W" unicode="W" horiz-adv-x="1474" 
d="M1172 1793l-95 -845l-11 21l-334 707l-240 -639l-159 465l-373 -26l549 -1341l221 724l440 -758l315 1740z" />
    <glyph glyph-name="X" unicode="X" horiz-adv-x="1323" 
d="M526 591l-240 -466l173 -125l230 372l231 -310l177 81l-266 459l532 861l-291 188l-399 -775l-406 703l-303 -230z" />
    <glyph glyph-name="Y" unicode="Y" horiz-adv-x="1142" 
d="M444 720l-10 -720l298 24l-11 649l463 898l-345 131l-262 -762l-286 726l-392 -119z" />
    <glyph glyph-name="Z" unicode="Z" horiz-adv-x="989" 
d="M-27 1477l82 -463l320 110l-175 -1132l872 400l-130 394l-399 -314l466 1321z" />
    <glyph glyph-name="bracketleft" unicode="[" horiz-adv-x="479" 
d="M453 1831l-407 -30l42 -2073l413 30l2 269l-195 -25l-27 1609l231 6z" />
    <glyph glyph-name="backslash" unicode="\" horiz-adv-x="951" 
d="M910 -187l-37 -148l-876 1777l235 391q29 -300 678 -2020z" />
    <glyph glyph-name="bracketright" unicode="]" horiz-adv-x="505" 
d="M-54 1609l230 3l37 -1581l-194 16l12 -264l412 -13l-42 2038l-405 14z" />
    <glyph glyph-name="asciicircum" unicode="^" horiz-adv-x="475" 
d="M243 1837l-225 -428l144 8l84 151l56 -144l151 30z" />
    <glyph glyph-name="underscore" unicode="_" horiz-adv-x="1527" 
d="M40 66l8 -260l1405 72l-2 287z" />
    <glyph glyph-name="grave" unicode="`" horiz-adv-x="357" 
d="M263 1746l-250 -81l257 -280l85 26z" />
    <glyph glyph-name="a" unicode="a" horiz-adv-x="836" 
d="M276 343q-36 60 -36 144q0 85 36 145q36 61 88 61q51 0 87 -61q36 -60 36 -145q0 -84 -36 -144q-36 -61 -87 -61q-52 0 -88 61zM663 932l-200 -20l-6 -54q-54 15 -108 15q-159 0 -271 -107q-113 -108 -113 -260t113 -260q112 -107 271 -107q69 0 187 63l12 -69l231 63z
" />
    <glyph glyph-name="b" unicode="b" horiz-adv-x="867" 
d="M593 547q31 -51 31 -124q0 -72 -31 -123q-31 -52 -75 -52t-75 51q-31 52 -31 124t31 124q31 51 75 51t75 -51zM238 19l174 21l-2 47q52 -14 104 -14q153 1 261 103q108 103 108 248q0 144 -109 247q-108 102 -261 102q-66 0 -130 -23l-32 620l-296 -56z" />
    <glyph glyph-name="c" unicode="c" horiz-adv-x="717" 
d="M608 429q-89 -30 -192 17q-86 39 -127 108q-42 69 -15 127q26 57 102 72q77 14 160 -21l125 216q-74 44 -159 55q-175 23 -315 -88q-141 -110 -164 -288q-23 -179 84 -321q108 -143 283 -165q90 -12 142 -1q41 9 103 46z" />
    <glyph glyph-name="d" unicode="d" horiz-adv-x="891" 
d="M299 458q15 87 61 128q41 38 92 29q105 -19 74 -198q-16 -87 -61 -129q-41 -37 -92 -28q-106 19 -74 198zM571 1255l-14 -515q-130 34 -213 28q-153 -13 -254 -117q-100 -105 -89 -241q11 -135 127 -222t269 -75q49 4 98 20l-5 -48l245 -85l108 1277z" />
    <glyph glyph-name="e" unicode="e" 
d="M45 467q79 -244 289 -293t428 78l-18 176q-153 -98 -297 -87t-161 142l489 125q-27 107 -38 129q-124 263 -442 210q-360 -110 -250 -480zM530 671l-258 -72q-20 116 56 181q137 35 202 -109z" />
    <glyph glyph-name="f" unicode="f" horiz-adv-x="668" 
d="M342 1392q-176 -62 -213 -213q-31 -74 -32 -313l-108 -13l11 -148l100 10v-5v-6h1l24 -663l279 58l-44 643l158 16l-11 158l-158 -19l-6 88q-8 72 18 138q50 131 216 104l60 168q-122 67 -295 -3z" />
    <glyph glyph-name="g" unicode="g" horiz-adv-x="771" 
d="M438 487q-29 -48 -70 -48q-40 0 -69 48q-28 47 -28 115q0 67 28 115q29 48 69 48q29 0 54 -27q23 -25 35 -67l8 -48q1 -16 1 -21q0 -68 -28 -115zM769 288l-6 37q-6 45 -13 86l-1 -1l-100 616l-245 -49l9 -53q-24 3 -40 3q-141 0 -241 -95t-100 -230t100 -230
q100 -96 241 -96q50 0 146 34l8 -49l1 3l27 -145q15 -66 -1 -130q-33 -129 -191 -122q-25 0 -58 21q-67 42 -102 147l-154 -168q25 -51 87 -98q125 -95 312 -78q75 9 154 48q158 77 175 223q23 79 -9 326h1z" />
    <glyph glyph-name="h" unicode="h" horiz-adv-x="887" 
d="M676 910q-46 5 -107 -6q-123 -23 -200 -106l-12 682l-337 9l207 -1365l1 1v-13l209 18q-21 171 43 455q3 7 8 22q16 43 53 74q51 44 89 -14q38 -57 17 -275q-6 -65 -17 -147q-10 -67 -10 -68l263 61l7 153q4 101 -15 215q-39 228 -157 289q-17 9 -42 15z" />
    <glyph glyph-name="i" unicode="i" horiz-adv-x="360" 
d="M26 759l73 -651l212 56l2 656zM224 956q-38 -42 -91 -42t-91 42t-38 102q0 59 38 101t91 42t91 -42t38 -101q0 -60 -38 -102z" />
    <glyph glyph-name="j" unicode="j" horiz-adv-x="414" 
d="M334 188v40q1 48 1 90l-1 -1l1 570l-276 -45l26 -791q4 -70 -23 -134q-56 -127 -217 -93q-27 4 -57 31q-61 55 -80 169l-186 -147q17 -56 73 -116q112 -118 307 -133q79 -3 167 24q176 53 218 200q37 77 46 336h1zM263 993q-43 -34 -93 -26q-50 9 -79 54q-29 46 -20 102
t51 89q42 34 93 26q50 -8 79 -54q29 -45 20 -101t-51 -90z" />
    <glyph glyph-name="k" unicode="k" horiz-adv-x="651" 
d="M623 128l-317 227l259 202l-27 170l-254 -278l40 890l-324 49l85 -1388l180 20l8 175l207 -185z" />
    <glyph glyph-name="l" unicode="l" horiz-adv-x="356" 
d="M292 1358l-292 20l101 -1378l161 10z" />
    <glyph glyph-name="m" unicode="m" horiz-adv-x="1027" 
d="M995 464q-1 15 -1 24q7 186 -134 258q-70 36 -142 35q-23 -1 -39 -5q-56 -15 -105 -75q-12 14 -27 24q-14 10 -35 19q-40 10 -96 8q-111 -5 -190 -68l12 103l-238 34l14 -714l1 1q0 -5 185 -23q7 255 97 397l9 18q21 36 57 59q51 32 77 -25q26 -55 1 -227
q-8 -52 -20 -115l-10 -54l194 -20q7 97 24 201q33 207 80 241q49 37 81 -9q21 -29 27 -70q1 -14 2 -21q-2 -260 -52 -404l171 -56q59 291 57 444v20z" />
    <glyph glyph-name="n" unicode="n" horiz-adv-x="763" 
d="M575 887q-48 5 -111 -6q-126 -24 -206 -109l-17 90l-241 -22l112 -764l1 2v-8v-6l215 18q-21 177 -49 470q4 7 8 22q18 45 55 77q53 45 93 -15q38 -58 17 -283q-6 -67 -18 -151q-10 -70 -10 -71l272 63q29 144 34 301q10 313 -111 377q-18 9 -44 15z" />
    <glyph glyph-name="o" unicode="o" horiz-adv-x="704" 
d="M299 296q-47 40 -69 109q-21 69 -5 126t61 69t91 -28q47 -40 69 -109t5 -126q-16 -58 -61 -70q-44 -12 -91 29zM482 843q-128 90 -258 55t-186 -174t-5 -301t179 -252q127 -89 257 -54t186 174t5 301q-50 162 -178 251z" />
    <glyph glyph-name="p" unicode="p" horiz-adv-x="835" 
d="M476 646q20 -43 8 -121q-11 -75 -50 -112q-34 -33 -78 -26q-42 6 -60 47q-20 44 -8 121q11 75 50 112q34 33 78 26q42 -6 60 -47zM297 -165l18 371q82 -25 168 -16q158 17 259 128t86 251t-137 227t-280 70q-51 -5 -101 -23l4 49l-227 34l-60 -1173z" />
    <glyph glyph-name="q" unicode="q" horiz-adv-x="811" 
d="M286 421q-18 62 -2 142q16 79 57 130q41 50 83 42t61 -71q18 -62 2 -142t-57 -130q-41 -51 -83 -42q-42 8 -61 71zM772 894l-201 50l-8 -53q-47 26 -96 36q-147 29 -273 -63t-158 -252t49 -293q82 -133 228 -163q63 -12 177 33l-46 -397l251 27z" />
    <glyph glyph-name="r" unicode="r" horiz-adv-x="739" 
d="M330 972l-316 -47l65 -794l244 -9l7 496q1 36 18 75q19 42 46 61q31 23 62 6q37 -21 68 -93l234 195q-47 91 -172 97q-131 7 -249 -91z" />
    <glyph glyph-name="s" unicode="s" horiz-adv-x="687" 
d="M645 385q-15 49 -77 99q-38 31 -128 87q-112 69 -119 87q-1 24 8 32q23 21 99 -3l62 -23l42 -16l15 24l107 166l-27 20q-68 51 -224 61q-139 8 -217 -17q-146 -46 -169 -165l-2 -18q-7 -72 39 -139t132 -110l32 -16q203 -97 206 -136q2 0 -8 -7q-14 -10 -38 -18
q-61 -23 -150 3q-88 26 -118 75l-37 60l-69 -201l12 -16q66 -88 255 -109t298 47q61 38 80 98q20 61 -4 135v0z" />
    <glyph glyph-name="t" unicode="t" horiz-adv-x="607" 
d="M498 671l-6 110l-105 -9l-36 569l-273 -54l75 -536l-153 -14l21 -132l149 21l88 -626l175 40l-39 617z" />
    <glyph glyph-name="u" unicode="u" horiz-adv-x="720" 
d="M467 923q28 -175 -25 -471q-3 -7 -7 -23q-16 -45 -52 -78q-51 -48 -93 11q-41 57 -29 282q3 67 12 152q7 70 7 71l-269 -75v-157q0 -105 25 -221q49 -233 173 -292q17 -8 44 -13q76 -6 163 26q173 63 226 249q8 28 10 49q36 173 29 517z" />
    <glyph glyph-name="v" unicode="v" horiz-adv-x="756" 
d="M437 958l-62 -426l-146 386l-236 -21q386 -850 401 -869l298 966z" />
    <glyph glyph-name="w" unicode="w" horiz-adv-x="908" 
d="M275 566l-101 226l-239 -22l345 -650l162 412q257 -414 261 -412l237 829l-237 1l-59 -416l-218 350h-6z" />
    <glyph glyph-name="x" unicode="x" horiz-adv-x="788" 
d="M-1 726l269 -308l-188 -256l65 -80l2 3l224 214l200 -230h6l83 72l-155 302l263 276l-87 266l-265 -365l-4 3l-194 383l-8 4z" />
    <glyph glyph-name="y" unicode="y" horiz-adv-x="648" 
d="M460 1140l-123 -416l-99 293l-7 -2l-235 -142l217 -416l-201 -693l197 -139l476 1420z" />
    <glyph glyph-name="z" unicode="z" horiz-adv-x="692" 
d="M2 921l7 -313l215 37l-189 -530l582 151l-47 227l-247 -87l353 608z" />
    <glyph glyph-name="braceleft" unicode="{" horiz-adv-x="575" 
d="M529 -261q-245 48 -341 146t-87 335l11 278q8 212 -183 205l48 271q152 -51 161 170l10 258q10 239 112.5 330.5t336.5 100.5v-289q-182 60 -190 -141l-10 -247q-11 -277 -168 -309q151 -118 140 -401l-10 -237q-4 -114 32 -163.5t122 -53.5z" />
    <glyph glyph-name="bar" unicode="|" horiz-adv-x="309" 
d="M262 1822l-221 -14l30 -2064l206 37z" />
    <glyph glyph-name="braceright" unicode="}" horiz-adv-x="667" 
d="M109 -4q86 4 122 53.5t32 163.5l-10 237q-11 283 140 401q-157 32 -168 309l-10 247q-8 201 -190 141v289q234 -9 337 -100.5t112 -330.5l10 -258q9 -221 161 -170l48 -271q-191 7 -183 -205l11 -278q10 -237 -86.5 -335t-341.5 -146z" />
    <glyph glyph-name="asciitilde" unicode="~" horiz-adv-x="1010" 
d="M75 1163q-40 -50 -53 -123l169 -31q9 48 37 63q33 17 99 7t144 -44q153 -69 263 -46q48 11 104 40q35 18 109 65l10 7l-92 145l-10 -6q-117 -75 -160 -83q-31 -6 -67 3q-33 8 -87 32q-96 43 -183 57q-125 20 -210 -25q-43 -23 -73 -61z" />
    <glyph glyph-name="exclamdown" unicode="&#xa1;" horiz-adv-x="593" 
d="M344 1536q49 43 119 43t119 -43t49 -103q0 -61 -49 -104t-119 -43t-119 43t-49 104q0 60 49 103zM346 1170l165 -31l-162 -1146l-332 130z" />
    <glyph glyph-name="cent" unicode="&#xa2;" horiz-adv-x="633" 
d="M374 442l20 -10q108 -49 185 -23l24 -215q-52 -31 -90 -39q-50 -11 -137 1q-39 5 -74 16l-43 -160l-86 52l40 148q-62 39 -110 103q-103 137 -81 310q22 172 158 278q111 88 246 89l36 133l89 -20l-33 -122q61 -13 107 -40l-111 -192q-26 11 -53 17zM365 769q-4 0 -8 -1
q-83 -17 -113 -81q-30 -65 16 -141q14 -23 33 -43z" />
    <glyph glyph-name="sterling" unicode="&#xa3;" horiz-adv-x="1024" 
d="M74 803q-9 24 -14 45q-57 257 78 447q120 162 326 190q137 16 263 -38q162 -68 199 -190l-226 -145q-28 88 -87 106q-56 18 -108 12q-83 -14 -141 -95q-38 -52 -42 -125q-4 -48 8 -102q6 -29 45 -89l204 11l39 -156l-138 -5q29 -43 44 -74q52 -105 44 -205
q67 29 146.5 -39t197.5 12l140 -209q-255 -170 -394 -57.5t-318 8.5l-161 154q109 76 112 141q7 31 -17 77q-18 34 -75 112q-26 35 -47 67l-151 -6l-21 148z" />
    <glyph glyph-name="currency" unicode="&#xa4;" horiz-adv-x="942" 
d="M432 783q60 -15 116 16q56 33 70 95q16 69 -31 146q-41 67 -107 83q-60 15 -115 -17q-54 -33 -69 -94q-16 -69 30 -146q39 -67 106 -83zM156 1190l-110 110l95 111l113 -131q122 85 257 78q109 -6 193 -74l111 119l100 -102l-126 -112q88 -133 51 -282q-19 -77 -67 -142
l106 -112l-90 -69l-99 94q-7 -5 -14 -11q-128 -98 -272 -92q-98 4 -175 59l-126 -114l-99 111l126 107q-92 134 -56 285q21 93 82 167z" />
    <glyph glyph-name="yen" unicode="&#xa5;" horiz-adv-x="1038" 
d="M683 201l-10 124l-114 5l-1 81l129 -10l-10 124l-120 6l-2 107l483 733l-347 106l-254 -644l-232 676l-306 -116l410 -796l-1 -54l-129 6l-7 -110l134 -10l-1 -86l-130 6l-7 -110l135 -10l-3 -208l264 -21l-3 210z" />
    <glyph glyph-name="brokenbar" unicode="&#xa6;" horiz-adv-x="375" 
d="M283 1539l-224 12l3 -606l192 -5zM246 500l-194 -17l-4 -723l218 -13z" />
    <glyph glyph-name="section" unicode="&#xa7;" horiz-adv-x="782" 
d="M735 631q53 97 2 224q-29 71 -195 156q-86 44 -111 61q-50 32 -56 61q-14 72 20 105q34 34 111 22q16 -2 83 -19l59 194q-65 43 -206 19q-129 -22 -194 -69q-66 -48 -94 -118q-27 -65 -15 -134q9 -54 39 -99q-27 -12 -48 -27q-66 -48 -94 -118q-27 -65 -15 -134
q11 -69 58 -124q48 -58 123 -86q170 -73 216 -95q124 -82 7 -175q-64 -51 -163 -37q-101 13 -146 80l-16 -152q46 -56 154 -67q106 -10 207 29q110 43 156 125q53 97 2 224q-7 18 -23 36q97 43 139 118zM536 828q124 -82 7 -175q-37 -30 -86 -37q-16 8 -33 17
q-86 44 -111 61q-50 32 -56 61q-14 72 20 105q34 34 111 22q15 -2 76 -17q52 -23 72 -37z" />
    <glyph glyph-name="dieresis" unicode="&#xa8;" horiz-adv-x="639" 
d="M575.5 1250q35.5 -33 35.5 -80t-35.5 -80t-84.5 -33q-50 0 -85.5 33t-35.5 80t35.5 80t85.5 33q49 0 84.5 -33zM225.5 1254q35.5 -33 35.5 -80t-35.5 -80t-84.5 -33q-50 0 -85.5 33t-35.5 80t35.5 80t85.5 33q49 0 84.5 -33z" />
    <glyph glyph-name="copyright" unicode="&#xa9;" horiz-adv-x="971" 
d="M678 663q-46 -27 -76 -33q-39 -8 -106 1q-129 16 -209 119q-79 102 -62 231q17 128 121 207q104 80 233 64q63 -8 118 -40l-92 -156q-62 26 -119 16q-56 -11 -75 -52q-20 -42 11 -92q30 -50 94 -78q76 -33 142 -12zM204.5 1214.5q-110.5 -120.5 -110.5 -291.5
q0 -170 110.5 -290.5t267.5 -120.5t267.5 120.5t110.5 290.5q0 171 -110.5 291.5t-267.5 120.5t-267.5 -120.5zM472 1477q197 0 337 -155.5t140 -374.5q0 -220 -140 -375.5t-337 -155.5q-198 0 -337.5 155.5t-139.5 375.5q0 219 139.5 374.5t337.5 155.5z" />
    <glyph glyph-name="ordfeminine" unicode="&#xaa;" horiz-adv-x="548" 
d="M214 1172q-20 34 -20 81t20 81t49 34q28 0 48 -34t20 -81t-20 -81t-48 -34q-29 0 -49 34zM430 1501l-112 -11l-3 -30q-31 8 -61 8q-88 0 -151 -60t-63 -145t63 -145t151 -60q39 0 105 36l6 -39l129 35z" />
    <glyph glyph-name="guillemotleft" unicode="&#xab;" horiz-adv-x="1000" 
d="M839 1210l-410 -539l475 -501l27 32l-207 480l175 536zM468 1210l-410 -539l475 -501l27 32l-207 480l175 536z" />
    <glyph glyph-name="logicalnot" unicode="&#xac;" horiz-adv-x="972" 
d="M67 1023l857 30l7 -530l-203 -20l7 353l-689 -49z" />
    <glyph glyph-name="registered" unicode="&#xae;" horiz-adv-x="971" 
d="M204.5 1214.5q-110.5 -120.5 -110.5 -291.5q0 -170 110.5 -290.5t267.5 -120.5t267.5 120.5t110.5 290.5q0 171 -110.5 291.5t-267.5 120.5t-267.5 -120.5zM472 1477q197 0 337 -155.5t140 -374.5q0 -220 -140 -375.5t-337 -155.5q-198 0 -337.5 155.5t-139.5 375.5
q0 219 139.5 374.5t337.5 155.5zM306 1219l-41 -1l59 -591l149 23l-1 226l188 -192l116 72l-167 199q265 263 -303 264zM548 1076q3 -55 -102 -50l-4 108q104 -2 106 -58z" />
    <glyph glyph-name="macron" unicode="&#xaf;" horiz-adv-x="646" 
d="M13 1275l572 15l3 -180l-572 -9z" />
    <glyph glyph-name="degree" unicode="&#xb0;" horiz-adv-x="440" 
d="M161 1337q-17 22 -17 54t17 55q16 23 40 23q23 0 40 -23q16 -23 16 -55t-16 -54q-17 -23 -40 -23q-24 0 -40 23zM78 1496q-58 -45 -58 -108t58 -108q57 -45 139 -45q81 0 138 45q58 45 58 108t-58 108q-57 45 -138 45q-82 0 -139 -45z" />
    <glyph glyph-name="plusminus" unicode="&#xb1;" horiz-adv-x="844" 
d="M68 933l-18 -221l257 -11l-16 -298l199 -15l34 312l275 -9l7 228l-261 1l30 279l-244 -15l-14 -262zM51 361l748 18l4 -210l-748 -11z" />
    <glyph glyph-name="uni00B2" unicode="&#xb2;" horiz-adv-x="509" 
d="M114 1241q33 38 69 64q74 50 96 -17q7 -55 -42 -133l-162 -229l382 15l-1 119l-181 -22q30 27 57 72q54 90 72 187.5t-67 120t-147 -1.5q-78 -23 -179 -126z" />
    <glyph glyph-name="uni00B3" unicode="&#xb3;" horiz-adv-x="471" 
d="M87 1333q28 24 87 35q59 10 96 -10q114 -85 -141 -128v-70q43 -4 96 -36q38 -23 45 -41q8 -20 -40 -31q-45 -10 -140 -11l11 -108q125 5 207 42q87 39 76 93q-1 7 -4 14q-23 54 -117 86q188 72 172 153l-4 12q-11 32 -49 60q-38 27 -93 42q-73 21 -147 16
q-84 -7 -130 -47z" />
    <glyph glyph-name="acute" unicode="&#xb4;" horiz-adv-x="454" 
d="M423 1549l-246 30l-166 -344l125 -34z" />
    <glyph glyph-name="mu" unicode="&#xb5;" horiz-adv-x="720" 
d="M663 968l-214 -27q28 -175 -25 -471q-3 -7 -7 -23q-16 -45 -52 -78q-51 -48 -93 11q-41 57 -29 282q3 67 12 152q7 70 7 71l-236 -46l11 -1235l166 70l17 456q7 -2 15 -3q76 -6 163 26t144 94l15 -113l129 21l-23 798v15z" />
    <glyph glyph-name="paragraph" unicode="&#xb6;" horiz-adv-x="845" 
d="M337 925q-115 -4 -199 74q-87 79 -92 195q-5 117 74 204q78 84 193 90l-1 3l27 2v4l318 34l46 -1127l-74 -20l-45 1030l-183 -8l57 -1056l-120 15z" />
    <glyph glyph-name="periodcentered" unicode="&#xb7;" horiz-adv-x="392" 
d="M50 877q-27 -165 135 -181q167 -5 167 160q-43 131 -173 119q-90 -14 -129 -98z" />
    <glyph glyph-name="periodcentered" unicode="&#x2219;" horiz-adv-x="392" 
d="M50 877q-27 -165 135 -181q167 -5 167 160q-43 131 -173 119q-90 -14 -129 -98z" />
    <glyph glyph-name="cedilla" unicode="&#xb8;" horiz-adv-x="423" 
d="M91 95l135 -36l-15 -139q150 -43 143 -145q-6 -79 -98 -115q-86 -34 -225 -30l4 70l29 1q41 -4 74 16q38 23 42 65q4 61 -100 92z" />
    <glyph glyph-name="uni00B9" unicode="&#xb9;" horiz-adv-x="320" 
d="M213 1405l-79 4l-107 -50l3 -73l86 49l3 -300l142 -9z" />
    <glyph glyph-name="ordmasculine" unicode="&#xba;" horiz-adv-x="512" 
d="M200 1127q-25 37 -25 90q0 52 25 89q23 37 58 37q33 0 57 -37t24 -89q0 -53 -24 -90t-57 -37q-35 0 -58 37zM75 1347q-69 -60 -69 -145q0 -84 69 -144q68 -60 165 -60t165 60q69 60 69 144q0 85 -69 145q-68 60 -165 60t-165 -60z" />
    <glyph glyph-name="guillemotright" unicode="&#xbb;" horiz-adv-x="1038" 
d="M90 1218l175 -536l-207 -480l27 -32l475 501l-410 539zM461 1218l175 -536l-207 -480l27 -32l475 501l-410 539z" />
    <glyph glyph-name="onequarter" unicode="&#xbc;" horiz-adv-x="783" 
d="M213 1405l-79 4l-107 -50l3 -73l86 49l3 -300l142 -9zM766 523l-9 80l-67 -6l-14 120l-88 -8l4 -120l-102 -9l2 122l-94 -9l20 -185l176 8l8 -232l124 12l-27 224zM687 1501l-71 43l-540 -1064l82 -66z" />
    <glyph glyph-name="onehalf" unicode="&#xbd;" horiz-adv-x="670" 
d="M206 1444l-84 5l-115 -57l3 -81l92 54l3 -337l153 -10zM687 1501l-71 43l-540 -1064l82 -66zM535 707q29 36 61 59q66 46 86 -15q5 -51 -38 -124l-143 -211l338 13l-1 111l-160 -21q27 26 51 67q47 84 63 174t-59 110.5t-130 -1.5q-70 -22 -159 -116z" />
    <glyph glyph-name="threequarters" unicode="&#xbe;" horiz-adv-x="783" 
d="M797 581l-9 80l-67 -6l-14 120l-88 -8l4 -120l-102 -9l2 122l-94 -9l20 -185l176 8l8 -232l124 12l-27 224zM687 1501l-71 43l-540 -1064l82 -66zM59 1308q23 19 72 27t81 -7q95 -67 -119 -100l1 -55q35 -4 80 -29q31 -18 38 -31q6 -16 -34 -25q-37 -8 -117 -9l10 -84
q103 4 172 33q73 30 64 73q-1 5 -4 11q-19 42 -97 67q156 56 143 120q-1 5 -3 9q-10 25 -41 46q-32 22 -78 34q-60 16 -122 12q-71 -5 -109 -36z" />
    <glyph glyph-name="questiondown" unicode="&#xbf;" horiz-adv-x="940" 
d="M818 1236l-249 22q9 -119 -75 -174q-36 -24 -181 -68q-115 -35 -190 -122q-71 -84 -89 -196q-19 -113 22 -225q42 -119 143 -209q263 -204 705 -86l-179 266q-102 -16 -127 -17q-119 -7 -171 54t-30 177q9 48 60 83q25 17 112 57q169 79 213 192q51 129 36 246zM617 1600
q49 43 119 43q69 0 119 -43q49 -43 49 -103q0 -61 -49 -104q-50 -43 -119 -43q-70 0 -119 43t-49 104q0 60 49 103z" />
    <glyph glyph-name="Agrave" unicode="&#xc0;" horiz-adv-x="956" 
d="M20 48l291 2l35 201l283 20l102 -192l354 110l-715 1549zM567 542l-178 9l56 420zM370 2147l-250 -81l257 -280l85 26z" />
    <glyph glyph-name="Aacute" unicode="&#xc1;" horiz-adv-x="956" 
d="M20 48l291 2l35 201l283 20l102 -192l354 110l-715 1549zM567 542l-178 9l56 420zM837 2096l-246 30l-166 -344l125 -34z" />
    <glyph glyph-name="Acircumflex" unicode="&#xc2;" horiz-adv-x="956" 
d="M20 48l291 2l35 201l283 20l102 -192l354 110l-715 1549zM567 542l-178 9l56 420zM495 2020l-120 -3l-217 -224l158 -34l110 134l114 -120l147 41z" />
    <glyph glyph-name="Atilde" unicode="&#xc3;" horiz-adv-x="956" 
d="M20 48l291 2l35 201l283 20l102 -192l354 110l-715 1549zM567 542l-178 9l56 420zM153 1945q-28 -44 -37 -108l117 -27q6 42 25 55q23 15 68 6q46 -9 100 -38q105 -61 181 -41q33 10 72 35q24 16 75 57l7 6l-63 127l-7 -5q-81 -66 -111 -73q-21 -5 -46 3q-23 7 -60 28
q-66 38 -126 50q-86 17 -145 -22q-30 -20 -50 -53z" />
    <glyph glyph-name="Adieresis" unicode="&#xc4;" horiz-adv-x="956" 
d="M20 48l291 2l35 201l283 20l102 -192l354 110l-715 1549zM567 542l-178 9l56 420zM694.5 1946q35.5 -33 35.5 -80t-35.5 -80t-84.5 -33q-50 0 -85.5 33t-35.5 80t35.5 80t85.5 33q49 0 84.5 -33zM344.5 1950q35.5 -33 35.5 -80t-35.5 -80t-84.5 -33q-50 0 -85.5 33
t-35.5 80t35.5 80t85.5 33q49 0 84.5 -33z" />
    <glyph glyph-name="Aring" unicode="&#xc5;" horiz-adv-x="956" 
d="M20 48l291 2l35 201l283 20l102 -192l354 110l-715 1549zM567 542l-178 9l56 420zM540.5 1985.5q47.5 -44.5 47.5 -107.5q0 -62 -47.5 -106.5t-113.5 -44.5q-67 0 -114.5 44.5t-47.5 106.5q0 63 47.5 107.5t114.5 44.5q66 0 113.5 -44.5zM417 1929q-13 0 -22.5 -12.5
t-9.5 -30.5t9.5 -30.5t22.5 -12.5t22.5 12.5t9.5 30.5t-9.5 30.5t-22.5 12.5z" />
    <glyph glyph-name="AE" unicode="&#xc6;" horiz-adv-x="1474" 
d="M20 48l291 2l35 201l283 20l102 -192l354 110l-715 1549zM567 542l-178 9l56 420zM774 1717l-134 -1568l726 71q76 318 76 339l-517 -109l49 360l408 71l2 24l-3 10v342l-349 -97q38 248 48 255t373 54q78 319 76 340q-733 -88 -755 -92z" />
    <glyph glyph-name="Ccedilla" unicode="&#xc7;" horiz-adv-x="1105" 
d="M580 39q104 -31 100 -92q-3 -42 -41 -65q-34 -20 -74 -16l-29 -1l-5 -70q139 -4 226 30q92 36 97 115q8 102 -142 145l10 99q120 32 259 87l-108 406q-107 -127 -219 -200q-224 -148 -248 115q-31 148 21 309q103 322 515 389l107 314q-35 13 -95 18q-120 9 -242 -32
q-391 -133 -659 -722q-24 -69 -39 -165q-31 -193 12 -326q59 -187 257 -230q125 -27 303 5z" />
    <glyph glyph-name="Egrave" unicode="&#xc8;" horiz-adv-x="875" 
d="M175 1717l-134 -1568l726 71q76 318 76 339l-517 -109l49 360l408 71l2 24l-3 10v342l-349 -97q38 248 48 255t373 54q78 319 76 340q-733 -88 -755 -92zM572 2193l-250 -81l257 -280l85 26z" />
    <glyph glyph-name="Eacute" unicode="&#xc9;" horiz-adv-x="875" 
d="M175 1717l-134 -1568l726 71q76 318 76 339l-517 -109l49 360l408 71l2 24l-3 10v342l-349 -97q38 248 48 255t373 54q78 319 76 340q-733 -88 -755 -92zM840 2187l-246 30l-166 -344l125 -34z" />
    <glyph glyph-name="Ecircumflex" unicode="&#xca;" horiz-adv-x="875" 
d="M171 1539l-134 -1568l726 71q76 318 76 339l-517 -109l49 360l408 71l2 24l-3 10v342l-349 -97q38 248 48 255t373 54q78 319 76 340q-733 -88 -755 -92zM634 1913l-120 -3l-217 -224l158 -34l110 134l114 -120l147 41z" />
    <glyph glyph-name="Edieresis" unicode="&#xcb;" horiz-adv-x="875" 
d="M175 1717l-134 -1568l726 71q76 318 76 339l-517 -109l49 360l408 71l2 24l-3 10v342l-349 -97q38 248 48 255t373 54q78 319 76 340q-733 -88 -755 -92zM834.5 2025q35.5 -33 35.5 -80t-35.5 -80t-84.5 -33q-50 0 -85.5 33t-35.5 80t35.5 80t85.5 33q49 0 84.5 -33z
M484.5 2029q35.5 -33 35.5 -80t-35.5 -80t-84.5 -33q-50 0 -85.5 33t-35.5 80t35.5 80t85.5 33q49 0 84.5 -33z" />
    <glyph glyph-name="Igrave" unicode="&#xcc;" horiz-adv-x="589" 
d="M238 61l175 -25l96 1638l-474 -73zM365 2085l-250 -81l257 -280l85 26z" />
    <glyph glyph-name="Iacute" unicode="&#xcd;" horiz-adv-x="589" 
d="M258 61l175 -25l96 1638l-474 -73zM667 2050l-246 30l-166 -344l125 -34z" />
    <glyph glyph-name="Icircumflex" unicode="&#xce;" horiz-adv-x="589" 
d="M231 61l175 -25l96 1638l-474 -73zM437 1972l-120 -3l-217 -224l158 -34l110 134l114 -120l147 41z" />
    <glyph glyph-name="Idieresis" unicode="&#xcf;" horiz-adv-x="589" 
d="M222 61l175 -25l96 1638l-474 -73zM606.5 1944q35.5 -33 35.5 -80t-35.5 -80t-84.5 -33q-50 0 -85.5 33t-35.5 80t35.5 80t85.5 33q49 0 84.5 -33zM256.5 1948q35.5 -33 35.5 -80t-35.5 -80t-84.5 -33q-50 0 -85.5 33t-35.5 80t35.5 80t85.5 33q49 0 84.5 -33z" />
    <glyph glyph-name="Eth" unicode="&#xd0;" horiz-adv-x="1262" 
d="M585 1202v283q6 14 18 14q306 -5 410 -297q66 -469 -344 -618l-33 -9l-15 -3q-18 -6 -36 -6v467l173 7l-15 164zM119 1172l8 -153l204 -1l32 -529l-9 -3l-87 -6l-23 -3l-48 -3q0 -12 48 -279q17 -6 269.5 69t532.5 287q425 387 257.5 821t-611.5 460q-422 13 -698 -53
l55 -340l255 35l23 -290z" />
    <glyph glyph-name="Ntilde" unicode="&#xd1;" horiz-adv-x="1164" 
d="M51 122l318 -39l57 702l219 -707l641 1574l-357 8l-234 -883l-396 996zM502 1861q-28 -44 -37 -108l117 -27q6 42 25 55q23 15 68 6q46 -9 100 -38q105 -61 181 -41q33 10 72 35q24 16 75 57l7 6l-63 127l-7 -5q-81 -66 -111 -73q-21 -5 -46 3q-23 7 -60 28
q-66 38 -126 50q-86 17 -145 -22q-30 -20 -50 -53z" />
    <glyph glyph-name="Ograve" unicode="&#xd2;" horiz-adv-x="1242" 
d="M1143.5 1448q97.5 -253 17.5 -598q-81 -345 -292.5 -579.5t-430.5 -221.5t-316.5 266t-16.5 598q80 345 291.5 579.5t430.5 221.5t316.5 -266zM644 1123q-73 9 -147 -92.5t-106 -254.5q-31 -153 -1.5 -268t102.5 -124q74 -9 148 93t105 255q32 153 2 267.5t-103 123.5z
M886 2144l-250 -81l257 -280l85 26z" />
    <glyph glyph-name="Oacute" unicode="&#xd3;" horiz-adv-x="1242" 
d="M1143.5 1448q97.5 -253 17.5 -598q-81 -345 -292.5 -579.5t-430.5 -221.5t-316.5 266t-16.5 598q80 345 291.5 579.5t430.5 221.5t316.5 -266zM644 1123q-73 9 -147 -92.5t-106 -254.5q-31 -153 -1.5 -268t102.5 -124q74 -9 148 93t105 255q32 153 2 267.5t-103 123.5z
M1271 2121l-246 30l-166 -344l125 -34z" />
    <glyph glyph-name="Ocircumflex" unicode="&#xd4;" horiz-adv-x="1242" 
d="M1143.5 1448q97.5 -253 17.5 -598q-81 -345 -292.5 -579.5t-430.5 -221.5t-316.5 266t-16.5 598q80 345 291.5 579.5t430.5 221.5t316.5 -266zM644 1123q-73 9 -147 -92.5t-106 -254.5q-31 -153 -1.5 -268t102.5 -124q74 -9 148 93t105 255q32 153 2 267.5t-103 123.5z
M985 2020l-120 -3l-217 -224l158 -34l110 134l114 -120l147 41z" />
    <glyph glyph-name="Otilde" unicode="&#xd5;" horiz-adv-x="1242" 
d="M1143.5 1448q97.5 -253 17.5 -598q-81 -345 -292.5 -579.5t-430.5 -221.5t-316.5 266t-16.5 598q80 345 291.5 579.5t430.5 221.5t316.5 -266zM644 1123q-73 9 -147 -92.5t-106 -254.5q-31 -153 -1.5 -268t102.5 -124q74 -9 148 93t105 255q32 153 2 267.5t-103 123.5z
M557 1929q-28 -44 -37 -108l117 -27q6 42 25 55q23 15 68 6q46 -9 100 -38q105 -61 181 -41q33 10 72 35q24 16 75 57l7 6l-63 127l-7 -5q-81 -66 -111 -73q-21 -5 -46 3q-23 7 -60 28q-66 38 -126 50q-86 17 -145 -22q-30 -20 -50 -53z" />
    <glyph glyph-name="Odieresis" unicode="&#xd6;" horiz-adv-x="1242" 
d="M1143.5 1448q97.5 -253 17.5 -598q-81 -345 -292.5 -579.5t-430.5 -221.5t-316.5 266t-16.5 598q80 345 291.5 579.5t430.5 221.5t316.5 -266zM644 1123q-73 9 -147 -92.5t-106 -254.5q-31 -153 -1.5 -268t102.5 -124q74 -9 148 93t105 255q32 153 2 267.5t-103 123.5z
M1103.5 1983q35.5 -33 35.5 -80t-35.5 -80t-84.5 -33q-50 0 -85.5 33t-35.5 80t35.5 80t85.5 33q49 0 84.5 -33zM753.5 1987q35.5 -33 35.5 -80t-35.5 -80t-84.5 -33q-50 0 -85.5 33t-35.5 80t35.5 80t85.5 33q49 0 84.5 -33z" />
    <glyph glyph-name="multiply" unicode="&#xd7;" horiz-adv-x="742" 
d="M13 631l144 -169l189 174l199 -222l152 130l-197 244l201 188l-156 167l-186 -184l-176 218l-162 -183l176 -195z" />
    <glyph glyph-name="Oslash" unicode="&#xd8;" horiz-adv-x="1096" 
d="M470 433q-97 109 -138 282q-41 175 -3 315q37 139 131 161q92 21 188 -85q95 -110 136 -285q41 -173 5 -313q-38 -139 -131 -161t-188 86zM174 1218q-161 -192 -161 -463t161 -462q162 -192 390 -192q227 0 389 192q161 191 161 462t-161 463q-162 192 -389 192
q-228 0 -390 -192zM900 1445l-910 -1227l117 -144l855 1237z" />
    <glyph glyph-name="Ugrave" unicode="&#xd9;" horiz-adv-x="1282" 
d="M846 1649q61 -809 62 -816q-1 -184 -77 -318q-77 -133 -182 -133q-71 0 -131 76q-122 157 -88 416l66 756l-385 -32l-43 -656q0 -391 171 -666q170 -276 412 -276q241 0 412 275q170 275 170 663v695zM803 2094l-250 -81l257 -280l85 26z" />
    <glyph glyph-name="Uacute" unicode="&#xda;" horiz-adv-x="1282" 
d="M846 1649q61 -809 62 -816q-1 -184 -77 -318q-77 -133 -182 -133q-71 0 -131 76q-122 157 -88 416l66 756l-385 -32l-43 -656q0 -391 171 -666q170 -276 412 -276q241 0 412 275q170 275 170 663v695zM1093 2063l-246 30l-166 -344l125 -34z" />
    <glyph glyph-name="Ucircumflex" unicode="&#xdb;" horiz-adv-x="1282" 
d="M846 1649q61 -809 62 -816q-1 -184 -77 -318q-77 -133 -182 -133q-71 0 -131 76q-122 157 -88 416l66 756l-385 -32l-43 -656q0 -391 171 -666q170 -276 412 -276q241 0 412 275q170 275 170 663v695zM849 2032l-120 -3l-217 -224l158 -34l110 134l114 -120l147 41z" />
    <glyph glyph-name="Udieresis" unicode="&#xdc;" horiz-adv-x="1282" 
d="M846 1649q61 -809 62 -816q-1 -184 -77 -318q-77 -133 -182 -133q-71 0 -131 76q-122 157 -88 416l66 756l-385 -32l-43 -656q0 -391 171 -666q170 -276 412 -276q241 0 412 275q170 275 170 663v695zM1033.5 1963q35.5 -33 35.5 -80t-35.5 -80t-84.5 -33q-50 0 -85.5 33
t-35.5 80t35.5 80t85.5 33q49 0 84.5 -33zM683.5 1967q35.5 -33 35.5 -80t-35.5 -80t-84.5 -33q-50 0 -85.5 33t-35.5 80t35.5 80t85.5 33q49 0 84.5 -33z" />
    <glyph glyph-name="Yacute" unicode="&#xdd;" horiz-adv-x="1142" 
d="M444 720l-10 -720l298 24l-11 649l463 898l-345 131l-262 -762l-286 726l-392 -119zM866 2084l-246 30l-166 -344l125 -34z" />
    <glyph glyph-name="Thorn" unicode="&#xde;" horiz-adv-x="1054" 
d="M83 457l6 -184l13 -412l246 30l6 440q198 56 411 170q414 264 251 560.5t-596 314.5q-26 1 -52 1l5 399l-331 -39l14 -365l7 -241zM710 956q61 -303 -316 -399l-31 -6l-14 -2q-16 -4 -33 -4v594q299 6 394 -183z" />
    <glyph glyph-name="germandbls" unicode="&#xdf;" horiz-adv-x="1043" 
d="M744 715q78 47 130 147q62 140 -50.5 323t-350.5 168q-78 7 -166 -15q-176 -43 -225 -186q-37 -68 -49 -300l-1 -158l24 -634l289 9l-60 637l-6 153l-8 86q-1 70 30 132q61 122 218 80q39 -13 73 -42q69 -59 49 -140q-67 -185 -210 -284q199 -114 272 -192q30 -31 46 -84
q17 -53 12 -100q-6 -51 -36 -73q-36 -25 -99 -4q-35 12 -52 36q-14 21 -24 21l-132 -133q102 -146 243 -152q126 -7 229 92q102 97 115 229q14 147 -56.5 239t-204.5 145z" />
    <glyph glyph-name="agrave" unicode="&#xe0;" horiz-adv-x="836" 
d="M276 343q-36 60 -36 144q0 85 36 145q36 61 88 61q51 0 87 -61q36 -60 36 -145q0 -84 -36 -144q-36 -61 -87 -61q-52 0 -88 61zM663 932l-200 -20l-6 -54q-54 15 -108 15q-159 0 -271 -107q-113 -108 -113 -260t113 -260q112 -107 271 -107q69 0 187 63l12 -69l231 63z
M321 1324l-250 -81l257 -280l85 26z" />
    <glyph glyph-name="aacute" unicode="&#xe1;" horiz-adv-x="836" 
d="M276 343q-36 60 -36 144q0 85 36 145q36 61 88 61q51 0 87 -61q36 -60 36 -145q0 -84 -36 -144q-36 -61 -87 -61q-52 0 -88 61zM663 932l-200 -20l-6 -54q-54 15 -108 15q-159 0 -271 -107q-113 -108 -113 -260t113 -260q112 -107 271 -107q69 0 187 63l12 -69l231 63z
M623 1298l-246 30l-166 -344l125 -34z" />
    <glyph glyph-name="acircumflex" unicode="&#xe2;" horiz-adv-x="836" 
d="M276 343q-36 60 -36 144q0 85 36 145q36 61 88 61q51 0 87 -61q36 -60 36 -145q0 -84 -36 -144q-36 -61 -87 -61q-52 0 -88 61zM663 932l-200 -20l-6 -54q-54 15 -108 15q-159 0 -271 -107q-113 -108 -113 -260t113 -260q112 -107 271 -107q69 0 187 63l12 -69l231 63z
M375 1230l-120 -3l-217 -224l158 -34l110 134l114 -120l147 41z" />
    <glyph glyph-name="atilde" unicode="&#xe3;" horiz-adv-x="836" 
d="M276 343q-36 60 -36 144q0 85 36 145q36 61 88 61q51 0 87 -61q36 -60 36 -145q0 -84 -36 -144q-36 -61 -87 -61q-52 0 -88 61zM663 932l-200 -20l-6 -54q-54 15 -108 15q-159 0 -271 -107q-113 -108 -113 -260t113 -260q112 -107 271 -107q69 0 187 63l12 -69l231 63z
M44 1138q-28 -44 -37 -108l117 -27q6 42 25 55q23 15 68 6q46 -9 100 -38q105 -61 181 -41q33 10 72 35q24 16 75 57l7 6l-63 127l-7 -5q-81 -66 -111 -73q-21 -5 -46 3q-23 7 -60 28q-66 38 -126 50q-86 17 -145 -22q-30 -20 -50 -53z" />
    <glyph glyph-name="adieresis" unicode="&#xe4;" horiz-adv-x="836" 
d="M276 343q-36 60 -36 144q0 85 36 145q36 61 88 61q51 0 87 -61q36 -60 36 -145q0 -84 -36 -144q-36 -61 -87 -61q-52 0 -88 61zM663 932l-200 -20l-6 -54q-54 15 -108 15q-159 0 -271 -107q-113 -108 -113 -260t113 -260q112 -107 271 -107q69 0 187 63l12 -69l231 63z
M591.5 1181q35.5 -33 35.5 -80t-35.5 -80t-84.5 -33q-50 0 -85.5 33t-35.5 80t35.5 80t85.5 33q49 0 84.5 -33zM241.5 1185q35.5 -33 35.5 -80t-35.5 -80t-84.5 -33q-50 0 -85.5 33t-35.5 80t35.5 80t85.5 33q49 0 84.5 -33z" />
    <glyph glyph-name="aring" unicode="&#xe5;" horiz-adv-x="836" 
d="M276 343q-36 60 -36 144q0 85 36 145q36 61 88 61q51 0 87 -61q36 -60 36 -145q0 -84 -36 -144q-36 -61 -87 -61q-52 0 -88 61zM663 932l-200 -20l-6 -54q-54 15 -108 15q-159 0 -271 -107q-113 -108 -113 -260t113 -260q112 -107 271 -107q69 0 187 63l12 -69l231 63z
M468.5 1211.5q47.5 -44.5 47.5 -107.5q0 -62 -47.5 -106.5t-113.5 -44.5q-67 0 -114.5 44.5t-47.5 106.5q0 63 47.5 107.5t114.5 44.5q66 0 113.5 -44.5zM345 1155q-13 0 -22.5 -12.5t-9.5 -30.5t9.5 -30.5t22.5 -12.5t22.5 12.5t9.5 30.5t-9.5 30.5t-22.5 12.5z" />
    <glyph glyph-name="ae" unicode="&#xe6;" horiz-adv-x="1455" 
d="M661 583q4 -93 -59 -149q-139 -60 -187 83q-26 152 113 192q113 -20 133 -126zM1211 635l-274 -77q-21 124 60 194q145 37 214 -117zM1003 104q223 -52 454 83l-19 188q-162 -104 -315 -92.5t-171 151.5l519 134q-29 114 -40 138q-132 281 -469 224q-26 -8 -50 -17
q-73 298 -560 264q-27 -7 -44 -7l-16 -47l-4 -13l-10 -30l-3 -13l-26 -83l13 3l23 3l23 7l20 3h21l6 4l36 3q290 27 270 -189l-7 -20q-223 109 -395 -40q-157 -199 -44 -415q106 -163 276 -186q157 -14 260 86q99 -111 223 -131q14 -5 29 -8z" />
    <glyph glyph-name="ccedilla" unicode="&#xe7;" horiz-adv-x="717" 
d="M265 52q104 -27 100 -78q-3 -36 -41 -54q-34 -18 -74 -14l-29 -1l-4 -59q138 -3 224 25q91 31 97 97q7 86 -142 122l6 49q81 -9 130 1q41 9 103 46l-27 243q-89 -30 -192 17q-86 39 -127 108q-42 69 -15 127q26 57 102 72q77 14 160 -21l125 216q-74 44 -159 55
q-175 23 -315 -88q-141 -110 -164 -288q-23 -179 84 -321q69 -91 165 -133z" />
    <glyph glyph-name="egrave" unicode="&#xe8;" 
d="M45 467q79 -244 289 -293t428 78l-18 176q-153 -98 -297 -87t-161 142l489 125q-27 107 -38 129q-124 263 -442 210q-360 -110 -250 -480zM530 671l-258 -72q-20 116 56 181q137 35 202 -109zM314 1418l-250 -81l257 -280l85 26z" />
    <glyph glyph-name="eacute" unicode="&#xe9;" 
d="M45 467q79 -244 289 -293t428 78l-18 176q-153 -98 -297 -87t-161 142l489 125q-27 107 -38 129q-124 263 -442 210q-360 -110 -250 -480zM530 671l-258 -72q-20 116 56 181q137 35 202 -109zM693 1365l-246 30l-166 -344l125 -34z" />
    <glyph glyph-name="ecircumflex" unicode="&#xea;" 
d="M45 467q79 -244 289 -293t428 78l-18 176q-153 -98 -297 -87t-161 142l489 125q-27 107 -38 129q-124 263 -442 210q-360 -110 -250 -480zM530 671l-258 -72q-20 116 56 181q137 35 202 -109zM435 1293l-120 -3l-217 -224l158 -34l110 134l114 -120l147 41z" />
    <glyph glyph-name="edieresis" unicode="&#xeb;" 
d="M45 467q79 -244 289 -293t428 78l-18 176q-153 -98 -297 -87t-161 142l489 125q-27 107 -38 129q-124 263 -442 210q-360 -110 -250 -480zM530 671l-258 -72q-20 116 56 181q137 35 202 -109zM640.5 1222q35.5 -33 35.5 -80t-35.5 -80t-84.5 -33q-50 0 -85.5 33t-35.5 80
t35.5 80t85.5 33q49 0 84.5 -33zM290.5 1226q35.5 -33 35.5 -80t-35.5 -80t-84.5 -33q-50 0 -85.5 33t-35.5 80t35.5 80t85.5 33q49 0 84.5 -33z" />
    <glyph glyph-name="igrave" unicode="&#xec;" horiz-adv-x="360" 
d="M26 759l73 -651l212 56l9 662zM146 1259l-250 -81l257 -280l85 26z" />
    <glyph glyph-name="iacute" unicode="&#xed;" horiz-adv-x="404" 
d="M26 759l73 -651l212 56l9 662zM493 1266l-246 30l-166 -344l125 -34z" />
    <glyph glyph-name="icircumflex" unicode="&#xee;" horiz-adv-x="401" 
d="M27 759l73 -651l212 56l9 662zM250 1160l-120 -3l-217 -224l158 -34l110 134l114 -120l147 41z" />
    <glyph glyph-name="idieresis" unicode="&#xef;" horiz-adv-x="360" 
d="M26 759l73 -651l212 56l9 662zM468.5 1124q35.5 -33 35.5 -80t-35.5 -80t-84.5 -33q-50 0 -85.5 33t-35.5 80t35.5 80t85.5 33q49 0 84.5 -33zM118.5 1128q35.5 -33 35.5 -80t-35.5 -80t-84.5 -33q-50 0 -85.5 33t-35.5 80t35.5 80t85.5 33q49 0 84.5 -33z" />
    <glyph glyph-name="eth" unicode="&#xf0;" horiz-adv-x="885" 
d="M291 367q-21 56 17 129q37 72 111 117q74 47 139 39q66 -9 87 -65q20 -57 -18 -130q-37 -72 -110 -117t-140 -38q-66 8 -86 65zM563 1308l-75 35l-70 -95q-55 35 -115 68l-114 -173q62 -14 119 -43l-72 -96l75 -47l70 98q100 -73 180 -199q-109 22 -221 -20
q-167 -63 -260 -225q-92 -160 -56 -324q34 -167 178 -239q143 -72 310 -10q168 63 261 227q122 203 69 440q-64 283 -356 496z" />
    <glyph glyph-name="ntilde" unicode="&#xf1;" horiz-adv-x="763" 
d="M575 887q-48 5 -111 -6q-126 -24 -206 -109l-17 90l-241 -22l112 -764l1 2v-8v-6l215 18q-21 177 -49 470q4 7 8 22q18 45 55 77q53 45 93 -15q38 -58 17 -283q-6 -67 -18 -151q-10 -70 -10 -71l272 63q29 144 34 301q10 313 -111 377q-18 9 -44 15zM50 1121
q-28 -44 -37 -108l117 -27q6 42 25 55q23 15 68 6q46 -9 100 -38q105 -61 181 -41q33 10 72 35q24 16 75 57l7 6l-63 127l-7 -5q-81 -66 -111 -73q-21 -5 -46 3q-23 7 -60 28q-66 38 -126 50q-86 17 -145 -22q-30 -20 -50 -53z" />
    <glyph glyph-name="ograve" unicode="&#xf2;" horiz-adv-x="704" 
d="M289 296q-47 40 -69 109q-21 69 -5 126t61 69t91 -28q47 -40 69 -109t5 -126q-16 -58 -61 -70q-44 -12 -91 29zM472 843q-128 90 -258 55t-186 -174t-5 -301t179 -252q127 -89 257 -54t186 174t5 301q-50 162 -178 251zM293 1254l-250 -81l257 -280l85 26z" />
    <glyph glyph-name="oacute" unicode="&#xf3;" horiz-adv-x="704" 
d="M289 296q-47 40 -69 109q-21 69 -5 126t61 69t91 -28q47 -40 69 -109t5 -126q-16 -58 -61 -70q-44 -12 -91 29zM472 843q-128 90 -258 55t-186 -174t-5 -301t179 -252q127 -89 257 -54t186 174t5 301q-50 162 -178 251zM576 1222l-246 30l-166 -344l125 -34z" />
    <glyph glyph-name="ocircumflex" unicode="&#xf4;" horiz-adv-x="704" 
d="M289 296q-47 40 -69 109q-21 69 -5 126t61 69t91 -28q47 -40 69 -109t5 -126q-16 -58 -61 -70q-44 -12 -91 29zM472 843q-128 90 -258 55t-186 -174t-5 -301t179 -252q127 -89 257 -54t186 174t5 301q-50 162 -178 251zM337 1101l-120 -3l-217 -224l158 -34l110 134
l114 -120l147 41z" />
    <glyph glyph-name="otilde" unicode="&#xf5;" horiz-adv-x="704" 
d="M289 296q-47 40 -69 109q-21 69 -5 126t61 69t91 -28q47 -40 69 -109t5 -126q-16 -58 -61 -70q-44 -12 -91 29zM472 843q-128 90 -258 55t-186 -174t-5 -301t179 -252q127 -89 257 -54t186 174t5 301q-50 162 -178 251zM24 1015q-28 -44 -37 -108l117 -27q6 42 25 55
q23 15 68 6q46 -9 100 -38q105 -61 181 -41q33 10 72 35q24 16 75 57l7 6l-63 127l-7 -5q-81 -66 -111 -73q-21 -5 -46 3q-23 7 -60 28q-66 38 -126 50q-86 17 -145 -22q-30 -20 -50 -53z" />
    <glyph glyph-name="odieresis" unicode="&#xf6;" horiz-adv-x="704" 
d="M289 296q-47 40 -69 109q-21 69 -5 126t61 69t91 -28q47 -40 69 -109t5 -126q-16 -58 -61 -70q-44 -12 -91 29zM472 843q-128 90 -258 55t-186 -174t-5 -301t179 -252q127 -89 257 -54t186 174t5 301q-50 162 -178 251zM572.5 1075q35.5 -33 35.5 -80t-35.5 -80
t-84.5 -33q-50 0 -85.5 33t-35.5 80t35.5 80t85.5 33q49 0 84.5 -33zM222.5 1079q35.5 -33 35.5 -80t-35.5 -80t-84.5 -33q-50 0 -85.5 33t-35.5 80t35.5 80t85.5 33q49 0 84.5 -33z" />
    <glyph glyph-name="divide" unicode="&#xf7;" horiz-adv-x="873" 
d="M61 1065l711 9l21 -189l-759 3zM518.5 1322.5q33.5 -33.5 33.5 -80.5t-33.5 -80t-80.5 -33t-80 33t-33 80t33 80.5t80 33.5t80.5 -33.5zM502.5 783.5q33.5 -33.5 33.5 -80.5t-33.5 -80t-80.5 -33t-80 33t-33 80t33 80.5t80 33.5t80.5 -33.5z" />
    <glyph glyph-name="oslash" unicode="&#xf8;" horiz-adv-x="704" 
d="M289 189q-47 40 -69 109q-21 69 -5 126t61 69t91 -28q47 -40 69 -109t5 -126q-16 -58 -61 -70q-44 -12 -91 29zM472 736q-128 90 -258 55t-186 -174t-5 -301t179 -252q127 -89 257 -54t186 174t5 301q-50 162 -178 251zM563 768l-532 -716l95 -54l520 701z" />
    <glyph glyph-name="ugrave" unicode="&#xf9;" horiz-adv-x="720" 
d="M467 923q28 -175 -25 -471q-3 -7 -7 -23q-16 -45 -52 -78q-51 -48 -93 11q-41 57 -29 282q3 67 12 152q7 70 7 71l-269 -75v-157q0 -105 25 -221q49 -233 173 -292q17 -8 44 -13q76 -6 163 26q173 63 226 249q8 28 10 49q36 173 29 517zM320 1355l-250 -81l257 -280
l85 26z" />
    <glyph glyph-name="uacute" unicode="&#xfa;" horiz-adv-x="720" 
d="M467 923q28 -175 -25 -471q-3 -7 -7 -23q-16 -45 -52 -78q-51 -48 -93 11q-41 57 -29 282q3 67 12 152q7 70 7 71l-269 -75v-157q0 -105 25 -221q49 -233 173 -292q17 -8 44 -13q76 -6 163 26q173 63 226 249q8 28 10 49q36 173 29 517zM663 1315l-246 30l-166 -344
l125 -34z" />
    <glyph glyph-name="ucircumflex" unicode="&#xfb;" horiz-adv-x="720" 
d="M467 923q28 -175 -25 -471q-3 -7 -7 -23q-16 -45 -52 -78q-51 -48 -93 11q-41 57 -29 282q3 67 12 152q7 70 7 71l-269 -75v-157q0 -105 25 -221q49 -233 173 -292q17 -8 44 -13q76 -6 163 26q173 63 226 249q8 28 10 49q36 173 29 517zM423 1268l-120 -3l-217 -224
l158 -34l110 134l114 -120l147 41z" />
    <glyph glyph-name="udieresis" unicode="&#xfc;" horiz-adv-x="720" 
d="M467 923q28 -175 -25 -471q-3 -7 -7 -23q-16 -45 -52 -78q-51 -48 -93 11q-41 57 -29 282q3 67 12 152q7 70 7 71l-269 -75v-157q0 -105 25 -221q49 -233 173 -292q17 -8 44 -13q76 -6 163 26q173 63 226 249q8 28 10 49q36 173 29 517zM620.5 1183q35.5 -33 35.5 -80
t-35.5 -80t-84.5 -33q-50 0 -85.5 33t-35.5 80t35.5 80t85.5 33q49 0 84.5 -33zM270.5 1187q35.5 -33 35.5 -80t-35.5 -80t-84.5 -33q-50 0 -85.5 33t-35.5 80t35.5 80t85.5 33q49 0 84.5 -33z" />
    <glyph glyph-name="yacute" unicode="&#xfd;" horiz-adv-x="648" 
d="M460 1140l-123 -416l-99 293l-7 -2l-235 -142l217 -416l-201 -693l197 -139l476 1420zM653 1491l-246 30l-166 -344l125 -34z" />
    <glyph glyph-name="thorn" unicode="&#xfe;" horiz-adv-x="835" 
d="M476 646q20 -43 8 -121q-11 -75 -50 -112q-34 -33 -78 -26q-42 6 -60 47q-20 44 -8 121q11 75 50 112q34 33 78 26q42 -6 60 -47zM297 -165l18 371q82 -25 168 -16q158 17 259 128t86 251t-137 227t-280 70q-51 -5 -101 -23l11 469l-183 23l-111 -1582z" />
    <glyph glyph-name="ydieresis" unicode="&#xff;" horiz-adv-x="648" 
d="M460 1140l-123 -416l-99 293l-7 -2l-235 -142l217 -416l-201 -693l197 -139l476 1420zM597.5 1380q35.5 -33 35.5 -80t-35.5 -80t-84.5 -33q-50 0 -85.5 33t-35.5 80t35.5 80t85.5 33q49 0 84.5 -33zM247.5 1384q35.5 -33 35.5 -80t-35.5 -80t-84.5 -33q-50 0 -85.5 33
t-35.5 80t35.5 80t85.5 33q49 0 84.5 -33z" />
    <glyph glyph-name="Amacron" unicode="&#x100;" horiz-adv-x="956" 
d="M20 48l291 2l35 201l283 20l102 -192l354 110l-715 1549zM567 542l-178 9l56 420zM241 1971l445 10l14 -146l-496 -12z" />
    <glyph glyph-name="amacron" unicode="&#x101;" horiz-adv-x="836" 
d="M276 343q-36 60 -36 144q0 85 36 145q36 61 88 61q51 0 87 -61q36 -60 36 -145q0 -84 -36 -144q-36 -61 -87 -61q-52 0 -88 61zM663 932l-200 -20l-6 -54q-54 15 -108 15q-159 0 -271 -107q-113 -108 -113 -260t113 -260q112 -107 271 -107q69 0 187 63l12 -69l231 63z
M106 1157l445 10l14 -146l-496 -12z" />
    <glyph glyph-name="Abreve" unicode="&#x102;" horiz-adv-x="956" 
d="M20 48l291 2l35 201l283 20l102 -192l354 110l-715 1549zM567 542l-178 9l56 420zM204 2051q234 -168 433 63l53 -144q-267 -311 -540 -76z" />
    <glyph glyph-name="abreve" unicode="&#x103;" horiz-adv-x="836" 
d="M276 343q-36 60 -36 144q0 85 36 145q36 61 88 61q51 0 87 -61q36 -60 36 -145q0 -84 -36 -144q-36 -61 -87 -61q-52 0 -88 61zM663 932l-200 -20l-6 -54q-54 15 -108 15q-159 0 -271 -107q-113 -108 -113 -260t113 -260q112 -107 271 -107q69 0 187 63l12 -69l231 63z
M93 1233q234 -168 433 63l53 -144q-267 -311 -540 -76z" />
    <glyph glyph-name="Aogonek" unicode="&#x104;" horiz-adv-x="956" 
d="M567 542l-178 9l56 420zM705 -97q25 -86 154 -103q122 -15 344 36l-22 78l-77 -18q-52 -15 -101 -1q-56 15 -69 62q-19 65 138 228l13 4l-715 1549l-350 -1690l291 2l35 201l283 20l102 -192l101 31q-138 -106 -127 -207z" />
    <glyph glyph-name="aogonek" unicode="&#x105;" horiz-adv-x="836" 
d="M276 343q-36 60 -36 144q0 85 36 145q36 61 88 61q51 0 87 -61q36 -60 36 -145q0 -84 -36 -144q-36 -61 -87 -61q-52 0 -88 61zM617 -54q35 -47 119 -27q78 19 203 103l-32 43l-43 -30q-28 -21 -62 -24q-38 -4 -57 22q-25 34 27 161l7 2l-2 11q2 3 3 6h-4l-113 719
l-200 -20l-6 -54q-54 15 -108 15q-159 0 -271 -107q-113 -108 -113 -260t113 -260q112 -107 271 -107q69 0 187 63l12 -69l148 40q-119 -147 -79 -227z" />
    <glyph glyph-name="Cacute" unicode="&#x106;" horiz-adv-x="1105" 
d="M1073 1604q-355 -32 -613.5 -196t-367.5 -436.5t-46 -527t285.5 -302.5t673.5 129l-108 406q-107 -127 -219 -200q-224 -148 -248 115q-31 148 21 309q103 322 515 389zM972 2041l-246 30l-166 -344l125 -34z" />
    <glyph glyph-name="cacute" unicode="&#x107;" horiz-adv-x="717" 
d="M608 429q-89 -30 -192 17q-86 39 -127 108q-42 69 -15 127q26 57 102 72q77 14 160 -21l125 216q-74 44 -159 55q-175 23 -315 -88q-141 -110 -164 -288q-23 -179 84 -321q108 -143 283 -165q90 -12 142 -1q41 9 103 46zM797 1445l-246 30l-166 -344l125 -34z" />
    <glyph glyph-name="Ccircumflex" unicode="&#x108;" horiz-adv-x="1105" 
d="M1073 1604q-355 -32 -613.5 -196t-367.5 -436.5t-46 -527t285.5 -302.5t673.5 129l-108 406q-107 -127 -219 -200q-224 -148 -248 115q-31 148 21 309q103 322 515 389zM614 1921l-120 -3l-217 -224l158 -34l110 134l114 -120l147 41z" />
    <glyph glyph-name="ccircumflex" unicode="&#x109;" horiz-adv-x="717" 
d="M608 429q-89 -30 -192 17q-86 39 -127 108q-42 69 -15 127q26 57 102 72q77 14 160 -21l125 216q-74 44 -159 55q-175 23 -315 -88q-141 -110 -164 -288q-23 -179 84 -321q108 -143 283 -165q90 -12 142 -1q41 9 103 46zM412 1345l-120 -3l-217 -224l158 -34l110 134
l114 -120l147 41z" />
    <glyph glyph-name="Cdotaccent" unicode="&#x10a;" horiz-adv-x="1105" 
d="M1073 1604q-355 -32 -613.5 -196t-367.5 -436.5t-46 -527t285.5 -302.5t673.5 129l-108 406q-107 -127 -219 -200q-224 -148 -248 115q-31 148 21 309q103 322 515 389zM621.5 1853q42.5 -40 42.5 -96t-42.5 -96t-102.5 -40t-102.5 40t-42.5 96t42.5 96t102.5 40
t102.5 -40z" />
    <glyph glyph-name="cdotaccent" unicode="&#x10b;" horiz-adv-x="717" 
d="M608 429q-89 -30 -192 17q-86 39 -127 108q-42 69 -15 127q26 57 102 72q77 14 160 -21l125 216q-74 44 -159 55q-175 23 -315 -88q-141 -110 -164 -288q-23 -179 84 -321q108 -143 283 -165q90 -12 142 -1q41 9 103 46zM492.5 1311q42.5 -40 42.5 -96t-42.5 -96
t-102.5 -40t-102.5 40t-42.5 96t42.5 96t102.5 40t102.5 -40z" />
    <glyph glyph-name="Ccaron" unicode="&#x10c;" horiz-adv-x="1105" 
d="M1073 1604q-355 -32 -613.5 -196t-367.5 -436.5t-46 -527t285.5 -302.5t673.5 129l-108 406q-107 -127 -219 -200q-224 -148 -248 115q-31 148 21 309q103 322 515 389zM567 1646l120 3l217 224l-158 34l-110 -134l-114 120l-147 -41z" />
    <glyph glyph-name="ccaron" unicode="&#x10d;" horiz-adv-x="717" 
d="M608 429q-89 -30 -192 17q-86 39 -127 108q-42 69 -15 127q26 57 102 72q77 14 160 -21l125 216q-74 44 -159 55q-175 23 -315 -88q-141 -110 -164 -288q-23 -179 84 -321q108 -143 283 -165q90 -12 142 -1q41 9 103 46zM360 1088l120 3l217 224l-158 34l-110 -134
l-114 120l-147 -41z" />
    <glyph glyph-name="Dcaron" unicode="&#x10e;" horiz-adv-x="1262" 
d="M-6 1729l55 -340l255 35l59 -985l-9 -3l-87 -6l-23 -3l-48 -3q0 -12 48 -279q17 -6 269.5 69t532.5 287q425 387 257.5 821t-611.5 460q-422 13 -698 -53zM1000 1192q100 -480 -298 -666l-32 -11l-15 -5q-17 -7 -35 -9l-67 952q5 15 17 16q305 18 430 -277zM523 1954
l120 3l217 224l-158 34l-110 -134l-114 120l-147 -41z" />
    <glyph glyph-name="dcaron" unicode="&#x10f;" horiz-adv-x="1158" 
d="M299 458q15 87 61 128q41 38 92 29q105 -19 74 -198q-16 -87 -61 -129q-41 -37 -92 -28q-106 19 -74 198zM571 1255l-14 -515q-130 34 -213 28q-153 -13 -254 -117q-100 -105 -89 -241q11 -135 127 -222t269 -75q49 4 98 20l-5 -48l245 -85l108 1277zM1192 1265
q53 -421 -307 -444q162 158 99 249l-109 15l18 188z" />
    <glyph glyph-name="Dcroat" unicode="&#x110;" horiz-adv-x="1262" 
d="M585 1202v283q6 14 18 14q306 -5 410 -297q66 -469 -344 -618l-33 -9l-15 -3q-18 -6 -36 -6v467l173 7l-15 164zM119 1172l8 -153l204 -1l32 -529l-9 -3l-87 -6l-23 -3l-48 -3q0 -12 48 -279q17 -6 269.5 69t532.5 287q425 387 257.5 821t-611.5 460q-422 13 -698 -53
l55 -340l255 35l23 -290z" />
    <glyph glyph-name="dcroat" unicode="&#x111;" horiz-adv-x="891" 
d="M299 458q15 87 61 128q41 38 92 29q105 -19 74 -198q-16 -87 -61 -129q-41 -37 -92 -28q-106 19 -74 198zM441 1030l-13 -134l133 -8l-4 -148q-130 34 -213 28q-153 -13 -254 -117q-100 -105 -89 -241q11 -135 127 -222t269 -75q49 4 98 20l-5 -48l245 -85l74 874l123 -7
l9 163h-119l21 247l-272 -22l-6 -225h-124z" />
    <glyph glyph-name="Emacron" unicode="&#x112;" horiz-adv-x="875" 
d="M175 1717l-134 -1568l726 71q76 318 76 339l-517 -109l49 360l408 71l2 24l-3 10v342l-349 -97q38 248 48 255t373 54q78 319 76 340q-733 -88 -755 -92zM370 1998l445 10l14 -146l-496 -12z" />
    <glyph glyph-name="emacron" unicode="&#x113;" 
d="M45 467q79 -244 289 -293t428 78l-18 176q-153 -98 -297 -87t-161 142l489 125q-27 107 -38 129q-124 263 -442 210q-360 -110 -250 -480zM530 671l-258 -72q-20 116 56 181q137 35 202 -109zM90 1170l445 10l14 -146l-496 -12z" />
    <glyph glyph-name="Ebreve" unicode="&#x114;" horiz-adv-x="875" 
d="M175 1656l-134 -1568l726 71q76 318 76 339l-517 -109l49 360l408 71l2 24l-3 10v342l-349 -97q38 248 48 255t373 54q78 319 76 340q-733 -88 -755 -92zM352 2053q234 -168 433 63l53 -144q-267 -311 -540 -76z" />
    <glyph glyph-name="ebreve" unicode="&#x115;" 
d="M45 467q79 -244 289 -293t428 78l-18 176q-153 -98 -297 -87t-161 142l489 125q-27 107 -38 129q-124 263 -442 210q-360 -110 -250 -480zM530 671l-258 -72q-20 116 56 181q137 35 202 -109zM89 1306q234 -168 433 63l53 -144q-267 -311 -540 -76z" />
    <glyph glyph-name="Edotaccent" unicode="&#x116;" horiz-adv-x="875" 
d="M175 1717l-134 -1568l726 71q76 318 76 339l-517 -109l49 360l408 71l2 24l-3 10v342l-349 -97q38 248 48 255t373 54q78 319 76 340q-733 -88 -755 -92zM671.5 2069q42.5 -40 42.5 -96t-42.5 -96t-102.5 -40t-102.5 40t-42.5 96t42.5 96t102.5 40t102.5 -40z" />
    <glyph glyph-name="edotaccent" unicode="&#x117;" 
d="M45 467q79 -244 289 -293t428 78l-18 176q-153 -98 -297 -87t-161 142l489 125q-27 107 -38 129q-124 263 -442 210q-360 -110 -250 -480zM530 671l-258 -72q-20 116 56 181q137 35 202 -109zM483.5 1278q42.5 -40 42.5 -96t-42.5 -96t-102.5 -40t-102.5 40t-42.5 96
t42.5 96t102.5 40t102.5 -40z" />
    <glyph glyph-name="Eogonek" unicode="&#x118;" horiz-adv-x="875" 
d="M393 -60q25 -86 154 -103q122 -15 344 36l-22 78l-77 -18q-52 -15 -101 -1q-56 15 -69 62q-18 65 135 225l10 1q76 318 76 339l-517 -109l49 360l408 71l2 24l-3 10v342l-349 -97q38 248 48 255t373 54q78 319 76 340q-733 -88 -755 -92l-134 -1568l562 55
q-223 -136 -210 -264z" />
    <glyph glyph-name="eogonek" unicode="&#x119;" 
d="M530 671l-258 -72q-20 116 56 181q137 35 202 -109zM387 -33q25 -86 154 -103q122 -15 344 36l-22 78l-77 -18q-52 -15 -101 -1q-56 15 -69 62q-18 65 135 225q6 3 11 6v5h-1l-17 171q-153 -98 -297 -87t-161 142l489 125q-27 107 -38 129q-124 263 -442 210
q-360 -110 -250 -480q79 -244 289 -293q82 -19 165 -11q-122 -101 -112 -196z" />
    <glyph glyph-name="Ecaron" unicode="&#x11a;" horiz-adv-x="875" 
d="M170 1646l-134 -1568l726 71q76 318 76 339l-517 -109l49 360l408 71l2 24l-3 10v342l-349 -97q38 248 48 255t373 54q78 319 76 340q-733 -88 -755 -92zM485 1797l120 3l217 224l-158 34l-110 -134l-114 120l-147 -41z" />
    <glyph glyph-name="ecaron" unicode="&#x11b;" 
d="M45 467q79 -244 289 -293t428 78l-18 176q-153 -98 -297 -87t-161 142l489 125q-27 107 -38 129q-124 263 -442 210q-360 -110 -250 -480zM530 671l-258 -72q-20 116 56 181q137 35 202 -109zM221 791l120 3l217 224l-158 34l-110 -134l-114 120l-147 -41z" />
    <glyph glyph-name="gcircumflex" unicode="&#x11d;" horiz-adv-x="771" 
d="M438 487q-29 -48 -70 -48q-40 0 -69 48q-28 47 -28 115q0 67 28 115q29 48 69 48q29 0 54 -27q23 -25 35 -67l8 -48q1 -16 1 -21q0 -68 -28 -115zM769 288l-6 37q-6 45 -13 86l-1 -1l-100 616l-245 -49l9 -53q-24 3 -40 3q-141 0 -241 -95t-100 -230t100 -230
q100 -96 241 -96q50 0 146 34l8 -49l1 3l27 -145q15 -66 -1 -130q-33 -129 -191 -122q-25 0 -58 21q-67 42 -102 147l-154 -168q25 -51 87 -98q125 -95 312 -78q75 9 154 48q158 77 175 223q23 79 -9 326h1zM449 1356l-120 -3l-217 -224l158 -34l110 134l114 -120l147 41z
" />
    <glyph glyph-name="Gbreve" unicode="&#x11e;" horiz-adv-x="1151" 
d="M110 1300q-162 -207 -142 -660.5t623 -751.5q344 -125 661 -22l-218 761l141 61l-96 289l-546 -222l93 -260l132 64l6 -3l65 -334q-170 6 -330.5 160.5t-120 527.5t469.5 227l122 289q-241 126 -482 109q-216 -28 -378 -235zM288 1860q234 -168 433 63l53 -144
q-267 -311 -540 -76z" />
    <glyph glyph-name="gbreve" unicode="&#x11f;" horiz-adv-x="771" 
d="M438 487q-29 -48 -70 -48q-40 0 -69 48q-28 47 -28 115q0 67 28 115q29 48 69 48q29 0 54 -27q23 -25 35 -67l8 -48q1 -16 1 -21q0 -68 -28 -115zM769 288l-6 37q-6 45 -13 86l-1 -1l-100 616l-245 -49l9 -53q-24 3 -40 3q-141 0 -241 -95t-100 -230t100 -230
q100 -96 241 -96q50 0 146 34l8 -49l1 3l27 -145q15 -66 -1 -130q-33 -129 -191 -122q-25 0 -58 21q-67 42 -102 147l-154 -168q25 -51 87 -98q125 -95 312 -78q75 9 154 48q158 77 175 223q23 79 -9 326h1zM200 1339q234 -168 433 63l53 -144q-267 -311 -540 -76z" />
    <glyph glyph-name="Gdotaccent" unicode="&#x120;" horiz-adv-x="1151" 
d="M110 1300q-162 -207 -142 -660.5t623 -751.5q344 -125 661 -22l-218 761l141 61l-96 289l-546 -222l93 -260l132 64l6 -3l65 -334q-170 6 -330.5 160.5t-120 527.5t469.5 227l122 289q-241 126 -482 109q-216 -28 -378 -235zM562.5 1864q42.5 -40 42.5 -96t-42.5 -96
t-102.5 -40t-102.5 40t-42.5 96t42.5 96t102.5 40t102.5 -40z" />
    <glyph glyph-name="gdotaccent" unicode="&#x121;" horiz-adv-x="771" 
d="M438 487q-29 -48 -70 -48q-40 0 -69 48q-28 47 -28 115q0 67 28 115q29 48 69 48q29 0 54 -27q23 -25 35 -67l8 -48q1 -16 1 -21q0 -68 -28 -115zM769 288l-6 37q-6 45 -13 86l-1 -1l-100 616l-245 -49l9 -53q-24 3 -40 3q-141 0 -241 -95t-100 -230t100 -230
q100 -96 241 -96q50 0 146 34l8 -49l1 3l27 -145q15 -66 -1 -130q-33 -129 -191 -122q-25 0 -58 21q-67 42 -102 147l-154 -168q25 -51 87 -98q125 -95 312 -78q75 9 154 48q158 77 175 223q23 79 -9 326h1zM511.5 1278q42.5 -40 42.5 -96t-42.5 -96t-102.5 -40t-102.5 40
t-42.5 96t42.5 96t102.5 40t102.5 -40z" />
    <glyph glyph-name="Gcommaaccent" unicode="&#x122;" horiz-adv-x="1151" 
d="M110 1300q-162 -207 -142 -660.5t623 -751.5q344 -125 661 -22l-218 761l141 61l-96 289l-546 -222l93 -260l132 64l6 -3l65 -334q-170 6 -330.5 160.5t-120 527.5t469.5 227l122 289q-241 126 -482 109q-216 -28 -378 -235zM791 -235q362 -55 395 -207q3 -89 -114 -146
q-111 -52 -338 -73l-3 81l78 7q55 2 97 30q48 32 46 81q-3 69 -213 178z" />
    <glyph glyph-name="gcommaaccent" unicode="&#x123;" horiz-adv-x="771" 
d="M438 487q-29 -48 -70 -48q-40 0 -69 48q-28 47 -28 115q0 67 28 115q29 48 69 48q29 0 54 -27q23 -25 35 -67l8 -48q1 -16 1 -21q0 -68 -28 -115zM769 288l-6 37q-6 45 -13 86l-1 -1l-100 616l-245 -49l9 -53q-24 3 -40 3q-141 0 -241 -95t-100 -230t100 -230
q100 -96 241 -96q50 0 146 34l8 -49l1 3l27 -145q15 -66 -1 -130q-33 -129 -191 -122q-25 0 -58 21q-67 42 -102 147l-154 -168q25 -51 87 -98q125 -95 312 -78q75 9 154 48q158 77 175 223q23 79 -9 326h1zM219 1081q-47 374 272 394q-143 -140 -87 -221l96 -13l-16 -167z
" />
    <glyph glyph-name="Hcircumflex" unicode="&#x124;" horiz-adv-x="960" 
d="M-28 1789l240 -1844l14 4l159 142l18 604l229 39l-7 -560l174 -41l173 1684l-336 -52l-21 -809l-230 -56l-27 948zM534 2179l-120 -3l-217 -224l158 -34l110 134l114 -120l147 41z" />
    <glyph glyph-name="hcircumflex" unicode="&#x125;" horiz-adv-x="887" 
d="M676 910q-46 5 -107 -6q-123 -23 -200 -106l-12 682l-337 9l207 -1365l1 1v-13l209 18q-21 171 43 455q3 7 8 22q16 43 53 74q51 44 89 -14q38 -57 17 -275q-6 -65 -17 -147q-10 -67 -10 -68l263 61l7 153q4 101 -15 215q-39 228 -157 289q-17 9 -42 15zM264 1868
l-120 -3l-217 -224l158 -34l110 134l114 -120l147 41z" />
    <glyph glyph-name="Hbar" unicode="&#x126;" horiz-adv-x="960" 
d="M371 1396l-13 452l-386 -59l240 -1844l14 4l159 142l18 604l229 39l-7 -560l174 -41l173 1684l-336 -52l-9 -335zM623 1259l-8 -303l-230 -56l-10 334z" />
    <glyph glyph-name="hbar" unicode="&#x127;" horiz-adv-x="887" 
d="M461 1025l-1 190l-98 -13l-5 278l-337 9l49 -325l-79 -10l5 -173l101 9l131 -866l1 1v-13l209 18q-21 171 43 455q3 7 8 22q16 43 53 74q51 44 89 -14q38 -57 17 -275q-6 -65 -17 -147q-10 -67 -10 -68l263 61l7 153q4 101 -15 215q-39 228 -157 289q-17 9 -42 15
q-46 5 -107 -6q-123 -23 -200 -106l-4 218z" />
    <glyph glyph-name="Itilde" unicode="&#x128;" horiz-adv-x="589" 
d="M194 61l175 -25l96 1638l-474 -73zM63 1927q-28 -44 -37 -108l117 -27q6 42 25 55q23 15 68 6q46 -9 100 -38q105 -61 181 -41q33 10 72 35q24 16 75 57l7 6l-63 127l-7 -5q-81 -66 -111 -73q-21 -5 -46 3q-23 7 -60 28q-66 38 -126 50q-86 17 -145 -22q-30 -20 -50 -53z
" />
    <glyph glyph-name="itilde" unicode="&#x129;" horiz-adv-x="360" 
d="M27 759l73 -651l212 56l9 662zM-107 1087q-28 -44 -37 -108l117 -27q6 42 25 55q23 15 68 6q46 -9 100 -38q105 -61 181 -41q33 10 72 35q24 16 75 57l7 6l-63 127l-7 -5q-81 -66 -111 -73q-21 -5 -46 3q-23 7 -60 28q-66 38 -126 50q-86 17 -145 -22q-30 -20 -50 -53z
" />
    <glyph glyph-name="Imacron" unicode="&#x12a;" horiz-adv-x="589" 
d="M232 61l175 -25l96 1638l-474 -73zM140 1959l445 10l14 -146l-496 -12z" />
    <glyph glyph-name="imacron" unicode="&#x12b;" horiz-adv-x="360" 
d="M26 759l73 -651l212 56l9 662zM-33 1075l445 10l14 -146l-496 -12z" />
    <glyph glyph-name="Ibreve" unicode="&#x12c;" horiz-adv-x="589" 
d="M229 61l175 -25l96 1638l-474 -73zM153 2007q234 -168 433 63l53 -144q-267 -311 -540 -76z" />
    <glyph glyph-name="ibreve" unicode="&#x12d;" horiz-adv-x="360" 
d="M24 759l73 -651l212 56l9 662zM-55 1211q234 -168 433 63l53 -144q-267 -311 -540 -76z" />
    <glyph glyph-name="Iogonek" unicode="&#x12e;" horiz-adv-x="589" 
d="M327 51l-70 10l-203 1540l474 73l-96 -1631h1l-1 -1v-6l-5 1q-159 -164 -140 -230q13 -47 69 -62q49 -14 101 1l77 18l22 -78q-222 -51 -344 -36q-129 17 -154 103q-15 144 269 298z" />
    <glyph glyph-name="iogonek" unicode="&#x12f;" horiz-adv-x="360" 
d="M87 -82q24 -64 111 -68q83 -2 226 54l-21 58l-50 -20q-33 -15 -67 -8q-39 7 -51 42q-19 49 73 187l3 1l2 656l-287 -61l73 -651l103 27q-135 -120 -115 -217zM224 956q-38 -42 -91 -42t-91 42t-38 102q0 59 38 101t91 42t91 -42t38 -101q0 -60 -38 -102z" />
    <glyph glyph-name="Idotaccent" unicode="&#x130;" horiz-adv-x="589" 
d="M258 61l175 -25l96 1638l-474 -73zM456.5 1958q42.5 -40 42.5 -96t-42.5 -96t-102.5 -40t-102.5 40t-42.5 96t42.5 96t102.5 40t102.5 -40z" />
    <glyph glyph-name="dotlessi" unicode="&#x131;" horiz-adv-x="360" 
d="M26 759l73 -651l212 56l9 662z" />
    <glyph glyph-name="Kcommaaccent" unicode="&#x136;" horiz-adv-x="1131" 
d="M938 1831l-417 -694l-4 16l-27 591l-489 -76l308 -1732l256 138l-17 571l332 -482l184 233l-379 432l431 536v23l-28 70q0 6 -140 383h-7zM671 59q362 -55 395 -207q3 -89 -114 -146q-111 -52 -338 -73l-3 81l78 7q55 2 97 30q48 32 46 81q-3 69 -213 178z" />
    <glyph glyph-name="kcommaaccent" unicode="&#x137;" horiz-adv-x="651" 
d="M623 128l-317 227l259 202l-27 170l-254 -278l40 890l-324 49l85 -1388l180 20l8 175l207 -185zM268 -60q362 -55 395 -207q3 -89 -114 -146q-111 -52 -338 -73l-3 81l78 7q55 2 97 30q48 32 46 81q-3 69 -213 178z" />
    <glyph glyph-name="Lacute" unicode="&#x139;" horiz-adv-x="866" 
d="M124 27l702 179l-33 266l-418 -156l238 1434l-589 -95zM686 2145l-246 30l-166 -344l125 -34z" />
    <glyph glyph-name="lacute" unicode="&#x13a;" horiz-adv-x="356" 
d="M292 1358l-292 20l101 -1378l161 10zM503 1808l-246 30l-166 -344l125 -34z" />
    <glyph glyph-name="Lcommaaccent" unicode="&#x13b;" horiz-adv-x="866" 
d="M124 27l702 179l-33 266l-418 -156l238 1434l-589 -95zM433 21q362 -55 395 -207q3 -89 -114 -146q-111 -52 -338 -73l-3 81l78 7q55 2 97 30q48 32 46 81q-3 69 -213 178z" />
    <glyph glyph-name="lcommaaccent" unicode="&#x13c;" horiz-adv-x="636" 
d="M200 0q362 -55 395 -207q3 -89 -114 -146q-111 -52 -338 -73l-3 81l78 7q55 2 97 30q48 32 46 81q-3 69 -213 178zM327 1437l-292 20l101 -1378l161 10z" />
    <glyph glyph-name="Lcaron" unicode="&#x13d;" horiz-adv-x="994" 
d="M124 27l702 179l-33 266l-418 -156l238 1434l-589 -95zM997 1740q53 -421 -307 -444q162 158 99 249l-109 15l18 188z" />
    <glyph glyph-name="lcaron" unicode="&#x13e;" horiz-adv-x="639" 
d="M292 1358l-292 20l101 -1378l161 10zM615 1347q47 -374 -272 -394q144 140 88 221l-97 13l16 167z" />
    <glyph glyph-name="Ldot" unicode="&#x13f;" horiz-adv-x="866" 
d="M124 27l702 179l-33 266l-418 -156l238 1434l-589 -95zM626 1018q-27 -165 135 -181q167 -5 167 160q-43 131 -173 119q-90 -14 -129 -98z" />
    <glyph glyph-name="ldot" unicode="&#x140;" horiz-adv-x="662" 
d="M292 1358l-292 20l101 -1378l161 10zM365 788q-27 -165 135 -181q167 -5 167 160q-43 131 -173 119q-90 -14 -129 -98z" />
    <glyph glyph-name="Lslash" unicode="&#x141;" horiz-adv-x="866" 
d="M576 930l17 255l-86 -73l106 638l-589 -95l56 -906l-94 -80l42 -168l64 50l32 -524l702 179l-33 266l-418 -156l87 525z" />
    <glyph glyph-name="lslash" unicode="&#x142;" horiz-adv-x="356" 
d="M-24 668l17 -123l65 42l43 -587l161 10l16 717l79 51l-24 179l-51 -41l10 442l-292 20l48 -652z" />
    <glyph glyph-name="Nacute" unicode="&#x143;" horiz-adv-x="1164" 
d="M51 122l318 -39l57 702l219 -707l641 1574l-357 8l-234 -883l-396 996zM1019 2005l-246 30l-166 -344l125 -34z" />
    <glyph glyph-name="nacute" unicode="&#x144;" horiz-adv-x="763" 
d="M575 887q-48 5 -111 -6q-126 -24 -206 -109l-17 90l-241 -22l112 -764l1 2v-8v-6l215 18q-21 177 -49 470q4 7 8 22q18 45 55 77q53 45 93 -15q38 -58 17 -283q-6 -67 -18 -151q-10 -70 -10 -71l272 63q29 144 34 301q10 313 -111 377q-18 9 -44 15zM683 1336l-246 30
l-166 -344l125 -34z" />
    <glyph glyph-name="Ncommaaccent" unicode="&#x145;" horiz-adv-x="1164" 
d="M51 122l318 -39l57 702l219 -707l641 1574l-357 8l-234 -883l-396 996zM433 21q362 -55 395 -207q3 -89 -114 -146q-111 -52 -338 -73l-3 81l78 7q55 2 97 30q48 32 46 81q-3 69 -213 178z" />
    <glyph glyph-name="ncommaaccent" unicode="&#x146;" horiz-adv-x="763" 
d="M575 887q-48 5 -111 -6q-126 -24 -206 -109l-17 90l-241 -22l112 -764l1 2v-8v-6l215 18q-21 177 -49 470q4 7 8 22q18 45 55 77q53 45 93 -15q38 -58 17 -283q-6 -67 -18 -151q-10 -70 -10 -71l272 63q29 144 34 301q10 313 -111 377q-18 9 -44 15zM309 28
q362 -55 395 -207q3 -89 -114 -146q-111 -52 -338 -73l-3 81l78 7q55 2 97 30q48 32 46 81q-3 69 -213 178z" />
    <glyph glyph-name="Ncaron" unicode="&#x147;" horiz-adv-x="1164" 
d="M51 122l318 -39l57 702l219 -707l641 1574l-357 8l-234 -883l-396 996zM653 1624l120 3l217 224l-158 34l-110 -134l-114 120l-147 -41z" />
    <glyph glyph-name="ncaron" unicode="&#x148;" horiz-adv-x="763" 
d="M575 887q-48 5 -111 -6q-126 -24 -206 -109l-17 90l-241 -22l112 -764l1 2v-8v-6l215 18q-21 177 -49 470q4 7 8 22q18 45 55 77q53 45 93 -15q38 -58 17 -283q-6 -67 -18 -151q-10 -70 -10 -71l272 63q29 144 34 301q10 313 -111 377q-18 9 -44 15zM304 973l120 3
l217 224l-158 34l-110 -134l-114 120l-147 -41z" />
    <glyph glyph-name="napostrophe" unicode="&#x149;" horiz-adv-x="1024" 
d="M306 1126q47 -374 -272 -394q144 140 88 221l-97 13l16 167zM840 887q-48 5 -111 -6q-126 -24 -206 -109l-17 90l-241 -22l112 -764l1 2v-8v-6l215 18q-21 177 -49 470q4 7 8 22q18 45 55 77q53 45 93 -15q38 -58 17 -283q-6 -67 -18 -151q-10 -70 -10 -71l272 63
q29 144 34 301q10 313 -111 377q-18 9 -44 15z" />
    <glyph glyph-name="Omacron" unicode="&#x14c;" horiz-adv-x="1242" 
d="M1143.5 1448q97.5 -253 17.5 -598q-81 -345 -292.5 -579.5t-430.5 -221.5t-316.5 266t-16.5 598q80 345 291.5 579.5t430.5 221.5t316.5 -266zM644 1123q-73 9 -147 -92.5t-106 -254.5q-31 -153 -1.5 -268t102.5 -124q74 -9 148 93t105 255q32 153 2 267.5t-103 123.5z
M592 1948l445 10l14 -146l-496 -12z" />
    <glyph glyph-name="omacron" unicode="&#x14d;" horiz-adv-x="704" 
d="M289 296q-47 40 -69 109q-21 69 -5 126t61 69t91 -28q47 -40 69 -109t5 -126q-16 -58 -61 -70q-44 -12 -91 29zM472 843q-128 90 -258 55t-186 -174t-5 -301t179 -252q127 -89 257 -54t186 174t5 301q-50 162 -178 251zM59 1062l445 10l14 -146l-496 -12z" />
    <glyph glyph-name="Ohungarumlaut" unicode="&#x150;" horiz-adv-x="1242" 
d="M1143.5 1448q97.5 -253 17.5 -598q-81 -345 -292.5 -579.5t-430.5 -221.5t-316.5 266t-16.5 598q80 345 291.5 579.5t430.5 221.5t316.5 -266zM644 1123q-73 9 -147 -92.5t-106 -254.5q-31 -153 -1.5 -268t102.5 -124q74 -9 148 93t105 255q32 153 2 267.5t-103 123.5z
M897 1780h95l188 404l-184 27zM648 1786l92 17l185 370l-207 21z" />
    <glyph glyph-name="ohungarumlaut" unicode="&#x151;" horiz-adv-x="704" 
d="M289 296q-47 40 -69 109q-21 69 -5 126t61 69t91 -28q47 -40 69 -109t5 -126q-16 -58 -61 -70q-44 -12 -91 29zM472 843q-128 90 -258 55t-186 -174t-5 -301t179 -252q127 -89 257 -54t186 174t5 301q-50 162 -178 251zM348 861h95l188 404l-184 27zM99 867l92 17
l185 370l-207 21z" />
    <glyph glyph-name="OE" unicode="&#x152;" horiz-adv-x="1587" 
d="M572 1123q-74 9 -135 -92.5t-73 -254.5q-11 -153 33.5 -268t118.5 -124q75 -9 136 93t72 255q12 153 -33 267.5t-119 123.5zM765 191q-135 -153 -297 -142q-198 13 -319 266t-93 598q27 345 186.5 579.5t358.5 221.5q52 -3 100 -24l-1 18q21 4 743 90q5 -21 -33 -333
q-356 -47 -365.5 -53.5t-15.5 -249.5l336 95l44 -336l4 -10l1 -23l-398 -70l-4 -353l503 107q3 -20 -32 -332l-717 -70z" />
    <glyph glyph-name="oe" unicode="&#x153;" horiz-adv-x="1333" 
d="M289 296q-47 40 -69 109q-21 69 -5 126t61 69t91 -28q47 -40 69 -109t5 -126q-16 -58 -61 -70q-44 -12 -91 29zM472 843q-128 90 -258 55t-186 -174t-5 -301t179 -252q127 -89 257 -54t186 174t5 301q-50 162 -178 251zM539 467q79 -244 289 -293t428 78l-18 176
q-153 -98 -297 -87t-161 142l489 125q-27 107 -38 129q-124 263 -442 210q-360 -110 -250 -480zM1024 671l-258 -72q-20 116 56 181q137 35 202 -109z" />
    <glyph glyph-name="Racute" unicode="&#x154;" horiz-adv-x="1010" 
d="M82 1699l-75 -16l232 -1755l272 114l-48 677l390 -522l202 253l-353 547q439 868 -620 702zM563 1341q18 -164 -179 -180l-30 322q193 24 209 -142zM742 2199l-246 30l-166 -344l125 -34z" />
    <glyph glyph-name="racute" unicode="&#x155;" horiz-adv-x="739" 
d="M316 972l-316 -47l65 -794l244 -9l7 496q1 36 18 75q19 42 46 61q31 23 62 6q37 -21 68 -93l234 195q-47 91 -172 97q-131 7 -249 -91zM448 1328l-246 30l-166 -344l125 -34z" />
    <glyph glyph-name="Rcommaaccent" unicode="&#x156;" horiz-adv-x="1010" 
d="M82 1699l-75 -16l232 -1755l272 114l-48 677l390 -522l202 253l-353 547q439 868 -620 702zM563 1341q18 -164 -179 -180l-30 322q193 24 209 -142zM611 -27q362 -55 395 -207q3 -89 -114 -146q-111 -52 -338 -73l-3 81l78 7q55 2 97 30q48 32 46 81q-3 69 -213 178z" />
    <glyph glyph-name="rcommaaccent" unicode="&#x157;" horiz-adv-x="739" 
d="M308 905l-308 -86l163 -779l243 21l-55 493q-3 36 9 77q14 44 38 66q28 26 61 13q39 -16 79 -83l208 222q-58 84 -183 75q-131 -9 -236 -121zM261 -53q362 -55 395 -207q3 -89 -114 -146q-111 -52 -338 -73l-3 81l78 7q55 2 97 30q48 32 46 81q-3 69 -213 178z" />
    <glyph glyph-name="Rcaron" unicode="&#x158;" horiz-adv-x="1010" 
d="M82 1699l-75 -16l232 -1755l272 114l-48 677l390 -522l202 253l-353 547q439 868 -620 702zM563 1341q18 -164 -179 -180l-30 322q193 24 209 -142zM388 1855l120 3l217 224l-158 34l-110 -134l-114 120l-147 -41z" />
    <glyph glyph-name="rcaron" unicode="&#x159;" horiz-adv-x="739" 
d="M316 972l-316 -47l65 -794l244 -9l7 496q1 36 18 75q19 42 46 61q31 23 62 6q37 -21 68 -93l234 195q-47 91 -172 97q-131 7 -249 -91zM287 1104l120 3l217 224l-158 34l-110 -134l-114 120l-147 -41z" />
    <glyph glyph-name="Sacute" unicode="&#x15a;" horiz-adv-x="1073" 
d="M688 926q-140 76 -180 104q-82 56 -91 106q-23 125 32 182q56 58 181 38q25 -5 134 -33l96 335q-106 74 -335 33q-209 -38 -315 -120q-107 -83 -153 -203q-43 -112 -24 -232q19 -119 94 -214q78 -100 200 -149q286 -116 351 -163q201 -142 12 -302q-104 -89 -266 -65
q-163 23 -237 139l-26 -263q75 -97 250 -115q173 -18 337 50q179 73 253 216q86 166 3 386q-46 123 -316 270zM900 2154l-246 30l-166 -344l125 -34z" />
    <glyph glyph-name="sacute" unicode="&#x15b;" horiz-adv-x="687" 
d="M645 385q-15 49 -77 99q-38 31 -128 87q-112 69 -119 87q-1 24 8 32q23 21 99 -3l62 -23l42 -16l15 24l107 166l-27 20q-68 51 -224 61q-139 8 -217 -17q-146 -46 -169 -165l-2 -18q-7 -72 39 -139t132 -110l32 -16q203 -97 206 -136q2 0 -8 -7q-14 -10 -38 -18
q-61 -23 -150 3q-88 26 -118 75l-37 60l-69 -201l12 -16q66 -88 255 -109t298 47q61 38 80 98q20 61 -4 135v0zM657 1351l-246 30l-166 -344l125 -34z" />
    <glyph glyph-name="Scircumflex" unicode="&#x15c;" horiz-adv-x="1073" 
d="M688 926q-140 76 -180 104q-82 56 -91 106q-23 125 32 182q56 58 181 38q25 -5 134 -33l96 335q-106 74 -335 33q-209 -38 -315 -120q-107 -83 -153 -203q-43 -112 -24 -232q19 -119 94 -214q78 -100 200 -149q286 -116 351 -163q201 -142 12 -302q-104 -89 -266 -65
q-163 23 -237 139l-26 -263q75 -97 250 -115q173 -18 337 50q179 73 253 216q86 166 3 386q-46 123 -316 270zM678 1755l-120 -3l-217 -224l158 -34l110 134l114 -120l147 41z" />
    <glyph glyph-name="scircumflex" unicode="&#x15d;" horiz-adv-x="687" 
d="M645 385q-15 49 -77 99q-38 31 -128 87q-112 69 -119 87q-1 24 8 32q23 21 99 -3l62 -23l42 -16l15 24l107 166l-27 20q-68 51 -224 61q-139 8 -217 -17q-146 -46 -169 -165l-2 -18q-7 -72 39 -139t132 -110l32 -16q203 -97 206 -136q2 0 -8 -7q-14 -10 -38 -18
q-61 -23 -150 3q-88 26 -118 75l-37 60l-69 -201l12 -16q66 -88 255 -109t298 47q61 38 80 98q20 61 -4 135v0zM404 1345l-120 -3l-217 -224l158 -34l110 134l114 -120l147 41z" />
    <glyph glyph-name="Scedilla" unicode="&#x15e;" horiz-adv-x="1073" 
d="M688 926q-140 76 -180 104q-82 56 -91 106q-23 125 32 182q56 58 181 38q25 -5 134 -33l96 335q-106 74 -335 33q-209 -38 -315 -120q-107 -83 -153 -203q-43 -112 -24 -232q19 -119 94 -214q78 -100 200 -149q286 -116 351 -163q201 -142 12 -302q-104 -89 -266 -65
q-163 23 -237 139l-26 -263q75 -97 250 -115q173 -18 337 50q179 73 253 216q86 166 3 386q-46 123 -316 270zM493 -63q362 -55 395 -207q3 -89 -114 -146q-111 -52 -338 -73l-3 81l78 7q55 2 97 30q48 32 46 81q-3 69 -213 178z" />
    <glyph glyph-name="scedilla" unicode="&#x15f;" horiz-adv-x="687" 
d="M277 -3q104 -31 100 -92q-3 -42 -41 -65q-33 -20 -74 -16l-29 -1l-4 -70q138 -4 225 30q92 36 97 115q8 102 -142 145l6 60q91 9 154 49q61 38 80 98q20 61 -4 135q-15 49 -77 99q-38 31 -128 87q-112 69 -119 87q-1 24 8 32q23 21 99 -3l62 -23l42 -16l15 24l107 166
l-27 20q-68 51 -224 61q-139 8 -217 -17q-146 -46 -169 -165l-2 -18q-7 -72 39 -139t132 -110l32 -16q203 -97 206 -136q2 0 -8 -7q-14 -10 -38 -18q-61 -23 -150 3q-88 26 -118 75l-37 60l-69 -201l12 -16q66 -88 255 -109q6 -1 11 -1z" />
    <glyph glyph-name="Scaron" unicode="&#x160;" horiz-adv-x="1073" 
d="M688 926q-140 76 -180 104q-82 56 -91 106q-23 125 32 182q56 58 181 38q25 -5 134 -33l96 335q-106 74 -335 33q-209 -38 -315 -120q-107 -83 -153 -203q-43 -112 -24 -232q19 -119 94 -214q78 -100 200 -149q286 -116 351 -163q201 -142 12 -302q-104 -89 -266 -65
q-163 23 -237 139l-26 -263q75 -97 250 -115q173 -18 337 50q179 73 253 216q86 166 3 386q-46 123 -316 270zM550 1791l120 3l217 224l-158 34l-110 -134l-114 120l-147 -41z" />
    <glyph glyph-name="scaron" unicode="&#x161;" horiz-adv-x="687" 
d="M645 385q-15 49 -77 99q-38 31 -128 87q-112 69 -119 87q-1 24 8 32q23 21 99 -3l62 -23l42 -16l15 24l107 166l-27 20q-68 51 -224 61q-139 8 -217 -17q-146 -46 -169 -165l-2 -18q-7 -72 39 -139t132 -110l32 -16q203 -97 206 -136q2 0 -8 -7q-14 -10 -38 -18
q-61 -23 -150 3q-88 26 -118 75l-37 60l-69 -201l12 -16q66 -88 255 -109t298 47q61 38 80 98q20 61 -4 135v0zM286 981l120 3l217 224l-158 34l-110 -134l-114 120l-147 -41z" />
    <glyph glyph-name="Tcommaaccent" unicode="&#x162;" horiz-adv-x="1345" 
d="M21 1670l37 -444l456 69l116 -1285l310 43l17 1305l360 73l-13 359zM714 -94q362 -55 395 -207q3 -89 -114 -146q-111 -52 -338 -73l-3 81l78 7q55 2 97 30q48 32 46 81q-3 69 -213 178z" />
    <glyph glyph-name="tcommaaccent" unicode="&#x163;" horiz-adv-x="607" 
d="M498 671l-6 110l-105 -9l-36 569l-273 -54l75 -536l-153 -14l21 -132l149 21l88 -626l175 40l-39 617zM206 -76q362 -55 395 -207q3 -89 -114 -146q-111 -52 -338 -73l-3 81l78 7q55 2 97 30q48 32 46 81q-3 69 -213 178z" />
    <glyph glyph-name="Tcaron" unicode="&#x164;" horiz-adv-x="1345" 
d="M1263 1768l12 -321l-359 -73l-17 -1304l-273 -37l-116 1285l-455 -69l-34 403zM676 1847l120 3l217 224l-158 34l-110 -134l-114 120l-147 -41z" />
    <glyph glyph-name="tcaron" unicode="&#x165;" horiz-adv-x="711" 
d="M498 671l-6 110l-105 -9l-36 569l-273 -54l75 -536l-153 -14l21 -132l149 21l88 -626l175 40l-39 617zM703 1339q47 -374 -272 -394q144 140 88 221l-97 13l16 167z" />
    <glyph glyph-name="Tbar" unicode="&#x166;" horiz-adv-x="1345" 
d="M366 916l22 -185l175 22l67 -743l310 43l10 750l191 24l-57 209l-131 -22l4 344l360 73l-13 359l-1283 -120l37 -444l456 69l32 -349z" />
    <glyph glyph-name="tbar" unicode="&#x167;" horiz-adv-x="607" 
d="M7 469l17 -120l184 10l50 -359l175 40l-21 330l107 6l-34 127l-81 -6l-10 160l104 14l-6 110l-105 -9l-36 569l-273 -54l75 -536l-153 -14l21 -132l149 21l20 -144z" />
    <glyph glyph-name="Utilde" unicode="&#x168;" horiz-adv-x="1282" 
d="M846 1649q61 -809 62 -816q-1 -184 -77 -318q-77 -133 -182 -133q-71 0 -131 76q-122 157 -88 416l66 756l-385 -32l-43 -656q0 -391 171 -666q170 -276 412 -276q241 0 412 275q170 275 170 663v695zM492 1906q-28 -44 -37 -108l117 -27q6 42 25 55q23 15 68 6
q46 -9 100 -38q105 -61 181 -41q33 10 72 35q24 16 75 57l7 6l-63 127l-7 -5q-81 -66 -111 -73q-21 -5 -46 3q-23 7 -60 28q-66 38 -126 50q-86 17 -145 -22q-30 -20 -50 -53z" />
    <glyph glyph-name="utilde" unicode="&#x169;" horiz-adv-x="720" 
d="M467 923q28 -175 -25 -471q-3 -7 -7 -23q-16 -45 -52 -78q-51 -48 -93 11q-41 57 -29 282q3 67 12 152q7 70 7 71l-269 -75v-157q0 -105 25 -221q49 -233 173 -292q17 -8 44 -13q76 -6 163 26q173 63 226 249q8 28 10 49q36 173 29 517zM61 1200q-28 -44 -37 -108
l117 -27q6 42 25 55q23 15 68 6q46 -9 100 -38q105 -61 181 -41q33 10 72 35q24 16 75 57l7 6l-63 127l-7 -5q-81 -66 -111 -73q-21 -5 -46 3q-23 7 -60 28q-66 38 -126 50q-86 17 -145 -22q-30 -20 -50 -53z" />
    <glyph glyph-name="Umacron" unicode="&#x16a;" horiz-adv-x="1282" 
d="M846 1649q61 -809 62 -816q-1 -184 -77 -318q-77 -133 -182 -133q-71 0 -131 76q-122 157 -88 416l66 756l-385 -32l-43 -656q0 -391 171 -666q170 -276 412 -276q241 0 412 275q170 275 170 663v695zM550 2006l445 10l14 -146l-496 -12z" />
    <glyph glyph-name="umacron" unicode="&#x16b;" horiz-adv-x="720" 
d="M467 923q28 -175 -25 -471q-3 -7 -7 -23q-16 -45 -52 -78q-51 -48 -93 11q-41 57 -29 282q3 67 12 152q7 70 7 71l-269 -75v-157q0 -105 25 -221q49 -233 173 -292q17 -8 44 -13q76 -6 163 26q173 63 226 249q8 28 10 49q36 173 29 517zM116 1149l445 10l14 -146
l-496 -12z" />
    <glyph glyph-name="Ubreve" unicode="&#x16c;" horiz-adv-x="1282" 
d="M846 1649q61 -809 62 -816q-1 -184 -77 -318q-77 -133 -182 -133q-71 0 -131 76q-122 157 -88 416l66 756l-385 -32l-43 -656q0 -391 171 -666q170 -276 412 -276q241 0 412 275q170 275 170 663v695zM564 1990q234 -168 433 63l53 -144q-267 -311 -540 -76z" />
    <glyph glyph-name="ubreve" unicode="&#x16d;" horiz-adv-x="720" 
d="M467 923q28 -175 -25 -471q-3 -7 -7 -23q-16 -45 -52 -78q-51 -48 -93 11q-41 57 -29 282q3 67 12 152q7 70 7 71l-269 -75v-157q0 -105 25 -221q49 -233 173 -292q17 -8 44 -13q76 -6 163 26q173 63 226 249q8 28 10 49q36 173 29 517zM124 1257q234 -168 433 63
l53 -144q-267 -311 -540 -76z" />
    <glyph glyph-name="Uring" unicode="&#x16e;" horiz-adv-x="1282" 
d="M846 1649q61 -809 62 -816q-1 -184 -77 -318q-77 -133 -182 -133q-71 0 -131 76q-122 157 -88 416l66 756l-385 -32l-43 -656q0 -391 171 -666q170 -276 412 -276q241 0 412 275q170 275 170 663v695zM900.5 1918.5q47.5 -44.5 47.5 -107.5q0 -62 -47.5 -106.5
t-113.5 -44.5q-67 0 -114.5 44.5t-47.5 106.5q0 63 47.5 107.5t114.5 44.5q66 0 113.5 -44.5zM777 1862q-13 0 -22.5 -12.5t-9.5 -30.5t9.5 -30.5t22.5 -12.5t22.5 12.5t9.5 30.5t-9.5 30.5t-22.5 12.5z" />
    <glyph glyph-name="uring" unicode="&#x16f;" horiz-adv-x="720" 
d="M467 923q28 -175 -25 -471q-3 -7 -7 -23q-16 -45 -52 -78q-51 -48 -93 11q-41 57 -29 282q3 67 12 152q7 70 7 71l-269 -75v-157q0 -105 25 -221q49 -233 173 -292q17 -8 44 -13q76 -6 163 26q173 63 226 249q8 28 10 49q36 173 29 517zM486.5 1219.5
q47.5 -44.5 47.5 -107.5q0 -62 -47.5 -106.5t-113.5 -44.5q-67 0 -114.5 44.5t-47.5 106.5q0 63 47.5 107.5t114.5 44.5q66 0 113.5 -44.5zM363 1163q-13 0 -22.5 -12.5t-9.5 -30.5t9.5 -30.5t22.5 -12.5t22.5 12.5t9.5 30.5t-9.5 30.5t-22.5 12.5z" />
    <glyph glyph-name="Uhungarumlaut" unicode="&#x170;" horiz-adv-x="1282" 
d="M846 1649q61 -809 62 -816q-1 -184 -77 -318q-77 -133 -182 -133q-71 0 -131 76q-122 157 -88 416l66 756l-385 -32l-43 -656q0 -391 171 -666q170 -276 412 -276q241 0 412 275q170 275 170 663v695zM856 1733h95l188 404l-184 27zM607 1739l92 17l185 370l-207 21z" />
    <glyph glyph-name="uhungarumlaut" unicode="&#x171;" horiz-adv-x="720" 
d="M467 923q28 -175 -25 -471q-3 -7 -7 -23q-16 -45 -52 -78q-51 -48 -93 11q-41 57 -29 282q3 67 12 152q7 70 7 71l-269 -75v-157q0 -105 25 -221q49 -233 173 -292q17 -8 44 -13q76 -6 163 26q173 63 226 249q8 28 10 49q36 173 29 517zM416 1014h95l188 404l-184 27z
M167 1020l92 17l185 370l-207 21z" />
    <glyph glyph-name="Uogonek" unicode="&#x172;" horiz-adv-x="1282" 
d="M508 -201q25 -86 154 -103q122 -15 344 36l-22 78l-77 -18q-52 -15 -101 -1q-56 15 -69 62q-17 60 112 200q118 67 214 222q170 275 170 663v695l-387 16q61 -809 62 -816q-1 -184 -77 -318q-77 -133 -182 -133q-71 0 -131 76q-122 157 -88 416l66 756l-385 -32l-43 -656
q0 -391 171 -666q162 -263 389 -275q-130 -104 -120 -202z" />
    <glyph glyph-name="uogonek" unicode="&#x173;" horiz-adv-x="720" 
d="M402 -63q36 -79 125 -75q83 5 217 88l-33 72l-46 -29q-31 -23 -66 -17q-40 6 -59 49q-25 55 29 215q49 59 73 144q8 28 10 49q36 173 29 517l-214 -27q28 -175 -25 -471q-3 -7 -7 -23q-16 -45 -52 -78q-51 -48 -93 11q-41 57 -29 282q3 67 12 152q7 70 7 71l-269 -75
v-157q0 -105 25 -221q49 -233 173 -292q17 -8 44 -13q76 -6 163 26q6 2 13 5q-55 -114 -27 -203z" />
    <glyph glyph-name="Wcircumflex" unicode="&#x174;" horiz-adv-x="1474" 
d="M1172 1793l-95 -845l-11 21l-334 707l-240 -639l-159 465l-373 -26l549 -1341l221 724l440 -758l315 1740zM791 2043l-120 -3l-217 -224l158 -34l110 134l114 -120l147 41z" />
    <glyph glyph-name="Ycircumflex" unicode="&#x176;" horiz-adv-x="1142" 
d="M444 720l-10 -720l298 24l-11 649l463 898l-345 131l-262 -762l-286 726l-392 -119zM610 2086l-120 -3l-217 -224l158 -34l110 134l114 -120l147 41z" />
    <glyph glyph-name="ycircumflex" unicode="&#x177;" horiz-adv-x="648" 
d="M460 1140l-123 -416l-99 293l-7 -2l-235 -142l217 -416l-201 -693l197 -139l476 1420zM391 1509l-120 -3l-217 -224l158 -34l110 134l114 -120l147 41z" />
    <glyph glyph-name="Ydieresis" unicode="&#x178;" horiz-adv-x="1142" 
d="M444 720l-10 -720l298 24l-11 649l463 898l-345 131l-262 -762l-286 726l-392 -119zM814.5 1965q35.5 -33 35.5 -80t-35.5 -80t-84.5 -33q-50 0 -85.5 33t-35.5 80t35.5 80t85.5 33q49 0 84.5 -33zM464.5 1969q35.5 -33 35.5 -80t-35.5 -80t-84.5 -33q-50 0 -85.5 33
t-35.5 80t35.5 80t85.5 33q49 0 84.5 -33z" />
    <glyph glyph-name="Zacute" unicode="&#x179;" horiz-adv-x="989" 
d="M-27 1477l82 -463l320 110l-175 -1132l872 400l-130 394l-399 -314l466 1321zM773 1989l-246 30l-166 -344l125 -34z" />
    <glyph glyph-name="zacute" unicode="&#x17a;" horiz-adv-x="692" 
d="M2 921l7 -313l215 37l-189 -530l582 151l-47 227l-247 -87l353 608zM644 1395l-246 30l-166 -344l125 -34z" />
    <glyph glyph-name="Zdotaccent" unicode="&#x17b;" horiz-adv-x="989" 
d="M-27 1477l82 -463l320 110l-175 -1132l872 400l-130 394l-399 -314l466 1321zM524.5 1869q42.5 -40 42.5 -96t-42.5 -96t-102.5 -40t-102.5 40t-42.5 96t42.5 96t102.5 40t102.5 -40z" />
    <glyph glyph-name="zdotaccent" unicode="&#x17c;" horiz-adv-x="692" 
d="M2 921l7 -313l215 37l-189 -530l582 151l-47 227l-247 -87l353 608zM441.5 1278q42.5 -40 42.5 -96t-42.5 -96t-102.5 -40t-102.5 40t-42.5 96t42.5 96t102.5 40t102.5 -40z" />
    <glyph glyph-name="Zcaron" unicode="&#x17d;" horiz-adv-x="989" 
d="M-27 1477l82 -463l320 110l-175 -1132l872 400l-130 394l-399 -314l466 1321zM386 1723l120 3l217 224l-158 34l-110 -134l-114 120l-147 -41z" />
    <glyph glyph-name="zcaron" unicode="&#x17e;" horiz-adv-x="692" 
d="M2 921l7 -313l215 37l-189 -530l582 151l-47 227l-247 -87l353 608zM267 1104l120 3l217 224l-158 34l-110 -134l-114 120l-147 -41z" />
    <glyph glyph-name="Scommaaccent" unicode="&#x218;" horiz-adv-x="1073" 
d="M688 926q-140 76 -180 104q-82 56 -91 106q-23 125 32 182q56 58 181 38q25 -5 134 -33l96 335q-106 74 -335 33q-209 -38 -315 -120q-107 -83 -153 -203q-43 -112 -24 -232q19 -119 94 -214q78 -100 200 -149q286 -116 351 -163q201 -142 12 -302q-104 -89 -266 -65
q-163 23 -237 139l-26 -263q75 -97 250 -115q173 -18 337 50q179 73 253 216q86 166 3 386q-46 123 -316 270zM724 -76q53 -421 -307 -444q162 158 99 249l-109 15l18 188z" />
    <glyph glyph-name="scommaaccent" unicode="&#x219;" horiz-adv-x="687" 
d="M645 385q-15 49 -77 99q-38 31 -128 87q-112 69 -119 87q-1 24 8 32q23 21 99 -3l62 -23l42 -16l15 24l107 166l-27 20q-68 51 -224 61q-139 8 -217 -17q-146 -46 -169 -165l-2 -18q-7 -72 39 -139t132 -110l32 -16q203 -97 206 -136q2 0 -8 -7q-14 -10 -38 -18
q-61 -23 -150 3q-88 26 -118 75l-37 60l-69 -201l12 -16q66 -88 255 -109t298 47q61 38 80 98q20 61 -4 135v0zM485 22q53 -421 -307 -444q162 158 99 249l-109 15l18 188z" />
    <glyph glyph-name="uni021A" unicode="&#x21a;" horiz-adv-x="1345" 
d="M21 1670l37 -444l456 69l116 -1285l310 43l17 1305l360 73l-13 359zM946 -123q53 -421 -307 -444q162 158 99 249l-109 15l18 188z" />
    <glyph glyph-name="uni021B" unicode="&#x21b;" horiz-adv-x="607" 
d="M498 671l-6 110l-105 -9l-36 569l-273 -54l75 -536l-153 -14l21 -132l149 21l88 -626l175 40l-39 617zM505 -119q53 -421 -307 -444q162 158 99 249l-109 15l18 188z" />
    <glyph glyph-name="afii57929" unicode="&#x2bc;" horiz-adv-x="364" 
d="M330 1319q47 -374 -272 -394q144 140 88 221l-97 13l16 167z" />
    <glyph glyph-name="circumflex" unicode="&#x2c6;" horiz-adv-x="605" 
d="M347 1345l-120 -3l-217 -224l158 -34l110 134l114 -120l147 41z" />
    <glyph glyph-name="caron" unicode="&#x2c7;" horiz-adv-x="584" 
d="M174 1104l120 3l217 224l-158 34l-110 -134l-114 120l-147 -41z" />
    <glyph glyph-name="uni02C9" unicode="&#x2c9;" horiz-adv-x="588" 
d="M63 1596l445 10l14 -146l-496 -12z" />
    <glyph glyph-name="uni02CD" unicode="&#x2cd;" horiz-adv-x="725" 
d="M65 -70l616 15l3 -173l-616 -9z" />
    <glyph glyph-name="uni02CE" unicode="&#x2ce;" horiz-adv-x="357" 
d="M281 21l-250 -81l257 -280l85 26z" />
    <glyph glyph-name="uni02CF" unicode="&#x2cf;" horiz-adv-x="404" 
d="M31 -314l85 -26l257 280l-250 81z" />
    <glyph glyph-name="breve" unicode="&#x2d8;" horiz-adv-x="594" 
d="M77 1339q234 -168 433 63l53 -144q-267 -311 -540 -76z" />
    <glyph glyph-name="dotaccent" unicode="&#x2d9;" horiz-adv-x="416" 
d="M299.5 1278q42.5 -40 42.5 -96t-42.5 -96t-102.5 -40t-102.5 40t-42.5 96t42.5 96t102.5 40t102.5 -40z" />
    <glyph glyph-name="ring" unicode="&#x2da;" horiz-adv-x="423" 
d="M320.5 1331.5q47.5 -44.5 47.5 -107.5q0 -62 -47.5 -106.5t-113.5 -44.5q-67 0 -114.5 44.5t-47.5 106.5q0 63 47.5 107.5t114.5 44.5q66 0 113.5 -44.5zM197 1275q-13 0 -22.5 -12.5t-9.5 -30.5t9.5 -30.5t22.5 -12.5t22.5 12.5t9.5 30.5t-9.5 30.5t-22.5 12.5z" />
    <glyph glyph-name="ogonek" unicode="&#x2db;" horiz-adv-x="567" 
d="M404 12q-165 -169 -146 -236q13 -47 69 -62q49 -14 101 1l77 18l22 -78q-222 -51 -344 -36q-129 17 -154 103q-16 154 311 320z" />
    <glyph glyph-name="tilde" unicode="&#x2dc;" horiz-adv-x="711" 
d="M59 1200q-28 -44 -37 -108l117 -27q6 42 25 55q23 15 68 6q46 -9 100 -38q105 -61 181 -41q33 10 72 35q24 16 75 57l7 6l-63 127l-7 -5q-81 -66 -111 -73q-21 -5 -46 3q-23 7 -60 28q-66 38 -126 50q-86 17 -145 -22q-30 -20 -50 -53z" />
    <glyph glyph-name="hungarumlaut" unicode="&#x2dd;" horiz-adv-x="601" 
d="M274 1156h95l188 404l-184 27zM25 1162l92 17l185 370l-207 21z" />
    <glyph glyph-name="uni02F0" unicode="&#x2f0;" horiz-adv-x="111" 
d="M-41 -284l-303 255l-216 -279l120 -41l107 111l161 -118z" />
    <glyph glyph-name="uni02F3" unicode="&#x2f3;" horiz-adv-x="423" 
d="M334.5 12.5q47.5 -44.5 47.5 -107.5q0 -62 -47.5 -106.5t-113.5 -44.5q-67 0 -114.5 44.5t-47.5 106.5q0 63 47.5 107.5t114.5 44.5q66 0 113.5 -44.5zM211 -44q-13 0 -22.5 -12.5t-9.5 -30.5t9.5 -30.5t22.5 -12.5t22.5 12.5t9.5 30.5t-9.5 30.5t-22.5 12.5z" />
    <glyph glyph-name="uni02F7" unicode="&#x2f7;" horiz-adv-x="711" 
d="M94 -106q-28 -44 -37 -108l117 -27q6 42 25 55q23 15 68 6q46 -9 100 -38q105 -61 181 -41q33 10 72 35q24 16 75 57l7 6l-63 127l-7 -5q-81 -66 -111 -73q-21 -5 -46 3q-23 7 -60 28q-66 38 -126 50q-86 17 -145 -22q-30 -20 -50 -53z" />
    <glyph glyph-name="gravecomb" unicode="&#x300;" horiz-adv-x="381" 
d="M254 1636l-250 -81l257 -280l85 26z" />
    <glyph glyph-name="uni030A" unicode="&#x30a;" horiz-adv-x="423" 
d="M330.5 1709.5q47.5 -44.5 47.5 -107.5q0 -62 -47.5 -106.5t-113.5 -44.5q-67 0 -114.5 44.5t-47.5 106.5q0 63 47.5 107.5t114.5 44.5q66 0 113.5 -44.5zM207 1653q-13 0 -22.5 -12.5t-9.5 -30.5t9.5 -30.5t22.5 -12.5t22.5 12.5t9.5 30.5t-9.5 30.5t-22.5 12.5z" />
    <glyph glyph-name="uni0316" unicode="&#x316;" horiz-adv-x="357" 
d="M281 21l-250 -81l257 -280l85 26z" />
    <glyph glyph-name="uni0317" unicode="&#x317;" horiz-adv-x="404" 
d="M31 -314l85 -26l257 280l-250 81z" />
    <glyph glyph-name="uni0320" unicode="&#x320;" horiz-adv-x="725" 
d="M65 -70l616 15l3 -173l-616 -9z" />
    <glyph glyph-name="dotbelowcomb" unicode="&#x323;" horiz-adv-x="292" 
d="M217.5 -44q36.5 -36 36.5 -87t-36.5 -87.5t-87.5 -36.5t-87 36.5t-36 87.5t36 87t87 36t87.5 -36z" />
    <glyph glyph-name="uni0324" unicode="&#x324;" horiz-adv-x="625" 
d="M478 -36q48 0 81.5 -34t33.5 -81q0 -48 -33.5 -81.5t-81.5 -33.5t-81.5 33.5t-33.5 81.5q0 47 33.5 81t81.5 34zM107 -36q48 0 81.5 -34t33.5 -81q0 -48 -33.5 -81.5t-81.5 -33.5t-81.5 33.5t-33.5 81.5q0 47 33.5 81t81.5 34z" />
    <glyph glyph-name="uni032C" unicode="&#x32c;" horiz-adv-x="0" 
d="M-712 -108l303 -255l216 279l-120 41l-110 -128l-158 135z" />
    <glyph glyph-name="uni032D" unicode="&#x32d;" horiz-adv-x="0" 
d="M-152 -284l-303 255l-216 -279l120 -41l111 124l157 -131z" />
    <glyph glyph-name="uni032E" unicode="&#x32e;" horiz-adv-x="594" 
d="M63 -57q74 -121 177 -116.5t177 69.5q52 44 79 110l60 -92q-44 -197 -225 -234t-332 140z" />
    <glyph glyph-name="uni032F" unicode="&#x32f;" horiz-adv-x="0" 
d="M-239 -370q-234 168 -433 -63l-53 144q267 311 540 76z" />
    <glyph glyph-name="uni0331" unicode="&#x331;" horiz-adv-x="725" 
d="M65 -70l616 15l3 -173l-616 -9z" />
    <glyph glyph-name="uni0332" unicode="&#x332;" horiz-adv-x="725" 
d="M65 -70l616 15l3 -173l-616 -9z" />
    <glyph glyph-name="afii10023" unicode="&#x401;" horiz-adv-x="875" 
d="M184 1618l-134 -1568l726 71q76 318 76 339l-517 -109l49 360l408 71l2 24l-3 10v342l-349 -97q38 248 48 255t373 54q78 319 76 340q-733 -88 -755 -92zM851.5 1955q35.5 -33 35.5 -80t-35.5 -80t-84.5 -33q-50 0 -85.5 33t-35.5 80t35.5 80t85.5 33q49 0 84.5 -33z
M501.5 1959q35.5 -33 35.5 -80t-35.5 -80t-84.5 -33q-50 0 -85.5 33t-35.5 80t35.5 80t85.5 33q49 0 84.5 -33z" />
    <glyph glyph-name="afii10017" unicode="&#x410;" horiz-adv-x="956" 
d="M20 48l291 2l35 201l283 20l102 -192l354 110l-715 1549zM567 542l-178 9l56 420z" />
    <glyph glyph-name="afii10018" unicode="&#x411;" horiz-adv-x="1072" 
d="M710 583q-41 -31 -83 -39l-357 -69l7 289l305 62q144 33 191 -14q23 -23 17 -53q2 -115 -80 -176zM312 1082l16 247l358 77q39 272 37 292q-586 -82 -606 -87l-108 -1474l583 66q296 32 401 307q53 137 47 267q7 307 -209 371q-108 32 -217 3z" />
    <glyph glyph-name="afii10019" unicode="&#x412;" horiz-adv-x="1023" 
d="M403 511q64 2 112 -33q47 -35 52 -88t-35 -95q-40 -43 -103 -53zM339 1238q81 0 141 -55q61 -55 69 -137t-41 -147t-129 -80zM213 0q248 28 428 123q157 83 179 196q26 142 -161 324q64 61 135 155q142 188 172 348q44 226 -141 365q-230 175 -805 206z" />
    <glyph glyph-name="afii10020" unicode="&#x413;" horiz-adv-x="935" 
d="M28 1645l193 -1625l310 43l17 1305l360 73l-13 359z" />
    <glyph glyph-name="afii10021" unicode="&#x414;" horiz-adv-x="1148" 
d="M734 1389l-2 -728l-342 -22q162 308 99 745zM993 679l-13 1054l-752 -127q125 -541 -98 -978l-94 -5l-36 -553l288 31l-12 304l557 31v-335l251 37v547z" />
    <glyph glyph-name="afii10022" unicode="&#x415;" horiz-adv-x="875" 
d="M175 1717l-134 -1568l726 71q76 318 76 339l-517 -109l49 360l408 71l2 24l-3 10v342l-349 -97q38 248 48 255t373 54q78 319 76 340q-733 -88 -755 -92z" />
    <glyph glyph-name="afii10024" unicode="&#x416;" horiz-adv-x="1560" 
d="M974 714l24 -635l-229 14l-41 620q-147 -35 -263 -158q-84 -90 -93 -315q-3 -75 -14 -167l-263 -11q18 109 20 183q8 227 72 347q113 214 185 235q-73 16 -203 218q-74 116 -100 342q-11 92 -21 121q-5 13 -73 29l46 248q215 -73 263 -186q25 -58 41 -187
q14 -114 31 -167q27 -86 87 -139q123 -111 254 -131l-77 781l313 10l30 -776q121 33 229 146q84 89 92 316q5 129 26 189q39 116 223 180l93 -216q-70 -23 -73 -36q-8 -30 -12 -123q-8 -228 -73 -348q-112 -212 -183 -234q72 -16 202 -218q73 -116 100 -341q8 -74 35 -181
l-263 -11q-19 92 -27 165q-13 115 -32 169q-26 84 -86 138q-117 105 -240 129z" />
    <glyph glyph-name="afii10025" unicode="&#x417;" horiz-adv-x="904" 
d="M182 1157q59 60 185 87q96 26 176 -24q244 -210 -282 -316l1 -173q91 -11 204 -90q81 -57 97 -100q17 -50 -85 -77q-96 -26 -299 -29l24 -266q265 12 445.5 106t178 278t-226.5 251q266 134 271 284t-105 241.5t-224 112.5t-268 6t-252 -114z" />
    <glyph glyph-name="afii10026" unicode="&#x418;" horiz-adv-x="1164" 
d="M883 1759l-385 -815l-128 694l-333 -36l212 -1494l507 663l57 -702l318 39z" />
    <glyph glyph-name="afii10027" unicode="&#x419;" horiz-adv-x="1164" 
d="M883 1759l-385 -815l-128 694l-333 -36l212 -1494l507 663l57 -702l318 39zM339 1981q234 -168 433 63l53 -144q-267 -311 -540 -76z" />
    <glyph glyph-name="afii10028" unicode="&#x41a;" horiz-adv-x="1131" 
d="M181 0l223 26l-5 562l448 -508l356 161l-606 560q252 83 352.5 356t79.5 433h-291q12 -302 -104 -453q-85 -110 -228 -132l1 653l-407 -77z" />
    <glyph glyph-name="afii10029" unicode="&#x41b;" horiz-adv-x="1120" 
d="M1067 411l-86 1342l-815 -253q30 -291 9 -609q-41 -637 -295 -771l191 -176q100 47 197 231q194 369 180 1057l298 112l17 -1344z" />
    <glyph glyph-name="afii10030" unicode="&#x41c;" horiz-adv-x="1278" 
d="M618 603l-325 1023l-293 -1558l274 -44l112 474q302 -538 302 -535l198 640l3 -602l363 45l-153 1714h-6z" />
    <glyph glyph-name="afii10031" unicode="&#x41d;" horiz-adv-x="960" 
d="M-28 1789l240 -1844l14 4l159 142l18 604l229 39l-7 -560l174 -41l173 1684l-336 -52l-21 -809l-230 -56l-27 948z" />
    <glyph glyph-name="afii10032" unicode="&#x41e;" horiz-adv-x="1242" 
d="M1143.5 1448q97.5 -253 17.5 -598q-81 -345 -292.5 -579.5t-430.5 -221.5t-316.5 266t-16.5 598q80 345 291.5 579.5t430.5 221.5t316.5 -266zM644 1123q-73 9 -147 -92.5t-106 -254.5q-31 -153 -1.5 -268t102.5 -124q74 -9 148 93t105 255q32 153 2 267.5t-103 123.5z
" />
    <glyph glyph-name="afii10033" unicode="&#x41f;" horiz-adv-x="1096" 
d="M972 1730l-982 -69l158 -1532l364 103l-165 1072l361 69l-7 -1120l340 82z" />
    <glyph glyph-name="afii10034" unicode="&#x420;" horiz-adv-x="1138" 
d="M59 1672l44 -1687l240 28l99 524q726 -11 653.5 606.5t-1036.5 528.5zM873 1023q-53 -265 -396 -246l50 521q349 -3 346 -275z" />
    <glyph glyph-name="afii10035" unicode="&#x421;" horiz-adv-x="1105" 
d="M1073 1604q-355 -32 -613.5 -196t-367.5 -436.5t-46 -527t285.5 -302.5t673.5 129l-108 406q-107 -127 -219 -200q-224 -148 -248 115q-31 148 21 309q103 322 515 389z" />
    <glyph glyph-name="afii10036" unicode="&#x422;" horiz-adv-x="1345" 
d="M1263 1768l12 -321l-359 -73l-17 -1304l-273 -37l-116 1285l-455 -69l-34 403z" />
    <glyph glyph-name="afii10037" unicode="&#x423;" horiz-adv-x="1252" 
d="M448 1651l-366 -265l603 -722q-204 -321 -480 -80l-186 -341q258 -214 641 -85t703 1500l-366 95q-55 -616 -203 -866z" />
    <glyph glyph-name="afii10038" unicode="&#x424;" horiz-adv-x="1211" 
d="M723 400q4 0 9 1q121 17 187.5 166.5t39.5 344.5q-28 195 -133 321q-22 25 -44 45zM509 506l-1 797q-57 -42 -95 -129q-66 -150 -39 -344q27 -195 132 -320q2 -2 3 -4zM807 1652q63 -44 124 -110q203 -226 252 -579q50 -352 -83.5 -625t-371.5 -307q-15 -2 -30 -3
l-9 -130l-179 -29v189q-116 47 -223 166q-203 225 -253 578q-49 353 84 625.5t371 306.5l18 2v112l317 57z" />
    <glyph glyph-name="afii10039" unicode="&#x425;" horiz-adv-x="1323" 
d="M526 591l-240 -466l173 -125l230 372l231 -310l177 81l-266 459l532 861l-291 188l-399 -775l-406 703l-303 -230z" />
    <glyph glyph-name="afii10040" unicode="&#x426;" horiz-adv-x="1107" 
d="M843 92l219 45l-28 333h-1v3l-110 -10l212 1281l-351 11l-75 -1311l-255 -23v1316l-396 -62l145 -1550l652 112z" />
    <glyph glyph-name="afii10041" unicode="&#x427;" horiz-adv-x="966" 
d="M266 755q50 -6 117 7q136 28 220 127l14 -816l370 -11l-227 1634l-1 -2v16l-230 -22q23 -204 -48 -544q-3 -8 -8 -26q-18 -52 -59 -89q-56 -53 -98 17q-41 68 -18 329q6 78 18 176q11 80 11 81l-289 -73l-8 -183q-4 -121 17 -257q43 -273 173 -346q18 -11 46 -18z" />
    <glyph glyph-name="afii10042" unicode="&#x428;" horiz-adv-x="1237" 
d="M38 1662l151 -1677l929 172l62 1565l-358 -28l62 -1251l-167 -6l-17 1280l-296 -2l124 -1285h-116l-84 1259z" />
    <glyph glyph-name="afii10043" unicode="&#x429;" horiz-adv-x="1348" 
d="M1165 117v-238l190 26l-28 499l-197 2l50 1268l-358 7l63 -1257l-167 11l-18 1282l-296 27l125 -1297l-116 11l-84 1268l-291 2l151 -1692l872 74z" />
    <glyph glyph-name="afii10044" unicode="&#x42a;" horiz-adv-x="988" 
d="M475 279l-155 20l40 328l165 -22q70 -6 115 -59q44 -53 38 -121q-7 -68 -59 -112q-53 -43 -122 -37q-20 2 -22 3zM-374 1766l25 -266l359 -36l52 -1413l68 -5l316 -42q8 -1 24 -1q19 0 24 -1q172 -16 303 90q132 106 148 273q17 168 -93 298t-282 145l-167 22l105 863
l-283 21z" />
    <glyph glyph-name="afii10045" unicode="&#x42b;" horiz-adv-x="1491" 
d="M601 305l-156 5l5 330l167 -5q70 1 120 -46q50 -48 50 -117q1 -68 -46 -117q-48 -48 -118 -49q-19 -1 -22 -1zM472 846l14 870l-509 -17l237 -1663l69 2l318 -8q8 -1 24 1q19 1 24 1q173 3 292 121q120 119 119 288t-124 286q-123 118 -296 115zM1107 145l-91 1635
l451 24l-168 -1646z" />
    <glyph glyph-name="afii10046" unicode="&#x42c;" horiz-adv-x="1034" 
d="M539 278l-156 5l5 330l167 -5q70 1 120 -46q50 -48 50 -117q1 -68 -46 -117q-48 -48 -118 -49q-19 -1 -22 -1zM410 819l14 870l-509 -16l237 -1664l69 2l318 -8q8 -1 24 1q19 1 24 1q173 3 292 122q120 118 119 287t-124 286q-123 118 -296 115z" />
    <glyph glyph-name="afii10047" unicode="&#x42d;" horiz-adv-x="1055" 
d="M317 1036l-96 -206l433 -57q-2 -93 -33 -181q-61 -263 -264 -115q-102 73 -191 200l-165 -406q426 -177 681 -124q204 43 289 230q61 133 57 326q-4 267 -102.5 510.5t-470.5 376.5q-117 41 -238 32q-61 -5 -98 -18l64 -314q343 -57 436 -300z" />
    <glyph glyph-name="afii10048" unicode="&#x42e;" horiz-adv-x="1648" 
d="M1104 1099q-73 9 -147 -92.5t-106 -254.5q-31 -153 -1.5 -268t102.5 -124q74 -9 148 93t105 255q32 153 2 267.5t-103 123.5zM575 930q83 318 282 539q211 234 430 221t316.5 -266t17.5 -598q-81 -345 -292.5 -579.5t-430.5 -221.5t-316 266q-71 184 -48 416l-146 -24
l-38 -653l-175 25l-203 1540l474 73l-44 -754z" />
    <glyph glyph-name="afii10049" unicode="&#x42f;" horiz-adv-x="1010" 
d="M340 973l-304 -650l235 -223l344 631l47 -657l285 -75l-15 1750l-76 6q-1072 17 -516 -782zM617 1503l15 -323q-198 -12 -203 153q-7 167 188 170z" />
    <glyph glyph-name="afii10065" unicode="&#x430;" horiz-adv-x="836" 
d="M276 253q-36 60 -36 144q0 85 36 145q36 61 88 61q51 0 87 -61q36 -60 36 -145q0 -84 -36 -144q-36 -61 -87 -61q-52 0 -88 61zM663 842l-200 -20l-6 -54q-54 15 -108 15q-159 0 -271 -107q-113 -108 -113 -260t113 -260q112 -107 271 -107q69 0 187 63l12 -69l231 63z
" />
    <glyph glyph-name="afii10066" unicode="&#x431;" horiz-adv-x="914" 
d="M427 627q76 -52 115 -134q38 -83 17 -147q-21 -66 -89 -75q-69 -8 -144 44q-76 51 -115 134q-38 83 -17 148q20 65 89 74q68 9 144 -44zM906 1279q-124 -79 -351.5 38.5t-383.5 -73t-185.5 -481t84.5 -499.5q86 -169 243 -234q155 -65 288 10q134 75 167 246
q33 169 -53 335q-51 99 -84 140q-48 59 -140.5 97.5t-223.5 14.5q4 18 19 94q10 51 21 79q31 76 88.5 95t105 9.5t153 -77.5t285.5 -50z" />
    <glyph glyph-name="afii10067" unicode="&#x432;" horiz-adv-x="746" 
d="M283 333q57 -4 97 -23q40 -20 42 -46q2 -25 -35 -43q-37 -17 -92 -18zM259 683q71 -5 121 -36q52 -30 55 -69q4 -40 -42 -68q-46 -27 -117 -29zM94 102q219 -3 382 30q142 29 166 81q29 66 -128 165q59 25 124 85t83 147.5t-100 178t-622 144.5z" />
    <glyph glyph-name="afii10068" unicode="&#x433;" horiz-adv-x="629" 
d="M75 98l-75 722l567 113l10 -268l-333 -45l27 -512z" />
    <glyph glyph-name="afii10069" unicode="&#x434;" horiz-adv-x="856" 
d="M545 722l-1 -309l-199 -9q94 131 58 316zM733 415l-9 543l-548 -68q92 -269 -71 -502l-69 -3l-26 -295l210 17l-9 162l406 16v-178l183 20v291z" />
    <glyph glyph-name="afii10070" unicode="&#x435;" 
d="M45 467q79 -244 289 -293t428 78l-18 176q-153 -98 -297 -87t-161 142l489 125q-27 107 -38 129q-124 263 -442 210q-360 -110 -250 -480zM530 671l-258 -72q-20 116 56 181q137 35 202 -109z" />
    <glyph glyph-name="afii10072" unicode="&#x436;" horiz-adv-x="1044" 
d="M278 365q-32 -21 -45 -54q-10 -22 -16 -71q-4 -34 -19 -92l-199 3q23 73 27 105q14 108 61 165q82 98 29 89q53 -11 -23 90q-44 58 -52 167q-4 39 -8 49q2 -3 -57 10l74 135q133 -32 163 -93q15 -30 20 -93q7 -93 52 -127q65 -48 116 -57l9 347l229 -1l-38 -351
q55 7 126 56q32 21 45 54q9 22 16 71q8 62 25 92q32 59 186 100l42 -151q-53 -10 -52 -7q-4 -11 -10 -49q-14 -109 -62 -166q-81 -98 -28 -88q-53 11 23 -91q45 -58 53 -167q1 -32 20 -104l-199 3q-11 58 -14 93q-7 92 -53 127q-69 52 -138 63l-17 -277l-175 -10l8 285
q-52 -8 -119 -55z" />
    <glyph glyph-name="afii10073" unicode="&#x437;" horiz-adv-x="730" 
d="M10 881q82 90 215 113q115 19 232 -6q89 -19 153 -60q66 -42 90 -98q4 -10 8 -21q39 -144 -205 -271q107 -28 153 -119q6 -13 10 -26q27 -101 -112 -182q-123 -73 -332 -100l-39 210q162 17 227 39q51 17 46 29q-11 22 -67 51q-81 43 -158 45l-13 146q357 96 208 194
q-52 24 -134 2q-83 -24 -130 -77z" />
    <glyph glyph-name="afii10074" unicode="&#x438;" horiz-adv-x="733" 
d="M587 911l-311 -355l52 324l-303 -10l52 -798l385 329l15 -370l225 5z" />
    <glyph glyph-name="afii10075" unicode="&#x439;" horiz-adv-x="733" 
d="M587 911l-311 -355l52 324l-303 -10l52 -798l385 329l15 -370l225 5zM154 1339q234 -168 433 63l53 -144q-267 -311 -540 -76z" />
    <glyph glyph-name="afii10076" unicode="&#x43a;" horiz-adv-x="904" 
d="M142 26l173 15l1 280l345 -248l277 95l-622 315q311 55 430 274q59 109 56 208h-227q10 -178 -81 -268q-66 -65 -178 -78l1 386l-317 -45z" />
    <glyph glyph-name="afii10077" unicode="&#x43b;" horiz-adv-x="794" 
d="M746 57l-52 868l-631 -94q12 -158 -15 -329q-56 -340 -254 -399l139 -105q78 20 159 114q162 189 175 540l219 17l-32 -596z" />
    <glyph glyph-name="afii10078" unicode="&#x43c;" horiz-adv-x="1031" 
d="M481 422l-253 573l-228 -873l213 -25l88 266q235 -302 235 -300l154 359l2 -338l283 26l-119 960h-5z" />
    <glyph glyph-name="afii10079" unicode="&#x43d;" horiz-adv-x="821" 
d="M-28 958l193 -953l11 2l128 73l14 312l184 21l-6 -290l140 -21l139 870l-270 -27l-17 -418l-184 -29l-22 490z" />
    <glyph glyph-name="afii10080" unicode="&#x43e;" horiz-adv-x="704" 
d="M289 189q-47 40 -69 109q-21 69 -5 126t61 69t91 -28q47 -40 69 -109t5 -126q-16 -58 -61 -70q-44 -12 -91 29zM472 736q-128 90 -258 55t-186 -174t-5 -301t179 -252q127 -89 257 -54t186 174t5 301q-50 162 -178 251z" />
    <glyph glyph-name="afii10081" unicode="&#x43f;" horiz-adv-x="775" 
d="M746 918l-691 73l-17 -816l263 13l-26 577l257 -4l-98 -583l245 5z" />
    <glyph glyph-name="afii10082" unicode="&#x440;" horiz-adv-x="835" 
d="M476 646q20 -43 8 -121q-11 -75 -50 -112q-34 -33 -78 -26q-42 6 -60 47q-20 44 -8 121q11 75 50 112q34 33 78 26q42 -6 60 -47zM297 -165l18 371q82 -25 168 -16q158 17 259 128t86 251t-137 227t-280 70q-51 -5 -101 -23l4 49l-227 34l-60 -1173z" />
    <glyph glyph-name="afii10083" unicode="&#x441;" horiz-adv-x="684" 
d="M629 406q-92 -27 -199 16q-89 36 -132 100q-43 63 -15 117q27 53 105 66q80 13 166 -19l130 200q-77 40 -165 50q-181 22 -326 -81q-146 -101 -170 -266t87 -296q112 -132 293 -152q93 -12 147 -1q43 8 107 42z" />
    <glyph glyph-name="afii10084" unicode="&#x442;" horiz-adv-x="825" 
d="M-12 872l42 -282l272 80l18 -540l302 91l-72 512l226 61l-1 143z" />
    <glyph glyph-name="afii10085" unicode="&#x443;" horiz-adv-x="648" 
d="M446 1010l-123 -416l-99 293l-7 -2l-235 -142l217 -416l-201 -693l197 -139l476 1420z" />
    <glyph glyph-name="afii10086" unicode="&#x444;" horiz-adv-x="1302" 
d="M997 602q23 -49 9 -139q-12 -86 -57 -128q-39 -38 -89 -30q-49 7 -69 54q-23 50 -9 139q12 86 57 128q39 38 89 30q48 -7 69 -54zM480 527q4 -68 -26 -118.5t-77 -52.5q-46 -2 -81 44.5t-39 114.5q-4 69 26.5 119t76.5 52q46 3 81.5 -44t38.5 -115zM349 799
q-153 -8 -256 -104.5t-96 -225.5q7 -128 119.5 -213t265.5 -77q72 4 134 28l-19 -367l270 34l11 285q82 -25 168 -16q158 17 259 128t86 251t-137 227t-280 70q-51 -5 -101 -23l14 269l-227 34l-16 -335q-87 41 -195 35z" />
    <glyph glyph-name="afii10087" unicode="&#x445;" horiz-adv-x="788" 
d="M-1 726l269 -308l-188 -256l65 -80l2 3l224 214l200 -230h6l83 72l-155 302l263 276l-87 266l-265 -365l-4 3l-194 383l-8 4z" />
    <glyph glyph-name="afii10088" unicode="&#x446;" horiz-adv-x="794" 
d="M471 36l120 2l22 218h-1v2l-74 4l225 630l-233 34l-135 -657l-172 8l87 666l-268 -1l-5 -803l441 7z" />
    <glyph glyph-name="afii10089" unicode="&#x447;" horiz-adv-x="716" 
d="M146 500q40 -3 94 4q111 14 187 64l-56 -415l296 -5l-49 830l-1 -1l1 8l-186 -11q2 -104 -82 -277q-3 -4 -9 -13q-19 -26 -54 -45q-49 -27 -77 9q-28 34 11 167q12 39 30 89l15 41l-238 -37l-21 -93q-13 -61 -7 -130q12 -139 110 -176q14 -5 36 -9z" />
    <glyph glyph-name="afii10090" unicode="&#x448;" horiz-adv-x="951" 
d="M14 907l117 -771l724 79l48 720l-279 -13l49 -576l-130 -2l-14 589l-230 -2l97 -590h-91l-65 579z" />
    <glyph glyph-name="afii10091" unicode="&#x449;" horiz-adv-x="1106" 
d="M948 141l-9 -110l167 -1l-7 233l-172 14l90 584l-312 28l10 -587l-145 17l30 595l-257 33l62 -610l-100 13l-28 593l-253 21l70 -794l763 -25z" />
    <glyph glyph-name="afii10092" unicode="&#x44a;" horiz-adv-x="897" 
d="M588 251l-107 11l27 169l115 -12q48 -3 79 -30t27 -63q-5 -35 -41 -57q-37 -23 -85 -19q-13 1 -15 1zM0 939l17 -137l249 -19l36 -650l47 -2l219 -22h17q13 0 16 -1q119 -8 210 46q92 55 103 141q11 87 -65 154t-195 75l-116 12l62 439z" />
    <glyph glyph-name="afii10093" unicode="&#x44b;" horiz-adv-x="934" 
d="M361 197l-96 2l3 176l103 -3q43 1 74 -25q31 -25 31 -62q0 -36 -29 -62t-72 -26q-12 -1 -14 0zM282 484l8 464l-313 -9l146 -886l42 1l196 -4q5 -1 15 0q11 1 14 1q107 1 181 65q73 63 72 153q0 89 -76 152t-182 62zM672 111l-55 871l277 13l-103 -877z" />
    <glyph glyph-name="afii10094" unicode="&#x44c;" horiz-adv-x="849" 
d="M492 212l-178 -9l25 212l153 8q64 5 112 -22t51 -71q4 -43 -38 -77q-41 -34 -105 -39q-18 -2 -20 -2zM358 532l47 379l-407 -37l149 -796l90 -6l255 13q7 0 19 2q15 2 19 2q139 11 230 84t83 167q-7 93 -110 152q-103 58 -241 47z" />
    <glyph glyph-name="afii10095" unicode="&#x44d;" horiz-adv-x="639" 
d="M179 619v-146l170 12q-41 -45 -111 -74q-105 -44 -196 -16l-64 -228q50 -9 92 -17q53 -11 145 1q179 20 289 136q109 148 86 314q-24 165 -168 267q-143 103 -321 81q-87 -10 -114 -39l129 -234q85 32 163 19q78 -14 105 -66z" />
    <glyph glyph-name="afii10096" unicode="&#x44e;" horiz-adv-x="1065" 
d="M674 613q-45 4 -91 -44t-66 -120q-19 -73 -0.5 -127.5t63.5 -58.5q46 -4 91.5 44t65.5 121q20 72 1 126.5t-64 58.5zM346 533q51 150 175 255q131 111 267 105q135 -6 195.5 -126t11.5 -283q-51 -164 -182 -275t-267 -104q-136 6 -196 126q-44 86 -29 196l-91 -11
l-24 -309l-108 12l-126 729l294 34l-27 -357z" />
    <glyph glyph-name="afii10097" unicode="&#x44f;" horiz-adv-x="808" 
d="M220 528l-210 -370l203 -98l244 363l74 -343l236 -16l-109 925l-63 -4q-870 -82 -375 -457zM415 832l30 -170q-159 -23 -172 64q-15 87 142 106z" />
    <glyph glyph-name="afii10071" unicode="&#x451;" 
d="M45 467q79 -244 289 -293t428 78l-18 176q-153 -98 -297 -87t-161 142l489 125q-27 107 -38 129q-124 263 -442 210q-360 -110 -250 -480zM530 671l-258 -72q-20 116 56 181q137 35 202 -109zM620.5 1209q35.5 -33 35.5 -80t-35.5 -80t-84.5 -33q-50 0 -85.5 33t-35.5 80
t35.5 80t85.5 33q49 0 84.5 -33zM270.5 1213q35.5 -33 35.5 -80t-35.5 -80t-84.5 -33q-50 0 -85.5 33t-35.5 80t35.5 80t85.5 33q49 0 84.5 -33z" />
    <glyph glyph-name="uni1E00" unicode="&#x1e00;" horiz-adv-x="956" 
d="M20 48l291 2l35 201l283 20l102 -192l354 110l-715 1549zM567 542l-178 9l56 420z" />
    <glyph glyph-name="uni1E01" unicode="&#x1e01;" horiz-adv-x="836" 
d="M276 253q-36 60 -36 144q0 85 36 145q36 61 88 61q51 0 87 -61q36 -60 36 -145q0 -84 -36 -144q-36 -61 -87 -61q-52 0 -88 61zM663 842l-200 -20l-6 -54q-54 15 -108 15q-159 0 -271 -107q-113 -108 -113 -260t113 -260q112 -107 271 -107q69 0 187 63l12 -69l231 63z
" />
    <glyph glyph-name="uni1E02" unicode="&#x1e02;" horiz-adv-x="1023" 
d="M403 511q64 2 112 -33q47 -35 52 -88t-35 -95q-40 -43 -103 -53zM339 1238q81 0 141 -55q61 -55 69 -137t-41 -147t-129 -80zM213 0q248 28 428 123q157 83 179 196q26 142 -161 324q64 61 135 155q142 188 172 348q44 226 -141 365q-230 175 -805 206zM639.5 1982
q42.5 -40 42.5 -96t-42.5 -96t-102.5 -40t-102.5 40t-42.5 96t42.5 96t102.5 40t102.5 -40z" />
    <glyph glyph-name="uni1E03" unicode="&#x1e03;" horiz-adv-x="867" 
d="M593 547q31 -51 31 -124q0 -72 -31 -123q-31 -52 -75 -52t-75 51q-31 52 -31 124t31 124q31 51 75 51t75 -51zM238 19l174 21l-2 47q52 -14 104 -14q153 1 261 103q108 103 108 248q0 144 -109 247q-108 102 -261 102q-66 0 -130 -23l-32 620l-296 -56zM375.5 1707
q42.5 -40 42.5 -96t-42.5 -96t-102.5 -40t-102.5 40t-42.5 96t42.5 96t102.5 40t102.5 -40z" />
    <glyph glyph-name="uni1E04" unicode="&#x1e04;" horiz-adv-x="1023" 
d="M403 511q64 2 112 -33q47 -35 52 -88t-35 -95q-40 -43 -103 -53zM339 1238q81 0 141 -55q61 -55 69 -137t-41 -147t-129 -80zM213 0q248 28 428 123q157 83 179 196q26 142 -161 324q64 61 135 155q142 188 172 348q44 226 -141 365q-230 175 -805 206zM642.5 -69
q42.5 -40 42.5 -96t-42.5 -96t-102.5 -40t-102.5 40t-42.5 96t42.5 96t102.5 40t102.5 -40z" />
    <glyph glyph-name="uni1E05" unicode="&#x1e05;" horiz-adv-x="867" 
d="M593 547q31 -51 31 -124q0 -72 -31 -123q-31 -52 -75 -52t-75 51q-31 52 -31 124t31 124q31 51 75 51t75 -51zM238 19l174 21l-2 47q52 -14 104 -14q153 1 261 103q108 103 108 248q0 144 -109 247q-108 102 -261 102q-66 0 -130 -23l-32 620l-296 -56zM490.5 -99
q42.5 -40 42.5 -96t-42.5 -96t-102.5 -40t-102.5 40t-42.5 96t42.5 96t102.5 40t102.5 -40z" />
    <glyph glyph-name="uni1E06" unicode="&#x1e06;" horiz-adv-x="1023" 
d="M403 511q64 2 112 -33q47 -35 52 -88t-35 -95q-40 -43 -103 -53zM339 1238q81 0 141 -55q61 -55 69 -137t-41 -147t-129 -80zM213 0q248 28 428 123q157 83 179 196q26 142 -161 324q64 61 135 155q142 188 172 348q44 226 -141 365q-230 175 -805 206zM228 -70l616 15
l3 -173l-616 -9z" />
    <glyph glyph-name="uni1E07" unicode="&#x1e07;" horiz-adv-x="867" 
d="M593 547q31 -51 31 -124q0 -72 -31 -123q-31 -52 -75 -52t-75 51q-31 52 -31 124t31 124q31 51 75 51t75 -51zM238 19l174 21l-2 47q52 -14 104 -14q153 1 261 103q108 103 108 248q0 144 -109 247q-108 102 -261 102q-66 0 -130 -23l-32 620l-296 -56zM160 -70l616 15
l3 -173l-616 -9z" />
    <glyph glyph-name="uni1E08" unicode="&#x1e08;" horiz-adv-x="1105" 
d="M580 39q104 -31 100 -92q-3 -42 -41 -65q-34 -20 -74 -16l-29 -1l-5 -70q139 -4 226 30q92 36 97 115q8 102 -142 145l10 99q120 32 259 87l-108 406q-107 -127 -219 -200q-224 -148 -248 115q-31 148 21 309q103 322 515 389l107 314q-35 13 -95 18q-120 9 -242 -32
q-391 -133 -659 -722q-24 -69 -39 -165q-31 -193 12 -326q59 -187 257 -230q125 -27 303 5zM963 2017l-246 30l-166 -344l125 -34z" />
    <glyph glyph-name="uni1E09" unicode="&#x1e09;" horiz-adv-x="717" 
d="M265 52q104 -27 100 -78q-3 -36 -41 -54q-34 -18 -74 -14l-29 -1l-4 -59q138 -3 224 25q91 31 97 97q7 86 -142 122l6 49q81 -9 130 1q41 9 103 46l-27 243q-89 -30 -192 17q-86 39 -127 108q-42 69 -15 127q26 57 102 72q77 14 160 -21l125 216q-74 44 -159 55
q-175 23 -315 -88q-141 -110 -164 -288q-23 -179 84 -321q69 -91 165 -133zM777 1449l-246 30l-166 -344l125 -34z" />
    <glyph glyph-name="uni1E0A" unicode="&#x1e0a;" horiz-adv-x="1262" 
d="M61 1571l55 -340l255 35l59 -985l-9 -3l-87 -6l-23 -3l-48 -3q0 -12 48 -279q17 -6 269.5 69t532.5 287q425 387 257.5 821t-611.5 460q-422 13 -698 -53zM1067 1034q100 -480 -298 -666l-32 -11l-15 -5q-17 -7 -35 -9l-67 952q5 15 17 16q305 18 430 -277zM816.5 1991
q42.5 -40 42.5 -96t-42.5 -96t-102.5 -40t-102.5 40t-42.5 96t42.5 96t102.5 40t102.5 -40z" />
    <glyph glyph-name="uni1E0B" unicode="&#x1e0b;" horiz-adv-x="891" 
d="M299 458q15 87 61 128q41 38 92 29q105 -19 74 -198q-16 -87 -61 -129q-41 -37 -92 -28q-106 19 -74 198zM571 1255l-14 -515q-130 34 -213 28q-153 -13 -254 -117q-100 -105 -89 -241q11 -135 127 -222t269 -75q49 4 98 20l-5 -48l245 -85l108 1277zM457.5 1258
q42.5 -40 42.5 -96t-42.5 -96t-102.5 -40t-102.5 40t-42.5 96t42.5 96t102.5 40t102.5 -40z" />
    <glyph glyph-name="uni1E0C" unicode="&#x1e0c;" horiz-adv-x="1262" 
d="M-6 1729l55 -340l255 35l59 -985l-9 -3l-87 -6l-23 -3l-48 -3q0 -12 48 -279q17 -6 269.5 69t532.5 287q425 387 257.5 821t-611.5 460q-422 13 -698 -53zM1000 1192q100 -480 -298 -666l-32 -11l-15 -5q-17 -7 -35 -9l-67 952q5 15 17 16q305 18 430 -277zM786.5 142
q36.5 -36 36.5 -87t-36.5 -87.5t-87.5 -36.5t-87 36.5t-36 87.5t36 87t87 36t87.5 -36z" />
    <glyph glyph-name="uni1E0D" unicode="&#x1e0d;" horiz-adv-x="891" 
d="M299 458q15 87 61 128q41 38 92 29q105 -19 74 -198q-16 -87 -61 -129q-41 -37 -92 -28q-106 19 -74 198zM571 1255l-14 -515q-130 34 -213 28q-153 -13 -254 -117q-100 -105 -89 -241q11 -135 127 -222t269 -75q49 4 98 20l-5 -48l245 -85l108 1277zM508.5 -44
q36.5 -36 36.5 -87t-36.5 -87.5t-87.5 -36.5t-87 36.5t-36 87.5t36 87t87 36t87.5 -36z" />
    <glyph glyph-name="uni1E0E" unicode="&#x1e0e;" horiz-adv-x="1262" 
d="M-6 1729l55 -340l255 35l59 -985l-9 -3l-87 -6l-23 -3l-48 -3q0 -12 48 -279q17 -6 269.5 69t532.5 287q425 387 257.5 821t-611.5 460q-422 13 -698 -53zM1000 1192q100 -480 -298 -666l-32 -11l-15 -5q-17 -7 -35 -9l-67 952q5 15 17 16q305 18 430 -277zM368 98
l616 15l3 -173l-616 -9z" />
    <glyph glyph-name="uni1E0F" unicode="&#x1e0f;" horiz-adv-x="891" 
d="M299 458q15 87 61 128q41 38 92 29q105 -19 74 -198q-16 -87 -61 -129q-41 -37 -92 -28q-106 19 -74 198zM571 1255l-14 -515q-130 34 -213 28q-153 -13 -254 -117q-100 -105 -89 -241q11 -135 127 -222t269 -75q49 4 98 20l-5 -48l245 -85l108 1277zM112 -70l616 15
l3 -173l-616 -9z" />
    <glyph glyph-name="uni1E10" unicode="&#x1e10;" horiz-adv-x="1262" 
d="M-6 1729l55 -340l255 35l59 -985l-9 -3l-87 -6l-23 -3l-48 -3q0 -12 48 -279q17 -6 269.5 69t532.5 287q425 387 257.5 821t-611.5 460q-422 13 -698 -53zM1000 1192q100 -480 -298 -666l-32 -11l-15 -5q-17 -7 -35 -9l-67 952q5 15 17 16q305 18 430 -277zM722 302
l135 -36l-15 -139q150 -43 143 -145q-6 -79 -98 -115q-86 -34 -225 -30l4 70l29 1q41 -4 74 16q38 23 42 65q4 61 -100 92z" />
    <glyph glyph-name="uni1E11" unicode="&#x1e11;" horiz-adv-x="891" 
d="M299 458q15 87 61 128q41 38 92 29q105 -19 74 -198q-16 -87 -61 -129q-41 -37 -92 -28q-106 19 -74 198zM571 1255l-14 -515q-130 34 -213 28q-153 -13 -254 -117q-100 -105 -89 -241q11 -135 127 -222t269 -75q49 4 98 20l-5 -48l245 -85l108 1277zM320 95l135 -36
l-15 -139q150 -43 143 -145q-6 -79 -98 -115q-86 -34 -225 -30l4 70l29 1q41 -4 74 16q38 23 42 65q4 61 -100 92z" />
    <glyph glyph-name="uni1E12" unicode="&#x1e12;" horiz-adv-x="1262" 
d="M-6 1729l55 -340l255 35l59 -985l-9 -3l-87 -6l-23 -3l-48 -3q0 -12 48 -279q17 -6 269.5 69t532.5 287q425 387 257.5 821t-611.5 460q-422 13 -698 -53zM1000 1192q100 -480 -298 -666l-32 -11l-15 -5q-17 -7 -35 -9l-67 952q5 15 17 16q305 18 430 -277zM952 -284
l-303 255l-216 -279l120 -41l111 124l157 -131z" />
    <glyph glyph-name="uni1E13" unicode="&#x1e13;" horiz-adv-x="891" 
d="M299 458q15 87 61 128q41 38 92 29q105 -19 74 -198q-16 -87 -61 -129q-41 -37 -92 -28q-106 19 -74 198zM571 1255l-14 -515q-130 34 -213 28q-153 -13 -254 -117q-100 -105 -89 -241q11 -135 127 -222t269 -75q49 4 98 20l-5 -48l245 -85l108 1277zM688 -215l-303 255
l-216 -279l120 -41l111 124l157 -131z" />
    <glyph glyph-name="uni1E14" unicode="&#x1e14;" horiz-adv-x="875" 
d="M175 1717l-134 -1568l726 71q76 318 76 339l-517 -109l49 360l408 71l2 24l-3 10v342l-349 -97q38 248 48 255t373 54q78 319 76 340q-733 -88 -755 -92zM841 1863l-533 -39l-11 106l538 62zM471 2026l123 11l-196 325l-247 -56z" />
    <glyph glyph-name="uni1E15" unicode="&#x1e15;" 
d="M45 467q79 -244 289 -293t428 78l-18 176q-153 -98 -297 -87t-161 142l489 125q-27 107 -38 129q-124 263 -442 210q-360 -110 -250 -480zM530 671l-258 -72q-20 116 56 181q137 35 202 -109zM138 1194l445 10l14 -146l-496 -12zM298 1627l-250 -81l257 -280l85 26z" />
    <glyph glyph-name="uni1E16" unicode="&#x1e16;" 
d="M349 2029l445 10l14 -146l-496 -12zM509 2462l-250 -81l257 -280l85 26zM175 1717l-134 -1568l726 71q76 318 76 339l-517 -109l49 360l408 71l2 24l-3 10v342l-349 -97q38 248 48 255t373 54q78 319 76 340q-733 -88 -755 -92z" />
    <glyph glyph-name="uni1E17" unicode="&#x1e17;" 
d="M45 467q79 -244 289 -293t428 78l-18 176q-153 -98 -297 -87t-161 142l489 125q-27 107 -38 129q-124 263 -442 210q-360 -110 -250 -480zM530 671l-258 -72q-20 116 56 181q137 35 202 -109zM150 1169l445 10l14 -146l-496 -12zM702 1569l-246 30l-166 -344l125 -34z
" />
    <glyph glyph-name="uni1E18" unicode="&#x1e18;" horiz-adv-x="875" 
d="M175 1717l-134 -1568l726 71q76 318 76 339l-517 -109l49 360l408 71l2 24l-3 10v342l-349 -97q38 248 48 255t373 54q78 319 76 340q-733 -88 -755 -92zM805 -284l-303 255l-216 -279l120 -41l111 124l157 -131z" />
    <glyph glyph-name="uni1E19" unicode="&#x1e19;" 
d="M45 467q79 -244 289 -293t428 78l-18 176q-153 -98 -297 -87t-161 142l489 125q-27 107 -38 129q-124 263 -442 210q-360 -110 -250 -480zM530 671l-258 -72q-20 116 56 181q137 35 202 -109zM657 -284l-303 255l-216 -279l120 -41l111 124l157 -131z" />
    <glyph glyph-name="uni1E1A" unicode="&#x1e1a;" horiz-adv-x="875" 
d="M175 1717l-134 -1568l726 71q76 318 76 339l-517 -109l49 360l408 71l2 24l-3 10v342l-349 -97q38 248 48 255t373 54q78 319 76 340q-733 -88 -755 -92zM213 -20q-28 -44 -37 -108l117 -27q6 42 25 55q23 15 68 6q46 -9 100 -38q105 -61 181 -41q33 10 72 35
q24 16 75 57l7 6l-63 127l-7 -5q-81 -66 -111 -73q-21 -5 -46 3q-23 7 -60 28q-66 38 -126 50q-86 17 -145 -22q-30 -20 -50 -53z" />
    <glyph glyph-name="uni1E1B" unicode="&#x1e1b;" 
d="M45 467q79 -244 289 -293t428 78l-18 176q-153 -98 -297 -87t-161 142l489 125q-27 107 -38 129q-124 263 -442 210q-360 -110 -250 -480zM530 671l-258 -72q-20 116 56 181q137 35 202 -109zM177 11q-28 -44 -37 -108l117 -27q6 42 25 55q23 15 68 6q46 -9 100 -38
q105 -61 181 -41q33 10 72 35q24 16 75 57l7 6l-63 127l-7 -5q-81 -66 -111 -73q-21 -5 -46 3q-23 7 -60 28q-66 38 -126 50q-86 17 -145 -22q-30 -20 -50 -53z" />
    <glyph glyph-name="uni1E1C" unicode="&#x1e1c;" horiz-adv-x="875" 
d="M175 1717l-134 -1568l726 71q76 318 76 339l-517 -109l49 360l408 71l2 24l-3 10v342l-349 -97q38 248 48 255t373 54q78 319 76 340q-733 -88 -755 -92zM346 2141q234 -168 433 63l53 -144q-267 -311 -540 -76zM380 48q104 -31 100 -92q-4 -42 -42 -65q-33 -20 -74 -16
l-29 -1l-4 -70q139 -4 225 30q92 36 98 115q7 102 -143 145l15 139l-135 36z" />
    <glyph glyph-name="uni1E1D" unicode="&#x1e1d;" 
d="M45 467q79 -244 289 -293t428 78l-18 176q-153 -98 -297 -87t-161 142l489 125q-27 107 -38 129q-124 263 -442 210q-360 -110 -250 -480zM530 671l-258 -72q-20 116 56 181q137 35 202 -109zM99 1292q234 -168 433 63l53 -144q-267 -311 -540 -76zM380 48
q104 -31 100 -92q-4 -42 -42 -65q-33 -20 -74 -16l-29 -1l-4 -70q139 -4 225 30q92 36 98 115q7 102 -143 145l15 139l-135 36z" />
    <glyph glyph-name="uni1E1E" unicode="&#x1e1e;" horiz-adv-x="713" 
d="M-12 1621l68 -1630l9 -1l152 64l27 507l253 -10l21 269l-263 -44l26 479l9 3l486 -17l19 527h-22zM464.5 2031q42.5 -40 42.5 -96t-42.5 -96t-102.5 -40t-102.5 40t-42.5 96t42.5 96t102.5 40t102.5 -40z" />
    <glyph glyph-name="uni1E1F" unicode="&#x1e1f;" horiz-adv-x="668" 
d="M342 1392q-176 -62 -213 -213q-31 -74 -32 -313l-108 -13l11 -148l100 10v-5v-6h1l24 -663l279 58l-44 643l158 16l-11 158l-158 -19l-6 88q-8 72 18 138q50 131 216 104l60 168q-122 67 -295 -3zM442.5 1775q42.5 -40 42.5 -96t-42.5 -96t-102.5 -40t-102.5 40t-42.5 96
t42.5 96t102.5 40t102.5 -40z" />
    <glyph glyph-name="uni1E20" unicode="&#x1e20;" horiz-adv-x="1151" 
d="M110 1300q-162 -207 -142 -660.5t623 -751.5q344 -125 661 -22l-218 761l141 61l-96 289l-546 -222l93 -260l132 64l6 -3l65 -334q-170 6 -330.5 160.5t-120 527.5t469.5 227l122 289q-241 126 -482 109q-216 -28 -378 -235zM280 1782l445 10l14 -146l-496 -12z" />
    <glyph glyph-name="uni1E21" unicode="&#x1e21;" horiz-adv-x="771" 
d="M438 487q-29 -48 -70 -48q-40 0 -69 48q-28 47 -28 115q0 67 28 115q29 48 69 48q29 0 54 -27q23 -25 35 -67l8 -48q1 -16 1 -21q0 -68 -28 -115zM769 288l-6 37q-6 45 -13 86l-1 -1l-100 616l-245 -49l9 -53q-24 3 -40 3q-141 0 -241 -95t-100 -230t100 -230
q100 -96 241 -96q50 0 146 34l8 -49l1 3l27 -145q15 -66 -1 -130q-33 -129 -191 -122q-25 0 -58 21q-67 42 -102 147l-154 -168q25 -51 87 -98q125 -95 312 -78q75 9 154 48q158 77 175 223q23 79 -9 326h1zM198 1259l445 10l14 -146l-496 -12z" />
    <glyph glyph-name="uni1E22" unicode="&#x1e22;" horiz-adv-x="960" 
d="M-28 1789l240 -1844l14 4l159 142l18 604l229 39l-7 -560l174 -41l173 1684l-336 -52l-21 -809l-230 -56l-27 948zM601.5 2154q42.5 -40 42.5 -96t-42.5 -96t-102.5 -40t-102.5 40t-42.5 96t42.5 96t102.5 40t102.5 -40z" />
    <glyph glyph-name="uni1E23" unicode="&#x1e23;" horiz-adv-x="887" 
d="M676 910q-46 5 -107 -6q-123 -23 -200 -106l-12 682l-337 9l207 -1365l1 1v-13l209 18q-21 171 43 455q3 7 8 22q16 43 53 74q51 44 89 -14q38 -57 17 -275q-6 -65 -17 -147q-10 -67 -10 -68l263 61l7 153q4 101 -15 215q-39 228 -157 289q-17 9 -42 15zM665.5 1447
q42.5 -40 42.5 -96t-42.5 -96t-102.5 -40t-102.5 40t-42.5 96t42.5 96t102.5 40t102.5 -40z" />
    <glyph glyph-name="uni1E24" unicode="&#x1e24;" horiz-adv-x="960" 
d="M-28 1789l240 -1844l14 4l159 142l18 604l229 39l-7 -560l174 -41l173 1684l-336 -52l-21 -809l-230 -56l-27 948zM620.5 -37q36.5 -36 36.5 -87t-36.5 -87.5t-87.5 -36.5t-87 36.5t-36 87.5t36 87t87 36t87.5 -36z" />
    <glyph glyph-name="uni1E25" unicode="&#x1e25;" horiz-adv-x="887" 
d="M676 910q-46 5 -107 -6q-123 -23 -200 -106l-12 682l-337 9l207 -1365l1 1v-13l209 18q-21 171 43 455q3 7 8 22q16 43 53 74q51 44 89 -14q38 -57 17 -275q-6 -65 -17 -147q-10 -67 -10 -68l263 61l7 153q4 101 -15 215q-39 228 -157 289q-17 9 -42 15zM650.5 -11
q36.5 -36 36.5 -87t-36.5 -87.5t-87.5 -36.5t-87 36.5t-36 87.5t36 87t87 36t87.5 -36z" />
    <glyph glyph-name="uni1E26" unicode="&#x1e26;" horiz-adv-x="960" 
d="M-28 1789l240 -1844l14 4l159 142l18 604l229 39l-7 -560l174 -41l173 1684l-336 -52l-21 -809l-230 -56l-27 948zM745.5 2153q35.5 -33 35.5 -80t-35.5 -80t-84.5 -33q-50 0 -85.5 33t-35.5 80t35.5 80t85.5 33q49 0 84.5 -33zM395.5 2157q35.5 -33 35.5 -80t-35.5 -80
t-84.5 -33q-50 0 -85.5 33t-35.5 80t35.5 80t85.5 33q49 0 84.5 -33z" />
    <glyph glyph-name="uni1E27" unicode="&#x1e27;" horiz-adv-x="887" 
d="M676 910q-46 5 -107 -6q-123 -23 -200 -106l-12 682l-337 9l207 -1365l1 1v-13l209 18q-21 171 43 455q3 7 8 22q16 43 53 74q51 44 89 -14q38 -57 17 -275q-6 -65 -17 -147q-10 -67 -10 -68l263 61l7 153q4 101 -15 215q-39 228 -157 289q-17 9 -42 15zM622.5 1777
q35.5 -33 35.5 -80t-35.5 -80t-84.5 -33q-50 0 -85.5 33t-35.5 80t35.5 80t85.5 33q49 0 84.5 -33zM272.5 1781q35.5 -33 35.5 -80t-35.5 -80t-84.5 -33q-50 0 -85.5 33t-35.5 80t35.5 80t85.5 33q49 0 84.5 -33z" />
    <glyph glyph-name="uni1E28" unicode="&#x1e28;" horiz-adv-x="960" 
d="M-28 1789l200 -1702l213 4l18 604l229 39l-7 -560l174 -41l173 1684l-336 -52l-21 -809l-230 -56l-27 948zM262 -111q108 -17 111 -78q2 -42 -33 -70q-30 -24 -71 -25l-29 -5l5 -70q139 14 219 59q87 47 83 126q-6 102 -161 126l-3 140l-138 18z" />
    <glyph glyph-name="uni1E29" unicode="&#x1e29;" horiz-adv-x="887" 
d="M676 910q-46 5 -107 -6q-123 -23 -200 -106l-12 682l-337 9l207 -1365l1 1v-13l209 18q-21 171 43 455q3 7 8 22q16 43 53 74q51 44 89 -14q38 -57 17 -275q-6 -65 -17 -147q-10 -67 -10 -68l263 61l7 153q4 101 -15 215q-39 228 -157 289q-17 9 -42 15zM80 95l135 -36
l-15 -139q150 -43 143 -145q-6 -79 -98 -115q-86 -34 -225 -30l4 70l29 1q41 -4 74 16q38 23 42 65q4 61 -100 92z" />
    <glyph glyph-name="uni1E2A" unicode="&#x1e2a;" horiz-adv-x="960" 
d="M-28 1789l240 -1844l14 4l159 142l18 604l229 39l-7 -560l174 -41l173 1684l-336 -52l-21 -809l-230 -56l-27 948zM329 -72q74 -121 177 -116.5t177 69.5q52 44 79 110l60 -92q-44 -197 -225 -234t-332 140z" />
    <glyph glyph-name="uni1E2B" unicode="&#x1e2b;" horiz-adv-x="887" 
d="M676 910q-46 5 -107 -6q-123 -23 -200 -106l-12 682l-337 9l207 -1365l1 1v-13l209 18q-21 171 43 455q3 7 8 22q16 43 53 74q51 44 89 -14q38 -57 17 -275q-6 -65 -17 -147q-10 -67 -10 -68l263 61l7 153q4 101 -15 215q-39 228 -157 289q-17 9 -42 15zM337 35
q74 -121 177 -116.5t177 69.5q52 44 79 110l60 -92q-44 -197 -225 -234t-332 140z" />
    <glyph glyph-name="uni1E2C" unicode="&#x1e2c;" horiz-adv-x="589" 
d="M173 61l175 -25l96 1638l-474 -73zM22 -106q-28 -44 -37 -108l117 -27q6 42 25 55q23 15 68 6q46 -9 100 -38q105 -61 181 -41q33 10 72 35q24 16 75 57l7 6l-63 127l-7 -5q-81 -66 -111 -73q-21 -5 -46 3q-23 7 -60 28q-66 38 -126 50q-86 17 -145 -22q-30 -20 -50 -53z
" />
    <glyph glyph-name="uni1E2D" unicode="&#x1e2d;" horiz-adv-x="360" 
d="M26 759l73 -651l212 56l2 656zM224 956q-38 -42 -91 -42t-91 42t-38 102q0 59 38 101t91 42t91 -42t38 -101q0 -60 -38 -102zM-127 -106q-28 -44 -37 -108l117 -27q6 42 25 55q23 15 68 6q46 -9 100 -38q105 -61 181 -41q33 10 72 35q24 16 75 57l7 6l-63 127l-7 -5
q-81 -66 -111 -73q-21 -5 -46 3q-23 7 -60 28q-66 38 -126 50q-86 17 -145 -22q-30 -20 -50 -53z" />
    <glyph glyph-name="uni1E2E" unicode="&#x1e2e;" horiz-adv-x="589" 
d="M258 61l175 -25l96 1638l-474 -73zM470 1991q48 0 81.5 -34t33.5 -81q0 -48 -33.5 -81.5t-81.5 -33.5t-81.5 33.5t-33.5 81.5q0 47 33.5 81t81.5 34zM147 1978q48 0 81.5 -34t33.5 -81q0 -48 -33.5 -81.5t-81.5 -33.5t-81.5 33.5t-33.5 81.5q0 47 33.5 81t81.5 34z
M260 2025l85 -26l257 280l-250 81z" />
    <glyph glyph-name="uni1E2F" unicode="&#x1e2f;" horiz-adv-x="360" 
d="M27 759l73 -651l212 56l9 662zM451.5 1103q35.5 -33 35.5 -80t-35.5 -80t-84.5 -33q-50 0 -85.5 33t-35.5 80t35.5 80t85.5 33q49 0 84.5 -33zM101.5 1107q35.5 -33 35.5 -80t-35.5 -80t-84.5 -33q-50 0 -85.5 33t-35.5 80t35.5 80t85.5 33q49 0 84.5 -33zM517 1527
l-246 30l-166 -344l125 -34z" />
    <glyph glyph-name="uni1E30" unicode="&#x1e30;" horiz-adv-x="1131" 
d="M926 1853l-377 -703l-65 588l-483 -107l417 -1709l247 154l-53 569l361 -460l169 244l-405 407l396 562l-198 465l-7 -1zM1008 2140l-246 30l-166 -344l125 -34z" />
    <glyph glyph-name="uni1E31" unicode="&#x1e31;" horiz-adv-x="651" 
d="M623 128l-317 227l259 202l-27 170l-254 -278l40 890l-324 49l85 -1388l180 20l8 175l207 -185zM546 1833l-246 30l-166 -344l125 -34z" />
    <glyph glyph-name="uni1E32" unicode="&#x1e32;" horiz-adv-x="1131" 
d="M926 1853l-377 -703l-65 588l-483 -107l417 -1709l247 154l-53 569l361 -460l169 244l-405 407l396 562l-198 465l-7 -1zM832.5 -68q36.5 -36 36.5 -87t-36.5 -87.5t-87.5 -36.5t-87 36.5t-36 87.5t36 87t87 36t87.5 -36z" />
    <glyph glyph-name="uni1E33" unicode="&#x1e33;" horiz-adv-x="651" 
d="M623 128l-317 227l259 202l-27 170l-254 -278l40 890l-324 49l85 -1388l180 20l8 175l207 -185zM398.5 -129q36.5 -36 36.5 -87t-36.5 -87.5t-87.5 -36.5t-87 36.5t-36 87.5t36 87t87 36t87.5 -36z" />
    <glyph glyph-name="uni1E34" unicode="&#x1e34;" horiz-adv-x="1131" 
d="M926 1853l-377 -703l-65 588l-483 -107l417 -1709l247 154l-53 569l361 -460l169 244l-405 407l396 562l-198 465l-7 -1zM418 -132l616 15l3 -173l-616 -9z" />
    <glyph glyph-name="uni1E35" unicode="&#x1e35;" horiz-adv-x="651" 
d="M623 128l-317 227l259 202l-27 170l-254 -278l40 890l-324 49l85 -1388l180 20l8 175l207 -185zM35 -85l616 15l3 -173l-616 -9z" />
    <glyph glyph-name="uni1E36" unicode="&#x1e36;" horiz-adv-x="866" 
d="M124 27l702 179l-33 266l-418 -156l238 1434l-589 -95zM552.5 -44q36.5 -36 36.5 -87t-36.5 -87.5t-87.5 -36.5t-87 36.5t-36 87.5t36 87t87 36t87.5 -36z" />
    <glyph glyph-name="uni1E37" unicode="&#x1e37;" horiz-adv-x="356" 
d="M292 1358l-292 20l101 -1378l161 10zM268.5 -117q36.5 -36 36.5 -87t-36.5 -87.5t-87.5 -36.5t-87 36.5t-36 87.5t36 87t87 36t87.5 -36z" />
    <glyph glyph-name="uni1E38" unicode="&#x1e38;" horiz-adv-x="866" 
d="M124 27l702 179l-33 266l-418 -156l238 1434l-589 -95zM121 1994l445 10l14 -146l-496 -12zM552.5 -44q36.5 -36 36.5 -87t-36.5 -87.5t-87.5 -36.5t-87 36.5t-36 87.5t36 87t87 36t87.5 -36z" />
    <glyph glyph-name="uni1E39" unicode="&#x1e39;" horiz-adv-x="356" 
d="M292 1358l-292 20l101 -1378l161 10zM-53 1669l445 10l14 -146l-496 -12zM272.5 -122q36.5 -36 36.5 -87t-36.5 -87.5t-87.5 -36.5t-87 36.5t-36 87.5t36 87t87 36t87.5 -36z" />
    <glyph glyph-name="uni1E3A" unicode="&#x1e3a;" horiz-adv-x="866" 
d="M124 27l702 179l-33 266l-418 -156l238 1434l-589 -95zM156 -70l616 15l3 -173l-616 -9z" />
    <glyph glyph-name="uni1E3B" unicode="&#x1e3b;" horiz-adv-x="356" 
d="M293 1358l-292 20l101 -1378l161 10zM-163 -70l616 15l3 -173l-616 -9z" />
    <glyph glyph-name="uni1E3C" unicode="&#x1e3c;" horiz-adv-x="866" 
d="M124 27l702 179l-33 266l-418 -156l238 1434l-589 -95zM725 -284l-303 255l-216 -279l120 -41l111 124l157 -131z" />
    <glyph glyph-name="uni1E3D" unicode="&#x1e3d;" horiz-adv-x="356" 
d="M293 1358l-292 20l101 -1378l161 10zM473 -326l-303 255l-216 -279l120 -41l111 124l157 -131z" />
    <glyph glyph-name="uni1E3E" unicode="&#x1e3e;" horiz-adv-x="1278" 
d="M618 603l-325 1023l-293 -1558l274 -44l112 474q302 -538 302 -535l198 640l3 -602l363 45l-153 1714h-6zM968 1955l-246 30l-166 -344l125 -34z" />
    <glyph glyph-name="uni1E3F" unicode="&#x1e3f;" horiz-adv-x="1027" 
d="M995 464q-1 15 -1 24q7 186 -134 258q-70 36 -142 35q-23 -1 -39 -5q-56 -15 -105 -75q-12 14 -27 24q-14 10 -35 19q-40 10 -96 8q-111 -5 -190 -68l12 103l-238 34l14 -714l1 1q0 -5 185 -23q7 255 97 397l9 18q21 36 57 59q51 32 77 -25q26 -55 1 -227
q-8 -52 -20 -115l-10 -54l194 -20q7 97 24 201q33 207 80 241q49 37 81 -9q21 -29 27 -70q1 -14 2 -21q-2 -260 -52 -404l171 -56q59 291 57 444v20zM868 1211l-246 30l-166 -344l125 -34z" />
    <glyph glyph-name="uni1E40" unicode="&#x1e40;" horiz-adv-x="1278" 
d="M618 603l-325 1023l-293 -1558l274 -44l112 474q302 -538 302 -535l198 640l3 -602l363 45l-153 1714h-6zM748.5 1688q42.5 -40 42.5 -96t-42.5 -96t-102.5 -40t-102.5 40t-42.5 96t42.5 96t102.5 40t102.5 -40z" />
    <glyph glyph-name="uni1E41" unicode="&#x1e41;" horiz-adv-x="1027" 
d="M995 464q-1 15 -1 24q7 186 -134 258q-70 36 -142 35q-23 -1 -39 -5q-56 -15 -105 -75q-12 14 -27 24q-14 10 -35 19q-40 10 -96 8q-111 -5 -190 -68l12 103l-238 34l14 -714l1 1q0 -5 185 -23q7 255 97 397l9 18q21 36 57 59q51 32 77 -25q26 -55 1 -227
q-8 -52 -20 -115l-10 -54l194 -20q7 97 24 201q33 207 80 241q49 37 81 -9q21 -29 27 -70q1 -14 2 -21q-2 -260 -52 -404l171 -56q59 291 57 444v20zM642.5 1104q42.5 -40 42.5 -96t-42.5 -96t-102.5 -40t-102.5 40t-42.5 96t42.5 96t102.5 40t102.5 -40z" />
    <glyph glyph-name="uni1E42" unicode="&#x1e42;" horiz-adv-x="1278" 
d="M618 603l-325 1023l-293 -1558l274 -44l112 474q302 -538 302 -535l198 640l3 -602l363 45l-153 1714h-6zM753.5 -164q36.5 -36 36.5 -87t-36.5 -87.5t-87.5 -36.5t-87 36.5t-36 87.5t36 87t87 36t87.5 -36z" />
    <glyph glyph-name="uni1E43" unicode="&#x1e43;" horiz-adv-x="1027" 
d="M995 464q-1 15 -1 24q7 186 -134 258q-70 36 -142 35q-23 -1 -39 -5q-56 -15 -105 -75q-12 14 -27 24q-14 10 -35 19q-40 10 -96 8q-111 -5 -190 -68l12 103l-238 34l14 -714l1 1q0 -5 185 -23q7 255 97 397l9 18q21 36 57 59q51 32 77 -25q26 -55 1 -227
q-8 -52 -20 -115l-10 -54l194 -20q7 97 24 201q33 207 80 241q49 37 81 -9q21 -29 27 -70q1 -14 2 -21q-2 -260 -52 -404l171 -56q59 291 57 444v20zM584.5 -44q36.5 -36 36.5 -87t-36.5 -87.5t-87.5 -36.5t-87 36.5t-36 87.5t36 87t87 36t87.5 -36z" />
    <glyph glyph-name="uni1E44" unicode="&#x1e44;" horiz-adv-x="1164" 
d="M51 122l318 -39l57 702l219 -707l641 1574l-357 8l-234 -883l-396 996zM897.5 1920q42.5 -40 42.5 -96t-42.5 -96t-102.5 -40t-102.5 40t-42.5 96t42.5 96t102.5 40t102.5 -40z" />
    <glyph glyph-name="uni1E45" unicode="&#x1e45;" horiz-adv-x="763" 
d="M575 887q-48 5 -111 -6q-126 -24 -206 -109l-17 90l-241 -22l112 -764l1 2v-8v-6l215 18q-21 177 -49 470q4 7 8 22q18 45 55 77q53 45 93 -15q38 -58 17 -283q-6 -67 -18 -151q-10 -70 -10 -71l272 63q29 144 34 301q10 313 -111 377q-18 9 -44 15zM457.5 1206
q42.5 -40 42.5 -96t-42.5 -96t-102.5 -40t-102.5 40t-42.5 96t42.5 96t102.5 40t102.5 -40z" />
    <glyph glyph-name="uni1E46" unicode="&#x1e46;" horiz-adv-x="1164" 
d="M51 122l318 -39l57 702l219 -707l641 1574l-357 8l-234 -883l-396 996zM653.5 -68q36.5 -36 36.5 -87t-36.5 -87.5t-87.5 -36.5t-87 36.5t-36 87.5t36 87t87 36t87.5 -36z" />
    <glyph glyph-name="uni1E47" unicode="&#x1e47;" horiz-adv-x="763" 
d="M575 887q-48 5 -111 -6q-126 -24 -206 -109l-17 90l-241 -22l112 -764l1 2v-8v-6l215 18q-21 177 -49 470q4 7 8 22q18 45 55 77q53 45 93 -15q38 -58 17 -283q-6 -67 -18 -151q-10 -70 -10 -71l272 63q29 144 34 301q10 313 -111 377q-18 9 -44 15zM452.5 -44
q36.5 -36 36.5 -87t-36.5 -87.5t-87.5 -36.5t-87 36.5t-36 87.5t36 87t87 36t87.5 -36z" />
    <glyph glyph-name="uni1E48" unicode="&#x1e48;" horiz-adv-x="1164" 
d="M51 122l318 -39l57 702l219 -707l641 1574l-357 8l-234 -883l-396 996zM204 -56l616 15l3 -173l-616 -9z" />
    <glyph glyph-name="uni1E49" unicode="&#x1e49;" horiz-adv-x="763" 
d="M575 887q-48 5 -111 -6q-126 -24 -206 -109l-17 90l-241 -22l112 -764l1 2v-8v-6l215 18q-21 177 -49 470q4 7 8 22q18 45 55 77q53 45 93 -15q38 -58 17 -283q-6 -67 -18 -151q-10 -70 -10 -71l272 63q29 144 34 301q10 313 -111 377q-18 9 -44 15zM56 -70l616 15
l3 -173l-616 -9z" />
    <glyph glyph-name="uni1E4A" unicode="&#x1e4a;" horiz-adv-x="1164" 
d="M51 122l318 -39l57 702l219 -707l641 1574l-357 8l-234 -883l-396 996zM804 -224l-303 255l-216 -279l120 -41l111 124l157 -131z" />
    <glyph glyph-name="uni1E4B" unicode="&#x1e4b;" horiz-adv-x="763" 
d="M575 887q-48 5 -111 -6q-126 -24 -206 -109l-17 90l-241 -22l112 -764l1 2v-8v-6l215 18q-21 177 -49 470q4 7 8 22q18 45 55 77q53 45 93 -15q38 -58 17 -283q-6 -67 -18 -151q-10 -70 -10 -71l272 63q29 144 34 301q10 313 -111 377q-18 9 -44 15zM699 -232l-303 255
l-216 -279l120 -41l111 124l157 -131z" />
    <glyph glyph-name="uni1E4C" unicode="&#x1e4c;" horiz-adv-x="1242" 
d="M1143.5 1448q97.5 -253 17.5 -598q-81 -345 -292.5 -579.5t-430.5 -221.5t-316.5 266t-16.5 598q80 345 291.5 579.5t430.5 221.5t316.5 -266zM644 1123q-73 9 -147 -92.5t-106 -254.5q-31 -153 -1.5 -268t102.5 -124q74 -9 148 93t105 255q32 153 2 267.5t-103 123.5z
M478 1920q-28 -44 -37 -108l117 -27q6 42 25 55q23 15 68 6q46 -9 100 -38q105 -61 181 -41q33 10 72 35q24 16 75 57l7 6l-63 127l-7 -5q-81 -66 -111 -73q-21 -5 -46 3q-23 7 -60 28q-66 38 -126 50q-86 17 -145 -22q-30 -20 -50 -53zM777 2015l85 -26l257 280l-250 81z
" />
    <glyph glyph-name="uni1E4D" unicode="&#x1e4d;" horiz-adv-x="704" 
d="M299 296q-47 40 -69 109q-21 69 -5 126t61 69t91 -28q47 -40 69 -109t5 -126q-16 -58 -61 -70q-44 -12 -91 29zM482 843q-128 90 -258 55t-186 -174t-5 -301t179 -252q127 -89 257 -54t186 174t5 301q-50 162 -178 251zM43 1093q-28 -44 -37 -108l117 -27q6 42 25 55
q23 15 68 6q46 -9 100 -38q105 -61 181 -41q33 10 72 35q24 16 75 57l7 6l-63 127l-7 -5q-81 -66 -111 -73q-21 -5 -46 3q-23 7 -60 28q-66 38 -126 50q-86 17 -145 -22q-30 -20 -50 -53zM310 1198l85 -26l257 280l-250 81z" />
    <glyph glyph-name="uni1E4E" unicode="&#x1e4e;" horiz-adv-x="1242" 
d="M478 1920q-28 -44 -37 -108l117 -27q6 42 25 55q23 15 68 6q46 -9 100 -38q105 -61 181 -41q33 10 72 35q24 16 75 57l7 6l-63 127l-7 -5q-81 -66 -111 -73q-21 -5 -46 3q-23 7 -60 28q-66 38 -126 50q-86 17 -145 -22q-30 -20 -50 -53zM967 2268q48 0 81.5 -34t33.5 -81
q0 -48 -33.5 -81.5t-81.5 -33.5t-81.5 33.5t-33.5 81.5q0 47 33.5 81t81.5 34zM596 2268q48 0 81.5 -34t33.5 -81q0 -48 -33.5 -81.5t-81.5 -33.5t-81.5 33.5t-33.5 81.5q0 47 33.5 81t81.5 34zM1143.5 1448q97.5 -253 17.5 -598q-81 -345 -292.5 -579.5t-430.5 -221.5
t-316.5 266t-16.5 598q80 345 291.5 579.5t430.5 221.5t316.5 -266zM644 1123q-73 9 -147 -92.5t-106 -254.5q-31 -153 -1.5 -268t102.5 -124q74 -9 148 93t105 255q32 153 2 267.5t-103 123.5z" />
    <glyph glyph-name="uni1E4F" unicode="&#x1e4f;" horiz-adv-x="704" 
d="M299 296q-47 40 -69 109q-21 69 -5 126t61 69t91 -28q47 -40 69 -109t5 -126q-16 -58 -61 -70q-44 -12 -91 29zM482 843q-128 90 -258 55t-186 -174t-5 -301t179 -252q127 -89 257 -54t186 174t5 301q-50 162 -178 251zM43 1093q-28 -44 -37 -108l117 -27q6 42 25 55
q23 15 68 6q46 -9 100 -38q105 -61 181 -41q33 10 72 35q24 16 75 57l7 6l-63 127l-7 -5q-81 -66 -111 -73q-21 -5 -46 3q-23 7 -60 28q-66 38 -126 50q-86 17 -145 -22q-30 -20 -50 -53zM585.5 1389q35.5 -33 35.5 -80t-35.5 -80t-84.5 -33q-50 0 -85.5 33t-35.5 80
t35.5 80t85.5 33q49 0 84.5 -33zM235.5 1393q35.5 -33 35.5 -80t-35.5 -80t-84.5 -33q-50 0 -85.5 33t-35.5 80t35.5 80t85.5 33q49 0 84.5 -33z" />
    <glyph glyph-name="uni1E50" unicode="&#x1e50;" horiz-adv-x="1242" 
d="M1143.5 1448q97.5 -253 17.5 -598q-81 -345 -292.5 -579.5t-430.5 -221.5t-316.5 266t-16.5 598q80 345 291.5 579.5t430.5 221.5t316.5 -266zM644 1123q-73 9 -147 -92.5t-106 -254.5q-31 -153 -1.5 -268t102.5 -124q74 -9 148 93t105 255q32 153 2 267.5t-103 123.5z
M567 1910l445 10l14 -146l-496 -12zM794 2328l-250 -81l257 -280l85 26z" />
    <glyph glyph-name="uni1E51" unicode="&#x1e51;" horiz-adv-x="704" 
d="M299 296q-47 40 -69 109q-21 69 -5 126t61 69t91 -28q47 -40 69 -109t5 -126q-16 -58 -61 -70q-44 -12 -91 29zM482 843q-128 90 -258 55t-186 -174t-5 -301t179 -252q127 -89 257 -54t186 174t5 301q-50 162 -178 251zM72 1113l445 10l14 -146l-496 -12zM299 1531
l-250 -81l257 -280l85 26z" />
    <glyph glyph-name="uni1E52" unicode="&#x1e52;" horiz-adv-x="1242" 
d="M1143.5 1448q97.5 -253 17.5 -598q-81 -345 -292.5 -579.5t-430.5 -221.5t-316.5 266t-16.5 598q80 345 291.5 579.5t430.5 221.5t316.5 -266zM644 1123q-73 9 -147 -92.5t-106 -254.5q-31 -153 -1.5 -268t102.5 -124q74 -9 148 93t105 255q32 153 2 267.5t-103 123.5z
M787 2027l85 -26l257 280l-250 81zM1120 1940l-614 -7v-175l607 13z" />
    <glyph glyph-name="uni1E53" unicode="&#x1e53;" horiz-adv-x="704" 
d="M299 296q-47 40 -69 109q-21 69 -5 126t61 69t91 -28q47 -40 69 -109t5 -126q-16 -58 -61 -70q-44 -12 -91 29zM482 843q-128 90 -258 55t-186 -174t-5 -301t179 -252q127 -89 257 -54t186 174t5 301q-50 162 -178 251zM84 1097l445 10l14 -146l-496 -12zM623 1506
l-246 30l-166 -344l125 -34z" />
    <glyph glyph-name="uni1E54" unicode="&#x1e54;" horiz-adv-x="1138" 
d="M59 1672l44 -1687l240 28l99 524q726 -11 653.5 606.5t-1036.5 528.5zM873 1023q-53 -265 -396 -246l50 521q349 -3 346 -275zM886 2130l-246 30l-166 -344l125 -34z" />
    <glyph glyph-name="uni1E55" unicode="&#x1e55;" horiz-adv-x="835" 
d="M476 646q20 -43 8 -121q-11 -75 -50 -112q-34 -33 -78 -26q-42 6 -60 47q-20 44 -8 121q11 75 50 112q34 33 78 26q42 -6 60 -47zM297 -165l18 371q82 -25 168 -16q158 17 259 128t86 251t-137 227t-280 70q-51 -5 -101 -23l4 49l-227 34l-60 -1173zM761 1336l-246 30
l-166 -344l125 -34z" />
    <glyph glyph-name="uni1E56" unicode="&#x1e56;" horiz-adv-x="1138" 
d="M59 1672l44 -1687l240 28l99 524q726 -11 653.5 606.5t-1036.5 528.5zM873 1023q-53 -265 -396 -246l50 521q349 -3 346 -275zM749.5 2037q42.5 -40 42.5 -96t-42.5 -96t-102.5 -40t-102.5 40t-42.5 96t42.5 96t102.5 40t102.5 -40z" />
    <glyph glyph-name="uni1E57" unicode="&#x1e57;" horiz-adv-x="835" 
d="M476 646q20 -43 8 -121q-11 -75 -50 -112q-34 -33 -78 -26q-42 6 -60 47q-20 44 -8 121q11 75 50 112q34 33 78 26q42 -6 60 -47zM297 -165l18 371q82 -25 168 -16q158 17 259 128t86 251t-137 227t-280 70q-51 -5 -101 -23l4 49l-227 34l-60 -1173zM573.5 1235
q42.5 -40 42.5 -96t-42.5 -96t-102.5 -40t-102.5 40t-42.5 96t42.5 96t102.5 40t102.5 -40z" />
    <glyph glyph-name="uni1E58" unicode="&#x1e58;" horiz-adv-x="1010" 
d="M82 1699l-75 -16l232 -1755l272 114l-48 677l390 -522l202 253l-353 547q439 868 -620 702zM563 1341q18 -164 -179 -180l-30 322q193 24 209 -142zM603.5 2104q42.5 -40 42.5 -96t-42.5 -96t-102.5 -40t-102.5 40t-42.5 96t42.5 96t102.5 40t102.5 -40z" />
    <glyph glyph-name="uni1E59" unicode="&#x1e59;" horiz-adv-x="739" 
d="M316 972l-316 -47l65 -794l244 -9l7 496q1 36 18 75q19 42 46 61q31 23 62 6q37 -21 68 -93l234 195q-47 91 -172 97q-131 7 -249 -91zM368.5 1270q42.5 -40 42.5 -96t-42.5 -96t-102.5 -40t-102.5 40t-42.5 96t42.5 96t102.5 40t102.5 -40z" />
    <glyph glyph-name="uni1E5A" unicode="&#x1e5a;" horiz-adv-x="1010" 
d="M82 1699l-75 -16l232 -1755l272 114l-48 677l390 -522l202 253l-353 547q439 868 -620 702zM563 1341q18 -164 -179 -180l-30 322q193 24 209 -142zM786.5 -25q36.5 -36 36.5 -87t-36.5 -87.5t-87.5 -36.5t-87 36.5t-36 87.5t36 87t87 36t87.5 -36z" />
    <glyph glyph-name="uni1E5B" unicode="&#x1e5b;" horiz-adv-x="739" 
d="M316 972l-316 -47l65 -794l244 -9l7 496q1 36 18 75q19 42 46 61q31 23 62 6q37 -21 68 -93l234 195q-47 91 -172 97q-131 7 -249 -91zM395.5 -90q36.5 -36 36.5 -87t-36.5 -87.5t-87.5 -36.5t-87 36.5t-36 87.5t36 87t87 36t87.5 -36z" />
    <glyph glyph-name="uni1E5C" unicode="&#x1e5c;" horiz-adv-x="1010" 
d="M82 1699l-75 -16l232 -1755l272 114l-48 677l390 -522l202 253l-353 547q439 868 -620 702zM563 1341q18 -164 -179 -180l-30 322q193 24 209 -142zM220 1983l445 10l14 -146l-496 -12zM798.5 -67q36.5 -36 36.5 -87t-36.5 -87.5t-87.5 -36.5t-87 36.5t-36 87.5t36 87
t87 36t87.5 -36z" />
    <glyph glyph-name="uni1E5D" unicode="&#x1e5d;" horiz-adv-x="739" 
d="M325 972l-316 -47l65 -794l244 -9l7 496q1 36 18 75q19 42 46 61q31 23 62 6q37 -21 68 -93l234 195q-47 91 -172 97q-131 7 -249 -91zM37 1123l445 10l14 -146l-496 -12zM398.5 -47q36.5 -36 36.5 -87t-36.5 -87.5t-87.5 -36.5t-87 36.5t-36 87.5t36 87t87 36t87.5 -36z
" />
    <glyph glyph-name="uni1E5E" unicode="&#x1e5e;" horiz-adv-x="1010" 
d="M82 1699l-75 -16l232 -1755l272 114l-48 677l390 -522l202 253l-353 547q439 868 -620 702zM563 1341q18 -164 -179 -180l-30 322q193 24 209 -142zM374 -132l616 15l3 -173l-616 -9z" />
    <glyph glyph-name="uni1E5F" unicode="&#x1e5f;" horiz-adv-x="739" 
d="M316 972l-316 -47l65 -794l244 -9l7 496q1 36 18 75q19 42 46 61q31 23 62 6q37 -21 68 -93l234 195q-47 91 -172 97q-131 7 -249 -91zM38 -86l616 15l3 -173l-616 -9z" />
    <glyph glyph-name="uni1E60" unicode="&#x1e60;" horiz-adv-x="1073" 
d="M688 926q-140 76 -180 104q-82 56 -91 106q-23 125 32 182q56 58 181 38q25 -5 134 -33l96 335q-106 74 -335 33q-209 -38 -315 -120q-107 -83 -153 -203q-43 -112 -24 -232q19 -119 94 -214q78 -100 200 -149q286 -116 351 -163q201 -142 12 -302q-104 -89 -266 -65
q-163 23 -237 139l-26 -263q75 -97 250 -115q173 -18 337 50q179 73 253 216q86 166 3 386q-46 123 -316 270zM708.5 2050q42.5 -40 42.5 -96t-42.5 -96t-102.5 -40t-102.5 40t-42.5 96t42.5 96t102.5 40t102.5 -40z" />
    <glyph glyph-name="uni1E61" unicode="&#x1e61;" horiz-adv-x="687" 
d="M645 385q-15 49 -77 99q-38 31 -128 87q-112 69 -119 87q-1 24 8 32q23 21 99 -3l62 -23l42 -16l15 24l107 166l-27 20q-68 51 -224 61q-139 8 -217 -17q-146 -46 -169 -165l-2 -18q-7 -72 39 -139t132 -110l32 -16q203 -97 206 -136q2 0 -8 -7q-14 -10 -38 -18
q-61 -23 -150 3q-88 26 -118 75l-37 60l-69 -201l12 -16q66 -88 255 -109t298 47q61 38 80 98q20 61 -4 135v0zM433.5 1278q42.5 -40 42.5 -96t-42.5 -96t-102.5 -40t-102.5 40t-42.5 96t42.5 96t102.5 40t102.5 -40z" />
    <glyph glyph-name="uni1E62" unicode="&#x1e62;" horiz-adv-x="1073" 
d="M688 926q-140 76 -180 104q-82 56 -91 106q-23 125 32 182q56 58 181 38q25 -5 134 -33l96 335q-106 74 -335 33q-209 -38 -315 -120q-107 -83 -153 -203q-43 -112 -24 -232q19 -119 94 -214q78 -100 200 -149q286 -116 351 -163q201 -142 12 -302q-104 -89 -266 -65
q-163 23 -237 139l-26 -263q75 -97 250 -115q173 -18 337 50q179 73 253 216q86 166 3 386q-46 123 -316 270zM747.5 -114q36.5 -36 36.5 -87t-36.5 -87.5t-87.5 -36.5t-87 36.5t-36 87.5t36 87t87 36t87.5 -36z" />
    <glyph glyph-name="uni1E63" unicode="&#x1e63;" horiz-adv-x="687" 
d="M645 385q-15 49 -77 99q-38 31 -128 87q-112 69 -119 87q-1 24 8 32q23 21 99 -3l62 -23l42 -16l15 24l107 166l-27 20q-68 51 -224 61q-139 8 -217 -17q-146 -46 -169 -165l-2 -18q-7 -72 39 -139t132 -110l32 -16q203 -97 206 -136q2 0 -8 -7q-14 -10 -38 -18
q-61 -23 -150 3q-88 26 -118 75l-37 60l-69 -201l12 -16q66 -88 255 -109t298 47q61 38 80 98q20 61 -4 135v0zM461.5 0q36.5 -36 36.5 -87t-36.5 -87.5t-87.5 -36.5t-87 36.5t-36 87.5t36 87t87 36t87.5 -36z" />
    <glyph glyph-name="uni1E64" unicode="&#x1e64;" horiz-adv-x="1073" 
d="M706 949q-140 76 -180 104q-82 56 -91 106q-23 125 32 182q56 58 181 38q25 -5 134 -33l96 335q-106 74 -335 33q-209 -38 -315 -120q-107 -83 -153 -203q-43 -112 -24 -232q19 -119 94 -214q78 -100 200 -149q286 -116 351 -163q201 -142 12 -302q-104 -89 -266 -65
q-163 23 -237 139l-26 -263q75 -97 250 -115q173 -18 337 50q179 73 253 216q86 166 3 386q-46 123 -316 270zM881 2424l-246 30l-166 -344l125 -34zM648.5 1978q42.5 -40 42.5 -96t-42.5 -96t-102.5 -40t-102.5 40t-42.5 96t42.5 96t102.5 40t102.5 -40z" />
    <glyph glyph-name="uni1E65" unicode="&#x1e65;" horiz-adv-x="687" 
d="M645 385q-15 49 -77 99q-38 31 -128 87q-112 69 -119 87q-1 24 8 32q23 21 99 -3l62 -23l42 -16l15 24l107 166l-27 20q-68 51 -224 61q-139 8 -217 -17q-146 -46 -169 -165l-2 -18q-7 -72 39 -139t132 -110l32 -16q203 -97 206 -136q2 0 -8 -7q-14 -10 -38 -18
q-61 -23 -150 3q-88 26 -118 75l-37 60l-69 -201l12 -16q66 -88 255 -109t298 47q61 38 80 98q20 61 -4 135v0zM589 1288l-246 30l-166 -344l125 -34zM525.5 1601q42.5 -40 42.5 -96t-42.5 -96t-102.5 -40t-102.5 40t-42.5 96t42.5 96t102.5 40t102.5 -40z" />
    <glyph glyph-name="uni1E66" unicode="&#x1e66;" horiz-adv-x="1073" 
d="M688 926q-140 76 -180 104q-82 56 -91 106q-23 125 32 182q56 58 181 38q25 -5 134 -33l96 335q-106 74 -335 33q-209 -38 -315 -120q-107 -83 -153 -203q-43 -112 -24 -232q19 -119 94 -214q78 -100 200 -149q286 -116 351 -163q201 -142 12 -302q-104 -89 -266 -65
q-163 23 -237 139l-26 -263q75 -97 250 -115q173 -18 337 50q179 73 253 216q86 166 3 386q-46 123 -316 270zM617.5 1976q42.5 -40 42.5 -96t-42.5 -96t-102.5 -40t-102.5 40t-42.5 96t42.5 96t102.5 40t102.5 -40zM521 1919q-17 0 -29 -11.5t-12 -26.5q0 -16 12 -27.5
t29 -11.5t29 11.5t12 27.5q0 15 -12 26.5t-29 11.5z" />
    <glyph glyph-name="uni1E67" unicode="&#x1e67;" horiz-adv-x="687" 
d="M645 385q-15 49 -77 99q-38 31 -128 87q-112 69 -119 87q-1 24 8 32q23 21 99 -3l62 -23l42 -16l15 24l107 166l-27 20q-68 51 -224 61q-139 8 -217 -17q-146 -46 -169 -165l-2 -18q-7 -72 39 -139t132 -110l32 -16q203 -97 206 -136q2 0 -8 -7q-14 -10 -38 -18
q-61 -23 -150 3q-88 26 -118 75l-37 60l-69 -201l12 -16q66 -88 255 -109t298 47q61 38 80 98q20 61 -4 135v0zM273 977l120 3l217 224l-158 34l-110 -134l-114 120l-147 -41zM440.5 1476q42.5 -40 42.5 -96t-42.5 -96t-102.5 -40t-102.5 40t-42.5 96t42.5 96t102.5 40
t102.5 -40z" />
    <glyph glyph-name="uni1E68" unicode="&#x1e68;" horiz-adv-x="1073" 
d="M688 926q-140 76 -180 104q-82 56 -91 106q-23 125 32 182q56 58 181 38q25 -5 134 -33l96 335q-106 74 -335 33q-209 -38 -315 -120q-107 -83 -153 -203q-43 -112 -24 -232q19 -119 94 -214q78 -100 200 -149q286 -116 351 -163q201 -142 12 -302q-104 -89 -266 -65
q-163 23 -237 139l-26 -263q75 -97 250 -115q173 -18 337 50q179 73 253 216q86 166 3 386q-46 123 -316 270zM687.5 1976q42.5 -40 42.5 -96t-42.5 -96t-102.5 -40t-102.5 40t-42.5 96t42.5 96t102.5 40t102.5 -40zM693.5 -44q36.5 -36 36.5 -87t-36.5 -87.5t-87.5 -36.5
t-87 36.5t-36 87.5t36 87t87 36t87.5 -36z" />
    <glyph glyph-name="uni1E69" unicode="&#x1e69;" horiz-adv-x="687" 
d="M645 385q-15 49 -77 99q-38 31 -128 87q-112 69 -119 87q-1 24 8 32q23 21 99 -3l62 -23l42 -16l15 24l107 166l-27 20q-68 51 -224 61q-139 8 -217 -17q-146 -46 -169 -165l-2 -18q-7 -72 39 -139t132 -110l32 -16q203 -97 206 -136q2 0 -8 -7q-14 -10 -38 -18
q-61 -23 -150 3q-88 26 -118 75l-37 60l-69 -201l12 -16q66 -88 255 -109t298 47q61 38 80 98q20 61 -4 135v0zM433.5 1237q42.5 -40 42.5 -96t-42.5 -96t-102.5 -40t-102.5 40t-42.5 96t42.5 96t102.5 40t102.5 -40zM429.5 11q36.5 -36 36.5 -87t-36.5 -87.5t-87.5 -36.5
t-87 36.5t-36 87.5t36 87t87 36t87.5 -36z" />
    <glyph glyph-name="uni1E6A" unicode="&#x1e6a;" horiz-adv-x="1345" 
d="M1291 1685l12 -321l-359 -73l-17 -1304l-273 -37l-116 1285l-455 -69l-34 403zM851.5 1952q42.5 -40 42.5 -96t-42.5 -96t-102.5 -40t-102.5 40t-42.5 96t42.5 96t102.5 40t102.5 -40z" />
    <glyph glyph-name="uni1E6B" unicode="&#x1e6b;" horiz-adv-x="607" 
d="M498 671l-6 110l-105 -9l-36 569l-273 -54l75 -536l-153 -14l21 -132l149 21l88 -626l175 40l-39 617zM277.5 1667q42.5 -40 42.5 -96t-42.5 -96t-102.5 -40t-102.5 40t-42.5 96t42.5 96t102.5 40t102.5 -40z" />
    <glyph glyph-name="uni1E6C" unicode="&#x1e6c;" horiz-adv-x="1345" 
d="M1263 1768l12 -321l-359 -73l-17 -1304l-273 -37l-116 1285l-455 -69l-34 403zM944.5 -120q36.5 -36 36.5 -87t-36.5 -87.5t-87.5 -36.5t-87 36.5t-36 87.5t36 87t87 36t87.5 -36z" />
    <glyph glyph-name="uni1E6D" unicode="&#x1e6d;" horiz-adv-x="607" 
d="M498 671l-6 110l-105 -9l-36 569l-273 -54l75 -536l-153 -14l21 -132l149 21l88 -626l175 40l-39 617zM435.5 -92q36.5 -36 36.5 -87t-36.5 -87.5t-87.5 -36.5t-87 36.5t-36 87.5t36 87t87 36t87.5 -36z" />
    <glyph glyph-name="uni1E6E" unicode="&#x1e6e;" horiz-adv-x="1345" 
d="M1263 1768l12 -321l-359 -73l-17 -1304l-273 -37l-116 1285l-455 -69l-34 403zM517 -80l616 15l3 -173l-616 -9z" />
    <glyph glyph-name="uni1E6F" unicode="&#x1e6f;" horiz-adv-x="607" 
d="M498 671l-6 110l-105 -9l-36 569l-273 -54l75 -536l-153 -14l21 -132l149 21l88 -626l175 40l-39 617zM19 -70l616 15l3 -173l-616 -9z" />
    <glyph glyph-name="uni1E70" unicode="&#x1e70;" horiz-adv-x="1345" 
d="M1263 1768l12 -321l-359 -73l-17 -1304l-273 -37l-116 1285l-455 -69l-34 403zM1151 -334l-303 255l-216 -279l120 -41l111 124l157 -131z" />
    <glyph glyph-name="uni1E71" unicode="&#x1e71;" horiz-adv-x="607" 
d="M498 671l-6 110l-105 -9l-36 569l-273 -54l75 -536l-153 -14l21 -132l149 21l88 -626l175 40l-39 617zM644 -333l-303 255l-216 -279l120 -41l111 124l157 -131z" />
    <glyph glyph-name="uni1E72" unicode="&#x1e72;" horiz-adv-x="1282" 
d="M846 1649q61 -809 62 -816q-1 -184 -77 -318q-77 -133 -182 -133q-71 0 -131 76q-122 157 -88 416l66 756l-385 -32l-43 -656q0 -391 171 -666q170 -276 412 -276q241 0 412 275q170 275 170 663v695zM946 -74q48 0 81.5 -34t33.5 -81q0 -48 -33.5 -81.5t-81.5 -33.5
t-81.5 33.5t-33.5 81.5q0 47 33.5 81t81.5 34zM575 -74q48 0 81.5 -34t33.5 -81q0 -48 -33.5 -81.5t-81.5 -33.5t-81.5 33.5t-33.5 81.5q0 47 33.5 81t81.5 34z" />
    <glyph glyph-name="uni1E73" unicode="&#x1e73;" horiz-adv-x="720" 
d="M467 923q28 -175 -25 -471q-3 -7 -7 -23q-16 -45 -52 -78q-51 -48 -93 11q-41 57 -29 282q3 67 12 152q7 70 7 71l-269 -75v-157q0 -105 25 -221q49 -233 173 -292q17 -8 44 -13q76 -6 163 26q173 63 226 249q8 28 10 49q36 173 29 517zM522 40q48 0 81.5 -34t33.5 -81
q0 -48 -33.5 -81.5t-81.5 -33.5t-81.5 33.5t-33.5 81.5q0 47 33.5 81t81.5 34zM151 40q48 0 81.5 -34t33.5 -81q0 -48 -33.5 -81.5t-81.5 -33.5t-81.5 33.5t-33.5 81.5q0 47 33.5 81t81.5 34z" />
    <glyph glyph-name="uni1E74" unicode="&#x1e74;" horiz-adv-x="1282" 
d="M846 1649q61 -809 62 -816q-1 -184 -77 -318q-77 -133 -182 -133q-71 0 -131 76q-122 157 -88 416l66 756l-385 -32l-43 -656q0 -391 171 -666q170 -276 412 -276q241 0 412 275q170 275 170 663v695zM461 -130q-28 -44 -37 -108l117 -27q6 42 25 55q23 15 68 6
q46 -9 100 -38q105 -61 181 -41q33 10 72 35q24 16 75 57l7 6l-63 127l-7 -5q-81 -66 -111 -73q-21 -5 -46 3q-23 7 -60 28q-66 38 -126 50q-86 17 -145 -22q-30 -20 -50 -53z" />
    <glyph glyph-name="uni1E75" unicode="&#x1e75;" horiz-adv-x="720" 
d="M467 923q28 -175 -25 -471q-3 -7 -7 -23q-16 -45 -52 -78q-51 -48 -93 11q-41 57 -29 282q3 67 12 152q7 70 7 71l-269 -75v-157q0 -105 25 -221q49 -233 173 -292q17 -8 44 -13q76 -6 163 26q173 63 226 249q8 28 10 49q36 173 29 517zM51 -44q-28 -44 -37 -108l117 -27
q6 42 25 55q23 15 68 6q46 -9 100 -38q105 -61 181 -41q33 10 72 35q24 16 75 57l7 6l-63 127l-7 -5q-81 -66 -111 -73q-21 -5 -46 3q-23 7 -60 28q-66 38 -126 50q-86 17 -145 -22q-30 -20 -50 -53z" />
    <glyph glyph-name="uni1E76" unicode="&#x1e76;" horiz-adv-x="1282" 
d="M846 1649q61 -809 62 -816q-1 -184 -77 -318q-77 -133 -182 -133q-71 0 -131 76q-122 157 -88 416l66 756l-385 -32l-43 -656q0 -391 171 -666q170 -276 412 -276q241 0 412 275q170 275 170 663v695zM1020 -284l-303 255l-216 -279l120 -41l111 124l157 -131z" />
    <glyph glyph-name="uni1E77" unicode="&#x1e77;" horiz-adv-x="720" 
d="M467 923q28 -175 -25 -471q-3 -7 -7 -23q-16 -45 -52 -78q-51 -48 -93 11q-41 57 -29 282q3 67 12 152q7 70 7 71l-269 -75v-157q0 -105 25 -221q49 -233 173 -292q17 -8 44 -13q76 -6 163 26q173 63 226 249q8 28 10 49q36 173 29 517zM661 -209l-303 255l-216 -279
l120 -41l111 124l157 -131z" />
    <glyph glyph-name="uni1E78" unicode="&#x1e78;" horiz-adv-x="1282" 
d="M846 1649q61 -809 62 -816q-1 -184 -77 -318q-77 -133 -182 -133q-71 0 -131 76q-122 157 -88 416l66 756l-385 -32l-43 -656q0 -391 171 -666q170 -276 412 -276q241 0 412 275q170 275 170 663v695zM407 1875q-28 -44 -37 -108l117 -27q6 42 25 55q23 15 68 6
q46 -9 100 -38q105 -61 181 -41q33 10 72 35q24 16 75 57l7 6l-63 127l-7 -5q-81 -66 -111 -73q-21 -5 -46 3q-23 7 -60 28q-66 38 -126 50q-86 17 -145 -22q-30 -20 -50 -53zM1085 2314l-246 30l-166 -344l125 -34z" />
    <glyph glyph-name="uni1E79" unicode="&#x1e79;" horiz-adv-x="720" 
d="M467 923q28 -175 -25 -471q-3 -7 -7 -23q-16 -45 -52 -78q-51 -48 -93 11q-41 57 -29 282q3 67 12 152q7 70 7 71l-269 -75v-157q0 -105 25 -221q49 -233 173 -292q17 -8 44 -13q76 -6 163 26q173 63 226 249q8 28 10 49q36 173 29 517zM78 1140q-28 -44 -37 -108
l117 -27q6 42 25 55q23 15 68 6q46 -9 100 -38q105 -61 181 -41q33 10 72 35q24 16 75 57l7 6l-63 127l-7 -5q-81 -66 -111 -73q-21 -5 -46 3q-23 7 -60 28q-66 38 -126 50q-86 17 -145 -22q-30 -20 -50 -53zM756 1579l-246 30l-166 -344l125 -34z" />
    <glyph glyph-name="uni1E7A" unicode="&#x1e7a;" horiz-adv-x="1282" 
d="M846 1649q61 -809 62 -816q-1 -184 -77 -318q-77 -133 -182 -133q-71 0 -131 76q-122 157 -88 416l66 756l-385 -32l-43 -656q0 -391 171 -666q170 -276 412 -276q241 0 412 275q170 275 170 663v695zM319 1952l748 18l4 -210l-748 -11zM1012.5 2223.5
q37.5 -35.5 37.5 -85.5t-37.5 -85.5t-89.5 -35.5q-53 0 -90.5 35.5t-37.5 85.5t37.5 85.5t90.5 35.5q52 0 89.5 -35.5zM611.5 2223.5q37.5 -35.5 37.5 -85.5t-37.5 -85.5t-89.5 -35.5q-53 0 -90.5 35.5t-37.5 85.5t37.5 85.5t90.5 35.5q52 0 89.5 -35.5z" />
    <glyph glyph-name="uni1E7B" unicode="&#x1e7b;" horiz-adv-x="720" 
d="M467 923q28 -175 -25 -471q-3 -7 -7 -23q-16 -45 -52 -78q-51 -48 -93 11q-41 57 -29 282q3 67 12 152q7 70 7 71l-269 -75v-157q0 -105 25 -221q49 -233 173 -292q17 -8 44 -13q76 -6 163 26q173 63 226 249q8 28 10 49q36 173 29 517zM4 1159l644 14l3 -167l-644 -9z
M237.5 1418.5q37.5 -35.5 37.5 -85.5t-37.5 -85.5t-89.5 -35.5q-53 0 -90.5 35.5t-37.5 85.5t37.5 85.5t90.5 35.5q52 0 89.5 -35.5zM617.5 1418.5q37.5 -35.5 37.5 -85.5t-37.5 -85.5t-89.5 -35.5q-53 0 -90.5 35.5t-37.5 85.5t37.5 85.5t90.5 35.5q52 0 89.5 -35.5z" />
    <glyph glyph-name="uni1E7C" unicode="&#x1e7c;" horiz-adv-x="1065" 
d="M717 1718l-65 -708l-287 617l-400 -62l817 -1493l368 1734zM209 1946q-28 -44 -37 -108l117 -27q6 42 25 55q23 15 68 6q46 -9 100 -38q105 -61 181 -41q33 10 72 35q24 16 75 57l7 6l-63 127l-7 -5q-81 -66 -111 -73q-21 -5 -46 3q-23 7 -60 28q-66 38 -126 50
q-86 17 -145 -22q-30 -20 -50 -53z" />
    <glyph glyph-name="uni1E7D" unicode="&#x1e7d;" horiz-adv-x="756" 
d="M437 958l-62 -426l-146 386l-236 -21q386 -850 401 -869l298 966zM57 1200q-28 -44 -37 -108l117 -27q6 42 25 55q23 15 68 6q46 -9 100 -38q105 -61 181 -41q33 10 72 35q24 16 75 57l7 6l-63 127l-7 -5q-81 -66 -111 -73q-21 -5 -46 3q-23 7 -60 28q-66 38 -126 50
q-86 17 -145 -22q-30 -20 -50 -53z" />
    <glyph glyph-name="uni1E7E" unicode="&#x1e7e;" horiz-adv-x="1065" 
d="M717 1718l-65 -708l-287 617l-400 -62l817 -1493l368 1734zM844.5 -19q36.5 -36 36.5 -87t-36.5 -87.5t-87.5 -36.5t-87 36.5t-36 87.5t36 87t87 36t87.5 -36z" />
    <glyph glyph-name="uni1E7F" unicode="&#x1e7f;" horiz-adv-x="756" 
d="M437 958l-62 -426l-146 386l-236 -21q386 -850 401 -869l298 966zM486.5 -91q36.5 -36 36.5 -87t-36.5 -87.5t-87.5 -36.5t-87 36.5t-36 87.5t36 87t87 36t87.5 -36z" />
    <glyph glyph-name="Wgrave" unicode="&#x1e80;" horiz-adv-x="1474" 
d="M1172 1793l-95 -845l-11 21l-334 707l-240 -639l-159 465l-373 -26l549 -1341l221 724l440 -758l315 1740zM678 2110l-250 -81l257 -280l85 26z" />
    <glyph glyph-name="wgrave" unicode="&#x1e81;" horiz-adv-x="908" 
d="M275 566l-101 226l-239 -22l345 -650l162 412q257 -414 261 -412l237 829l-237 1l-59 -416l-218 350h-6zM380 1349l-250 -81l257 -280l85 26z" />
    <glyph glyph-name="Wacute" unicode="&#x1e82;" horiz-adv-x="1474" 
d="M1172 1793l-95 -845l-11 21l-334 707l-240 -639l-159 465l-373 -26l549 -1341l221 724l440 -758l315 1740zM1024 2128l-246 30l-166 -344l125 -34z" />
    <glyph glyph-name="wacute" unicode="&#x1e83;" horiz-adv-x="908" 
d="M275 566l-101 226l-239 -22l345 -650l162 412q257 -414 261 -412l237 829l-237 1l-59 -416l-218 350h-6zM723 1337l-246 30l-166 -344l125 -34z" />
    <glyph glyph-name="Wdieresis" unicode="&#x1e84;" horiz-adv-x="1474" 
d="M1172 1793l-95 -845l-11 21l-334 707l-240 -639l-159 465l-373 -26l549 -1341l221 724l440 -758l315 1740zM982.5 1948q35.5 -33 35.5 -80t-35.5 -80t-84.5 -33q-50 0 -85.5 33t-35.5 80t35.5 80t85.5 33q49 0 84.5 -33zM632.5 1952q35.5 -33 35.5 -80t-35.5 -80
t-84.5 -33q-50 0 -85.5 33t-35.5 80t35.5 80t85.5 33q49 0 84.5 -33z" />
    <glyph glyph-name="wdieresis" unicode="&#x1e85;" horiz-adv-x="908" 
d="M275 566l-101 226l-239 -22l345 -650l162 412q257 -414 261 -412l237 829l-237 1l-59 -416l-218 350h-6zM675.5 1190q35.5 -33 35.5 -80t-35.5 -80t-84.5 -33q-50 0 -85.5 33t-35.5 80t35.5 80t85.5 33q49 0 84.5 -33zM325.5 1194q35.5 -33 35.5 -80t-35.5 -80t-84.5 -33
q-50 0 -85.5 33t-35.5 80t35.5 80t85.5 33q49 0 84.5 -33z" />
    <glyph glyph-name="uni1E86" unicode="&#x1e86;" horiz-adv-x="1474" 
d="M1172 1793l-95 -845l-11 21l-334 707l-240 -639l-159 465l-373 -26l549 -1341l221 724l440 -758l315 1740zM765.5 2058q42.5 -40 42.5 -96t-42.5 -96t-102.5 -40t-102.5 40t-42.5 96t42.5 96t102.5 40t102.5 -40z" />
    <glyph glyph-name="uni1E87" unicode="&#x1e87;" horiz-adv-x="908" 
d="M275 566l-101 226l-239 -22l345 -650l162 412q257 -414 261 -412l237 829l-237 1l-59 -416l-218 350h-6zM529.5 1229q42.5 -40 42.5 -96t-42.5 -96t-102.5 -40t-102.5 40t-42.5 96t42.5 96t102.5 40t102.5 -40z" />
    <glyph glyph-name="uni1E88" unicode="&#x1e88;" horiz-adv-x="1474" 
d="M1172 1793l-95 -845l-11 21l-334 707l-240 -639l-159 465l-373 -26l549 -1341l221 724l440 -758l315 1740zM875.5 125q36.5 -36 36.5 -87t-36.5 -87.5t-87.5 -36.5t-87 36.5t-36 87.5t36 87t87 36t87.5 -36z" />
    <glyph glyph-name="uni1E89" unicode="&#x1e89;" horiz-adv-x="908" 
d="M275 566l-101 226l-239 -22l345 -650l162 412q257 -414 261 -412l237 829l-237 1l-59 -416l-218 350h-6zM557.5 87q36.5 -36 36.5 -87t-36.5 -87.5t-87.5 -36.5t-87 36.5t-36 87.5t36 87t87 36t87.5 -36z" />
    <glyph glyph-name="uni1E8A" unicode="&#x1e8a;" horiz-adv-x="1323" 
d="M526 591l-240 -466l173 -125l230 372l231 -310l177 81l-266 459l532 861l-291 188l-399 -775l-406 703l-303 -230zM766.5 1688q42.5 -40 42.5 -96t-42.5 -96t-102.5 -40t-102.5 40t-42.5 96t42.5 96t102.5 40t102.5 -40z" />
    <glyph glyph-name="uni1E8B" unicode="&#x1e8b;" horiz-adv-x="788" 
d="M-1 726l269 -308l-188 -256l65 -80l2 3l224 214l200 -230h6l83 72l-155 302l263 276l-87 266l-265 -365l-4 3l-194 383l-8 4zM541.5 1234q42.5 -40 42.5 -96t-42.5 -96t-102.5 -40t-102.5 40t-42.5 96t42.5 96t102.5 40t102.5 -40z" />
    <glyph glyph-name="uni1E8C" unicode="&#x1e8c;" horiz-adv-x="1323" 
d="M526 591l-240 -466l173 -125l230 372l231 -310l177 81l-266 459l532 861l-291 188l-399 -775l-406 703l-303 -230zM945.5 1769q35.5 -33 35.5 -80t-35.5 -80t-84.5 -33q-50 0 -85.5 33t-35.5 80t35.5 80t85.5 33q49 0 84.5 -33zM595.5 1773q35.5 -33 35.5 -80t-35.5 -80
t-84.5 -33q-50 0 -85.5 33t-35.5 80t35.5 80t85.5 33q49 0 84.5 -33z" />
    <glyph glyph-name="uni1E8D" unicode="&#x1e8d;" horiz-adv-x="788" 
d="M-1 726l269 -308l-188 -256l65 -80l2 3l224 214l200 -230h6l83 72l-155 302l263 276l-87 266l-265 -365l-4 3l-194 383l-8 4zM682.5 1310q35.5 -33 35.5 -80t-35.5 -80t-84.5 -33q-50 0 -85.5 33t-35.5 80t35.5 80t85.5 33q49 0 84.5 -33zM332.5 1314q35.5 -33 35.5 -80
t-35.5 -80t-84.5 -33q-50 0 -85.5 33t-35.5 80t35.5 80t85.5 33q49 0 84.5 -33z" />
    <glyph glyph-name="uni1E8E" unicode="&#x1e8e;" horiz-adv-x="1142" 
d="M444 720l-10 -720l298 24l-11 649l463 898l-345 131l-262 -762l-286 726l-392 -119zM628.5 1884q42.5 -40 42.5 -96t-42.5 -96t-102.5 -40t-102.5 40t-42.5 96t42.5 96t102.5 40t102.5 -40z" />
    <glyph glyph-name="uni1E8F" unicode="&#x1e8f;" horiz-adv-x="648" 
d="M460 1140l-123 -416l-99 293l-7 -2l-235 -142l217 -416l-201 -693l197 -139l476 1420zM405.5 1480q42.5 -40 42.5 -96t-42.5 -96t-102.5 -40t-102.5 40t-42.5 96t42.5 96t102.5 40t102.5 -40z" />
    <glyph glyph-name="uni1E90" unicode="&#x1e90;" horiz-adv-x="989" 
d="M-27 1477l82 -463l320 110l-175 -1132l872 400l-130 394l-399 -314l466 1321zM558 1924l-120 -3l-217 -224l158 -34l110 134l114 -120l147 41z" />
    <glyph glyph-name="uni1E91" unicode="&#x1e91;" horiz-adv-x="692" 
d="M2 921l7 -313l215 37l-189 -530l582 151l-47 227l-247 -87l353 608zM412 1345l-120 -3l-217 -224l158 -34l110 134l114 -120l147 41z" />
    <glyph glyph-name="uni1E92" unicode="&#x1e92;" horiz-adv-x="989" 
d="M-27 1477l82 -463l320 110l-175 -1132l872 400l-130 394l-399 -314l466 1321zM594.5 -44q36.5 -36 36.5 -87t-36.5 -87.5t-87.5 -36.5t-87 36.5t-36 87.5t36 87t87 36t87.5 -36z" />
    <glyph glyph-name="uni1E93" unicode="&#x1e93;" horiz-adv-x="692" 
d="M2 921l7 -313l215 37l-189 -530l582 151l-47 227l-247 -87l353 608zM442.5 76q36.5 -36 36.5 -87t-36.5 -87.5t-87.5 -36.5t-87 36.5t-36 87.5t36 87t87 36t87.5 -36z" />
    <glyph glyph-name="uni1E94" unicode="&#x1e94;" horiz-adv-x="989" 
d="M-27 1477l82 -463l320 110l-175 -1132l872 400l-130 394l-399 -314l466 1321zM322 -88l616 15l3 -173l-616 -9z" />
    <glyph glyph-name="uni1E95" unicode="&#x1e95;" horiz-adv-x="692" 
d="M2 921l7 -313l215 37l-189 -530l582 151l-47 227l-247 -87l353 608zM40 33l616 15l3 -173l-616 -9z" />
    <glyph glyph-name="uni1E96" unicode="&#x1e96;" horiz-adv-x="887" 
d="M676 910q-46 5 -107 -6q-123 -23 -200 -106l-12 682l-337 9l207 -1365l1 1v-13l209 18q-21 171 43 455q3 7 8 22q16 43 53 74q51 44 89 -14q38 -57 17 -275q-6 -65 -17 -147q-10 -67 -10 -68l263 61l7 153q4 101 -15 215q-39 228 -157 289q-17 9 -42 15zM190 13l616 15
l3 -173l-616 -9z" />
    <glyph glyph-name="uni1E97" unicode="&#x1e97;" horiz-adv-x="607" 
d="M498 671l-6 110l-105 -9l-36 569l-273 -54l75 -536l-153 -14l21 -132l149 21l88 -626l175 40l-39 617zM484.5 1627q35.5 -33 35.5 -80t-35.5 -80t-84.5 -33q-50 0 -85.5 33t-35.5 80t35.5 80t85.5 33q49 0 84.5 -33zM134.5 1631q35.5 -33 35.5 -80t-35.5 -80t-84.5 -33
q-50 0 -85.5 33t-35.5 80t35.5 80t85.5 33q49 0 84.5 -33z" />
    <glyph glyph-name="uni1E98" unicode="&#x1e98;" horiz-adv-x="908" 
d="M275 566l-101 226l-239 -22l345 -650l162 412q257 -414 261 -412l237 829l-237 1l-59 -416l-218 350h-6zM551.5 1331.5q47.5 -44.5 47.5 -107.5q0 -62 -47.5 -106.5t-113.5 -44.5q-67 0 -114.5 44.5t-47.5 106.5q0 63 47.5 107.5t114.5 44.5q66 0 113.5 -44.5zM428 1275
q-13 0 -22.5 -12.5t-9.5 -30.5t9.5 -30.5t22.5 -12.5t22.5 12.5t9.5 30.5t-9.5 30.5t-22.5 12.5z" />
    <glyph glyph-name="uni1E99" unicode="&#x1e99;" horiz-adv-x="648" 
d="M460 1140l-123 -416l-99 293l-7 -2l-235 -142l217 -416l-201 -693l197 -139l476 1420zM454.5 1331.5q47.5 -44.5 47.5 -107.5q0 -62 -47.5 -106.5t-113.5 -44.5q-67 0 -114.5 44.5t-47.5 106.5q0 63 47.5 107.5t114.5 44.5q66 0 113.5 -44.5zM331 1275q-13 0 -22.5 -12.5
t-9.5 -30.5t9.5 -30.5t22.5 -12.5t22.5 12.5t9.5 30.5t-9.5 30.5t-22.5 12.5z" />
    <glyph glyph-name="uni1E9A" unicode="&#x1e9a;" horiz-adv-x="836" 
d="M276 253q-36 60 -36 144q0 85 36 145q36 61 88 61q51 0 87 -61q36 -60 36 -145q0 -84 -36 -144q-36 -61 -87 -61q-52 0 -88 61zM663 842l-200 -20l-6 -54q-54 15 -108 15q-159 0 -271 -107q-113 -108 -113 -260t113 -260q112 -107 271 -107q69 0 187 63l12 -69l231 63z
M562 1266q53 -421 -307 -444q162 158 99 249l-109 15l18 188z" />
    <glyph glyph-name="uni1E9B" unicode="&#x1e9b;" horiz-adv-x="794" 
d="M-24 784v-40q-1 -48 -2 -90l1 1l-5 -570l276 43l-19 791q-4 70 24 134q57 126 217 91q27 -4 57 -31q61 -56 79 -170l187 145q-17 57 -72 117q-111 119 -306 135q-79 4 -167 -22q-177 -52 -220 -198q-37 -77 -49 -336h-1zM445 1395q-43 -34 -93 -26q-50 9 -79 54
q-29 46 -20 102t51 89q42 34 93 26q50 -8 79 -54q29 -45 20 -101t-51 -90z" />
    <glyph glyph-name="uni1E9E" unicode="&#x1e9e;" horiz-adv-x="1043" 
d="M744 688l130 147q62 140 13 260q-16 50 -108 116q-127 93 -306 115q-78 7 -166 -15q-176 -43 -225 -186q-37 -68 -49 -300l-1 -158l24 -634l289 9l-60 637l-6 153l-8 86q-1 70 30 132q61 122 218 80q39 -13 73 -42q69 -59 49 -140l-210 -284q199 -114 272 -192
q30 -31 46 -84q17 -53 12 -100q-6 -51 -36 -73q-36 -25 -99 -4q-35 12 -52 36q-14 21 -24 21l-132 -133q102 -146 243 -152q126 -7 229 92q102 97 115 229q14 147 -56.5 239t-204.5 145z" />
    <glyph glyph-name="uni1EA0" unicode="&#x1ea0;" horiz-adv-x="956" 
d="M20 48l291 2l35 201l283 20l102 -192l354 110l-715 1549zM567 542l-178 9l56 420zM699.5 -44q36.5 -36 36.5 -87t-36.5 -87.5t-87.5 -36.5t-87 36.5t-36 87.5t36 87t87 36t87.5 -36z" />
    <glyph glyph-name="uni1EA1" unicode="&#x1ea1;" horiz-adv-x="836" 
d="M276 343q-36 60 -36 144q0 85 36 145q36 61 88 61q51 0 87 -61q36 -60 36 -145q0 -84 -36 -144q-36 -61 -87 -61q-52 0 -88 61zM663 932l-200 -20l-6 -54q-54 15 -108 15q-159 0 -271 -107q-113 -108 -113 -260t113 -260q112 -107 271 -107q69 0 187 63l12 -69l231 63z
M525.5 18q36.5 -36 36.5 -87t-36.5 -87.5t-87.5 -36.5t-87 36.5t-36 87.5t36 87t87 36t87.5 -36z" />
    <glyph glyph-name="uni1EA2" unicode="&#x1ea2;" horiz-adv-x="956" 
d="M20 48l291 2l35 201l283 20l102 -192l354 110l-715 1549zM567 542l-178 9l56 420zM286 2193q362 -55 395 -207q3 -89 -114 -146q-111 -52 -338 -73l-3 81l78 7q55 2 97 30q48 32 46 81q-3 69 -213 178z" />
    <glyph glyph-name="uni1EA3" unicode="&#x1ea3;" horiz-adv-x="836" 
d="M276 343q-36 60 -36 144q0 85 36 145q36 61 88 61q51 0 87 -61q36 -60 36 -145q0 -84 -36 -144q-36 -61 -87 -61q-52 0 -88 61zM663 932l-200 -20l-6 -54q-54 15 -108 15q-159 0 -271 -107q-113 -108 -113 -260t113 -260q112 -107 271 -107q69 0 187 63l12 -69l231 63z
M159 1367q362 -55 395 -207q3 -89 -114 -146q-111 -52 -338 -73l-3 81l78 7q55 2 97 30q48 32 46 81q-3 69 -213 178z" />
    <glyph glyph-name="uni1EA4" unicode="&#x1ea4;" horiz-adv-x="956" 
d="M20 48l291 2l35 201l283 20l102 -192l354 110l-715 1549zM567 542l-178 9l56 420zM438 2030l-120 -3l-217 -224l158 -34l110 134l114 -120l147 41zM338 2110l85 -26l257 280l-250 81z" />
    <glyph glyph-name="uni1EA5" unicode="&#x1ea5;" horiz-adv-x="836" 
d="M276 343q-36 60 -36 144q0 85 36 145q36 61 88 61q51 0 87 -61q36 -60 36 -145q0 -84 -36 -144q-36 -61 -87 -61q-52 0 -88 61zM663 932l-200 -20l-6 -54q-54 15 -108 15q-159 0 -271 -107q-113 -108 -113 -260t113 -260q112 -107 271 -107q69 0 187 63l12 -69l231 63z
M451 1228l-120 -3l-217 -224l158 -34l110 134l114 -120l147 41zM768 1631l-246 30l-166 -344l125 -34z" />
    <glyph glyph-name="uni1EA6" unicode="&#x1ea6;" horiz-adv-x="956" 
d="M20 48l291 2l35 201l283 20l102 -192l354 110l-715 1549zM567 542l-178 9l56 420zM438 2030l-120 -3l-217 -224l158 -34l110 134l114 -120l147 41zM333 2464l-250 -81l257 -280l85 26z" />
    <glyph glyph-name="uni1EA7" unicode="&#x1ea7;" horiz-adv-x="836" 
d="M276 343q-36 60 -36 144q0 85 36 145q36 61 88 61q51 0 87 -61q36 -60 36 -145q0 -84 -36 -144q-36 -61 -87 -61q-52 0 -88 61zM663 932l-200 -20l-6 -54q-54 15 -108 15q-159 0 -271 -107q-113 -108 -113 -260t113 -260q112 -107 271 -107q69 0 187 63l12 -69l231 63z
M445 1225l-120 -3l-217 -224l158 -34l110 134l114 -120l147 41zM340 1659l-250 -81l257 -280l85 26z" />
    <glyph glyph-name="uni1EA8" unicode="&#x1ea8;" horiz-adv-x="956" 
d="M20 48l291 2l35 201l283 20l102 -192l354 110l-715 1549zM567 542l-178 9l56 420zM423 2054l-120 -3l-217 -224l158 -34l110 134l114 -120l147 41zM235 2394q274 -42 299 -156q2 -68 -86 -111q-84 -39 -256 -55l-2 61l59 6q42 1 73 22q37 24 35 61q-2 53 -161 135z" />
    <glyph glyph-name="uni1EA9" unicode="&#x1ea9;" horiz-adv-x="836" 
d="M276 253q-36 60 -36 144q0 85 36 145q36 61 88 61q51 0 87 -61q36 -60 36 -145q0 -84 -36 -144q-36 -61 -87 -61q-52 0 -88 61zM663 842l-200 -20l-6 -54q-54 15 -108 15q-159 0 -271 -107q-113 -108 -113 -260t113 -260q112 -107 271 -107q69 0 187 63l12 -69l231 63z
M389 1128l-120 -3l-217 -224l158 -34l110 134l114 -120l147 41zM201 1468q274 -42 299 -156q2 -68 -86 -111q-84 -39 -256 -55l-2 61l59 6q42 1 73 22q37 24 35 61q-2 53 -161 135z" />
    <glyph glyph-name="uni1EAA" unicode="&#x1eaa;" horiz-adv-x="956" 
d="M20 48l291 2l35 201l283 20l102 -192l354 110l-715 1549zM567 542l-178 9l56 420zM458 1974l-120 -3l-217 -224l158 -34l110 134l114 -120l147 41zM100 2181q-28 -44 -37 -108l117 -27q6 42 25 55q23 15 68 6q46 -9 100 -38q105 -61 181 -41q33 10 72 35q24 16 75 57l7 6
l-63 127l-7 -5q-81 -66 -111 -73q-21 -5 -46 3q-23 7 -60 28q-66 38 -126 50q-86 17 -145 -22q-30 -20 -50 -53z" />
    <glyph glyph-name="uni1EAB" unicode="&#x1eab;" horiz-adv-x="836" 
d="M276 343q-36 60 -36 144q0 85 36 145q36 61 88 61q51 0 87 -61q36 -60 36 -145q0 -84 -36 -144q-36 -61 -87 -61q-52 0 -88 61zM663 932l-200 -20l-6 -54q-54 15 -108 15q-159 0 -271 -107q-113 -108 -113 -260t113 -260q112 -107 271 -107q69 0 187 63l12 -69l231 63z
M445 1215l-120 -3l-217 -224l158 -34l110 134l114 -120l147 41zM87 1422q-28 -44 -37 -108l117 -27q6 42 25 55q23 15 68 6q46 -9 100 -38q105 -61 181 -41q33 10 72 35q24 16 75 57l7 6l-63 127l-7 -5q-81 -66 -111 -73q-21 -5 -46 3q-23 7 -60 28q-66 38 -126 50
q-86 17 -145 -22q-30 -20 -50 -53z" />
    <glyph glyph-name="uni1EAC" unicode="&#x1eac;" horiz-adv-x="956" 
d="M20 48l291 2l35 201l283 20l102 -192l354 110l-715 1549zM567 542l-178 9l56 420zM424 2004l-120 -3l-217 -224l158 -34l110 134l114 -120l147 41zM640 -44q36 -36 36 -87t-36 -87.5t-87 -36.5q-52 0 -88 36.5t-36 87.5t36 87t88 36q51 0 87 -36z" />
    <glyph glyph-name="uni1EAD" unicode="&#x1ead;" horiz-adv-x="836" 
d="M276 343q-36 60 -36 144q0 85 36 145q36 61 88 61q51 0 87 -61q36 -60 36 -145q0 -84 -36 -144q-36 -61 -87 -61q-52 0 -88 61zM663 932l-200 -20l-6 -54q-54 15 -108 15q-159 0 -271 -107q-113 -108 -113 -260t113 -260q112 -107 271 -107q69 0 187 63l12 -69l231 63z
M445 1214l-120 -3l-217 -224l158 -34l110 134l114 -120l147 41zM494.5 52q36.5 -36 36.5 -87t-36.5 -87.5t-87.5 -36.5t-87 36.5t-36 87.5t36 87t87 36t87.5 -36z" />
    <glyph glyph-name="uni1EAE" unicode="&#x1eae;" horiz-adv-x="956" 
d="M20 48l291 2l35 201l283 20l102 -192l354 110l-715 1549zM567 542l-178 9l56 420zM168 2055q234 -168 433 63l53 -144q-267 -311 -540 -76zM682 2393l-246 30l-166 -344l125 -34z" />
    <glyph glyph-name="uni1EAF" unicode="&#x1eaf;" horiz-adv-x="836" 
d="M276 343q-36 60 -36 144q0 85 36 145q36 61 88 61q51 0 87 -61q36 -60 36 -145q0 -84 -36 -144q-36 -61 -87 -61q-52 0 -88 61zM663 932l-200 -20l-6 -54q-54 15 -108 15q-159 0 -271 -107q-113 -108 -113 -260t113 -260q112 -107 271 -107q69 0 187 63l12 -69l231 63z
M155 1188q234 -168 433 63l53 -144q-267 -311 -540 -76zM669 1526l-246 30l-166 -344l125 -34z" />
    <glyph glyph-name="uni1EB0" unicode="&#x1eb0;" horiz-adv-x="956" 
d="M20 48l291 2l35 201l283 20l102 -192l354 110l-715 1549zM567 542l-178 9l56 420zM158 2051q234 -168 433 63l53 -144q-267 -311 -540 -76zM346 2430l-250 -81l257 -280l85 26z" />
    <glyph glyph-name="uni1EB1" unicode="&#x1eb1;" horiz-adv-x="836" 
d="M276 343q-36 60 -36 144q0 85 36 145q36 61 88 61q51 0 87 -61q36 -60 36 -145q0 -84 -36 -144q-36 -61 -87 -61q-52 0 -88 61zM663 932l-200 -20l-6 -54q-54 15 -108 15q-159 0 -271 -107q-113 -108 -113 -260t113 -260q112 -107 271 -107q69 0 187 63l12 -69l231 63z
M165 1212q234 -168 433 63l53 -144q-267 -311 -540 -76zM353 1591l-250 -81l257 -280l85 26z" />
    <glyph glyph-name="uni1EB2" unicode="&#x1eb2;" horiz-adv-x="956" 
d="M20 48l291 2l35 201l283 20l102 -192l354 110l-715 1549zM567 542l-178 9l56 420zM144 2051q234 -168 433 63l53 -144q-267 -311 -540 -76zM193 2539q362 -55 395 -207q3 -89 -114 -146q-111 -52 -338 -73l-3 81l78 7q55 2 97 30q48 32 46 81q-3 69 -213 178z" />
    <glyph glyph-name="uni1EB3" unicode="&#x1eb3;" horiz-adv-x="836" 
d="M276 343q-36 60 -36 144q0 85 36 145q36 61 88 61q51 0 87 -61q36 -60 36 -145q0 -84 -36 -144q-36 -61 -87 -61q-52 0 -88 61zM663 932l-200 -20l-6 -54q-54 15 -108 15q-159 0 -271 -107q-113 -108 -113 -260t113 -260q112 -107 271 -107q69 0 187 63l12 -69l231 63z
M93 1233q234 -168 433 63l53 -144q-267 -311 -540 -76zM161 1711q362 -55 395 -207q3 -89 -114 -146q-111 -52 -338 -73l-3 81l78 7q55 2 97 30q48 32 46 81q-3 69 -213 178z" />
    <glyph glyph-name="uni1EB4" unicode="&#x1eb4;" horiz-adv-x="956" 
d="M20 48l291 2l35 201l283 20l102 -192l354 110l-715 1549zM567 542l-178 9l56 420zM188 2057q234 -168 433 63l53 -144q-267 -311 -540 -76zM70 2302q-28 -44 -37 -108l117 -27q6 42 25 55q23 15 68 6q46 -9 100 -38q105 -61 181 -41q33 10 72 35q24 16 75 57l7 6l-63 127
l-7 -5q-81 -66 -111 -73q-21 -5 -46 3q-23 7 -60 28q-66 38 -126 50q-86 17 -145 -22q-30 -20 -50 -53z" />
    <glyph glyph-name="uni1EB5" unicode="&#x1eb5;" horiz-adv-x="836" 
d="M276 343q-36 60 -36 144q0 85 36 145q36 61 88 61q51 0 87 -61q36 -60 36 -145q0 -84 -36 -144q-36 -61 -87 -61q-52 0 -88 61zM663 932l-200 -20l-6 -54q-54 15 -108 15q-159 0 -271 -107q-113 -108 -113 -260t113 -260q112 -107 271 -107q69 0 187 63l12 -69l231 63z
M148 1225q234 -168 433 63l53 -144q-267 -311 -540 -76zM30 1470q-28 -44 -37 -108l117 -27q6 42 25 55q23 15 68 6q46 -9 100 -38q105 -61 181 -41q33 10 72 35q24 16 75 57l7 6l-63 127l-7 -5q-81 -66 -111 -73q-21 -5 -46 3q-23 7 -60 28q-66 38 -126 50q-86 17 -145 -22
q-30 -20 -50 -53z" />
    <glyph glyph-name="uni1EB6" unicode="&#x1eb6;" horiz-adv-x="956" 
d="M20 48l291 2l35 201l283 20l102 -192l354 110l-715 1549zM567 542l-178 9l56 420zM209 2081q234 -168 433 63l53 -144q-267 -311 -540 -76zM699.5 -44q36.5 -36 36.5 -87t-36.5 -87.5t-87.5 -36.5t-87 36.5t-36 87.5t36 87t87 36t87.5 -36z" />
    <glyph glyph-name="uni1EB7" unicode="&#x1eb7;" horiz-adv-x="836" 
d="M276 343q-36 60 -36 144q0 85 36 145q36 61 88 61q51 0 87 -61q36 -60 36 -145q0 -84 -36 -144q-36 -61 -87 -61q-52 0 -88 61zM663 932l-200 -20l-6 -54q-54 15 -108 15q-159 0 -271 -107q-113 -108 -113 -260t113 -260q112 -107 271 -107q69 0 187 63l12 -69l231 63z
M138 1247q234 -168 433 63l53 -144q-267 -311 -540 -76zM498.5 40q36.5 -36 36.5 -87t-36.5 -87.5t-87.5 -36.5t-87 36.5t-36 87.5t36 87t87 36t87.5 -36z" />
    <glyph glyph-name="uni1EB8" unicode="&#x1eb8;" horiz-adv-x="875" 
d="M175 1717l-134 -1568l726 71q76 318 76 339l-517 -109l49 360l408 71l2 24l-3 10v342l-349 -97q38 248 48 255t373 54q78 319 76 340q-733 -88 -755 -92zM601.5 52q36.5 -36 36.5 -87t-36.5 -87.5t-87.5 -36.5t-87 36.5t-36 87.5t36 87t87 36t87.5 -36z" />
    <glyph glyph-name="uni1EB9" unicode="&#x1eb9;" 
d="M45 467q79 -244 289 -293t428 78l-18 176q-153 -98 -297 -87t-161 142l489 125q-27 107 -38 129q-124 263 -442 210q-360 -110 -250 -480zM530 671l-258 -72q-20 116 56 181q137 35 202 -109zM549.5 57q36.5 -36 36.5 -87t-36.5 -87.5t-87.5 -36.5t-87 36.5t-36 87.5
t36 87t87 36t87.5 -36z" />
    <glyph glyph-name="uni1EBA" unicode="&#x1eba;" horiz-adv-x="875" 
d="M175 1717l-134 -1568l726 71q76 318 76 339l-517 -109l49 360l408 71l2 24l-3 10v342l-349 -97q38 248 48 255t373 54q78 319 76 340q-733 -88 -755 -92zM343 2272q362 -55 395 -207q3 -89 -114 -146q-111 -52 -338 -73l-3 81l78 7q55 2 97 30q48 32 46 81
q-3 69 -213 178z" />
    <glyph glyph-name="uni1EBB" unicode="&#x1ebb;" 
d="M45 467q79 -244 289 -293t428 78l-18 176q-153 -98 -297 -87t-161 142l489 125q-27 107 -38 129q-124 263 -442 210q-360 -110 -250 -480zM530 671l-258 -72q-20 116 56 181q137 35 202 -109zM178 1423q362 -55 395 -207q3 -89 -114 -146q-111 -52 -338 -73l-3 81l78 7
q55 2 97 30q48 32 46 81q-3 69 -213 178z" />
    <glyph glyph-name="uni1EBC" unicode="&#x1ebc;" horiz-adv-x="875" 
d="M175 1717l-134 -1568l726 71q76 318 76 339l-517 -109l49 360l408 71l2 24l-3 10v342l-349 -97q38 248 48 255t373 54q78 319 76 340q-733 -88 -755 -92zM290 2040q-28 -44 -37 -108l117 -27q6 42 25 55q23 15 68 6q46 -9 100 -38q105 -61 181 -41q33 10 72 35
q24 16 75 57l7 6l-63 127l-7 -5q-81 -66 -111 -73q-21 -5 -46 3q-23 7 -60 28q-66 38 -126 50q-86 17 -145 -22q-30 -20 -50 -53z" />
    <glyph glyph-name="uni1EBD" unicode="&#x1ebd;" 
d="M45 467q79 -244 289 -293t428 78l-18 176q-153 -98 -297 -87t-161 142l489 125q-27 107 -38 129q-124 263 -442 210q-360 -110 -250 -480zM530 671l-258 -72q-20 116 56 181q137 35 202 -109zM112 1200q-28 -44 -37 -108l117 -27q6 42 25 55q23 15 68 6q46 -9 100 -38
q105 -61 181 -41q33 10 72 35q24 16 75 57l7 6l-63 127l-7 -5q-81 -66 -111 -73q-21 -5 -46 3q-23 7 -60 28q-66 38 -126 50q-86 17 -145 -22q-30 -20 -50 -53z" />
    <glyph glyph-name="uni1EBE" unicode="&#x1ebe;" horiz-adv-x="875" 
d="M175 1717l-134 -1568l726 71q76 318 76 339l-517 -109l49 360l408 71l2 24l-3 10v342l-349 -97q38 248 48 255t373 54q78 319 76 340q-733 -88 -755 -92zM590 2105l-120 -3l-217 -224l158 -34l110 134l114 -120l147 41zM886 2511l-246 30l-166 -344l125 -34z" />
    <glyph glyph-name="uni1EBF" unicode="&#x1ebf;" 
d="M45 467q79 -244 289 -293t428 78l-18 176q-153 -98 -297 -87t-161 142l489 125q-27 107 -38 129q-124 263 -442 210q-360 -110 -250 -480zM530 671l-258 -72q-20 116 56 181q137 35 202 -109zM460 1265l-120 -3l-217 -224l158 -34l110 134l114 -120l147 41zM756 1671
l-246 30l-166 -344l125 -34z" />
    <glyph glyph-name="uni1EC0" unicode="&#x1ec0;" horiz-adv-x="875" 
d="M175 1717l-134 -1568l726 71q76 318 76 339l-517 -109l49 360l408 71l2 24l-3 10v342l-349 -97q38 248 48 255t373 54q78 319 76 340q-733 -88 -755 -92zM600 2095l-120 -3l-217 -224l158 -34l110 134l114 -120l147 41zM514 2514l-250 -81l257 -280l85 26z" />
    <glyph glyph-name="uni1EC1" unicode="&#x1ec1;" 
d="M45 467q79 -244 289 -293t428 78l-18 176q-153 -98 -297 -87t-161 142l489 125q-27 107 -38 129q-124 263 -442 210q-360 -110 -250 -480zM530 671l-258 -72q-20 116 56 181q137 35 202 -109zM470 1255l-120 -3l-217 -224l158 -34l110 134l114 -120l147 41zM384 1674
l-250 -81l257 -280l85 26z" />
    <glyph glyph-name="uni1EC2" unicode="&#x1ec2;" horiz-adv-x="875" 
d="M175 1702l-134 -1568l726 71q76 318 76 339l-517 -109l49 360l408 71l2 24l-3 10v342l-349 -97q38 248 48 255t373 54q78 319 76 340q-733 -88 -755 -92zM578 2065l-120 -3l-217 -224l158 -34l110 134l114 -120l147 41zM407 2519q362 -55 395 -207q3 -89 -114 -146
q-111 -52 -338 -73l-3 81l78 7q55 2 97 30q48 32 46 81q-3 69 -213 178z" />
    <glyph glyph-name="uni1EC3" unicode="&#x1ec3;" 
d="M45 467q79 -244 289 -293t428 78l-18 176q-153 -98 -297 -87t-161 142l489 125q-27 107 -38 129q-124 263 -442 210q-360 -110 -250 -480zM530 671l-258 -72q-20 116 56 181q137 35 202 -109zM470 1255l-120 -3l-217 -224l158 -34l110 134l114 -120l147 41zM312 1634
q292 -44 319 -167q2 -72 -92 -118q-90 -42 -273 -59l-2 65l63 6q44 2 78 24q39 26 37 66q-2 55 -172 143z" />
    <glyph glyph-name="uni1EC4" unicode="&#x1ec4;" horiz-adv-x="875" 
d="M175 1717l-134 -1568l726 71q76 318 76 339l-517 -109l49 360l408 71l2 24l-3 10v342l-349 -97q38 248 48 255t373 54q78 319 76 340q-733 -88 -755 -92zM638 2089l-120 -3l-217 -224l158 -34l110 134l114 -120l147 41zM280 2276q-28 -44 -37 -108l117 -27q6 42 25 55
q23 15 68 6q46 -9 100 -38q105 -61 181 -41q33 10 72 35q24 16 75 57l7 6l-63 127l-7 -5q-81 -66 -111 -73q-21 -5 -46 3q-23 7 -60 28q-66 38 -126 50q-86 17 -145 -22q-30 -20 -50 -53z" />
    <glyph glyph-name="uni1EC5" unicode="&#x1ec5;" 
d="M45 467q79 -244 289 -293t428 78l-18 176q-153 -98 -297 -87t-161 142l489 125q-27 107 -38 129q-124 263 -442 210q-360 -110 -250 -480zM530 671l-258 -72q-20 116 56 181q137 35 202 -109zM470 1255l-120 -3l-217 -224l158 -34l110 134l114 -120l147 41zM112 1442
q-28 -44 -37 -108l117 -27q6 42 25 55q23 15 68 6q46 -9 100 -38q105 -61 181 -41q33 10 72 35q24 16 75 57l7 6l-63 127l-7 -5q-81 -66 -111 -73q-21 -5 -46 3q-23 7 -60 28q-66 38 -126 50q-86 17 -145 -22q-30 -20 -50 -53z" />
    <glyph glyph-name="uni1EC6" unicode="&#x1ec6;" horiz-adv-x="875" 
d="M175 1702l-134 -1568l726 71q76 318 76 339l-517 -109l49 360l408 71l2 24l-3 10v342l-349 -97q38 248 48 255t373 54q78 319 76 340q-733 -88 -755 -92zM638 2065l-120 -3l-217 -224l158 -34l110 134l114 -120l147 41zM623.5 84q36.5 -36 36.5 -87t-36.5 -87.5
t-87.5 -36.5t-87 36.5t-36 87.5t36 87t87 36t87.5 -36z" />
    <glyph glyph-name="uni1EC7" unicode="&#x1ec7;" 
d="M45 467q79 -244 289 -293t428 78l-18 176q-153 -98 -297 -87t-161 142l489 125q-27 107 -38 129q-124 263 -442 210q-360 -110 -250 -480zM530 671l-258 -72q-20 116 56 181q137 35 202 -109zM470 1253l-120 -3l-217 -224l158 -34l110 134l114 -120l147 41zM537.5 83
q36.5 -36 36.5 -87t-36.5 -87.5t-87.5 -36.5t-87 36.5t-36 87.5t36 87t87 36t87.5 -36z" />
    <glyph glyph-name="uni1EC8" unicode="&#x1ec8;" horiz-adv-x="543" 
d="M258 61l175 -25l96 1638l-474 -73zM177 2127q362 -55 395 -207q3 -89 -114 -146q-111 -52 -338 -73l-3 81l78 7q55 2 97 30q48 32 46 81q-3 69 -213 178z" />
    <glyph glyph-name="uni1EC9" unicode="&#x1ec9;" horiz-adv-x="360" 
d="M40 756l73 -651l212 56l2 656zM47 1220q274 -42 299 -156q2 -68 -86 -111q-84 -39 -256 -55l-2 61l59 6q42 1 73 22q37 24 35 61q-2 53 -161 135z" />
    <glyph glyph-name="uni1ECA" unicode="&#x1eca;" horiz-adv-x="589" 
d="M258 61l175 -25l96 1638l-474 -73zM517.5 -51q36.5 -36 36.5 -87t-36.5 -87.5t-87.5 -36.5t-87 36.5t-36 87.5t36 87t87 36t87.5 -36z" />
    <glyph glyph-name="uni1ECB" unicode="&#x1ecb;" horiz-adv-x="360" 
d="M40 756l73 -651l212 56l2 656zM238 953q-38 -42 -91 -42t-91 42t-38 102q0 59 38 101t91 42t91 -42t38 -101q0 -60 -38 -102zM324.5 8q36.5 -36 36.5 -87t-36.5 -87.5t-87.5 -36.5t-87 36.5t-36 87.5t36 87t87 36t87.5 -36z" />
    <glyph glyph-name="uni1ECC" unicode="&#x1ecc;" horiz-adv-x="1242" 
d="M1143.5 1448q97.5 -253 17.5 -598q-81 -345 -292.5 -579.5t-430.5 -221.5t-316.5 266t-16.5 598q80 345 291.5 579.5t430.5 221.5t316.5 -266zM644 1123q-73 9 -147 -92.5t-106 -254.5q-31 -153 -1.5 -268t102.5 -124q74 -9 148 93t105 255q32 153 2 267.5t-103 123.5z
M809.5 -44q36.5 -36 36.5 -87t-36.5 -87.5t-87.5 -36.5t-87 36.5t-36 87.5t36 87t87 36t87.5 -36z" />
    <glyph glyph-name="uni1ECD" unicode="&#x1ecd;" horiz-adv-x="704" 
d="M299 296q-47 40 -69 109q-21 69 -5 126t61 69t91 -28q47 -40 69 -109t5 -126q-16 -58 -61 -70q-44 -12 -91 29zM482 843q-128 90 -258 55t-186 -174t-5 -301t179 -252q127 -89 257 -54t186 174t5 301q-50 162 -178 251zM581.5 39q36.5 -36 36.5 -87t-36.5 -87.5
t-87.5 -36.5t-87 36.5t-36 87.5t36 87t87 36t87.5 -36z" />
    <glyph glyph-name="uni1ECE" unicode="&#x1ece;" horiz-adv-x="1093" 
d="M1063.5 1448q97.5 -253 17.5 -598q-81 -345 -292.5 -579.5t-430.5 -221.5t-316.5 266t-16.5 598q80 345 291.5 579.5t430.5 221.5t316.5 -266zM564 1123q-73 9 -147 -92.5t-106 -254.5q-31 -153 -1.5 -268t102.5 -124q74 -9 148 93t105 255q32 153 2 267.5t-103 123.5z
M488 2164q362 -55 395 -207q3 -89 -114 -146q-111 -52 -338 -73l-3 81l78 7q55 2 97 30q48 32 46 81q-3 69 -213 178z" />
    <glyph glyph-name="uni1ECF" unicode="&#x1ecf;" horiz-adv-x="704" 
d="M299 296q-47 40 -69 109q-21 69 -5 126t61 69t91 -28q47 -40 69 -109t5 -126q-16 -58 -61 -70q-44 -12 -91 29zM482 843q-128 90 -258 55t-186 -174t-5 -301t179 -252q127 -89 257 -54t186 174t5 301q-50 162 -178 251zM177 1400q362 -55 395 -207q3 -89 -114 -146
q-111 -52 -338 -73l-3 81l78 7q55 2 97 30q48 32 46 81q-3 69 -213 178z" />
    <glyph glyph-name="uni1ED0" unicode="&#x1ed0;" horiz-adv-x="1242" 
d="M1143.5 1448q97.5 -253 17.5 -598q-81 -345 -292.5 -579.5t-430.5 -221.5t-316.5 266t-16.5 598q80 345 291.5 579.5t430.5 221.5t316.5 -266zM644 1123q-73 9 -147 -92.5t-106 -254.5q-31 -153 -1.5 -268t102.5 -124q74 -9 148 93t105 255q32 153 2 267.5t-103 123.5z
M895 2020l-120 -3l-217 -224l158 -34l110 134l114 -120l147 41zM785 2079l85 -26l257 280l-250 81z" />
    <glyph glyph-name="uni1ED1" unicode="&#x1ed1;" horiz-adv-x="704" 
d="M299 296q-47 40 -69 109q-21 69 -5 126t61 69t91 -28q47 -40 69 -109t5 -126q-16 -58 -61 -70q-44 -12 -91 29zM482 843q-128 90 -258 55t-186 -174t-5 -301t179 -252q127 -89 257 -54t186 174t5 301q-50 162 -178 251zM375 1196l-120 -3l-217 -224l158 -34l110 134
l114 -120l147 41zM669 1576l-246 30l-166 -344l125 -34z" />
    <glyph glyph-name="uni1ED2" unicode="&#x1ed2;" horiz-adv-x="1123" 
d="M864 1989l-120 -3l-217 -224l158 -34l110 134l114 -120l147 41zM775 2404l-250 -81l257 -280l85 26zM1113.5 1438q97.5 -253 17.5 -598q-81 -345 -292.5 -579.5t-430.5 -221.5t-316.5 266t-16.5 598q80 345 291.5 579.5t430.5 221.5t316.5 -266zM614 1113
q-73 9 -147 -92.5t-106 -254.5q-31 -153 -1.5 -268t102.5 -124q74 -9 148 93t105 255q32 153 2 267.5t-103 123.5z" />
    <glyph glyph-name="uni1ED3" unicode="&#x1ed3;" horiz-adv-x="704" 
d="M299 296q-47 40 -69 109q-21 69 -5 126t61 69t91 -28q47 -40 69 -109t5 -126q-16 -58 -61 -70q-44 -12 -91 29zM482 843q-128 90 -258 55t-186 -174t-5 -301t179 -252q127 -89 257 -54t186 174t5 301q-50 162 -178 251zM375 1205l-120 -3l-217 -224l158 -34l110 134
l114 -120l147 41zM286 1620l-250 -81l257 -280l85 26z" />
    <glyph glyph-name="uni1ED4" unicode="&#x1ed4;" horiz-adv-x="1242" 
d="M1143.5 1448q97.5 -253 17.5 -598q-81 -345 -292.5 -579.5t-430.5 -221.5t-316.5 266t-16.5 598q80 345 291.5 579.5t430.5 221.5t316.5 -266zM644 1123q-73 9 -147 -92.5t-106 -254.5q-31 -153 -1.5 -268t102.5 -124q74 -9 148 93t105 255q32 153 2 267.5t-103 123.5z
M671 2342q270 -41 295 -155q2 -66 -85 -109q-83 -38 -253 -54l-2 60l58 6q41 1 73 22q35 24 34 61q-2 51 -159 132zM555 1706l232 133l245 -125l60 52l-287 232l-305 -228z" />
    <glyph glyph-name="uni1ED5" unicode="&#x1ed5;" horiz-adv-x="704" 
d="M289 189q-47 40 -69 109q-21 69 -5 126t61 69t91 -28q47 -40 69 -109t5 -126q-16 -58 -61 -70q-44 -12 -91 29zM472 736q-128 90 -258 55t-186 -174t-5 -301t179 -252q127 -89 257 -54t186 174t5 301q-50 162 -178 251zM189 1451q270 -41 295 -155q2 -66 -85 -109
q-83 -38 -253 -54l-2 60l58 6q41 1 73 22q35 24 34 61q-2 51 -159 132zM77 815l232 133l245 -125l60 52l-287 232l-305 -228z" />
    <glyph glyph-name="uni1ED6" unicode="&#x1ed6;" horiz-adv-x="1089" 
d="M1063.5 1448q97.5 -253 17.5 -598q-81 -345 -292.5 -579.5t-430.5 -221.5t-316.5 266t-16.5 598q80 345 291.5 579.5t430.5 221.5t316.5 -266zM564 1123q-73 9 -147 -92.5t-106 -254.5q-31 -153 -1.5 -268t102.5 -124q74 -9 148 93t105 255q32 153 2 267.5t-103 123.5z
M807 2012l-120 -3l-217 -224l158 -34l110 134l114 -120l147 41zM449 2199q-28 -44 -37 -108l117 -27q6 42 25 55q23 15 68 6q46 -9 100 -38q105 -61 181 -41q33 10 72 35q24 16 75 57l7 6l-63 127l-7 -5q-81 -66 -111 -73q-21 -5 -46 3q-23 7 -60 28q-66 38 -126 50
q-86 17 -145 -22q-30 -20 -50 -53z" />
    <glyph glyph-name="uni1ED7" unicode="&#x1ed7;" horiz-adv-x="704" 
d="M299 296q-47 40 -69 109q-21 69 -5 126t61 69t91 -28q47 -40 69 -109t5 -126q-16 -58 -61 -70q-44 -12 -91 29zM482 843q-128 90 -258 55t-186 -174t-5 -301t179 -252q127 -89 257 -54t186 174t5 301q-50 162 -178 251zM389 1196l-120 -3l-217 -224l158 -34l110 134
l114 -120l147 41zM31 1383q-28 -44 -37 -108l117 -27q6 42 25 55q23 15 68 6q46 -9 100 -38q105 -61 181 -41q33 10 72 35q24 16 75 57l7 6l-63 127l-7 -5q-81 -66 -111 -73q-21 -5 -46 3q-23 7 -60 28q-66 38 -126 50q-86 17 -145 -22q-30 -20 -50 -53z" />
    <glyph glyph-name="uni1ED8" unicode="&#x1ed8;" horiz-adv-x="1242" 
d="M1143.5 1448q97.5 -253 17.5 -598q-81 -345 -292.5 -579.5t-430.5 -221.5t-316.5 266t-16.5 598q80 345 291.5 579.5t430.5 221.5t316.5 -266zM644 1123q-73 9 -147 -92.5t-106 -254.5q-31 -153 -1.5 -268t102.5 -124q74 -9 148 93t105 255q32 153 2 267.5t-103 123.5z
M935 2018l-120 -3l-217 -224l158 -34l110 134l114 -120l147 41zM608.5 -66q36.5 -36 36.5 -87t-36.5 -87.5t-87.5 -36.5t-87 36.5t-36 87.5t36 87t87 36t87.5 -36z" />
    <glyph glyph-name="uni1ED9" unicode="&#x1ed9;" horiz-adv-x="704" 
d="M299 296q-47 40 -69 109q-21 69 -5 126t61 69t91 -28q47 -40 69 -109t5 -126q-16 -58 -61 -70q-44 -12 -91 29zM482 843q-128 90 -258 55t-186 -174t-5 -301t179 -252q127 -89 257 -54t186 174t5 301q-50 162 -178 251zM371 1213l-120 -3l-217 -224l158 -34l110 134
l114 -120l147 41zM485.5 22q36.5 -36 36.5 -87t-36.5 -87.5t-87.5 -36.5t-87 36.5t-36 87.5t36 87t87 36t87.5 -36z" />
    <glyph glyph-name="uni1EDA" unicode="&#x1eda;" horiz-adv-x="1328" 
d="M644 1123q-73 9 -147 -92.5t-106 -254.5q-31 -153 -1.5 -268t102.5 -124q74 -9 148 93t105 255q32 153 2 267.5t-103 123.5zM1181 2121l-246 30l-166 -344l125 -34zM1180 948q-7 -48 -19 -98q-81 -345 -292.5 -579.5t-430.5 -221.5t-316.5 266t-16.5 598
q80 345 291.5 579.5t430.5 221.5t317 -266q62 -163 51 -364l10 2q49 -97 108 -82q41 12 57 53q14 36 2 76l-4 29l68 16q29 -136 11 -227q-19 -97 -96 -117q-99 -25 -168 115z" />
    <glyph glyph-name="uni1EDB" unicode="&#x1edb;" horiz-adv-x="704" 
d="M299 296q-47 40 -69 109q-21 69 -5 126t61 69t91 -28q47 -40 69 -109t5 -126q-16 -58 -61 -70q-44 -12 -91 29zM652 1297l-246 30l-166 -344l125 -34zM825 294q77 20 96 117q18 91 -11 227l-68 -16l4 -29q12 -40 -2 -76q-16 -41 -57 -53q-59 -15 -108 82l-6 -1
q-5 23 -13 47q-50 162 -178 251q-128 90 -258 55t-186 -174t-5 -301t179 -252q127 -89 257 -54t186 174q16 39 23 80q63 -98 147 -77z" />
    <glyph glyph-name="uni1EDC" unicode="&#x1edc;" horiz-adv-x="1242" 
d="M644 1123q-73 9 -147 -92.5t-106 -254.5q-31 -153 -1.5 -268t102.5 -124q74 -9 148 93t105 255q32 153 2 267.5t-103 123.5zM766 1773l125 34l-166 344l-246 -30zM1180 948q-7 -48 -19 -98q-81 -345 -292.5 -579.5t-430.5 -221.5t-316.5 266t-16.5 598
q80 345 291.5 579.5t430.5 221.5t317 -266q62 -163 51 -364l10 2q49 -97 108 -82q41 12 57 53q14 36 2 76l-4 29l68 16q29 -136 11 -227q-19 -97 -96 -117q-99 -25 -168 115z" />
    <glyph glyph-name="uni1EDD" unicode="&#x1edd;" horiz-adv-x="704" 
d="M299 296q-47 40 -69 109q-21 69 -5 126t61 69t91 -28q47 -40 69 -109t5 -126q-16 -58 -61 -70q-44 -12 -91 29zM482 843q-128 90 -258 55t-186 -174t-5 -301t179 -252q127 -89 257 -54t186 174t5 301q-50 162 -178 251zM286 945l125 34l-166 344l-246 -30zM463 496
l60 -127l134 40q69 -140 168 -115q77 20 96 117q18 91 -11 227l-68 -16l4 -29q12 -40 -2 -76q-16 -41 -57 -53q-59 -15 -108 82z" />
    <glyph glyph-name="uni1EDE" unicode="&#x1ede;" horiz-adv-x="1242" 
d="M1143.5 1448q97.5 -253 17.5 -598q-81 -345 -292.5 -579.5t-430.5 -221.5t-316.5 266t-16.5 598q80 345 291.5 579.5t430.5 221.5t316.5 -266zM644 1123q-73 9 -147 -92.5t-106 -254.5q-31 -153 -1.5 -268t102.5 -124q74 -9 148 93t105 255q32 153 2 267.5t-103 123.5z
M1205 1086q49 -97 108 -82q41 12 57 53q14 36 2 76l-4 29l68 16q29 -136 11 -227q-19 -97 -96 -117q-99 -25 -168 115l-134 -40l-60 127zM600 2189q362 -55 395 -207q3 -89 -114 -146q-111 -52 -338 -73l-3 81l78 7q55 2 97 30q48 32 46 81q-3 69 -213 178z" />
    <glyph glyph-name="uni1EDF" unicode="&#x1edf;" horiz-adv-x="704" 
d="M299 296q-47 40 -69 109q-21 69 -5 126t61 69t91 -28q47 -40 69 -109t5 -126q-16 -58 -61 -70q-44 -12 -91 29zM482 843q-128 90 -258 55t-186 -174t-5 -301t179 -252q127 -89 257 -54t186 174t5 301q-50 162 -178 251zM463 496l60 -127l134 40q69 -140 168 -115
q77 20 96 117q18 91 -11 227l-68 -16l4 -29q12 -40 -2 -76q-16 -41 -57 -53q-59 -15 -108 82zM155 1358q362 -55 395 -207q3 -89 -114 -146q-111 -52 -338 -73l-3 81l78 7q55 2 97 30q48 32 46 81q-3 69 -213 178z" />
    <glyph glyph-name="uni1EE0" unicode="&#x1ee0;" horiz-adv-x="1242" 
d="M1143.5 1448q97.5 -253 17.5 -598q-81 -345 -292.5 -579.5t-430.5 -221.5t-316.5 266t-16.5 598q80 345 291.5 579.5t430.5 221.5t316.5 -266zM644 1123q-73 9 -147 -92.5t-106 -254.5q-31 -153 -1.5 -268t102.5 -124q74 -9 148 93t105 255q32 153 2 267.5t-103 123.5z
M1205 1086q49 -97 108 -82q41 12 57 53q14 36 2 76l-4 29l68 16q29 -136 11 -227q-19 -97 -96 -117q-99 -25 -168 115l-134 -40l-60 127zM487 1917q-28 -44 -37 -108l117 -27q6 42 25 55q23 15 68 6q46 -9 100 -38q105 -61 181 -41q33 10 72 35q24 16 75 57l7 6l-63 127
l-7 -5q-81 -66 -111 -73q-21 -5 -46 3q-23 7 -60 28q-66 38 -126 50q-86 17 -145 -22q-30 -20 -50 -53z" />
    <glyph glyph-name="uni1EE1" unicode="&#x1ee1;" horiz-adv-x="704" 
d="M299 296q-47 40 -69 109q-21 69 -5 126t61 69t91 -28q47 -40 69 -109t5 -126q-16 -58 -61 -70q-44 -12 -91 29zM482 843q-128 90 -258 55t-186 -174t-5 -301t179 -252q127 -89 257 -54t186 174t5 301q-50 162 -178 251zM463 496l60 -127l134 40q69 -140 168 -115
q77 20 96 117q18 91 -11 227l-68 -16l4 -29q12 -40 -2 -76q-16 -41 -57 -53q-59 -15 -108 82zM52 1117q-28 -44 -37 -108l117 -27q6 42 25 55q23 15 68 6q46 -9 100 -38q105 -61 181 -41q33 10 72 35q24 16 75 57l7 6l-63 127l-7 -5q-81 -66 -111 -73q-21 -5 -46 3
q-23 7 -60 28q-66 38 -126 50q-86 17 -145 -22q-30 -20 -50 -53z" />
    <glyph glyph-name="uni1EE2" unicode="&#x1ee2;" horiz-adv-x="1242" 
d="M1143.5 1448q97.5 -253 17.5 -598q-81 -345 -292.5 -579.5t-430.5 -221.5t-316.5 266t-16.5 598q80 345 291.5 579.5t430.5 221.5t316.5 -266zM644 1123q-73 9 -147 -92.5t-106 -254.5q-31 -153 -1.5 -268t102.5 -124q74 -9 148 93t105 255q32 153 2 267.5t-103 123.5z
M1205 1086q49 -97 108 -82q41 12 57 53q14 36 2 76l-4 29l68 16q29 -136 11 -227q-19 -97 -96 -117q-99 -25 -168 115l-134 -40l-60 127zM596 -59.5q38 -37.5 38 -90.5t-38 -91t-92 -38t-92.5 38t-38.5 91t38.5 90.5t92.5 37.5t92 -37.5z" />
    <glyph glyph-name="uni1EE3" unicode="&#x1ee3;" horiz-adv-x="704" 
d="M299 296q-47 40 -69 109q-21 69 -5 126t61 69t91 -28q47 -40 69 -109t5 -126q-16 -58 -61 -70q-44 -12 -91 29zM482 843q-128 90 -258 55t-186 -174t-5 -301t179 -252q127 -89 257 -54t186 174t5 301q-50 162 -178 251zM463 496l60 -127l134 40q69 -140 168 -115
q77 20 96 117q18 91 -11 227l-68 -16l4 -29q12 -40 -2 -76q-16 -41 -57 -53q-59 -15 -108 82zM463 36.5q38 -37.5 38 -90.5t-38 -91t-92 -38t-92.5 38t-38.5 91t38.5 90.5t92.5 37.5t92 -37.5z" />
    <glyph glyph-name="uni1EE4" unicode="&#x1ee4;" horiz-adv-x="1282" 
d="M846 1649q61 -809 62 -816q-1 -184 -77 -318q-77 -133 -182 -133q-71 0 -131 76q-122 157 -88 416l66 756l-385 -32l-43 -656q0 -391 171 -666q170 -276 412 -276q241 0 412 275q170 275 170 663v695zM858.5 -103q36.5 -36 36.5 -87t-36.5 -87.5t-87.5 -36.5t-87 36.5
t-36 87.5t36 87t87 36t87.5 -36z" />
    <glyph glyph-name="uni1EE5" unicode="&#x1ee5;" horiz-adv-x="720" 
d="M467 923q28 -175 -25 -471q-3 -7 -7 -23q-16 -45 -52 -78q-51 -48 -93 11q-41 57 -29 282q3 67 12 152q7 70 7 71l-269 -75v-157q0 -105 25 -221q49 -233 173 -292q17 -8 44 -13q76 -6 163 26q173 63 226 249q8 28 10 49q36 173 29 517zM433.5 -44q36.5 -36 36.5 -87
t-36.5 -87.5t-87.5 -36.5t-87 36.5t-36 87.5t36 87t87 36t87.5 -36z" />
    <glyph glyph-name="uni1EE6" unicode="&#x1ee6;" horiz-adv-x="1361" 
d="M776 1649q61 -809 62 -816q-1 -184 -77 -318q-77 -133 -182 -133q-71 0 -131 76q-122 157 -88 416l66 756l-385 -32l-43 -656q0 -391 171 -666q170 -276 412 -276q241 0 412 275q170 275 170 663v695zM468 2134q362 -55 395 -207q3 -89 -114 -146q-111 -52 -338 -73
l-3 81l78 7q55 2 97 30q48 32 46 81q-3 69 -213 178z" />
    <glyph glyph-name="uni1EE7" unicode="&#x1ee7;" horiz-adv-x="720" 
d="M467 923q28 -175 -25 -471q-3 -7 -7 -23q-16 -45 -52 -78q-51 -48 -93 11q-41 57 -29 282q3 67 12 152q7 70 7 71l-269 -75v-157q0 -105 25 -221q49 -233 173 -292q17 -8 44 -13q76 -6 163 26q173 63 226 249q8 28 10 49q36 173 29 517zM204 1367q362 -55 395 -207
q3 -89 -114 -146q-111 -52 -338 -73l-3 81l78 7q55 2 97 30q48 32 46 81q-3 69 -213 178z" />
    </font>
</defs>
</svg>
