<?xml version="1.0" standalone="no"?>
  <!DOCTYPE svg PUBLIC "-//W3C//DTD SVG 1.1//EN" "http://www.w3.org/Graphics/SVG/1.1/DTD/svg11.dtd" >
  <svg>
  <metadata>
  Created by font-carrier
  </metadata>
  <defs>
  <font id="Snowy-Plain" horiz-adv-x="1516" vert-adv-y="1516" >
    <font-face
      
      font-family="Snowy"
      
      font-weight="400"
      
      font-stretch="normal"
      
      units-per-em="1204"
      
      ascent="1158"
      
      descent="-291"
      
    />
      <missing-glyph />

      

      
      <glyph glyph-name="uni21" unicode="&#x21;" d="M101 120Q101 175 139 214Q177 253 229 253Q282 253 321 213Q361 176 361 120Q361 67 322.50 27.50Q284-12 229-12Q203-12 181-3Q159 6 138 26Q101 68 101 120M364 810L364 294L89 294L89 823Q65 823 40.50 834Q16 845 16 866Q16 892 57.50 898.50Q99 905 124 909Q167 930 204.50 942Q242 954 284 954Q320 954 359 913.50Q398 873 398 847Q398 830 390 820Q382 810 370 810L364 810M32 865Q32 849 54.50 841Q77 833 97 833Q102 833 133 839.50Q164 846 172 846Q195 846 213 790.50Q231 735 239 735Q257 735 276 788.50Q295 842 305 842Q320 842 337 831.50Q354 821 368 821Q381 821 383.50 829.50Q386 838 386 846Q386 870 352.50 904.50Q319 939 286 939Q237 939 198.50 923Q160 907 130 895Q94 892 63 887.50Q32 883 32 865Z"  horiz-adv-x="458" vert-adv-y="1204"  />

      
      <glyph glyph-name="uni22" unicode="&#x22;" d="M232 838L232 722L182 566L117 566L66 722L66 827Q54 832 46 841Q38 850 38 864Q38 887 54 897.50Q70 908 100 919Q130 930 155 938Q180 946 190 946Q213 946 231.50 922.50Q250 899 250 875Q250 838 232 838M517 722L466 566L401 566L350 722L350 822Q339 827 331.50 835.50Q324 844 324 858Q324 881 340 891.50Q356 902 386 913Q416 924 441 932Q466 940 476 940Q499 940 517.50 916.50Q536 893 536 869Q536 832 518 832L517 722M332 857Q332 841 348 833Q364 825 378 825Q382 825 398 837.50Q414 850 422 853.50Q430 857 448.50 860.50Q467 864 473 864Q481 864 493.50 853.50Q506 843 516 843Q525 843 525 851Q526 854 526 868Q526 891 511.50 909Q497 927 474 927Q457 927 426 917Q395 907 387 905Q362 894 347 885Q332 876 332 857M46 863Q46 847 62 839Q78 831 92 831Q96 831 112 843.50Q128 856 136 859.50Q144 863 162.50 866.50Q181 870 187 870Q195 870 207.50 859.50Q220 849 230 849Q239 849 239 857Q242 866 242 874Q242 896 226.50 914.50Q211 933 188 933Q171 933 140 923Q109 913 101 911Q76 900 61 891Q46 882 46 863Z"  horiz-adv-x="571" vert-adv-y="1204"  />

      
      <glyph glyph-name="uni23" unicode="&#x23;" d="M369 788L332 595L453 595L490 783Q472 790 465 799.50Q458 809 458 822Q458 845 474 855.50Q490 866 520 877Q550 888 575 896Q600 904 610 904Q633 904 651.50 880.50Q670 857 670 833Q670 796 652 796Q647 796 638 798.50Q629 801 620 805L580 595L677 595L677 458L559 458L530 308L643 308L643 173L501 173L460-36L332-36L373 173L250 173L212-36L84-36L123 173L14 173L14 308L149 308L178 458L63 458L63 595L205 595L237 768Q220 772 207 781.50Q194 791 194 810Q194 833 210 843.50Q226 854 256 865Q286 876 311 884Q336 892 346 892Q369 892 387.50 868.50Q406 845 406 821Q406 784 388 784Q381 784 369 788M202 809Q202 793 218 785Q234 777 248 777Q252 777 268 789.50Q284 802 292 805.50Q300 809 318.50 812.50Q337 816 343 816Q351 816 363.50 805.50Q376 795 386 795Q395 795 395 803Q398 812 398 820Q398 842 382.50 860.50Q367 879 344 879Q327 879 296 869Q265 859 257 857Q232 846 217 837Q202 828 202 809M466 821Q466 805 482 797Q498 789 512 789Q516 789 532 801.50Q548 814 556 817.50Q564 821 582.50 824.50Q601 828 607 828Q615 828 627.50 817.50Q640 807 650 807Q659 807 659 815Q662 824 662 832Q662 854 646.50 872.50Q631 891 608 891Q591 891 560 881Q529 871 521 869Q496 858 481 849Q466 840 466 821M277 308L400 308L431 458L306 458L277 308Z"  horiz-adv-x="669" vert-adv-y="1204"  />

      
      <glyph glyph-name="uni24" unicode="&#x24;" d="M396 867Q421 871 442 871Q496 871 538 847.50Q580 824 580 800Q580 789 575 781Q609 766 635 750L583 585Q542 608 486 622Q430 639 377 639Q366 639 356.50 637Q347 635 337 626Q323 616 323 594Q323 557 426 531.50Q529 506 597.50 461Q666 416 666 290Q666 195 597 124.50Q528 54 401 39L401-154L305-154L305 36Q268 40 235.50 48Q203 56 151.50 77.50Q100 99 48 138L100 297Q158 265 207 243Q260 222 303 222Q395 222 395 266Q395 296 297.50 324Q200 352 132.50 400.50Q65 449 65 569Q65 664 128 734L147 754Q124 759 108 767.50Q92 776 92 789Q92 817 144.50 830Q197 843 235 848Q260 850 277 851.50Q294 853 303 854L303 969L396 969L396 867M111 788Q111 782 142 771Q173 760 185 753.50Q197 747 211 730.50Q225 714 230 714Q233 714 261 748.50Q289 783 308 783Q331 783 363 756.50Q395 730 428 703Q442 703 477.50 738.50Q513 774 534 774Q556 774 556 782Q561 790 561 799Q561 821 526 838.50Q491 856 439 856Q406 856 359.50 851Q313 846 237 836Q177 825 144 816Q111 807 111 788Z"  horiz-adv-x="739" vert-adv-y="1204"  />

      
      <glyph glyph-name="uni25" unicode="&#x25;" d="M583 879L689 879L176 0L79 0L583 879M700 263Q708 243 712.50 218Q717 193 717 178Q717 105 675.50 51.50Q634-2 559-2Q484-2 442 50.50Q400 103 400 176Q400 190 401.50 205.50Q403 221 407 237Q398 240 398 243Q398 254 427 296.50Q456 339 471 348Q486 357 502.50 363Q519 369 540 369Q562 369 573 367.50Q584 366 599 366Q644 366 677.50 329Q711 292 711 269Q710 268 705.50 265.50Q701 263 700 263M340 752Q348 732 352.50 707Q357 682 357 667Q357 594 315.50 540.50Q274 487 199 487Q124 487 82 539.50Q40 592 40 665Q40 679 41.50 694.50Q43 710 47 726Q38 729 38 732Q38 743 67 785.50Q96 828 111 837Q126 846 142.50 852Q159 858 180 858Q202 858 213 856.50Q224 855 239 855Q284 855 317.50 818Q351 781 351 758Q350 757 345.50 754.50Q341 752 340 752M607 176Q607 211 594.50 234Q582 257 559 257Q536 257 523.50 234Q511 211 511 176Q511 146 523 120Q535 98 559 98Q582 98 591.50 115.50Q601 133 604 146.50Q607 160 607 176M247 665Q247 700 234.50 723Q222 746 199 746Q176 746 163.50 723Q151 700 151 665Q151 635 163 609Q175 587 199 587Q222 587 231.50 604.50Q241 622 244 635.50Q247 649 247 665M342 764Q342 782 312 815.50Q282 849 237 849Q218 849 209 850Q200 851 180 851Q164 851 151.50 848Q139 845 119 833.50Q99 822 72.50 784Q46 746 46 734L49 732Q59 732 94.50 774.50Q130 817 135.50 820.50Q141 824 148 824Q154 824 160 816Q166 808 175 808Q185 808 206.50 815Q228 822 235 822Q243 822 252 794.50Q261 767 271 767Q278 767 284.50 779.50Q291 792 298 792Q306 792 320.50 776.50Q335 761 338 761L342 764M702 275Q702 293 672 326.50Q642 360 597 360Q578 360 569 361Q560 362 540 362Q524 362 511.50 359Q499 356 479 344.50Q459 333 432.50 295Q406 257 406 245L409 243Q419 243 454.50 285.50Q490 328 495.50 331.50Q501 335 508 335Q514 335 520 327Q526 319 535 319Q545 319 566.50 326Q588 333 595 333Q603 333 612 305.50Q621 278 631 278Q638 278 644.50 290.50Q651 303 658 303Q666 303 680.50 287.50Q695 272 698 272L702 275Z"  horiz-adv-x="765" vert-adv-y="1204"  />

      
      <glyph glyph-name="uni26" unicode="&#x26;" d="M790 190L951 0L648 0L585 67Q560 53 531.50 40Q503 27 451 10Q399-7 296-7Q184-7 106.50 58Q29 123 29 224Q29 322 74.50 371.50Q120 421 219 486Q197 512 182.50 532.50Q168 553 155 578Q142 603 142 653Q142 735 219.50 802Q297 869 429 869Q548 869 623 812.50Q698 756 698 665Q698 595 669 563Q641 535 549 458L633 366Q650 376 662.50 384.50Q675 393 691 407L739 445L903 284Q894 274 879.50 261.50Q865 249 845 234L790 190M376 679Q376 666 377.50 660Q379 654 384 644Q395 628 424 600Q449 613 466.50 632Q484 651 484 674Q484 694 468.50 707Q453 720 426 720Q406 720 391 709Q376 698 376 679M433 243L349 337Q326 322 318.50 311Q311 300 311 279Q311 255 329.50 239.50Q348 224 380 224Q413 224 433 243Z"  horiz-adv-x="995" vert-adv-y="1204"  />

      
      <glyph glyph-name="uni27" unicode="&#x27;" d="M232 838L232 722L182 566L117 566L66 722L66 827Q54 832 46 841Q38 850 38 864Q38 887 54 897.50Q70 908 100 919Q130 930 155 938Q180 946 190 946Q213 946 231.50 922.50Q250 899 250 875Q250 838 232 838M46 863Q46 847 62 839Q78 831 92 831Q96 831 112 843.50Q128 856 136 859.50Q144 863 162.50 866.50Q181 870 187 870Q195 870 207.50 859.50Q220 849 230 849Q239 849 239 857Q242 866 242 874Q242 896 226.50 914.50Q211 933 188 933Q171 933 140 923Q109 913 101 911Q76 900 61 891Q46 882 46 863Z"  horiz-adv-x="306" vert-adv-y="1204"  />

      
      <glyph glyph-name="uni28" unicode="&#x28;" d="M373 879Q336 815 307 749.50Q278 684 243.50 573.50Q209 463 209 327Q209 180 254 26Q299-128 373-243L253-243Q224-195 194-142.50Q164-90 134-29.50Q104 31 85.50 98.50Q67 166 61 213Q55 260 55 318Q55 431 78 512.50Q101 594 115.50 632.50Q130 671 159.50 724.50Q189 778 253 879L373 879Z"  horiz-adv-x="402" vert-adv-y="1204"  />

      
      <glyph glyph-name="uni29" unicode="&#x29;" d="M34 879L154 879Q182 836 209 787.50Q236 739 263.50 687.50Q291 636 321.50 536Q352 436 352 318Q352 207 328.50 119Q305 31 273.50-30.50Q242-92 217-136Q192-180 154-243L34-243Q103-137 150 18.50Q197 174 197 327Q197 470 154 607.50Q111 745 34 879Z"  horiz-adv-x="402" vert-adv-y="1204"  />

      
      <glyph glyph-name="uni2a" unicode="&#x2a;" d="M67 530L159 645L29 691L60 778L183 732L183 879L277 879L277 732L397 778L429 691L299 645L393 530L315 465L226 580L144 465L67 530Z"  horiz-adv-x="470" vert-adv-y="1204"  />

      
      <glyph glyph-name="uni2b" unicode="&#x2b;" d="M433 571L433 352L653 352L653 207L433 207L433-12L289-12L289 207L70 207L70 352L289 352L289 571L433 571Z"  horiz-adv-x="703" vert-adv-y="1204"  />

      
      <glyph glyph-name="uni2c" unicode="&#x2c;" d="M10-96L135 236L376 236L152-96L10-96Z"  horiz-adv-x="431" vert-adv-y="1204"  />

      
      <glyph glyph-name="uni2d" unicode="&#x2d;" d="M368 414L368 250L41 250L41 414L368 414Z"  horiz-adv-x="402" vert-adv-y="1204"  />

      
      <glyph glyph-name="uni2e" unicode="&#x2e;" d="M331 183Q335 173 338 160Q341 147 341 134Q341 79 302.50 41Q264 3 208 3Q156 3 117 41Q78 79 78 134Q78 156 84 176Q71 185 65 194Q59 203 59 216Q59 240 81 253Q103 266 136.50 274Q170 282 212.50 291.50Q255 301 269 301Q305 301 334 273Q363 245 363 220Q363 203 355 193Q347 183 335 183L331 183M69 215Q69 198 88.50 181.50Q108 165 125 165Q131 165 149 186.50Q167 208 183 213.50Q199 219 228 226Q257 233 268 233Q277 233 298.50 213.50Q320 194 333 194Q346 194 348.50 202.50Q351 211 351 219Q351 242 327 265Q303 288 269 288Q250 288 206 278.50Q162 269 137 264Q107 255 88 245Q69 235 69 215Z"  horiz-adv-x="417" vert-adv-y="1204"  />

      
      <glyph glyph-name="uni2f" unicode="&#x2f;" d="M340 879L87 0L10 0L262 879L340 879Z"  horiz-adv-x="337" vert-adv-y="1204"  />

      
      <glyph glyph-name="uni30" unicode="&#x30;" d="M771 641Q794 588 804 530Q814 472 814 429Q814 251 710.50 118.50Q607-14 421-14Q239-14 135 116.50Q31 247 31 426Q31 507 49 573Q42 575 33.50 578Q25 581 25 589Q25 620 96 723.50Q167 827 206.50 851Q246 875 285.50 888.50Q325 902 376 902Q415 902 444.50 898.50Q474 895 521 895Q633 895 715.50 802.50Q798 710 798 656Q798 652 792 649Q786 646 771 641M775 670Q775 738 689.50 809Q604 880 517 880Q464 880 441.50 882.50Q419 885 376 885Q327 885 292.50 873Q258 861 216.50 836.50Q175 812 109.50 720.50Q44 629 44 598Q44 589 54 589Q81 589 167.50 695.50Q254 802 262.50 806Q271 810 279 814.50Q287 819 298 819Q313 819 328.50 799.50Q344 780 364 780Q387 780 438.50 796Q490 812 511 812Q533 812 555 744.50Q577 677 601 677Q617 677 633 708.50Q649 740 667 740Q686 740 723 701Q760 662 768 662Q775 662 775 670M542 426Q542 509 510 567Q481 626 421 626Q365 626 334 567Q303 508 303 426Q303 346 333.50 288.50Q364 231 421 231Q479 231 510.50 289Q542 347 542 426Z"  horiz-adv-x="831" vert-adv-y="1204"  />

      
      <glyph glyph-name="uni31" unicode="&#x31;" d="M537 0L265 0L265 645L178 645L178 800L171 804Q153 822 153 856Q153 863 161.50 880Q170 897 173 908.50Q176 920 180.50 925.50Q185 931 196 931Q208 931 240 913Q272 895 297 895Q308 895 343 919Q378 943 396 943Q464 943 514.50 909Q565 875 565 790Q565 784 564.50 775Q564 766 553 766Q547 766 543 774Q539 786 538 790L537 0M386 738Q446 738 482.50 768.50Q519 799 532 799Q545 799 548 786Q551 773 552 773Q559 773 559 790Q559 868 509.50 902.50Q460 937 397 937Q383 937 346 913Q309 889 297 889Q273 889 241.50 907Q210 925 199 925Q191 925 186.50 922.50Q182 920 179 906.50Q176 893 168 877Q160 861 160 855Q160 826 172.50 812.50Q185 799 214 799Q223 799 253 825Q283 851 298 851Q330 851 352 794.50Q374 738 386 738Z"  horiz-adv-x="831" vert-adv-y="1204"  />

      
      <glyph glyph-name="uni32" unicode="&#x32;" d="M739 714Q759 668 759 612Q759 527 719 460.50Q679 394 628.50 350Q578 306 455 214L759 214L759 0L51 0L51 140Q225 259 347.50 388Q470 517 470 604Q470 686 393 686Q353 686 336.50 654.50Q320 623 320 571L77 571Q77 636 107 696Q88 706 76 715.50Q64 725 64 738Q64 747 83.50 783Q103 819 125 860Q132 879 139 885Q146 891 164 891Q182 891 242 884.50Q302 878 330 878Q348 878 407 906.50Q466 935 492 935Q573 935 659 858.50Q745 782 745 739Q745 718 739 714M461 678Q489 678 571 716Q653 754 689 754Q706 754 711 743Q714 730 718 718Q731 718 731 739Q731 779 650 849.50Q569 920 493 920Q468 920 407 892.50Q346 865 330 865Q286 865 235.50 871.50Q185 878 172 878Q154 878 149 874Q144 870 139 852Q112 805 95.50 776Q79 747 79 737Q79 722 87.50 716Q96 710 113 710Q116 710 149 713.50Q182 717 200 717Q215 717 261 771Q307 825 331 825Q383 825 412 751.50Q441 678 461 678Z"  horiz-adv-x="831" vert-adv-y="1204"  />

      
      <glyph glyph-name="uni33" unicode="&#x33;" d="M668 760Q701 707 701 633Q701 596 693 570Q685 544 658.50 516Q632 488 563 460Q626 444 676.50 396Q727 348 727 260Q727 135 640.50 61.50Q554-12 390-12Q225-12 144 70.50Q63 153 63 262L306 262Q306 193 378 193Q450 193 450 277Q450 330 425 346Q397 361 342 361L342 532Q397 532 423.50 546.50Q450 561 450 600Q450 637 433 654Q418 672 378 672Q342 672 326.50 652.50Q311 633 311 600L67 600Q67 684 112 752Q82 777 82 808Q82 837 105 844Q115 849 153 879.50Q191 910 230 910Q231 910 271 901.50Q311 893 338 893Q372 893 460 900.50Q548 908 551 908Q606 908 652.50 861.50Q699 815 699 787Q699 776 691 768Q683 760 668 760M321 783Q329 783 362 812.50Q395 842 408 843.50Q421 845 429 845Q450 845 480 832Q510 819 543 805Q561 805 590 792.50Q619 780 648 767Q654 767 665 768Q676 769 680 773.50Q684 778 684 788Q684 808 639.50 851.50Q595 895 551 895Q534 895 449.50 888.50Q365 882 339 882Q302 882 270 891Q238 900 231 900Q194 900 162.50 873Q131 846 113.50 837.50Q96 829 96 809Q96 783 116.50 762.50Q137 742 172 742Q191 742 197.50 782.50Q204 823 223 830Q240 839 258 839Q278 839 292 811Q306 783 321 783Z"  horiz-adv-x="831" vert-adv-y="1204"  />

      
      <glyph glyph-name="uni34" unicode="&#x34;" d="M706 822L706 364L797 364L797 152L706 152L706 0L438 0L438 152L41 152L41 347L294 809L284 816Q259 834 259 868Q259 876 271 892.50Q283 909 286.50 921Q290 933 297 938Q304 943 319 943Q336 943 380 925Q424 907 460 907Q475 907 525 931Q575 955 599 955Q668 955 708 915Q748 875 748 827Q748 816 743 805Q738 794 726 794Q718 794 715 804Q712 814 710 824L706 822M567 738Q591 738 627.50 787.50Q664 837 694 837Q714 837 717.50 822.50Q721 808 724 808Q731 808 732 810Q733 812 733 825Q733 862 698.50 902Q664 942 601 942Q582 942 529 918Q476 894 460 894Q427 894 385 912Q343 930 327 930Q311 930 306 927.50Q301 925 297.50 913.50Q294 902 285 888Q276 874 276 867Q276 841 298.50 824.50Q321 808 347 808Q365 808 394 823.50Q423 839 446 839Q491 839 520.50 788.50Q550 738 567 738M315 364L438 364L438 607L315 364Z"  horiz-adv-x="831" vert-adv-y="1204"  />

      
      <glyph glyph-name="uni35" unicode="&#x35;" d="M686 803L686 657L409 657L402 580L460 583Q577 583 659.50 515.50Q742 448 742 299Q742 146 632.50 66Q523-14 359-14Q270-14 220-2Q170 10 142 19Q114 28 79 43L104 241Q119 235 152.50 224.50Q186 214 211.50 207Q237 200 303 200Q381 200 426.50 226Q472 252 472 315Q472 382 426 411.50Q380 441 299 441Q284 441 272 440.50Q260 440 233 437Q206 434 193 432.50Q180 431 149 424L183 699L161 708Q133 717 114.50 742Q96 767 96 794Q96 825 114.50 833.50Q133 842 171.50 877.50Q210 913 250 913Q251 913 292.50 898Q334 883 363 883Q394 883 486.50 896.50Q579 910 588 910Q650 910 695 886.50Q740 863 737 838Q737 829 736 817.50Q735 806 716 806L712 806Q704 803 686 803M345 809Q355 809 389 820.50Q423 832 451.50 836.50Q480 841 525 844.50Q570 848 597 848Q617 848 639.50 838Q662 828 685 817Q714 817 714 821Q718 829 718 838Q718 861 683.50 880Q649 899 592 899Q577 899 482.50 885.50Q388 872 363 872Q324 872 291 886.50Q258 901 252 901Q213 901 180 869Q147 837 130 829Q113 821 113 795Q113 764 133 740Q153 716 190 716Q209 716 214.50 771.50Q220 827 237 835Q254 843 260 844.50Q266 846 278 846Q300 846 314.50 827.50Q329 809 345 809M104 241L79 43L104 241Z"  horiz-adv-x="831" vert-adv-y="1204"  />

      
      <glyph glyph-name="uni36" unicode="&#x36;" d="M561 767L405 544L462 547Q577 547 666.50 484.50Q756 422 756 277Q756 140 664 58Q572-24 402-24Q249-24 159.50 66.50Q70 157 70 294Q70 389 118.50 487Q167 585 317 806L314 806Q307 806 305 810.50Q303 815 303 838Q303 862 326 886Q349 910 381 910Q393 910 439 896.50Q485 883 499 883Q517 883 535 898Q553 913 558 913Q588 913 606.50 899Q625 885 642.50 869.50Q660 854 660 824Q660 797 641 757.50Q622 718 604 708L583 692L568 720Q568 733 565.50 746.50Q563 760 561 767M509 809Q516 809 524 827.50Q532 846 544 846Q552 846 563 837Q574 828 577 772Q580 716 590 716Q610 716 630.50 755Q651 794 651 825Q651 849 633.50 865.50Q616 882 599 891.50Q582 901 557 901Q554 901 536.50 886.50Q519 872 499 872Q481 872 434 885.50Q387 899 380 899Q350 899 332 880Q314 861 314 838L315 821Q315 818 319.50 815.50Q324 813 328 813Q330 813 347.50 830.50Q365 848 377 848Q389 848 413 844.50Q437 841 453.50 836Q470 831 487 820Q504 809 509 809M501 272Q501 309 476.50 336.50Q452 364 409 364Q367 364 349 343.50Q331 323 325.50 308Q320 293 320 272Q320 237 343.50 211Q367 185 409 185Q451 185 470.50 205Q490 225 495.50 238.50Q501 252 501 272Z"  horiz-adv-x="831" vert-adv-y="1204"  />

      
      <glyph glyph-name="uni37" unicode="&#x37;" d="M750 803L350 0L76 0L396 645L78 645L78 721L67 714L11 730Q-8 734-15.50 742.50Q-23 751-23 763Q-23 771-18 790Q-13 809-13 818Q-13 849 18 859.50Q49 870 65 902.50Q81 935 137 935Q176 925 216 915Q256 905 296 905Q340 905 470 918.50Q600 932 614 932Q700 932 763.50 908Q827 884 827 859Q827 831 806.50 817Q786 803 750 803M264 744Q274 744 324.50 788.50Q375 833 456.50 843Q538 853 626 853Q653 853 686 842.50Q719 832 753 821Q775 821 790.50 835.50Q806 850 806 861Q806 883 753 902Q700 921 620 921Q590 921 462.50 907.50Q335 894 296 894Q251 894 213.50 903.50Q176 913 138 923Q87 923 79 894Q71 865 41 855Q11 845 11 819Q11 810 7 792Q3 774 3 767Q3 753 13 745.50Q23 738 51 738Q75 738 87 784.50Q99 831 120 838Q141 845 148.50 846.50Q156 848 174 848Q205 848 223 796Q241 744 264 744Z"  horiz-adv-x="831" vert-adv-y="1204"  />

      
      <glyph glyph-name="uni38" unicode="&#x38;" d="M702 712Q718 675 718 638Q718 559 687.50 519Q657 479 600 445Q664 418 705 373Q746 328 746 231Q746 126 652 53.50Q558-19 405-19Q255-19 161 54Q67 127 67 231Q67 324 105 369.50Q143 415 207 445Q150 484 123 520Q96 556 96 638Q96 694 127 738L122 740Q107 740 104 747Q101 754 101 772Q101 800 161 860Q221 920 270 920Q288 920 361 906.50Q434 893 457 893Q486 893 515 908Q544 923 551 923Q586 923 643 871Q700 819 712 812Q724 805 724 774Q724 740 702 712M482 262Q482 296 461 325Q440 354 405 354Q370 354 350 328Q330 302 330 262Q330 222 349 197Q370 173 405 173Q437 173 460 197Q482 224 482 262M461 791Q474 791 486.50 809.50Q499 828 517 828Q530 828 543 821Q556 814 593 755Q630 696 645 696Q676 696 693 719.50Q710 743 710 775Q710 801 696.50 808.50Q683 816 632.50 863.50Q582 911 550 911Q543 911 516 896.50Q489 882 457 882Q432 882 353 895.50Q274 909 267 909Q222 909 170 854Q118 799 118 772Q121 761 121 755Q121 753 127 750Q133 747 142 747Q163 760 184 771Q205 782 219 782Q228 782 297 813.50Q366 845 387 845Q410 845 432 818Q454 791 461 791M460 621Q460 649 443.50 667.50Q427 686 402 686Q382 686 365.50 667.50Q349 649 349 621Q349 598 364 579.50Q379 561 402 561Q427 561 443.50 579Q460 597 460 621Z"  horiz-adv-x="831" vert-adv-y="1204"  />

      
      <glyph glyph-name="uni39" unicode="&#x39;" d="M710 736Q761 663 761 563Q761 484 733.50 414.50Q706 345 631 232L477 0L202 0L405 291Q256 291 185 345.50Q114 400 90.50 448.50Q67 497 67 563Q67 627 87 681Q57 690 38.50 715.50Q20 741 20 768Q20 798 38.50 807Q57 816 95.50 851.50Q134 887 174 887Q183 887 226 889Q269 891 305 891Q339 891 427 913.50Q515 936 532 936Q590 936 661 867Q732 798 732 768Q732 751 729 743.50Q726 736 710 736M285 753Q293 753 318 779Q343 805 374 810Q405 815 449 818.50Q493 822 521 822Q541 822 587.50 796Q634 770 683 743Q692 743 700 745.50Q708 748 708 751Q712 759 712 768Q712 795 649.50 856Q587 917 534 917Q514 917 425 896.50Q336 876 307 876Q264 876 232.50 873.50Q201 871 176 869Q136 869 102.50 839.50Q69 810 53 802.50Q37 795 37 769Q37 738 57 714Q77 690 114 690Q134 690 147 731Q160 772 180.50 781Q201 790 217 790Q239 790 254.50 771.50Q270 753 285 753M325 573Q325 538 348.50 512Q372 486 414 486Q456 486 475.50 506Q495 526 500.50 539.50Q506 553 506 573Q506 608 482.50 636.50Q459 665 414 665Q372 665 354 644.50Q336 624 330.50 609Q325 594 325 573Z"  horiz-adv-x="831" vert-adv-y="1204"  />

      
      <glyph glyph-name="uni3a" unicode="&#x3a;" d="M325 507Q329 497 332 484Q335 471 335 458Q335 403 296.50 365Q258 327 202 327Q150 327 111 365Q72 403 72 458Q72 480 78 500Q65 509 59 518Q53 527 53 540Q53 564 75 577Q97 590 130.50 598Q164 606 206.50 615.50Q249 625 263 625Q299 625 328 597Q357 569 357 544Q357 527 349 517Q341 507 329 507L325 507M324 171Q335 146 335 118Q335 63 297.50 24.50Q260-14 202-14Q150-14 111 26Q72 66 72 118Q72 139 78 159Q65 168 55.50 177.50Q46 187 46 204Q46 228 68 241Q90 254 123.50 262Q157 270 199.50 279.50Q242 289 256 289Q292 289 321 261Q350 233 350 208Q350 175 324 171M56 203Q56 186 75.50 169.50Q95 153 112 153Q118 153 136 174.50Q154 196 170 201.50Q186 207 215 214Q244 221 255 221Q264 221 285.50 201.50Q307 182 320 182Q333 182 335.50 190.50Q338 199 338 207Q338 231 314.50 254.50Q291 278 258 278Q238 278 186 267Q134 256 122 254Q95 246 75.50 234.50Q56 223 56 203M63 539Q63 522 82.50 505.50Q102 489 119 489Q125 489 143 510.50Q161 532 177 537.50Q193 543 222 550Q251 557 262 557Q271 557 292.50 537.50Q314 518 327 518Q340 518 342.50 526.50Q345 535 345 543Q345 566 321 589Q297 612 263 612Q244 612 200 602.50Q156 593 131 588Q101 579 82 569Q63 559 63 539Z"  horiz-adv-x="417" vert-adv-y="1204"  />

      
      <glyph glyph-name="uni3b" unicode="&#x3b;" d="M10-99L137 241L383 241L157-99L10-99M377 505Q381 495 384 482Q387 469 387 456Q387 401 348.50 363Q310 325 254 325Q202 325 163 363Q124 401 124 456Q124 478 130 498Q117 507 111 516Q105 525 105 538Q105 562 127 575Q149 588 182.50 596Q216 604 258.50 613.50Q301 623 315 623Q351 623 380 595Q409 567 409 542Q409 525 401 515Q393 505 381 505L377 505M115 537Q115 520 134.50 503.50Q154 487 171 487Q177 487 195 508.50Q213 530 229 535.50Q245 541 274 548Q303 555 314 555Q323 555 344.50 535.50Q366 516 379 516Q392 516 394.50 524.50Q397 533 397 541Q397 565 373.50 588.50Q350 612 317 612Q297 612 245 601Q193 590 181 588Q154 580 134.50 568.50Q115 557 115 537Z"  horiz-adv-x="458" vert-adv-y="1204"  />

      
      <glyph glyph-name="uni3c" unicode="&#x3c;" d="M51 433L628 686L628 542L231 361L628 144L628 0L51 289L51 433Z"  horiz-adv-x="703" vert-adv-y="1204"  />

      
      <glyph glyph-name="uni3d" unicode="&#x3d;" d="M653 496L653 352L70 352L70 496L653 496M653 207L653 63L70 63L70 207L653 207Z"  horiz-adv-x="703" vert-adv-y="1204"  />

      
      <glyph glyph-name="uni3e" unicode="&#x3e;" d="M631 433L631 289L53 0L53 144L450 361L53 542L53 686L631 433Z"  horiz-adv-x="703" vert-adv-y="1204"  />

      
      <glyph glyph-name="uni3f" unicode="&#x3f;" d="M236 116Q236 169 274 208.50Q312 248 366 248Q419 248 457.50 209Q496 170 496 116Q496 60 458 21.50Q420-17 366-17Q314-17 275 22.50Q236 62 236 116M655 760Q715 691 715 588Q715 475 650.50 407.50Q586 340 489 340L489 299L250 299L250 472L337 472Q365 472 384.50 478.50Q404 485 426 507Q448 529 448 588Q448 689 364 689Q321 689 302.50 668Q284 647 284 604L41 604Q41 702 120 781Q103 790 93 799Q83 808 83 818Q83 841 123.50 851.50Q164 862 240.50 873Q317 884 380.50 892Q444 900 466 900Q526 900 603.50 858.50Q681 817 681 793Q681 769 655 760M109 820Q109 802 164.50 774Q220 746 246 746Q255 746 275 776.50Q295 807 321.50 812.50Q348 818 394.50 821Q441 824 461 824Q481 824 530 787.50Q579 751 604 751Q615 751 629.50 759Q644 767 645 771Q654 785 654 792Q654 814 585.50 850Q517 886 461 886Q434 886 339.50 871Q245 856 217.50 853.50Q190 851 149.50 845Q109 839 109 820Z"  horiz-adv-x="766" vert-adv-y="1204"  />

      
      <glyph glyph-name="uni40" unicode="&#x40;" d="M891 614L790 250Q790 217 791.50 207Q793 197 799 184Q811 164 843 164Q920 164 974 261.50Q1028 359 1028 467Q1028 601 938 679.50Q848 758 779 784.50Q710 811 631 811Q422 811 295.50 652.50Q169 494 169 320Q169 138 273.50 62.50Q378-13 446.50-38Q515-63 588-63Q672-63 708.50-56Q745-49 838-14L874-111Q845-123 811-134Q777-145 748-152Q713-158 674.50-161Q636-164 573-164Q367-164 210-32.50Q53 99 53 303Q53 541 224.50 727Q396 913 643 913Q727 913 843 867Q959 821 1046.50 711Q1134 601 1134 429Q1134 304 1078.50 216.50Q1023 129 966.50 99.50Q910 70 836 70Q735 70 694 152Q634 103 595 83Q556 65 515 65Q450 65 384 119Q318 173 318 277Q318 397 408.50 510.50Q499 624 631 624Q677 624 715 600Q753 576 763 542L783 614L891 614M523 164Q623 164 672.50 249.50Q722 335 722 429Q722 466 696 501.50Q670 537 624 537Q542 537 487.50 456.50Q433 376 433 306Q433 249 459 206.50Q485 164 523 164Z"  horiz-adv-x="1173" vert-adv-y="1204"  />

      
      <glyph glyph-name="uni41" unicode="&#x41;" d="M682 712L907 0L637 0L591 125L357 125L313 0L43 0L271 719Q260 712 249 712Q240 712 235.50 724.50Q231 737 231 758Q231 798 254.50 842.50Q278 887 300 887Q340 887 375 897Q410 907 427 907Q461 907 488.50 919Q516 931 545 931Q613 931 659 862Q705 793 705 737Q705 710 690 710L682 712M690 717Q699 717 699 739Q699 791 654 859Q609 927 545 927Q511 927 485 914.50Q459 902 428 902Q404 900 373 891.50Q342 883 300 883Q280 883 258 839Q236 795 236 758Q236 737 238.50 726.50Q241 716 250 716Q276 716 301.50 775.50Q327 835 334.50 841.50Q342 848 348.50 851.50Q355 855 361 855Q378 855 390 835.50Q402 816 415 816Q430 816 450 836Q470 856 486 856Q511 856 528 816.50Q545 777 561 777Q573 777 583 806Q593 835 609 835Q628 835 651 776Q674 717 690 717M533 313L473 498L415 313L533 313Z"  horiz-adv-x="1001" vert-adv-y="1204"  />

      
      <glyph glyph-name="uni42" unicode="&#x42;" d="M731 755Q767 700 767 629Q767 553 742.50 515.50Q718 478 663 454Q736 439 784.50 385Q833 331 833 247Q833 131 762.50 65.50Q692 0 562 0L108 0L108 570Q95 517 81 472Q67 427 52 427Q35 427 27.50 473.50Q20 520 20 596Q20 693 36.50 781.50Q53 870 76 885.50Q99 901 116 906Q133 911 161 911Q184 911 217 907.50Q250 904 265 904Q316 904 348 907Q380 910 431 910Q552 910 642 859Q732 808 732 768L731 755M492 610Q492 639 474 657Q456 675 427 675L382 675L382 548L427 548Q458 548 475 564Q492 580 492 610M721 773Q721 804 631.50 853Q542 902 429 902Q391 902 351 898.50Q311 895 264 895Q237 895 201.50 898Q166 901 163 901Q136 901 119 896.50Q102 892 81 877.50Q60 863 44 773.50Q28 684 28 595Q28 522 33.50 481.50Q39 441 53 441Q67 441 90.50 536.50Q114 632 139 729.50Q164 827 184 833Q194 838 204.50 841.50Q215 845 225 845Q236 845 253 830Q270 815 291 815Q317 815 366 832Q415 849 437 849Q463 849 482 795Q501 741 526 741Q542 741 567 785.50Q592 830 611 830Q627 830 666.50 794.50Q706 759 715 759Q722 759 721.50 763Q721 767 721 773M523 283Q523 315 503.50 330.50Q484 346 451 346L382 346L382 221L451 221Q483 221 503 237Q523 253 523 283Z"  horiz-adv-x="919" vert-adv-y="1204"  />

      
      <glyph glyph-name="uni43" unicode="&#x43;" d="M607 754L607 579Q586 586 563.50 592Q541 598 489 598Q415 598 375.50 554Q336 510 336 442Q336 376 376 332Q416 288 489 288Q542 288 562.50 292Q583 296 607 307L607 9Q588 5 559.50 2.50Q531 0 492 0Q274 0 152.50 130Q31 260 31 442Q31 543 73 632Q62 636 62 653Q62 685 101 744Q140 803 179 837Q206 863 233 889Q264 912 326 912Q361 912 440 919Q519 926 557 926Q615 926 645.50 867Q676 808 676 740Q676 708 669.50 689Q663 670 652 670Q632 670 624.50 689Q617 708 607 754M651 674Q661 674 665.50 691Q670 708 670 740Q670 806 641 863.50Q612 921 556 921Q521 921 439 914Q357 907 322 907Q263 907 232 882Q200 847 171 821.50Q142 796 105 740Q68 684 68 653Q68 636 81 636Q98 636 152.50 695Q207 754 267 820Q275 825 282.50 829Q290 833 297 833Q310 833 321.50 814.50Q333 796 345 796Q363 796 397 816Q431 836 448 836Q467 836 480.50 797.50Q494 759 510 759Q520 759 540 785Q560 811 575 811Q600 811 615 742.50Q630 674 651 674Z"  horiz-adv-x="730" vert-adv-y="1204"  />

      
      <glyph glyph-name="uni44" unicode="&#x44;" d="M696 723Q753 666 783.50 588.50Q814 511 814 429Q814 257 698 128.50Q582 0 375 0L68 0L68 691Q53 691 45.50 711.50Q38 732 38 764Q38 805 46.50 838Q55 871 72.50 882.50Q90 894 105.50 898.50Q121 903 140 903Q168 903 245.50 891.50Q323 880 424.50 864.50Q526 849 611.50 805.50Q697 762 697 730L696 723M690 730Q690 757 603.50 801Q517 845 435 858Q386 863 325 872.50Q264 882 231 887Q198 892 177 894Q156 896 140 896Q123 896 108 891.50Q93 887 77 876.50Q61 866 52.50 833Q44 800 44 763Q44 732 50.50 714Q57 696 69 696Q81 696 109.50 748.50Q138 801 154.50 809.50Q171 818 181 818Q194 818 205.50 800.50Q217 783 229 783Q244 783 280 802Q316 821 331 821Q350 821 366 749Q382 677 394 677Q403 677 419 739Q435 801 453 801Q476 801 568 760.50Q660 720 677 720Q690 720 690 730M539 429Q539 495 495.50 545Q452 595 375 595L337 595L337 269L375 269Q452 269 495.50 316.50Q539 364 539 429Z"  horiz-adv-x="898" vert-adv-y="1204"  />

      
      <glyph glyph-name="uni45" unicode="&#x45;" d="M613 761L613 627L342 627L342 517L599 517L599 311L342 311L342 208L613 208L613 0L78 0L78 399Q59 399 40.50 450.50Q22 502 22 568Q22 697 27.50 769Q33 841 55 856Q77 871 94 876Q111 881 139 881Q162 881 195 877.50Q228 874 243 874Q294 874 326 877Q358 880 409 880Q548 880 609 860Q670 840 670 788Q670 777 667.50 771Q665 765 657 765Q640 765 629.50 763Q619 761 613 761M659 793Q659 835 598.50 853.50Q538 872 407 872Q369 872 329 868.50Q289 865 242 865Q215 865 179.50 868Q144 871 141 871Q114 871 97 866.50Q80 862 60 848.50Q40 835 35 760Q30 685 30 567Q30 506 46.50 459.50Q63 413 79 413Q93 413 104.50 508Q116 603 129 700Q142 797 162 803Q172 808 182.50 811.50Q193 815 203 815Q214 815 231 800Q248 785 269 785Q295 785 344 802Q393 819 415 819Q441 819 460 765Q479 711 504 711Q524 711 541 740.50Q558 770 579 770Q597 770 622 774.50Q647 779 653 779Q660 779 659.50 783Q659 787 659 793Z"  horiz-adv-x="730" vert-adv-y="1204"  />

      
      <glyph glyph-name="uni46" unicode="&#x46;" d="M613 816L613 641L335 641L335 505L598 505L598 294L335 294L335 0L65 0L65 742L57 741Q40 741 31.50 754.50Q23 768 23 791Q23 821 37.50 851Q52 881 72 892Q92 903 98 905Q104 907 116 907L128 907Q143 907 151.50 907Q160 907 183 902.50Q206 898 262.50 883.50Q319 869 381 869Q432 869 481.50 872.50Q531 876 588 881Q616 881 628.50 873.50Q641 866 641 846Q641 837 633.50 829.50Q626 822 613 816M634 846Q634 875 581 875Q575 875 495 869.50Q415 864 381 864Q318 864 280 873Q242 882 209 889.50Q176 897 165 899Q154 901 145 901L128 901Q108 901 102 899.50Q96 898 76.50 887Q57 876 43 847.50Q29 819 29 791Q29 745 58 745Q76 745 91.50 786.50Q107 828 138 828Q175 828 198 760Q221 692 242 692Q261 692 306 765Q351 838 380 838Q398 838 420 813Q442 788 467 788Q486 788 509.50 806.50Q533 825 548 825Q556 825 566 819Q576 813 582 813Q597 813 615.50 822.50Q634 832 634 846Z"  horiz-adv-x="695" vert-adv-y="1204"  />

      
      <glyph glyph-name="uni47" unicode="&#x47;" d="M842 760Q850 751 859.50 739Q869 727 880 711L618 617Q600 647 575 662.50Q550 678 499 678Q424 678 382 610.50Q340 543 340 451Q340 355 384.50 285Q429 215 511 215Q554 215 576.50 224.50Q599 234 611 254L611 337L514 337L514 496L889 496L889 196Q842 118 740 59Q638 0 511 0Q290 0 167.50 133Q45 266 45 449Q45 528 71 604Q59 599 51 599Q39 599 39 614Q39 645 117.50 736.50Q196 828 233.50 849.50Q271 871 310 894Q348 912 401 912Q453 912 470 908Q487 904 540 904Q667 904 757 859Q847 814 847 769Q847 763 842 760M838 772Q838 811 749 853.50Q660 896 541 896Q497 896 470 900.50Q443 905 399 905Q349 905 313 887Q270 860 237.50 841.50Q205 823 126 733Q47 643 47 614Q47 607 49 606.50Q51 606 55 606Q87 606 154 677Q221 748 295 827Q307 834 314.50 837.50Q322 841 331 841Q347 841 362.50 822.50Q378 804 398 804Q421 804 472.50 820Q524 836 545 836Q567 836 589 768.50Q611 701 635 701Q651 701 678 759.50Q705 818 723 818Q743 818 785 791.50Q827 765 834 765Q838 765 838 772Z"  horiz-adv-x="1037" vert-adv-y="1204"  />

      
      <glyph glyph-name="uni48" unicode="&#x48;" d="M858 811L858 0L587 0L587 316L377 316L377 0L106 0L106 697Q84 700 70.50 727.50Q57 755 57 787Q57 818 67.50 826.50Q78 835 101 870.50Q124 906 149 906Q165 896 181.50 886Q198 876 216 876Q235 876 289.50 889.50Q344 903 350 903Q385 903 401 882.50Q417 862 417 835Q417 817 415 810Q413 803 404 803Q401 803 390.50 814Q380 825 377 827L377 529L587 529L587 753Q559 769 559 813Q559 820 567.50 837Q576 854 579 865.50Q582 877 586.50 882.50Q591 888 602 888Q610 888 659.50 875Q709 862 727 862Q733 862 759 888Q785 914 800 914Q847 914 871.50 878.50Q896 843 896 806Q896 800 895.50 791Q895 782 884 782Q878 782 875 797Q872 812 862 812L858 811M779 683Q796 683 818 750.50Q840 818 862 818Q874 818 878 803.50Q882 789 883 789Q887 789 888 792Q889 795 889 806Q889 842 867.50 874Q846 906 800 906Q788 906 763.50 880Q739 854 729 854Q708 854 658.50 866Q609 878 606 878Q595 878 592 875Q589 872 586 857Q576 834 567 812Q567 782 579 767Q591 752 620 752Q632 752 659 780Q686 808 704 808Q735 808 751 745.50Q767 683 779 683M205 802Q210 802 231 813.50Q252 825 269 829.50Q286 834 312 837.50Q338 841 355 841Q367 841 379 832Q391 821 403 810Q411 810 411 816L411 835Q411 860 397 877.50Q383 895 350 895Q339 895 287 882Q235 869 216 869Q197 869 181 878.50Q165 888 149 899Q126 899 105.50 865.50Q85 832 74 823Q63 814 63 788Q63 755 76 729Q89 703 111 703Q122 703 126.50 761.50Q131 820 143 829.50Q155 839 165 839Q178 839 187 820.50Q196 802 205 802Z"  horiz-adv-x="988" vert-adv-y="1204"  />

      
      <glyph glyph-name="uni49" unicode="&#x49;" d="M316 789L316 0L51 0L51 666L44 664Q22 664 6.50 693Q-9 722-9 754Q-9 785 1.50 793.50Q12 802 35 837.50Q58 873 83 873Q99 863 115.50 853Q132 843 150 843Q169 843 223.50 856.50Q278 870 284 870Q319 870 335 849.50Q351 829 351 802Q351 784 349 777Q347 770 338 770Q335 770 327 778Q319 786 316 789M139 769Q144 769 165 780.50Q186 792 203 796.50Q220 801 246 804.50Q272 808 289 808Q301 808 313 799Q325 788 337 777Q345 777 345 783L345 802Q345 827 330 845.50Q315 864 283 864Q272 864 221 851Q170 838 150 838Q126 838 106 852.50Q86 867 83 867Q60 867 39.50 834Q19 801 7.50 791.50Q-4 782-4 755Q-4 724 9.50 697Q23 670 45 670Q56 670 60.50 728.50Q65 787 77 796.50Q89 806 99 806Q112 806 121 787.50Q130 769 139 769Z"  horiz-adv-x="389" vert-adv-y="1204"  />

      
      <glyph glyph-name="uni4a" unicode="&#x4a;" d="M466 835L466 262Q466 130 374.50 65Q283 0 170 0Q142 0 113 6Q84 12 58 22L58 224Q66 218 77.50 212.50Q89 207 102 207Q143 207 168.50 232.50Q194 258 194 308L194 774Q160 787 160 836Q160 843 168.50 860Q177 877 180 888.50Q183 900 187.50 905.50Q192 911 203 911Q211 911 260.50 898Q310 885 328 885Q334 885 360 911Q386 937 401 937Q448 937 472.50 901.50Q497 866 497 829Q497 823 496.50 814Q496 805 485 805Q480 805 476 819Q472 833 466 835M380 706Q393 706 418.50 774.50Q444 843 463 843Q478 843 480.50 828.50Q483 814 484 814Q489 814 489 818.50Q489 823 489 830Q489 862 466 895Q443 928 402 928Q388 928 363.50 901.50Q339 875 329 875Q307 875 259 888.50Q211 902 206 902Q196 902 193 899Q190 896 187.50 884Q185 872 177 857Q169 842 169 835Q169 777 221 777Q230 777 260 804Q290 831 305 831Q336 831 352 768.50Q368 706 380 706Z"  horiz-adv-x="579" vert-adv-y="1204"  />

      
      <glyph glyph-name="uni4b" unicode="&#x4b;" d="M795 799L582 446L824 0L553 0L358 357L358 0L92 0L92 691Q87 676 76 676Q54 676 38.50 705Q23 734 23 766Q23 797 33.50 805.50Q44 814 67 849.50Q90 885 115 885Q131 875 147.50 865Q164 855 182 855Q201 855 255.50 868.50Q310 882 316 882Q351 882 367 861.50Q383 841 383 814Q383 796 381 789Q379 782 370 782Q367 783 365 785Q363 787 358 791L358 530L435 654L435 658Q435 687 471 758.50Q507 830 522.50 842.50Q538 855 556 855Q569 855 595 847Q621 839 634 839Q657 839 689.50 866.50Q722 894 742 896Q780 896 804.50 868.50Q829 841 829 815Q829 796 813 796L795 799M646 690Q675 690 681 739Q687 788 694 800Q701 812 711 817Q721 822 732 822Q744 822 774.50 812Q805 802 812 802Q822 802 822 816Q822 841 800 865.50Q778 890 742 890Q724 888 692 861Q660 834 634 834Q623 834 596 842Q569 850 555 850Q539 850 528 839Q513 827 477 756Q441 685 441 659Q441 651 446 651Q455 651 506 732.50Q557 814 587 814Q613 814 622 752Q631 690 646 690M171 781Q176 781 197 792.50Q218 804 235 808.50Q252 813 278 816.50Q304 820 321 820Q333 820 345 811Q357 800 369 789Q377 789 377 795L377 814Q377 839 362 857.50Q347 876 315 876Q304 876 253 863Q202 850 182 850Q158 850 138 864.50Q118 879 115 879Q92 879 71.50 846Q51 813 39.50 803.50Q28 794 28 767Q28 736 41.50 709Q55 682 77 682Q88 682 92.50 740.50Q97 799 109 808.50Q121 818 131 818Q144 818 153 799.50Q162 781 171 781Z"  horiz-adv-x="915" vert-adv-y="1204"  />

      
      <glyph glyph-name="uni4c" unicode="&#x4c;" d="M339 835L339 216L608 216L608 0L65 0L65 776Q36 791 36 836Q36 843 44.50 860Q53 877 56 888.50Q59 900 63.50 905.50Q68 911 79 911Q87 911 136.50 898Q186 885 204 885Q210 885 236 911Q262 937 277 937Q324 937 348.50 901.50Q373 866 373 829Q373 823 372.50 814Q372 805 361 805Q355 805 352 820Q349 835 339 835M256 706Q273 706 295 773.50Q317 841 339 841Q349 841 353 833Q356 823 360 813Q362 813 364 813.50Q366 814 366 829Q366 859 344.50 893.50Q323 928 278 928Q265 928 242 902Q219 876 204 876Q182 876 134.50 889.50Q87 903 82 903Q71 903 68 900Q65 897 62 882Q53 858 45 835Q45 805 56.50 790Q68 775 97 775Q109 775 136 803Q163 831 181 831Q212 831 228 768.50Q244 706 256 706Z"  horiz-adv-x="719" vert-adv-y="1204"  />

      
      <glyph glyph-name="uni4d" unicode="&#x4d;" d="M602 479L694 796Q676 814 676 848Q676 855 684.50 872Q693 889 696 900.50Q699 912 703.50 917.50Q708 923 719 923Q731 923 763 905Q795 887 820 887Q831 887 866 911Q901 935 919 935Q966 935 993.50 889.50Q1021 844 1021 805Q1021 799 1020.50 790Q1020 781 1009 781Q1003 781 1001 788.50Q999 796 998 804L1144 0L869 0L800 433L685 0L531 0L403 433L329 0L54 0L186 696Q169 704 158 729.50Q147 755 147 782Q147 813 157.50 821.50Q168 830 191 865.50Q214 901 239 901Q255 891 271.50 881Q288 871 306 871Q325 871 379.50 884.50Q434 898 440 898Q477 898 503 875Q529 852 529 826Q529 808 527 801Q525 794 516 794L602 479M896 718Q913 718 939 767.50Q965 817 987 817Q999 817 1003 802.50Q1007 788 1008 788Q1015 788 1015 805Q1015 843 990 886Q965 929 920 929Q906 929 869 905Q832 881 820 881Q796 881 764.50 899Q733 917 722 917Q714 917 709.50 914.50Q705 912 702 898.50Q699 885 691 869Q683 853 683 847Q683 818 695.50 802.50Q708 787 737 787Q749 787 776 815Q803 843 821 843Q852 843 868 780.50Q884 718 896 718M295 797Q300 797 321 808.50Q342 820 359 824.50Q376 829 402 832.50Q428 836 445 836Q457 836 475 826Q495 813 515 801Q523 801 523 807L523 826Q523 848 497.50 870Q472 892 439 892Q428 892 377 879Q326 866 306 866Q282 866 262 880.50Q242 895 239 895Q216 895 195.50 862Q175 829 163.50 819.50Q152 810 152 783Q152 752 165.50 725Q179 698 201 698Q212 698 216.50 756.50Q221 815 233 824.50Q245 834 255 834Q268 834 277 815.50Q286 797 295 797Z"  horiz-adv-x="1261" vert-adv-y="1204"  />

      
      <glyph glyph-name="uni4e" unicode="&#x4e;" d="M884 816L884 0L612 0L351 393L351 0L78 0L78 700Q54 700 38.50 729Q23 758 23 790Q23 821 33.50 829.50Q44 838 67 873.50Q90 909 115 909Q131 899 147.50 889Q164 879 182 879Q201 879 255.50 892.50Q310 906 316 906Q351 906 388 853Q425 800 425 771L425 759Q425 740 415 739L612 445L612 775L600 773Q570 773 555 791Q540 809 540 840Q540 847 548.50 864Q557 881 560 892.50Q563 904 567.50 909.50Q572 915 583 915Q591 915 640.50 902Q690 889 708 889Q714 889 740 915Q766 941 781 941Q830 941 878 894Q926 847 926 812Q926 806 925.50 797Q925 788 914 788Q908 788 905 803Q902 818 892 818L884 816M171 805Q176 805 197 816.50Q218 828 232 831Q247 836 284.50 817Q322 798 363 777Q374 774 386 764.50Q398 755 411 746Q419 746 419 752L419 771Q419 797 383 848.50Q347 900 315 900Q304 900 253 887Q202 874 182 874Q158 874 138 888.50Q118 903 115 903Q92 903 71.50 870Q51 837 39.50 827.50Q28 818 28 791Q28 760 41.50 733Q55 706 77 706Q88 706 92.50 764.50Q97 823 109 832.50Q121 842 131 842Q144 842 153 823.50Q162 805 171 805M760 710Q777 710 823 767Q869 824 892 824Q904 824 908 809.50Q912 795 913 795Q920 795 920 812Q920 844 874.50 889.50Q829 935 782 935Q770 935 744 909Q718 883 708 883Q688 883 639.50 896Q591 909 586 909Q578 909 573.50 906.50Q569 904 566 890.50Q563 877 555 861Q547 845 547 839Q547 810 559.50 794.50Q572 779 601 779Q613 779 640 807Q667 835 685 835Q716 835 732 772.50Q748 710 760 710Z"  horiz-adv-x="1033" vert-adv-y="1204"  />

      
      <glyph glyph-name="uni4f" unicode="&#x4f;" d="M857 710Q901 652 923.50 582.50Q946 513 946 437Q946 260 826.50 130Q707 0 494 0Q282 0 163.50 130Q45 260 45 437Q45 513 67 580L53 578Q42 578 42 592Q42 624 120 721Q198 818 235.50 839.50Q273 861 312 884Q350 902 403 902Q455 902 472 898Q489 894 542 894Q666 894 766.50 831.50Q867 769 867 721Q867 710 857 710M857 724Q857 766 758 826.50Q659 887 542 887Q492 887 472 890Q452 893 403 893Q356 893 333.50 883Q311 873 260 843Q209 813 130 719Q51 625 51 596Q51 586 62 586Q94 586 159.50 660.50Q225 735 297 817Q309 824 316.50 827.50Q324 831 333 831Q349 831 364.50 812.50Q380 794 400 794Q423 794 474.50 810Q526 826 547 826Q569 826 591 758.50Q613 691 637 691Q653 691 680 749.50Q707 808 725 808Q744 808 793 762Q842 716 850 716Q857 716 857 724M645 437Q645 512 605.50 567.50Q566 623 494 623Q425 623 387 567Q349 511 349 437Q349 363 386.50 309.50Q424 256 494 256Q566 256 605.50 309.50Q645 363 645 437Z"  horiz-adv-x="1043" vert-adv-y="1204"  />

      
      <glyph glyph-name="uni50" unicode="&#x50;" d="M677 805Q721 768 745.50 715Q770 662 770 596Q770 465 687.50 395Q605 325 472 325L377 325L377 0L99 0L99 767Q89 747 71 747Q54 747 45.50 760.50Q37 774 37 797Q37 827 51.50 857Q66 887 86 898Q106 909 112 911Q118 913 130 913L142 913Q157 913 165.50 913Q174 913 235 901Q296 889 310.50 887Q325 885 395 885L496 885Q594 885 638.50 875.50Q683 866 683 832Q683 816 677 805M676 832Q676 863 623.50 871.50Q571 880 453 880L395 880Q316 880 294.50 883.50Q273 887 231.50 895Q190 903 179 905Q168 907 159 907L142 907Q122 907 116 905.50Q110 904 90.50 893Q71 882 57 853.50Q43 825 43 797Q43 751 72 751Q90 751 105.50 792.50Q121 834 152 834Q189 834 212 766Q235 698 256 698Q275 698 320 771Q365 844 394 844Q408 844 446.50 812Q485 780 507 780Q528 780 568.50 795.50Q609 811 624 811Q632 811 642 805Q652 799 658 799Q669 799 672.50 807Q676 815 676 832M489 596Q489 626 470.50 643.50Q452 661 424 661L377 661L377 532L424 532Q489 532 489 596Z"  horiz-adv-x="849" vert-adv-y="1204"  />

      
      <glyph glyph-name="uni51" unicode="&#x51;" d="M946 437Q946 328 899.50 232.50Q853 137 762 76L843-52L621-114L551-2L494 0Q282 0 163.50 130Q45 260 45 437Q45 522 73 597L57 594Q46 594 46 608Q46 640 123.50 730.50Q201 821 239 843Q277 865 316 888Q354 906 407 906Q459 906 476 902Q493 898 546 898Q669 898 778 822.50Q887 747 887 697Q887 686 876 686Q910 633 928 568Q946 503 946 437M879 700Q879 746 771 818Q663 890 545 890Q501 890 476 894.50Q451 899 407 899Q365 899 350 893.50Q335 888 271.50 851.50Q208 815 131 726.50Q54 638 54 609Q54 602 55 601Q59 601 63 601Q94 601 161 672Q228 743 301 821Q313 828 320.50 831.50Q328 835 337 835Q353 835 368.50 816.50Q384 798 404 798Q427 798 478.50 814Q530 830 551 830Q573 830 595 762.50Q617 695 641 695Q653 695 699.50 720.50Q746 746 763 746Q781 746 826.50 719.50Q872 693 873 693Q879 693 879 700M645 437Q645 512 605.50 567.50Q566 623 494 623Q425 623 387 567Q349 511 349 437Q349 363 386.50 309.50Q424 256 494 256Q566 256 605.50 309.50Q645 363 645 437Z"  horiz-adv-x="913" vert-adv-y="1204"  />

      
      <glyph glyph-name="uni52" unicode="&#x52;" d="M680 757Q738 688 738 575Q738 473 704.50 421.50Q671 370 605 346L805 0L493 0L354 265L354 0L78 0L78 743Q70 739 63 739Q46 739 37.50 752.50Q29 766 29 789Q29 819 43.50 849Q58 879 76 889Q94 899 109 908Q120 913 136 913Q152 913 167 908.50Q182 904 197 900Q212 896 268.50 881.50Q325 867 387 867Q526 867 607.50 849Q689 831 689 788Q689 768 680 757M682 788Q682 824 599 843Q516 862 387 862Q324 862 286 871Q248 880 213.50 888Q179 896 165 901.50Q151 907 136 907Q121 907 108.50 900Q96 893 79.50 883.50Q63 874 49 845.50Q35 817 35 789Q35 743 64 743Q82 743 97.50 784.50Q113 826 144 826Q181 826 204 758Q227 690 248 690Q267 690 312 763Q357 836 386 836Q404 836 426 811Q448 786 473 786Q489 786 552.50 776.50Q616 767 630 767Q638 767 648 761Q658 755 664 755Q675 755 678.50 763Q682 771 682 788M354 646L354 520L400 520Q465 520 465 581Q465 610 447 628Q429 646 400 646L354 646Z"  horiz-adv-x="888" vert-adv-y="1204"  />

      
      <glyph glyph-name="uni53" unicode="&#x53;" d="M682 768L634 616Q591 640 527.50 657.50Q464 675 404 675Q378 675 360.50 661Q343 647 343 625Q343 585 460.50 555.50Q578 526 652 476.50Q726 427 726 286Q726 166 631.50 83Q537 0 365 0Q275 0 188.50 33Q102 66 36 116L94 293Q179 245 231 226.50Q283 208 321 208Q370 208 397 220.50Q424 233 424 259Q424 294 312 326Q200 358 127.50 410Q55 462 55 598L55 602L42 600Q37 600 31 616Q25 632 25 640Q25 676 73.50 763.50Q122 851 163 874.50Q204 898 255.50 910Q307 922 371 922Q423 922 440 918Q457 914 510 914Q633 914 690 871.50Q747 829 747 778Q747 767 736 767Q727 767 721 769Q715 771 695 771L682 768M740 781Q740 828 683 868Q626 908 510 908Q467 908 440 912.50Q413 917 369 917Q249 917 188.50 882Q128 847 78.50 759.50Q29 672 29 640Q29 632 34.50 618.50Q40 605 45 605Q76 605 137 679.50Q198 754 265 837Q277 844 284.50 847.50Q292 851 301 851Q317 851 332.50 832.50Q348 814 368 814Q391 814 442.50 830Q494 846 515 846Q537 846 559 778.50Q581 711 605 711Q622 711 649 744Q676 777 694 777Q705 777 716 777Q725 775 734 774Q740 774 740 781Z"  horiz-adv-x="828" vert-adv-y="1204"  />

      
      <glyph glyph-name="uni54" unicode="&#x54;" d="M654 604L493 604L493 0L228 0L228 604L70 604L70 760Q55 750 40 750Q27 750 21.50 764Q16 778 16 803Q16 834 27.50 866Q39 898 52.50 907Q66 916 81 916Q98 916 163 884.50Q228 853 285 853Q320 853 425.50 862.50Q531 872 578 872Q634 872 659.50 853Q685 834 685 805Q685 789 682 779Q679 769 673 755Q667 741 656 741L654 604M344 691Q357 691 417 754Q477 817 566 817Q587 817 610 797Q632 774 655 752Q662 752 665 761Q668 770 671.50 781Q675 792 675 806Q675 831 650 847.50Q625 864 577 864Q533 864 422 854.50Q311 845 283 845Q228 845 161 876Q94 907 82 907Q69 907 58.50 900Q48 893 37 862.50Q26 832 26 804Q26 784 30 772Q34 760 41 760Q54 760 86.50 784Q119 808 135 808Q194 808 244 769.50Q294 731 344 691Z"  horiz-adv-x="763" vert-adv-y="1204"  />

      
      <glyph glyph-name="uni55" unicode="&#x55;" d="M755 814L755 279Q755 147 655.50 73.50Q556 0 415 0Q275 0 177.50 73.50Q80 147 80 279L80 765Q44 778 44 828Q44 835 52.50 852Q61 869 64 880.50Q67 892 71.50 897.50Q76 903 87 903Q95 903 144.50 890Q194 877 212 877Q218 877 244 903Q270 929 285 929Q332 929 356.50 893.50Q381 858 381 821Q381 815 380.50 806Q380 797 369 797Q363 797 360 812Q357 827 347 827L347 300Q347 269 366 252Q385 235 415 235Q447 235 467 252Q487 269 487 300L487 672Q463 672 445 710Q427 748 427 782Q427 813 437.50 821.50Q448 830 471 865.50Q494 901 519 901Q535 891 551.50 881Q568 871 586 871Q605 871 659.50 884.50Q714 898 720 898Q755 898 771 877.50Q787 857 787 830Q787 812 785 805Q783 798 774 798Q771 798 755 814M266 618Q283 618 304 725.50Q325 833 347 833Q357 833 361 825Q364 815 368 805Q373 805 373 822Q373 856 350 887Q327 918 286 918Q272 918 248 893Q224 868 213 868Q191 868 143 881.50Q95 895 90 895Q79 895 76 892Q73 889 71 878Q69 867 61 850.50Q53 834 53 827Q53 797 64 783Q75 769 104 769Q115 769 143 796Q171 823 189 823Q220 823 237 720.50Q254 618 266 618M575 797Q580 797 601 808.50Q622 820 639 824.50Q656 829 682 832.50Q708 836 725 836Q737 836 749 827Q761 816 773 806Q780 806 780 811L780 831Q780 856 766 873.50Q752 891 719 891Q707 891 655 877.50Q603 864 586 864Q562 864 542 877.50Q522 891 519 891Q496 891 475 858.50Q454 826 444.50 818.50Q435 811 435 782Q435 750 450 714.50Q465 679 486 679Q497 679 499 747Q501 815 513 824.50Q525 834 535 834Q548 834 557 815.50Q566 797 575 797Z"  horiz-adv-x="890" vert-adv-y="1204"  />

      
      <glyph glyph-name="uni56" unicode="&#x56;" d="M491 430L612 790Q600 808 600 836Q600 843 608.50 860Q617 877 620 888.50Q623 900 627.50 905.50Q632 911 643 911Q651 911 700.50 898Q750 885 768 885Q774 885 800 911Q826 937 841 937Q889 937 920 884Q951 831 951 790Q951 784 950.50 775Q950 766 939 766Q933 766 921 792Q909 818 899 818L591 0L389 0L96 781Q93 752 91 723Q87 692 72 692Q50 692 34.50 721Q19 750 19 782Q19 813 29.50 821.50Q40 830 63 865.50Q86 901 111 901Q127 891 143.50 881Q160 871 178 871Q197 871 251.50 884.50Q306 898 312 898Q347 898 363 877.50Q379 857 379 830Q379 812 377 805Q375 798 366 798L491 430M820 706Q837 706 857 765Q877 824 899 824Q911 824 924 798.50Q937 773 938 773Q942 773 943 776Q944 779 944 790Q944 828 915 878.50Q886 929 841 929Q827 929 803 904Q779 879 768 879Q748 879 699.50 892Q651 905 646 905Q638 905 633.50 902.50Q629 900 626 886.50Q623 873 615 857Q607 841 607 835Q607 806 619.50 790.50Q632 775 661 775Q673 775 700 803Q727 831 745 831Q776 831 792 768.50Q808 706 820 706M167 797Q172 797 193 808.50Q214 820 231 824.50Q248 829 274 832.50Q300 836 317 836Q329 836 341 827Q353 816 365 805Q373 805 373 811L373 830Q373 855 358 873.50Q343 892 311 892Q300 892 249 879Q198 866 178 866Q154 866 134 880.50Q114 895 111 895Q88 895 67.50 862Q47 829 35.50 819.50Q24 810 24 783Q24 752 37.50 725Q51 698 73 698Q84 698 88.50 756.50Q93 815 105 824.50Q117 834 127 834Q140 834 149 815.50Q158 797 167 797Z"  horiz-adv-x="1055" vert-adv-y="1204"  />

      
      <glyph glyph-name="uni57" unicode="&#x57;" d="M855 814L962 427L1053 761Q1038 779 1038 810Q1038 817 1046.50 834Q1055 851 1058 862.50Q1061 874 1065.50 879.50Q1070 885 1081 885Q1089 885 1138.50 872Q1188 859 1206 859Q1212 859 1238 885Q1264 911 1279 911Q1326 911 1350.50 875.50Q1375 840 1375 803Q1375 797 1374.50 788Q1374 779 1363 779Q1357 779 1354 794Q1351 809 1341 809L1336 808L1100 0L844 0L725 420L612 0L352 0L137 725Q132 721 124 721Q95 721 79.50 754.50Q64 788 64 824Q64 831 72.50 848Q81 865 84 876.50Q87 888 91.50 893.50Q96 899 107 899Q115 899 164.50 886Q214 873 232 873Q238 873 264 899Q290 925 305 925Q352 925 376.50 889.50Q401 854 401 817Q401 811 400.50 802Q400 793 389 793L493 427L566 693Q552 705 543.50 727Q535 749 535 774Q535 805 545.50 813.50Q556 822 579 857.50Q602 893 627 893Q643 883 659.50 873Q676 863 694 863Q713 863 767.50 876.50Q822 890 828 890Q863 890 879 869.50Q895 849 895 822Q895 804 893 797Q891 790 882 790Q879 790 868.50 801Q858 812 855 814M284 694Q301 694 323 761.50Q345 829 367 829Q379 829 383 814.50Q387 800 388 800Q393 800 393 817Q393 853 372 884.50Q351 916 306 916Q292 916 268.50 890.50Q245 865 234 865Q213 865 164 878Q115 891 110 891Q101 891 98 887Q94 877 88.50 865Q83 853 78 841.50Q73 830 73 822Q73 786 85.50 758Q98 730 126 730Q134 730 163.50 774.50Q193 819 209 819Q240 819 256 756.50Q272 694 284 694M1081 875Q1075 875 1072.50 872.50Q1070 870 1062.50 851Q1055 832 1046 809Q1046 750 1100 750Q1108 750 1137.50 777.50Q1167 805 1183 805Q1214 805 1217 715.50Q1220 626 1232 626Q1249 626 1284 722Q1319 818 1340 818Q1353 818 1357 803Q1361 788 1362 788Q1364 788 1366 788.50Q1368 789 1368 804Q1368 834 1344.50 869Q1321 904 1281 904Q1267 904 1243.50 877.50Q1220 851 1207 851Q1185 851 1144 863Q1103 875 1081 875M685 763Q690 763 709 787Q728 811 746 816Q764 821 790 824.50Q816 828 833 828Q845 828 857 819Q869 808 881 797Q889 797 889 803L889 822Q889 855 872 868.50Q855 882 829 882Q818 882 766 869Q714 856 694 856Q674 856 658.50 865Q643 874 627 884Q602 884 584.50 852.50Q567 821 555 811.50Q543 802 543 775Q543 744 555.50 718.50Q568 693 590 693Q601 693 605 750Q609 807 621 816.50Q633 826 643 826Q656 826 666 794.50Q676 763 685 763Z"  horiz-adv-x="1516" vert-adv-y="1204"  />

      
      <glyph glyph-name="uni58" unicode="&#x58;" d="M396 794L477 665L553 790Q548 813 548 832Q548 839 556.50 856Q565 873 568 884.50Q571 896 575.50 901.50Q580 907 591 907Q599 907 648.50 894Q698 881 716 881Q722 881 748 907Q774 933 789 933Q839 933 886.50 891.50Q934 850 934 816Q934 790 920 790Q914 790 911 805.50Q908 821 898 821Q882 821 855.50 786.50Q829 752 805 720L624 427L884 0L590 0L477 185L361 0L69 0L330 429L92 810Q89 798 85.50 749Q82 700 64 700Q42 700 26.50 729Q11 758 11 790Q11 821 21.50 829.50Q32 838 55 873.50Q78 909 103 909Q119 899 135.50 889Q152 879 170 879Q189 879 243.50 892.50Q298 906 304 906Q341 906 371 877Q401 848 401 822Q401 800 396 794M768 702Q785 702 830.50 766.50Q876 831 898 831Q912 831 915 817Q918 803 920 803Q925 803 925 816Q925 842 880 883Q835 924 788 924Q776 924 751.50 898Q727 872 717 872Q693 872 649.50 884.50Q606 897 596 897Q586 897 582 894Q578 891 575 878Q566 854 558 831Q558 784 570 766.50Q582 749 604 749Q617 749 646.50 789.50Q676 830 693 830Q724 830 740 766Q756 702 768 702M163 788Q168 788 185.50 808.50Q203 829 217 833Q231 837 261 842Q291 847 309 847Q320 847 341.50 831Q363 815 385 799Q392 799 392 806L393 823Q393 846 363.50 872Q334 898 300 898Q288 898 237 884.50Q186 871 170 871Q147 871 127.50 885.50Q108 900 104 900Q81 900 60.50 867.50Q40 835 29.50 826.50Q19 818 19 790Q19 760 32.50 734Q46 708 65 708Q75 708 79 766.50Q83 825 94 833.50Q105 842 108 844Q111 846 118 846Q131 846 142 817Q153 788 163 788Z"  horiz-adv-x="1001" vert-adv-y="1204"  />

      
      <glyph glyph-name="uni59" unicode="&#x59;" d="M367 794Q393 745 413 709.50Q433 674 453 640L536 800Q532 820 532 840Q532 847 540.50 864Q549 881 552 892.50Q555 904 559.50 909.50Q564 915 575 915Q583 915 632.50 902Q682 889 700 889Q706 889 732 915Q758 941 773 941Q820 941 845.50 905.50Q871 870 871 833Q871 822 868.50 815Q866 808 857 808Q851 808 848.50 820.50Q846 833 843 836L587 390L587 0L307 0L307 390L117 743Q106 734 96 734Q67 734 51.50 761.50Q36 789 36 824Q36 831 44.50 848Q53 865 56 876.50Q59 888 63.50 893.50Q68 899 79 899Q87 899 136.50 886Q186 873 204 873Q210 873 236 899Q262 925 277 925Q324 925 348.50 889.50Q373 854 373 817Q373 797 367 794M748 705Q760 705 784.50 748.50Q809 792 816.50 807Q824 822 830.50 833.50Q837 845 843 845Q851 845 852.50 831.50Q854 818 857 818Q862 818 862.50 820Q863 822 863 833Q863 865 840 898.50Q817 932 771 932Q762 932 738.50 906Q715 880 700 880Q679 880 632 893.50Q585 907 580 907Q569 907 566 904Q563 901 560.50 888.50Q558 876 550 861Q542 846 542 839Q542 797 552 763Q562 729 589 729Q601 729 630 782Q659 835 677 835Q708 835 722 770Q736 705 748 705M249 616Q266 616 292 722.50Q318 829 339 829Q351 829 355 814.50Q359 800 360 800Q367 800 367 817Q367 853 345.50 886Q324 919 278 919Q266 919 240 893Q214 867 204 867Q184 867 135.50 880Q87 893 82 893Q74 893 69.50 890.50Q65 888 62 874.50Q59 861 51 845Q43 829 43 823Q43 791 56.50 765.50Q70 740 97 740Q109 740 136 779.50Q163 819 181 819Q213 819 225 717.50Q237 616 249 616Z"  horiz-adv-x="952" vert-adv-y="1204"  />

      
      <glyph glyph-name="uni5a" unicode="&#x5a;" d="M894 830L512 224L888 224L888 0L45 0L436 627L104 627L104 772L95 771Q78 771 69.50 784.50Q61 798 61 821Q61 851 75.50 881Q90 911 110 922Q130 933 136 935Q142 937 154 937L166 937Q193 937 222.50 936.50Q252 936 304.50 925.50Q357 915 494.50 901Q632 887 707 887Q749 887 796 891Q843 895 892 900Q914 900 923.50 892.50Q933 885 933 864Q933 848 926.50 836.50Q920 825 908 825Q901 825 894 830M926 864Q926 893 887 893Q871 893 813.50 887.50Q756 882 707 882Q627 882 492.50 895Q358 908 311.50 917.50Q265 927 236.50 929Q208 931 190 931L166 931Q146 931 140 929.50Q134 928 114.50 917Q95 906 81 877.50Q67 849 67 821Q67 775 96 775Q106 775 153.50 800.50Q201 826 228 826Q265 826 334 784Q403 742 424 742Q443 742 560 799Q677 856 706 856Q724 856 746 831Q768 806 793 806Q812 806 835.50 824.50Q859 843 874 843Q882 843 892 837Q902 831 908 831Q919 831 922.50 839Q926 847 926 864Z"  horiz-adv-x="1037" vert-adv-y="1204"  />

      
      <glyph glyph-name="uni5b" unicode="&#x5b;" d="M246 759L246-118L378-118L378-243L87-243L87 879L378 879L378 759L246 759Z"  horiz-adv-x="402" vert-adv-y="1204"  />

      
      <glyph glyph-name="uni5c" unicode="&#x5c;" d="M87 879L359 0L267 0L-5 879L87 879Z"  horiz-adv-x="337" vert-adv-y="1204"  />

      
      <glyph glyph-name="uni5d" unicode="&#x5d;" d="M29 879L320 879L320-243L29-243L29-118L164-118L164 759L29 759L29 879Z"  horiz-adv-x="402" vert-adv-y="1204"  />

      
      <glyph glyph-name="uni5e" unicode="&#x5e;" d="M272 838L421 838L626 327L491 327L349 686L207 327L72 327L272 838Z"  horiz-adv-x="703" vert-adv-y="1204"  />

      
      <glyph glyph-name="uni5f" unicode="&#x5f;" d="M602-147L602-291L0-291L0-147L602-147Z"  horiz-adv-x="602" vert-adv-y="1204"  />

      
      <glyph glyph-name="uni60" unicode="&#x60;" d="M51 804L113 867L253 727L190 665L51 804Z"  horiz-adv-x="323" vert-adv-y="1204"  />

      
      <glyph glyph-name="uni61" unicode="&#x61;" d="M477 498L635 0L446 0L414 87L250 87L219 0L30 0L190 503Q182 498 174 498Q168 498 165 507.50Q162 517 162 531Q162 561 177.50 591Q193 621 210 621Q244 621 264 627.50Q284 634 299 635Q323 635 342 643.50Q361 652 381 652Q429 652 461 604Q493 556 493 516Q493 497 483 497L477 498M483 502Q489 502 489 517Q489 553 457.50 601Q426 649 381 649Q356 649 338.50 641Q321 633 300 631Q281 631 258.50 624.50Q236 618 210 618Q196 618 180.50 587.50Q165 557 165 531Q165 517 167 509Q169 501 175 501Q190 501 204 528.50Q218 556 234 589Q247 598 253 598Q265 598 273.50 584.50Q282 571 290 571Q300 571 315 585Q330 599 340 599Q357 599 369.50 571.50Q382 544 393 544Q401 544 408 564Q415 584 426 584Q440 584 456 543Q472 502 483 502M373 219L331 349L290 219L373 219Z"  horiz-adv-x="701" vert-adv-y="1204"  />

      
      <glyph glyph-name="uni62" unicode="&#x62;" d="M512 528Q537 490 537 440Q537 387 519 360.50Q501 334 464 318Q515 307 549 269Q583 231 583 173Q583 92 534 46Q485 0 393 0L76 0L76 399Q62 345 53.50 322Q45 299 36 299Q25 299 19.50 332Q14 365 14 417Q14 485 25 547Q36 609 58 623.50Q80 638 113 638Q130 638 154 635.50Q178 633 185 633Q222 633 244 635Q266 637 302 637Q388 637 450 601.50Q512 566 512 538L512 528M344 427Q344 448 332 460Q320 472 299 472L267 472L267 384L299 384Q344 384 344 427M505 541Q505 563 442 597Q379 631 300 631Q263 631 237.50 628.50Q212 626 185 626Q168 626 144 628.50Q120 631 114 631Q95 631 83.50 628Q72 625 57 615Q42 605 31 542Q20 479 20 416Q20 363 23.50 336Q27 309 37 309Q49 309 80.50 443.50Q112 578 129 583Q149 591 157 591Q161 591 176 580.50Q191 570 204 570Q222 570 256 582Q290 594 306 594Q324 594 337.50 556.50Q351 519 368 519Q381 519 397 550Q413 581 428 581Q439 581 466 556Q493 531 500 531Q505 531 505 534Q505 537 505 541M366 198Q366 220 352 231Q338 242 316 242L267 242L267 155L316 155Q338 155 352 166Q366 177 366 198Z"  horiz-adv-x="643" vert-adv-y="1204"  />

      
      <glyph glyph-name="uni63" unicode="&#x63;" d="M425 528L425 405Q416 408 397.50 413.50Q379 419 342 419Q291 419 263 388Q235 357 235 309Q235 262 263 232Q291 202 342 202Q375 202 393 205.50Q411 209 425 215L425 6Q412 4 391.50 2Q371 0 344 0Q192 0 107 91.50Q22 183 22 309Q22 383 51 442Q43 445 43 457Q43 480 70 521Q97 562 125 586Q144 604 163 622Q185 638 228 638Q253 638 308 643Q363 648 390 648Q430 648 451.50 606Q473 564 473 518Q473 469 456 469Q441 469 436 482.50Q431 496 425 528M456 472Q469 472 469 518Q469 564 448.50 604.50Q428 645 389 645Q366 645 304.50 640Q243 635 225 635Q183 635 162 618Q140 593 120.50 576Q101 559 74.50 518Q48 477 48 457Q48 445 57 445Q69 445 107 486.50Q145 528 187 574Q200 583 208 583Q217 583 225 570Q233 557 241 557Q254 557 279.50 571Q305 585 314 585Q327 585 336 558Q345 531 357 531Q365 531 378.50 549.50Q392 568 402 568Q420 568 431 520Q442 472 456 472Z"  horiz-adv-x="511" vert-adv-y="1204"  />

      
      <glyph glyph-name="uni64" unicode="&#x64;" d="M487 506Q570 423 570 300Q570 179 489 89.50Q408 0 262 0L48 0L48 484Q37 484 32 498.50Q27 513 27 535Q27 561 33 586Q39 611 50.50 618Q62 625 73.50 628.50Q85 632 98 632Q120 632 173 624Q226 616 297 605Q368 594 428 564Q488 534 488 511L487 506M483 511Q483 529 422 560.50Q361 592 304 601Q276 601 230.50 609Q185 617 146 624L98 627Q75 627 58.50 616.50Q42 606 36.50 583.50Q31 561 31 534Q31 487 48 487Q56 487 77 524Q98 561 113 568Q119 573 127 573Q135 573 143 560.50Q151 548 160 548Q171 548 196 561.50Q221 575 232 575Q245 575 256 524.50Q267 474 276 474Q281 474 293 517.50Q305 561 317 561Q334 561 398.50 532.50Q463 504 474 504Q483 504 483 511M377 300Q377 347 347 381.50Q317 416 262 416L236 416L236 188L262 188Q316 188 346.50 221.50Q377 255 377 300Z"  horiz-adv-x="629" vert-adv-y="1204"  />

      
      <glyph glyph-name="uni65" unicode="&#x65;" d="M429 533L429 439L239 439L239 362L419 362L419 218L239 218L239 146L429 146L429 0L55 0L55 279Q42 279 28.50 315.50Q15 352 15 398Q15 485 19 537Q23 589 44 603Q65 617 97 617Q115 617 139.50 614.50Q164 612 170 612Q206 612 228 614Q250 616 286 616Q385 616 427 602.50Q469 589 469 552Q469 535 460 535L429 533M461 555Q461 610 285 610Q249 610 220 607.50Q191 605 169 605Q154 605 131 607.50Q108 610 99 610Q80 610 68.50 607Q57 604 41.50 593.50Q26 583 23.50 511Q21 439 21 397Q21 355 32.50 322Q44 289 55 289Q67 289 81.50 423Q96 557 113 562Q133 570 142 570Q150 570 161.50 559.50Q173 549 188 549Q206 549 240 561Q274 573 290 573Q308 573 322 535.50Q336 498 353 498Q367 498 378.50 518.50Q390 539 405 539Q416 539 433 542Q450 545 457 545Q462 545 461.50 548Q461 551 461 555Z"  horiz-adv-x="511" vert-adv-y="1204"  />

      
      <glyph glyph-name="uni66" unicode="&#x66;" d="M429 571L429 449L234 449L234 353L419 353L419 206L234 206L234 0L45 0L45 519L40 519Q16 519 16 554Q16 574 26.50 595.50Q37 617 51 625Q65 633 70 634Q75 635 90 635Q100 635 107 635Q114 635 132 631Q150 627 187 617.50Q224 608 267 608Q307 608 358 612.50Q409 617 412 617Q449 617 449 592Q449 580 429 571M444 592Q444 612 406 612Q362 609 331.50 607Q301 605 267 605Q225 605 197 611Q169 617 143 623Q117 629 106.50 630Q96 631 90 631Q81 631 73 631Q70 630 55 621.50Q40 613 30 593Q20 573 20 554Q20 521 41 521Q53 521 64 550.50Q75 580 97 580Q122 580 138 532Q154 484 169 484Q183 484 214.50 535.50Q246 587 266 587Q279 587 295 569.50Q311 552 327 552Q342 552 358 564.50Q374 577 384 577Q389 577 396 573Q403 569 407 569Q418 569 431 575.50Q444 582 444 592Z"  horiz-adv-x="486" vert-adv-y="1204"  />

      
      <glyph glyph-name="uni67" unicode="&#x67;" d="M589 532Q595 526 601.50 517.50Q608 509 616 498L433 432Q421 452 402.50 463.50Q384 475 349 475Q297 475 267.50 427.50Q238 380 238 316Q238 248 269 199Q300 150 358 150Q388 150 404 157Q420 164 428 178L428 236L360 236L360 347L622 347L622 137Q589 82 518 41Q447 0 358 0Q204 0 117.50 93.50Q31 187 31 314Q31 340 36 368Q41 396 50 423L36 419Q27 419 27 430Q27 452 81.50 515Q136 578 163 594Q190 610 217 626Q243 638 281 638Q313 638 330.50 635.50Q348 633 378 633Q467 633 530 601.50Q593 570 593 538L589 532M587 540Q587 567 524 597Q461 627 379 627Q344 627 329 630Q314 633 279 633Q238 633 213 617.50Q188 602 166 589Q144 576 88.50 513Q33 450 33 430Q33 424 38 424Q60 424 107 474Q154 524 206 579Q219 584 232 589Q242 589 253 576Q264 563 279 563Q297 563 333 574Q369 585 381 585Q398 585 413 538Q428 491 444 491Q456 491 475 532Q494 573 506 573Q520 573 549 554Q578 535 584 535Q587 538 587 540Z"  horiz-adv-x="726" vert-adv-y="1204"  />

      
      <glyph glyph-name="uni68" unicode="&#x68;" d="M601 0L411 0L411 221L264 221L264 0L74 0L74 488Q59 490 49.50 509Q40 528 40 551Q40 573 48 579Q56 585 72 609.50Q88 634 104 634Q105 634 121.50 623.50Q138 613 151 613Q162 613 200 622.50Q238 632 245 632Q269 632 280.50 617.50Q292 603 292 584Q292 576 292 569Q290 562 283 562Q281 562 274 569Q267 576 264 579L264 370L411 370L411 527Q391 539 391 569Q391 575 397 585.50Q403 596 406 609Q409 622 421 622Q431 622 462.50 612.50Q494 603 509 603Q517 603 532.50 621.50Q548 640 560 640Q594 640 610.50 615.50Q627 591 627 564Q627 558 627 553Q625 547 619 547Q616 547 613 557.50Q610 568 603 568L601 0M545 478Q556 478 572 525.50Q588 573 603 573Q612 573 614 565Q616 557 618 552Q622 552 622 564Q622 600 604.50 617Q587 634 560 634Q550 634 534 616Q518 598 510 598Q495 598 461.50 606.50Q428 615 424 615Q413 615 410 600Q403 584 397 568Q397 526 434 526Q442 526 462 546Q482 566 493 566Q515 566 526 522Q537 478 545 478M143 561Q148 561 162 569Q176 577 188.50 581Q201 585 218.50 587Q236 589 248 589Q257 589 269 578Q281 567 282 567Q284 567 285.50 568.50Q287 570 288 571L288 584Q288 602 278.50 614Q269 626 245 626Q237 626 201 617Q165 608 151 608Q134 608 120 618.50Q106 629 104 629Q87 629 73 605Q59 581 51.50 575.50Q44 570 44 552Q44 528 53 510Q62 492 78 492Q85 492 88 533Q91 574 100 580.50Q109 587 115 587Q124 587 131 574Q138 561 143 561Z"  horiz-adv-x="692" vert-adv-y="1204"  />

      
      <glyph glyph-name="uni69" unicode="&#x69;" d="M221 552L221 0L36 0L36 466L31 465Q15 465 4.50 485Q-6 505-6 528Q-6 549 1 555Q8 561 24.50 586Q41 611 58 611Q59 611 75.50 600.50Q92 590 105 590Q116 590 154 599.50Q192 609 199 609Q222 609 234 594Q246 579 246 561Q246 550 244.50 544.50Q243 539 237 539Q234 539 229 544Q224 549 221 552M97 538Q102 538 116 546Q130 554 140 556Q150 560 172.50 563Q195 566 202 566Q211 566 223 555Q235 544 236 544Q238 544 241 548L241 561Q241 580 231.50 592.50Q222 605 198 605Q190 605 154 596Q118 587 105 587Q89 587 75 597Q61 607 58 607Q41 607 28.50 585Q16 563 6.50 555Q-3 547-3 528Q-3 507 6.50 488Q16 469 31 469Q39 469 42 510Q45 551 53.50 557.50Q62 564 69 564Q78 564 85 551Q92 538 97 538Z"  horiz-adv-x="272" vert-adv-y="1204"  />

      
      <glyph glyph-name="uni6a" unicode="&#x6a;" d="M326 584L326 183Q326 91 262 45.50Q198 0 119 0Q101 0 78 4.50Q55 9 41 15L41 157Q47 152 53.50 148.50Q60 145 71 145Q100 145 118 163Q136 181 136 216L136 542Q112 550 112 585Q112 592 118 604.50Q124 617 127 627.50Q130 638 142 638Q151 638 182.50 628.50Q214 619 230 619Q235 619 253 637.50Q271 656 281 656Q314 656 331 631.50Q348 607 348 580Q348 563 339 563Q335 563 333 573Q331 583 326 584M266 494Q277 494 293 542Q309 590 324 590Q333 590 335.50 583.50Q338 577 339 570Q342 570 342 581Q342 603 326 626.50Q310 650 281 650Q273 650 254 631Q235 612 230 612Q216 612 184 621.50Q152 631 144 631Q134 631 131 617Q124 600 118 584Q118 565 126.50 554.50Q135 544 155 544Q163 544 182.50 563Q202 582 213 582Q235 582 246 538Q257 494 266 494Z"  horiz-adv-x="405" vert-adv-y="1204"  />

      
      <glyph glyph-name="uni6b" unicode="&#x6b;" d="M556 559L407 312L577 0L387 0L251 250L251 0L64 0L64 484Q61 473 53 473Q37 473 26.50 493Q16 513 16 536Q16 557 24 564Q32 571 48 595Q64 619 80 619Q81 619 97.50 608.50Q114 598 127 598Q139 598 176.50 607.50Q214 617 221 617Q246 617 257 603Q268 589 268 570Q268 562 268 554Q266 547 259 547Q253 552 251 554L251 371L304 458Q304 480 329.50 530.50Q355 581 365 589.50Q375 598 389 598Q399 598 418.50 592.50Q438 587 444 587Q459 587 483 606.50Q507 626 519 627Q546 627 563 608Q580 589 580 570Q580 557 569 557L556 559M452 483Q473 483 477 517.50Q481 552 488 563.50Q495 575 512 575Q521 575 541 568Q561 561 568 561Q575 561 575 571Q575 594 557 608.50Q539 623 519 623Q507 621 484.50 602.50Q462 584 444 584Q438 584 416 589.50Q394 595 388 595Q376 595 370 587Q359 579 334 529Q309 479 309 461Q309 458 312 456Q318 456 354 513Q390 570 411 570Q429 570 435 526.50Q441 483 452 483M120 547Q124 547 137 554.50Q150 562 164 566Q178 570 195.50 572Q213 574 225 574Q235 574 246 563Q257 552 258 552Q260 552 261.50 553.50Q263 555 264 556L264 570Q264 587 253.50 600Q243 613 220 613Q210 613 173.50 604Q137 595 127 595Q111 595 97 605Q83 615 80 615Q67 615 55.50 599.50Q44 584 30 564Q20 557 20 537Q20 513 29 495Q38 477 54 477Q61 477 64 518Q67 559 77 566Q87 573 92 573Q101 573 107 560Q113 547 120 547Z"  horiz-adv-x="640" vert-adv-y="1204"  />

      
      <glyph glyph-name="uni6c" unicode="&#x6c;" d="M237 584L237 151L426 151L426 0L45 0L45 543Q25 553 25 585Q25 593 31 604.50Q37 616 40 627Q43 638 55 638Q65 638 96.50 628.50Q128 619 143 619Q151 619 166.50 637.50Q182 656 194 656Q228 656 244.50 631.50Q261 607 261 580Q261 563 253 563Q250 563 247 573.50Q244 584 237 584M179 494Q190 494 206 541.50Q222 589 237 589Q246 589 248 581.50Q250 574 252 569Q256 569 256 580Q256 601 241 625.50Q226 650 195 650Q185 650 168.50 631.50Q152 613 143 613Q129 613 97 622.50Q65 632 57 632Q46 632 43 617Q37 600 31 584Q31 542 68 542Q76 542 96 562Q116 582 127 582Q149 582 160 538Q171 494 179 494Z"  horiz-adv-x="503" vert-adv-y="1204"  />

      
      <glyph glyph-name="uni6d" unicode="&#x6d;" d="M421 335L486 557Q473 570 473 594Q473 601 479 612.50Q485 624 488 635Q491 646 503 646Q510 646 535 633.50Q560 621 574 621Q579 621 606 637.50Q633 654 643 654Q676 654 695.50 622.50Q715 591 715 563Q715 547 706 547Q702 547 701 552Q700 557 699 563L801 0L608 0L560 303L479 0L372 0L282 303L230 0L38 0L130 487Q117 494 110 511Q103 528 103 547Q103 568 111 575Q119 582 135 606.50Q151 631 167 631Q168 631 184.50 620.50Q201 610 214 610Q225 610 263 619.50Q301 629 308 629Q334 629 352 612Q370 595 370 578Q370 570 370 563Q368 556 361 556L421 335M627 503Q639 503 657.50 537.50Q676 572 691 572Q699 572 702 562Q705 552 706 552Q710 552 710 563Q710 590 693 620Q676 650 644 650Q634 650 607.50 633.50Q581 617 574 617Q557 617 535 629.50Q513 642 505 642Q493 642 491 626Q484 609 478 593Q478 551 516 551Q522 551 543 570.50Q564 590 575 590Q597 590 608 546.50Q619 503 627 503M206 558Q210 558 225.50 566Q241 574 252.50 577.50Q264 581 281.50 583Q299 585 311 585Q319 585 332.50 577Q346 569 360 561Q363 561 366 565L366 578Q366 594 348.50 609Q331 624 307 624Q297 624 260.50 615Q224 606 214 606Q198 606 184 616Q170 626 167 626Q150 626 137.50 604Q125 582 115.50 574.50Q106 567 106 548Q106 525 115.50 507Q125 489 141 489Q148 489 151 529.50Q154 570 162.50 577Q171 584 178 584Q187 584 194 571Q201 558 206 558Z"  horiz-adv-x="883" vert-adv-y="1204"  />

      
      <glyph glyph-name="uni6e" unicode="&#x6e;" d="M619 571L619 0L428 0L246 275L246 0L55 0L55 490Q39 490 27.50 510.50Q16 531 16 553Q16 575 24 581Q32 587 48 611.50Q64 636 80 636Q81 636 97.50 625.50Q114 615 127 615Q139 615 176.50 624.50Q214 634 221 634Q245 634 271 596.50Q297 559 297 540Q297 532 296.50 525Q296 518 290 517L428 311L428 542L420 541Q399 541 388.50 553.50Q378 566 378 588Q378 594 384 605.50Q390 617 393 628.50Q396 640 408 640Q416 640 447 631Q478 622 496 622Q501 622 519 640.50Q537 659 547 659Q581 659 614.50 625.50Q648 592 648 568Q648 563 648 558Q646 552 640 552Q637 552 634 562.50Q631 573 624 573L619 571M120 563Q123 563 138 571.50Q153 580 162 582Q172 585 198.50 571.50Q225 558 254 544Q264 541 275.50 531.50Q287 522 288 522Q290 522 293 526L293 540Q293 559 268.50 594.50Q244 630 220 630Q210 630 173.50 621Q137 612 127 612Q111 612 97 622Q83 632 80 632Q67 632 55.50 616.50Q44 601 30 581Q20 572 20 554Q20 530 29 512Q38 494 54 494Q61 494 64 535Q67 576 76 582.50Q85 589 92 589Q101 589 107 576Q113 563 120 563M532 497Q544 497 576 537Q608 577 624 577Q633 577 635 569Q637 561 639 556Q644 556 644 568Q644 591 612.50 622.50Q581 654 547 654Q538 654 519.50 636Q501 618 496 618Q479 618 449 627Q419 636 410 636Q399 636 394 619.50Q389 603 383 587Q383 545 421 545Q429 545 448.50 564.50Q468 584 479 584Q501 584 512 540.50Q523 497 532 497Z"  horiz-adv-x="723" vert-adv-y="1204"  />

      
      <glyph glyph-name="uni6f" unicode="&#x6f;" d="M600 497Q630 457 646 407.50Q662 358 662 306Q662 182 578.50 91Q495 0 346 0Q197 0 114 90.50Q31 181 31 306Q31 359 47 406L37 405Q29 405 29 414Q29 436 84.50 504.50Q140 573 165.50 588Q191 603 218 619Q244 631 282 631Q315 631 331.50 628.50Q348 626 379 626Q467 626 537 582.50Q607 539 607 505Q607 502 604 499.50Q601 497 600 497M600 507Q600 537 530.50 579Q461 621 379 621Q346 621 325 623Q304 625 282 625Q254 625 240 620.50Q226 616 186 592.50Q146 569 91 503Q36 437 36 417Q36 410 43 410Q65 410 111 462Q157 514 208 572Q220 577 233 582Q243 582 254 569Q265 556 280 556Q297 556 331 567Q365 578 383 578Q399 578 414 531Q429 484 446 484Q457 484 476 525Q495 566 507 566Q521 566 555.50 533.50Q590 501 595 501Q600 505 600 507M451 306Q451 359 423.50 397.50Q396 436 346 436Q297 436 270.50 397.50Q244 359 244 306Q244 255 270.50 217Q297 179 346 179Q396 179 423.50 216.50Q451 254 451 306Z"  horiz-adv-x="730" vert-adv-y="1204"  />

      
      <glyph glyph-name="uni70" unicode="&#x70;" d="M474 563Q504 538 521.50 500Q539 462 539 417Q539 326 480.50 276.50Q422 227 330 227L264 227L264 0L69 0L69 537Q63 523 50 523Q26 523 26 558Q26 578 36.50 599.50Q47 621 61 629Q75 637 80 638Q85 639 99 639Q110 639 117 639Q124 639 152 633Q180 627 203 623Q226 619 276 619Q297 619 317 619Q337 619 356 620Q420 620 449 613Q478 606 478 582Q478 570 474 563M473 582Q473 606 427.50 611Q382 616 276 616Q229 616 214.50 617.50Q200 619 160 627Q120 635 111 635L99 635Q91 635 83 635Q80 634 65 626Q50 618 40 598Q30 578 30 558Q30 526 50 526Q63 526 74 555Q85 584 106 584Q131 584 148 536.50Q165 489 179 489Q188 489 222.50 540Q257 591 276 591Q286 591 313 568.50Q340 546 355 546Q369 546 397 557Q425 568 437 568Q443 568 450 563.50Q457 559 461 559Q473 559 473 582M342 417Q342 438 329.50 450.50Q317 463 297 463L264 463L264 372L297 372Q342 372 342 417Z"  horiz-adv-x="594" vert-adv-y="1204"  />

      
      <glyph glyph-name="uni71" unicode="&#x71;" d="M662 306Q662 230 629 163Q596 96 533 53L590-36L435-80L386-1L346 0Q197 0 114 90.50Q31 181 31 306Q31 363 51 418Q49 417 40 416Q32 416 32 426Q32 448 86.50 511.50Q141 575 167.50 590.50Q194 606 221 622Q247 634 285 634Q317 634 334.50 631.50Q352 629 382 629Q468 629 544.50 576Q621 523 621 488Q621 480 613 480Q662 402 662 306M615 490Q615 523 539.50 573Q464 623 381 623Q346 623 333 626Q320 629 285 629Q248 629 223 617Q192 597 169 584Q146 571 92 509Q38 447 38 426Q38 421 44 421Q65 421 112 470.50Q159 520 211 575Q223 579 236 584Q246 584 257.50 571.50Q269 559 283 559Q301 559 337 570Q373 581 386 581Q402 581 417.50 533.50Q433 486 449 486Q460 486 491 504Q522 522 534 522Q548 522 577 503.50Q606 485 611 485Q615 485 615 490M451 306Q451 359 423.50 397.50Q396 436 346 436Q297 436 270.50 397.50Q244 359 244 306Q244 255 270.50 217Q297 179 346 179Q396 179 423.50 216.50Q451 254 451 306Z"  horiz-adv-x="639" vert-adv-y="1204"  />

      
      <glyph glyph-name="uni72" unicode="&#x72;" d="M476 530Q517 481 517 402Q517 331 493.50 295Q470 259 423 242L563 0L345 0L248 185L248 0L55 0L55 520L44 517Q32 517 26 527Q20 537 20 552Q20 574 30 594.50Q40 615 53 622Q66 629 75.50 634Q85 639 95 639Q108 639 120 634.50Q132 630 143 628Q154 626 191 616.50Q228 607 271 607Q369 607 425.50 595Q482 583 482 552Q482 538 476 530M477 552Q477 577 418 590Q359 603 271 603Q236 603 217 606Q182 616 154.50 621.50Q127 627 116.50 631Q106 635 95 635Q82 635 73.50 629Q65 623 54.50 617.50Q44 612 34 592Q24 572 24 552Q24 520 45 520Q57 520 68 549Q79 578 101 578Q127 578 143 530.50Q159 483 174 483Q183 483 217.50 534Q252 585 270 585Q283 585 299 567.50Q315 550 331 550Q343 550 388 543.50Q433 537 441 537Q447 537 454 532.50Q461 528 465 528Q477 528 477 552M248 452L248 364L280 364Q325 364 325 407Q325 427 312.50 439.50Q300 452 280 452L248 452Z"  horiz-adv-x="622" vert-adv-y="1204"  />

      
      <glyph glyph-name="uni73" unicode="&#x73;" d="M477 538L444 431Q412 449 369 460.50Q326 472 283 472Q264 472 252 462.50Q240 453 240 437Q240 409 321 389Q402 369 455 333.50Q508 298 508 200Q508 116 441.50 58Q375 0 255 0Q191 0 132 22.50Q73 45 25 81L66 205Q123 172 161 159Q199 146 225 146Q297 146 297 181Q297 206 217.50 228.50Q138 251 88 287Q38 323 38 419L29 420Q25 420 21 430.50Q17 441 17 448Q17 472 51.50 534Q86 596 114.50 612Q143 628 178 636.50Q213 645 260 645Q292 645 309.50 642.50Q327 640 357 640Q443 640 483 610Q523 580 523 545Q523 537 515 537Q508 537 503 538.50Q498 540 486 540L477 538M518 547Q518 579 478 607.50Q438 636 357 636Q323 636 308 639Q293 642 258 642Q173 642 131 617.50Q89 593 54.50 532Q20 471 20 448Q20 440 23.50 431.50Q27 423 31 423Q54 423 96 475.50Q138 528 185 586Q198 591 211 596Q221 596 232 583Q243 570 258 570Q276 570 312 581Q348 592 360 592Q377 592 392 545Q407 498 423 498Q433 498 454 521Q475 544 486 544Q499 544 504 543Q509 542 514 542Q518 544 518 547Z"  horiz-adv-x="580" vert-adv-y="1204"  />

      
      <glyph glyph-name="uni74" unicode="&#x74;" d="M458 423L345 423L345 0L160 0L160 423L49 423L49 532Q38 525 28 525Q19 525 15 535.50Q11 546 11 562Q11 582 19 605.50Q27 629 36.50 635Q46 641 57 641Q68 641 113 619Q158 597 199 597Q221 597 296 603.50Q371 610 405 610Q443 610 461 597Q479 584 479 563Q479 551 477 544.50Q475 538 470 526Q465 519 459 519L458 423M241 484Q250 484 292 528Q334 572 396 572Q411 572 427 558Q442 542 458 526Q462 526 463 528Q464 530 466.50 536Q469 542 470.50 548Q472 554 472 564Q472 605 404 605Q368 605 294 598Q220 591 198 591Q164 591 129 605Q94 619 57 635Q48 635 40 629.50Q32 624 25 604Q18 584 18 563Q18 532 29 532Q40 532 60 549Q80 566 94 566Q136 566 170 541Q205 512 241 484Z"  horiz-adv-x="534" vert-adv-y="1204"  />

      
      <glyph glyph-name="uni75" unicode="&#x75;" d="M528 570L528 195Q528 103 458.50 51.50Q389 0 290 0Q193 0 124.50 51.50Q56 103 56 195L56 535Q31 545 31 580Q31 586 37 597.50Q43 609 46 620.50Q49 632 61 632Q70 632 100 623Q130 614 148 614Q155 614 171 632Q187 650 199 650Q233 650 250 626Q267 602 267 575Q267 558 258 558Q254 558 252 568.50Q250 579 243 579L243 210Q243 164 290 164Q312 164 326.50 176.50Q341 189 341 210L341 470Q324 470 311.50 496.50Q299 523 299 547Q299 568 307 575Q315 582 331 606.50Q347 631 363 631Q364 631 380.50 620.50Q397 610 410 610Q421 610 459 619.50Q497 629 504 629Q528 629 539.50 614.50Q551 600 551 581Q551 573 551 566Q549 559 542 559Q539 561 534.50 564.50Q530 568 528 570M186 433Q197 433 212 508Q227 583 243 583Q251 583 254 573Q257 563 258 563Q261 563 261 575Q261 598 244.50 620.50Q228 643 200 643Q191 643 172 625.50Q153 608 149 608Q132 608 102 617Q72 626 63 626Q52 626 49 611Q43 595 37 579Q37 558 45 548Q53 538 73 538Q79 538 100 557Q121 576 132 576Q154 576 166 504.50Q178 433 186 433M402 558Q406 558 421.50 566Q437 574 448.50 577.50Q460 581 477.50 583Q495 585 507 585Q516 585 524 579Q532 571 541 564Q543 564 546 568L546 582Q546 600 536.50 612Q527 624 503 624Q501 624 461.50 614.50Q422 605 410 605Q393 605 380 614.50Q367 624 363 624Q346 624 332 601Q318 578 311 572Q304 566 304 547Q304 523 314 499Q324 475 340 475Q348 475 349 522.50Q350 570 358.50 577Q367 584 374 584Q383 584 390 571Q397 558 402 558Z"  horiz-adv-x="623" vert-adv-y="1204"  />

      
      <glyph glyph-name="uni76" unicode="&#x76;" d="M344 301L428 553Q420 566 420 585Q420 592 426 604.50Q432 617 435 627.50Q438 638 450 638Q459 638 490.50 628.50Q522 619 538 619Q543 619 561 637.50Q579 656 589 656Q622 656 644 618.50Q666 581 666 553Q666 536 657 536Q654 536 645 554.50Q636 573 629 573L414 0L272 0L67 547Q65 526 64 506Q61 484 50 484Q34 484 23.50 504Q13 524 13 547Q13 568 21 575Q29 582 45 606.50Q61 631 78 631Q79 631 95.50 620.50Q112 610 125 610Q140 610 176 619.50Q212 629 218 629Q242 629 253.50 614.50Q265 600 265 581Q265 573 265 566Q263 559 256 559L344 301M574 494Q586 494 600 535.50Q614 577 629 577Q636 577 643 565Q650 553 657 541Q661 541 661 553Q661 580 640.50 615Q620 650 589 650Q580 650 561 632.50Q542 615 538 615Q521 615 491 624Q461 633 452 633Q440 633 437 617Q431 600 425 584Q425 542 463 542Q469 542 490 562Q511 582 521 582Q543 582 554 538Q565 494 574 494M117 558Q121 558 135.50 566Q150 574 162.50 577.50Q175 581 192.50 583Q210 585 222 585Q232 585 243 574Q254 563 255 563Q258 563 259 565Q260 567 261 568L261 581Q261 598 251 611Q241 624 218 624Q210 624 174 615Q138 606 125 606Q109 606 95 616Q81 626 78 626Q61 626 48.50 604Q36 582 26.50 575Q17 568 17 548Q17 524 25.50 506.50Q34 489 51 489Q59 489 62 530Q65 571 73 577.50Q81 584 89 584Q98 584 104 571Q110 558 117 558Z"  horiz-adv-x="738" vert-adv-y="1204"  />

      
      <glyph glyph-name="uni77" unicode="&#x77;" d="M598 570L673 299L737 533Q727 544 727 567Q727 573 733 584.50Q739 596 741.50 607.50Q744 619 757 619Q766 619 796 610Q826 601 844 601Q852 601 867.50 619.50Q883 638 895 638Q929 638 945.50 613.50Q962 589 962 562Q962 556 962 551Q960 545 954 545Q950 545 948 555.50Q946 566 939 566L935 566L770 0L591 0L507 294L428 0L246 0L96 507Q94 506 87 505Q67 505 56 528Q45 551 45 577Q45 583 51 594.50Q57 606 60 617.50Q63 629 75 629Q84 629 114 620Q144 611 162 611Q169 611 185 629Q201 647 213 647Q247 647 264 623Q281 599 281 572Q281 555 272 555L345 299L396 485Q386 493 380 508.50Q374 524 374 542Q374 564 382 570Q390 576 406 600.50Q422 625 439 625Q440 625 456.50 614.50Q473 604 486 604Q496 604 534 613.50Q572 623 580 623Q604 623 615 608.50Q626 594 626 575Q626 567 626 560Q624 553 617 553Q615 553 608 560.50Q601 568 598 570M199 486Q211 486 226 533Q241 580 257 580Q265 580 268 570Q271 560 272 560Q275 560 275 572Q275 598 261 619.50Q247 641 214 641Q204 641 188 623Q172 605 164 605Q150 605 118 614.50Q86 624 77 624Q71 624 68.50 619Q66 614 62 605Q58 596 54.50 588Q51 580 51 575Q51 552 60 531.50Q69 511 88 511Q93 511 113.50 542Q134 573 146 573Q168 573 179 529.50Q190 486 199 486M757 612Q750 612 744 597Q738 582 732 566Q732 525 770 525Q778 525 797.50 544Q817 563 828 563Q850 563 852 500.50Q854 438 862 438Q875 438 899.50 505.50Q924 573 938 573Q946 573 949 562.50Q952 552 953 552Q958 552 958 563Q958 585 942 609Q926 633 897 633Q887 633 870.50 614.50Q854 596 845 596Q830 596 801 604Q772 612 757 612M479 534Q481 534 495.50 551Q510 568 521 570Q531 574 553.50 577Q576 580 583 580Q592 580 604 569Q616 558 617 558Q619 558 622 562L622 575Q622 593 612.50 605Q603 617 580 617Q573 617 536 608Q499 599 486 599Q470 599 456 609Q442 619 439 619Q422 619 408.50 596Q395 573 387.50 566.50Q380 560 380 542Q380 520 389 502.50Q398 485 413 485Q420 485 423 525Q426 565 434.50 571.50Q443 578 450 578Q459 578 466 556Q473 534 479 534Z"  horiz-adv-x="1061" vert-adv-y="1204"  />

      
      <glyph glyph-name="uni78" unicode="&#x78;" d="M277 556L334 465L387 553L384 582Q384 589 390 601.50Q396 614 398.50 624.50Q401 635 414 635Q423 635 453 626Q483 617 501 617Q508 617 524 635Q540 653 552 653Q588 653 621 624Q654 595 654 571Q654 553 644 553Q640 553 638 564Q636 575 629 575Q618 575 599 551Q580 527 563 504L437 299L619 0L413 0L334 129L253 0L48 0L231 300L64 567Q63 564 59.50 527Q56 490 45 490Q29 490 18.50 510Q8 530 8 553Q8 566 9.50 572Q11 578 16.50 582Q22 586 38.50 611Q55 636 72 636Q73 636 89.50 625.50Q106 615 119 615Q130 615 168 624.50Q206 634 213 634Q238 634 259.50 613.50Q281 593 281 575Q281 560 277 556M538 491Q550 491 581.50 536.50Q613 582 629 582Q637 582 640 572Q643 562 644 562Q647 565 647 571Q647 588 615 617.50Q583 647 552 647Q542 647 525.50 628.50Q509 610 502 610Q486 610 456 619Q426 628 417 628Q406 628 401 613Q396 598 391 582Q391 550 399.50 537Q408 524 423 524Q429 524 451.50 552.50Q474 581 485 581Q507 581 518 536Q529 491 538 491M114 552Q118 552 130 566Q142 580 154 583.50Q166 587 184 590Q202 593 216 593Q226 593 247 576Q268 559 269 559Q272 559 274 564L275 576Q275 593 255 611Q235 629 210 629Q206 629 168 619.50Q130 610 119 610Q103 610 89 620Q75 630 73 630Q55 630 42 607.50Q29 585 21 579Q13 573 13 553Q13 531 22 513.50Q31 496 45 496Q52 496 55 536.50Q58 577 67 584.50Q76 592 83 592Q90 592 99.50 572Q109 552 114 552Z"  horiz-adv-x="701" vert-adv-y="1204"  />

      
      <glyph glyph-name="uni79" unicode="&#x79;" d="M257 556L317 448L375 560L372 588Q372 593 378.50 605Q385 617 386.50 625Q388 633 391 636.50Q394 640 402 640Q411 640 442 631Q473 622 490 622Q498 622 513.50 640.50Q529 659 541 659Q575 659 592.50 634Q610 609 610 583Q610 566 600 566Q596 566 593.50 575Q591 584 590 585L411 273L411 0L215 0L215 273L82 520Q74 514 67 514Q47 514 36 533.50Q25 553 25 577Q25 584 31 595.50Q37 607 40 618Q43 629 55 629Q64 629 95 620Q126 611 143 611Q150 611 166 629Q182 647 194 647Q227 647 244 622.50Q261 598 261 572Q261 558 257 556M524 493Q532 493 547.50 520.50Q563 548 574 569.50Q585 591 590 591Q595 591 596.50 585Q598 579 600 573Q604 573 604 583Q604 605 587.50 628.50Q571 652 540 652Q532 652 517 634Q502 616 490 616Q475 616 444.50 625.50Q414 635 406 635Q395 635 392 619Q385 603 379 587Q379 549 388.50 529.50Q398 510 412 510Q417 510 440 547Q463 584 474 584Q496 584 506 538.50Q516 493 524 493M174 431Q186 431 204 505.50Q222 580 237 580Q246 580 248 572.50Q250 565 252 560Q257 560 257 572Q257 597 242 620Q227 643 195 643Q187 643 167.50 625Q148 607 143 607Q126 607 96 616Q66 625 57 625Q45 625 43 609Q36 592 30 576Q30 552 39 535Q48 518 68 518Q76 518 95 545.50Q114 573 127 573Q149 573 157 502Q165 431 174 431Z"  horiz-adv-x="666" vert-adv-y="1204"  />

      
      <glyph glyph-name="uni7a" unicode="&#x7a;" d="M626 581L358 157L622 157L622 0L31 0L305 439L73 439L73 540L66 540Q43 540 43 575Q43 595 53 616.50Q63 638 77.50 645.50Q92 653 97 654.50Q102 656 116 656Q135 656 155.50 655.50Q176 655 211.50 648Q247 641 345.50 631Q444 621 495 621Q531 621 560.50 623.50Q590 626 624 629Q653 629 653 605Q653 577 636 577Q632 577 626 581M648 605Q648 624 621 624Q586 621 558 619Q530 617 495 617Q437 617 344 626Q251 635 216 642Q181 649 158.50 650.50Q136 652 116 652Q107 652 99 652Q96 651 81 642.50Q66 634 56.50 615Q47 596 47 575Q47 542 67 542Q80 542 109 560Q138 578 160 578Q186 578 234 548.50Q282 519 297 519Q310 519 392 559Q474 599 494 599Q507 599 523 581.50Q539 564 555 564Q569 564 585 577Q601 590 612 590Q617 590 624 586Q631 582 636 582Q648 582 648 605Z"  horiz-adv-x="726" vert-adv-y="1204"  />

      
      <glyph glyph-name="uni7b" unicode="&#x7b;" d="M43 380Q86 380 114 390.50Q142 401 142 438L142 713Q142 789 176.50 822.50Q211 856 233 867.50Q255 879 277 879L380 879L380 761L335 761Q299 761 292 749Q285 737 282.50 721Q280 705 279 696L279 441Q279 380 244 354.50Q209 329 164 323Q213 317 244 291Q279 268 279 195L279-63Q279-95 287.50-110Q296-125 335-125L380-125L380-243L277-243Q235-243 188.50-199Q142-155 142-79L142 197Q142 239 113 253Q84 267 43 267L43 380Z"  horiz-adv-x="470" vert-adv-y="1204"  />

      
      <glyph glyph-name="uni7c" unicode="&#x7c;" d="M250-243L154-243L154 879L250 879L250-243Z"  horiz-adv-x="384" vert-adv-y="1204"  />

      
      <glyph glyph-name="uni7d" unicode="&#x7d;" d="M426 380L426 267Q407 267 391.50 265.50Q376 264 356 254Q327 242 327 197L327-79Q327-156 280.50-199.50Q234-243 193-243L89-243L89-125L135-125Q169-125 181-110Q190-95 190-63L190 195Q190 267 223.50 291.50Q257 316 306 323Q262 328 226 354Q190 380 190 441L190 696Q190 729 182 745Q174 761 135 761L89 761L89 879L193 879Q233 879 280 835Q327 791 327 713L327 438Q327 400 356 390Q385 380 426 380Z"  horiz-adv-x="470" vert-adv-y="1204"  />

      
      <glyph glyph-name="uni7e" unicode="&#x7e;" d="M72 282Q81 344 116 402Q147 460 222 460Q269 460 360.50 402Q452 344 477 344Q504 344 519 367Q532 393 532 421L626 421Q626 348 585.50 297Q545 246 486 246Q452 246 349 303.50Q246 361 222 361Q187 361 172 336Q157 311 157 282L72 282Z"  horiz-adv-x="703" vert-adv-y="1204"  />

      
      <glyph glyph-name="unic4" unicode="&#xc4;" d="M301 0L31 0L303 857L621 857L893 0L624 0L578 125L344 125L301 0M195 1028Q195 1074 227.50 1109Q260 1144 308 1144Q355 1144 389 1109Q424 1076 424 1028Q424 980 389 948Q356 915 308 915Q261 915 228 947.50Q195 980 195 1028M506 1028Q506 1074 538.50 1109Q571 1144 619 1144Q666 1144 700 1109.50Q734 1075 734 1028Q734 979 700 948Q667 915 619 915Q573 915 539.50 947.50Q506 980 506 1028M520 313L460 496L402 313L520 313Z"  horiz-adv-x="927" vert-adv-y="1204"  />

      
      <glyph glyph-name="unic5" unicode="&#xc5;" d="M301 0L31 0L303 857L621 857L893 0L624 0L578 125L344 125L301 0M327 1033Q327 1082 364 1120Q401 1158 450 1158Q501 1158 529 1130Q557 1102 566.50 1081Q576 1060 576 1033Q576 982 539 946Q502 910 450 910Q400 910 363.50 946.50Q327 983 327 1033M520 313L460 496L402 313L520 313M521 1033Q521 1062 501 1082Q483 1103 450 1103Q424 1103 403.50 1082.50Q383 1062 383 1033Q383 1004 401.50 983.50Q420 963 450 963Q467 963 478 967.50Q489 972 505 988Q521 1004 521 1033Z"  horiz-adv-x="927" vert-adv-y="1204"  />

      
      <glyph glyph-name="unic7" unicode="&#xc7;" d="M373-1Q211 34 121 155Q31 276 31 429Q31 518 61 594Q91 670 184.50 768.50Q278 867 494 867Q526 867 550 863L609 855L609 566Q604 568 591.50 571Q579 574 556.50 579.50Q534 585 491 585Q418 585 377.50 541.50Q337 498 337 429Q337 364 376.50 319.50Q416 275 491 275L503 275Q516 275 531.50 275.50Q547 276 566.50 279.50Q586 283 609 294L609-5L560-11L494-14L431-11L409-57Q428-66 443-83.50Q458-101 458-122Q458-152 443-165Q428-178 415.50-181.50Q403-185 383-187Q343-187 311-163L311-100L327-110L347-114Q373-114 373-88Q373-80 362-70L347-57L373-1Z"  horiz-adv-x="686" vert-adv-y="1204"  />

      
      <glyph glyph-name="unic9" unicode="&#xc9;" d="M55 0L55 857L607 857L607 645L327 645L327 532L592 532L592 320L327 320L327 214L607 214L607 0L55 0M243 997L380 1137L443 1074L306 934L243 997Z"  horiz-adv-x="672" vert-adv-y="1204"  />

      
      <glyph glyph-name="unid1" unicode="&#xd1;" d="M51 0L51 857L306 857L583 443L583 857L855 857L855 0L583 0L323 393L323 0L51 0M359 1021Q324 1021 299 1008Q274 995 250 970L212 1019Q239 1049 275.50 1071Q312 1093 359 1093Q393 1093 448.50 1066.50Q504 1040 537 1040Q571 1040 587 1047Q603 1054 614.50 1061.50Q626 1069 633 1076L677 1026Q644 990 612 978Q580 966 539 966Q496 966 441 993.50Q386 1021 359 1021Z"  horiz-adv-x="915" vert-adv-y="1204"  />

      
      <glyph glyph-name="unid6" unicode="&#xd6;" d="M24 426Q24 603 144.50 735Q265 867 477 867Q690 867 811 735.50Q932 604 932 426Q932 250 812 118Q692-14 477-14Q264-14 144 116Q24 246 24 426M207 1028Q207 1074 239.50 1109Q272 1144 320 1144Q367 1144 401 1109Q436 1076 436 1028Q436 980 401 948Q368 915 320 915Q273 915 240 947.50Q207 980 207 1028M518 1028Q518 1074 550.50 1109Q583 1144 631 1144Q678 1144 712 1109.50Q746 1075 746 1028Q746 979 712 948Q679 915 631 915Q585 915 551.50 947.50Q518 980 518 1028M628 426Q628 501 587.50 557.50Q547 614 477 614Q407 614 368.50 558Q330 502 330 426Q330 353 368.50 298Q407 243 477 243Q546 243 588 297Q608 326 618 356.50Q628 387 628 426Z"  horiz-adv-x="968" vert-adv-y="1204"  />

      
      <glyph glyph-name="unidc" unicode="&#xdc;" d="M43 275L43 857L318 857L318 296Q318 266 336.50 247.50Q355 229 388 229Q420 229 441 246.50Q462 264 462 296L462 857L737 857L737 275Q737 142 635.50 65Q534-12 388-12Q244-12 143.50 63.50Q43 139 43 275M111 1028Q111 1074 143.50 1109Q176 1144 224 1144Q271 1144 305.50 1109Q340 1074 340 1028Q340 980 305 948Q272 915 224 915Q178 915 144.50 947.50Q111 980 111 1028M421 1028Q421 1074 454 1109Q487 1144 535 1144Q581 1144 615 1109Q650 1076 650 1028Q650 980 615 948Q583 915 535 915Q489 915 455 947.50Q421 980 421 1028Z"  horiz-adv-x="795" vert-adv-y="1204"  />

      
      <glyph glyph-name="unie1" unicode="&#xe1;" d="M482 588L749 588L749 0L482 0L482 70Q458 31 417 8.50Q376-14 313-14Q181-14 110 75.50Q39 165 39 289Q39 412 111 503.50Q183 595 313 595Q372 595 413 574Q455 555 482 520L482 588M303 727L441 867L503 804L366 665L303 727M287 301Q287 276 292.50 257Q298 238 316.50 213Q335 188 380 188Q424 188 451 220Q477 254 477 301Q477 346 451 380Q428 414 380 414Q338 414 312.50 381Q287 348 287 301Z"  horiz-adv-x="833" vert-adv-y="1204"  />

      
      <glyph glyph-name="unie0" unicode="&#xe0;" d="M482 588L749 588L749 0L482 0L482 70Q458 31 417 8.50Q376-14 313-14Q181-14 110 75.50Q39 165 39 289Q39 412 111 503.50Q183 595 313 595Q372 595 413 574Q455 555 482 520L482 588M291 804L354 867L494 727L431 665L291 804M287 301Q287 276 292.50 257Q298 238 316.50 213Q335 188 380 188Q424 188 451 220Q477 254 477 301Q477 346 451 380Q428 414 380 414Q338 414 312.50 381Q287 348 287 301Z"  horiz-adv-x="833" vert-adv-y="1204"  />

      
      <glyph glyph-name="unie2" unicode="&#xe2;" d="M482 588L749 588L749 0L482 0L482 70Q458 31 417 8.50Q376-14 313-14Q181-14 110 75.50Q39 165 39 289Q39 412 111 503.50Q183 595 313 595Q372 595 413 574Q455 555 482 520L482 588M270 648L212 706L366 857L407 857L554 706L498 650L388 763L270 648M287 301Q287 276 292.50 257Q298 238 316.50 213Q335 188 380 188Q424 188 451 220Q477 254 477 301Q477 346 451 380Q428 414 380 414Q338 414 312.50 381Q287 348 287 301Z"  horiz-adv-x="833" vert-adv-y="1204"  />

      
      <glyph glyph-name="unie4" unicode="&#xe4;" d="M482 588L749 588L749 0L482 0L482 70Q458 31 417 8.50Q376-14 313-14Q181-14 110 75.50Q39 165 39 289Q39 412 111 503.50Q183 595 313 595Q372 595 413 574Q455 555 482 520L482 588M135 759Q135 804 167.50 839Q200 874 248 874Q295 874 329 839Q364 807 364 759Q364 712 330 678.50Q296 645 248 645Q202 645 167 678Q135 712 135 759M445 759Q445 804 478 839Q511 874 559 874Q605 874 639 839Q674 807 674 759Q674 712 640.50 678.50Q607 645 559 645Q513 645 479 678Q445 711 445 759M287 301Q287 276 292.50 257Q298 238 316.50 213Q335 188 380 188Q424 188 451 220Q477 254 477 301Q477 346 451 380Q428 414 380 414Q338 414 312.50 381Q287 348 287 301Z"  horiz-adv-x="833" vert-adv-y="1204"  />

      
      <glyph glyph-name="unie3" unicode="&#xe3;" d="M482 588L749 588L749 0L482 0L482 70Q458 31 417 8.50Q376-14 313-14Q181-14 110 75.50Q39 165 39 289Q39 412 111 503.50Q183 595 313 595Q372 595 413 574Q455 555 482 520L482 588M323 751Q288 751 266 740Q244 729 237.50 723.50Q231 718 214 701L176 749Q202 778 238 801Q277 824 323 824Q355 824 409.50 797.50Q464 771 501 771Q528 771 536 772.50Q544 774 562 782Q580 790 597 807L641 756Q608 720 574 708Q540 696 503 696Q481 696 458 702.50Q435 709 393.50 730Q352 751 323 751M287 301Q287 276 292.50 257Q298 238 316.50 213Q335 188 380 188Q424 188 451 220Q477 254 477 301Q477 346 451 380Q428 414 380 414Q338 414 312.50 381Q287 348 287 301Z"  horiz-adv-x="833" vert-adv-y="1204"  />

      
      <glyph glyph-name="unie5" unicode="&#xe5;" d="M482 588L749 588L749 0L482 0L482 70Q458 31 417 8.50Q376-14 313-14Q181-14 110 75.50Q39 165 39 289Q39 412 111 503.50Q183 595 313 595Q372 595 413 574Q455 555 482 520L482 588M267 763Q267 813 294.50 841.50Q322 870 343 879.50Q364 889 390 889Q441 889 478 851.50Q515 814 515 763Q515 713 478.50 677Q442 641 390 641Q339 641 303 677Q267 713 267 763M287 301Q287 276 292.50 257Q298 238 316.50 213Q335 188 380 188Q424 188 451 220Q477 254 477 301Q477 346 451 380Q428 414 380 414Q338 414 312.50 381Q287 348 287 301M461 763Q461 792 442 812.50Q423 833 390 833Q364 833 348.50 817.50Q333 802 328 791Q323 780 323 763Q323 734 341.50 714Q360 694 390 694Q420 694 440.50 714Q461 734 461 763Z"  horiz-adv-x="833" vert-adv-y="1204"  />

      
      <glyph glyph-name="unie7" unicode="&#xe7;" d="M334-16L313-60Q330-69 347-87Q361-106 361-125Q361-156 340-173Q319-190 287-190Q245-190 214-166L214-104L231-113L250-118Q277-118 277-92Q277-86 266-73L250-60L272-14Q159-2 95 86.50Q31 175 31 289Q31 413 105.50 504Q180 595 311 595Q368 595 407 585Q428 581 444 576Q460 571 482 561L482 383Q463 396 446.50 403.50Q430 411 419 414Q408 417 395 417Q349 417 321.50 379.50Q294 342 294 294Q294 243 320 207Q346 171 395 171Q429 171 446.50 181Q464 191 482 209L482 26Q466 20 453 14Q440 8 424 0Q381-16 334-16Z"  horiz-adv-x="510" vert-adv-y="1204"  />

      
      <glyph glyph-name="unie9" unicode="&#xe9;" d="M19 287Q19 413 107.50 505Q196 597 356 597Q529 597 613.50 505Q698 413 698 260L282 260Q282 203 297 167Q314 135 366 135Q397 135 414 149Q429 164 443 195L694 164Q674 122 646.50 90.50Q619 59 557.50 18.50Q496-22 354-22Q199-22 109 69.50Q19 161 19 287M243 727L380 867L443 804L306 665L243 727M445 371Q445 397 423 421Q401 445 364 445Q326 445 306.50 421Q287 397 287 371L445 371Z"  horiz-adv-x="727" vert-adv-y="1204"  />

      
      <glyph glyph-name="unie8" unicode="&#xe8;" d="M19 287Q19 413 107.50 505Q196 597 356 597Q529 597 613.50 505Q698 413 698 260L282 260Q282 203 297 167Q314 135 366 135Q397 135 414 149Q429 164 443 195L694 164Q674 122 646.50 90.50Q619 59 557.50 18.50Q496-22 354-22Q199-22 109 69.50Q19 161 19 287M267 804L330 867L470 727L407 665L267 804M445 371Q445 397 423 421Q401 445 364 445Q326 445 306.50 421Q287 397 287 371L445 371Z"  horiz-adv-x="727" vert-adv-y="1204"  />

      
      <glyph glyph-name="uniea" unicode="&#xea;" d="M19 287Q19 413 107.50 505Q196 597 356 597Q529 597 613.50 505Q698 413 698 260L282 260Q282 203 297 167Q314 135 366 135Q397 135 414 149Q429 164 443 195L694 164Q674 122 646.50 90.50Q619 59 557.50 18.50Q496-22 354-22Q199-22 109 69.50Q19 161 19 287M234 648L176 706L330 857L371 857L518 706L462 650L352 763L234 648M445 371Q445 397 423 421Q401 445 364 445Q326 445 306.50 421Q287 397 287 371L445 371Z"  horiz-adv-x="727" vert-adv-y="1204"  />

      
      <glyph glyph-name="unieb" unicode="&#xeb;" d="M19 287Q19 413 107.50 505Q196 597 356 597Q529 597 613.50 505Q698 413 698 260L282 260Q282 203 297 167Q314 135 366 135Q397 135 414 149Q429 164 443 195L694 164Q674 122 646.50 90.50Q619 59 557.50 18.50Q496-22 354-22Q199-22 109 69.50Q19 161 19 287M87 759Q87 804 119.50 839Q152 874 200 874Q247 874 281 839Q315 807 315 759Q315 711 281.50 678Q248 645 200 645Q154 645 119 678Q87 712 87 759M397 759Q397 804 429.50 839Q462 874 510 874Q557 874 591 839Q626 807 626 759Q626 712 592 678.50Q558 645 510 645Q465 645 431 678Q397 711 397 759M445 371Q445 397 423 421Q401 445 364 445Q326 445 306.50 421Q287 397 287 371L445 371Z"  horiz-adv-x="727" vert-adv-y="1204"  />

      
      <glyph glyph-name="unied" unicode="&#xed;" d="M99 727L236 867L299 804L161 665L99 727M67 0L67 588L342 588L342 0L67 0Z"  horiz-adv-x="431" vert-adv-y="1204"  />

      
      <glyph glyph-name="uniec" unicode="&#xec;" d="M99 804L161 867L301 727L238 665L99 804M67 0L67 588L342 588L342 0L67 0Z"  horiz-adv-x="431" vert-adv-y="1204"  />

      
      <glyph glyph-name="uniee" unicode="&#xee;" d="M89 648L31 706L185 857L226 857L373 706L318 650L207 763L89 648M67 0L67 588L342 588L342 0L67 0Z"  horiz-adv-x="431" vert-adv-y="1204"  />

      
      <glyph glyph-name="unief" unicode="&#xef;" d="M-58 759Q-58 805-24.50 839.50Q9 874 55 874Q102 874 136 839Q171 807 171 759Q171 712 137 678.50Q103 645 55 645Q9 645-24.50 678.50Q-58 712-58 759M253 759Q253 804 285.50 839Q318 874 366 874Q413 874 447 839Q482 807 482 759Q482 712 448 678.50Q414 645 366 645Q320 645 285 678Q253 712 253 759M67 0L67 588L342 588L342 0L67 0Z"  horiz-adv-x="431" vert-adv-y="1204"  />

      
      <glyph glyph-name="unif1" unicode="&#xf1;" d="M340 356L340 0L65 0L65 588L340 588L340 501Q369 543 423 570Q477 597 549 597Q650 597 700.50 542Q751 487 751 390L751 0L477 0L477 356Q477 387 462 413Q450 438 407 438Q373 438 356.50 410Q340 382 340 356M299 751Q264 751 242 740Q220 729 213.50 723.50Q207 718 190 701L152 749Q178 778 214 801Q253 824 299 824Q331 824 385.50 797.50Q440 771 477 771Q500 771 510 772.50Q520 774 538 782Q556 790 573 807L616 756Q585 720 550.50 708Q516 696 479 696Q457 696 434 702.50Q411 709 369.50 730Q328 751 299 751Z"  horiz-adv-x="821" vert-adv-y="1204"  />

      
      <glyph glyph-name="unif3" unicode="&#xf3;" d="M710 291Q710 167 619.50 74Q529-19 364-19Q205-19 113.50 74.50Q22 168 22 291Q22 419 112.50 509.50Q203 600 364 600Q524 600 617 508.50Q710 417 710 291M231 727L368 867L431 804L294 665L231 727M455 291Q455 339 431 371Q409 405 364 405Q323 405 299 371.50Q275 338 275 291Q275 266 280 248Q285 230 299 212Q322 178 364 178Q406 178 430.50 211.50Q455 245 455 291Z"  horiz-adv-x="739" vert-adv-y="1204"  />

      
      <glyph glyph-name="unif2" unicode="&#xf2;" d="M710 291Q710 167 619.50 74Q529-19 364-19Q205-19 113.50 74.50Q22 168 22 291Q22 419 112.50 509.50Q203 600 364 600Q524 600 617 508.50Q710 417 710 291M279 804L342 867L482 727L419 665L279 804M455 291Q455 339 431 371Q409 405 364 405Q323 405 299 371.50Q275 338 275 291Q275 266 280 248Q285 230 299 212Q322 178 364 178Q406 178 430.50 211.50Q455 245 455 291Z"  horiz-adv-x="739" vert-adv-y="1204"  />

      
      <glyph glyph-name="unif4" unicode="&#xf4;" d="M710 291Q710 167 619.50 74Q529-19 364-19Q205-19 113.50 74.50Q22 168 22 291Q22 419 112.50 509.50Q203 600 364 600Q524 600 617 508.50Q710 417 710 291M234 648L176 706L330 857L371 857L518 706L462 650L352 763L234 648M455 291Q455 339 431 371Q409 405 364 405Q323 405 299 371.50Q275 338 275 291Q275 266 280 248Q285 230 299 212Q322 178 364 178Q406 178 430.50 211.50Q455 245 455 291Z"  horiz-adv-x="739" vert-adv-y="1204"  />

      
      <glyph glyph-name="unif6" unicode="&#xf6;" d="M710 291Q710 167 619.50 74Q529-19 364-19Q205-19 113.50 74.50Q22 168 22 291Q22 419 112.50 509.50Q203 600 364 600Q524 600 617 508.50Q710 417 710 291M87 759Q87 804 119.50 839Q152 874 200 874Q247 874 281 839Q315 807 315 759Q315 711 281.50 678Q248 645 200 645Q154 645 119 678Q87 712 87 759M397 759Q397 804 429.50 839Q462 874 510 874Q557 874 591 839Q626 807 626 759Q626 712 592 678.50Q558 645 510 645Q465 645 431 678Q397 711 397 759M455 291Q455 339 431 371Q409 405 364 405Q323 405 299 371.50Q275 338 275 291Q275 266 280 248Q285 230 299 212Q322 178 364 178Q406 178 430.50 211.50Q455 245 455 291Z"  horiz-adv-x="739" vert-adv-y="1204"  />

      
      <glyph glyph-name="unif5" unicode="&#xf5;" d="M710 291Q710 167 619.50 74Q529-19 364-19Q205-19 113.50 74.50Q22 168 22 291Q22 419 112.50 509.50Q203 600 364 600Q524 600 617 508.50Q710 417 710 291M287 751Q252 751 230 740Q208 729 201.50 723.50Q195 718 178 701L140 749Q166 778 202 801Q241 824 287 824Q319 824 373.50 797.50Q428 771 465 771Q488 771 498 772.50Q508 774 526 782Q544 790 561 807L604 756Q573 720 538.50 708Q504 696 467 696Q445 696 422 702.50Q399 709 357.50 730Q316 751 287 751M455 291Q455 339 431 371Q409 405 364 405Q323 405 299 371.50Q275 338 275 291Q275 266 280 248Q285 230 299 212Q322 178 364 178Q406 178 430.50 211.50Q455 245 455 291Z"  horiz-adv-x="739" vert-adv-y="1204"  />

      
      </font>
</defs>
</svg>
