<svg width="20" height="20" viewBox="0 0 20 20" fill="none" xmlns="http://www.w3.org/2000/svg">
<path fill-rule="evenodd" clip-rule="evenodd" d="M10 1.3999C10.1592 1.3999 10.3118 1.46312 10.4243 1.57564C10.5368 1.68816 10.6 1.84077 10.6 1.9999V2.7999C10.6 2.95903 10.5368 3.11164 10.4243 3.22417C10.3118 3.33669 10.1592 3.3999 10 3.3999C9.84089 3.3999 9.68828 3.33669 9.57576 3.22417C9.46324 3.11164 9.40002 2.95903 9.40002 2.7999V1.9999C9.40002 1.84077 9.46324 1.68816 9.57576 1.57564C9.68828 1.46312 9.84089 1.3999 10 1.3999ZM3.91922 3.9191C4.03172 3.80674 4.18422 3.74363 4.34322 3.74363C4.50222 3.74363 4.65472 3.80674 4.76722 3.9191L5.08162 4.2327C5.19097 4.34581 5.25152 4.49734 5.25023 4.65466C5.24894 4.81198 5.18591 4.9625 5.07471 5.0738C4.96352 5.1851 4.81306 5.24827 4.65575 5.24971C4.49843 5.25115 4.34684 5.19074 4.23362 5.0815L3.91922 4.7671C3.80686 4.6546 3.74375 4.5021 3.74375 4.3431C3.74375 4.1841 3.80686 4.0316 3.91922 3.9191ZM16.0808 3.9191C16.1932 4.0316 16.2563 4.1841 16.2563 4.3431C16.2563 4.5021 16.1932 4.6546 16.0808 4.7671L15.7664 5.0815C15.6527 5.18749 15.5022 5.24518 15.3468 5.24244C15.1914 5.2397 15.0431 5.17673 14.9331 5.0668C14.8232 4.95687 14.7602 4.80856 14.7575 4.65312C14.7547 4.49768 14.8124 4.34724 14.9184 4.2335L15.2328 3.9191C15.3453 3.80674 15.4978 3.74363 15.6568 3.74363C15.8158 3.74363 15.9683 3.80674 16.0808 3.9191ZM10 5.7999C8.88611 5.7999 7.81783 6.2424 7.03018 7.03005C6.24252 7.81771 5.80002 8.88599 5.80002 9.9999C5.80002 11.1138 6.24252 12.1821 7.03018 12.9698C7.81783 13.7574 8.88611 14.1999 10 14.1999C11.1139 14.1999 12.1822 13.7574 12.9699 12.9698C13.7575 12.1821 14.2 11.1138 14.2 9.9999C14.2 8.88599 13.7575 7.81771 12.9699 7.03005C12.1822 6.2424 11.1139 5.7999 10 5.7999ZM4.60002 9.9999C4.60002 8.56773 5.16895 7.19422 6.18165 6.18153C7.19434 5.16883 8.56785 4.5999 10 4.5999C11.4322 4.5999 12.8057 5.16883 13.8184 6.18153C14.8311 7.19422 15.4 8.56773 15.4 9.9999C15.4 11.4321 14.8311 12.8056 13.8184 13.8183C12.8057 14.831 11.4322 15.3999 10 15.3999C8.56785 15.3999 7.19434 14.831 6.18165 13.8183C5.16895 12.8056 4.60002 11.4321 4.60002 9.9999ZM1.40002 9.9999C1.40002 9.84077 1.46324 9.68816 1.57576 9.57564C1.68828 9.46312 1.84089 9.3999 2.00002 9.3999H2.80002C2.95915 9.3999 3.11177 9.46312 3.22429 9.57564C3.33681 9.68816 3.40002 9.84077 3.40002 9.9999C3.40002 10.159 3.33681 10.3116 3.22429 10.4242C3.11177 10.5367 2.95915 10.5999 2.80002 10.5999H2.00002C1.84089 10.5999 1.68828 10.5367 1.57576 10.4242C1.46324 10.3116 1.40002 10.159 1.40002 9.9999ZM16.6 9.9999C16.6 9.84077 16.6632 9.68816 16.7758 9.57564C16.8883 9.46312 17.0409 9.3999 17.2 9.3999H18C18.1592 9.3999 18.3118 9.46312 18.4243 9.57564C18.5368 9.68816 18.6 9.84077 18.6 9.9999C18.6 10.159 18.5368 10.3116 18.4243 10.4242C18.3118 10.5367 18.1592 10.5999 18 10.5999H17.2C17.0409 10.5999 16.8883 10.5367 16.7758 10.4242C16.6632 10.3116 16.6 10.159 16.6 9.9999ZM14.9184 14.9183C15.0309 14.8059 15.1834 14.7428 15.3424 14.7428C15.5014 14.7428 15.6539 14.8059 15.7664 14.9183L16.0808 15.2327C16.1398 15.2876 16.1871 15.3539 16.2198 15.4275C16.2526 15.5011 16.2703 15.5805 16.2717 15.6611C16.2731 15.7416 16.2583 15.8217 16.2281 15.8964C16.1979 15.9711 16.153 16.039 16.0961 16.0959C16.0391 16.1529 15.9712 16.1978 15.8965 16.228C15.8218 16.2582 15.7418 16.273 15.6612 16.2716C15.5806 16.2702 15.5012 16.2525 15.4276 16.2197C15.354 16.1869 15.2878 16.1397 15.2328 16.0807L14.9184 15.7663C14.8061 15.6538 14.743 15.5013 14.743 15.3423C14.743 15.1833 14.8061 15.0308 14.9184 14.9183ZM5.08162 14.9183C5.19398 15.0308 5.2571 15.1833 5.2571 15.3423C5.2571 15.5013 5.19398 15.6538 5.08162 15.7663L4.76722 16.0807C4.71229 16.1397 4.64605 16.1869 4.57245 16.2197C4.49886 16.2525 4.4194 16.2702 4.33884 16.2716C4.25828 16.273 4.17826 16.2582 4.10355 16.228C4.02884 16.1978 3.96097 16.1529 3.90399 16.0959C3.84702 16.039 3.8021 15.9711 3.77193 15.8964C3.74175 15.8217 3.72693 15.7416 3.72835 15.6611C3.72977 15.5805 3.74741 15.5011 3.7802 15.4275C3.81299 15.3539 3.86028 15.2876 3.91922 15.2327L4.23282 14.9183C4.28854 14.8625 4.35471 14.8183 4.42753 14.7881C4.50035 14.758 4.5784 14.7424 4.65722 14.7424C4.73605 14.7424 4.8141 14.758 4.88692 14.7881C4.95974 14.8183 5.0259 14.8625 5.08162 14.9183ZM10 16.5999C10.1592 16.5999 10.3118 16.6631 10.4243 16.7756C10.5368 16.8882 10.6 17.0408 10.6 17.1999V17.9999C10.6 18.159 10.5368 18.3116 10.4243 18.4242C10.3118 18.5367 10.1592 18.5999 10 18.5999C9.84089 18.5999 9.68828 18.5367 9.57576 18.4242C9.46324 18.3116 9.40002 18.159 9.40002 17.9999V17.1999C9.40002 17.0408 9.46324 16.8882 9.57576 16.7756C9.68828 16.6631 9.84089 16.5999 10 16.5999Z" fill="#F5F7FF"/>
</svg>
