<svg width="12" height="12" viewBox="0 0 12 12" fill="none" xmlns="http://www.w3.org/2000/svg">
<path fill-rule="evenodd" clip-rule="evenodd" d="M5.99998 1.1626C6.08949 1.1626 6.17533 1.19816 6.23862 1.26145C6.30192 1.32474 6.33748 1.41059 6.33748 1.5001V1.9501C6.33748 2.03961 6.30192 2.12545 6.23862 2.18875C6.17533 2.25204 6.08949 2.2876 5.99998 2.2876C5.91046 2.2876 5.82462 2.25204 5.76133 2.18875C5.69803 2.12545 5.66248 2.03961 5.66248 1.9501V1.5001C5.66248 1.41059 5.69803 1.32474 5.76133 1.26145C5.82462 1.19816 5.91046 1.1626 5.99998 1.1626ZM2.57953 2.57965C2.64281 2.51644 2.72859 2.48094 2.81803 2.48094C2.90746 2.48094 2.99324 2.51644 3.05653 2.57965L3.23338 2.75605C3.29488 2.81967 3.32894 2.90491 3.32822 2.9934C3.32749 3.08189 3.29203 3.16656 3.22949 3.22916C3.16694 3.29177 3.08231 3.3273 2.99382 3.32811C2.90533 3.32892 2.82006 3.29495 2.75638 3.2335L2.57953 3.05665C2.51632 2.99337 2.48082 2.90759 2.48082 2.81815C2.48082 2.72871 2.51632 2.64293 2.57953 2.57965ZM9.42042 2.57965C9.48363 2.64293 9.51913 2.72871 9.51913 2.81815C9.51913 2.90759 9.48363 2.99337 9.42042 3.05665L9.24358 3.2335C9.1796 3.29311 9.09497 3.32557 9.00754 3.32403C8.9201 3.32248 8.83668 3.28706 8.77485 3.22523C8.71301 3.16339 8.67759 3.07997 8.67605 2.99253C8.6745 2.9051 8.70696 2.82048 8.76658 2.7565L8.94343 2.57965C9.00671 2.51644 9.09249 2.48094 9.18192 2.48094C9.27136 2.48094 9.35714 2.51644 9.42042 2.57965ZM5.99998 3.6376C5.3734 3.6376 4.77249 3.8865 4.32944 4.32956C3.88638 4.77261 3.63748 5.37352 3.63748 6.0001C3.63748 6.62667 3.88638 7.22758 4.32944 7.67064C4.77249 8.11369 5.3734 8.3626 5.99998 8.3626C6.62655 8.3626 7.22746 8.11369 7.67052 7.67064C8.11357 7.22758 8.36247 6.62667 8.36247 6.0001C8.36247 5.37352 8.11357 4.77261 7.67052 4.32956C7.22746 3.8865 6.62655 3.6376 5.99998 3.6376ZM2.96248 6.0001C2.96248 5.1945 3.2825 4.4219 3.85214 3.85226C4.42178 3.28262 5.19438 2.9626 5.99998 2.9626C6.80557 2.9626 7.57817 3.28262 8.14781 3.85226C8.71745 4.4219 9.03747 5.1945 9.03747 6.0001C9.03747 6.80569 8.71745 7.57829 8.14781 8.14793C7.57817 8.71758 6.80557 9.0376 5.99998 9.0376C5.19438 9.0376 4.42178 8.71758 3.85214 8.14793C3.2825 7.57829 2.96248 6.80569 2.96248 6.0001ZM1.16248 6.0001C1.16248 5.91059 1.19803 5.82474 1.26133 5.76145C1.32462 5.69816 1.41047 5.6626 1.49998 5.6626H1.94998C2.03949 5.6626 2.12533 5.69816 2.18862 5.76145C2.25192 5.82474 2.28748 5.91059 2.28748 6.0001C2.28748 6.08961 2.25192 6.17545 2.18862 6.23875C2.12533 6.30204 2.03949 6.3376 1.94998 6.3376H1.49998C1.41047 6.3376 1.32462 6.30204 1.26133 6.23875C1.19803 6.17545 1.16248 6.08961 1.16248 6.0001ZM9.71247 6.0001C9.71247 5.91059 9.74803 5.82474 9.81133 5.76145C9.87462 5.69816 9.96046 5.6626 10.05 5.6626H10.5C10.5895 5.6626 10.6753 5.69816 10.7386 5.76145C10.8019 5.82474 10.8375 5.91059 10.8375 6.0001C10.8375 6.08961 10.8019 6.17545 10.7386 6.23875C10.6753 6.30204 10.5895 6.3376 10.5 6.3376H10.05C9.96046 6.3376 9.87462 6.30204 9.81133 6.23875C9.74803 6.17545 9.71247 6.08961 9.71247 6.0001ZM8.76658 8.7667C8.82986 8.70349 8.91564 8.66799 9.00507 8.66799C9.09451 8.66799 9.18029 8.70349 9.24358 8.7667L9.42042 8.94355C9.45358 8.97444 9.48018 9.0117 9.49863 9.0531C9.51707 9.0945 9.52699 9.1392 9.52779 9.18451C9.52859 9.22983 9.52025 9.27484 9.50328 9.31687C9.48631 9.35889 9.46104 9.39707 9.42899 9.42911C9.39694 9.46116 9.35877 9.48643 9.31674 9.5034C9.27472 9.52038 9.22971 9.52871 9.18439 9.52791C9.13907 9.52711 9.09438 9.51719 9.05298 9.49875C9.01158 9.4803 8.97432 9.45371 8.94343 9.42055L8.76658 9.2437C8.70337 9.18042 8.66787 9.09463 8.66787 9.0052C8.66787 8.91576 8.70337 8.82998 8.76658 8.7667ZM3.23338 8.7667C3.29658 8.82998 3.33208 8.91576 3.33208 9.0052C3.33208 9.09463 3.29658 9.18042 3.23338 9.2437L3.05653 9.42055C3.02563 9.45371 2.98837 9.4803 2.94697 9.49875C2.90557 9.51719 2.86088 9.52711 2.81556 9.52791C2.77024 9.52871 2.72523 9.52038 2.68321 9.5034C2.64118 9.48643 2.60301 9.46116 2.57096 9.42911C2.53891 9.39707 2.51364 9.35889 2.49667 9.31687C2.4797 9.27484 2.47136 9.22983 2.47216 9.18451C2.47296 9.1392 2.48288 9.0945 2.50132 9.0531C2.51977 9.0117 2.54637 8.97444 2.57953 8.94355L2.75593 8.7667C2.78727 8.73533 2.82448 8.71045 2.86544 8.69348C2.90641 8.67651 2.95031 8.66777 2.99465 8.66777C3.03899 8.66777 3.08289 8.67651 3.12386 8.69348C3.16482 8.71045 3.20203 8.73533 3.23338 8.7667ZM5.99998 9.7126C6.08949 9.7126 6.17533 9.74815 6.23862 9.81145C6.30192 9.87474 6.33748 9.96059 6.33748 10.0501V10.5001C6.33748 10.5896 6.30192 10.6755 6.23862 10.7387C6.17533 10.802 6.08949 10.8376 5.99998 10.8376C5.91046 10.8376 5.82462 10.802 5.76133 10.7387C5.69803 10.6755 5.66248 10.5896 5.66248 10.5001V10.0501C5.66248 9.96059 5.69803 9.87474 5.76133 9.81145C5.82462 9.74815 5.91046 9.7126 5.99998 9.7126Z" fill="#F5F7FF"/>
</svg>
