<svg width="96" height="86" viewBox="0 0 96 86" fill="none" xmlns="http://www.w3.org/2000/svg">
<g id="noun-data-analysis-5762897">
<path id="Vector" d="M57.4554 61.0805V49.0029C57.5224 47.9542 57.5224 46.9023 57.4554 45.8536V30.6122C57.4554 30.3063 57.3333 30.0129 57.116 29.7964C56.8987 29.58 56.6039 29.4582 56.2964 29.4579H49.8832C48.1063 27.7263 46.0808 26.267 43.873 25.1276L49.1431 19.3063C49.9391 19.7286 50.8461 19.8984 51.742 19.793C52.6379 19.6875 53.48 19.3118 54.1551 18.7164L62.9519 24.7339C62.7707 25.2194 62.6755 25.7326 62.6707 26.2505C62.6707 27.45 63.1496 28.6004 64.0021 29.4486C64.8546 30.2968 66.0108 30.7733 67.2164 30.7733C68.4221 30.7733 69.5783 30.2968 70.4308 29.4486C71.2833 28.6004 71.7622 27.45 71.7622 26.2505C71.758 25.2503 71.4178 24.2803 70.7956 23.4948L81.4758 9.58583C82.5124 10.0342 83.6779 10.0909 84.7536 9.74525C85.8293 9.39962 86.7413 8.67543 87.3186 7.70847C87.896 6.74151 88.0989 5.59821 87.8895 4.49298C87.68 3.38775 87.0725 2.39651 86.1809 1.70515C85.2893 1.01378 84.1748 0.669791 83.0465 0.737676C81.9182 0.805561 80.8535 1.28066 80.0521 2.07388C79.2507 2.8671 78.7677 3.92395 78.6936 5.04624C78.6195 6.16853 78.9594 7.27917 79.6497 8.16986L68.9646 22.0764C68.1894 21.7521 67.3382 21.6512 66.5081 21.7853C65.6781 21.9194 64.9026 22.283 64.2704 22.8347L55.4735 16.8171C55.655 16.3316 55.7506 15.8185 55.7559 15.3006C55.758 14.595 55.5941 13.8988 55.2775 13.2675C54.9608 12.6362 54.5001 12.0873 53.9323 11.6647C53.3644 11.2422 52.7051 10.9576 52.007 10.8338C51.3088 10.7099 50.5913 10.7503 49.9116 10.9516C49.232 11.1529 48.6091 11.5096 48.0927 11.9932C47.5763 12.4767 47.1808 13.0737 46.9376 13.7365C46.6945 14.3993 46.6105 15.1095 46.6925 15.8103C46.7744 16.5112 47.02 17.1832 47.4095 17.7728L41.6671 24.121C37.7608 22.5569 33.5234 21.9898 29.3406 22.4714C25.1579 22.9531 21.1626 24.4681 17.7187 26.8787C14.2748 29.2892 11.4917 32.5186 9.62277 36.2728C7.75382 40.027 6.85845 44.1867 7.01817 48.3732C7.17789 52.5597 8.38765 56.64 10.5373 60.2424C12.6869 63.8448 15.7081 66.855 19.3257 68.9988C22.9434 71.1427 27.0425 72.352 31.25 72.5167C35.4574 72.6815 39.6394 71.7964 43.4152 69.9421L56.2879 82.7537C57.8197 84.2139 59.8653 85.0191 61.9866 84.997C64.1078 84.9748 66.136 84.1269 67.6365 82.635C69.1371 81.143 69.9908 79.1257 70.0147 77.0152C70.0385 74.9046 69.2307 72.8687 67.7643 71.3435L57.4554 61.0805ZM83.2251 3.19761C83.6655 3.19761 84.096 3.32754 84.4622 3.57097C84.8283 3.81441 85.1137 4.1604 85.2823 4.56522C85.4508 4.97003 85.4949 5.41548 85.409 5.84522C85.323 6.27497 85.111 6.66972 84.7996 6.97955C84.4882 7.28938 84.0914 7.50038 83.6595 7.58586C83.2276 7.67134 82.7799 7.62747 82.3731 7.45979C81.9662 7.29211 81.6184 7.00816 81.3738 6.64383C81.1291 6.27951 80.9985 5.85118 80.9985 5.41302C80.9988 4.82555 81.2335 4.26224 81.651 3.84684C82.0685 3.43144 82.6347 3.19793 83.2251 3.19761ZM67.2164 24.0314C67.6568 24.0314 68.0873 24.1613 68.4535 24.4048C68.8196 24.6482 69.105 24.9942 69.2736 25.399C69.4421 25.8038 69.4862 26.2493 69.4003 26.679C69.3144 27.1088 69.1023 27.5035 68.7909 27.8134C68.4795 28.1232 68.0828 28.3342 67.6508 28.4197C67.2189 28.5051 66.7712 28.4613 66.3644 28.2936C65.9575 28.1259 65.6098 27.842 65.3651 27.4776C65.1204 27.1133 64.9898 26.685 64.9898 26.2468C64.9918 25.6602 65.2271 25.0982 65.6443 24.6837C66.0616 24.2692 66.6268 24.036 67.2164 24.035V24.0314ZM51.2078 13.0816C51.6481 13.0816 52.0786 13.2115 52.4448 13.4549C52.811 13.6983 53.0963 14.0443 53.2649 14.4492C53.4334 14.854 53.4775 15.2994 53.3916 15.7292C53.3057 16.1589 53.0936 16.5537 52.7822 16.8635C52.4708 17.1733 52.0741 17.3843 51.6421 17.4698C51.2102 17.5553 50.7625 17.5114 50.3557 17.3437C49.9488 17.1761 49.6011 16.8921 49.3564 16.5278C49.1117 16.1635 48.9811 15.7351 48.9811 15.297C48.9824 14.7098 49.2174 14.147 49.6347 13.7318C50.052 13.3167 50.6176 13.0828 51.2078 13.0816ZM55.1363 60.1877H47.2817V31.7666H55.1363V60.1877ZM39.13 60.1877H31.2742V48.6601H39.13V60.1877ZM40.289 46.3514H30.114C29.9617 46.3514 29.8109 46.3813 29.6702 46.4393C29.5295 46.4974 29.4017 46.5824 29.2941 46.6896C29.1864 46.7968 29.1011 46.9241 29.0429 47.0641C28.9848 47.2042 28.9549 47.3542 28.9551 47.5058V61.3433C28.9551 61.6492 29.0771 61.9427 29.2944 62.1591C29.5117 62.3756 29.8065 62.4973 30.114 62.4976H35.7968C33.7159 62.9841 31.5566 63.0386 29.4536 62.6577C27.3506 62.2769 25.349 61.469 23.5738 60.2843C21.7986 59.0995 20.2878 57.5635 19.1358 55.7721C17.9838 53.9806 17.2151 51.9721 16.8779 49.8719C16.5407 47.7718 16.6422 45.625 17.1759 43.5656C17.7097 41.5062 18.6642 39.5783 19.9801 37.9022C21.296 36.2262 22.945 34.838 24.824 33.8242C26.7031 32.8104 28.772 32.1929 30.9017 32.01C30.7454 32.462 30.6632 32.936 30.6582 33.4139C30.6581 34.5744 31.1075 35.6902 31.9129 36.5296C32.7182 37.369 33.8177 37.8674 34.9827 37.9212C36.1478 37.975 37.2889 37.58 38.169 36.8185C39.049 36.0569 39.6003 34.9873 39.7083 33.8318C41.0185 34.5365 42.2199 35.4254 43.2752 36.4711C43.8941 37.093 44.4597 37.7652 44.9662 38.4806V56.3747C44.4594 57.0903 43.8938 57.7628 43.2752 58.3854C42.7071 58.9418 42.0966 59.4537 41.4491 59.9164V47.5058C41.4493 47.3541 41.4194 47.204 41.3612 47.0638C41.3029 46.9237 41.2175 46.7964 41.1097 46.6892C41.0019 46.582 40.874 46.4969 40.7331 46.439C40.5923 46.381 40.4414 46.3513 40.289 46.3514ZM37.4281 33.4139C37.4283 33.8524 37.2979 34.2811 37.0531 34.6458C36.8084 35.0105 36.4605 35.2948 36.0534 35.4628C35.6463 35.6307 35.1982 35.6747 34.7659 35.5892C34.3337 35.5037 33.9366 35.2926 33.625 34.9825C33.3133 34.6724 33.1011 34.2773 33.0152 33.8472C32.9293 33.4172 32.9735 32.9714 33.1423 32.5663C33.311 32.1612 33.5968 31.815 33.9633 31.5715C34.3299 31.3281 34.7608 31.1982 35.2015 31.1985C35.7917 31.1994 36.3575 31.4332 36.7749 31.8484C37.1922 32.2637 37.4271 32.8266 37.4281 33.4139ZM46.3479 29.4579H46.1215C45.814 29.4582 45.5192 29.58 45.3019 29.7964C45.0846 30.0129 44.9625 30.3063 44.9625 30.6122V34.8928C44.9455 34.8759 44.9297 34.8565 44.9126 34.8396C43.2261 33.1614 41.2167 31.839 39.0046 30.9514C38.9486 30.8654 38.8829 30.7891 38.8208 30.7091L42.2453 26.9263C43.6992 27.6231 45.0744 28.4718 46.3479 29.4579ZM16.0471 63.5611C12.3604 59.9011 10.0374 55.1002 9.46111 49.9502C8.88483 44.8002 10.0897 39.6085 12.877 35.2313C15.6643 30.8541 19.8677 27.5526 24.794 25.8714C29.7202 24.1901 35.0753 24.2294 39.9761 25.9828L37.0044 29.2653C36.3111 28.9647 35.5529 28.8421 34.7995 28.9087C34.0461 28.9754 33.3216 29.2292 32.6924 29.6469C29.7352 29.5779 26.807 30.2401 24.1701 31.5739C21.5333 32.9077 19.2702 34.8716 17.5837 37.2895C15.8972 39.7075 14.8399 42.5039 14.5066 45.4283C14.1733 48.3528 14.5743 51.3138 15.6738 54.0461C16.7734 56.7784 18.537 59.1966 20.8067 61.084C23.0763 62.9715 25.7812 64.2692 28.6789 64.8609C31.5765 65.4526 34.5764 65.3198 37.4098 64.4744C40.2432 63.6291 42.8216 62.0975 44.9138 60.017C44.9309 60 44.9455 59.9806 44.9625 59.9637V61.3433C44.9625 61.6492 45.0846 61.9427 45.3019 62.1591C45.5192 62.3756 45.814 62.4973 46.1215 62.4976H49.4584C49.1394 62.861 48.818 63.2183 48.4759 63.5611C44.1716 67.8324 38.3406 70.231 32.2615 70.231C26.1824 70.231 20.3514 67.8324 16.0471 63.5611ZM66.1232 81.1245C65.0339 82.2005 63.5611 82.8044 62.0261 82.8044C60.4911 82.8044 59.0183 82.2005 57.929 81.1245L45.5225 68.7781C47.1876 67.7634 48.7286 66.5599 50.1145 65.1915C50.952 64.3494 51.7297 63.4505 52.4422 62.5013H55.5977L66.1232 72.9727C67.2047 74.0566 67.8116 75.5219 67.8116 77.0492C67.8116 78.5765 67.2047 80.0406 66.1232 81.1245ZM72.3051 39.2752H62.1302C61.8228 39.2752 61.528 39.3967 61.3107 39.613C61.0933 39.8292 60.9712 40.1225 60.9712 40.4283V61.3433C60.9712 61.6492 61.0933 61.9427 61.3106 62.1591C61.5279 62.3756 61.8227 62.4973 62.1302 62.4976H72.3051C72.6126 62.4973 72.9074 62.3756 73.1247 62.1591C73.342 61.9427 73.4641 61.6492 73.4641 61.3433V40.4259C73.4641 40.1201 73.342 39.8268 73.1246 39.6105C72.9073 39.3943 72.6125 39.2728 72.3051 39.2728V39.2752ZM71.145 60.1877H63.2904V41.5803H71.145V60.1877ZM88.3102 17.3912H78.1377C77.9853 17.3911 77.8343 17.4208 77.6935 17.4788C77.5527 17.5367 77.4247 17.6218 77.3169 17.729C77.2092 17.8362 77.1237 17.9635 77.0655 18.1036C77.0072 18.2438 76.9773 18.3939 76.9775 18.5456V61.3433C76.9775 61.6495 77.0997 61.9431 77.3173 62.1595C77.5349 62.376 77.83 62.4976 78.1377 62.4976H88.3126C88.6201 62.4973 88.9149 62.3756 89.1322 62.1591C89.3495 61.9427 89.4716 61.6492 89.4716 61.3433V18.5456C89.4717 18.3941 89.4419 18.244 89.3837 18.1039C89.3255 17.9639 89.2402 17.8366 89.1326 17.7294C89.0249 17.6222 88.8971 17.5372 88.7564 17.4791C88.6157 17.4211 88.4649 17.3912 88.3126 17.3912H88.3102ZM87.1524 60.1877H79.2966V19.6987H87.1524V60.1877ZM24.0271 76.7143H8.76462C8.45692 76.7143 8.16183 76.8359 7.94425 77.0524C7.72668 77.2689 7.60445 77.5625 7.60445 77.8686V83.9552C7.60429 84.1069 7.63418 84.2572 7.69241 84.3974C7.75064 84.5376 7.83608 84.6649 7.94382 84.7723C8.05157 84.8796 8.17952 84.9647 8.32036 85.0228C8.4612 85.0809 8.61216 85.1108 8.76462 85.1108H24.0271C24.1794 85.1106 24.3302 85.0806 24.4709 85.0225C24.6116 84.9643 24.7394 84.8791 24.8471 84.7718C24.9547 84.6645 25.04 84.5372 25.0982 84.3971C25.1563 84.257 25.1862 84.1068 25.186 83.9552V77.8686C25.186 77.5627 25.0639 77.2693 24.8466 77.0528C24.6293 76.8364 24.3345 76.7146 24.0271 76.7143ZM22.8669 82.8009H9.92358V79.023H22.8669V82.8009ZM27.958 78.4791C27.958 78.173 28.0802 77.8793 28.2978 77.6629C28.5154 77.4464 28.8105 77.3248 29.1182 77.3248H36.4152C36.7229 77.3248 37.018 77.4464 37.2356 77.6629C37.4532 77.8793 37.5754 78.173 37.5754 78.4791C37.5754 78.7853 37.4532 79.0789 37.2356 79.2953C37.018 79.5118 36.7229 79.6334 36.4152 79.6334H29.1182C28.8105 79.6334 28.5154 79.5118 28.2978 79.2953C28.0802 79.0789 27.958 78.7853 27.958 78.4791ZM47.2792 83.3448C47.2792 83.6509 47.157 83.9445 46.9394 84.161C46.7218 84.3775 46.4268 84.4991 46.1191 84.4991H29.1182C28.8168 84.4894 28.5311 84.3635 28.3214 84.1479C28.1116 83.9324 27.9944 83.6442 27.9944 83.3442C27.9944 83.0442 28.1116 82.7559 28.3214 82.5404C28.5311 82.3249 28.8168 82.1989 29.1182 82.1892H46.1191C46.2715 82.1892 46.4225 82.2191 46.5633 82.2772C46.7042 82.3353 46.8321 82.4204 46.9398 82.5277C47.0476 82.6351 47.133 82.7625 47.1913 82.9026C47.2495 83.0428 47.2794 83.1931 47.2792 83.3448ZM7.60445 13.663C7.60445 13.5114 7.63446 13.3614 7.69278 13.2214C7.7511 13.0814 7.83658 12.9542 7.94433 12.8471C8.05208 12.7401 8.17998 12.6551 8.32073 12.5973C8.46148 12.5394 8.61232 12.5097 8.76462 12.5098H27.2239C27.3794 12.5048 27.5342 12.531 27.6793 12.5867C27.8244 12.6424 27.9567 12.7266 28.0685 12.8342C28.1802 12.9418 28.2691 13.0707 28.3297 13.2132C28.3904 13.3557 28.4217 13.5088 28.4217 13.6636C28.4217 13.8183 28.3904 13.9715 28.3297 14.1139C28.2691 14.2564 28.1802 14.3853 28.0685 14.4929C27.9567 14.6005 27.8244 14.6847 27.6793 14.7405C27.5342 14.7962 27.3794 14.8223 27.2239 14.8173H8.76462C8.61222 14.8175 8.46128 14.7877 8.32045 14.7298C8.17962 14.6718 8.05166 14.5868 7.9439 14.4796C7.83613 14.3723 7.75068 14.245 7.69243 14.1049C7.63419 13.9648 7.60429 13.8146 7.60445 13.663ZM7.60445 7.4855C7.60445 7.17935 7.72668 6.88574 7.94425 6.66926C8.16183 6.45278 8.45692 6.33116 8.76462 6.33116H27.2239C27.5316 6.33116 27.8267 6.45278 28.0443 6.66926C28.2619 6.88574 28.3841 7.17935 28.3841 7.4855C28.3841 7.79165 28.2619 8.08526 28.0443 8.30174C27.8267 8.51822 27.5316 8.63983 27.2239 8.63983H8.76462C8.45798 8.63984 8.1638 8.51905 7.9464 8.30388C7.729 8.08871 7.60606 7.79665 7.60445 7.49155V7.4855Z" fill="#5989FF"/>
</g>
</svg>
