<svg width="96" height="86" viewBox="0 0 96 86" fill="none" xmlns="http://www.w3.org/2000/svg">
<g id="noun-project-management-5762880" clip-path="url(#clip0_637_1716)">
<path id="Vector" d="M68.3372 3.88132H58.4703V3.06251C58.4693 2.25037 58.1313 1.47179 57.5305 0.897636C56.9298 0.323482 56.1153 0.000654622 55.2659 0H37.3238C36.4746 0.000981971 35.6605 0.323954 35.06 0.898072C34.4595 1.47219 34.1217 2.25058 34.1207 3.06251V3.88132H24.2512C22.7594 3.88263 21.3292 4.44978 20.2744 5.45829C19.2195 6.4668 18.6263 7.83425 18.625 9.26049V54.331L16.766 53.4269L12.1333 57.8561L13.4089 60.2507C12.6395 61.5011 12.0561 62.8478 11.6753 64.252L9 65.0844V71.348L11.6753 72.1804C12.0561 73.5846 12.6395 74.9313 13.4089 76.1817L12.1333 78.5775L16.766 83.0068L19.2731 81.7872C20.5808 82.5238 21.9899 83.0817 23.4595 83.4446L24.3262 86H30.8748L31.7468 83.4446C33.2155 83.0811 34.6237 82.5228 35.9305 81.786L38.4377 83.0068L43.0729 78.5775L41.7948 76.1804C42.5652 74.9305 43.1491 73.5837 43.5296 72.1792L46.2036 71.3492V69.3517H68.3372C69.8291 69.3503 71.2594 68.7832 72.3145 67.7748C73.3695 66.7663 73.963 65.3988 73.9647 63.9725V9.26049C73.963 7.83414 73.3695 6.46669 72.3145 5.45821C71.2594 4.44974 69.8291 3.88263 68.3372 3.88132ZM36.5864 3.06251C36.5888 2.8761 36.6672 2.69795 36.8049 2.56602C36.9427 2.43409 37.1289 2.35882 37.3238 2.35625H55.2659C55.4609 2.35881 55.6473 2.43404 55.7852 2.56594C55.9232 2.69784 56.0019 2.87599 56.0046 3.06251V7.05514C56.0019 7.24177 55.9232 7.42006 55.7853 7.55216C55.6474 7.68425 55.4611 7.75976 55.2659 7.76264H37.3238C37.2268 7.76247 37.1308 7.74405 37.0412 7.7084C36.9517 7.67276 36.8703 7.6206 36.8019 7.5549C36.7334 7.48921 36.6791 7.41126 36.6422 7.32551C36.6052 7.23976 36.5863 7.14789 36.5864 7.05514V3.06251ZM43.7405 69.6361L41.4325 70.3572L41.2851 71.019C40.9307 72.6087 40.2729 74.1224 39.3445 75.4841L38.9564 76.0568L40.06 78.1273L37.959 80.136L35.8025 79.0784L35.2009 79.4495C33.7765 80.3369 32.1934 80.9658 30.5307 81.3048L29.8321 81.4471L29.0896 83.6438H26.1141L25.365 81.4384L24.669 81.2974C23.0099 80.9587 21.43 80.3315 20.0079 79.447L19.4089 79.076L17.2498 80.1298L15.1424 78.1273L16.242 76.0605L15.8539 75.4915C14.9265 74.1284 14.2687 72.6141 13.9134 71.0239L13.7659 70.3585L11.4696 69.6374V66.7926L13.7763 66.0764L13.9237 65.411C14.2793 63.8208 14.9371 62.3065 15.8643 60.9434L16.2524 60.3744L15.1527 58.3076L17.2537 56.3001L19.4154 57.3515L20.0118 56.9804C21.4373 56.0935 23.0212 55.4646 24.6846 55.1251L25.3793 54.9829L26.1283 52.7775H29.1038L29.8399 54.9977L30.5385 55.1399C32.2012 55.4789 33.7843 56.1079 35.2087 56.9953L35.8063 57.3663L37.9668 56.3137L40.06 58.3113L38.9564 60.3756L39.3445 60.9483C40.273 62.31 40.9308 63.8237 41.2851 65.4134L41.4338 66.0789L43.7405 66.7963V69.6361ZM71.4964 63.9725C71.4957 64.7736 71.1627 65.5417 70.5705 66.1084C69.9782 66.6751 69.1751 66.9941 68.3372 66.9954H46.2062V65.0844L43.5309 64.252C43.1514 62.8477 42.5679 61.5013 41.7974 60.252L43.0755 57.8549L38.4403 53.4244L35.9344 54.6464C34.6267 53.9104 33.2182 53.3521 31.7494 52.9878L30.8748 50.4312H24.3262L23.4595 52.9878C22.65 53.1901 21.8581 53.4519 21.0907 53.7707V9.26049C21.0914 8.45918 21.4246 7.69085 22.0171 7.12412C22.6096 6.55739 23.4131 6.23855 24.2512 6.23757H34.1207V7.05514C34.1214 7.86728 34.459 8.64599 35.0595 9.22038C35.6601 9.79476 36.4744 10.1179 37.3238 10.1189H55.2659C56.1154 10.1179 56.9299 9.7948 57.5306 9.22045C58.1313 8.6461 58.4693 7.86739 58.4703 7.05514V6.23757H68.3372C69.1751 6.23888 69.9782 6.55786 70.5705 7.12456C71.1627 7.69125 71.4957 8.45939 71.4964 9.26049V63.9725ZM86.6324 48.9605C86.6324 48.9519 86.6324 48.9444 86.6324 48.9345V10.7806C86.6314 9.69127 86.1785 8.64678 85.3731 7.87626C84.5677 7.10575 83.4755 6.67211 82.3361 6.67047H80.5211C79.3817 6.67211 78.2895 7.10575 77.4841 7.87626C76.6787 8.64678 76.2258 9.69127 76.2248 10.7806V48.9432C76.229 49.0783 76.2574 49.2118 76.3089 49.3378C76.3216 49.3723 76.3363 49.4061 76.3528 49.4392C76.3628 49.468 76.3749 49.4961 76.3891 49.5233L80.3658 56.1109C80.4743 56.2899 80.63 56.4385 80.8175 56.5417C81.0049 56.645 81.2174 56.6994 81.4338 56.6994C81.6501 56.6994 81.8626 56.645 82.0501 56.5417C82.2375 56.4385 82.3933 56.2899 82.5017 56.1109L86.4772 49.5233C86.4927 49.4985 86.4979 49.4701 86.5121 49.4441C86.5302 49.4075 86.5462 49.3699 86.56 49.3316C86.6065 49.2126 86.6331 49.0874 86.6389 48.9605H86.6324ZM78.6905 14.8883H84.1744V47.757H78.6905V14.8883ZM78.6905 10.7806C78.6905 10.3162 78.8833 9.87079 79.2265 9.54217C79.5697 9.21356 80.0353 9.02862 80.5211 9.02796H82.3465C82.8317 9.02927 83.2967 9.2145 83.6394 9.54305C83.982 9.87159 84.1744 10.3166 84.1744 10.7806V12.532H78.6905V10.7806ZM81.4331 53.1634L79.5935 50.1133H83.2689L81.4331 53.1634ZM38.6369 17.1493H26.0041C25.8423 17.1491 25.682 17.1795 25.5324 17.2386C25.3829 17.2977 25.2469 17.3844 25.1324 17.4937C25.0179 17.6031 24.9271 17.733 24.8651 17.8759C24.8031 18.0188 24.7712 18.1721 24.7712 18.3268V30.4086C24.7712 30.5633 24.8031 30.7166 24.8651 30.8595C24.9271 31.0024 25.0179 31.1323 25.1324 31.2417C25.2469 31.351 25.3829 31.4377 25.5324 31.4968C25.682 31.5559 25.8423 31.5863 26.0041 31.5861H38.6369C38.7988 31.5863 38.959 31.5559 39.1086 31.4968C39.2582 31.4377 39.3941 31.351 39.5086 31.2417C39.6231 31.1323 39.7139 31.0024 39.7759 30.8595C39.8379 30.7166 39.8698 30.5633 39.8698 30.4086V18.3231C39.8688 18.0112 39.7384 17.7125 39.5072 17.4924C39.2761 17.2724 38.9631 17.149 38.6369 17.1493ZM37.404 29.2336H27.237V19.4994H37.4092L37.404 29.2336ZM28.5721 25.0653C28.4581 24.9542 28.3683 24.8227 28.3078 24.6783C28.2473 24.5339 28.2173 24.3795 28.2195 24.2239C28.2217 24.0684 28.2561 23.9148 28.3207 23.772C28.3853 23.6292 28.4788 23.5001 28.5958 23.392C28.7128 23.2839 28.8511 23.1991 29.0026 23.1423C29.1541 23.0856 29.3159 23.0581 29.4785 23.0614C29.6412 23.0647 29.8016 23.0988 29.9504 23.1617C30.0992 23.2245 30.2336 23.3149 30.3457 23.4277L31.4492 24.5198L34.2953 21.6923C34.408 21.5806 34.5427 21.4912 34.6915 21.4292C34.8404 21.3671 35.0006 21.3338 35.163 21.331C35.3253 21.3282 35.4867 21.356 35.6378 21.4128C35.7889 21.4696 35.9268 21.5543 36.0437 21.662C36.1606 21.7698 36.2541 21.8985 36.319 22.0409C36.3838 22.1832 36.4187 22.3364 36.4217 22.4916C36.4246 22.6468 36.3956 22.8011 36.3361 22.9455C36.2767 23.09 36.1881 23.2219 36.0754 23.3337L32.3367 27.0443C32.2217 27.1581 32.0839 27.2487 31.9316 27.3105C31.7792 27.3723 31.6154 27.4042 31.4499 27.4042C31.2844 27.4042 31.1205 27.3723 30.9682 27.3105C30.8158 27.2487 30.678 27.1581 30.5631 27.0443L28.5721 25.0653ZM43.5218 20.9947C43.5222 20.6823 43.6522 20.3828 43.8834 20.162C44.1146 19.9412 44.428 19.8172 44.7547 19.8172H54.5867C54.7519 19.8121 54.9164 19.8388 55.0706 19.8957C55.2248 19.9526 55.3654 20.0386 55.4842 20.1485C55.6029 20.2584 55.6973 20.39 55.7618 20.5355C55.8263 20.681 55.8595 20.8373 55.8595 20.9954C55.8595 21.1534 55.8263 21.3098 55.7618 21.4552C55.6973 21.6007 55.6029 21.7323 55.4842 21.8422C55.3654 21.9521 55.2248 22.0381 55.0706 22.095C54.9164 22.1519 54.7519 22.1786 54.5867 22.1735H44.7547C44.4282 22.1735 44.115 22.0496 43.8839 21.8291C43.6527 21.6086 43.5225 21.3094 43.5218 20.9972V20.9947ZM67.1043 27.732C67.1045 27.8868 67.0727 28.0402 67.0108 28.1833C66.9489 28.3264 66.8581 28.4564 66.7436 28.5659C66.6291 28.6754 66.4931 28.7622 66.3434 28.8213C66.1938 28.8805 66.0334 28.9109 65.8714 28.9107H44.7547C44.5851 28.9236 44.4145 28.9028 44.2538 28.8496C44.093 28.7964 43.9455 28.712 43.8205 28.6016C43.6955 28.4913 43.5957 28.3573 43.5275 28.2083C43.4593 28.0593 43.4241 27.8984 43.4241 27.7357C43.4241 27.573 43.4593 27.4121 43.5275 27.2631C43.5957 27.1141 43.6955 26.9802 43.8205 26.8698C43.9455 26.7594 44.093 26.675 44.2538 26.6218C44.4145 26.5686 44.5851 26.5478 44.7547 26.5607H65.8714C66.1976 26.5604 66.5106 26.6838 66.7418 26.9038C66.9729 27.1239 67.1033 27.4226 67.1043 27.7345V27.732ZM38.6434 33.669H26.0041C25.8423 33.6688 25.682 33.6992 25.5324 33.7583C25.3829 33.8174 25.2469 33.9041 25.1324 34.0135C25.0179 34.1228 24.9271 34.2527 24.8651 34.3956C24.8031 34.5386 24.7712 34.6918 24.7712 34.8465V46.932C24.7711 47.0869 24.8029 47.2402 24.8647 47.3833C24.9266 47.5264 25.0175 47.6564 25.132 47.7659C25.2465 47.8754 25.3825 47.9622 25.5321 48.0214C25.6818 48.0806 25.8422 48.1109 26.0041 48.1108H38.6369C38.7989 48.1109 38.9593 48.0806 39.1089 48.0214C39.2586 47.9622 39.3945 47.8754 39.5091 47.7659C39.6236 47.6564 39.7144 47.5264 39.7763 47.3833C39.8382 47.2402 39.87 47.0869 39.8698 46.932V34.8453C39.8698 34.6905 39.8379 34.5373 39.7759 34.3944C39.7139 34.2514 39.6231 34.1216 39.5086 34.0122C39.3941 33.9029 39.2582 33.8162 39.1086 33.757C38.959 33.6979 38.7988 33.6676 38.6369 33.6678L38.6434 33.669ZM37.4105 45.7545H27.237V36.024H37.4092L37.4105 45.7545ZM28.5721 41.59C28.3479 41.3646 28.226 41.0636 28.233 40.7526C28.2399 40.4416 28.3751 40.1459 28.6091 39.9298C28.8431 39.7138 29.157 39.5949 29.4823 39.5991C29.8076 39.6033 30.1179 39.7303 30.3457 39.9523L31.4492 41.0433L34.2953 38.2158C34.4064 38.0993 34.5408 38.0054 34.6905 37.9395C34.8402 37.8736 35.0022 37.837 35.1669 37.832C35.3316 37.827 35.4958 37.8536 35.6495 37.9102C35.8033 37.9669 35.9437 38.0525 36.0623 38.1619C36.1809 38.2713 36.2753 38.4024 36.3401 38.5473C36.4048 38.6922 36.4384 38.8481 36.439 39.0057C36.4397 39.1633 36.4072 39.3194 36.3437 39.4648C36.2801 39.6101 36.1867 39.7419 36.069 39.8522L32.3302 43.5628C32.2157 43.6767 32.0783 43.7673 31.9262 43.8291C31.7742 43.891 31.6106 43.9228 31.4453 43.9227C31.2797 43.9227 31.1158 43.8909 30.9633 43.829C30.8109 43.7672 30.673 43.6766 30.5579 43.5628L28.5721 41.59ZM43.5218 37.5182C43.5222 37.2058 43.6522 36.9063 43.8834 36.6855C44.1146 36.4647 44.428 36.3407 44.7547 36.3407H54.5867C54.7519 36.3355 54.9164 36.3622 55.0706 36.4191C55.2248 36.476 55.3654 36.562 55.4842 36.6719C55.6029 36.7818 55.6973 36.9134 55.7618 37.0589C55.8263 37.2044 55.8595 37.3608 55.8595 37.5188C55.8595 37.6768 55.8263 37.8332 55.7618 37.9787C55.6973 38.1242 55.6029 38.2558 55.4842 38.3657C55.3654 38.4756 55.2248 38.5615 55.0706 38.6184C54.9164 38.6753 54.7519 38.702 54.5867 38.6969H44.7547C44.5928 38.6969 44.4325 38.6664 44.2829 38.6072C44.1333 38.5479 43.9974 38.4611 43.8829 38.3517C43.7685 38.2422 43.6776 38.1123 43.6157 37.9693C43.5537 37.8262 43.5218 37.673 43.5218 37.5182ZM67.1043 44.2554C67.1043 44.4102 67.0724 44.5634 67.0105 44.7063C66.9485 44.8493 66.8576 44.9791 66.7431 45.0885C66.6286 45.1978 66.4927 45.2846 66.3432 45.3437C66.1936 45.4028 66.0333 45.4331 65.8714 45.4329H44.7547C44.5895 45.4381 44.425 45.4114 44.2708 45.3545C44.1166 45.2976 43.976 45.2116 43.8572 45.1017C43.7385 44.9918 43.6441 44.8602 43.5796 44.7147C43.5151 44.5692 43.4819 44.4128 43.4819 44.2548C43.4819 44.0968 43.5151 43.9404 43.5796 43.7949C43.6441 43.6494 43.7385 43.5178 43.8572 43.4079C43.976 43.298 44.1166 43.2121 44.2708 43.1552C44.425 43.0983 44.5895 43.0716 44.7547 43.0767H65.8714C66.0334 43.0765 66.1938 43.1069 66.3434 43.1661C66.4931 43.2253 66.6291 43.3121 66.7436 43.4216C66.8581 43.5311 66.9489 43.6611 67.0108 43.8042C67.0727 43.9472 67.1045 44.1006 67.1043 44.2554ZM27.6031 58.2321C25.5372 58.2321 23.5177 58.8179 21.8 59.9153C20.0822 61.0126 18.7434 62.5724 17.9529 64.3973C17.1624 66.2222 16.9556 68.2302 17.3587 70.1674C17.7619 72.1046 18.7568 73.8841 20.2177 75.2807C21.6786 76.6773 23.5399 77.6283 25.5662 78.0135C27.5924 78.3987 29.6926 78.2007 31.6012 77.4447C33.5098 76.6886 35.141 75.4084 36.2886 73.766C37.4362 72.1236 38.0485 70.1926 38.0483 68.2174C38.0455 65.5695 36.9442 63.0308 34.986 61.1583C33.0278 59.2859 30.3726 58.2326 27.6031 58.2297V58.2321ZM27.6031 75.8477C26.025 75.8477 24.4823 75.4003 23.1701 74.5621C21.8579 73.7238 20.8352 72.5324 20.2312 71.1385C19.6272 69.7445 19.4691 68.2106 19.7769 66.7308C20.0847 65.2509 20.8445 63.8915 21.9604 62.8246C23.0762 61.7576 24.4978 61.0309 26.0456 60.7364C27.5934 60.4419 29.1977 60.5928 30.6558 61.17C32.1139 61.7472 33.3602 62.7249 34.2371 63.9793C35.1141 65.2337 35.5823 66.7086 35.5825 68.2174C35.5798 70.2399 34.7382 72.1787 33.2423 73.6087C31.7464 75.0386 29.7184 75.843 27.6031 75.8453V75.8477Z" fill="#5989FF"/>
</g>
<defs>
<clipPath id="clip0_637_1716">
<rect width="96" height="86" fill="white"/>
</clipPath>
</defs>
</svg>
