<svg width="96" height="86" viewBox="0 0 96 86" fill="none" xmlns="http://www.w3.org/2000/svg">
<g id="noun-goal-5762888">
<path id="Vector" d="M94.6842 41.8563H88.5996L90.6858 38.3739C90.8135 38.1611 90.8853 37.9155 90.8939 37.6627C90.9024 37.4098 90.8473 37.1592 90.7343 36.9372C90.6213 36.7151 90.4546 36.5297 90.2517 36.4005C90.0489 36.2712 89.8173 36.203 89.5813 36.2028H78.0899C77.8765 36.2025 77.6663 36.258 77.4774 36.3645C77.2885 36.471 77.1268 36.6253 77.0061 36.814L73.7767 41.8563H67.641C67.2965 32.3671 63.4935 23.4013 57.049 16.8851C50.6046 10.3689 42.0328 6.82218 33.1753 7.00687C24.3178 7.19156 15.8812 11.0929 9.67803 17.8729C3.47485 24.6528 0 33.7703 0 43.2667C0 52.763 3.47485 61.8806 9.67803 68.6605C15.8812 75.4404 24.3178 79.3418 33.1753 79.5265C42.0328 79.7112 50.6046 76.1644 57.049 69.6482C63.4935 63.132 67.2965 54.1663 67.641 44.6771H73.7753L77.0061 49.7193C77.1268 49.9081 77.2885 50.0624 77.4774 50.1689C77.6663 50.2754 77.8765 50.3309 78.0899 50.3306H89.5785C89.8158 50.3311 90.0489 50.2628 90.2529 50.133C90.457 50.0031 90.6245 49.8165 90.7377 49.5929C90.8509 49.3694 90.9056 49.1171 90.896 48.8629C90.8864 48.6088 90.8128 48.3621 90.683 48.1491L88.5637 44.6771H94.6842C94.857 44.6771 95.0281 44.6406 95.1877 44.5697C95.3474 44.4988 95.4924 44.395 95.6146 44.264C95.7368 44.133 95.8337 43.9775 95.8998 43.8064C95.966 43.6353 96 43.4519 96 43.2667C96 43.0815 95.966 42.898 95.8998 42.7269C95.8337 42.5558 95.7368 42.4003 95.6146 42.2694C95.4924 42.1384 95.3474 42.0345 95.1877 41.9636C95.0281 41.8927 94.857 41.8563 94.6842 41.8563ZM78.7886 39.0221H87.1761L85.4793 41.8563H76.9675L78.7886 39.0221ZM33.827 76.714C27.712 76.7125 21.7321 74.785 16.6305 71.171C11.5288 67.5571 7.53022 62.4159 5.1316 56.3863C2.73297 50.3568 2.04002 43.7046 3.13885 37.2565C4.23767 30.8083 7.07984 24.8483 11.3122 20.1171C15.5445 15.386 20.9805 12.0921 26.9446 10.6448C32.9088 9.19754 39.1382 9.66067 44.8589 11.9766C50.5795 14.2926 55.5392 18.3594 59.1217 23.6716C62.7042 28.9838 64.7516 35.3072 65.0095 41.8563H55.8197C55.4776 35.7178 52.9181 29.9637 48.6841 25.8143C44.4501 21.665 38.8747 19.4468 33.1405 19.6302C27.4062 19.8137 21.9642 22.3844 17.9687 26.7971C13.9731 31.2097 11.7383 37.1173 11.7383 43.2667C11.7383 49.4161 13.9731 55.3236 17.9687 59.7363C21.9642 64.1489 27.4062 66.7196 33.1405 66.9031C38.8747 67.0866 44.4501 64.8684 48.6841 60.719C52.9181 56.5697 55.4776 50.8155 55.8197 44.6771H65.0095C64.6603 53.2937 61.2234 61.4338 55.4146 67.4017C49.6059 73.3696 41.8731 76.7053 33.827 76.714ZM44.0233 41.8563C43.6889 39.0774 42.3801 36.5392 40.3628 34.7574C38.3455 32.9757 35.7711 32.084 33.1626 32.2636C30.554 32.4431 28.1071 33.6805 26.3191 35.7242C24.531 37.768 23.5358 40.4648 23.5358 43.2667C23.5358 46.0686 24.531 48.7654 26.3191 50.8091C28.1071 52.8528 30.554 54.0902 33.1626 54.2698C35.7711 54.4494 38.3455 53.5577 40.3628 51.7759C42.3801 49.9941 43.6889 47.4559 44.0233 44.6771H53.1868C52.8456 50.0659 50.5645 55.1019 46.8251 58.7222C43.0856 62.3425 38.1803 64.2638 33.1444 64.0808C28.1084 63.8978 23.3357 61.6248 19.8336 57.7413C16.3315 53.8579 14.3738 48.6679 14.3738 43.2667C14.3738 37.8654 16.3315 32.6754 19.8336 28.792C23.3357 24.9086 28.1084 22.6355 33.1444 22.4525C38.1803 22.2695 43.0856 24.1909 46.8251 27.8112C50.5645 31.4314 52.8456 36.4674 53.1868 41.8563H44.0233ZM33.827 44.6771H41.3627C41.0334 46.7005 40.0082 48.5179 38.4896 49.7705C36.9711 51.0231 35.0695 51.6197 33.1605 51.4425C31.2515 51.2654 29.4739 50.3273 28.1787 48.8136C26.8836 47.2999 26.165 45.3206 26.165 43.2667C26.165 41.2127 26.8836 39.2334 28.1787 37.7197C29.4739 36.206 31.2515 35.268 33.1605 35.0908C35.0695 34.9137 36.9711 35.5103 38.4896 36.7628C40.0082 38.0154 41.0334 39.8329 41.3627 41.8563H33.827C33.4781 41.8563 33.1434 42.0049 32.8967 42.2694C32.6499 42.5339 32.5113 42.8926 32.5113 43.2667C32.5113 43.6407 32.6499 43.9995 32.8967 44.264C33.1434 44.5285 33.4781 44.6771 33.827 44.6771ZM87.1471 47.5112H78.7886L76.973 44.6771H85.4158L87.1471 47.5112Z" fill="#5989FF"/>
</g>
</svg>
