<svg width="96" height="86" viewBox="0 0 96 86" fill="none" xmlns="http://www.w3.org/2000/svg">
<g id="noun-start-up-6121595" clip-path="url(#clip0_637_1727)">
<g id="Group">
<path id="Vector" d="M75.714 46.9255L74.8485 45.2519C72.5403 40.7893 71.7691 36.001 72.5997 31.3952L73.5363 28.9728L73.7597 28.3703C75.781 22.7413 75.634 16.2959 73.3484 10.2224L70.724 3.26001C70.3238 1.93225 69.3076 0.866696 67.9358 0.336705C66.5622 -0.18585 65.0937 -0.0854277 64.083 0.535687L57.4681 3.38274C51.0765 6.13124 46.2056 10.8937 43.7543 16.7924L42.597 19.7836C40.1134 23.765 36.3134 26.8004 31.5965 28.5563L29.8265 29.2127C25.5158 30.8176 21.9831 33.6962 19.8762 37.3188C19.0646 38.7172 18.5174 40.0952 18.2531 41.4155L18 42.6726L31.6961 47.9606L31.1182 49.4546C30.2222 51.7719 31.2503 54.3904 33.4238 55.8277L28.183 63.1041L29.8211 63.7364L24.5851 77.2818L27.4291 78.3827L32.6663 64.8343L36.5705 66.341C35.3802 67.6255 34.4717 69.007 33.9008 70.4831C31.7659 76.0098 34.4107 82.0238 34.5243 82.2767L35.1422 83.6565L36.527 83.0503C36.782 82.9387 42.792 80.2646 44.9269 74.7416C45.4976 73.2658 45.7554 71.6307 45.7384 69.8789L49.5563 71.3524L44.1752 84.9939L47.1954 85.9997L52.4015 72.4503L54.1271 73.1163L55.1441 64.2097C55.46 64.2585 55.7769 64.298 56.0926 64.298C56.785 64.298 57.4681 64.1827 58.114 63.9447C59.5416 63.4203 60.6155 62.39 61.1367 61.0437L61.7155 59.5467L75.4107 64.8298L76.0714 63.729C76.762 62.5797 77.285 61.1924 77.6256 59.608C78.504 55.5095 77.8247 51.0055 75.714 46.9255ZM32.7954 45.1194L21.5904 40.7925C21.8193 40.164 22.1264 39.515 22.5135 38.8493C24.2669 35.8348 27.2411 33.4285 30.8892 32.0691L32.6593 31.4127C35.2302 30.4552 37.546 29.1395 39.5937 27.547L32.7954 45.1194ZM42.0829 73.6407C40.9791 76.4971 38.4013 78.4571 36.7596 79.465C36.2236 77.624 35.6354 74.4515 36.7448 71.584C37.302 70.1453 38.3513 68.8069 39.7328 67.5614L42.577 68.659C42.7629 70.5068 42.6387 72.2016 42.0829 73.6407ZM51.5437 68.854L32.9627 61.6834L36.2646 57.0976L52.1839 63.2418L51.5437 68.854ZM58.2926 59.9428C58.0916 60.4635 57.6561 60.8689 57.0642 61.0846C56.4034 61.3226 55.6422 61.3078 54.9219 61.0288L35.7285 53.6238C34.3121 53.0771 33.5192 51.701 33.9622 50.5555L46.3675 18.4716L46.5722 17.9584C48.7164 12.7979 53.0141 8.61569 58.6742 6.17961L65.4696 3.23957C65.6762 3.11684 65.9238 3.05548 66.1844 3.05548C66.3984 3.05548 66.6199 3.09638 66.8358 3.18007C67.3179 3.36416 67.679 3.72493 67.8372 4.23632L70.4932 11.2935C72.5257 16.692 72.6653 22.3917 70.8878 27.3457L58.2926 59.9428ZM74.6438 58.9684C74.4819 59.7234 74.2734 60.4114 74.0203 61.0288L62.8138 56.7054L69.6063 39.1377C70.0513 41.6888 70.8803 44.2161 72.1385 46.6503L73.004 48.3239C74.7927 51.7791 75.3734 55.5578 74.6438 58.9684Z" fill="#5989FF"/>
<path id="Vector_2" d="M61.546 15.3698C57.0752 13.6404 52.0293 15.8719 50.3021 20.3443C49.4645 22.5089 49.5222 24.8687 50.4622 26.9905C51.404 29.1123 53.1145 30.7414 55.281 31.5763C56.2972 31.9687 57.3582 32.1658 58.4172 32.1658C59.6121 32.1658 60.8071 31.9148 61.9331 31.4182C64.0568 30.4791 65.6873 28.7683 66.5248 26.6037C68.2503 22.1351 66.0186 17.0955 61.546 15.3698ZM63.6809 25.5066C63.1374 26.9124 62.0783 28.0226 60.6991 28.6307C59.3162 29.2407 57.7825 29.2741 56.3791 28.7348C54.972 28.1918 53.8608 27.1356 53.2504 25.7576C52.6399 24.3796 52.6026 22.8473 53.1461 21.4414C54.0116 19.2062 56.1539 17.8319 58.4191 17.8319C59.0947 17.8319 59.7815 17.9547 60.4479 18.2113C63.3514 19.3326 64.8014 22.6056 63.6809 25.5066Z" fill="#5989FF"/>
<path id="Vector_3" d="M46.0598 80.419L44.3224 84.8992L47.1666 86.0002L48.904 81.52L46.0598 80.419Z" fill="#5989FF"/>
</g>
</g>
<defs>
<clipPath id="clip0_637_1727">
<rect width="96" height="86" fill="white"/>
</clipPath>
</defs>
</svg>
