<svg width="96" height="86" viewBox="0 0 96 86" fill="none" xmlns="http://www.w3.org/2000/svg">
<g id="noun-client-5762878" clip-path="url(#clip0_1008_19)">
<path id="Vector" d="M87.3083 55.9966C86.4475 54.5099 85.0352 53.4257 83.3801 52.9809C81.7249 52.536 79.9615 52.7667 78.4754 53.6226L65.0339 61.4122C64.0179 62.0411 62.9574 62.5944 61.8608 63.0678C62.3242 62.4622 62.6635 61.7705 62.859 61.0326C63.2558 59.5373 63.0456 57.9452 62.2743 56.6053C61.5029 55.2653 60.2336 54.287 58.7444 53.8848L40.6301 49.0169C35.2846 47.5752 32.9088 48.9885 28.9729 51.329C28.4948 51.6122 27.9871 51.9126 27.4449 52.2279L21.413 55.7221L19.3009 52.04C19.1452 51.7699 18.8891 51.5728 18.5888 51.4919C18.2885 51.411 17.9685 51.4529 17.6989 51.6085L8.58634 56.8868C8.45293 56.964 8.33599 57.0669 8.24222 57.1895C8.14845 57.3121 8.07969 57.452 8.03986 57.6013C8.00003 57.7506 7.98992 57.9063 8.01011 58.0595C8.0303 58.2127 8.08039 58.3604 8.15752 58.4942L23.6385 85.4102C23.7155 85.5442 23.8182 85.6616 23.9407 85.7556C24.0631 85.8496 24.2029 85.9184 24.3519 85.958C24.4506 85.986 24.5526 86.0001 24.6551 86C24.8614 85.9997 25.0641 85.9451 25.2429 85.8417L34.353 80.5621C34.6221 80.4059 34.8186 80.149 34.8992 79.8477C34.9798 79.5463 34.938 79.2252 34.783 78.9548L32.6685 75.2764L35.1761 73.8248L52.6435 79.2231C52.7667 79.2602 52.901 79.3096 53.0452 79.3616C53.9976 79.7421 55.012 79.9425 56.0371 79.9526C58.3305 79.8435 60.5538 79.125 62.4794 77.8704L84.9374 64.8631C86.4224 64.0016 87.506 62.5842 87.9505 60.9219C88.395 59.2596 88.164 57.4882 87.3083 55.9966ZM25.0851 83.2118L10.7761 58.3458L17.8542 54.247L19.9688 57.9217L25.0075 66.6782L32.1608 79.1118L25.0851 83.2118ZM83.768 62.823L61.31 75.8303C57.0562 78.3032 55.1228 77.6033 53.8412 77.1434C53.6601 77.0779 53.4937 77.0198 53.3385 76.9703L35.3782 71.4212C35.224 71.3737 35.0617 71.3587 34.9014 71.377C34.7411 71.3953 34.5863 71.4465 34.4466 71.5275L33.2205 72.236L31.4954 73.2325L27.0432 65.4961L22.5923 57.7598L28.6304 54.2656C29.1812 53.9453 29.695 53.6474 30.1793 53.3518C33.9279 51.1263 35.6407 50.1062 40.0374 51.287L58.1517 56.1561C59.0398 56.396 59.7969 56.9796 60.2568 57.7788C60.7167 58.578 60.842 59.5276 60.6051 60.4193C60.3877 61.2351 59.8807 61.943 59.1794 62.4098C58.4781 62.8766 57.631 63.0702 56.7974 62.954L54.5695 62.3655L54.5609 62.3989L42.4687 59.1483C42.3198 59.1082 42.1645 59.098 42.0117 59.1182C41.8589 59.1384 41.7116 59.1886 41.5781 59.2659C41.4446 59.3433 41.3276 59.4462 41.2338 59.5689C41.14 59.6916 41.0711 59.8316 41.0312 59.981C40.9914 60.1304 40.9812 60.2862 41.0013 60.4395C41.0214 60.5929 41.0714 60.7407 41.1485 60.8746C41.2256 61.0086 41.3282 61.1259 41.4505 61.2201C41.5727 61.3142 41.7123 61.3833 41.8612 61.4233L55.7488 65.1561C55.8905 65.1945 56.0347 65.2006 56.1764 65.2278L57.9989 65.7076C61.0032 66.4977 63.7807 64.8755 66.2304 63.4437L79.6621 55.6615C80.6071 55.1325 81.7216 54.9979 82.7648 55.2866C83.8079 55.5754 84.696 56.2645 85.2369 57.2049C85.7779 58.1453 85.9283 59.2615 85.6558 60.3122C85.3832 61.363 84.7095 62.264 83.7803 62.8205L83.768 62.823ZM37.4065 38.046L38.1089 38.8323C38.2827 39.0265 38.4786 39.1959 38.6561 39.3826C38.8779 39.615 39.1021 39.8413 39.3338 40.0638C39.6566 40.3754 39.9857 40.6821 40.3196 40.9689C40.5809 41.1939 40.8495 41.4079 41.1206 41.6205C41.4484 41.8765 41.7749 42.1299 42.115 42.3624C42.4551 42.5948 42.7829 42.8063 43.1242 43.0202C43.4274 43.2093 43.7268 43.4022 44.0373 43.5778C44.4588 43.8164 44.8999 44.0291 45.3312 44.2405C45.5851 44.3642 45.8328 44.4952 46.0891 44.6115C46.6165 44.8439 47.1599 45.0442 47.7058 45.2371C47.8943 45.3039 48.0755 45.3818 48.2677 45.4436C48.8838 45.6439 49.5197 45.8145 50.1592 45.9567C50.2948 45.9876 50.4266 46.0321 50.5622 46.0606C51.235 46.204 51.9177 46.3079 52.6151 46.3907C52.7248 46.4043 52.8333 46.4303 52.9442 46.4414C56.0244 46.771 59.1393 46.4715 62.1011 45.5611L61.9003 48.8055C61.8885 49.0021 61.926 49.1986 62.0094 49.3769C62.0927 49.5553 62.2193 49.7099 62.3774 49.8265C62.5356 49.9432 62.7204 50.0183 62.915 50.0449C63.1095 50.0715 63.3076 50.0488 63.4911 49.9788L70.4325 47.318L77.1298 49.9727C77.3124 50.0449 77.5101 50.07 77.7049 50.0457C77.8997 50.0214 78.0852 49.9485 78.2446 49.8336C78.404 49.7187 78.5322 49.5655 78.6173 49.388C78.7024 49.2106 78.7417 49.0145 78.7318 48.8178L78.3559 41.3732L82.9572 35.8018C83.0823 35.6498 83.1674 35.4686 83.2047 35.275C83.242 35.0813 83.2302 34.8814 83.1705 34.6935C83.1108 34.5057 83.005 34.3358 82.8629 34.1996C82.7208 34.0633 82.5469 33.9651 82.3571 33.9138L76.7379 32.393C77.9591 29.5181 78.5846 26.424 78.5765 23.299C78.581 19.5686 77.6916 15.8919 75.9834 12.5786C74.2752 9.26534 71.7982 6.41268 68.7612 4.26106C65.7242 2.10944 62.2161 0.72193 58.5328 0.215474C54.8495 -0.290982 51.0988 0.0984604 47.5969 1.35098C44.0949 2.6035 40.9444 4.68238 38.4109 7.4124C35.8773 10.1424 34.035 13.4436 33.0391 17.0376C32.0433 20.6316 31.9231 24.4132 32.6888 28.0636C33.4544 31.714 35.0835 35.1262 37.4386 38.0126L37.4065 38.046ZM55.3779 44.2158C54.6755 44.2158 53.9805 44.1775 53.2941 44.1095C52.7162 44.0514 52.1444 43.9562 51.569 43.8498C51.4679 43.8313 51.3619 43.8226 51.2609 43.8028C50.6201 43.6792 49.9867 43.5098 49.3632 43.3206C49.3361 43.312 49.3077 43.307 49.2806 43.2996C48.7015 43.1216 48.1334 42.9089 47.5715 42.6814C47.4988 42.6517 47.4224 42.6307 47.3509 42.5998C46.8999 42.4118 46.4649 42.1893 46.0287 41.9692C45.85 41.8789 45.659 41.8035 45.4877 41.7083C45.224 41.5649 44.9751 41.3967 44.7176 41.2434C43.2178 40.351 41.8348 39.2744 40.6006 38.0386C43.3368 35.276 46.7886 33.3365 50.5658 32.4391C54.3431 31.5418 58.2951 31.7224 61.9754 32.9605L58.3008 33.9101C58.1108 33.9598 57.9362 34.0566 57.7931 34.1915C57.6499 34.3265 57.5428 34.4953 57.4815 34.6825C57.4202 34.8697 57.4067 35.0694 57.4422 35.2632C57.4777 35.457 57.5611 35.6388 57.6847 35.7919L62.35 41.5921L62.2613 43.0239C60.0506 43.8091 57.723 44.2122 55.3779 44.2158ZM76.2635 40.2283C76.0766 40.4547 75.9811 40.7433 75.9961 41.0369L76.303 47.1103L70.881 44.9601C70.6075 44.8538 70.3042 44.8538 70.0307 44.9601L64.3623 47.1313L64.7197 41.283C64.738 40.9888 64.6456 40.6985 64.4609 40.4694L60.6557 35.7375L66.3056 34.2773C66.5892 34.2043 66.8357 34.028 66.9969 33.7827L70.3068 28.6874L73.4367 33.6331C73.5941 33.8817 73.8385 34.0621 74.1218 34.1388L79.9739 35.7227L76.2635 40.2283ZM55.3779 2.38461C60.9042 2.39083 66.2024 4.59626 70.1102 8.51708C74.018 12.4379 76.2163 17.7539 76.2229 23.299C76.2202 25.9974 75.6915 28.6692 74.6665 31.164L71.3148 25.8732C71.2092 25.7066 71.0637 25.5692 70.8914 25.4737C70.7191 25.3782 70.5257 25.3276 70.3289 25.3267C70.1344 25.3321 69.9438 25.3832 69.7726 25.4759C69.6014 25.5687 69.4543 25.7006 69.3431 25.8609L65.459 31.8391C61.1446 29.7421 56.2869 29.0441 51.5594 29.8416C46.8318 30.6392 42.4687 32.8929 39.075 36.2902C36.6318 33.2144 35.1037 29.5089 34.6668 25.6001C34.2298 21.6913 34.9017 17.7382 36.605 14.1956C38.3084 10.6531 40.974 7.66515 44.2951 5.57565C47.6162 3.48615 51.4579 2.38004 55.3779 2.38461ZM55.3779 27.0009C57.257 27.0011 59.094 26.4422 60.6566 25.3949C62.2191 24.3475 63.437 22.8588 64.1563 21.1169C64.8756 19.375 65.0639 17.4582 64.6975 15.6089C64.331 13.7596 63.4263 12.0609 62.0976 10.7276C60.7689 9.39423 59.0761 8.48618 57.2331 8.11825C55.3901 7.75032 53.4797 7.93903 51.7436 8.66052C50.0075 9.38201 48.5236 10.6039 47.4796 12.1716C46.4356 13.7393 45.8784 15.5824 45.8784 17.4679C45.881 19.9952 46.8826 22.4182 48.6635 24.2054C50.4444 25.9926 52.8591 26.9979 55.3779 27.0009ZM55.3779 10.2904C56.7929 10.2892 58.1766 10.7091 59.3537 11.497C60.5309 12.285 61.4487 13.4055 61.9911 14.7169C62.5334 16.0283 62.676 17.4717 62.4006 18.8644C62.1253 20.2571 61.4445 21.5366 60.4444 22.541C59.4442 23.5454 58.1696 24.2296 56.7818 24.5071C55.3941 24.7845 53.9555 24.6428 52.648 24.0997C51.3406 23.5566 50.223 22.6367 49.4367 21.4562C48.6504 20.2757 48.2307 18.8878 48.2307 17.4679C48.2327 15.566 48.9861 13.7424 50.3259 12.397C51.6656 11.0516 53.4824 10.294 55.3779 10.2904Z" fill="#5989FF"/>
</g>
<defs>
<clipPath id="clip0_1008_19">
<rect width="96" height="86" fill="white"/>
</clipPath>
</defs>
</svg>
