<svg width="163" height="157" viewBox="0 0 163 157" fill="none" xmlns="http://www.w3.org/2000/svg">
<g id="Group">
<g id="Group_2">
<path id="Vector" fill-rule="evenodd" clip-rule="evenodd" d="M155.783 60.5536C151.492 58.3914 145.551 60.1271 144.291 64.1242C146.844 63.4002 151.786 62.4976 152.231 65.9492C152.666 69.3809 147.886 70.3033 144.497 68.7362C141.098 67.1493 141.814 61.3768 142.184 61.2181C147.723 58.917 148.527 55.2175 147.669 52.2717C146.713 48.9193 142.075 47.2233 139.979 45.9735C140.707 45.2495 144.66 42.9187 142.368 38.3463C139.11 31.8497 129.128 36.4816 129.128 36.4816C129.128 36.4816 134.027 37.0271 133.722 39.3183C133.462 41.2921 131.507 41.2425 129.551 40.8854C127.596 40.5085 126.032 38.1777 120.558 36.6007C115.083 35.0335 113.172 36.4816 111.531 37.2553C108.631 34.9542 103.667 33.8632 98.5841 33.3673V32.5738C98.5841 32.5738 98.5406 32.4746 98.2799 32.3556C98.6166 31.1654 99.7028 28.0212 102.864 23.7563C106.883 18.2814 102.538 10.0094 94.3262 14.3339C93.479 10.9517 90.1443 8.89858 82.6496 11.4972C82.4215 10.0392 81.9001 9.30524 81.1072 9.30524H81.0203C80.2274 9.30524 79.706 10.0293 79.4779 11.4972C71.9941 8.89858 68.6486 10.9418 67.8014 14.3339C59.5897 10.0194 55.2233 18.2814 59.2639 23.7563C62.7397 28.4775 63.7281 31.8398 63.9345 32.6829C63.5761 32.9011 63.5435 33.0499 63.5435 33.0499V33.2879L63.5543 33.3673C58.4601 33.8632 53.4853 34.9542 50.5961 37.2652C48.9559 36.4916 47.0551 35.0534 41.5807 36.6106C36.0954 38.1876 34.5422 40.5184 32.5761 40.8953C30.621 41.2524 28.6767 41.2921 28.416 39.3282C28.1119 37.0371 33.0106 36.4915 33.0106 36.4915C33.0106 36.4915 23.0177 31.8597 19.7591 38.3562C17.4672 42.9286 21.421 45.2594 22.1487 45.9834C20.0632 47.2332 15.4143 48.9292 14.4585 52.2816C13.6112 55.2274 14.415 58.927 19.9437 61.228C20.313 61.3867 21.0082 67.1592 17.6301 68.7462C14.2304 70.3232 9.46198 69.3909 9.88559 65.9591C10.3092 62.5174 15.2731 63.4101 17.8365 64.1341C16.5765 60.137 10.6459 58.4013 6.34461 60.5635C2.04328 62.7356 -3.4094 69.9463 2.84707 79.5671C5.28014 83.3163 9.74439 84.3379 9.74439 84.3379C9.74439 84.3379 -0.998054 95.4167 11.0478 107.22C11.0478 107.22 6.49667 126.104 18.4665 132.521C18.4665 132.521 17.2826 140.744 31.1858 144.543C47.7285 149.065 59.5137 145.138 62.794 146.08C72.0918 148.718 79.5322 151.575 81.042 157C82.5627 151.565 89.9923 148.718 99.2901 146.08C102.57 145.138 114.356 149.065 130.887 144.543C144.791 140.754 143.596 132.521 143.596 132.521C155.587 126.104 151.025 107.22 151.025 107.22C163.082 95.4167 152.329 84.3379 152.329 84.3379C152.329 84.3379 156.804 83.3163 159.237 79.5671C165.493 69.9463 160.041 62.7257 155.739 60.5635L155.783 60.5536ZM142.64 69.6091C142.977 69.5892 152.101 73.7649 154.121 67.4766C155.772 62.2794 147.745 62.0116 147.745 62.0116C147.745 62.0116 150.667 60.2759 154.49 62.1405C158.303 63.9953 160.03 70.6505 153.002 74.2112C145.964 77.762 138.817 74.6774 138.817 74.6774C138.817 74.6774 142.368 69.7975 142.64 69.6091ZM146.377 52.8172C147.202 55.9118 143.509 58.9369 143.509 58.9369H143.313C143.313 58.9369 144.019 54.9298 143.509 53.5413C142.086 49.5937 138.1 48.3837 135.96 47.5406C140.001 45.9735 145.41 49.1673 146.377 52.8172ZM133.288 36.1047C133.288 36.1047 140.75 35.2319 141.565 40.8061C141.88 42.9881 139.403 45.547 136.97 45.1999C136.97 45.1999 138.328 43.4741 136.927 40.0027C135.797 37.1958 133.288 36.0948 133.288 36.0948V36.1047ZM140.522 50.9327C145.54 54.5529 139.208 61.5157 135.232 64.0746C133.57 65.1557 130.16 64.4812 130.16 64.4812C130.16 64.4812 140.326 56.4374 138.045 52.8073C131.159 51.8353 128.194 53.7694 122.6 56.5465C116.995 59.3435 117.071 54.6224 118.244 52.5593C118.7 51.7361 120.829 50.1293 123.523 49.5937C125.924 49.1077 125.207 48.2647 125.609 47.8382C126.977 46.3604 135.515 47.2927 140.533 50.9327H140.522ZM117.788 44.456C114.953 45.2396 113.378 47.8382 113.378 47.8382C113.378 47.8382 108.056 42.9683 115.007 41.8673C120.047 41.0639 125.989 44.0295 125.989 44.0295C125.989 44.0295 119.07 44.089 117.788 44.4461V44.456ZM113.91 38.5149C116.691 38.0587 120.677 40.2407 120.71 40.6771C120.732 40.9548 117.723 40.5878 114.844 40.6275C113.259 40.6573 112.281 41.0838 110.956 41.5499C110.586 40.8556 111.01 38.991 113.91 38.505V38.5149ZM109.337 53.3429C112.672 55.6836 113.943 59.6411 113.943 59.6411L111.423 59.532C111.423 59.532 111.988 63.8266 111.564 63.2811C109.772 61.0197 106.231 59.7601 106.231 59.7601C106.231 59.7601 107.035 62.329 106.231 63.2811C101.615 58.1731 93.0879 53.0354 93.0879 53.0354C101.158 53.0354 105.481 57.7467 105.481 57.7467L106.231 54.5529L108.859 57.7467C108.859 57.7467 108.382 53.2735 109.348 53.3528L109.337 53.3429ZM119.732 123.466C119.602 121.929 119.189 120.361 118.527 118.973C117.81 117.555 116.789 116.216 115.8 114.797C115.301 114.083 114.823 113.349 114.421 112.546C114.041 111.762 113.736 110.82 113.932 109.947H114.214C114.345 110.76 114.779 111.435 115.268 112.09C115.789 112.744 116.376 113.369 116.952 114.004C118.114 115.273 119.33 116.602 120.199 118.229C120.406 118.626 120.612 119.062 120.764 119.489C120.851 119.707 120.905 119.925 120.97 120.123C121.036 120.342 121.09 120.58 121.133 120.798C121.351 121.661 121.427 122.573 121.383 123.466C121.275 125.261 120.71 126.977 119.743 128.455L119.45 128.356C119.678 126.66 119.873 125.053 119.721 123.476L119.732 123.466ZM122.73 130.439C123.686 129.288 124.196 128.038 124.359 126.67C124.522 125.311 124.359 123.803 123.892 122.424C122.98 119.588 120.699 116.801 118.787 113.587C117.842 111.961 116.984 110.205 116.528 108.34C116.072 106.456 116.05 104.482 116.561 102.697L117.299 102.746C117.592 104.482 118.125 106.079 118.95 107.547C119.765 109.005 120.797 110.364 121.905 111.703C123.023 113.052 124.251 114.42 125.402 115.908C126.554 117.416 127.661 119.112 128.367 121.086C129.073 123.069 129.334 125.162 128.954 127.314C128.585 129.467 127.368 131.539 125.728 132.978C124.077 134.446 122.111 135.348 120.134 135.904C118.136 136.419 116.137 136.677 114.117 136.459L114.041 135.834C117.538 134.475 120.851 132.769 122.741 130.439H122.73ZM117.897 81.035C117.353 78.9324 117.114 76.8297 117.256 74.6972L117.951 74.6178C118.711 76.5718 119.428 78.4959 120.243 80.3507C121.057 82.1757 121.959 83.9907 123.175 85.3099C124.533 86.7877 126.086 88.1763 127.64 89.6442C129.171 91.1022 130.877 92.6396 131.865 94.6728L131.246 95.0597C129.638 93.7107 127.792 92.6693 126 91.3898C124.186 90.16 122.437 88.7416 120.905 87.0952C119.276 85.2206 118.44 83.1278 117.886 81.045L117.897 81.035ZM114.16 92.709C109.576 95.744 104.319 97.9757 100.724 101.179L102.614 99.3146C102.614 99.3146 101.039 96.0019 100.767 94.6232C100.441 92.9966 101.147 91.4097 101.147 91.4097C101.147 91.4097 112.227 84.6949 111.521 77.0082C111.412 75.7981 108.262 76.8991 108.262 76.8991C108.262 76.8991 106.763 77.4148 104.558 75.7981C102.331 74.1715 100.887 73.1003 100.887 73.1003C100.887 73.1003 99.9092 72.416 99.2032 72.8325C98.2256 73.4276 97.5087 74.1219 96.075 74.7269C94.6412 75.3419 94.1741 74.8956 93.1965 76.1552C92.219 77.4347 90.9916 81.9178 90.8612 83.6138L90.7309 85.3099L94.8367 84.1593C94.8367 84.1593 94.6412 82.6418 95.0322 81.7293C95.4232 80.8168 95.8794 80.7673 96.2053 80.7673C96.5312 80.7673 97.7694 80.6978 100.05 80.6383C102.331 80.5887 104.037 79.3092 104.037 79.3092C104.037 79.3092 105.264 78.9522 105.264 79.3787C105.264 79.706 103.82 81.8087 101.734 83.3262C101.147 83.7527 101.691 83.8816 102.255 83.7428C102.255 83.7428 107.219 80.4003 108.392 78.3571C109.555 76.2941 110.586 77.4545 110.586 77.4545C110.586 77.4545 110.087 86.748 98.747 90.5567C97.487 90.9931 97.3784 91.9056 97.5087 92.7487C97.6391 93.5818 100.398 101.239 100.463 101.407C98.0627 103.599 96.4443 106.277 96.3356 109.977C96.1944 115.006 97.2698 116.374 97.8563 116.771C97.4218 117.326 95.6296 119.499 94.2393 119.786C92.6209 120.114 83.1927 116.979 82.5193 114.47C82.2586 113.448 81.9979 112.169 82.5193 110.592C83.0515 109.015 85.2239 108.955 85.3868 108.529C85.5497 108.102 84.6699 107.616 85.3868 107.081C86.1146 106.525 89.6881 106.099 90.2095 105.454C90.7309 104.78 93.1965 101.487 93.0662 100.366C92.9033 98.9477 89.2428 96.349 88.8301 95.9325C88.3956 95.4861 88.6454 96.0317 88.6454 96.0317L91.7953 100.445C91.7953 100.445 92.056 102.052 90.0031 102.469C87.9611 102.895 85.213 103.411 83.6163 106.248C83.0841 107.21 83.4208 108.211 83.4208 108.211L81.0746 109.798L78.7285 108.211C78.7285 108.211 79.0869 107.21 78.5438 106.248C76.9471 103.401 74.2099 102.895 72.157 102.469C70.1041 102.052 70.3539 100.445 70.3539 100.445L73.5256 96.0317C73.5256 96.0317 73.7754 95.4762 73.3301 95.9325C72.9282 96.349 69.2677 98.9477 69.0939 100.366C68.9636 101.487 71.4401 104.78 71.9615 105.454C72.4828 106.109 76.0564 106.525 76.7842 107.081C77.5119 107.616 76.6212 108.102 76.7842 108.529C76.9471 108.955 79.1303 109.015 79.6517 110.592C80.1731 112.169 79.9233 113.458 79.6517 114.47C78.9783 116.989 69.5501 120.114 67.9317 119.786C66.5414 119.499 64.7492 117.336 64.3038 116.771C64.8904 116.374 65.9657 115.006 65.8354 109.977C65.7267 106.277 64.1083 103.609 61.7078 101.407C61.7839 101.229 64.5319 93.5719 64.6514 92.7487C64.7817 91.8957 64.684 90.9832 63.4131 90.5567C52.0733 86.748 51.5737 77.4545 51.5737 77.4545C51.5737 77.4545 52.5947 76.2941 53.7678 78.3571C54.93 80.4003 59.9047 83.7428 59.9047 83.7428C60.4696 83.8816 61.0127 83.7527 60.437 83.3262C58.3298 81.8087 56.896 79.706 56.896 79.3787C56.896 78.9522 58.1234 79.3092 58.1234 79.3092C58.1234 79.3092 59.8287 80.5887 62.1097 80.6383C64.3907 80.6978 65.629 80.7673 65.9548 80.7673C66.2807 80.7673 66.7369 80.8168 67.1279 81.7293C67.519 82.6418 67.3234 84.1593 67.3234 84.1593L71.4401 85.3099L71.3098 83.6138C71.1794 81.9178 69.9629 77.4347 68.9744 76.1552C68.0077 74.8956 67.5407 75.3419 66.096 74.7269C64.6514 74.1219 63.9454 73.4276 62.9678 72.8325C62.2618 72.416 61.2842 73.1003 61.2842 73.1003C61.2842 73.1003 59.8396 74.1715 57.6129 75.7981C55.397 77.4148 53.909 76.8991 53.909 76.8991C53.909 76.8991 50.759 75.7981 50.6504 77.0082C49.9335 84.6949 61.0235 91.4097 61.0235 91.4097C61.0235 91.4097 61.7295 92.9966 61.4037 94.6232C61.1321 96.0019 59.5572 99.3146 59.5572 99.3146L61.4471 101.179C57.8518 97.9757 52.5947 95.7341 48.0218 92.709C40.2012 87.5514 48.1087 74.0029 48.8039 73.8343C49.499 73.6756 53.2355 70.4521 53.2355 70.4521C57.5694 71.4142 58.6122 70.1149 61.0235 68.2602C61.0235 68.2602 64.7274 69.8273 68.7898 69.8868C66.5305 67.9527 65.314 65.364 66.3567 62.3786C66.8238 61.0098 70.6146 58.1037 74.514 59.1452C78.4352 60.1965 81.0746 66.4054 81.0746 66.4054C81.0746 66.4054 83.7141 60.1866 87.6352 59.1452C91.5455 58.0938 95.3363 60.9999 95.8143 62.3786C96.857 65.364 95.6296 67.9527 93.3812 69.8868C97.4436 69.8273 101.137 68.2602 101.137 68.2602C103.548 70.1149 104.58 71.4043 108.925 70.4521C108.925 70.4521 112.661 73.6855 113.356 73.8343C114.051 74.0029 121.948 87.5514 114.149 92.709H114.16ZM106.285 111.861C106.285 111.861 97.7042 112.278 102.44 105.95C105.883 101.368 113.291 98.9576 113.291 98.9576C113.291 98.9576 107.697 104.482 106.959 105.752C105.318 108.598 106.296 111.861 106.296 111.861H106.285ZM100.811 78.9621C97.7694 80.1126 94.2393 79.2299 94.2393 79.2299C94.2393 79.2299 94.5651 77.6925 95.4015 76.8792C96.2487 76.056 97.7586 74.846 99.7571 74.6674C101.213 74.5286 102.06 75.6692 102.483 76.5123C102.918 77.3752 102.158 78.4563 100.811 78.9621ZM98.2256 116.94C98.2256 116.94 98.1713 117.039 98.0627 117.217L97.9975 116.86C98.1496 116.92 98.2365 116.94 98.2365 116.94H98.2256ZM64.1735 116.86L64.1192 117.217C64.0106 117.039 63.9562 116.94 63.9562 116.94C63.9562 116.94 64.0431 116.92 64.1735 116.86ZM59.6766 76.5023C60.1003 75.6593 60.9475 74.5187 62.403 74.6575C64.4016 74.8361 65.9114 76.0461 66.7586 76.8693C67.6167 77.6826 67.9317 79.22 67.9317 79.22C67.9317 79.22 64.3907 80.1027 61.3494 78.9522C60.0025 78.4364 59.2422 77.3553 59.6658 76.5023H59.6766ZM55.2124 105.752C54.4846 104.482 48.8799 98.9576 48.8799 98.9576C48.8799 98.9576 56.2877 101.368 59.731 105.95C64.4668 112.268 55.8967 111.861 55.8967 111.861C55.8967 111.861 56.8634 108.598 55.2233 105.752H55.2124ZM43.2426 107.537C44.0463 106.069 44.5786 104.482 44.8718 102.736L45.6213 102.687C46.1427 104.472 46.121 106.446 45.6539 108.33C45.1977 110.195 44.3396 111.951 43.3838 113.577C41.4721 116.791 39.2019 119.578 38.2787 122.415C37.8116 123.793 37.6595 125.301 37.8116 126.66C37.9854 128.028 38.4959 129.278 39.4409 130.429C41.3309 132.75 44.6437 134.455 48.1304 135.824L48.0544 136.449C46.0449 136.657 44.0463 136.409 42.0586 135.894C40.0817 135.338 38.1266 134.436 36.4647 132.968C34.8246 131.53 33.5972 129.447 33.2387 127.304C32.8477 125.162 33.0975 123.059 33.8035 121.076C34.5096 119.102 35.6283 117.416 36.7688 115.898C37.9311 114.41 39.1476 113.042 40.2664 111.693C41.3852 110.354 42.417 108.995 43.2426 107.537ZM41.2657 87.0853C39.7233 88.7416 37.9745 90.15 36.1606 91.3799C34.3792 92.6594 32.5327 93.7008 30.9143 95.0497L30.306 94.6629C31.2836 92.6296 32.9889 91.0824 34.5204 89.6343C36.0845 88.1664 37.6378 86.7778 38.9847 85.3C40.2121 83.9709 41.1028 82.1558 41.9174 80.3408C42.732 78.486 43.4489 76.5619 44.2093 74.6079L44.9044 74.6873C45.0565 76.8197 44.8067 78.9323 44.2636 81.0251C43.7096 83.108 42.8841 85.2008 41.2548 87.0753L41.2657 87.0853ZM42.7103 128.336L42.4279 128.435C41.4612 126.957 40.8855 125.241 40.7769 123.446C40.7443 122.553 40.8095 121.641 41.0376 120.778C41.0702 120.56 41.1571 120.322 41.2005 120.104C41.2657 119.915 41.32 119.697 41.4069 119.469C41.559 119.042 41.7653 118.606 41.9717 118.209C42.8298 116.583 44.0463 115.253 45.2194 113.984C45.7842 113.349 46.3708 112.724 46.8922 112.07C47.3809 111.415 47.8154 110.741 47.9458 109.927H48.2282C48.4237 110.8 48.1196 111.742 47.7503 112.526C47.3592 113.329 46.8596 114.073 46.3708 114.777C45.3715 116.196 44.3613 117.535 43.6444 118.953C42.9819 120.342 42.5583 121.909 42.4388 123.446C42.2758 125.023 42.4714 126.63 42.6995 128.326L42.7103 128.336ZM51.8452 67.9428C51.8452 67.9428 54.1588 68.042 56.2117 67.0501C58.4818 65.9591 59.3182 64.0548 59.3182 64.0548C59.3182 64.0548 61.5449 66.7823 58.308 68.7759C56.027 70.2042 52.8445 69.619 51.8343 67.9328L51.8452 67.9428ZM65.9657 68.7858C63.4023 68.2998 60.5565 67.2882 60.589 64.0647C60.6325 59.8196 67.4429 57.7268 67.4429 57.7268C67.4429 57.7268 65.9331 59.9585 64.7926 62.7455C63.3914 66.207 65.9766 68.7858 65.9766 68.7858H65.9657ZM75.7632 53.5909C75.7632 53.5909 73.808 48.7209 70.2562 47.253C68.6486 46.5984 59.9808 46.4595 59.9808 46.4595C59.9808 46.4595 67.4103 40.935 73.732 42.4128C82.3998 44.456 75.7523 53.5909 75.7523 53.5909H75.7632ZM88.439 42.4128C94.7498 40.935 102.179 46.4595 102.179 46.4595C102.179 46.4595 93.5115 46.5984 91.9148 47.253C88.363 48.7209 86.397 53.5909 86.397 53.5909C86.397 53.5909 79.7603 44.456 88.439 42.4128ZM97.3675 62.7554C96.2379 59.9585 94.7172 57.7367 94.7172 57.7367C94.7172 57.7367 101.538 59.8295 101.582 64.0746C101.615 67.2981 98.7579 68.3098 96.1944 68.7958C96.1944 68.7958 98.7687 66.217 97.3567 62.7554H97.3675ZM102.853 64.0647C102.853 64.0647 103.667 65.969 105.948 67.06C108.012 68.042 110.326 67.9527 110.326 67.9527C109.326 69.6388 106.144 70.2339 103.852 68.7958C100.626 66.7922 102.853 64.0746 102.853 64.0746V64.0647ZM105.981 39.3084C107.23 40.4688 108.045 42.1054 108.229 43.6725C108.425 45.2495 108.099 46.7273 107.545 48.0068C106.948 49.3061 106.187 50.4467 105.09 51.3791L104.504 51.0617C104.851 48.5821 104.971 46.1521 104.265 44.4362C103.928 43.5733 103.418 42.9484 102.744 42.3831C102.071 41.8376 101.169 41.3516 100.246 41.054C98.3234 40.4192 95.7382 40.4192 92.9467 40.0225C91.5455 39.8241 90.0792 39.4968 88.7214 38.8819C87.3745 38.2868 86.1471 37.3941 85.3434 36.3031L85.8104 35.7675C88.2978 36.7494 90.5897 36.7494 93.1205 36.5709C94.3696 36.4816 95.6948 36.3725 97.1286 36.3626C98.5297 36.3527 100.094 36.442 101.669 36.9081C103.266 37.3743 104.743 38.1479 105.981 39.3183V39.3084ZM94.5 15.0777C101.332 12.489 104.754 19.6501 101.191 24.4605C98.747 27.7931 97.6173 30.4512 97.1177 31.8993C95.7274 31.5423 93.0336 31.1257 87.8742 30.9174C88.0589 30.1438 88.7975 28.1204 91.4478 24.8374C93.555 22.2091 94.9344 18.2219 94.5108 15.0777H94.5ZM82.3672 19.055C82.7365 16.3275 82.8669 14.195 82.78 12.618C95.1734 8.80932 94.0655 19.9378 89.8837 25.135C87.2333 28.4577 86.6903 30.3521 86.5816 30.8877C85.1696 30.848 83.562 30.8281 81.7915 30.8182C81.7372 28.775 81.6938 24.0142 82.3672 19.0649V19.055ZM79.3802 12.618C79.2933 14.2049 79.4345 16.3374 79.8038 19.055C80.4772 24.0043 80.4338 28.7651 80.3795 30.8083C78.609 30.8182 77.0014 30.848 75.6002 30.8976C75.5025 30.3917 74.9702 28.4874 72.2765 25.135C68.1055 19.9378 66.9976 8.80932 79.391 12.618H79.3802ZM60.9801 24.4605C57.4174 19.66 60.8389 12.489 67.6602 15.0777C67.2257 18.2219 68.6269 22.2091 70.7232 24.8374C73.417 28.1799 74.1121 30.1934 74.3077 30.9472C69.2243 31.1951 66.5414 31.6811 65.1293 32.1374C64.684 30.729 63.5652 27.9716 60.9801 24.4506V24.4605ZM71.4836 36.6502C73.1128 36.6304 74.6987 36.442 76.3714 35.7675L76.8385 36.3031C76.0238 37.3941 74.8182 38.2967 73.4496 38.8819C72.0918 39.4968 70.6255 39.8241 69.2351 40.0225C66.4436 40.4192 63.8585 40.4192 61.9359 41.054C61.0127 41.3516 60.1111 41.8376 59.4268 42.3831C58.7534 42.9484 58.232 43.5733 57.9061 44.4362C57.2001 46.1521 57.3305 48.5821 57.6672 51.0617L57.0806 51.3791C55.9945 50.4467 55.2233 49.3061 54.6367 48.0068C54.0719 46.7174 53.746 45.2495 53.9524 43.6725C54.1371 42.1054 54.9408 40.4688 56.2008 39.3084C57.4282 38.138 58.9054 37.3644 60.513 36.8982C62.088 36.442 63.6304 36.3428 65.0533 36.3527C66.1612 36.3527 67.204 36.432 68.2141 36.4915M52.8554 53.3231C53.8112 53.2437 53.3333 57.7169 53.3333 57.7169L55.9727 54.5232L56.7222 57.7169C56.7222 57.7169 61.0344 53.0057 69.1048 53.0057C69.1048 53.0057 60.589 58.1434 55.9619 63.2514C55.1472 62.2992 55.9619 59.7303 55.9619 59.7303C55.9619 59.7303 52.41 60.99 50.6287 63.2514C50.205 63.7969 50.759 59.5022 50.759 59.5022L48.239 59.6113C48.239 59.6113 49.5099 55.6539 52.8554 53.3131V53.3231ZM48.2825 38.4951C51.1718 38.9811 51.5954 40.8457 51.2369 41.54C49.9009 41.0738 48.9233 40.6474 47.3484 40.6176C44.47 40.5779 41.4503 40.9449 41.4829 40.6672C41.5372 40.2209 45.5127 38.0388 48.2934 38.505L48.2825 38.4951ZM47.1854 41.8475C54.1371 42.9385 48.8256 47.8184 48.8256 47.8184C48.8256 47.8184 47.2506 45.2197 44.4156 44.4362C43.1448 44.0692 36.204 44.0196 36.204 44.0196C36.204 44.0196 42.1455 41.054 47.1963 41.8574L47.1854 41.8475ZM20.628 40.7862C21.4427 35.2121 28.894 36.0849 28.894 36.0849C28.894 36.0849 26.3957 37.1858 25.2661 39.9927C23.8649 43.4543 25.2226 45.19 25.2226 45.19C22.7787 45.5371 20.313 42.9782 20.6389 40.7961L20.628 40.7862ZM18.662 58.9071C18.662 58.9071 14.969 55.882 15.7945 52.7875C16.7612 49.1375 22.1813 45.9438 26.2219 47.5109C24.0713 48.3539 20.0958 49.5739 18.662 53.5115C18.1624 54.9001 18.8684 58.9071 18.8684 58.9071H18.662ZM21.6708 50.9129C26.6781 47.2728 35.2265 46.3405 36.5951 47.8184C36.9861 48.2448 36.2692 49.0879 38.6697 49.5739C41.3417 50.1194 43.4707 51.7163 43.9594 52.5395C45.1108 54.6124 45.1868 59.3237 39.5821 56.5267C33.9882 53.7495 31.0338 51.8055 24.1364 52.7875C21.8663 56.4077 32.0331 64.4614 32.0331 64.4614C32.0331 64.4614 28.6224 65.1458 26.9388 64.0548C22.9633 61.4958 16.6417 54.5331 21.6708 50.9129ZM7.70235 62.1108C11.5149 60.256 14.4367 61.9818 14.4367 61.9818C14.4367 61.9818 6.40978 62.2496 8.07165 67.4468C10.092 73.745 19.2051 69.5595 19.5418 69.5793C19.8243 69.7578 23.3652 74.6476 23.3652 74.6476C23.3652 74.6476 16.229 77.7421 9.19043 74.1814C2.16277 70.6207 3.87895 63.9655 7.71321 62.1108H7.70235ZM2.4669 75.3716C1.66312 73.4772 1.73915 70.6802 1.86949 70.5116C1.99984 70.343 2.26052 70.3033 2.28225 71.0175C2.30397 71.7217 3.48792 76.3139 7.93045 78.9423C9.33163 79.7655 13.2636 80.549 13.2636 80.549L11.4171 82.5228C11.4171 82.5228 5.31272 82.1161 2.4669 75.3716ZM12.5685 85.7562C17.2283 75.8973 26.2871 75.8973 26.2871 75.8973L31.2401 79.0613C31.2401 79.0613 23.3109 82.8104 19.8134 86.8175C17.6845 89.2276 15.3383 94.6728 15.6641 98.8485C15.1753 100.197 14.4259 101.14 13.2636 103.451C13.2636 103.451 7.93045 95.5457 12.5576 85.7661L12.5685 85.7562ZM21.0191 127.721C21.0191 127.721 10.7871 120.451 13.8502 107.438C16.9133 94.4348 26.4935 88.087 30.0127 84.566C38.485 76.0957 39.8211 72.3465 40.5814 69.5892C40.5814 69.5892 34.6291 73.8343 29.2958 73.7252C23.9518 73.5963 20.9648 70.4025 20.5954 68.2205C25.19 70.224 36.204 71.8605 40.8312 64.6697C40.8312 64.6697 35.6827 66.9509 31.1315 66.822C26.5695 66.7129 22.594 64.0647 22.594 64.0647C22.594 64.0647 31.9787 67.4369 39.0824 62.9042C42.7103 60.5833 48.9125 51.8849 48.9125 51.8849C48.9125 51.8849 50.9545 51.508 50.6504 52.3213C49.2818 55.9217 43.4055 73.1499 40.6031 77.8017C37.8116 82.4534 28.8614 92.8082 25.7874 96.3094C22.7244 99.8205 17.9017 109.441 22.0075 118.338C21.3015 120.927 21.0299 127.721 21.0299 127.721H21.0191ZM76.0999 149.155C75.8283 147.875 75.2635 146.665 74.4271 145.683C73.6125 144.671 72.5154 143.908 71.3098 143.352C68.8767 142.232 66.096 141.825 63.3154 141.646C57.7432 141.299 52.095 142.023 46.2839 142.192C43.3838 142.241 40.3859 142.321 37.1599 141.557C34.0968 140.783 31.251 139.563 28.6659 137.828C26.1242 136.072 23.7671 133.781 22.6809 130.538C21.8228 127.632 21.964 124.517 22.8547 121.73C23.7454 118.953 25.2118 116.454 26.8845 114.212C28.5464 111.961 30.3277 109.878 32.0439 107.755C35.4111 103.52 39.1259 99.275 39.7885 94.0777C39.8428 93.7008 39.8536 93.3239 39.8645 92.9669C39.8102 93.0462 39.7559 93.1057 39.7016 93.1752C38.7349 94.2463 37.703 95.1787 36.6602 96.1308C34.5965 98.0153 32.4567 99.8403 30.1431 101.427C27.949 102.865 26.3414 104.819 25.3747 107.17C24.4406 109.491 24.0713 112.109 24.2125 114.708L23.5608 114.827C22.7244 112.179 22.6918 109.342 23.5173 106.585C23.9192 105.216 24.5926 103.907 25.4725 102.707C26.3631 101.526 27.5036 100.465 28.7202 99.6618C30.9794 98.055 33.3691 96.6069 35.6718 95.0398C36.7906 94.2364 37.9094 93.4033 38.8326 92.461C39.039 92.223 39.2671 91.975 39.4083 91.7568L39.5278 91.5386L39.5604 91.4593C39.6038 91.3998 39.669 91.3303 39.7342 91.2807C39.7885 91.2312 39.9731 91.1419 40.1143 91.1419C40.2555 91.1121 40.5054 91.2014 40.5597 91.2609C40.8747 91.5386 40.8203 91.618 40.8964 91.7568C40.929 91.856 40.9615 91.9552 40.9724 92.0544C41.0919 92.8082 41.0484 93.4925 40.9833 94.1968C40.6683 96.9442 39.6147 99.5626 38.2243 101.973C36.8123 104.333 35.2808 106.595 33.6949 108.836C30.621 113.319 27.0257 117.624 26.0481 122.464C25.5593 124.835 25.8092 127.245 26.6673 129.417C27.0366 130.28 27.7426 131.242 28.5246 132.055C29.3284 132.888 30.306 133.622 31.3705 134.287C33.4777 135.606 35.9216 136.638 38.3873 137.252C40.7117 137.838 43.525 137.937 46.3165 138.076C51.9538 138.344 57.8193 138.492 63.6304 139.435C64.5754 139.603 65.5095 139.792 66.4436 140.04C65.4226 139.306 64.293 138.76 63.109 138.294C61.3385 137.56 59.4377 137.005 57.5368 136.37C55.6251 135.765 53.6809 135.12 51.7583 134.217C49.8466 133.325 47.848 132.214 46.3165 130.27C45.9254 129.754 45.6539 129.318 45.3932 128.832C45.1217 128.346 44.8827 127.85 44.6872 127.314C44.2853 126.273 44.0463 125.152 44.0246 124.002C43.9812 121.7 44.8284 119.598 45.7951 117.872C47.7611 114.381 50.1616 111.673 50.4114 107.854L50.835 107.795C51.5628 109.65 51.4216 111.782 50.9111 113.716C50.368 115.65 49.5642 117.445 48.9016 119.112C48.2716 120.798 47.8263 122.385 47.9675 123.873C48.0218 124.607 48.1956 125.321 48.4997 126.045C48.6301 126.412 48.8147 126.769 49.0102 127.116C49.2057 127.463 49.4338 127.84 49.6294 128.108C50.4549 129.229 51.943 130.25 53.5505 131.153C55.1907 132.035 56.972 132.869 58.7642 133.761C58.9272 133.841 59.101 133.93 59.253 134.019C58.7751 133.404 58.3406 132.779 57.9713 132.115C57.3956 131.103 56.9177 129.982 56.6353 128.852C56.0379 126.57 56.0379 124.299 56.027 122.097C56.0053 121.006 56.027 119.905 55.9076 118.844C55.7881 117.783 55.5817 116.751 54.9191 115.839L55.1364 115.67C56.0813 116.434 56.581 117.594 56.8851 118.685C57.1784 119.806 57.3413 120.917 57.4717 122.028C57.7215 124.23 57.8844 126.412 58.4384 128.435C59.0249 130.409 60.0568 132.333 61.3928 134.019C62.1314 134.971 63.0004 135.854 63.9345 136.677C63.9888 136.707 64.0323 136.747 64.0866 136.776C64.7926 137.292 65.4878 137.858 66.1069 138.492C66.1612 138.542 66.2047 138.572 66.2481 138.611V138.631C66.726 139.167 67.1388 139.702 67.4755 140.317C69.0505 140.764 70.582 141.359 72.0049 142.202C73.2649 142.965 74.4054 143.967 75.1875 145.167C75.9913 146.387 76.3823 147.756 76.4909 149.115L76.0673 149.155H76.0999ZM68.0729 135.963C68.0729 135.963 72.1896 131.034 74.9051 135.011C76.8711 137.897 74.992 142.569 74.992 142.569C74.992 142.569 73.3953 138.264 72.7218 137.59C71.2555 136.082 68.0729 135.963 68.0729 135.963ZM81.0964 134.217C81.0964 134.217 80.4012 132.64 78.8805 131.45C76.2954 129.437 73.5799 129.923 71.4944 129.02C69.4089 128.147 66.889 125.717 66.889 125.717C66.889 125.717 69.2025 122.593 68.7681 121.125C70.6689 121.056 74.7747 120.441 78.8154 117.307C80.3252 116.136 81.0855 117.069 81.0855 117.069C81.0855 117.069 81.8567 116.136 83.3665 117.307C87.4071 120.441 91.5021 121.056 93.4138 121.125C92.9902 122.603 95.3038 125.717 95.3038 125.717C95.3038 125.717 92.7729 128.147 90.6874 129.02C88.6128 129.913 85.8865 129.427 83.3122 131.45C81.7915 132.64 81.0964 134.217 81.0964 134.217ZM94.1198 135.963C94.1198 135.963 90.959 136.082 89.4709 137.59C88.8192 138.264 87.2008 142.569 87.2008 142.569C87.2008 142.569 85.3216 137.897 87.2985 135.011C90.014 131.034 94.1198 135.963 94.1198 135.963ZM139.501 130.538C138.426 133.771 136.058 136.072 133.527 137.828C130.942 139.563 128.107 140.783 125.033 141.557C121.807 142.321 118.82 142.241 115.92 142.192C110.109 142.033 104.46 141.309 98.8773 141.646C96.1075 141.825 93.316 142.232 90.883 143.352C89.6881 143.908 88.5911 144.671 87.7656 145.683C86.9401 146.665 86.3753 147.885 86.1037 149.155L85.6801 149.115C85.7887 147.756 86.1906 146.387 86.9835 145.167C87.7764 143.967 88.9169 142.965 90.1769 142.202C91.589 141.349 93.1314 140.754 94.7172 140.317C95.0322 139.702 95.4667 139.167 95.9446 138.631L95.9229 138.611C95.9229 138.611 96.0315 138.532 96.0858 138.492C96.7049 137.858 97.4001 137.292 98.0953 136.776C98.1496 136.747 98.2039 136.707 98.2473 136.677C99.1815 135.844 100.05 134.971 100.8 134.019C102.125 132.333 103.168 130.409 103.743 128.435C104.308 126.412 104.471 124.23 104.721 122.028C104.841 120.917 104.993 119.796 105.286 118.685C105.59 117.594 106.09 116.434 107.035 115.67L107.274 115.839C106.6 116.751 106.383 117.793 106.285 118.844C106.166 119.905 106.177 120.996 106.166 122.097C106.144 124.289 106.144 126.57 105.547 128.852C105.264 129.982 104.786 131.103 104.211 132.115C103.83 132.779 103.407 133.414 102.929 134.019C103.092 133.93 103.255 133.831 103.428 133.761C105.221 132.869 107.002 132.035 108.631 131.153C110.239 130.25 111.727 129.229 112.552 128.108C112.759 127.84 112.987 127.463 113.182 127.116C113.367 126.759 113.552 126.412 113.693 126.045C113.986 125.331 114.171 124.616 114.225 123.873C114.356 122.385 113.921 120.798 113.28 119.112C112.618 117.436 111.825 115.65 111.271 113.716C110.771 111.782 110.619 109.65 111.336 107.795L111.781 107.854C112.031 111.673 114.421 114.391 116.376 117.872C117.353 119.598 118.201 121.7 118.157 124.002C118.136 125.152 117.907 126.283 117.506 127.314C117.288 127.86 117.06 128.356 116.799 128.832C116.528 129.318 116.267 129.754 115.887 130.27C114.345 132.224 112.346 133.325 110.445 134.217C108.512 135.12 106.557 135.775 104.656 136.37C102.755 137.005 100.865 137.56 99.0837 138.294C97.9106 138.76 96.781 139.306 95.76 140.04C96.7049 139.802 97.6499 139.603 98.5841 139.435C104.395 138.492 110.25 138.344 115.876 138.076C118.679 137.937 121.492 137.848 123.838 137.252C126.293 136.638 128.737 135.606 130.855 134.287C131.898 133.612 132.886 132.888 133.69 132.055C134.483 131.242 135.178 130.28 135.536 129.417C136.405 127.245 136.655 124.835 136.155 122.464C135.178 117.624 131.583 113.319 128.52 108.836C126.945 106.595 125.402 104.333 124.001 101.973C122.611 99.5626 121.568 96.9442 121.253 94.1968C121.166 93.5025 121.123 92.8181 121.253 92.0544C121.264 91.9552 121.296 91.8461 121.329 91.7568C121.405 91.618 121.34 91.5386 121.666 91.2609C121.709 91.2014 121.959 91.1221 122.122 91.1419C122.241 91.1419 122.437 91.2312 122.48 91.2807C122.556 91.3303 122.611 91.3998 122.654 91.4593L122.687 91.5386L122.817 91.7568C122.947 91.9849 123.175 92.223 123.382 92.461C124.305 93.4033 125.413 94.2364 126.554 95.0398C128.824 96.6069 131.213 98.055 133.483 99.6618C134.689 100.465 135.851 101.526 136.753 102.707C137.622 103.907 138.306 105.206 138.708 106.585C139.523 109.342 139.49 112.179 138.665 114.827L138.013 114.708C138.143 112.109 137.785 109.491 136.851 107.17C135.884 104.819 134.276 102.875 132.071 101.427C129.769 99.8403 127.629 98.0153 125.543 96.1308C124.511 95.1787 123.469 94.2463 122.524 93.1752C122.469 93.1156 122.415 93.0462 122.361 92.9669C122.361 93.3338 122.393 93.7108 122.448 94.0777C123.089 99.275 126.814 103.52 130.181 107.755C131.898 109.888 133.69 111.961 135.352 114.212C137.024 116.454 138.491 118.953 139.381 121.73C140.272 124.527 140.413 127.642 139.555 130.538H139.501ZM141.184 127.721C141.184 127.721 140.935 120.927 140.196 118.338C144.313 109.431 139.479 99.8205 136.427 96.3094C133.364 92.8082 124.425 82.4534 121.622 77.8017C118.82 73.1499 112.944 55.9217 111.575 52.3213C111.26 51.508 113.302 51.8849 113.302 51.8849C113.302 51.8849 119.515 60.5833 123.143 62.9042C130.247 67.4468 139.631 64.0647 139.631 64.0647C139.631 64.0647 135.656 66.7129 131.094 66.822C126.532 66.9509 121.383 64.6697 121.383 64.6697C126.01 71.8605 137.024 70.224 141.619 68.2205C141.261 70.4025 138.263 73.6062 132.919 73.7252C127.575 73.8343 121.633 69.5892 121.633 69.5892C122.404 72.3366 123.74 76.0957 132.202 84.566C135.721 88.087 145.301 94.4348 148.364 107.438C151.427 120.461 141.206 127.721 141.206 127.721H141.184ZM148.929 103.451C147.756 101.14 147.007 100.197 146.529 98.8485C146.854 94.6629 144.508 89.2276 142.379 86.8175C138.882 82.8104 130.953 79.0613 130.953 79.0613L135.906 75.8973C135.906 75.8973 144.964 75.8973 149.635 85.7562C154.273 95.5457 148.94 103.441 148.94 103.441L148.929 103.451ZM150.765 82.5327L148.929 80.559C148.929 80.559 152.872 79.7655 154.262 78.9522C158.705 76.3139 159.878 71.7316 159.9 71.0274C159.932 70.3133 160.193 70.3629 160.312 70.5216C160.443 70.6902 160.519 73.4872 159.726 75.3816C156.869 82.1261 150.754 82.5327 150.754 82.5327H150.765Z" fill="#929196"/>
<path id="Vector_2" fill-rule="evenodd" clip-rule="evenodd" d="M96.2052 30.4016C96.8895 28.7254 98.0408 26.4541 100.018 23.7662C99.29 22.4768 97.8888 20.9494 95.3471 20.3047C94.7605 22.2189 93.8047 24.0737 92.5556 25.6309C91.1327 27.4261 90.2963 28.775 89.8184 29.7371C92.4687 29.8859 94.5976 30.1041 96.2052 30.4016Z" fill="#929196"/>
<path id="Vector_3" fill-rule="evenodd" clip-rule="evenodd" d="M85.5496 29.5586C85.9732 28.4676 86.8639 26.7517 88.7756 24.3812C89.7315 23.2009 90.5027 21.6338 90.9589 20.0468C90.6439 20.0865 90.3071 20.1064 89.9596 20.1659C89.9596 20.1659 88.982 17.478 84.0507 16.6845C83.9746 17.4681 83.8877 18.331 83.7574 19.2335C83.2143 23.2802 83.1491 27.2278 83.1817 29.5387C83.9964 29.5387 84.811 29.5586 85.5605 29.5586H85.5496Z" fill="#929196"/>
<path id="Vector_4" fill-rule="evenodd" clip-rule="evenodd" d="M76.632 29.5883C77.3815 29.5586 78.1744 29.5387 78.989 29.5387C79.0216 27.2377 78.9673 23.2802 78.4242 19.2335C78.2939 18.331 78.1961 17.478 78.1309 16.7043C73.2648 17.5177 72.3089 20.1659 72.3089 20.1659C71.9288 20.1064 71.5703 20.0667 71.2227 20.0468C71.6681 21.6338 72.461 23.191 73.406 24.3812C75.3177 26.7616 76.2192 28.4973 76.6429 29.5983L76.632 29.5883Z" fill="#929196"/>
<path id="Vector_5" fill-rule="evenodd" clip-rule="evenodd" d="M72.3633 29.7669C71.8962 28.8147 71.0598 27.436 69.6043 25.621C68.3661 24.0836 67.4102 22.219 66.8345 20.3146C64.2929 20.999 62.9134 22.5264 62.1965 23.8357C64.2385 26.6128 65.3899 28.9734 66.0308 30.5603C67.6492 30.2033 69.7673 29.9454 72.3741 29.7569L72.3633 29.7669Z" fill="#929196"/>
<path id="Vector_6" fill-rule="evenodd" clip-rule="evenodd" d="M74.9267 4.92128C75.1656 4.89153 75.4372 4.87169 75.7522 4.92128C76.0563 4.96095 76.393 5.0403 76.7515 5.24859C77.1099 5.44696 77.4792 5.77426 77.8268 6.19083C78.1635 6.61733 78.4677 7.13308 78.6849 7.70835C78.9456 8.26378 79.1194 8.8688 79.2606 9.1366C79.4018 9.40439 79.5104 9.31513 79.6516 9.14652C79.7928 8.9779 79.9775 8.72003 80.1513 8.44231C80.325 8.17451 80.488 7.90672 80.64 7.59925C80.7812 7.31161 80.9333 7.00414 81.0311 6.72643C81.0637 6.66692 81.0745 6.58757 81.0962 6.53798C81.118 6.59749 81.1288 6.66692 81.1506 6.72643C81.2483 7.00414 81.3786 7.31161 81.5416 7.59925C81.6936 7.8968 81.8566 8.1646 82.0195 8.44231C82.2042 8.72003 82.3888 8.9779 82.53 9.14652C82.6821 9.30521 82.7798 9.39448 82.921 9.1366C83.0623 8.8688 83.2469 8.26378 83.4859 7.70835C83.7357 7.13308 84.0181 6.61733 84.3657 6.19083C84.7024 5.77426 85.0826 5.44696 85.441 5.24859C85.7886 5.0403 86.1253 4.96095 86.4403 4.92128C86.7553 4.87169 87.016 4.89153 87.255 4.92128C87.5048 4.96095 87.7003 5.0403 87.7763 5.00063C87.8632 4.99071 87.8089 4.86177 87.7003 4.6634C87.5808 4.46503 87.3962 4.20716 87.092 3.97903C86.8096 3.75091 86.4186 3.56246 86.0167 3.46328C85.6148 3.36409 85.2129 3.35417 84.7893 3.39385C84.3657 3.44344 83.9312 3.55254 83.5728 3.74099C83.236 3.92944 82.9428 4.20716 82.769 4.38569C82.6061 4.54438 82.53 4.61381 82.5517 4.38569C82.5843 4.1774 82.6929 3.68148 82.7364 3.24507C82.7798 2.79874 82.7473 2.41193 82.6169 2.03503C82.4974 1.64821 82.291 1.26139 82.0847 0.884495C81.8783 0.497677 81.6611 0.120778 81.5199 -0.176773C81.3678 -0.474325 81.2809 -0.662775 81.2049 -0.821469C81.0962 -1.05951 81.0854 -1.05951 80.9768 -0.821469C80.9007 -0.672693 80.8138 -0.474325 80.6726 -0.176773C80.5314 0.120778 80.3142 0.507596 80.1187 0.884495C79.9014 1.27131 79.6951 1.65813 79.5756 2.03503C79.4561 2.41193 79.4018 2.79874 79.4561 3.24507C79.4887 3.68148 79.619 4.1774 79.6407 4.38569C79.6733 4.60389 79.5973 4.54438 79.4235 4.38569C79.2497 4.20716 78.989 3.92944 78.6197 3.74099C78.2613 3.55254 77.8268 3.45336 77.4032 3.39385C76.9796 3.35417 76.5777 3.36409 76.1758 3.46328C75.7739 3.56246 75.3829 3.75091 75.0896 3.97903C74.8072 4.20716 74.6117 4.46503 74.5031 4.6634C74.3727 4.85185 74.3401 4.98079 74.4053 5.00063C74.4922 5.0403 74.6877 4.96095 74.9267 4.92128Z" fill="#929196"/>
</g>
<path id="Vector_7" d="M89.0906 100.297C89.0906 100.297 85.8972 101.755 81.0854 101.903C76.2735 101.755 73.091 100.297 73.091 100.297C72.6348 100.217 73.0693 100.783 73.5363 101.06C74.0143 101.338 75.3068 102.131 76.4799 102.439C78.1418 102.875 81.0854 103.52 81.0854 103.52C81.0854 103.52 84.029 102.875 85.6908 102.439C86.8639 102.122 88.1674 101.338 88.6344 101.06C89.1123 100.783 89.5468 100.217 89.0906 100.297Z" fill="#929196"/>
</g>
</svg>
