<svg width="163" height="55" viewBox="0 0 163 55" fill="none" xmlns="http://www.w3.org/2000/svg">
<path d="M42.8822 50.0614C42.8296 50.1155 42.7243 50.6567 42.8822 51.252C43.1979 52.5508 43.5137 52.4426 41.9876 52.8756C41.7771 52.9297 41.5667 52.9838 41.3562 53.0379C39.988 53.3626 39.0408 53.4167 37.199 53.3626C37.0412 53.3626 36.8833 53.3626 36.7254 53.3626C35.252 53.2544 34.0417 53.092 32.6736 52.605C32.2 52.4426 31.7264 52.2802 31.2001 52.0638C29.2531 51.3061 28.2007 50.819 23.9383 48.4919C22.0966 47.4636 20.5705 46.706 19.3076 46.1106C18.3078 45.6236 17.4658 45.2989 16.6765 45.0283C15.6241 44.6494 14.7295 44.3788 13.8349 44.2165H13.7823C12.572 44 11.3091 43.9459 10.0988 44.0541C8.0465 44.2165 6.04687 44.8659 4.2051 45.9483C2.9948 46.6518 0.995169 48.2213 0.311084 48.9249C-0.162513 49.4119 -0.162513 49.4119 0.784681 48.7625C2.9948 47.2472 5.73114 46.273 8.36224 46.0565C9.36205 45.9483 10.3092 46.0024 11.2038 46.1106C11.6248 46.1648 12.0984 46.2189 12.4667 46.3271C13.5192 46.5436 14.519 46.8142 15.6767 47.2472C16.5713 47.5719 17.5184 48.0048 18.6235 48.546C19.5181 48.979 20.4653 49.466 21.5703 50.0614C23.5173 51.0896 25.6748 52.2261 26.3589 52.4967C28.7795 53.6332 31.0423 54.3368 33.305 54.7156C34.7258 54.9321 36.1466 55.0403 37.5148 54.9862C39.0934 54.9321 40.6195 54.7156 42.2507 54.3368C42.6191 54.2827 42.9874 54.1744 43.3558 54.0662C44.1978 53.8497 44.9345 53.5791 44.9871 53.525C45.0397 53.4709 44.9345 53.0379 44.6187 52.4426C44.0925 51.6849 42.9874 50.0072 42.8822 50.0614Z" fill="#F5F7FF"/>
<path d="M15.569 22.5787C14.9773 22.3082 14.3265 21.659 13.8532 20.9556C13.7349 20.7392 13.5574 20.4687 13.4983 20.2523C13.3208 19.8194 13.0841 18.8997 12.9658 18.1422C12.9658 17.9258 12.9066 17.7635 12.9066 17.6012C12.7883 16.9519 12.7883 16.8978 12.6108 17.1142C12.5516 17.1683 12.5516 17.2224 12.4925 17.2765C12.0192 18.034 11.9009 19.0079 12.0783 19.9276C12.2558 20.8474 12.7883 21.7672 13.6166 22.3623C14.2674 22.7952 15.4507 23.1198 15.8648 22.9575C16.1014 22.8493 16.0423 22.7952 15.569 22.5787Z" fill="#F5F7FF"/>
<path d="M20.3886 9L20.4997 8.41333C20.8886 6.86667 22.3331 5.32 24.0555 4.52C24.5555 4.30667 25 4.09333 25 4.04C25 3.98667 24.4444 3.98667 23.7777 4.04C22.1109 4.14667 21.0553 4.68 20.4441 5.85333C19.9441 6.76 19.8885 7.45333 20.1663 8.41333L20.3886 9Z" fill="#F5F7FF"/>
<path d="M15.1842 16.1048C15.2456 16.3487 15.3684 16.6414 15.5526 16.934C15.9823 17.7633 16.5349 18.3487 16.3507 17.7633C16.2893 17.6657 16.2893 17.3731 16.2279 17.0316C16.1665 16.7877 16.1665 16.5438 16.1665 16.2511C16.1051 15.3243 16.2279 14.6414 16.4735 14.0072C16.7191 13.5194 17.0261 13.0804 17.4559 12.6902C18.254 11.9585 18.1926 11.8609 17.1489 12.1536C16.5349 12.3487 16.1051 12.6902 15.7368 13.0804C15 13.8609 14.8158 14.9341 15.1842 16.1048Z" fill="#F5F7FF"/>
<path d="M37 35.4285C37 35.3759 37 35.3759 36.9106 35.3759C36.8658 35.3759 36.7764 35.3759 36.6869 35.3759C36.1055 35.4812 35.3452 35.1127 34.6743 34.4811C34.2718 34.0601 34.0034 33.9022 34.0034 34.0601C33.9587 34.3759 34.3612 35.3233 34.719 35.6391C35.1663 36.0602 36.0608 36.1128 36.5975 35.797C36.8211 35.6391 36.9553 35.4812 37 35.4285Z" fill="#F5F7FF"/>
<path d="M33.3471 30.2708C33.295 30.1669 33.2428 30.063 33.1385 29.9592C32.7211 29.336 32.4081 29.1802 31.7299 29.1802C30.9995 29.1802 30.5821 28.9205 30.217 28.2454C30.1648 28.1934 30.1126 28.0896 30.1126 27.9857L29.8518 27.3625L29.5388 26.6873L29.2257 26.0641V26.0122C29.1214 25.8044 29.0171 25.5967 28.9127 25.389C28.8084 25.1812 28.6519 24.9216 28.5475 24.7658C28.4432 24.61 28.391 24.5061 28.3389 24.4022C28.2867 24.3503 28.2345 24.2464 28.1302 24.1945C27.9737 24.0387 27.8172 23.8829 27.6085 23.7271C27.3998 23.5713 27.2433 23.4674 27.0346 23.3635C26.8259 23.2597 26.6173 23.1558 26.4086 23.1039C26.3564 23.1039 26.3564 23.1039 26.3042 23.1039C26.0956 23.0519 25.7304 23 25.4695 23H25.3652C24.8957 23 24.8435 23 25.4174 23.2077C25.4695 23.2077 25.5739 23.2597 25.626 23.2597C25.8347 23.3116 26.0434 23.4155 26.1999 23.4674C26.4086 23.5713 26.5651 23.6751 26.7216 23.8309C26.8781 23.9348 27.0346 24.0906 27.139 24.2984C27.2433 24.4542 27.3476 24.61 27.5041 24.8177C27.6085 24.9735 27.7128 25.1293 27.8172 25.337C27.9215 25.4928 27.9737 25.6486 28.078 25.8564C28.1823 26.0122 28.2345 26.168 28.3389 26.3757C28.4432 26.5315 28.4954 26.7393 28.5997 26.947C28.6519 27.1028 28.704 27.2586 28.8084 27.4144C28.8084 27.4144 28.8084 27.4663 28.8605 27.4663C28.9649 27.726 29.0692 27.9337 29.1736 28.1415C29.3301 28.4531 29.4866 28.7128 29.5909 28.9724C30.1126 29.8553 30.6343 30.1669 31.2603 30.1669C32.0429 30.1669 32.3037 30.3227 32.6168 30.894C32.6689 31.0498 32.7733 31.1537 32.8254 31.3095C33.1385 31.8288 33.5558 32.1923 34.0775 32.452C34.4949 32.6598 34.7557 32.7117 35.9556 32.7117C36.1643 32.7117 36.3208 32.7117 36.5816 32.7117C38.0424 32.7117 38.6163 32.7636 38.7728 32.9194C39.138 33.1791 39.0336 32.7636 38.6684 32.3482C38.4076 32.0365 38.2511 31.9846 36.7903 31.8807C34.547 31.5691 33.9732 31.3095 33.3471 30.2708Z" fill="#F5F7FF"/>
<path d="M29.1631 33.4062C28.3691 33.1116 27.0864 32.2699 27.0864 32.0595C27.0864 32.0174 27.0253 31.9753 27.0253 32.0174C26.9642 32.0595 27.0253 32.1858 27.0864 32.3962C27.2085 32.6487 27.3918 32.9854 27.575 33.1958C27.6972 33.3642 27.9415 33.5325 28.2469 33.7008C28.3691 33.7429 28.4913 33.8271 28.6745 33.8692C28.9188 33.9113 29.1631 33.9533 29.4075 33.9954C30.2626 34.0375 30.2015 33.785 29.1631 33.4062Z" fill="#F5F7FF"/>
<path d="M44.8833 25.7839C44.8833 25.7314 44.7799 25.4688 44.6764 25.1537C44.5212 24.7336 44.2625 24.2085 44.0038 23.6309C43.7969 23.2108 43.6417 22.7907 43.4347 22.4231C42.9691 21.4253 42.6587 20.4801 42.4 19.7449C42.193 19.1673 42.0896 18.6946 42.0378 18.3796C41.9344 17.9595 41.9344 17.5919 41.9344 17.5919L42.5035 17.2243C43.0208 16.8567 43.383 16.3316 43.5899 15.6489C43.6934 15.3338 43.7451 15.0187 43.7451 14.6511C43.7451 13.8109 43.4865 13.0232 43.1243 12.6031C43.0208 12.4981 42.9691 12.3406 42.9174 11.9205C42.9174 11.6579 42.9174 11.3428 42.9174 10.8177C42.9174 9.50486 42.8656 9.18978 42.6069 8.61214C42.4517 8.29706 42.2448 7.92947 41.9861 7.6669C41.6239 7.19429 41.1066 6.82669 40.6409 6.56413C40.1236 6.30156 39.9684 6.14402 39.7097 5.61889C39.5545 5.2513 39.3993 4.98874 39.2441 4.72617C38.7784 4.0435 38.1059 3.67591 37.0194 3.36083C36.9159 3.36083 36.9159 3.20329 37.1229 2.8357C37.4333 2.31057 37.8472 1.15529 37.9506 0.472617L38.0024 0L37.2781 0.105026C37.2263 0.105026 37.1229 0.105026 37.0194 0.157539C35.9847 0.315078 34.3291 0.840209 33.3978 1.26031C32.7252 1.57539 32.5183 1.6279 31.9492 1.57539C31.8457 1.57539 31.7423 1.57539 31.6905 1.52288C31.3801 1.47036 31.0697 1.47036 30.8627 1.47036C30.3971 1.47036 30.3454 1.41785 30.0349 0.892722C29.4658 -0.105026 29.4141 -0.105026 28.4311 0.892722L27.5516 1.78544L26.9308 1.6279C25.9478 1.41785 23.4644 1.41785 22.4297 1.68042C20.8776 2.04801 19.4807 2.99324 18.7046 4.0435C18.6012 4.20104 18.4977 4.35858 18.446 4.46361L18.1355 5.04125L17.1525 5.14628C16.1696 5.2513 15.29 5.46136 14.5657 5.77643C13.7379 6.14402 13.0136 6.66916 12.3928 7.29931C12.1858 7.50936 12.0306 7.71942 11.8754 7.98198C11.0994 9.08475 10.6337 10.4501 10.6337 11.5529C10.6337 11.6054 10.6337 11.6579 10.6337 11.7104C10.6337 11.9205 10.5303 11.973 10.2716 12.0255C9.54727 12.183 8.82296 12.8657 8.35733 13.7584C8.15038 14.1785 7.99517 14.5986 7.8917 15.0712C7.78823 15.7014 7.78823 16.4366 7.8917 17.1192C7.99517 17.9595 8.30559 18.6946 8.71949 19.2198C9.02991 19.5874 9.02991 19.6924 8.8747 19.8499C8.77122 19.9024 8.61601 20.2175 8.56428 20.5851C8.35733 21.4253 8.35733 22.318 8.61601 23.2108C8.82296 24.1035 9.23685 24.9437 9.75422 25.7839C10.0129 26.204 10.3233 26.5716 10.6855 26.9392L11.6167 27.8844V28.7771C11.6167 29.1447 11.6167 29.4073 11.6685 29.6174C11.7719 30.09 12.0306 30.4576 12.7032 31.2453C12.7549 31.2978 12.8584 31.4028 12.9101 31.5078C13.2206 31.8754 13.5827 32.2955 13.8414 32.6631C13.9966 32.8732 14.1518 33.0832 14.2036 33.2407C14.307 33.5033 14.4622 33.8184 14.514 34.186C14.6175 34.8687 14.6692 35.6038 14.5657 36.3915C14.5657 36.444 14.5657 36.5491 14.514 36.6016C14.3588 37.4943 13.6345 39.8049 13.4792 40.0149C13.4275 40.0674 12.8584 40.2775 12.2376 40.435C10.7372 40.8551 9.18512 41.4853 7.83996 42.168C6.96044 42.5881 6.1844 43.0607 5.51182 43.5333C3.70104 44.7936 3.54583 45.0562 4.89098 44.321C5.2014 44.1635 5.56356 44.0059 5.92571 43.8484C7.94344 42.9557 10.1681 42.273 12.1858 41.9579C13.3758 41.8004 14.4622 41.7479 15.4452 41.8004C15.497 41.8004 15.5487 41.8004 15.6522 41.8004C16.4282 41.8529 17.1525 42.0104 17.8769 42.168C18.5494 42.378 19.222 42.5881 19.9463 42.9557C21.4467 43.6908 23.0505 44.7936 25.2234 46.5265C27.7068 48.4695 28.7933 49.2572 30.1902 49.9399C30.604 50.1499 30.9662 50.3075 31.2766 50.4125C32.3114 50.8326 33.1391 50.9376 34.6395 50.9902H34.743C36.1399 51.0427 37.3815 50.8851 38.7267 50.5175C39.0888 50.4125 39.451 50.3075 39.8649 50.2025L40.7444 49.8874L40.0201 49.5198C36.9159 47.9969 35.4673 45.8964 34.8464 41.9054C34.6912 41.0127 34.743 40.8551 34.8982 40.435L35.0017 40.2775L35.1569 39.9624L36.0364 40.0149C36.6055 40.0674 37.1746 40.225 37.692 40.4875C38.3645 40.8551 38.8819 41.0127 39.3475 40.9602C39.7097 40.9602 40.0201 40.8551 40.3823 40.6976C40.7962 40.4875 41.417 40.0674 41.7791 39.6999C41.8826 39.5948 41.9861 39.4898 42.1413 39.3848C42.4517 39.1222 42.8656 38.9122 43.1243 38.8071C43.4865 38.7021 43.9521 38.387 44.2108 38.1245C44.4177 37.9144 44.6247 37.5993 44.7281 37.2317C44.9351 36.7066 45.0386 36.0765 44.9868 35.6038C44.9351 35.0262 44.6247 34.3435 44.2625 33.7134C44.0038 33.3458 43.7451 32.9782 43.4347 32.6631C42.9174 32.1905 42.7621 31.9804 42.8656 31.8229C42.9691 31.6128 43.0208 30.9302 42.9174 30.4576C42.9174 30.3 42.8656 30.1425 42.8139 30.09C42.7104 29.8799 42.5552 29.6699 42.4 29.5123C42.1413 29.2498 42.1413 29.2498 42.4 29.1972C42.5552 29.1447 42.7621 28.9347 42.9174 28.7771C43.1243 28.4095 43.1243 28.357 42.9174 27.8319C42.7621 27.4118 42.7621 27.2543 42.8656 27.2018C44.0038 26.9392 44.8833 26.309 44.8833 25.7839ZM33.8635 1.9955C34.536 1.68042 35.1569 1.41785 35.8812 1.2078C36.2433 1.10277 36.502 1.05026 36.6572 1.05026C37.0194 1.05026 36.8124 1.41785 36.2433 2.57314C35.9329 3.15078 35.5708 3.67591 35.2086 4.14853C34.2256 5.35633 33.0357 6.14402 31.8457 6.35408C31.1732 6.4591 31.0697 6.30156 31.587 5.98649C32.0527 5.72392 34.0704 3.57089 34.0704 3.36083C34.0704 3.30832 34.0187 3.25581 33.9669 3.25581C33.76 3.25581 32.3114 4.35858 31.6388 4.98874C30.8627 5.77643 30.7593 5.61889 31.2766 4.46361C31.7423 3.46586 32.6218 2.62565 33.8635 1.9955ZM31.0697 2.52063C31.1732 2.57314 31.1732 2.67816 31.1214 2.8357C31.0697 2.94073 30.9662 2.99324 30.9145 2.94073C30.7593 2.78319 30.8627 2.4156 31.0697 2.52063ZM30.2419 8.08701C31.1214 7.6669 32.3631 7.6669 33.4496 7.98198C33.76 8.08701 34.0704 8.19203 34.3808 8.34957C35.3638 8.8747 35.3638 8.92722 34.3808 9.45235C33.76 9.76742 33.0874 10.03 32.4666 10.135C32.0527 10.1875 31.6905 10.1875 31.3801 10.135C30.811 10.03 29.7245 9.60989 29.5693 9.39983C29.5693 9.34732 29.9315 9.29481 30.5006 9.24229C31.4318 9.13727 32.6218 8.92722 33.0874 8.71716C33.1909 8.66465 33.2944 8.61214 33.2944 8.61214C33.2944 8.55962 33.2426 8.55962 33.1909 8.50711C32.7252 8.29706 30.7593 8.29706 29.7763 8.55962C29.7245 8.55962 29.6728 8.55962 29.6211 8.55962C29.4658 8.55962 29.5176 8.4546 29.6728 8.34957C29.828 8.29706 30.0349 8.19203 30.2419 8.08701ZM27.3446 5.19879C27.3446 4.35858 27.4481 4.0435 27.862 3.20329C28.1207 2.67816 28.5346 1.9955 28.7933 1.73293L29.2589 1.2078L29.5693 1.9955C29.828 2.62565 29.8797 3.04576 29.8797 4.30607C29.8797 5.61889 29.8797 5.93397 29.6211 6.51162C29.4658 6.87921 29.2072 7.29931 29.052 7.45685C28.7933 7.71942 28.7933 7.71942 28.845 7.29931C29.052 6.4591 29.1037 4.09602 28.9485 3.99099C28.7415 3.88596 28.2759 5.46136 28.1724 6.61664C28.1207 7.08926 28.069 7.56188 28.0172 7.56188C27.9655 7.61439 27.7585 7.29931 27.6551 6.93172C27.3446 6.30156 27.2929 5.98649 27.3446 5.19879ZM26.9825 9.71491L27.1377 9.03224C27.1894 8.82219 27.2929 8.61214 27.3964 8.61214C27.5516 8.61214 28.5346 9.6624 28.5346 9.81994C28.5346 9.87245 28.1724 9.87245 27.7585 9.87245C27.0342 9.92496 26.9308 9.92496 26.9825 9.71491ZM28.8967 11.0277H28.9485C29.7245 11.1853 30.811 11.6579 31.1214 12.0255C31.2766 12.2355 31.2249 12.288 31.0179 12.4981C30.5006 12.9182 29.3624 13.1808 28.3794 13.1283C28.0172 13.1283 27.6033 13.0757 27.3446 12.9182C26.7238 12.7082 25.9478 12.1305 25.9478 11.9205C25.9478 11.8679 25.9995 11.8154 26.0512 11.8679C26.2582 11.973 28.0172 12.1305 28.6898 12.1305C28.7933 12.1305 28.8967 12.1305 28.9485 12.1305C29.2072 12.0255 29.2072 12.0255 28.7933 11.8154H28.7415C28.4311 11.7104 27.862 11.5004 27.3964 11.4478C26.879 11.3428 26.6203 11.2378 26.7755 11.1853C27.0342 10.9227 28.1207 10.8702 28.8967 11.0277ZM22.2227 16.9092C22.171 16.9092 22.171 16.9092 22.1193 16.9092C21.6019 16.9092 21.2397 16.8567 21.2397 16.8042C21.2397 16.7517 21.5502 16.5941 21.9123 16.4891C21.964 16.4891 21.964 16.4891 22.0158 16.4891C22.7401 16.279 23.5161 16.279 24.2922 16.4366C24.913 16.5941 25.5339 16.9092 25.5339 17.0667C25.5339 17.1192 25.2752 17.3293 24.913 17.4868C24.3957 17.7494 24.0852 17.8019 23.154 17.8019C22.8436 17.8019 22.5849 17.8019 22.3779 17.7494C22.0158 17.6969 21.8088 17.6444 21.6536 17.5919L21.3432 17.3818H21.7054L22.2745 17.3293L22.8436 17.2768C23.7748 17.1718 23.4127 16.9092 22.2227 16.9092ZM22.3262 14.7562C22.7918 15.2288 22.7401 15.3863 22.2227 15.3863C21.8088 15.3863 21.7571 15.3338 21.7571 15.0187C21.7054 14.4411 21.9123 14.3361 22.3262 14.7562ZM21.9123 11.4478C21.9123 10.6076 21.964 10.2926 22.2227 9.76742C22.3779 9.39983 22.5849 9.13727 22.6366 9.13727C22.6884 9.13727 22.8953 9.39983 23.0505 9.76742C23.4644 10.6076 23.5161 12.3931 23.154 13.0232L22.947 13.4433V12.3406C22.947 11.7104 22.8953 11.0802 22.8436 10.9752C22.7401 10.7127 22.7401 10.7127 22.6366 11.0802C22.5849 11.2903 22.5331 11.8679 22.4297 12.3931C22.3262 13.3383 22.3262 13.3383 22.171 12.9707C22.0158 12.6556 21.9123 12.078 21.9123 11.4478ZM24.0852 14.9662C23.7748 14.8087 23.5161 14.6511 23.5161 14.5986C23.5161 14.5986 24.137 14.5986 24.8613 14.6511C25.896 14.7036 26.1547 14.6511 26.0512 14.5461C25.9995 14.4936 25.5339 14.3361 25.0165 14.231C24.0852 14.0735 23.93 13.9685 24.5509 13.8109C25.5856 13.6009 27.086 13.8634 27.6033 14.2835C27.9137 14.5461 27.8103 14.5986 27.086 14.9662C26.2582 15.3863 24.913 15.3863 24.0852 14.9662ZM25.3787 7.61439L25.2752 7.08926L25.12 7.45685C24.913 7.92947 24.6543 10.03 24.7578 10.24C24.8096 10.3451 24.7578 10.4501 24.7061 10.4501C24.6543 10.4501 24.4474 10.1875 24.3439 9.81994C24.0335 9.03224 24.0335 7.71942 24.3439 6.82669C24.4991 6.40659 24.7061 5.98649 25.0165 5.61889L25.4304 5.09376L25.6373 5.40884C25.9478 5.93397 26.2582 6.93172 26.2582 7.6669C26.2582 8.4546 25.9478 9.6624 25.6373 10.135C25.4304 10.3976 25.4304 10.3976 25.4304 9.24229C25.4821 8.66465 25.4821 7.92947 25.3787 7.61439ZM24.7578 12.8132C24.4991 12.7607 24.3957 12.7082 24.3957 12.4456C24.3439 11.973 24.5509 11.8679 24.8613 12.183C25.2234 12.6556 25.1717 12.8657 24.7578 12.8132ZM14.6692 31.8754C14.3588 31.5603 14.1001 31.2453 13.8931 30.9302C13.4792 30.3525 13.1688 29.8799 12.9619 29.4598C12.7549 28.9872 12.6515 28.6196 12.6515 28.252C12.6515 28.147 12.6515 28.042 12.6515 27.9369C12.7032 27.4118 12.9101 26.8342 13.2723 26.309C13.324 26.204 13.4275 26.099 13.4792 25.994C13.9966 25.2588 13.9966 25.2063 13.5827 25.4688C13.3758 25.5738 12.9619 25.9414 12.6515 26.2565C12.5997 26.2565 12.5997 26.309 12.5997 26.309L12.0306 26.9392L11.2546 26.099L11.2028 26.0465C10.7372 25.5738 10.3233 24.8912 10.0646 24.4186C9.90943 24.1035 9.80595 23.8409 9.75422 23.6309C9.70248 23.3158 9.65074 22.9482 9.65074 22.318C9.65074 21.8454 9.65074 21.4778 9.70248 21.1628C9.75422 20.8477 9.80595 20.5851 9.96116 20.27L10.2716 19.5348L9.80595 18.8522C9.59901 18.5896 9.49553 18.327 9.39206 18.117C9.13338 17.5394 9.02991 17.0142 9.02991 16.1215C9.02991 15.3338 9.08164 15.0187 9.28859 14.5461C9.28859 14.4936 9.34033 14.4936 9.34033 14.4411C9.70248 13.7059 10.0646 13.2858 10.5303 13.0232C11.0476 12.7607 11.0476 12.7607 10.9959 13.2858C10.8924 13.8109 11.0476 14.9137 11.3063 15.5439L11.4615 15.964L11.565 15.2813C11.6685 14.6511 11.8754 14.021 12.1341 13.4958C12.5997 12.6031 13.2206 11.8679 13.9966 11.3953C14.0484 11.3428 14.1518 11.2903 14.2036 11.2903C14.514 11.1328 14.5657 11.0802 14.3588 10.9752C14.2036 10.9227 13.9966 10.9227 13.6862 10.9227C13.2206 10.9752 12.7032 11.1328 12.341 11.3428C11.7202 11.7629 11.6685 11.6579 12.0306 10.5551C12.1858 10.0825 12.3928 9.60989 12.6515 9.18978C13.2206 8.13952 14.0484 7.40434 15.0831 6.93172C15.5487 6.72167 16.0143 6.56413 16.5317 6.4591C17.5664 6.30156 17.8251 6.40659 17.7216 6.87921C17.5147 7.71942 17.463 9.08475 17.6699 9.6624C17.7734 10.0825 17.8769 10.1875 17.8769 9.97748C18.1873 8.29706 18.6529 6.93172 19.222 5.82895C19.9981 4.30607 21.0328 3.36083 22.3262 2.88822C23.3609 2.52063 26.4651 2.4156 26.8273 2.78319C26.879 2.78319 26.7755 3.15078 26.6203 3.57089C26.4651 3.93848 26.3617 4.46361 26.3617 4.67366V5.04125L25.9478 4.72617C25.7408 4.51612 25.5339 4.35858 25.4304 4.35858C25.3787 4.35858 24.9648 4.67366 24.5509 5.09376C23.7748 5.88146 23.154 7.03675 23.154 7.61439C23.154 7.82444 23.1022 8.03449 23.1022 8.24455C23.0505 8.4546 22.9988 8.50711 22.8436 8.40209C22.4297 8.03449 21.0845 9.92496 20.9293 11.1328L20.8258 11.7104L20.7224 11.6054L20.3602 11.2903C19.9463 10.9752 19.8428 10.9227 19.6359 11.0802C19.222 11.3428 18.5494 12.5506 18.446 13.2858C18.3425 13.8109 18.3425 14.231 18.446 14.7036C18.4977 15.0712 18.6529 15.4913 18.8081 16.0165C18.9633 16.4891 19.1185 16.9617 19.1185 17.0667C19.1185 17.2243 18.8081 17.7494 18.3942 18.2745C18.3942 18.2745 18.3425 18.327 18.3425 18.3796C17.9803 18.9047 17.6699 19.3248 17.463 19.7974C17.2043 20.3225 16.9973 20.7952 16.8939 21.3203C16.7904 21.8454 16.7387 22.318 16.6869 22.8957V23.0007C16.6869 23.4733 16.7387 23.9459 16.8421 24.4186C16.9456 24.9437 17.1008 25.4688 17.3078 25.7839C17.3595 25.8889 17.4112 25.9939 17.463 26.0465C17.6699 26.309 17.6699 26.309 17.6182 25.8889C17.6182 25.8364 17.6182 25.7314 17.5664 25.6264C17.5147 25.2063 17.463 24.8912 17.463 24.7336C17.463 24.4711 17.463 24.366 17.5664 24.366C17.6182 24.366 17.8769 24.6811 18.1873 25.1012C18.1873 25.1537 18.239 25.1537 18.239 25.2063C18.6012 25.6789 18.9633 26.099 19.3255 26.5191C19.429 26.6241 19.5842 26.7816 19.6876 26.8867L20.2567 27.4118L20.6189 27.7269V27.9894V28.5146V28.8297C20.6189 28.9347 20.6189 28.9872 20.6189 29.0922C20.6189 29.3548 20.6189 29.5648 20.5672 29.7224C20.5154 30.0375 20.4119 30.2475 20.2567 30.6151C19.5324 32.033 18.0321 33.0832 16.5834 33.2407L16.1178 33.2933H15.8074L14.9279 32.243L14.6692 31.8754ZM19.6876 18.2745C19.7394 18.222 19.8946 18.1695 19.9981 18.117C20.2567 18.0645 20.5672 18.117 20.8258 18.2745C21.1363 18.4321 21.0845 18.4846 20.3085 18.5371C20.2567 18.5371 20.205 18.5371 20.1533 18.5371C19.4807 18.5896 19.429 18.5371 19.6876 18.2745ZM19.429 15.4913C19.1185 14.7562 19.0668 13.6009 19.3255 12.9182C19.429 12.6556 19.5842 12.3406 19.6876 12.183C19.8428 11.9205 19.8946 11.9205 20.0498 12.1305C20.7224 12.8657 20.9293 14.8087 20.5154 15.7014C20.4119 15.964 20.2567 16.1215 20.2567 16.1215L20.205 15.0187C20.205 13.9685 20.1533 13.6009 19.9463 13.8109C19.8946 13.8634 19.8428 14.3886 19.7911 14.9662L19.6876 16.069L19.429 15.4913ZM40.8479 26.1515C40.5892 26.0465 40.4857 25.8889 40.3823 25.7314C40.2788 25.5738 40.3305 25.3638 40.4857 25.1012C40.7444 24.7336 40.7444 24.7336 40.434 24.7862C39.9166 24.9437 39.6579 25.3113 39.6062 25.8364V25.8889C39.6062 26.6241 40.0201 27.0967 40.7962 27.3593C41.1583 27.4643 41.4687 27.6744 41.6239 27.8844C41.7791 28.0945 41.7791 28.3045 41.6757 28.4621C41.6239 28.5671 40.7962 29.0922 39.8649 29.6699C39.6062 29.8274 39.3993 29.9324 39.1923 30.0375C38.6232 30.3525 38.3128 30.6151 38.3645 30.6151L40.1236 30.405C40.4857 30.3525 40.7962 30.3525 41.0548 30.3C41.4687 30.2475 41.7274 30.2475 41.7791 30.2475C41.7791 30.2475 41.8309 30.3 41.8826 30.405C41.9344 30.5101 41.9861 30.6676 41.9861 30.7726C42.0896 31.3503 41.8826 31.6128 40.9514 31.9279C40.5892 32.033 40.2788 32.2955 40.0718 32.5056C39.8649 32.7681 39.7097 33.0307 39.7097 33.2407C39.7097 33.3983 39.7614 33.4508 39.8132 33.3458C39.9166 33.0832 40.5375 32.8206 41.1066 32.8206C41.1583 32.8206 41.1583 32.8206 41.21 32.8206C41.5722 32.8206 41.9861 32.9782 42.3483 33.1882C43.2795 33.8184 44.0038 35.0787 43.9003 36.234C43.9003 36.444 43.8486 36.6541 43.7969 36.8116C43.6417 37.3368 43.2795 37.5993 42.5552 37.9669C42.1413 38.1245 41.6239 38.4921 41.2618 38.8071C41.1583 38.8596 41.1066 38.9647 41.0031 39.0172C39.9684 40.0149 39.1923 40.1725 38.2093 39.5948C37.9506 39.4373 37.7437 39.3323 37.4333 39.2798C36.8642 39.0697 36.1399 38.9647 35.0017 38.9122C34.4843 38.8596 34.0704 38.8071 33.7082 38.7021C32.8287 38.4921 32.0009 38.1245 30.7593 37.3368C30.604 37.2317 30.4488 37.1267 30.2936 37.0217C29.3624 36.444 28.4829 35.8139 27.7585 35.1312C27.4999 34.9212 27.2412 34.6586 27.0342 34.4485C25.9478 33.3983 25.2234 32.348 24.913 31.4028L24.6026 30.9827V31.7179C24.6026 33.0307 25.5339 34.5536 27.2929 36.129C27.6033 36.444 28.0172 36.7066 28.3794 37.0217C29.052 37.5468 29.828 38.0719 30.6558 38.5971C30.811 38.7021 31.0179 38.8071 31.2249 38.9122C31.794 39.2272 32.3631 39.5423 32.6218 39.6999C33.3978 40.0674 33.5013 40.2775 33.5013 41.1177C33.5013 41.5378 33.6565 42.378 33.8635 43.1657C33.9669 43.5333 34.0704 43.8484 34.1739 44.1635C34.7947 46.0014 36.0364 47.9444 37.2781 48.9421C37.5368 49.1522 37.7954 49.4148 37.7954 49.4673C37.7954 49.5198 36.8642 49.5198 35.6742 49.5198C34.8464 49.5198 34.2773 49.4673 33.8635 49.4148C33.3461 49.3623 32.9322 49.2572 32.4666 49.0997C31.794 48.8896 31.2249 48.6796 30.604 48.417C29.052 47.6818 27.5516 46.6316 25.4304 44.8461C23.2575 43.0082 21.7571 41.8529 20.3602 41.1702C19.7394 40.8551 19.1703 40.6451 18.6012 40.4875C17.9286 40.2775 17.256 40.1725 16.48 40.12C16.4282 40.12 16.3248 40.12 16.273 40.12C15.5487 40.0674 14.9279 40.0674 14.9279 40.0149L15.29 39.0697C15.4452 38.6496 15.6004 38.2295 15.7039 37.8094C15.9626 36.9692 16.0661 36.129 16.0661 35.3413V34.291L17.1525 34.081C17.7734 33.9759 18.6529 33.7134 19.1185 33.4508C19.3255 33.3458 19.5842 33.1882 19.7911 33.0832C20.7224 32.4531 21.5502 31.5078 21.8606 30.6676C21.964 30.405 22.0158 30.195 22.0158 29.9849C22.0158 29.9324 22.0158 29.8799 22.0158 29.8799C22.0158 29.4073 22.1193 29.2498 22.6366 29.3023C22.7401 29.3023 22.8436 29.3548 22.947 29.3548C23.0505 29.3548 23.1022 29.4073 23.2057 29.4073C23.2575 29.4073 23.3609 29.4598 23.4644 29.4598H23.5161C23.93 29.5648 24.3957 29.5123 24.8613 29.4073C24.9648 29.4073 25.0165 29.3548 25.12 29.3548C25.1717 29.3548 25.2752 29.3023 25.3269 29.3023H25.3787C25.4821 29.2498 25.5339 29.1972 25.6373 29.1972C25.7408 29.1447 25.7925 29.0922 25.8443 29.0397C25.9478 28.9872 25.9995 28.9347 26.0512 28.8297C26.103 28.7771 26.2064 28.6721 26.2582 28.5671C26.3099 28.4621 26.3617 28.357 26.4134 28.252C26.4651 28.147 26.5169 28.042 26.5169 27.9369C26.5686 27.8319 26.5686 27.7269 26.6203 27.6219C26.6721 27.5168 26.6721 27.3593 26.6721 27.2543C26.6721 27.0967 26.6721 26.9917 26.6721 26.8342C26.6721 26.6766 26.6203 26.5716 26.6203 26.4141C26.5686 26.2565 26.5169 26.1515 26.4651 25.994C26.4134 25.9414 26.4134 25.8364 26.3617 25.7839C26.3099 25.7314 26.3099 25.6789 26.2582 25.6264C26.2064 25.5213 26.103 25.3638 25.9478 25.2588C25.8443 25.1537 25.7408 24.9962 25.5856 24.8912C25.2752 24.5761 25.0165 24.366 24.9648 24.4711C24.913 24.5236 25.0682 24.7862 25.2234 25.1012C25.2752 25.1537 25.3269 25.2588 25.3269 25.3113C25.3787 25.4688 25.4821 25.6264 25.5339 25.7839C25.5856 25.9414 25.6373 26.099 25.6373 26.2565C25.6373 26.4141 25.6891 26.5191 25.6891 26.6766C25.6891 26.7816 25.6891 26.9392 25.6373 27.0442C25.6373 27.1492 25.5856 27.2543 25.5339 27.3593C25.4821 27.4643 25.4821 27.5693 25.4304 27.6219C25.3787 27.6744 25.3269 27.7794 25.2752 27.8319C25.2234 27.8844 25.1717 27.9369 25.12 27.9894C25.0682 28.042 25.0165 28.0945 24.9648 28.0945C24.9648 28.0945 24.9648 28.0945 24.913 28.0945C24.8613 28.0945 24.8613 28.147 24.8096 28.147C24.7578 28.147 24.7061 28.1995 24.6543 28.1995C24.6026 28.1995 24.6026 28.1995 24.5509 28.252C24.4991 28.252 24.4991 28.252 24.4474 28.252C24.3957 28.252 24.3957 28.252 24.3957 28.252H24.3439H24.2922C24.1887 28.252 24.0852 28.252 23.9818 28.252H23.93H23.8783H23.8266C23.7748 28.252 23.7748 28.252 23.7231 28.252C23.6714 28.252 23.6196 28.252 23.6196 28.1995C23.5679 28.1995 23.5161 28.147 23.4644 28.147C23.4127 28.147 23.3092 28.0945 23.2057 28.0945C23.1022 28.042 22.9988 27.9894 22.8953 27.9369C22.7401 27.8844 22.5331 27.7794 22.3779 27.6744C22.1193 27.5168 21.8088 27.3593 21.5502 27.1492C21.1363 26.8342 20.7224 26.5191 20.3085 26.099C19.7394 25.5738 19.222 24.9437 18.8081 24.366C18.6012 24.051 18.446 23.7884 18.2908 23.4733C18.0321 22.9482 17.9286 22.6856 17.9286 22.318C17.9286 22.213 17.9286 22.108 17.9286 21.9504C17.9803 21.4778 18.0321 21.2678 18.3425 20.9527C18.446 20.8477 18.5494 20.7426 18.6529 20.6376C18.9116 20.4276 19.1185 20.27 19.3255 20.1125C19.7394 19.8499 20.1533 19.7449 20.6189 19.7974C21.2397 19.7974 22.0158 20.06 22.9988 20.5851C23.154 20.6376 23.3092 20.7426 23.4644 20.7952C25.2752 21.7929 25.6891 21.6354 25.896 20.1125C25.9995 19.4298 25.9995 19.3773 26.3617 19.2723C26.4134 19.2723 26.4651 19.2723 26.5686 19.2198C26.7755 19.2198 26.9825 19.2198 27.086 19.2198C27.3964 19.2723 27.862 19.2723 28.2759 19.1673C28.6381 19.0622 29.0002 18.9047 29.2072 18.6946C29.5176 18.327 29.5176 18.2745 29.4141 17.0667V16.7517L29.3624 15.7539L29.7245 15.6489C29.7763 15.6489 29.8797 15.5964 29.9832 15.5964C30.1902 15.5439 30.5006 15.5439 30.811 15.5439C31.3801 15.5439 31.8975 15.4913 32.4666 15.2813C33.2426 15.0187 34.1221 14.5461 35.519 13.6534C36.709 12.9182 37.0194 12.7607 37.5368 12.7082C37.6402 12.7082 37.7437 12.7082 37.8989 12.7082C38.3645 12.7082 38.675 12.6556 38.675 12.6031C38.6232 12.4981 38.3128 12.3406 37.9506 12.2355C37.6402 12.183 37.3298 12.078 37.0711 12.078C36.3985 12.078 36.0881 12.2355 33.5013 13.6534C33.4496 13.6534 33.4496 13.7059 33.3978 13.7059C32.3631 14.2835 32.1561 14.3361 30.9662 14.4411C30.811 14.4411 30.6558 14.4936 30.5006 14.4936C28.5346 14.7562 28.1724 15.2288 28.5346 17.0142C28.6381 17.6444 28.6381 17.9069 28.5346 18.012C28.4829 18.0645 27.862 18.222 27.1894 18.2745C27.086 18.2745 26.9825 18.2745 26.879 18.327C26.3099 18.3796 25.7925 18.4846 25.5856 18.5371C25.1717 18.7472 24.913 19.3248 25.0165 19.8499C25.0682 20.06 25.0682 20.27 25.0165 20.3225C24.9648 20.3751 24.3439 20.06 23.6196 19.6924L22.6884 19.1673L22.3262 18.9572L22.6366 18.9047L23.154 18.8522C24.2405 18.7472 25.0682 18.3796 25.8443 17.6444C26.2064 17.3293 26.5169 16.9617 26.5169 16.9092C26.5169 16.8567 26.3617 16.7517 26.2064 16.6466C25.9995 16.5416 25.896 16.4366 25.896 16.3841C25.896 16.3316 26.1547 16.2265 26.5169 16.1215C26.879 16.0165 27.2929 15.8064 27.6551 15.5964C28.2242 15.2288 28.6898 14.7036 28.5863 14.4411C28.5346 14.231 28.5863 14.1785 29.2589 14.021C29.8797 13.916 30.5006 13.6534 31.0179 13.3383C31.3284 13.1283 31.587 12.9707 31.794 12.7607L32.2079 12.288L31.794 11.7629L31.7423 11.7104L31.3801 11.2378H32.1561C33.0357 11.2378 34.2256 10.8702 35.0534 10.3451C35.4673 10.0825 36.1916 9.39983 36.502 9.03224C36.5538 8.97973 36.6055 8.92722 36.6055 8.8747C36.6055 8.61214 35.2086 7.50936 34.4843 7.19429L33.9669 6.93172L33.6565 6.82669L34.1221 6.51162L34.3291 6.35408C34.6912 6.09151 35.3121 5.56638 35.6742 5.14628C36.0364 4.72617 36.3985 4.35858 36.502 4.35858C37.0194 4.35858 37.9506 4.77869 38.2611 5.09376C38.4163 5.2513 38.5197 5.40884 38.6232 5.61889C38.8302 5.98649 38.8819 6.35408 38.7784 6.51162C38.7267 6.56413 38.4163 6.56413 38.1059 6.4591H38.0541C37.5885 6.35408 37.2781 6.35408 36.8642 6.4591C36.1399 6.66916 36.0364 6.87921 36.6572 6.87921C36.9676 6.87921 37.3298 6.98423 37.692 7.14177C38.3645 7.45685 38.9854 8.03449 39.451 8.76968C39.8132 9.34732 39.8649 9.39983 39.9166 9.13727C39.9684 8.97973 39.8649 8.55962 39.7614 8.19203C39.658 7.82444 39.5545 7.50936 39.6062 7.45685C39.7614 7.29931 40.4857 7.71942 40.8996 8.24455C40.9514 8.34957 41.0548 8.4546 41.1066 8.50711C41.6239 9.24229 41.7791 9.97748 41.7274 11.2903L41.6757 12.4981L41.8826 12.7082L42.0896 12.9707C43.176 14.1785 42.9174 15.8589 41.5205 16.4366L41.1066 16.6466V17.1718L41.1583 17.9069C41.21 18.6946 41.3135 19.3248 41.5722 20.165C41.7791 20.8477 42.1413 21.6354 42.6069 22.6856C42.7104 22.8957 42.8139 23.1582 42.9174 23.4208C43.2795 24.2085 43.6417 24.8912 43.7969 25.3113C43.9003 25.5213 43.9521 25.6789 43.9521 25.6789C43.9521 26.0465 41.4687 26.4666 40.8479 26.1515Z" fill="#F5F7FF"/>
<path d="M36.5147 37.1449C35.924 36.9243 35.8649 36.9243 36.2193 37.3655C36.5738 37.8066 37.5189 38.0713 38.2869 37.9831C38.8185 37.939 39.8228 37.4096 39.9409 37.1449C39.9409 37.1008 40 37.1008 40 37.0567C40 37.0125 39.9409 37.0125 39.8228 37.0567C39.7046 37.0567 39.5274 37.1008 39.4093 37.189C38.6413 37.4537 37.4008 37.4537 36.5147 37.1449Z" fill="#F5F7FF"/>
<path d="M16.7241 28.6989C17.0115 28.8996 17.3563 28.9498 17.7586 29C18.2759 29 18.7931 28.8996 19.1954 28.6487C19.2529 28.6487 19.2529 28.5986 19.3103 28.5484L20 28.0967L18.908 27.9964C18.7931 27.9964 18.6782 27.9462 18.6207 27.9462C17.9885 27.8458 17.5862 27.6451 17.1264 27.2938C17.069 27.2437 17.0115 27.1935 16.954 27.1433C16.6667 26.8422 16.3218 26.4408 16.092 25.9891C15.8046 25.5375 15.5747 24.9855 15.4023 24.6342C15.4023 24.5339 15.3448 24.4335 15.3448 24.3833C15.2299 23.7812 15.0575 23.9317 15 24.5339C15 24.6342 15 24.7848 15 24.8852C15 25.2364 15 25.5375 15.0575 25.8888C15.1149 26.3404 15.2874 26.792 15.4023 27.1935C15.5747 27.5949 15.8046 27.9964 16.0345 28.2473C16.3218 28.3978 16.4943 28.5986 16.7241 28.6989Z" fill="#F5F7FF"/>
<path d="M42.0816 35.799C42.3878 35.6641 42.6327 35.4842 42.7551 35.2593C42.9388 35.0344 43 34.7646 43 34.4498C43 34.1799 43 34 42.9388 34C42.9388 34 42.7551 34.2249 42.5714 34.4947C42.449 34.6746 42.2653 34.8995 42.0816 35.0344C41.7143 35.3493 41.1633 35.5742 40.6122 35.6641L40 35.7541L40.4286 35.889C41.102 36.0689 41.5306 36.0239 42.0816 35.799Z" fill="#F5F7FF"/>
<path d="M39.7992 17.9766C39.5992 17.5769 39.3492 17.3271 38.9493 17.1772C38.4493 16.9773 37.7994 16.9274 36.9995 17.1272C36.3996 17.2771 35.7497 17.477 35.0498 17.8767C34.2498 18.2764 33.15 19.1259 33.25 19.2758L34.3498 18.876C34.6998 18.7261 35.0997 18.5762 35.4497 18.4763C36.3996 18.1765 37.2995 17.9267 37.6994 17.9267C38.1494 17.9267 38.9993 18.2265 38.9993 18.4263C38.9993 18.4763 38.5993 18.6262 38.0994 18.6762C36.8495 18.876 35.5997 19.4756 34.1999 20.375L33 21.1245L33.9999 21.0745C34.2998 21.0745 34.5998 21.0745 34.9498 21.0745C35.6997 21.1245 36.5496 21.3243 37.7494 21.6241C38.0994 21.7241 38.4993 21.824 38.9493 21.9739C39.1493 22.0239 39.1493 22.0239 38.9993 21.774C38.8993 21.5742 38.8993 21.4742 38.9993 21.2744C39.0493 21.2244 39.0493 21.1245 39.0993 21.0245C39.1992 20.6748 39.1493 20.1751 39.0493 19.9253C38.9493 19.7254 39.0493 19.6255 39.4992 19.1259C40.0491 18.5762 40.0491 18.5263 39.9492 18.2265C39.8492 18.1265 39.8492 18.0766 39.7992 17.9766ZM37.2495 20.7248C36.4996 20.5249 36.1496 20.425 36.1496 20.325C36.1496 20.2251 36.2996 20.1252 36.6496 19.9753C36.6496 19.9753 36.6995 19.9753 36.6995 19.9253C37.6494 19.4756 38.0494 19.5755 38.2494 20.2251C38.4493 20.8746 38.2494 20.9746 37.2495 20.7248Z" fill="#F5F7FF"/>
<path d="M33.1787 46.5025C32.1375 46.2388 31.0443 45.9224 30.3155 45.6059C29.847 45.4477 29.4826 45.2895 29.3264 45.184C28.8579 44.8675 28.91 44.973 29.3785 45.395C29.5867 45.6059 30.0032 45.8169 30.4196 46.0806C31.1485 46.4498 31.9814 46.8717 32.7622 47.1882C33.0225 47.2937 33.2828 47.3464 33.5951 47.4519C34.6884 47.7683 35.9377 48.0848 35.9898 47.9793C36.0418 47.9266 35.8857 47.7156 35.7295 47.4519C35.4172 47.0827 35.261 46.9772 34.6363 46.819C34.1678 46.7663 33.6993 46.6608 33.1787 46.5025Z" fill="#F5F7FF"/>
<path d="M32.3485 45.1061C31.4647 44.7387 30.5289 44.3714 29.801 44.004C29.3851 43.794 29.0211 43.6366 28.8132 43.4791C27.8254 42.8493 27.8254 42.8493 28.3453 43.4266C28.6572 43.794 29.2811 44.2664 29.957 44.6863C30.4769 45.0536 31.1007 45.421 31.6206 45.6834C31.9326 45.8409 32.3485 46.0508 32.8164 46.2083C33.8562 46.6282 35 47.048 35 46.9955L34.74 46.4182C34.5321 45.9459 34.3761 45.8409 33.5963 45.631C33.2323 45.421 32.7644 45.2636 32.3485 45.1061Z" fill="#F5F7FF"/>
<path d="M24.4595 25.1722C24.242 25.1722 24.0789 25.1722 23.9158 25.1204C23.807 25.0687 23.6983 25.0169 23.5896 24.9135C23.209 24.5513 23.1002 24.2926 23.2633 23.7235C23.3177 23.62 23.3177 23.4648 23.3721 23.3096C23.9158 21.8608 23.6439 20.8261 22.7196 20.2569C22.339 19.9982 21.8497 19.9465 21.4691 20.05C21.0885 20.1017 20.7079 20.3087 20.4361 20.6191C20.1098 20.9813 19.8924 21.3952 20.0555 21.9126C20.0555 21.9643 20.1098 22.0678 20.1098 22.1195L20.3273 22.5852L20.4361 22.3265L20.6535 21.9126C20.7623 21.7056 20.871 21.5504 20.9798 21.3952C21.2516 21.033 21.5778 20.9295 21.9584 21.033C22.0128 21.033 22.0672 21.0848 22.1216 21.0848C22.6109 21.2917 22.7196 21.6539 22.6109 22.3265C22.5565 22.5335 22.5021 22.7922 22.3934 23.1026C22.3934 23.1543 22.339 23.2578 22.339 23.3096C22.2303 23.6717 22.1216 23.8787 22.1216 24.0856C22.0672 24.2926 22.1216 24.4478 22.1759 24.7065C22.2303 24.81 22.2847 24.9652 22.339 25.0687C22.5565 25.4826 22.9371 25.7413 23.3177 25.8965C23.4808 25.9483 23.6439 26 23.807 26C23.9158 26 23.9702 26 24.0789 26C24.1333 26 24.242 26 24.2964 25.9483C24.4595 25.8965 24.6226 25.793 24.7857 25.6378C25.1119 25.1722 25.1119 25.1204 24.4595 25.1722Z" fill="#F5F7FF"/>
<path d="M42.3636 14.4607C41.8571 14.5326 41.2943 14.4967 40.7878 14.4248C40.3938 14.3529 39.9436 14.281 39.6059 14.1372C38.9868 13.8855 38.818 13.9933 39.2119 14.3529C39.4933 14.5686 39.7747 14.7124 40.0561 14.8202C40.3938 14.9281 40.7878 15 41.238 15C41.8571 15 42.1385 14.964 42.5324 14.7843C43.2078 14.4607 43.1515 14.3529 42.3636 14.4607Z" fill="#F5F7FF"/>
<path d="M28.7679 37.7633C29.4189 38.3664 30.1242 38.9146 30.5582 39.1887C31.7517 39.9563 33.8131 41.0528 33.9759 40.998C34.0301 40.9432 33.9759 40.7239 33.9759 40.5046C33.9216 40.2305 33.8131 40.066 33.1621 39.737C32.8909 39.5725 32.4569 39.3532 31.9144 39.0791C31.2634 38.7501 30.6124 38.3664 30.0157 38.0374C29.4732 37.7084 29.0392 37.4343 28.6052 37.1602C28.0084 36.7764 27.5744 36.4474 27.4117 36.2829C27.249 36.1185 27.0862 36.0088 27.032 36.0088C26.815 35.8992 27.7372 36.8312 28.7679 37.7633Z" fill="#F5F7FF"/>
<path d="M30.6176 40.3655C29.9571 39.9731 29.2965 39.6367 28.746 39.2444C28.1955 38.908 27.7552 38.5717 27.4799 38.3475C26.7092 37.6749 26.8744 38.0112 27.9203 39.0762C28.2506 39.4125 28.5809 39.6928 28.9662 40.0291C29.6268 40.5897 30.3974 41.1502 31.2232 41.5986C31.7186 41.935 32.2691 42.2152 32.7645 42.4395C33.37 42.7758 33.9205 43 33.9755 43C34.0306 43 33.9755 42.7197 33.9755 42.4395C33.9205 41.935 33.8104 41.8789 32.1039 41.0381C31.4984 40.8699 31.058 40.6457 30.6176 40.3655Z" fill="#F5F7FF"/>
<path d="M31.227 42.6923C30.4271 42.299 29.6272 41.8495 28.934 41.4C28.3474 41.0066 27.8141 40.6695 27.4942 40.3886C26.8543 39.8267 26.8543 39.8829 27.3875 40.5009C27.8141 41.0066 28.4541 41.6247 29.1473 42.1866C29.6272 42.58 30.1605 42.9733 30.6404 43.3104C30.9071 43.479 31.3337 43.7037 31.707 43.9285C32.7735 44.4904 33.9467 45.0523 34 44.9961C34 44.9961 33.9467 44.7152 33.84 44.378C33.6267 43.8723 33.5201 43.7599 31.9203 43.0295C31.7603 42.9171 31.4937 42.8047 31.227 42.6923Z" fill="#F5F7FF"/>
<path d="M65.3053 21.7048C65.4541 21.8063 65.4541 21.9587 65.5037 22.0603C65.5533 22.1619 65.702 22.2127 65.7516 22.3143C65.8508 22.4667 65.9004 22.619 65.9996 22.7206C67.041 23.5841 68.0328 24.4984 68.9254 25.4635C69.0246 25.5651 69.0742 25.7175 69.0742 25.8698C69.0742 26.2254 68.5783 27.1397 68.4295 27.546C68.3303 27.7492 68.1815 27.9524 68.132 28.1556C67.8344 28.8159 67.4873 29.4254 67.2889 30.1365C67.3881 30.1873 67.3881 30.3397 67.6856 30.4921C67.8344 30.5937 67.7848 30.6952 67.9832 30.6952C68.0824 30.6952 68.132 30.6444 68.2311 30.6444C68.3303 30.6952 68.3799 30.8476 68.5287 30.8476C68.5783 30.8476 68.6775 30.7968 68.7766 30.8476C68.8758 30.8984 68.9254 31 68.975 31C69.1734 31 69.6197 30.6952 69.8676 30.5937C70.0164 30.0857 70.2643 29.6286 70.4131 29.1714C70.6115 29.0698 70.6115 28.8667 70.6611 28.7143C70.7602 28.5111 70.8594 28.2571 70.9586 28.054C71.0578 27.8508 71.1074 27.546 71.2066 27.3429C71.2561 27.2413 71.3553 27.1905 71.4545 27.1397C71.6033 26.9365 71.6033 26.6317 71.7025 26.3778C71.8512 26.073 72 25.9714 72 25.5143C71.9504 25.4127 71.9008 25.3111 71.8512 25.2603C71.9008 24.8032 71.8016 24.1937 71.3553 24.0413C70.8594 23.381 70.2148 22.9746 69.6693 22.4667C69.3717 22.1619 69.1238 21.9587 68.8262 21.7048C68.6774 21.5524 68.5783 21.4508 68.4295 21.2984C68.3303 21.1968 67.9832 20.9937 67.9832 20.8921C67.9832 20.6381 69.0246 19.0635 69.1734 18.8095C69.3221 18.6063 69.3717 18.454 69.4709 18.2508C69.6693 17.946 69.9172 17.6413 70.1652 17.0825C70.5123 16.8286 70.6611 16.3206 70.6611 15.9143C70.6611 15.7111 70.6115 15.5079 70.5123 15.3048C70.3139 15.3048 70.1156 15.2032 69.9172 15.2032C69.7684 15.2032 69.6693 15.3048 69.5701 15.3048C69.4213 15.3048 69.2229 15.254 69.0742 15.2032C68.8758 15.1524 68.5783 15 68.4791 15C68.1815 15 67.884 15.8635 67.8344 16.1175C67.6856 16.6762 67.4873 17.0317 67.0906 17.4381C66.9418 17.5905 66.8922 17.7429 66.8426 17.8952C66.2971 18.7587 65.7516 19.673 65.4045 20.6381C65.4045 20.6381 65.3549 20.7397 65.3053 20.8413C65.3053 21.0444 65.0574 21.0952 65.0574 21.2476C65.0574 21.3492 65.1069 21.4508 65.0078 21.5016C64.9582 21.6032 65.1565 21.6032 65.3053 21.7048Z" fill="#F5F7FF"/>
<path d="M154.305 21.7048C154.454 21.8063 154.454 21.9587 154.504 22.0603C154.553 22.1619 154.702 22.2127 154.752 22.3143C154.851 22.4667 154.9 22.619 155 22.7206C156.041 23.5841 157.033 24.4984 157.925 25.4635C158.025 25.5651 158.074 25.7175 158.074 25.8698C158.074 26.2254 157.578 27.1397 157.429 27.546C157.33 27.7492 157.182 27.9524 157.132 28.1556C156.834 28.8159 156.487 29.4254 156.289 30.1365C156.388 30.1873 156.388 30.3397 156.686 30.4921C156.834 30.5937 156.785 30.6952 156.983 30.6952C157.082 30.6952 157.132 30.6444 157.231 30.6444C157.33 30.6952 157.38 30.8476 157.529 30.8476C157.578 30.8476 157.677 30.7968 157.777 30.8476C157.876 30.8984 157.925 31 157.975 31C158.173 31 158.62 30.6952 158.868 30.5937C159.016 30.0857 159.264 29.6286 159.413 29.1714C159.611 29.0698 159.611 28.8667 159.661 28.7143C159.76 28.5111 159.859 28.2571 159.959 28.054C160.058 27.8508 160.107 27.546 160.207 27.3429C160.256 27.2413 160.355 27.1905 160.455 27.1397C160.603 26.9365 160.603 26.6317 160.702 26.3778C160.851 26.073 161 25.9714 161 25.5143C160.95 25.4127 160.901 25.3111 160.851 25.2603C160.901 24.8032 160.802 24.1937 160.355 24.0413C159.859 23.381 159.215 22.9746 158.669 22.4667C158.372 22.1619 158.124 21.9587 157.826 21.7048C157.677 21.5524 157.578 21.4508 157.429 21.2984C157.33 21.1968 156.983 20.9937 156.983 20.8921C156.983 20.6381 158.025 19.0635 158.173 18.8095C158.322 18.6063 158.372 18.454 158.471 18.2508C158.669 17.946 158.917 17.6413 159.165 17.0825C159.512 16.8286 159.661 16.3206 159.661 15.9143C159.661 15.7111 159.611 15.5079 159.512 15.3048C159.314 15.3048 159.116 15.2032 158.917 15.2032C158.768 15.2032 158.669 15.3048 158.57 15.3048C158.421 15.3048 158.223 15.254 158.074 15.2032C157.876 15.1524 157.578 15 157.479 15C157.182 15 156.884 15.8635 156.834 16.1175C156.686 16.6762 156.487 17.0317 156.091 17.4381C155.942 17.5905 155.892 17.7429 155.843 17.8952C155.297 18.7587 154.752 19.673 154.404 20.6381C154.404 20.6381 154.355 20.7397 154.305 20.8413C154.305 21.0444 154.057 21.0952 154.057 21.2476C154.057 21.3492 154.107 21.4508 154.008 21.5016C153.958 21.6032 154.157 21.6032 154.305 21.7048Z" fill="#F5F7FF"/>
<path d="M74.85 26.5016C75 26.655 75.15 26.7061 75.2 26.9617C75.35 27.0128 75.4 27.2684 75.5 27.4217C75.6 27.5751 75.7 27.7284 75.8 27.9329C76.15 28.5463 76.55 29.1086 76.95 29.6709C77.05 29.7732 77.1 29.8754 77.2 30.0288C77.3 30.131 77.4 30.2332 77.45 30.3866C77.55 30.5399 77.7 30.6422 77.8 30.7955C78.05 30.7955 78.15 30.9489 78.4 31C78.5 30.9489 78.5 30.7955 78.6 30.7444C78.6 30.6933 78.5 30.5399 78.85 30.6422C78.9 30.7955 79 30.8978 79.2 30.8978C79.4 30.7444 79.55 30.4377 79.75 30.2843C79.9 30.0799 80 29.8754 80.15 29.6709C80.3 29.4665 80.4 29.262 80.55 29.0064C80.8 28.5974 81.05 28.0351 81.35 27.7284C81.35 27.6773 81.65 27.2173 81.65 27.1661C81.75 27.0639 81.8 27.0128 81.85 26.8594C82.05 26.6038 83.1 24.9169 83.15 24.7125C83.25 24.6102 83.25 24.508 83.4 24.4058C83.45 24.3035 83.5 24.1502 83.65 24.0479C83.7 23.8434 83.85 23.6901 83.95 23.4856C83.95 23.3834 84 23.2811 84 23.1789C84 23.0256 83.9 22.9233 83.8 22.8211C83.8 22.7188 83.9 22.6166 83.95 22.5144C83.8 22.2077 83.7 22.0032 83.4 21.5942C83.15 21.3387 82.1 19.9073 81.95 19.6006C81.8 19.4984 80.9 18.1182 80.8 17.8626C80.55 17.4537 80.2 17.0958 79.9 16.6869C79.7 16.3802 79.45 16.0224 79.2 15.7157C79.05 15.6645 79 15.5112 78.9 15.4089C78.75 15.3578 78.7 15.2045 78.45 15.2045C78.2 15.0511 78.2 15.0511 77.9 15C77.85 15.0511 77.7 15.0511 77.8 15.3578C77.8 15.4089 77.65 15.4601 77.6 15.4601C77.55 15.5623 77.5 15.6645 77.5 15.7668C77.35 15.7668 77.35 15.9712 77.15 15.9712C77 16.2268 76.95 16.4313 76.7 16.7891C76.55 16.9425 76.5 17.147 76.35 17.2492C76.25 17.4537 76.1 17.6581 75.95 17.7604C75.8 18.0671 75.7 18.3227 75.45 18.5783C75.4 18.7827 75.3 18.9361 75.15 19.0895C75.15 19.1917 75.05 19.2939 74.95 19.3962C74.9 19.7029 74.65 19.8562 74.6 20.1629C74.45 20.2652 74.4 20.4185 74.25 20.4696C74.1 20.8275 74.05 21.0319 73.75 21.5431C73.6 21.7987 73.45 22.0543 73.25 22.361C73.25 22.4633 73.2 22.5655 73.2 22.6166C73.05 22.77 73.15 22.9233 73 23.3834C73.45 24.2013 73.9 24.9169 74.45 25.6837C74.5 26.0415 74.7 26.2971 74.85 26.5016ZM76.05 22.2077C76.2 22.0032 76.3 21.7987 76.4 21.5942C76.55 21.3898 76.65 21.1853 76.8 21.0319C77 20.7252 77.15 20.3163 77.35 20.0096C77.55 19.6518 77.8 19.3962 78 19.0383C78.05 18.9872 78.1 18.9872 78.2 18.9361C78.35 19.1406 78.5 19.2428 78.6 19.4473C78.65 19.5495 78.7 19.6518 78.75 19.754C78.9 20.0096 79.35 20.6741 79.6 20.8786C79.7 21.0319 79.8 21.1342 79.9 21.2875C79.95 21.3898 80 21.492 80 21.5431C80.1 21.6454 80.15 21.6965 80.25 21.7987C80.35 21.9521 80.4 22.0543 80.5 22.2077C80.75 22.5144 80.95 22.77 81.1 23.3323C80.95 23.4856 80.9 23.639 80.75 23.7412C80.65 23.9457 80 25.0703 79.8 25.3259C79.65 25.6326 79.5 25.9393 79.2 26.3994C78.9 26.7061 78.8 27.115 78.5 27.4217C78.2 27.2684 77.6 25.9393 77.35 25.5815C77.2 25.377 77.05 25.2748 76.95 25.0192C76.75 24.8147 76.65 24.5591 76.45 24.3546C76.4 24.2013 75.75 23.2811 75.6 22.9233C75.75 22.6166 75.85 22.4633 76.05 22.2077Z" fill="#F5F7FF"/>
<path d="M85.2 20.5974C85.2 20.8086 85.2 21.0198 85.2 21.2838C85.2 21.4422 85.25 21.5479 85.25 21.7063C85.25 21.8119 85.25 21.8647 85.25 21.9175C85.3 22.0759 85.3 22.1815 85.3 22.3399C85.3 22.5512 85.3 22.7096 85.3 22.9208C85.35 23.132 85.35 23.9769 85.35 24.3465C85.35 25.9835 85.35 27.5677 85.3 29.2046C85.2 29.363 85.2 29.6799 85.2 29.8383C85.2 29.9967 85.2 30.1023 85.2 30.2607C85.3 30.3663 85.3 30.5776 85.4 30.6832C85.55 30.6832 85.65 30.5776 85.9 30.5776C85.95 30.6832 85.9 30.7888 85.95 30.8944C86.2 31 86.45 31 86.7 31C87.2 31 87.1 30.5248 87.35 30.4719C87.6 30.4719 87.85 30.4719 88.1 30.4191C88.2 30.4191 88.75 30.2079 88.8 30.1551C89.1 30.1023 89.3 29.9967 89.6 29.8911C90.7 29.4686 91.75 29.099 92.8 28.6766C92.95 28.4653 93 28.3597 93 28.2013C92.95 28.0957 92.95 27.7261 92.65 27.3036C92.65 27.198 92.8 27.0924 92.7 27.0396C92.7 26.934 92.55 26.934 92.6 26.8284C92.45 26.67 92.5 26.5644 92.2 26.2475C92.1 26.2475 92 26.2475 91.85 26.1947C91.8 26.2475 91.7 26.2475 91.6 26.2475C91.15 26.4059 90.75 26.6172 90.25 26.7756C90 26.8812 89.85 26.8812 89.5 27.1452C89.3 27.198 89.1 27.2508 88.9 27.3036C88.55 27.3564 88.25 27.5149 87.95 27.6205L87.85 27.3564C87.85 27.0924 87.85 26.7756 87.85 26.4587V24.8218C87.85 24.505 87.9 24.1881 87.9 23.8713C87.9 23.7129 87.9 23.6601 87.9 23.5017C87.9 22.604 87.9 21.7591 87.9 20.9142C87.9 20.3861 87.85 19.8053 87.8 19.33C87.7 18.2211 87.8 17.0594 87.7 15.8977C87.65 15.7921 87.6 15.6337 87.6 15.4752C87.5 15.3168 87.45 15.0528 87.25 15.0528C87.15 15.0528 87.1 15.1584 87 15.1584C86.9 15.1056 87 15 86.55 15.1056C86.4 15.1056 86.35 15.0528 86.2 15C86.1 15.0528 86 15.1056 85.85 15.1056C85.6 15.1056 85.45 15 85.1 15.1584C85.1 15.264 85.05 15.3696 85 15.5281C85 16.4785 85.05 17.4818 85.05 18.4323C85.1 19.1716 85.2 19.8581 85.2 20.5974Z" fill="#F5F7FF"/>
<path d="M102 30.3067C102.2 30.52 102.2 30.7867 102.3 31C102.55 31 102.65 30.9467 102.8 30.7867C102.95 30.7867 102.8 30.8933 103.15 30.7867C103.25 30.7867 103.3 30.7867 103.4 30.84C103.55 30.7867 103.65 30.68 103.85 30.68C103.95 30.6267 104.05 30.4667 104.15 30.4667C104.25 30.4667 104.3 30.5733 104.45 30.5733L104.6 30.36V29.6133C104.6 28.8667 104.55 28.0667 104.55 27.2667L104.75 27.1067C104.8 27 105.4 26.36 105.6 26.3067C105.65 26.1467 106.1 25.6667 106.3 25.56L106.45 25.3467C106.7 25.1867 106.85 24.8667 107.15 24.7067C107.2 24.5467 107.35 24.4933 107.4 24.3867C107.6 24.1733 107.8 23.96 108.05 23.7467C108.2 23.48 108.4 23.2667 108.65 23.1067C109.05 22.6267 109.55 22.3067 110 21.6667C110.05 21.56 110.05 21.5067 110.25 21.3467C110.3 21.1333 110.55 21.0267 110.6 20.8133C110.75 20.7067 110.9 20.5467 110.95 20.3867C110.95 20.28 110.9 20.1733 110.85 20.0667C110.95 19.96 110.9 19.8 111 19.5333C110.95 19.32 110.4 18.9467 110.25 18.84C110.2 18.7333 110.05 18.6267 109.8 18.4667C109.7 18.3067 109.55 18.2533 109.45 18.1467C109.25 17.9867 109.05 17.8267 108.8 17.72C108.5 17.5067 108.05 17.5067 107.85 17.1867C107.6 17.08 107.35 16.8667 107.1 16.7067C106.8 16.4933 105.5 15.8 105.25 15.7467C105.15 15.64 105.05 15.5867 105 15.48C104.85 15.48 104.8 15.3733 104.65 15.32C104.65 15.2133 104.55 15.16 104.45 15.1067C104.35 15.1067 104.3 15.2133 104.25 15.2667C104.15 15.2133 104.15 15.1067 104.05 15.0533C103.95 15.0533 103.85 15.16 103.75 15.16C103.65 15.0533 103.55 15.0533 103.45 15.0533C103.3 15.0533 103.1 15.1067 102.9 15.16C102.8 15.0533 102.7 15 102.55 15C102.45 15 102.35 15.0533 102.3 15.1067V15.4267C102.3 15.9067 102.3 16.3333 102.25 16.76C102.25 16.9733 102.2 17.1867 102.2 17.3467C102.2 17.7733 102.2 18.0933 102.2 18.4667C102.2 19.6933 102.15 20.8667 102.15 22.2C102.15 22.4667 102.1 22.7333 102.1 23.0533C102.1 23.5333 102.15 24.0667 102.15 24.5467C102.15 25.4 102.05 26.3067 102.05 27.16C102.05 27.5333 102.15 27.9067 102.15 28.2267C102.15 28.3867 102.15 28.6 102.15 28.8133C102.15 29.1333 102.25 29.56 102.05 29.9333C102.05 30.04 102.05 30.1467 102 30.3067ZM104.7 22.3067L104.75 21.1867V18.9467C104.75 18.8933 104.8 18.84 104.8 18.68L104.85 18.6267C104.9 18.68 105.05 18.7867 105.25 18.7867C105.4 18.7867 105.5 18.8933 105.65 19C105.75 19 106.25 19.2667 106.3 19.3733C106.85 19.5867 107.3 19.96 107.75 20.28C107.55 20.76 107.2 21.0267 106.7 21.56C106.55 21.72 104.8 23.8 104.75 23.8C104.7 23.5867 104.7 23.4267 104.7 23.2667C104.7 23.1067 104.75 23 104.75 22.84C104.75 22.6267 104.7 22.4133 104.7 22.3067Z" fill="#F5F7FF"/>
<path d="M113.101 20.5974C113.101 20.8086 113.101 21.0198 113.101 21.2838C113.101 21.4422 113.152 21.5479 113.152 21.7063C113.152 21.8119 113.152 21.8647 113.152 21.9175C113.203 22.0759 113.203 22.1815 113.203 22.3399C113.203 22.5512 113.203 22.7096 113.203 22.9208C113.253 23.132 113.253 23.9769 113.253 24.3465C113.253 25.9835 113.253 27.5677 113.203 29.2046C113.101 29.363 113.101 29.6799 113.101 29.8383C113.101 29.9967 113.101 30.1023 113.101 30.2607C113.203 30.3663 113.203 30.5776 113.304 30.6832C113.456 30.6832 113.557 30.5776 113.81 30.5776C113.861 30.6832 113.81 30.7888 113.861 30.8944C114.114 31 114.367 31 114.62 31C115.127 31 115.025 30.5248 115.278 30.4719C115.532 30.4719 115.785 30.4719 115.987 30.4191C116.089 30.4191 116.646 30.2079 116.747 30.1551C117.051 30.1023 117.253 29.9967 117.557 29.8911C118.671 29.4686 119.734 29.099 120.797 28.6766C120.949 28.4653 121 28.3597 121 28.2013C120.949 28.0957 120.949 27.7261 120.646 27.3036C120.646 27.198 120.797 27.0924 120.696 27.0396C120.696 26.934 120.544 26.934 120.595 26.8284C120.443 26.67 120.494 26.5644 120.19 26.2475C120.089 26.2475 119.987 26.2475 119.835 26.1947C119.785 26.2475 119.684 26.2475 119.582 26.2475C119.127 26.4059 118.722 26.6172 118.215 26.7756C117.962 26.8812 117.81 26.8812 117.456 27.1452C117.253 27.198 117.051 27.2508 116.848 27.3036C116.494 27.3564 116.19 27.5149 115.886 27.6205L115.785 27.3564C115.785 27.0924 115.785 26.7756 115.785 26.4587V24.8218C115.785 24.505 115.835 24.1881 115.835 23.8713C115.835 23.7129 115.835 23.6601 115.835 23.5017C115.835 22.604 115.835 21.7591 115.835 20.9142C115.835 20.3861 115.785 19.8053 115.734 19.33C115.633 18.2211 115.734 17.0594 115.633 15.8977C115.582 15.7921 115.532 15.6337 115.532 15.4752C115.43 15.3168 115.38 15.0528 115.228 15.0528C115.127 15.0528 115.076 15.1584 114.975 15.1584C114.873 15.1056 114.975 15 114.57 15.1056C114.418 15.1056 114.367 15.0528 114.215 15C114.114 15.0528 114.013 15.1056 113.861 15.1056C113.658 15.1056 113.456 15 113.101 15.1584C113.101 15.264 113.101 15.3696 113 15.5281C113 16.4785 113.051 17.4818 113.051 18.4323C113 19.1716 113.101 19.8581 113.101 20.5974Z" fill="#F5F7FF"/>
<path d="M122.375 31.1025C122.482 31.2609 122.589 31.4193 122.696 31.5776C122.696 31.7888 122.75 31.8944 122.964 32C123.125 32 123.286 31.9472 123.5 31.9472C123.607 31.8944 123.661 31.8416 123.714 31.7888C123.768 31.7888 123.714 31.7888 124.036 31.6304C124.304 31.5248 124.357 31.4193 124.571 31.3137C124.786 31.2081 125.054 31.1553 125.268 31.0497C125.429 30.9969 125.482 30.8913 125.643 30.8385C125.804 30.7329 125.964 30.7329 126.125 30.6801C126.339 30.5745 126.5 30.4689 126.714 30.4161C126.929 30.3634 127.089 30.3106 127.304 30.2578C127.679 30.0994 128 29.8882 128.375 29.7298C128.589 29.6242 128.804 29.5714 129.018 29.4658C129.446 29.2547 129.821 28.9907 130.196 28.8851C130.304 28.7795 130.411 28.7795 130.518 28.6739C130.518 28.6739 130.625 28.7267 130.786 28.6739C130.946 28.5155 131 28.2516 131 27.9876C131 27.4596 130.946 26.9317 130.946 26.4037C130.946 26.1398 130.946 25.9286 130.946 25.6646C130.946 25.2422 130.893 24.8727 130.893 24.4503C130.893 24.2919 130.893 24.1335 130.893 23.9752C130.893 23.8168 130.946 23.7112 130.946 23.5528C130.946 23.236 130.893 22.972 130.893 22.6553V22.2329C130.893 21.9689 130.946 21.705 130.946 21.441C130.946 21.0186 130.893 20.5963 130.893 20.1739C130.893 20.0155 130.893 19.8571 130.893 19.7516C130.893 19.646 130.839 19.5404 130.839 19.4876C130.839 19.382 130.839 19.2764 130.839 19.1708C130.839 18.9596 130.839 18.7484 130.839 18.5373C130.839 18.1149 130.786 17.7453 130.786 17.323C130.786 16.9006 130.839 16.3199 130.786 15.8447C130.786 15.6863 129.821 15.4224 129.661 15.264C129.607 15.2112 129.554 15.2112 129.446 15.264C129.339 15.264 129.446 15.1584 129.179 15.1584C129.018 15.1584 128.911 15.0528 128.75 15.0528C128.643 15.0528 128.589 15.0528 128.536 15.0528C128.482 15 128.429 15 128.268 15C128.268 15 128.161 15.0528 128.054 15.1056C128 15.5807 128.054 16.0559 128.054 16.5311C128.054 16.8478 128.054 17.1646 128.054 17.4814C128.054 18.4845 128.107 19.4876 128.107 20.4907C128.107 22.1273 128.054 23.6584 128.054 25.2422C128.054 25.823 128.054 26.4037 128.054 26.9845C127.893 27.1429 127.089 27.5124 126.929 27.5124C126.768 27.6708 125.321 28.1988 125.107 28.2516C125.054 27.7236 125.054 27.1957 125.054 26.6677C125.054 26.5093 125.054 26.3509 125.054 26.1398C125.054 25.823 125 25.5062 125 25.1894C125 23.7112 125.054 22.2329 125.054 20.7547V17.7981C125.054 17.587 125 17.4286 125 17.2702C125 16.8478 125.107 15.7391 124.571 15.3696C124.464 15.3696 124.304 15.3696 124.089 15.4224C123.929 15.4224 123.982 15.4224 123.875 15.3168C123.768 15.4224 123.714 15.4224 123.607 15.4224C123.5 15.4224 123.393 15.3696 123.286 15.3168C123.179 15.3696 122.321 15.3168 122.161 15.4224C122.161 15.6335 122.107 15.7391 122.107 16.1087C122.161 16.6894 122.214 17.2702 122.214 17.8509C122.214 19.2236 122.161 20.5963 122.161 21.9689C122.161 22.5497 122.107 23.0776 122.107 23.6584C122.107 24.8727 122.161 26.087 122.161 27.354C122.161 27.9876 122.161 28.9907 122.107 29.5186C122.107 29.6242 122 29.6242 122 29.7298C122 29.8354 122 30.0466 122.107 30.3106C122.107 30.6273 122.107 31.2609 122.375 31.1025Z" fill="#F5F7FF"/>
<path d="M132.309 16.8006C132.309 16.8521 132.206 16.8006 132.412 17.1093V17.3666C132.464 17.418 132.567 17.4695 132.67 17.4695C132.773 17.4695 132.773 17.4695 133.082 17.4695C133.598 17.4695 134.062 17.3666 134.577 17.3666C134.732 17.3151 134.887 17.3151 135.041 17.3151C135.196 17.3151 135.299 17.3151 135.454 17.3151C135.505 17.3666 135.557 17.5209 135.557 17.6238C135.557 18.2926 135.454 18.91 135.454 19.5788C135.454 20.9164 135.505 22.2026 135.505 23.5402C135.505 23.7974 135.505 24.1061 135.505 24.3633V25.8039C135.505 25.9582 135.505 26.1125 135.505 26.3183C135.505 26.3698 135.454 26.3698 135.505 26.5756C135.505 26.8328 135.402 27.09 135.402 27.2958C135.402 28.0161 135.505 28.6849 135.505 29.4051C135.505 29.7653 135.505 30.0225 135.402 30.4341C135.454 30.4855 135.505 30.5884 135.557 30.6399C135.608 30.7428 135.557 30.8457 135.711 30.9486C135.866 30.9486 136.072 30.8971 136.227 30.8457C136.381 30.8457 136.33 30.9486 136.485 30.9486C136.691 30.9486 136.691 30.8971 136.742 30.8971C136.845 30.8971 136.948 30.8971 137 30.8971C137.155 30.8457 137.258 30.7428 137.515 30.7942C137.567 30.8457 137.515 30.8971 137.67 31C137.928 31 137.928 30.7942 138.082 30.5884C138.082 30.2797 138.082 29.9711 138.082 29.6624C138.082 29.045 138.031 28.3762 138.031 27.7588C138.031 27.4502 138.082 27.1929 138.082 26.8842C138.082 25.9582 138.134 25.0322 138.134 24.0547C138.134 23.6431 138.082 23.283 138.082 22.8714C138.031 22.0482 138.031 21.2765 138.031 20.5048C138.031 20.1447 138.031 19.836 138.082 19.4759C138.082 19.3215 138.134 19.1672 138.134 19.0129C138.134 18.4984 138.134 18.0354 138.186 17.5723C138.34 17.5723 138.443 17.5723 138.546 17.5723C138.959 17.5723 139.371 17.6238 139.783 17.6238H140.247C140.608 17.6238 140.918 17.5723 141.227 17.5723H141.485C141.639 17.418 141.691 17.3151 141.742 17.1608C141.742 16.955 141.845 16.8521 141.845 16.6977L142 16.492C142 16.4405 141.897 16.5434 141.948 16.1833C141.948 16.0289 141.897 15.926 141.948 15.8232C141.794 15.7717 141.794 15.6174 141.691 15.5145C141.433 15.5145 141.278 15.3601 141.072 15.3601C141.021 15.3601 140.969 15.3601 140.866 15.3601C140.814 15.3601 139.887 15.3601 139.887 15.3087H137.876C137.722 15.3087 137.567 15.2572 137.515 15.2572C137.103 15.2572 136.691 15.1543 136.227 15.1543C135.918 15.1543 135.505 15 135.144 15C134.732 15 134.268 15.1029 133.856 15.1543C133.649 15.1543 133.443 15.1543 133.289 15.2058C133.134 15.2058 132.206 15.5145 132.052 15.6174C132 15.7203 132 15.8232 132 15.926C132 16.0289 132.103 16.1318 132.155 16.3376C132.052 16.6463 132.309 16.7492 132.309 16.8006Z" fill="#F5F7FF"/>
<path d="M144.426 31.1025C144.533 31.2609 144.639 31.4193 144.746 31.5776C144.746 31.7888 144.799 31.8944 145.012 32C145.172 32 145.331 31.9472 145.544 31.9472C145.651 31.8944 145.704 31.8416 145.757 31.7888C145.811 31.7888 145.757 31.7888 146.077 31.6304C146.343 31.5248 146.396 31.4193 146.609 31.3137C146.876 31.2081 147.089 31.1553 147.302 31.0497C147.462 30.9969 147.515 30.8913 147.675 30.8385C147.834 30.7329 147.994 30.7329 148.154 30.6801C148.367 30.5745 148.527 30.4689 148.74 30.4161C148.953 30.3634 149.112 30.3106 149.325 30.2578C149.698 30.0994 150.018 29.8882 150.391 29.7298C150.604 29.6242 150.817 29.5714 151.03 29.4658C151.456 29.2547 151.828 28.9907 152.201 28.8851C152.308 28.7795 152.414 28.7795 152.521 28.6739C152.521 28.6739 152.627 28.7267 152.787 28.6739C152.947 28.5155 153 28.2516 153 27.9876C153 27.4596 152.947 26.9317 152.947 26.4037C152.947 26.1398 152.947 25.9286 152.947 25.6646C152.947 25.2422 152.893 24.8727 152.893 24.4503C152.893 24.2919 152.893 24.1335 152.893 23.9752C152.893 23.8168 152.947 23.7112 152.947 23.5528C152.947 23.236 152.893 22.972 152.893 22.6553V22.2329C152.893 21.9689 152.947 21.705 152.947 21.441C152.947 21.0186 152.893 20.5963 152.893 20.1739C152.893 20.0155 152.893 19.8571 152.893 19.7516C152.893 19.646 152.84 19.5404 152.84 19.4876C152.84 19.382 152.84 19.2764 152.84 19.1708C152.84 18.9596 152.84 18.7484 152.84 18.5373C152.84 18.1149 152.787 17.7453 152.787 17.323C152.787 16.9006 152.84 16.3199 152.787 15.8447C152.787 15.6863 151.828 15.4224 151.669 15.264C151.615 15.2112 151.562 15.2112 151.456 15.264C151.349 15.264 151.456 15.1584 151.189 15.1584C151.03 15.1584 150.923 15.0528 150.763 15.0528C150.657 15.0528 150.604 15.0528 150.55 15.0528C150.497 15 150.444 15 150.284 15C150.284 15 150.178 15.0528 150.018 15.1056C149.964 15.5807 150.018 16.0559 150.018 16.5311C150.018 16.8478 150.018 17.1646 150.018 17.4814C150.018 18.4845 150.071 19.4876 150.071 20.4907C150.071 22.1273 150.018 23.6584 150.018 25.2422C150.018 25.823 150.018 26.4037 150.018 26.9845C149.858 27.1429 149.059 27.5124 148.899 27.5124C148.74 27.6708 147.355 28.1988 147.089 28.2516C147.036 27.7236 147.036 27.1957 147.036 26.6677C147.036 26.5093 147.036 26.3509 147.036 26.1398C147.036 25.823 146.982 25.5062 146.982 25.1894C146.982 23.7112 147.036 22.2329 147.036 20.7547V17.7981C147.036 17.587 146.982 17.4286 146.982 17.2702C146.982 16.8478 147.089 15.7391 146.556 15.3696C146.45 15.3696 146.343 15.3696 146.077 15.4224C145.917 15.4224 145.97 15.4224 145.864 15.3168C145.757 15.4224 145.704 15.4224 145.598 15.4224C145.491 15.4224 145.385 15.3696 145.278 15.3168C145.172 15.3696 144.32 15.3168 144.16 15.4224C144.16 15.6335 144.107 15.7391 144.107 16.1087C144.16 16.6894 144.213 17.2702 144.213 17.8509C144.213 19.2236 144.16 20.5963 144.16 21.9689C144.16 22.5497 144.107 23.0776 144.107 23.6584C144.107 24.8727 144.16 26.087 144.16 27.354C144.16 27.9876 144.16 28.9907 144.107 29.5186C144.107 29.6242 144 29.6242 144 29.7298C144 29.8354 144 30.0466 144.107 30.3106C144.107 30.6273 144.16 31.2609 144.426 31.1025Z" fill="#F5F7FF"/>
<path d="M162.584 35.9459C162.896 35.5676 163 35.2973 163 34.7568C162.584 34.5405 162.115 34.4324 161.699 34.0541V34H65.8218V34.0541C65.7177 34.1081 65.5615 34.1081 65.3533 34C64.8849 34.4324 64.4685 34.5405 64 34.7568C64 35.2973 64.052 35.5676 64.4164 35.9459C64.4164 36.2703 64.2082 35.9459 64.3644 36.7568C64.3644 36.973 64.3123 37.1351 64.2603 37.3514C64.3644 37.6757 64.5205 37.9459 64.5726 38.3243C64.6767 38.4865 64.989 38.7568 64.989 38.973C64.989 39.1892 64.8328 39.3514 64.8328 39.6757L65.1972 40H66.6025C67.9038 40 69.205 39.9459 70.5063 39.9459H71.0789H93.7729H103.975H126.669H127.241C128.543 40 129.844 40 131.145 40H132.55L132.655 39.9459H133.331H156.025H156.598C157.899 40 159.2 40 160.502 40H161.907L162.271 39.6757C162.271 39.3514 162.115 39.1892 162.115 38.973C162.115 38.7568 162.375 38.4865 162.532 38.3243C162.584 37.8919 162.74 37.6757 162.844 37.3514C162.74 37.1351 162.74 36.973 162.74 36.7568C162.792 35.9459 162.584 36.2703 162.584 35.9459Z" fill="#F5F7FF"/>
</svg>
