<svg width="39" height="14" viewBox="0 0 39 14" fill="none" xmlns="http://www.w3.org/2000/svg">
<g clip-path="url(#clip0_203_909)">
<path d="M37.1696 13.7076C34.7114 13.2001 33.0861 11.3324 31.1765 9.95201C29.9575 9.07908 28.7996 8.10465 27.6212 7.17083C27.2556 6.88662 26.9508 6.86632 26.5852 7.23173C25.6506 8.12495 24.6755 8.95728 23.7003 9.8099C23.4159 10.0535 23.1112 10.2768 22.7252 10.2565C22.1564 10.2362 21.8313 9.8099 21.5672 9.38359C21.2422 8.87608 21.811 8.77457 22.0142 8.53097C22.2783 8.22646 22.6033 7.98285 22.908 7.71894C23.0909 7.47534 23.2737 7.23173 23.5378 7.10993C23.8222 6.58211 24.2895 6.237 24.7364 5.87159C25.2037 5.46558 25.0615 5.24227 24.6552 4.95806C23.9848 4.49115 23.3347 4.00393 22.6846 3.51672C22.3189 3.25281 21.6078 3.19191 21.9532 2.44079C22.4001 1.50696 23.1721 1.12125 23.9035 1.48666C24.4114 1.75057 24.8786 2.11598 25.3256 2.44079C26.9102 3.59792 26.8899 3.57762 28.4136 2.42049C29.2262 1.79117 30.1404 1.26335 30.9733 0.654337C31.4609 0.309227 31.7453 1.16185 32.2126 0.837042C32.1923 1.16185 32.2532 1.50696 31.9688 1.77087C31.6234 2.11598 31.2984 2.54229 30.8921 2.8062C30.0591 3.37462 29.5512 4.18664 28.9824 4.95806C28.637 5.40468 29.1449 5.46558 29.3074 5.60768C31.5422 7.59714 33.7769 9.5866 35.7678 11.84C36.235 12.3678 36.682 12.9362 37.1289 13.4843C37.1696 13.5655 37.1696 13.6264 37.1696 13.7076Z" fill="#AE1E1E"/>
<path d="M12.608 6.41969C12.3642 7.37382 11.7141 7.98283 10.9218 8.44975C9.78415 9.09937 8.66679 9.76929 7.46817 10.3377C5.49756 11.2715 3.60822 12.3475 1.67824 13.3625C1.08908 13.667 0.438987 13.87 -0.190796 14.1136C-0.190796 13.9106 -0.190796 13.7076 -0.190796 13.5046C2.81591 10.9264 6.28987 9.07907 9.80446 6.7039C8.30111 6.7039 7.08218 6.7242 5.84293 6.7039C4.60368 6.6633 3.3238 6.7039 2.69401 5.22195C2.47054 4.69414 2.45023 4.30843 2.83622 3.94302C3.10033 3.67911 3.36443 3.4152 3.66916 3.2122C5.61946 1.99416 7.73228 1.22274 9.94667 0.776125C10.5765 0.654322 11.2062 0.674622 11.836 0.897929C12.7096 1.22274 12.6893 1.95356 12.7096 2.66408C12.7096 2.94829 12.4861 3.09039 12.2017 2.92799C11.1656 2.33927 10.1498 2.72498 9.15436 2.96859C7.65101 3.334 6.22892 3.96332 4.62399 4.85654C5.84293 4.85654 6.83839 4.85654 7.81354 4.85654C8.38237 4.85654 8.97153 4.81594 9.54036 4.79564C10.9015 4.69414 12.0798 4.91745 12.608 6.41969Z" fill="#AE1E1E"/>
<path d="M13.1769 8.14524C12.3846 7.67833 12.9331 7.04901 12.9737 6.5009C13.1363 6.23699 13.2785 5.99338 13.441 5.72947C13.7457 5.24226 14.0301 4.81595 13.2785 4.43024C12.7706 4.16633 12.9331 3.74002 13.3394 3.47611C15.6554 2.01447 18.1136 0.837032 20.7749 0.146812C21.2625 0.0250087 21.6078 0.248315 21.8923 0.654327C22.2376 1.16184 22.1564 1.48665 21.5469 1.58815C20.1248 1.81146 18.8856 2.52198 17.5854 3.0498C16.9759 3.2934 16.529 3.71972 16.1633 4.51144C17.6869 4.24753 19.0278 3.65881 20.4702 3.78062C20.4295 4.32873 19.9826 4.36933 19.6779 4.49114C18.2355 5.14076 16.7931 5.81068 15.3303 6.35879C14.538 6.6633 14.599 7.53623 14.0505 7.96254C13.8067 8.22645 13.5426 8.42945 13.1769 8.14524Z" fill="#AF1E1E"/>
<path d="M13.1768 8.14525C13.4612 8.08434 13.766 8.02344 14.0504 7.94224C14.2129 8.53096 14.5176 8.06404 14.6802 8.00314C16.2038 7.37382 17.7681 6.80541 19.3527 6.37909C20.8561 5.97308 22.3594 5.66857 23.5378 7.13022C23.3955 7.41442 23.1924 7.63773 22.908 7.73923C22.4204 6.98811 21.7094 7.31292 21.1202 7.41442C19.2512 7.73923 17.4634 8.38885 15.7163 9.11968C14.3145 9.70839 13.0346 10.5407 11.5719 11.0076C11.2468 11.1091 10.9421 11.2309 10.5967 11.0685C10.3123 10.9264 10.0076 10.7843 9.96696 10.4595C9.92633 10.0941 10.2514 9.952 10.5358 9.8099C11.3281 9.44448 12.1407 9.09937 12.9533 8.75426C13.2784 8.63246 13.5628 8.53096 13.1768 8.14525Z" fill="#AF1E1F"/>
</g>
<defs>
<clipPath id="clip0_203_909">
<rect width="39" height="14" fill="white"/>
</clipPath>
</defs>
</svg>
