<svg width="195" height="70" viewBox="0 0 195 70" fill="none" xmlns="http://www.w3.org/2000/svg">
<g clip-path="url(#clip0_2_7)">
<path d="M185.848 68.5381C173.557 66.0005 165.431 56.6622 155.882 49.76C149.788 45.3954 143.998 40.5233 138.106 35.8541C136.278 34.4331 134.754 34.3316 132.926 36.1586C128.253 40.6248 123.377 44.7864 118.502 49.0495C117.08 50.2676 115.556 51.3841 113.626 51.2826C110.782 51.1811 109.157 49.0495 107.836 46.918C106.211 44.3804 109.055 43.8729 110.071 42.6548C111.391 41.1323 113.016 39.9143 114.54 38.5947C115.454 37.3767 116.369 36.1586 117.689 35.5496C119.111 32.9105 121.447 31.185 123.682 29.3579C126.018 27.3279 125.307 26.2114 123.276 24.7903C119.924 22.4557 116.673 20.0197 113.423 17.5836C111.594 16.2641 108.039 15.9596 109.766 12.2039C112.001 7.53481 115.861 5.60625 119.517 7.43331C122.057 8.75285 124.393 10.5799 126.628 12.2039C134.551 17.9896 134.449 17.8881 142.068 12.1024C146.131 8.95585 150.702 6.31677 154.867 3.27169C157.304 1.54614 158.726 5.80926 161.063 4.18521C160.961 5.80926 161.266 7.53481 159.844 8.85435C158.117 10.5799 156.492 12.7115 154.46 14.031C150.296 16.8731 147.756 20.9332 144.912 24.7903C143.185 27.0234 145.725 27.3279 146.537 28.0384C157.711 37.9857 168.884 47.933 178.839 59.1998C181.175 61.8389 183.41 64.681 185.645 67.4216C185.848 67.8276 185.848 68.1321 185.848 68.5381Z" fill="#AE1E1E"/>
<path d="M63.0402 32.0985C61.8213 36.8691 58.5708 39.9142 54.6092 42.2488C48.9209 45.4969 43.3341 48.8465 37.341 51.6886C27.488 56.3577 18.0412 61.7374 8.39133 66.8125C5.44557 68.3351 2.19509 69.3501 -0.953827 70.5681C-0.953827 69.5531 -0.953827 68.5381 -0.953827 67.523C14.0797 54.6322 31.4495 45.3954 49.0225 33.5195C41.5057 33.5195 35.411 33.621 29.2148 33.5195C23.0185 33.3165 16.6191 33.5195 13.4702 26.1098C12.3529 23.4708 12.2513 21.5422 14.1813 19.7151C15.5018 18.3956 16.8223 17.0761 18.346 16.061C28.0974 9.97086 38.6615 6.11375 49.7335 3.88069C52.8824 3.27167 56.0313 3.37317 59.1802 4.48971C63.5481 6.11375 63.4465 9.76786 63.5481 13.3205C63.5481 14.7415 62.4307 15.452 61.0086 14.64C55.8282 11.6964 50.7493 13.625 45.772 14.843C38.2552 16.6701 31.1448 19.8166 23.1201 24.2828C29.2148 24.2828 34.1921 24.2828 39.0678 24.2828C41.912 24.2828 44.8578 24.0798 47.7019 23.9783C54.5077 23.4708 60.3992 24.5873 63.0402 32.0985Z" fill="#AE1E1E"/>
<path d="M65.8844 40.7263C61.9228 38.3917 64.6655 35.2451 64.8686 32.5045C65.6812 31.185 66.3923 29.967 67.2049 28.6474C68.7286 26.2114 70.1507 24.0798 66.3923 22.1512C63.8528 20.8317 64.6654 18.7001 66.697 17.3806C78.2769 10.0724 90.5678 4.18522 103.874 0.734122C106.312 0.125105 108.039 1.24164 109.461 3.2717C111.188 5.80927 110.782 7.43332 107.734 7.94083C100.624 9.05736 94.4277 12.61 87.9268 15.249C84.8794 16.4671 82.6447 18.5986 80.8163 22.5573C88.4347 21.2377 95.1388 18.2941 102.351 18.9031C102.148 21.6437 99.9129 21.8467 98.3893 22.4558C91.1773 25.7038 83.9652 29.0534 76.6516 31.794C72.6901 33.3166 72.9948 37.6812 70.2522 39.8128C69.0333 41.1323 67.7128 42.1473 65.8844 40.7263Z" fill="#AF1E1E"/>
<path d="M65.8843 40.7263C67.3064 40.4218 68.8301 40.1173 70.2522 39.7113C71.0648 42.6548 72.5885 40.3203 73.4011 40.0158C81.0194 36.8692 88.8409 34.0271 96.764 31.8955C104.281 29.8655 111.798 28.3429 117.689 35.6511C116.978 37.0722 115.962 38.1887 114.54 38.6962C112.102 34.9406 108.547 36.5647 105.601 37.0722C96.2561 38.6962 87.3173 41.9443 78.5816 45.5984C71.5727 48.542 65.1733 52.7036 57.8597 55.0382C56.2344 55.5457 54.7108 56.1547 52.984 55.3427C51.5619 54.6322 50.0382 53.9217 49.835 52.2976C49.6319 50.4706 51.2571 49.7601 52.6792 49.0495C56.6408 47.2225 60.7039 45.4969 64.767 43.7714C66.3922 43.1624 67.8143 42.6548 65.8843 40.7263Z" fill="#AF1E1F"/>
</g>
<defs>
<clipPath id="clip0_2_7">
<rect width="195" height="70" fill="white"/>
</clipPath>
</defs>
</svg>
