<svg width="22" height="30" viewBox="0 0 22 30" fill="none" xmlns="http://www.w3.org/2000/svg">
<path d="M21.968 25.9106L20.3724 8.35312C20.3274 7.86937 19.9224 7.5 19.4368 7.5H16.6243V5.625C16.6243 4.1175 16.0411 2.70187 14.9818 1.6425C13.9224 0.583125 12.5068 0 10.9993 0C7.89801 0 5.37426 2.52375 5.37426 5.625V7.5H2.56176C2.07614 7.5 1.67114 7.86937 1.62801 8.35312L0.0323852 25.9106C-0.0632398 26.9569 0.28926 28.0031 0.99801 28.7794C1.70676 29.5556 2.71551 30 3.76738 30H18.233C19.2849 30 20.2936 29.5556 21.0024 28.7794C21.7111 28.0031 22.0618 26.9569 21.968 25.9106ZM7.24926 5.625C7.24926 3.55687 8.93114 1.875 10.9993 1.875C12.0061 1.875 12.9493 2.26312 13.6561 2.96812C14.363 3.67312 14.7493 4.61812 14.7493 5.625V7.5H7.24926V5.625ZM19.6168 27.5156C19.2568 27.9075 18.7655 28.125 18.2311 28.125H3.76738C3.23488 28.125 2.74176 27.9075 2.38364 27.5138C2.02364 27.12 1.85301 26.6119 1.90176 26.0794L3.41864 9.375H5.37426V12.1875C5.37426 12.705 5.79426 13.125 6.31176 13.125C6.82926 13.125 7.24926 12.705 7.24926 12.1875V9.375H14.7493V12.1875C14.7493 12.705 15.1693 13.125 15.6868 13.125C16.2043 13.125 16.6243 12.705 16.6243 12.1875V9.375H18.5799L20.0986 26.0812C20.1474 26.6119 19.9768 27.1219 19.6168 27.5156Z" fill="white"/>
</svg>
