<svg width="325" height="149" viewBox="0 0 325 149" fill="none" xmlns="http://www.w3.org/2000/svg">
<path d="M10.2611 92.9093H0V87.8359H26.6982V92.9093H16.4372V121.615H10.2611V92.9093Z" fill="#04D9DD"/>
<path d="M30.5801 87.8361H53.5832V92.9095H36.7562V102.189H49.2546V107.262H36.7562V116.542H53.5832V121.615H30.5801V87.832V87.8361Z" fill="#04D9DD"/>
<path d="M74.4822 122.34C70.917 122.34 67.7539 121.631 65.0008 120.214C62.2437 118.765 60.1037 116.717 58.581 114.078C57.0583 111.403 56.2949 108.296 56.2949 104.75C56.2949 101.204 57.0583 98.1131 58.581 95.4706C60.1037 92.7954 62.2437 90.7351 65.0008 89.2856C67.7579 87.8361 70.917 87.1113 74.4822 87.1113C79.1843 87.1113 83.1069 88.2229 86.2497 90.4461V96.293C83.4276 93.907 79.6838 92.7181 75.0182 92.7181C72.521 92.7181 70.3323 93.2189 68.4523 94.2165C66.5722 95.1815 65.1145 96.5699 64.075 98.3737C63.0395 100.177 62.5198 102.303 62.5198 104.754C62.5198 107.205 63.0395 109.331 64.075 111.134C65.1429 112.938 66.621 114.339 68.501 115.341C70.381 116.306 72.5534 116.79 75.0182 116.79C77.483 116.79 79.5579 116.501 81.438 115.919C83.318 115.308 85.0519 114.339 86.6396 113.02V118.867C83.6591 121.188 79.6066 122.344 74.4822 122.344V122.34Z" fill="#04D9DD"/>
<path d="M91.5098 87.8359H97.6859V101.851H114.026V87.8359H120.153V121.619H114.026V106.928H97.6859V121.619H91.5098V87.8359Z" fill="#04D9DD"/>
<path d="M125.988 87.8359H131.823L147.725 111.37V87.8359H153.901V121.619H148.066L132.164 98.0356V121.619H125.988V87.8359Z" fill="#04D9DD"/>
<path d="M176.817 122.34C173.414 122.34 170.332 121.615 167.579 120.166C164.854 118.683 162.698 116.607 161.11 113.932C159.555 111.257 158.775 108.199 158.775 104.75C158.775 101.301 159.555 98.2434 161.11 95.5683C162.698 92.8932 164.854 90.8166 167.579 89.3345C170.336 87.8524 173.414 87.1113 176.817 87.1113C180.219 87.1113 183.236 87.8524 185.957 89.3345C188.714 90.8166 190.87 92.8932 192.425 95.5683C194.013 98.2434 194.809 101.301 194.809 104.75C194.809 108.199 194.013 111.257 192.425 113.932C190.87 116.574 188.714 118.635 185.957 120.117C183.232 121.599 180.187 122.34 176.817 122.34ZM176.817 116.782C178.989 116.782 180.966 116.301 182.749 115.332C184.532 114.335 185.941 112.93 186.98 111.126C188.048 109.29 188.584 107.165 188.584 104.746C188.584 102.327 188.064 100.267 187.029 98.4633C185.993 96.6269 184.58 95.21 182.798 94.2124C181.015 93.2148 179.021 92.714 176.817 92.714C174.612 92.714 172.602 93.2148 170.787 94.2124C169.004 95.21 167.595 96.631 166.555 98.4633C165.52 100.267 165 102.364 165 104.746C165 107.128 165.52 109.29 166.555 111.126C167.623 112.93 169.053 114.331 170.835 115.332C172.65 116.297 174.644 116.782 176.817 116.782Z" fill="#04D9DD"/>
<path d="M199.691 87.8361H205.868V116.542H222.207V121.615H199.691V87.832V87.8361Z" fill="#04D9DD"/>
<path d="M240.5 122.34C237.097 122.34 234.015 121.615 231.262 120.166C228.538 118.683 226.381 116.607 224.794 113.932C223.239 111.257 222.459 108.199 222.459 104.75C222.459 101.301 223.239 98.2434 224.794 95.5683C226.381 92.8932 228.538 90.8166 231.262 89.3345C234.019 87.8524 237.097 87.1113 240.5 87.1113C243.903 87.1113 246.92 87.8524 249.645 89.3345C252.402 90.8166 254.554 92.8932 256.113 95.5683C257.701 98.2434 258.497 101.301 258.497 104.75C258.497 108.199 257.701 111.257 256.113 113.932C254.558 116.574 252.402 118.635 249.645 120.117C246.92 121.599 243.874 122.34 240.5 122.34ZM240.5 116.782C242.673 116.782 244.65 116.301 246.433 115.332C248.215 114.335 249.624 112.93 250.664 111.126C251.732 109.29 252.268 107.165 252.268 104.746C252.268 102.327 251.748 100.267 250.712 98.4633C249.677 96.6269 248.264 95.21 246.481 94.2124C244.699 93.2148 242.705 92.714 240.5 92.714C238.295 92.714 236.285 93.2148 234.47 94.2124C232.688 95.21 231.279 96.631 230.239 98.4633C229.204 100.267 228.684 102.364 228.684 104.746C228.684 107.128 229.204 109.29 230.239 111.126C231.307 112.93 232.736 114.331 234.519 115.332C236.334 116.297 238.328 116.782 240.5 116.782Z" fill="#04D9DD"/>
<path d="M279.875 122.34C276.31 122.34 273.146 121.631 270.393 120.214C267.636 118.765 265.5 116.717 263.974 114.078C262.451 111.403 261.688 108.296 261.688 104.75C261.688 101.204 262.451 98.1131 263.974 95.4706C265.496 92.7954 267.636 90.7351 270.393 89.2856C273.15 87.8361 276.31 87.1113 279.875 87.1113C282.307 87.1113 284.479 87.3678 286.392 87.8849C288.305 88.402 290.038 89.2205 291.594 90.3483V96.1953C290.168 94.9697 288.532 94.0862 286.684 93.5365C284.837 92.9868 282.746 92.714 280.411 92.714C278.076 92.714 275.952 93.2148 274.04 94.2124C272.16 95.1774 270.669 96.5821 269.565 98.4185C268.465 100.222 267.912 102.331 267.912 104.75C267.912 107.169 268.432 109.339 269.468 111.179C270.503 112.983 271.949 114.384 273.796 115.385C275.644 116.35 277.751 116.835 280.118 116.835C282.616 116.835 284.674 116.415 286.295 115.577V107.991H280.557V103.109H292.471V118.863C289.458 121.183 285.259 122.34 279.875 122.34Z" fill="#04D9DD"/>
<path d="M306.52 108.76L294.168 87.8359H300.734L309.488 102.865L318.483 87.8359H325L312.404 108.76V121.615H306.52V108.76Z" fill="#04D9DD"/>
<path d="M39.0215 145.98V137.783H39.9148V144.795H39.6468L44.889 137.783H45.6443V145.98H44.751V138.968H45.0068L39.7524 145.98H39.0215Z" fill="#3B3B48"/>
<path d="M47.5898 145.979V140.141H48.5278V142.584H51.7276V140.141H52.6656V145.979H51.7276V143.341H48.5278V145.979H47.5898Z" fill="#3B3B48"/>
<path d="M54.5254 145.979V140.141H55.4634V142.584H58.6631V140.141H59.6011V145.979H58.6631V143.341H55.4634V145.979H54.5254Z" fill="#3B3B48"/>
<path d="M63.8935 146.086C63.3372 146.086 62.85 145.964 62.4398 145.719C62.0257 145.475 61.7089 145.125 61.4816 144.673C61.2542 144.221 61.1445 143.683 61.1445 143.06C61.1445 142.437 61.2582 141.892 61.4816 141.444C61.7049 140.996 62.0257 140.646 62.4398 140.402C62.854 140.157 63.3372 140.035 63.8935 140.035C64.4498 140.035 64.9452 140.157 65.3594 140.402C65.7736 140.646 66.0944 140.992 66.3218 141.444C66.5491 141.892 66.6628 142.433 66.6628 143.06C66.6628 143.687 66.5491 144.217 66.3218 144.673C66.0944 145.125 65.7736 145.475 65.3594 145.719C64.9452 145.964 64.458 146.086 63.8935 146.086ZM63.8935 145.32C64.4498 145.32 64.8924 145.129 65.2173 144.746C65.5421 144.363 65.7045 143.801 65.7045 143.065C65.7045 142.328 65.5421 141.757 65.2132 141.375C64.8843 140.992 64.4458 140.801 63.8976 140.801C63.3494 140.801 62.9109 140.992 62.586 141.375C62.2612 141.757 62.0988 142.323 62.0988 143.065C62.0988 143.806 62.2612 144.363 62.586 144.746C62.9109 145.129 63.3494 145.32 63.8976 145.32H63.8935Z" fill="#3B3B48"/>
<path d="M68.1973 145.979V140.141H71.0031C71.6772 140.141 72.1807 140.271 72.5177 140.531C72.8547 140.792 73.0212 141.175 73.0212 141.676C73.0212 142.046 72.8913 142.36 72.6314 142.612C72.3715 142.865 72.0386 143.011 71.6284 143.06V142.922C72.1076 142.938 72.4893 143.076 72.7776 143.341C73.0618 143.606 73.208 143.944 73.208 144.363C73.208 144.868 73.0253 145.263 72.6558 145.548C72.2903 145.833 71.7706 145.979 71.0965 145.979H68.1973ZM69.0906 142.69H70.9463C71.3239 142.69 71.6203 142.604 71.8274 142.433C72.0345 142.262 72.1401 142.026 72.1401 141.725C72.1401 141.423 72.0345 141.187 71.8274 141.02C71.6203 140.853 71.3239 140.772 70.9463 140.772H69.0906V142.69ZM69.0906 145.34H71.0518C71.462 145.34 71.7746 145.255 71.998 145.08C72.2172 144.905 72.3269 144.656 72.3269 144.33C72.3269 144.005 72.2172 143.756 71.998 143.585C71.7787 143.414 71.462 143.329 71.0518 143.329H69.0906V145.34Z" fill="#3B3B48"/>
<path d="M76.926 146.086C76.4062 146.086 75.9555 145.964 75.5697 145.719C75.184 145.475 74.8835 145.129 74.6723 144.677C74.4612 144.229 74.3516 143.687 74.3516 143.06C74.3516 142.433 74.4571 141.884 74.6723 141.432C74.8835 140.984 75.184 140.638 75.5697 140.398C75.9555 140.157 76.4103 140.035 76.926 140.035C77.4417 140.035 77.9046 140.17 78.2903 140.438C78.672 140.707 78.9278 141.069 79.0496 141.525H78.9116L79.0375 140.141H79.943C79.9186 140.365 79.8983 140.593 79.878 140.821C79.8577 141.049 79.8496 141.273 79.8496 141.489V145.976H78.9116V144.604H79.0375C78.9156 145.06 78.6598 145.422 78.2741 145.687C77.8883 145.951 77.4376 146.082 76.93 146.082L76.926 146.086ZM77.1127 145.32C77.669 145.32 78.1116 145.129 78.4365 144.746C78.7613 144.363 78.9238 143.801 78.9238 143.065C78.9238 142.328 78.7613 141.757 78.4365 141.375C78.1116 140.992 77.669 140.801 77.1127 140.801C76.5564 140.801 76.126 140.992 75.7971 141.375C75.4682 141.757 75.3058 142.323 75.3058 143.065C75.3058 143.806 75.4682 144.363 75.7971 144.746C76.126 145.129 76.5646 145.32 77.1127 145.32Z" fill="#3B3B48"/>
<path d="M86.7733 147.495V145.984H81.7422V140.146H82.6802V145.239H85.7297V140.146H86.6474V145.239H87.5772V147.495H86.7773H86.7733Z" fill="#3B3B48"/>
<path d="M88.8283 145.979V140.141H89.6851V145.104H89.3724L93.0837 140.141H93.8715V145.979H93.0228V141.004H93.3355L89.6241 145.979H88.8242H88.8283Z" fill="#3B3B48"/>
<path d="M98.1631 146.086C97.6068 146.086 97.1195 145.964 96.7094 145.719C96.2952 145.475 95.9785 145.125 95.7511 144.673C95.5237 144.221 95.4141 143.683 95.4141 143.06C95.4141 142.437 95.5278 141.892 95.7511 141.444C95.9744 140.996 96.2952 140.646 96.7094 140.402C97.1236 140.157 97.6068 140.035 98.1631 140.035C98.7194 140.035 99.2148 140.157 99.6289 140.402C100.043 140.646 100.364 140.992 100.591 141.444C100.819 141.892 100.932 142.433 100.932 143.06C100.932 143.687 100.819 144.217 100.591 144.673C100.364 145.125 100.043 145.475 99.6289 145.719C99.2148 145.964 98.7275 146.086 98.1631 146.086ZM98.1631 145.32C98.7194 145.32 99.162 145.129 99.4868 144.746C99.8117 144.363 99.9741 143.801 99.9741 143.065C99.9741 142.328 99.8117 141.757 99.4827 141.375C99.1538 140.992 98.7153 140.801 98.1671 140.801C97.619 140.801 97.1804 140.992 96.8556 141.375C96.5307 141.757 96.3683 142.323 96.3683 143.065C96.3683 143.806 96.5307 144.363 96.8556 144.746C97.1804 145.129 97.619 145.32 98.1671 145.32H98.1631Z" fill="#3B3B48"/>
<path d="M102.465 145.979V140.141H103.403V142.584H106.603V140.141H107.541V145.979H106.603V143.341H103.403V145.979H102.465Z" fill="#3B3B48"/>
<path d="M109.398 145.979V140.141H110.336V142.584H113.536V140.141H114.474V145.979H113.536V143.341H110.336V145.979H109.398Z" fill="#3B3B48"/>
<path d="M116.334 145.979V140.141H117.272V142.233H119.022C119.774 142.233 120.338 142.396 120.72 142.718C121.101 143.04 121.292 143.496 121.292 144.086C121.292 144.481 121.207 144.819 121.032 145.104C120.858 145.385 120.602 145.605 120.265 145.756C119.928 145.906 119.514 145.984 119.018 145.984H116.326L116.334 145.979ZM117.272 145.304H118.941C119.412 145.304 119.774 145.206 120.021 145.006C120.269 144.807 120.391 144.505 120.391 144.094C120.391 143.683 120.269 143.382 120.025 143.194C119.782 143.007 119.42 142.909 118.941 142.909H117.272V145.304ZM122.177 145.979V140.141H123.107V145.979H122.177Z" fill="#3B3B48"/>
<path d="M127.594 146.086C126.681 146.086 125.962 145.821 125.438 145.288C124.91 144.758 124.65 144.017 124.65 143.073C124.65 142.462 124.768 141.928 125 141.472C125.231 141.02 125.556 140.666 125.974 140.414C126.392 140.161 126.872 140.035 127.412 140.035C127.952 140.035 128.394 140.149 128.756 140.373C129.117 140.597 129.397 140.919 129.592 141.334C129.787 141.749 129.88 142.238 129.88 142.804V143.154H125.369V142.56H129.267L129.068 142.71C129.068 142.091 128.93 141.607 128.65 141.257C128.37 140.907 127.956 140.731 127.408 140.731C126.827 140.731 126.376 140.935 126.051 141.342C125.726 141.749 125.564 142.299 125.564 142.987V143.093C125.564 143.822 125.743 144.376 126.104 144.75C126.465 145.125 126.969 145.316 127.619 145.316C127.968 145.316 128.293 145.263 128.597 145.157C128.902 145.052 129.194 144.881 129.474 144.64L129.799 145.304C129.543 145.552 129.223 145.744 128.833 145.878C128.443 146.012 128.029 146.082 127.598 146.082L127.594 146.086Z" fill="#3B3B48"/>
<path d="M134.506 145.98V137.783H135.468V145.98H134.506Z" fill="#3B3B48"/>
<path d="M139.493 145.98V138.598H136.605V137.783H143.33V138.598H140.455V145.98H139.493Z" fill="#3B3B48"/>
<path d="M147.492 148.492V141.493C147.492 141.277 147.484 141.053 147.463 140.825C147.443 140.597 147.423 140.369 147.398 140.145H148.304L148.43 141.529H148.292C148.414 141.073 148.665 140.711 149.047 140.442C149.425 140.173 149.879 140.039 150.403 140.039C150.927 140.039 151.382 140.161 151.768 140.401C152.149 140.642 152.45 140.988 152.665 141.436C152.88 141.884 152.99 142.429 152.99 143.064C152.99 143.7 152.884 144.233 152.669 144.681C152.458 145.129 152.157 145.479 151.772 145.723C151.386 145.967 150.927 146.09 150.403 146.09C149.879 146.09 149.437 145.959 149.059 145.695C148.682 145.43 148.43 145.072 148.304 144.612H148.43V148.496H147.492V148.492ZM150.216 145.316C150.773 145.316 151.215 145.125 151.544 144.742C151.873 144.359 152.036 143.797 152.036 143.06C152.036 142.323 151.869 141.753 151.544 141.37C151.215 140.988 150.773 140.796 150.216 140.796C149.66 140.796 149.23 140.988 148.901 141.37C148.572 141.753 148.41 142.319 148.41 143.06C148.41 143.801 148.572 144.359 148.901 144.742C149.23 145.125 149.668 145.316 150.216 145.316Z" fill="#3B3B48"/>
<path d="M157.151 146.086C156.237 146.086 155.519 145.821 154.995 145.288C154.467 144.758 154.207 144.017 154.207 143.073C154.207 142.462 154.325 141.928 154.556 141.472C154.788 141.02 155.113 140.666 155.531 140.414C155.949 140.161 156.428 140.035 156.968 140.035C157.508 140.035 157.951 140.149 158.312 140.373C158.674 140.597 158.954 140.919 159.149 141.334C159.344 141.749 159.437 142.238 159.437 142.804V143.154H154.926V142.56H158.824L158.625 142.71C158.625 142.091 158.487 141.607 158.207 141.257C157.926 140.907 157.512 140.731 156.964 140.731C156.383 140.731 155.933 140.935 155.608 141.342C155.283 141.749 155.121 142.299 155.121 142.987V143.093C155.121 143.822 155.299 144.376 155.661 144.75C156.022 145.125 156.526 145.316 157.175 145.316C157.525 145.316 157.849 145.263 158.154 145.157C158.458 145.052 158.751 144.881 159.031 144.64L159.356 145.304C159.1 145.552 158.779 145.744 158.389 145.878C158 146.012 157.585 146.082 157.155 146.082L157.151 146.086Z" fill="#3B3B48"/>
<path d="M160.943 145.979V140.141H161.837V145.234H164.306V140.141H165.187V145.234H167.656V140.141H168.561V145.979H160.943Z" fill="#3B3B48"/>
<path d="M173.053 146.086C172.14 146.086 171.421 145.821 170.897 145.288C170.369 144.758 170.109 144.017 170.109 143.073C170.109 142.462 170.227 141.928 170.459 141.472C170.69 141.02 171.015 140.666 171.433 140.414C171.851 140.161 172.33 140.035 172.871 140.035C173.411 140.035 173.853 140.149 174.215 140.373C174.576 140.597 174.856 140.919 175.051 141.334C175.246 141.749 175.339 142.238 175.339 142.804V143.154H170.828V142.56H174.726L174.527 142.71C174.527 142.091 174.389 141.607 174.109 141.257C173.829 140.907 173.415 140.731 172.867 140.731C172.286 140.731 171.835 140.935 171.51 141.342C171.185 141.749 171.023 142.299 171.023 142.987V143.093C171.023 143.822 171.202 144.376 171.563 144.75C171.924 145.125 172.428 145.316 173.078 145.316C173.427 145.316 173.752 145.263 174.056 145.157C174.361 145.052 174.653 144.881 174.933 144.64L175.258 145.304C175.002 145.552 174.682 145.744 174.292 145.878C173.902 146.012 173.488 146.082 173.057 146.082L173.053 146.086Z" fill="#3B3B48"/>
<path d="M176.846 145.979V140.141H177.784V142.584H180.983V140.141H181.921V145.979H180.983V143.341H177.784V145.979H176.846Z" fill="#3B3B48"/>
<path d="M183.778 145.979V140.141H184.634V145.104H184.322L188.033 140.141H188.821V145.979H187.972V141.004H188.285L184.573 145.979H183.773H183.778Z" fill="#3B3B48"/>
<path d="M190.213 145.979L191.139 144.375C191.285 144.119 191.472 143.911 191.695 143.752C191.919 143.593 192.154 143.512 192.402 143.512H192.564L192.552 143.618C191.894 143.618 191.387 143.467 191.021 143.17C190.656 142.873 190.477 142.441 190.477 141.875C190.477 141.309 190.656 140.906 191.009 140.601C191.362 140.295 191.894 140.141 192.597 140.141H195.183V145.979H194.302V143.724H193.433C193.108 143.724 192.832 143.805 192.609 143.968C192.385 144.131 192.195 144.334 192.04 144.583L191.253 145.979H190.209H190.213ZM192.763 143.06H194.306V140.792H192.763C192.292 140.792 191.943 140.894 191.715 141.093C191.488 141.293 191.374 141.57 191.374 141.92C191.374 142.27 191.488 142.567 191.715 142.763C191.943 142.958 192.292 143.06 192.763 143.06Z" fill="#3B3B48"/>
<path d="M206.707 146.086C206.349 145.923 206.02 145.723 205.708 145.487C205.399 145.251 205.135 145.019 204.92 144.795L205.151 144.807C204.818 145.21 204.416 145.524 203.945 145.748C203.474 145.972 202.959 146.086 202.402 146.086C201.846 146.086 201.367 146 200.969 145.825C200.571 145.65 200.266 145.41 200.051 145.1C199.84 144.791 199.73 144.429 199.73 144.017C199.73 143.484 199.885 143.028 200.193 142.657C200.502 142.287 200.945 141.912 201.517 141.542L201.899 141.297L201.761 141.473C201.395 141.086 201.131 140.74 200.965 140.43C200.798 140.125 200.717 139.807 200.717 139.482C200.717 139.123 200.802 138.81 200.973 138.541C201.144 138.268 201.379 138.056 201.688 137.906C201.996 137.755 202.354 137.678 202.772 137.678C203.3 137.678 203.738 137.828 204.087 138.126C204.441 138.423 204.615 138.83 204.615 139.339C204.615 139.62 204.558 139.881 204.449 140.125C204.335 140.369 204.148 140.609 203.884 140.846C203.62 141.082 203.267 141.338 202.816 141.619L202.841 141.399L205.09 143.842H204.883C205.086 143.525 205.241 143.13 205.354 142.662C205.468 142.193 205.529 141.697 205.545 141.179H206.37C206.353 141.823 206.264 142.421 206.102 142.975C205.939 143.529 205.724 144.021 205.452 144.445L205.427 144.164C205.63 144.38 205.874 144.6 206.158 144.82C206.443 145.039 206.755 145.227 207.084 145.385L206.702 146.082L206.707 146.086ZM202.439 145.32C202.902 145.32 203.316 145.227 203.673 145.039C204.035 144.852 204.347 144.583 204.619 144.225L204.595 144.494L202.077 141.794L202.439 141.806L202.077 142.026C201.753 142.242 201.485 142.45 201.278 142.641C201.07 142.837 200.916 143.036 200.815 143.248C200.713 143.455 200.664 143.696 200.664 143.956C200.664 144.384 200.819 144.718 201.123 144.958C201.428 145.198 201.866 145.32 202.439 145.32ZM202.776 138.39C202.427 138.39 202.147 138.488 201.931 138.688C201.716 138.887 201.606 139.148 201.606 139.473C201.606 139.644 201.635 139.803 201.692 139.95C201.749 140.096 201.85 140.259 201.988 140.434C202.126 140.609 202.313 140.829 202.544 141.09L202.289 141.126C202.821 140.801 203.21 140.508 203.454 140.247C203.698 139.986 203.819 139.701 203.819 139.392C203.819 139.082 203.726 138.846 203.535 138.667C203.344 138.484 203.093 138.394 202.776 138.394V138.39Z" fill="#3B3B48"/>
<path d="M210.982 145.98V137.783H211.819L215.1 145.214H214.763L218.044 137.783H218.88V145.98H217.999V139.025H218.348L215.25 145.98H214.613L211.506 139.025H211.855V145.98H210.986H210.982Z" fill="#3B3B48"/>
<path d="M223.204 146.086C222.648 146.086 222.161 145.964 221.75 145.719C221.336 145.475 221.02 145.125 220.792 144.673C220.565 144.221 220.455 143.683 220.455 143.06C220.455 142.437 220.569 141.892 220.792 141.444C221.015 140.996 221.336 140.646 221.75 140.402C222.165 140.157 222.648 140.035 223.204 140.035C223.76 140.035 224.256 140.157 224.67 140.402C225.084 140.646 225.405 140.992 225.632 141.444C225.86 141.892 225.973 142.433 225.973 143.06C225.973 143.687 225.86 144.217 225.632 144.673C225.405 145.129 225.084 145.475 224.67 145.719C224.256 145.964 223.769 146.086 223.204 146.086ZM223.204 145.32C223.76 145.32 224.203 145.129 224.528 144.746C224.853 144.363 225.015 143.801 225.015 143.065C225.015 142.328 224.849 141.757 224.524 141.375C224.195 140.992 223.756 140.801 223.208 140.801C222.66 140.801 222.221 140.992 221.897 141.375C221.572 141.757 221.409 142.323 221.409 143.065C221.409 143.806 221.572 144.363 221.897 144.746C222.221 145.129 222.66 145.32 223.208 145.32H223.204Z" fill="#3B3B48"/>
<path d="M229.446 146.087C228.874 146.087 228.439 145.924 228.135 145.594C227.834 145.264 227.684 144.767 227.684 144.1V140.879H226.547V140.146H227.684V138.554L228.622 138.285V140.146H230.291V140.879H228.622V143.994C228.622 144.458 228.703 144.792 228.861 144.987C229.02 145.187 229.259 145.284 229.576 145.284C229.722 145.284 229.856 145.272 229.97 145.244C230.088 145.215 230.189 145.183 230.283 145.146V145.936C230.173 145.981 230.043 146.017 229.893 146.046C229.743 146.074 229.592 146.087 229.446 146.087Z" fill="#3B3B48"/>
<path d="M231.326 138.818V137.76H232.487V138.818H231.326ZM231.444 145.981V140.142H232.382V145.981H231.444Z" fill="#3B3B48"/>
<path d="M236.589 146.086C236.033 146.086 235.545 145.964 235.135 145.719C234.721 145.475 234.404 145.125 234.177 144.673C233.949 144.221 233.84 143.683 233.84 143.06C233.84 142.437 233.954 141.892 234.177 141.444C234.4 140.996 234.721 140.646 235.135 140.402C235.549 140.157 236.033 140.035 236.589 140.035C237.145 140.035 237.641 140.157 238.055 140.402C238.469 140.646 238.79 140.992 239.017 141.444C239.244 141.892 239.358 142.433 239.358 143.06C239.358 143.687 239.244 144.217 239.017 144.673C238.79 145.129 238.469 145.475 238.055 145.719C237.641 145.964 237.153 146.086 236.589 146.086ZM236.589 145.32C237.145 145.32 237.588 145.129 237.913 144.746C238.237 144.363 238.4 143.801 238.4 143.065C238.4 142.328 238.233 141.757 237.909 141.375C237.58 140.992 237.141 140.801 236.593 140.801C236.045 140.801 235.606 140.992 235.281 141.375C234.956 141.757 234.794 142.323 234.794 143.065C234.794 143.806 234.956 144.363 235.281 144.746C235.606 145.129 236.045 145.32 236.593 145.32H236.589Z" fill="#3B3B48"/>
<path d="M240.824 145.98V141.493C240.824 141.277 240.816 141.053 240.795 140.825C240.775 140.597 240.755 140.369 240.73 140.145H241.636L241.754 141.423H241.616C241.786 140.976 242.058 140.629 242.432 140.393C242.805 140.157 243.24 140.039 243.735 140.039C244.422 140.039 244.941 140.222 245.295 140.593C245.648 140.959 245.822 141.542 245.822 142.331V145.984H244.884V142.393C244.884 141.843 244.775 141.44 244.556 141.187C244.336 140.935 243.991 140.809 243.528 140.809C242.988 140.809 242.558 140.976 242.241 141.309C241.924 141.643 241.766 142.087 241.766 142.645V145.984H240.828L240.824 145.98Z" fill="#3B3B48"/>
<path d="M250.748 145.98V137.783H253.46C254.366 137.783 255.129 137.942 255.755 138.256C256.38 138.569 256.855 139.029 257.18 139.64C257.505 140.247 257.667 140.996 257.667 141.879C257.667 142.763 257.505 143.5 257.18 144.111C256.855 144.721 256.38 145.19 255.755 145.507C255.129 145.825 254.362 145.984 253.46 145.984H250.748V145.98ZM251.71 145.153H253.391C254.504 145.153 255.332 144.88 255.872 144.335C256.413 143.789 256.685 142.967 256.685 141.875C256.685 140.784 256.413 139.953 255.872 139.412C255.332 138.87 254.504 138.598 253.391 138.598H251.71V145.157V145.153Z" fill="#3B3B48"/>
<path d="M261.893 146.086C260.979 146.086 260.261 145.821 259.737 145.288C259.209 144.758 258.949 144.017 258.949 143.073C258.949 142.462 259.067 141.928 259.298 141.472C259.53 141.02 259.855 140.666 260.273 140.414C260.691 140.161 261.17 140.035 261.71 140.035C262.25 140.035 262.693 140.149 263.054 140.373C263.42 140.597 263.696 140.919 263.891 141.334C264.086 141.749 264.179 142.238 264.179 142.804V143.154H259.668V142.56H263.566L263.367 142.71C263.367 142.091 263.229 141.607 262.949 141.257C262.669 140.907 262.259 140.731 261.706 140.731C261.126 140.731 260.675 140.935 260.35 141.342C260.025 141.749 259.863 142.299 259.863 142.987V143.093C259.863 143.822 260.041 144.376 260.403 144.75C260.764 145.125 261.268 145.316 261.917 145.316C262.267 145.316 262.592 145.263 262.896 145.157C263.201 145.052 263.493 144.881 263.773 144.64L264.098 145.304C263.842 145.552 263.521 145.744 263.132 145.878C262.742 146.012 262.328 146.082 261.897 146.082L261.893 146.086Z" fill="#3B3B48"/>
<path d="M267.55 146.085C267.087 146.085 266.653 146.02 266.251 145.894C265.849 145.768 265.516 145.585 265.252 145.352L265.577 144.689C265.861 144.913 266.174 145.08 266.511 145.19C266.848 145.3 267.197 145.352 267.558 145.352C268.021 145.352 268.37 145.271 268.606 145.104C268.842 144.937 268.959 144.705 268.959 144.412C268.959 144.188 268.882 144.009 268.732 143.87C268.582 143.736 268.334 143.63 267.997 143.553L266.917 143.333C266.421 143.223 266.052 143.04 265.804 142.779C265.556 142.519 265.435 142.189 265.435 141.786C265.435 141.444 265.524 141.146 265.703 140.886C265.881 140.625 266.137 140.422 266.478 140.271C266.819 140.12 267.217 140.043 267.672 140.043C268.098 140.043 268.488 140.108 268.85 140.234C269.211 140.361 269.507 140.548 269.747 140.788L269.41 141.44C269.179 141.216 268.915 141.045 268.614 140.935C268.318 140.821 268.009 140.768 267.692 140.768C267.238 140.768 266.892 140.857 266.665 141.041C266.438 141.224 266.324 141.46 266.324 141.757C266.324 141.981 266.397 142.164 266.539 142.311C266.681 142.457 266.905 142.559 267.205 142.633L268.285 142.852C268.813 142.971 269.203 143.15 269.463 143.394C269.723 143.638 269.853 143.964 269.853 144.375C269.853 144.725 269.755 145.027 269.564 145.287C269.369 145.548 269.101 145.747 268.76 145.886C268.415 146.024 268.013 146.094 267.55 146.094V146.085Z" fill="#3B3B48"/>
<path d="M271.25 138.818V137.76H272.411V138.818H271.25ZM271.368 145.981V140.142H272.306V145.981H271.368Z" fill="#3B3B48"/>
<path d="M276.691 148.573C276.187 148.573 275.725 148.512 275.298 148.386C274.872 148.264 274.49 148.072 274.149 147.816L274.429 147.107C274.669 147.278 274.904 147.413 275.136 147.514C275.367 147.616 275.607 147.69 275.855 147.742C276.102 147.791 276.366 147.82 276.642 147.82C277.215 147.82 277.645 147.669 277.942 147.368C278.234 147.067 278.38 146.635 278.38 146.077V144.367H278.498C278.376 144.823 278.12 145.185 277.735 145.454C277.349 145.723 276.894 145.857 276.378 145.857C275.863 145.857 275.384 145.739 274.994 145.503C274.604 145.267 274.299 144.929 274.088 144.493C273.877 144.058 273.771 143.536 273.771 142.942C273.771 142.347 273.877 141.843 274.088 141.407C274.299 140.971 274.604 140.637 274.994 140.401C275.384 140.165 275.846 140.047 276.378 140.047C276.91 140.047 277.357 140.177 277.743 140.442C278.128 140.707 278.38 141.069 278.502 141.533L278.384 141.415L278.49 140.149H279.408C279.375 140.373 279.355 140.601 279.339 140.829C279.322 141.057 279.314 141.281 279.314 141.496V145.951C279.314 146.818 279.091 147.474 278.648 147.918C278.202 148.357 277.552 148.581 276.695 148.581L276.691 148.573ZM276.553 145.084C277.117 145.084 277.56 144.896 277.885 144.518C278.21 144.139 278.372 143.614 278.372 142.93C278.372 142.246 278.21 141.72 277.885 141.35C277.56 140.979 277.117 140.792 276.553 140.792C275.989 140.792 275.55 140.979 275.221 141.35C274.888 141.72 274.722 142.25 274.722 142.93C274.722 143.61 274.888 144.143 275.221 144.518C275.554 144.892 275.997 145.084 276.553 145.084Z" fill="#3B3B48"/>
<path d="M281.121 145.98V141.493C281.121 141.277 281.113 141.053 281.092 140.825C281.072 140.597 281.052 140.369 281.027 140.145H281.933L282.051 141.423H281.913C282.083 140.976 282.355 140.629 282.729 140.393C283.102 140.157 283.537 140.039 284.032 140.039C284.718 140.039 285.238 140.222 285.591 140.593C285.945 140.959 286.119 141.542 286.119 142.331V145.984H285.181V142.393C285.181 141.843 285.072 141.44 284.852 141.187C284.633 140.935 284.288 140.809 283.825 140.809C283.285 140.809 282.855 140.976 282.538 141.309C282.221 141.643 282.063 142.087 282.063 142.645V145.984H281.125L281.121 145.98Z" fill="#3B3B48"/>
<path d="M54.7531 50.0061C54.7531 52.8401 54.213 55.503 53.1329 57.9867C52.0528 60.4705 50.5748 62.6529 48.7028 64.534C46.8309 66.4152 44.6991 67.8484 42.2222 68.9315C39.7452 70.0146 37.0896 70.5561 34.2635 70.5561H0.09375V2.0332H34.2635C37.0896 2.0332 39.7452 2.57474 42.2222 3.65781C44.6991 4.74089 46.8593 6.223 48.7028 8.10006C50.5788 9.94862 52.0528 12.1148 53.1329 14.5985C54.213 17.0823 54.7531 19.7452 54.7531 22.5791C54.7531 23.8535 54.5785 25.1605 54.2293 26.4961C53.8801 27.8357 53.3887 29.1223 52.7512 30.3683C52.1178 31.6101 51.3544 32.7421 50.4651 33.76C49.5759 34.7779 48.5891 35.6249 47.509 36.2926C48.6216 36.8993 49.6205 37.7259 50.5098 38.7764C51.3991 39.7943 52.1624 40.9262 52.7959 42.1681C53.4293 43.41 53.9085 44.717 54.2252 46.0851C54.5744 47.4247 54.749 48.7276 54.749 50.0021L54.7531 50.0061ZM13.7698 56.8385H34.2594C35.2136 56.8385 36.1029 56.6634 36.9272 56.3132C37.7515 55.9631 38.4661 55.4867 39.0712 54.88C39.7046 54.2448 40.2 53.5119 40.5492 52.6813C40.8984 51.8547 41.073 50.963 41.073 50.0061C41.073 49.0493 40.8984 48.1576 40.5492 47.331C40.2 46.5045 39.7087 45.7879 39.0712 45.1812C38.4661 44.546 37.7515 44.0492 36.9272 43.6991C36.1029 43.3489 35.2136 43.1738 34.2594 43.1738H13.7698V56.8426V56.8385ZM13.7698 29.4562H34.2594C35.2136 29.4562 36.1029 29.2811 36.9272 28.931C37.7515 28.5808 38.4661 28.1044 39.0712 27.4977C39.7046 26.8625 40.2 26.1296 40.5492 25.299C40.8984 24.4398 41.073 23.5319 41.073 22.575C41.073 21.6181 40.8984 20.7265 40.5492 19.8999C40.2 19.0733 39.7087 18.3567 39.0712 17.75C38.4661 17.1148 37.7515 16.6181 36.9272 16.2679C36.1029 15.9178 35.2136 15.7427 34.2594 15.7427H13.7698V29.4562Z" fill="#3B3B48"/>
<path d="M208.012 36.2678C208.012 39.5171 207.581 42.6563 206.725 45.6816C205.896 48.6743 204.723 51.496 203.196 54.1386C201.673 56.7526 199.83 59.1387 197.67 61.3048C195.509 63.471 193.126 65.3358 190.523 66.8953C187.916 68.4262 185.106 69.603 182.089 70.4295C179.072 71.2886 175.941 71.7202 172.701 71.7202C169.461 71.7202 166.33 71.2886 163.313 70.4295C160.329 69.603 157.515 68.4222 154.879 66.8953C152.272 65.3358 149.893 63.471 147.733 61.3048C145.572 59.1387 143.713 56.7485 142.157 54.1386C140.631 51.496 139.441 48.6743 138.584 45.6816C137.756 42.6563 137.346 39.5171 137.346 36.2678C137.346 33.0186 137.76 29.8793 138.584 26.854C139.441 23.8287 140.635 21.007 142.157 18.3971C143.713 15.783 145.572 13.397 147.733 11.2308C149.893 9.06469 152.276 7.21612 154.879 5.68923C157.515 4.15827 160.329 2.98154 163.313 2.15498C166.33 1.29585 169.461 0.864258 172.701 0.864258C175.941 0.864258 179.072 1.29585 182.089 2.15498C185.106 2.98154 187.92 4.16234 190.523 5.68923C193.126 7.2202 195.509 9.06469 197.67 11.2308C199.83 13.397 201.673 15.7871 203.196 18.3971C204.723 21.0111 205.896 23.8287 206.725 26.854C207.581 29.8793 208.012 33.0186 208.012 36.2678ZM194.429 36.2678C194.429 33.2751 193.857 30.4534 192.712 27.8109C191.567 25.1358 190.011 22.8271 188.042 20.8808C186.105 18.906 183.799 17.3466 181.131 16.1983C178.496 15.0501 175.682 14.4801 172.697 14.4801C169.713 14.4801 166.854 15.0542 164.214 16.1983C161.579 17.3466 159.273 18.906 157.303 20.8808C155.334 22.823 153.779 25.1358 152.634 27.8109C151.489 30.4534 150.916 33.2751 150.916 36.2678C150.916 39.2605 151.489 42.0822 152.634 44.7248C153.779 47.3388 155.334 49.6312 157.303 51.606C159.273 53.5808 161.575 55.1402 164.214 56.2885C166.85 57.4367 169.68 58.0067 172.697 58.0067C175.714 58.0067 178.496 57.4326 181.131 56.2885C183.799 55.1402 186.101 53.5808 188.042 51.606C190.011 49.6312 191.567 47.3388 192.712 44.7248C193.857 42.0822 194.429 39.2605 194.429 36.2678Z" fill="#3B3B48"/>
<path d="M213.014 22.5742C213.014 19.7403 213.554 17.0774 214.634 14.5936C215.714 12.1099 217.176 9.94373 219.019 8.09517C220.895 6.21404 223.072 4.73601 225.549 3.65293C228.026 2.56985 230.681 2.02832 233.507 2.02832H265.074V15.7419H233.507C232.553 15.7419 231.664 15.9169 230.84 16.2671C230.011 16.6173 229.284 17.11 228.647 17.7492C228.042 18.3559 227.567 19.0725 227.218 19.8991C226.868 20.7256 226.694 21.6173 226.694 22.5742C226.694 23.531 226.868 24.439 227.218 25.2982C227.567 26.1247 228.042 26.8576 228.647 27.4969C229.28 28.1036 230.011 28.58 230.84 28.9302C231.664 29.2803 232.557 29.4554 233.507 29.4554H247.183C250.01 29.4554 252.665 29.9969 255.142 31.08C257.652 32.1305 259.828 33.5963 261.671 35.4775C263.543 37.326 265.009 39.5085 266.057 42.0248C267.137 44.5085 267.677 47.1714 267.677 50.0053C267.677 52.8393 267.137 55.5022 266.057 57.9859C265.009 60.4697 263.547 62.6521 261.671 64.5332C259.828 66.3818 257.652 67.8476 255.142 68.9307C252.665 70.0138 250.01 70.5553 247.183 70.5553H213.347V56.8418H247.183C248.138 56.8418 249.027 56.6667 249.851 56.3165C250.68 55.9664 251.394 55.49 251.995 54.8833C252.633 54.2481 253.124 53.5152 253.473 52.6845C253.822 51.858 253.997 50.9663 253.997 50.0094C253.997 49.0526 253.822 48.1609 253.473 47.3343C253.124 46.5077 252.633 45.7911 251.995 45.1844C251.39 44.5492 250.68 44.0525 249.851 43.7023C249.027 43.3522 248.134 43.1771 247.183 43.1771H233.507C230.681 43.1771 228.026 42.6355 225.549 41.5525C223.072 40.4694 220.895 39.0036 219.019 37.155C217.176 35.2739 215.714 33.0914 214.634 30.6077C213.554 28.0914 213.014 25.4163 213.014 22.5783V22.5742Z" fill="#3B3B48"/>
<path d="M304.418 70.5512H290.79V15.7419H270.252V2.02832H324.911V15.7419H304.422V70.5512H304.418Z" fill="#3B3B48"/>
<path d="M132.546 36.2103C120.364 38.6981 108.328 40.6892 96.4065 40.6932C84.4846 40.6932 73.2612 39.1989 59.8613 36.2103V33.7225C66.4922 31.6092 73.2531 29.7281 79.8962 27.6841C80.753 27.4194 81.6544 27.2973 82.5396 27.2932C91.4363 27.2647 100.337 27.2403 109.234 27.3095C110.87 27.3217 112.539 27.5945 114.131 28.0709C120.246 29.8991 126.442 31.8087 132.541 33.7225V36.2103H132.546Z" fill="#3B3B48"/>
<path d="M81.8242 23.8572H110.581C110.581 23.8572 109.676 21.0233 107.353 19.0892C104.34 16.5811 89.6286 16.0069 85.0036 19.0892C83.4972 20.0909 81.8242 23.8572 81.8242 23.8572Z" fill="#3B3B48"/>
<path d="M59.8732 42.2891C59.8732 42.2891 93.4216 55.8316 132.525 42.3746V44.3941C132.525 44.3941 121.614 51.7721 118.337 53.1402C114.89 54.5816 90.5061 57.843 74.1177 53.1565C74.069 53.1443 74.0202 53.1239 73.9715 53.1035C73.5045 52.8918 70.8246 51.5441 59.8691 44.2964V42.2891H59.8732Z" fill="#3B3B48"/>
</svg>
