<svg width="128" height="48" viewBox="0 0 128 48" fill="none" xmlns="http://www.w3.org/2000/svg">
<path d="M4.04205 36.4486H0.00146484V34.4578H10.5155V36.4486H6.47492V47.7125H4.04205V36.4486Z" fill="#04D9DD"/>
<path d="M12.0457 34.4578H21.1042V36.4486H14.477V40.0897H19.3991V42.0806H14.477V45.7216H21.1042V47.7125H12.0457V34.4578Z" fill="#04D9DD"/>
<path d="M29.3362 47.997C27.931 47.997 26.6872 47.7186 25.6017 47.1635C24.5161 46.5947 23.6742 45.7916 23.0729 44.7544C22.473 43.705 22.1731 42.4852 22.1731 41.0951C22.1731 39.705 22.473 38.4913 23.0729 37.454C23.6727 36.4046 24.5161 35.5955 25.6017 35.0266C26.6872 34.4578 27.9325 34.1734 29.3362 34.1734C31.1875 34.1734 32.7328 34.6099 33.9706 35.4814V37.7764C32.8592 36.8411 31.3854 36.3726 29.5463 36.3726C28.5628 36.3726 27.7011 36.5688 26.9612 36.9612C26.2213 37.3399 25.6458 37.8844 25.2378 38.5917C24.8298 39.2989 24.6242 40.1338 24.6242 41.0951C24.6242 42.0563 24.8283 42.8897 25.2378 43.5985C25.6595 44.3057 26.2396 44.8563 26.981 45.2487C27.7209 45.6274 28.5765 45.8175 29.5478 45.8175C30.5192 45.8175 31.3352 45.7034 32.0766 45.4768C32.8165 45.2365 33.5001 44.8578 34.1259 44.3392V46.6342C32.9505 47.5437 31.355 48 29.3377 48L29.3362 47.997Z" fill="#04D9DD"/>
<path d="M36.041 34.4578H38.4739V39.9574H44.9093V34.4578H47.3224V47.7125H44.9093V41.9483H38.4739V47.7125H36.041V34.4578Z" fill="#04D9DD"/>
<path d="M49.6196 34.4578H51.9185L58.1819 43.6927V34.4578H60.6132V47.7125H58.3143L52.051 38.4593V47.7125H49.6196V34.4578Z" fill="#04D9DD"/>
<path d="M69.6399 47.997C68.2987 47.997 67.0868 47.7126 66.0013 47.1437C64.9295 46.5628 64.08 45.746 63.4542 44.6981C62.8422 43.6487 62.5347 42.4472 62.5347 41.0951C62.5347 39.743 62.8407 38.5415 63.4542 37.492C64.08 36.4426 64.9295 35.6274 66.0013 35.0464C67.0868 34.4654 68.3002 34.1734 69.6399 34.1734C70.9797 34.1734 72.1687 34.4639 73.2405 35.0464C74.3261 35.6274 75.1756 36.4426 75.7876 37.492C76.4133 38.5415 76.727 39.743 76.727 41.0951C76.727 42.4472 76.4133 43.6487 75.7876 44.6981C75.1756 45.7339 74.3261 46.543 73.2405 47.1255C72.1687 47.7065 70.9675 47.997 69.6399 47.997ZM69.6399 45.816C70.4956 45.816 71.2751 45.6274 71.9769 45.2472C72.6788 44.8548 73.2345 44.3057 73.6425 43.597C74.0642 42.8761 74.2743 42.0411 74.2743 41.0936C74.2743 40.146 74.0703 39.3369 73.6623 38.6282C73.2542 37.9072 72.6986 37.3521 71.9967 36.9597C71.2949 36.5673 70.5093 36.3711 69.6415 36.3711C68.7737 36.3711 67.982 36.5673 67.2664 36.9597C66.5646 37.3521 66.0089 37.9072 65.6009 38.6282C65.1929 39.3369 64.9873 40.1582 64.9873 41.0936C64.9873 42.0289 65.1913 42.8761 65.6009 43.597C66.0226 44.3042 66.5844 44.8548 67.2862 45.2472C68.0018 45.6259 68.7858 45.816 69.6415 45.816H69.6399Z" fill="#04D9DD"/>
<path d="M78.6482 34.4578H81.0795V45.7216H87.5149V47.7125H78.6482V34.4578Z" fill="#04D9DD"/>
<path d="M94.7222 47.997C93.3825 47.997 92.1691 47.7126 91.0836 47.1437C90.0102 46.5628 89.1622 45.746 88.5365 44.6981C87.923 43.6487 87.6169 42.4472 87.6169 41.0951C87.6169 39.743 87.923 38.5415 88.5365 37.492C89.1622 36.4426 90.0118 35.6274 91.0836 35.0464C92.1691 34.4654 93.3825 34.1734 94.7222 34.1734C96.062 34.1734 97.251 34.4639 98.3228 35.0464C99.4083 35.6274 100.256 36.4426 100.87 37.492C101.496 38.5415 101.809 39.743 101.809 41.0951C101.809 42.4472 101.496 43.6487 100.87 44.6981C100.258 45.7339 99.4083 46.543 98.3228 47.1255C97.2495 47.7065 96.0498 47.997 94.7222 47.997ZM94.7222 45.816C95.5778 45.816 96.3573 45.6274 97.0592 45.2472C97.761 44.8548 98.3167 44.3057 98.7247 43.597C99.1465 42.8761 99.3566 42.0411 99.3566 41.0936C99.3566 40.146 99.1526 39.3369 98.7445 38.6282C98.3365 37.9072 97.7808 37.3521 97.079 36.9597C96.3771 36.5673 95.5915 36.3711 94.7237 36.3711C93.8559 36.3711 93.0643 36.5673 92.3487 36.9597C91.6469 37.3521 91.0912 37.9072 90.6832 38.6282C90.2751 39.3369 90.0711 40.1582 90.0711 41.0936C90.0711 42.0289 90.2751 42.8761 90.6832 43.597C91.1049 44.3042 91.6667 44.8548 92.3685 45.2472C93.0841 45.6259 93.8681 45.816 94.7237 45.816H94.7222Z" fill="#04D9DD"/>
<path d="M110.228 47.997C108.823 47.997 107.579 47.7186 106.494 47.1635C105.408 46.5947 104.566 45.7916 103.965 44.7544C103.365 43.705 103.065 42.4852 103.065 41.0951C103.065 39.705 103.365 38.4913 103.965 37.454C104.565 36.4046 105.408 35.5955 106.494 35.0266C107.579 34.4578 108.825 34.1734 110.228 34.1734C111.186 34.1734 112.042 34.2738 112.795 34.4761C113.549 34.6783 114.232 35.0008 114.844 35.4434V37.7384C114.283 37.2578 113.637 36.911 112.911 36.6951C112.183 36.4806 111.359 36.3726 110.44 36.3726C109.52 36.3726 108.685 36.5688 107.931 36.9612C107.191 37.3399 106.603 37.8905 106.169 38.6114C105.736 39.3202 105.518 40.1475 105.518 41.0951C105.518 42.0426 105.722 42.8958 106.131 43.6167C106.539 44.3255 107.109 44.8745 107.835 45.2669C108.563 45.6456 109.392 45.8358 110.324 45.8358C111.308 45.8358 112.118 45.6715 112.757 45.343V42.3666H110.498V40.4517H115.19V46.6342C114.002 47.5437 112.349 48 110.23 48L110.228 47.997Z" fill="#04D9DD"/>
<path d="M120.723 42.6692L115.859 34.4578H118.444L121.891 40.3559L125.433 34.4578H128L123.04 42.6692V47.714H120.723V42.6692Z" fill="#04D9DD"/>
<path d="M21.529 19.2836C21.529 20.3954 21.3158 21.4403 20.8911 22.4152C20.4663 23.3901 19.8832 24.2464 19.1448 24.984C18.4186 25.7095 17.5676 26.2844 16.5917 26.7087C15.6158 27.1331 14.5714 27.346 13.4569 27.346H0V0.45929H13.4569C14.5699 0.45929 15.6158 0.672218 16.5917 1.09655C17.5676 1.52089 18.4186 2.1034 19.1448 2.84104C19.8832 3.56651 20.4648 4.41671 20.8911 5.39161C21.3158 6.36652 21.529 7.40986 21.529 8.52317C21.529 9.02355 21.4605 9.5361 21.3219 10.0608C21.1849 10.5855 20.99 11.092 20.7403 11.5802C20.4907 12.0684 20.1892 12.511 19.8391 12.911C19.4889 13.311 19.1007 13.6426 18.6759 13.9042C19.1144 14.1414 19.5087 14.4669 19.8588 14.8791C20.209 15.2791 20.5089 15.7232 20.7601 16.2099C21.0098 16.6981 21.1986 17.2106 21.3234 17.7475C21.4605 18.2722 21.5305 18.7848 21.5305 19.2852L21.529 19.2836ZM5.38795 21.965H13.4585C13.8345 21.965 14.1847 21.8966 14.509 21.7582C14.8348 21.6213 15.1164 21.4327 15.3539 21.1954C15.6036 20.946 15.7985 20.6585 15.9355 20.3331C16.0725 20.0076 16.1425 19.6578 16.1425 19.2836C16.1425 18.9095 16.074 18.5582 15.9355 18.2342C15.7985 17.9087 15.6036 17.6274 15.3539 17.3901C15.1164 17.1407 14.8348 16.946 14.509 16.8091C14.1831 16.6722 13.833 16.6023 13.4585 16.6023H5.38795V21.965ZM5.38795 11.2213H13.4585C13.8345 11.2213 14.1847 11.1528 14.509 11.0144C14.8348 10.8775 15.1164 10.689 15.3539 10.4517C15.6036 10.2023 15.7985 9.91481 15.9355 9.58933C16.0725 9.25169 16.1425 8.89579 16.1425 8.52013C16.1425 8.14446 16.074 7.79465 15.9355 7.4707C15.7985 7.14522 15.6036 6.86386 15.3539 6.62659C15.1164 6.37716 14.8348 6.18249 14.509 6.0456C14.1831 5.90872 13.833 5.83876 13.4585 5.83876H5.38795V11.2197V11.2213Z" fill="#3B3B48"/>
<path d="M81.8897 13.8935C81.8897 15.1681 81.7207 16.4 81.3827 17.5878C81.0569 18.7635 80.594 19.8692 79.9942 20.9065C79.3944 21.9316 78.6681 22.8684 77.8171 23.7186C76.966 24.5688 76.0282 25.3004 75.0021 25.9118C73.976 26.511 72.8691 26.9749 71.6801 27.2989C70.4911 27.6365 69.2594 27.8053 67.9821 27.8053C66.7047 27.8053 65.4731 27.6365 64.284 27.2989C63.1072 26.9734 62.0004 26.511 60.962 25.9118C59.9359 25.2989 58.9981 24.5673 58.147 23.7186C57.296 22.8684 56.5637 21.9316 55.9517 20.9065C55.3503 19.8692 54.8814 18.762 54.5434 17.5878C54.2176 16.4 54.0547 15.1696 54.0547 13.8935C54.0547 12.6175 54.2176 11.3871 54.5434 10.1992C54.8814 9.01141 55.3503 7.9057 55.9517 6.88061C56.5652 5.85551 57.296 4.91863 58.147 4.06844C58.9981 3.21825 59.9359 2.49278 60.962 1.89354C62.0004 1.2943 63.1072 0.830421 64.284 0.506467C65.4731 0.168824 66.7047 0 67.9821 0C69.2594 0 70.4911 0.168824 71.6801 0.506467C72.8691 0.831942 73.976 1.2943 75.0021 1.89354C76.0282 2.49278 76.966 3.21825 77.8171 4.06844C78.6681 4.91863 79.3944 5.85551 79.9942 6.88061C80.5956 7.9057 81.0584 9.01141 81.3827 10.1992C81.7207 11.3871 81.8897 12.6175 81.8897 13.8935ZM76.5413 13.8935C76.5413 12.7179 76.316 11.6122 75.8653 10.5749C75.4147 9.52548 74.8011 8.61901 74.0262 7.85551C73.2634 7.07985 72.3561 6.46844 71.304 6.01825C70.2657 5.56806 69.1574 5.34297 67.9821 5.34297C66.8067 5.34297 65.6801 5.56806 64.6418 6.01825C63.6035 6.46844 62.6961 7.08137 61.9197 7.85551C61.1432 8.61749 60.5312 9.52396 60.0805 10.5749C59.6299 11.6122 59.4046 12.7179 59.4046 13.8935C59.4046 15.0692 59.6299 16.1749 60.0805 17.2122C60.5312 18.2373 61.1447 19.1376 61.9197 19.9118C62.6961 20.6875 63.602 21.2989 64.6418 21.7491C65.6801 22.1992 66.7946 22.4243 67.9821 22.4243C69.1696 22.4243 70.2657 22.1992 71.304 21.7491C72.3545 21.2989 73.2619 20.6859 74.0262 19.9118C74.8011 19.1361 75.4147 18.2373 75.8653 17.2122C76.316 16.1749 76.5413 15.0677 76.5413 13.8935Z" fill="#3B3B48"/>
<path d="M83.8596 8.52167C83.8596 7.40989 84.0728 6.36502 84.4975 5.39011C84.9223 4.41521 85.4978 3.56502 86.224 2.83954C86.9624 2.1019 87.8195 1.52091 88.7954 1.09506C89.7713 0.670722 90.8157 0.457794 91.9301 0.457794H104.364V5.83878H91.9301C91.5556 5.83878 91.2039 5.90722 90.8796 6.04563C90.5538 6.18251 90.2661 6.37719 90.0164 6.62662C89.7789 6.86388 89.5916 7.14525 89.4531 7.47072C89.3161 7.7962 89.2461 8.14601 89.2461 8.52015C89.2461 8.8943 89.3146 9.25171 89.4531 9.58936C89.5901 9.91483 89.7789 10.2023 90.0164 10.4517C90.2661 10.689 90.5538 10.876 90.8796 11.0145C91.2054 11.1513 91.5556 11.2213 91.9301 11.2213H97.3166C98.4295 11.2213 99.4754 11.4342 100.451 11.8586C101.439 12.2707 102.296 12.8456 103.023 13.5833C103.761 14.3087 104.337 15.165 104.749 16.1521C105.174 17.127 105.387 18.1703 105.387 19.2837C105.387 20.397 105.174 21.4403 104.749 22.4152C104.337 23.3901 103.761 24.2464 103.023 24.984C102.296 25.7095 101.439 26.2844 100.451 26.7088C99.4754 27.1331 98.431 27.346 97.3166 27.346H83.9905V21.965H97.3166C97.6911 21.965 98.0428 21.8966 98.367 21.7582C98.6929 21.6213 98.9745 21.4327 99.212 21.1954C99.4632 20.946 99.6566 20.6586 99.7936 20.3331C99.9306 20.0076 100.001 19.6578 100.001 19.2837C100.001 18.9095 99.9321 18.5582 99.7936 18.2342C99.6566 17.9088 99.4617 17.6274 99.212 17.3901C98.9745 17.1407 98.6929 16.946 98.367 16.8091C98.0412 16.6722 97.6911 16.6023 97.3166 16.6023H91.9301C90.8172 16.6023 89.7713 16.3894 88.7954 15.965C87.8195 15.5407 86.9624 14.9643 86.224 14.2403C85.4978 13.5027 84.9223 12.6464 84.4975 11.6715C84.0728 10.6844 83.8596 9.63346 83.8596 8.52167Z" fill="#3B3B48"/>
<path d="M119.858 27.346H114.49V5.84028H106.401V0.45929H127.929V5.84028H119.858V27.346Z" fill="#3B3B48"/>
<path d="M52.1759 13.8708C47.3665 14.8502 42.6149 15.6335 37.9075 15.6335C33.2001 15.6335 28.7698 15.0464 23.4792 13.8708V12.8913C26.0963 12.0593 28.7667 11.3202 31.3899 10.5156C31.7279 10.4122 32.0841 10.3635 32.4328 10.362C35.9466 10.3514 39.4589 10.3407 42.9727 10.3681C43.6182 10.3727 44.279 10.4806 44.9062 10.6677C47.3208 11.3871 49.7674 12.1384 52.1759 12.8913V13.8708Z" fill="#3B3B48"/>
<path d="M32.1514 9.01138H43.5043C43.5043 9.01138 43.148 7.89655 42.23 7.1361C41.041 6.14903 35.2328 5.92393 33.4059 7.1361C32.8106 7.53154 32.1514 9.01138 32.1514 9.01138Z" fill="#3B3B48"/>
<path d="M23.4854 16.2631C23.4854 16.2631 36.7307 21.5894 52.1698 16.2966V17.0905C52.1698 17.0905 47.8613 19.9924 46.5687 20.5308C45.2077 21.0966 35.5812 22.3802 29.1108 20.5384C29.091 20.5323 29.0727 20.5262 29.053 20.5171C28.8687 20.4335 27.8106 19.9042 23.4854 17.0525V16.2631Z" fill="#3B3B48"/>
</svg>
