<svg width="67" height="100" viewBox="0 0 67 100" fill="none" xmlns="http://www.w3.org/2000/svg">
<path d="M6.51632 4.28819V2.45856H8.689V4.14525C8.689 4.61219 8.78429 4.96954 8.97488 5.2173C9.16546 5.47459 9.44181 5.66041 9.80393 5.77476L13.2917 7.00404V9.51978H13.1344L9.1607 8.03321C8.66517 7.86168 8.2173 7.59962 7.81707 7.24704C7.41684 6.89446 7.0976 6.4704 6.85937 5.97488C6.63067 5.47935 6.51632 4.91712 6.51632 4.28819ZM3 1.10064L13.2917 1.10064V3.63067L3 3.63067V1.10064ZM7.83136 6.68958L3.15723 9.69131H3V6.97546L6.91655 4.64554L7.83136 6.68958ZM8.14583 10.1622C9.19405 10.1622 10.1184 10.3671 10.9189 10.7769C11.7193 11.1866 12.3435 11.7822 12.7914 12.5636C13.2392 13.345 13.4632 14.2932 13.4632 15.4081C13.4632 16.5135 13.2392 17.4569 12.7914 18.2383C12.3435 19.0292 11.7193 19.6296 10.9189 20.0394C10.1184 20.4491 9.19405 20.654 8.14583 20.654C7.0976 20.654 6.17326 20.4491 5.3728 20.0394C4.57234 19.6296 3.94817 19.0292 3.50029 18.2383C3.05241 17.4569 2.82847 16.5135 2.82847 15.4081C2.82847 14.2932 3.04765 13.345 3.48599 12.5636C3.93387 11.7822 4.55804 11.1866 5.3585 10.7769C6.15897 10.3671 7.08807 10.1622 8.14583 10.1622ZM8.14583 12.7494C7.52642 12.7494 6.97372 12.8447 6.48773 13.0353C6.01126 13.2354 5.63962 13.5308 5.3728 13.9215C5.10598 14.3218 4.97257 14.8173 4.97257 15.4081C4.97257 15.9989 5.10598 16.4897 5.3728 16.8804C5.63962 17.2711 6.01126 17.5617 6.48773 17.7523C6.97372 17.9524 7.52642 18.0525 8.14583 18.0525C8.76523 18.0525 9.31317 17.9524 9.78963 17.7523C10.2756 17.5617 10.652 17.2711 10.9189 16.8804C11.1857 16.4897 11.3191 15.9989 11.3191 15.4081C11.3191 14.8173 11.1857 14.3218 10.9189 13.9215C10.652 13.5308 10.2756 13.2354 9.78963 13.0353C9.31317 12.8447 8.76523 12.7494 8.14583 12.7494ZM3 22.3458H13.2917V24.3756L8.13153 29.4785H4.80104L10.1756 24.1612L10.4757 24.8901H3V22.3458ZM3 28.6352H13.2917V31.1652H3V28.6352ZM3 34.7177H5.20127V37.0047C5.20127 37.5288 5.28703 37.9767 5.45856 38.3484C5.63962 38.72 5.88738 39.0249 6.20185 39.2632C6.51632 39.5014 6.87843 39.6777 7.28819 39.7921C7.69795 39.9064 8.1363 39.9636 8.60323 39.9636C9.39417 39.9636 10.004 39.7539 10.4329 39.3346C10.8712 38.9249 11.0904 38.2483 11.0904 37.3049V34.7177H13.2917V37.3049C13.2917 39.0392 12.8867 40.3448 12.0767 41.2214C11.2762 42.1077 10.1279 42.5508 8.63182 42.5508C7.87901 42.5508 7.16431 42.4412 6.48773 42.222C5.81115 42.0124 5.2108 41.6789 4.68669 41.2214C4.16258 40.7736 3.74805 40.1923 3.44311 39.4776C3.1477 38.7629 3 37.8957 3 36.8761V34.7177ZM3 33.3455H13.2917V35.8898H3V33.3455ZM5.44427 45.6057H7.5026V48.0214C7.5026 48.4978 7.60266 48.8838 7.80277 49.1792C8.01242 49.4841 8.27924 49.708 8.60323 49.851C8.92723 49.9939 9.27505 50.0654 9.64669 50.0654C10.1708 50.0654 10.5567 49.9129 10.8045 49.608C11.0523 49.3126 11.1761 48.9171 11.1761 48.4216V45.6057H13.2917V48.4359C13.2917 49.3697 13.144 50.1416 12.8485 50.7515C12.5627 51.3709 12.1529 51.8331 11.6193 52.138C11.0856 52.4525 10.4567 52.6097 9.73246 52.6097C9.06541 52.6097 8.46506 52.4858 7.93142 52.2381C7.40731 51.9903 6.95943 51.652 6.58779 51.2232C6.21614 50.8039 5.93026 50.3227 5.73015 49.7795C5.53956 49.2363 5.44427 48.6693 5.44427 48.0785V45.6057ZM3 44.2335H13.2917V46.7778H3V44.2335ZM3 50.1226L5.97314 48.0642L6.37338 50.437L3.14294 52.9242H3V50.1226ZM3 53.9488L9.74675 55.0923C10.49 55.2162 11.0999 55.4163 11.5764 55.6926C12.0528 55.969 12.4245 56.312 12.6913 56.7218C12.9581 57.1411 13.144 57.6318 13.2488 58.1941C13.3536 58.7563 13.406 59.3852 13.406 60.0809C13.406 60.4811 13.3822 60.9147 13.3345 61.3816C13.2869 61.8486 13.2202 62.2726 13.1344 62.6538L12.9629 62.6824C12.7914 62.6443 12.5627 62.6157 12.2768 62.5966C11.9909 62.5871 11.7003 62.5776 11.4049 62.568C11.1094 62.568 10.8664 62.568 10.6759 62.568H3V60.038H10.4186C10.6949 60.038 10.9474 60.0475 11.1761 60.0666C11.4144 60.0952 11.6288 60.1285 11.8194 60.1666L11.2047 60.4954C11.2333 60.3906 11.2524 60.2476 11.2619 60.0666C11.281 59.8951 11.2905 59.7331 11.2905 59.5806C11.2905 59.1327 11.2286 58.7754 11.1047 58.5085C10.9903 58.2417 10.814 58.0368 10.5758 57.8939C10.3376 57.7605 10.0326 57.6604 9.66099 57.5937L3 56.4931V53.9488ZM5.63009 55.7784H7.65983V61.2101H5.63009V55.7784ZM5.63009 64.4672V64.6102C5.50621 64.8484 5.38709 65.1343 5.27274 65.4678C5.15839 65.8013 5.0631 66.1634 4.98686 66.5541C4.92016 66.9544 4.8868 67.3546 4.8868 67.7548C4.8868 68.1741 4.91539 68.522 4.97257 68.7983C5.02974 69.0842 5.12027 69.2986 5.24415 69.4415C5.37756 69.594 5.55386 69.6702 5.77303 69.6702C6.04938 69.6702 6.25426 69.5749 6.38767 69.3844C6.52108 69.2033 6.6259 68.8745 6.70214 68.3981L6.84508 67.4547C6.9499 66.7495 7.13096 66.1492 7.38825 65.6536C7.64554 65.1676 7.98383 64.8008 8.40312 64.553C8.83194 64.3052 9.34652 64.1813 9.94687 64.1813C10.6806 64.1813 11.3096 64.3529 11.8337 64.6959C12.3578 65.0485 12.758 65.5822 13.0344 66.2969C13.3202 67.0116 13.4632 67.9264 13.4632 69.0413C13.4632 69.5368 13.4203 70.0133 13.3345 70.4707C13.2583 70.9281 13.1535 71.3093 13.0201 71.6142H10.8617V71.457C10.9951 71.1711 11.119 70.8042 11.2333 70.3563C11.3477 69.9085 11.4049 69.4082 11.4049 68.8555C11.4049 68.379 11.3572 67.974 11.2619 67.6405C11.1666 67.3165 11.0189 67.0687 10.8188 66.8972C10.6282 66.7257 10.3852 66.6399 10.0898 66.6399C9.70863 66.6399 9.43705 66.7638 9.27505 67.0116C9.11305 67.2593 8.98441 67.6595 8.88911 68.2122L8.74617 69.1128C8.66041 69.675 8.50794 70.1848 8.28877 70.6422C8.06959 71.1092 7.76465 71.476 7.37395 71.7429C6.98325 72.0192 6.46867 72.1574 5.83021 72.1574C5.28703 72.1574 4.8201 72.043 4.4294 71.8143C4.04822 71.5856 3.73852 71.2664 3.50029 70.8566C3.27159 70.4564 3.10482 69.9895 3 69.4558C2.88565 68.9317 2.82847 68.3647 2.82847 67.7548C2.82847 67.326 2.85706 66.902 2.91424 66.4827C2.96188 66.0729 3.02859 65.6917 3.11435 65.3392C3.20012 64.9866 3.29064 64.6959 3.38594 64.4672H5.63009ZM3 80.032H13.2917V82.5621H3V80.032ZM3 73.7427H13.2917V76.287H3V73.7427ZM7.05949 75.1149H9.26076L9.26076 81.2041H7.05949L7.05949 75.1149ZM13.2917 84.7423V87.2867H3V84.7423H13.2917ZM3 89.4604H13.2917V91.4902L8.13153 96.5931H4.80104L10.1756 91.2758L10.4757 92.0048H3V89.4604ZM3 95.7498H13.2917V98.2798H3V95.7498Z" fill="white"/>
<path d="M16.7794 55.9847V41.0485H33.909C37.3907 41.0485 40.176 40.3522 42.265 38.9595C44.4236 37.5668 45.9555 35.7216 46.8607 33.4237C47.8356 31.1258 48.323 28.5842 48.323 25.7989C48.323 22.178 47.2785 19.5668 45.1895 17.9652C43.1702 16.2941 40.5241 15.4585 37.2514 15.4585H16.7794V0L37.0425 0C46.7911 0 54.1721 2.22825 59.1857 6.68474C64.1993 11.1412 66.706 17.3385 66.706 25.2767C66.706 29.5243 66.0097 33.5281 64.6171 37.2883C63.294 41.0485 61.2747 44.3212 58.559 47.1065C55.8433 49.8918 52.4662 52.0853 48.4275 53.6868C44.4584 55.2187 39.8278 55.9847 34.5357 55.9847H16.7794Z" fill="#5989FF"/>
</svg>
