<svg width="31" height="31" viewBox="0 0 31 31" fill="none" xmlns="http://www.w3.org/2000/svg">
<circle cx="15.0728" cy="15.0728" r="15.0728" fill="white" fill-opacity="0.2"/>
<path d="M7.59022 11.0974C7.63579 10.533 7.89219 10.0064 8.3084 9.62247C8.72461 9.23853 9.27011 9.02537 9.83636 9.02539H19.7511C20.3224 9.02537 20.8724 9.24235 21.2898 9.63244C21.7072 10.0225 21.9608 10.5566 21.9994 11.1266L14.7945 14.9202L7.59022 11.0974ZM7.58301 12.1141V18.3092C7.58301 18.9068 7.82041 19.48 8.243 19.9026C8.66559 20.3252 9.23873 20.5626 9.83636 20.5626H19.7511C20.3487 20.5626 20.9219 20.3252 21.3445 19.9026C21.7671 19.48 22.0045 18.9068 22.0045 18.3092V12.1426L15.0036 15.8287C14.9386 15.8629 14.8663 15.8807 14.7929 15.8806C14.7195 15.8804 14.6473 15.8624 14.5825 15.828L7.58301 12.1141Z" fill="white"/>
</svg>
