<svg width="30" height="30" viewBox="0 0 30 30" fill="none" xmlns="http://www.w3.org/2000/svg">
<g id="logos:whatsapp-icon" clip-path="url(#clip0_1_3187)">
<path id="Vector" d="M0.640234 14.8201C0.639531 17.3407 1.30328 19.8019 2.56539 21.9712L0.519531 29.383L8.16391 27.3942C10.2782 28.5363 12.6472 29.1347 15.0545 29.1349H15.0609C23.0079 29.1349 29.477 22.7183 29.4804 14.8314C29.482 11.0097 27.9834 7.41594 25.2606 4.71222C22.5384 2.00873 18.9179 0.519078 15.0603 0.517334C7.11227 0.517334 0.643633 6.93361 0.640352 14.8201" fill="white" fill-opacity="0.2"/>
<path id="Vector_2" d="M11.3298 8.62091C11.0502 8.00428 10.7559 7.99184 10.49 7.98103C10.2723 7.97173 10.0234 7.97242 9.77471 7.97242C9.5258 7.97242 9.12139 8.06533 8.77955 8.43568C8.43736 8.80638 7.47314 9.70219 7.47314 11.5242C7.47314 13.3463 8.81061 15.1071 8.99705 15.3544C9.18373 15.6013 11.579 19.4599 15.3726 20.9443C18.5254 22.1779 19.167 21.9325 19.8513 21.8707C20.5357 21.8091 22.0596 20.9751 22.3705 20.1103C22.6816 19.2457 22.6816 18.5045 22.5883 18.3496C22.4951 18.1953 22.2462 18.1027 21.8729 17.9175C21.4995 17.7323 19.6646 16.8364 19.3226 16.7128C18.9804 16.5893 18.7316 16.5277 18.4827 16.8985C18.2338 17.2687 17.519 18.1027 17.3012 18.3496C17.0836 18.5972 16.8657 18.628 16.4926 18.4428C16.1191 18.257 14.9171 17.8664 13.4911 16.6049C12.3815 15.6232 11.6325 14.411 11.4147 14.0402C11.197 13.67 11.3914 13.4693 11.5786 13.2848C11.7463 13.1188 11.9519 12.8523 12.1387 12.6361C12.3248 12.4199 12.3869 12.2656 12.5114 12.0186C12.636 11.7714 12.5736 11.5551 12.4804 11.3699C12.3869 11.1846 11.6617 9.35312 11.3298 8.62091Z" fill="white"/>
</g>
<defs>
<clipPath id="clip0_1_3187">
<rect width="30" height="30" fill="white"/>
</clipPath>
</defs>
</svg>
