<svg width="16" height="16" viewBox="0 0 16 16" fill="none" xmlns="http://www.w3.org/2000/svg">
<path d="M14.189 5.51714L10.2218 4.94058L8.44834 1.34527C8.39991 1.24683 8.32022 1.16714 8.22178 1.11871C7.97491 0.996832 7.67491 1.09839 7.55147 1.34527L5.77803 4.94058L1.81084 5.51714C1.70147 5.53277 1.60147 5.58433 1.52491 5.66246C1.43235 5.75759 1.38134 5.88558 1.3831 6.0183C1.38486 6.15103 1.43924 6.27762 1.53428 6.37027L4.40459 9.16871L3.72647 13.1203C3.71057 13.2122 3.72074 13.3067 3.75583 13.3932C3.79093 13.4796 3.84953 13.5545 3.92501 13.6093C4.00049 13.6641 4.08982 13.6967 4.18288 13.7033C4.27593 13.71 4.36898 13.6904 4.45147 13.6468L7.99991 11.7812L11.5483 13.6468C11.6452 13.6984 11.7577 13.7156 11.8655 13.6968C12.1374 13.65 12.3202 13.3921 12.2733 13.1203L11.5952 9.16871L14.4655 6.37027C14.5437 6.29371 14.5952 6.19371 14.6108 6.08433C14.653 5.81089 14.4624 5.55777 14.189 5.51714Z" fill="#FEA250"/>
</svg>
