<svg width="23" height="25" viewBox="0 0 23 25" fill="none" xmlns="http://www.w3.org/2000/svg">
<path d="M4.79175 11.3572H16.1576L12.6788 6.99721C12.5162 6.79299 12.4379 6.52971 12.4613 6.26529C12.4846 6.00086 12.6077 5.75695 12.8034 5.58721C12.9991 5.41747 13.2514 5.33581 13.5048 5.36019C13.7583 5.38457 13.992 5.51299 14.1547 5.71721L18.9463 11.7172C18.9786 11.7649 19.0074 11.8151 19.0326 11.8672C19.0326 11.9172 19.0326 11.9472 19.0997 11.9972C19.1431 12.1119 19.1658 12.2339 19.1667 12.3572C19.1658 12.4805 19.1431 12.6026 19.0997 12.7172C19.0997 12.7672 19.0997 12.7972 19.0326 12.8472C19.0074 12.8994 18.9786 12.9495 18.9463 12.9972L14.1547 18.9972C14.0646 19.1101 13.9517 19.2009 13.8242 19.2631C13.6966 19.3253 13.5575 19.3574 13.4167 19.3572C13.1928 19.3577 12.9758 19.2763 12.8034 19.1272C12.7064 19.0433 12.6262 18.9402 12.5674 18.8238C12.5086 18.7075 12.4723 18.5802 12.4608 18.4492C12.4492 18.3182 12.4625 18.1861 12.4999 18.0605C12.5373 17.9349 12.5981 17.8183 12.6788 17.7172L16.1576 13.3572H4.79175C4.53758 13.3572 4.29383 13.2519 4.1141 13.0643C3.93438 12.8768 3.83342 12.6224 3.83342 12.3572C3.83342 12.092 3.93438 11.8376 4.1141 11.6501C4.29383 11.4626 4.53758 11.3572 4.79175 11.3572Z" fill="#F53838"/>
</svg>
