<svg width="19" height="19" viewBox="0 0 19 19" fill="none" xmlns="http://www.w3.org/2000/svg">
<path d="M4.16933 9.04452H12.9584L10.2683 5.81345C10.1426 5.66211 10.082 5.467 10.1001 5.27105C10.1182 5.07509 10.2133 4.89433 10.3647 4.76854C10.516 4.64275 10.7111 4.58224 10.9071 4.6003C11.1031 4.61837 11.2838 4.71354 11.4096 4.86488L15.115 9.31131C15.1399 9.34668 15.1622 9.38383 15.1817 9.42247C15.1817 9.45952 15.1817 9.48176 15.2335 9.51881C15.2671 9.60378 15.2847 9.69423 15.2854 9.78559C15.2847 9.87696 15.2671 9.96741 15.2335 10.0524C15.2335 10.0894 15.2335 10.1117 15.1817 10.1487C15.1622 10.1874 15.1399 10.2245 15.115 10.2599L11.4096 14.7063C11.3399 14.79 11.2527 14.8572 11.154 14.9033C11.0554 14.9495 10.9478 14.9733 10.839 14.9731C10.6658 14.9734 10.498 14.9131 10.3647 14.8026C10.2896 14.7404 10.2276 14.664 10.1822 14.5778C10.1367 14.4916 10.1087 14.3972 10.0997 14.3002C10.0908 14.2031 10.1011 14.1052 10.13 14.0122C10.1589 13.9191 10.2059 13.8326 10.2683 13.7577L12.9584 10.5267H4.16933C3.97279 10.5267 3.78429 10.4486 3.64532 10.3096C3.50634 10.1706 3.42826 9.98214 3.42826 9.78559C3.42826 9.58905 3.50634 9.40056 3.64532 9.26158C3.78429 9.1226 3.97279 9.04452 4.16933 9.04452Z" fill="white"/>
</svg>
