<svg width="25" height="25" viewBox="0 0 25 25" fill="none" xmlns="http://www.w3.org/2000/svg">
<path d="M19.1695 11.384H7.62718L11.1599 7.14075C11.3251 6.942 11.4046 6.68577 11.3809 6.42843C11.3572 6.17109 11.2322 5.93371 11.0334 5.76851C10.8347 5.60332 10.5785 5.52385 10.3211 5.54758C10.0638 5.5713 9.82639 5.69629 9.6612 5.89503L4.79513 11.7343C4.76239 11.7808 4.73311 11.8296 4.70754 11.8803C4.70754 11.929 4.70754 11.9582 4.63941 12.0068C4.5953 12.1184 4.5722 12.2372 4.57129 12.3572C4.5722 12.4772 4.5953 12.5959 4.63941 12.7075C4.63941 12.7562 4.63941 12.7854 4.70754 12.834C4.73311 12.8848 4.76239 12.9336 4.79513 12.98L9.6612 18.8193C9.7527 18.9292 9.86729 19.0175 9.99681 19.0781C10.1263 19.1386 10.2676 19.1699 10.4106 19.1697C10.638 19.1701 10.8583 19.0909 11.0334 18.9458C11.132 18.8641 11.2134 18.7638 11.2731 18.6506C11.3329 18.5373 11.3696 18.4134 11.3814 18.286C11.3931 18.1585 11.3796 18.03 11.3416 17.9077C11.3036 17.7855 11.2419 17.6719 11.1599 17.5736L7.62718 13.3304H19.1695C19.4276 13.3304 19.6752 13.2279 19.8577 13.0453C20.0402 12.8628 20.1427 12.6153 20.1427 12.3572C20.1427 12.0991 20.0402 11.8515 19.8577 11.669C19.6752 11.4865 19.4276 11.384 19.1695 11.384Z" fill="#F53838"/>
</svg>
