<svg width="19" height="19" viewBox="0 0 19 19" fill="none" xmlns="http://www.w3.org/2000/svg">
<path d="M14.9732 9.04452H6.18414L8.87423 5.81345C9.00002 5.66211 9.06054 5.467 9.04247 5.27105C9.0244 5.07509 8.92923 4.89433 8.77789 4.76854C8.62655 4.64275 8.43144 4.58224 8.23548 4.6003C8.03952 4.61837 7.85877 4.71354 7.73298 4.86488L4.02762 9.31131C4.00269 9.34668 3.9804 9.38383 3.96093 9.42247C3.96093 9.45952 3.96093 9.48176 3.90905 9.51881C3.87546 9.60378 3.85788 9.69423 3.85718 9.78559C3.85788 9.87696 3.87546 9.96741 3.90905 10.0524C3.90905 10.0894 3.90905 10.1117 3.96093 10.1487C3.9804 10.1874 4.00269 10.2245 4.02762 10.2599L7.73298 14.7063C7.80266 14.79 7.88991 14.8572 7.98854 14.9033C8.08716 14.9495 8.19473 14.9733 8.30361 14.9731C8.47676 14.9734 8.64456 14.9131 8.77789 14.8026C8.85293 14.7404 8.91496 14.664 8.96043 14.5778C9.00589 14.4916 9.0339 14.3972 9.04285 14.3002C9.0518 14.2031 9.04151 14.1052 9.01258 14.0122C8.98364 13.9191 8.93663 13.8326 8.87423 13.7577L6.18414 10.5267H14.9732C15.1698 10.5267 15.3583 10.4486 15.4973 10.3096C15.6362 10.1706 15.7143 9.98214 15.7143 9.78559C15.7143 9.58905 15.6362 9.40056 15.4973 9.26158C15.3583 9.1226 15.1698 9.04452 14.9732 9.04452Z" fill="#F53838"/>
</svg>
