<svg width="35" height="35" viewBox="0 0 35 35" fill="none" xmlns="http://www.w3.org/2000/svg">
<g clip-path="url(#clip0_875_1484)">
<path fill-rule="evenodd" clip-rule="evenodd" d="M29.902 5.08662C26.6104 1.80811 22.235 0.00136719 17.5738 0C7.9685 0 0.151114 7.77861 0.146306 17.3428C0.144932 20.3991 0.947895 23.383 2.47346 26.0142L0 35L9.23786 32.5876C11.7834 33.9698 14.6491 34.6979 17.5656 34.6992H17.5732C27.1771 34.6992 34.9959 26.9192 35.0007 17.3551C35.0034 12.7217 33.1921 8.36309 29.9027 5.08594L29.902 5.08662ZM26.0314 23.5327C25.668 24.5451 23.9289 25.4693 23.0922 25.5931C22.3422 25.7038 21.3922 25.7503 20.3488 25.4208C19.7176 25.2212 18.9057 24.9539 17.8665 24.5082C13.4986 22.6311 10.6453 18.2533 10.4282 17.9648C10.2112 17.6764 8.65057 15.6153 8.65057 13.4818C8.65057 11.3483 9.77569 10.3011 10.1748 9.86631C10.5732 9.43154 11.045 9.32353 11.3356 9.32353C11.6261 9.32353 11.9174 9.3249 12.1708 9.33789C12.4387 9.35088 12.798 9.23604 13.151 10.0816C13.513 10.9491 14.3833 13.0826 14.4932 13.2986C14.6031 13.516 14.6752 13.7696 14.5296 14.0581C14.3833 14.3486 14.3112 14.5291 14.0914 14.78C13.8729 15.0336 13.6339 15.346 13.4381 15.5395C13.2211 15.7555 12.9944 15.9886 13.2479 16.4233C13.5013 16.8581 14.3764 18.2766 15.6698 19.4264C17.3327 20.9036 18.7367 21.3603 19.1722 21.5776C19.6077 21.795 19.8625 21.7588 20.116 21.4696C20.3708 21.1791 21.2033 20.2022 21.4946 19.7695C21.7865 19.3361 22.0763 19.4093 22.4747 19.5535C22.8745 19.6978 25.0155 20.7464 25.451 20.9638C25.8865 21.1812 26.1763 21.2892 26.2849 21.471C26.3948 21.6501 26.3948 22.5196 26.0314 23.5313V23.5327Z" fill="#01C4C8"/>
</g>
<defs>
<clipPath id="clip0_875_1484">
<rect width="35" height="35" fill="white"/>
</clipPath>
</defs>
</svg>
