<svg width="27" height="26" viewBox="0 0 27 26" fill="none" xmlns="http://www.w3.org/2000/svg">
<path fill-rule="evenodd" clip-rule="evenodd" d="M7.27808 0C3.63584 0 0.666016 2.96983 0.666016 6.61207V19.3879C0.666016 23.0302 3.63584 26 7.27808 26H20.0539C23.6962 26 26.666 23.0302 26.666 19.3879V6.61207C26.666 2.96983 23.6962 0 20.0539 0H7.27808ZM19.2819 5.77778C19.2819 4.7318 20.1224 3.89128 21.1684 3.89128C22.2144 3.89128 23.0549 4.7318 23.0549 5.77778C23.0549 6.82375 22.2144 7.66427 21.1684 7.66427C20.1224 7.66427 19.2819 6.82375 19.2819 5.77778ZM8.77219 13.0186C8.77219 15.8017 11.0322 18.0617 13.8153 18.0617C16.5983 18.0617 18.8584 15.8017 18.8584 13.0186C18.8584 10.2356 16.5983 7.97553 13.8153 7.97553C11.0322 7.97553 8.77219 10.2356 8.77219 13.0186Z" fill="white"/>
</svg>
