<svg width="29" height="25" viewBox="0 0 29 25" fill="none" xmlns="http://www.w3.org/2000/svg">
<path d="M1.12356 10.3617L26.8394 0.275666C26.8394 0.275666 28.9598 -0.646042 28.9598 0.881308L24.3906 23.9632C24.3906 23.9632 23.7579 25.5565 21.9937 24.7928L15.4766 19.8024L11.2888 23.6078C11.2888 23.6078 11.1579 23.7077 10.9717 23.7413C10.8626 23.761 10.7352 23.7581 10.6044 23.7L11.4469 16.4976C11.4469 16.4976 23.179 5.96384 23.6525 5.51612C24.127 5.0684 23.9688 4.97627 23.9688 4.97627C23.9953 4.43641 23.0998 4.97627 23.0998 4.97627L7.56235 14.8385L1.09719 12.6659C1.09719 12.6659 0.0972777 12.3103 0.00501693 11.5468C-0.0872438 10.7829 1.12356 10.3617 1.12356 10.3617Z" fill="white"/>
</svg>
