<svg width="27" height="26" viewBox="0 0 27 26" fill="none" xmlns="http://www.w3.org/2000/svg">
<path fill-rule="evenodd" clip-rule="evenodd" d="M13.666 26C11.3371 26 9.04634 25.37 7.02285 24.1674L6.48834 23.8429L1.62049 25.141L2.91859 20.2922L2.57497 19.7386C1.31506 17.696 0.666016 15.3671 0.666016 13C0.666016 5.84141 6.50743 0 13.666 0C20.8246 0 26.666 5.84141 26.666 13C26.666 20.1586 20.8437 26 13.666 26ZM16.6557 14.3828C17.2775 14.1186 17.977 14.4761 18.5211 14.8026C18.6121 14.8594 18.7145 14.9178 18.822 14.9792C19.3022 15.2531 19.8836 15.5847 19.9979 16.0928C20.0601 16.3882 20.0135 16.7147 19.8891 16.9945C19.5005 17.9427 18.5211 18.5646 17.5262 18.7511C16.6227 18.9288 15.8603 18.6691 15.0373 18.3887C14.9966 18.3748 14.9557 18.3609 14.9146 18.3469C14.1373 18.0827 13.3756 17.7096 12.6761 17.2743C11.277 16.4037 10.0645 15.2534 9.0851 13.932C8.78973 13.5279 8.50992 13.1081 8.26119 12.6729C7.91919 12.0977 7.62383 11.4914 7.46838 10.8385C7.39065 10.5742 7.35956 10.2944 7.35956 10.0146C7.34401 9.0197 7.7171 8.04034 8.49437 7.40298C8.94519 7.02989 9.59809 6.87444 10.1111 7.15426C10.5894 7.42758 10.8755 8.07335 11.1067 8.59515C11.1385 8.6669 11.1692 8.7363 11.1993 8.80207C11.4014 9.23734 11.619 9.79697 11.5413 10.2789C11.4679 10.7339 11.1312 11.1196 10.8321 11.4622C10.8144 11.4825 10.7969 11.5026 10.7795 11.5225C10.5775 11.7712 10.5464 11.9733 10.7174 12.2376C11.7278 13.9165 13.1269 15.129 14.9457 15.8597C15.1944 15.9685 15.3965 15.9374 15.552 15.7353C15.6479 15.6154 15.7437 15.4601 15.8446 15.2966C16.0709 14.9301 16.3224 14.5226 16.6557 14.3828Z" fill="white"/>
</svg>
