<svg width="104" height="121" viewBox="0 0 104 121" fill="none" xmlns="http://www.w3.org/2000/svg">
<g clip-path="url(#clip0_1414_4560)">
<path fill-rule="evenodd" clip-rule="evenodd" d="M1.40373 39.5717V80.4517L15.4315 77.6252L22.0299 59.7682L15.4219 42.3601L1.40373 39.5717ZM22.326 59.0043L16.0713 42.5129L27.5685 44.8524L22.3355 59.0043H22.326ZM1.37508 4.02975L15.1259 41.7872L1.40373 39.0179L1.37508 4.02975ZM1.92895 3.44725L31.3881 34.5202L27.7499 44.3463L15.8803 41.9495L1.92895 3.44725ZM16.0617 77.501L22.4119 60.2934L43.1623 72.0294L16.0617 77.501ZM3.05575 116.786L3.07476 116.766L44.1745 72.3636L99.1777 61.2388L3.07476 116.766L3.05575 116.777V116.786ZM0.00955849 120.062L0.0572927 0L104 60.0165L0 120.071L0.00955849 120.062ZM1.58517 117.35L15.823 78.0931L43.3055 72.5355L1.58517 117.35ZM43.7161 71.8957V48.1087L22.6315 59.7778L43.7161 71.9052V71.8957ZM44.2413 71.7906L101.374 59.9879L44.2413 48.2042V71.7906ZM28.0841 44.9575L28.0834 44.9593L22.8034 59.138L42.8662 47.9368L28.0834 44.9593L28.0746 44.9575H28.0841ZM43.3914 47.4976L31.7796 34.9404L28.256 44.4418L43.3819 47.4976H43.3914ZM1.38464 80.996L15.1927 78.1981L1.35599 115.497L1.37508 80.996H1.38464ZM31.5505 33.995L31.5588 33.9726L35.9049 22.24L2.65467 3.06528L31.5588 33.9726L31.5887 34.0046L31.5505 33.995ZM36.3728 22.5074L31.9611 34.4152L44.2222 47.6408L99.3114 58.7942L36.3728 22.5074Z" fill="white"/>
<path d="M43.7159 71.8954V48.1084L22.6313 59.7775L43.7159 71.9049V71.8954Z" fill="#E30613"/>
<path d="M28.0832 44.959L22.8032 59.1377L42.866 47.9365L28.0832 44.959Z" fill="#E30613"/>
<path d="M43.3913 47.4976L31.7795 34.9404L28.2559 44.4418L43.3818 47.4976H43.3913Z" fill="#E30613"/>
<path d="M36.3726 22.5078L31.9609 34.4156L44.222 47.6412L99.3112 58.7946L36.3726 22.5078Z" fill="#E30613"/>
<path d="M31.5589 33.9727L35.905 22.2402L2.65479 3.06543L31.5589 33.9727Z" fill="#E30613"/>
<path d="M1.92871 3.44727L31.3879 34.5202L27.7497 44.3463L15.8801 41.9495L1.92871 3.44727Z" fill="#E30613"/>
<path d="M1.375 4.0293L15.1258 41.7867L1.40365 39.0174L1.375 4.0293Z" fill="#E30613"/>
<path d="M1.40381 39.5713V80.4513L15.4316 77.6248L22.03 59.7678L15.422 42.3597L1.40381 39.5713Z" fill="#E30613"/>
<path d="M22.326 59.0041L16.0713 42.5127L27.5685 44.8522L22.3355 59.0041H22.326Z" fill="#E30613"/>
<path d="M16.0615 77.5006L22.4117 60.293L43.1621 72.029L16.0615 77.5006Z" fill="#E30613"/>
<path d="M1.58496 117.35L15.8228 78.0928L43.3053 72.5352L1.58496 117.35Z" fill="#E30613"/>
<path d="M1.38461 80.9961L15.1927 78.1982L1.35596 115.497L1.37505 80.9961H1.38461Z" fill="#E30613"/>
<path d="M44.1744 72.3641L3.07471 116.766L99.1776 61.2393L44.1744 72.3641Z" fill="#E30613"/>
<path d="M44.2412 71.7905L101.374 59.9878L44.2412 48.2041V71.7905Z" fill="#E30613"/>
</g>
<defs>
<clipPath id="clip0_1414_4560">
<rect width="104" height="121" fill="white"/>
</clipPath>
</defs>
</svg>
