<svg width="37" height="25" viewBox="0 0 37 25" fill="none" xmlns="http://www.w3.org/2000/svg">
<path fill-rule="evenodd" clip-rule="evenodd" d="M36.666 12.5292C36.666 12.5292 36.666 18.3236 35.9309 21.1177C35.5189 22.6471 34.3131 23.853 32.7837 24.2645C29.9896 25 18.8132 25 18.8132 25C18.8132 25 7.66598 25 4.84267 24.2353C3.3133 23.8238 2.10742 22.6174 1.69543 21.0881C0.959961 18.3236 0.959961 12.5 0.959961 12.5C0.959961 12.5 0.959961 6.70602 1.69543 3.91192C2.10699 2.38255 3.34251 1.14702 4.84267 0.735474C7.63677 -8.51495e-08 18.8132 0 18.8132 0C18.8132 0 29.9896 8.51495e-08 32.7837 0.764683C34.3131 1.17623 35.5189 2.38255 35.9309 3.91192C36.6956 6.70602 36.666 12.5292 36.666 12.5292ZM24.5483 12.5L15.2544 17.8528V7.14722L24.5483 12.5Z" fill="white"/>
</svg>
