<svg width="24" height="20" viewBox="0 0 24 20" fill="none" xmlns="http://www.w3.org/2000/svg">
<g clip-path="url(#clip0_701_3056)">
<path d="M23.2043 6.11426H19.3034C19.3034 6.10865 19.2971 6.10233 19.2936 6.09601L16.0573 0.490026C15.9565 0.315458 15.7905 0.188074 15.5958 0.135896C15.4011 0.0837178 15.1937 0.11102 15.0191 0.211796C14.8446 0.312573 14.7172 0.478568 14.665 0.673266C14.6128 0.867963 14.6401 1.07541 14.7409 1.24998L17.5477 6.11426H6.45085L9.2577 1.24998C9.31219 1.16348 9.34866 1.06687 9.36493 0.965939C9.38121 0.86501 9.37695 0.761835 9.35241 0.66259C9.32788 0.563345 9.28357 0.47007 9.22215 0.388349C9.16072 0.306628 9.08343 0.238142 8.99492 0.186988C8.9064 0.135835 8.80848 0.103066 8.707 0.0906449C8.60553 0.0782233 8.50259 0.0864037 8.40435 0.114696C8.30611 0.142989 8.21459 0.190813 8.13526 0.255304C8.05594 0.319795 7.99044 0.399629 7.94269 0.490026L4.70639 6.09601C4.70639 6.10233 4.70008 6.10865 4.69657 6.11426H0.795743C0.584699 6.11426 0.382298 6.1981 0.233068 6.34733C0.083837 6.49656 0 6.69896 0 6.91C0 7.12105 0.083837 7.32345 0.233068 7.47268C0.382298 7.62191 0.584699 7.70575 0.795743 7.70575H1.34448L2.68405 16.6596C2.81857 17.5576 3.27108 18.3774 3.9592 18.9699C4.64732 19.5623 5.5253 19.8879 6.43331 19.8875H17.566C18.4741 19.8881 19.3523 19.5625 20.0405 18.9701C20.7288 18.3776 21.1814 17.5577 21.3159 16.6596L22.6555 7.70575H23.2043C23.4153 7.70575 23.6177 7.62191 23.7669 7.47268C23.9162 7.32345 24 7.12105 24 6.91C24 6.69896 23.9162 6.49656 23.7669 6.34733C23.6177 6.1981 23.4153 6.11426 23.2043 6.11426ZM8.12654 15.1123C8.12654 15.3139 8.04648 15.5072 7.90396 15.6497C7.76144 15.7922 7.56814 15.8723 7.36659 15.8723C7.16503 15.8723 6.97174 15.7922 6.82922 15.6497C6.6867 15.5072 6.60663 15.3139 6.60663 15.1123V10.2354C6.60663 10.1356 6.62629 10.0368 6.66448 9.9446C6.70267 9.8524 6.75865 9.76862 6.82922 9.69805C6.89979 9.62748 6.98356 9.57151 7.07576 9.53331C7.16797 9.49512 7.26679 9.47547 7.36659 9.47547C7.46639 9.47547 7.56521 9.49512 7.65741 9.53331C7.74961 9.57151 7.83339 9.62748 7.90396 9.69805C7.97452 9.76862 8.0305 9.8524 8.06869 9.9446C8.10689 10.0368 8.12654 10.1356 8.12654 10.2354V15.1123ZM12.7578 15.1123C12.7578 15.3139 12.6778 15.5072 12.5353 15.6497C12.3927 15.7922 12.1994 15.8723 11.9979 15.8723C11.7963 15.8723 11.603 15.7922 11.4605 15.6497C11.318 15.5072 11.2379 15.3139 11.2379 15.1123V10.2354C11.2379 10.1356 11.2576 10.0368 11.2958 9.9446C11.334 9.8524 11.39 9.76862 11.4605 9.69805C11.5311 9.62748 11.6149 9.57151 11.7071 9.53331C11.7993 9.49512 11.8981 9.47547 11.9979 9.47547C12.0977 9.47547 12.1965 9.49512 12.2887 9.53331C12.3809 9.57151 12.4647 9.62748 12.5353 9.69805C12.6058 9.76862 12.6618 9.8524 12.7 9.9446C12.7382 10.0368 12.7578 10.1356 12.7578 10.2354V15.1123ZM17.3892 15.1123C17.3892 15.3139 17.3091 15.5072 17.1666 15.6497C17.0241 15.7922 16.8308 15.8723 16.6292 15.8723C16.4277 15.8723 16.2344 15.7922 16.0918 15.6497C15.9493 15.5072 15.8692 15.3139 15.8692 15.1123V10.2354C15.8692 10.0339 15.9493 9.84057 16.0918 9.69805C16.2344 9.55553 16.4277 9.47547 16.6292 9.47547C16.8308 9.47547 17.0241 9.55553 17.1666 9.69805C17.3091 9.84057 17.3892 10.0339 17.3892 10.2354V15.1123Z" fill="white"/>
</g>
<defs>
<clipPath id="clip0_701_3056">
<rect width="24" height="19.7806" fill="white" transform="translate(0 0.109695)"/>
</clipPath>
</defs>
</svg>
