<svg width="100" height="100" viewBox="0 0 100 100" fill="none" xmlns="http://www.w3.org/2000/svg">
<path d="M3.125 31.2501H43.75L46.875 37.5001H6.25L3.125 31.2501ZM7.29167 43.7501H47.9167L51.0417 50.0001H10.4167L7.29167 43.7501ZM75 77.0834C78.4583 77.0834 81.25 74.2918 81.25 70.8334C81.25 67.3751 78.4583 64.5834 75 64.5834C71.5417 64.5834 68.75 67.3751 68.75 70.8334C68.75 74.2918 71.5417 77.0834 75 77.0834ZM81.25 39.5834H70.8333V50.0001H89.4167L81.25 39.5834ZM33.3333 77.0834C36.7917 77.0834 39.5833 74.2918 39.5833 70.8334C39.5833 67.3751 36.7917 64.5834 33.3333 64.5834C29.875 64.5834 27.0833 67.3751 27.0833 70.8334C27.0833 74.2918 29.875 77.0834 33.3333 77.0834ZM83.3333 33.3334L95.8333 50.0001V70.8334H87.5C87.5 77.7501 81.9167 83.3334 75 83.3334C68.0833 83.3334 62.5 77.7501 62.5 70.8334H45.8333C45.8333 77.7501 40.2083 83.3334 33.3333 83.3334C26.4167 83.3334 20.8333 77.7501 20.8333 70.8334H12.5V56.2501H20.8333V62.5001H24C26.2917 59.9584 29.625 58.3334 33.3333 58.3334C37.0417 58.3334 40.375 59.9584 42.6667 62.5001H62.5V25.0001H12.5C12.5 20.3751 16.2083 16.6667 20.8333 16.6667H70.8333V33.3334H83.3333Z" fill="#3C3D42"/>
</svg>
