<svg width="243" height="42" viewBox="0 0 243 42" fill="none" xmlns="http://www.w3.org/2000/svg">
<g clip-path="url(#clip0_701_3001)">
<path d="M20 30.83V13.88H32.89V17.7H24.36V20.17H30.73V23.86H24.36V30.86L20 30.83Z" fill="#AFD33D"/>
<path d="M35.35 30.83V13.88H43.35C44.9601 13.7868 46.545 14.3127 47.78 15.35C48.3242 15.8105 48.7579 16.3876 49.0487 17.0385C49.3395 17.6894 49.4801 18.3974 49.46 19.11C49.4741 20.1495 49.1638 21.1675 48.5724 22.0224C47.9809 22.8773 47.1377 23.5266 46.16 23.88L51.3 30.83H46.3L41.51 24.37H39.71V30.83H35.35ZM39.71 20.83H43.08C44.27 20.83 45.02 20.23 45.02 19.24C45.02 18.25 44.27 17.59 43.08 17.59H39.71V20.83Z" fill="#AFD33D"/>
<path d="M53 30.83V13.88H65.89V17.7H57.37V20H64.15V23.68H57.37V27H66.08V30.82L53 30.83Z" fill="#AFD33D"/>
<path d="M68 29.35V24.9C68.8544 25.6303 69.8428 26.1874 70.91 26.54C72.0219 26.9784 73.2049 27.2089 74.4 27.22C76.12 27.22 76.99 26.79 76.99 25.89C76.99 25.38 76.72 25.16 76.33 24.89C75.9874 24.6964 75.621 24.5485 75.24 24.45L73.69 24L72.45 23.64L71.34 23.2C70.951 23.0586 70.576 22.8812 70.22 22.67C69.589 22.2505 69.0344 21.7263 68.58 21.12C68.1926 20.3439 67.9939 19.4874 68 18.62C68 15.35 70.59 13.54 74.66 13.54C76.6601 13.521 78.6333 14.0022 80.4 14.94V19.13C79.5452 18.639 78.6311 18.2593 77.68 18C76.7087 17.695 75.698 17.5333 74.68 17.52C73.2 17.52 72.45 17.88 72.45 18.63C72.45 18.95 72.65 19.19 73.15 19.41L73.93 19.67C74.44 19.84 75.55 20.13 76.25 20.35C77.6463 20.7569 78.9481 21.4367 80.08 22.35C80.5469 22.7774 80.913 23.3033 81.1517 23.8896C81.3903 24.4759 81.4957 25.108 81.46 25.74C81.4883 26.5145 81.3263 27.2842 80.988 27.9815C80.6498 28.6789 80.1458 29.2827 79.52 29.74C78.07 30.7872 76.3064 31.3092 74.52 31.22C72.2063 31.2803 69.93 30.6275 68 29.35Z" fill="#AFD33D"/>
<path d="M84 30.83V13.88H88.36V19.88H94.76V13.88H99.12V30.88H94.71V23.88H88.31V30.88L84 30.83Z" fill="#AFD33D"/>
<path d="M125.11 29.38V27.38C125.902 28.0217 126.794 28.5285 127.75 28.88C128.874 29.2931 130.062 29.5063 131.26 29.51C133.9 29.51 135.84 28.27 135.84 26.31C135.848 25.8335 135.721 25.3644 135.473 24.9573C135.225 24.5502 134.867 24.2217 134.44 24.01C134.128 23.8091 133.792 23.6479 133.44 23.53L132.37 23.16C132.13 23.09 131.7 22.95 131.09 22.78C130.48 22.61 129.73 22.39 129.3 22.24C128.787 22.0731 128.286 21.8727 127.8 21.64C127.336 21.4288 126.91 21.1415 126.54 20.79C125.829 20.0363 125.438 19.0361 125.45 18C125.442 17.3928 125.578 16.7922 125.847 16.248C126.117 15.7038 126.512 15.2315 127 14.87C128.256 13.9832 129.775 13.5495 131.31 13.64C133.164 13.582 134.995 14.0538 136.59 15V16.88C135.032 15.8692 133.217 15.3245 131.36 15.31C128.65 15.31 127.27 16.52 127.27 18.07C127.263 18.4598 127.36 18.8444 127.551 19.1839C127.743 19.5233 128.022 19.8051 128.36 20C128.606 20.1679 128.876 20.2993 129.16 20.39L129.98 20.7L130.98 20.99L131.98 21.28C132.68 21.5 133.24 21.67 133.65 21.82C134.158 22.0008 134.653 22.2181 135.13 22.47C135.606 22.7112 136.044 23.0212 136.43 23.39C136.815 23.7695 137.118 24.223 137.323 24.7232C137.527 25.2233 137.628 25.7597 137.62 26.3C137.645 27.0043 137.489 27.7032 137.167 28.33C136.845 28.9568 136.367 29.4904 135.78 29.88C134.474 30.787 132.909 31.2466 131.32 31.19C129.115 31.2227 126.952 30.5921 125.11 29.38Z" fill="#F0F9EF"/>
<path d="M139.88 30.88L147.44 13.88H149.11L156.69 30.88H154.8L152.7 26.21H143.81L141.75 30.88H139.88ZM144.41 24.63H152.11L148.26 16.08L144.41 24.63Z" fill="#F0F9EF"/>
<path d="M159.79 30.88V13.93H161.58V29.26H171.05V30.88H159.79Z" fill="#F0F9EF"/>
<path d="M172.57 30.88L180.13 13.88H181.8L189.38 30.88H187.49L185.39 26.21H176.5L174.44 30.88H172.57ZM177.1 24.63H184.81L181 16.08L177.1 24.63Z" fill="#F0F9EF"/>
<path d="M192.48 30.88V13.93H198C200.432 13.8151 202.813 14.6589 204.63 16.28C205.471 17.0557 206.135 18.0043 206.575 19.0607C207.015 20.1171 207.222 21.2563 207.18 22.4C207.219 23.5448 207.011 24.6845 206.571 25.742C206.131 26.7996 205.469 27.7503 204.63 28.53C202.813 30.1511 200.432 30.9949 198 30.88H192.48ZM194.27 29.26H197.81C199.831 29.3697 201.817 28.7005 203.36 27.39C204.035 26.7507 204.563 25.9727 204.909 25.1095C205.254 24.2463 205.408 23.3185 205.36 22.39C205.406 21.4618 205.251 20.5346 204.906 19.6717C204.561 18.8088 204.033 18.0305 203.36 17.39C201.811 16.0912 199.829 15.4266 197.81 15.53H194.27V29.26Z" fill="#F0F9EF"/>
<path d="M210.09 29.38V27.38C210.88 28.0238 211.772 28.5309 212.73 28.88C213.854 29.2939 215.042 29.5071 216.24 29.51C218.88 29.51 220.81 28.27 220.81 26.31C220.823 25.8325 220.698 25.3615 220.449 24.9535C220.201 24.5454 219.84 24.2178 219.41 24.01C219.1 23.8052 218.764 23.6437 218.41 23.53L217.35 23.16L216 22.77C215.25 22.55 214.65 22.38 214.21 22.23C213.698 22.0613 213.197 21.8609 212.71 21.63C212.246 21.4188 211.82 21.1315 211.45 20.78C210.763 20.0195 210.395 19.0244 210.42 18C210.415 17.3902 210.556 16.788 210.831 16.2436C211.106 15.6992 211.506 15.2282 212 14.87C213.259 13.9832 214.782 13.5496 216.32 13.64C218.163 13.5894 219.983 14.0608 221.57 15V16.88C220.007 15.8704 218.19 15.3259 216.33 15.31C213.62 15.31 212.24 16.52 212.24 18.07C212.236 18.4592 212.334 18.8426 212.526 19.1815C212.717 19.5204 212.994 19.8028 213.33 20C213.578 20.1658 213.847 20.2971 214.13 20.39L214.95 20.7L215.95 20.99L216.95 21.28C217.65 21.5 218.21 21.67 218.62 21.82C219.129 21.999 219.624 22.2163 220.1 22.47C220.579 22.7114 221.02 23.0213 221.41 23.39C221.792 23.7716 222.094 24.2255 222.298 24.7251C222.502 25.2248 222.605 25.7602 222.6 26.3C222.623 27.005 222.465 27.7042 222.141 28.3309C221.817 28.9576 221.338 29.4909 220.75 29.88C219.448 30.7869 217.886 31.2466 216.3 31.19C214.095 31.2227 211.932 30.5921 210.09 29.38Z" fill="#F0F9EF"/>
<path d="M123.33 12.51C123.305 12.4709 123.272 12.4372 123.233 12.4109C123.195 12.3847 123.152 12.3663 123.106 12.357C123.06 12.3477 123.013 12.3476 122.968 12.3567C122.922 12.3658 122.879 12.3839 122.84 12.41L119.69 14.47L122.69 11.28C122.723 11.2483 122.749 11.2102 122.767 11.1681C122.785 11.126 122.794 11.0807 122.794 11.035C122.794 10.9892 122.785 10.944 122.767 10.9019C122.749 10.8598 122.723 10.8217 122.69 10.79C122.625 10.7259 122.537 10.6899 122.445 10.6899C122.353 10.6899 122.265 10.7259 122.2 10.79L119.31 13.86L121 10.73C121.021 10.69 121.033 10.6463 121.037 10.6014C121.04 10.5566 121.035 10.5114 121.021 10.4687C121.007 10.4259 120.985 10.3863 120.955 10.3522C120.926 10.3181 120.89 10.2901 120.85 10.27C120.769 10.2271 120.674 10.2177 120.586 10.2439C120.498 10.2701 120.424 10.3297 120.38 10.41L117.38 15.89L117 16.31C116.96 16.3672 116.939 16.4352 116.939 16.505C116.939 16.5748 116.96 16.6428 117 16.7L116.68 17.29L117.3 16.88C117.35 16.8836 117.401 16.8755 117.448 16.8564C117.495 16.8374 117.536 16.8078 117.57 16.77L117.72 16.61L123.24 13C123.278 12.9739 123.311 12.9405 123.336 12.9017C123.362 12.8629 123.379 12.8194 123.387 12.7738C123.396 12.7282 123.395 12.6814 123.385 12.6361C123.375 12.5909 123.357 12.548 123.33 12.51Z" fill="#70B62C"/>
<path d="M114 16L104.61 29.65C104.594 29.7026 104.594 29.7586 104.609 29.8114C104.624 29.8642 104.653 29.9117 104.694 29.9483C104.735 29.985 104.786 30.0093 104.84 30.0184C104.894 30.0276 104.949 30.0212 105 30L118 19.62C118.266 19.4104 118.482 19.1451 118.635 18.8429C118.787 18.5407 118.871 18.2089 118.882 17.8706C118.892 17.5324 118.829 17.1959 118.695 16.8849C118.562 16.5738 118.362 16.2957 118.11 16.07L117.52 15.54C117.266 15.3211 116.969 15.1583 116.648 15.0622C116.327 14.966 115.989 14.9388 115.657 14.9822C115.325 15.0256 115.005 15.1388 114.72 15.3141C114.434 15.4895 114.189 15.7233 114 16Z" fill="#F3901C"/>
<path d="M114.67 18.19L114.09 17.66C114.053 17.6245 114.023 17.5818 114.003 17.5346C113.983 17.4873 113.972 17.4364 113.972 17.385C113.972 17.3336 113.983 17.2827 114.003 17.2354C114.023 17.1882 114.053 17.1455 114.09 17.11C114.165 17.0367 114.265 16.9957 114.37 16.9957C114.475 16.9957 114.575 17.0367 114.65 17.11L115.22 17.64C115.257 17.6755 115.287 17.7182 115.307 17.7654C115.327 17.8127 115.338 17.8636 115.338 17.915C115.338 17.9664 115.327 18.0173 115.307 18.0646C115.287 18.1118 115.257 18.1545 115.22 18.19C115.145 18.2582 115.047 18.2959 114.945 18.2959C114.843 18.2959 114.745 18.2582 114.67 18.19Z" fill="#E26122"/>
<path d="M112 22.15L111.42 21.62C111.383 21.5845 111.353 21.5418 111.333 21.4946C111.313 21.4473 111.302 21.3964 111.302 21.345C111.302 21.2936 111.313 21.2427 111.333 21.1954C111.353 21.1482 111.383 21.1055 111.42 21.07C111.495 20.9967 111.595 20.9557 111.7 20.9557C111.805 20.9557 111.905 20.9967 111.98 21.07L112.56 21.59C112.597 21.6255 112.627 21.6682 112.647 21.7154C112.667 21.7627 112.678 21.8136 112.678 21.865C112.678 21.9164 112.667 21.9673 112.647 22.0146C112.627 22.0618 112.597 22.1045 112.56 22.14C112.485 22.2124 112.386 22.2537 112.282 22.2555C112.178 22.2574 112.077 22.2197 112 22.15Z" fill="#E26122"/>
<path d="M111 24.39L110.43 23.86C110.393 23.8245 110.363 23.7818 110.343 23.7346C110.323 23.6873 110.312 23.6364 110.312 23.585C110.312 23.5336 110.323 23.4827 110.343 23.4354C110.363 23.3882 110.393 23.3455 110.43 23.31C110.505 23.2367 110.605 23.1957 110.71 23.1957C110.815 23.1957 110.915 23.2367 110.99 23.31L111.57 23.84C111.607 23.8755 111.637 23.9182 111.657 23.9654C111.677 24.0127 111.688 24.0636 111.688 24.115C111.688 24.1664 111.677 24.2173 111.657 24.2646C111.637 24.3118 111.607 24.3545 111.57 24.39C111.534 24.4291 111.489 24.4602 111.44 24.4815C111.391 24.5028 111.338 24.5138 111.285 24.5138C111.232 24.5138 111.179 24.5028 111.13 24.4815C111.081 24.4602 111.036 24.4291 111 24.39Z" fill="#E26122"/>
<path d="M108.81 25C108.737 24.9269 108.697 24.8281 108.697 24.725C108.697 24.6219 108.737 24.5231 108.81 24.45C108.885 24.3767 108.985 24.3357 109.09 24.3357C109.195 24.3357 109.295 24.3767 109.37 24.45C109.443 24.5231 109.483 24.6219 109.483 24.725C109.483 24.8281 109.443 24.9269 109.37 25C109.295 25.0733 109.195 25.1143 109.09 25.1143C108.985 25.1143 108.885 25.0733 108.81 25Z" fill="#E26122"/>
<path d="M117.2 18.35C117.127 18.2769 117.087 18.1781 117.087 18.075C117.087 17.9719 117.127 17.8731 117.2 17.8C117.275 17.7267 117.375 17.6857 117.48 17.6857C117.585 17.6857 117.685 17.7267 117.76 17.8C117.833 17.8731 117.873 17.9719 117.873 18.075C117.873 18.1781 117.833 18.2769 117.76 18.35C117.683 18.4189 117.583 18.4569 117.48 18.4569C117.377 18.4569 117.277 18.4189 117.2 18.35Z" fill="#E26122"/>
<path d="M114.48 21.19L113.32 20.19C113.283 20.1545 113.253 20.1118 113.233 20.0646C113.213 20.0173 113.202 19.9664 113.202 19.915C113.202 19.8636 113.213 19.8127 113.233 19.7654C113.253 19.7182 113.283 19.6755 113.32 19.64C113.395 19.5667 113.495 19.5257 113.6 19.5257C113.705 19.5257 113.805 19.5667 113.88 19.64L115.04 20.64C115.077 20.6755 115.107 20.7182 115.127 20.7654C115.147 20.8127 115.158 20.8636 115.158 20.915C115.158 20.9664 115.147 21.0173 115.127 21.0646C115.107 21.1118 115.077 21.1545 115.04 21.19C114.965 21.2633 114.865 21.3043 114.76 21.3043C114.655 21.3043 114.555 21.2633 114.48 21.19Z" fill="#E26122"/>
<path d="M122.19 26.72C122.182 26.6581 122.151 26.6015 122.103 26.5623C122.054 26.5231 121.992 26.5043 121.93 26.51L119.7 26.72L122.53 25.79C122.559 25.7809 122.586 25.7662 122.609 25.7466C122.632 25.7271 122.651 25.7032 122.665 25.6762C122.679 25.6493 122.688 25.6198 122.69 25.5896C122.693 25.5593 122.689 25.5289 122.68 25.5C122.659 25.4408 122.617 25.3919 122.561 25.3639C122.504 25.3359 122.44 25.3309 122.38 25.35L119.68 26.23L121.68 24.94C121.71 24.9248 121.737 24.9035 121.758 24.8773C121.779 24.8512 121.795 24.8208 121.804 24.7883C121.813 24.7557 121.815 24.7216 121.809 24.6883C121.804 24.6549 121.792 24.6231 121.773 24.5948C121.755 24.5665 121.731 24.5424 121.703 24.5241C121.674 24.5057 121.642 24.4936 121.609 24.4884C121.576 24.4832 121.542 24.4852 121.509 24.4941C121.476 24.5029 121.446 24.5186 121.42 24.54L117.86 26.82L117.5 26.93C117.453 26.9449 117.413 26.9742 117.384 27.0138C117.355 27.0534 117.34 27.1011 117.34 27.15L117 27.4H117.5C117.564 27.4256 117.636 27.4256 117.7 27.4L117.84 27.35L122 27C122.062 26.9879 122.117 26.9516 122.153 26.8992C122.188 26.8467 122.202 26.7823 122.19 26.72Z" fill="#70B62C"/>
<path d="M115.86 25.78L105.78 30.78C105.755 30.7885 105.732 30.8019 105.712 30.8193C105.692 30.8368 105.676 30.8579 105.665 30.8816C105.653 30.9053 105.646 30.931 105.645 30.9573C105.643 30.9837 105.646 31.0101 105.655 31.035C105.664 31.06 105.677 31.083 105.694 31.1028C105.712 31.1226 105.733 31.1387 105.757 31.1503C105.78 31.1619 105.806 31.1688 105.832 31.1704C105.859 31.1721 105.885 31.1685 105.91 31.16L117.05 29.25C117.275 29.2143 117.49 29.1297 117.678 29.0022C117.867 28.8747 118.026 28.7073 118.143 28.5119C118.26 28.3165 118.333 28.0978 118.357 27.8711C118.381 27.6445 118.354 27.4154 118.28 27.2L118.11 26.69C118.035 26.4727 117.914 26.2739 117.756 26.1072C117.597 25.9404 117.405 25.8095 117.192 25.7233C116.979 25.6371 116.75 25.5975 116.52 25.6073C116.29 25.6171 116.065 25.676 115.86 25.78Z" fill="#F3901C"/>
<path d="M115.72 27.79L115.55 27.29C115.537 27.2579 115.532 27.2236 115.533 27.1892C115.534 27.1548 115.543 27.121 115.558 27.0901C115.573 27.0591 115.594 27.0315 115.62 27.0092C115.647 26.9868 115.677 26.97 115.71 26.96C115.778 26.9404 115.85 26.9469 115.913 26.9785C115.976 27.01 116.025 27.0641 116.05 27.13L116.22 27.63C116.231 27.6628 116.235 27.6975 116.232 27.7319C116.23 27.7664 116.22 27.8 116.204 27.8307C116.188 27.8614 116.167 27.8887 116.14 27.9109C116.114 27.9331 116.083 27.9498 116.05 27.96C116.017 27.9708 115.983 27.975 115.948 27.9723C115.914 27.9696 115.88 27.9601 115.849 27.9443C115.819 27.9284 115.791 27.9066 115.769 27.8802C115.747 27.8537 115.73 27.823 115.72 27.79Z" fill="#E26122"/>
<path d="M111.2 29.36L111.03 28.86C111.019 28.8272 111.015 28.7925 111.018 28.7581C111.02 28.7236 111.03 28.69 111.046 28.6593C111.062 28.6286 111.083 28.6013 111.11 28.5791C111.136 28.5569 111.167 28.5402 111.2 28.53C111.233 28.5192 111.267 28.515 111.302 28.5177C111.336 28.5204 111.37 28.5299 111.401 28.5457C111.431 28.5616 111.459 28.5834 111.481 28.6098C111.503 28.6363 111.52 28.667 111.53 28.7L111.71 29.2C111.729 29.2663 111.722 29.3375 111.691 29.3989C111.659 29.4602 111.605 29.5072 111.54 29.53C111.472 29.5496 111.4 29.5431 111.337 29.5115C111.274 29.48 111.225 29.4259 111.2 29.36Z" fill="#E26122"/>
<path d="M109.42 29.81C109.408 29.7773 109.402 29.7423 109.404 29.7074C109.406 29.6724 109.416 29.6383 109.432 29.6072C109.448 29.5761 109.47 29.5487 109.497 29.5268C109.525 29.5049 109.556 29.4889 109.59 29.48C109.623 29.4676 109.658 29.4623 109.693 29.4643C109.728 29.4663 109.762 29.4756 109.793 29.4916C109.824 29.5077 109.851 29.53 109.873 29.5573C109.895 29.5846 109.911 29.6162 109.92 29.65C109.942 29.715 109.938 29.7862 109.908 29.848C109.878 29.9099 109.825 29.9573 109.76 29.98C109.692 29.9996 109.62 29.993 109.557 29.9615C109.494 29.93 109.445 29.8759 109.42 29.81Z" fill="#E26122"/>
<path d="M116.92 27.66C116.909 27.6272 116.905 27.5925 116.908 27.5581C116.91 27.5236 116.92 27.49 116.936 27.4593C116.952 27.4286 116.973 27.4013 117 27.3791C117.026 27.3569 117.057 27.3402 117.09 27.33C117.156 27.3073 117.229 27.3113 117.292 27.3412C117.356 27.371 117.405 27.4244 117.43 27.49C117.441 27.5228 117.445 27.5575 117.442 27.5919C117.44 27.6264 117.43 27.66 117.414 27.6907C117.398 27.7214 117.377 27.7487 117.35 27.7709C117.324 27.7931 117.293 27.8098 117.26 27.82C117.227 27.8326 117.192 27.8385 117.157 27.8372C117.122 27.836 117.088 27.8276 117.056 27.8126C117.024 27.7977 116.996 27.7765 116.972 27.7502C116.949 27.724 116.931 27.6933 116.92 27.66Z" fill="#E26122"/>
<path d="M112.39 28.12C112.379 28.0872 112.375 28.0525 112.378 28.0181C112.38 27.9836 112.39 27.95 112.406 27.9193C112.422 27.8886 112.443 27.8613 112.47 27.8391C112.496 27.8169 112.527 27.8002 112.56 27.79C112.628 27.7704 112.7 27.7769 112.763 27.8085C112.826 27.84 112.875 27.8941 112.9 27.96C112.911 27.9928 112.915 28.0275 112.912 28.0619C112.91 28.0964 112.9 28.13 112.884 28.1607C112.868 28.1914 112.847 28.2187 112.82 28.2409C112.794 28.2631 112.763 28.2798 112.73 28.29C112.662 28.3122 112.589 28.3068 112.525 28.275C112.461 28.2431 112.413 28.1874 112.39 28.12Z" fill="#E26122"/>
<path d="M114.41 29L114.07 28C114.059 27.9672 114.055 27.9325 114.058 27.8981C114.06 27.8636 114.07 27.83 114.086 27.7993C114.102 27.7686 114.123 27.7413 114.15 27.7191C114.176 27.6969 114.207 27.6802 114.24 27.67C114.273 27.6592 114.307 27.655 114.342 27.6577C114.376 27.6604 114.41 27.6699 114.441 27.6857C114.471 27.7016 114.499 27.7234 114.521 27.7498C114.543 27.7763 114.56 27.807 114.57 27.84L114.91 28.84C114.921 28.8728 114.925 28.9075 114.922 28.9419C114.92 28.9764 114.91 29.01 114.894 29.0407C114.878 29.0714 114.857 29.0987 114.83 29.1209C114.804 29.1431 114.773 29.1598 114.74 29.17C114.707 29.1809 114.673 29.1851 114.638 29.1824C114.604 29.1797 114.57 29.1701 114.539 29.1543C114.509 29.1384 114.481 29.1167 114.459 29.0902C114.437 29.0637 114.42 29.033 114.41 29Z" fill="#E26122"/>
<path d="M110.8 10.91C110.74 10.8761 110.669 10.8666 110.602 10.8834C110.535 10.9001 110.477 10.9418 110.44 11L109.3 12.85L110.11 10.34C110.132 10.2724 110.127 10.1987 110.095 10.135C110.063 10.0713 110.007 10.0228 109.94 10C109.907 9.98915 109.873 9.98495 109.838 9.98765C109.804 9.99035 109.77 9.99989 109.739 10.0157C109.709 10.0316 109.681 10.0533 109.659 10.0798C109.637 10.1063 109.62 10.137 109.61 10.17L108.84 12.55L108.97 10.55C108.971 10.5158 108.966 10.4818 108.954 10.4497C108.942 10.4177 108.924 10.3882 108.901 10.3632C108.878 10.3381 108.85 10.3178 108.819 10.3036C108.788 10.2893 108.754 10.2813 108.72 10.28C108.686 10.2773 108.653 10.2814 108.62 10.2921C108.588 10.3028 108.559 10.3199 108.534 10.3423C108.509 10.3648 108.488 10.3921 108.474 10.4226C108.459 10.4531 108.451 10.4863 108.45 10.52L108.21 14.52L108.08 14.92C108.066 14.9719 108.066 15.0268 108.082 15.0783C108.098 15.1297 108.129 15.1754 108.17 15.21V15.7L108.46 15.23C108.493 15.2175 108.523 15.1975 108.548 15.1715C108.572 15.1454 108.59 15.1141 108.6 15.08V14.92L110.86 11.28C110.9 11.2226 110.916 11.1519 110.905 11.0829C110.893 11.0139 110.856 10.9519 110.8 10.91Z" fill="#70B62C"/>
<path d="M106 15.63L104 27.78C103.985 27.8349 103.993 27.8934 104.02 27.9431C104.048 27.9929 104.093 28.0301 104.148 28.0469C104.202 28.0637 104.261 28.0588 104.311 28.0333C104.362 28.0078 104.401 27.9636 104.42 27.91L109.87 16.85C109.981 16.6241 110.042 16.3769 110.048 16.1253C110.054 15.8737 110.005 15.6238 109.905 15.3928C109.806 15.1618 109.657 14.9552 109.469 14.7873C109.282 14.6193 109.061 14.494 108.82 14.42L108.24 14.24C108.001 14.1718 107.751 14.1542 107.505 14.1885C107.259 14.2227 107.023 14.3081 106.812 14.439C106.601 14.5699 106.42 14.7435 106.28 14.9486C106.14 15.1537 106.045 15.3858 106 15.63Z" fill="#F3901C"/>
<path d="M108.37 17.31L107.81 17.13C107.773 17.1198 107.739 17.1022 107.709 17.0783C107.68 17.0544 107.655 17.0246 107.637 16.9909C107.62 16.9572 107.609 16.9203 107.606 16.8823C107.603 16.8443 107.608 16.8061 107.62 16.77C107.632 16.7325 107.652 16.6979 107.678 16.6681C107.704 16.6382 107.735 16.6138 107.771 16.5961C107.806 16.5785 107.844 16.568 107.884 16.5652C107.923 16.5624 107.963 16.5675 108 16.58L108.56 16.76C108.597 16.7702 108.631 16.7878 108.661 16.8117C108.69 16.8356 108.715 16.8654 108.733 16.8991C108.75 16.9328 108.761 16.9697 108.764 17.0077C108.767 17.0457 108.762 17.0839 108.75 17.12C108.738 17.1575 108.718 17.1921 108.692 17.2219C108.666 17.2518 108.635 17.2762 108.599 17.2939C108.564 17.3115 108.526 17.322 108.486 17.3248C108.447 17.3276 108.407 17.3225 108.37 17.31Z" fill="#E26122"/>
<path d="M107.17 20.5L106.61 20.32C106.573 20.3098 106.539 20.2922 106.509 20.2683C106.48 20.2444 106.455 20.2146 106.437 20.1809C106.42 20.1472 106.409 20.1103 106.406 20.0723C106.403 20.0343 106.408 19.9961 106.42 19.96C106.445 19.8866 106.498 19.8259 106.567 19.7905C106.636 19.755 106.716 19.7477 106.79 19.77L107.35 19.95C107.387 19.9602 107.421 19.9778 107.451 20.0017C107.48 20.0256 107.505 20.0554 107.523 20.0891C107.54 20.1228 107.551 20.1597 107.554 20.1977C107.557 20.2357 107.552 20.2739 107.54 20.31C107.515 20.3833 107.462 20.4441 107.393 20.4795C107.324 20.515 107.244 20.5223 107.17 20.5Z" fill="#E26122"/>
<path d="M106 22.06L105.44 21.88C105.403 21.8698 105.369 21.8522 105.339 21.8283C105.31 21.8044 105.285 21.7746 105.267 21.7409C105.25 21.7072 105.239 21.6703 105.236 21.6323C105.233 21.5943 105.238 21.5561 105.25 21.52C105.275 21.4466 105.328 21.3859 105.397 21.3505C105.466 21.315 105.546 21.3077 105.62 21.33L106.18 21.5C106.253 21.5252 106.314 21.5777 106.35 21.6467C106.385 21.7157 106.392 21.7957 106.37 21.87C106.345 21.9433 106.292 22.0041 106.223 22.0395C106.154 22.075 106.074 22.0823 106 22.06Z" fill="#E26122"/>
<path d="M105.62 23.68C105.547 23.657 105.487 23.6063 105.451 23.5389C105.416 23.4716 105.408 23.3929 105.43 23.32C105.455 23.2467 105.508 23.1859 105.577 23.1505C105.646 23.115 105.726 23.1077 105.8 23.13C105.873 23.153 105.933 23.2037 105.969 23.2711C106.004 23.3384 106.012 23.4171 105.99 23.49C105.979 23.5271 105.96 23.5615 105.935 23.5913C105.91 23.621 105.88 23.6455 105.845 23.6632C105.811 23.6809 105.773 23.6915 105.734 23.6944C105.696 23.6973 105.657 23.6924 105.62 23.68Z" fill="#E26122"/>
<path d="M107.55 15.83C107.513 15.8198 107.479 15.8022 107.449 15.7783C107.42 15.7544 107.395 15.7246 107.377 15.6909C107.36 15.6572 107.349 15.6203 107.346 15.5823C107.343 15.5443 107.348 15.5061 107.36 15.47C107.385 15.3967 107.438 15.3359 107.507 15.3005C107.576 15.265 107.656 15.2577 107.73 15.28C107.803 15.303 107.863 15.3537 107.899 15.4211C107.934 15.4884 107.942 15.5671 107.92 15.64C107.909 15.6771 107.89 15.7115 107.865 15.7413C107.84 15.771 107.81 15.7955 107.775 15.8132C107.741 15.8309 107.703 15.8415 107.664 15.8444C107.626 15.8473 107.587 15.8424 107.55 15.83Z" fill="#E26122"/>
<path d="M107.33 18.83L106.21 18.48C106.172 18.4707 106.137 18.4539 106.106 18.4307C106.074 18.4074 106.048 18.3781 106.029 18.3445C106.009 18.3109 105.996 18.2737 105.992 18.2352C105.987 18.1966 105.989 18.1574 106 18.12C106.025 18.0467 106.078 17.9859 106.147 17.9505C106.216 17.9151 106.296 17.9077 106.37 17.93L107.49 18.28C107.527 18.2902 107.561 18.3078 107.591 18.3317C107.62 18.3556 107.645 18.3854 107.663 18.4191C107.68 18.4528 107.691 18.4897 107.694 18.5277C107.697 18.5657 107.692 18.6039 107.68 18.64C107.655 18.709 107.606 18.7664 107.541 18.8015C107.477 18.8365 107.401 18.8466 107.33 18.83Z" fill="#E26122"/>
</g>
<defs>
<clipPath id="clip0_701_3001">
<rect width="202.66" height="21.17" fill="white" transform="translate(20 10)"/>
</clipPath>
</defs>
</svg>
