<svg width="24" height="20" viewBox="0 0 24 20" fill="none" xmlns="http://www.w3.org/2000/svg">
<path d="M23.9534 0.426685C23.9353 0.339969 23.8951 0.2594 23.8367 0.192812C23.7783 0.126225 23.7036 0.075884 23.62 0.0466847C23.3021 -0.0180692 22.9725 0.00497752 22.6667 0.113351C22.6667 0.113351 1.63002 7.66668 0.430017 8.50669C0.170017 8.69002 0.0966838 8.79335 0.0400171 8.91669C-0.16665 9.51335 0.480017 9.77335 0.480017 9.77335L5.90002 11.54C5.98981 11.5619 6.08356 11.5619 6.17335 11.54C7.40668 10.7634 18.58 3.70668 19.2233 3.47002C19.3267 3.44002 19.4 3.47002 19.38 3.54335C19.1233 4.45002 9.42002 13.0734 9.42002 13.0734C9.3959 13.1052 9.37576 13.1399 9.36002 13.1767L8.84002 18.5267C8.84002 18.5267 8.63002 20.1734 10.2767 18.5267C11.4367 17.3634 12.5633 16.3934 13.1233 15.92C15 17.2067 17 18.63 17.86 19.3734C18.0047 19.5144 18.1764 19.6247 18.3649 19.6975C18.5534 19.7702 18.7548 19.804 18.9567 19.7967C19.78 19.7667 20.0067 18.8634 20.0067 18.8634C20.0067 18.8634 23.84 3.44002 23.97 1.37335C23.97 1.17335 23.9967 1.04002 24 0.903351C24.0066 0.743069 23.9909 0.582649 23.9534 0.426685Z" fill="black"/>
</svg>
