<svg width="24" height="14" viewBox="0 0 24 14" fill="none" xmlns="http://www.w3.org/2000/svg">
<path d="M14.7188 0.827881C14.0537 0.827881 13.4033 0.988284 12.832 1.25919C12.6094 1.36256 12.5479 1.46949 12.5479 1.6798V13.0791C12.5479 13.3001 12.6885 13.4712 12.8643 13.4926H21.0469C22.6787 13.4926 24 11.9028 24 9.91739C24 7.93552 22.6787 6.32436 21.0469 6.32436C20.6426 6.32436 20.2588 6.42417 19.9072 6.60596C19.6729 3.36938 17.4404 0.827881 14.7188 0.827881ZM11.9443 1.66911C11.8652 1.66911 11.7949 1.70475 11.7393 1.76178C11.666 1.83307 11.6191 1.94357 11.6191 2.06477V2.10398L11.4844 10.1562L11.5518 11.6426L11.6191 13.0934C11.6221 13.3072 11.7656 13.4855 11.9443 13.4855C12.1201 13.4855 12.2666 13.3072 12.2695 13.0898L12.4131 10.1562L12.2695 2.06477C12.2666 1.92219 12.2021 1.79743 12.1084 1.72614C12.0586 1.69049 12.0029 1.66911 11.9443 1.66911ZM10.9365 2.36775C10.875 2.36775 10.8193 2.38914 10.7725 2.42835C10.6875 2.49251 10.6318 2.60657 10.6318 2.73846V2.80619L10.5176 10.1526C10.5176 10.1562 10.6318 13.1361 10.6318 13.1361V13.1468C10.6348 13.2324 10.6611 13.3072 10.7021 13.3678C10.7607 13.4498 10.8428 13.5033 10.9365 13.5033C11.0186 13.5033 11.0947 13.4605 11.1504 13.3928C11.2031 13.3251 11.2383 13.236 11.2412 13.1326L11.2529 12.8367L11.3701 10.1526L11.2412 2.7349C11.2383 2.61014 11.1826 2.49607 11.1035 2.43191C11.0537 2.38914 10.998 2.36775 10.9365 2.36775ZM7.92188 3.21967C7.79004 3.21967 7.68164 3.34799 7.67871 3.51196L7.52637 10.1526L7.67871 13.2003C7.68164 13.3643 7.79004 13.4926 7.92188 13.4926C8.05371 13.4926 8.15918 13.3643 8.16504 13.2003L8.33496 10.1526L8.16504 3.51196C8.15918 3.34799 8.05371 3.21967 7.92188 3.21967ZM8.91797 3.36581C8.77441 3.36581 8.65723 3.50483 8.6543 3.68306L8.51367 10.1526L8.6543 13.1718C8.65723 13.35 8.77441 13.489 8.91797 13.489C9.06152 13.489 9.17578 13.35 9.18164 13.1718L9.33691 10.1526L9.18164 3.68306C9.17871 3.50483 9.06152 3.36581 8.91797 3.36581ZM6.93164 3.46206C6.81152 3.46206 6.71484 3.57969 6.70898 3.7294L6.54492 10.1526L6.70898 13.2217C6.71484 13.3714 6.81152 13.489 6.93164 13.489C7.05176 13.489 7.14844 13.3714 7.1543 13.2181L7.33887 10.1526L7.1543 3.7294C7.14844 3.57969 7.05176 3.46206 6.93164 3.46206ZM9.92285 3.57612C9.76758 3.57612 9.6416 3.72583 9.63867 3.91831L9.5127 10.1526L9.63867 13.154C9.6416 13.3429 9.76465 13.4962 9.92285 13.4962C10.0781 13.4962 10.2041 13.3429 10.207 13.1504L10.3506 10.1526L10.207 3.91831C10.2041 3.72583 10.0781 3.57612 9.92285 3.57612ZM5.93555 3.99673C5.82715 3.99673 5.73633 4.10367 5.7334 4.23912L5.55762 10.1669L5.7334 13.268C5.73633 13.4035 5.82715 13.5104 5.93555 13.5104C6.04395 13.5104 6.13184 13.4035 6.1377 13.268L6.33691 10.1705L6.1377 4.23912C6.13184 4.10367 6.04395 3.99673 5.93555 3.99673ZM4.97754 5.10886C4.88086 5.10886 4.79883 5.2051 4.7959 5.3263L4.6084 10.1526L4.7959 13.268C4.80176 13.3892 4.88086 13.489 4.97754 13.489C5.07422 13.489 5.15332 13.3892 5.15918 13.268L5.37012 10.1526L5.15918 5.3263C5.15332 5.2051 5.07422 5.10886 4.97754 5.10886ZM3.05273 6.78418C2.97949 6.78418 2.91797 6.85547 2.91211 6.95528L2.70117 10.1491L2.91211 13.2431C2.91797 13.3393 2.97949 13.4106 3.05273 13.4106C3.12598 13.4106 3.1875 13.3393 3.19336 13.2431L3.43359 10.1491L3.19336 6.95172C3.1875 6.85547 3.12598 6.78418 3.05273 6.78418ZM2.10352 6.89468C2.03906 6.89468 1.98926 6.95528 1.9834 7.03726L1.75781 10.1491L1.9834 13.1468C1.98926 13.2288 2.03906 13.2894 2.10352 13.2894C2.16504 13.2894 2.21484 13.2288 2.22363 13.1468L2.47559 10.1491L2.22363 7.03726C2.21484 6.95528 2.16504 6.89468 2.10352 6.89468ZM4.01074 6.99093C3.92578 6.99093 3.85547 7.07291 3.84961 7.18341L3.65039 10.1491L3.84961 13.268C3.85547 13.3785 3.92578 13.4605 4.01074 13.4605C4.0957 13.4605 4.16602 13.3785 4.17188 13.268L4.39746 10.1491L4.17188 7.18341C4.16602 7.07291 4.0957 6.99093 4.01074 6.99093ZM1.16016 7.40797C1.10742 7.40797 1.06641 7.45788 1.05762 7.5256L0.823242 10.1491L1.05762 12.712C1.06641 12.7833 1.10742 12.8332 1.16016 12.8332C1.20996 12.8332 1.25098 12.7833 1.25977 12.7155L1.52637 10.1491L1.25977 7.5256C1.25098 7.45788 1.20996 7.40797 1.16016 7.40797ZM0.272461 8.41317C0.222656 8.41317 0.181641 8.45951 0.175781 8.52723L0 10.1491L0.175781 11.7424C0.181641 11.8101 0.222656 11.8565 0.272461 11.8565C0.319336 11.8565 0.360352 11.8101 0.366211 11.746L0.574219 10.1491L0.366211 8.52723C0.360352 8.45951 0.319336 8.41317 0.272461 8.41317Z" fill="#CCCCCC"/>
</svg>
