<svg width="55" height="56" viewBox="0 0 55 56" fill="none" xmlns="http://www.w3.org/2000/svg">
<rect y="0.0493164" width="55" height="55" rx="27.5" fill="#FFECEC"/>
<g clip-path="url(#clip0)">
<path d="M27.1117 29.3805C26.7983 28.6125 26.625 27.7359 26.625 26.7656C26.625 25.7953 26.7983 24.8211 27.1117 23.907C27.4246 22.9922 27.8776 22.1367 28.4379 21.4031C28.9976 20.6703 29.6644 20.057 30.4042 19.6289C31.1446 19.1984 31.9586 18.9531 32.8125 18.9531C33.6664 18.9531 34.4804 19.15 35.2208 19.5055C35.9613 19.8617 36.6274 20.3766 37.1871 21.0125C37.746 21.6484 38.2004 22.4063 38.5133 23.2477C38.8274 24.0883 39 25.0141 39 25.9844C39 26.9547 38.8267 27.8805 38.5133 28.7211C38.2004 29.5625 37.7474 30.3203 37.1871 30.9563C36.6281 31.5922 28.7404 39.6906 28 40.0469C27.2596 39.6906 19.3719 31.5922 18.8122 30.9563C18.2526 30.3203 17.7996 29.5625 17.4861 28.7211C17.1733 27.8805 17 26.9547 17 25.9844C17 25.0141 17.1733 24.0883 17.4861 23.2477C17.7996 22.4063 18.2519 21.6484 18.8122 21.0125C19.3719 20.3766 20.0388 19.8617 20.7792 19.5055C21.5189 19.15 22.3329 18.9531 23.1875 18.9531C24.0421 18.9531 24.8561 19.1984 25.5958 19.6273C26.3363 20.057 27.0024 20.6695 27.5627 21.4023C28.1224 22.1359 28.5754 22.9914 28.8889 23.9062C29.2017 24.8211 29.375 25.7953 29.375 26.7656C29.375 27.7359 29.2017 28.6125 28.8889 29.3805C28.5754 30.1484 28.1238 30.8086 27.5627 31.3477" fill="#F53838"/>
</g>
<defs>
<clipPath id="clip0">
<rect width="24" height="24" fill="white" transform="translate(15.5 15.5493)"/>
</clipPath>
</defs>
</svg>
