<svg width="16" height="15" viewBox="0 0 16 15" fill="none" xmlns="http://www.w3.org/2000/svg">
<path d="M18 1.83374C17.3379 2.1145 16.626 2.30542 15.8789 2.38965C16.6406 1.95166 17.2266 1.25818 17.502 0.432739C16.79 0.837036 15.999 1.13184 15.1582 1.29187C14.4844 0.604003 13.5234 0.171631 12.4629 0.171631C10.4238 0.171631 8.76855 1.75793 8.76855 3.71204C8.76855 3.98999 8.80078 4.25952 8.86524 4.51782C5.79492 4.37183 3.07324 2.9624 1.25391 0.82019C0.93457 1.34241 0.752929 1.95166 0.752929 2.60022C0.752929 3.82715 1.40332 4.91089 2.39648 5.54541C1.79004 5.52576 1.22168 5.36853 0.723633 5.10181C0.723633 5.11865 0.723633 5.13269 0.723633 5.14673C0.723633 6.86218 1.99512 8.29407 3.68555 8.61694C3.375 8.69836 3.0498 8.74329 2.71289 8.74329C2.47559 8.74329 2.24121 8.72082 2.01855 8.67871C2.4873 10.0853 3.85254 11.1073 5.4668 11.1382C4.2041 12.0872 2.61035 12.6515 0.881836 12.6515C0.583008 12.6515 0.290039 12.6346 0 12.601C1.63477 13.6061 3.57422 14.1929 5.66016 14.1929C12.4541 14.1929 16.1689 8.79944 16.1689 4.12195C16.1689 3.97034 16.1631 3.81592 16.1572 3.66431C16.8779 3.16455 17.5049 2.54126 18 1.83374Z" fill="#CCCCCC"/>
</svg>
