<svg width="55" height="56" viewBox="0 0 55 56" fill="none" xmlns="http://www.w3.org/2000/svg">
<rect y="0.0493164" width="55" height="55" rx="27.5" fill="#FFECEC"/>
<g clip-path="url(#clip0)">
<path d="M32.5 22.4999C32.5 24.7091 30.7091 26.4999 28.5 26.4999C26.2909 26.4999 24.5 24.7091 24.5 22.4999C24.5 20.2908 26.2909 18.4999 28.5 18.4999C30.7091 18.4999 32.5 20.2908 32.5 22.4999Z" fill="#F53838"/>
<circle cx="27.5" cy="35" r="4" fill="#F53838"/>
<ellipse cx="23.5" cy="35.5" rx="4" ry="3.5" fill="#F53838"/>
<ellipse cx="31.5" cy="35.5" rx="4" ry="4.5" fill="#F53838"/>
<path d="M28 27.9999C31.0327 27.9999 33.5 25.5326 33.5 22.4999C33.5 19.4671 31.0327 16.9999 28 16.9999C24.9673 16.9999 22.5 19.4672 22.5 22.4999C22.5 25.5327 24.9673 27.9999 28 27.9999ZM28 19.1428C29.8511 19.1428 31.3572 20.6488 31.3572 22.4999C31.3572 24.3511 29.8512 25.8571 28 25.8571C26.1488 25.8571 24.6429 24.351 24.6429 22.4999C24.6429 20.6488 26.1488 19.1428 28 19.1428Z" fill="#F53838"/>
<path d="M27.9268 29.4575C22.7289 29.4575 18.5 33.6864 18.5 38.8844V40H37.3537V38.8844C37.3537 33.6864 33.1248 29.4575 27.9268 29.4575ZM20.8175 37.7688C21.3551 34.3287 24.3383 31.6887 27.9268 31.6887C31.5152 31.6887 34.4985 34.3287 35.0361 37.7688H20.8175Z" fill="#F53838"/>
</g>
<defs>
<clipPath id="clip0">
<rect width="23" height="23" fill="white" transform="translate(15.5 17)"/>
</clipPath>
</defs>
</svg>
