<svg width="55" height="56" viewBox="0 0 55 56" fill="none" xmlns="http://www.w3.org/2000/svg">
<rect y="0.0493164" width="55" height="55" rx="27.5" fill="#FFECEC"/>
<g clip-path="url(#clip0)">
<g clip-path="url(#clip1)">
<path d="M27.5001 25.3636C25.7699 25.3636 24.3638 26.7698 24.3638 28.5C24.3638 30.2303 25.7699 31.6364 27.5001 31.6364C29.2304 31.6364 30.6365 30.2303 30.6365 28.5C30.6365 26.7698 29.2303 25.3636 27.5001 25.3636Z" fill="#F53838"/>
<path d="M27.5 20.6591C22.2727 20.6591 17.8087 23.9105 16 28.5C17.8087 33.0896 22.2727 36.3409 27.5 36.3409C32.7325 36.3409 37.1914 33.0896 39 28.5C37.1914 23.9105 32.7325 20.6591 27.5 20.6591ZM27.5 33.7273C24.6146 33.7273 22.2727 31.3854 22.2727 28.5C22.2727 25.6145 24.6146 23.2727 27.5 23.2727C30.3855 23.2727 32.7273 25.6146 32.7273 28.5C32.7273 31.3855 30.3855 33.7273 27.5 33.7273Z" fill="#F53838"/>
</g>
</g>
<defs>
<clipPath id="clip0">
<rect width="24" height="24" fill="white" transform="translate(15.5 15.5493)"/>
</clipPath>
<clipPath id="clip1">
<rect width="23" height="23" fill="white" transform="translate(16 17)"/>
</clipPath>
</defs>
</svg>
