<svg width="82" height="65" viewBox="0 0 82 65" fill="none" xmlns="http://www.w3.org/2000/svg">
<g id="noun-goal-5762888">
<path id="Vector" d="M77.9413 30.4018H73.1361L74.7836 27.8362C74.8844 27.6794 74.9412 27.4984 74.9479 27.3122C74.9547 27.1259 74.9111 26.9413 74.8219 26.7777C74.7327 26.614 74.601 26.4775 74.4408 26.3822C74.2806 26.2871 74.0977 26.2367 73.9113 26.2366H64.8363C64.6677 26.2364 64.5017 26.2773 64.3525 26.3557C64.2034 26.4342 64.0756 26.5479 63.9803 26.6869L61.43 30.4018H56.5844C56.3124 23.4107 53.309 16.8052 48.2196 12.0045C43.1302 7.2037 36.3609 4.59067 29.3658 4.72674C22.3708 4.86281 15.7081 7.73712 10.8093 12.7322C5.91045 17.7272 3.16626 24.4445 3.16626 31.4409C3.16626 38.4373 5.91045 45.1545 10.8093 50.1496C15.7081 55.1446 22.3708 58.019 29.3658 58.155C36.3609 58.2911 43.1302 55.6781 48.2196 50.8773C53.309 46.0765 56.3124 39.4711 56.5844 32.48H61.4289L63.9803 36.1948C64.0756 36.3339 64.2034 36.4476 64.3525 36.526C64.5017 36.6045 64.6677 36.6454 64.8363 36.6452H73.9091C74.0965 36.6456 74.2806 36.5953 74.4418 36.4996C74.6029 36.4039 74.7352 36.2664 74.8246 36.1017C74.914 35.937 74.9572 35.7512 74.9496 35.5639C74.942 35.3766 74.8839 35.1949 74.7814 35.038L73.1077 32.48H77.9413C78.0777 32.48 78.2129 32.4531 78.3389 32.4009C78.465 32.3487 78.5795 32.2721 78.676 32.1756C78.7725 32.0792 78.8491 31.9646 78.9013 31.8385C78.9535 31.7125 78.9804 31.5773 78.9804 31.4409C78.9804 31.3044 78.9535 31.1693 78.9013 31.0432C78.8491 30.9172 78.7725 30.8026 78.676 30.7061C78.5795 30.6096 78.465 30.5331 78.3389 30.4809C78.2129 30.4286 78.0777 30.4018 77.9413 30.4018ZM65.388 28.3137H72.0119L70.6719 30.4018H63.9498L65.388 28.3137ZM29.8805 56.0829C25.0513 56.0819 20.3288 54.6618 16.2998 51.9992C12.2709 49.3366 9.11311 45.5489 7.21884 41.1067C5.32457 36.6645 4.77733 31.7636 5.6451 27.0129C6.51288 22.2623 8.75742 17.8713 12.0998 14.3856C15.4423 10.9 19.7352 8.47323 24.4453 7.40697C29.1553 6.3407 34.0749 6.68191 38.5927 8.38819C43.1104 10.0945 47.0273 13.0906 49.8565 17.0043C52.6857 20.918 54.3026 25.5768 54.5062 30.4018H47.2488C46.9786 25.8793 44.9573 21.64 41.6136 18.583C38.2699 15.526 33.8668 13.8917 29.3383 14.0269C24.8098 14.1621 20.5121 16.056 17.3567 19.307C14.2012 22.558 12.4364 26.9104 12.4364 31.4409C12.4364 35.9714 14.2012 40.3237 17.3567 43.5747C20.5121 46.8257 24.8098 48.7197 29.3383 48.8548C33.8668 48.99 38.2699 47.3558 41.6136 44.2988C44.9573 41.2418 46.9786 37.0024 47.2488 32.48H54.5062C54.2305 38.8282 51.5162 44.8253 46.9289 49.2222C42.3415 53.619 36.2347 56.0766 29.8805 56.0829ZM37.9328 30.4018C37.6687 28.3545 36.6351 26.4845 35.042 25.1718C33.4489 23.8591 31.4158 23.2021 29.3557 23.3344C27.2957 23.4667 25.3633 24.3783 23.9512 25.8841C22.5391 27.3898 21.7532 29.3766 21.7532 31.4409C21.7532 33.5052 22.5391 35.492 23.9512 36.9977C25.3633 38.5034 27.2957 39.415 29.3557 39.5473C31.4158 39.6796 33.4489 39.0227 35.042 37.71C36.6351 36.3973 37.6687 34.5273 37.9328 32.48H45.1695C44.9 36.4502 43.0986 40.1604 40.1454 42.8276C37.1923 45.4948 33.3184 46.9104 29.3414 46.7756C25.3643 46.6408 21.5952 44.9661 18.8295 42.105C16.0637 39.2439 14.5177 35.4202 14.5177 31.4409C14.5177 27.4615 16.0637 23.6379 18.8295 20.7768C21.5952 17.9157 25.3643 16.241 29.3414 16.1062C33.3184 15.9714 37.1923 17.3869 40.1454 20.0541C43.0986 22.7214 44.9 26.4316 45.1695 30.4018H37.9328ZM29.8805 32.48H35.8317C35.5716 33.9707 34.762 35.3097 33.5627 36.2325C32.3634 37.1553 30.8617 37.5949 29.3541 37.4644C27.8465 37.3339 26.4427 36.6427 25.4199 35.5275C24.397 34.4123 23.8296 32.9541 23.8296 31.4409C23.8296 29.9277 24.397 28.4694 25.4199 27.3542C26.4427 26.239 27.8465 25.5479 29.3541 25.4174C30.8617 25.2869 32.3634 25.7264 33.5627 26.6492C34.762 27.5721 35.5716 28.9111 35.8317 30.4018H29.8805C29.6049 30.4018 29.3406 30.5112 29.1457 30.7061C28.9509 30.901 28.8414 31.1653 28.8414 31.4409C28.8414 31.7165 28.9509 31.9808 29.1457 32.1756C29.3406 32.3705 29.6049 32.48 29.8805 32.48ZM71.989 34.568H65.388L63.9542 32.48H70.6217L71.989 34.568Z" fill="#5989FF"/>
</g>
</svg>
