<svg width="36" height="30" viewBox="0 0 36 30" fill="none" xmlns="http://www.w3.org/2000/svg">
<path id="Arrow 1" d="M2 12.9883C0.895431 12.9883 1.19209e-07 13.8837 1.19209e-07 14.9883C1.19209e-07 16.0929 0.895431 16.9883 2 16.9883V12.9883ZM35.4142 16.4025C36.1953 15.6214 36.1953 14.3551 35.4142 13.5741L22.6863 0.846147C21.9052 0.0650978 20.6389 0.0650978 19.8579 0.846147C19.0768 1.6272 19.0768 2.89353 19.8579 3.67457L31.1716 14.9883L19.8579 26.302C19.0768 27.083 19.0768 28.3494 19.8579 29.1304C20.6389 29.9115 21.9052 29.9115 22.6863 29.1304L35.4142 16.4025ZM2 16.9883H34V12.9883L2 12.9883V16.9883Z" fill="#5989FF"/>
</svg>
