<?xml version="1.0" standalone="no"?>
<!DOCTYPE svg PUBLIC "-//W3C//DTD SVG 20010904//EN"
 "http://www.w3.org/TR/2001/REC-SVG-20010904/DTD/svg10.dtd">
<svg version="1.0" xmlns="http://www.w3.org/2000/svg"
 width="1603.000000pt" height="1072.000000pt" viewBox="0 0 1603.000000 1072.000000"
 preserveAspectRatio="xMidYMid meet">

<g transform="translate(0.000000,1072.000000) scale(0.100000,-0.100000)"
fill="#000000" stroke="none">
<path d="M3730 10300 c-192 -21 -452 -87 -632 -159 -157 -62 -403 -197 -444
-243 -13 -13 -23 -56 -34 -136 -9 -64 -16 -118 -15 -120 1 -1 80 16 176 38
466 110 1222 245 1639 291 52 6 97 13 99 15 9 9 -30 239 -43 252 -46 46 -523
86 -746 62z"/>
<path d="M11881 10300 c-159 -17 -294 -43 -311 -60 -11 -11 -22 -49 -29 -101
-7 -46 -15 -100 -18 -120 l-5 -36 143 -17 c454 -53 1290 -204 1652 -297 66
-17 121 -29 123 -26 6 6 -27 230 -37 248 -11 22 -220 147 -324 195 -200 91
-410 156 -630 194 -137 24 -429 34 -564 20z"/>
<path d="M10880 9713 c-1 -123 5 -95 -310 -1563 -59 -278 -117 -530 -129 -561
-81 -213 -251 -371 -486 -450 l-70 -24 -1830 -3 c-2043 -3 -1912 -7 -2070 67
-179 85 -310 223 -380 402 -14 34 -63 243 -111 463 -259 1214 -316 1491 -326
1588 -12 106 -12 106 -30 83 -10 -13 -30 -48 -43 -78 -23 -49 -25 -63 -21
-168 4 -99 21 -194 135 -729 153 -725 169 -810 180 -971 20 -291 -30 -488
-184 -724 -76 -117 -166 -230 -411 -515 -226 -262 -315 -374 -399 -495 -27
-38 -63 -90 -80 -115 -39 -56 -121 -191 -262 -435 -399 -686 -769 -1457 -1098
-2290 -169 -427 -255 -673 -535 -1530 -122 -372 -199 -543 -282 -626 -26 -26
-63 -53 -83 -60 -19 -7 -35 -16 -35 -19 0 -6 509 -96 693 -123 69 -10 82 -9
108 5 33 19 37 14 12 -16 l-17 -21 20 20 c27 27 47 74 160 385 113 311 148
405 162 441 6 15 8 30 5 33 -4 3 0 6 7 6 7 0 10 3 7 7 -4 3 0 16 8 29 8 12 16
34 19 48 3 14 8 31 13 38 4 7 8 18 9 23 3 16 135 343 213 527 209 493 396 874
559 1138 348 565 763 770 1335 661 83 -16 174 -32 201 -36 90 -12 4934 -8
5011 5 39 6 130 22 204 37 118 22 152 25 275 20 163 -6 258 -27 394 -85 468
-202 784 -716 1423 -2314 55 -137 96 -254 93 -260 -4 -6 -3 -8 3 -5 6 4 13 -1
16 -11 2 -9 8 -26 12 -37 l8 -20 -16 20 c-31 38 110 -345 184 -502 51 -107 82
-143 122 -143 47 0 751 121 762 131 5 6 2 9 -8 9 -10 0 -34 11 -55 24 -130 82
-205 244 -405 871 -318 994 -598 1707 -1020 2591 -207 436 -431 845 -675 1236
-214 343 -364 545 -664 895 -362 422 -458 572 -525 813 -25 93 -25 401 0 555
10 61 81 405 157 765 150 708 157 742 142 721 -7 -9 -8 8 -5 52 7 87 -1 123
-42 192 -40 66 -40 83 0 31 39 -51 67 -150 61 -211 l-5 -50 14 60 c8 33 12 77
9 97 -7 46 -52 118 -93 147 l-31 22 0 -68z m-2764 -2730 c36 -12 63 -27 75
-44 l19 -26 -91 -8 c-86 -6 -328 3 -301 12 6 3 10 8 7 13 -10 15 24 38 67 45
24 4 50 11 58 16 25 14 106 10 166 -8z m-81 -949 c50 -14 101 -32 115 -41 15
-8 17 -11 5 -7 -11 4 -65 20 -120 36 -116 33 -125 36 -105 37 9 1 56 -11 105
-25z m220 -164 c5 -36 1 -29 -16 25 -6 20 -6 26 1 19 5 -5 12 -25 15 -44z
m-390 -199 c-13 -11 -77 -32 -82 -27 -2 2 15 11 39 19 53 19 54 19 43 8z m540
-51 c42 -16 28 -19 -22 -4 -25 8 -64 14 -85 14 -22 0 -37 4 -34 9 6 9 100 -3
141 -19z m-665 6 c0 -6 -93 -37 -97 -32 -2 2 15 11 39 19 47 17 58 19 58 13z"/>
<path d="M5102 9726 c-25 -27 -46 -64 -55 -93 -14 -45 -13 -57 3 -124 20 -84
25 -81 9 5 -7 42 -7 62 0 69 6 6 11 18 11 27 0 24 46 116 69 139 12 12 17 21
12 21 -5 0 -27 -20 -49 -44z"/>
<path d="M4560 9451 c-42 -22 -77 -70 -86 -118 -7 -39 58 -378 82 -424 35 -69
123 -108 196 -88 53 14 112 72 127 124 10 38 -2 118 -59 370 -14 65 -50 118
-93 138 -47 23 -124 22 -167 -2z m157 -8 c58 -27 77 -71 118 -269 44 -211 43
-238 -14 -295 -61 -62 -151 -65 -216 -8 -41 36 -50 63 -95 286 l-33 161 24 49
c43 86 130 117 216 76z"/>
<path d="M11310 9448 c-59 -41 -71 -68 -111 -255 -44 -199 -46 -230 -23 -276
36 -71 83 -100 160 -100 62 0 113 28 143 77 24 39 91 344 91 415 0 56 -27 103
-79 138 -47 32 -135 32 -181 1z m171 -11 c45 -30 79 -83 79 -123 0 -35 -63
-346 -79 -385 -21 -54 -89 -99 -148 -99 -39 1 -107 33 -127 61 -39 56 -39 86
4 286 24 114 47 198 58 213 53 71 147 92 213 47z"/>
<path d="M12400 9099 c-30 -5 -86 -24 -125 -43 -167 -82 -265 -240 -265 -427
0 -136 50 -249 154 -347 97 -91 196 -126 345 -120 86 3 104 7 171 40 91 43
146 89 194 163 117 176 109 399 -21 560 -109 134 -287 202 -453 174z m171 -19
c80 -15 177 -67 237 -127 142 -142 173 -364 75 -545 -37 -69 -130 -153 -210
-191 -65 -30 -74 -32 -188 -32 -114 0 -123 2 -188 32 -123 58 -219 172 -252
298 -84 324 197 626 526 565z"/>
<path d="M3681 8793 c14 -7 15 -10 3 -21 -7 -7 -16 -12 -19 -12 -56 2 -39 -5
37 -15 112 -16 156 -34 199 -82 56 -64 58 -86 34 -363 -12 -131 -21 -185 -35
-215 -11 -22 -76 -97 -144 -167 -102 -105 -130 -128 -161 -134 -64 -12 -112
11 -184 85 -35 36 -59 57 -53 46 6 -11 29 -38 51 -60 27 -26 39 -45 36 -56 -7
-22 42 -58 89 -66 35 -5 101 11 111 28 4 5 -5 5 -20 -1 -33 -12 -102 -13 -109
-1 -3 5 16 9 42 9 67 0 99 19 184 113 40 44 92 102 116 127 55 59 70 88 81
154 5 29 10 44 11 33 5 -55 7 -66 13 -72 4 -3 7 0 7 8 0 8 7 82 15 164 27 272
20 325 -52 405 -51 57 -114 86 -203 94 -36 4 -58 3 -49 -1z m-211 -1003 c0 -5
-2 -10 -4 -10 -3 0 -8 5 -11 10 -3 6 -1 10 4 10 6 0 11 -4 11 -10z"/>
<path d="M3260 8759 c-91 -55 -140 -135 -140 -231 0 -132 31 -410 50 -448 20
-39 47 -66 56 -57 8 7 -5 29 -14 23 -4 -2 -7 7 -7 19 l0 24 22 -27 c12 -15 22
-30 23 -34 0 -5 5 -8 11 -8 6 0 0 13 -14 29 -33 40 -44 93 -62 311 -11 129
-12 195 -5 219 17 60 56 107 112 136 29 15 44 25 32 22 -12 -2 -29 0 -39 6
-16 9 -15 11 11 23 16 7 22 13 14 13 -8 1 -31 -9 -50 -20z"/>
<path d="M11350 8049 c-120 -20 -253 -111 -322 -219 -91 -143 -90 -358 2 -503
100 -157 295 -247 474 -218 276 46 460 320 391 584 -63 243 -300 398 -545 356z
m150 -20 c91 -14 181 -59 249 -124 121 -115 168 -278 126 -438 -22 -83 -50
-133 -113 -199 -222 -233 -601 -172 -740 119 -36 76 -37 81 -37 194 0 113 1
116 38 191 70 143 185 231 337 258 64 11 68 11 140 -1z"/>
<path d="M13388 8031 c-335 -107 -437 -540 -187 -791 180 -179 466 -185 650
-13 267 250 168 696 -180 803 -82 26 -205 26 -283 1z m281 -20 c164 -51 284
-191 313 -365 28 -170 -54 -349 -204 -447 -81 -52 -165 -73 -276 -67 -79 4
-100 9 -164 41 -233 115 -324 389 -207 619 47 92 156 183 264 220 69 24 196
23 274 -1z"/>
<path d="M4375 8010 l-30 -8 28 -1 c37 -1 34 -19 -5 -26 -61 -11 -216 -21
-212 -13 3 5 -3 8 -13 8 -15 0 -16 2 -3 10 28 18 -32 11 -75 -9 -51 -24 -310
-272 -336 -322 -41 -82 -19 -137 104 -256 82 -81 135 -118 67 -48 -19 19 -29
35 -24 35 6 0 23 -14 40 -31 16 -17 38 -35 49 -41 20 -11 -114 135 -148 160
-28 22 -47 68 -47 118 0 47 1 48 123 171 67 69 140 135 162 149 45 26 107 36
325 54 167 14 210 7 264 -41 57 -49 75 -100 88 -247 9 -103 9 -153 0 -228 -18
-139 -41 -183 -128 -242 -16 -10 -15 -11 6 -1 40 18 99 80 111 116 12 39 30
35 23 -5 -3 -23 -2 -24 7 -9 5 9 7 27 4 38 -5 13 -3 19 3 15 24 -14 39 236 23
370 -15 115 -35 167 -83 216 -57 56 -101 72 -203 75 -49 1 -103 -2 -120 -7z
m372 -607 c-3 -10 -5 -4 -5 12 0 17 2 24 5 18 2 -7 2 -21 0 -30z"/>
<path d="M3236 7991 c10 -10 21 -17 23 -15 6 6 -20 34 -32 34 -6 0 -2 -8 9
-19z"/>
<path d="M2918 7993 c7 -3 16 -2 19 1 4 3 -2 6 -13 5 -11 0 -14 -3 -6 -6z"/>
<path d="M2957 7968 c4 -19 3 -20 -6 -8 -8 12 -11 12 -11 1 0 -7 -6 -11 -15
-7 -8 3 -15 1 -15 -4 0 -6 15 -10 33 -10 18 0 56 -7 85 -15 43 -13 70 -34 181
-141 99 -95 134 -135 142 -164 19 -61 5 -102 -53 -159 -66 -65 -59 -75 9 -13
50 46 80 109 69 143 -2 8 -7 28 -10 44 l-6 30 16 -29 c9 -17 17 -48 17 -70 0
-38 1 -39 9 -14 19 55 -5 98 -112 204 -110 108 -133 128 -82 73 53 -58 37 -55
-33 6 -35 31 -63 62 -62 68 1 5 -9 13 -23 17 -14 3 -26 14 -28 24 -3 15 -1 16
17 6 12 -6 21 -8 21 -6 0 11 -63 37 -76 32 -9 -3 -12 -1 -9 4 4 6 -8 10 -28
10 -31 0 -35 -3 -30 -22z m90 -24 c-3 -3 -12 -4 -19 -1 -8 3 -5 6 6 6 11 1 17
-2 13 -5z"/>
<path d="M2416 7930 c-15 -18 -33 -45 -41 -60 -17 -33 -35 -137 -35 -205 l0
-50 24 40 c13 22 27 65 31 95 4 30 18 75 32 100 29 53 35 78 24 97 -6 12 -13
8 -35 -17z"/>
<path d="M3130 7902 c0 -4 10 -13 23 -21 22 -14 22 -14 3 8 -20 22 -26 25 -26
13z"/>
<path d="M3495 7411 c-58 -36 -314 -295 -330 -334 -20 -48 -51 -435 -40 -492
4 -23 10 -33 13 -25 3 8 10 18 15 22 8 4 7 18 -1 43 -9 32 -8 41 8 64 14 19
23 65 35 181 10 93 24 171 35 195 10 23 73 97 146 173 l129 132 48 0 c26 0 61
-7 76 -15 36 -18 243 -241 267 -286 15 -29 50 -259 54 -359 1 -14 4 -20 6 -13
7 16 34 5 34 -15 0 -8 2 -13 5 -10 3 3 -1 87 -9 187 -11 144 -19 191 -36 226
-22 45 -264 290 -323 326 -40 24 -93 24 -132 0z"/>
<path d="M4128 7213 c6 -2 18 -2 25 0 6 3 1 5 -13 5 -14 0 -19 -2 -12 -5z"/>
<path d="M4348 7193 c7 -3 16 -2 19 1 4 3 -2 6 -13 5 -11 0 -14 -3 -6 -6z"/>
<path d="M4080 7180 c8 -5 28 -10 44 -10 39 0 30 6 -19 13 -27 4 -35 3 -25 -3z"/>
<path d="M4418 7183 c12 -2 32 -2 45 0 12 2 2 4 -23 4 -25 0 -35 -2 -22 -4z"/>
<path d="M2898 7163 c12 -2 30 -2 40 0 9 3 -1 5 -23 4 -22 0 -30 -2 -17 -4z"/>
<path d="M4183 7163 c15 -2 37 -2 50 0 12 2 0 4 -28 4 -27 0 -38 -2 -22 -4z"/>
<path d="M4285 7160 c-12 -4 17 -10 78 -15 140 -10 190 -8 228 9 19 9 23 13 9
9 -14 -4 -41 -7 -60 -5 -106 7 -238 9 -255 2z"/>
<path d="M2658 7143 c12 -2 30 -2 40 0 9 3 -1 5 -23 4 -22 0 -30 -2 -17 -4z"/>
<path d="M12338 6981 c-116 -37 -227 -133 -280 -243 -118 -241 -12 -537 230
-645 252 -112 551 18 641 278 87 254 -52 530 -306 609 -84 26 -206 26 -285 1z
m343 -43 c121 -60 211 -169 243 -293 68 -261 -102 -522 -371 -566 -220 -36
-436 100 -503 318 -73 237 62 489 305 570 25 8 79 12 146 10 99 -2 110 -4 180
-39z"/>
<path d="M3708 6363 c7 -3 16 -2 19 1 4 3 -2 6 -13 5 -11 0 -14 -3 -6 -6z"/>
<path d="M3518 6353 c29 -2 74 -2 100 0 26 2 2 3 -53 3 -55 0 -76 -1 -47 -3z"/>
<path d="M13186 845 c4 -9 16 -21 28 -27 19 -10 19 -9 -3 16 -28 30 -33 32
-25 11z"/>
</g>
</svg>
