<svg width="140" height="99" viewBox="0 0 140 99" fill="none" xmlns="http://www.w3.org/2000/svg">
<path d="M135.248 43.7278L125.714 39.602L117.619 23.8487C115.431 19.5353 110.993 16.8472 106.148 16.8785H92.2075V12.9402C92.2075 5.81371 86.5188 0 79.3923 0H12.7535C5.627 0 0.000831669 5.84496 0.000831669 12.9402V73.2652C-0.0616813 77.6098 3.40779 81.1731 7.75244 81.2356C7.7837 81.2356 7.81495 81.2356 7.87747 81.2356H9.53406C9.53406 81.5482 9.5028 81.6732 9.5028 81.8607C9.47155 90.8001 16.6918 98.0828 25.6312 98.1141C34.5705 98.1454 41.8533 90.9251 41.8845 81.9858C41.8845 81.9232 41.8845 81.892 41.8845 81.8295C41.8845 81.6107 41.8845 81.5169 41.8533 81.2043H95.7082C95.7082 81.5169 95.7082 81.6419 95.7082 81.8295C95.6769 90.7688 102.897 98.0516 111.837 98.0828C120.776 98.1141 128.059 90.8939 128.09 81.9545C128.09 81.892 128.09 81.8607 128.09 81.7982C128.09 81.5794 128.09 81.4857 128.09 81.1731H132.122C136.467 81.1731 139.999 77.6411 139.999 73.2965C139.999 73.2652 139.999 73.2339 139.999 73.1714V50.9793C140.061 47.9162 138.186 45.0093 135.248 43.7278ZM25.7249 91.8941C20.2238 91.8941 15.7854 87.4557 15.7854 81.9545C15.7854 76.4534 20.2238 72.0149 25.7249 72.0149C31.2261 72.0149 35.6645 76.4534 35.6645 81.9545C35.6645 87.4244 31.1948 91.8941 25.7249 91.8941ZM85.9562 75.0468H40.3842C37.7587 69.3269 32.0075 65.6699 25.7249 65.7011C19.4111 65.6699 13.6912 69.2956 11.0656 75.0468H7.87747C6.90851 75.0468 6.25213 74.2967 6.25213 73.3277V57.2306H85.9562V75.0468ZM85.9562 12.9714V50.9793H6.25213V12.9714C6.25213 9.31443 9.09647 6.28255 12.7535 6.28255H79.3923C83.0493 6.31381 85.9874 9.31443 85.9562 12.9402V12.9714ZM92.2075 23.1611H106.148C108.617 23.1298 110.93 24.4738 112.087 26.693L118.338 38.7893H92.2075V23.1611ZM111.93 91.8941C106.429 91.8941 101.991 87.4557 101.991 81.9545C101.991 76.4534 106.429 72.0149 111.93 72.0149C117.431 72.0149 121.87 76.4534 121.87 81.9545C121.87 87.4244 117.431 91.8941 111.93 91.8941ZM133.779 73.3277C133.779 74.2967 133.122 75.0468 132.153 75.0468H126.59C122.808 66.9514 113.181 63.4507 105.085 67.2327C101.647 68.8268 98.8651 71.6086 97.271 75.0468H92.2075V45.0406H122.839L132.778 49.4165C133.404 49.7291 133.81 50.4167 133.779 51.1044V73.3277Z" fill="white"/>
</svg>
