<svg width="99" height="100" viewBox="0 0 99 100" fill="none" xmlns="http://www.w3.org/2000/svg">
<path d="M83.0719 62.3604C87.2505 56.0143 89.6866 48.4238 89.6866 40.2733C89.6866 18.0664 71.6194 0 49.4125 0C27.2057 0 9.13925 18.0664 9.13925 40.2733C9.13925 48.4238 11.5753 56.0143 15.7532 62.3604L0 85.3348L18.026 81.974L21.3875 100L36.2434 78.3333C40.3725 79.7661 44.8029 80.5466 49.4125 80.5466C54.023 80.5466 58.4534 79.7661 62.5816 78.3333L77.4384 100L80.7991 81.974L98.8251 85.3348L83.0719 62.3604ZM24.5728 84.9319L22.7394 75.0992L12.9074 76.9333L19.5419 67.2569C22.7196 70.771 26.5076 73.7221 30.7358 75.9453L24.5728 84.9319ZM15.033 40.2733C15.033 21.3165 30.4558 5.89371 49.4125 5.89371C68.3701 5.89371 83.7929 21.3165 83.7929 40.2733C83.7929 59.2308 68.3701 74.6536 49.4125 74.6536C30.4558 74.6536 15.033 59.2308 15.033 40.2733ZM76.0857 75.0992L74.2523 84.9319L68.0901 75.9453C72.3183 73.7221 76.1063 70.771 79.2839 67.2569L85.9184 76.9325L76.0857 75.0992Z" fill="white"/>
<path d="M42.2333 49.118L32.6508 39.5363L28.4836 43.7034L42.2333 57.4531L70.3423 29.3449L66.1751 25.1777L42.2333 49.118Z" fill="white"/>
</svg>
