<svg width="338" height="61" viewBox="0 0 338 61" fill="none" xmlns="http://www.w3.org/2000/svg">
<rect x="0.802072" y="16.4167" width="133.5" height="43.5" rx="21.75" transform="rotate(-4.13036 0.802072 16.4167)" stroke="white" stroke-width="1.5"/>
<path d="M31.888 27.4563C32.779 27.3919 33.598 27.5333 34.3449 27.8804C35.1051 28.2265 35.7168 28.7371 36.18 29.4122C36.6431 30.0873 36.9059 30.857 36.9684 31.7214C37.0634 33.038 36.6905 34.1678 35.8496 35.1108C35.0087 36.0538 33.91 36.5743 32.5535 36.6723L29.681 36.8797L30.0238 41.6273L27.7298 41.793L26.7214 27.8294L31.888 27.4563ZM32.2768 34.5066C32.6491 34.4797 32.9839 34.3953 33.2812 34.2536C33.5917 34.1108 33.8523 33.9249 34.063 33.6958C34.2737 33.4667 34.4279 33.1949 34.5255 32.8804C34.6364 32.5649 34.6794 32.2343 34.6544 31.8885C34.6208 31.4231 34.478 31.019 34.226 30.6762C33.9863 30.3192 33.6659 30.0483 33.2649 29.8633C32.8639 29.6784 32.4173 29.6037 31.9253 29.6392L29.1725 29.838L29.5239 34.7054L32.2768 34.5066ZM48.666 38.9376C47.6523 40.0803 46.321 40.7111 44.6719 40.8302C43.0229 40.9493 41.6081 40.5167 40.4275 39.5326C39.2592 38.5341 38.6164 37.2237 38.4993 35.6012C38.4225 34.5373 38.5989 33.5554 39.0285 32.6555C39.4714 31.7546 40.1145 31.033 40.9576 30.4909C41.8131 29.9345 42.7794 29.6174 43.8566 29.5396C44.9338 29.4618 45.929 29.6373 46.8423 30.0659C47.7679 30.4803 48.5079 31.102 49.0624 31.9309C49.6301 32.7588 49.9524 33.7047 50.0293 34.7686C50.1464 36.391 49.692 37.7807 48.666 38.9376ZM44.5192 38.7157C45.1975 38.6667 45.792 38.4768 46.3028 38.1458C46.8127 37.8015 47.1947 37.3528 47.4489 36.7997C47.7153 36.2324 47.8241 35.6096 47.7751 34.9314C47.7012 33.9074 47.3077 33.0869 46.5948 32.47C45.8951 31.8521 45.0333 31.5802 44.0093 31.6541C42.9853 31.7281 42.1648 32.1215 41.5479 32.8345C40.9443 33.5465 40.6795 34.4144 40.7534 35.4384C40.8274 36.4624 41.2142 37.2834 41.9138 37.9013C42.6268 38.5182 43.4952 38.7897 44.5192 38.7157ZM58.3879 33.8241C59.3725 34.3145 59.9075 35.1514 59.993 36.335C60.065 37.3324 59.7246 38.1725 58.9718 38.8551C58.219 39.5378 57.2176 39.9242 55.9675 40.0145C54.7573 40.1019 53.744 39.8609 52.9276 39.2916C52.1234 38.708 51.6497 37.8867 51.5064 36.8276L53.5211 36.6821C53.6346 37.1418 53.8937 37.4907 54.2986 37.7288C54.7034 37.9669 55.2117 38.0639 55.8235 38.0197C56.4485 37.9746 56.9438 37.7985 57.3093 37.4913C57.6738 37.1709 57.8398 36.7846 57.8071 36.3325C57.7754 35.8936 57.5766 35.547 57.2107 35.2927C56.858 35.0375 56.4024 34.93 55.8439 34.9703L54.4475 35.0712L54.3236 33.3556L55.72 33.2548C56.2254 33.2183 56.6162 33.0764 56.8924 32.8292C57.1677 32.5687 57.2909 32.239 57.2621 31.84C57.2314 31.4145 57.034 31.0879 56.67 30.8601C56.306 30.6324 55.8381 30.5392 55.2662 30.5805C54.7476 30.618 54.324 30.7689 53.9955 31.0332C53.6803 31.2966 53.5049 31.6435 53.4691 32.0738L51.4543 32.2193C51.4384 31.258 51.775 30.4583 52.4642 29.8204C53.1657 29.1682 54.075 28.8017 55.1921 28.721C56.3358 28.6385 57.2945 28.8633 58.0681 29.3956C58.8551 29.927 59.2808 30.6382 59.3451 31.5292C59.4143 32.4867 59.0952 33.2517 58.3879 33.8241ZM69.0376 27.9819L71.212 27.8249L71.9898 38.5968L69.8155 38.7538L69.4899 34.2456L64.5029 34.6057L64.8285 39.114L62.6342 39.2724L61.8563 28.5005L64.0506 28.342L64.356 32.571L69.343 32.2109L69.0376 27.9819ZM82.2622 27.0269L83.499 26.9376L84.2769 37.7095L82.1624 37.8622L81.6683 31.02L76.4174 38.2771L75.1407 38.3693L74.3628 27.5973L76.4973 27.4432L76.987 34.2255L82.2622 27.0269ZM96.3424 34.7929L97.7787 34.6892L98.1215 39.4368L96.1067 39.5823L95.9108 36.8694L87.4329 37.4816L86.655 26.7097L88.8294 26.5527L89.4603 35.2899L94.1681 34.9499L93.5371 26.2127L95.7114 26.0557L96.3424 34.7929ZM108.314 25.1456L110.03 25.0217L110.808 35.7936L109.012 35.9233L108.698 34.6226C107.737 35.7481 106.478 36.367 104.922 36.4793C103.313 36.5956 101.931 36.1539 100.776 35.1545C99.634 34.1542 99.0051 32.8494 98.8889 31.2403C98.7717 29.6178 99.2067 28.2363 100.194 27.0955C101.193 25.9405 102.497 25.305 104.107 25.1888C105.689 25.0745 107.037 25.5118 108.152 26.5008L108.314 25.1456ZM102.323 33.5389C103.05 34.1548 103.918 34.4263 104.929 34.3533C105.953 34.2794 106.767 33.8864 107.37 33.1744C107.986 32.4482 108.258 31.5797 108.185 30.569C108.111 29.545 107.717 28.7245 107.004 28.1076C106.305 27.4897 105.443 27.2178 104.419 27.2917C103.754 27.3397 103.16 27.5364 102.637 27.8816C102.127 28.2259 101.739 28.6817 101.472 29.249C101.205 29.8031 101.095 30.4126 101.143 31.0775C101.216 32.0882 101.609 32.9087 102.323 33.5389Z" fill="white"/>
<rect x="250.75" y="14.75" width="86.5" height="43.5" rx="21.75" stroke="white" stroke-width="1.5"/>
<path d="M282.26 42.26C280.14 42.26 278.38 41.5733 276.98 40.2C275.58 38.8133 274.88 37.08 274.88 35C274.88 32.92 275.58 31.1933 276.98 29.82C278.38 28.4333 280.14 27.74 282.26 27.74C284.38 27.74 286.14 28.4333 287.54 29.82C288.94 31.1933 289.64 32.92 289.64 35C289.64 36.36 289.32 37.6 288.68 38.72C288.053 39.8267 287.173 40.6933 286.04 41.32C284.92 41.9467 283.66 42.26 282.26 42.26ZM278.66 38.62C279.62 39.58 280.82 40.06 282.26 40.06C283.713 40.06 284.913 39.58 285.86 38.62C286.82 37.6467 287.3 36.44 287.3 35C287.3 33.56 286.82 32.36 285.86 31.4C284.913 30.4267 283.713 29.94 282.26 29.94C280.82 29.94 279.62 30.4267 278.66 31.4C277.7 32.36 277.22 33.56 277.22 35C277.22 36.44 277.7 37.6467 278.66 38.62ZM292.006 31.2H301.426V42H299.226V33.22H294.226V42H292.006V31.2ZM313.124 31.2V33.2H309.324V42H307.164V33.2H303.344V31.2H313.124Z" fill="white"/>
<rect x="133.697" y="1.1235" width="126.5" height="43.5" rx="21.75" transform="rotate(5.03738 133.697 1.1235)" stroke="white" stroke-width="1.5"/>
<path d="M165.78 31.3074L164.832 28.1721L158.616 27.6241L157.154 30.547L154.723 30.3328L161.571 16.8821L163.722 17.0717L168.251 31.5252L165.78 31.3074ZM162.403 19.9671L159.594 25.6423L164.216 26.0498L162.403 19.9671ZM176.854 21.1806C177.916 21.2743 178.851 21.6043 179.657 22.1706C180.465 22.7237 181.07 23.453 181.472 24.3584C181.874 25.2639 182.029 26.2479 181.935 27.3104C181.792 28.9308 181.142 30.2321 179.985 31.2143C178.842 32.1843 177.467 32.5985 175.86 32.4569C174.478 32.3351 173.328 31.7987 172.408 30.8476L171.976 35.7485L169.764 35.5536L171.053 20.9303L172.547 21.062L172.85 22.4138C173.978 21.4559 175.313 21.0448 176.854 21.1806ZM173.444 29.1118C174.05 29.8345 174.857 30.2403 175.866 30.3293C176.889 30.4194 177.762 30.1617 178.484 29.5561C179.208 28.9373 179.615 28.1232 179.704 27.1138C179.793 26.1043 179.534 25.2383 178.929 24.5157C178.324 23.7798 177.517 23.3673 176.508 23.2784C175.844 23.2198 175.226 23.3193 174.655 23.5768C174.083 23.8343 173.621 24.2218 173.267 24.7394C172.928 25.245 172.729 25.8298 172.671 26.4939C172.582 27.5033 172.84 28.3759 173.444 29.1118ZM194.533 28.441C194.516 28.6403 194.481 28.8848 194.429 29.1747L185.702 28.4055C185.759 29.2805 186.057 29.9961 186.597 30.5524C187.151 31.1097 187.865 31.4271 188.742 31.5043C189.167 31.5418 189.571 31.5172 189.953 31.4304C190.337 31.3304 190.678 31.1798 190.977 30.9785C191.29 30.7652 191.554 30.5007 191.77 30.1851L194.101 30.3906C193.575 31.4953 192.818 32.3321 191.831 32.901C190.845 33.4566 189.755 33.6817 188.559 33.5763C186.979 33.437 185.705 32.7826 184.737 31.6131C183.783 30.4448 183.376 29.0571 183.518 27.45C183.659 25.8429 184.302 24.5477 185.446 23.5643C186.604 22.5821 187.973 22.1607 189.553 22.3C190.629 22.3949 191.563 22.7382 192.354 23.3299C193.146 23.9084 193.73 24.6492 194.105 25.5523C194.482 26.4421 194.625 27.405 194.533 28.441ZM189.378 24.2923C188.554 24.2197 187.83 24.3901 187.204 24.8035C186.592 25.218 186.158 25.8221 185.9 26.6159L192.415 27.1902C192.33 26.6339 192.152 26.1498 191.88 25.7377C191.61 25.3123 191.258 24.9801 190.824 24.741C190.404 24.4899 189.922 24.3403 189.378 24.2923ZM204.53 23.8811L206.701 24.0726L205.753 34.8308L203.581 34.6394L203.978 30.1369L198.997 29.6979L198.601 34.2004L196.409 34.0072L197.357 23.2489L199.549 23.4421L199.177 27.6657L204.157 28.1048L204.53 23.8811ZM218.428 33.84L219.822 33.9629L219.399 38.7643L217.387 38.5869L217.626 35.8774L209.776 35.1855L209.537 37.895L207.525 37.7176L207.948 32.9162L209.084 33.0163C209.412 32.7909 209.678 32.4262 209.883 31.9223C210.102 31.4195 210.323 30.6493 210.549 29.6118C210.775 28.5609 211.099 26.8562 211.521 24.4975L219.192 25.1736L218.428 33.84ZM213.302 26.622C212.965 28.774 212.662 30.3134 212.393 31.24C212.124 32.1666 211.791 32.8266 211.395 33.22L216.256 33.6485L216.848 26.9346L213.302 26.622ZM231.772 26.2824L233.485 26.4335L232.537 37.1917L230.744 37.0337L230.64 35.6995C229.512 36.6574 228.171 37.0679 226.617 36.9309C225.01 36.7893 223.716 36.1331 222.735 34.9625C221.767 33.793 221.354 32.4047 221.496 30.7976C221.638 29.1772 222.288 27.8825 223.444 26.9137C224.615 25.9327 226.004 25.513 227.611 25.6547C229.191 25.794 230.453 26.4406 231.395 27.5944L231.772 26.2824ZM224.52 33.614C225.139 34.3378 225.953 34.7442 226.962 34.8332C227.985 34.9233 228.851 34.665 229.56 34.0583C230.284 33.4395 230.691 32.6253 230.78 31.6159C230.87 30.5932 230.612 29.7206 230.006 28.9979C229.414 28.2765 228.607 27.8707 227.584 27.7805C226.92 27.722 226.302 27.8215 225.731 28.0789C225.172 28.3376 224.717 28.7257 224.363 29.2434C224.011 29.7477 223.805 30.3319 223.747 30.996C223.658 32.0054 223.916 32.8781 224.52 33.614Z" fill="white"/>
</svg>
