<svg width="183" height="195" viewBox="0 0 183 195" fill="none" xmlns="http://www.w3.org/2000/svg">
<path d="M117.59 110.736L125.63 117.536L127.99 113.446L118.49 108.106L117.59 110.736Z" fill="#471A29"/>
<path d="M137.36 41.9967C140.65 43.6824 143.528 46.0724 145.79 48.9967L149.18 44.1167L139.88 37.2267L137.36 41.9967Z" fill="#471A29"/>
<path d="M100.78 191.237C100.78 191.237 107.92 184.327 117.78 142.077C127.64 99.8268 149.42 48.5268 151.24 18.7968C155.419 18.1049 159.698 18.3117 163.792 19.4032C167.885 20.4946 171.699 22.4458 174.98 25.1268C174.98 25.1268 167.85 35.4968 174.59 30.7768C174.59 30.7768 173.46 36.3768 179.46 28.1568L182.15 28.5868C182.15 28.5868 175.64 36.9968 154.29 77.9968C132.94 118.997 146.59 103.627 143 112.747C139.41 121.867 129.19 144.617 124 162.267C120.803 173.104 116.857 183.707 112.19 193.997C112.19 193.997 102.67 196.047 100.78 191.237Z" fill="url(#paint0_linear_301_31954)"/>
<path style="mix-blend-mode:multiply" opacity="0.26" d="M100.78 191.237C102.67 196.047 112.19 193.997 112.19 193.997C116.862 183.7 120.811 173.091 124.01 162.247C129.19 144.597 139.4 121.857 143.01 112.727C146.62 103.597 132.94 118.997 154.29 77.9967C175.64 36.9967 182.15 28.6067 182.15 28.6067L179.46 28.1767C173.46 36.3967 174.59 30.7967 174.59 30.7967C171.45 32.9967 171.33 31.9067 172.09 30.1267C170.89 32.5967 170.44 34.6267 173.74 32.4667C173.74 32.4667 171.45 37.5667 176.36 33.7067L165.55 52.7067C162.08 54.6167 168.97 45.3767 168.97 45.3767C164.45 48.1367 170.75 33.9967 170.75 33.9967C170.75 33.9967 165.37 42.8367 157.97 42.7267C150.57 42.6167 151.24 18.8267 151.24 18.8267C150.39 32.7267 145.16 51.3567 138.84 71.5667C141.99 61.9967 145.93 50.9567 146.84 52.7567C148.31 55.8567 137.51 85.8467 137.51 85.8467C137.51 85.8467 151.79 48.9667 153.51 50.6867C155.23 52.4067 151.95 63.7367 151.95 63.7367C163.41 45.4767 146.1 86.3267 139.81 101.147C133.52 115.967 142.1 107.737 138.12 112.547C134.14 117.357 129.12 102.307 129.12 102.267C126.43 110.817 123.82 119.367 121.52 127.727C123.87 121.927 131.68 123.837 129.12 141.207C126.56 158.577 124.35 154.907 124.35 154.907C115.1 184.117 126.1 138.997 126.1 138.997C126.1 138.997 118.67 167.767 113.94 173.727C109.21 179.687 120.8 130.037 120.94 129.437C119.78 133.71 118.713 137.913 117.74 142.047C107.92 184.327 100.78 191.237 100.78 191.237Z" fill="url(#paint1_linear_301_31954)"/>
<path style="mix-blend-mode:screen" d="M173.74 32.4468C174.02 32.2068 174.27 31.9568 174.51 31.7168C174.508 31.4016 174.535 31.087 174.59 30.7768C167.85 35.4968 174.98 25.1268 174.98 25.1268C171.7 22.4458 167.886 20.4946 163.792 19.4032C159.699 18.3117 155.42 18.1049 151.24 18.7968C151.24 18.7968 167.45 19.9168 172.46 25.9468C172.46 25.9968 167.36 37.8468 173.74 32.4468Z" fill="url(#paint2_linear_301_31954)"/>
<path d="M115.94 33.6067C106.84 38.2867 106.59 26.2167 105.36 31.1467C104.13 36.0767 101.42 39.5167 93.3 34.5867C85.18 29.6567 74.59 3.07668 52.93 0.376683C31.27 -2.32332 14.28 10.4667 14.28 10.4667C14.28 10.4667 23.1 44.1867 11.82 69.2967C4.90787 85.0126 0.903068 101.852 0 118.997C2.65204 116.528 5.60545 114.405 8.79001 112.677C8.66001 106.677 9.51002 96.5767 16.49 94.8667C23.78 93.0967 20.55 102.867 18.18 108.437C19.45 107.977 20.74 107.567 22.03 107.197C23.31 105.307 25.62 102.507 28.03 102.507C29.36 102.507 28.93 103.977 27.84 105.857C36.84 104.287 45.24 105.217 49.7 110.137C59.3 120.717 60.77 126.877 74.56 116.537C88.35 106.197 91.56 110.877 97.7 119.237C103.84 127.597 120.59 118.237 120.59 118.237C120.59 118.237 116.16 110.357 125.27 76.6367C134.38 42.9167 148.16 32.0767 148.16 32.0767C136.1 19.3267 125.1 28.9267 115.94 33.6067ZM113.73 117.307C108.81 118.307 106.34 101.057 112.01 99.5767C115.82 98.5867 118.65 116.317 113.73 117.307ZM128.25 47.3867C124.8 47.3867 132.68 32.1267 137.36 32.6167C142.04 33.1067 133.42 47.3867 128.25 47.3867Z" fill="url(#paint3_linear_301_31954)"/>
<path d="M30.2001 29.257C30.2001 29.257 56.9601 53.577 64.9101 63.897C64.9101 63.897 30.6901 75.047 24.1201 81.687C24.1201 81.687 30.2001 81.027 26.1201 85.837C26.1201 85.837 28.7501 86.837 25.3001 90.837C25.3001 90.837 33.6701 89.357 35.1501 90.837C36.6301 92.317 31.8701 98.717 31.8701 98.717C31.8701 98.717 51.0701 83.787 62.5601 81.717C74.0501 79.647 87.5001 82.377 91.4401 102.437C91.7172 99.5604 91.7172 96.6637 91.4401 93.787C91.4401 93.787 95.9301 97.607 96.8901 105.377C96.8901 105.377 99.6501 98.867 101.45 103.297C101.45 103.297 102.39 95.747 107.45 103.797C107.45 103.797 104.45 85.087 102.63 84.427C100.81 83.767 99.3701 87.997 97.1001 82.097C94.8301 76.197 105 64.507 105 64.507L121.27 61.067C121.27 61.067 114.13 61.187 120.73 55.477C120.73 55.477 116.92 55.017 120.73 50.097C120.73 50.097 119.13 45.497 126.52 41.097C126.52 41.097 113.06 46.737 108.8 50.817C104.54 54.897 63.3401 32.637 63.3401 32.637C63.3401 32.637 54.9701 20.257 38.2301 7.45703C38.2301 7.45703 41.0201 11.067 36.0901 9.59703C36.0901 9.59703 41.1801 22.887 38.6401 24.367C36.1001 25.847 30.1901 20.257 30.1901 20.257C30.1901 20.257 38.5701 32.047 30.2001 29.257Z" fill="url(#paint4_linear_301_31954)"/>
<path style="mix-blend-mode:multiply" opacity="0.26" d="M112.55 54.5468C103.66 56.8668 116.35 50.0968 116.35 50.0968C106.62 53.0968 117.97 45.0968 118.07 44.9968C114.49 46.8068 110.72 48.9968 108.81 50.7868C104.54 54.8568 63.3502 32.6068 63.3502 32.6068C60.467 28.6112 57.2845 24.8404 53.8302 21.3268C64.5102 32.7868 50.3202 21.2168 50.3202 21.2168C64.3202 36.4768 46.4402 28.7668 46.4402 28.7668C66.9602 48.6168 45.6202 37.2968 45.6202 37.2968C63.8402 54.0368 37.8702 36.3568 37.8702 36.3568C46.4202 44.3568 59.7002 57.1368 64.8702 63.8968C64.8702 63.8968 54.2102 67.3668 43.6502 71.5968C56.3302 70.7668 32.9502 81.3868 32.9502 81.3868C53.7902 73.1268 43.9502 79.3068 43.9502 79.3068C62.0002 74.7068 45.5902 85.8368 45.5902 85.8368C57.1402 80.9868 56.1402 82.6868 52.9502 85.1668C55.9636 83.5849 59.1755 82.4145 62.5002 81.6868L63.1302 81.5868L69.5502 78.4868L77.1002 82.5468C78.7837 83.1662 80.3724 84.0178 81.8202 85.0768L85.1402 86.8568L90.9702 92.7368C96.8002 98.6168 98.9702 91.2968 98.9702 91.2968C88.9702 95.7368 93.7202 88.5168 93.7202 88.5168C96.1802 96.0768 101.72 85.8368 101.72 85.8368C93.3502 93.8368 94.5802 81.3868 94.5802 81.3868L97.1202 77.7468C98.6802 71.7468 104.98 64.5068 104.98 64.5068L106.92 64.0968C108.34 62.5068 114.1 61.3768 114.1 61.3768C105.67 62.4768 112.55 54.5468 112.55 54.5468Z" fill="url(#paint5_linear_301_31954)"/>
<path d="M99.2102 46.7767C99.2102 46.7767 100.81 42.0967 103.88 41.9767C106.95 41.8567 108.81 46.7767 108.81 46.7767C108.81 46.7767 111.41 43.2867 113.49 43.5567C115.57 43.8267 112.38 57.9767 106.35 69.5567C100.32 81.1367 99.4502 81.8567 97.1002 82.0967C94.7502 82.3367 94.5202 88.6267 90.5802 87.8867C90.5802 87.8867 87.7502 102.287 85.2902 103.397C82.8302 104.507 83.6402 97.9967 83.6402 97.9967C83.6402 97.9967 78.5302 109.567 74.9602 109.567C71.3902 109.567 74.1002 95.7667 74.1002 95.7667C74.1002 95.7667 68.3102 104.137 62.2802 102.767C56.2502 101.397 61.6602 82.7067 61.6602 82.7067C61.6602 82.7067 53.2902 79.6267 50.9602 70.8867C48.6302 62.1467 52.5602 32.9767 64.8602 28.6767C77.1602 24.3767 90.1002 33.8367 96.8602 44.6767C96.8702 44.6867 99.4502 43.5767 99.2102 46.7767Z" fill="url(#paint6_linear_301_31954)"/>
<g style="mix-blend-mode:multiply" opacity="0.28">
<path d="M67.1001 42.877C67.1001 42.877 75.2701 60.717 78.6501 61.067C82.0301 61.417 84.2401 55.477 84.2401 55.477C84.2401 55.477 80.4301 63.637 82.2401 64.477C84.0501 65.317 85.8101 59.067 85.8101 59.067C85.8101 59.067 87.2901 63.897 91.1001 61.067C94.9101 58.237 96.0001 52.437 96.8801 58.067C96.8801 58.067 102.88 51.417 106.97 51.067C111.06 50.717 85.5201 71.997 85.5201 71.997L84.1901 71.637C84.1901 71.637 83.1901 67.277 81.3601 71.637C81.3601 71.637 84.3101 65.527 76.8001 69.467C69.2901 73.407 67.1001 42.877 67.1001 42.877Z" fill="#DD402E"/>
</g>
<path d="M76.8 69.4268C76.8 69.4268 70.4 44.6668 64.74 39.9968C59.08 35.3268 54.03 57.6068 59.94 65.4868C65.85 73.3668 74.34 72.3768 76.8 69.4268Z" fill="#81201C"/>
<path d="M84.1899 71.5967C84.1899 71.5967 88.8699 63.1467 92.3099 64.8667C92.3099 64.8667 94.77 56.7467 96.74 59.6967C96.74 59.6967 102.05 52.0867 107.82 50.8367C113.59 49.5867 103.02 70.4067 100.56 69.6667C98.1 68.9267 96.9899 68.6667 95.5099 71.0267C94.0299 73.3867 93.4199 70.2867 91.8199 70.2867C90.2199 70.2867 86.1599 76.2267 84.1899 71.5967Z" fill="#81201C"/>
<g style="mix-blend-mode:multiply">
<path d="M66.36 41.8267C66.36 41.8267 63.51 38.6567 62.03 45.2967C60.55 51.9367 62.9 67.1867 70.28 67.9967C76.01 68.6267 74.47 61.4767 73.49 58.2367C73.32 57.7167 73.14 57.2367 72.97 56.6667C71.08 51.1167 68.72 45.1367 66.36 41.8267Z" fill="#BF402E"/>
</g>
<g style="mix-blend-mode:multiply">
<path d="M88 69.7966C90.22 70.1566 92.31 67.3266 92.31 67.3266C92.31 67.3266 92.41 70.5266 96.86 65.1166C96.86 65.1166 99.2 67.3266 102.86 63.5166C106.52 59.7066 109.29 50.5166 103.86 52.6266C101.117 54.5789 98.7116 56.9672 96.74 59.6966C94.74 56.6966 92.31 64.8666 92.31 64.8666C91.24 64.3366 90.0599 64.7766 88.9299 65.6466C88.9299 65.6466 85.79 69.4266 88 69.7966Z" fill="#BF402E"/>
</g>
<path d="M78.8999 75.1965C79.0999 74.5565 80.6099 69.4765 80.9899 73.4865C80.9899 73.4865 83.1999 69.5565 81.6999 77.6165C80.1999 85.6765 77.7399 78.8865 78.8999 75.1965Z" fill="#81201C"/>
<g style="mix-blend-mode:multiply" opacity="0.28">
<path d="M50.9598 70.8967C53.2898 79.6367 61.6598 82.7167 61.6598 82.7167C61.6598 82.7167 56.2498 101.427 62.2798 102.777C68.3098 104.127 74.0998 95.7767 74.0998 95.7767C74.0998 95.7767 71.3898 109.557 74.9598 109.557C78.5298 109.557 83.6398 97.9967 83.6398 97.9967C83.6398 97.9967 82.8298 104.517 85.2998 103.417C87.7698 102.317 90.5898 87.9067 90.5898 87.9067C94.5298 88.6467 94.7698 82.3667 97.1098 82.1167C99.4498 81.8667 100.31 81.1167 106.35 69.5667C107.11 68.1067 107.823 66.62 108.49 65.1067C102.23 79.2967 95.2698 79.9067 95.2698 79.9067C92.7998 86.6767 88.3698 83.9667 88.3698 83.9667C88.3698 83.9667 88.2498 101.197 86.0398 100.967C83.8298 100.737 84.1898 90.6267 84.1898 90.6267C84.1898 90.6267 78.7598 106.627 75.8198 104.627C72.8798 102.627 77.4198 89.1167 77.4198 89.1167C77.4198 89.1167 65.3598 101.797 61.5398 97.2367C57.7198 92.6767 69.9098 74.8367 69.9098 74.8367C69.9098 74.8367 66.0998 75.8367 57.2998 74.0967C48.6798 72.4167 52.0498 49.9867 52.1998 49.0967C50.1698 57.7067 49.8298 66.6867 50.9598 70.8967Z" fill="#DD402E"/>
</g>
<path style="mix-blend-mode:multiply" opacity="0.26" d="M125.3 76.6868C134.41 42.9568 148.19 32.1268 148.19 32.1268C147.97 31.8868 147.75 31.6768 147.52 31.4568C143.673 34.0238 140.026 36.8786 136.61 39.9968C134.39 43.6968 130.88 47.3868 128.25 47.3868C126.01 47.3868 128.55 40.9868 131.87 36.6068C131.87 36.6068 124.81 44.4368 125.79 51.8268C126.77 59.2168 131.89 48.8268 131.89 48.8268C131.89 48.8268 116.27 85.2268 116.35 105.307C116.35 105.307 116.2 105.747 115.94 106.387C116.79 111.147 116.43 116.727 113.73 117.267C111.55 117.697 109.85 114.547 109.13 110.787C108.996 110.654 108.869 110.513 108.75 110.367C108.75 110.367 109.75 118.007 113.75 119.877C108.75 120.277 102.31 118.997 98.99 111.107C93.08 97.1068 105.72 36.7668 130.89 26.3068C125.51 27.7068 120.5 31.2468 115.97 33.5668C111.91 35.6568 109.61 34.4068 108.2 32.8168C108.82 33.6068 110.46 36.2668 108.84 40.9468C106.84 46.6168 94.07 97.5668 90.62 102.367C87.17 107.167 99.62 45.1968 104.23 34.2168C103.07 36.3168 101.18 37.4968 97.95 36.6468C98.49 38.6468 98.55 42.1768 97.27 48.5768C94.07 64.5768 90.27 93.8768 83.67 107.417C77.43 120.227 84.89 35.1368 94.23 35.0568C93.93 34.8968 93.64 34.7368 93.33 34.5468C85.85 30.0168 76.28 7.15676 57.92 1.42676C57.92 1.42676 88.16 12.4268 82.25 53.5068C76.34 94.5868 66.25 122.437 55.17 108.397C48.17 99.5768 32.97 99.5168 19.61 104.787C19.17 106.087 18.68 107.337 18.21 108.427C19.48 107.967 20.77 107.557 22.06 107.187C23.34 105.297 25.65 102.497 28.06 102.497C29.39 102.497 28.96 103.967 27.87 105.847C36.87 104.277 45.27 105.207 49.73 110.127C59.33 120.707 60.8 126.867 74.59 116.527C88.38 106.187 91.59 110.867 97.73 119.227C103.73 127.347 119.59 118.807 120.57 118.227C120.49 118.047 116.32 109.927 125.3 76.6868Z" fill="url(#paint7_linear_301_31954)"/>
<path style="mix-blend-mode:multiply" opacity="0.26" d="M103.03 68.1567C92.96 92.0767 94.38 74.2267 94.38 74.2267C77.99 120.837 88.3 46.0467 88.3 46.0467C88.3 46.0467 70.73 68.3167 46.44 59.4567C26.02 52.0067 17.21 22.4567 14.91 13.2367C16.72 21.7767 21.2 48.4867 11.82 69.2967C4.90787 85.0126 0.903068 101.852 0 118.997C2.65204 116.528 5.60545 114.405 8.79001 112.677C8.66001 106.677 9.51002 96.5767 16.49 94.8667C23.78 93.0967 20.55 102.867 18.18 108.437C19.45 107.977 20.74 107.567 22.03 107.197C23.31 105.307 25.62 102.507 28.03 102.507C29.36 102.507 28.93 103.977 27.84 105.857C36.84 104.287 45.24 105.217 49.7 110.137C59.3 120.717 60.77 126.877 74.56 116.537C88.35 106.197 91.56 110.877 97.7 119.237C103.84 127.597 120.59 118.237 120.59 118.237C120.59 118.237 116.16 110.357 125.27 76.6367C127.349 68.7471 130.106 61.0518 133.51 53.6367C128.657 62.5774 122.896 70.995 116.32 78.7567C103.26 94.0467 103.03 68.1567 103.03 68.1567ZM113.73 117.307C108.81 118.307 106.34 101.057 112.01 99.5767C115.82 98.5867 118.65 116.317 113.73 117.307Z" fill="url(#paint8_linear_301_31954)"/>
<path style="mix-blend-mode:screen" opacity="0.74" d="M52.93 0.376709C31.26 -2.33329 14.28 10.4667 14.28 10.4667C14.28 10.4667 14.54 11.4667 14.92 13.2467C16.7444 20.5591 19.3111 27.666 22.58 34.4567C22.58 34.4567 34.01 7.59671 57.3 10.5467C80.59 13.4967 82.73 49.0667 82.73 49.0667L89.79 31.4467C82.1 22.8067 71.61 2.70671 52.93 0.376709Z" fill="url(#paint9_linear_301_31954)"/>
<path d="M135.76 41.3165C135.76 41.3165 132.22 38.0965 137.14 35.8865C142.06 33.6765 175.39 51.6965 168.38 54.7765C168.38 54.7765 168.38 57.3265 166.78 57.4165C166.78 57.4165 167.78 60.6265 163.78 60.1065C163.78 60.1065 164.95 55.0365 155.47 50.7865C145.99 46.5365 144.17 53.8365 144.17 53.8365C143.851 53.5147 143.604 53.1282 143.447 52.703C143.29 52.2778 143.226 51.8239 143.259 51.3718C143.292 50.9197 143.422 50.48 143.639 50.0823C143.857 49.6846 144.157 49.3382 144.52 49.0665C144.52 49.0665 142.43 46.4065 146.12 45.0665C146.1 45.0565 138.59 36.2365 135.76 41.3165Z" fill="url(#paint10_linear_301_31954)"/>
<path d="M116.35 110.327C116.35 110.327 114.69 109.787 115.21 107.537C115.73 105.287 128.58 108.687 135.21 114.427C141.84 120.167 141.53 122.427 139.8 122.757C139.8 122.757 140.46 124.527 138.33 124.937C138.33 124.937 140.4 128.737 136.57 128.187C136.57 128.187 138 122.637 131.35 119.517C124.7 116.397 123.53 120.287 123.53 120.287C123.53 120.287 121.83 118.127 124.05 116.897C124.05 116.897 122.49 114.347 125.36 113.607C125.38 113.607 115.94 105.327 116.35 110.327Z" fill="url(#paint11_linear_301_31954)"/>
<path style="mix-blend-mode:multiply" opacity="0.26" d="M155.45 50.7868C164.93 55.0368 163.76 60.1068 163.76 60.1068C167.76 60.6268 166.76 57.4168 166.76 57.4168C168.36 57.3268 168.36 54.7768 168.36 54.7768C170.12 53.9968 169.36 52.2768 167.08 50.1668C168.35 51.3768 169.08 54.9768 165.98 52.7268C162.88 50.4768 145.1 39.2668 139.25 38.5268C133.4 37.7868 135.76 41.3168 135.76 41.3168C138.59 36.2368 146.1 45.0568 146.1 45.0568C149.867 45.5791 153.559 46.5424 157.1 47.9268C162.44 50.1068 166.7 54.1968 156.37 49.0668C146.04 43.9368 143.96 46.9968 143.96 46.9968C143.907 47.3651 143.927 47.7405 144.019 48.101C144.112 48.4615 144.276 48.8 144.5 49.0968C148.27 44.2968 159.68 50.8668 163.11 53.6568C166.54 56.4468 164.85 57.4268 163.11 55.2968C161.37 53.1668 154.26 47.5868 148.19 48.6468C144.44 49.3068 143.57 51.3168 143.46 52.7468C143.628 53.1551 143.861 53.5333 144.15 53.8668C144.15 53.8668 145.98 46.5268 155.45 50.7868Z" fill="url(#paint12_linear_301_31954)"/>
<path style="mix-blend-mode:multiply" opacity="0.26" d="M131.37 119.517C138.02 122.637 136.59 128.187 136.59 128.187C140.42 128.737 138.35 124.937 138.35 124.937C140.48 124.527 139.82 122.757 139.82 122.757C141.22 122.517 141.7 120.967 138.3 117.347C141.3 123.287 123.9 109.837 119.07 108.437C114.24 107.037 116.35 110.327 116.35 110.327C115.94 105.327 125.35 113.607 125.35 113.607C127.61 113.037 137.21 119.727 137.17 120.377C137.13 121.027 137.29 121.697 132 117.537C129.71 115.747 126.24 115.797 123.76 116.257C123.832 116.479 123.926 116.693 124.04 116.897C132.98 114.677 139.04 124.677 137.74 124.357C136.44 124.037 135.61 119.187 128.63 117.537C124.94 116.667 123.52 117.867 123 119.197C123.112 119.586 123.287 119.955 123.52 120.287C123.52 120.287 124.72 116.397 131.37 119.517Z" fill="url(#paint13_linear_301_31954)"/>
<defs>
<linearGradient id="paint0_linear_301_31954" x1="117.948" y1="37.9624" x2="164.139" y2="179.37" gradientUnits="userSpaceOnUse">
<stop stop-color="#F47242"/>
<stop offset="0.16" stop-color="#EC6842"/>
<stop offset="0.41" stop-color="#D54F41"/>
<stop offset="0.74" stop-color="#B02541"/>
<stop offset="1" stop-color="#900040"/>
</linearGradient>
<linearGradient id="paint1_linear_301_31954" x1="131.581" y1="114.66" x2="106.405" y2="179.884" gradientUnits="userSpaceOnUse">
<stop stop-color="#900040"/>
<stop offset="0.1" stop-color="#98124E"/>
<stop offset="0.31" stop-color="#AD4272"/>
<stop offset="0.61" stop-color="#CF90AC"/>
<stop offset="0.98" stop-color="#FCF9FA"/>
<stop offset="1" stop-color="white"/>
</linearGradient>
<linearGradient id="paint2_linear_301_31954" x1="156.176" y1="0.75975" x2="168.94" y2="39.8473" gradientUnits="userSpaceOnUse">
<stop stop-color="#FFFF52"/>
<stop offset="0.34" stop-color="#9B9B32"/>
<stop offset="0.65" stop-color="#484817"/>
<stop offset="0.86" stop-color="#141406"/>
<stop offset="0.96"/>
</linearGradient>
<linearGradient id="paint3_linear_301_31954" x1="109.42" y1="-88.7833" x2="31.44" y2="215.757" gradientUnits="userSpaceOnUse">
<stop stop-color="#5B507B"/>
<stop offset="0.14" stop-color="#554B73"/>
<stop offset="0.36" stop-color="#463E5F"/>
<stop offset="0.62" stop-color="#2D283D"/>
<stop offset="0.92" stop-color="#0A090E"/>
<stop offset="1"/>
</linearGradient>
<linearGradient id="paint4_linear_301_31954" x1="-6.23988" y1="-15.543" x2="104.69" y2="95.377" gradientUnits="userSpaceOnUse">
<stop stop-color="#F47242"/>
<stop offset="0.16" stop-color="#EC6842"/>
<stop offset="0.41" stop-color="#D54F41"/>
<stop offset="0.74" stop-color="#B02541"/>
<stop offset="1" stop-color="#900040"/>
</linearGradient>
<linearGradient id="paint5_linear_301_31954" x1="-4.72978" y1="-17.0532" x2="150.53" y2="138.197" gradientUnits="userSpaceOnUse">
<stop offset="0.23" stop-color="#900040"/>
<stop offset="0.31" stop-color="#98124E"/>
<stop offset="0.47" stop-color="#AD4272"/>
<stop offset="0.7" stop-color="#CF90AC"/>
<stop offset="0.98" stop-color="#FCF9FA"/>
<stop offset="1" stop-color="white"/>
</linearGradient>
<linearGradient id="paint6_linear_301_31954" x1="86.7802" y1="34.2667" x2="67.7402" y2="108.607" gradientUnits="userSpaceOnUse">
<stop stop-color="#FFF1D2"/>
<stop offset="0.21" stop-color="#F1D4C0"/>
<stop offset="0.67" stop-color="#CC8A92"/>
<stop offset="0.95" stop-color="#B55B74"/>
</linearGradient>
<linearGradient id="paint7_linear_301_31954" x1="83.19" y1="228.007" x2="83.19" y2="30.3968" gradientUnits="userSpaceOnUse">
<stop stop-color="white"/>
<stop offset="0.02" stop-color="#FCF9FA"/>
<stop offset="0.3" stop-color="#CF90AC"/>
<stop offset="0.53" stop-color="#AD4272"/>
<stop offset="0.69" stop-color="#98124E"/>
<stop offset="0.77" stop-color="#900040"/>
</linearGradient>
<linearGradient id="paint8_linear_301_31954" x1="76.07" y1="33.3267" x2="60.48" y2="94.2167" gradientUnits="userSpaceOnUse">
<stop offset="0.23" stop-color="#900040"/>
<stop offset="0.31" stop-color="#98124E"/>
<stop offset="0.47" stop-color="#AD4272"/>
<stop offset="0.7" stop-color="#CF90AC"/>
<stop offset="0.98" stop-color="#FCF9FA"/>
<stop offset="1" stop-color="white"/>
</linearGradient>
<linearGradient id="paint9_linear_301_31954" x1="24.64" y1="-80.3733" x2="53.68" y2="27.2967" gradientUnits="userSpaceOnUse">
<stop stop-color="#9A77F6"/>
<stop offset="0.14" stop-color="#9875F2"/>
<stop offset="0.27" stop-color="#9170E7"/>
<stop offset="0.39" stop-color="#8567D4"/>
<stop offset="0.51" stop-color="#745ABA"/>
<stop offset="0.64" stop-color="#5F4997"/>
<stop offset="0.76" stop-color="#44356D"/>
<stop offset="0.87" stop-color="#251D3C"/>
<stop offset="0.99" stop-color="#020203"/>
<stop offset="1"/>
</linearGradient>
<linearGradient id="paint10_linear_301_31954" x1="134.53" y1="47.9265" x2="169.34" y2="47.9265" gradientUnits="userSpaceOnUse">
<stop stop-color="#6D3E38"/>
<stop offset="0.36" stop-color="#673A35"/>
<stop offset="0.85" stop-color="#562E2C"/>
<stop offset="1" stop-color="#4F2A29"/>
</linearGradient>
<linearGradient id="paint11_linear_301_31954" x1="115.11" y1="117.537" x2="140.88" y2="117.537" gradientUnits="userSpaceOnUse">
<stop stop-color="#6D3E38"/>
<stop offset="0.36" stop-color="#673A35"/>
<stop offset="0.85" stop-color="#562E2C"/>
<stop offset="1" stop-color="#4F2A29"/>
</linearGradient>
<linearGradient id="paint12_linear_301_31954" x1="134.53" y1="49.2968" x2="197.72" y2="49.2968" gradientUnits="userSpaceOnUse">
<stop offset="0.16" stop-color="#900040"/>
<stop offset="0.2" stop-color="#98124D"/>
<stop offset="0.43" stop-color="#BC658C"/>
<stop offset="0.63" stop-color="#D9A7BD"/>
<stop offset="0.8" stop-color="#EDD7E1"/>
<stop offset="0.93" stop-color="#FAF4F7"/>
<stop offset="1" stop-color="white"/>
</linearGradient>
<linearGradient id="paint13_linear_301_31954" x1="115.11" y1="118.167" x2="153.3" y2="118.167" gradientUnits="userSpaceOnUse">
<stop offset="0.16" stop-color="#900040"/>
<stop offset="0.2" stop-color="#98124D"/>
<stop offset="0.43" stop-color="#BC658C"/>
<stop offset="0.63" stop-color="#D9A7BD"/>
<stop offset="0.8" stop-color="#EDD7E1"/>
<stop offset="0.93" stop-color="#FAF4F7"/>
<stop offset="1" stop-color="white"/>
</linearGradient>
</defs>
</svg>
