<svg width="179" height="217" viewBox="0 0 179 217" fill="none" xmlns="http://www.w3.org/2000/svg">
<path style="mix-blend-mode:multiply" opacity="0.6" fill-rule="evenodd" clip-rule="evenodd" d="M179 210.913C179 210.913 138.93 216.216 89.4983 216.216C40.0669 216.216 0 210.913 0 210.913C0 210.913 40.0703 205.617 89.4983 205.617C138.926 205.617 179 210.913 179 210.913Z" fill="url(#paint0_linear_301_32111)"/>
<path fill-rule="evenodd" clip-rule="evenodd" d="M76.5928 122.886L64.461 137.479C45.1898 149.153 50.2332 142.951 54.2723 137.479L65.4726 125.498C65.4726 125.498 54.476 135.071 41.8857 137.479C30.0159 140.915 20.0528 143.155 22.8402 137.479C22.8402 137.479 52.5329 124.732 72.8011 112.963L76.5928 122.886Z" fill="url(#paint1_linear_301_32111)"/>
<path d="M76.5927 122.886L59.745 137.479C50.9318 144.943 47.0164 147.176 54.2795 137.479L65.4725 125.498C65.4725 125.498 55.3566 134.677 41.8493 137.501C34.9355 139.872 28.3274 141.879 23.7935 141.587L70.2175 118.486L76.5927 122.886Z" fill="url(#paint2_linear_301_32111)"/>
<path style="mix-blend-mode:multiply" fill-rule="evenodd" clip-rule="evenodd" d="M57.3434 121.361L75.2464 124.506L76.5927 122.886L69.0167 117.538L65.1232 117.246L57.3434 121.361Z" fill="url(#paint3_linear_301_32111)"/>
<path fill-rule="evenodd" clip-rule="evenodd" d="M129.901 109.534C129.901 109.534 121.692 129.198 109.393 137.501H105.914L112.151 129.475C112.151 129.475 107.45 133.415 92.4581 137.501H79.4602C79.4602 137.501 93.1422 122.981 94.6414 118.486L129.901 109.534Z" fill="url(#paint4_linear_301_32111)"/>
<g style="mix-blend-mode:multiply">
<path fill-rule="evenodd" clip-rule="evenodd" d="M124.421 120.121L116.634 125.352L112.151 129.496C112.151 129.496 106.664 133.809 92.4581 137.523C92.4581 137.523 99.5319 134.947 104.299 131.299L84.933 132.422L90.3985 125.374L129.901 109.555C129.901 109.555 126.204 117.282 124.421 120.121Z" fill="#DECAD4"/>
</g>
<path fill-rule="evenodd" clip-rule="evenodd" d="M163.495 208.312L60.6911 210.501L15.9846 209.159C15.9846 209.159 15.9846 140.397 46.1795 135.83L131.699 135.713C131.699 135.713 163.932 141.55 163.495 208.312Z" fill="url(#paint5_linear_301_32111)"/>
<path fill-rule="evenodd" clip-rule="evenodd" d="M70.2685 210.29C70.2685 210.29 77.8882 137.457 47.7079 136.166C47.7079 136.166 19.5289 134.108 22.6801 209.13L70.2685 210.29Z" fill="url(#paint6_linear_301_32111)"/>
<path fill-rule="evenodd" clip-rule="evenodd" d="M166.632 209.451L164.79 193.471L162.971 192.661L160.788 194.245C160.788 194.245 125.448 198.484 111.591 198.944C97.7343 199.403 72.9612 195.587 72.9612 195.587L64.4755 195.959L20.8097 198.718L16.6542 197.557L12.7242 198.718L10.4172 209.538L69.4971 211.596L166.632 209.451Z" fill="url(#paint7_linear_301_32111)"/>
<path fill-rule="evenodd" clip-rule="evenodd" d="M113.148 135.713L123.162 136.151C123.162 136.151 135.993 143.163 137.972 146.264C139.952 149.365 145.978 162.652 146.756 166.548C147.535 170.444 148.86 209.823 148.86 209.823L151.261 209.764L166.603 209.436C166.603 209.436 163.095 178.375 161.253 164.49C161.253 164.49 156.421 147.957 146.487 138.953L127.565 132.547L114.757 133.276L114.138 134.217L113.148 135.713Z" fill="url(#paint8_linear_301_32111)"/>
<path fill-rule="evenodd" clip-rule="evenodd" d="M114.116 134.254L135.294 138.581L146.487 138.975L127.543 132.568L114.735 133.313L114.116 134.254Z" fill="#ECD9CA"/>
<path fill-rule="evenodd" clip-rule="evenodd" d="M10.3735 209.545L14.9876 209.458L16.6032 197.557C16.6032 197.557 17.7094 183.431 18.6482 177.251C19.587 171.071 25.9986 153.049 30.0159 146.285C34.0331 139.522 43.545 136.888 43.545 136.888C46.2523 136.581 59.4903 141.9 62.7288 147.883C65.9674 153.866 70.3995 174.814 70.6396 178.382C70.8798 181.95 69.497 211.596 69.497 211.596L74.4313 211.479L87.531 211.194C87.531 211.194 85.6898 182.155 85.2313 179.09C84.7728 176.026 81.7962 154.968 79.2199 147.84C78.461 145.811 77.3715 143.922 75.996 142.251C70.334 135.239 60.9094 131.583 60.9094 131.583L43.6396 132.568H43.5814H43.545C42.8172 132.948 31.5587 139.135 28.5749 142.681C25.5911 146.227 15.6062 170.232 14.5291 177.178C13.4884 183.898 10.5773 207.867 10.3808 209.458C10.3765 209.487 10.3741 209.516 10.3735 209.545Z" fill="url(#paint9_linear_301_32111)"/>
<path fill-rule="evenodd" clip-rule="evenodd" d="M113.148 135.713L123.162 136.158C123.162 136.158 136 143.163 137.965 146.271C139.93 149.379 145.97 162.666 146.756 166.555C147.542 170.444 148.86 209.83 148.86 209.83H151.261C151.261 209.83 153.721 209.56 153.721 209.524C153.67 207.918 151.108 176.164 149.566 165.796C148.11 155.873 139.479 141.893 135.294 138.573C132.434 136.304 120.848 132.554 114.735 133.305L113.148 135.713Z" fill="url(#paint10_linear_301_32111)"/>
<path fill-rule="evenodd" clip-rule="evenodd" d="M151.261 209.845L150.337 194.245C150.337 194.245 119.887 197.616 109.837 198.017C99.7866 198.418 86.5486 196.711 86.5486 196.711L87.502 211.209L151.261 209.845Z" fill="url(#paint11_linear_301_32111)"/>
<path fill-rule="evenodd" clip-rule="evenodd" d="M148.336 168.029C148.336 168.029 147.411 160.222 145.425 155.807L81.4542 156.654L83.8267 170.006L118.155 168.007L148.336 168.029Z" fill="url(#paint12_linear_301_32111)"/>
<path fill-rule="evenodd" clip-rule="evenodd" d="M148.336 168.029L147.069 169.422L83.9214 170.641L83.8268 170.028L116.081 167.109H134.399L148.336 168.029Z" fill="url(#paint13_linear_301_32111)"/>
<path fill-rule="evenodd" clip-rule="evenodd" d="M24.2302 209.845C24.2302 209.845 23.2404 187.452 25.6857 173.115C28.131 158.777 33.9385 145.33 35.6342 143.01C37.3299 140.689 42.3806 137.866 44.724 136.961C44.724 136.961 43.2684 137.012 42.7954 137.07C41.1579 137.275 35.2267 139.42 29.7466 145.271C24.2665 151.123 17.8768 173.822 17.4401 178.572C17.0035 183.322 15.0094 209.458 15.0094 209.458L24.2302 209.845Z" fill="url(#paint14_linear_301_32111)"/>
<path fill-rule="evenodd" clip-rule="evenodd" d="M70.152 210.29L70.2393 195.588C70.2393 195.588 65.145 195.712 62.8016 195.96C60.4582 196.208 29.3827 197.565 27.4614 197.689C25.5401 197.813 19.9509 199.557 19.9509 199.557L18.9902 209.845L69.497 211.603L70.152 210.29Z" fill="url(#paint15_linear_301_32111)"/>
<path fill-rule="evenodd" clip-rule="evenodd" d="M70.2393 198.017C70.2393 198.017 42.0895 198.944 36.704 198.944C31.3186 198.944 19.9655 199.557 19.9655 199.557C19.9655 199.557 24.2738 197.331 27.3304 197.368C30.387 197.404 43.414 196.222 54.345 195.989C65.276 195.755 70.2539 195.566 70.2539 195.566L70.2393 198.017Z" fill="#9B8A8D"/>
<path fill-rule="evenodd" clip-rule="evenodd" d="M148.838 168.875H113.177L83.8268 170.006C83.8268 170.006 85.195 178.207 85.4861 181.899L104.604 181.345L143.867 179.513H149.529C149.529 179.513 149.799 172.793 148.838 168.875Z" fill="url(#paint16_linear_301_32111)"/>
<path fill-rule="evenodd" clip-rule="evenodd" d="M66.0983 157.186L25.7729 159.375L22.3961 168.875L54.1048 168.226L68.9075 168.875L66.0983 157.186Z" fill="url(#paint17_linear_301_32111)"/>
<path fill-rule="evenodd" clip-rule="evenodd" d="M70.6541 181.038L22.3961 179.827V170.006L68.9075 168.853C68.9075 168.853 70.2466 175.019 70.5377 176.923C70.7127 178.288 70.7517 179.666 70.6541 181.038Z" fill="url(#paint18_linear_301_32111)"/>
<path fill-rule="evenodd" clip-rule="evenodd" d="M22.3961 168.875L23.6115 169.999L68.9075 168.875L54.6433 167.919L29.157 168.686L22.3961 168.875Z" fill="url(#paint19_linear_301_32111)"/>
<path fill-rule="evenodd" clip-rule="evenodd" d="M104.546 171.203C104.558 171.341 104.583 171.478 104.619 171.611C105.112 173.36 106.018 174.963 107.261 176.286C108.504 177.608 110.047 178.61 111.758 179.207C119.036 181.593 124.276 180.447 124.276 180.447C126.343 179.859 128.234 178.772 129.785 177.281C131.33 175.862 132.685 174.248 133.817 172.48C133.817 172.48 124.072 157.931 120.717 157.194C117.362 156.457 111.722 157.113 109.408 158.405C107.093 159.696 104.473 170.072 104.546 171.203Z" fill="url(#paint20_linear_301_32111)"/>
<path fill-rule="evenodd" clip-rule="evenodd" d="M43.5085 132.59C59.6067 137.858 62.1102 141.346 62.1102 141.346L75.9741 142.28C70.3121 135.268 60.8875 131.613 60.8875 131.613L43.6395 132.568L43.5085 132.59Z" fill="#ECD9CA"/>
<path fill-rule="evenodd" clip-rule="evenodd" d="M145.41 155.807L142.179 154.633L125.222 155.224C125.222 155.224 109.713 155.895 104.546 155.807C99.379 155.72 81.1412 155.224 81.1412 155.224L81.4396 156.683L137.965 156.063L142.615 156.873L144.158 155.99L145.41 155.807Z" fill="#ECD9CA"/>
<path fill-rule="evenodd" clip-rule="evenodd" d="M59.7378 139.493L64.5701 141.521L70.7052 158.726C70.7052 158.726 74.4823 171.918 74.8898 175.821C75.523 181.921 74.4313 211.632 74.4313 211.632C74.4313 211.632 72.9758 177.339 72.7138 174.953C72.0807 169.364 66.7243 149.817 66.7243 149.817L62.809 142.28L59.7378 139.493Z" fill="url(#paint21_linear_301_32111)"/>
<path fill-rule="evenodd" clip-rule="evenodd" d="M150.337 194.245L148.27 193.516L111.707 196.609L86.5776 196.711C86.5776 196.711 94.9542 198.441 111.271 197.952C127.587 197.463 150.337 194.245 150.337 194.245Z" fill="url(#paint22_linear_301_32111)"/>
<path fill-rule="evenodd" clip-rule="evenodd" d="M153.721 209.538L154.609 198.856L151.793 177.186C151.793 177.186 150.497 163.994 148.336 156.289C146.174 148.584 136.517 138.632 136.517 138.632C136.517 138.632 131.044 135.852 127.827 135.304C127.827 135.304 134.748 137.887 136.517 139.799C138.285 141.711 145.439 152.816 147.317 157.88C150.337 166.015 153.925 206.62 153.721 209.538Z" fill="url(#paint23_linear_301_32111)"/>
<path style="mix-blend-mode:screen" fill-rule="evenodd" clip-rule="evenodd" d="M137.965 146.286L90.3984 145.862H78.3321C76.2211 141.704 72.9458 138.252 68.9076 135.932L123.162 136.173C123.162 136.173 135.069 142.616 137.965 146.286Z" fill="url(#paint24_linear_301_32111)"/>
<path fill-rule="evenodd" clip-rule="evenodd" d="M25.7729 159.375L26.9155 160.178L48.9449 159.375L63.6458 158.543L66.0983 157.186L25.7729 159.375Z" fill="#9B8A8D"/>
<path fill-rule="evenodd" clip-rule="evenodd" d="M68.9075 168.875L69.2859 170.641L45.0951 170.028H22.3961L68.9075 168.875Z" fill="#9B8A8D"/>
<path style="mix-blend-mode:multiply" opacity="0.6" fill-rule="evenodd" clip-rule="evenodd" d="M104.619 171.611C105.112 173.36 106.018 174.963 107.261 176.286C108.504 177.608 110.047 178.61 111.758 179.207C119.036 181.593 124.276 180.447 124.276 180.447C126.343 179.859 128.234 178.772 129.785 177.281L107.152 172.1L104.619 171.611Z" fill="url(#paint25_linear_301_32111)"/>
<path fill-rule="evenodd" clip-rule="evenodd" d="M107.406 173.115C109.342 178.062 120.717 181.921 126.328 179.681C129.901 178.222 134.283 172.633 134.333 171.196C134.384 169.758 131.422 160.039 126.83 158.15C124.589 157.23 114.313 156.209 111.598 158.15C110.536 158.879 109.459 160.842 108.629 163.118C108.625 163.13 108.625 163.143 108.629 163.155C107.333 166.723 106.606 171.093 107.406 173.115Z" fill="url(#paint26_linear_301_32111)"/>
<path fill-rule="evenodd" clip-rule="evenodd" d="M119.232 172.64L119.182 172.793H124.036L123.06 168.547C123.06 168.547 124.829 166.898 124.472 165.198C124.152 163.636 122.289 163.199 120.71 163.476C120.316 163.514 119.935 163.632 119.588 163.822C119.241 164.013 118.937 164.273 118.694 164.585C117.806 166.044 120.491 168.547 120.491 168.547L119.232 172.64Z" fill="url(#paint27_linear_301_32111)"/>
<path fill-rule="evenodd" clip-rule="evenodd" d="M120.491 168.547L119.232 172.677H121.699L120.724 168.394C120.724 168.394 122.493 166.738 122.136 165.03C122.054 164.664 121.875 164.328 121.619 164.054C121.364 163.781 121.039 163.581 120.681 163.476C120.287 163.514 119.905 163.632 119.559 163.823C119.212 164.013 118.908 164.273 118.665 164.585C117.806 166.044 120.491 168.547 120.491 168.547Z" fill="#624D52"/>
<path fill-rule="evenodd" clip-rule="evenodd" d="M108.651 163.126C109.753 161.03 111.512 159.355 113.658 158.361C117.173 156.822 125.549 159.091 126.852 159.412C129.268 159.937 131.75 165.366 131.75 165.366L134.355 171.203C134.428 169.744 131.444 160.047 126.852 158.157C124.611 157.238 114.335 156.216 111.62 158.157C110.594 158.908 109.48 160.849 108.651 163.126Z" fill="#ECD9CA"/>
<path style="mix-blend-mode:multiply" opacity="0.6" fill-rule="evenodd" clip-rule="evenodd" d="M144.18 155.997H141.218L142.637 156.88L144.18 155.997Z" fill="url(#paint28_linear_301_32111)"/>
<path style="mix-blend-mode:multiply" opacity="0.18" fill-rule="evenodd" clip-rule="evenodd" d="M164.477 190.998L154.609 198.856L153.721 209.545L166.602 209.458L164.477 190.998Z" fill="url(#paint29_linear_301_32111)"/>
<g style="mix-blend-mode:multiply" opacity="0.6">
<path fill-rule="evenodd" clip-rule="evenodd" d="M150.337 194.245L146.487 209.546L151.261 209.845L150.337 194.245Z" fill="#CAA4CA"/>
</g>
<path style="mix-blend-mode:multiply" opacity="0.6" fill-rule="evenodd" clip-rule="evenodd" d="M58.1221 211.209L61.6445 198.294L66.0984 195.741V180.951L63.0127 180.754L62.7361 170.502L64.1917 168.722L62.1103 168.445L61.6518 158.711L62.1103 157.084C62.1103 157.084 53.61 145.476 44.1491 145.089C34.6881 144.702 32.8542 148.679 32.8542 148.679L26.5299 150.306L28.5385 142.681L42.366 136.114L57.8383 138.354L67.3793 154.582L72.0224 185.008L70.2321 211.632L58.1221 211.209Z" fill="url(#paint30_linear_301_32111)"/>
<path fill-rule="evenodd" clip-rule="evenodd" d="M10.3735 209.538L14.9876 209.458L16.6032 197.557C16.6032 197.557 17.7094 183.432 18.6555 177.252C19.6016 171.072 25.9913 153.049 30.0159 146.286C34.0404 139.522 43.5887 137.026 43.5887 137.026C46.2959 136.72 59.4903 141.9 62.7288 147.884C65.9674 153.867 70.3995 174.815 70.6396 178.383C70.8798 181.95 69.497 211.596 69.497 211.596H74.4313V211.457C74.4313 209.268 74.0892 180.965 73.4197 173.195C72.7356 165.103 66.142 145.811 62.1102 141.331C58.0784 136.851 43.545 132.532 43.545 132.532H43.5086C42.7808 132.882 31.9881 134.801 26.2315 141.93C17.4983 152.765 15.1404 171.159 13.7576 175.303C12.4186 179.316 10.49 207.641 10.3808 209.407C10.3739 209.45 10.3714 209.494 10.3735 209.538Z" fill="url(#paint31_linear_301_32111)"/>
<path style="mix-blend-mode:multiply" opacity="0.18" fill-rule="evenodd" clip-rule="evenodd" d="M85.2094 179.097L74.8898 175.843L74.4313 211.515L87.531 211.231C87.531 211.231 86.1337 187.758 85.2094 179.097Z" fill="url(#paint32_linear_301_32111)"/>
<path style="mix-blend-mode:multiply" opacity="0.6" fill-rule="evenodd" clip-rule="evenodd" d="M70.6541 181.038L70.625 182.687H24.5794L22.3961 179.827L70.6541 181.038Z" fill="url(#paint33_linear_301_32111)"/>
<path style="mix-blend-mode:multiply" opacity="0.6" fill-rule="evenodd" clip-rule="evenodd" d="M149.529 179.535L147.884 184.322L106.045 182.688L85.6679 184.336L85.4641 181.921L125.651 180.338C125.651 180.338 142.317 179.076 149.529 179.535Z" fill="url(#paint34_linear_301_32111)"/>
<path fill-rule="evenodd" clip-rule="evenodd" d="M78.6742 146.585C78.6742 146.585 76.7238 143.747 76.2507 143.542C75.7777 143.338 64.8249 142.659 64.4828 142.813C64.1408 142.966 64.2645 144.702 64.2645 144.702C64.2645 144.702 62.6125 141.054 59.7378 139.515C59.7378 139.515 62.1685 140.361 63.0564 140.565C63.9443 140.77 73.6672 140.427 73.6672 140.427L72.7866 138.727C72.7866 138.727 77.4079 142.922 78.6742 146.585Z" fill="#F1E3D8"/>
<path fill-rule="evenodd" clip-rule="evenodd" d="M139.879 136.735L143.925 138.464C143.925 138.464 136.029 138.384 135.534 138.143C135.039 137.902 130.986 136.596 130.986 136.596C130.986 136.596 134.93 138.34 135.84 139.201C136.716 140.123 137.535 141.097 138.293 142.119C138.293 142.119 137.565 140.062 137.565 139.719C137.565 139.376 144.842 138.749 145.81 139.157C146.817 139.704 147.766 140.351 148.641 141.091C148.641 141.091 147.186 139.529 146.502 138.953C145.818 138.376 139.879 136.735 139.879 136.735Z" fill="#F1E3D8"/>
<path fill-rule="evenodd" clip-rule="evenodd" d="M160.737 162.922C160.737 162.922 160.591 163.257 158.233 164.125C155.875 164.994 151.261 165.366 151.261 165.366H161.363C161.2 164.54 160.991 163.724 160.737 162.922Z" fill="#ECD9CA"/>
<path fill-rule="evenodd" clip-rule="evenodd" d="M72.9103 169.758C72.9103 169.758 76.6146 175.595 82.1456 176.164C84.1688 176.383 84.3653 173.414 84.3653 173.414L85.486 181.921C85.486 181.921 84.5982 179.222 83.8267 178.66C83.0553 178.098 74.9335 176.281 74.9335 176.281L73.6963 177.916C73.6963 177.916 73.3397 171.509 72.9103 169.758Z" fill="#D3B4A7"/>
<path fill-rule="evenodd" clip-rule="evenodd" d="M114.888 196.055L120.353 197.266C120.353 197.266 107.814 198.134 104.546 198.061C101.278 197.988 96.1113 197.689 96.1113 197.689L95.027 196.689C95.027 196.689 109.997 197.28 114.888 196.055Z" fill="#ECD9CA"/>
<path fill-rule="evenodd" clip-rule="evenodd" d="M151.261 209.844L144.18 208.721L122.187 209.283L91.0753 209.844L87.3491 208.721L87.5092 211.209L151.261 209.844Z" fill="url(#paint35_linear_301_32111)"/>
<path style="mix-blend-mode:screen" fill-rule="evenodd" clip-rule="evenodd" d="M124.138 146.162L108.651 147.979H101.235L87.1817 147.847L79.3946 148.431L79.1981 147.847L95.5218 146.286L124.138 146.162Z" fill="url(#paint36_linear_301_32111)"/>
<path style="mix-blend-mode:multiply" opacity="0.6" fill-rule="evenodd" clip-rule="evenodd" d="M18.9902 209.845L28.3857 209.531L45.8447 210.049L55.393 210.29L69.497 211.603L18.9902 209.845Z" fill="url(#paint37_linear_301_32111)"/>
<path fill-rule="evenodd" clip-rule="evenodd" d="M79.1982 147.847L102.712 146.286H114.888L124.138 146.162L78.3322 145.862L79.1982 147.847Z" fill="url(#paint38_linear_301_32111)"/>
<path fill-rule="evenodd" clip-rule="evenodd" d="M148.074 188.736L138.962 190.188L148.074 190.998V188.736Z" fill="url(#paint39_linear_301_32111)"/>
<path style="mix-blend-mode:screen" fill-rule="evenodd" clip-rule="evenodd" d="M148.074 190.998L148.336 192.093L140.461 191.545L135.221 190.998L138.962 190.188L148.074 190.998Z" fill="url(#paint40_linear_301_32111)"/>
<g style="mix-blend-mode:multiply" opacity="0.6">
<path d="M123.941 137.749L115.965 136.545L109.742 138.201L115.259 135.239L123.941 137.749Z" fill="#704786"/>
</g>
<g style="mix-blend-mode:multiply" opacity="0.6">
<path d="M92.7637 137.734L82.7278 136.224L76.7238 136.443L82.1383 135.224L92.7637 137.734Z" fill="#704786"/>
</g>
<path fill-rule="evenodd" clip-rule="evenodd" d="M144.318 14.1913C144.318 14.1913 140.156 7.1576 140.338 -0.000183105C140.338 -0.000183105 120.593 3.39265 104.976 14.8553C105.408 15.8003 105.77 16.7758 106.06 17.7739C106.405 18.8476 106.558 19.974 106.511 21.101C106.249 24.3188 101.417 29.1271 98.5713 28.0764C97.7699 27.7543 97.0511 27.2555 96.468 26.6171C95.8467 25.9527 95.3045 25.2182 94.8524 24.4282C86.0101 35.3217 84.8311 46.135 84.6637 48.6669V49.2214C88.299 54.2572 92.9105 58.5058 98.2219 61.7129C106.613 66.565 134.61 54.5697 134.61 54.5697C134.61 54.5697 151.094 32.571 150.737 5.7348C150.745 5.7348 148.838 12.5423 144.318 14.1913ZM96.5917 38.2695C96.2279 39.5245 92.509 40.5898 91.7521 39.5245C90.9952 38.4592 90.7551 36.0879 91.7521 34.9277C94.0446 32.301 95.3909 33.9719 95.3909 33.9719C95.3909 33.9719 96.9629 37.0364 96.5917 38.2914V38.2695Z" fill="url(#paint41_linear_301_32111)"/>
<path d="M116.634 122.66C116.634 122.66 115.237 126.592 112.995 127.687C110.754 128.781 107.676 127.008 107.676 127.008L116.634 122.66Z" fill="url(#paint42_linear_301_32111)"/>
<path d="M136.168 71.8185L131.262 85.1929C131.262 85.1929 134.363 95.583 133.882 100.099C133.358 104.842 129.814 110.555 125.047 115.539C119.123 121.755 111.322 126.833 105.194 127.505C95.6166 128.541 80.7047 125.126 76.6074 122.893C73.9109 121.365 71.373 119.571 69.0314 117.538C71.5086 115.192 73.6866 112.548 75.5157 109.665C83.1864 97.8813 87.4729 81.7781 90.6459 74.8101C94.5831 66.0982 105.048 49.0173 107.53 45.5296C110.012 42.0419 114.495 40.1302 114.495 40.1302C114.34 39.9211 114.213 39.693 114.116 39.4517C117.289 41.5311 125.52 42.2462 125.986 42.29C135.309 47.6674 139.573 56.321 139.581 59.8962C139.603 65.405 136.168 71.8185 136.168 71.8185Z" fill="url(#paint43_linear_301_32111)"/>
<path fill-rule="evenodd" clip-rule="evenodd" d="M98.5784 60.0347C100.484 65.1392 103.608 69.6983 107.675 73.3142C114.225 78.9616 131.83 83.6386 131.83 83.6386C131.83 83.6386 134.741 96.5752 133.868 100.092C132.994 103.609 130.724 107.943 125.862 109.439L126.364 108.191C126.364 108.191 123.788 109.913 115.091 112.985C115.091 112.985 115.681 110.497 114.859 108.658C113.439 105.491 106.853 97.1078 102.843 88.2645C102.725 90.3249 102.972 92.39 103.571 94.3643C103.571 94.3643 97.7488 85.3898 96.6135 75.3937C95.4782 65.3976 96.6135 63.4349 96.6135 63.4349L98.5784 60.0347Z" fill="url(#paint44_linear_301_32111)"/>
<path style="mix-blend-mode:multiply" opacity="0.6" d="M139.588 59.8303C139.588 59.8303 137.405 60.3191 125.76 53.8472L119.509 46.8792C119.509 46.8792 109.924 53.8545 112.18 63.6609C112.18 63.6609 106.46 67.3091 98.6075 60.0127C98.6075 60.0127 101.671 71.4462 115.091 77.6846C115.091 77.6846 106.649 74.372 100.536 64.4635C100.536 64.4635 108.774 80.3624 120.462 90.8108C124.268 94.3423 128.242 97.4579 128.242 97.4579C128.242 97.4579 134.625 97.9978 133.635 93.4886L131.837 83.6166L136.204 71.7964C136.204 71.7964 140.432 63.4785 139.588 59.8303Z" fill="url(#paint45_linear_301_32111)"/>
<path fill-rule="evenodd" clip-rule="evenodd" d="M122.18 86.5062C122.18 86.5062 115.565 71.8186 117.086 67.0029L126.03 81.5374L122.18 86.5062Z" fill="url(#paint46_linear_301_32111)"/>
<path fill-rule="evenodd" clip-rule="evenodd" d="M120.455 90.833C134.035 88.2865 137.769 79.5308 137.769 79.5308C138.176 73.628 134.945 68.3965 134.945 68.3965C128.191 68.0171 126.328 69.5931 123.526 69.4326C123.337 69.4326 123.148 69.4326 122.944 69.3961C120.83 69.0378 118.82 68.2183 117.056 66.9956C116.722 70.3082 122.689 79.6111 122.937 82.3181C123.184 85.025 120.455 90.833 120.455 90.833Z" fill="url(#paint47_linear_301_32111)"/>
<path d="M125.586 57.8459C126.488 61.5816 123.126 66.3681 119.232 64.9088C115.135 63.3692 114.611 58.2545 117.711 55.3724C120.812 52.4903 124.661 54.0298 125.586 57.8459Z" fill="url(#paint48_linear_301_32111)"/>
<path d="M125.018 58.4733C125.833 61.8662 122.587 66.2002 119.065 64.8796C115.346 63.486 115.048 58.9622 117.864 56.3501C120.681 53.738 124.181 55.0148 125.018 58.4733Z" fill="url(#paint49_linear_301_32111)"/>
<path d="M116.933 57.5101C116.392 58.2271 116.145 59.1236 116.241 60.0169C116.337 60.9102 116.769 61.7333 117.449 62.3185C117.787 62.5892 118.176 62.788 118.592 62.9027C119.009 63.0174 119.445 63.0455 119.873 62.9854C120.301 62.9253 120.712 62.7782 121.081 62.5531C121.45 62.328 121.77 62.0297 122.02 61.6764C122.562 60.9601 122.81 60.0632 122.714 59.1693C122.618 58.2755 122.185 57.4522 121.503 56.8681C121.166 56.5973 120.777 56.3985 120.36 56.2838C119.943 56.1692 119.508 56.141 119.08 56.2011C118.652 56.2612 118.241 56.4084 117.871 56.6335C117.502 56.8586 117.183 57.1569 116.933 57.5101Z" fill="url(#paint50_linear_301_32111)"/>
<path d="M121.197 60.7572C121.035 60.8974 120.931 61.0941 120.906 61.3078C120.882 61.5216 120.939 61.7367 121.066 61.91C121.127 61.9938 121.204 62.0638 121.293 62.1155C121.382 62.1671 121.481 62.1992 121.584 62.2095C121.686 62.2198 121.79 62.2083 121.888 62.1755C121.985 62.1427 122.075 62.0895 122.151 62.0195C122.314 61.8814 122.419 61.6858 122.444 61.4728C122.468 61.2598 122.41 61.0455 122.282 60.8739C122.222 60.7896 122.145 60.7189 122.056 60.6666C121.967 60.6143 121.868 60.5816 121.766 60.5705C121.663 60.5595 121.56 60.5704 121.462 60.6026C121.364 60.6348 121.274 60.6875 121.197 60.7572Z" fill="white"/>
<path style="mix-blend-mode:multiply" opacity="0.6" fill-rule="evenodd" clip-rule="evenodd" d="M69.0167 117.538C71.3575 119.57 73.8955 121.362 76.5927 122.886C80.6973 125.133 95.6019 128.541 105.179 127.505C111.307 126.833 119.109 121.755 125.033 115.546C125.073 115.508 125.11 115.467 125.142 115.422C125.142 115.422 114.225 117.246 92.589 109.534C94.4181 102.004 95.0906 94.239 94.5831 86.5062L75.5011 109.665L69.0167 117.538Z" fill="url(#paint51_linear_301_32111)"/>
<path fill-rule="evenodd" clip-rule="evenodd" d="M119.742 39.4006L120.28 39.6779C120.229 39.6532 120.175 39.6337 120.12 39.6195L119.742 39.4006Z" fill="url(#paint52_linear_301_32111)"/>
<path style="mix-blend-mode:multiply" fill-rule="evenodd" clip-rule="evenodd" d="M94.5831 86.5062C94.5831 86.5062 95.7548 108.811 89.0448 115.787C82.3349 122.762 72.3063 120.121 72.3063 120.121L69.0459 117.538L94.5831 86.5062Z" fill="url(#paint53_linear_301_32111)"/>
<path fill-rule="evenodd" clip-rule="evenodd" d="M94.6267 67.0029C94.6267 67.0029 96.679 95.7362 89.7216 105.864C82.7642 115.991 64.017 118.486 64.017 118.486C68.742 113.037 73.1755 107.34 77.2987 101.42C84.096 91.5845 94.6267 67.0029 94.6267 67.0029Z" fill="url(#paint54_linear_301_32111)"/>
<path d="M113.607 127.3L116.627 134.013L123.563 137.501L116.627 136.26L110.681 137.501L114.487 134.181L111.423 128.037L113.607 127.3Z" fill="#FFCE5C"/>
<path d="M85.8135 128.118L84.2561 133.349L92.458 137.501L81.8253 135.509L76.2216 136.341L82.3566 133.349L83.39 127.694L85.8135 128.118Z" fill="#FFCE5C"/>
<g style="mix-blend-mode:multiply">
<path fill-rule="evenodd" clip-rule="evenodd" d="M94.8596 80.4136C94.8596 80.4136 93.6151 96.4657 88.8992 102.339C84.1833 108.213 69.7663 112.985 69.7663 112.985L79.824 101.953L73.8854 106.155L64.017 118.486C64.017 118.486 82.3421 115.728 88.7609 107.097C95.42 98.1512 94.8596 80.4136 94.8596 80.4136Z" fill="#DECAD4"/>
</g>
<g style="mix-blend-mode:multiply" opacity="0.6">
<path fill-rule="evenodd" clip-rule="evenodd" d="M120.455 90.8329C134.035 88.2864 137.769 79.5308 137.769 79.5308C137.769 79.5308 130.738 78.0715 127.42 75.9774L123.526 69.4106C123.337 69.4106 123.148 69.4106 122.944 69.3742C120.83 69.0158 118.82 68.1963 117.056 66.9736C116.722 70.2862 122.689 79.5891 122.937 82.2961C123.184 85.0031 120.455 90.8329 120.455 90.8329Z" fill="#FFCAD4"/>
</g>
<path d="M91.803 126.914C91.803 126.914 87.6547 128.468 84.6127 128.045C81.5706 127.621 79.824 124.199 79.824 124.199C79.824 124.199 86.1337 119.982 91.803 126.914Z" fill="url(#paint55_linear_301_32111)"/>
<path style="mix-blend-mode:multiply" fill-rule="evenodd" clip-rule="evenodd" d="M98.2728 56.3064C98.2728 56.3064 96.8172 50.9362 97.1375 48.4335C97.4577 45.9309 111.482 28.1568 138.132 30.5354C135.304 30.8712 132.528 31.5524 129.865 32.5638C129.865 32.5638 135.731 38.598 135.585 44.5883L98.6294 58.2326L98.2728 56.3064Z" fill="url(#paint56_linear_301_32111)"/>
<path fill-rule="evenodd" clip-rule="evenodd" d="M136.48 49.6155L135.447 50.5713L134.719 49.6884C128.605 47.5219 121.975 47.2901 115.725 49.0245C105.019 51.8847 100.493 56.3209 100.493 56.3209C99.7648 51.2134 100.187 42.4577 110.128 37.124C116.002 33.917 122.892 33.1318 129.334 34.9351C133.426 38.5384 135.966 43.5908 136.422 49.0318C136.48 49.3966 136.48 49.6155 136.48 49.6155Z" fill="url(#paint57_linear_301_32111)"/>
<path style="mix-blend-mode:screen" fill-rule="evenodd" clip-rule="evenodd" d="M94.8523 24.4137C95.3044 25.2037 95.8466 25.9382 96.4679 26.6026C91.0263 33.2357 87.0034 40.9199 84.649 49.1777V48.6232C84.831 46.1205 86.01 35.3072 94.8523 24.4137Z" fill="url(#paint58_linear_301_32111)"/>
<path style="mix-blend-mode:screen" fill-rule="evenodd" clip-rule="evenodd" d="M140.338 -0.000183105L140.061 1.79473C140.061 1.79473 126.772 5.19486 108.411 16.2781C107.61 16.7597 106.839 17.2631 106.082 17.7885C105.792 16.7904 105.429 15.8149 104.997 14.8699C120.593 3.39265 140.338 -0.000183105 140.338 -0.000183105Z" fill="url(#paint59_linear_301_32111)"/>
<path style="mix-blend-mode:screen" fill-rule="evenodd" clip-rule="evenodd" d="M144.318 14.1915C146.071 13.9744 147.702 13.1786 148.954 11.9296C151.218 9.78443 150.745 5.73492 150.745 5.73492C150.745 5.73492 149.675 11.9223 144.318 14.1915Z" fill="url(#paint60_linear_301_32111)"/>
<path style="mix-blend-mode:multiply" opacity="0.6" fill-rule="evenodd" clip-rule="evenodd" d="M136.48 49.6155L135.447 50.5713L135.389 49.6155C129.033 47.5215 122.209 47.3162 115.739 49.0245C105.034 51.8847 100.507 56.3209 100.507 56.3209C99.7793 51.2134 100.201 42.4577 110.143 37.124C116.017 33.917 122.906 33.1318 129.348 34.9351C129.988 35.4987 130.593 36.1006 131.16 36.7373C128.73 36.5987 120.302 36.409 112.704 39.9696C103.971 44.0775 102.232 49.6228 102.159 49.9C104.603 47.6211 107.382 45.7313 110.397 44.2964C107.595 46.0748 105.248 48.4861 103.542 51.3374C109.962 48.3618 116.897 46.662 123.963 46.3321C131.328 46.0986 134.879 47.7914 136.437 49.0318C136.48 49.3966 136.48 49.6155 136.48 49.6155Z" fill="url(#paint61_linear_301_32111)"/>
<defs>
<linearGradient id="paint0_linear_301_32111" x1="0" y1="210.913" x2="179" y2="210.913" gradientUnits="userSpaceOnUse">
<stop offset="0.02" stop-color="#F0C2D6"/>
<stop offset="0.99" stop-color="#BD89C4"/>
</linearGradient>
<linearGradient id="paint1_linear_301_32111" x1="49.469" y1="144.133" x2="49.469" y2="112.985" gradientUnits="userSpaceOnUse">
<stop stop-color="#CDDB05"/>
<stop offset="1" stop-color="#6DA000"/>
</linearGradient>
<linearGradient id="paint2_linear_301_32111" x1="50.1967" y1="143.965" x2="50.1967" y2="118.486" gradientUnits="userSpaceOnUse">
<stop stop-color="#3989E8"/>
<stop offset="1" stop-color="#5142D8"/>
</linearGradient>
<linearGradient id="paint3_linear_301_32111" x1="66.9717" y1="124.506" x2="66.9717" y2="117.246" gradientUnits="userSpaceOnUse">
<stop offset="0.02" stop-color="#F0C2D6"/>
<stop offset="0.99" stop-color="#BD89C4"/>
</linearGradient>
<linearGradient id="paint4_linear_301_32111" x1="104.684" y1="137.501" x2="104.684" y2="109.534" gradientUnits="userSpaceOnUse">
<stop stop-color="#6DA000"/>
<stop offset="1" stop-color="#818B05"/>
</linearGradient>
<linearGradient id="paint5_linear_301_32111" x1="89.7362" y1="210.494" x2="89.7362" y2="135.735" gradientUnits="userSpaceOnUse">
<stop stop-color="#D45942"/>
<stop offset="1" stop-color="#FF8A36"/>
</linearGradient>
<linearGradient id="paint6_linear_301_32111" x1="46.7618" y1="210.29" x2="46.7618" y2="136.166" gradientUnits="userSpaceOnUse">
<stop stop-color="#AB3C3E"/>
<stop offset="1" stop-color="#C54919"/>
</linearGradient>
<linearGradient id="paint7_linear_301_32111" x1="166.603" y1="202.14" x2="10.3736" y2="202.14" gradientUnits="userSpaceOnUse">
<stop stop-color="#E5CCAE"/>
<stop offset="1" stop-color="#907C7E"/>
</linearGradient>
<linearGradient id="paint8_linear_301_32111" x1="139.879" y1="209.845" x2="139.879" y2="132.568" gradientUnits="userSpaceOnUse">
<stop stop-color="#907C7E"/>
<stop offset="1" stop-color="#E5CCAE"/>
</linearGradient>
<linearGradient id="paint9_linear_301_32111" x1="48.945" y1="211.61" x2="48.945" y2="131.583" gradientUnits="userSpaceOnUse">
<stop stop-color="#907C7E"/>
<stop offset="1" stop-color="#E5CCAE"/>
</linearGradient>
<linearGradient id="paint10_linear_301_32111" x1="133.438" y1="209.845" x2="133.438" y2="133.218" gradientUnits="userSpaceOnUse">
<stop stop-color="#6D5472"/>
<stop offset="1" stop-color="#9F7767"/>
</linearGradient>
<linearGradient id="paint11_linear_301_32111" x1="151.261" y1="202.723" x2="86.5631" y2="202.723" gradientUnits="userSpaceOnUse">
<stop stop-color="#B0958C"/>
<stop offset="1" stop-color="#978588"/>
</linearGradient>
<linearGradient id="paint12_linear_301_32111" x1="148.336" y1="162.921" x2="81.4397" y2="162.921" gradientUnits="userSpaceOnUse">
<stop stop-color="#CCBBA7"/>
<stop offset="1" stop-color="#B2A5A7"/>
</linearGradient>
<linearGradient id="paint13_linear_301_32111" x1="148.336" y1="168.875" x2="83.8268" y2="168.875" gradientUnits="userSpaceOnUse">
<stop stop-color="#9F7767"/>
<stop offset="1" stop-color="#7A637E"/>
</linearGradient>
<linearGradient id="paint14_linear_301_32111" x1="29.8703" y1="209.845" x2="29.8703" y2="136.975" gradientUnits="userSpaceOnUse">
<stop stop-color="#6D3D45"/>
<stop offset="1" stop-color="#63506F"/>
</linearGradient>
<linearGradient id="paint15_linear_301_32111" x1="70.2393" y1="203.599" x2="18.9902" y2="203.599" gradientUnits="userSpaceOnUse">
<stop stop-color="#9F7767"/>
<stop offset="1" stop-color="#7A637E"/>
</linearGradient>
<linearGradient id="paint16_linear_301_32111" x1="149.566" y1="175.398" x2="83.8268" y2="175.398" gradientUnits="userSpaceOnUse">
<stop stop-color="#B79F97"/>
<stop offset="1" stop-color="#B2A5A7"/>
</linearGradient>
<linearGradient id="paint17_linear_301_32111" x1="68.9075" y1="163.031" x2="22.3961" y2="163.031" gradientUnits="userSpaceOnUse">
<stop stop-color="#9F7767"/>
<stop offset="1" stop-color="#7A637E"/>
</linearGradient>
<linearGradient id="paint18_linear_301_32111" x1="70.7051" y1="174.953" x2="22.3961" y2="174.953" gradientUnits="userSpaceOnUse">
<stop stop-color="#9F7767"/>
<stop offset="1" stop-color="#7A637E"/>
</linearGradient>
<linearGradient id="paint19_linear_301_32111" x1="45.6554" y1="169.999" x2="45.6554" y2="167.919" gradientUnits="userSpaceOnUse">
<stop stop-color="#6D4B45"/>
<stop offset="1" stop-color="#63506F"/>
</linearGradient>
<linearGradient id="paint20_linear_301_32111" x1="119.181" y1="180.725" x2="119.181" y2="156.88" gradientUnits="userSpaceOnUse">
<stop stop-color="#7A637E"/>
<stop offset="1" stop-color="#9F7767"/>
</linearGradient>
<linearGradient id="paint21_linear_301_32111" x1="67.4157" y1="211.632" x2="67.4157" y2="139.493" gradientUnits="userSpaceOnUse">
<stop stop-color="#AA9B9D"/>
<stop offset="1" stop-color="#E5CCAE"/>
</linearGradient>
<linearGradient id="paint22_linear_301_32111" x1="150.337" y1="195.792" x2="86.5631" y2="195.792" gradientUnits="userSpaceOnUse">
<stop stop-color="#AA9B9D"/>
<stop offset="1" stop-color="#E5CCAE"/>
</linearGradient>
<linearGradient id="paint23_linear_301_32111" x1="163.466" y1="203.898" x2="124.782" y2="137.062" gradientUnits="userSpaceOnUse">
<stop stop-color="#AA9B9D"/>
<stop offset="1" stop-color="#E5CCAE"/>
</linearGradient>
<linearGradient id="paint24_linear_301_32111" x1="114.305" y1="159.981" x2="92.4903" y2="122.285" gradientUnits="userSpaceOnUse">
<stop/>
<stop offset="1" stop-color="#D7883D"/>
</linearGradient>
<linearGradient id="paint25_linear_301_32111" x1="129.785" y1="176.164" x2="104.619" y2="176.164" gradientUnits="userSpaceOnUse">
<stop stop-color="#FFC4C0"/>
<stop offset="0.99" stop-color="#90609A"/>
</linearGradient>
<linearGradient id="paint26_linear_301_32111" x1="120.717" y1="180.338" x2="120.717" y2="157.055" gradientUnits="userSpaceOnUse">
<stop stop-color="#AA9B9D"/>
<stop offset="1" stop-color="#E5CCAE"/>
</linearGradient>
<linearGradient id="paint27_linear_301_32111" x1="121.518" y1="172.793" x2="121.518" y2="163.359" gradientUnits="userSpaceOnUse">
<stop stop-color="#7A637E"/>
<stop offset="1" stop-color="#9F7767"/>
</linearGradient>
<linearGradient id="paint28_linear_301_32111" x1="144.18" y1="156.442" x2="141.218" y2="156.442" gradientUnits="userSpaceOnUse">
<stop stop-color="#FFC4C0"/>
<stop offset="0.99" stop-color="#90609A"/>
</linearGradient>
<linearGradient id="paint29_linear_301_32111" x1="160.162" y1="209.538" x2="160.162" y2="190.998" gradientUnits="userSpaceOnUse">
<stop stop-color="#FFC4C0"/>
<stop offset="0.99" stop-color="#90609A"/>
</linearGradient>
<linearGradient id="paint30_linear_301_32111" x1="72.037" y1="173.895" x2="26.5299" y2="173.895" gradientUnits="userSpaceOnUse">
<stop offset="0.01" stop-color="#B66054"/>
<stop offset="1" stop-color="#BF777C"/>
</linearGradient>
<linearGradient id="paint31_linear_301_32111" x1="42.4024" y1="211.632" x2="42.4024" y2="132.568" gradientUnits="userSpaceOnUse">
<stop stop-color="#7A637E"/>
<stop offset="1" stop-color="#9F7767"/>
</linearGradient>
<linearGradient id="paint32_linear_301_32111" x1="80.9739" y1="211.494" x2="80.9739" y2="175.821" gradientUnits="userSpaceOnUse">
<stop stop-color="#FFC4C0"/>
<stop offset="0.99" stop-color="#90609A"/>
</linearGradient>
<linearGradient id="paint33_linear_301_32111" x1="46.5287" y1="182.687" x2="46.5287" y2="179.827" gradientUnits="userSpaceOnUse">
<stop offset="0.01" stop-color="#90609A"/>
<stop offset="1" stop-color="#9783C0"/>
</linearGradient>
<linearGradient id="paint34_linear_301_32111" x1="149.529" y1="181.885" x2="85.4859" y2="181.885" gradientUnits="userSpaceOnUse">
<stop offset="0.01" stop-color="#AE429A"/>
<stop offset="1" stop-color="#E08368"/>
</linearGradient>
<linearGradient id="paint35_linear_301_32111" x1="151.261" y1="209.961" x2="87.3491" y2="209.961" gradientUnits="userSpaceOnUse">
<stop stop-color="#7A637E"/>
<stop offset="1" stop-color="#9F7767"/>
</linearGradient>
<linearGradient id="paint36_linear_301_32111" x1="124.138" y1="147.293" x2="79.1981" y2="147.293" gradientUnits="userSpaceOnUse">
<stop/>
<stop offset="1" stop-color="#D7883D"/>
</linearGradient>
<linearGradient id="paint37_linear_301_32111" x1="69.497" y1="210.567" x2="18.9902" y2="210.567" gradientUnits="userSpaceOnUse">
<stop offset="0.01" stop-color="#90609A"/>
<stop offset="1" stop-color="#9783C0"/>
</linearGradient>
<linearGradient id="paint38_linear_301_32111" x1="101.235" y1="147.847" x2="101.235" y2="145.862" gradientUnits="userSpaceOnUse">
<stop stop-color="#9E4044"/>
<stop offset="1" stop-color="#A83E36"/>
</linearGradient>
<linearGradient id="paint39_linear_301_32111" x1="143.518" y1="190.998" x2="143.518" y2="188.736" gradientUnits="userSpaceOnUse">
<stop stop-color="#9E4044"/>
<stop offset="1" stop-color="#A83E36"/>
</linearGradient>
<linearGradient id="paint40_linear_301_32111" x1="148.336" y1="191.144" x2="135.221" y2="191.144" gradientUnits="userSpaceOnUse">
<stop stop-color="#D7883D"/>
<stop offset="1"/>
</linearGradient>
<linearGradient id="paint41_linear_301_32111" x1="84.6491" y1="31.4328" x2="150.745" y2="31.4328" gradientUnits="userSpaceOnUse">
<stop stop-color="#5B3255"/>
<stop offset="1" stop-color="#39152F"/>
</linearGradient>
<linearGradient id="paint42_linear_301_32111" x1="112.159" y1="128.044" x2="112.159" y2="122.66" gradientUnits="userSpaceOnUse">
<stop stop-color="#3D2CBF"/>
<stop offset="1" stop-color="#1B4A97"/>
</linearGradient>
<linearGradient id="paint43_linear_301_32111" x1="104.299" y1="127.694" x2="104.299" y2="39.4225" gradientUnits="userSpaceOnUse">
<stop stop-color="#5142D8"/>
<stop offset="1" stop-color="#3989E8"/>
</linearGradient>
<linearGradient id="paint44_linear_301_32111" x1="115.07" y1="112.985" x2="115.07" y2="60.0347" gradientUnits="userSpaceOnUse">
<stop stop-color="#6DA000"/>
<stop offset="1" stop-color="#CDDB05"/>
</linearGradient>
<linearGradient id="paint45_linear_301_32111" x1="110.616" y1="88.5417" x2="129.221" y2="51.8428" gradientUnits="userSpaceOnUse">
<stop offset="0.02" stop-color="#F0C2D6"/>
<stop offset="0.99" stop-color="#BD89C4"/>
</linearGradient>
<linearGradient id="paint46_linear_301_32111" x1="121.423" y1="86.5062" x2="121.423" y2="67.0029" gradientUnits="userSpaceOnUse">
<stop offset="0.01" stop-color="#FF5A55"/>
<stop offset="1" stop-color="#FF9536"/>
</linearGradient>
<linearGradient id="paint47_linear_301_32111" x1="127.427" y1="90.833" x2="127.427" y2="67.0102" gradientUnits="userSpaceOnUse">
<stop stop-color="#FF9D31"/>
<stop offset="1" stop-color="#FFCC1B"/>
</linearGradient>
<linearGradient id="paint48_linear_301_32111" x1="100.421" y1="62.9895" x2="108.811" y2="56.2304" gradientUnits="userSpaceOnUse">
<stop stop-color="#3D2CBF"/>
<stop offset="1" stop-color="#1B4A97"/>
</linearGradient>
<linearGradient id="paint49_linear_301_32111" x1="100.582" y1="63.2355" x2="108.289" y2="57.0263" gradientUnits="userSpaceOnUse">
<stop stop-color="white"/>
<stop offset="1" stop-color="#D0C7F8"/>
</linearGradient>
<linearGradient id="paint50_linear_301_32111" x1="97.4853" y1="80.6841" x2="101.672" y2="75.307" gradientUnits="userSpaceOnUse">
<stop offset="0.01" stop-color="#934A1A"/>
<stop offset="0.98" stop-color="#33112F"/>
</linearGradient>
<linearGradient id="paint51_linear_301_32111" x1="97.0866" y1="127.694" x2="97.0866" y2="86.5062" gradientUnits="userSpaceOnUse">
<stop offset="0.02" stop-color="#F0C2D6"/>
<stop offset="0.99" stop-color="#BD89C4"/>
</linearGradient>
<linearGradient id="paint52_linear_301_32111" x1="120.011" y1="39.6633" x2="120.011" y2="39.386" gradientUnits="userSpaceOnUse">
<stop stop-color="#6DA000"/>
<stop offset="1" stop-color="#CDDB05"/>
</linearGradient>
<linearGradient id="paint53_linear_301_32111" x1="81.8327" y1="120.61" x2="81.8327" y2="86.5062" gradientUnits="userSpaceOnUse">
<stop offset="0.02" stop-color="#F0C2D6"/>
<stop offset="0.99" stop-color="#BD89C4"/>
</linearGradient>
<linearGradient id="paint54_linear_301_32111" x1="79.4819" y1="118.486" x2="79.4819" y2="67.0029" gradientUnits="userSpaceOnUse">
<stop stop-color="#6DA000"/>
<stop offset="1" stop-color="#CDDB05"/>
</linearGradient>
<linearGradient id="paint55_linear_301_32111" x1="85.8135" y1="128.118" x2="85.8135" y2="122.93" gradientUnits="userSpaceOnUse">
<stop stop-color="#3989E8"/>
<stop offset="1" stop-color="#5142D8"/>
</linearGradient>
<linearGradient id="paint56_linear_301_32111" x1="117.609" y1="58.2326" x2="117.609" y2="30.3165" gradientUnits="userSpaceOnUse">
<stop stop-color="#97C4C0"/>
<stop offset="0.99" stop-color="#90609A"/>
</linearGradient>
<linearGradient id="paint57_linear_301_32111" x1="100.303" y1="45.1501" x2="136.48" y2="45.1501" gradientUnits="userSpaceOnUse">
<stop stop-color="#89599A"/>
<stop offset="1" stop-color="#B13675"/>
</linearGradient>
<linearGradient id="paint58_linear_301_32111" x1="84.649" y1="36.8103" x2="96.4679" y2="36.8103" gradientUnits="userSpaceOnUse">
<stop/>
<stop offset="1" stop-color="#D7683D"/>
</linearGradient>
<linearGradient id="paint59_linear_301_32111" x1="122.653" y1="17.7885" x2="122.653" y2="-0.000183105" gradientUnits="userSpaceOnUse">
<stop stop-color="#5E1900"/>
<stop offset="1" stop-color="#D7683D"/>
</linearGradient>
<linearGradient id="paint60_linear_301_32111" x1="147.55" y1="14.1915" x2="147.55" y2="5.73492" gradientUnits="userSpaceOnUse">
<stop stop-color="#5E1900"/>
<stop offset="1" stop-color="#D7683D"/>
</linearGradient>
<linearGradient id="paint61_linear_301_32111" x1="118.396" y1="56.299" x2="118.396" y2="33.9939" gradientUnits="userSpaceOnUse">
<stop stop-color="#FFC4C0"/>
<stop offset="0.99" stop-color="#90609A"/>
</linearGradient>
</defs>
</svg>
