<svg width="150" height="200" viewBox="0 0 150 200" fill="none" xmlns="http://www.w3.org/2000/svg">
<path d="M68.16 29.8571L70.04 3.32705H68.16L66.72 1.32705C66.72 1.32705 70.8 -2.00295 76.08 1.88705L74.6 3.65706L73.04 3.43705L71.4 34.5171L68.16 29.8571Z" fill="url(#paint0_linear_301_31984)"/>
<g style="mix-blend-mode:multiply" opacity="0.26">
<path d="M74.5999 3.65727L76.08 1.88727C75.0324 1.08653 73.8305 0.511141 72.5499 0.197266C76.4199 1.57727 68.1599 3.32727 68.1599 3.32727H70.58C70.58 3.32727 71.01 2.91727 72.08 3.32727C73.15 3.73727 71.4399 8.32727 71.4399 8.32727L69.2399 22.4773L69.1499 23.8073C71.6699 21.4773 70.5899 28.0273 70.5899 28.0273L71.7499 28.1873L73.0599 3.43727L74.5999 3.65727Z" fill="#900040"/>
</g>
<path style="mix-blend-mode:color-dodge" opacity="0.28" d="M69.4101 19.7669L70.5801 3.29688H70.0401L68.8701 19.7669H69.4101Z" fill="url(#paint1_linear_301_31984)"/>
<path style="mix-blend-mode:color-dodge" opacity="0.28" d="M68.7 29.8572L69.1799 23.0372V22.4772H68.64V23.0472L68.1599 29.8672L71.3999 34.5272V33.8072L68.7 29.8572Z" fill="url(#paint2_linear_301_31984)"/>
<path d="M59.4099 9.43706L63.1599 21.2571L76.8199 20.4271L81.7299 10.6571C81.7299 10.6571 64.9699 2.76706 59.4099 9.43706Z" fill="url(#paint3_linear_301_31984)"/>
<g style="mix-blend-mode:multiply" opacity="0.18">
<path d="M79.41 9.67712L75.55 20.4971H75.61L80.2401 9.98712L79.41 9.67712Z" fill="#900040"/>
</g>
<g style="mix-blend-mode:multiply" opacity="0.18">
<path d="M62.0601 7.53711L65.92 21.0871H66.05L62.7701 7.28711C62.5201 7.35711 62.2901 7.44711 62.0601 7.53711Z" fill="#900040"/>
</g>
<g style="mix-blend-mode:multiply" opacity="0.18">
<path d="M67.24 6.76709L68.69 20.9071H68.75L68.11 6.81709C67.84 6.76709 67.55 6.76709 67.24 6.76709Z" fill="#900040"/>
</g>
<g style="mix-blend-mode:multiply" opacity="0.18">
<path d="M77.1401 8.84705L73.3301 20.637H73.4901L77.97 9.14705C77.7 9.03705 77.4301 8.93705 77.1401 8.84705Z" fill="#900040"/>
</g>
<g style="mix-blend-mode:multiply" opacity="0.18">
<path d="M71.3099 7.26709L70.6499 20.7671H70.7599L72.2399 7.46709L71.3099 7.26709Z" fill="#900040"/>
</g>
<g style="mix-blend-mode:multiply" opacity="0.26">
<path d="M69.04 18.0872C63.47 18.4572 60.04 11.4272 60.04 11.4272L63.16 21.2572L76.8201 20.4272L81.73 10.6572C79.7211 9.75125 77.657 8.97304 75.55 8.32715C75.55 8.32715 74.62 17.7672 69.04 18.0872Z" fill="#900040"/>
</g>
<path style="mix-blend-mode:color-dodge" opacity="0.28" d="M75.5499 8.32708C70.1799 6.68708 62.7599 5.41708 59.4099 9.43708L60.0399 11.4371C60.0399 11.4371 64.8099 7.44708 75.5499 8.32708Z" fill="url(#paint4_linear_301_31984)"/>
<path d="M89.61 17.9771L88.14 17.4271C87.5462 17.779 87.0536 18.2785 86.71 18.8771C78.51 20.4871 61.42 19.5871 57.59 19.3571L57.41 17.9771H55.5C55.0809 20.4021 55.5761 22.8963 56.89 24.9771L58.28 24.5271L58.11 23.2971C66.26 21.4671 81.21 23.1571 85.01 23.6371C84.94 24.0571 84.87 24.4971 84.81 24.9771L86.14 25.4171C86.14 25.4171 90.75 22.5271 89.61 17.9771Z" fill="url(#paint5_linear_301_31984)"/>
<path style="mix-blend-mode:color-dodge" opacity="0.28" d="M89.6099 17.9771L88.14 17.4271C87.5462 17.779 87.0535 18.2785 86.7099 18.8771C82.0785 19.5883 77.3948 19.9028 72.7099 19.8171H72.1699H69.3999H68.8599C63.7599 19.7271 59.31 19.4971 57.58 19.3871L57.3999 18.0071H55.4899C55.3757 18.6134 55.3287 19.2305 55.3499 19.8471C55.368 19.4211 55.4148 18.9968 55.4899 18.5771H57.3999L57.58 19.9571C59.31 20.0571 63.74 20.2971 68.82 20.3771H69.3599H72.14H72.6799C77.3645 20.4638 82.048 20.1527 86.6799 19.4471C87.0221 18.8448 87.5149 18.3418 88.1099 17.9871L89.58 18.5471C89.6755 18.9437 89.7291 19.3493 89.7399 19.7571C89.7929 19.1607 89.749 18.5596 89.6099 17.9771Z" fill="url(#paint6_linear_301_31984)"/>
<g style="mix-blend-mode:multiply" opacity="0.26">
<path d="M58.2399 24.527L58.0699 23.297C66.2199 21.467 81.1699 23.157 84.9699 23.637C84.8999 24.057 84.83 24.4971 84.77 24.9771L86.0999 25.417C86.0999 25.417 90.7099 22.5271 89.5699 17.9771C87.9299 18.4571 85.7999 24.1571 85.5699 23.0871C85.3399 22.0171 86.6599 19.447 86.6599 19.447C86.6599 19.447 83.6099 22.2371 70.5999 22.0871C57.5899 21.9371 57.5399 19.927 57.5399 19.927L57.3599 18.547C57.3599 18.547 57.4899 24.237 56.5299 23.307C55.9838 22.709 55.6044 21.9779 55.4299 21.187C55.6479 22.5303 56.1269 23.8179 56.8399 24.9771L58.2399 24.527Z" fill="#900040"/>
</g>
<path d="M108.42 179.457L138.31 146.767C138.31 146.767 106.64 157.867 78.81 151.357C50.98 144.847 108.42 179.457 108.42 179.457Z" fill="#241B2D"/>
<path d="M103.06 140.237L113.45 143.197L106.79 158.327L95.6899 157.227L103.06 140.237Z" fill="#511802"/>
<path d="M103.06 129.277L109.45 131.947L97.5301 159.957L61.3901 155.627V126.027L95.6901 124.397L103.06 129.277Z" fill="#601C07"/>
<g style="mix-blend-mode:multiply" opacity="0.18">
<path d="M98.57 157.517L106.79 158.327L110.79 149.327C108.2 153.587 105.64 156.937 104.62 155.597C102.25 152.487 106.21 141.097 106.21 141.097L105.66 140.947L109.5 131.947C97.5 161.347 78.17 148.347 78.17 148.347L72.96 157.007L97.58 159.957L98.57 157.517Z" fill="#900040"/>
</g>
<path d="M63.1601 142.107C63.1601 142.107 69.7801 139.017 79.5101 142.107L80.2701 138.697L67.4001 131.947L58.8901 133.657L63.1601 142.107Z" fill="#511802"/>
<g style="mix-blend-mode:color-dodge" opacity="0.17">
<path d="M82.6599 127.947L76.7299 154.597C76.7299 154.597 52.2399 147.887 52.1399 147.167C52.0399 146.447 61.8199 125.167 61.8199 125.167L82.6599 127.947Z" fill="#FF9A42"/>
</g>
<g style="mix-blend-mode:multiply" opacity="0.18">
<path d="M65.72 128.537L61.5701 152.717L67.4 126.767H70.71L66.9901 150.297L73.71 119.327L80.1 125.137L72.91 153.537L80.1 129.537L92.98 125.657L82.66 133.657L78.72 154.517L83.1401 135.387L89.61 131.947L83.91 157.207L90.8 133.207L98.96 126.257L85.42 170.677L99.23 129.337L102.38 131.097L91.8301 163.837L104.76 128.767L71.2001 111.517L63.61 123.767L65.72 128.537Z" fill="#900040"/>
</g>
<path d="M116.56 87.7671C116.56 87.7671 131.24 98.1271 137.24 111.447C137.24 111.447 118.37 106.567 95.0601 146.747C95.0601 146.747 85.8301 133.207 71.2401 133.207C56.6501 133.207 116.56 87.7671 116.56 87.7671Z" fill="url(#paint7_linear_301_31984)"/>
<path d="M95.4599 52.6171C95.4599 52.6171 120.33 55.7271 149.41 75.9271C149.41 75.9271 113 85.0271 90.7999 150.297C90.7999 150.297 76.5899 130.297 60.7999 139.867C45.0099 149.437 95.4599 52.6171 95.4599 52.6171Z" fill="url(#paint8_linear_301_31984)"/>
<path d="M7.10002 31.7671C7.10002 31.7671 71.24 16.8671 146.75 39.7671C146.75 39.7671 89.47 69.5171 87.25 140.767C87.25 140.767 67.87 119.197 56.91 144.407C45.95 169.617 -10.21 72.3771 7.10002 31.7671Z" fill="url(#paint9_linear_301_31984)"/>
<path d="M13.99 35.7671C13.99 35.7671 30.39 47.3871 42.63 56.8671C54.87 66.3471 63.94 58.4471 63.94 58.4471C63.94 58.4471 86.88 46.5771 111.01 41.5471C111.01 41.5471 97.68 49.3171 112.56 45.3171C112.56 45.3171 97.02 53.9771 109.45 54.1971C109.45 54.1971 100.4 59.2771 110.1 58.9371C110.1 58.9371 103.38 61.2071 112.56 60.2971C112.56 60.2971 87.16 68.5571 78.1 80.2471C78.1 80.2471 87.66 92.0071 90.58 98.5971C90.58 98.5971 80.81 93.9371 85.03 102.817C85.03 102.817 75.92 89.7171 80.25 99.9371C80.25 99.9371 73.65 99.9371 78.45 112.367C78.45 112.367 67.79 94.8471 60.45 92.0671C53.11 89.2871 28.24 105.257 28.24 105.257C28.24 105.257 39.1 93.9071 29.75 97.4571C29.75 97.4571 32.69 92.5771 22.44 96.5771C22.44 96.5771 26.05 90.5171 18.44 92.3271C18.44 92.3271 31.44 80.5171 44.14 80.2171C56.84 79.9171 34.82 74.9071 34.82 74.9071C34.82 74.9071 21.53 59.4971 10.24 57.4971C10.24 57.4971 26.8 60.6071 15.19 51.2871C15.19 51.2871 20.11 53.7271 15.29 48.3971C15.29 48.3971 21.19 48.8371 17.83 44.1771C17.8 44.1771 24.64 44.6171 13.99 35.7671Z" fill="url(#paint10_linear_301_31984)"/>
<path style="mix-blend-mode:multiply" opacity="0.26" d="M95.24 62.7673C85.24 65.3873 97.53 52.9473 97.53 52.9473C84.72 56.3973 89.61 50.8273 89.61 50.8273C80.61 53.2673 97.53 44.9873 97.53 44.9873C85.9874 48.541 74.7536 53.0292 63.94 58.4073C63.94 58.4073 54.86 66.2973 42.63 56.8273C37.63 52.9173 31.84 48.6573 26.82 44.9873C36.33 53.7973 21.73 45.0573 21.73 45.0573C36.73 57.2973 23.73 55.7173 23.73 55.7173C31.07 61.7173 23.73 61.3873 23.73 61.3873C26.61 64.9473 28.03 67.1673 28.5 68.4473C30.7389 70.4833 32.8685 72.6363 34.88 74.8973C34.88 74.8973 56.88 79.8973 44.2 80.2073C36.2 80.3973 28.12 85.1373 23.2 88.6373C38.51 83.6373 26.14 93.4273 26.14 93.4273C39.14 89.4273 34.89 94.1173 34.89 94.1173C44.77 92.5573 32.68 102.557 32.68 102.557C40.14 98.1173 55.03 89.9673 60.46 92.0273C64.04 93.3773 68.4 98.2173 71.93 102.827C70.29 94.2973 76.74 94.1173 76.74 94.1173C71.74 85.5073 78.48 90.5673 78.48 90.5673C75.39 83.0173 86.63 91.7373 86.68 91.7773C82.86 86.0273 78.13 80.2073 78.13 80.2073C81.92 75.3173 88.58 71.0273 95.03 67.6873C83.24 70.5573 95.24 62.7673 95.24 62.7673Z" fill="url(#paint11_linear_301_31984)"/>
<path d="M40.1799 85.3271C40.1799 85.3271 28.6399 83.1571 29.2399 62.7671C29.8399 42.3771 49.5199 38.0971 63.4299 39.7671C77.3399 41.4371 91.8499 49.3871 89.3299 67.1471C86.8099 84.9071 70.5599 87.7671 70.5599 87.7671C70.5599 87.7671 71.7799 102.507 69.1599 104.427C66.5399 106.347 62.9799 102.797 62.2399 97.6171C62.2399 97.6171 64.5699 109.617 59.4099 111.387C54.2499 113.157 50.0999 97.4671 50.0999 97.4671C50.0999 97.4671 51.0999 104.337 46.6999 105.267C42.2999 106.197 38.8499 95.5371 40.1799 85.3271Z" fill="url(#paint12_linear_301_31984)"/>
<g style="mix-blend-mode:multiply" opacity="0.28">
<path d="M33.0801 58.4473C36.574 59.2612 39.7897 60.9864 42.4 63.4473C46.96 67.6573 47.4 61.9973 47.4 61.9973C47.4 61.9973 48.1401 68.5773 49.7501 68.3373C51.3601 68.0973 51.47 60.1773 51.47 60.1773C51.47 60.1773 52.8 70.8773 55.91 64.6673C55.91 64.6673 57.57 68.9973 62.23 64.7773C66.89 60.5573 79.1101 58.1273 81.55 58.3973C83.99 58.6673 54.9401 73.3973 54.9401 73.3973C54.9401 73.3973 53.7301 68.3973 50.5801 74.8173C50.5801 74.8173 50.43 67.8773 47.4 71.9173C44.37 75.9573 33.0801 58.4473 33.0801 58.4473Z" fill="#DD402E"/>
</g>
<path d="M54.98 73.4871C54.98 73.4871 60.16 66.3771 71.98 61.4871C83.8 56.5971 85.51 56.8971 80.22 67.4871C74.93 78.0771 61.64 82.9571 54.98 73.4871Z" fill="#81201C"/>
<path d="M47.44 72.0071C47.44 72.0071 38.44 59.3971 33.08 58.4471C27.72 57.4971 34.56 83.3971 47.44 72.0071Z" fill="#81201C"/>
<path d="M52.1401 79.3971C52.1401 78.7871 51.9501 73.9771 49.9901 77.2571C49.9901 77.2571 48.5001 73.1971 47.5401 80.5171C46.5801 87.8371 52.3301 82.9071 52.1401 79.3971Z" fill="#81201C"/>
<g style="mix-blend-mode:multiply">
<path d="M69.04 74.9071C78.37 70.5871 82.04 57.8471 74.04 60.6671C73.39 60.9271 72.71 61.1971 72.04 61.4971C60.19 66.3771 55.04 73.4971 55.04 73.4971C55.04 73.4971 59.72 79.2271 69.04 74.9071Z" fill="#BF402E"/>
</g>
<g style="mix-blend-mode:multiply">
<path d="M34.63 59.0071C33.99 58.7871 31.9 58.4671 32.93 63.9371C34.15 70.3471 40.18 77.1871 47.44 72.0071C47.44 72.0071 39.98 61.6171 34.63 59.0071Z" fill="#BF402E"/>
</g>
<g style="mix-blend-mode:multiply" opacity="0.28">
<path d="M40.1799 85.3271C38.8499 95.5371 42.2599 106.197 46.6999 105.257C51.1399 104.317 50.0999 97.4571 50.0999 97.4571C50.0999 97.4571 54.2399 113.147 59.4099 111.377C64.1899 109.727 62.5499 99.3771 62.2699 97.8171V97.6071C62.2699 97.6071 62.2699 97.6971 62.2699 97.8171C63.0799 102.887 66.5699 106.317 69.1599 104.417C71.7499 102.517 70.5599 87.7571 70.5599 87.7571C70.5599 87.7571 86.8099 84.8771 89.3199 67.1171C89.6002 65.224 89.6706 63.3057 89.5299 61.3971C88.1699 81.0671 66.7199 82.3971 66.7199 82.3971C66.7199 82.3971 70.2799 102.097 66.7199 102.157C63.1599 102.217 60.1599 91.1571 60.1599 91.1571C60.1599 91.1571 62.8299 107.807 57.7799 106.917C52.7299 106.027 50.7799 91.9171 50.7799 91.9171C50.7799 91.9171 47.9799 104.777 43.6699 100.467C39.3599 96.1571 42.2299 81.3771 42.2299 81.3771C30.0799 81.7671 29.2399 62.7671 29.2399 62.7671C28.6399 83.1571 40.1799 85.3271 40.1799 85.3271Z" fill="#DD402E"/>
</g>
<path style="mix-blend-mode:multiply" opacity="0.26" d="M123.39 93.4371C113.39 103.647 102.18 119.567 92.98 144.207C93.6932 145.016 94.3609 145.864 94.98 146.747C118.29 106.567 137.16 111.447 137.16 111.447C126.51 106.567 106.53 124.987 109.16 118.327C111.79 111.667 126.75 96.9371 126.81 96.8771C125.68 95.6171 124.5 94.4671 123.39 93.4371Z" fill="url(#paint13_linear_301_31984)"/>
<path style="mix-blend-mode:multiply" opacity="0.26" d="M87.2399 140.767C87.2399 140.767 70.0399 121.627 58.8799 140.517C59.5777 140.513 60.2566 140.289 60.8199 139.877C76.5799 130.327 90.8199 150.307 90.8199 150.307C113.02 85.0371 149.43 75.937 149.43 75.937C120.79 82.817 88.8199 136.937 96.3699 108.347C103.92 79.757 128.73 63.767 128.73 63.767C126 62.437 123.39 61.2671 120.89 60.2271C105.39 76.3871 88.4399 102.617 87.2399 140.767Z" fill="url(#paint14_linear_301_31984)"/>
<path style="mix-blend-mode:multiply" opacity="0.26" d="M56.9099 144.397C67.8699 119.187 87.2399 140.767 87.2399 140.767C89.4599 69.4971 146.74 39.7671 146.74 39.7671C101 60.1971 73.0699 132.347 49.2799 124.577C29.2799 118.057 10.8299 79.1671 5.40991 66.8371C13.3599 110.767 48.4899 163.767 56.9099 144.397Z" fill="url(#paint15_linear_301_31984)"/>
<path style="mix-blend-mode:screen" opacity="0.74" d="M61.05 93.4371C95.69 73.0371 151.98 37.4371 92.98 28.8271C43.14 23.3871 7.10002 31.7471 7.10002 31.7471C3.10002 41.147 3.03003 53.567 5.42003 66.807C5.42003 66.767 26.42 113.837 61.05 93.4371Z" fill="url(#paint16_linear_301_31984)"/>
<path d="M136.98 156.517L138.31 146.747C138.31 146.747 124.99 160.747 100.13 157.627C75.27 154.507 27.31 108.337 27.31 108.337C11.1 115.887 0 142.087 0 142.087L4 154.517C4.26 153.677 4.52999 152.877 4.79999 152.087C4.96999 151.617 5.12999 151.147 5.29999 150.687C5.29999 150.567 5.38999 150.457 5.42999 150.337C8.37999 162.757 16.91 187.077 39.5 197.827C40.0402 198.508 40.6213 199.156 41.24 199.767L43.31 198.677C53.16 198.417 97.31 197.037 116.31 192.507C124.449 183.049 130.176 171.761 133 159.607L133.08 159.557L133.92 159.027L134 158.967C134.56 158.597 135 158.237 135.43 157.967C135.89 157.593 136.327 157.192 136.74 156.767L136.92 156.587L136.98 156.517Z" fill="url(#paint17_linear_301_31984)"/>
<g style="mix-blend-mode:color-dodge" opacity="0.34">
<path d="M100.13 157.627C75.26 154.517 27.31 108.337 27.31 108.337C11.1 115.887 0 142.087 0 142.087L4 154.517C9.1 138.287 16.21 130.167 21.18 126.227C22.26 138.687 27.24 186.227 41.18 199.737L43.25 198.647C43.25 198.647 24.86 177.837 28.54 123.977C108.65 188.727 136.94 156.517 136.94 156.517L138.27 146.747C138.27 146.747 124.99 160.767 100.13 157.627Z" fill="#FF7442"/>
</g>
<g style="mix-blend-mode:multiply" opacity="0.18">
<path d="M30.8399 179.977C30.4699 178.837 30.11 177.687 29.77 176.507L24.1699 186.667C24.5599 187.067 24.9299 187.477 25.3399 187.867C26.2185 184.686 28.1594 181.902 30.8399 179.977Z" fill="#900040"/>
</g>
<g style="mix-blend-mode:multiply" opacity="0.18">
<path d="M22.46 138.347C22.33 137.347 22.22 136.347 22.11 135.347C14.32 144.577 8.18005 158.977 8.05005 159.277C8.28005 159.927 8.50006 160.577 8.75006 161.277C14.7101 146.167 19.41 140.427 22.46 138.347Z" fill="#900040"/>
</g>
<g style="mix-blend-mode:multiply" opacity="0.18">
<path d="M33.0601 176.767C33.5001 178.307 33.9601 179.767 34.4301 181.107C64.0801 198.637 108.88 192.697 117.3 191.367C117.64 190.977 118.05 190.467 118.52 189.867C68.4901 197.877 40.9401 182.297 33.0601 176.767Z" fill="#900040"/>
</g>
<g style="mix-blend-mode:multiply" opacity="0.18">
<path d="M28.24 145.767C28.3 147.017 28.37 148.247 28.45 149.447C85.82 188.267 116.37 181.367 126.78 176.657C127.17 175.877 127.55 175.067 127.93 174.247C92.15 191.657 38.29 153.307 28.24 145.767Z" fill="#900040"/>
</g>
<g style="mix-blend-mode:multiply" opacity="0.18">
<path d="M26.9399 165.317C26.6499 163.987 26.3699 162.657 26.1099 161.317C20.9499 165.867 18.5499 174.257 17.6099 178.597C18.0999 179.317 18.6099 180.037 19.1399 180.747C20.5199 171.027 24.4499 166.947 26.9399 165.317Z" fill="#900040"/>
</g>
<g style="mix-blend-mode:multiply" opacity="0.18">
<path d="M28.1299 134.307C28.1299 135.74 28.1299 137.14 28.1299 138.507C97.9799 183.957 126.26 168.037 131.99 163.607C132.15 163.037 132.3 162.447 132.46 161.867C101.52 184.907 39.9799 142.837 28.1299 134.307Z" fill="#900040"/>
</g>
<g style="mix-blend-mode:multiply" opacity="0.18">
<path d="M29.71 161.137C29.9 162.437 30.11 163.717 30.33 164.947C88.72 196.307 113.93 189.487 121.72 185.457C122.37 184.457 123.05 183.407 123.72 182.257C103.75 199.447 41.54 167.467 29.71 161.137Z" fill="#900040"/>
</g>
<g style="mix-blend-mode:multiply" opacity="0.18">
<path d="M24.2401 150.987C24.0601 149.807 23.8801 148.657 23.7101 147.507C18.3801 153.667 13.4801 163.127 11.3501 167.507C11.5901 168.047 11.8601 168.587 12.1201 169.127C14.9901 160.767 20.7601 154.287 24.2401 150.987Z" fill="#900040"/>
</g>
<g style="mix-blend-mode:multiply" opacity="0.18">
<path d="M30.8399 179.977C30.4699 178.837 30.11 177.687 29.77 176.507L24.1699 186.667C24.5599 187.067 24.9299 187.477 25.3399 187.867C26.2185 184.686 28.1594 181.902 30.8399 179.977Z" fill="#900040"/>
</g>
<g style="mix-blend-mode:multiply" opacity="0.18">
<path d="M22.46 138.347C22.33 137.347 22.22 136.347 22.11 135.347C14.32 144.577 8.18005 158.977 8.05005 159.277C8.28005 159.927 8.50006 160.577 8.75006 161.277C14.7101 146.167 19.41 140.427 22.46 138.347Z" fill="#900040"/>
</g>
<g style="mix-blend-mode:multiply" opacity="0.18">
<path d="M33.0601 176.767C33.5001 178.307 33.9601 179.767 34.4301 181.107C64.0801 198.637 108.88 192.697 117.3 191.367C117.64 190.977 118.05 190.467 118.52 189.867C68.4901 197.877 40.9401 182.297 33.0601 176.767Z" fill="#900040"/>
</g>
<g style="mix-blend-mode:multiply" opacity="0.18">
<path d="M28.24 145.767C28.3 147.017 28.37 148.247 28.45 149.447C85.82 188.267 116.37 181.367 126.78 176.657C127.17 175.877 127.55 175.067 127.93 174.247C92.15 191.657 38.29 153.307 28.24 145.767Z" fill="#900040"/>
</g>
<g style="mix-blend-mode:multiply" opacity="0.18">
<path d="M26.9399 165.317C26.6499 163.987 26.3699 162.657 26.1099 161.317C20.9499 165.867 18.5499 174.257 17.6099 178.597C18.0999 179.317 18.6099 180.037 19.1399 180.747C20.5199 171.027 24.4499 166.947 26.9399 165.317Z" fill="#900040"/>
</g>
<g style="mix-blend-mode:multiply" opacity="0.18">
<path d="M28.1299 134.307C28.1299 135.74 28.1299 137.14 28.1299 138.507C97.9799 183.957 126.26 168.037 131.99 163.607C132.15 163.037 132.3 162.447 132.46 161.867C101.52 184.907 39.9799 142.837 28.1299 134.307Z" fill="#900040"/>
</g>
<g style="mix-blend-mode:multiply" opacity="0.18">
<path d="M29.71 161.137C29.9 162.437 30.11 163.717 30.33 164.947C88.72 196.307 113.93 189.487 121.72 185.457C122.37 184.457 123.05 183.407 123.72 182.257C103.75 199.447 41.54 167.467 29.71 161.137Z" fill="#900040"/>
</g>
<g style="mix-blend-mode:multiply" opacity="0.18">
<path d="M24.2401 150.987C24.0601 149.807 23.8801 148.657 23.7101 147.507C18.3801 153.667 13.4801 163.127 11.3501 167.507C11.5901 168.047 11.8601 168.587 12.1201 169.127C14.9901 160.767 20.7601 154.287 24.2401 150.987Z" fill="#900040"/>
</g>
<g style="mix-blend-mode:multiply" opacity="0.18">
<path d="M30.1199 177.657C29.9999 177.277 29.88 176.897 29.77 176.507L24.1699 186.667L24.7899 187.307L30.1199 177.657Z" fill="#900040"/>
</g>
<path style="mix-blend-mode:multiply" opacity="0.44" d="M61.1401 155.767C60.3901 155.607 57.03 158.327 57.22 159.297C57.36 159.987 58.65 159.707 59.4 159.477C58.4 160.897 55.59 164.877 53.4 166.277L52.61 156.027C52.61 156.027 54.38 156.147 54.22 152.897C54.06 149.647 50.8201 148.897 49.8901 150.747C48.9601 152.597 49.83 155.687 51.22 156.027L51.31 166.447C49.31 165.217 46.92 160.547 45.92 158.447C46.64 158.677 47.73 158.927 47.92 158.447C48.28 157.697 44.37 154.117 43.84 154.447C43.31 154.777 42.35 159.907 43.29 160.447C43.78 160.737 44.29 160.097 44.66 159.447C45.44 161.937 49.08 172.837 52.66 171.657C56.09 170.537 59.28 162.447 60.17 159.997C60.47 160.587 60.91 161.317 61.32 161.307C62.08 161.287 61.8901 155.907 61.1401 155.767ZM52.04 151.507C52.8 151.377 53.22 154.857 52.41 154.967C51.6 155.077 50.61 151.767 52.04 151.497V151.507Z" fill="url(#paint18_linear_301_31984)"/>
<g style="mix-blend-mode:multiply" opacity="0.18">
<path d="M8.44006 160.387C8.56006 160.097 14.5901 145.977 22.2701 136.747C22.2101 136.277 22.16 135.837 22.11 135.387C14.33 144.607 8.19005 158.987 8.05005 159.307C8.28005 159.957 8.51007 160.617 8.76007 161.307C8.65007 160.987 8.54006 160.677 8.44006 160.387Z" fill="#900040"/>
</g>
<path style="mix-blend-mode:multiply" opacity="0.26" d="M33.0601 176.767C33.0601 176.887 33.13 176.997 33.16 177.117C33.34 177.737 33.52 178.347 33.71 178.927C39.08 182.557 51.6301 189.527 72.0001 192.457C87.0867 193.978 102.304 193.611 117.3 191.367L117.79 190.787L117.91 190.627L118.52 189.867C68.4901 197.877 40.9401 182.297 33.0601 176.767Z" fill="url(#paint19_linear_301_31984)"/>
<path style="mix-blend-mode:multiply" opacity="0.26" d="M28.24 145.767V146.437L28.3 147.547C35.54 152.977 64.48 173.547 93.44 179.057C100.359 180.384 107.436 180.674 114.44 179.917C118.725 179.345 122.905 178.156 126.85 176.387C127.19 175.687 127.53 174.977 127.85 174.237C92.16 191.657 38.31 153.327 28.24 145.767Z" fill="url(#paint20_linear_301_31984)"/>
<g style="mix-blend-mode:multiply" opacity="0.18">
<path d="M26.1099 161.327C20.9699 165.867 18.5599 174.227 17.6099 178.577C17.7699 178.807 17.9198 179.047 18.0898 179.277C19.0898 174.887 21.4499 166.977 26.3499 162.537L26.1099 161.327Z" fill="#900040"/>
</g>
<path style="mix-blend-mode:multiply" opacity="0.26" d="M28.1299 134.307C28.1299 135.747 28.1299 137.147 28.1299 138.507C28.1299 137.687 28.1299 136.867 28.1299 136.017C35.7499 141.497 63.8999 160.837 91.2399 167.837C116.33 173.417 128.43 166.337 131.96 163.607C132.12 163.047 132.26 162.447 132.42 161.867C101.51 184.897 39.9799 142.837 28.1299 134.307Z" fill="url(#paint21_linear_301_31984)"/>
<path style="mix-blend-mode:multiply" opacity="0.26" d="M29.72 161.137C29.72 161.417 29.8 161.697 29.85 161.977C29.9 162.257 29.96 162.657 30.01 162.977C39.79 168.197 79.53 188.537 105.86 188.977C113.78 188.717 118.8 186.977 121.62 185.517C121.655 185.501 121.689 185.481 121.72 185.457C122.38 184.457 123.05 183.407 123.72 182.267C103.76 199.437 41.57 167.487 29.72 161.137Z" fill="url(#paint22_linear_301_31984)"/>
<g style="mix-blend-mode:multiply" opacity="0.18">
<path d="M23.9001 148.817C23.8301 148.377 23.7701 147.947 23.7101 147.507C18.3801 153.667 13.4801 163.127 11.3501 167.507C11.4901 167.827 11.6501 168.137 11.8001 168.447C13.9401 164.077 18.7001 154.917 23.9001 148.817Z" fill="#900040"/>
</g>
<path style="mix-blend-mode:color-dodge" opacity="0.28" d="M29.7701 176.507C29.7701 176.357 29.6901 176.197 29.6401 176.047L23.8701 186.347L24.1701 186.667L29.7701 176.507Z" fill="url(#paint23_linear_301_31984)"/>
<path style="mix-blend-mode:color-dodge" opacity="0.28" d="M8.05011 159.317C8.18011 159.017 14.3201 144.617 22.1101 135.387C22.1101 135.187 22.1101 134.977 22.0401 134.787C14.9001 143.267 8.8701 156.447 7.8501 158.787C7.9801 159.187 8.14009 159.597 8.28009 159.997C8.24009 159.767 8.12011 159.527 8.05011 159.317Z" fill="url(#paint24_linear_301_31984)"/>
<path style="mix-blend-mode:color-dodge" opacity="0.28" d="M117.9 189.967L118.51 189.207C68.5101 197.207 40.93 181.627 33.04 176.117C33.12 176.397 33.2 176.657 33.29 176.937C41.42 182.557 68.72 197.667 117.9 189.967Z" fill="url(#paint25_linear_301_31984)"/>
<path style="mix-blend-mode:color-dodge" opacity="0.28" d="M127.54 174.437C127.67 174.147 127.81 173.877 127.94 173.587C92.14 190.987 38.24 152.637 28.24 145.117V145.797C38.31 153.317 91.75 191.337 127.54 174.437Z" fill="url(#paint26_linear_301_31984)"/>
<path style="mix-blend-mode:color-dodge" opacity="0.28" d="M17.6101 178.607C18.5501 174.267 20.9501 165.877 26.1101 161.327L25.9901 160.747C20.9901 165.247 18.3301 173.847 17.3501 178.247C17.5501 178.547 17.7801 178.847 18.0001 179.147C17.8701 178.967 17.7301 178.767 17.6101 178.607Z" fill="url(#paint27_linear_301_31984)"/>
<path style="mix-blend-mode:multiply" opacity="0.44" d="M51.54 147.987C52.92 147.987 52.86 142.167 51.33 142.107C49.8 142.047 48.87 147.907 51.54 147.987Z" fill="url(#paint28_linear_301_31984)"/>
<path d="M51.2399 147.557C52.6299 147.557 52.5699 141.737 51.0399 141.667C49.5099 141.597 48.6099 147.477 51.2399 147.557Z" fill="url(#paint29_linear_301_31984)"/>
<path d="M51.2399 146.897C52.2399 146.897 52.0899 142.227 51.0099 142.497C50.3699 142.667 50.0799 146.897 51.2399 146.897Z" fill="#6A0040"/>
<g style="mix-blend-mode:multiply" opacity="0.61">
<path d="M50.8399 142.707C50.3899 143.477 50.2499 146.077 50.9299 146.707C51.4799 146.067 51.4199 143.467 50.8399 142.707Z" fill="#6A0040"/>
</g>
<path style="mix-blend-mode:color-dodge" opacity="0.28" d="M132.18 162.037C132.26 161.757 132.33 161.477 132.41 161.197C101.52 184.197 40.0401 142.197 28.1401 133.657C28.1401 133.877 28.1401 134.087 28.1401 134.307C39.9501 142.817 101.24 184.677 132.18 162.037Z" fill="url(#paint30_linear_301_31984)"/>
<path style="mix-blend-mode:color-dodge" opacity="0.28" d="M122.96 182.837L123.72 181.597C103.72 198.777 41.52 166.807 29.72 160.467C29.72 160.717 29.8 160.937 29.84 161.187C41.71 167.547 102.24 198.587 122.96 182.837Z" fill="url(#paint31_linear_301_31984)"/>
<path style="mix-blend-mode:color-dodge" opacity="0.28" d="M23.7099 147.507L23.6199 146.927C18.4799 152.927 13.3999 162.517 11.1499 167.087C11.2199 167.237 11.2799 167.387 11.3499 167.527C13.4799 163.127 18.3799 153.667 23.7099 147.507Z" fill="url(#paint32_linear_301_31984)"/>
<path d="M51.3101 149.097L50.8501 146.007H51.3101L52.8501 148.157L51.3101 149.097Z" fill="#471A29"/>
<path d="M60.8901 154.037C60.1401 153.877 56.78 156.597 56.97 157.567C57.11 158.257 58.39 157.977 59.15 157.747C58.15 159.167 55.34 163.147 53.15 164.547L52.35 154.297C52.35 154.297 54.13 154.417 53.96 151.167C53.79 147.917 50.57 147.167 49.63 149.027C48.69 150.887 49.63 153.967 50.97 154.297L51.06 164.717C49.06 163.487 46.67 158.817 45.67 156.717C46.39 156.947 47.48 157.207 47.67 156.717C48.03 155.967 44.12 152.387 43.59 152.717C43.06 153.047 42.1 158.177 43.04 158.717C43.53 159.007 44.04 158.377 44.41 157.717C45.19 160.217 48.82 171.107 52.41 169.927C55.84 168.807 59.03 160.717 59.92 158.267C60.22 158.857 60.66 159.597 61.06 159.577C61.83 159.567 61.6401 154.197 60.8901 154.037ZM51.78 149.767C52.55 149.637 52.97 153.117 52.15 153.227C51.33 153.337 50.36 150.017 51.78 149.767Z" fill="url(#paint33_linear_301_31984)"/>
<path style="mix-blend-mode:multiply" opacity="0.44" d="M78.4699 179.657C81.4699 181.567 89.02 168.657 85.77 166.537C82.52 164.417 72.7499 175.977 78.4699 179.657Z" fill="url(#paint34_linear_301_31984)"/>
<path d="M78.4699 178.367C81.4699 180.277 89.02 167.367 85.77 165.257C82.52 163.147 72.7499 174.687 78.4699 178.367Z" fill="url(#paint35_linear_301_31984)"/>
<path d="M79.3499 176.947C81.5399 178.277 87.3499 167.857 84.6399 167.027C82.9299 166.507 76.7199 175.357 79.3499 176.947Z" fill="#6A0040"/>
<g style="mix-blend-mode:multiply" opacity="0.61">
<path d="M83.89 167.207C81.89 168.297 78.1799 173.787 78.7799 176.127C80.8799 175.377 84.16 169.617 83.89 167.207Z" fill="#6A0040"/>
</g>
<path style="mix-blend-mode:screen" opacity="0.74" d="M86.24 165.767C86.1309 165.57 85.9767 165.403 85.79 165.277C82.54 163.127 72.79 174.707 78.49 178.387C78.49 178.387 78.49 178.387 78.56 178.387C74.74 174.337 82.86 164.657 86.24 165.767Z" fill="url(#paint36_linear_301_31984)"/>
<path style="mix-blend-mode:multiply" opacity="0.44" d="M96.5501 181.387C99.0701 183.007 105.48 172.097 102.73 170.277C99.98 168.457 91.7101 178.267 96.5501 181.387Z" fill="url(#paint37_linear_301_31984)"/>
<path d="M96.5501 180.297C99.0701 181.917 105.48 171.017 102.73 169.187C99.98 167.357 91.7101 177.177 96.5501 180.297Z" fill="url(#paint38_linear_301_31984)"/>
<path d="M97.3 179.097C99.15 180.217 104.07 171.397 101.78 170.697C100.34 170.257 95.07 177.767 97.3 179.097Z" fill="#6A0040"/>
<g style="mix-blend-mode:multiply" opacity="0.61">
<path d="M101.15 170.847C99.4701 171.767 96.3102 176.417 96.8202 178.407C98.5902 177.767 101.37 172.887 101.15 170.847Z" fill="#6A0040"/>
</g>
<path style="mix-blend-mode:screen" opacity="0.74" d="M103.12 169.607C103.02 169.442 102.887 169.299 102.73 169.187C99.9801 167.367 91.7301 177.187 96.5501 180.297H96.6101C93.4001 176.877 100.24 168.687 103.12 169.607Z" fill="url(#paint39_linear_301_31984)"/>
<path style="mix-blend-mode:multiply" opacity="0.44" d="M111.84 179.097C113.67 180.287 118.36 172.317 116.35 170.987C114.34 169.657 108.3 176.827 111.84 179.097Z" fill="url(#paint40_linear_301_31984)"/>
<path d="M111.84 178.307C113.67 179.487 118.36 171.527 116.35 170.187C114.34 168.847 108.3 176.027 111.84 178.307Z" fill="#6D6783"/>
<path d="M112.38 177.427C113.74 178.247 117.38 171.807 115.65 171.287C114.6 170.967 110.75 176.437 112.38 177.427Z" fill="#6A0040"/>
<g style="mix-blend-mode:multiply" opacity="0.61">
<path d="M115.24 171.397C114.02 172.067 111.71 175.477 112.08 176.917C113.33 176.457 115.36 172.887 115.24 171.397Z" fill="#6A0040"/>
</g>
<path style="mix-blend-mode:multiply" opacity="0.44" d="M122.62 175.907C124.02 176.807 127.62 170.717 126.07 169.697C124.52 168.677 119.91 174.167 122.62 175.907Z" fill="url(#paint41_linear_301_31984)"/>
<path d="M122.62 175.297C124.02 176.197 127.62 170.107 126.07 169.097C124.52 168.087 119.91 173.557 122.62 175.297Z" fill="#625E77"/>
<path d="M123.04 174.627C124.04 175.257 126.82 170.327 125.54 169.937C124.73 169.687 121.79 173.867 123.04 174.627Z" fill="#6A0040"/>
<g style="mix-blend-mode:multiply" opacity="0.61">
<path d="M125.24 170.017C124.3 170.527 122.54 173.127 122.82 174.237C123.76 173.887 125.31 171.157 125.24 170.017Z" fill="#6A0040"/>
</g>
<g style="mix-blend-mode:multiply" opacity="0.72">
<path d="M137.24 154.887C137.24 154.887 109.45 188.767 27.14 121.107C23.46 174.967 42.73 198.937 42.73 198.937L43.29 198.647C43.29 198.647 24.9 177.837 28.58 123.977C108.69 188.727 136.98 156.517 136.98 156.517L137.2 154.887H137.24Z" fill="#900040"/>
</g>
<g style="mix-blend-mode:multiply" opacity="0.72">
<path d="M3.32007 152.417L4.00006 154.517C9.00006 138.437 16.0701 130.327 21.0001 126.347C20.9401 125.627 20.8801 124.967 20.8301 124.397C16.0301 128.227 8.43007 137.017 3.32007 152.417Z" fill="#900040"/>
</g>
<g style="mix-blend-mode:color-dodge" opacity="0.64">
<path d="M29.8 110.687C28.21 109.207 27.31 108.337 27.31 108.337C11.1 115.887 0 142.087 0 142.087L0.669983 144.177C1.68998 142.017 13.24 117.987 29.8 110.687Z" fill="#FF9A42"/>
</g>
<path style="mix-blend-mode:multiply" opacity="0.3" d="M43.1301 158.767C43.6201 159.057 44.1301 158.427 44.5001 157.767C45.2801 160.267 48.9101 171.157 52.5001 169.977C55.9301 168.857 59.1201 160.767 60.0101 158.317C60.3101 158.907 60.75 159.647 61.15 159.627C61.7 159.627 61.67 155.947 61.22 154.577C61.55 155.877 61.28 158.387 60.96 158.407C60.64 158.427 60.0701 157.127 60.0701 157.127C60.0701 157.127 55.4601 168.477 52.3801 168.707C49.3001 168.937 44.53 156.937 44.53 156.937C42.83 159.747 42.7701 156.537 42.7701 156.367C42.6801 157.477 42.7301 158.517 43.1301 158.767Z" fill="url(#paint42_linear_301_31984)"/>
<path style="mix-blend-mode:multiply" opacity="0.3" d="M52.8101 167.477C53.1757 166.546 53.3062 165.54 53.1901 164.547L52.3901 154.297C52.3901 154.297 54.1701 154.417 54.0001 151.167C53.981 150.312 53.6544 149.491 53.0801 148.857C54.5101 150.537 53.0801 152.857 53.0801 152.857C53.6301 151.937 53.0801 149.357 52.2701 149.307C51.4601 149.257 51.22 150.177 51.22 150.177C51.3402 149.992 51.5261 149.86 51.7401 149.807C52.5101 149.677 52.93 153.157 52.11 153.267C51.35 154.267 49.7001 152.797 49.5801 152.677C49.6654 153.042 49.8358 153.382 50.0773 153.669C50.3189 153.955 50.6248 154.181 50.97 154.327V157.517C50.9653 157.481 50.9653 157.444 50.97 157.407C52.08 152.077 52.8101 167.477 52.8101 167.477Z" fill="url(#paint43_linear_301_31984)"/>
<path style="mix-blend-mode:screen" opacity="0.74" d="M51.06 153.547C51.06 153.547 49.58 150.787 50.89 148.857C51.0214 148.588 51.2543 148.382 51.5374 148.285C51.8205 148.187 52.1307 148.206 52.3999 148.337C52.1782 148.193 51.9292 148.097 51.6684 148.053C51.4076 148.01 51.1407 148.021 50.8844 148.086C50.6281 148.151 50.388 148.268 50.179 148.43C49.97 148.592 49.7967 148.795 49.67 149.027C49.3978 149.696 49.2739 150.416 49.3067 151.138C49.3395 151.859 49.5282 152.565 49.86 153.207C49.7662 153.027 49.686 152.839 49.62 152.647C50.0328 153.043 50.5231 153.35 51.06 153.547Z" fill="url(#paint44_linear_301_31984)"/>
<path style="mix-blend-mode:screen" opacity="0.74" d="M45.3301 156.477C45.3301 156.477 43.3301 151.747 46.6801 154.957C45.5701 153.787 44.0001 152.537 43.6801 152.737C43.3601 152.937 42.92 154.737 42.78 156.337C42.78 156.337 43.7701 152.447 45.3301 156.477Z" fill="url(#paint45_linear_301_31984)"/>
<g style="mix-blend-mode:multiply" opacity="0.31">
<path d="M38.24 118.287C31.6 112.447 27.33 108.337 27.33 108.337C22.55 110.567 18.22 114.417 14.48 118.737C15.9 124.127 20.11 124.897 20.11 124.897C19.8321 125.735 19.6969 126.614 19.71 127.497C20.22 127.037 20.71 126.607 21.2 126.227C21.31 127.447 21.45 129.007 21.64 130.827C21.7628 130.731 21.8506 130.598 21.89 130.447C21.89 130.447 21.82 133.337 22.76 133.447C23.0747 133.459 23.3873 133.391 23.6676 133.247C23.9479 133.103 24.1864 132.89 24.36 132.627C24.36 132.627 24.55 134.627 26.13 134.557C27.3 134.497 27.95 133.037 28.2 132.307C28.28 129.607 28.4 126.827 28.6 123.937C29.99 125.057 31.36 126.147 32.73 127.217C34.3496 126.341 35.7109 125.055 36.6779 123.488C37.6448 121.921 38.1834 120.127 38.24 118.287Z" fill="#E70007"/>
</g>
<path style="mix-blend-mode:screen" opacity="0.74" d="M57.04 157.207C57.2 157.067 61.3601 153.547 59.8301 156.807C59.8301 156.807 61.1601 154.937 61.1201 154.277C61.0768 154.17 60.9946 154.084 60.8901 154.037C60.2401 153.897 57.47 156.057 57.04 157.207Z" fill="url(#paint46_linear_301_31984)"/>
<path style="mix-blend-mode:screen" opacity="0.74" d="M51.0599 157.377C51.0552 157.414 51.0552 157.451 51.0599 157.487L51.1199 164.717C51.7109 165.34 52.0647 166.151 52.1199 167.007C52.1199 167.007 52.3899 163.307 52.2599 160.147C51.9799 157.107 51.5599 154.767 51.0599 157.377Z" fill="url(#paint47_linear_301_31984)"/>
<path d="M50.8501 146.007C50.8501 146.007 53.1601 148.007 51.7801 149.777C51.7801 149.777 52.0601 150.487 52.9501 149.527C53.8401 148.567 52.3101 144.677 50.8501 146.007Z" fill="url(#paint48_linear_301_31984)"/>
<path d="M19.46 122.767C19.46 122.767 12.8 121.567 13.39 111.517C13.98 101.467 22.54 97.9073 28.28 99.8273C34.02 101.747 44.59 119.187 30.84 125.827C30.84 125.827 30.27 131.987 27.68 129.827C27.68 129.827 27.05 132.417 25.48 132.497C23.91 132.577 23.71 130.567 23.71 130.567C23.5364 130.83 23.298 131.044 23.0177 131.187C22.7374 131.331 22.4247 131.4 22.11 131.387C21.11 131.237 21.24 128.387 21.24 128.387C21.24 128.387 21.05 129.247 19.98 128.757C18.91 128.267 18.8 124.467 19.46 122.767Z" fill="url(#paint49_linear_301_31984)"/>
<g style="mix-blend-mode:multiply" opacity="0.21">
<path d="M19.4598 122.767C18.7998 124.467 18.9099 128.207 19.9799 128.687C21.0499 129.167 21.2399 128.317 21.2399 128.317C21.2399 128.317 21.1599 131.207 22.1099 131.317C22.4246 131.33 22.7372 131.261 23.0175 131.117C23.2978 130.973 23.5363 130.76 23.7098 130.497C23.7098 130.497 23.8999 132.497 25.4799 132.427C27.0599 132.357 27.6799 129.757 27.6799 129.757C30.2699 131.907 30.8398 125.757 30.8398 125.757C43.8398 119.507 35.0899 103.557 29.2399 100.247C36.4799 104.897 37.4399 117.577 34.2399 120.117C33.4189 120.853 32.4043 121.338 31.3162 121.515C30.228 121.693 29.1119 121.554 28.0999 121.117C29.4499 123.817 30.0199 129.117 28.7599 129.297C27.4999 129.477 26.9598 126.387 26.9598 126.387C26.9598 126.387 26.7299 131.107 25.4899 131.047C24.2499 130.987 23.9598 127.417 23.9598 127.417C23.9598 127.417 23.3498 130.947 22.2798 130.417C21.2098 129.887 21.4899 126.007 21.4899 126.007C21.4899 126.007 21.2499 128.307 19.7699 127.057C18.2899 125.807 21.0499 121.057 21.0499 121.057C16.6199 121.927 14.3099 117.247 13.6099 115.467C14.6999 121.887 19.4598 122.767 19.4598 122.767Z" fill="#A60060"/>
</g>
<path style="mix-blend-mode:screen" d="M31.48 107.087C28.74 110.217 18.97 108.917 17.23 107.637C15.71 106.527 15.79 103.137 18.99 101.527C22.48 99.7773 24.99 99.5273 28.39 101.117C28.39 101.117 34.24 103.957 31.48 107.087Z" fill="url(#paint50_linear_301_31984)"/>
<g style="mix-blend-mode:screen" opacity="0.71">
<path d="M18.9399 103.767C18.0599 101.947 24.5399 101.007 25.0499 102.387C25.5599 103.767 19.8499 105.667 18.9399 103.767Z" fill="white"/>
</g>
<g style="mix-blend-mode:screen" opacity="0.71">
<path d="M18.0601 104.767C18.3301 103.817 21.5701 105.447 21.5501 105.997C21.5301 106.547 17.7901 105.677 18.0601 104.767Z" fill="white"/>
</g>
<g style="mix-blend-mode:multiply">
<path d="M25.0801 118.387C23.8201 117.187 33.1901 111.777 34.4101 112.337C35.6301 112.897 31.6701 124.657 25.0801 118.387Z" fill="#BF402E"/>
</g>
<g style="mix-blend-mode:multiply">
<path d="M21.73 118.277C22.36 117.597 16.22 111.527 15.16 111.517C14.1 111.507 16.42 123.987 21.73 118.277Z" fill="#BF402E"/>
</g>
<g style="mix-blend-mode:multiply">
<path d="M23.29 119.767C23.29 119.767 21.7 121.437 22.29 122.547C22.88 123.657 23.29 121.967 23.29 121.967C23.29 121.967 23.67 123.207 24.52 122.967C25.37 122.727 23.29 119.767 23.29 119.767Z" fill="#BF402E"/>
</g>
<g style="mix-blend-mode:multiply">
<path d="M33.4101 112.447C30.7301 113.257 24.2501 117.217 25.0501 118.327C29.8801 121.567 33.0501 115.157 33.4101 112.447Z" fill="#BF402E"/>
</g>
<g style="mix-blend-mode:multiply">
<path d="M21.73 117.957C21.34 116.697 17.1301 112.517 15.5801 111.677C15.7301 114.437 17.84 121.207 21.73 117.957Z" fill="#BF402E"/>
</g>
<g style="mix-blend-mode:multiply">
<path d="M22.75 120.477C22.8762 120.915 23.1248 121.308 23.4668 121.609C23.8087 121.91 24.2297 122.107 24.68 122.177C24.3052 121.332 23.839 120.531 23.29 119.787C23.0912 120.002 22.9106 120.233 22.75 120.477Z" fill="#BF402E"/>
</g>
<path style="mix-blend-mode:multiply" opacity="0.26" d="M39.5001 197.827C39.7401 198.127 39.98 198.417 40.23 198.687C40.48 198.957 40.88 199.407 41.23 199.737L43.3 198.647C53.15 198.387 97.3 197.007 116.3 192.477C124.439 183.019 130.166 171.731 132.99 159.577L133.07 159.527C133.89 159.03 134.678 158.482 135.43 157.887C135.888 157.539 136.325 157.165 136.74 156.767L136.92 156.577L136.98 156.517L138.31 146.747C138.31 146.747 132.02 153.357 120.01 156.477C111.76 166.657 91.8301 159.957 91.8301 159.957C91.8301 159.957 115.47 174.237 89.78 184.857C64.09 195.477 31.2401 171.767 31.2401 171.767C32.7901 182.407 28.2401 170.837 28.2401 170.837C25.9201 186.207 11.8 168.457 11.8 168.457C17.03 179.447 25.5901 191.207 39.5001 197.827Z" fill="url(#paint51_linear_301_31984)"/>
<defs>
<linearGradient id="paint0_linear_301_31984" x1="71.4" y1="34.5171" x2="71.4" y2="-0.00294847" gradientUnits="userSpaceOnUse">
<stop stop-color="#601C07"/>
<stop offset="0.43" stop-color="#621F06"/>
<stop offset="0.73" stop-color="#692805"/>
<stop offset="1" stop-color="#743802"/>
</linearGradient>
<linearGradient id="paint1_linear_301_31984" x1="65.7701" y1="7.59688" x2="73.6901" y2="15.517" gradientUnits="userSpaceOnUse">
<stop stop-color="#FF9A42"/>
<stop offset="1"/>
</linearGradient>
<linearGradient id="paint2_linear_301_31984" x1="66.4799" y1="24.6672" x2="73.8699" y2="32.0571" gradientUnits="userSpaceOnUse">
<stop stop-color="#FF9A42"/>
<stop offset="1"/>
</linearGradient>
<linearGradient id="paint3_linear_301_31984" x1="53.7799" y1="14.0071" x2="76.1099" y2="14.0071" gradientUnits="userSpaceOnUse">
<stop stop-color="#CE7033"/>
<stop offset="0.14" stop-color="#B76127"/>
<stop offset="0.37" stop-color="#984C16"/>
<stop offset="0.6" stop-color="#813D0A"/>
<stop offset="0.81" stop-color="#743402"/>
<stop offset="1" stop-color="#6F3100"/>
</linearGradient>
<linearGradient id="paint4_linear_301_31984" x1="63.3599" y1="5.44708" x2="70.8999" y2="12.9871" gradientUnits="userSpaceOnUse">
<stop stop-color="#FF9A42"/>
<stop offset="1"/>
</linearGradient>
<linearGradient id="paint5_linear_301_31984" x1="55.33" y1="21.4171" x2="89.79" y2="21.4171" gradientUnits="userSpaceOnUse">
<stop stop-color="#743802"/>
<stop offset="0.37" stop-color="#703303"/>
<stop offset="0.81" stop-color="#662505"/>
<stop offset="1" stop-color="#601C07"/>
</linearGradient>
<linearGradient id="paint6_linear_301_31984" x1="63.5299" y1="9.94713" x2="81.5599" y2="27.9771" gradientUnits="userSpaceOnUse">
<stop stop-color="#FF9A42"/>
<stop offset="1"/>
</linearGradient>
<linearGradient id="paint7_linear_301_31984" x1="135.81" y1="-6.46292" x2="68.82" y2="255.157" gradientUnits="userSpaceOnUse">
<stop stop-color="#5B507B"/>
<stop offset="0.42" stop-color="#302A40"/>
<stop offset="0.81" stop-color="#0D0C12"/>
<stop offset="1"/>
</linearGradient>
<linearGradient id="paint8_linear_301_31984" x1="130.52" y1="1.23707" x2="72.0699" y2="229.457" gradientUnits="userSpaceOnUse">
<stop stop-color="#5B507B"/>
<stop offset="0.17" stop-color="#50476C"/>
<stop offset="0.49" stop-color="#342E46"/>
<stop offset="0.94" stop-color="#060609"/>
<stop offset="1"/>
</linearGradient>
<linearGradient id="paint9_linear_301_31984" x1="105.2" y1="-75.4729" x2="26.53" y2="231.737" gradientUnits="userSpaceOnUse">
<stop stop-color="#5B507B"/>
<stop offset="0.23" stop-color="#594E78"/>
<stop offset="0.4" stop-color="#51486E"/>
<stop offset="0.56" stop-color="#453D5E"/>
<stop offset="0.71" stop-color="#342E46"/>
<stop offset="0.85" stop-color="#1E1A28"/>
<stop offset="0.98" stop-color="#030304"/>
<stop offset="1"/>
</linearGradient>
<linearGradient id="paint10_linear_301_31984" x1="-5.76001" y1="-2.00291" x2="88.79" y2="92.5471" gradientUnits="userSpaceOnUse">
<stop stop-color="#F47242"/>
<stop offset="0.16" stop-color="#EC6842"/>
<stop offset="0.41" stop-color="#D54F41"/>
<stop offset="0.74" stop-color="#B02541"/>
<stop offset="1" stop-color="#900040"/>
</linearGradient>
<linearGradient id="paint11_linear_301_31984" x1="-8.23001" y1="0.467305" x2="86.32" y2="95.0173" gradientUnits="userSpaceOnUse">
<stop offset="0.23" stop-color="#900040"/>
<stop offset="0.31" stop-color="#98124E"/>
<stop offset="0.47" stop-color="#AD4272"/>
<stop offset="0.7" stop-color="#CF90AC"/>
<stop offset="0.98" stop-color="#FCF9FA"/>
<stop offset="1" stop-color="white"/>
</linearGradient>
<linearGradient id="paint12_linear_301_31984" x1="64.7299" y1="42.6171" x2="47.5899" y2="109.557" gradientUnits="userSpaceOnUse">
<stop stop-color="#FFF1D2"/>
<stop offset="0.21" stop-color="#F1D4C0"/>
<stop offset="0.67" stop-color="#CC8A92"/>
<stop offset="0.95" stop-color="#B55B74"/>
</linearGradient>
<linearGradient id="paint13_linear_301_31984" x1="115.09" y1="118.277" x2="115.09" y2="389.247" gradientUnits="userSpaceOnUse">
<stop offset="0.23" stop-color="#900040"/>
<stop offset="0.31" stop-color="#98124E"/>
<stop offset="0.47" stop-color="#AD4272"/>
<stop offset="0.7" stop-color="#CF90AC"/>
<stop offset="0.98" stop-color="#FCF9FA"/>
<stop offset="1" stop-color="white"/>
</linearGradient>
<linearGradient id="paint14_linear_301_31984" x1="104.15" y1="-87.333" x2="104.15" y2="167.727" gradientUnits="userSpaceOnUse">
<stop offset="0.62" stop-color="#900040"/>
<stop offset="0.66" stop-color="#98124E"/>
<stop offset="0.74" stop-color="#AD4272"/>
<stop offset="0.85" stop-color="#CF90AC"/>
<stop offset="0.99" stop-color="#FCF9FA"/>
<stop offset="1" stop-color="white"/>
</linearGradient>
<linearGradient id="paint15_linear_301_31984" x1="76.0799" y1="-45.5829" x2="76.0799" y2="221.507" gradientUnits="userSpaceOnUse">
<stop offset="0.48" stop-color="#900040"/>
<stop offset="0.53" stop-color="#98124E"/>
<stop offset="0.64" stop-color="#AD4272"/>
<stop offset="0.8" stop-color="#CF90AC"/>
<stop offset="0.99" stop-color="#FCF9FA"/>
<stop offset="1" stop-color="white"/>
</linearGradient>
<linearGradient id="paint16_linear_301_31984" x1="8.61002" y1="-8.75295" x2="89.12" y2="88.0271" gradientUnits="userSpaceOnUse">
<stop stop-color="#9A77F6"/>
<stop offset="0.19" stop-color="#775CBE"/>
<stop offset="0.48" stop-color="#45356E"/>
<stop offset="0.72" stop-color="#201832"/>
<stop offset="0.9" stop-color="#09070E"/>
<stop offset="1"/>
</linearGradient>
<linearGradient id="paint17_linear_301_31984" x1="0" y1="154.037" x2="138.31" y2="154.037" gradientUnits="userSpaceOnUse">
<stop stop-color="#CE7033"/>
<stop offset="0.14" stop-color="#B76127"/>
<stop offset="0.37" stop-color="#984C16"/>
<stop offset="0.6" stop-color="#813D0A"/>
<stop offset="0.81" stop-color="#743402"/>
<stop offset="1" stop-color="#6F3100"/>
</linearGradient>
<linearGradient id="paint18_linear_301_31984" x1="41.12" y1="138.787" x2="63.09" y2="176.847" gradientUnits="userSpaceOnUse">
<stop offset="0.3" stop-color="#900040"/>
<stop offset="0.38" stop-color="#920443"/>
<stop offset="0.47" stop-color="#97114D"/>
<stop offset="0.56" stop-color="#A1265D"/>
<stop offset="0.65" stop-color="#AE4473"/>
<stop offset="0.74" stop-color="#BE6B90"/>
<stop offset="0.84" stop-color="#D39AB3"/>
<stop offset="0.93" stop-color="#EBD0DC"/>
<stop offset="1" stop-color="white"/>
</linearGradient>
<linearGradient id="paint19_linear_301_31984" x1="33.0601" y1="185.097" x2="118.52" y2="185.097" gradientUnits="userSpaceOnUse">
<stop stop-color="#900040"/>
<stop offset="0.1" stop-color="#98124E"/>
<stop offset="0.31" stop-color="#AD4272"/>
<stop offset="0.61" stop-color="#CF90AC"/>
<stop offset="0.98" stop-color="#FCF9FA"/>
<stop offset="1" stop-color="white"/>
</linearGradient>
<linearGradient id="paint20_linear_301_31984" x1="28.28" y1="163.077" x2="127.96" y2="163.077" gradientUnits="userSpaceOnUse">
<stop stop-color="#900040"/>
<stop offset="0.1" stop-color="#98124E"/>
<stop offset="0.31" stop-color="#AD4272"/>
<stop offset="0.61" stop-color="#CF90AC"/>
<stop offset="0.98" stop-color="#FCF9FA"/>
<stop offset="1" stop-color="white"/>
</linearGradient>
<linearGradient id="paint21_linear_301_31984" x1="28.0899" y1="152.117" x2="132.42" y2="152.117" gradientUnits="userSpaceOnUse">
<stop stop-color="#900040"/>
<stop offset="0.1" stop-color="#98124E"/>
<stop offset="0.31" stop-color="#AD4272"/>
<stop offset="0.61" stop-color="#CF90AC"/>
<stop offset="0.98" stop-color="#FCF9FA"/>
<stop offset="1" stop-color="white"/>
</linearGradient>
<linearGradient id="paint22_linear_301_31984" x1="29.72" y1="175.057" x2="123.74" y2="175.057" gradientUnits="userSpaceOnUse">
<stop stop-color="#900040"/>
<stop offset="0.1" stop-color="#98124E"/>
<stop offset="0.31" stop-color="#AD4272"/>
<stop offset="0.61" stop-color="#CF90AC"/>
<stop offset="0.98" stop-color="#FCF9FA"/>
<stop offset="1" stop-color="white"/>
</linearGradient>
<linearGradient id="paint23_linear_301_31984" x1="23.8701" y1="181.357" x2="29.7701" y2="181.357" gradientUnits="userSpaceOnUse">
<stop stop-color="#FF9A42"/>
<stop offset="0.09" stop-color="#F79540"/>
<stop offset="0.22" stop-color="#E3893B"/>
<stop offset="0.38" stop-color="#C17432"/>
<stop offset="0.56" stop-color="#915826"/>
<stop offset="0.76" stop-color="#543316"/>
<stop offset="0.97" stop-color="#0B0703"/>
<stop offset="1"/>
</linearGradient>
<linearGradient id="paint24_linear_301_31984" x1="7.8501" y1="147.367" x2="22.1101" y2="147.367" gradientUnits="userSpaceOnUse">
<stop stop-color="#FF9A42"/>
<stop offset="0.09" stop-color="#F79540"/>
<stop offset="0.22" stop-color="#E3893B"/>
<stop offset="0.38" stop-color="#C17432"/>
<stop offset="0.56" stop-color="#915826"/>
<stop offset="0.76" stop-color="#543316"/>
<stop offset="0.97" stop-color="#0B0703"/>
<stop offset="1"/>
</linearGradient>
<linearGradient id="paint25_linear_301_31984" x1="33.04" y1="184.117" x2="118.51" y2="184.117" gradientUnits="userSpaceOnUse">
<stop stop-color="#FF9A42"/>
<stop offset="0.09" stop-color="#F79540"/>
<stop offset="0.22" stop-color="#E3893B"/>
<stop offset="0.38" stop-color="#C17432"/>
<stop offset="0.56" stop-color="#915826"/>
<stop offset="0.76" stop-color="#543316"/>
<stop offset="0.97" stop-color="#0B0703"/>
<stop offset="1"/>
</linearGradient>
<linearGradient id="paint26_linear_301_31984" x1="28.26" y1="161.917" x2="127.94" y2="161.917" gradientUnits="userSpaceOnUse">
<stop stop-color="#FF9A42"/>
<stop offset="0.09" stop-color="#F79540"/>
<stop offset="0.22" stop-color="#E3893B"/>
<stop offset="0.38" stop-color="#C17432"/>
<stop offset="0.56" stop-color="#915826"/>
<stop offset="0.76" stop-color="#543316"/>
<stop offset="0.97" stop-color="#0B0703"/>
<stop offset="1"/>
</linearGradient>
<linearGradient id="paint27_linear_301_31984" x1="17.3501" y1="169.947" x2="26.1101" y2="169.947" gradientUnits="userSpaceOnUse">
<stop stop-color="#FF9A42"/>
<stop offset="0.09" stop-color="#F79540"/>
<stop offset="0.22" stop-color="#E3893B"/>
<stop offset="0.38" stop-color="#C17432"/>
<stop offset="0.56" stop-color="#915826"/>
<stop offset="0.76" stop-color="#543316"/>
<stop offset="0.97" stop-color="#0B0703"/>
<stop offset="1"/>
</linearGradient>
<linearGradient id="paint28_linear_301_31984" x1="54.1982" y1="142.965" x2="58.8122" y2="145.507" gradientUnits="userSpaceOnUse">
<stop stop-color="#900040"/>
<stop offset="0.12" stop-color="#920443"/>
<stop offset="0.24" stop-color="#97114D"/>
<stop offset="0.37" stop-color="#A1265D"/>
<stop offset="0.5" stop-color="#AE4473"/>
<stop offset="0.63" stop-color="#BE6B90"/>
<stop offset="0.77" stop-color="#D39AB3"/>
<stop offset="0.9" stop-color="#EBD0DC"/>
<stop offset="1" stop-color="white"/>
</linearGradient>
<linearGradient id="paint29_linear_301_31984" x1="49.5899" y1="144.617" x2="52.2699" y2="144.617" gradientUnits="userSpaceOnUse">
<stop offset="0.38" stop-color="#908EA3"/>
<stop offset="0.61" stop-color="#8D8BA1"/>
<stop offset="0.78" stop-color="#858299"/>
<stop offset="0.92" stop-color="#77728C"/>
<stop offset="1" stop-color="#6D6783"/>
</linearGradient>
<linearGradient id="paint30_linear_301_31984" x1="28.1301" y1="151.167" x2="132.41" y2="151.167" gradientUnits="userSpaceOnUse">
<stop stop-color="#FF9A42"/>
<stop offset="0.09" stop-color="#F79540"/>
<stop offset="0.22" stop-color="#E3893B"/>
<stop offset="0.38" stop-color="#C17432"/>
<stop offset="0.56" stop-color="#915826"/>
<stop offset="0.76" stop-color="#543316"/>
<stop offset="0.97" stop-color="#0B0703"/>
<stop offset="1"/>
</linearGradient>
<linearGradient id="paint31_linear_301_31984" x1="29.69" y1="173.857" x2="123.72" y2="173.857" gradientUnits="userSpaceOnUse">
<stop stop-color="#FF9A42"/>
<stop offset="0.09" stop-color="#F79540"/>
<stop offset="0.22" stop-color="#E3893B"/>
<stop offset="0.38" stop-color="#C17432"/>
<stop offset="0.56" stop-color="#915826"/>
<stop offset="0.76" stop-color="#543316"/>
<stop offset="0.97" stop-color="#0B0703"/>
<stop offset="1"/>
</linearGradient>
<linearGradient id="paint32_linear_301_31984" x1="11.1499" y1="157.227" x2="23.7099" y2="157.227" gradientUnits="userSpaceOnUse">
<stop stop-color="#FF9A42"/>
<stop offset="0.09" stop-color="#F79540"/>
<stop offset="0.22" stop-color="#E3893B"/>
<stop offset="0.38" stop-color="#C17432"/>
<stop offset="0.56" stop-color="#915826"/>
<stop offset="0.76" stop-color="#543316"/>
<stop offset="0.97" stop-color="#0B0703"/>
<stop offset="1"/>
</linearGradient>
<linearGradient id="paint33_linear_301_31984" x1="40.86" y1="137.067" x2="59" y2="168.467" gradientUnits="userSpaceOnUse">
<stop offset="0.38" stop-color="#908EA3"/>
<stop offset="0.61" stop-color="#8D8BA1"/>
<stop offset="0.78" stop-color="#858299"/>
<stop offset="0.92" stop-color="#77728C"/>
<stop offset="1" stop-color="#6D6783"/>
</linearGradient>
<linearGradient id="paint34_linear_301_31984" x1="80.38" y1="170.367" x2="87.06" y2="181.947" gradientUnits="userSpaceOnUse">
<stop stop-color="#900040"/>
<stop offset="0.12" stop-color="#920443"/>
<stop offset="0.24" stop-color="#97114D"/>
<stop offset="0.37" stop-color="#A1265D"/>
<stop offset="0.5" stop-color="#AE4473"/>
<stop offset="0.63" stop-color="#BE6B90"/>
<stop offset="0.77" stop-color="#D39AB3"/>
<stop offset="0.9" stop-color="#EBD0DC"/>
<stop offset="1" stop-color="white"/>
</linearGradient>
<linearGradient id="paint35_linear_301_31984" x1="76.0199" y1="161.527" x2="82.6999" y2="173.107" gradientUnits="userSpaceOnUse">
<stop stop-color="#908EA3"/>
<stop offset="0.62" stop-color="#7B7790"/>
<stop offset="1" stop-color="#6D6783"/>
</linearGradient>
<linearGradient id="paint36_linear_301_31984" x1="76.01" y1="161.527" x2="84.76" y2="176.677" gradientUnits="userSpaceOnUse">
<stop stop-color="#9A77F6"/>
<stop offset="0.02" stop-color="#9674EF"/>
<stop offset="0.39" stop-color="#56438A"/>
<stop offset="0.68" stop-color="#281F40"/>
<stop offset="0.89" stop-color="#0B0912"/>
<stop offset="1"/>
</linearGradient>
<linearGradient id="paint37_linear_301_31984" x1="98.17" y1="173.517" x2="103.83" y2="183.327" gradientUnits="userSpaceOnUse">
<stop stop-color="#900040"/>
<stop offset="0.12" stop-color="#920443"/>
<stop offset="0.24" stop-color="#97114D"/>
<stop offset="0.37" stop-color="#A1265D"/>
<stop offset="0.5" stop-color="#AE4473"/>
<stop offset="0.63" stop-color="#BE6B90"/>
<stop offset="0.77" stop-color="#D39AB3"/>
<stop offset="0.9" stop-color="#EBD0DC"/>
<stop offset="1" stop-color="white"/>
</linearGradient>
<linearGradient id="paint38_linear_301_31984" x1="93.4701" y1="164.297" x2="99.13" y2="174.107" gradientUnits="userSpaceOnUse">
<stop stop-color="#908EA3"/>
<stop offset="0.62" stop-color="#7B7790"/>
<stop offset="1" stop-color="#6D6783"/>
</linearGradient>
<linearGradient id="paint39_linear_301_31984" x1="94.4701" y1="166.037" x2="101.88" y2="178.867" gradientUnits="userSpaceOnUse">
<stop stop-color="#9A77F6"/>
<stop offset="0.02" stop-color="#9674EF"/>
<stop offset="0.39" stop-color="#56438A"/>
<stop offset="0.68" stop-color="#281F40"/>
<stop offset="0.89" stop-color="#0B0912"/>
<stop offset="1"/>
</linearGradient>
<linearGradient id="paint40_linear_301_31984" x1="113.02" y1="173.357" x2="117.15" y2="180.517" gradientUnits="userSpaceOnUse">
<stop stop-color="#900040"/>
<stop offset="0.12" stop-color="#920443"/>
<stop offset="0.24" stop-color="#97114D"/>
<stop offset="0.37" stop-color="#A1265D"/>
<stop offset="0.5" stop-color="#AE4473"/>
<stop offset="0.63" stop-color="#BE6B90"/>
<stop offset="0.77" stop-color="#D39AB3"/>
<stop offset="0.9" stop-color="#EBD0DC"/>
<stop offset="1" stop-color="white"/>
</linearGradient>
<linearGradient id="paint41_linear_301_31984" x1="123.52" y1="171.507" x2="126.69" y2="176.987" gradientUnits="userSpaceOnUse">
<stop stop-color="#900040"/>
<stop offset="0.12" stop-color="#920443"/>
<stop offset="0.24" stop-color="#97114D"/>
<stop offset="0.37" stop-color="#A1265D"/>
<stop offset="0.5" stop-color="#AE4473"/>
<stop offset="0.63" stop-color="#BE6B90"/>
<stop offset="0.77" stop-color="#D39AB3"/>
<stop offset="0.9" stop-color="#EBD0DC"/>
<stop offset="1" stop-color="white"/>
</linearGradient>
<linearGradient id="paint42_linear_301_31984" x1="52.1501" y1="186.387" x2="52.1501" y2="152.787" gradientUnits="userSpaceOnUse">
<stop stop-color="white"/>
<stop offset="0.28" stop-color="#B1BFE6"/>
<stop offset="0.63" stop-color="#5372C8"/>
<stop offset="0.88" stop-color="#1741B5"/>
<stop offset="1" stop-color="#002EAE"/>
</linearGradient>
<linearGradient id="paint43_linear_301_31984" x1="51.8201" y1="186.047" x2="51.8201" y2="144.307" gradientUnits="userSpaceOnUse">
<stop stop-color="white"/>
<stop offset="0.28" stop-color="#B1BFE6"/>
<stop offset="0.63" stop-color="#5372C8"/>
<stop offset="0.88" stop-color="#1741B5"/>
<stop offset="1" stop-color="#002EAE"/>
</linearGradient>
<linearGradient id="paint44_linear_301_31984" x1="42.63" y1="136.047" x2="60.7601" y2="167.447" gradientUnits="userSpaceOnUse">
<stop stop-color="#9A77F6"/>
<stop offset="0.02" stop-color="#9674EF"/>
<stop offset="0.39" stop-color="#56438A"/>
<stop offset="0.68" stop-color="#281F40"/>
<stop offset="0.89" stop-color="#0B0912"/>
<stop offset="1"/>
</linearGradient>
<linearGradient id="paint45_linear_301_31984" x1="35.72" y1="140.037" x2="53.8499" y2="171.447" gradientUnits="userSpaceOnUse">
<stop stop-color="#9A77F6"/>
<stop offset="0.02" stop-color="#9674EF"/>
<stop offset="0.39" stop-color="#56438A"/>
<stop offset="0.68" stop-color="#281F40"/>
<stop offset="0.89" stop-color="#0B0912"/>
<stop offset="1"/>
</linearGradient>
<linearGradient id="paint46_linear_301_31984" x1="46.44" y1="133.847" x2="64.5701" y2="165.257" gradientUnits="userSpaceOnUse">
<stop stop-color="#9A77F6"/>
<stop offset="0.02" stop-color="#9674EF"/>
<stop offset="0.39" stop-color="#56438A"/>
<stop offset="0.68" stop-color="#281F40"/>
<stop offset="0.89" stop-color="#0B0912"/>
<stop offset="1"/>
</linearGradient>
<linearGradient id="paint47_linear_301_31984" x1="38.4698" y1="138.447" x2="56.5997" y2="169.857" gradientUnits="userSpaceOnUse">
<stop stop-color="#9A77F6"/>
<stop offset="0.02" stop-color="#9674EF"/>
<stop offset="0.39" stop-color="#56438A"/>
<stop offset="0.68" stop-color="#281F40"/>
<stop offset="0.89" stop-color="#0B0912"/>
<stop offset="1"/>
</linearGradient>
<linearGradient id="paint48_linear_301_31984" x1="52.0301" y1="150.027" x2="52.0301" y2="145.727" gradientUnits="userSpaceOnUse">
<stop stop-color="#4F2A29"/>
<stop offset="0.15" stop-color="#562E2C"/>
<stop offset="0.64" stop-color="#673A35"/>
<stop offset="1" stop-color="#6D3E38"/>
</linearGradient>
<linearGradient id="paint49_linear_301_31984" x1="14.89" y1="104.847" x2="51.51" y2="141.477" gradientUnits="userSpaceOnUse">
<stop offset="0.07" stop-color="#FFE224"/>
<stop offset="0.53" stop-color="#FAAA34"/>
<stop offset="1" stop-color="#F56B45"/>
</linearGradient>
<linearGradient id="paint50_linear_301_31984" x1="18.3854" y1="98.1629" x2="27.3676" y2="107.701" gradientUnits="userSpaceOnUse">
<stop stop-color="#FFFF52"/>
<stop offset="0.34" stop-color="#9B9B32"/>
<stop offset="0.65" stop-color="#484817"/>
<stop offset="0.86" stop-color="#141406"/>
<stop offset="0.96"/>
</linearGradient>
<linearGradient id="paint51_linear_301_31984" x1="11.8" y1="173.237" x2="138.31" y2="173.237" gradientUnits="userSpaceOnUse">
<stop stop-color="#900040"/>
<stop offset="0.17" stop-color="#910342"/>
<stop offset="0.31" stop-color="#950D49"/>
<stop offset="0.42" stop-color="#9D1D56"/>
<stop offset="0.53" stop-color="#A73467"/>
<stop offset="0.64" stop-color="#B3517D"/>
<stop offset="0.74" stop-color="#C37698"/>
<stop offset="0.83" stop-color="#D6A1B9"/>
<stop offset="0.93" stop-color="#EBD2DD"/>
<stop offset="1" stop-color="white"/>
</linearGradient>
</defs>
</svg>
