<svg width="302" height="126" viewBox="0 0 302 126" fill="none" xmlns="http://www.w3.org/2000/svg">
<path d="M123.484 64.344C123.084 64.344 122.74 64.04 122.452 63.432C122.164 62.824 122.02 62.08 122.02 61.2V56.208C122.02 55.904 122.86 55.384 124.54 54.648C126.22 53.896 127.188 53.52 127.444 53.52C127.636 53.52 127.908 53.84 128.26 54.48C128.34 54.64 128.452 54.856 128.596 55.128C128.756 55.4 128.884 55.624 128.98 55.8C129.188 56.184 129.452 56.376 129.772 56.376V56.856C129.516 56.968 129.172 57.136 128.74 57.36C127.732 57.92 127.188 58.2 127.108 58.2C126.868 58.2 126.564 57.728 126.196 56.784C125.844 55.84 125.556 55.368 125.332 55.368C125.044 55.368 124.9 55.608 124.9 56.088V61.44C124.9 62.08 125.044 62.4 125.332 62.4C125.396 62.4 125.892 62.192 126.82 61.776C127.748 61.36 128.308 61.152 128.5 61.152C128.884 61.152 129.22 61.464 129.508 62.088C129.812 62.696 129.964 63.48 129.964 64.44V69.552C129.964 69.856 129.044 70.384 127.204 71.136C125.38 71.872 124.332 72.24 124.06 72.24C123.948 72.24 123.82 72.104 123.676 71.832C123.532 71.56 123.34 71.176 123.1 70.68C122.876 70.168 122.668 69.744 122.476 69.408C122.3 69.072 122.052 68.904 121.732 68.904V68.424C121.988 68.312 122.324 68.144 122.74 67.92C123.764 67.36 124.316 67.08 124.396 67.08C124.636 67.08 124.972 67.632 125.404 68.736C125.852 69.84 126.188 70.392 126.412 70.392C126.572 70.392 126.724 70.328 126.868 70.2C127.012 70.072 127.084 69.896 127.084 69.672V64.272C127.084 63.552 126.884 63.192 126.484 63.192C126.356 63.192 125.852 63.384 124.972 63.768C124.092 64.152 123.596 64.344 123.484 64.344ZM137.255 69.504V57.96C137.255 57.368 137.191 56.944 137.063 56.688C136.935 56.432 136.671 56.304 136.271 56.304V55.56L141.191 53.496L141.575 54.264C141.223 54.264 140.887 54.472 140.567 54.888C140.279 55.288 140.135 55.896 140.135 56.712V68.064C140.135 68.592 140.247 69.048 140.471 69.432C140.695 69.816 140.975 70.008 141.311 70.008V70.536C141.199 70.552 140.327 71.04 138.695 72C138.583 71.968 138.447 71.928 138.287 71.88C138.127 71.816 137.911 71.656 137.639 71.4C137.383 71.144 137.255 70.848 137.255 70.512C137.159 70.56 136.887 70.712 136.439 70.968C135.255 71.64 134.551 71.976 134.327 71.976C133.815 71.976 133.335 71.648 132.887 70.992C132.439 70.32 132.215 69.696 132.215 69.12V57.048C132.215 56.168 131.823 55.648 131.039 55.488V54.96L133.655 53.496C134.007 53.64 134.335 53.88 134.639 54.216C134.943 54.536 135.095 54.84 135.095 55.128V66.888C135.095 67.896 135.239 68.584 135.527 68.952C135.831 69.32 136.407 69.504 137.255 69.504ZM145.408 55.176C147.168 54.104 148.176 53.568 148.432 53.568C148.688 53.568 149.088 53.896 149.632 54.552C150.192 55.208 150.472 55.8 150.472 56.328V63.792C150.472 63.904 149.832 64.216 148.552 64.728C147.288 65.24 146.24 65.624 145.408 65.88V68.304C145.408 68.896 145.472 69.32 145.6 69.576C145.728 69.832 145.992 69.96 146.392 69.96V70.704L141.472 72.768L141.088 72C141.44 72 141.776 71.792 142.096 71.376C142.384 70.976 142.528 70.368 142.528 69.552V57.12C142.528 56.144 142.2 55.592 141.544 55.464V54.936L143.968 53.568C144.288 53.696 144.608 53.928 144.928 54.264C145.248 54.6 145.408 54.904 145.408 55.176ZM146.344 55.872C146.056 55.872 145.744 55.992 145.408 56.232V64.752C145.824 64.752 146.288 64.624 146.8 64.368C147.312 64.096 147.568 63.816 147.568 63.528V57.648C147.568 56.464 147.16 55.872 146.344 55.872ZM155.941 55.848C155.781 55.848 155.637 55.928 155.509 56.088V62.424H158.893V63L157.693 63.6H155.509V66C155.509 67.776 155.685 68.816 156.037 69.12C156.565 69.568 157.141 69.824 157.765 69.888C158.389 69.952 159.061 69.984 159.781 69.984V70.68C159.701 70.68 159.109 70.904 158.005 71.352C156.901 71.784 156.229 72 155.989 72C155.493 72 154.805 71.616 153.925 70.848C153.061 70.08 152.629 69.248 152.629 68.352V55.728C152.629 55.616 153.541 55.224 155.365 54.552C157.205 53.864 158.261 53.52 158.533 53.52C158.629 53.52 158.741 53.752 158.869 54.216C158.997 54.68 159.141 55.24 159.301 55.896C159.477 56.552 159.653 57.04 159.829 57.36C160.021 57.664 160.373 57.816 160.885 57.816V58.296C160.533 58.456 159.933 58.744 159.085 59.16C158.253 59.56 157.805 59.76 157.741 59.76C157.501 59.76 157.197 59.112 156.829 57.816C156.461 56.504 156.165 55.848 155.941 55.848ZM166.148 55.872C165.86 55.872 165.548 55.992 165.212 56.232V64.032C165.628 64.032 166.092 63.904 166.604 63.648C167.116 63.376 167.372 63.096 167.372 62.808V57.648C167.372 56.464 166.964 55.872 166.148 55.872ZM162.332 69.552V57.12C162.332 56.144 162.004 55.592 161.348 55.464V54.936L163.772 53.568C164.092 53.696 164.412 53.928 164.732 54.264C165.052 54.6 165.212 54.904 165.212 55.176C166.972 54.104 167.98 53.568 168.236 53.568C168.492 53.568 168.892 53.896 169.436 54.552C169.996 55.208 170.276 55.8 170.276 56.328V63.072C170.276 63.2 169.404 63.608 167.66 64.296C168.396 66.776 169.26 68.448 170.252 69.312C170.7 69.68 171.156 69.864 171.62 69.864V70.584C170.132 71.528 169.188 72 168.788 72C168.26 72 167.588 71.008 166.772 69.024C165.972 67.04 165.54 65.728 165.476 65.088L165.212 65.16V68.304C165.212 68.896 165.276 69.32 165.404 69.576C165.532 69.832 165.796 69.96 166.196 69.96V70.704L161.276 72.768L160.892 72C161.244 72 161.58 71.792 161.9 71.376C162.188 70.976 162.332 70.368 162.332 69.552ZM174.156 64.344C173.756 64.344 173.412 64.04 173.124 63.432C172.836 62.824 172.692 62.08 172.692 61.2V56.208C172.692 55.904 173.532 55.384 175.212 54.648C176.892 53.896 177.86 53.52 178.116 53.52C178.308 53.52 178.58 53.84 178.932 54.48C179.012 54.64 179.124 54.856 179.268 55.128C179.428 55.4 179.556 55.624 179.652 55.8C179.86 56.184 180.124 56.376 180.444 56.376V56.856C180.188 56.968 179.844 57.136 179.412 57.36C178.404 57.92 177.86 58.2 177.78 58.2C177.54 58.2 177.236 57.728 176.868 56.784C176.516 55.84 176.228 55.368 176.004 55.368C175.716 55.368 175.572 55.608 175.572 56.088V61.44C175.572 62.08 175.716 62.4 176.004 62.4C176.068 62.4 176.564 62.192 177.492 61.776C178.42 61.36 178.98 61.152 179.172 61.152C179.556 61.152 179.892 61.464 180.18 62.088C180.484 62.696 180.636 63.48 180.636 64.44V69.552C180.636 69.856 179.716 70.384 177.876 71.136C176.052 71.872 175.004 72.24 174.732 72.24C174.62 72.24 174.492 72.104 174.348 71.832C174.204 71.56 174.012 71.176 173.772 70.68C173.548 70.168 173.34 69.744 173.148 69.408C172.972 69.072 172.724 68.904 172.404 68.904V68.424C172.66 68.312 172.996 68.144 173.412 67.92C174.436 67.36 174.988 67.08 175.068 67.08C175.308 67.08 175.644 67.632 176.076 68.736C176.524 69.84 176.86 70.392 177.084 70.392C177.244 70.392 177.396 70.328 177.54 70.2C177.684 70.072 177.756 69.896 177.756 69.672V64.272C177.756 63.552 177.556 63.192 177.156 63.192C177.028 63.192 176.524 63.384 175.644 63.768C174.764 64.152 174.268 64.344 174.156 64.344ZM182.887 68.376V57.96C182.887 57.368 182.823 56.944 182.695 56.688C182.567 56.432 182.303 56.304 181.903 56.304V55.56L186.823 53.496L187.207 54.264C186.855 54.264 186.519 54.472 186.199 54.888C185.911 55.288 185.767 55.896 185.767 56.712V66.528C185.767 67.808 185.879 68.576 186.103 68.832C186.487 69.312 186.863 69.6 187.231 69.696C188.079 69.888 189.015 69.984 190.039 69.984V70.656C187.911 71.552 186.695 72 186.391 72C186.103 72 185.703 71.872 185.191 71.616C184.679 71.344 184.167 70.912 183.655 70.32C183.143 69.728 182.887 69.08 182.887 68.376ZM191.723 68.496V55.728C191.723 55.616 192.635 55.224 194.459 54.552C196.283 53.864 197.331 53.52 197.603 53.52C197.875 53.52 198.283 53.848 198.827 54.504C199.387 55.16 199.667 55.752 199.667 56.28V69.768C199.667 69.896 198.787 70.304 197.027 70.992C195.283 71.664 194.211 72 193.811 72C193.427 72 192.979 71.656 192.467 70.968C191.971 70.28 191.723 69.456 191.723 68.496ZM195.827 69.792C196.131 69.792 196.443 69.664 196.763 69.408V57.528C196.763 56.344 196.355 55.752 195.539 55.752C195.219 55.752 194.907 55.872 194.603 56.112V68.016C194.603 69.2 195.011 69.792 195.827 69.792ZM203.787 69.552V56.832L204.531 56.112H203.019C202.043 56.112 201.491 56.376 201.363 56.904H200.835L199.467 54.936C199.659 54.632 199.907 54.36 200.211 54.12C200.515 53.88 200.811 53.76 201.099 53.76H207.435C208.411 53.76 208.963 53.496 209.091 52.968H209.619L210.987 54.936C210.795 55.24 210.547 55.512 210.243 55.752C209.939 55.992 209.643 56.112 209.355 56.112H206.667V68.304C206.667 68.896 206.731 69.32 206.859 69.576C206.987 69.832 207.251 69.96 207.651 69.96V70.704L202.731 72.768L202.347 72C202.699 72 203.035 71.792 203.355 71.376C203.643 70.976 203.787 70.368 203.787 69.552ZM212.288 64.344C211.888 64.344 211.544 64.04 211.256 63.432C210.968 62.824 210.824 62.08 210.824 61.2V56.208C210.824 55.904 211.664 55.384 213.344 54.648C215.024 53.896 215.992 53.52 216.248 53.52C216.44 53.52 216.712 53.84 217.064 54.48C217.144 54.64 217.256 54.856 217.4 55.128C217.56 55.4 217.688 55.624 217.784 55.8C217.992 56.184 218.256 56.376 218.576 56.376V56.856C218.32 56.968 217.976 57.136 217.544 57.36C216.536 57.92 215.992 58.2 215.912 58.2C215.672 58.2 215.368 57.728 215 56.784C214.648 55.84 214.36 55.368 214.136 55.368C213.848 55.368 213.704 55.608 213.704 56.088V61.44C213.704 62.08 213.848 62.4 214.136 62.4C214.2 62.4 214.696 62.192 215.624 61.776C216.552 61.36 217.112 61.152 217.304 61.152C217.688 61.152 218.024 61.464 218.312 62.088C218.616 62.696 218.768 63.48 218.768 64.44V69.552C218.768 69.856 217.848 70.384 216.008 71.136C214.184 71.872 213.136 72.24 212.864 72.24C212.752 72.24 212.624 72.104 212.48 71.832C212.336 71.56 212.144 71.176 211.904 70.68C211.68 70.168 211.472 69.744 211.28 69.408C211.104 69.072 210.856 68.904 210.536 68.904V68.424C210.792 68.312 211.128 68.144 211.544 67.92C212.568 67.36 213.12 67.08 213.2 67.08C213.44 67.08 213.776 67.632 214.208 68.736C214.656 69.84 214.992 70.392 215.216 70.392C215.376 70.392 215.528 70.328 215.672 70.2C215.816 70.072 215.888 69.896 215.888 69.672V64.272C215.888 63.552 215.688 63.192 215.288 63.192C215.16 63.192 214.656 63.384 213.776 63.768C212.896 64.152 212.4 64.344 212.288 64.344ZM226.06 57.048C226.06 56.168 225.668 55.648 224.884 55.488V54.96C226.612 54 227.484 53.52 227.5 53.52C227.644 53.52 227.9 53.68 228.268 54C228.636 54.304 228.86 54.632 228.94 54.984C228.972 54.952 229.46 54.704 230.404 54.24C231.348 53.76 231.828 53.52 231.844 53.52C232.164 53.52 232.516 53.712 232.9 54.096C233.636 54.832 234.004 55.816 234.004 57.048V69.768C234.004 69.912 233.148 70.32 231.436 70.992C229.724 71.664 228.66 72 228.244 72C227.492 72 226.868 71.504 226.372 70.512C224.612 71.504 223.5 72 223.036 72C222.572 72 222.116 71.664 221.668 70.992C221.236 70.304 221.02 69.672 221.02 69.096V57.048C221.02 56.168 220.628 55.648 219.844 55.488V54.96L222.46 53.496C222.812 53.64 223.14 53.88 223.444 54.216C223.748 54.536 223.9 54.832 223.9 55.104V67.32C223.9 68.84 224.372 69.6 225.316 69.6C225.556 69.6 225.804 69.552 226.06 69.456V57.048ZM228.964 67.56C228.964 68.072 229.06 68.552 229.252 69C229.46 69.432 229.74 69.648 230.092 69.648C230.444 69.648 230.78 69.576 231.1 69.432V57.912C231.1 57.08 230.932 56.528 230.596 56.256C230.26 55.968 229.716 55.816 228.964 55.8V67.56ZM236.395 68.928V57.96C236.395 57.368 236.331 56.944 236.203 56.688C236.075 56.432 235.811 56.304 235.411 56.304V55.56L240.331 53.496L240.715 54.264C240.363 54.264 240.027 54.472 239.707 54.888C239.419 55.288 239.275 55.896 239.275 56.712V67.992C239.275 68.424 239.347 68.736 239.491 68.928C239.635 69.104 239.883 69.192 240.235 69.192V69.864C236.987 71.288 235.355 72 235.339 72L234.955 71.232C235.083 71.232 235.235 71.176 235.411 71.064C235.603 70.952 235.763 70.824 235.891 70.68C236.227 70.296 236.395 69.712 236.395 68.928ZM241.668 69.264V57.432C241.668 56.904 241.556 56.448 241.332 56.064C241.108 55.68 240.828 55.488 240.492 55.488V54.96C240.604 54.944 241.476 54.456 243.108 53.496C243.22 53.528 243.356 53.576 243.516 53.64C243.676 53.688 243.884 53.84 244.14 54.096C244.412 54.352 244.548 54.648 244.548 54.984C244.644 54.936 244.916 54.784 245.364 54.528C246.548 53.856 247.252 53.52 247.476 53.52C247.988 53.52 248.468 53.856 248.916 54.528C249.364 55.2 249.588 55.816 249.588 56.376V68.448C249.588 69.328 249.98 69.848 250.764 70.008V70.536L248.148 72C247.796 71.856 247.468 71.624 247.164 71.304C246.86 70.968 246.708 70.656 246.708 70.368V58.608C246.708 57.6 246.556 56.912 246.252 56.544C245.964 56.176 245.396 55.992 244.548 55.992V68.304C244.548 68.944 244.628 69.384 244.788 69.624C244.948 69.848 245.196 69.96 245.532 69.96V70.704L240.612 72.768L240.228 72C240.548 72 240.86 71.808 241.164 71.424C241.5 70.976 241.668 70.256 241.668 69.264ZM253.445 64.344C253.045 64.344 252.701 64.04 252.413 63.432C252.125 62.824 251.981 62.08 251.981 61.2V56.208C251.981 55.904 252.821 55.384 254.501 54.648C256.181 53.896 257.149 53.52 257.405 53.52C257.597 53.52 257.869 53.84 258.221 54.48C258.301 54.64 258.413 54.856 258.557 55.128C258.717 55.4 258.845 55.624 258.941 55.8C259.149 56.184 259.413 56.376 259.733 56.376V56.856C259.477 56.968 259.133 57.136 258.701 57.36C257.693 57.92 257.149 58.2 257.069 58.2C256.829 58.2 256.525 57.728 256.157 56.784C255.805 55.84 255.517 55.368 255.293 55.368C255.005 55.368 254.861 55.608 254.861 56.088V61.44C254.861 62.08 255.005 62.4 255.293 62.4C255.357 62.4 255.853 62.192 256.781 61.776C257.709 61.36 258.269 61.152 258.461 61.152C258.845 61.152 259.181 61.464 259.469 62.088C259.773 62.696 259.925 63.48 259.925 64.44V69.552C259.925 69.856 259.005 70.384 257.165 71.136C255.341 71.872 254.293 72.24 254.021 72.24C253.909 72.24 253.781 72.104 253.637 71.832C253.493 71.56 253.301 71.176 253.061 70.68C252.837 70.168 252.629 69.744 252.437 69.408C252.261 69.072 252.013 68.904 251.693 68.904V68.424C251.949 68.312 252.285 68.144 252.701 67.92C253.725 67.36 254.277 67.08 254.357 67.08C254.597 67.08 254.933 67.632 255.365 68.736C255.813 69.84 256.149 70.392 256.373 70.392C256.533 70.392 256.685 70.328 256.829 70.2C256.973 70.072 257.045 69.896 257.045 69.672V64.272C257.045 63.552 256.845 63.192 256.445 63.192C256.317 63.192 255.813 63.384 254.933 63.768C254.053 64.152 253.557 64.344 253.445 64.344ZM262.176 70.464V69C262.176 68.952 262.504 68.808 263.16 68.568C263.832 68.312 264.216 68.184 264.312 68.184C264.424 68.184 264.576 68.32 264.768 68.592C264.976 68.864 265.08 69.144 265.08 69.432V71.184C265.08 71.232 264.76 71.384 264.12 71.64C263.48 71.88 263.088 72 262.944 72C262.8 72 262.632 71.864 262.44 71.592C262.264 71.304 262.176 70.928 262.176 70.464ZM270.785 55.848C270.625 55.848 270.481 55.928 270.353 56.088V66C270.353 66.672 270.393 67.216 270.473 67.632C270.553 68.032 270.729 68.432 271.001 68.832C271.529 69.6 272.737 69.984 274.625 69.984V70.68C274.545 70.68 273.953 70.904 272.849 71.352C271.745 71.784 271.073 72 270.833 72C270.033 72 269.273 71.544 268.553 70.632C267.833 69.704 267.473 68.728 267.473 67.704V55.728C267.473 55.616 268.385 55.224 270.209 54.552C272.049 53.864 273.105 53.52 273.377 53.52C273.473 53.52 273.585 53.752 273.713 54.216C273.841 54.68 273.985 55.24 274.145 55.896C274.321 56.552 274.497 57.04 274.673 57.36C274.865 57.664 275.217 57.816 275.729 57.816V58.296C275.377 58.456 274.777 58.744 273.929 59.16C273.097 59.56 272.649 59.76 272.585 59.76C272.345 59.76 272.041 59.112 271.673 57.816C271.305 56.504 271.009 55.848 270.785 55.848ZM277.176 68.496V55.728C277.176 55.616 278.088 55.224 279.912 54.552C281.736 53.864 282.784 53.52 283.056 53.52C283.328 53.52 283.736 53.848 284.28 54.504C284.84 55.16 285.12 55.752 285.12 56.28V69.768C285.12 69.896 284.24 70.304 282.48 70.992C280.736 71.664 279.664 72 279.264 72C278.88 72 278.432 71.656 277.92 70.968C277.424 70.28 277.176 69.456 277.176 68.496ZM281.28 69.792C281.584 69.792 281.896 69.664 282.216 69.408V57.528C282.216 56.344 281.808 55.752 280.992 55.752C280.672 55.752 280.36 55.872 280.056 56.112V68.016C280.056 69.2 280.464 69.792 281.28 69.792ZM287.512 69.552V57.432C287.512 56.904 287.4 56.448 287.176 56.064C286.952 55.68 286.672 55.488 286.336 55.488V54.96C286.448 54.944 287.32 54.456 288.952 53.496C289.064 53.528 289.2 53.576 289.36 53.64C289.52 53.688 289.728 53.84 289.984 54.096C290.256 54.352 290.392 54.648 290.392 54.984C290.488 54.936 290.76 54.784 291.208 54.528C292.392 53.856 293.12 53.52 293.392 53.52C293.68 53.52 293.992 53.664 294.328 53.952C294.68 54.24 294.944 54.584 295.12 54.984C295.152 54.968 295.48 54.8 296.104 54.48C297.352 53.84 298.104 53.52 298.36 53.52C298.872 53.52 299.352 53.856 299.8 54.528C300.248 55.2 300.472 55.816 300.472 56.376V68.448C300.472 69.328 300.864 69.848 301.648 70.008V70.536L299.032 72C298.68 71.856 298.352 71.624 298.048 71.304C297.744 70.968 297.592 70.656 297.592 70.368V58.608C297.592 57.648 297.432 56.984 297.112 56.616C296.808 56.232 296.248 56.024 295.432 55.992V68.448C295.432 69.328 295.824 69.848 296.608 70.008V70.536L293.992 72C293.64 71.856 293.312 71.624 293.008 71.304C292.704 70.968 292.552 70.656 292.552 70.368V58.608C292.552 57.6 292.4 56.912 292.096 56.544C291.808 56.176 291.24 55.992 290.392 55.992V68.304C290.392 68.896 290.456 69.32 290.584 69.576C290.712 69.832 290.976 69.96 291.376 69.96V70.704L286.456 72.768L286.072 72C286.424 72 286.76 71.792 287.08 71.376C287.368 70.976 287.512 70.368 287.512 69.552Z" fill="white"/>
<path d="M42.9108 11.7749C44.3825 13.5033 46.1275 14.9789 48.0764 16.1429C48.393 15.4845 49.1526 15.8643 49.6843 15.6238C50.2614 15.2623 50.7965 14.8377 51.2796 14.3577C52.0392 13.7753 52.3431 13.5221 52.1532 12.5472C51.8818 11.6764 51.4226 10.8758 50.8078 10.202C50.1931 9.52816 49.4378 8.99757 48.5955 8.64769C47.8121 8.26106 46.9555 8.04532 46.0824 8.01476C45.2094 7.9842 44.3397 8.13953 43.5312 8.47044C41.1003 9.62257 42.2018 11.4457 43.4426 13.0663L42.9108 11.7749Z" fill="#FFC18B"/>
<path style="mix-blend-mode:multiply" opacity="0.6" d="M16.3611 0.32918C16.3611 0.32918 13.2592 90.0054 4.96643 126L46.2279 108.769C46.2279 108.769 77.7152 121.949 93.8197 126C93.8197 126 88.7554 25.4228 89.4011 0L16.3611 0.32918Z" fill="url(#paint0_linear_301_32217)"/>
<path d="M8.39748 0C8.39748 0 8.85327 85.5995 0.484497 121.543L41.746 104.312C41.746 104.312 73.2333 117.479 89.3378 121.543C89.3378 121.543 81.8426 25.3215 82.4757 0H8.39748Z" fill="url(#paint1_linear_301_32217)"/>
<path d="M13.8669 0C13.8669 0 3.10524 114.593 5.16895 115.479C7.23265 116.365 41.8852 101.919 41.8852 101.919C41.8852 101.919 79.5763 116.593 84.1469 116.479C88.7174 116.365 78.652 0 78.652 0H13.8669Z" fill="url(#paint2_linear_301_32217)"/>
<path d="M0.484497 121.632L5.169 115.796C17.6353 111.923 29.8908 107.401 41.8852 102.249C41.8852 102.249 71.4228 114.061 84.1216 116.809L89.3124 121.632C89.3124 121.632 58.4708 112.124 41.7206 104.401C41.746 104.401 12.297 117.037 0.484497 121.632Z" fill="#1F002E"/>
<path fill-rule="evenodd" clip-rule="evenodd" d="M54.7867 70.09L54.2296 78.6613H50.2414V70.9636L48.2663 71.1282L47.646 78.2815L42.2019 78.5601L41.898 71.3181H40.2774L39.771 78.5474H36.074L36.5424 70.2799C36.5424 70.2799 30.2121 71.3308 29.693 67.8364C28.161 57.252 20.2987 51.9091 26.1227 41.7805C30.3514 34.3613 59.0407 29.4363 64.0163 44.9204C67.4094 55.3655 61.3829 57.5812 59.0407 68.1149C58.6229 69.9127 54.7867 70.09 54.7867 70.09ZM43.0122 57.0621C42.6956 55.1629 37.1882 50.2632 34.8459 50.086C32.5037 49.9087 30.0601 52.4409 29.5917 55.4162C29.1232 58.3914 34.2889 63.1772 37.53 63.0126C40.7712 62.848 43.3034 58.8726 43.0122 57.0621ZM40.6952 66.7222C41.5688 67.5325 43.5692 66.7222 43.5692 66.7222L44.4302 64.3293L45.1518 66.6716C45.5772 67.0044 46.0977 67.1925 46.6375 67.2085C47.1774 67.2244 47.7082 67.0674 48.1524 66.7602C49.0134 66.2031 46.19 61.3414 44.6327 61.2401C43.0754 61.1388 39.7963 65.8993 40.6952 66.7222ZM59.3192 55.7074C58.8887 52.7194 56.4832 50.1493 54.1536 50.2886C51.824 50.4278 46.2153 55.2262 45.8861 57.1127C45.5569 58.9992 48.0132 62.9746 51.2417 63.1772C54.4702 63.3798 59.7496 58.6447 59.3192 55.7074Z" fill="url(#paint3_linear_301_32217)"/>
<defs>
<linearGradient id="paint0_linear_301_32217" x1="49.3298" y1="126" x2="49.3298" y2="0" gradientUnits="userSpaceOnUse">
<stop stop-color="#DD9E88"/>
<stop offset="0.99" stop-color="#B17A4D"/>
</linearGradient>
<linearGradient id="paint1_linear_301_32217" x1="44.9238" y1="121.632" x2="44.9238" y2="0.0379773" gradientUnits="userSpaceOnUse">
<stop stop-color="#39152F"/>
<stop offset="1" stop-color="#7F1E3A"/>
</linearGradient>
<linearGradient id="paint2_linear_301_32217" x1="45.1263" y1="116.492" x2="45.1263" y2="0" gradientUnits="userSpaceOnUse">
<stop stop-color="#52223B"/>
<stop offset="1" stop-color="#883A3B"/>
</linearGradient>
<linearGradient id="paint3_linear_301_32217" x1="8.01155" y1="100.362" x2="49.7615" y2="37.644" gradientUnits="userSpaceOnUse">
<stop stop-color="#C79296"/>
<stop offset="1" stop-color="#FFF4D0"/>
</linearGradient>
</defs>
</svg>
