<svg width="369" height="43" viewBox="0 0 369 43" fill="none" xmlns="http://www.w3.org/2000/svg">
<g opacity="0.7">
<path fill-rule="evenodd" clip-rule="evenodd" d="M28.1487 19.8622C29.1721 19.6351 30.3157 19.6945 31.2255 20.2569C32.1002 20.7923 32.618 21.7954 32.6869 22.8025C32.7329 23.5041 32.6923 24.2085 32.6437 24.9087C30.2427 24.9114 27.8418 24.9006 25.4423 24.9141C25.3435 25.8348 25.4057 26.8608 26.0059 27.6138C26.6467 28.4358 27.8161 28.6561 28.7895 28.4182C29.8804 28.1816 30.7281 27.2772 31.0606 26.2336C31.4378 26.2228 31.8177 26.2214 32.1962 26.2282C31.9258 27.1055 31.4838 27.9585 30.7645 28.5493C29.6182 29.4997 27.9662 29.666 26.5737 29.2442C25.4679 28.9143 24.6487 27.9261 24.4121 26.8135C24.1066 25.3711 24.3256 23.8259 24.9813 22.5078C25.6031 21.237 26.7468 20.1799 28.1487 19.8622ZM27.2754 21.2817C26.3926 21.9143 25.8599 22.9215 25.5842 23.9529C27.5796 23.957 29.5763 23.9462 31.5716 23.9584C31.5838 23.3973 31.6325 22.8187 31.4391 22.2807C31.2458 21.6656 30.7781 21.1411 30.1792 20.8991C29.2302 20.5151 28.0986 20.6828 27.2754 21.2817ZM7.01623 23.4163C9.06294 22.916 11.1178 22.4429 13.1727 21.9779C13.0271 22.3746 13.0665 22.5846 12.8815 22.7714C12.5379 23.1183 12.4769 23.3123 11.5788 23.5704C10.5987 23.8407 9.60235 24.0449 8.61279 24.2733L7.43335 24.0822L7.01623 23.4163ZM0 25.0588C1.40461 24.7019 2.81865 24.3829 4.23134 24.0651C4.56148 24.0915 5.14602 24.0466 5.26497 24.2241C5.38756 24.4071 5.05294 24.7844 4.95595 25.1467C4.06779 25.3332 3.18772 25.5603 2.29952 25.7536C4.75048 28.3776 7.15683 31.0422 9.5902 33.6824C13.3322 32.5603 17.0782 31.4477 20.8323 30.3703C18.9874 28.678 17.0682 27.0754 15.2342 25.3832C15.1451 25.0206 15.1971 24.8506 15.32 24.6705C15.4241 24.5181 15.5791 24.3048 15.9169 24.3855C18.3892 26.4984 20.9003 28.7419 23.2874 30.9164C18.5882 32.2791 13.8932 33.6621 9.20626 35.068C6.13481 31.7343 3.09444 28.3695 0 25.0588Z" fill="white"/>
<path fill-rule="evenodd" clip-rule="evenodd" d="M27.3051 7.83594L10.135 32.828L2.01157 20.7828L10.1147 25.0507L27.3051 7.83594Z" fill="white"/>
<path fill-rule="evenodd" clip-rule="evenodd" d="M36.1072 18.1102C37.3833 16.9638 39.1313 16.3852 40.84 16.5028C42.1798 16.5528 43.5871 17.026 44.4563 18.094C45.1025 18.8713 45.3391 19.9027 45.3458 20.895C44.6145 20.9099 43.8845 20.9126 43.1545 20.9139C43.1247 20.2961 43.0139 19.6445 42.6056 19.1552C42.0554 18.4779 41.1361 18.2345 40.2939 18.267C39.1191 18.2534 37.9863 18.8632 37.2765 19.7892C36.1774 21.2073 35.8246 23.0905 36.0193 24.8465C36.1518 25.8983 36.7574 26.9325 37.7483 27.3786C38.8379 27.8585 40.229 27.8585 41.1942 27.096C41.908 26.5418 42.2947 25.6915 42.5691 24.8533C43.2937 24.8655 44.0183 24.8465 44.7429 24.8668C44.4104 26.2457 43.7358 27.6003 42.5691 28.4561C41.1686 29.5119 39.2705 29.6971 37.6037 29.2861C36.3721 28.9927 35.2474 28.2235 34.5863 27.1366C33.8657 25.9781 33.6833 24.5613 33.8117 23.2216C33.9266 21.3209 34.6633 19.3958 36.1072 18.1102Z" fill="white"/>
<path fill-rule="evenodd" clip-rule="evenodd" d="M51.0467 16.5636C52.4689 16.3622 53.9978 16.5528 55.2172 17.3545C56.3177 18.0561 57.0639 19.2309 57.3464 20.4962C57.6074 21.7548 57.5073 23.0688 57.2315 24.3179C56.8287 26.0997 55.7539 27.7828 54.1249 28.6697C52.527 29.5686 50.5452 29.7227 48.8094 29.1563C47.494 28.7264 46.3895 27.7058 45.8744 26.4201C45.4188 25.3697 45.3918 24.2017 45.477 23.0769C45.6135 21.26 46.3273 19.4323 47.6846 18.1804C48.6106 17.3193 49.7989 16.7596 51.0467 16.5636ZM50.8885 18.4238C49.1798 18.9253 48.1523 20.6192 47.7981 22.2753C47.5061 23.6839 47.448 25.3143 48.3429 26.5283C49.5177 28.0383 51.9781 28.0599 53.3733 26.8446C54.6832 25.7185 55.2321 23.9462 55.3173 22.2685C55.3511 21.2019 55.1753 20.0352 54.4331 19.2146C53.5571 18.2521 52.0877 18.0804 50.8885 18.4238Z" fill="white"/>
<path fill-rule="evenodd" clip-rule="evenodd" d="M61.5129 17.1341C62.9107 16.4447 64.5411 16.346 66.0525 16.6555C67.188 16.8867 68.3074 17.4788 68.9374 18.4833C69.3754 19.1524 69.5241 19.9568 69.5633 20.7423C68.8333 20.7463 68.1046 20.7409 67.3746 20.7463C67.3448 19.8838 66.9028 19.0092 66.0998 18.632C64.7223 17.9898 62.958 18.167 61.8022 19.1822C60.7477 20.1028 60.2043 21.4709 59.9853 22.8255C59.8393 24.076 59.8379 25.4725 60.6355 26.5228C61.6224 27.818 63.5691 27.9978 64.9723 27.3367C66.1417 26.7702 66.7568 25.5211 67.0677 24.3193C65.9349 24.3085 64.8007 24.3166 63.6678 24.3153C63.7475 23.7569 63.903 23.2121 63.9963 22.6565C65.7767 22.6295 67.5598 22.6524 69.3416 22.6457C68.8847 24.8289 68.4034 27.0082 67.9573 29.1955C67.4855 29.2036 67.015 29.2023 66.5432 29.2009C66.5459 28.7535 66.5486 28.306 66.5689 27.8585C65.7361 28.8751 64.4411 29.4956 63.127 29.4889C61.9806 29.4672 60.8086 29.1969 59.8582 28.5317C58.8375 27.8369 58.1494 26.7216 57.8845 25.5238C57.6006 24.0895 57.7168 22.5781 58.1346 21.1803C58.6523 19.4485 59.869 17.9142 61.5129 17.1341Z" fill="white"/>
<path fill-rule="evenodd" clip-rule="evenodd" d="M72.0778 16.7718C73.919 16.7826 75.7589 16.7677 77.6002 16.7799C78.629 16.8029 79.7456 16.9962 80.5175 17.7344C81.3057 18.486 81.453 19.6797 81.284 20.7071C81.161 21.4993 80.7514 22.2645 80.0741 22.716C79.6172 23.054 79.0588 23.1905 78.5195 23.3365C79.048 23.542 79.528 23.9273 79.6942 24.4897C80.1241 25.8875 79.4766 27.3313 79.7091 28.7494C79.7362 28.8657 79.7862 28.9725 79.8578 29.0711C82.3074 24.9655 84.757 20.8599 87.2282 16.7677C87.9839 16.7799 88.741 16.7799 89.4967 16.7677C90.2443 20.9085 90.9188 25.0615 91.6759 29.1996C90.9364 29.2036 90.1969 29.1969 89.4588 29.205C89.2587 28.11 89.1262 27.0028 88.937 25.9051C87.3093 25.8969 85.683 25.9172 84.0581 25.8942C83.3673 26.9784 82.7724 28.1221 82.0911 29.2131C80.5932 29.1874 79.0926 29.209 77.5948 29.2023C77.2081 27.8518 77.8029 26.4728 77.6313 25.1088C77.5407 24.4599 76.8567 24.1233 76.2591 24.1098C75.0992 24.0517 73.938 24.103 72.7767 24.08C72.4049 25.7888 72.0859 27.5084 71.6952 29.2117C70.9584 29.1901 70.2217 29.2077 69.4849 29.1996C70.3771 25.0628 71.195 20.9099 72.0778 16.7718ZM73.1147 22.4334C74.157 22.4294 75.1992 22.4334 76.2415 22.4321C76.9567 22.4254 77.7056 22.3226 78.3099 21.9116C79.1048 21.3844 79.3887 20.238 78.9912 19.385C78.6573 18.7361 77.857 18.5928 77.1973 18.5617C76.1023 18.5482 75.0086 18.563 73.9136 18.5563C73.6527 19.85 73.3891 21.1424 73.1147 22.4334ZM87.3553 19.9987C86.5442 21.4047 85.7763 22.8376 84.9422 24.2301C86.2008 24.2517 87.4621 24.2409 88.7207 24.2355C88.4544 22.4916 88.207 20.7436 87.965 18.997C87.6946 19.2849 87.5594 19.6648 87.3553 19.9987Z" fill="white"/>
<path d="M175.149 1.82372C179.826 -0.184635 185.17 -0.527524 190.088 0.761866C194.689 1.92326 198.897 4.59527 201.88 8.28805C204.93 12.0298 206.635 16.7955 206.809 21.607C205.5 21.6149 204.19 21.656 202.885 21.5833C202.574 17.9917 201.649 14.223 199.145 11.502C196.953 9.02123 194.239 6.96705 191.156 5.72981C191.118 5.56705 191.083 5.40272 191.048 5.23997C190.8 5.15464 190.563 5.03929 190.344 4.89708C190.125 5.04719 189.89 5.16886 189.644 5.26367C189.615 5.53387 189.549 5.79617 189.455 6.05058C189.661 6.22123 189.841 6.41875 189.963 6.66051C190.236 6.6289 190.513 6.61942 190.788 6.64787C190.86 6.51039 190.931 6.37292 191.002 6.23387C193.358 7.14877 195.468 8.61672 197.301 10.3422C198.516 11.5115 199.706 12.7598 200.466 14.2831C201.619 16.5474 202.209 19.0819 202.348 21.6102C201.856 21.5675 201.275 21.754 200.844 21.5106C200.594 18.9129 200.001 16.2962 198.682 14.0176C197.143 11.3187 194.474 9.45103 191.658 8.26592C189.858 7.56118 187.931 7.03974 185.984 7.11401C186.136 6.94493 186.283 6.76954 186.428 6.59414C186.041 6.47089 185.651 6.35396 185.267 6.22439C185.232 5.81039 185.2 5.3964 185.142 4.98556C184.813 5.19256 184.502 5.43432 184.151 5.60498C183.742 5.50543 183.426 5.19098 183.067 4.98714C183.021 5.39008 182.99 5.79617 182.971 6.20227C182.583 6.35238 182.185 6.46931 181.79 6.5973C182.049 6.92281 182.348 7.21197 182.65 7.49798C182.509 7.87721 182.367 8.25644 182.258 8.64674C182.664 8.59775 183.07 8.53929 183.478 8.49662C183.675 8.86321 183.886 9.22507 184.127 9.56637C184.334 9.22033 184.527 8.86322 184.714 8.5061C185.134 8.53613 185.551 8.59617 185.968 8.64516C185.854 8.28331 185.728 7.92778 185.606 7.56909C189.645 7.56118 193.646 9.24561 196.539 12.0503C198.347 13.8517 199.369 16.2898 199.916 18.7454C200.129 19.6856 200.275 20.6415 200.276 21.6086C199.292 21.6133 198.304 21.6607 197.323 21.5786C197.197 19.8025 196.795 18.0264 195.928 16.4573C194.995 14.6844 193.588 13.1849 191.936 12.063C192.091 11.9081 192.248 11.7549 192.404 11.6016C192.11 11.4515 191.815 11.3029 191.521 11.1576C191.524 10.8336 191.524 10.5097 191.522 10.1874C191.222 10.3138 190.925 10.4513 190.633 10.595C190.358 10.3754 190.092 10.1447 189.82 9.92191C189.759 10.2601 189.688 10.595 189.623 10.9316C189.293 11.0138 188.959 11.0849 188.626 11.1607C188.828 11.4262 189.034 11.6901 189.236 11.9555C189.102 12.2605 188.951 12.5576 188.8 12.8546C189.143 12.8531 189.484 12.8452 189.827 12.8531C189.95 13.1517 190.088 13.444 190.223 13.7364C190.481 13.5088 190.669 13.1833 190.987 13.0348C191.268 13.0664 191.544 13.1312 191.823 13.1865C191.813 12.9858 191.807 12.7867 191.799 12.586C194.719 14.6149 196.711 17.9996 196.779 21.5833C195.435 21.6418 194.084 21.6418 192.737 21.5817C192.669 19.3395 191.276 17.3517 189.454 16.1334C188.89 15.7479 188.207 15.2406 188.283 14.4727C188.074 14.5075 187.867 14.5438 187.66 14.5817C187.496 14.4363 187.333 14.291 187.169 14.1472C187.082 14.3336 186.998 14.5217 186.915 14.7097C186.698 14.7634 186.482 14.8172 186.267 14.8693C186.499 15.2485 186.507 15.6689 186.264 16.0449C186.704 16.0718 187.011 16.3404 187.15 16.7544C187.46 16.4542 187.853 16.3625 188.264 16.4874C188.286 16.3815 188.332 16.1698 188.354 16.0639C189.65 16.8397 190.857 17.8652 191.576 19.2131C191.962 19.9321 192.139 20.7411 192.2 21.5485C191.056 21.7002 189.9 21.6007 188.754 21.5312C185.067 21.5264 181.376 21.4284 177.695 21.6196C174.631 21.6102 171.567 21.6275 168.501 21.6133C168.607 24.516 169.47 27.4582 171.192 29.8221C171.415 30.2424 171.96 30.1729 172.273 30.4889C172.314 30.6707 172.351 30.8524 172.381 31.0357C172.23 31.181 172.082 31.328 171.94 31.4813C171.718 31.456 171.499 31.4402 171.278 31.437C171.178 31.1241 171.14 30.7986 171.112 30.4731C170.908 30.0797 170.598 29.751 170.369 29.3734C168.893 27.0648 168.234 24.3327 168.035 21.6244C166.839 21.6149 165.644 21.6133 164.45 21.626C164.524 22.4382 164.568 23.2614 164.763 24.0562C164.813 24.3675 165.191 24.3169 165.42 24.3817C165.649 24.7214 165.625 25.0912 165.452 25.4499C165.243 25.491 165.039 25.5858 164.824 25.5858C164.671 25.4673 164.527 25.3409 164.379 25.2192C164.398 24.0104 164.08 22.83 164.03 21.6244C163.388 21.6149 162.746 21.6117 162.107 21.6275C162.1 26.5181 164.243 31.219 167.364 34.9102C168.038 35.6639 168.675 36.4666 169.486 37.0828C169.645 36.9896 169.805 36.8948 169.965 36.7984C170.165 36.9959 170.391 37.1682 170.644 37.2946C170.631 37.5664 170.642 37.8381 170.674 38.1083C170.435 38.2553 170.249 38.4639 170.107 38.7041C169.854 38.5445 169.563 38.5018 169.269 38.5318C169.171 38.2743 169.054 38.0262 168.903 37.7971C168.974 37.6659 169.046 37.5348 169.118 37.4036C165.682 34.1217 163.007 29.9201 162.045 25.2271C161.516 22.7273 161.609 20.1343 161.99 17.6203C162.225 16.0228 162.832 14.5138 163.497 13.0537C165.829 8.04945 170.064 3.9727 175.149 1.82372Z" fill="white"/>
<path d="M198.235 25.8402C198.69 25.5289 199.485 25.7153 199.576 26.3237C199.671 27.1549 199.6 27.9971 199.605 28.833C200.309 28.2846 201.216 27.8786 202.119 28.1409C203.037 28.3178 203.704 29.198 203.715 30.1176C203.737 31.328 203.723 32.5384 203.724 33.7488C203.745 34.1169 203.563 34.4835 203.253 34.6842C202.798 34.8311 202.142 34.7427 202.037 34.1865C201.879 32.9508 202.065 31.6946 201.943 30.4558C201.879 30.0986 201.76 29.6451 201.36 29.5361C200.673 29.3181 199.888 29.7542 199.718 30.4558C199.5 31.6772 199.714 32.9271 199.575 34.1533C199.451 34.7664 198.639 34.8959 198.179 34.5957C197.886 34.3508 197.871 33.9415 197.867 33.5907C197.868 31.3754 197.871 29.1585 197.865 26.9431C197.86 26.5512 197.886 26.0898 198.235 25.8402Z" fill="white"/>
<path d="M174.416 25.8275C174.966 25.5479 175.73 25.9903 175.662 26.6334C175.723 27.4298 174.593 27.7711 174.109 27.2165C173.708 26.8056 173.88 26.0361 174.416 25.8275Z" fill="white"/>
<path d="M176.519 26.2526C176.781 25.7817 177.385 25.8196 177.846 25.8212C179.633 25.8512 181.422 25.7833 183.206 25.8544C183.966 25.8939 184.175 27.0711 183.47 27.3539C182.696 27.5515 181.88 27.395 181.089 27.4614C181.108 29.4508 181.09 31.4402 181.1 33.428C181.106 33.8673 181.081 34.4187 180.637 34.651C180.267 34.7774 179.758 34.8153 179.485 34.4788C179.202 34.207 179.23 33.7883 179.221 33.4296C179.229 31.4386 179.223 29.446 179.226 27.4551C178.515 27.4282 177.802 27.4851 177.093 27.4203C176.558 27.3729 176.22 26.7029 176.519 26.2526Z" fill="white"/>
<path d="M174.449 28.1314C175.016 27.8738 175.697 28.3795 175.651 28.9941C175.67 30.579 175.662 32.1655 175.655 33.7503C175.677 34.2149 175.367 34.7648 174.844 34.7363C174.345 34.8311 173.916 34.3824 173.907 33.9052C173.883 32.3187 173.909 30.7323 173.896 29.1458C173.879 28.7429 174.019 28.2594 174.449 28.1314Z" fill="white"/>
<path d="M184.175 29.3275C185.017 28.0634 186.81 27.7648 188.158 28.3068C189.267 28.7476 190.001 29.9865 189.838 31.1684C189.779 31.693 189.215 31.8921 188.757 31.9032C187.649 31.949 186.539 31.9079 185.429 31.9174C185.423 32.5763 185.791 33.2747 186.46 33.4612C187.232 33.7472 187.978 33.2241 188.512 32.7138C188.778 32.3977 189.288 32.2808 189.615 32.5668C189.918 32.9334 189.696 33.4517 189.43 33.7725C188.729 34.5989 187.572 34.8201 186.539 34.73C185.439 34.7126 184.35 34.0648 183.917 33.0345C183.429 31.8558 183.479 30.4147 184.175 29.3275ZM185.941 29.6657C185.581 29.9485 185.491 30.4178 185.425 30.8445C186.325 30.8539 187.227 30.8539 188.13 30.8429C188.063 30.4542 188.019 30.0165 187.708 29.7352C187.253 29.2564 186.426 29.2043 185.941 29.6657Z" fill="white"/>
<path d="M193.238 28.1314C194.569 27.8501 196.285 28.3004 196.836 29.6625C197.072 30.146 196.708 30.756 196.174 30.7844C195.632 30.8508 195.398 30.2598 195.074 29.9422C194.593 29.2959 193.497 29.3117 192.998 29.928C192.505 30.4858 192.5 31.2853 192.578 31.9853C192.674 32.5068 192.944 33.0614 193.471 33.2637C193.937 33.4375 194.513 33.4185 194.915 33.1009C195.272 32.8102 195.449 32.363 195.778 32.0454C196.152 31.7483 196.772 31.9348 196.922 32.3883C197.111 32.8765 196.824 33.3901 196.512 33.7567C195.85 34.5246 194.784 34.7822 193.806 34.7174C192.692 34.7537 191.548 34.1454 191.091 33.1041C190.5 31.7941 190.642 30.1065 191.604 29.0068C192.031 28.5422 192.627 28.2594 193.238 28.1314Z" fill="white"/>
<path d="M174.1 36.4334C174.055 35.9041 174.629 35.4332 175.13 35.6623C175.593 35.7887 175.648 36.3323 175.658 36.7352C175.669 38.3153 175.655 39.8971 175.659 41.4788C176.683 41.5372 177.72 41.4013 178.737 41.5467C179.366 41.6889 179.273 42.7318 178.625 42.7618C177.369 42.8124 176.107 42.7919 174.847 42.7729C174.405 42.8013 174.074 42.3731 174.098 41.9544C174.089 40.1151 174.086 38.2727 174.1 36.4334Z" fill="white"/>
<path d="M185.816 35.6797C186.172 35.4695 186.708 35.7065 186.758 36.1269C186.851 36.7968 186.788 37.4779 186.79 38.151C187.698 37.3467 189.279 37.2772 190.065 38.2853C190.672 39.0959 190.724 40.202 190.492 41.1564C190.29 42.0966 189.44 42.9325 188.439 42.8961C187.842 42.9499 187.308 42.6496 186.862 42.2862C186.686 42.5706 186.485 42.9609 186.082 42.893C185.572 42.9357 185.401 42.381 185.418 41.9702C185.406 40.2257 185.418 38.4797 185.414 36.7352C185.442 36.3686 185.401 35.8424 185.816 35.6797ZM187.577 38.7467C186.954 39.0849 186.801 39.8939 186.875 40.5433C186.921 41.1217 187.325 41.749 187.958 41.7632C188.541 41.8248 189.03 41.3287 189.122 40.7819C189.222 40.1625 189.231 39.4167 188.765 38.9348C188.474 38.6061 187.959 38.5776 187.577 38.7467Z" fill="white"/>
<path d="M180.779 37.7576C181.64 37.4162 182.631 37.4194 183.505 37.7133C183.96 37.865 184.273 38.2869 184.367 38.7467C184.582 39.8244 184.26 40.9463 184.609 42.0065C184.786 42.3779 184.557 42.8472 184.135 42.8835C183.693 42.9831 183.434 42.5327 183.163 42.272C182.598 42.5912 182.004 42.9436 181.327 42.8961C180.501 42.9609 179.624 42.3494 179.586 41.4835C179.505 40.7661 180.071 40.1151 180.746 39.9492C181.515 39.7454 182.313 39.6553 183.069 39.3914C182.966 39.107 182.933 38.693 182.569 38.6266C182.1 38.5018 181.488 38.535 181.168 38.9506C181.003 39.1354 180.858 39.3361 180.679 39.5083C180.352 39.6253 179.891 39.4925 179.836 39.107C179.744 38.4939 180.251 37.9756 180.779 37.7576ZM181.062 41.0806C180.839 41.7347 181.689 42.1329 182.204 41.8533C182.862 41.681 183.088 40.981 183.065 40.3711C182.403 40.5813 181.517 40.4849 181.062 41.0806Z" fill="white"/>
<path d="M191.883 37.9614C192.51 37.4874 193.351 37.4889 194.095 37.5948C194.7 37.6959 195.354 38.0341 195.548 38.6567C195.691 39.1765 195.057 39.5352 194.63 39.2998C194.21 39.0153 193.923 38.4101 193.333 38.4813C192.997 38.456 192.75 38.6977 192.587 38.9616C193.183 39.7201 194.327 39.5036 195.087 40.0314C196.051 40.4643 196.024 42.0223 195.089 42.4664C194.332 42.9767 193.354 42.9831 192.496 42.7792C191.872 42.5896 191.17 42.0761 191.266 41.3429C191.292 40.9305 191.805 40.7614 192.143 40.9289C192.519 41.2765 192.745 41.8785 193.33 41.918C193.755 42.0144 194.517 41.8011 194.386 41.2402C194.071 40.7898 193.46 40.7709 192.981 40.6081C192.417 40.4454 191.791 40.2431 191.461 39.7169C191.119 39.1323 191.348 38.3454 191.883 37.9614Z" fill="white"/>
<path d="M296.837 20.5227H315.325V34.7391H311.626L310.275 31.2969C307.402 33.8183 302.111 35.4447 296.355 35.4447C289.137 35.4447 285.61 33.7753 283.442 32.45C276.981 28.6033 276.809 24.051 276.809 21.237C276.809 14.757 283.029 7.45947 296.768 7.45947C304.631 7.45947 313.381 10.2735 314.611 16.2371H309.096C307.281 11.6074 301.113 10.6435 296.476 10.6435C288.905 10.6435 282.676 14.4558 282.676 21.4177C282.676 26.822 285.489 32.3812 296.708 32.3812C298.824 32.3812 302.222 32.2349 305.337 30.6773C309.036 28.8271 309.974 26.4519 309.974 23.6035H296.837V20.5227Z" fill="white"/>
<path d="M324.135 8.15652V34.7391H351.201V31.555H329.83V8.15652H324.135Z" fill="white"/>
<path d="M363.951 8.15652H358.255V34.7391H363.951V8.15652Z" fill="white"/>
<path d="M366.962 9.33548V8.8966H367.254C367.409 8.8966 367.564 8.93102 367.564 9.10313C367.564 9.32688 367.4 9.33548 367.22 9.33548H366.962ZM366.962 9.52481H367.211L367.59 10.1444H367.831L367.426 9.5162C367.633 9.49038 367.796 9.37851 367.796 9.12034C367.796 8.83636 367.633 8.71588 367.289 8.71588H366.747V10.1444H366.962V9.52481ZM367.228 10.6693C367.908 10.6693 368.484 10.1444 368.484 9.42154C368.484 8.70728 367.908 8.18234 367.228 8.18234C366.549 8.18234 365.972 8.70728 365.972 9.42154C365.964 10.1444 366.549 10.6693 367.228 10.6693ZM366.213 9.42154C366.213 8.83636 366.652 8.38887 367.22 8.38887C367.779 8.38887 368.226 8.82776 368.226 9.42154C368.226 10.0153 367.779 10.4628 367.22 10.4628C366.661 10.4628 366.213 10.0239 366.213 9.42154Z" fill="white"/>
</g>
</svg>
