<svg width="248" height="102" viewBox="0 0 248 102" fill="none" xmlns="http://www.w3.org/2000/svg">
<path d="M99.0971 51.62C98.7637 51.62 98.4771 51.3667 98.2371 50.86C97.9971 50.3533 97.8771 49.7333 97.8771 49V44.84C97.8771 44.5867 98.5771 44.1533 99.9771 43.54C101.377 42.9133 102.184 42.6 102.397 42.6C102.557 42.6 102.784 42.8667 103.077 43.4C103.144 43.5333 103.237 43.7133 103.357 43.94C103.49 44.1667 103.597 44.3533 103.677 44.5C103.85 44.82 104.07 44.98 104.337 44.98V45.38C104.124 45.4733 103.837 45.6133 103.477 45.8C102.637 46.2667 102.184 46.5 102.117 46.5C101.917 46.5 101.664 46.1067 101.357 45.32C101.064 44.5333 100.824 44.14 100.637 44.14C100.397 44.14 100.277 44.34 100.277 44.74V49.2C100.277 49.7333 100.397 50 100.637 50C100.69 50 101.104 49.8267 101.877 49.48C102.65 49.1333 103.117 48.96 103.277 48.96C103.597 48.96 103.877 49.22 104.117 49.74C104.37 50.2467 104.497 50.9 104.497 51.7V55.96C104.497 56.2133 103.73 56.6533 102.197 57.28C100.677 57.8933 99.8037 58.2 99.5771 58.2C99.4837 58.2 99.3771 58.0867 99.2571 57.86C99.1371 57.6333 98.9771 57.3133 98.7771 56.9C98.5904 56.4733 98.4171 56.12 98.2571 55.84C98.1104 55.56 97.9037 55.42 97.6371 55.42V55.02C97.8504 54.9267 98.1304 54.7867 98.4771 54.6C99.3304 54.1333 99.7904 53.9 99.8571 53.9C100.057 53.9 100.337 54.36 100.697 55.28C101.07 56.2 101.35 56.66 101.537 56.66C101.67 56.66 101.797 56.6067 101.917 56.5C102.037 56.3933 102.097 56.2467 102.097 56.06V51.56C102.097 50.96 101.93 50.66 101.597 50.66C101.49 50.66 101.07 50.82 100.337 51.14C99.6037 51.46 99.1904 51.62 99.0971 51.62ZM110.573 55.92V46.3C110.573 45.8067 110.52 45.4533 110.413 45.24C110.307 45.0267 110.087 44.92 109.753 44.92V44.3L113.853 42.58L114.173 43.22C113.88 43.22 113.6 43.3933 113.333 43.74C113.093 44.0733 112.973 44.58 112.973 45.26V54.72C112.973 55.16 113.067 55.54 113.253 55.86C113.44 56.18 113.673 56.34 113.953 56.34V56.78C113.86 56.7933 113.133 57.2 111.773 58C111.68 57.9733 111.567 57.94 111.433 57.9C111.3 57.8467 111.12 57.7133 110.893 57.5C110.68 57.2867 110.573 57.04 110.573 56.76C110.493 56.8 110.267 56.9267 109.893 57.14C108.907 57.7 108.32 57.98 108.133 57.98C107.707 57.98 107.307 57.7067 106.933 57.16C106.56 56.6 106.373 56.08 106.373 55.6V45.54C106.373 44.8067 106.047 44.3733 105.393 44.24V43.8L107.573 42.58C107.867 42.7 108.14 42.9 108.393 43.18C108.647 43.4467 108.773 43.7 108.773 43.94V53.74C108.773 54.58 108.893 55.1533 109.133 55.46C109.387 55.7667 109.867 55.92 110.573 55.92ZM117.367 43.98C118.834 43.0867 119.674 42.64 119.887 42.64C120.1 42.64 120.434 42.9133 120.887 43.46C121.354 44.0067 121.587 44.5 121.587 44.94V51.16C121.587 51.2533 121.054 51.5133 119.987 51.94C118.934 52.3667 118.06 52.6867 117.367 52.9V54.92C117.367 55.4133 117.42 55.7667 117.527 55.98C117.634 56.1933 117.854 56.3 118.187 56.3V56.92L114.087 58.64L113.767 58C114.06 58 114.34 57.8267 114.607 57.48C114.847 57.1467 114.967 56.64 114.967 55.96V45.6C114.967 44.7867 114.694 44.3267 114.147 44.22V43.78L116.167 42.64C116.434 42.7467 116.7 42.94 116.967 43.22C117.234 43.5 117.367 43.7533 117.367 43.98ZM118.147 44.56C117.907 44.56 117.647 44.66 117.367 44.86V51.96C117.714 51.96 118.1 51.8533 118.527 51.64C118.954 51.4133 119.167 51.18 119.167 50.94V46.04C119.167 45.0533 118.827 44.56 118.147 44.56ZM126.145 44.54C126.012 44.54 125.892 44.6067 125.785 44.74V50.02H128.605V50.5L127.605 51H125.785V53C125.785 54.48 125.932 55.3467 126.225 55.6C126.665 55.9733 127.145 56.1867 127.665 56.24C128.185 56.2933 128.745 56.32 129.345 56.32V56.9C129.278 56.9 128.785 57.0867 127.865 57.46C126.945 57.82 126.385 58 126.185 58C125.772 58 125.198 57.68 124.465 57.04C123.745 56.4 123.385 55.7067 123.385 54.96V44.44C123.385 44.3467 124.145 44.02 125.665 43.46C127.198 42.8867 128.078 42.6 128.305 42.6C128.385 42.6 128.478 42.7933 128.585 43.18C128.692 43.5667 128.812 44.0333 128.945 44.58C129.092 45.1267 129.238 45.5333 129.385 45.8C129.545 46.0533 129.838 46.18 130.265 46.18V46.58C129.972 46.7133 129.472 46.9533 128.765 47.3C128.072 47.6333 127.698 47.8 127.645 47.8C127.445 47.8 127.192 47.26 126.885 46.18C126.578 45.0867 126.332 44.54 126.145 44.54ZM134.651 44.56C134.411 44.56 134.151 44.66 133.871 44.86V51.36C134.217 51.36 134.604 51.2533 135.031 51.04C135.457 50.8133 135.671 50.58 135.671 50.34V46.04C135.671 45.0533 135.331 44.56 134.651 44.56ZM131.471 55.96V45.6C131.471 44.7867 131.197 44.3267 130.651 44.22V43.78L132.671 42.64C132.937 42.7467 133.204 42.94 133.471 43.22C133.737 43.5 133.871 43.7533 133.871 43.98C135.337 43.0867 136.177 42.64 136.391 42.64C136.604 42.64 136.937 42.9133 137.391 43.46C137.857 44.0067 138.091 44.5 138.091 44.94V50.56C138.091 50.6667 137.364 51.0067 135.911 51.58C136.524 53.6467 137.244 55.04 138.071 55.76C138.444 56.0667 138.824 56.22 139.211 56.22V56.82C137.971 57.6067 137.184 58 136.851 58C136.411 58 135.851 57.1733 135.171 55.52C134.504 53.8667 134.144 52.7733 134.091 52.24L133.871 52.3V54.92C133.871 55.4133 133.924 55.7667 134.031 55.98C134.137 56.1933 134.357 56.3 134.691 56.3V56.92L130.591 58.64L130.271 58C130.564 58 130.844 57.8267 131.111 57.48C131.351 57.1467 131.471 56.64 131.471 55.96ZM141.324 51.62C140.99 51.62 140.704 51.3667 140.464 50.86C140.224 50.3533 140.104 49.7333 140.104 49V44.84C140.104 44.5867 140.804 44.1533 142.204 43.54C143.604 42.9133 144.41 42.6 144.624 42.6C144.784 42.6 145.01 42.8667 145.304 43.4C145.37 43.5333 145.464 43.7133 145.584 43.94C145.717 44.1667 145.824 44.3533 145.904 44.5C146.077 44.82 146.297 44.98 146.564 44.98V45.38C146.35 45.4733 146.064 45.6133 145.704 45.8C144.864 46.2667 144.41 46.5 144.344 46.5C144.144 46.5 143.89 46.1067 143.584 45.32C143.29 44.5333 143.05 44.14 142.864 44.14C142.624 44.14 142.504 44.34 142.504 44.74V49.2C142.504 49.7333 142.624 50 142.864 50C142.917 50 143.33 49.8267 144.104 49.48C144.877 49.1333 145.344 48.96 145.504 48.96C145.824 48.96 146.104 49.22 146.344 49.74C146.597 50.2467 146.724 50.9 146.724 51.7V55.96C146.724 56.2133 145.957 56.6533 144.424 57.28C142.904 57.8933 142.03 58.2 141.804 58.2C141.71 58.2 141.604 58.0867 141.484 57.86C141.364 57.6333 141.204 57.3133 141.004 56.9C140.817 56.4733 140.644 56.12 140.484 55.84C140.337 55.56 140.13 55.42 139.864 55.42V55.02C140.077 54.9267 140.357 54.7867 140.704 54.6C141.557 54.1333 142.017 53.9 142.084 53.9C142.284 53.9 142.564 54.36 142.924 55.28C143.297 56.2 143.577 56.66 143.764 56.66C143.897 56.66 144.024 56.6067 144.144 56.5C144.264 56.3933 144.324 56.2467 144.324 56.06V51.56C144.324 50.96 144.157 50.66 143.824 50.66C143.717 50.66 143.297 50.82 142.564 51.14C141.83 51.46 141.417 51.62 141.324 51.62ZM148.6 54.98V46.3C148.6 45.8067 148.546 45.4533 148.44 45.24C148.333 45.0267 148.113 44.92 147.78 44.92V44.3L151.88 42.58L152.2 43.22C151.906 43.22 151.626 43.3933 151.36 43.74C151.12 44.0733 151 44.58 151 45.26V53.44C151 54.5067 151.093 55.1467 151.28 55.36C151.6 55.76 151.913 56 152.22 56.08C152.926 56.24 153.706 56.32 154.56 56.32V56.88C152.786 57.6267 151.773 58 151.52 58C151.28 58 150.946 57.8933 150.52 57.68C150.093 57.4533 149.666 57.0933 149.24 56.6C148.813 56.1067 148.6 55.5667 148.6 54.98ZM155.963 55.08V44.44C155.963 44.3467 156.723 44.02 158.243 43.46C159.763 42.8867 160.636 42.6 160.863 42.6C161.09 42.6 161.43 42.8733 161.883 43.42C162.35 43.9667 162.583 44.46 162.583 44.9V56.14C162.583 56.2467 161.85 56.5867 160.383 57.16C158.93 57.72 158.036 58 157.703 58C157.383 58 157.01 57.7133 156.583 57.14C156.17 56.5667 155.963 55.88 155.963 55.08ZM159.383 56.16C159.636 56.16 159.896 56.0533 160.163 55.84V45.94C160.163 44.9533 159.823 44.46 159.143 44.46C158.876 44.46 158.616 44.56 158.363 44.76V54.68C158.363 55.6667 158.703 56.16 159.383 56.16ZM166.016 55.96V45.36L166.636 44.76H165.376C164.563 44.76 164.103 44.98 163.996 45.42H163.556L162.416 43.78C162.576 43.5267 162.783 43.3 163.036 43.1C163.29 42.9 163.536 42.8 163.776 42.8H169.056C169.87 42.8 170.33 42.58 170.436 42.14H170.876L172.016 43.78C171.856 44.0333 171.65 44.26 171.396 44.46C171.143 44.66 170.896 44.76 170.656 44.76H168.416V54.92C168.416 55.4133 168.47 55.7667 168.576 55.98C168.683 56.1933 168.903 56.3 169.236 56.3V56.92L165.136 58.64L164.816 58C165.11 58 165.39 57.8267 165.656 57.48C165.896 57.1467 166.016 56.64 166.016 55.96ZM173.101 51.62C172.768 51.62 172.481 51.3667 172.241 50.86C172.001 50.3533 171.881 49.7333 171.881 49V44.84C171.881 44.5867 172.581 44.1533 173.981 43.54C175.381 42.9133 176.188 42.6 176.401 42.6C176.561 42.6 176.788 42.8667 177.081 43.4C177.148 43.5333 177.241 43.7133 177.361 43.94C177.494 44.1667 177.601 44.3533 177.681 44.5C177.854 44.82 178.074 44.98 178.341 44.98V45.38C178.128 45.4733 177.841 45.6133 177.481 45.8C176.641 46.2667 176.188 46.5 176.121 46.5C175.921 46.5 175.668 46.1067 175.361 45.32C175.068 44.5333 174.828 44.14 174.641 44.14C174.401 44.14 174.281 44.34 174.281 44.74V49.2C174.281 49.7333 174.401 50 174.641 50C174.694 50 175.108 49.8267 175.881 49.48C176.654 49.1333 177.121 48.96 177.281 48.96C177.601 48.96 177.881 49.22 178.121 49.74C178.374 50.2467 178.501 50.9 178.501 51.7V55.96C178.501 56.2133 177.734 56.6533 176.201 57.28C174.681 57.8933 173.808 58.2 173.581 58.2C173.488 58.2 173.381 58.0867 173.261 57.86C173.141 57.6333 172.981 57.3133 172.781 56.9C172.594 56.4733 172.421 56.12 172.261 55.84C172.114 55.56 171.908 55.42 171.641 55.42V55.02C171.854 54.9267 172.134 54.7867 172.481 54.6C173.334 54.1333 173.794 53.9 173.861 53.9C174.061 53.9 174.341 54.36 174.701 55.28C175.074 56.2 175.354 56.66 175.541 56.66C175.674 56.66 175.801 56.6067 175.921 56.5C176.041 56.3933 176.101 56.2467 176.101 56.06V51.56C176.101 50.96 175.934 50.66 175.601 50.66C175.494 50.66 175.074 50.82 174.341 51.14C173.608 51.46 173.194 51.62 173.101 51.62ZM184.577 45.54C184.577 44.8067 184.25 44.3733 183.597 44.24V43.8C185.037 43 185.764 42.6 185.777 42.6C185.897 42.6 186.11 42.7333 186.417 43C186.724 43.2533 186.91 43.5267 186.977 43.82C187.004 43.7933 187.41 43.5867 188.197 43.2C188.984 42.8 189.384 42.6 189.397 42.6C189.664 42.6 189.957 42.76 190.277 43.08C190.89 43.6933 191.197 44.5133 191.197 45.54V56.14C191.197 56.26 190.484 56.6 189.057 57.16C187.63 57.72 186.744 58 186.397 58C185.77 58 185.25 57.5867 184.837 56.76C183.37 57.5867 182.444 58 182.057 58C181.67 58 181.29 57.72 180.917 57.16C180.557 56.5867 180.377 56.06 180.377 55.58V45.54C180.377 44.8067 180.05 44.3733 179.397 44.24V43.8L181.577 42.58C181.87 42.7 182.144 42.9 182.397 43.18C182.65 43.4467 182.777 43.6933 182.777 43.92V54.1C182.777 55.3667 183.17 56 183.957 56C184.157 56 184.364 55.96 184.577 55.88V45.54ZM186.997 54.3C186.997 54.7267 187.077 55.1267 187.237 55.5C187.41 55.86 187.644 56.04 187.937 56.04C188.23 56.04 188.51 55.98 188.777 55.86V46.26C188.777 45.5667 188.637 45.1067 188.357 44.88C188.077 44.64 187.624 44.5133 186.997 44.5V54.3ZM193.19 55.44V46.3C193.19 45.8067 193.136 45.4533 193.03 45.24C192.923 45.0267 192.703 44.92 192.37 44.92V44.3L196.47 42.58L196.79 43.22C196.496 43.22 196.216 43.3933 195.95 43.74C195.71 44.0733 195.59 44.58 195.59 45.26V54.66C195.59 55.02 195.65 55.28 195.77 55.44C195.89 55.5867 196.096 55.66 196.39 55.66V56.22C193.683 57.4067 192.323 58 192.31 58L191.99 57.36C192.096 57.36 192.223 57.3133 192.37 57.22C192.53 57.1267 192.663 57.02 192.77 56.9C193.05 56.58 193.19 56.0933 193.19 55.44ZM197.584 55.72V45.86C197.584 45.42 197.491 45.04 197.304 44.72C197.117 44.4 196.884 44.24 196.604 44.24V43.8C196.697 43.7867 197.424 43.38 198.784 42.58C198.877 42.6067 198.991 42.6467 199.124 42.7C199.257 42.74 199.431 42.8667 199.644 43.08C199.871 43.2933 199.984 43.54 199.984 43.82C200.064 43.78 200.291 43.6533 200.664 43.44C201.651 42.88 202.237 42.6 202.424 42.6C202.851 42.6 203.251 42.88 203.624 43.44C203.997 44 204.184 44.5133 204.184 44.98V55.04C204.184 55.7733 204.511 56.2067 205.164 56.34V56.78L202.984 58C202.691 57.88 202.417 57.6867 202.164 57.42C201.911 57.14 201.784 56.88 201.784 56.64V46.84C201.784 46 201.657 45.4267 201.404 45.12C201.164 44.8133 200.691 44.66 199.984 44.66V54.92C199.984 55.4533 200.051 55.82 200.184 56.02C200.317 56.2067 200.524 56.3 200.804 56.3V56.92L196.704 58.64L196.384 58C196.651 58 196.911 57.84 197.164 57.52C197.444 57.1467 197.584 56.5467 197.584 55.72ZM207.398 51.62C207.065 51.62 206.778 51.3667 206.538 50.86C206.298 50.3533 206.178 49.7333 206.178 49V44.84C206.178 44.5867 206.878 44.1533 208.278 43.54C209.678 42.9133 210.485 42.6 210.698 42.6C210.858 42.6 211.085 42.8667 211.378 43.4C211.445 43.5333 211.538 43.7133 211.658 43.94C211.791 44.1667 211.898 44.3533 211.978 44.5C212.151 44.82 212.371 44.98 212.638 44.98V45.38C212.425 45.4733 212.138 45.6133 211.778 45.8C210.938 46.2667 210.485 46.5 210.418 46.5C210.218 46.5 209.965 46.1067 209.658 45.32C209.365 44.5333 209.125 44.14 208.938 44.14C208.698 44.14 208.578 44.34 208.578 44.74V49.2C208.578 49.7333 208.698 50 208.938 50C208.991 50 209.405 49.8267 210.178 49.48C210.951 49.1333 211.418 48.96 211.578 48.96C211.898 48.96 212.178 49.22 212.418 49.74C212.671 50.2467 212.798 50.9 212.798 51.7V55.96C212.798 56.2133 212.031 56.6533 210.498 57.28C208.978 57.8933 208.105 58.2 207.878 58.2C207.785 58.2 207.678 58.0867 207.558 57.86C207.438 57.6333 207.278 57.3133 207.078 56.9C206.891 56.4733 206.718 56.12 206.558 55.84C206.411 55.56 206.205 55.42 205.938 55.42V55.02C206.151 54.9267 206.431 54.7867 206.778 54.6C207.631 54.1333 208.091 53.9 208.158 53.9C208.358 53.9 208.638 54.36 208.998 55.28C209.371 56.2 209.651 56.66 209.838 56.66C209.971 56.66 210.098 56.6067 210.218 56.5C210.338 56.3933 210.398 56.2467 210.398 56.06V51.56C210.398 50.96 210.231 50.66 209.898 50.66C209.791 50.66 209.371 50.82 208.638 51.14C207.905 51.46 207.491 51.62 207.398 51.62ZM214.674 56.72V55.5C214.674 55.46 214.947 55.34 215.494 55.14C216.054 54.9267 216.374 54.82 216.454 54.82C216.547 54.82 216.674 54.9333 216.834 55.16C217.007 55.3867 217.094 55.62 217.094 55.86V57.32C217.094 57.36 216.827 57.4867 216.294 57.7C215.761 57.9 215.434 58 215.314 58C215.194 58 215.054 57.8867 214.894 57.66C214.747 57.42 214.674 57.1067 214.674 56.72ZM221.848 44.54C221.715 44.54 221.595 44.6067 221.488 44.74V53C221.488 53.56 221.521 54.0133 221.588 54.36C221.655 54.6933 221.801 55.0267 222.028 55.36C222.468 56 223.475 56.32 225.048 56.32V56.9C224.981 56.9 224.488 57.0867 223.568 57.46C222.648 57.82 222.088 58 221.888 58C221.221 58 220.588 57.62 219.988 56.86C219.388 56.0867 219.088 55.2733 219.088 54.42V44.44C219.088 44.3467 219.848 44.02 221.368 43.46C222.901 42.8867 223.781 42.6 224.008 42.6C224.088 42.6 224.181 42.7933 224.288 43.18C224.395 43.5667 224.515 44.0333 224.648 44.58C224.795 45.1267 224.941 45.5333 225.088 45.8C225.248 46.0533 225.541 46.18 225.968 46.18V46.58C225.675 46.7133 225.175 46.9533 224.468 47.3C223.775 47.6333 223.401 47.8 223.348 47.8C223.148 47.8 222.895 47.26 222.588 46.18C222.281 45.0867 222.035 44.54 221.848 44.54ZM227.174 55.08V44.44C227.174 44.3467 227.934 44.02 229.454 43.46C230.974 42.8867 231.847 42.6 232.074 42.6C232.301 42.6 232.641 42.8733 233.094 43.42C233.561 43.9667 233.794 44.46 233.794 44.9V56.14C233.794 56.2467 233.061 56.5867 231.594 57.16C230.141 57.72 229.247 58 228.914 58C228.594 58 228.221 57.7133 227.794 57.14C227.381 56.5667 227.174 55.88 227.174 55.08ZM230.594 56.16C230.847 56.16 231.107 56.0533 231.374 55.84V45.94C231.374 44.9533 231.034 44.46 230.354 44.46C230.087 44.46 229.827 44.56 229.574 44.76V54.68C229.574 55.6667 229.914 56.16 230.594 56.16ZM235.787 55.96V45.86C235.787 45.42 235.694 45.04 235.507 44.72C235.321 44.4 235.087 44.24 234.807 44.24V43.8C234.901 43.7867 235.627 43.38 236.987 42.58C237.081 42.6067 237.194 42.6467 237.327 42.7C237.461 42.74 237.634 42.8667 237.847 43.08C238.074 43.2933 238.187 43.54 238.187 43.82C238.267 43.78 238.494 43.6533 238.867 43.44C239.854 42.88 240.461 42.6 240.687 42.6C240.927 42.6 241.187 42.72 241.467 42.96C241.761 43.2 241.981 43.4867 242.127 43.82C242.154 43.8067 242.427 43.6667 242.947 43.4C243.987 42.8667 244.614 42.6 244.827 42.6C245.254 42.6 245.654 42.88 246.027 43.44C246.401 44 246.587 44.5133 246.587 44.98V55.04C246.587 55.7733 246.914 56.2067 247.567 56.34V56.78L245.387 58C245.094 57.88 244.821 57.6867 244.567 57.42C244.314 57.14 244.187 56.88 244.187 56.64V46.84C244.187 46.04 244.054 45.4867 243.787 45.18C243.534 44.86 243.067 44.6867 242.387 44.66V55.04C242.387 55.7733 242.714 56.2067 243.367 56.34V56.78L241.187 58C240.894 57.88 240.621 57.6867 240.367 57.42C240.114 57.14 239.987 56.88 239.987 56.64V46.84C239.987 46 239.861 45.4267 239.607 45.12C239.367 44.8133 238.894 44.66 238.187 44.66V54.92C238.187 55.4133 238.241 55.7667 238.347 55.98C238.454 56.1933 238.674 56.3 239.007 56.3V56.92L234.907 58.64L234.587 58C234.881 58 235.161 57.8267 235.427 57.48C235.667 57.1467 235.787 56.64 235.787 55.96Z" fill="white"/>
<path d="M34.2511 9.50544C35.4392 10.9008 36.848 12.092 38.4214 13.0317C38.6769 12.5002 39.2902 12.8069 39.7194 12.6127C40.1854 12.3209 40.6173 11.978 41.0073 11.5906C41.6206 11.1204 41.8659 10.916 41.7126 10.1289C41.4935 9.42591 41.1227 8.77958 40.6265 8.2356C40.1302 7.69162 39.5205 7.26327 38.8404 6.98082C38.208 6.66868 37.5165 6.49451 36.8116 6.46984C36.1068 6.44517 35.4047 6.57057 34.752 6.83772C32.7895 7.76785 33.6787 9.23969 34.6804 10.548L34.2511 9.50544Z" fill="#FFC18B"/>
<path style="mix-blend-mode:multiply" opacity="0.6" d="M12.8173 0.26575C12.8173 0.26575 10.3132 72.6622 3.6183 101.721L36.9291 87.8099C36.9291 87.8099 62.349 98.4502 75.3503 101.721C75.3503 101.721 71.2619 20.5241 71.7832 0L12.8173 0.26575Z" fill="url(#paint0_linear_301_37600)"/>
<path d="M6.38822 0C6.38822 0 6.75618 69.1052 0 98.1231L33.3108 84.2121C33.3108 84.2121 58.7307 94.8421 71.732 98.1231C71.732 98.1231 65.6811 20.4423 66.1922 0H6.38822Z" fill="url(#paint1_linear_301_37600)"/>
<path d="M10.8037 0C10.8037 0 2.11575 92.5117 3.78179 93.2271C5.44784 93.9426 33.4231 82.2803 33.4231 82.2803C33.4231 82.2803 63.8515 94.1266 67.5414 94.0346C71.2312 93.9426 63.1054 0 63.1054 0H10.8037Z" fill="url(#paint2_linear_301_37600)"/>
<path d="M0 98.1947L3.78184 93.4828C13.846 90.356 23.74 86.7055 33.4232 82.5461C33.4232 82.5461 57.2691 92.0825 67.5209 94.3005L71.7116 98.1947C71.7116 98.1947 46.8129 90.5186 33.2903 84.2837C33.3107 84.2837 9.53634 94.4844 0 98.1947Z" fill="#1F002E"/>
<path fill-rule="evenodd" clip-rule="evenodd" d="M43.8386 56.5843L43.3889 63.504H40.1692V57.2895L38.5747 57.4224L38.0739 63.1973L33.6788 63.4222L33.4335 57.5757H32.1252L31.7163 63.412H28.7317L29.1099 56.7376C29.1099 56.7376 23.9993 57.5859 23.5803 54.7649C22.3435 46.22 15.9962 41.9067 20.6979 33.7298C24.1118 27.7402 47.2729 23.7641 51.2898 36.2646C54.0291 44.6971 49.1638 46.4858 47.2729 54.9898C46.9356 56.4412 43.8386 56.5843 43.8386 56.5843ZM34.333 46.0667C34.0774 44.5335 29.6312 40.5779 27.7403 40.4348C25.8494 40.2917 23.8767 42.336 23.4985 44.7379C23.1203 47.1399 27.2906 51.0035 29.9072 50.8706C32.5238 50.7378 34.568 47.5283 34.333 46.0667ZM32.4625 53.8654C33.1677 54.5196 34.7827 53.8654 34.7827 53.8654L35.4777 51.9336L36.0603 53.8245C36.4037 54.0932 36.8239 54.2451 37.2597 54.258C37.6956 54.2709 38.1241 54.1441 38.4827 53.8961C39.1778 53.4464 36.8984 49.5214 35.6412 49.4397C34.384 49.3579 31.7368 53.2011 32.4625 53.8654ZM47.4977 44.973C47.1502 42.5608 45.2083 40.4859 43.3276 40.5984C41.4469 40.7108 36.9189 44.5846 36.6531 46.1076C36.3874 47.6305 38.3703 50.84 40.9767 51.0035C43.5831 51.167 47.8453 47.3443 47.4977 44.973Z" fill="url(#paint3_linear_301_37600)"/>
<defs>
<linearGradient id="paint0_linear_301_37600" x1="39.4332" y1="101.721" x2="39.4332" y2="0" gradientUnits="userSpaceOnUse">
<stop stop-color="#DD9E88"/>
<stop offset="0.99" stop-color="#B17A4D"/>
</linearGradient>
<linearGradient id="paint1_linear_301_37600" x1="35.8762" y1="98.1946" x2="35.8762" y2="0.0306594" gradientUnits="userSpaceOnUse">
<stop stop-color="#39152F"/>
<stop offset="1" stop-color="#7F1E3A"/>
</linearGradient>
<linearGradient id="paint2_linear_301_37600" x1="36.0398" y1="94.0448" x2="36.0398" y2="0" gradientUnits="userSpaceOnUse">
<stop stop-color="#52223B"/>
<stop offset="1" stop-color="#883A3B"/>
</linearGradient>
<linearGradient id="paint3_linear_301_37600" x1="6.07665" y1="81.0229" x2="39.7817" y2="30.3903" gradientUnits="userSpaceOnUse">
<stop stop-color="#C79296"/>
<stop offset="1" stop-color="#FFF4D0"/>
</linearGradient>
</defs>
</svg>
