<svg width="1280" height="224" viewBox="0 0 1280 224" fill="none" xmlns="http://www.w3.org/2000/svg">
<path d="M1256 0H24C10.7452 0 0 10.7452 0 24V200C0 213.255 10.7452 224 24 224H1256C1269.25 224 1280 213.255 1280 200V24C1280 10.7452 1269.25 0 1256 0Z" fill="#FFAF6D"/>
<mask id="mask0_301_22918" style="mask-type:alpha" maskUnits="userSpaceOnUse" x="0" y="0" width="1280" height="224">
<path d="M1256 0H24C10.7452 0 0 10.7452 0 24V200C0 213.255 10.7452 224 24 224H1256C1269.25 224 1280 213.255 1280 200V24C1280 10.7452 1269.25 0 1256 0Z" fill="url(#paint0_radial_301_22918)"/>
</mask>
<g mask="url(#mask0_301_22918)">
<path opacity="0.4" d="M1273.13 175.022C1272.52 176.108 1274.76 177.174 1276.08 178.169C1277.15 179.217 1276.79 180.324 1275.05 181.316C1273.34 182.624 1272.07 183.933 1270.52 185.241C1269.6 186.027 1267.89 186.727 1267.26 187.531C1265.83 189.344 1261.99 190.803 1258.01 192.321C1256.18 193.033 1253.81 193.651 1251.03 194.139C1247.22 194.794 1243 195.042 1239.76 195.965C1236.52 196.887 1237.13 198.215 1237.13 199.446C1237.13 199.792 1237.79 200.643 1236.97 200.931C1235.21 201.539 1228.52 201.264 1226.2 201.245C1221.59 201.205 1216.62 200.747 1212.01 200.976C1210.03 201.075 1209.61 201.264 1208.22 201.709C1205.98 202.422 1204.58 203.279 1202.19 203.966C1200.52 204.377 1198.7 204.745 1196.74 205.066C1190.57 206.289 1181.2 206.924 1176.88 208.599C1175.17 209.206 1174.25 209.931 1174.25 210.673C1174.25 211.098 1174.54 211.327 1173.14 211.674C1170.51 212.328 1164.77 212.112 1161.53 212.132C1156.26 212.171 1150.99 212.354 1147.28 213.309C1144.65 214.009 1143.02 214.919 1140.36 215.625C1133.43 217.477 1121.61 216.77 1112.44 217.346C1109.81 217.516 1108.6 218 1106.25 218.288C1102.3 218.825 1095.51 218.812 1091.17 218.844C1085.24 218.89 1078.45 218.576 1072.73 219.008C1069.58 219.321 1066.51 219.682 1063.54 220.088C1055.06 221.01 1044.66 220.879 1035.79 220.631C1031.21 220.506 1026.23 220.173 1021.67 220.375C1017.07 220.611 1012.41 220.762 1007.72 220.827C1001.02 220.908 994.304 220.844 987.65 220.637C983.305 220.493 977.117 219.983 972.851 220.356C972.377 220.814 973.483 221.468 972.193 221.821C970.428 222.299 966.031 221.998 963.792 222.109C957.805 222.335 951.715 222.335 945.728 222.109C941.409 222.018 936.985 221.847 932.561 221.821C930.551 221.877 928.516 221.819 926.61 221.651C923.713 221.298 924.609 220.559 923.266 219.957C921.712 219.25 920.922 219.852 918.789 220.042C915.84 220.31 911.6 219.787 908.756 219.59C904.368 219.351 899.794 219.433 895.59 219.826C891.966 220.188 888.183 220.443 884.319 220.585C881.315 220.596 878.316 220.514 875.392 220.343C869.785 220.039 864.002 219.992 858.328 220.205C852.087 220.513 846.162 221.075 839.895 221.095C838.063 221.131 836.223 221.131 834.391 221.095C833.338 221.056 832.522 220.905 831.469 220.853C828.361 220.696 825.57 221.507 822.568 221.717C820.294 221.839 817.96 221.877 815.642 221.828C810.156 221.855 804.712 222.076 799.474 222.482C793.74 222.944 787.517 222.852 782.041 222.227C776.064 221.573 772.061 222.076 765.952 222.456C762.054 222.698 758.341 223.025 754.602 222.6C751.978 222.216 749.082 221.961 746.07 221.847C742.357 221.795 738.539 221.847 734.799 221.847C729.533 221.847 724.424 222.037 719.21 222.083C712.311 222.148 705.701 223.084 698.881 223.058C694.22 223.058 689.875 222.587 685.109 222.593C680.343 222.6 675.339 222.809 671.152 222.449C667.756 222.074 664.097 221.868 660.382 221.841C655.273 221.841 649.296 222.495 644.582 221.959C642.808 221.671 640.849 221.461 638.789 221.337C636.725 221.288 634.644 221.308 632.601 221.396C628.335 221.573 623.437 222.227 619.197 221.704C618.429 221.577 617.554 221.497 616.641 221.469C615.727 221.44 614.8 221.465 613.931 221.54C612.188 221.604 610.424 221.626 608.664 221.605C605.563 221.521 602.497 221.37 599.5 221.154C594.892 220.945 590.652 221.808 585.912 221.56C582.436 221.363 579.408 220.905 575.747 220.846C571.192 220.774 566.557 220.886 562.002 220.846C559.765 220.829 557.613 220.631 555.866 220.284C553.233 219.911 551.653 220.46 549.098 220.663C546.166 220.905 542.998 220.905 540.066 220.663C535.703 220.239 531.212 219.9 526.636 219.649C522.322 219.581 518.05 219.399 513.891 219.106C509.836 218.727 506.202 218.321 501.909 218.543C498.065 218.746 494.931 218.426 491.166 218.347C487.325 218.297 483.481 218.43 479.842 218.74C476.445 218.995 472.811 219.623 469.151 219.643C466.64 219.588 464.16 219.467 461.751 219.283C455.272 218.958 448.544 219.157 442.555 219.852C438.695 220.238 434.617 220.475 430.468 220.552C427.993 220.517 425.53 220.443 423.094 220.33C418.328 220.251 413.904 220.604 409.19 220.591C405.596 220.508 401.975 220.524 398.394 220.637C395.429 220.84 392.51 221.082 389.651 221.363C387.483 221.534 385.208 221.607 382.936 221.579C379.83 221.555 376.738 221.466 373.693 221.311C370.112 221.167 366.531 221.069 362.976 220.892C360.762 220.838 358.536 220.822 356.314 220.846C354.621 220.793 352.943 220.716 351.284 220.617C347.286 220.438 343.233 220.346 339.171 220.343C332.561 220.343 326.004 220.31 319.316 220.343C312.627 220.375 306.649 220.604 300.224 220.604C288.862 220.649 277.524 220.876 266.281 221.285C253.693 221.671 239.947 222.22 227.308 221.697C221.619 221.382 216.024 220.971 210.56 220.467C207.268 220.212 203.713 220.133 200.369 219.95C192.469 219.518 185.675 218.576 177.512 218.36C172.614 218.229 167.795 218.465 162.949 218.157C158.604 217.883 154.207 217.811 149.941 217.47C145.028 217.047 140.211 216.558 135.51 216.005C131.94 215.738 128.126 215.749 124.582 216.038C120.527 216.293 116.682 216.443 112.548 216.738C109.973 216.917 107.261 216.937 104.648 216.797C101.871 216.617 98.9482 216.628 96.1948 216.829C92.2781 216.911 88.3407 216.911 84.424 216.829C82.0833 216.975 79.6079 216.897 77.487 216.611C75.366 216.325 73.754 215.852 72.9692 215.285C71.5796 214.591 69.7378 213.959 67.5182 213.414C65.8065 212.989 63.4892 212.76 61.6985 212.367C60.6715 212.138 59.8288 211.89 58.7228 211.68C57.2189 211.423 56.1208 211.043 55.6156 210.607C53.5616 209.135 52.008 207.761 44.6347 207.67C42.392 207.739 40.1205 207.726 37.8934 207.63C36.2227 207.418 34.84 207.088 33.9171 206.682C32.9691 206.328 31.6262 206.027 30.6782 205.694C28.0448 204.739 22.2778 203.881 20.6978 202.717C19.5655 201.892 16.2739 201.238 14.6939 200.492C14.3253 200.316 14.1146 199.969 13.7196 199.753C13.3327 199.543 13.0327 199.324 12.8242 199.099C12.1815 198.558 11.8101 198 11.7183 197.437C11.4128 195.552 11.7032 193.664 12.5872 191.791C13.6668 190.227 16.0105 188.67 17.6958 187.126C19.5391 185.47 21.1982 183.854 22.7255 182.186C24.7534 180.231 24.1902 178.166 21.1192 176.298C18.2752 174.741 14.5621 173.229 14.5621 171.45C14.8115 170.524 15.5281 169.609 16.6951 168.728C17.6694 167.779 18.3016 166.765 19.6446 165.856C22.0146 164.227 26.8335 162.388 25.7012 160.569C24.1475 158.129 12.0079 157.056 11.6919 154.583C11.6066 153.606 12.2864 152.635 13.6933 151.724C14.6413 151.102 17.1429 150.337 16.7742 149.63C16.1387 149.093 14.9916 148.601 13.4298 148.197C11.8235 147.641 11.6392 147.543 12.4819 146.889C12.9163 146.45 13.5803 146.028 14.4569 145.632C15.2995 145.312 16.5899 145.076 16.7742 144.658C17.0639 144.036 15.0098 143.617 13.4562 143.231C11.9025 142.845 11.7183 142.826 11.7183 142.178C11.7438 141.748 12.1672 141.324 12.9559 140.941C13.8248 140.451 13.5616 140.411 12.7189 139.96C10.8492 138.844 9.58295 137.671 8.95333 136.473C7.979 134.935 10.6649 133.437 11.9552 131.952C13.4825 130.179 12.5608 128.321 13.9302 126.508C15.0159 125.216 15.6154 123.902 15.7208 122.583C15.7208 121.51 14.6413 120.489 14.6939 119.41C15.1381 116.994 14.8827 114.573 13.9302 112.167C13.2982 110.889 13.2982 109.597 13.9302 108.32C14.2684 107.52 14.8584 106.728 15.6946 105.951C16.8032 105.255 17.5124 104.524 17.8012 103.779C18.0548 103.126 18.0548 102.469 17.8012 101.816C17.36 101.43 16.7873 101.053 16.0895 100.691C14.8513 99.6781 14.6971 98.6025 15.6419 97.5702C16.0693 96.8932 15.8985 96.2011 15.1415 95.542C14.2648 94.7314 13.8309 93.8952 13.8513 93.0558C13.6009 92.3922 13.9241 91.723 14.7992 91.093C15.4839 90.6874 17.4325 90.2948 17.7221 89.8696C17.8757 89.5934 17.7909 89.3123 17.473 89.0449C17.1552 88.7775 16.6116 88.5301 15.8788 88.319C13.9365 87.8485 12.8199 87.2066 12.7715 86.5328C13.0875 85.5972 16.5635 84.799 18.0381 83.955C18.9496 83.5583 19.2047 83.0891 18.7492 82.6465C18.4332 82.4633 17.3798 82.3455 17.0902 82.1558C16.5509 81.6055 16.5509 81.0312 17.0902 80.4809C17.6958 79.8659 19.7234 79.3817 19.9868 78.7405C19.76 77.9204 18.3914 77.1455 16.1159 76.5488C14.3045 76.0297 12.8377 75.4422 11.7708 74.8084C10.6877 74.2599 9.75512 73.6937 8.97953 73.1139C8.54739 72.605 8.66551 72.0768 9.32187 71.5829C11.2128 70.0693 12.1022 68.4894 11.9552 66.9049C11.9552 66.1918 12.8242 65.5964 13.0086 64.8898C13.0086 64.3926 12.7716 63.8953 13.0086 63.3981C13.2192 62.5541 14.0881 61.7886 14.0618 60.9184C14.0355 60.0483 14.9308 59.2043 15.0888 58.3014C15.0888 57.6079 15.0888 56.9013 15.0888 56.2012C15.0888 54.029 14.0882 51.9158 14.0882 49.7502C14.0882 47.7874 13.6932 45.7853 14.0882 43.816C14.2725 42.8673 15.1415 41.9906 15.1415 41.0092C14.9478 40.3745 15.0184 39.7364 15.3523 39.1053C15.7839 38.0976 16.452 37.0971 17.3534 36.1088C18.2488 35.4022 19.2495 34.6236 20.3555 33.9366C21.7842 33.1238 22.8526 32.2748 23.5418 31.4046C24.1177 30.4027 25.0787 29.4168 26.412 28.4604C27.5598 27.7328 29.2583 27.0665 31.4154 26.4977C33.2647 26.0629 35.358 25.6971 37.63 25.4116C40.395 24.9798 41.7379 24.2339 43.8709 23.6581C45.2929 23.2721 46.794 22.8992 48.1107 22.4936C51.077 21.5416 54.2412 20.6287 57.5905 19.7587C59.4424 19.2005 61.8345 18.7683 64.5425 18.5026C66.5471 18.4504 68.5681 18.4504 70.5727 18.5026C75.8394 18.5026 82.3436 18.7119 87.3206 18.2147C90.8492 17.8548 93.9302 16.9847 97.3535 16.5071C99.4116 16.2742 101.4 16.0053 103.305 15.7023C104.463 15.4799 104.937 15.1985 106.465 15.048C107.992 14.8976 110.415 15.0938 112.311 14.9565C112.311 14.8256 112.521 14.6882 112.653 14.5508C115.444 14.5181 117.525 13.8377 118.736 13.2423C119.658 12.8039 119.868 12.588 121.659 12.3067C122.844 12.1366 124.292 11.9796 125.477 11.8094C128.111 11.4431 128.558 11.3842 129.664 10.7692C131.481 9.75506 134.141 9.40176 138.223 9.0092C142.304 8.61664 146.123 8.76058 150.152 8.59047C155.819 8.29595 161.098 7.65254 165.504 6.71928C167.61 6.32096 169.607 5.88819 171.481 5.42384C171.964 5.29302 172.474 5.16854 173.009 5.05091C175.063 4.65835 187.202 4.39665 187.202 4.39665H195.102C197.024 4.39665 197.419 4.23962 199.052 4.14148C202.66 3.92558 206.057 4.4359 209.585 4.40319C212.787 4.31633 215.957 4.16758 219.065 3.95829C222.83 3.87335 226.617 3.86241 230.389 3.92558C241.738 3.8209 252.93 3.14046 264.358 3.16009C273.996 3.16009 283.608 3.16009 293.325 3.16009C302.278 3.16009 310.178 2.50583 318.71 1.94316C325.978 1.45246 331.271 1.688 338.328 2.17215C345.385 2.65631 351.152 2.00859 357.867 1.63566C362.185 1.33154 366.801 1.42925 370.849 1.91045C372.514 2.12736 374.284 2.29009 376.116 2.3946C379.566 2.53854 382.805 2.01513 386.096 2.19832C388.177 2.31609 390.125 2.85259 392.048 2.85259C393.97 2.85259 396.208 2.27029 398.842 2.36843C400.896 2.4404 402.133 2.8395 404.292 2.90493C405.275 2.91791 406.259 2.91791 407.242 2.90493C411.53 2.82478 415.843 2.88638 420.066 3.08812C423.399 3.34709 426.941 3.39211 430.362 3.21897C435.464 2.91456 440.662 2.71975 445.899 2.63668C452.588 2.63668 458.855 3.18626 465.148 3.65079C470.626 4.05643 476.656 4.75649 482.449 4.64527C485.288 4.5278 488.088 4.3572 490.823 4.13494C494.521 3.94766 498.296 3.87079 502.067 3.90595C508.414 3.90595 514.628 3.44797 520.974 3.38908C527.821 3.3302 534.747 3.38908 541.593 3.38908C545.132 3.27584 548.727 3.35623 552.127 3.62462C555.761 4.0368 558.394 4.44899 562.66 4.40319C568.111 4.34431 573.061 3.65079 578.46 3.61807C583.244 3.68669 588.044 3.59648 592.732 3.34983C597.683 3.00961 601.212 2.15253 606.663 2.4404C610.613 2.64977 613.088 3.16009 616.932 2.61705C621.962 1.90391 626.913 0.909425 632.732 0.49724C636.915 0.240554 641.179 0.0741884 645.478 0L0 0V224H1279V170.828C1278.71 171.044 1278.39 171.26 1278.05 171.482C1275.81 172.606 1274.16 173.795 1273.13 175.022Z" fill="#FFE6C1"/>
</g>
<defs>
<radialGradient id="paint0_radial_301_22918" cx="0" cy="0" r="1" gradientUnits="userSpaceOnUse" gradientTransform="translate(639.974 112) scale(553.665 137.466)">
<stop stop-color="#FFE7C2"/>
<stop offset="0.64" stop-color="#FFE6C0"/>
<stop offset="0.87" stop-color="#FFE1B9"/>
<stop offset="1" stop-color="#FFDBB1"/>
</radialGradient>
</defs>
</svg>
