<svg width="116" height="114" viewBox="0 0 116 114" fill="none" xmlns="http://www.w3.org/2000/svg">
<path d="M19.2567 113.665C19.0965 113.701 18.9363 113.719 18.7583 113.719C17.459 113.755 16.4444 112.799 16.4622 111.608C17.1386 68.3944 0.923321 7.84126 0.763127 7.24583C0.460537 6.09106 1.20811 4.90021 2.47187 4.55739C3.70003 4.23261 4.99938 4.88216 5.30197 6.03693C5.46217 6.6504 21.8198 67.7449 21.1434 111.518C21.1256 112.546 20.3247 113.43 19.2567 113.665Z" fill="#703D0F"/>
<path d="M19.7729 65.8323C19.7195 65.8503 19.6839 65.8503 19.6305 65.8503C19.3991 65.8323 19.2211 65.6338 19.2567 65.3992C19.2745 65.291 20.7875 54.5913 17.5124 36.2052C15.0205 22.2398 11.1402 9.93428 11.1046 9.80797C11.0334 9.59145 11.1758 9.35689 11.4072 9.28472C11.6208 9.21255 11.8878 9.3208 11.959 9.53732C11.9946 9.66363 15.8926 22.0233 18.3846 36.0248C21.6952 54.5372 20.1467 65.3631 20.1289 65.4714C20.0933 65.6518 19.9509 65.7962 19.7729 65.8323Z" fill="#BC7B35"/>
<path d="M1.27933 9.82597C2.0981 9.6275 2.95247 9.51924 3.80684 9.48315C4.23403 9.46511 4.66121 9.48315 5.0884 9.51924C5.51558 9.55533 5.92497 9.60946 6.38775 9.73576L6.20976 9.71772L11.514 9.48315C11.6386 9.48315 11.7276 9.55533 11.7276 9.68163C11.7276 9.78989 11.6386 9.8801 11.5318 9.89815L6.24536 10.5477L6.17416 10.5657L6.06736 10.5297C5.74697 10.4214 5.33759 10.3312 4.9638 10.2771C4.57221 10.2229 4.18063 10.1868 3.78904 10.1688C2.98807 10.1508 2.1871 10.2049 1.38612 10.3492C1.22593 10.3853 1.08353 10.2771 1.06573 10.1508C1.04793 10.0064 1.13693 9.86206 1.27933 9.82597Z" fill="#BC7B35"/>
<path d="M6.54793 10.3854C6.17415 10.7102 5.83596 10.8906 5.44437 11.1071C5.07058 11.3056 4.679 11.45 4.28741 11.5943C3.50424 11.865 2.70327 12.0634 1.90229 12.1897C1.7599 12.2078 1.6353 12.1176 1.6175 11.9913C1.5997 11.865 1.6887 11.7567 1.8133 11.7206C2.57867 11.5402 3.32624 11.3056 4.03822 10.9989C4.39421 10.8365 4.7324 10.6741 5.05278 10.4756C5.35537 10.2952 5.69356 10.0426 5.88936 9.84412C6.08515 9.64565 6.35214 9.6276 6.53013 9.77195C6.70813 9.91629 6.70813 10.1689 6.54793 10.3493C6.56573 10.3674 6.56573 10.3854 6.54793 10.3854Z" fill="#BC7B35"/>
<path d="M13.2405 69.7838C13.9525 69.3327 14.7179 68.9538 15.5188 68.647C15.9282 68.5027 16.3376 68.3584 16.747 68.2501C17.1742 68.1418 17.5836 68.0516 18.0641 68.0155L17.6548 68.2681L19.0787 65.7782C19.1321 65.6699 19.2745 65.6338 19.3813 65.688C19.4703 65.7421 19.5237 65.8323 19.4881 65.9406L18.4557 68.5749L18.3667 68.8094L18.0463 68.8275C17.7082 68.8275 17.281 68.8816 16.9072 68.9718C16.5156 69.044 16.124 69.1523 15.7502 69.2605C14.9848 69.4951 14.2373 69.8199 13.5431 70.2168C13.4007 70.289 13.2405 70.2529 13.1693 70.1266C13.0803 70.0183 13.1159 69.874 13.2405 69.7838Z" fill="#BC7B35"/>
<path d="M18.4736 68.5206C18.2244 69.098 17.9218 69.4588 17.548 69.8558C17.1921 70.2347 16.8005 70.5775 16.3733 70.8842C15.5367 71.4977 14.6467 72.0029 13.7034 72.4179C13.5788 72.472 13.4186 72.436 13.3652 72.3097C13.3118 72.2014 13.3652 72.057 13.472 72.0029C14.3442 71.5518 15.1807 71.0105 15.9283 70.3971C16.3021 70.0903 16.6403 69.7656 16.9429 69.4047C17.2277 69.0619 17.5124 68.6469 17.6192 68.3221C17.7082 68.0514 17.9574 67.9251 18.1888 67.9973C18.4202 68.0514 18.5448 68.286 18.4736 68.5025C18.4914 68.5025 18.4736 68.5206 18.4736 68.5206Z" fill="#BC7B35"/>
<path d="M51.3313 54.6996C37.2342 56.5581 19.0966 66.0669 19.0966 66.0669C19.0966 66.0669 23.671 56.9731 21.1613 39.8681C18.6516 22.7631 10.8555 9.73585 10.8555 9.73585C10.8555 9.73585 37.7859 -9.53435 61.4413 6.88501C71.854 14.1023 88.5142 14.0301 105.157 13.3806C105.958 13.3445 89.9026 19.6235 90.6679 19.7318C92.7327 20.0566 100.458 18.8657 102.273 18.9018C103.857 18.9379 99.3006 23.3044 100.636 22.8533C109.909 19.804 115.872 14.7338 115.872 14.7338C115.872 14.7338 110.817 30.2871 90.0984 42.3039C89.1372 42.8633 75.4851 42.3941 78.0838 42.9174C78.9915 43.0978 85.4171 44.83 84.5271 45.245C75.8766 49.431 65.0012 52.8953 51.3313 54.6996Z" fill="url(#paint0_linear_301_21961)"/>
<path d="M102.273 18.9019C100.458 18.8658 92.7327 20.0566 90.668 19.7319C89.9204 19.6056 105.975 13.3446 105.157 13.3806C93.0531 13.8678 80.9673 14.0122 71.2489 11.3057C75.8589 15.6902 79.5434 22.5286 77.8346 28.2483C75.3427 36.5662 64.9657 42.737 53.1291 44.83C41.1679 46.9411 30.0789 55.5477 20.4672 62.0252C19.773 64.6956 19.0789 66.085 19.0789 66.085C19.0789 66.085 37.2164 56.5942 51.3136 54.7177C64.9835 52.9134 75.8589 49.4491 84.4916 45.2811C85.3638 44.8481 78.956 43.134 78.0482 42.9535C75.4495 42.4122 89.1017 42.8994 90.0628 42.3401C110.799 30.3052 115.854 14.7519 115.854 14.7519C115.854 14.7519 109.891 19.804 100.618 22.8714C99.2829 23.3044 103.857 18.938 102.273 18.9019Z" fill="#352F2E"/>
<path d="M102.273 18.9018C100.458 18.8657 92.7326 20.0565 90.6679 19.7318C89.9203 19.6054 105.975 13.3444 105.157 13.3805C105.157 13.3805 88.7989 19.6054 88.6209 19.84C88.4251 20.0746 89.7601 20.5437 91.3798 20.4896C92.9996 20.4354 95.9899 20.2189 97.3782 19.9844C98.7666 19.7498 101.899 18.8476 101.81 19.2626C101.721 19.6957 99.4964 22.6728 99.4964 23.7193C99.4964 24.7658 112.65 19.2987 115.872 14.7518C115.872 14.7518 109.909 19.8039 100.636 22.8713C99.2828 23.3043 103.857 18.9378 102.273 18.9018Z" fill="#5A514F"/>
<path d="M77.0869 42.5926C76.6597 42.6647 75.8409 42.8271 76.6063 43.0436C77.3717 43.2602 84.527 45.281 84.527 45.281C85.3992 44.848 78.9914 43.1339 78.0836 42.9534C75.4849 42.4121 89.1371 42.8993 90.0982 42.34C90.0982 42.34 83.6193 42.358 79.8636 42.0693C78.5998 41.9791 77.1403 41.6543 76.7487 41.6724C75.2001 41.7084 77.5141 42.5204 77.0869 42.5926Z" fill="#5A514F"/>
<defs>
<linearGradient id="paint0_linear_301_21961" x1="14.3975" y1="35.2901" x2="116.612" y2="19.6799" gradientUnits="userSpaceOnUse">
<stop stop-color="#4F4A49"/>
<stop offset="1" stop-color="#312B29"/>
</linearGradient>
</defs>
</svg>
