<svg width="374" height="251" viewBox="0 0 374 251" fill="none" xmlns="http://www.w3.org/2000/svg">
<mask id="mask0_1004_4833" style="mask-type:alpha" maskUnits="userSpaceOnUse" x="0" y="0" width="374" height="251">
<path d="M350 0H24C10.7452 0 0 10.7452 0 24V227C0 240.255 10.7452 251 24 251H350C363.255 251 374 240.255 374 227V24C374 10.7452 363.255 0 350 0Z" fill="url(#paint0_radial_1004_4833)"/>
</mask>
<g mask="url(#mask0_1004_4833)">
<g style="mix-blend-mode:multiply">
<path d="M372.283 196.118C372.106 197.335 372.76 198.53 373.145 199.645C373.458 200.819 373.353 202.06 372.845 203.171C372.344 204.637 371.975 206.103 371.52 207.57C371.251 208.449 370.75 209.234 370.566 210.136C370.15 212.166 369.026 213.801 367.863 215.502C367.327 216.301 366.634 216.993 365.822 217.54C364.706 218.273 363.474 218.552 362.527 219.586C361.58 220.619 361.757 222.108 361.757 223.486C361.757 223.874 361.949 224.827 361.71 225.15C361.195 225.832 359.239 225.524 358.561 225.502C357.214 225.458 355.758 224.945 354.411 225.201C353.833 225.311 353.71 225.524 353.302 226.022C352.647 226.822 352.239 227.782 351.538 228.552C351.052 229.012 350.518 229.425 349.945 229.783C348.143 231.154 345.401 231.865 344.139 233.742C343.637 234.423 343.368 235.235 343.368 236.066C343.368 236.543 343.453 236.799 343.045 237.188C342.275 237.921 340.596 237.679 339.649 237.701C338.109 237.745 336.569 237.95 335.483 239.021C334.713 239.805 334.236 240.824 333.458 241.616C331.433 243.691 327.976 242.899 325.296 243.544C324.526 243.735 324.172 244.277 323.486 244.6C322.331 245.201 320.345 245.186 319.074 245.223C317.342 245.274 315.355 244.922 313.684 245.406C312.763 245.757 311.866 246.161 310.997 246.616C308.517 247.65 305.476 247.503 302.881 247.224C301.541 247.085 300.086 246.711 298.753 246.938C297.408 247.202 296.044 247.372 294.672 247.444C292.714 247.535 290.75 247.464 288.805 247.232C287.534 247.07 285.725 246.499 284.477 246.917C284.339 247.43 284.662 248.163 284.285 248.559C283.769 249.094 282.483 248.757 281.828 248.881C280.078 249.134 278.297 249.134 276.546 248.881C275.283 248.779 273.989 248.588 272.696 248.559C272.108 248.622 271.513 248.556 270.956 248.368C270.109 247.972 270.37 247.144 269.978 246.469C269.523 245.678 269.292 246.352 268.669 246.565C267.806 246.865 266.566 246.279 265.735 246.059C264.452 245.79 263.114 245.882 261.885 246.323C260.825 246.729 259.719 247.014 258.589 247.173C257.71 247.185 256.834 247.094 255.979 246.902C254.339 246.562 252.648 246.509 250.989 246.748C249.164 247.092 247.431 247.723 245.599 247.745C245.063 247.785 244.525 247.785 243.989 247.745C243.681 247.701 243.443 247.532 243.135 247.474C242.226 247.298 241.41 248.207 240.532 248.441C239.867 248.579 239.185 248.621 238.507 248.566C236.902 248.597 235.311 248.844 233.779 249.299C232.102 249.816 230.283 249.714 228.681 249.013C226.933 248.28 225.763 248.845 223.976 249.27C222.837 249.541 221.751 249.908 220.658 249.431C219.89 249.001 219.043 248.715 218.163 248.588C217.077 248.529 215.961 248.588 214.867 248.588C213.327 248.588 211.833 248.801 210.309 248.852C208.291 248.925 206.358 249.974 204.364 249.944C203.001 249.944 201.731 249.416 200.337 249.424C198.943 249.431 197.48 249.666 196.256 249.263C195.262 248.842 194.193 248.611 193.106 248.581C191.612 248.581 189.864 249.314 188.486 248.713C187.967 248.39 187.394 248.155 186.792 248.016C186.189 247.961 185.58 247.983 184.983 248.082C183.735 248.28 182.303 249.013 181.063 248.427C180.839 248.285 180.583 248.195 180.316 248.163C180.048 248.132 179.777 248.159 179.523 248.243C179.013 248.316 178.498 248.34 177.983 248.317C177.076 248.222 176.18 248.053 175.303 247.811C173.956 247.576 172.716 248.544 171.33 248.265C170.314 248.046 169.428 247.532 168.358 247.466C167.026 247.386 165.67 247.51 164.338 247.466C163.684 247.446 163.055 247.225 162.544 246.836C161.774 246.418 161.312 247.034 160.565 247.261C159.708 247.532 158.781 247.532 157.924 247.261C156.648 246.785 155.335 246.405 153.997 246.125C152.735 246.048 151.486 245.844 150.27 245.516C149.084 245.091 148.021 244.636 146.766 244.886C145.642 245.113 144.726 244.754 143.625 244.666C142.502 244.609 141.377 244.759 140.314 245.106C139.32 245.392 138.258 246.095 137.187 246.117C136.453 246.056 135.728 245.921 135.023 245.714C133.129 245.35 131.161 245.573 129.41 246.352C128.281 246.785 127.089 247.05 125.876 247.136C125.152 247.098 124.432 247.014 123.72 246.887C122.326 246.799 121.032 247.195 119.654 247.18C118.603 247.087 117.544 247.105 116.497 247.232C115.63 247.459 114.776 247.73 113.94 248.046C113.306 248.237 112.641 248.319 111.977 248.287C111.068 248.261 110.164 248.16 109.274 247.987C108.227 247.826 107.179 247.716 106.14 247.518C105.493 247.457 104.842 247.439 104.192 247.466C103.697 247.406 103.206 247.321 102.721 247.21C101.552 247.008 100.367 246.905 99.1789 246.902C97.2462 246.902 95.3288 246.865 93.373 246.902C91.4171 246.939 89.6691 247.195 87.7903 247.195C84.4679 247.245 81.1525 247.5 77.8647 247.958C74.184 248.39 70.1645 249.006 66.4684 248.419C64.805 248.066 63.1688 247.606 61.571 247.041C60.6085 246.755 59.5689 246.667 58.591 246.462C56.2809 245.978 54.2943 244.922 51.9072 244.68C50.475 244.534 49.0658 244.798 47.649 244.453C46.3785 244.145 45.0925 244.065 43.8451 243.683C42.4084 243.209 40.9998 242.661 39.6254 242.041C38.5813 241.742 37.4659 241.755 36.4298 242.078C35.2439 242.364 34.1197 242.532 32.9108 242.862C32.1579 243.064 31.3648 243.086 30.6007 242.928C29.7886 242.727 28.934 242.739 28.1289 242.965C26.9836 243.057 25.8322 243.057 24.6869 242.965C24.0025 243.128 23.2786 243.041 22.6584 242.721C22.0382 242.4 21.5668 241.87 21.3373 241.235C20.931 240.457 20.3924 239.749 19.7434 239.138C19.2429 238.662 18.5652 238.405 18.0416 237.965C17.7413 237.708 17.4949 237.43 17.1715 237.195C16.7317 236.907 16.4106 236.482 16.2629 235.993C15.6623 234.343 15.208 232.804 13.0519 232.701C12.3961 232.779 11.7319 232.764 11.0806 232.657C10.5921 232.419 10.1878 232.049 9.9179 231.594C9.64069 231.198 9.24799 230.861 8.97078 230.487C8.20076 229.417 6.51438 228.456 6.05237 227.151C5.72126 226.228 4.75875 225.495 4.29674 224.659C4.18894 224.461 4.12734 224.072 4.01183 223.83C3.89871 223.595 3.81097 223.349 3.75001 223.097C3.56208 222.492 3.45346 221.866 3.42661 221.235C3.33729 219.123 3.42222 217.008 3.68068 214.908C3.99639 213.156 4.68171 211.411 5.17453 209.681C5.71355 207.826 6.19869 206.015 6.6453 204.146C7.2383 201.956 7.07359 199.642 6.1756 197.548C5.34397 195.803 4.2582 194.11 4.2582 192.115C4.33111 191.078 4.54066 190.053 4.88192 189.066C5.16683 188.003 5.35167 186.866 5.74439 185.847C6.43741 184.022 7.84654 181.962 7.51543 179.924C7.06112 177.189 3.5113 175.987 3.4189 173.215C3.39396 172.122 3.59273 171.033 4.00413 170.012C4.28134 169.315 5.01284 168.457 4.90504 167.666C4.71923 167.064 4.38377 166.513 3.9271 166.06C3.45738 165.437 3.40349 165.327 3.6499 164.594C3.77693 164.103 3.97109 163.629 4.22742 163.186C4.47382 162.827 4.85114 162.563 4.90504 162.094C4.98974 161.397 4.38912 160.928 3.9348 160.496C3.48049 160.063 3.42661 160.041 3.42661 159.315C3.43408 158.833 3.55788 158.359 3.7885 157.93C4.04261 157.38 3.96563 157.336 3.71922 156.83C3.17247 155.58 2.80221 154.266 2.6181 152.923C2.33319 151.2 3.11857 149.521 3.49589 147.857C3.9425 145.87 3.67299 143.788 4.0734 141.757C4.3909 140.309 4.56619 138.837 4.59701 137.358C4.59701 136.156 4.28134 135.012 4.29674 133.803C4.42661 131.096 4.35195 128.384 4.0734 125.687C3.8886 124.255 3.8886 122.808 4.0734 121.376C4.17231 120.48 4.34484 119.593 4.58935 118.722C4.91353 117.942 5.12089 117.123 5.20536 116.288C5.27953 115.557 5.27953 114.82 5.20536 114.089C5.07633 113.656 4.90887 113.234 4.70483 112.828C4.34276 111.693 4.29765 110.488 4.57394 109.331C4.69891 108.572 4.64899 107.797 4.42763 107.058C4.17126 106.15 4.04436 105.213 4.05033 104.272C3.97711 103.529 4.07162 102.779 4.32752 102.073C4.52773 101.618 5.09753 101.179 5.18224 100.702C5.22715 100.393 5.20233 100.078 5.10939 99.778C5.01645 99.4784 4.85751 99.2011 4.64321 98.9646C4.07526 98.4374 3.74874 97.7182 3.73459 96.9631C3.82699 95.9147 4.84342 95.0203 5.27464 94.0746C5.54118 93.6301 5.61575 93.1043 5.48256 92.6084C5.39015 92.4031 5.08214 92.2711 4.99744 92.0585C4.83973 91.4419 4.83973 90.7983 4.99744 90.1817C5.17454 89.4926 5.76744 88.9501 5.84445 88.2316C5.77813 87.3126 5.37794 86.4443 4.71253 85.7756C4.18287 85.194 3.75396 84.5357 3.44198 83.8255C3.12525 83.2108 2.85255 82.5764 2.62576 81.9267C2.49939 81.3565 2.53393 80.7646 2.72586 80.2112C3.27881 78.5151 3.53887 76.7448 3.49589 74.9694C3.49589 74.1703 3.75001 73.5031 3.80391 72.7113C3.80391 72.1542 3.73461 71.597 3.80391 71.0398C3.86552 70.0941 4.11959 69.2363 4.11189 68.2613C4.10419 67.2862 4.36601 66.3405 4.41221 65.3288C4.41221 64.5517 4.41221 63.7599 4.41221 62.9754C4.41221 60.5415 4.1196 58.1735 4.1196 55.7468C4.1196 53.5475 4.0041 51.3041 4.1196 49.0974C4.1735 48.0344 4.42763 47.052 4.42763 45.9523C4.37096 45.241 4.39162 44.5261 4.48924 43.8189C4.61546 42.6897 4.81083 41.5686 5.07442 40.4612C5.33623 39.6694 5.62885 38.797 5.95226 38.0272C6.37004 37.1165 6.68248 36.1651 6.884 35.19C7.05239 34.0673 7.33342 32.9626 7.7233 31.8909C8.05894 31.0756 8.55559 30.329 9.18636 29.6916C9.72714 29.2044 10.3392 28.7945 11.0036 28.4746C11.8121 27.9907 12.2048 27.155 12.8286 26.5098C13.2444 26.0773 13.6833 25.6594 14.0683 25.2048C14.9357 24.1381 15.861 23.1152 16.8404 22.1404C17.3819 21.5149 18.0814 21.0306 18.8733 20.7328C19.4594 20.6744 20.0504 20.6744 20.6366 20.7328C22.1766 20.7328 24.0786 20.9674 25.5339 20.4102C26.5658 20.007 27.4667 19.0319 28.4677 18.4967C29.0695 18.2358 29.6511 17.9345 30.208 17.595C30.5468 17.3457 30.6854 17.0305 31.132 16.8619C31.5786 16.6933 32.2871 16.9132 32.8415 16.7592C32.8415 16.6126 32.903 16.4587 32.9415 16.3047C33.7578 16.268 34.3661 15.5056 34.7203 14.8385C34.9898 14.3473 35.0514 14.1053 35.5751 13.7901C35.9216 13.5995 36.3451 13.4235 36.6916 13.2329C37.4616 12.8224 37.5925 12.7564 37.9159 12.0672C38.4472 10.9309 39.2249 10.535 40.4185 10.0951C41.612 9.65526 42.7286 9.81654 43.9067 9.62593C45.5639 9.29591 47.1075 8.57495 48.3959 7.52919C49.0118 7.08286 49.5958 6.59792 50.1439 6.07761C50.285 5.93101 50.4341 5.79153 50.5905 5.65973C51.1911 5.21985 54.7409 4.9266 54.7409 4.9266H57.051C57.6131 4.9266 57.7286 4.75065 58.206 4.64068C59.2609 4.39875 60.2542 4.97059 61.2861 4.93393C62.2223 4.8366 63.1492 4.66992 64.0582 4.43541C65.1591 4.34022 66.2663 4.32797 67.3693 4.39875C70.6881 4.28145 73.9607 3.519 77.3026 3.54099C80.1209 3.54099 82.9314 3.54099 85.7728 3.54099C88.3909 3.54099 90.7009 2.80787 93.1958 2.17738C95.3211 1.62754 96.8688 1.89146 98.9325 2.43398C100.996 2.97649 102.683 2.25069 104.646 1.83281C105.909 1.49204 107.258 1.60153 108.442 2.14073C108.929 2.38378 109.447 2.56612 109.982 2.68324C110.991 2.84453 111.938 2.25803 112.901 2.4633C113.509 2.59526 114.079 3.19643 114.641 3.19643C115.203 3.19643 115.858 2.54394 116.628 2.65391C117.228 2.73456 117.59 3.18176 118.222 3.25508C118.509 3.26963 118.797 3.26963 119.084 3.25508C120.338 3.16526 121.599 3.23429 122.834 3.46035C123.809 3.75054 124.844 3.80098 125.845 3.60698C127.337 3.26587 128.857 3.04757 130.388 2.95449C132.344 2.95449 134.176 3.57032 136.017 4.09084C137.618 4.54538 139.382 5.32982 141.076 5.20519C141.906 5.07356 142.725 4.8824 143.525 4.63335C144.606 4.4235 145.71 4.33736 146.812 4.37676C148.668 4.37676 150.485 3.86357 152.341 3.79759C154.343 3.73161 156.368 3.79759 158.371 3.79759C159.405 3.67069 160.456 3.76077 161.451 4.06151C162.513 4.52338 163.283 4.98525 164.531 4.93393C166.125 4.86795 167.572 4.09084 169.151 4.05418C170.55 4.13107 171.953 4.02998 173.324 3.7536C174.772 3.37238 175.804 2.41198 177.398 2.73456C178.553 2.96916 179.277 3.54099 180.401 2.9325C181.872 2.13339 183.319 1.01904 185.021 0.557175C186.244 0.26955 187.491 0.0831307 188.748 0L0 0V251H374V191.419C373.915 191.661 373.823 191.903 373.723 192.152C373.068 193.411 372.584 194.743 372.283 196.118Z" fill="#E8BFB0"/>
</g>
</g>
<defs>
<radialGradient id="paint0_radial_1004_4833" cx="0" cy="0" r="1" gradientUnits="userSpaceOnUse" gradientTransform="translate(186.992 125.5) scale(161.774 154.036)">
<stop stop-color="#FFE7C2"/>
<stop offset="0.64" stop-color="#FFE6C0"/>
<stop offset="0.87" stop-color="#FFE1B9"/>
<stop offset="1" stop-color="#FFDBB1"/>
</radialGradient>
</defs>
</svg>
