<svg width="43" height="44" viewBox="0 0 43 44" fill="none" xmlns="http://www.w3.org/2000/svg">
<path fill-rule="evenodd" clip-rule="evenodd" d="M2.57701 23.5703L1.27784 23.6835C1.10736 24.0338 1.01034 24.416 0.992864 24.806C0.975391 25.1961 1.03784 25.5856 1.1763 25.95L2.82434 26.137L2.57701 23.5703Z" fill="url(#paint0_linear_301_23852)"/>
<path fill-rule="evenodd" clip-rule="evenodd" d="M2.77752 26.4053C2.77752 26.4053 1.76474 24.6021 2.77752 23.2464C2.77752 23.2464 7.0994 23.0147 10.8902 24.4784L10.7001 26.2079C8.0932 26.7613 5.40821 26.8282 2.77752 26.4053Z" fill="url(#paint1_radial_301_23852)"/>
<path fill-rule="evenodd" clip-rule="evenodd" d="M9.19517 21.7696C10.8326 22.1133 12.2898 23.0493 13.2931 24.4021L13.038 26.7134C13.038 26.7134 12.2023 28.385 8.86451 28.5114C8.86451 28.5114 8.73434 24.5153 9.19517 21.7696Z" fill="url(#paint2_linear_301_23852)"/>
<path fill-rule="evenodd" clip-rule="evenodd" d="M41.1877 17.9369C40.61 19.6224 39.8263 21.2284 38.8549 22.7175C38.5373 22.6859 37.5323 22.6385 37.1548 23.3835C36.963 23.9346 36.9067 24.5245 36.9908 25.1025C36.7903 25.3052 36.5872 25.5105 36.3868 25.7132C36.1967 25.6685 35.7463 25.5921 35.6109 25.6764C35.4755 25.7606 35.6291 26.1318 35.7124 26.3055C34.6691 27.1709 33.464 27.8146 32.169 28.1983C26.1653 29.9199 13.0382 26.7083 13.0382 26.7083L13.2907 24.3996C13.2907 24.3996 28.5605 24.1759 39.4641 18.8372C40.0551 18.5556 40.6305 18.2528 41.1877 17.9369Z" fill="url(#paint3_linear_301_23852)"/>
<path fill-rule="evenodd" clip-rule="evenodd" d="M41.1877 17.9368C40.61 19.6223 39.8263 21.2283 38.8549 22.7174C38.5373 22.6858 37.5323 22.6384 37.1548 23.3834C36.963 23.9345 36.9067 24.5245 36.9908 25.1024C36.7903 25.3051 36.5872 25.5105 36.3868 25.7132C36.1967 25.6684 35.7463 25.5921 35.6109 25.6763C35.4755 25.7606 35.6291 26.1317 35.7124 26.3055C34.6692 27.1708 33.464 27.8146 32.169 28.1982C26.1653 29.9198 13.0382 26.7082 13.0382 26.7082L13.1241 26.0264C13.1241 26.0264 25.4727 29.0353 31.4531 26.4476C34.9531 24.9873 37.8018 22.2794 39.4589 18.8372C40.0552 18.5555 40.6305 18.2527 41.1877 17.9368Z" fill="url(#paint4_linear_301_23852)"/>
<path fill-rule="evenodd" clip-rule="evenodd" d="M13.2934 24.4023L13.2596 24.7208C18.2623 24.6041 23.2401 23.9708 28.1154 22.8307C36.1942 20.938 41.1878 17.937 41.1878 17.937C41.1878 17.937 29.589 24.0785 13.2934 24.4023Z" fill="url(#paint5_linear_301_23852)"/>
<path fill-rule="evenodd" clip-rule="evenodd" d="M24.8944 23.1859L24.7199 23.536C24.7199 23.536 27.8832 22.9226 29.297 22.5409L29.349 22.2145C29.349 22.2145 26.7142 22.8884 24.8944 23.1859Z" fill="#F1E3D8"/>
<path fill-rule="evenodd" clip-rule="evenodd" d="M29.6901 22.4381L29.789 22.0854L31.674 21.5642L31.6375 21.8853L29.6901 22.4381Z" fill="#F1E3D8"/>
<g style="mix-blend-mode:soft-light" opacity="0.5">
<path fill-rule="evenodd" clip-rule="evenodd" d="M20.4531 24.1864L19.9376 27.2032C19.9376 27.2032 27.3317 28.0509 30.7996 26.7136L31.3203 21.9751C31.3203 21.9751 28.0347 23.2018 20.4531 24.1864Z" fill="#F1E3D8"/>
</g>
<path fill-rule="evenodd" clip-rule="evenodd" d="M22.0256 27.3769L21.9137 28.3167C23.8996 28.5923 25.9026 28.7225 27.907 28.7063L27.9018 27.3637C27.9018 27.3637 25.1056 27.5216 22.0256 27.3769Z" fill="#F1E3D8"/>
<path style="mix-blend-mode:screen" fill-rule="evenodd" clip-rule="evenodd" d="M9.17179 21.9093C9.17179 21.9093 11.0958 22.3068 13.0589 24.3759L12.973 25.084C11.6817 24.8011 10.3653 24.652 9.04421 24.6391L9.17179 21.9093Z" fill="url(#paint6_linear_301_23852)"/>
<path style="mix-blend-mode:screen" fill-rule="evenodd" clip-rule="evenodd" d="M9.04948 27.8085L9.11717 28.3665C9.11717 28.3665 11.4135 28.4297 12.7908 26.7844C12.7908 26.7844 11.5437 27.8506 9.04948 27.8085Z" fill="url(#paint7_linear_301_23852)"/>
<path style="mix-blend-mode:multiply" opacity="0.6" fill-rule="evenodd" clip-rule="evenodd" d="M8.58082 23.7758C8.58082 23.7758 8.40638 25.1789 6.47195 25.7448C5.22436 26.0865 3.92871 26.2129 2.63954 26.1187L2.77752 26.4056C4.78518 26.7417 6.83066 26.7789 8.84898 26.5162L8.96614 23.8705L8.58082 23.7758Z" fill="url(#paint8_linear_301_23852)"/>
<path style="mix-blend-mode:screen" fill-rule="evenodd" clip-rule="evenodd" d="M1.27775 23.6836C1.16041 23.9084 1.08038 24.1512 1.04083 24.4023L2.16034 24.3601C2.22373 24.0799 2.3395 23.8146 2.50141 23.5783L1.27775 23.6836Z" fill="url(#paint9_linear_301_23852)"/>
<path style="mix-blend-mode:screen" fill-rule="evenodd" clip-rule="evenodd" d="M1.17656 25.6552L2.35076 25.7894L2.47313 26.0342L1.17916 25.9526L1.17656 25.6552Z" fill="url(#paint10_linear_301_23852)"/>
<path fill-rule="evenodd" clip-rule="evenodd" d="M9.36195 21.9538C9.19272 21.9986 9.75769 22.4593 10.1717 22.583C10.5856 22.7067 10.682 22.504 10.682 22.504C10.682 22.504 9.89828 21.8117 9.36195 21.9538Z" fill="#FFFFF4"/>
<path fill-rule="evenodd" clip-rule="evenodd" d="M1.43428 23.7308C1.2286 23.7756 1.16351 24.1625 1.21558 24.1994C1.41606 24.109 1.58163 23.9546 1.68682 23.7598C1.69984 23.6413 1.43428 23.7308 1.43428 23.7308Z" fill="#FFFFF4"/>
<path style="mix-blend-mode:screen" fill-rule="evenodd" clip-rule="evenodd" d="M2.78259 23.2357C3.27444 23.5659 3.84601 23.7543 4.43584 23.7806C5.7461 23.868 7.06093 23.8583 8.36979 23.7517C8.36979 23.7517 6.49524 23.2094 2.78259 23.2357Z" fill="url(#paint11_linear_301_23852)"/>
<g style="mix-blend-mode:multiply" opacity="0.6">
<path fill-rule="evenodd" clip-rule="evenodd" d="M13.2933 24.4024L14.5378 24.355L17.2064 27.5798C17.2064 27.5798 14.3373 27.0427 13.0407 26.711L13.2933 24.4024Z" fill="#867998"/>
</g>
<defs>
<linearGradient id="paint0_linear_301_23852" x1="1.84714" y1="26.0389" x2="2.13199" y2="23.5313" gradientUnits="userSpaceOnUse">
<stop stop-color="#907C7E"/>
<stop offset="1" stop-color="#E5CCAE"/>
</linearGradient>
<radialGradient id="paint1_radial_301_23852" cx="0" cy="0" r="1" gradientUnits="userSpaceOnUse" gradientTransform="translate(4.48578 24.2331) rotate(6.48062) scale(3.66406 3.70374)">
<stop stop-color="#E16419"/>
<stop offset="1" stop-color="#CF463E"/>
</radialGradient>
<linearGradient id="paint2_linear_301_23852" x1="10.6082" y1="28.7199" x2="11.3683" y2="22.0291" gradientUnits="userSpaceOnUse">
<stop stop-color="#907C7E"/>
<stop offset="1" stop-color="#E5CCAE"/>
</linearGradient>
<linearGradient id="paint3_linear_301_23852" x1="26.3907" y1="28.8345" x2="27.8002" y2="16.4258" gradientUnits="userSpaceOnUse">
<stop stop-color="#907C7E"/>
<stop offset="1" stop-color="#D9CCC5"/>
</linearGradient>
<linearGradient id="paint4_linear_301_23852" x1="26.3907" y1="28.8344" x2="27.8002" y2="16.4257" gradientUnits="userSpaceOnUse">
<stop stop-color="#E5CCAE"/>
<stop offset="1" stop-color="#A39395"/>
</linearGradient>
<linearGradient id="paint5_linear_301_23852" x1="26.6773" y1="26.2559" x2="27.794" y2="16.4251" gradientUnits="userSpaceOnUse">
<stop stop-color="#C1B6B7"/>
<stop offset="1" stop-color="#E5CCAE"/>
</linearGradient>
<linearGradient id="paint6_linear_301_23852" x1="9.0234" y1="23.2764" x2="13.1335" y2="23.7331" gradientUnits="userSpaceOnUse">
<stop stop-color="#D7683D"/>
<stop offset="1"/>
</linearGradient>
<linearGradient id="paint7_linear_301_23852" x1="9.09781" y1="27.3757" x2="12.6845" y2="27.7742" gradientUnits="userSpaceOnUse">
<stop stop-color="#D7683D"/>
<stop offset="1"/>
</linearGradient>
<linearGradient id="paint8_linear_301_23852" x1="2.78998" y1="24.79" x2="8.96796" y2="25.4764" gradientUnits="userSpaceOnUse">
<stop offset="0.01" stop-color="#B66054"/>
<stop offset="1" stop-color="#BF777C"/>
</linearGradient>
<linearGradient id="paint9_linear_301_23852" x1="1.09656" y1="23.9233" x2="2.44708" y2="24.0733" gradientUnits="userSpaceOnUse">
<stop stop-color="#D7683D"/>
<stop offset="1"/>
</linearGradient>
<linearGradient id="paint10_linear_301_23852" x1="1.16132" y1="25.8111" x2="2.48256" y2="25.9579" gradientUnits="userSpaceOnUse">
<stop stop-color="#D7683D"/>
<stop offset="1"/>
</linearGradient>
<linearGradient id="paint11_linear_301_23852" x1="2.77699" y1="23.3046" x2="8.35108" y2="23.9239" gradientUnits="userSpaceOnUse">
<stop stop-color="#D7683D"/>
<stop offset="1"/>
</linearGradient>
</defs>
</svg>
