<svg width="104" height="65" viewBox="0 0 104 65" fill="none" xmlns="http://www.w3.org/2000/svg">
<path d="M32.3181 20.0347C32.3181 20.0347 36.4118 14.196 39.862 13.7042C43.3122 13.2124 46.1435 12.5276 46.1435 12.5276C46.1435 12.5276 47.0336 20.0454 32.3181 20.0347Z" fill="#1F1D1E"/>
<path d="M77.6672 38.1101C77.6672 38.1101 91.5937 35.2252 97.722 43.6439C103.85 52.0626 103.237 56.6496 103.237 56.6496C103.237 56.6496 102.813 55.6492 97.7603 52.0872C92.7075 48.5251 78.2647 47.422 77.6672 38.1101Z" fill="#B82017"/>
<path d="M80.8049 39.4951C80.8049 39.4951 90.3742 48.5266 89.9437 45.4702C89.5132 42.4137 80.8049 39.4951 80.8049 39.4951Z" fill="#9E1B13"/>
<path d="M76.2409 39.3938C76.2409 39.3938 67.1328 45.2953 73.1078 53.1211C79.3219 61.261 85.7168 55.8145 86.6559 60.5302C86.6559 60.5302 88.26 57.1735 83.3941 52.6079C78.5283 48.0423 75.5561 44.0283 78.7979 40.3514C82.0398 36.6744 76.2409 39.3938 76.2409 39.3938Z" fill="#B82017"/>
<path d="M76.0403 40.5522C76.0403 40.5522 72.1427 45.6356 74.2891 46.9869C76.4356 48.3382 77.4728 48.1038 77.1832 47.1907C76.8937 46.2776 74.9296 42.7814 76.0403 40.5522Z" fill="#9E1B13"/>
<path d="M77.5141 42.9131C77.5141 42.9131 76.3972 45.3169 78.4685 48.8115C80.5399 52.3062 87.1186 54.9275 86.6636 60.5303C86.6636 60.5303 88.2676 57.1736 83.4018 52.608C79.6421 49.0842 77.0161 45.8853 77.5141 42.9131Z" fill="#A61D16"/>
<path d="M18.4041 59.8193C18.4041 59.8193 19.57 62.2231 21.9447 61.906C24.3194 61.5888 21.0806 64.394 24.9245 64.4094C28.7685 64.4247 41.3973 54.9366 53.9189 49.6265C68.0506 43.633 83.2656 39.8442 83.7129 38.8116C84.1603 37.779 82.4153 38.1865 83.6685 36.2714C84.6165 34.7671 85.2589 33.0908 85.5591 31.3382C85.6694 30.5538 45.9092 39.0874 43.7751 40.3207C41.6409 41.554 18.4041 59.8193 18.4041 59.8193Z" fill="#D4241A"/>
<path d="M28.9277 63.0443C34.6453 60.2299 44.3111 53.6987 53.9187 49.6265C68.0505 43.6331 83.2654 39.8443 83.7128 38.8117C84.1601 37.779 82.4151 38.1866 83.6684 36.2715C84.6164 34.7672 85.2588 33.0908 85.5589 31.3382C85.6539 30.6672 56.6029 36.8092 46.8421 39.3739C44.1932 40.9136 41.2792 42.602 38.5092 44.1938C31.8371 49.2803 21.1141 57.6913 18.839 59.4777C18.8045 59.9992 18.9488 60.5169 19.2481 60.9454C19.2481 60.9454 33.6862 51.6718 42.9951 47.5429C66.2212 37.2489 68.386 38.3045 74.6966 36.5319C86.0339 33.3468 68.5208 40.2763 74.0838 39.4429C86.1687 37.6458 53.8544 43.3833 28.9277 63.0443Z" fill="#B82017"/>
<path d="M23.7079 60.9576C23.1564 60.9791 25.2063 58.966 26.9881 57.6331C28.5538 56.4672 30.3831 55.9202 31.0128 56.2787C31.8125 56.7383 29.9771 57.4768 27.7526 58.5278C26.2389 59.2433 24.261 60.9362 23.7079 60.9576Z" fill="#B82017"/>
<path d="M91.0821 10.611C90.29 8.97781 85.2388 14.4611 79.1979 14.5944C73.1569 14.7276 56.678 0.217454 52.3071 0.00602873C44.6467 -0.354007 44.9179 15.5243 40.2911 17.4869C35.6642 19.4495 24.4342 8.22096 19.3722 13.9739C16.4858 17.254 15.0166 40.2319 10.7207 44.4804C6.42476 48.7288 -0.585964 47.5123 0.039119 49.2175C3.46788 58.5738 17.9367 61.4955 17.9367 61.4955C17.9367 61.4955 33.9851 49.5975 50.8761 42.4351C67.7671 35.2726 87.4726 32.0124 87.4726 32.0124C87.4726 32.0124 95.4255 19.5797 91.0821 10.611Z" fill="#2C2A2B"/>
<path d="M87.4725 32.0125C88.2186 30.7317 93.6207 22.4003 92.1545 13.9832C92.1545 13.9832 83.2685 15.4386 79.2024 16.3303C77.8664 16.6229 75.3615 26.8862 64.9542 31.3307C58.5027 34.0885 54.2297 33.0788 48.7357 35.3018C40.9452 38.4518 31.5981 46.6545 24.8355 50.5551C24.1583 50.9453 23.5103 51.3221 22.8913 51.6858C19.7582 53.5242 13.6009 54.9536 12.5621 55.0823C7.37764 55.7319 1.72583 52.3338 1.72583 52.3338C5.09637 56.9576 12.461 60.7602 16.9821 62.2723C19.605 63.1517 21.0084 61.8893 21.0084 61.8893C21.0084 61.8893 18.597 61.0145 19.7828 60.178C24.4663 56.8825 37.4015 48.1543 50.8745 42.4413C64.2035 36.788 78.3628 33.7422 84.1295 32.6361C84.6948 32.5273 85.254 32.872 84.9446 33.6702C84.7561 34.1482 86.996 32.8214 87.4725 32.0125Z" fill="#1F1D1E"/>
<path d="M23.279 19.8218C23.279 19.8218 19.3416 27.7028 21.5799 30.197C23.8182 32.6912 23.5823 25.4721 25.5265 23.5601C27.4707 21.6481 35.1203 24.775 34.1168 23.1097C33.1133 21.4443 25.0715 18.9486 23.279 19.8218Z" fill="#423F40"/>
<path d="M52.9307 8.01402C54.5164 7.33991 61.9178 10.4148 62.1553 13.7577C62.3928 17.1007 56.9156 10.9326 54.1885 11C51.4615 11.0674 50.8532 20.0499 50.3584 18.1716C49.8635 16.2933 51.3466 8.68813 52.9307 8.01402Z" fill="#423F40"/>
<path d="M91.0821 10.611C90.29 8.97781 85.2388 14.4611 79.1979 14.5944C73.1569 14.7276 56.678 0.217454 52.3071 0.00602873C44.6467 -0.354007 44.9179 15.5243 40.2911 17.4869C35.6642 19.4495 24.4342 8.22096 19.3722 13.9739C16.4858 17.254 15.0166 40.2319 10.7207 44.4804C6.42476 48.7288 -0.585964 47.5123 0.039119 49.216C0.452278 50.327 1.01959 51.3745 1.72439 52.3276C4.51581 51.7224 9.81829 48.9096 12.4841 45.8485C17.2473 40.379 19.8027 19.0373 22.7336 17.5987C25.6644 16.1601 40.622 24.349 42.8036 23.4206C44.9853 22.4922 49.5018 6.04543 52.5736 4.93928C55.6454 3.83313 71.4288 16.4619 78.6708 16.8404C82.7247 17.0518 89.7691 15.5611 92.153 13.9769C91.9539 12.8107 91.5934 11.6779 91.0821 10.611Z" fill="#F4B019"/>
<path d="M43.3153 13.2141C42.5049 15.2931 41.5902 16.9416 40.291 17.4932C38.759 18.1428 36.5022 17.34 33.9866 16.197C33.9866 16.197 40.3171 22.2456 42.0039 21.5302C43.3138 20.974 43.1836 15.3268 43.3153 13.2141Z" fill="#F49816"/>
<path d="M39.4269 31.8501C41.126 31.988 46.7241 32.5931 46.7241 32.5931C46.7241 32.5931 52.3085 33.3209 53.9923 33.5844C55.676 33.8479 54.4764 35.2176 56.177 35.4826C57.8776 35.7477 57.1759 33.7116 57.5313 33.1845C57.8868 32.6575 58.9546 32.5349 57.8377 31.0151C56.7209 29.4953 56.0544 31.559 56.0544 31.559C54.2711 32.1029 46.9111 31.0366 46.9111 31.0366C46.9111 31.0366 39.505 30.3441 37.901 29.3957C37.901 29.3957 37.7386 27.234 36.2954 28.4489C34.8522 29.6638 35.8603 30.0346 36.0824 30.629C36.3046 31.2235 35.1448 33.0374 36.8592 33.1784C38.5736 33.3193 37.7279 31.7107 39.4269 31.8501Z" fill="white"/>
<path d="M41.5948 37.1096C42.6994 35.812 46.2369 31.4303 46.2369 31.4303C46.2369 31.4303 49.6764 26.9719 50.6799 25.5962C51.6834 24.2204 49.871 24.0978 50.8867 22.7082C51.9025 21.3186 52.8447 23.2567 53.4667 23.3777C54.0887 23.4988 54.9329 22.8323 55.2148 24.6984C55.4967 26.5644 53.5678 25.5716 53.5678 25.5716C51.9224 26.4465 47.4626 32.3985 47.4626 32.3985C47.4626 32.3985 42.7132 38.1193 42.2413 39.924C42.2413 39.924 43.6538 41.5679 41.7817 41.7288C39.9095 41.8897 40.3538 40.9122 40.0964 40.3362C39.839 39.7601 37.7309 39.2913 38.8462 37.9814C39.9616 36.6715 40.4901 38.4088 41.5948 37.1096Z" fill="white"/>
</svg>
