<svg width="136" height="91" viewBox="0 0 136 91" fill="none" xmlns="http://www.w3.org/2000/svg">
<g clip-path="url(#clip0_1023_12901)">
<path fill-rule="evenodd" clip-rule="evenodd" d="M47.0848 13.0293C47.0848 13.0293 31.5133 25.795 31.4308 51.3747C31.3368 65.8027 36.2082 79.824 45.2276 91.0857L99.0641 91.2316C99.0641 91.2316 114.228 73.5875 112.243 48.3873C110.317 23.9103 98.6301 11.8679 98.6301 11.8679L47.0848 13.0293Z" fill="url(#paint0_radial_1023_12901)"/>
<path style="mix-blend-mode:multiply" opacity="0.5" fill-rule="evenodd" clip-rule="evenodd" d="M50.2061 91.1183C50.2061 91.1183 40.5474 68.5301 41.341 47.1009C42.154 24.9352 52.4993 12.7747 52.4993 12.7747L53.188 12.8085C53.188 12.8085 43.4066 25.4577 42.9003 49.4836C42.4646 69.5633 52.0271 90.7503 52.0271 90.7503L50.2061 91.1183Z" fill="url(#paint1_linear_1023_12901)"/>
<path fill-rule="evenodd" clip-rule="evenodd" d="M53.1878 12.8086C48.2675 19.8768 44.9026 27.9084 43.3152 36.3731C39.5181 57.2197 50.206 91.1183 50.206 91.1183L51.3076 90.7883C51.3076 90.7883 42.1575 65.6467 42.958 46.1571C43.6628 28.8572 54.387 12.8042 54.387 12.8042L53.1878 12.8086Z" fill="url(#paint2_linear_1023_12901)"/>
<path style="mix-blend-mode:multiply" opacity="0.5" fill-rule="evenodd" clip-rule="evenodd" d="M68.04 91.1306L67.2651 91.1227C67.2651 91.1227 64.6198 75.6719 64.2783 51.7434C63.9368 27.8148 68.0316 12.5266 68.0316 12.5266L68.5776 12.363C68.5776 12.363 64.1275 65.422 68.04 91.1306Z" fill="url(#paint3_linear_1023_12901)"/>
<path style="mix-blend-mode:multiply" opacity="0.5" fill-rule="evenodd" clip-rule="evenodd" d="M89.0513 12.1279L89.9651 12.042C89.9651 12.042 99.5881 30.6428 99.4021 52.6728C99.3291 65.7471 97.3141 78.738 93.4234 91.2201L92.0757 91.2168C92.0757 91.2168 98.1031 70.1823 97.7251 50.1061C97.4291 33.9935 89.0513 12.1279 89.0513 12.1279Z" fill="url(#paint4_linear_1023_12901)"/>
<path fill-rule="evenodd" clip-rule="evenodd" d="M88.9116 12.0444C88.9116 12.0444 96.6647 28.272 96.6595 52.0538C96.6644 79.4237 91.6074 91.2213 91.6074 91.2213L92.0758 91.2167C92.0758 91.2167 97.5231 76.7134 97.7291 51.65C97.7691 37.9987 94.7966 24.5066 89.0227 12.1364L88.9116 12.0444Z" fill="url(#paint5_linear_1023_12901)"/>
<path fill-rule="evenodd" clip-rule="evenodd" d="M68.5918 12.4111C68.5918 12.4111 63.6729 53.9396 68.0399 91.1308C66.8278 64.8997 67.0121 38.6226 68.5918 12.4111Z" fill="url(#paint6_linear_1023_12901)"/>
<g style="mix-blend-mode:multiply" opacity="0.2">
<path style="mix-blend-mode:multiply" opacity="0.2" d="M43.812 60.6101C43.812 60.6101 45.3427 55.266 48.3841 51.933C51.4255 48.5999 58.3619 49.1734 59.6026 48.332C60.8433 47.4905 64.297 43.0945 64.297 43.0945L66.4998 43.4784L64.3539 44.4345C62.6941 45.7558 61.1608 47.2286 59.7738 48.8339C56.33 52.4963 52.6948 50.8504 50.0851 52.3838C47.4753 53.9173 43.9898 61.5172 43.9898 61.5172L43.812 60.6101Z" fill="url(#paint7_linear_1023_12901)"/>
<path style="mix-blend-mode:multiply" opacity="0.2" d="M43.6174 40.2388C44.7286 37.4076 46.7678 35.0374 49.4014 33.5161C53.9397 30.789 65.354 28.5386 65.354 28.5386L67.1621 29.1034L65.4404 27.9907C65.4404 27.9907 57.642 29.8364 52.3763 31.32C47.1106 32.8035 43.8883 38.2159 43.8883 38.2159L43.6174 40.2388Z" fill="url(#paint8_linear_1023_12901)"/>
<path style="mix-blend-mode:multiply" opacity="0.2" d="M67.3403 64.3344C67.3403 64.3344 78.1796 55.5649 87.3907 56.3442C96.6018 57.1236 95.8912 69.4563 95.8912 69.4563L95.9004 70.2886C95.9004 70.2886 95.1444 56.1613 86.2162 56.7796C77.2881 57.3978 67.3315 64.9321 67.3315 64.9321L67.3403 64.3344Z" fill="url(#paint9_linear_1023_12901)"/>
<path style="mix-blend-mode:multiply" opacity="0.2" d="M67.3291 66.3524C67.3291 66.3524 75.846 61.7131 83.8034 62.1059C91.7609 62.4988 95.6403 71.9636 95.6403 71.9636L95.5673 72.591C95.5673 72.591 90.5291 62.5338 82.9766 62.6564C75.4241 62.779 67.3355 67.2796 67.3355 67.2796L67.3291 66.3524Z" fill="url(#paint10_linear_1023_12901)"/>
<path style="mix-blend-mode:multiply" opacity="0.2" d="M97.4559 34.2249C97.4559 34.2249 106.496 35.3375 110.701 37.8045L110.828 38.4032C110.828 38.4032 107.545 35.8791 97.6209 35.0525L96.3792 35.6124L97.4559 34.2249Z" fill="url(#paint11_linear_1023_12901)"/>
<path style="mix-blend-mode:multiply" opacity="0.2" d="M97.356 61.6264L99.138 60.0486C99.138 60.0486 104.225 60.4767 111.253 64.7705L99.145 60.8398L97.356 61.6264Z" fill="url(#paint12_linear_1023_12901)"/>
<path style="mix-blend-mode:multiply" opacity="0.2" d="M33.8455 68.8778C35.6602 68.2684 37.5417 67.88 39.4493 67.7209C40.8767 67.7471 42.2712 68.1547 43.488 68.9016L45.284 71.203L43.5625 69.4638C43.5625 69.4638 39.8366 66.7489 34.0024 69.4363L33.8455 68.8778Z" fill="url(#paint13_linear_1023_12901)"/>
<path style="mix-blend-mode:multiply" opacity="0.2" d="M32.7551 64.5069C32.7551 64.5069 34.1074 59.9261 42.1163 61.1178L43.8015 62.7008L43.7964 63.3809L42.2194 61.9847C42.2194 61.9847 35.6403 59.0494 32.8459 65.0539L32.7551 64.5069Z" fill="url(#paint14_linear_1023_12901)"/>
<path style="mix-blend-mode:multiply" opacity="0.2" d="M68.5889 12.8191C68.5889 12.8191 86.5066 18.8612 93.6731 26.4748L94.2316 28.5832C94.2316 28.5832 80.4765 15.4586 68.5961 14.1323L68.5889 12.8191Z" fill="url(#paint15_linear_1023_12901)"/>
<path style="mix-blend-mode:multiply" opacity="0.2" d="M68.04 91.1308C68.04 91.1308 72.3298 86.8078 74.2589 86.6266C76.1881 86.4453 76.8923 88.4475 77.9639 88.8885C79.0355 89.3295 81.412 89.2125 85.7893 88.9451C90.1667 88.6776 91.6005 91.2336 91.6005 91.2336L68.04 91.1308Z" fill="url(#paint16_linear_1023_12901)"/>
</g>
<path style="mix-blend-mode:screen" opacity="0.5" d="M65.4855 76.0184C64.2413 66.4078 63.4809 56.7407 63.2073 47.0538C62.7346 30.806 66.3167 21.2981 66.3167 21.2981C66.3167 21.2981 62.6633 44.5757 65.4855 76.0184Z" fill="url(#paint17_linear_1023_12901)"/>
<path style="mix-blend-mode:screen" opacity="0.5" d="M68.5918 12.4111L69.8035 12.4135L68.0399 91.1308C68.0399 91.1308 66.4374 38.2879 68.5918 12.4111Z" fill="url(#paint18_linear_1023_12901)"/>
<path style="mix-blend-mode:screen" opacity="0.5" d="M94.98 24.8096C94.98 24.8096 99.0289 38.3261 99.3969 51.0874C99.7649 63.8487 96.2341 81.9952 96.2341 81.9952C96.2341 81.9952 100.569 65.4868 100.784 51.5697C100.999 37.6526 94.98 24.8096 94.98 24.8096Z" fill="url(#paint19_linear_1023_12901)"/>
<path style="mix-blend-mode:multiply" opacity="0.6" d="M33.8455 68.878C33.8455 68.878 36.2753 74.5493 37.5039 75.2355C38.7325 75.9218 45.262 76.043 45.262 76.043L46.4251 75.3606C46.4251 75.3606 46.241 75.7915 54.2252 76.5522C62.2093 77.3129 65.5316 75.9626 65.5316 75.9626L67.1203 74.2966L68.5944 76.5691C68.5944 76.5691 79.5786 77.2036 86.5963 75.4352C93.614 73.6669 95.7152 71.8995 95.7152 71.8995L96.7603 68.9766L97.9261 71.8218C97.9261 71.8218 101.815 69.4038 105.974 59.6605C111.352 47.0882 101.307 23.1751 101.307 23.1751L94.1471 21.9588L93.0145 23.0915L92.2458 21.9543C92.2458 21.9543 76.5848 20.8315 69.6599 22.8748L67.9735 24.4239L66.1359 23.1684C66.1359 23.1684 56.2133 21.8611 48.1137 24.9661L45.9799 26.8685L46.1447 24.2824L38.8502 23.4195L39.3572 22.5682C39.3572 22.5682 47.1124 20.9965 71.2203 19.9645C95.3282 18.9325 105.43 22.1279 105.43 22.1279C105.43 22.1279 125.006 56.8086 99.1481 91.1646L45.3051 91.0311C45.3051 91.0311 38.2181 83.8217 33.8455 68.878Z" fill="url(#paint20_linear_1023_12901)"/>
<path fill-rule="evenodd" clip-rule="evenodd" d="M36.5425 76.5569L35.7769 77.4857L38.2329 82.1992L65.9428 82.249L105.834 82.9921L108.6 77.3822L107.413 76.694C107.413 76.694 92.6188 78.2554 71.0725 78.1859C51.1344 78.1879 36.5425 76.5569 36.5425 76.5569Z" fill="url(#paint21_linear_1023_12901)"/>
<path fill-rule="evenodd" clip-rule="evenodd" d="M39.2728 22.6353L38.4709 20.6207C39.2716 19.3736 40.2504 18.2504 41.3763 17.2866L104.172 17.4418C105.347 18.5734 106.066 20.0956 106.196 21.7211L105.346 22.1949C105.346 22.1949 69.5177 18.4285 39.2728 22.6353Z" fill="url(#paint22_linear_1023_12901)"/>
<path fill-rule="evenodd" clip-rule="evenodd" d="M38.4795 20.6493C38.4795 20.6493 65.9032 20.2316 67.4597 20.235C69.0162 20.2385 88.2284 19.8694 88.2284 19.8694L105.999 20.5064L104.172 17.4416L41.3572 17.2922C41.3572 17.2922 38.1953 19.9097 38.4795 20.6493Z" fill="url(#paint23_linear_1023_12901)"/>
<path fill-rule="evenodd" clip-rule="evenodd" d="M35.7866 77.4828C35.7866 77.4828 45.599 78.8754 51.0633 79.1696C56.5276 79.4638 91.6547 79.8804 91.6547 79.8804L108.666 77.4253L107.478 76.7371C107.478 76.7371 94.8604 78.0014 71.1378 78.229C47.4152 78.4565 36.5427 76.5569 36.5427 76.5569L35.7866 77.4828Z" fill="url(#paint24_linear_1023_12901)"/>
<path fill-rule="evenodd" clip-rule="evenodd" d="M84.7867 73.0543C83.7047 72.2301 83.4486 68.0999 85.9909 67.4218C88.3263 66.7847 89.9093 67.7824 90.0061 70.0918C90.1029 72.4011 87.7982 75.336 84.7867 73.0543Z" fill="url(#paint25_linear_1023_12901)"/>
<path style="mix-blend-mode:multiply" opacity="0.6" d="M84.3972 72.5554C85.3857 74.006 86.565 75.317 87.9032 76.4532C88.8453 77.0344 89.8698 77.47 90.9419 77.7454L92.5741 77.7576L96.5973 79.2351L100.753 78.752L99.0381 77.4181L95.5857 77.252L94.8151 73.4951L88.525 71.0369L84.3972 72.5554Z" fill="url(#paint26_linear_1023_12901)"/>
<path fill-rule="evenodd" clip-rule="evenodd" d="M85.51 67.8374C87.8397 67.2153 90.2197 66.7992 92.6223 66.594L92.663 75.4759C90.1469 75.2375 87.707 74.4831 85.4955 73.2597C85.4955 73.2597 84.6441 72.9614 84.4723 71.2382C84.446 70.0229 84.8097 68.8311 85.51 67.8374Z" fill="url(#paint27_linear_1023_12901)"/>
<path fill-rule="evenodd" clip-rule="evenodd" d="M95.0167 74.8648C94.3163 75.6279 90.9168 76.0931 89.684 73.79C89.359 73.1008 89.2377 72.3331 89.3343 71.5773L90.4917 70.5624L89.649 70.0842C90.2081 68.2568 91.4165 66.6108 92.6224 66.594C96.4969 66.5294 96.6802 73.0302 95.0167 74.8648Z" fill="url(#paint28_linear_1023_12901)"/>
<path style="mix-blend-mode:multiply" opacity="0.6" fill-rule="evenodd" clip-rule="evenodd" d="M89.6489 70.084L85.259 70.5536L89.4782 70.8033L90.4916 70.5623L89.6489 70.084Z" fill="url(#paint29_linear_1023_12901)"/>
<path fill-rule="evenodd" clip-rule="evenodd" d="M47.2765 17.2937C47.2765 17.2937 48.2831 17.4828 48.4708 17.5518C48.4174 18.4471 48.2704 19.3344 48.0321 20.1991L46.4094 20.4973L55.7626 20.3572C54.6608 20.3706 53.5596 20.2956 52.4697 20.1327C52.4717 19.9651 53.0252 17.701 53.0252 17.701L55.7705 17.317L47.2765 17.2937Z" fill="#F1E3D8"/>
<path fill-rule="evenodd" clip-rule="evenodd" d="M44.9734 78.6349C44.9734 78.6349 49.9817 79.1493 51.3562 79.2073C52.7306 79.2653 62.3989 79.4797 62.3989 79.4797L62.747 78.2375C62.747 78.2375 52.8384 77.9177 44.9797 77.2969L44.9734 78.6349Z" fill="#F1E3D8"/>
<path style="mix-blend-mode:screen" opacity="0.5" fill-rule="evenodd" clip-rule="evenodd" d="M32.2017 61.5098C32.2017 61.5098 29.3765 47.898 33.0959 37.5242C36.8152 27.1505 38.7658 23.4866 38.7658 23.4866L46.0603 24.3495C46.0603 24.3495 39.3968 36.6388 42.2529 62.027L32.2017 61.5098Z" fill="url(#paint30_linear_1023_12901)"/>
<path fill-rule="evenodd" clip-rule="evenodd" d="M66.2498 51.0068L65.7894 45.2884L65.125 41.7815L66.2826 35.2965L66.8886 33.6953L66.2498 51.0068Z" fill="url(#paint31_linear_1023_12901)"/>
<path fill-rule="evenodd" clip-rule="evenodd" d="M97.7271 53.7695L99.1951 59.0189L97.8261 66.6111L96.7466 67.2582L97.7271 53.7695Z" fill="url(#paint32_linear_1023_12901)"/>
<path fill-rule="evenodd" clip-rule="evenodd" d="M97.7271 53.7695L99.4101 53.7768L100.807 60.008L99.3631 67.8732L96.7466 67.2582L97.8261 66.6111L99.1951 59.0189L97.7271 53.7695Z" fill="#9B2A36"/>
<path fill-rule="evenodd" clip-rule="evenodd" d="M66.8886 33.6953L65.1442 34.1448L63.9497 39.4612L63.4563 42.3441L64.7057 46.3751L65.1426 51.0045L66.2498 51.0068L65.9928 44.4341L65.1281 41.2691L66.8886 33.6953Z" fill="#9B2A36"/>
<path fill-rule="evenodd" clip-rule="evenodd" d="M3.3147 51.6229L5.55296 54.5643C5.55296 54.5643 9.39035 53.7488 18.4881 47.8079C21.1323 46.0543 23.5965 44.0433 25.8445 41.8042L23.7045 37.5181L3.3147 51.6229Z" fill="url(#paint33_linear_1023_12901)"/>
<path fill-rule="evenodd" clip-rule="evenodd" d="M3.35122 51.4658C2.68322 52.5115 10.3059 49.3823 18.0972 43.4362C22.0781 40.4167 23.9018 37.793 23.7142 37.5152C23.2643 36.8148 7.38027 45.2271 3.35122 51.4658Z" fill="url(#paint34_linear_1023_12901)"/>
<path fill-rule="evenodd" clip-rule="evenodd" d="M5.93652 50.827C6.43675 50.688 6.95068 50.6041 7.46918 50.5767C8.02128 51.1852 8.47208 51.8784 8.80458 52.6298C8.89068 52.9172 7.42668 53.9195 7.42668 53.9195L10.8353 52.3346L14.0495 50.4843C14.0495 50.4843 13.0255 50.551 12.8599 50.277C12.6943 50.003 11.9317 47.9453 11.9317 47.9453L13.1093 46.8931C13.1093 46.8931 8.47808 49.6585 5.93652 50.827Z" fill="#FFA83B"/>
<path fill-rule="evenodd" clip-rule="evenodd" d="M6.5564 50.5265L12.4852 43.416C12.4852 43.416 17.0216 40.5433 18.7642 39.635L13.1093 46.8931C10.9993 48.2337 8.81108 49.447 6.5564 50.5265Z" fill="#FFDF36"/>
<path fill-rule="evenodd" clip-rule="evenodd" d="M21.3641 39.0441C21.3899 39.1303 21.1552 39.4616 20.6493 39.9681L20.4499 40.1739C18.4714 42.0348 16.3365 43.7221 14.0689 45.2173L12.3645 46.323L11.919 46.613C9.92815 47.942 7.83466 49.1103 5.65822 50.1067C5.53183 50.1597 5.40017 50.1991 5.26546 50.2244C5.21757 50.2387 5.18884 50.2473 5.15917 50.1832C4.98973 49.9312 6.25362 48.54 10.9464 45.1089C15.6391 41.6778 21.21 38.8084 21.3641 39.0441Z" fill="url(#paint35_linear_1023_12901)"/>
<path fill-rule="evenodd" clip-rule="evenodd" d="M20.6969 39.9536L20.4976 40.1594C18.519 42.0203 16.3842 43.7076 14.1166 45.2028L12.4122 46.3085L11.9667 46.5985C9.97591 47.9275 7.88241 49.0958 5.70599 50.0922C5.57959 50.1452 5.44794 50.1846 5.31323 50.2099C8.04781 47.9015 10.9484 45.7974 13.9916 43.9145C16.1583 42.4817 18.3963 41.1597 20.6969 39.9536Z" fill="url(#paint36_linear_1023_12901)"/>
<path fill-rule="evenodd" clip-rule="evenodd" d="M7.08911 50.2832C7.63441 49.8863 8.20011 49.5182 8.78391 49.1804C9.56281 48.7488 11.8812 47.6367 11.8812 47.6367C11.127 48.3301 10.2707 48.9035 9.34231 49.3368C8.60961 49.6942 7.85731 50.0102 7.08911 50.2832Z" fill="#FFFF54"/>
<path style="mix-blend-mode:screen" fill-rule="evenodd" clip-rule="evenodd" d="M24.1621 43.3312L22.269 39.4513C22.269 39.4513 22.6722 39.508 23.6508 37.8264L25.3396 42.279C25.3396 42.279 24.5942 42.9616 24.1621 43.3312Z" fill="url(#paint37_linear_1023_12901)"/>
<path fill-rule="evenodd" clip-rule="evenodd" d="M11.7566 47.7786C11.7566 47.7786 18.2724 43.2899 20.4963 41.3396C21.6327 40.4006 22.6376 39.3131 23.484 38.1062C22.3073 39.9515 20.8149 41.5753 19.0753 42.9032C16.7522 44.6968 14.3067 46.3259 11.7566 47.7786Z" fill="url(#paint38_linear_1023_12901)"/>
<path fill-rule="evenodd" clip-rule="evenodd" d="M0.905762 39.0867L3.1469 42.0377C3.1469 42.0377 6.97183 41.2154 16.0821 35.2813C18.7258 33.5246 21.189 31.5103 23.4357 29.268L21.2956 24.9819L0.905762 39.0867Z" fill="url(#paint39_linear_1023_12901)"/>
<path fill-rule="evenodd" clip-rule="evenodd" d="M0.932632 38.9328C0.255052 39.9813 7.88728 36.8493 15.6786 30.9032C19.6595 27.8837 21.4737 25.2628 21.2956 24.9821C20.839 24.2942 4.95213 32.6969 0.932632 38.9328Z" fill="url(#paint40_linear_1023_12901)"/>
<path fill-rule="evenodd" clip-rule="evenodd" d="M3.49902 38.2998C4.00032 38.1657 4.51373 38.0818 5.03165 38.0494C5.58265 38.6588 6.0334 39.3518 6.36704 40.1026C6.45313 40.3899 4.99206 41.4018 4.99206 41.4018L8.3977 39.8074L11.6023 37.96C11.6023 37.96 10.5784 38.0266 10.4224 37.7498C10.2664 37.4729 9.4846 35.4209 9.4846 35.4209L10.6622 34.3687C10.6622 34.3687 6.05016 37.1284 3.49902 38.2998Z" fill="#FFA83B"/>
<path fill-rule="evenodd" clip-rule="evenodd" d="M4.13794 37.9934L10.0571 30.8857C10.0571 30.8857 14.6031 28.0101 16.3362 27.1047L10.6813 34.3628C8.5747 35.7028 6.38969 36.9151 4.13794 37.9934Z" fill="#FFDF36"/>
<path fill-rule="evenodd" clip-rule="evenodd" d="M18.9456 26.5108C18.9685 26.5874 18.7338 26.9187 18.2278 27.4252L18.0285 27.6311C16.0487 29.4905 13.9139 31.1777 11.6475 32.6745C11.0822 33.0526 10.5045 33.424 9.89519 33.7945L9.44969 34.0845C7.45939 35.4144 5.36582 36.5827 3.18895 37.5782C3.06562 37.6299 2.93719 37.6683 2.80578 37.693C2.75788 37.7074 2.71956 37.7188 2.68989 37.6547C2.53003 37.3998 3.79393 36.0086 8.47709 32.5804C13.1603 29.1522 18.7914 26.2751 18.9456 26.5108Z" fill="url(#paint41_linear_1023_12901)"/>
<path fill-rule="evenodd" clip-rule="evenodd" d="M18.2306 27.4348L18.0313 27.6406C16.0515 29.5001 13.9167 31.1873 11.6503 32.684C11.085 33.0622 10.5044 33.424 9.89803 33.804L9.45253 34.0941C7.46223 35.424 5.36863 36.5923 3.19176 37.5878C3.06843 37.6394 2.94 37.6779 2.80859 37.7026C5.54216 35.3945 8.44393 33.2934 11.4898 31.4168C13.6657 29.9726 15.9157 28.6435 18.2306 27.4348Z" fill="url(#paint42_linear_1023_12901)"/>
<path fill-rule="evenodd" clip-rule="evenodd" d="M4.70898 37.7386C5.25427 37.3416 5.81999 36.9735 6.4038 36.6358C7.1827 36.2041 9.501 35.092 9.501 35.092C8.7468 35.7854 7.8905 36.3588 6.96214 36.7921C6.22942 37.1496 5.47718 37.4656 4.70898 37.7386Z" fill="#FFFF54"/>
<path style="mix-blend-mode:screen" fill-rule="evenodd" clip-rule="evenodd" d="M21.7338 30.8012L19.8503 26.9184C19.8503 26.9184 20.2535 26.9751 21.2225 25.2964L22.9209 29.7461C22.9209 29.7461 22.1755 30.4288 21.7338 30.8012Z" fill="url(#paint43_linear_1023_12901)"/>
<path fill-rule="evenodd" clip-rule="evenodd" d="M9.33789 35.2454C9.33789 35.2454 15.8538 30.7567 18.068 28.8093C19.2083 27.8704 20.2166 26.7818 21.0654 25.573C19.8882 27.4198 18.3971 29.0465 16.6594 30.3796C14.3368 32.1723 11.8902 33.7983 9.33789 35.2454Z" fill="url(#paint44_linear_1023_12901)"/>
<path fill-rule="evenodd" clip-rule="evenodd" d="M0.446777 34.8713L3.20246 37.3446C3.20246 37.3446 6.81502 35.8134 14.652 28.2773C16.9196 26.0588 18.9623 23.6216 20.7504 21.0011L17.8458 17.1946L0.446777 34.8713Z" fill="url(#paint45_linear_1023_12901)"/>
<path fill-rule="evenodd" clip-rule="evenodd" d="M0.451564 34.7132C-0.00863642 35.895 6.87318 31.3383 13.4304 24.0604C16.7746 20.3443 18.0784 17.4484 17.8457 17.1944C17.2636 16.5755 3.24146 27.8227 0.451564 34.7132Z" fill="url(#paint46_linear_1023_12901)"/>
<path fill-rule="evenodd" clip-rule="evenodd" d="M2.86182 33.5943C3.33229 33.3677 3.82426 33.1889 4.33037 33.0604C4.98393 33.5586 5.55685 34.1545 6.02891 34.8272C6.1629 35.1003 4.92204 36.3593 4.92204 36.3593L7.96966 34.1623L10.7742 31.7458C10.7742 31.7458 9.81626 32.0328 9.56826 31.7626C9.32026 31.4924 8.21276 29.6424 8.21276 29.6424L9.17496 28.3938C9.17496 28.3938 5.14494 31.9812 2.86182 33.5943Z" fill="#FFA83B"/>
<path fill-rule="evenodd" clip-rule="evenodd" d="M3.41846 33.1878L7.91567 25.0968C7.91567 25.0968 11.8346 21.4174 13.3714 20.2053L9.17487 28.3941C7.35467 30.1068 5.43232 31.7076 3.41846 33.1878Z" fill="#FFDF36"/>
<path fill-rule="evenodd" clip-rule="evenodd" d="M15.8067 19.0998C15.8297 19.1764 15.6792 19.5451 15.2748 20.1465L15.1128 20.3724C13.5219 22.5741 11.7427 24.6335 9.7955 26.5273L8.3285 27.9376L7.9376 28.3053C6.23137 29.9854 4.3918 31.5245 2.43695 32.9075C2.31236 32.9654 2.18008 33.005 2.04419 33.0251C1.99629 33.0395 1.96755 33.0481 1.94839 33.0538C1.73679 32.8354 2.71917 31.2362 6.65841 26.9974C10.5976 22.7586 15.6219 18.9359 15.8067 19.0998Z" fill="url(#paint47_linear_1023_12901)"/>
<path fill-rule="evenodd" clip-rule="evenodd" d="M15.286 20.1849L15.124 20.4109C13.5331 22.6126 11.754 24.672 9.8067 26.5658L8.3398 27.9761L7.9488 28.3438C6.2426 30.0239 4.40304 31.563 2.44818 32.946C2.32359 33.0038 2.19131 33.0435 2.05542 33.0636C6.02638 28.3319 10.4531 24.0022 15.2716 20.137L15.286 20.1849Z" fill="url(#paint48_linear_1023_12901)"/>
<path fill-rule="evenodd" clip-rule="evenodd" d="M3.94824 32.8307C4.40819 32.3355 4.89469 31.8657 5.40562 31.4233C6.09355 30.8623 8.15249 29.3372 8.15249 29.3372C7.54539 30.1571 6.81339 30.8766 5.98318 31.4695C5.33238 31.9631 4.65288 32.4176 3.94824 32.8307Z" fill="#FFFF54"/>
<path style="mix-blend-mode:screen" fill-rule="evenodd" clip-rule="evenodd" d="M19.3656 22.8253L16.7827 19.3608C16.7827 19.3608 17.1946 19.3418 17.836 17.5107L20.3344 21.5642L19.3656 22.8253Z" fill="url(#paint49_linear_1023_12901)"/>
<path fill-rule="evenodd" clip-rule="evenodd" d="M8.01758 29.5132C8.01758 29.5132 13.578 23.891 15.393 21.5517C16.3374 20.4175 17.1231 19.1601 17.7286 17.8142C16.9142 19.8482 15.7529 21.7255 14.2965 23.3625C12.3492 25.5563 10.2511 27.6116 8.01758 29.5132Z" fill="url(#paint50_linear_1023_12901)"/>
<path fill-rule="evenodd" clip-rule="evenodd" d="M106.916 0.373047L105.677 3.20775C105.677 3.20775 107.822 5.697 115.895 10.0639C118.255 11.304 120.732 12.3104 123.288 13.0686L125.607 9.764L106.916 0.373047Z" fill="url(#paint51_linear_1023_12901)"/>
<path fill-rule="evenodd" clip-rule="evenodd" d="M107.04 0.335477C105.973 0.258447 111.395 4.62629 118.925 8.01794C122.754 9.75214 125.428 10.0366 125.565 9.79724C125.891 9.17764 113.278 0.805277 107.04 0.335477Z" fill="url(#paint52_linear_1023_12901)"/>
<path fill-rule="evenodd" clip-rule="evenodd" d="M108.549 1.99219C108.853 2.30801 109.124 2.65337 109.359 3.02312C109.128 3.67576 108.798 4.28883 108.38 4.8407C108.191 5.01208 106.864 4.34493 106.864 4.34493L109.41 6.22327L112.071 7.85827C112.071 7.85827 111.612 7.12927 111.784 6.90037C111.955 6.67147 113.134 5.27448 113.134 5.27448L114.386 5.72419C114.386 5.72419 110.433 3.40091 108.549 1.99219Z" fill="#FFA83B"/>
<path fill-rule="evenodd" clip-rule="evenodd" d="M109.026 2.32959L116.664 3.85162C116.664 3.85162 120.624 6.058 121.997 6.9829L114.313 5.72518C112.484 4.70042 110.719 3.56651 109.026 2.32959Z" fill="#FFDF36"/>
<path fill-rule="evenodd" clip-rule="evenodd" d="M123.483 8.66744C123.435 8.68174 123.09 8.68074 122.507 8.51094L122.278 8.44384C120.104 7.72984 117.997 6.82774 115.98 5.748C115.472 5.48249 114.962 5.20741 114.473 4.93616L114.075 4.72144C112.278 3.78293 110.558 2.70292 108.932 1.49162C108.845 1.41549 108.767 1.33036 108.699 1.2377C108.679 1.20999 108.669 1.17619 108.67 1.14192C108.791 0.917832 110.323 1.29387 114.736 3.37499C119.149 5.45611 123.597 8.45584 123.483 8.66744Z" fill="url(#paint53_linear_1023_12901)"/>
<path fill-rule="evenodd" clip-rule="evenodd" d="M122.507 8.5108L122.278 8.4437C120.105 7.7296 117.997 6.8276 115.98 5.74785C115.472 5.48234 114.971 5.20439 114.473 4.93601L114.075 4.72129C112.278 3.78278 110.558 2.70277 108.932 1.49147C108.845 1.41534 108.767 1.33021 108.699 1.23755C111.509 2.33145 114.233 3.63332 116.85 5.13231C118.793 6.1594 120.681 7.2871 122.507 8.5108Z" fill="url(#paint54_linear_1023_12901)"/>
<path style="mix-blend-mode:screen" fill-rule="evenodd" clip-rule="evenodd" d="M121.405 12.4634L123.517 9.51318C123.517 9.51318 123.615 9.83888 125.275 9.87398L122.66 12.9227C122.66 12.9227 121.895 12.6715 121.405 12.4634Z" fill="url(#paint55_linear_1023_12901)"/>
<path fill-rule="evenodd" clip-rule="evenodd" d="M113.156 5.06982C113.156 5.06982 119.052 8.095 121.399 8.9579C122.552 9.424 123.763 9.7284 125 9.8625C123.159 9.7383 121.355 9.2932 119.668 8.5473C117.419 7.5413 115.243 6.3794 113.156 5.06982Z" fill="url(#paint56_linear_1023_12901)"/>
<path fill-rule="evenodd" clip-rule="evenodd" d="M118.973 74.4801L121.323 76.5422C121.323 76.5422 124.341 75.2206 130.872 68.7961C132.762 66.9043 134.458 64.8293 135.937 62.6018L133.45 59.4219L118.973 74.4801Z" fill="url(#paint57_linear_1023_12901)"/>
<path fill-rule="evenodd" clip-rule="evenodd" d="M118.967 74.3565C118.589 75.3256 124.356 71.4372 129.807 65.2421C132.59 62.0909 133.646 59.624 133.45 59.4218C132.966 58.9197 121.25 68.5261 118.967 74.3565Z" fill="url(#paint58_linear_1023_12901)"/>
<path fill-rule="evenodd" clip-rule="evenodd" d="M120.996 73.3936C121.388 73.1957 121.8 73.0408 122.225 72.9315C122.797 73.3298 123.298 73.8223 123.705 74.3879C123.825 74.613 122.795 75.7046 122.795 75.7046L125.362 73.8187L127.699 71.7612C127.699 71.7612 126.885 72.0051 126.661 71.7799C126.437 71.5547 125.503 70.0391 125.503 70.0391L126.301 68.9753C126.301 68.9753 122.899 72.0093 120.996 73.3936Z" fill="#FFA83B"/>
<path fill-rule="evenodd" clip-rule="evenodd" d="M121.457 73.0156L125.151 66.1466C125.151 66.1466 128.392 63.0253 129.705 61.9741L126.252 68.917C124.735 70.3758 123.134 71.7443 121.457 73.0156Z" fill="#FFDF36"/>
<path fill-rule="evenodd" clip-rule="evenodd" d="M131.767 61.0851C131.784 61.1426 131.66 61.4615 131.331 61.9671L131.202 62.1625C129.88 64.0297 128.4 65.7795 126.777 67.3924L125.55 68.595L125.227 68.911C123.805 70.3441 122.268 71.6597 120.633 72.8449C120.529 72.8908 120.42 72.9236 120.308 72.9425C120.283 72.9611 120.252 72.9703 120.221 72.9683C120.053 72.7891 120.857 71.4313 124.138 67.8177C127.419 64.2041 131.598 60.9059 131.767 61.0851Z" fill="url(#paint59_linear_1023_12901)"/>
<path fill-rule="evenodd" clip-rule="evenodd" d="M131.331 61.9668L131.202 62.1622C129.88 64.0294 128.399 65.7792 126.777 67.3921L125.55 68.5947L125.227 68.9107C123.805 70.3438 122.268 71.6594 120.633 72.8446C120.529 72.8905 120.42 72.9233 120.307 72.9422C122.181 70.5774 124.226 68.353 126.425 66.2867C127.984 64.7627 129.622 63.3208 131.331 61.9668Z" fill="url(#paint60_linear_1023_12901)"/>
<path fill-rule="evenodd" clip-rule="evenodd" d="M121.896 72.7379C122.276 72.3173 122.679 71.9177 123.103 71.5411C123.678 71.0557 125.404 69.7451 125.404 69.7451C124.899 70.4447 124.288 71.0611 123.592 71.5719C123.049 71.9913 122.482 72.3805 121.896 72.7379Z" fill="#FFFF54"/>
<path style="mix-blend-mode:screen" fill-rule="evenodd" clip-rule="evenodd" d="M134.792 64.1454L132.581 61.2586C132.581 61.2586 132.929 61.2377 133.448 59.6938L135.591 63.0815C135.591 63.0815 135.088 63.7748 134.792 64.1454Z" fill="url(#paint61_linear_1023_12901)"/>
<path fill-rule="evenodd" clip-rule="evenodd" d="M125.302 69.8905C125.302 69.8905 129.932 65.1003 131.436 63.1153C132.225 62.152 132.874 61.0824 133.365 59.938C132.705 61.6612 131.748 63.2553 130.537 64.6475C128.919 66.517 127.169 68.2691 125.302 69.8905Z" fill="url(#paint62_linear_1023_12901)"/>
</g>
<defs>
<radialGradient id="paint0_radial_1023_12901" cx="0" cy="0" r="1" gradientUnits="userSpaceOnUse" gradientTransform="translate(52.7931 36.4741) rotate(0.131248) scale(44.3559)">
<stop stop-color="#E16419"/>
<stop offset="1" stop-color="#CF463E"/>
</radialGradient>
<linearGradient id="paint1_linear_1023_12901" x1="48.3432" y1="92.092" x2="48.5232" y2="13.5293" gradientUnits="userSpaceOnUse">
<stop offset="0.01" stop-color="#AE429A"/>
<stop offset="1" stop-color="#E08368"/>
</linearGradient>
<linearGradient id="paint2_linear_1023_12901" x1="49.5365" y1="92.0948" x2="49.7165" y2="13.532" gradientUnits="userSpaceOnUse">
<stop stop-color="#842744"/>
<stop offset="1" stop-color="#7D2A36"/>
</linearGradient>
<linearGradient id="paint3_linear_1023_12901" x1="67.5779" y1="92.1359" x2="67.7588" y2="13.1619" gradientUnits="userSpaceOnUse">
<stop offset="0.01" stop-color="#AE429A"/>
<stop offset="1" stop-color="#E08368"/>
</linearGradient>
<linearGradient id="paint4_linear_1023_12901" x1="95.457" y1="92.2001" x2="95.6388" y2="12.815" gradientUnits="userSpaceOnUse">
<stop offset="0.01" stop-color="#AE429A"/>
<stop offset="1" stop-color="#E08368"/>
</linearGradient>
<linearGradient id="paint5_linear_1023_12901" x1="94.5545" y1="92.1979" x2="94.7363" y2="12.8128" gradientUnits="userSpaceOnUse">
<stop stop-color="#842744"/>
<stop offset="1" stop-color="#7D2A36"/>
</linearGradient>
<linearGradient id="paint6_linear_1023_12901" x1="68.5705" y1="92.1383" x2="68.7514" y2="13.1644" gradientUnits="userSpaceOnUse">
<stop stop-color="#842744"/>
<stop offset="1" stop-color="#7D2A36"/>
</linearGradient>
<linearGradient id="paint7_linear_1023_12901" x1="56.374" y1="62.4261" x2="56.4163" y2="43.9237" gradientUnits="userSpaceOnUse">
<stop offset="0.01" stop-color="#AE429A"/>
<stop offset="1" stop-color="#E08368"/>
</linearGradient>
<linearGradient id="paint8_linear_1023_12901" x1="56.6332" y1="41.1059" x2="56.6614" y2="28.781" gradientUnits="userSpaceOnUse">
<stop offset="0.01" stop-color="#AE429A"/>
<stop offset="1" stop-color="#E08368"/>
</linearGradient>
<linearGradient id="paint9_linear_1023_12901" x1="82.9492" y1="71.1917" x2="82.9813" y2="57.1619" gradientUnits="userSpaceOnUse">
<stop offset="0.01" stop-color="#AE429A"/>
<stop offset="1" stop-color="#E08368"/>
</linearGradient>
<linearGradient id="paint10_linear_1023_12901" x1="82.8137" y1="73.4777" x2="82.8378" y2="62.9679" gradientUnits="userSpaceOnUse">
<stop offset="0.01" stop-color="#AE429A"/>
<stop offset="1" stop-color="#E08368"/>
</linearGradient>
<linearGradient id="paint11_linear_1023_12901" x1="104.995" y1="39.2109" x2="105.004" y2="35.0491" gradientUnits="userSpaceOnUse">
<stop offset="0.01" stop-color="#AE429A"/>
<stop offset="1" stop-color="#E08368"/>
</linearGradient>
<linearGradient id="paint12_linear_1023_12901" x1="105.697" y1="65.5875" x2="105.707" y2="60.9043" gradientUnits="userSpaceOnUse">
<stop offset="0.01" stop-color="#AE429A"/>
<stop offset="1" stop-color="#E08368"/>
</linearGradient>
<linearGradient id="paint13_linear_1023_12901" x1="40.7675" y1="72.1277" x2="40.7755" y2="68.6478" gradientUnits="userSpaceOnUse">
<stop offset="0.01" stop-color="#AE429A"/>
<stop offset="1" stop-color="#E08368"/>
</linearGradient>
<linearGradient id="paint14_linear_1023_12901" x1="39.4978" y1="65.9774" x2="39.5073" y2="61.8156" gradientUnits="userSpaceOnUse">
<stop offset="0.01" stop-color="#AE429A"/>
<stop offset="1" stop-color="#E08368"/>
</linearGradient>
<linearGradient id="paint15_linear_1023_12901" x1="82.7243" y1="29.3523" x2="82.7603" y2="13.6076" gradientUnits="userSpaceOnUse">
<stop offset="0.01" stop-color="#AE429A"/>
<stop offset="1" stop-color="#E08368"/>
</linearGradient>
<linearGradient id="paint16_linear_1023_12901" x1="81.1663" y1="92.1671" x2="81.1767" y2="87.6242" gradientUnits="userSpaceOnUse">
<stop offset="0.01" stop-color="#AE429A"/>
<stop offset="1" stop-color="#E08368"/>
</linearGradient>
<linearGradient id="paint17_linear_1023_12901" x1="65.9279" y1="76.9593" x2="66.0536" y2="22.0837" gradientUnits="userSpaceOnUse">
<stop/>
<stop offset="1" stop-color="#D7883D"/>
</linearGradient>
<linearGradient id="paint18_linear_1023_12901" x1="69.784" y1="92.1411" x2="69.9649" y2="13.1672" gradientUnits="userSpaceOnUse">
<stop/>
<stop offset="1" stop-color="#D7883D"/>
</linearGradient>
<linearGradient id="paint19_linear_1023_12901" x1="99.1789" y1="82.932" x2="99.3099" y2="25.5995" gradientUnits="userSpaceOnUse">
<stop/>
<stop offset="1" stop-color="#D7883D"/>
</linearGradient>
<linearGradient id="paint20_linear_1023_12901" x1="74.3772" y1="92.1516" x2="74.5411" y2="20.5887" gradientUnits="userSpaceOnUse">
<stop offset="0.01" stop-color="#B66054"/>
<stop offset="1" stop-color="#BF777C"/>
</linearGradient>
<linearGradient id="paint21_linear_1023_12901" x1="36.9971" y1="80.6535" x2="110.044" y2="80.8208" gradientUnits="userSpaceOnUse">
<stop stop-color="#907C7E"/>
<stop offset="1" stop-color="#E5CCAE"/>
</linearGradient>
<linearGradient id="paint22_linear_1023_12901" x1="73.6317" y1="23.5049" x2="73.644" y2="18.1297" gradientUnits="userSpaceOnUse">
<stop stop-color="#7D6668"/>
<stop offset="1" stop-color="#E5CCAE"/>
</linearGradient>
<linearGradient id="paint23_linear_1023_12901" x1="39.6639" y1="19.7265" x2="107.396" y2="19.8816" gradientUnits="userSpaceOnUse">
<stop stop-color="#E5CCAE"/>
<stop offset="1" stop-color="#AA9B9D"/>
</linearGradient>
<linearGradient id="paint24_linear_1023_12901" x1="37.0009" y1="79.079" x2="110.048" y2="79.2463" gradientUnits="userSpaceOnUse">
<stop stop-color="#AA9B9D"/>
<stop offset="1" stop-color="#E5CCAE"/>
</linearGradient>
<linearGradient id="paint25_linear_1023_12901" x1="85.3454" y1="71.4678" x2="91.3725" y2="71.4816" gradientUnits="userSpaceOnUse">
<stop stop-color="#842744"/>
<stop offset="1" stop-color="#A83E36"/>
</linearGradient>
<linearGradient id="paint26_linear_1023_12901" x1="93.9401" y1="80.1724" x2="93.9589" y2="71.9591" gradientUnits="userSpaceOnUse">
<stop offset="0.01" stop-color="#B66054"/>
<stop offset="1" stop-color="#BF777C"/>
</linearGradient>
<linearGradient id="paint27_linear_1023_12901" x1="89.9071" y1="76.4024" x2="89.9276" y2="67.4871" gradientUnits="userSpaceOnUse">
<stop stop-color="#CF4E50"/>
<stop offset="1" stop-color="#ED6319"/>
</linearGradient>
<linearGradient id="paint28_linear_1023_12901" x1="94.029" y1="76.4118" x2="94.0494" y2="67.4965" gradientUnits="userSpaceOnUse">
<stop stop-color="#FB6B42"/>
<stop offset="1" stop-color="#FF9C36"/>
</linearGradient>
<linearGradient id="paint29_linear_1023_12901" x1="89.236" y1="71.7274" x2="89.2377" y2="70.9954" gradientUnits="userSpaceOnUse">
<stop offset="0.01" stop-color="#B66054"/>
<stop offset="1" stop-color="#BF777C"/>
</linearGradient>
<linearGradient id="paint30_linear_1023_12901" x1="39.7656" y1="62.8794" x2="39.854" y2="24.29" gradientUnits="userSpaceOnUse">
<stop/>
<stop offset="1" stop-color="#D7883D"/>
</linearGradient>
<linearGradient id="paint31_linear_1023_12901" x1="67.259" y1="51.8709" x2="67.2987" y2="34.5217" gradientUnits="userSpaceOnUse">
<stop stop-color="#842744"/>
<stop offset="1" stop-color="#7D2A36"/>
</linearGradient>
<linearGradient id="paint32_linear_1023_12901" x1="99.3431" y1="68.1704" x2="99.3741" y2="54.642" gradientUnits="userSpaceOnUse">
<stop stop-color="#842744"/>
<stop offset="1" stop-color="#7D2A36"/>
</linearGradient>
<linearGradient id="paint33_linear_1023_12901" x1="4.54194" y1="53.4373" x2="25.3095" y2="39.9004" gradientUnits="userSpaceOnUse">
<stop stop-color="#FF921B"/>
<stop offset="1" stop-color="#EB5D4E"/>
</linearGradient>
<linearGradient id="paint34_linear_1023_12901" x1="17.4158" y1="47.1467" x2="9.72527" y2="41.9775" gradientUnits="userSpaceOnUse">
<stop stop-color="#FB6B42"/>
<stop offset="0.56" stop-color="#FFDF36"/>
<stop offset="0.97" stop-color="#FFA036"/>
</linearGradient>
<linearGradient id="paint35_linear_1023_12901" x1="5.03308" y1="49.9422" x2="21.5031" y2="39.2065" gradientUnits="userSpaceOnUse">
<stop stop-color="#EB5D4E"/>
<stop offset="1" stop-color="#FF921B"/>
</linearGradient>
<linearGradient id="paint36_linear_1023_12901" x1="5.29363" y1="50.2137" x2="20.7835" y2="40.117" gradientUnits="userSpaceOnUse">
<stop stop-color="#FFB525"/>
<stop offset="0.97" stop-color="#FFA036"/>
</linearGradient>
<linearGradient id="paint37_linear_1023_12901" x1="25.2539" y1="42.5985" x2="22.5837" y2="38.5019" gradientUnits="userSpaceOnUse">
<stop stop-color="#D74600"/>
<stop offset="1"/>
</linearGradient>
<linearGradient id="paint38_linear_1023_12901" x1="11.3449" y1="47.0812" x2="23.9948" y2="38.8356" gradientUnits="userSpaceOnUse">
<stop stop-color="#FFB525"/>
<stop offset="0.97" stop-color="#FFA036"/>
</linearGradient>
<linearGradient id="paint39_linear_1023_12901" x1="2.11702" y1="40.9084" x2="22.8847" y2="27.3715" gradientUnits="userSpaceOnUse">
<stop stop-color="#FF921B"/>
<stop offset="1" stop-color="#EB5D4E"/>
</linearGradient>
<linearGradient id="paint40_linear_1023_12901" x1="14.9992" y1="34.6126" x2="7.30028" y2="29.4489" gradientUnits="userSpaceOnUse">
<stop stop-color="#FB6B42"/>
<stop offset="0.56" stop-color="#FFDF36"/>
<stop offset="0.97" stop-color="#FFA036"/>
</linearGradient>
<linearGradient id="paint41_linear_1023_12901" x1="2.60816" y1="37.4133" x2="19.0782" y2="26.6777" gradientUnits="userSpaceOnUse">
<stop stop-color="#EB5D4E"/>
<stop offset="1" stop-color="#FF921B"/>
</linearGradient>
<linearGradient id="paint42_linear_1023_12901" x1="2.8688" y1="37.685" x2="18.3586" y2="27.5883" gradientUnits="userSpaceOnUse">
<stop stop-color="#FFB525"/>
<stop offset="0.97" stop-color="#FFA036"/>
</linearGradient>
<linearGradient id="paint43_linear_1023_12901" x1="22.8288" y1="30.0701" x2="20.1586" y2="25.9735" gradientUnits="userSpaceOnUse">
<stop stop-color="#D74600"/>
<stop offset="1"/>
</linearGradient>
<linearGradient id="paint44_linear_1023_12901" x1="8.91979" y1="34.5524" x2="21.5781" y2="26.3014" gradientUnits="userSpaceOnUse">
<stop stop-color="#FFB525"/>
<stop offset="0.97" stop-color="#FFA036"/>
</linearGradient>
<linearGradient id="paint45_linear_1023_12901" x1="1.9899" y1="36.4729" x2="19.8562" y2="19.2874" gradientUnits="userSpaceOnUse">
<stop stop-color="#FF921B"/>
<stop offset="1" stop-color="#EB5D4E"/>
</linearGradient>
<linearGradient id="paint46_linear_1023_12901" x1="13.4584" y1="27.8833" x2="4.93602" y2="24.2453" gradientUnits="userSpaceOnUse">
<stop stop-color="#FB6B42"/>
<stop offset="0.56" stop-color="#FFDF36"/>
<stop offset="0.97" stop-color="#FFA036"/>
</linearGradient>
<linearGradient id="paint47_linear_1023_12901" x1="1.8179" y1="32.9474" x2="15.9869" y2="19.3182" gradientUnits="userSpaceOnUse">
<stop stop-color="#EB5D4E"/>
<stop offset="1" stop-color="#FF921B"/>
</linearGradient>
<linearGradient id="paint48_linear_1023_12901" x1="2.12461" y1="33.1657" x2="15.4504" y2="20.3476" gradientUnits="userSpaceOnUse">
<stop stop-color="#FFB525"/>
<stop offset="0.97" stop-color="#FFA036"/>
</linearGradient>
<linearGradient id="paint49_linear_1023_12901" x1="20.3066" y1="21.9483" x2="16.9166" y2="18.4241" gradientUnits="userSpaceOnUse">
<stop stop-color="#D74600"/>
<stop offset="1"/>
</linearGradient>
<linearGradient id="paint50_linear_1023_12901" x1="7.48258" y1="28.9555" x2="18.3652" y2="18.4875" gradientUnits="userSpaceOnUse">
<stop stop-color="#FFB525"/>
<stop offset="0.97" stop-color="#FFA036"/>
</linearGradient>
<linearGradient id="paint51_linear_1023_12901" x1="106.056" y1="1.93898" x2="124.43" y2="11.858" gradientUnits="userSpaceOnUse">
<stop stop-color="#FF921B"/>
<stop offset="1" stop-color="#EB5D4E"/>
</linearGradient>
<linearGradient id="paint52_linear_1023_12901" x1="115.895" y1="8.93214" x2="116.627" y2="1.15635" gradientUnits="userSpaceOnUse">
<stop stop-color="#FB6B42"/>
<stop offset="0.56" stop-color="#FFDF36"/>
<stop offset="0.97" stop-color="#FFA036"/>
</linearGradient>
<linearGradient id="paint53_linear_1023_12901" x1="108.836" y1="0.894242" x2="123.417" y2="8.76584" gradientUnits="userSpaceOnUse">
<stop stop-color="#EB5D4E"/>
<stop offset="1" stop-color="#FF921B"/>
</linearGradient>
<linearGradient id="paint54_linear_1023_12901" x1="108.742" y1="1.19537" x2="122.452" y2="8.5966" gradientUnits="userSpaceOnUse">
<stop stop-color="#FFB525"/>
<stop offset="0.97" stop-color="#FFA036"/>
</linearGradient>
<linearGradient id="paint55_linear_1023_12901" x1="122.41" y1="12.9042" x2="124.368" y2="9.27879" gradientUnits="userSpaceOnUse">
<stop stop-color="#D74600"/>
<stop offset="1"/>
</linearGradient>
<linearGradient id="paint56_linear_1023_12901" x1="113.495" y1="4.40971" x2="124.697" y2="10.4571" gradientUnits="userSpaceOnUse">
<stop stop-color="#FFB525"/>
<stop offset="0.97" stop-color="#FFA036"/>
</linearGradient>
<linearGradient id="paint57_linear_1023_12901" x1="120.292" y1="75.7939" x2="135.177" y2="61.1369" gradientUnits="userSpaceOnUse">
<stop stop-color="#FF921B"/>
<stop offset="1" stop-color="#EB5D4E"/>
</linearGradient>
<linearGradient id="paint58_linear_1023_12901" x1="129.873" y1="68.4359" x2="122.655" y2="65.4527" gradientUnits="userSpaceOnUse">
<stop stop-color="#FB6B42"/>
<stop offset="0.56" stop-color="#FFDF36"/>
<stop offset="0.97" stop-color="#FFA036"/>
</linearGradient>
<linearGradient id="paint59_linear_1023_12901" x1="120.116" y1="72.8228" x2="131.923" y2="61.1969" gradientUnits="userSpaceOnUse">
<stop stop-color="#EB5D4E"/>
<stop offset="1" stop-color="#FF921B"/>
</linearGradient>
<linearGradient id="paint60_linear_1023_12901" x1="120.377" y1="73.0013" x2="131.471" y2="62.077" gradientUnits="userSpaceOnUse">
<stop stop-color="#FFB525"/>
<stop offset="0.97" stop-color="#FFA036"/>
</linearGradient>
<linearGradient id="paint61_linear_1023_12901" x1="135.584" y1="63.3746" x2="132.693" y2="60.4389" gradientUnits="userSpaceOnUse">
<stop stop-color="#D74600"/>
<stop offset="1"/>
</linearGradient>
<linearGradient id="paint62_linear_1023_12901" x1="124.845" y1="69.4011" x2="133.916" y2="60.4695" gradientUnits="userSpaceOnUse">
<stop stop-color="#FFB525"/>
<stop offset="0.97" stop-color="#FFA036"/>
</linearGradient>
<clipPath id="clip0_1023_12901">
<rect width="136" height="91" fill="white"/>
</clipPath>
</defs>
</svg>
