<svg width="374" height="519" viewBox="0 0 374 519" fill="none" xmlns="http://www.w3.org/2000/svg">
<path d="M350 0H24C10.7452 0 0 10.7452 0 24V495C0 508.255 10.7452 519 24 519H350C363.255 519 374 508.255 374 495V24C374 10.7452 363.255 0 350 0Z" fill="url(#paint0_radial_301_36082)"/>
<mask id="mask0_301_36082" style="mask-type:alpha" maskUnits="userSpaceOnUse" x="0" y="0" width="374" height="519">
<path d="M350 0H24C10.7452 0 0 10.7452 0 24V495C0 508.255 10.7452 519 24 519H350C363.255 519 374 508.255 374 495V24C374 10.7452 363.255 0 350 0Z" fill="url(#paint1_radial_301_36082)"/>
</mask>
<g mask="url(#mask0_301_36082)">
<g style="mix-blend-mode:multiply">
<path d="M372.283 405.52C372.106 408.036 372.76 410.507 373.145 412.811C373.458 415.24 373.353 417.805 372.845 420.102C372.344 423.134 371.975 426.166 371.52 429.198C371.251 431.017 370.75 432.639 370.566 434.504C370.15 438.703 369.026 442.083 367.863 445.6C367.327 447.251 366.634 448.682 365.822 449.814C364.706 451.33 363.474 451.906 362.527 454.044C361.58 456.181 361.757 459.258 361.757 462.108C361.757 462.912 361.949 464.882 361.71 465.549C361.195 466.959 359.239 466.322 358.561 466.277C357.214 466.186 355.758 465.125 354.411 465.655C353.833 465.883 353.71 466.322 353.302 467.353C352.647 469.006 352.239 470.991 351.538 472.583C351.052 473.535 350.518 474.388 349.945 475.13C348.143 477.964 345.401 479.435 344.139 483.316C343.637 484.724 343.368 486.402 343.368 488.121C343.368 489.106 343.453 489.637 343.045 490.44C342.275 491.956 340.596 491.456 339.649 491.502C338.109 491.593 336.569 492.017 335.483 494.23C334.713 495.852 334.236 497.959 333.458 499.596C331.433 503.886 327.976 502.249 325.296 503.583C324.526 503.977 324.172 505.099 323.486 505.766C322.331 507.009 320.345 506.979 319.074 507.055C317.342 507.161 315.355 506.433 313.684 507.434C312.763 508.159 311.866 508.995 310.997 509.935C308.517 512.072 305.476 511.769 302.881 511.193C301.541 510.905 300.086 510.132 298.753 510.602C297.408 511.148 296.044 511.497 294.672 511.648C292.714 511.835 290.75 511.688 288.805 511.208C287.534 510.875 285.725 509.692 284.477 510.556C284.339 511.618 284.662 513.134 284.285 513.952C283.769 515.059 282.483 514.361 281.828 514.619C280.078 515.142 278.297 515.142 276.546 514.619C275.283 514.407 273.989 514.013 272.696 513.952C272.108 514.082 271.513 513.947 270.956 513.558C270.109 512.739 270.37 511.026 269.978 509.632C269.523 507.995 269.292 509.389 268.669 509.829C267.806 510.45 266.566 509.238 265.735 508.783C264.452 508.228 263.114 508.417 261.885 509.329C260.825 510.168 259.719 510.758 258.589 511.087C257.71 511.112 256.834 510.924 255.979 510.526C254.339 509.823 252.648 509.715 250.989 510.208C249.164 510.92 247.431 512.224 245.599 512.269C245.063 512.353 244.525 512.353 243.989 512.269C243.681 512.178 243.443 511.83 243.135 511.709C242.226 511.345 241.41 513.224 240.532 513.71C239.867 513.993 239.185 514.08 238.507 513.967C236.902 514.031 235.311 514.542 233.779 515.483C232.102 516.552 230.283 516.341 228.681 514.892C226.933 513.376 225.763 514.543 223.976 515.423C222.837 515.983 221.751 516.741 220.658 515.756C219.89 514.866 219.043 514.275 218.163 514.013C217.077 513.891 215.961 514.013 214.867 514.013C213.327 514.013 211.833 514.452 210.309 514.558C208.291 514.71 206.358 516.878 204.364 516.817C203.001 516.817 201.731 515.726 200.337 515.741C198.943 515.756 197.48 516.241 196.256 515.407C195.262 514.539 194.193 514.06 193.106 513.998C191.612 513.998 189.864 515.513 188.486 514.27C187.967 513.604 187.394 513.117 186.792 512.83C186.189 512.716 185.58 512.762 184.983 512.967C183.735 513.376 182.303 514.892 181.063 513.679C180.839 513.387 180.583 513.201 180.316 513.135C180.048 513.069 179.777 513.126 179.523 513.3C179.013 513.449 178.498 513.5 177.983 513.452C177.076 513.255 176.18 512.905 175.303 512.406C173.956 511.921 172.716 513.922 171.33 513.346C170.314 512.891 169.428 511.83 168.358 511.693C167.026 511.527 165.67 511.784 164.338 511.693C163.684 511.652 163.055 511.195 162.544 510.39C161.774 509.526 161.312 510.799 160.565 511.269C159.708 511.83 158.781 511.83 157.924 511.269C156.648 510.285 155.335 509.5 153.997 508.919C152.735 508.762 151.486 508.34 150.27 507.661C149.084 506.782 148.021 505.842 146.766 506.357C145.642 506.827 144.726 506.085 143.625 505.903C142.502 505.786 141.377 506.095 140.314 506.812C139.32 507.403 138.258 508.859 137.187 508.904C136.453 508.777 135.728 508.498 135.023 508.07C133.129 507.317 131.161 507.779 129.41 509.389C128.281 510.285 127.089 510.832 125.876 511.011C125.152 510.931 124.432 510.759 123.72 510.496C122.326 510.314 121.032 511.133 119.654 511.102C118.603 510.91 117.544 510.945 116.497 511.208C115.63 511.678 114.776 512.24 113.94 512.891C113.306 513.287 112.641 513.456 111.977 513.391C111.068 513.336 110.164 513.128 109.274 512.77C108.227 512.436 107.179 512.209 106.14 511.799C105.493 511.673 104.842 511.638 104.192 511.693C103.697 511.569 103.206 511.392 102.721 511.163C101.552 510.747 100.367 510.534 99.1789 510.526C97.2462 510.526 95.3288 510.45 93.373 510.526C91.4171 510.602 89.6691 511.133 87.7903 511.133C84.4679 511.236 81.1525 511.762 77.8647 512.709C74.184 513.603 70.1645 514.877 66.4684 513.664C64.805 512.934 63.1688 511.982 61.571 510.814C60.6085 510.223 59.5689 510.041 58.591 509.617C56.2809 508.616 54.2943 506.433 51.9072 505.933C50.475 505.63 49.0658 506.175 47.649 505.463C46.3785 504.826 45.0925 504.66 43.8451 503.871C42.4084 502.89 40.9998 501.757 39.6254 500.476C38.5813 499.857 37.4659 499.883 36.4298 500.552C35.2439 501.143 34.1197 501.491 32.9108 502.174C32.1579 502.59 31.3648 502.636 30.6007 502.31C29.7886 501.893 28.934 501.919 28.1289 502.386C26.9836 502.575 25.8322 502.575 24.6869 502.386C24.0025 502.723 23.2786 502.543 22.6584 501.88C22.0382 501.218 21.5668 500.122 21.3373 498.808C20.931 497.2 20.3924 495.735 19.7434 494.473C19.2429 493.487 18.5652 492.957 18.0416 492.047C17.7413 491.517 17.4949 490.941 17.1715 490.456C16.7317 489.859 16.4106 488.98 16.2629 487.969C15.6623 484.559 15.208 481.375 13.0519 481.163C12.3961 481.324 11.7319 481.293 11.0806 481.072C10.5921 480.579 10.1878 479.815 9.9179 478.874C9.64069 478.055 9.24799 477.358 8.97078 476.585C8.20076 474.372 6.51438 472.386 6.05237 469.688C5.72126 467.778 4.75875 466.262 4.29674 464.534C4.18894 464.124 4.12734 463.321 4.01183 462.821C3.89871 462.334 3.81097 461.826 3.75001 461.305C3.56208 460.052 3.45346 458.759 3.42661 457.454C3.33729 453.087 3.42222 448.713 3.68068 444.372C3.99639 440.749 4.68171 437.141 5.17453 433.564C5.71355 429.728 6.19869 425.984 6.6453 422.119C7.2383 417.59 7.07359 412.805 6.1756 408.475C5.34397 404.868 4.2582 401.366 4.2582 397.243C4.33111 395.097 4.54066 392.979 4.88192 390.937C5.16683 388.738 5.35167 386.389 5.74439 384.282C6.43741 380.507 7.84654 376.247 7.51543 372.033C7.06112 366.379 3.5113 363.893 3.4189 358.163C3.39396 355.901 3.59273 353.651 4.00413 351.538C4.28134 350.098 5.01284 348.324 4.90504 346.687C4.71923 345.442 4.38377 344.303 3.9271 343.367C3.45738 342.079 3.40349 341.852 3.6499 340.336C3.77693 339.32 3.97109 338.341 4.22742 337.425C4.47382 336.682 4.85114 336.137 4.90504 335.166C4.98974 333.726 4.38912 332.756 3.9348 331.862C3.48049 330.967 3.42661 330.922 3.42661 329.421C3.43408 328.424 3.55788 327.444 3.7885 326.556C4.04261 325.419 3.96563 325.328 3.71922 324.282C3.17247 321.697 2.80221 318.98 2.6181 316.202C2.33319 312.64 3.11857 309.169 3.49589 305.728C3.9425 301.619 3.67299 297.314 4.0734 293.115C4.3909 290.122 4.56619 287.077 4.59701 284.02C4.59701 281.534 4.28134 279.169 4.29674 276.668C4.42661 271.071 4.35195 265.463 4.0734 259.887C3.8886 256.927 3.8886 253.933 4.0734 250.973C4.17231 249.12 4.34484 247.285 4.58935 245.485C4.91353 243.873 5.12089 242.179 5.20536 240.453C5.27953 238.94 5.27953 237.417 5.20536 235.905C5.07633 235.01 4.90887 234.137 4.70483 233.298C4.34276 230.951 4.29765 228.458 4.57394 226.067C4.69891 224.498 4.64899 222.894 4.42763 221.367C4.17126 219.489 4.04436 217.552 4.05033 215.607C3.97711 214.07 4.07162 212.519 4.32752 211.059C4.52773 210.119 5.09753 209.21 5.18224 208.225C5.22715 207.585 5.20233 206.933 5.10939 206.314C5.01645 205.694 4.85751 205.121 4.64321 204.632C4.07526 203.542 3.74874 202.055 3.73459 200.493C3.82699 198.326 4.84342 196.476 5.27464 194.521C5.54118 193.602 5.61575 192.514 5.48256 191.489C5.39015 191.065 5.08214 190.792 4.99744 190.352C4.83973 189.077 4.83973 187.746 4.99744 186.471C5.17454 185.046 5.76744 183.925 5.84445 182.439C5.77813 180.539 5.37794 178.743 4.71253 177.361C4.18287 176.158 3.75396 174.797 3.44198 173.328C3.12525 172.057 2.85255 170.746 2.62576 169.402C2.49939 168.223 2.53393 166.999 2.72586 165.855C3.27881 162.348 3.53887 158.687 3.49589 155.016C3.49589 153.364 3.75001 151.985 3.80391 150.347C3.80391 149.195 3.73461 148.043 3.80391 146.891C3.86552 144.936 4.11959 143.162 4.11189 141.146C4.10419 139.13 4.36601 137.174 4.41221 135.082C4.41221 133.475 4.41221 131.838 4.41221 130.216C4.41221 125.183 4.1196 120.287 4.1196 115.269C4.1196 110.722 4.0041 106.083 4.1196 101.52C4.1735 99.322 4.42763 97.2907 4.42763 95.0169C4.37096 93.5462 4.39162 92.0679 4.48924 90.6056C4.61546 88.2708 4.81083 85.9526 5.07442 83.6627C5.33623 82.0256 5.62885 80.2216 5.95226 78.6299C6.37004 76.7468 6.68248 74.7797 6.884 72.7634C7.05239 70.4419 7.33342 68.1576 7.7233 65.9418C8.05894 64.2559 8.55559 62.7121 9.18636 61.3941C9.72714 60.3868 10.3392 59.5392 11.0036 58.8777C11.8121 57.8772 12.2048 56.1491 12.8286 54.8151C13.2444 53.9207 13.6833 53.0566 14.0683 52.1168C14.9357 49.9111 15.861 47.7961 16.8404 45.7803C17.3819 44.487 18.0814 43.4855 18.8733 42.8698C19.4594 42.749 20.0504 42.749 20.6366 42.8698C22.1766 42.8698 24.0786 43.3549 25.5339 42.2028C26.5658 41.369 27.4667 39.3529 28.4677 38.2463C29.0695 37.7068 29.6511 37.0837 30.208 36.3817C30.5468 35.8663 30.6854 35.2144 31.132 34.8658C31.5786 34.5171 32.2871 34.9719 32.8415 34.6536C32.8415 34.3504 32.903 34.032 32.9415 33.7137C33.7578 33.6379 34.3661 32.0614 34.7203 30.6819C34.9898 29.6662 35.0514 29.166 35.5751 28.5142C35.9216 28.12 36.3451 27.7562 36.6916 27.3621C37.4616 26.5132 37.5925 26.3767 37.9159 24.9518C38.4472 22.6021 39.2249 21.7835 40.4185 20.874C41.612 19.9645 42.7286 20.298 43.9067 19.9038C45.5639 19.2214 47.1075 17.7307 48.3959 15.5683C49.0118 14.6454 49.5958 13.6427 50.1439 12.5668C50.285 12.2637 50.4341 11.9753 50.5905 11.7028C51.1911 10.7932 54.7409 10.1869 54.7409 10.1869H57.051C57.6131 10.1869 57.7286 9.82306 58.206 9.59567C59.2609 9.09542 60.2542 10.2778 61.2861 10.202C62.2223 10.0008 63.1492 9.65613 64.0582 9.17122C65.1591 8.97441 66.2663 8.94906 67.3693 9.09542C70.6881 8.85288 73.9607 7.27634 77.3026 7.32182C80.1209 7.32182 82.9314 7.32182 85.7728 7.32182C88.3909 7.32182 90.7009 5.80591 93.1958 4.50223C95.3211 3.36531 96.8688 3.91103 98.9325 5.0328C100.996 6.15457 102.683 4.65383 104.646 3.78976C105.909 3.08514 107.258 3.31152 108.442 4.42644C108.929 4.92902 109.447 5.30605 109.982 5.54821C110.991 5.88171 111.938 4.66898 112.901 5.09344C113.509 5.3663 114.079 6.60934 114.641 6.60934C115.203 6.60934 115.858 5.26019 116.628 5.48757C117.228 5.65432 117.59 6.57902 118.222 6.73061C118.509 6.7607 118.797 6.7607 119.084 6.73061C120.338 6.54491 121.599 6.68764 122.834 7.15507C123.809 7.7551 124.844 7.8594 125.845 7.45825C127.337 6.75294 128.857 6.30156 130.388 6.10909C132.344 6.10909 134.176 7.38245 136.017 8.45874C137.618 9.3986 139.382 11.0206 141.076 10.7629C141.906 10.4907 142.725 10.0955 143.525 9.58051C144.606 9.1466 145.71 8.96848 146.812 9.04995C148.668 9.04995 150.485 7.98881 152.341 7.85238C154.343 7.71595 156.368 7.85238 158.371 7.85238C159.405 7.58999 160.456 7.77626 161.451 8.39811C162.513 9.35313 163.283 10.3081 164.531 10.202C166.125 10.0656 167.572 8.45874 169.151 8.38295C170.55 8.54193 171.953 8.33291 173.324 7.76143C174.772 6.97316 175.804 4.98732 177.398 5.65432C178.553 6.13941 179.277 7.32182 180.401 6.06362C181.872 4.41128 183.319 2.10711 185.021 1.15209C186.244 0.557356 187.491 0.171892 188.748 0L0 0V519H374V395.803C373.915 396.303 373.823 396.803 373.723 397.318C373.068 399.921 372.584 402.677 372.283 405.52Z" fill="#E8BFB0"/>
</g>
</g>
<defs>
<radialGradient id="paint0_radial_301_36082" cx="0" cy="0" r="1" gradientUnits="userSpaceOnUse" gradientTransform="translate(186.992 259.5) scale(161.774 318.504)">
<stop stop-color="#FFE7C2"/>
<stop offset="0.64" stop-color="#FFE6C0"/>
<stop offset="0.87" stop-color="#FFE1B9"/>
<stop offset="1" stop-color="#FFDBB1"/>
</radialGradient>
<radialGradient id="paint1_radial_301_36082" cx="0" cy="0" r="1" gradientUnits="userSpaceOnUse" gradientTransform="translate(186.992 259.5) scale(161.774 318.504)">
<stop stop-color="#FFE7C2"/>
<stop offset="0.64" stop-color="#FFE6C0"/>
<stop offset="0.87" stop-color="#FFE1B9"/>
<stop offset="1" stop-color="#FFDBB1"/>
</radialGradient>
</defs>
</svg>
