<svg width="301" height="126" viewBox="0 0 301 126" fill="none" xmlns="http://www.w3.org/2000/svg">
<path d="M122.664 64.344C122.264 64.344 121.92 64.04 121.632 63.432C121.344 62.824 121.2 62.08 121.2 61.2V56.208C121.2 55.904 122.04 55.384 123.72 54.648C125.4 53.896 126.368 53.52 126.624 53.52C126.816 53.52 127.088 53.84 127.44 54.48C127.52 54.64 127.632 54.856 127.776 55.128C127.936 55.4 128.064 55.624 128.16 55.8C128.368 56.184 128.632 56.376 128.952 56.376V56.856C128.696 56.968 128.352 57.136 127.92 57.36C126.912 57.92 126.368 58.2 126.288 58.2C126.048 58.2 125.744 57.728 125.376 56.784C125.024 55.84 124.736 55.368 124.512 55.368C124.224 55.368 124.08 55.608 124.08 56.088V61.44C124.08 62.08 124.224 62.4 124.512 62.4C124.576 62.4 125.072 62.192 126 61.776C126.928 61.36 127.488 61.152 127.68 61.152C128.064 61.152 128.4 61.464 128.688 62.088C128.992 62.696 129.144 63.48 129.144 64.44V69.552C129.144 69.856 128.224 70.384 126.384 71.136C124.56 71.872 123.512 72.24 123.24 72.24C123.128 72.24 123 72.104 122.856 71.832C122.712 71.56 122.52 71.176 122.28 70.68C122.056 70.168 121.848 69.744 121.656 69.408C121.48 69.072 121.232 68.904 120.912 68.904V68.424C121.168 68.312 121.504 68.144 121.92 67.92C122.944 67.36 123.496 67.08 123.576 67.08C123.816 67.08 124.152 67.632 124.584 68.736C125.032 69.84 125.368 70.392 125.592 70.392C125.752 70.392 125.904 70.328 126.048 70.2C126.192 70.072 126.264 69.896 126.264 69.672V64.272C126.264 63.552 126.064 63.192 125.664 63.192C125.536 63.192 125.032 63.384 124.152 63.768C123.272 64.152 122.776 64.344 122.664 64.344ZM136.435 69.504V57.96C136.435 57.368 136.371 56.944 136.243 56.688C136.115 56.432 135.851 56.304 135.451 56.304V55.56L140.371 53.496L140.755 54.264C140.403 54.264 140.067 54.472 139.747 54.888C139.459 55.288 139.315 55.896 139.315 56.712V68.064C139.315 68.592 139.427 69.048 139.651 69.432C139.875 69.816 140.155 70.008 140.491 70.008V70.536C140.379 70.552 139.507 71.04 137.875 72C137.763 71.968 137.627 71.928 137.467 71.88C137.307 71.816 137.091 71.656 136.819 71.4C136.563 71.144 136.435 70.848 136.435 70.512C136.339 70.56 136.067 70.712 135.619 70.968C134.435 71.64 133.731 71.976 133.507 71.976C132.995 71.976 132.515 71.648 132.067 70.992C131.619 70.32 131.395 69.696 131.395 69.12V57.048C131.395 56.168 131.003 55.648 130.219 55.488V54.96L132.835 53.496C133.187 53.64 133.515 53.88 133.819 54.216C134.123 54.536 134.275 54.84 134.275 55.128V66.888C134.275 67.896 134.419 68.584 134.707 68.952C135.011 69.32 135.587 69.504 136.435 69.504ZM144.588 55.176C146.348 54.104 147.356 53.568 147.612 53.568C147.868 53.568 148.268 53.896 148.812 54.552C149.372 55.208 149.652 55.8 149.652 56.328V63.792C149.652 63.904 149.012 64.216 147.732 64.728C146.468 65.24 145.42 65.624 144.588 65.88V68.304C144.588 68.896 144.652 69.32 144.78 69.576C144.908 69.832 145.172 69.96 145.572 69.96V70.704L140.652 72.768L140.268 72C140.62 72 140.956 71.792 141.276 71.376C141.564 70.976 141.708 70.368 141.708 69.552V57.12C141.708 56.144 141.38 55.592 140.724 55.464V54.936L143.148 53.568C143.468 53.696 143.788 53.928 144.108 54.264C144.428 54.6 144.588 54.904 144.588 55.176ZM145.524 55.872C145.236 55.872 144.924 55.992 144.588 56.232V64.752C145.004 64.752 145.468 64.624 145.98 64.368C146.492 64.096 146.748 63.816 146.748 63.528V57.648C146.748 56.464 146.34 55.872 145.524 55.872ZM155.121 55.848C154.961 55.848 154.817 55.928 154.689 56.088V62.424H158.073V63L156.873 63.6H154.689V66C154.689 67.776 154.865 68.816 155.217 69.12C155.745 69.568 156.321 69.824 156.945 69.888C157.569 69.952 158.241 69.984 158.961 69.984V70.68C158.881 70.68 158.289 70.904 157.185 71.352C156.081 71.784 155.409 72 155.169 72C154.673 72 153.985 71.616 153.105 70.848C152.241 70.08 151.809 69.248 151.809 68.352V55.728C151.809 55.616 152.721 55.224 154.545 54.552C156.385 53.864 157.441 53.52 157.713 53.52C157.809 53.52 157.921 53.752 158.049 54.216C158.177 54.68 158.321 55.24 158.481 55.896C158.657 56.552 158.833 57.04 159.009 57.36C159.201 57.664 159.553 57.816 160.065 57.816V58.296C159.713 58.456 159.113 58.744 158.265 59.16C157.433 59.56 156.985 59.76 156.921 59.76C156.681 59.76 156.377 59.112 156.009 57.816C155.641 56.504 155.345 55.848 155.121 55.848ZM165.329 55.872C165.041 55.872 164.729 55.992 164.393 56.232V64.032C164.809 64.032 165.273 63.904 165.785 63.648C166.297 63.376 166.553 63.096 166.553 62.808V57.648C166.553 56.464 166.145 55.872 165.329 55.872ZM161.513 69.552V57.12C161.513 56.144 161.185 55.592 160.529 55.464V54.936L162.953 53.568C163.273 53.696 163.593 53.928 163.913 54.264C164.233 54.6 164.393 54.904 164.393 55.176C166.153 54.104 167.161 53.568 167.417 53.568C167.673 53.568 168.073 53.896 168.617 54.552C169.177 55.208 169.457 55.8 169.457 56.328V63.072C169.457 63.2 168.585 63.608 166.841 64.296C167.577 66.776 168.441 68.448 169.433 69.312C169.881 69.68 170.337 69.864 170.801 69.864V70.584C169.313 71.528 168.369 72 167.969 72C167.441 72 166.769 71.008 165.953 69.024C165.153 67.04 164.721 65.728 164.657 65.088L164.393 65.16V68.304C164.393 68.896 164.457 69.32 164.585 69.576C164.713 69.832 164.977 69.96 165.377 69.96V70.704L160.457 72.768L160.072 72C160.424 72 160.761 71.792 161.081 71.376C161.369 70.976 161.513 70.368 161.513 69.552ZM173.336 64.344C172.936 64.344 172.592 64.04 172.304 63.432C172.016 62.824 171.872 62.08 171.872 61.2V56.208C171.872 55.904 172.712 55.384 174.392 54.648C176.072 53.896 177.04 53.52 177.296 53.52C177.488 53.52 177.76 53.84 178.112 54.48C178.192 54.64 178.304 54.856 178.448 55.128C178.608 55.4 178.736 55.624 178.832 55.8C179.04 56.184 179.304 56.376 179.624 56.376V56.856C179.368 56.968 179.024 57.136 178.592 57.36C177.584 57.92 177.04 58.2 176.96 58.2C176.72 58.2 176.416 57.728 176.048 56.784C175.696 55.84 175.408 55.368 175.184 55.368C174.896 55.368 174.752 55.608 174.752 56.088V61.44C174.752 62.08 174.896 62.4 175.184 62.4C175.248 62.4 175.744 62.192 176.672 61.776C177.6 61.36 178.16 61.152 178.352 61.152C178.736 61.152 179.072 61.464 179.36 62.088C179.664 62.696 179.816 63.48 179.816 64.44V69.552C179.816 69.856 178.896 70.384 177.056 71.136C175.232 71.872 174.184 72.24 173.912 72.24C173.8 72.24 173.672 72.104 173.528 71.832C173.384 71.56 173.192 71.176 172.952 70.68C172.728 70.168 172.52 69.744 172.328 69.408C172.152 69.072 171.904 68.904 171.584 68.904V68.424C171.84 68.312 172.176 68.144 172.592 67.92C173.616 67.36 174.168 67.08 174.248 67.08C174.488 67.08 174.824 67.632 175.256 68.736C175.704 69.84 176.04 70.392 176.264 70.392C176.424 70.392 176.576 70.328 176.72 70.2C176.864 70.072 176.936 69.896 176.936 69.672V64.272C176.936 63.552 176.736 63.192 176.336 63.192C176.208 63.192 175.704 63.384 174.824 63.768C173.944 64.152 173.448 64.344 173.336 64.344ZM182.067 68.376V57.96C182.067 57.368 182.003 56.944 181.875 56.688C181.747 56.432 181.483 56.304 181.083 56.304V55.56L186.003 53.496L186.387 54.264C186.035 54.264 185.699 54.472 185.379 54.888C185.091 55.288 184.947 55.896 184.947 56.712V66.528C184.947 67.808 185.059 68.576 185.283 68.832C185.667 69.312 186.043 69.6 186.411 69.696C187.259 69.888 188.195 69.984 189.219 69.984V70.656C187.091 71.552 185.875 72 185.571 72C185.283 72 184.883 71.872 184.371 71.616C183.859 71.344 183.347 70.912 182.835 70.32C182.323 69.728 182.067 69.08 182.067 68.376ZM190.903 68.496V55.728C190.903 55.616 191.815 55.224 193.639 54.552C195.463 53.864 196.511 53.52 196.783 53.52C197.055 53.52 197.463 53.848 198.007 54.504C198.567 55.16 198.847 55.752 198.847 56.28V69.768C198.847 69.896 197.967 70.304 196.207 70.992C194.463 71.664 193.391 72 192.991 72C192.607 72 192.159 71.656 191.647 70.968C191.151 70.28 190.903 69.456 190.903 68.496ZM195.007 69.792C195.311 69.792 195.623 69.664 195.943 69.408V57.528C195.943 56.344 195.535 55.752 194.719 55.752C194.399 55.752 194.087 55.872 193.783 56.112V68.016C193.783 69.2 194.191 69.792 195.007 69.792ZM202.967 69.552V56.832L203.711 56.112H202.199C201.223 56.112 200.671 56.376 200.543 56.904H200.015L198.647 54.936C198.839 54.632 199.087 54.36 199.391 54.12C199.695 53.88 199.991 53.76 200.279 53.76H206.615C207.591 53.76 208.143 53.496 208.271 52.968H208.799L210.167 54.936C209.975 55.24 209.727 55.512 209.423 55.752C209.119 55.992 208.823 56.112 208.535 56.112H205.847V68.304C205.847 68.896 205.911 69.32 206.039 69.576C206.167 69.832 206.431 69.96 206.831 69.96V70.704L201.911 72.768L201.527 72C201.879 72 202.215 71.792 202.535 71.376C202.823 70.976 202.967 70.368 202.967 69.552ZM211.469 64.344C211.069 64.344 210.725 64.04 210.437 63.432C210.149 62.824 210.005 62.08 210.005 61.2V56.208C210.005 55.904 210.845 55.384 212.525 54.648C214.205 53.896 215.173 53.52 215.429 53.52C215.621 53.52 215.893 53.84 216.245 54.48C216.325 54.64 216.437 54.856 216.581 55.128C216.741 55.4 216.869 55.624 216.965 55.8C217.173 56.184 217.437 56.376 217.757 56.376V56.856C217.501 56.968 217.157 57.136 216.725 57.36C215.717 57.92 215.173 58.2 215.093 58.2C214.853 58.2 214.549 57.728 214.181 56.784C213.829 55.84 213.541 55.368 213.317 55.368C213.029 55.368 212.885 55.608 212.885 56.088V61.44C212.885 62.08 213.029 62.4 213.317 62.4C213.381 62.4 213.877 62.192 214.805 61.776C215.733 61.36 216.293 61.152 216.485 61.152C216.869 61.152 217.205 61.464 217.493 62.088C217.797 62.696 217.949 63.48 217.949 64.44V69.552C217.949 69.856 217.029 70.384 215.189 71.136C213.365 71.872 212.317 72.24 212.045 72.24C211.933 72.24 211.805 72.104 211.661 71.832C211.517 71.56 211.325 71.176 211.085 70.68C210.861 70.168 210.653 69.744 210.461 69.408C210.285 69.072 210.037 68.904 209.717 68.904V68.424C209.973 68.312 210.309 68.144 210.725 67.92C211.749 67.36 212.301 67.08 212.381 67.08C212.621 67.08 212.957 67.632 213.389 68.736C213.837 69.84 214.173 70.392 214.397 70.392C214.557 70.392 214.709 70.328 214.853 70.2C214.997 70.072 215.069 69.896 215.069 69.672V64.272C215.069 63.552 214.869 63.192 214.469 63.192C214.341 63.192 213.837 63.384 212.957 63.768C212.077 64.152 211.581 64.344 211.469 64.344ZM225.24 57.048C225.24 56.168 224.848 55.648 224.064 55.488V54.96C225.792 54 226.664 53.52 226.68 53.52C226.824 53.52 227.08 53.68 227.448 54C227.816 54.304 228.04 54.632 228.12 54.984C228.152 54.952 228.64 54.704 229.584 54.24C230.528 53.76 231.008 53.52 231.024 53.52C231.344 53.52 231.696 53.712 232.08 54.096C232.816 54.832 233.184 55.816 233.184 57.048V69.768C233.184 69.912 232.328 70.32 230.616 70.992C228.904 71.664 227.84 72 227.424 72C226.672 72 226.048 71.504 225.552 70.512C223.792 71.504 222.68 72 222.216 72C221.752 72 221.296 71.664 220.848 70.992C220.416 70.304 220.2 69.672 220.2 69.096V57.048C220.2 56.168 219.808 55.648 219.024 55.488V54.96L221.64 53.496C221.992 53.64 222.32 53.88 222.624 54.216C222.928 54.536 223.08 54.832 223.08 55.104V67.32C223.08 68.84 223.552 69.6 224.496 69.6C224.736 69.6 224.984 69.552 225.24 69.456V57.048ZM228.144 67.56C228.144 68.072 228.24 68.552 228.432 69C228.64 69.432 228.92 69.648 229.272 69.648C229.624 69.648 229.96 69.576 230.28 69.432V57.912C230.28 57.08 230.112 56.528 229.776 56.256C229.44 55.968 228.896 55.816 228.144 55.8V67.56ZM235.575 68.928V57.96C235.575 57.368 235.511 56.944 235.383 56.688C235.255 56.432 234.991 56.304 234.591 56.304V55.56L239.511 53.496L239.895 54.264C239.543 54.264 239.207 54.472 238.887 54.888C238.599 55.288 238.455 55.896 238.455 56.712V67.992C238.455 68.424 238.527 68.736 238.671 68.928C238.815 69.104 239.063 69.192 239.415 69.192V69.864C236.167 71.288 234.535 72 234.519 72L234.135 71.232C234.263 71.232 234.415 71.176 234.591 71.064C234.783 70.952 234.943 70.824 235.071 70.68C235.407 70.296 235.575 69.712 235.575 68.928ZM240.848 69.264V57.432C240.848 56.904 240.736 56.448 240.512 56.064C240.288 55.68 240.008 55.488 239.672 55.488V54.96C239.784 54.944 240.656 54.456 242.288 53.496C242.4 53.528 242.536 53.576 242.696 53.64C242.856 53.688 243.064 53.84 243.32 54.096C243.592 54.352 243.728 54.648 243.728 54.984C243.824 54.936 244.096 54.784 244.544 54.528C245.728 53.856 246.432 53.52 246.656 53.52C247.168 53.52 247.648 53.856 248.096 54.528C248.544 55.2 248.768 55.816 248.768 56.376V68.448C248.768 69.328 249.16 69.848 249.944 70.008V70.536L247.328 72C246.976 71.856 246.648 71.624 246.344 71.304C246.04 70.968 245.888 70.656 245.888 70.368V58.608C245.888 57.6 245.736 56.912 245.432 56.544C245.144 56.176 244.576 55.992 243.728 55.992V68.304C243.728 68.944 243.808 69.384 243.968 69.624C244.128 69.848 244.376 69.96 244.712 69.96V70.704L239.792 72.768L239.408 72C239.728 72 240.04 71.808 240.344 71.424C240.68 70.976 240.848 70.256 240.848 69.264ZM252.625 64.344C252.225 64.344 251.881 64.04 251.593 63.432C251.305 62.824 251.161 62.08 251.161 61.2V56.208C251.161 55.904 252.001 55.384 253.681 54.648C255.361 53.896 256.329 53.52 256.585 53.52C256.777 53.52 257.049 53.84 257.401 54.48C257.481 54.64 257.593 54.856 257.737 55.128C257.897 55.4 258.025 55.624 258.121 55.8C258.329 56.184 258.593 56.376 258.913 56.376V56.856C258.657 56.968 258.313 57.136 257.881 57.36C256.873 57.92 256.329 58.2 256.249 58.2C256.009 58.2 255.705 57.728 255.337 56.784C254.985 55.84 254.697 55.368 254.473 55.368C254.185 55.368 254.041 55.608 254.041 56.088V61.44C254.041 62.08 254.185 62.4 254.473 62.4C254.537 62.4 255.033 62.192 255.961 61.776C256.889 61.36 257.449 61.152 257.641 61.152C258.025 61.152 258.361 61.464 258.649 62.088C258.953 62.696 259.105 63.48 259.105 64.44V69.552C259.105 69.856 258.185 70.384 256.345 71.136C254.521 71.872 253.473 72.24 253.201 72.24C253.089 72.24 252.961 72.104 252.817 71.832C252.673 71.56 252.481 71.176 252.241 70.68C252.017 70.168 251.809 69.744 251.617 69.408C251.441 69.072 251.193 68.904 250.873 68.904V68.424C251.129 68.312 251.465 68.144 251.881 67.92C252.905 67.36 253.457 67.08 253.537 67.08C253.777 67.08 254.113 67.632 254.545 68.736C254.993 69.84 255.329 70.392 255.553 70.392C255.713 70.392 255.865 70.328 256.009 70.2C256.153 70.072 256.225 69.896 256.225 69.672V64.272C256.225 63.552 256.025 63.192 255.625 63.192C255.497 63.192 254.993 63.384 254.113 63.768C253.233 64.152 252.737 64.344 252.625 64.344ZM261.356 70.464V69C261.356 68.952 261.684 68.808 262.34 68.568C263.012 68.312 263.396 68.184 263.492 68.184C263.604 68.184 263.756 68.32 263.948 68.592C264.156 68.864 264.26 69.144 264.26 69.432V71.184C264.26 71.232 263.94 71.384 263.3 71.64C262.66 71.88 262.268 72 262.124 72C261.98 72 261.812 71.864 261.62 71.592C261.444 71.304 261.356 70.928 261.356 70.464ZM269.965 55.848C269.805 55.848 269.661 55.928 269.533 56.088V66C269.533 66.672 269.573 67.216 269.653 67.632C269.733 68.032 269.909 68.432 270.181 68.832C270.709 69.6 271.917 69.984 273.805 69.984V70.68C273.725 70.68 273.133 70.904 272.029 71.352C270.925 71.784 270.253 72 270.013 72C269.213 72 268.453 71.544 267.733 70.632C267.013 69.704 266.653 68.728 266.653 67.704V55.728C266.653 55.616 267.565 55.224 269.389 54.552C271.229 53.864 272.285 53.52 272.557 53.52C272.653 53.52 272.765 53.752 272.893 54.216C273.021 54.68 273.165 55.24 273.325 55.896C273.501 56.552 273.677 57.04 273.853 57.36C274.045 57.664 274.397 57.816 274.909 57.816V58.296C274.557 58.456 273.957 58.744 273.109 59.16C272.277 59.56 271.829 59.76 271.765 59.76C271.525 59.76 271.221 59.112 270.853 57.816C270.485 56.504 270.189 55.848 269.965 55.848ZM276.356 68.496V55.728C276.356 55.616 277.268 55.224 279.092 54.552C280.916 53.864 281.964 53.52 282.236 53.52C282.508 53.52 282.916 53.848 283.46 54.504C284.02 55.16 284.3 55.752 284.3 56.28V69.768C284.3 69.896 283.42 70.304 281.66 70.992C279.916 71.664 278.844 72 278.444 72C278.06 72 277.612 71.656 277.1 70.968C276.604 70.28 276.356 69.456 276.356 68.496ZM280.46 69.792C280.764 69.792 281.076 69.664 281.396 69.408V57.528C281.396 56.344 280.988 55.752 280.172 55.752C279.852 55.752 279.54 55.872 279.236 56.112V68.016C279.236 69.2 279.644 69.792 280.46 69.792ZM286.692 69.552V57.432C286.692 56.904 286.58 56.448 286.356 56.064C286.132 55.68 285.852 55.488 285.516 55.488V54.96C285.628 54.944 286.5 54.456 288.132 53.496C288.244 53.528 288.38 53.576 288.54 53.64C288.7 53.688 288.908 53.84 289.164 54.096C289.436 54.352 289.572 54.648 289.572 54.984C289.668 54.936 289.94 54.784 290.388 54.528C291.572 53.856 292.3 53.52 292.572 53.52C292.86 53.52 293.172 53.664 293.508 53.952C293.86 54.24 294.124 54.584 294.3 54.984C294.332 54.968 294.66 54.8 295.284 54.48C296.532 53.84 297.284 53.52 297.54 53.52C298.052 53.52 298.532 53.856 298.98 54.528C299.428 55.2 299.652 55.816 299.652 56.376V68.448C299.652 69.328 300.044 69.848 300.828 70.008V70.536L298.212 72C297.86 71.856 297.532 71.624 297.228 71.304C296.924 70.968 296.772 70.656 296.772 70.368V58.608C296.772 57.648 296.612 56.984 296.292 56.616C295.988 56.232 295.428 56.024 294.612 55.992V68.448C294.612 69.328 295.004 69.848 295.788 70.008V70.536L293.172 72C292.82 71.856 292.492 71.624 292.188 71.304C291.884 70.968 291.732 70.656 291.732 70.368V58.608C291.732 57.6 291.58 56.912 291.276 56.544C290.988 56.176 290.42 55.992 289.572 55.992V68.304C289.572 68.896 289.636 69.32 289.764 69.576C289.892 69.832 290.156 69.96 290.556 69.96V70.704L285.636 72.768L285.252 72C285.604 72 285.94 71.792 286.26 71.376C286.548 70.976 286.692 70.368 286.692 69.552Z" fill="white"/>
<path d="M42.4263 11.7744C43.898 13.5028 45.643 14.9784 47.5919 16.1424C47.9085 15.484 48.6681 15.8638 49.1998 15.6233C49.7769 15.2618 50.312 14.8372 50.7951 14.3572C51.5547 13.7748 51.8586 13.5216 51.6687 12.5467C51.3973 11.6759 50.9381 10.8753 50.3233 10.2015C49.7086 9.52767 48.9533 8.99708 48.111 8.6472C47.3276 8.26057 46.471 8.04483 45.5979 8.01427C44.7249 7.98371 43.8552 8.13904 43.0467 8.46995C40.6158 9.62208 41.7173 11.4452 42.9581 13.0658L42.4263 11.7744Z" fill="#FFC18B"/>
<path style="mix-blend-mode:multiply" opacity="0.6" d="M15.8766 0.32918C15.8766 0.32918 12.7747 90.0054 4.48193 126L45.7434 108.769C45.7434 108.769 77.2307 121.949 93.3352 126C93.3352 126 88.2709 25.4228 88.9166 0L15.8766 0.32918Z" fill="url(#paint0_linear_301_21598)"/>
<path d="M7.91298 0C7.91298 0 8.36877 85.5995 0 121.543L41.2615 104.312C41.2615 104.312 72.7488 117.479 88.8533 121.543C88.8533 121.543 81.3581 25.3215 81.9912 0H7.91298Z" fill="url(#paint1_linear_301_21598)"/>
<path d="M13.3825 0C13.3825 0 2.62087 114.593 4.68457 115.479C6.74828 116.365 41.4008 101.919 41.4008 101.919C41.4008 101.919 79.0919 116.593 83.6625 116.479C88.233 116.365 78.1677 0 78.1677 0H13.3825Z" fill="url(#paint2_linear_301_21598)"/>
<path d="M0 121.632L4.6845 115.796C17.1508 111.922 29.4063 107.401 41.4007 102.249C41.4007 102.249 70.9383 114.061 83.6371 116.808L88.8279 121.632C88.8279 121.632 57.9863 112.124 41.2361 104.401C41.2615 104.401 11.8125 117.036 0 121.632Z" fill="#1F002E"/>
<path fill-rule="evenodd" clip-rule="evenodd" d="M54.302 70.09L53.745 78.6613H49.7568V70.9636L47.7817 71.1282L47.1613 78.2815L41.7172 78.5601L41.4134 71.3181H39.7928L39.2864 78.5474H35.5894L36.0578 70.2799C36.0578 70.2799 29.7275 71.3308 29.2084 67.8364C27.6764 57.252 19.8141 51.9091 25.638 41.7805C29.8667 34.3613 58.556 29.4363 63.5317 44.9204C66.9248 55.3655 60.8983 57.5812 58.556 68.1149C58.1382 69.9127 54.302 70.09 54.302 70.09ZM42.5275 57.0621C42.211 55.1629 36.7036 50.2632 34.3613 50.086C32.0191 49.9087 29.5755 52.4409 29.1071 55.4162C28.6386 58.3914 33.8042 63.1772 37.0454 63.0126C40.2866 62.848 42.8187 58.8726 42.5275 57.0621ZM40.2106 66.7222C41.0842 67.5325 43.0846 66.7222 43.0846 66.7222L43.9455 64.3293L44.6672 66.6716C45.0925 67.0044 45.6131 67.1925 46.1529 67.2085C46.6927 67.2244 47.2236 67.0674 47.6678 66.7602C48.5287 66.2031 45.7054 61.3414 44.1481 61.2401C42.5908 61.1388 39.3117 65.8993 40.2106 66.7222ZM58.8345 55.7074C58.4041 52.7194 55.9986 50.1493 53.669 50.2886C51.3394 50.4278 45.7307 55.2262 45.4015 57.1127C45.0723 58.9992 47.5285 62.9746 50.757 63.1772C53.9855 63.3798 59.265 58.6447 58.8345 55.7074Z" fill="url(#paint3_linear_301_21598)"/>
<defs>
<linearGradient id="paint0_linear_301_21598" x1="48.8453" y1="126" x2="48.8453" y2="0" gradientUnits="userSpaceOnUse">
<stop stop-color="#DD9E88"/>
<stop offset="0.99" stop-color="#B17A4D"/>
</linearGradient>
<linearGradient id="paint1_linear_301_21598" x1="44.4393" y1="121.632" x2="44.4393" y2="0.0379773" gradientUnits="userSpaceOnUse">
<stop stop-color="#39152F"/>
<stop offset="1" stop-color="#7F1E3A"/>
</linearGradient>
<linearGradient id="paint2_linear_301_21598" x1="44.642" y1="116.492" x2="44.642" y2="0" gradientUnits="userSpaceOnUse">
<stop stop-color="#52223B"/>
<stop offset="1" stop-color="#883A3B"/>
</linearGradient>
<linearGradient id="paint3_linear_301_21598" x1="7.52693" y1="100.362" x2="49.2768" y2="37.644" gradientUnits="userSpaceOnUse">
<stop stop-color="#C79296"/>
<stop offset="1" stop-color="#FFF4D0"/>
</linearGradient>
</defs>
</svg>
