<svg width="354" height="438" viewBox="0 0 354 438" fill="none" xmlns="http://www.w3.org/2000/svg">
<g clip-path="url(#clip0_1012_10431)">
<g filter="url(#filter0_ddddd_1012_10431)">
<path d="M333.563 163.623C334.504 175.162 312.476 190.52 312.476 190.52L305.241 185.409L301.771 190.789L285.633 191.353C284.442 190.51 283.007 190.081 281.548 190.135C280.09 190.188 278.69 190.721 277.564 191.649L261.157 192.51L253.088 182.612L248.301 190.95L234.207 191.461C234.207 191.461 232.754 190.923 225.008 186.673C220.024 184.112 214.472 182.854 208.87 183.016L209.005 187.238L193.216 187.776C175.445 184.306 157.239 183.644 139.262 185.813C137.539 181.654 135.099 177.831 132.053 174.516V167.658C133.852 167.638 135.649 167.512 137.433 167.281C147.842 165.802 158.789 164.134 169.305 166.393C179.822 168.653 205.992 166.393 205.992 166.393C205.992 166.393 222.48 169.782 233.534 171.369C244.589 172.956 263.39 170.078 276.381 169.917C289.372 169.755 326.086 179.331 325.682 146.705C328.519 150.281 330.77 154.285 332.353 158.566C332.864 160.234 333.24 161.982 333.563 163.623Z" fill="#F5C26B"/>
<path d="M332.461 158.486C330.853 154.199 328.575 150.195 325.71 146.624C324.058 144.435 322.26 142.36 320.33 140.411L312.073 121.584L312.907 137.722C311.678 137.428 310.428 137.23 309.168 137.13C303.789 136.673 294.214 137.506 292.385 148.588C293.107 133.052 292.377 117.483 290.206 102.084C289.722 98.9904 289.157 95.8704 288.485 92.8311C286.04 81.508 280.724 71.0044 273.046 62.3303C270.155 58.9404 267.085 55.7081 263.847 52.6476C262.718 51.5448 261.776 50.5765 261.158 49.7427C256.451 43.9869 264.654 36.2944 264.654 36.2944L273.019 41.351L272.804 35.1648C273.942 34.6277 275.177 34.3269 276.434 34.2807C277.692 34.2345 278.945 34.4437 280.12 34.8958C304.192 58.9952 324.445 122.579 332.461 158.486Z" fill="#FFDE8C"/>
<path d="M325.71 146.625C326.113 179.25 289.372 169.648 276.408 169.836C263.444 170.025 244.616 172.903 233.562 171.289C222.507 169.675 206.02 166.313 206.02 166.313C206.02 166.313 179.849 168.626 169.333 166.313C158.816 164 147.815 165.721 137.46 167.201C135.676 167.431 133.88 167.557 132.081 167.577C119.101 167.374 106.166 166.006 93.43 163.489C87.996 162.447 82.496 161.782 76.97 161.498C69.916 161.129 62.846 161.201 55.802 161.714C63.871 155.258 73.204 147.701 82.699 139.497C84.259 146.167 84.716 151.224 89.853 152.757C94.99 154.29 102.468 157.545 102.468 157.545C102.468 157.545 114.544 155.151 118.471 155.016C122.398 154.882 117.933 147.727 124.98 147.485C132.027 147.243 139.988 148.454 140.742 137.641C141.495 126.829 146.121 121.503 140.042 117.576C133.964 113.649 130.682 108.028 127.401 110.664C124.119 113.3 121.51 120.185 116.212 122.068C110.913 123.951 103.812 120.938 103.812 120.938C115.671 110.191 126.578 98.4384 136.411 85.8114C145.422 73.681 151.715 64.9665 155.992 58.9148C168.929 60.2327 179.419 62.6803 192.571 62.5996C193.593 62.5996 194.642 62.5996 195.718 62.5996C207.213 61.9575 218.741 62.3175 230.173 63.6755C235.9 64.2508 241.66 64.4395 247.414 64.2403C243.191 73.439 237.731 69.6196 231.276 74.0845C224.82 78.5493 218.311 90.6797 218.311 90.6797L213.335 85.9728L204.11 87.99C204.11 87.99 195.557 93.6383 190.473 93.8266C185.39 94.0149 188.617 105.446 191.307 109.965C193.997 114.483 192.571 122.041 192.571 122.041C190.582 121.778 188.559 122.011 186.681 122.719C184.804 123.428 183.131 124.59 181.813 126.103C181.813 126.103 187.595 138.152 183.453 141.057C179.311 143.962 174.47 152.596 176.998 155.043C178.619 156.57 180.7 157.516 182.915 157.733C182.915 157.733 188.671 158.674 190.823 157.464C192.975 156.254 194.454 149.153 197.816 148.48C200.342 147.682 202.676 146.373 204.675 144.634C204.675 144.634 202.658 135.409 204.271 133.096C205.885 130.783 210.888 128.066 207.956 125.027C205.024 121.987 208.575 118.518 209.973 118.195C211.372 117.872 214.627 122.256 214.627 122.256C214.627 122.256 217.316 115.102 218.715 117.872C220.113 120.643 221.162 131.32 225.977 132.316C230.791 133.311 245.073 129.223 250.937 135.866C256.8 142.509 260.969 140.707 260.969 140.707L266.349 128.496C266.349 128.496 261.131 120.427 266.08 120.212C271.029 119.997 277.78 119.513 281.518 113.461C285.257 107.409 285.849 100.631 290.125 101.869C292.297 117.269 293.026 132.837 292.304 148.373C289.749 163.973 308.173 166.716 312.745 159.804L309.087 136.915C310.347 137.015 311.597 137.213 312.826 137.507L311.992 121.369L320.249 140.196C322.18 142.145 323.977 144.22 325.629 146.409L325.71 146.625ZM177.106 94.5259C177.948 92.1324 177.852 89.5086 176.837 87.1831C172.345 87.9093 170.489 91.3521 173.152 94.6604C175.815 97.9687 175.519 97.6728 177.106 94.5259ZM165.621 90.4645C165.621 90.4645 171.377 84.2783 171.296 82.019C171.215 79.7597 166.239 74.5686 166.239 74.5686C166.239 74.5686 159.677 69.1893 156.584 74.9183C154.163 79.41 159.273 82.7183 155.373 87.0755C151.473 91.4328 152.684 98.4528 157.391 98.2914C162.097 98.1301 165.621 90.4645 165.621 90.4645Z" fill="#87DBBA"/>
<path d="M309.168 136.941L312.825 159.83C308.253 166.743 289.829 163.999 292.384 148.399C294.213 137.318 303.761 136.484 309.168 136.941Z" fill="#DEA854"/>
<path d="M290.206 101.895C285.93 100.658 285.338 107.436 281.599 113.488C277.861 119.539 271.109 120.05 266.16 120.239C261.212 120.427 266.429 128.523 266.429 128.523L261.05 140.734C261.05 140.734 256.881 142.563 251.018 135.893C245.154 129.222 230.899 133.203 226.058 132.342C221.216 131.482 220.302 120.669 218.796 117.899C217.289 115.128 214.707 122.283 214.707 122.283C214.707 122.283 211.453 117.872 210.054 118.221C208.656 118.571 205.105 122.041 208.037 125.053C210.969 128.066 205.966 130.782 204.352 133.122C202.738 135.462 204.756 144.661 204.756 144.661C202.714 146.332 200.353 147.568 197.816 148.292C194.454 148.964 193.002 156.065 190.823 157.275C188.645 158.486 182.916 157.544 182.916 157.544C180.7 157.327 178.619 156.381 176.998 154.855C174.47 152.407 179.338 143.773 183.453 140.868C187.569 137.964 181.813 125.914 181.813 125.914C183.132 124.402 184.804 123.239 186.682 122.531C188.559 121.822 190.582 121.589 192.571 121.853C192.571 121.853 193.997 114.187 191.307 109.776C188.618 105.365 185.39 93.8801 190.473 93.638C195.557 93.3959 204.11 87.8014 204.11 87.8014L213.336 85.7842L218.311 90.4911C218.311 90.4911 224.955 78.3338 231.276 73.8959C237.596 69.4579 243.083 73.2504 247.414 64.0517C255.981 63.8579 264.53 63.1754 273.019 62.0076C280.697 70.6816 286.014 81.1852 288.458 92.5083C289.157 95.6821 289.722 98.8021 290.206 101.895Z" fill="#8AA31F"/>
<path d="M263.847 52.6476C267.086 55.6116 270.165 58.7449 273.073 62.0345C264.583 63.2023 256.034 63.8848 247.467 64.0786C241.714 64.2778 235.954 64.0891 230.226 63.5138C218.794 62.1558 207.266 61.7958 195.772 62.4379C194.696 62.4379 193.647 62.4379 192.625 62.4379V60.2324C192.625 60.2324 201.77 47.5103 207.499 49.4738C211.17 50.8687 214.96 51.9309 218.822 52.6476C218.822 52.6476 222.991 59.1297 228.801 55.8214C232.3 53.8558 236.42 53.3071 240.312 54.2883L253.088 58.3228C253.088 58.3228 258.145 55.66 263.847 52.6476Z" fill="#F5C26B"/>
<path d="M192.571 60.3936V62.5992C179.419 62.5992 168.929 60.2323 155.992 58.9143C161.828 50.8454 163.872 47.564 163.872 47.564C169.504 48.7835 174.968 50.6801 180.145 53.2122L186.627 52.9971L192.571 60.3936Z" fill="#F5C26B"/>
<path d="M176.837 87.1826C177.852 89.5081 177.948 92.1319 177.106 94.5254C175.519 97.6723 175.788 97.9413 173.152 94.5254C170.516 91.1095 172.399 87.9088 176.837 87.1826Z" fill="#E39600"/>
<path d="M171.296 82.0186C171.296 84.278 165.62 90.4642 165.62 90.4642C165.62 90.4642 161.989 98.1566 157.39 98.2911C152.791 98.4256 151.58 91.4325 155.373 87.0752C159.165 82.718 154.162 79.4097 156.583 74.9179C159.676 69.1621 166.239 74.5683 166.239 74.5683C166.239 74.5683 171.215 79.7593 171.296 82.0186Z" fill="#8AA31F"/>
<path d="M55.775 161.794L49.1311 167.174C50.8401 165.473 52.0711 163.352 52.6991 161.024C53.3271 158.696 53.3301 156.243 52.7091 153.914L54.2691 149.906C52.1341 146.71 49.501 143.876 46.469 141.514C43.359 138.945 39.711 137.109 35.796 136.14C31.88 135.172 27.7971 135.097 23.8481 135.92C21.4511 136.428 19.115 137.194 16.882 138.206C14.803 139.148 12.836 140.321 11.019 141.703C30.223 126.318 69.169 102.622 86.84 79.8404C99.254 63.2308 110.352 45.6767 120.031 27.3382C121.999 24.4981 124.655 22.2031 127.75 20.6678L128.207 19.1616L148.272 19.9685L141.091 32.5561L152.549 21.152C165.997 29.7051 163.899 47.5644 163.899 47.5644C163.899 47.5644 161.855 50.7382 156.018 58.9148C151.742 64.9128 145.448 73.6273 136.438 85.8114C126.605 98.4385 115.698 110.191 103.839 120.938C96.953 127.367 89.799 133.66 82.779 139.766C73.177 147.781 63.844 155.339 55.775 161.794Z" fill="#FFDE8C"/>
<path d="M140.123 117.522C146.202 121.557 141.575 126.775 140.822 137.587C140.069 148.4 132.108 147.136 125.061 147.431C118.014 147.727 122.452 154.855 118.606 154.855C114.759 154.855 102.468 157.545 102.468 157.545C102.468 157.545 95.044 154.398 89.907 152.892C84.77 151.385 84.312 146.302 82.752 139.631C89.772 133.66 96.927 127.367 103.812 120.804C103.812 120.804 110.913 123.816 116.212 121.934C121.51 120.051 124.092 113.192 127.401 110.529C130.709 107.867 134.017 113.488 140.123 117.522Z" fill="#E39600"/>
<path d="M132.054 167.658V174.516C128.987 175.485 124.28 186.189 124.28 186.189L81.4339 187.669C78.9329 181.106 65.5649 185.84 65.5649 185.84L76.6729 164.565L76.8349 161.579C82.3609 161.863 87.8609 162.528 93.2959 163.569C106.066 166.093 119.038 167.461 132.054 167.658Z" fill="#F5C26B"/>
<path d="M76.942 161.579L76.781 164.564L54.188 188.502C51.663 188.804 49.116 188.885 46.576 188.744C42.026 188.431 37.579 187.244 33.478 185.248C33.478 185.248 24.386 191.784 10.938 186.028C-1.13801 180.89 -5.76502 155.043 10.454 142.079L11.019 141.621C12.836 140.24 14.803 139.067 16.882 138.125C19.115 137.113 21.451 136.347 23.849 135.839C14.973 140.868 18.9 155.285 28.152 156.872L20.083 163.704C25.337 167.274 31.255 169.753 37.485 170.992L42.864 164.591L43.08 170.777C45.322 169.986 47.368 168.72 49.078 167.066L55.721 161.686C62.786 161.207 69.873 161.171 76.942 161.579Z" fill="#F5C26B"/>
<path d="M54.269 149.825L52.709 153.833C53.331 156.162 53.327 158.615 52.699 160.943C52.071 163.271 50.841 165.392 49.132 167.093C47.422 168.747 45.377 170.013 43.134 170.804L42.918 164.618L37.539 171.02C31.288 169.779 25.351 167.291 20.083 163.704L28.152 156.872L46.469 141.406C49.503 143.777 52.137 146.619 54.269 149.825Z" fill="#DEA854"/>
<path d="M46.4689 141.407L28.1519 156.845C18.8999 155.258 14.9729 140.707 23.8489 135.812C27.7979 134.989 31.8808 135.064 35.7958 136.033C39.7118 137.001 43.3589 138.838 46.4689 141.407Z" fill="#5CBD99"/>
<path d="M44.6389 169.594C45.5809 168.034 46.5759 166.904 47.3289 165.506C47.9739 164.387 48.4289 163.169 48.6739 161.902C48.9269 160.69 49.0529 159.455 49.0499 158.217C49.0499 156.926 49.0499 155.527 48.9159 154.129V153.026L49.1849 152.38C49.7249 151.153 50.3349 149.959 51.0139 148.803L51.2559 151.762L50.1799 149.556C49.8039 148.803 49.3999 148.023 49.0239 147.216L46.3339 142.267L46.5759 141.917C49.5989 144.103 52.1819 146.841 54.1879 149.986V150.175L52.7079 153.886V153.698C53.1949 156.927 52.8329 160.227 51.6589 163.273C50.9879 164.771 50.0069 166.109 48.7809 167.2C47.5509 168.232 46.2169 169.133 44.8009 169.89L44.6389 169.594Z" fill="#CC9040"/>
<path d="M308.63 137.399C306.209 138.663 304.219 139.631 302.578 140.707C301.804 141.199 301.067 141.748 300.373 142.348C299.726 142.864 299.148 143.461 298.651 144.123C297.498 145.511 296.539 147.049 295.8 148.695C294.913 150.551 294.106 152.676 292.895 155.124H292.492C292.182 152.762 292.237 150.368 292.653 148.023C293.049 145.632 294.049 143.383 295.558 141.487C297.144 139.678 299.203 138.346 301.502 137.641C303.792 136.945 306.199 136.726 308.576 136.995L308.63 137.399Z" fill="#CC9040"/>
<path d="M46.549 141.568L33.424 152.784L19.975 163.811L19.814 163.623C21.368 161.134 23.17 158.809 25.193 156.684C29.163 152.487 33.593 148.752 38.399 145.549C40.913 143.898 43.59 142.51 46.388 141.406L46.549 141.568Z" fill="#459B78"/>
<path d="M46.496 141.406C44.613 143.612 42.542 145.629 40.471 147.647C38.4 149.664 36.167 151.493 34.016 153.402C31.864 155.312 29.578 157.06 27.238 158.782C24.941 160.539 22.553 162.173 20.083 163.677C28.834 156.2 37.638 148.776 46.496 141.406Z" fill="#F5C26B"/>
<path d="M323.02 144.526C320.158 140.567 317.782 136.278 315.946 131.751C314.75 129.411 313.691 127.004 312.772 124.542C312.772 128.765 312.934 133.606 312.934 137.829C311.814 137.409 310.632 137.182 309.437 137.157C310.701 144.876 311.535 152.138 312.799 159.857C313.006 153.083 312.682 146.302 311.831 139.577C313.019 139.927 314.171 140.386 315.274 140.949C315.274 139.228 315.274 137.506 315.274 135.812C317.384 141.011 321.108 145.395 325.898 148.319C325.019 146.996 324.058 145.729 323.02 144.526Z" fill="#5CBD99"/>
<path d="M312.745 159.831C312.024 158.019 311.431 156.158 310.97 154.263C310.486 152.381 310.19 150.471 309.786 148.588C309.383 146.705 309.275 144.769 309.141 142.805C309.006 140.862 309.006 138.912 309.141 136.969H309.275C310.566 144.58 311.804 152.219 312.933 159.858L312.745 159.831Z" fill="#F5C26B"/>
<path d="M20.0829 163.65C22.6829 165.458 25.4919 166.948 28.4479 168.088C31.4269 169.175 34.4729 170.074 37.5659 170.777H37.2699L42.6489 164.322L43.2409 163.623V164.564L43.5099 170.75L42.9449 170.374C46.2359 169.193 49.0199 166.913 50.8259 163.919C52.4709 160.854 52.9029 157.282 52.0359 153.913V153.752V153.564L53.5689 149.556V150.148C50.6839 145.924 46.9109 142.381 42.5149 139.766C38.1549 137.183 33.1319 135.939 28.0709 136.188C24.2919 136.325 20.5799 137.226 17.1589 138.836C13.7379 140.447 10.6779 142.733 8.16388 145.558C5.65088 148.383 3.73588 151.688 2.53488 155.274C1.33288 158.859 0.870877 162.651 1.17388 166.42C1.39088 171.429 3.03389 176.272 5.90789 180.379C7.28289 182.323 9.13588 183.879 11.2879 184.898C13.5909 185.884 16.0149 186.563 18.4959 186.915C23.3719 187.664 28.3569 186.714 32.6169 184.226L33.2889 183.822L33.9349 184.118C37.0599 185.576 40.3729 186.59 43.7789 187.13C45.4639 187.348 47.1639 187.429 48.8619 187.373C50.5329 187.381 52.2029 187.3 53.8649 187.13L53.2189 187.507L75.7319 163.515L82.8859 155.877L78.0719 165.183L67.0169 186.485L65.1619 184.333C68.0559 183.319 71.0819 182.73 74.1449 182.585C75.7939 182.499 77.4439 182.718 79.0129 183.23C79.9239 183.552 80.7539 184.067 81.4459 184.74C82.1369 185.414 82.6749 186.229 83.0209 187.13L81.4879 186.108L124.307 184.495L122.801 185.517C123.796 183.257 124.872 181.133 126.082 178.981C126.71 177.898 127.392 176.847 128.127 175.834C128.535 175.289 128.975 174.768 129.444 174.274C130.055 173.641 130.799 173.154 131.623 172.848L132.618 172.472L133.398 173.279C134.236 174.116 135.009 175.015 135.711 175.968C136.423 176.884 137.087 177.836 137.702 178.819C138.953 180.775 140.05 182.826 140.983 184.952L139.1 183.876C157.264 181.72 175.655 182.446 193.593 186.028H193.216L209.005 185.544L207.364 187.13V182.935V181.375H208.87C211.257 181.311 213.644 181.482 215.998 181.886C218.337 182.288 220.627 182.937 222.829 183.822C223.933 184.273 225.01 184.785 226.057 185.355L229.043 186.996C230.979 188.018 233.104 189.175 234.879 189.982H234.341L248.435 189.524L247.225 190.25L252.039 181.913L253.088 180.137L254.352 181.751L262.287 191.649L261.184 191.138L277.537 190.627L276.65 191.004C277.345 190.408 278.136 189.935 278.99 189.605C279.852 189.296 280.763 189.141 281.679 189.148C283.394 189.166 285.07 189.66 286.521 190.573L285.821 190.385L301.959 189.874L300.964 190.439L304.461 185.059L305.16 183.984L306.182 184.71L313.39 189.847H312.046C316.229 186.856 320.16 183.528 323.799 179.895C327.507 176.461 330.401 172.244 332.272 167.55C332.643 166.423 332.807 165.238 332.756 164.053C332.648 162.826 332.432 161.611 332.11 160.422C331.42 157.994 330.444 155.656 329.206 153.456C326.658 149.008 323.528 144.919 319.899 141.299L319.765 141.164V141.003L311.696 122.014L313.256 121.664L313.928 137.802V138.663L313.094 138.475C308.519 137.193 303.64 137.544 299.296 139.47C297.147 140.432 295.357 142.052 294.186 144.096C293.157 146.239 292.598 148.578 292.546 150.955C292.414 153.321 292.995 155.672 294.213 157.706C295.497 159.718 297.378 161.279 299.592 162.17C301.814 163.077 304.233 163.392 306.612 163.085C307.807 162.988 308.968 162.641 310.02 162.066C311.071 161.492 311.991 160.702 312.718 159.75H312.879C312.14 160.735 311.203 161.555 310.128 162.157C309.054 162.759 307.865 163.13 306.639 163.246C304.209 163.588 301.732 163.282 299.458 162.359C297.149 161.478 295.181 159.886 293.836 157.813C292.552 155.713 291.916 153.28 292.008 150.82C292.063 148.374 292.621 145.966 293.648 143.746C294.682 141.462 296.427 139.575 298.624 138.367C303.097 136.306 308.15 135.878 312.906 137.157H312.745L311.911 121.019V120.346L312.18 120.965L320.464 139.792C324.178 143.471 327.38 147.633 329.986 152.165C331.294 154.441 332.315 156.872 333.025 159.4C333.875 161.911 333.95 164.619 333.24 167.173C331.319 172.064 328.333 176.465 324.499 180.057C320.806 183.76 316.821 187.16 312.583 190.224L305.348 185.113H305.563L302.067 190.493L285.929 191.057C284.713 190.282 283.309 189.855 281.868 189.82C280.436 189.849 279.058 190.372 277.968 191.299L261.157 192.51L253.088 182.612H253.357L248.57 190.95L234.476 191.434C232.378 190.493 230.414 189.417 228.397 188.368C226.448 187.234 224.436 186.21 222.372 185.302C218.159 183.66 213.659 182.883 209.139 183.015L209.327 182.827L209.247 187.13V187.319H209.058L193.297 187.884C184.411 186.248 175.425 185.214 166.4 184.79C157.374 184.584 148.345 184.97 139.369 185.947H139.208C137.483 181.81 135.063 177.999 132.053 174.677H132.242C131.227 175.214 130.366 176.001 129.74 176.964C129.03 177.915 128.383 178.912 127.804 179.949C126.622 182 125.544 184.11 124.576 186.27L81.7299 187.722H81.5949C81.3219 187.089 80.9169 186.522 80.4069 186.058C79.8959 185.594 79.2929 185.244 78.6369 185.033C77.2849 184.588 75.8619 184.396 74.4409 184.468C71.5529 184.608 68.6999 185.16 65.9679 186.108H65.5379L65.7529 185.705L76.8879 164.457L77.1569 164.645L54.5369 188.556C52.7509 188.754 50.9549 188.844 49.1579 188.825C47.3609 188.884 45.5609 188.794 43.7789 188.556C40.2669 187.934 36.8559 186.839 33.6389 185.302H33.7999C29.2469 188.01 23.8919 189.046 18.6569 188.233C16.0629 187.864 13.5309 187.149 11.1259 186.108C8.71689 185.018 6.63888 183.311 5.10088 181.159C2.08688 176.835 0.369874 171.74 0.151874 166.474C-0.169126 161.222 0.848874 155.974 3.11087 151.224C5.55087 146.561 9.16788 142.619 13.6029 139.788C18.0389 136.956 23.1379 135.335 28.3939 135.086C33.6589 134.847 38.8759 136.187 43.3749 138.932C47.8489 141.673 51.6829 145.342 54.6179 149.69L53.0579 153.698C53.9229 157.235 53.4339 160.967 51.6859 164.161C49.7779 167.352 46.8069 169.771 43.2949 170.993V170.831L43.0789 164.618H43.2679L37.8879 171.019C34.7939 170.323 31.7479 169.424 28.7699 168.33C25.8079 167.159 22.9999 165.632 20.4059 163.784L20.0829 163.65Z" fill="#FFDE8C"/>
<path d="M10.1851 141.783C20.6751 133.364 31.7031 125.833 42.4611 117.845C53.3671 110.068 63.8031 101.653 73.7151 92.643C83.3761 83.397 91.8421 72.9789 98.9171 61.6312C106.323 50.4602 113.19 38.9664 119.52 27.1498C120.562 25.7359 121.733 24.4213 123.017 23.2229C124.338 21.9544 125.916 20.9824 127.643 20.3718L127.885 21.1518C126.494 22.0365 125.311 23.2108 124.415 24.5946C123.931 25.267 123.447 25.9125 123.017 26.6387C122.58 27.3084 122.193 28.0097 121.86 28.7367L122.021 28.4677C117.416 41.313 111.645 53.7102 104.781 65.5043C101.33 71.4568 97.5771 77.2292 93.5381 82.7989C91.4941 85.4885 89.1001 88.5009 86.7331 91.1099C84.3851 93.675 81.8881 96.0999 79.2561 98.372C74.1271 103.021 68.7391 107.377 63.1181 111.417C57.5771 115.424 51.9291 119.217 46.1461 122.713C34.6071 129.868 22.7461 136.162 10.6431 142.294L10.1851 141.783Z" fill="#FFEBB5"/>
<path d="M162.043 32.6635C160.273 27.852 156.976 23.7522 152.657 20.9903H152.522H152.388L142.194 31.1304L148.487 20.1297L148.703 19.7531H148.192L128.1 19H127.939V19.1345C126.54 23.8414 125.007 28.5214 123.285 33.1207C121.637 37.735 119.669 42.2287 117.395 46.569L117.637 46.7035C119.035 44.6518 120.302 42.5137 121.43 40.3021C122.559 38.0966 123.662 35.8642 124.684 33.6049C126.405 29.5435 127.965 25.5359 129.472 21.2324C132.323 21.4476 135.201 21.5821 138.079 21.7435L144.238 22.0931C143.673 23.0883 143.081 24.0566 142.517 25.0786L139.02 31.4262L130.951 46.2732L142.732 34.1697L148.38 28.3869C149.859 26.8538 151.366 25.3207 152.845 23.7607C156.299 26.0989 159.014 29.374 160.672 33.2014C161.698 35.4191 162.465 37.7475 162.958 40.1407C163.467 42.5838 163.746 45.0691 163.792 47.5642H164.061C164.511 42.5089 163.821 37.4171 162.043 32.6635Z" fill="#F5C26B"/>
<path d="M84.366 137.426C89.853 132.656 95.232 127.815 100.504 122.902L112.365 122.633C108.842 125.887 105.265 129.088 101.607 132.181C96.227 136.619 90.848 141.111 85.012 145.145L84.124 145.791L84.366 137.426Z" fill="#D47300"/>
<path d="M54.7529 162.036C64.7309 153.967 74.6559 145.898 84.3389 137.426V145.791C76.6049 151.462 68.5789 156.723 60.2929 161.552L54.7529 162.036Z" fill="#6AB796"/>
<path d="M60.186 161.552C56.6 163.596 53.014 165.551 49.427 167.415L48.916 166.77L54.807 162.036L60.186 161.552Z" fill="#CC9040"/>
<path d="M155.642 58.6726C158.332 54.934 161.021 51.1684 163.549 47.3491L164.249 47.7795C162.608 51.7064 160.86 55.4988 158.869 59.2374L155.642 58.6726Z" fill="#DEA854"/>
<path d="M158.95 59.2372C154.512 68.113 149.456 76.5586 144.238 84.8696L141.548 89.2807C140.58 90.8138 139.504 92.2662 138.455 93.7455C136.33 96.6503 134.151 99.5014 131.892 102.299C127.32 107.678 122.398 112.923 117.449 117.979L112.446 122.579L100.584 122.848C104.35 119.351 108.062 115.765 111.72 112.089C121.769 102.54 130.95 92.117 139.154 80.9427C144.695 73.5193 150.236 66.0689 155.642 58.5378L158.95 59.2372Z" fill="#6AB796"/>
<path d="M48.9429 166.878C53.7309 161.741 58.8679 157.061 63.7899 152.112C68.7119 147.163 73.8489 142.536 78.9329 137.829L94.0219 123.655C99.0509 118.948 104.054 114.214 108.896 109.346C113.737 104.478 118.605 99.69 123.232 94.6873C125.572 92.2128 127.831 89.6845 130.036 87.1024L136.572 79.0335C140.929 73.6541 145.421 68.2748 150.021 62.8955C154.62 57.5162 158.95 52.6479 163.684 47.4299L164.114 47.7258C156.368 59.2644 148.165 70.4803 139.907 81.6962C131.748 92.9742 122.612 103.513 112.607 113.192C92.4349 132.315 71.2829 150.378 49.2389 167.308L48.9429 166.878Z" fill="#C9DE8C"/>
<path d="M289.856 96.624C291.361 105.16 292.304 113.785 292.68 122.445C293.084 131.105 293.111 139.766 292.68 148.427H292.142C290.663 139.712 289.587 131.186 288.485 122.714C287.839 118.491 287.409 114.268 286.682 110.072C286.414 108.297 286.171 106.495 285.876 104.693L289.856 96.624Z" fill="#6AB796"/>
<path d="M285.849 104.665C285.472 102.298 285.069 99.9583 284.558 97.6183C283.918 93.5899 282.974 89.6157 281.733 85.73C280.555 81.853 279.071 78.0756 277.296 74.4334C275.253 70.2994 272.916 66.3174 270.302 62.5182L273.611 62.2493C276.355 65.3565 278.812 68.7053 280.953 72.2548C285.407 79.76 288.443 88.0201 289.91 96.6231L285.849 104.665Z" fill="#7A9600"/>
<path d="M270.249 62.5186C268.151 59.3717 265.891 56.2248 263.632 52.9435L264.009 52.5669C267.365 55.6186 270.552 58.851 273.557 62.2497L270.249 62.5186Z" fill="#DEA854"/>
<path d="M264.009 52.6477C271.843 57.1236 278.615 63.244 283.858 70.5877C286.496 74.3663 288.689 78.4367 290.394 82.7181C291.998 86.9975 293.231 91.4069 294.079 95.8975C294.832 100.309 295.424 104.72 295.773 109.131C296.123 113.542 296.285 117.953 296.096 122.337C295.998 131.166 294.842 139.953 292.653 148.507H292.116C292.492 139.873 292.358 131.213 291.874 122.606C291.404 113.987 290.38 105.407 288.807 96.9195C287.447 88.391 284.529 80.1855 280.2 72.7126C275.668 65.3685 270.086 58.7265 263.632 52.9974L264.009 52.6477Z" fill="#C9DE8C"/>
<path d="M279.985 35.1922C278.783 34.9905 277.556 34.9905 276.354 35.1922C275.237 35.4205 274.165 35.8293 273.18 36.4025L273.826 35.3266C274.041 37.3708 274.417 39.4418 274.498 41.5129V44.4177L271.97 42.9115C269.28 41.2708 266.241 39.8184 263.524 37.9894L265.622 37.7742C264.554 38.7602 263.598 39.8606 262.771 41.0556C261.985 42.2249 261.352 43.4904 260.888 44.8211C260.511 46.1254 260.626 47.5228 261.211 48.7481C261.992 50.1116 262.873 51.4152 263.847 52.6481L263.686 52.8094C262.498 51.7243 261.409 50.5362 260.431 49.2591C259.531 47.8668 259.203 46.1804 259.517 44.5522C259.815 42.9591 260.428 41.4413 261.319 40.0873C262.18 38.7166 263.2 37.4526 264.358 36.3218H264.493L272.83 41.4053L272.588 41.5667L272.4 35.3535C273.558 34.8164 274.812 34.5181 276.087 34.4765C277.363 34.4349 278.633 34.6509 279.824 35.1115L279.985 35.1922Z" fill="#F5C26B"/>
<path d="M333.294 163.677C331.089 158.297 329.341 152.595 327.162 147.135L321.245 130.648L315.328 114.241C313.364 108.861 311.401 103.321 309.303 97.9144C307.205 92.5082 305.214 87.1558 303.036 81.7765C300.857 76.3971 298.625 71.0178 296.365 65.7999C294.106 60.5819 291.578 55.3102 288.861 50.2267C287.57 47.5371 286.172 45.0895 284.692 42.615C283.213 40.1405 281.545 37.7198 279.824 35.326L280.2 34.9495C288.253 43.5299 294.964 53.2779 300.104 63.8633C305.458 74.3421 310.208 85.1183 314.332 96.1392C318.421 107.14 322.052 118.302 325.306 129.572C328.561 140.841 331.492 152.165 333.779 163.569L333.294 163.677Z" fill="#FFEBB5"/>
<path d="M163.899 47.51C166.746 47.9996 169.539 48.7652 172.237 49.7962C174.927 50.7914 177.616 51.8942 180.306 53.1314L186.788 52.8893L192.705 60.2859H192.517C194.064 58.2157 195.753 56.2564 197.574 54.4224C199.345 52.517 201.463 50.9654 203.814 49.85C205.017 49.276 206.395 49.1893 207.66 49.6079C208.897 50.0383 210.108 50.4148 211.345 50.7645C213.826 51.4733 216.351 52.0213 218.903 52.4052C219.67 53.7225 220.795 54.7956 222.146 55.5001C223.498 56.2046 225.022 56.5117 226.541 56.3859C227.998 55.9192 229.411 55.3252 230.764 54.6107C232.221 54.0516 233.753 53.7161 235.31 53.6155C236.859 53.4948 238.418 53.6036 239.936 53.9383L244.347 55.3369L253.169 58.0266L263.847 52.6473L253.411 58.6452H253.25H253.008C250.022 57.8652 247.064 56.9507 244.105 56.09L239.64 55.0142C238.224 54.7277 236.774 54.6551 235.337 54.799C233.899 54.9389 232.488 55.2737 231.141 55.7942C230.472 56.0587 229.825 56.3734 229.204 56.7355C228.431 57.1914 227.585 57.5099 226.703 57.6769C224.912 58.0039 223.064 57.6591 221.512 56.7086C220.021 55.8355 218.744 54.641 217.773 53.2121L218.58 53.7231C215.975 53.3484 213.397 52.8094 210.861 52.1093C209.596 51.7597 208.332 51.3562 207.095 50.899C206.131 50.5743 205.078 50.6419 204.163 51.0873C201.99 52.1344 200.029 53.5753 198.381 55.3369C196.581 57.1 194.917 58.9972 193.405 61.0121L192.571 62.1418L191.737 61.0659L186.008 53.5348L186.681 53.8307H180.199H180.01H179.876C177.321 52.5666 174.739 51.3024 172.076 50.2266C169.48 49.0706 166.777 48.1698 164.007 47.5369L163.899 47.51Z" fill="#DEA854"/>
<path d="M266.107 98.3724C255.563 87.6138 238.269 81.7772 238.08 81.7234L239.748 76.613C240.528 76.8551 258.575 82.8262 269.953 94.6338L266.107 98.3724Z" fill="#DB0D00"/>
<path d="M241.63 103.187L237.757 99.4213C238.51 98.6682 256.208 80.5936 265.515 72.5247L269.038 76.5861C259.893 84.4399 241.792 102.999 241.63 103.187Z" fill="#DB0D00"/>
<path d="M35.791 125.537C42.961 121.201 49.884 116.469 56.528 111.363C63.2 106.335 69.593 100.948 75.679 95.2249C88.208 84.0513 98.598 70.6899 106.341 55.7944L106.825 56.0365C104.688 64.4497 101.043 72.4055 96.066 79.5173C93.658 83.1061 91.036 86.5461 88.213 89.8186C85.523 93.0731 82.376 96.1394 79.31 99.1518C76.244 102.164 72.881 104.854 69.519 107.517C66.157 110.179 62.688 112.654 59.03 114.886C51.86 119.607 44.113 123.386 35.979 126.129L35.791 125.537Z" fill="white"/>
<path d="M297.333 105.957C298.323 108.009 298.977 110.207 299.27 112.466C299.583 114.657 299.682 116.873 299.566 119.083C299.396 123.574 298.141 127.958 295.908 131.858H295.666C296.257 127.582 296.688 123.278 296.876 118.948C297.181 114.643 297.244 110.323 297.064 106.011L297.333 105.957Z" fill="white"/>
<path d="M270.06 54.988C272.667 55.4513 275.139 56.4896 277.295 58.0274C279.485 59.4724 281.474 61.1996 283.212 63.1646C284.923 65.1344 286.378 67.3123 287.543 69.6467C288.734 71.989 289.517 74.5179 289.856 77.1239H289.614C287.327 72.6796 284.489 68.5408 281.168 64.8053C277.976 61.0432 274.176 57.843 269.926 55.3377L270.06 54.988Z" fill="white"/>
</g>
</g>
<defs>
<filter id="filter0_ddddd_1012_10431" x="-230" y="0" width="583.779" height="437.51" filterUnits="userSpaceOnUse" color-interpolation-filters="sRGB">
<feFlood flood-opacity="0" result="BackgroundImageFix"/>
<feColorMatrix in="SourceAlpha" type="matrix" values="0 0 0 0 0 0 0 0 0 0 0 0 0 0 0 0 0 0 127 0" result="hardAlpha"/>
<feOffset/>
<feGaussianBlur stdDeviation="2"/>
<feColorMatrix type="matrix" values="0 0 0 0 0 0 0 0 0 0 0 0 0 0 0 0 0 0 0.1 0"/>
<feBlend mode="normal" in2="BackgroundImageFix" result="effect1_dropShadow_1012_10431"/>
<feColorMatrix in="SourceAlpha" type="matrix" values="0 0 0 0 0 0 0 0 0 0 0 0 0 0 0 0 0 0 127 0" result="hardAlpha"/>
<feOffset dx="-9" dy="10"/>
<feGaussianBlur stdDeviation="14.5"/>
<feColorMatrix type="matrix" values="0 0 0 0 0 0 0 0 0 0 0 0 0 0 0 0 0 0 0.1 0"/>
<feBlend mode="normal" in2="effect1_dropShadow_1012_10431" result="effect2_dropShadow_1012_10431"/>
<feColorMatrix in="SourceAlpha" type="matrix" values="0 0 0 0 0 0 0 0 0 0 0 0 0 0 0 0 0 0 127 0" result="hardAlpha"/>
<feOffset dx="-36" dy="40"/>
<feGaussianBlur stdDeviation="27"/>
<feColorMatrix type="matrix" values="0 0 0 0 0 0 0 0 0 0 0 0 0 0 0 0 0 0 0.09 0"/>
<feBlend mode="normal" in2="effect2_dropShadow_1012_10431" result="effect3_dropShadow_1012_10431"/>
<feColorMatrix in="SourceAlpha" type="matrix" values="0 0 0 0 0 0 0 0 0 0 0 0 0 0 0 0 0 0 127 0" result="hardAlpha"/>
<feOffset dx="-81" dy="89"/>
<feGaussianBlur stdDeviation="36"/>
<feColorMatrix type="matrix" values="0 0 0 0 0 0 0 0 0 0 0 0 0 0 0 0 0 0 0.05 0"/>
<feBlend mode="normal" in2="effect3_dropShadow_1012_10431" result="effect4_dropShadow_1012_10431"/>
<feColorMatrix in="SourceAlpha" type="matrix" values="0 0 0 0 0 0 0 0 0 0 0 0 0 0 0 0 0 0 127 0" result="hardAlpha"/>
<feOffset dx="-144" dy="159"/>
<feGaussianBlur stdDeviation="43"/>
<feColorMatrix type="matrix" values="0 0 0 0 0 0 0 0 0 0 0 0 0 0 0 0 0 0 0.01 0"/>
<feBlend mode="normal" in2="effect4_dropShadow_1012_10431" result="effect5_dropShadow_1012_10431"/>
<feBlend mode="normal" in="SourceGraphic" in2="effect5_dropShadow_1012_10431" result="shape"/>
</filter>
<clipPath id="clip0_1012_10431">
<rect width="354" height="438" fill="white"/>
</clipPath>
</defs>
</svg>
