<svg width="35" height="35" viewBox="0 0 35 35" fill="none" xmlns="http://www.w3.org/2000/svg">
<g clip-path="url(#clip0_301_21609)">
<path d="M19.6586 12.7914C19.1572 14.6474 18.3812 16.0497 17.9254 15.9278C17.4696 15.8059 17.506 14.2008 18.0074 12.3463C18.5088 10.4918 19.2842 9.08749 19.7405 9.21092C20.1968 9.33435 20.1594 10.9364 19.6586 12.7914Z" fill="url(#paint0_linear_301_21609)"/>
<path d="M22.0447 3.62831L20.5614 3.22754L19.2131 8.21775L20.6963 8.61852L22.0447 3.62831Z" fill="url(#paint1_linear_301_21609)"/>
<g style="mix-blend-mode:multiply" opacity="0.7">
<path d="M20.6956 8.61946L22.0441 3.62904L20.5588 3.22803L20.2812 4.25848C20.5332 4.24875 20.8492 4.27282 21.0976 4.41212C21.4136 4.58882 20.7903 6.89863 20.3094 8.516L20.6956 8.61946Z" fill="#EDCAAB"/>
</g>
<path d="M23.0469 2.68057C22.7099 3.92767 21.9345 4.23752 21.1402 4.02241C20.3458 3.80731 19.8316 3.15176 20.1671 1.90261C20.5025 0.653474 21.4219 -0.181334 22.2157 0.0337697C23.0095 0.248874 23.386 1.43399 23.0469 2.68057Z" fill="url(#paint2_linear_301_21609)"/>
<g style="mix-blend-mode:multiply" opacity="0.7">
<path d="M22.6884 0.320068C22.7829 0.815696 22.7605 1.32654 22.6228 1.81197C22.2858 3.05906 21.511 3.36891 20.7161 3.15432C20.4801 3.09505 20.2612 2.98179 20.0764 2.82347C20.1476 3.48568 20.5706 3.86877 21.1402 4.02242C21.9345 4.23752 22.7099 3.92767 23.0469 2.68058C23.3096 1.71568 23.1452 0.789712 22.6884 0.320068Z" fill="#EDCAAB"/>
</g>
<path d="M21.6128 1.08928C21.3322 1.36841 20.9983 1.48723 20.8661 1.35458C20.734 1.22193 20.8538 0.888008 21.134 0.608885C21.4141 0.329762 21.7486 0.210943 21.8812 0.34359C22.0139 0.476238 21.8904 0.810161 21.6128 1.08928Z" fill="#EB9B4B"/>
<path d="M18.4094 13.2492C18.3233 13.6354 18.0334 14.5188 17.8972 14.4886C17.761 14.4584 17.8337 13.5263 17.9202 13.1401C18.0068 12.754 18.1855 12.4656 18.3202 12.4958C18.4549 12.526 18.4959 12.863 18.4094 13.2492Z" fill="#EB9B4B"/>
<g style="mix-blend-mode:multiply" opacity="0.7">
<path d="M19.6585 12.7913C19.8051 12.2553 19.9164 11.7102 19.9914 11.1596L18.5937 10.6475C18.4805 10.9066 18.3704 11.1924 18.2654 11.4997C18.3761 11.5734 18.5497 11.6487 18.7674 11.7737C19.2723 12.0631 19.2959 12.5644 19.2283 12.9516C19.1607 13.3388 18.8795 14.2064 18.6803 14.5229C18.4754 14.8502 17.8378 14.8077 17.6165 14.6202C17.5792 15.3582 17.6806 15.8607 17.9274 15.9272C18.3812 16.0496 19.1571 14.6474 19.6585 12.7913Z" fill="#EDCAAB"/>
</g>
<path d="M21.5335 7.4291C21.3906 7.36098 21.0459 7.21912 20.3305 7.02552C19.6437 6.84013 19.2764 6.78584 19.1085 6.76945C19.0255 6.76177 18.9927 6.75613 19.0147 6.67572C19.0311 6.61478 19.3568 6.02836 19.4516 5.67805C19.4823 5.56589 19.681 5.43068 20.6879 5.70263C21.6948 5.97459 21.7778 6.17279 21.7522 6.266C21.6595 6.60761 21.6554 7.34152 21.6416 7.38966C21.6242 7.45778 21.5955 7.45829 21.5335 7.4291Z" fill="url(#paint3_linear_301_21609)"/>
<g style="mix-blend-mode:multiply" opacity="0.7">
<path d="M21.5335 7.42915C21.5955 7.45834 21.6242 7.45783 21.6416 7.39279C21.6554 7.34157 21.6595 6.61073 21.7522 6.26912C21.767 6.21279 21.743 6.12111 21.5186 6.00024C21.4818 6.21381 21.428 6.51905 21.3015 6.7106C21.0874 7.03479 20.3566 6.61585 19.1131 6.4704C19.0619 6.57642 19.0199 6.65631 19.0147 6.67526C18.9927 6.75567 19.0255 6.7613 19.1085 6.76898C19.2764 6.78486 19.6437 6.83915 20.3305 7.02506C21.0459 7.22122 21.3906 7.36103 21.5335 7.42915Z" fill="#EDCAAB"/>
</g>
<path d="M20.7207 10.4361C20.5629 10.4228 20.1942 10.3721 19.4787 10.1801C18.7919 9.99467 18.4467 9.85639 18.2941 9.78571C18.2183 9.75037 18.1876 9.73911 18.1656 9.81951C18.1492 9.88046 18.1353 10.5509 18.0406 10.9017C18.0104 11.0139 18.1143 11.2305 19.1212 11.5024C20.1281 11.7744 20.2992 11.6453 20.3253 11.5496C20.4175 11.2085 20.7821 10.5765 20.796 10.5253C20.8134 10.4571 20.7893 10.4418 20.7207 10.4361Z" fill="url(#paint4_linear_301_21609)"/>
<g style="mix-blend-mode:multiply" opacity="0.7">
<path d="M20.7207 10.4361C20.7893 10.4417 20.8134 10.4571 20.7959 10.5216C20.7821 10.5728 20.4175 11.2069 20.3253 11.5459C20.3104 11.6022 20.2433 11.6693 19.9883 11.6606C20.0641 11.4583 20.1711 11.1669 20.1588 10.938C20.1373 10.5498 19.2948 10.5441 18.1471 10.0432C18.1548 9.92494 18.1604 9.83839 18.1655 9.81585C18.1876 9.73544 18.2167 9.74671 18.2941 9.78205C18.4477 9.85273 18.7919 9.99101 19.4787 10.1764C20.1942 10.372 20.5629 10.4228 20.7207 10.4361Z" fill="#EDCAAB"/>
</g>
<path d="M15.6965 12.6444C16.6537 14.3105 17.0977 15.8515 16.688 16.0866C16.2783 16.3217 15.171 15.1622 14.2138 13.4961C13.2566 11.8301 12.8125 10.289 13.2223 10.054C13.632 9.81888 14.7398 10.9784 15.6965 12.6444Z" fill="url(#paint5_linear_301_21609)"/>
<path d="M10.905 4.47821L9.57275 5.24365L12.148 9.72568L13.4802 8.96024L10.905 4.47821Z" fill="url(#paint6_linear_301_21609)"/>
<g style="mix-blend-mode:multiply" opacity="0.7">
<path d="M13.4799 8.96266L10.9048 4.47876L9.57324 5.24392L10.1049 6.16938C10.2759 5.98449 10.5146 5.77758 10.7901 5.70024C11.1384 5.60191 12.3317 7.67511 13.1348 9.15984L13.4799 8.96266Z" fill="#EDCAAB"/>
</g>
<path d="M10.9447 3.0975C11.588 4.21758 11.2592 4.98478 10.5452 5.39501C9.83129 5.80525 9.00314 5.70231 8.35936 4.58274C7.71558 3.46318 7.77295 2.22223 8.48689 1.812C9.20083 1.40176 10.3009 1.97742 10.9447 3.0975Z" fill="url(#paint7_linear_301_21609)"/>
<g style="mix-blend-mode:multiply" opacity="0.7">
<path d="M9.02162 1.68237C9.43889 1.96593 9.78419 2.34297 10.0301 2.7835C10.6738 3.90358 10.3445 4.67078 9.63108 5.08102C9.42234 5.20558 9.18765 5.28024 8.94531 5.2992C9.46412 5.7166 10.0341 5.68843 10.5453 5.39497C11.2592 4.98525 11.588 4.21702 10.9448 3.09745C10.448 2.23038 9.67564 1.69262 9.02162 1.68237Z" fill="#EDCAAB"/>
</g>
<path d="M8.80236 2.98996C8.80236 3.38534 8.64872 3.70698 8.46178 3.70698C8.27485 3.70698 8.12325 3.38534 8.12427 2.98996C8.1253 2.59458 8.27792 2.27295 8.46485 2.27295C8.65179 2.27295 8.80287 2.59407 8.80236 2.98996Z" fill="#EB9B4B"/>
<path d="M15.1377 13.8511C15.3497 14.185 15.7692 15.0147 15.6524 15.0889C15.5356 15.1632 14.9272 14.4533 14.7152 14.1194C14.5031 13.7855 14.4258 13.4536 14.5426 13.3809C14.6594 13.3082 14.9257 13.5171 15.1377 13.8511Z" fill="#EB9B4B"/>
<g style="mix-blend-mode:multiply" opacity="0.7">
<path d="M15.6964 12.6444C15.4214 12.1615 15.1148 11.6973 14.7787 11.2549L13.4276 11.8818C13.53 12.1445 13.655 12.4246 13.7984 12.7161C13.9285 12.6899 14.1057 12.6203 14.3469 12.5547C14.9103 12.4011 15.2796 12.7401 15.5044 13.0633C15.7292 13.3865 16.1451 14.1972 16.2276 14.5619C16.3131 14.9388 15.8332 15.3588 15.5443 15.3813C16.0401 15.9298 16.4662 16.213 16.688 16.0855C17.0977 15.8515 16.6537 14.3104 15.6964 12.6444Z" fill="#EDCAAB"/>
</g>
<path d="M13.2309 7.52862C13.0814 7.57983 12.7377 7.72477 12.095 8.09199C11.4804 8.44588 11.1798 8.66713 11.0502 8.7752C10.9857 8.82641 10.959 8.8469 10.9176 8.7752C10.8858 8.7204 10.7019 8.07509 10.5211 7.76011C10.4633 7.65768 10.5083 7.42363 11.4128 6.90379C12.3173 6.38396 12.516 6.46539 12.5652 6.55143C12.7413 6.85872 13.2555 7.37856 13.2822 7.42209C13.316 7.48304 13.2955 7.50403 13.2309 7.52862Z" fill="url(#paint8_linear_301_21609)"/>
<g style="mix-blend-mode:multiply" opacity="0.7">
<path d="M13.231 7.52861C13.2955 7.50608 13.3155 7.48508 13.2822 7.42618C13.2561 7.3806 12.7419 6.86025 12.5652 6.55552C12.5365 6.50431 12.4546 6.45719 12.2103 6.53043C12.3352 6.70712 12.513 6.96166 12.559 7.1865C12.6369 7.56703 11.8236 7.78725 10.8418 8.56419C10.8792 8.67635 10.9074 8.76137 10.9176 8.77929C10.9591 8.85099 10.9857 8.83051 11.0502 8.77929C11.1798 8.67123 11.4784 8.44998 12.095 8.09608C12.7378 7.72272 13.0814 7.57983 13.231 7.52861Z" fill="#EDCAAB"/>
</g>
<path d="M14.7822 10.2275C14.6619 10.3299 14.3648 10.5543 13.7221 10.9235C13.1049 11.2779 12.7639 11.4244 12.6051 11.4823C12.5267 11.511 12.497 11.5248 12.5385 11.597C12.5697 11.6518 13.0343 12.1358 13.2156 12.4508C13.2734 12.5532 13.4998 12.6311 14.4043 12.1117C15.3087 11.5924 15.3384 11.3793 15.2893 11.2923C15.1131 10.985 14.9226 10.2798 14.8965 10.2342C14.8627 10.1768 14.835 10.183 14.7822 10.2275Z" fill="url(#paint9_linear_301_21609)"/>
<g style="mix-blend-mode:multiply" opacity="0.7">
<path d="M14.7822 10.2276C14.8335 10.183 14.8627 10.1764 14.8965 10.2353C14.9226 10.2808 15.1131 10.9866 15.2893 11.2934C15.3185 11.3446 15.3185 11.4388 15.132 11.613C15.0424 11.4158 14.9123 11.1346 14.7413 10.9815C14.4519 10.7223 13.8517 11.3139 12.686 11.7707C12.6082 11.6816 12.5487 11.6171 12.5385 11.5971C12.497 11.5249 12.5267 11.511 12.6051 11.4824C12.7639 11.4245 13.1049 11.2775 13.7221 10.9236C14.3648 10.5543 14.6619 10.33 14.7822 10.2276Z" fill="#EDCAAB"/>
</g>
<path d="M12.7915 15.3415C14.6461 15.8429 16.0499 16.6188 15.9269 17.0747C15.804 17.5305 14.2 17.4941 12.3455 16.9927C10.491 16.4913 9.08664 15.7159 9.21007 15.2622C9.3335 14.8084 10.9365 14.8407 12.7915 15.3415Z" fill="url(#paint10_linear_301_21609)"/>
<path d="M3.6778 12.9144L3.27832 14.4048L8.2924 15.7488L8.69188 14.2584L3.6778 12.9144Z" fill="url(#paint11_linear_301_21609)"/>
<g style="mix-blend-mode:multiply" opacity="0.7">
<path d="M8.61958 14.3042L3.62917 12.9573L3.22815 14.4425L4.2586 14.7211C4.24887 14.4692 4.27294 14.1532 4.41225 13.9048C4.58894 13.5888 6.89875 14.2121 8.51613 14.693L8.61958 14.3042Z" fill="#EDCAAB"/>
</g>
<path d="M2.6807 11.9509C3.92728 12.2879 4.23764 13.0633 4.02254 13.8576C3.80743 14.652 3.15188 15.1662 1.90274 14.8307C0.653597 14.4953 -0.181212 13.5765 0.0338918 12.7821C0.248996 11.9878 1.43412 11.6139 2.6807 11.9509Z" fill="url(#paint12_linear_301_21609)"/>
<g style="mix-blend-mode:multiply" opacity="0.7">
<path d="M0.32019 12.3105C0.815818 12.216 1.32667 12.2384 1.81209 12.3761C3.05918 12.713 3.36904 13.4879 3.15444 14.2828C3.09502 14.5184 2.98177 14.737 2.82359 14.9215C3.48581 14.8503 3.8689 14.4272 4.02254 13.8577C4.23765 13.0634 3.92728 12.288 2.6807 11.951C1.71581 11.6903 0.789834 11.8547 0.32019 12.3105Z" fill="#EDCAAB"/>
</g>
<path d="M1.08941 13.3896C1.36853 13.6703 1.48735 14.0042 1.3547 14.1363C1.22205 14.2685 0.888131 14.1486 0.609007 13.8685C0.329884 13.5883 0.211065 13.2539 0.343712 13.1213C0.47636 12.9886 0.810283 13.111 1.08941 13.3896Z" fill="#EB9B4B"/>
<path d="M13.2494 16.5906C13.6356 16.6767 14.5191 16.9666 14.4889 17.1028C14.4586 17.239 13.5265 17.1663 13.1404 17.0797C12.7542 16.9932 12.4659 16.8145 12.4961 16.6798C12.5263 16.5451 12.8633 16.5041 13.2494 16.5906Z" fill="#EB9B4B"/>
<g style="mix-blend-mode:multiply" opacity="0.7">
<path d="M12.7916 15.3414C12.2556 15.1948 11.7105 15.0836 11.1599 15.0085C11.0303 15.3609 10.8014 15.9888 10.6477 16.4062C10.9069 16.5194 11.1926 16.6295 11.4999 16.7345C11.5737 16.6239 11.649 16.4503 11.7739 16.2326C12.0633 15.7276 12.5647 15.704 12.9519 15.7717C13.3391 15.8393 14.2067 16.1204 14.5232 16.3197C14.8504 16.5245 14.8079 17.1621 14.6205 17.3834C15.3585 17.4208 15.8609 17.3194 15.9275 17.0725C16.0499 16.6188 14.6476 15.8428 12.7916 15.3414Z" fill="#EDCAAB"/>
</g>
<path d="M7.42939 13.4665C7.36127 13.6094 7.2194 13.9541 7.02581 14.6696C6.84041 15.3564 6.78612 15.7236 6.76973 15.8916C6.76205 15.975 6.75642 16.0073 6.67601 15.9853C6.61506 15.9689 6.02865 15.6432 5.67783 15.5484C5.56618 15.5182 5.43097 15.319 5.70292 14.3121C5.97487 13.3052 6.17308 13.2222 6.26629 13.2478C6.60789 13.3405 7.34181 13.3446 7.38995 13.3584C7.45807 13.3759 7.45858 13.4045 7.42939 13.4665Z" fill="url(#paint13_linear_301_21609)"/>
<g style="mix-blend-mode:multiply" opacity="0.7">
<path d="M7.42927 13.4663C7.45846 13.4044 7.45795 13.3757 7.39291 13.3583C7.34169 13.3445 6.61085 13.3404 6.26925 13.2477C6.21291 13.2328 6.12123 13.2569 6.00037 13.4812C6.21393 13.5181 6.51918 13.5718 6.71072 13.6983C7.03491 13.9124 6.61597 14.6433 6.47052 15.8868C6.57654 15.938 6.65643 15.98 6.67538 15.9851C6.75579 16.0071 6.76142 15.9744 6.76911 15.8914C6.78498 15.7234 6.83927 15.3562 7.02518 14.6694C7.22134 13.9539 7.36116 13.6092 7.42927 13.4663Z" fill="#EDCAAB"/>
</g>
<path d="M10.4361 14.2792C10.4228 14.437 10.3721 14.8057 10.1801 15.5212C9.99467 16.208 9.85639 16.5527 9.78571 16.7058C9.75037 16.7816 9.73911 16.8123 9.81951 16.8344C9.88046 16.8507 10.5509 16.8646 10.9017 16.9593C11.0139 16.9895 11.2305 16.8856 11.5024 15.8787C11.7744 14.8718 11.6453 14.7007 11.5496 14.6746C11.2085 14.5824 10.5765 14.2178 10.5253 14.2039C10.4566 14.1865 10.4418 14.2106 10.4361 14.2792Z" fill="url(#paint14_linear_301_21609)"/>
<g style="mix-blend-mode:multiply" opacity="0.7">
<path d="M10.4362 14.2792C10.4418 14.2106 10.4567 14.1865 10.5217 14.2039C10.5729 14.2178 11.207 14.5824 11.546 14.6746C11.6024 14.6895 11.6695 14.7566 11.6607 15.0111C11.4584 14.9358 11.167 14.8288 10.9381 14.8411C10.5499 14.8626 10.5443 15.7051 10.0434 16.8528C9.92506 16.8451 9.83851 16.8395 9.81597 16.8344C9.73557 16.8123 9.74683 16.7831 9.78217 16.7058C9.85285 16.5522 9.99113 16.208 10.1765 15.5212C10.3722 14.8057 10.4229 14.437 10.4362 14.2792Z" fill="#EDCAAB"/>
</g>
<path d="M12.6445 19.3035C14.3106 18.3463 15.8516 17.9023 16.0867 18.312C16.3218 18.7217 15.1623 19.829 13.4963 20.7862C11.8302 21.7434 10.2892 22.1874 10.0541 21.7777C9.819 21.368 10.9785 20.2602 12.6445 19.3035Z" fill="url(#paint15_linear_301_21609)"/>
<path d="M4.47833 24.0943L5.24377 25.4265L9.7258 22.8513L8.96036 21.5191L4.47833 24.0943Z" fill="url(#paint16_linear_301_21609)"/>
<g style="mix-blend-mode:multiply" opacity="0.7">
<path d="M8.96266 21.52L4.47876 24.0951L5.24392 25.4267L6.16938 24.8951C5.98449 24.724 5.77758 24.4854 5.70024 24.2098C5.6014 23.8616 7.67511 22.6683 9.15984 21.8652L8.96266 21.52Z" fill="#EDCAAB"/>
</g>
<path d="M3.0975 24.0552C4.21758 23.412 4.98478 23.7408 5.39501 24.4547C5.80525 25.1687 5.70231 25.9968 4.58274 26.6406C3.46318 27.2844 2.22223 27.227 1.812 26.5131C1.40176 25.7991 1.97742 24.699 3.0975 24.0552Z" fill="url(#paint17_linear_301_21609)"/>
<g style="mix-blend-mode:multiply" opacity="0.7">
<path d="M1.6825 25.9784C1.96605 25.5611 2.3431 25.2158 2.78362 24.9699C3.9037 24.3262 4.67091 24.6555 5.08114 25.3689C5.2057 25.5776 5.28037 25.8123 5.29932 26.0547C5.71672 25.5359 5.68855 24.9658 5.39509 24.4547C4.98537 23.7408 4.21714 23.412 3.09757 24.0552C2.2305 24.553 1.69274 25.3244 1.6825 25.9784Z" fill="#EDCAAB"/>
</g>
<path d="M2.98947 26.1975C3.38537 26.1975 3.70649 26.3512 3.70649 26.5381C3.70649 26.725 3.38486 26.8766 2.98947 26.8756C2.59409 26.8746 2.27246 26.722 2.27246 26.535C2.27246 26.3481 2.59409 26.197 2.98947 26.1975Z" fill="#EB9B4B"/>
<path d="M13.8512 19.8623C14.1851 19.6502 15.0148 19.2308 15.089 19.3476C15.1633 19.4643 14.4535 20.0728 14.1195 20.2848C13.7856 20.4968 13.4537 20.5742 13.381 20.4574C13.3083 20.3406 13.5172 20.0763 13.8512 19.8623Z" fill="#EB9B4B"/>
<g style="mix-blend-mode:multiply" opacity="0.7">
<path d="M12.6446 19.3035C12.1617 19.5785 11.6976 19.8851 11.2551 20.2213C11.4129 20.5624 11.694 21.1688 11.8815 21.5723C12.1442 21.4699 12.4244 21.3449 12.7158 21.2015C12.6897 21.0715 12.62 20.8942 12.5545 20.653C12.4008 20.0897 12.7399 19.7204 13.063 19.4956C13.3862 19.2707 14.1969 18.8549 14.5616 18.7719C14.9385 18.6869 15.3585 19.1668 15.381 19.4556C15.9295 18.9598 16.2128 18.5337 16.0852 18.312C15.8517 17.9023 14.3106 18.3463 12.6446 19.3035Z" fill="#EDCAAB"/>
</g>
<path d="M7.52874 21.769C7.57996 21.9185 7.72489 22.2622 8.09211 22.905C8.44601 23.5195 8.66726 23.8197 8.77532 23.9497C8.82653 24.0143 8.84702 24.0409 8.77532 24.0824C8.72052 24.1136 8.07521 24.298 7.76023 24.4788C7.6578 24.5367 7.42375 24.4916 6.90391 23.5871C6.38408 22.6827 6.46551 22.484 6.55155 22.4348C6.85884 22.2586 7.37868 21.7444 7.42221 21.7178C7.48316 21.6845 7.50416 21.7045 7.52874 21.769Z" fill="url(#paint18_linear_301_21609)"/>
<g style="mix-blend-mode:multiply" opacity="0.7">
<path d="M7.52874 21.769C7.5062 21.7045 7.4852 21.6845 7.42631 21.7178C7.38072 21.7439 6.86038 22.2581 6.55565 22.4348C6.50443 22.4635 6.45731 22.5454 6.53055 22.7897C6.70724 22.6648 6.96178 22.487 7.18662 22.4409C7.56715 22.3631 7.78737 23.1764 8.5638 24.1582C8.67647 24.1208 8.76098 24.0926 8.7789 24.0824C8.85111 24.0409 8.83012 24.0143 8.7789 23.9497C8.67084 23.8197 8.44959 23.5216 8.09569 22.905C7.72284 22.2622 7.57995 21.9201 7.52874 21.769Z" fill="#EDCAAB"/>
</g>
<path d="M10.2278 20.217C10.3302 20.3379 10.5545 20.635 10.9238 21.2777C11.2782 21.8948 11.4247 22.2359 11.4825 22.3947C11.5112 22.4731 11.5251 22.5028 11.5973 22.4613C11.6521 22.4295 12.1361 21.9655 12.451 21.7842C12.5535 21.7263 12.6313 21.4995 12.112 20.5955C11.5927 19.6916 11.3796 19.6608 11.2925 19.7105C10.9852 19.8867 10.28 20.0772 10.2339 20.1033C10.1766 20.1371 10.1832 20.1648 10.2278 20.217Z" fill="url(#paint19_linear_301_21609)"/>
<g style="mix-blend-mode:multiply" opacity="0.7">
<path d="M10.2278 20.2173C10.1832 20.166 10.1766 20.1374 10.2349 20.1036C10.281 20.0774 10.9868 19.8869 11.2936 19.7107C11.3448 19.6815 11.439 19.6815 11.6126 19.868C11.416 19.9576 11.1348 20.0877 10.9817 20.2587C10.7225 20.5481 11.314 21.1484 11.7709 22.314C11.6818 22.3919 11.6172 22.4513 11.5973 22.4615C11.5251 22.503 11.5112 22.4733 11.4825 22.3949C11.4247 22.2362 11.2777 21.8951 10.9238 21.2779C10.5545 20.6352 10.3297 20.3381 10.2278 20.2173Z" fill="#EDCAAB"/>
</g>
<path d="M15.3415 22.2083C15.8429 20.3538 16.6188 18.95 17.0747 19.0729C17.5305 19.1958 17.4941 20.7999 16.9927 22.6544C16.4913 24.5089 15.7159 25.9148 15.2622 25.7898C14.8084 25.6648 14.8407 24.0633 15.3415 22.2083Z" fill="url(#paint20_linear_301_21609)"/>
<path d="M12.8625 31.2617L14.3529 31.6611L15.6969 26.6471L14.2065 26.2476L12.8625 31.2617Z" fill="url(#paint21_linear_301_21609)"/>
<g style="mix-blend-mode:multiply" opacity="0.7">
<path d="M14.3045 26.3804L12.9575 31.3708L14.4428 31.7718L14.7214 30.7413C14.4694 30.7511 14.1534 30.727 13.905 30.5877C13.589 30.411 14.2123 28.1012 14.6932 26.4838L14.3045 26.3804Z" fill="#EDCAAB"/>
</g>
<path d="M11.9511 32.3193C12.2881 31.0722 13.0635 30.7624 13.8578 30.9775C14.6522 31.1926 15.1664 31.8481 14.8309 33.0973C14.4954 34.3464 13.5761 35.1812 12.7823 34.9661C11.9885 34.751 11.6141 33.5664 11.9511 32.3193Z" fill="url(#paint22_linear_301_21609)"/>
<g style="mix-blend-mode:multiply" opacity="0.7">
<path d="M12.3106 34.6799C12.216 34.1841 12.2385 33.673 12.3762 33.1874C12.7132 31.9403 13.4881 31.6305 14.2829 31.8451C14.5185 31.9045 14.7371 32.0178 14.9216 32.1759C14.8504 31.5137 14.4273 31.1306 13.8578 30.977C13.0635 30.7619 12.2881 31.0717 11.9511 32.3188C11.6904 33.2842 11.8548 34.2117 12.3106 34.6799Z" fill="#EDCAAB"/>
</g>
<path d="M13.3897 33.9106C13.6704 33.6315 14.0043 33.5127 14.1365 33.6453C14.2686 33.778 14.1488 34.1119 13.8686 34.391C13.5885 34.6702 13.254 34.789 13.1214 34.6563C12.9887 34.5237 13.1111 34.1898 13.3897 33.9106Z" fill="#EB9B4B"/>
<path d="M16.5908 21.7504C16.6768 21.3643 16.9667 20.4808 17.1029 20.511C17.2392 20.5412 17.1664 21.4733 17.0799 21.8595C16.9933 22.2457 16.8146 22.534 16.6799 22.5038C16.5452 22.4736 16.5042 22.1366 16.5908 21.7504Z" fill="#EB9B4B"/>
<g style="mix-blend-mode:multiply" opacity="0.7">
<path d="M15.3416 22.2083C15.1943 22.7444 15.0823 23.2894 15.0061 23.8401L16.4043 24.3522C16.5175 24.0931 16.6276 23.8073 16.7326 23.5C16.6219 23.4262 16.4483 23.351 16.2307 23.226C15.7257 22.9366 15.7021 22.4352 15.7697 22.048C15.8373 21.6609 16.1185 20.7933 16.3177 20.4768C16.5226 20.1495 17.1602 20.192 17.3815 20.3794C17.4189 19.6414 17.3174 19.139 17.0706 19.0724C16.6189 18.9495 15.843 20.3538 15.3416 22.2083Z" fill="#EDCAAB"/>
</g>
<path d="M13.4666 27.5706C13.6095 27.6387 13.9542 27.7806 14.6697 27.9742C15.3565 28.1596 15.7237 28.2139 15.8917 28.2303C15.9746 28.2379 16.0074 28.2436 15.9854 28.324C15.969 28.3849 15.6433 28.9713 15.5485 29.3217C15.5178 29.4338 15.3191 29.569 14.3122 29.2971C13.3053 29.0251 13.2223 28.8269 13.2479 28.7337C13.3401 28.3921 13.3447 27.6582 13.3586 27.61C13.376 27.5419 13.4047 27.5414 13.4666 27.5706Z" fill="url(#paint23_linear_301_21609)"/>
<g style="mix-blend-mode:multiply" opacity="0.7">
<path d="M13.4666 27.5705C13.4046 27.5414 13.3759 27.5419 13.3585 27.6069C13.3447 27.6581 13.3401 28.389 13.2479 28.7306C13.233 28.7869 13.2571 28.8786 13.4814 28.9995C13.5183 28.7859 13.5721 28.4806 13.6986 28.2891C13.9127 27.9649 14.643 28.3838 15.887 28.5293C15.9382 28.4233 15.9802 28.3434 15.9854 28.3244C16.0074 28.244 15.9746 28.2384 15.8916 28.2307C15.7236 28.2148 15.3564 28.1605 14.6696 27.9746C13.9542 27.7805 13.6095 27.6387 13.4666 27.5705Z" fill="#EDCAAB"/>
</g>
<path d="M14.2793 24.5639C14.4371 24.5772 14.8058 24.6279 15.5213 24.82C16.2081 25.0053 16.5528 25.1436 16.7059 25.2143C16.7817 25.2496 16.8125 25.2609 16.8345 25.1805C16.8509 25.1196 16.8647 24.4492 16.9594 24.0983C16.9897 23.9862 16.8857 23.7695 15.8788 23.4976C14.8719 23.2256 14.7009 23.3547 14.6747 23.4505C14.5825 23.7915 14.2179 24.4235 14.2041 24.4748C14.1866 24.5429 14.2107 24.5582 14.2793 24.5639Z" fill="url(#paint24_linear_301_21609)"/>
<g style="mix-blend-mode:multiply" opacity="0.7">
<path d="M14.2793 24.5637C14.2107 24.5581 14.1866 24.5427 14.2041 24.4782C14.2179 24.427 14.5825 23.7929 14.6747 23.4539C14.6896 23.3975 14.7567 23.3304 15.0112 23.3391C14.9359 23.5414 14.8289 23.8329 14.8412 24.0618C14.8627 24.45 15.7052 24.4556 16.8529 24.9565C16.8452 25.0748 16.8396 25.1639 16.8345 25.1839C16.8125 25.2643 16.7833 25.2531 16.7059 25.2177C16.5523 25.147 16.2081 25.0088 15.5213 24.8234C14.8058 24.6277 14.4371 24.577 14.2793 24.5637Z" fill="#EDCAAB"/>
</g>
<path d="M21.7782 24.945C22.1878 24.7096 21.7438 23.1683 20.7866 21.5023C19.8294 19.8363 18.7214 18.6765 18.3118 18.9118C17.9022 19.1471 18.3462 20.6885 19.3034 22.3545C20.2606 24.0205 21.3686 25.1803 21.7782 24.945Z" fill="url(#paint25_linear_301_21609)"/>
<path d="M24.0949 30.5225L25.4271 29.7571L22.8519 25.2751L21.5197 26.0405L24.0949 30.5225Z" fill="url(#paint26_linear_301_21609)"/>
<g style="mix-blend-mode:multiply" opacity="0.7">
<path d="M21.5201 26.0393L24.0952 30.5212L25.4268 29.756L24.8957 28.8305C24.7247 29.0154 24.486 29.2223 24.2105 29.2997C23.8622 29.398 22.6689 27.3248 21.8658 25.8401L21.5201 26.0393Z" fill="#EDCAAB"/>
</g>
<path d="M24.0554 31.9025C23.4121 30.7824 23.7409 30.0152 24.4548 29.605C25.1688 29.1947 25.9969 29.2977 26.6407 30.4172C27.2845 31.5368 27.2271 32.7778 26.5132 33.1875C25.7992 33.5972 24.6991 33.0226 24.0554 31.9025Z" fill="url(#paint27_linear_301_21609)"/>
<g style="mix-blend-mode:multiply" opacity="0.7">
<path d="M25.9785 33.3174C25.561 33.0333 25.2157 32.6555 24.9701 32.2142C24.3263 31.0942 24.6556 30.327 25.369 29.9167C25.5777 29.7919 25.8124 29.7173 26.0548 29.6986C25.536 29.2806 24.966 29.3093 24.4548 29.6028C23.7409 30.0125 23.4121 30.7807 24.0554 31.9003C24.5532 32.7694 25.3245 33.3072 25.9785 33.3174Z" fill="#EDCAAB"/>
</g>
<path d="M26.1976 32.0095C26.1976 31.6141 26.3513 31.2925 26.5382 31.2925C26.7252 31.2925 26.8767 31.6141 26.8757 32.0095C26.8747 32.4049 26.7221 32.7265 26.5351 32.7265C26.3482 32.7265 26.1971 32.4059 26.1976 32.0095Z" fill="#EB9B4B"/>
<path d="M19.8624 21.1488C19.6504 20.8149 19.2309 19.9852 19.3477 19.9109C19.4644 19.8367 20.0729 20.5465 20.2849 20.8804C20.4969 21.2144 20.5743 21.5462 20.4575 21.619C20.3407 21.6917 20.0765 21.4827 19.8624 21.1488Z" fill="#EB9B4B"/>
<g style="mix-blend-mode:multiply" opacity="0.7">
<path d="M19.3036 22.3554C19.5786 22.8383 19.8852 23.3024 20.2214 23.7449L21.5725 23.1185C21.47 22.8558 21.3451 22.5757 21.2017 22.2842C21.0716 22.3104 20.8944 22.38 20.6531 22.4456C20.0898 22.5992 19.7205 22.2602 19.4957 21.937C19.2708 21.6138 18.855 20.8031 18.772 20.4384C18.687 20.0615 19.1669 19.6415 19.4557 19.619C18.96 19.0705 18.5339 18.7873 18.3121 18.9148C17.9024 19.1483 18.3464 20.6909 19.3036 22.3554Z" fill="#EDCAAB"/>
</g>
<path d="M21.7691 27.4734C21.9182 27.4222 22.2623 27.2773 22.9051 26.91C23.5197 26.5561 23.8198 26.3349 23.9499 26.2268C24.0144 26.1756 24.041 26.1551 24.0825 26.2268C24.1143 26.2816 24.2981 26.9269 24.4789 27.2419C24.5368 27.3443 24.4917 27.5784 23.5873 28.0982C22.6828 28.6181 22.4841 28.5366 22.4349 28.4506C22.2587 28.1433 21.7445 27.6235 21.7179 27.5799C21.6846 27.5169 21.7046 27.4959 21.7691 27.4734Z" fill="url(#paint28_linear_301_21609)"/>
<g style="mix-blend-mode:multiply" opacity="0.7">
<path d="M21.7691 27.4734C21.7046 27.4959 21.6846 27.5169 21.7179 27.5758C21.744 27.6214 22.2582 28.1417 22.4349 28.4464C22.4636 28.4977 22.5455 28.5448 22.7898 28.4715C22.6649 28.2948 22.4872 28.0403 22.4411 27.8155C22.3632 27.4349 23.1765 27.2147 24.1583 26.4378C24.1209 26.3256 24.0928 26.2406 24.0825 26.2227C24.041 26.151 24.0144 26.1715 23.9499 26.2227C23.8198 26.3307 23.5217 26.552 22.9051 26.9059C22.2623 27.2772 21.9202 27.4201 21.7691 27.4734Z" fill="#EDCAAB"/>
</g>
<path d="M20.2173 24.7723C20.3382 24.6699 20.6352 24.4456 21.278 24.0763C21.8951 23.7219 22.2362 23.5754 22.395 23.5176C22.4733 23.4889 22.5031 23.475 22.4616 23.4028C22.4298 23.348 21.9653 22.864 21.7845 22.5491C21.7266 22.4466 21.5003 22.3688 20.5958 22.8881C19.6913 23.4074 19.6611 23.6205 19.7108 23.7076C19.887 24.0149 20.0775 24.7201 20.1036 24.7657C20.1374 24.823 20.1651 24.8169 20.2173 24.7723Z" fill="url(#paint29_linear_301_21609)"/>
<g style="mix-blend-mode:multiply" opacity="0.7">
<path d="M20.2173 24.7721C20.166 24.8167 20.1374 24.8233 20.1036 24.7644C20.0774 24.7189 19.8869 24.0131 19.7107 23.7063C19.6815 23.6551 19.6815 23.5609 19.868 23.3867C19.9576 23.5839 20.0877 23.8651 20.2587 24.0182C20.5481 24.2774 21.1478 23.6858 22.314 23.229C22.3919 23.3181 22.4513 23.3827 22.4615 23.4026C22.503 23.4748 22.4733 23.4887 22.3949 23.5173C22.2362 23.5752 21.8951 23.7222 21.2779 24.0761C20.6352 24.4454 20.3381 24.6697 20.2173 24.7721Z" fill="#EDCAAB"/>
</g>
<path d="M22.2085 19.6584C20.354 19.157 18.9497 18.3811 19.0731 17.9253C19.1965 17.4695 20.8001 17.5059 22.6546 18.0073C24.5091 18.5087 25.9134 19.2841 25.79 19.7404C25.6666 20.1967 24.0635 20.1593 22.2085 19.6584Z" fill="url(#paint30_linear_301_21609)"/>
<path d="M31.3718 22.045L31.7726 20.5618L26.7824 19.2134L26.3816 20.6967L31.3718 22.045Z" fill="url(#paint31_linear_301_21609)"/>
<g style="mix-blend-mode:multiply" opacity="0.7">
<path d="M26.3805 20.6956L31.3709 22.0441L31.7719 20.5588L30.7415 20.2812C30.7512 20.5332 30.7271 20.8492 30.5878 21.0976C30.4111 21.4136 28.1013 20.7903 26.4839 20.3094L26.3805 20.6956Z" fill="#EDCAAB"/>
</g>
<path d="M32.3194 23.0468C31.0724 22.7098 30.7625 21.9344 30.9776 21.1401C31.1927 20.3457 31.8483 19.8315 33.0974 20.167C34.3465 20.5024 35.1814 21.4212 34.9662 22.2156C34.7511 23.0099 33.5665 23.3858 32.3194 23.0468Z" fill="url(#paint32_linear_301_21609)"/>
<g style="mix-blend-mode:multiply" opacity="0.7">
<path d="M34.68 22.6884C34.1842 22.7833 33.6732 22.7612 33.1875 22.6239C31.9405 22.2869 31.6306 21.512 31.8452 20.7171C31.9045 20.4807 32.0179 20.2614 32.1766 20.0764C31.5143 20.1476 31.1312 20.5706 30.9776 21.1402C30.7625 21.9345 31.0724 22.7099 32.3194 23.0469C33.2843 23.3096 34.2118 23.1452 34.68 22.6884Z" fill="#EDCAAB"/>
</g>
<path d="M33.9106 21.6127C33.6315 21.3321 33.5127 20.9981 33.6453 20.866C33.778 20.7339 34.1119 20.8537 34.391 21.1339C34.6702 21.414 34.789 21.7484 34.6563 21.8811C34.5237 22.0137 34.1898 21.8903 33.9106 21.6127Z" fill="#EB9B4B"/>
<path d="M21.7507 18.4094C21.3645 18.3233 20.481 18.0334 20.5113 17.8972C20.5415 17.761 21.4736 17.8337 21.8598 17.9202C22.2459 18.0068 22.5343 18.1855 22.504 18.3202C22.4738 18.4549 22.1368 18.4959 21.7507 18.4094Z" fill="#EB9B4B"/>
<g style="mix-blend-mode:multiply" opacity="0.7">
<path d="M22.2086 19.6584C22.7444 19.805 23.2893 19.9162 23.8398 19.9913C23.9698 19.6389 24.1983 19.011 24.3519 18.5936C24.0928 18.4804 23.8065 18.3703 23.4997 18.2653C23.4259 18.3759 23.3507 18.5496 23.2257 18.7672C22.9363 19.2722 22.4349 19.2958 22.0477 19.2282C21.6605 19.1606 20.7924 18.8794 20.4765 18.6802C20.1492 18.4753 20.1917 17.8377 20.3791 17.6164C19.6411 17.579 19.1387 17.6804 19.0721 17.9273C18.9497 18.3811 20.354 19.157 22.2086 19.6584Z" fill="#EDCAAB"/>
</g>
<path d="M27.5707 21.5333C27.6388 21.3904 27.7807 21.0457 27.9743 20.3303C28.1597 19.6435 28.214 19.2762 28.2304 19.1083C28.2381 19.0248 28.2437 18.9925 28.3241 19.0145C28.385 19.0309 28.9715 19.3567 29.3218 19.4514C29.4339 19.4816 29.5691 19.6808 29.2972 20.6877C29.0252 21.6946 28.827 21.7776 28.7338 21.752C28.3922 21.6593 27.6583 21.6552 27.6102 21.6414C27.542 21.624 27.5415 21.5953 27.5707 21.5333Z" fill="url(#paint33_linear_301_21609)"/>
<g style="mix-blend-mode:multiply" opacity="0.7">
<path d="M27.5708 21.5333C27.5416 21.5952 27.5421 21.6239 27.6072 21.6413C27.6584 21.6551 28.3892 21.6592 28.7308 21.7519C28.7872 21.7668 28.8788 21.7427 28.9997 21.5184C28.7861 21.4815 28.4809 21.4278 28.2893 21.3013C27.9651 21.0872 28.3841 20.3563 28.5295 19.1128C28.4235 19.0616 28.3436 19.0196 28.3247 19.0145C28.2443 18.9925 28.2386 19.0252 28.231 19.1082C28.2151 19.2762 28.1608 19.6434 27.9749 20.3302C27.7808 21.0457 27.6389 21.3904 27.5708 21.5333Z" fill="#EDCAAB"/>
</g>
<path d="M24.5639 20.7206C24.5772 20.5628 24.6279 20.1941 24.82 19.4786C25.0053 18.7918 25.1436 18.4471 25.2143 18.294C25.2496 18.2182 25.2609 18.1875 25.1805 18.1654C25.1196 18.149 24.4492 18.1352 24.0983 18.0405C23.9862 18.0103 23.7695 18.1142 23.4976 19.1211C23.2256 20.128 23.3547 20.2991 23.4505 20.3252C23.7915 20.4174 24.4235 20.782 24.4748 20.7959C24.5429 20.8133 24.5582 20.7892 24.5639 20.7206Z" fill="url(#paint34_linear_301_21609)"/>
<g style="mix-blend-mode:multiply" opacity="0.7">
<path d="M24.5639 20.7205C24.5583 20.7892 24.543 20.8132 24.4784 20.7958C24.4272 20.782 23.7932 20.4173 23.4541 20.3252C23.3978 20.3103 23.3307 20.2432 23.3394 19.9887C23.5417 20.064 23.8331 20.171 24.062 20.1582C24.4503 20.1372 24.4559 19.2947 24.9568 18.147C25.0751 18.1547 25.1642 18.1603 25.1842 18.1654C25.2646 18.1874 25.2533 18.2166 25.218 18.294C25.1473 18.4476 25.009 18.7918 24.8236 19.4786C24.628 20.194 24.5773 20.5628 24.5639 20.7205Z" fill="#EDCAAB"/>
</g>
<path d="M22.3556 15.6963C20.6895 16.6536 19.1485 17.0976 18.9134 16.6879C18.6783 16.2781 19.8353 15.1709 21.5033 14.2137C23.1714 13.2564 24.711 12.8124 24.946 13.2221C25.1811 13.6319 24.0201 14.7396 22.3556 15.6963Z" fill="url(#paint35_linear_301_21609)"/>
<path d="M30.5226 10.9045L29.7572 9.57227L25.2752 12.1475L26.0406 13.4797L30.5226 10.9045Z" fill="url(#paint36_linear_301_21609)"/>
<g style="mix-blend-mode:multiply" opacity="0.7">
<path d="M26.0394 13.4797L30.5213 10.9046L29.7561 9.573L28.8307 10.1046C29.0156 10.2757 29.2225 10.5143 29.2998 10.7899C29.3981 11.1381 27.3249 12.3315 25.8402 13.1345L26.0394 13.4797Z" fill="#EDCAAB"/>
</g>
<path d="M31.9025 10.9447C30.7824 11.588 30.0152 11.2592 29.605 10.5452C29.1947 9.83129 29.2977 9.00314 30.4172 8.35936C31.5368 7.71558 32.7778 7.77295 33.1875 8.48689C33.5972 9.20083 33.0226 10.3009 31.9025 10.9447Z" fill="url(#paint37_linear_301_21609)"/>
<g style="mix-blend-mode:multiply" opacity="0.7">
<path d="M33.3177 9.02138C33.0335 9.43888 32.6558 9.78421 32.2145 10.0298C31.0944 10.6736 30.3272 10.3443 29.917 9.63084C29.7924 9.4221 29.7177 9.18741 29.6988 8.94507C29.2809 9.46388 29.3096 10.0339 29.603 10.545C30.0127 11.259 30.781 11.5878 31.9005 10.9445C32.7697 10.4477 33.3074 9.6754 33.3177 9.02138Z" fill="#EDCAAB"/>
</g>
<path d="M32.0096 8.80236C31.6142 8.80236 31.2926 8.64872 31.2926 8.46178C31.2926 8.27485 31.6142 8.12325 32.0096 8.12427C32.405 8.1253 32.7266 8.27792 32.7266 8.46485C32.7266 8.65179 32.406 8.80287 32.0096 8.80236Z" fill="#EB9B4B"/>
<path d="M21.1489 15.1376C20.815 15.3496 19.9853 15.7691 19.911 15.6523C19.8368 15.5355 20.5466 14.9271 20.8806 14.7151C21.2145 14.503 21.5463 14.4257 21.6191 14.5425C21.6918 14.6592 21.4828 14.9256 21.1489 15.1376Z" fill="#EB9B4B"/>
<g style="mix-blend-mode:multiply" opacity="0.7">
<path d="M22.3555 15.6963C22.8384 15.4213 23.3026 15.1147 23.745 14.7785C23.5873 14.4375 23.3061 13.8311 23.1187 13.4275C22.8559 13.5299 22.5758 13.6549 22.2844 13.7983C22.3105 13.9284 22.3801 14.1056 22.4457 14.3468C22.5993 14.9102 22.2603 15.2794 21.9371 15.5043C21.6139 15.7291 20.8032 16.145 20.4386 16.2279C20.0611 16.313 19.6417 15.8331 19.6191 15.5442C19.0706 16.04 18.7874 16.4661 18.9149 16.6879C19.1484 17.0976 20.6911 16.6535 22.3555 15.6963Z" fill="#EDCAAB"/>
</g>
<path d="M27.4734 13.2308C27.4222 13.0813 27.2767 12.7376 26.91 12.0949C26.5556 11.4803 26.3344 11.1802 26.2268 11.0501C26.1756 10.9856 26.1551 10.9589 26.2268 10.9174C26.2816 10.8862 26.9269 10.7018 27.2419 10.521C27.3443 10.4632 27.5784 10.5082 28.0982 11.4127C28.6181 12.3171 28.5366 12.5159 28.4506 12.565C28.1433 12.7412 27.6235 13.2554 27.5799 13.282C27.5169 13.3158 27.4959 13.2954 27.4734 13.2308Z" fill="url(#paint38_linear_301_21609)"/>
<g style="mix-blend-mode:multiply" opacity="0.7">
<path d="M27.4735 13.231C27.496 13.2955 27.517 13.3155 27.5759 13.2822C27.6215 13.2561 28.1418 12.7419 28.4466 12.5652C28.4978 12.5365 28.5444 12.4546 28.4717 12.2103C28.295 12.3352 28.0404 12.513 27.8156 12.559C27.4351 12.6369 27.2148 11.8236 26.4379 10.8418C26.3257 10.8792 26.2407 10.9074 26.2228 10.9176C26.1511 10.9591 26.1716 10.9857 26.2228 11.0502C26.3304 11.1803 26.5521 11.4784 26.906 12.095C27.2773 12.7378 27.4202 13.082 27.4735 13.231Z" fill="#EDCAAB"/>
</g>
<path d="M24.7723 14.7828C24.6699 14.6619 24.4456 14.3648 24.0758 13.7221C23.7219 13.1049 23.5754 12.7639 23.5176 12.6051C23.4889 12.5267 23.475 12.497 23.4028 12.5385C23.348 12.5703 22.864 13.0343 22.5491 13.2156C22.4466 13.2734 22.3688 13.5003 22.8881 14.4043C23.4074 15.3082 23.6205 15.339 23.7076 15.2893C24.0149 15.1131 24.7201 14.9226 24.7657 14.8965C24.823 14.8627 24.8169 14.835 24.7723 14.7828Z" fill="url(#paint39_linear_301_21609)"/>
<g style="mix-blend-mode:multiply" opacity="0.7">
<path d="M24.7724 14.7828C24.8169 14.834 24.8236 14.8627 24.7647 14.8965C24.7191 14.9226 24.0134 15.1131 23.7066 15.2893C23.6554 15.3185 23.5611 15.3185 23.387 15.132C23.5842 15.0424 23.8653 14.9123 24.0185 14.7413C24.2776 14.4519 23.6861 13.8517 23.2292 12.686C23.3184 12.6082 23.3829 12.5487 23.4029 12.5385C23.4751 12.497 23.4889 12.5267 23.5176 12.6051C23.5755 12.7639 23.7225 13.1049 24.0758 13.7221C24.4456 14.3648 24.6699 14.6619 24.7724 14.7828Z" fill="#EDCAAB"/>
</g>
<path d="M20.3443 6.97546C14.5314 5.40468 8.54636 8.84328 6.97712 14.6577C5.40789 20.4722 8.84495 26.4557 14.6594 28.0249C20.4739 29.5942 26.4574 26.1571 28.0266 20.3426C29.5958 14.5282 26.1567 8.54623 20.3443 6.97546ZM15.5183 24.8327C14.068 24.4407 12.7666 23.6275 11.7785 22.4959C10.7904 21.3643 10.1601 19.965 9.96725 18.4752C9.77439 16.9853 10.0276 15.4717 10.695 14.1258C11.3624 12.7799 12.4138 11.6621 13.7165 10.9138C15.0191 10.1654 16.5144 9.82018 18.0133 9.92166C19.5121 10.0231 20.9472 10.5668 22.1371 11.4839C23.327 12.401 24.2182 13.6503 24.698 15.0739C25.1778 16.4975 25.2247 18.0315 24.8328 19.4817C24.5726 20.4447 24.1253 21.347 23.5164 22.1371C22.9075 22.9272 22.1489 23.5896 21.2839 24.0865C20.4189 24.5834 19.4646 24.9051 18.4753 25.0331C17.486 25.1611 16.4812 25.093 15.5183 24.8327V24.8327Z" fill="url(#paint40_linear_301_21609)"/>
<path d="M23.3485 12.6558C24.583 14.1469 25.2016 16.0531 25.0779 17.9849C24.9542 19.9168 24.0976 21.7285 22.683 23.05C21.2685 24.3715 19.4027 25.1031 17.4669 25.0953C15.5312 25.0874 13.6714 24.3408 12.2676 23.0079C13.2345 24.1771 14.4186 24.698 15.9955 25.1257C16.9585 25.3859 17.9632 25.4539 18.9524 25.3259C19.9416 25.1978 20.8959 24.8762 21.7608 24.3793C22.6257 23.8824 23.3843 23.22 23.9932 22.4299C24.6021 21.6399 25.0494 20.7376 25.3095 19.7747C26.0629 16.9881 25.3003 14.5154 23.3485 12.6558Z" fill="#EB9B4B"/>
<path d="M7.59163 15.32C9.1624 9.50761 15.1479 6.06851 20.9588 7.63774C22.7862 8.12941 24.4531 9.09063 25.794 10.4259C24.3691 8.749 22.4679 7.5451 20.3427 6.97399C14.5298 5.40322 8.54474 8.84181 6.97551 14.6563C6.47299 16.514 6.47152 18.4717 6.97125 20.3302C7.47098 22.1887 8.45407 23.8816 9.82051 25.2368C8.67051 23.8898 7.86645 22.2825 7.47805 20.5544C7.08965 18.8264 7.12863 17.0296 7.59163 15.32V15.32Z" fill="#EB9B4B"/>
<path d="M11.1322 21.6388C10.0783 20.0177 9.68234 18.0557 10.0251 16.1528C10.3679 14.2499 11.4236 12.5493 12.9769 11.3979C14.5302 10.2465 16.4642 9.7309 18.3846 9.95622C20.3049 10.1815 22.0671 11.1308 23.3117 12.6105C22.3283 11.0966 21.007 10.1671 19.1248 9.659C17.18 9.13352 15.1062 9.40205 13.3594 10.4055C11.6126 11.409 10.336 13.0653 9.81028 15.01C9.1368 17.5036 9.58801 19.8001 11.1322 21.6388Z" fill="#AF3F13"/>
<path d="M25.9626 10.6306C26.8452 11.9275 27.4368 13.4 27.6967 14.9471C27.9567 16.4942 27.8787 18.0792 27.4683 19.5933C25.8975 25.4057 19.912 28.8443 14.1011 27.2756C11.8894 26.6809 9.92257 25.4016 8.4823 23.6209C9.94422 25.7836 12.1364 27.3473 14.6573 28.0254C20.4703 29.5961 26.4553 26.1575 28.0245 20.3431C28.4757 18.6767 28.524 16.9268 28.1655 15.238C27.807 13.5493 27.0519 11.97 25.9626 10.6306V10.6306Z" fill="#AF3F13"/>
<g style="mix-blend-mode:multiply">
<path d="M28.0246 20.3442C28.4165 18.8998 28.5061 17.3901 28.2876 15.9096C28.0691 14.4291 27.5474 13.0096 26.755 11.74C26.1093 12.81 25.3892 13.8333 24.5998 14.8022C25.2154 16.4201 25.2597 18.1997 24.7256 19.8463C24.1914 21.4929 23.1107 22.9076 21.6626 23.856C20.2145 24.8045 18.4859 25.2298 16.763 25.0615C15.0401 24.8932 13.4265 24.1413 12.1893 22.9305C10.9857 23.2644 9.7607 23.5156 8.52283 23.6824C9.98507 25.8135 12.1595 27.3531 14.6553 28.0244C20.4688 29.5952 26.4538 26.1566 28.0246 20.3442Z" fill="#F2DCC4"/>
</g>
<path d="M20.0406 18.1866C19.9049 18.689 19.6232 19.1399 19.2312 19.4823C18.8392 19.8247 18.3545 20.0431 17.8384 20.11C17.3222 20.1768 16.7978 20.0892 16.3315 19.858C15.8652 19.6269 15.4779 19.2626 15.2186 18.8114C14.9593 18.3601 14.8397 17.8421 14.8748 17.3228C14.9099 16.8035 15.0982 16.3063 15.4159 15.8941C15.7336 15.4818 16.1664 15.1731 16.6596 15.0068C17.1528 14.8405 17.6842 14.8242 18.1866 14.96C18.8603 15.142 19.4341 15.5842 19.7818 16.1893C20.1295 16.7944 20.2226 17.5128 20.0406 18.1866V18.1866Z" fill="#AF3F13"/>
<path d="M19.405 17.9365C19.2925 18.3528 19.059 18.7263 18.7342 19.0099C18.4094 19.2934 18.0079 19.4743 17.5802 19.5297C17.1526 19.585 16.7182 19.5124 16.3319 19.3208C15.9456 19.1293 15.6248 18.8276 15.41 18.4537C15.1952 18.0799 15.096 17.6507 15.1251 17.2205C15.1541 16.7903 15.3101 16.3784 15.5733 16.0369C15.8364 15.6953 16.1949 15.4394 16.6035 15.3016C17.012 15.1638 17.4523 15.1502 17.8686 15.2626C18.145 15.3372 18.4041 15.4656 18.631 15.6404C18.8578 15.8152 19.0481 16.033 19.1907 16.2813C19.3334 16.5296 19.4258 16.8036 19.4625 17.0876C19.4993 17.3716 19.4798 17.6601 19.405 17.9365V17.9365Z" fill="url(#paint41_linear_301_21609)"/>
<path d="M16.9851 16.7131C16.4089 16.9497 16.1779 17.7174 15.9418 17.1412C15.8285 16.8646 15.8297 16.5543 15.9451 16.2785C16.0606 16.0028 16.2808 15.7842 16.5574 15.6708C16.8341 15.5575 17.1444 15.5587 17.4201 15.6741C17.6959 15.7896 17.9145 16.0098 18.0278 16.2864C18.265 16.8616 17.5618 16.477 16.9851 16.7131Z" fill="#EB9B4B"/>
<g style="mix-blend-mode:multiply">
<path d="M18.776 15.2012C18.8232 15.6784 18.7387 16.1593 18.5317 16.5919C18.3247 17.0244 18.0031 17.3919 17.6019 17.6545C17.2006 17.917 16.7351 18.0646 16.2558 18.0811C15.7766 18.0976 15.302 17.9824 14.8837 17.7481C14.9261 18.1993 15.0844 18.6319 15.3432 19.0039C15.6021 19.3759 15.9526 19.6747 16.3609 19.8713C16.7692 20.068 17.2214 20.1558 17.6737 20.1262C18.1259 20.0966 18.5628 19.9507 18.942 19.7025C19.3212 19.4544 19.6299 19.1125 19.838 18.7099C20.0462 18.3074 20.1468 17.8579 20.1301 17.405C20.1134 16.9521 19.98 16.5112 19.7427 16.1251C19.5055 15.739 19.1725 15.4207 18.776 15.2012Z" fill="#F2DCC4"/>
</g>
</g>
<defs>
<linearGradient id="paint0_linear_301_21609" x1="18.0721" y1="12.3482" x2="19.7314" y2="12.793" gradientUnits="userSpaceOnUse">
<stop stop-color="#DE822C"/>
<stop offset="0.51" stop-color="#D06922"/>
<stop offset="0.8" stop-color="#C7581C"/>
</linearGradient>
<linearGradient id="paint1_linear_301_21609" x1="19.8868" y1="5.72226" x2="21.3701" y2="6.12303" gradientUnits="userSpaceOnUse">
<stop stop-color="#DE822C"/>
<stop offset="0.51" stop-color="#D06922"/>
<stop offset="0.8" stop-color="#C7581C"/>
</linearGradient>
<linearGradient id="paint2_linear_301_21609" x1="20.2941" y1="1.59307" x2="23.1859" y2="2.3682" gradientUnits="userSpaceOnUse">
<stop stop-color="#DE822C"/>
<stop offset="0.51" stop-color="#D06922"/>
<stop offset="0.8" stop-color="#C7581C"/>
</linearGradient>
<linearGradient id="paint3_linear_301_21609" x1="19.2415" y1="6.02269" x2="21.8824" y2="6.73057" gradientUnits="userSpaceOnUse">
<stop stop-color="#DE822C"/>
<stop offset="0.51" stop-color="#D06922"/>
<stop offset="0.8" stop-color="#C7581C"/>
</linearGradient>
<linearGradient id="paint4_linear_301_21609" x1="18.0129" y1="10.2166" x2="20.6538" y2="10.9245" gradientUnits="userSpaceOnUse">
<stop stop-color="#DE822C"/>
<stop offset="0.51" stop-color="#D06922"/>
<stop offset="0.8" stop-color="#C7581C"/>
</linearGradient>
<linearGradient id="paint5_linear_301_21609" x1="14.321" y1="13.5758" x2="15.8092" y2="12.7205" gradientUnits="userSpaceOnUse">
<stop stop-color="#DE822C"/>
<stop offset="0.51" stop-color="#D06922"/>
<stop offset="0.8" stop-color="#C7581C"/>
</linearGradient>
<linearGradient id="paint6_linear_301_21609" x1="10.8589" y1="7.48521" x2="12.1911" y2="6.71977" gradientUnits="userSpaceOnUse">
<stop stop-color="#DE822C"/>
<stop offset="0.51" stop-color="#D06922"/>
<stop offset="0.8" stop-color="#C7581C"/>
</linearGradient>
<linearGradient id="paint7_linear_301_21609" x1="8.30943" y1="4.39476" x2="10.9031" y2="2.90414" gradientUnits="userSpaceOnUse">
<stop stop-color="#DE822C"/>
<stop offset="0.51" stop-color="#D06922"/>
<stop offset="0.8" stop-color="#C7581C"/>
</linearGradient>
<linearGradient id="paint8_linear_301_21609" x1="10.6877" y1="8.27308" x2="13.0568" y2="6.91152" gradientUnits="userSpaceOnUse">
<stop stop-color="#DE822C"/>
<stop offset="0.51" stop-color="#D06922"/>
<stop offset="0.8" stop-color="#C7581C"/>
</linearGradient>
<linearGradient id="paint9_linear_301_21609" x1="12.8776" y1="12.0942" x2="15.2463" y2="10.7329" gradientUnits="userSpaceOnUse">
<stop stop-color="#DE822C"/>
<stop offset="0.51" stop-color="#D06922"/>
<stop offset="0.8" stop-color="#C7581C"/>
</linearGradient>
<linearGradient id="paint10_linear_301_21609" x1="12.6296" y1="16.9753" x2="13.0743" y2="15.316" gradientUnits="userSpaceOnUse">
<stop stop-color="#DE822C"/>
<stop offset="0.51" stop-color="#D06922"/>
<stop offset="0.8" stop-color="#C7581C"/>
</linearGradient>
<linearGradient id="paint11_linear_301_21609" x1="5.78452" y1="15.075" x2="6.184" y2="13.5846" gradientUnits="userSpaceOnUse">
<stop stop-color="#DE822C"/>
<stop offset="0.51" stop-color="#D06922"/>
<stop offset="0.8" stop-color="#C7581C"/>
</linearGradient>
<linearGradient id="paint12_linear_301_21609" x1="1.87386" y1="14.7529" x2="2.64898" y2="11.8611" gradientUnits="userSpaceOnUse">
<stop stop-color="#DE822C"/>
<stop offset="0.51" stop-color="#D06922"/>
<stop offset="0.8" stop-color="#C7581C"/>
</linearGradient>
<linearGradient id="paint13_linear_301_21609" x1="6.30364" y1="15.8057" x2="7.01152" y2="13.1648" gradientUnits="userSpaceOnUse">
<stop stop-color="#DE822C"/>
<stop offset="0.51" stop-color="#D06922"/>
<stop offset="0.8" stop-color="#C7581C"/>
</linearGradient>
<linearGradient id="paint14_linear_301_21609" x1="10.4971" y1="17.0347" x2="11.2051" y2="14.3933" gradientUnits="userSpaceOnUse">
<stop stop-color="#DE822C"/>
<stop offset="0.51" stop-color="#D06922"/>
<stop offset="0.8" stop-color="#C7581C"/>
</linearGradient>
<linearGradient id="paint15_linear_301_21609" x1="13.7472" y1="20.7947" x2="12.8922" y2="19.3069" gradientUnits="userSpaceOnUse">
<stop stop-color="#DE822C"/>
<stop offset="0.51" stop-color="#D06922"/>
<stop offset="0.8" stop-color="#C7581C"/>
</linearGradient>
<linearGradient id="paint16_linear_301_21609" x1="7.48234" y1="24.1403" x2="6.7169" y2="22.8081" gradientUnits="userSpaceOnUse">
<stop stop-color="#DE822C"/>
<stop offset="0.51" stop-color="#D06922"/>
<stop offset="0.8" stop-color="#C7581C"/>
</linearGradient>
<linearGradient id="paint17_linear_301_21609" x1="4.56647" y1="26.806" x2="3.07585" y2="24.2123" gradientUnits="userSpaceOnUse">
<stop stop-color="#DE822C"/>
<stop offset="0.51" stop-color="#D06922"/>
<stop offset="0.8" stop-color="#C7581C"/>
</linearGradient>
<linearGradient id="paint18_linear_301_21609" x1="8.44491" y1="24.4277" x2="7.08361" y2="22.059" gradientUnits="userSpaceOnUse">
<stop stop-color="#DE822C"/>
<stop offset="0.51" stop-color="#D06922"/>
<stop offset="0.8" stop-color="#C7581C"/>
</linearGradient>
<linearGradient id="paint19_linear_301_21609" x1="12.2664" y1="22.2381" x2="10.9048" y2="19.869" gradientUnits="userSpaceOnUse">
<stop stop-color="#DE822C"/>
<stop offset="0.51" stop-color="#D06922"/>
<stop offset="0.8" stop-color="#C7581C"/>
</linearGradient>
<linearGradient id="paint20_linear_301_21609" x1="17.2558" y1="22.4185" x2="15.5966" y2="21.9737" gradientUnits="userSpaceOnUse">
<stop stop-color="#DE822C"/>
<stop offset="0.51" stop-color="#D06922"/>
<stop offset="0.8" stop-color="#C7581C"/>
</linearGradient>
<linearGradient id="paint21_linear_301_21609" x1="15.0221" y1="29.1525" x2="13.5322" y2="28.7532" gradientUnits="userSpaceOnUse">
<stop stop-color="#DE822C"/>
<stop offset="0.51" stop-color="#D06922"/>
<stop offset="0.8" stop-color="#C7581C"/>
</linearGradient>
<linearGradient id="paint22_linear_301_21609" x1="15.0338" y1="33.1739" x2="12.142" y2="32.3987" gradientUnits="userSpaceOnUse">
<stop stop-color="#DE822C"/>
<stop offset="0.51" stop-color="#D06922"/>
<stop offset="0.8" stop-color="#C7581C"/>
</linearGradient>
<linearGradient id="paint23_linear_301_21609" x1="16.087" y1="28.7442" x2="13.4456" y2="28.0362" gradientUnits="userSpaceOnUse">
<stop stop-color="#DE822C"/>
<stop offset="0.51" stop-color="#D06922"/>
<stop offset="0.8" stop-color="#C7581C"/>
</linearGradient>
<linearGradient id="paint24_linear_301_21609" x1="17.3155" y1="24.5506" x2="14.674" y2="23.8426" gradientUnits="userSpaceOnUse">
<stop stop-color="#DE822C"/>
<stop offset="0.51" stop-color="#D06922"/>
<stop offset="0.8" stop-color="#C7581C"/>
</linearGradient>
<linearGradient id="paint25_linear_301_21609" x1="20.7858" y1="21.5051" x2="19.3026" y2="22.3573" gradientUnits="userSpaceOnUse">
<stop stop-color="#DE822C"/>
<stop offset="0.51" stop-color="#D06922"/>
<stop offset="0.8" stop-color="#C7581C"/>
</linearGradient>
<linearGradient id="paint26_linear_301_21609" x1="24.1389" y1="27.5191" x2="22.8067" y2="28.2845" gradientUnits="userSpaceOnUse">
<stop stop-color="#DE822C"/>
<stop offset="0.51" stop-color="#D06922"/>
<stop offset="0.8" stop-color="#C7581C"/>
</linearGradient>
<linearGradient id="paint27_linear_301_21609" x1="26.978" y1="30.5489" x2="24.3844" y2="32.0395" gradientUnits="userSpaceOnUse">
<stop stop-color="#DE822C"/>
<stop offset="0.51" stop-color="#D06922"/>
<stop offset="0.8" stop-color="#C7581C"/>
</linearGradient>
<linearGradient id="paint28_linear_301_21609" x1="24.5998" y1="26.6706" x2="22.2311" y2="28.0319" gradientUnits="userSpaceOnUse">
<stop stop-color="#DE822C"/>
<stop offset="0.51" stop-color="#D06922"/>
<stop offset="0.8" stop-color="#C7581C"/>
</linearGradient>
<linearGradient id="paint29_linear_301_21609" x1="22.4099" y1="22.8493" x2="20.0412" y2="24.2106" gradientUnits="userSpaceOnUse">
<stop stop-color="#DE822C"/>
<stop offset="0.51" stop-color="#D06922"/>
<stop offset="0.8" stop-color="#C7581C"/>
</linearGradient>
<linearGradient id="paint30_linear_301_21609" x1="22.6988" y1="17.7913" x2="22.2541" y2="19.4506" gradientUnits="userSpaceOnUse">
<stop stop-color="#DE822C"/>
<stop offset="0.51" stop-color="#D06922"/>
<stop offset="0.8" stop-color="#C7581C"/>
</linearGradient>
<linearGradient id="paint31_linear_301_21609" x1="29.2756" y1="19.8876" x2="28.8748" y2="21.3709" gradientUnits="userSpaceOnUse">
<stop stop-color="#DE822C"/>
<stop offset="0.51" stop-color="#D06922"/>
<stop offset="0.8" stop-color="#C7581C"/>
</linearGradient>
<linearGradient id="paint32_linear_301_21609" x1="33.4541" y1="20.0133" x2="32.679" y2="22.9051" gradientUnits="userSpaceOnUse">
<stop stop-color="#DE822C"/>
<stop offset="0.51" stop-color="#D06922"/>
<stop offset="0.8" stop-color="#C7581C"/>
</linearGradient>
<linearGradient id="paint33_linear_301_21609" x1="29.0243" y1="18.9606" x2="28.3164" y2="21.6015" gradientUnits="userSpaceOnUse">
<stop stop-color="#DE822C"/>
<stop offset="0.51" stop-color="#D06922"/>
<stop offset="0.8" stop-color="#C7581C"/>
</linearGradient>
<linearGradient id="paint34_linear_301_21609" x1="24.8306" y1="17.7326" x2="24.1227" y2="20.3736" gradientUnits="userSpaceOnUse">
<stop stop-color="#DE822C"/>
<stop offset="0.51" stop-color="#D06922"/>
<stop offset="0.8" stop-color="#C7581C"/>
</linearGradient>
<linearGradient id="paint35_linear_301_21609" x1="21.5403" y1="14.1488" x2="22.3953" y2="15.6366" gradientUnits="userSpaceOnUse">
<stop stop-color="#DE822C"/>
<stop offset="0.51" stop-color="#D06922"/>
<stop offset="0.8" stop-color="#C7581C"/>
</linearGradient>
<linearGradient id="paint36_linear_301_21609" x1="27.5167" y1="10.8613" x2="28.2822" y2="12.1935" gradientUnits="userSpaceOnUse">
<stop stop-color="#DE822C"/>
<stop offset="0.51" stop-color="#D06922"/>
<stop offset="0.8" stop-color="#C7581C"/>
</linearGradient>
<linearGradient id="paint37_linear_301_21609" x1="30.7207" y1="8.1372" x2="32.2113" y2="10.7309" gradientUnits="userSpaceOnUse">
<stop stop-color="#DE822C"/>
<stop offset="0.51" stop-color="#D06922"/>
<stop offset="0.8" stop-color="#C7581C"/>
</linearGradient>
<linearGradient id="paint38_linear_301_21609" x1="26.8423" y1="10.5154" x2="28.2039" y2="12.8845" gradientUnits="userSpaceOnUse">
<stop stop-color="#DE822C"/>
<stop offset="0.51" stop-color="#D06922"/>
<stop offset="0.8" stop-color="#C7581C"/>
</linearGradient>
<linearGradient id="paint39_linear_301_21609" x1="23.0216" y1="12.7051" x2="24.3829" y2="15.0738" gradientUnits="userSpaceOnUse">
<stop stop-color="#DE822C"/>
<stop offset="0.51" stop-color="#D06922"/>
<stop offset="0.8" stop-color="#C7581C"/>
</linearGradient>
<linearGradient id="paint40_linear_301_21609" x1="6.99881" y1="14.6917" x2="28.1481" y2="20.3606" gradientUnits="userSpaceOnUse">
<stop stop-color="#DE822C"/>
<stop offset="0.51" stop-color="#D06922"/>
<stop offset="0.8" stop-color="#C7581C"/>
</linearGradient>
<linearGradient id="paint41_linear_301_21609" x1="15.2577" y1="16.8267" x2="19.4874" y2="17.9604" gradientUnits="userSpaceOnUse">
<stop stop-color="#DE822C"/>
<stop offset="0.51" stop-color="#D06922"/>
<stop offset="0.8" stop-color="#C7581C"/>
</linearGradient>
<clipPath id="clip0_301_21609">
<rect width="35" height="35" fill="white"/>
</clipPath>
</defs>
</svg>
