<svg width="428" height="752" viewBox="0 0 428 752" fill="none" xmlns="http://www.w3.org/2000/svg">
<path d="M273.184 8.58592C300.232 1.8657 330.928 20.4143 339.308 37.8525C344.812 33.5053 360.694 26.982 380.192 35.6662C399.69 44.3505 398.717 64.2982 395.793 73.1865C414.487 56.557 448.839 69.2412 457.107 95.5658C469.343 134.526 444.329 146.496 452.132 157.433C458.087 165.781 478.08 195.786 459.738 223.734C445.065 246.092 422.144 246.484 408.898 247.7C407.824 255.824 400.102 277.031 377.806 296.861C349.936 321.648 287.474 313.546 265.747 301.192C248.365 291.31 242.261 268.854 241.381 258.862C230.449 253.535 215.5 251.854 198.513 230.781C177.279 204.44 181.04 179.33 190.391 155.202C202.735 123.35 219.988 127.817 219.984 101.13C219.976 40.5728 246.136 15.3061 273.184 8.58592Z" fill="#DD0B22"/>
<path d="M497.045 273.675C520.926 310.538 516.128 365.928 499.739 387.457C508.229 393.415 525.392 413.726 526.12 447.305C526.848 480.884 501.974 489.762 489.446 490.004C520.556 509.275 525.026 567.081 497.742 593.044C457.361 631.47 428.263 600.358 419.461 617.66C412.743 630.865 387.775 676.222 343.076 663.337C307.317 653.029 293.543 619.044 284.377 599.916C273.853 602.521 243.529 601.985 206.43 578.997C160.056 550.263 133.695 452.903 136.145 414.099C138.105 383.056 161.93 362.323 173.597 355.837C173.746 336.773 167.123 313.605 182.949 277.357C202.732 232.046 235.514 224.652 270.342 226.105C316.319 228.023 320.885 256.071 353.404 242.246C427.198 210.876 473.165 236.811 497.045 273.675Z" fill="#DD0B22"/>
<g style="mix-blend-mode:multiply">
<path d="M406.64 605.393C393.15 612.341 381.201 626.864 369.736 641.774C368.585 643.269 367.286 644.845 365.901 644.492C363.805 643.961 362.757 639.474 362.472 635.565C361.736 625.803 363.173 615.703 361.995 606.085C361.71 603.721 360.428 600.906 359.424 602.434C359.103 602.917 358.974 603.689 358.861 604.428C357.744 611.859 357.112 619.547 356.999 627.25C356.869 635.823 357.224 645.264 354.367 652.002C349.432 646.068 350.126 647.66 345.754 640.342C340.342 631.271 333.233 625.835 328.54 615.494C327.648 613.531 326.843 611.392 325.726 609.881C324.6 608.353 323.059 607.581 321.829 608.755C329.345 622.345 338.29 633.169 345.26 647.74C352.231 662.312 353.198 660.7 350.306 679.437C350.211 680.048 350.09 680.691 349.804 681.029C349.518 681.367 349.154 681.303 348.825 681.222C344.037 680.048 339.37 677.33 335.084 673.197C332.365 670.575 329.793 667.391 326.927 665.412C324.061 663.434 320.745 662.791 318 665.3C321.585 667.278 325.213 669.288 328.477 672.618C326.365 672.65 324.252 673.631 322.399 675.497C322.026 675.867 321.637 676.333 321.498 677.089C321.368 677.829 321.671 678.858 322.096 678.713C322.234 678.665 322.355 678.504 322.468 678.359C324.953 675.175 328.235 675.513 331.248 675.963L331.187 675.77C332.322 677.234 333.439 678.778 334.625 680.096C337.058 682.814 339.777 684.6 342.089 687.672C345.881 692.738 348.202 711.398 349.328 719.825C350.453 728.237 350.497 737.002 350.531 745.687L349.657 748.035C356.185 749.418 362.74 750.287 369.304 750.673C370.516 750.737 372.074 750.319 372.343 748.132C372.447 747.263 372.299 746.362 372.152 745.51C370.213 734.027 369.537 721.948 368.871 709.982C368.723 707.361 368.585 694.169 368.888 691.596C369.555 685.967 372.213 681.882 374.984 679.26C377.755 676.638 380.794 674.998 383.374 671.781C384.959 669.803 386.448 666.088 385.513 663.016C379.755 666.297 374.204 670.816 369.009 676.478C368.048 667.053 371.659 668.777 372.732 659.385C373.165 655.621 373.209 651.633 374.17 648.223C375.122 644.862 376.854 642.546 378.534 640.342C382.707 634.858 386.881 629.389 391.063 623.905C393.462 620.753 396.769 617.584 399.107 620.898C400.06 622.249 400.588 624.436 401.506 625.867C402.423 627.299 404.155 627.459 404.554 625.353C403.324 622.763 402.086 620.158 400.856 617.568C400.622 617.07 400.371 616.523 400.328 615.864C400.241 614.48 401.047 613.564 401.731 613.001C402.934 612.02 404.138 611.039 405.333 610.074C406.407 609.205 407.61 606.616 406.649 605.377L406.64 605.393Z" fill="#ABABAB"/>
</g>
<path d="M227.808 332.751C226.782 364.217 203.031 395.92 185.869 402.681C188.231 409.54 189.852 428.411 177.438 449.023C165.025 469.634 148.057 465.486 141.126 460.835C150.758 484.417 131.144 521.132 106.343 526.406C69.6361 534.211 65.6193 504.23 54.2128 511.337C45.5066 516.761 14.571 534.665 -4.9171 509.747C-20.5076 489.813 -15.062 463.96 -12.7684 448.868C-19.9683 440.579 -47.6077 389.241 -51.8997 369.614C-61.9202 323.792 -47.0855 287.933 -22.2125 269.852C-5.32023 257.573 11.0267 258.112 19.8711 258.652C27.2262 247.166 23.1694 231.498 45.6394 215.609C73.727 195.746 105.893 200.049 124.2 210.641C151.438 226.401 138.348 254.638 161.376 258.719C213.634 267.98 228.835 301.285 227.808 332.751Z" fill="#9D0919"/>
<path d="M35.7653 663.575C11.9555 658.017 -6.06498 632.544 -6.72951 616.53C-12.5991 617.581 -27.4661 616.204 -39.9777 602.292C-52.4893 588.38 -44.8565 574.152 -39.4762 568.777C-60.053 573.711 -82.9961 551.115 -80.5156 528.638C-76.8444 495.373 -52.8459 496.3 -55.287 485.269C-57.1502 476.85 -62.7235 447.137 -38.5346 433.78C-19.1834 423.094 -0.830225 431.687 10.1166 435.929C18.3517 430.858 64.9004 414.284 81.0477 413.436C118.746 411.457 142.29 429.746 149.591 454.181C154.549 470.777 149.842 484.997 147.105 492.654C153.962 500.789 167.018 499.561 173.273 521.57C181.093 549.082 169.349 576.582 156.433 591.028C137.216 612.52 119.047 596.887 109.873 616.428C89.0564 660.769 59.5752 669.133 35.7653 663.575Z" fill="#9D0919"/>
<g style="mix-blend-mode:multiply">
<path d="M44.4895 603.122L45.0481 660.976C37.1676 645.424 23.3252 635.037 8.82715 633.738C21.3824 633.945 32.2742 644.893 40.4339 657.022C43.1053 660.991 45.6552 665.27 46.8573 670.272C47.9987 675.038 47.8287 680.143 47.6223 685.115C46.7116 706.716 45.1574 728.273 42.9717 749.727C46.0316 748.783 49.2494 748.62 52.37 749.255L51.5807 713.695C51.35 703.574 51.18 693.098 54.3006 683.787C57.4212 674.477 64.8038 666.657 72.7086 667.911C62.1082 666.922 57.4212 672.603 50.2329 683.389C49.1765 654.927 44.8659 630.847 49.4315 602.945C47.9137 602.679 46.323 603.166 45.0602 604.273" fill="#ABABAB"/>
<path d="M43.6639 603.388L44.2224 661.242L45.8374 660.475C37.8841 645.011 24.1631 634.285 9.13075 632.853L8.71791 634.653C22.3903 635.022 33.7921 647.844 41.539 660.445C43.7125 663.972 45.5703 667.852 46.3474 672.19C47.1973 676.926 46.9181 681.81 46.7116 686.62C46.2745 696.565 45.7038 706.51 44.9996 716.44C44.2103 727.58 43.251 738.69 42.1218 749.771C42.0489 750.45 42.6075 750.73 43.0689 750.598C46.0317 749.727 49.0187 749.58 52.03 750.155C52.6372 750.273 53.1957 749.727 53.1836 748.989C52.8922 735.71 52.5036 722.416 52.3093 709.122C52.1393 697.524 52.6493 684.496 59.4855 675.51C62.7883 671.172 67.3902 668.132 72.3687 668.826L72.7815 667.026C68.2281 666.642 63.7232 667.468 59.8255 670.493C55.7092 673.695 52.5643 678.446 49.5166 682.991L51.0344 683.123C50.0023 656.328 45.9345 629.607 50.233 602.916C50.2937 602.532 50.0265 602.104 49.7108 602.06C47.9016 601.824 46.2259 602.281 44.696 603.521C43.7975 604.258 44.441 605.808 45.3638 605.055C46.5174 604.126 47.6952 603.683 49.0916 603.86L48.5694 603.004C44.2346 629.843 48.3387 656.727 49.3708 683.684C49.4073 684.673 50.5608 684.289 50.8887 683.817C53.73 679.567 56.6685 675.023 60.5055 672.028C64.3425 669.032 68.3131 668.487 72.5872 668.841C73.4008 668.914 73.9957 667.173 73.0001 667.041C64.0754 665.816 56.5106 674.403 53.4021 683.92C49.2859 696.506 50.6579 710.936 50.9615 724.142L51.5322 749.535L52.6857 748.37C49.3951 747.75 46.1045 747.912 42.8625 748.857L43.8096 749.683C45.9345 728.701 47.4766 707.631 48.3994 686.532C48.6059 681.913 48.8609 677.207 48.193 672.633C47.5252 668.059 45.8495 664.119 43.7003 660.445C39.7055 653.628 34.812 647.284 29.2994 642.238C23.3496 636.808 16.4648 633.016 8.93648 632.824C8.13507 632.809 7.51581 634.535 8.52363 634.624C23.1674 636.026 36.5484 646.369 44.2953 661.448C44.781 662.393 45.9102 661.611 45.9102 660.681L45.3274 602.842C45.3274 601.661 43.6396 602.296 43.6518 603.388H43.6639Z" fill="#ABABAB"/>
</g>
<path d="M291.196 131.38H305.056V136H283.384V132.346L295.06 121.258C297.916 118.528 298.42 116.806 298.42 115.168C298.42 112.48 296.572 110.926 292.96 110.926C290.104 110.926 287.71 111.892 286.072 113.992L282.25 111.052C284.518 107.986 288.592 106.18 293.422 106.18C299.806 106.18 303.922 109.414 303.922 114.622C303.922 117.478 303.124 120.082 299.05 123.904L291.196 131.38ZM332.079 136.42C325.107 136.42 319.815 130.96 319.815 121.3C319.815 111.64 325.107 106.18 332.079 106.18C339.093 106.18 344.385 111.64 344.385 121.3C344.385 130.96 339.093 136.42 332.079 136.42ZM332.079 131.674C336.111 131.674 338.883 128.398 338.883 121.3C338.883 114.202 336.111 110.926 332.079 110.926C328.089 110.926 325.317 114.202 325.317 121.3C325.317 128.398 328.089 131.674 332.079 131.674ZM357.987 106.18C366.009 106.18 370.713 111.346 370.713 120.796C370.713 130.876 364.833 136.42 356.307 136.42C353.367 136.42 350.553 135.79 348.579 134.53L350.595 130.414C352.191 131.464 354.123 131.842 356.181 131.842C361.725 131.842 365.211 128.398 365.211 121.72V121.678C363.447 123.736 360.633 124.744 357.357 124.744C351.561 124.744 347.235 121.216 347.235 115.714C347.235 109.876 351.981 106.18 357.987 106.18ZM358.407 120.46C361.935 120.46 364.371 118.318 364.371 115.42C364.371 112.648 362.187 110.464 358.281 110.464C354.879 110.464 352.527 112.396 352.527 115.462C352.527 118.528 354.837 120.46 358.407 120.46ZM383.605 117.982C392.299 117.982 395.785 121.762 395.785 126.97C395.785 132.136 392.047 136.42 384.151 136.42C379.993 136.42 375.793 135.16 373.105 133.018L375.415 128.776C377.557 130.54 380.749 131.674 384.067 131.674C387.973 131.674 390.283 129.952 390.283 127.18C390.283 124.366 388.477 122.602 382.387 122.602H375.289L376.801 106.6H394.063V111.178H381.421L380.791 117.982H383.605ZM299.438 167.584V176H298.398V169.344L294.99 174.976H294.478L291.07 169.328V176H290.03V167.584H291.182L294.75 173.648L298.382 167.584H299.438ZM309.551 167.584V176H308.415V168.592H304.383L304.271 170.672C304.185 172.421 303.983 173.765 303.663 174.704C303.343 175.643 302.772 176.112 301.951 176.112C301.727 176.112 301.455 176.069 301.135 175.984L301.215 175.008C301.407 175.051 301.54 175.072 301.615 175.072C302.052 175.072 302.383 174.869 302.607 174.464C302.831 174.059 302.98 173.557 303.055 172.96C303.129 172.363 303.193 171.573 303.247 170.592L303.391 167.584H309.551ZM312.78 167.584H313.916V171.312H319.212V167.584H320.348V176H319.212V172.288H313.916V176H312.78V167.584ZM323.657 176.08C323.422 176.08 323.22 175.995 323.049 175.824C322.889 175.653 322.809 175.445 322.809 175.2C322.809 174.955 322.889 174.752 323.049 174.592C323.22 174.421 323.422 174.336 323.657 174.336C323.892 174.336 324.094 174.421 324.265 174.592C324.436 174.752 324.521 174.955 324.521 175.2C324.521 175.445 324.436 175.653 324.265 175.824C324.094 175.995 323.892 176.08 323.657 176.08ZM335.491 167.52C336.28 167.52 336.995 167.701 337.635 168.064C338.275 168.416 338.776 168.917 339.139 169.568C339.502 170.219 339.683 170.96 339.683 171.792C339.683 172.635 339.502 173.381 339.139 174.032C338.776 174.683 338.275 175.189 337.635 175.552C337.006 175.904 336.291 176.08 335.491 176.08C334.808 176.08 334.19 175.941 333.635 175.664C333.091 175.376 332.643 174.96 332.291 174.416V179.104H331.155V167.584H332.243V169.248C332.584 168.693 333.032 168.267 333.587 167.968C334.152 167.669 334.787 167.52 335.491 167.52ZM335.411 175.072C335.998 175.072 336.531 174.939 337.011 174.672C337.491 174.395 337.864 174.005 338.131 173.504C338.408 173.003 338.547 172.432 338.547 171.792C338.547 171.152 338.408 170.587 338.131 170.096C337.864 169.595 337.491 169.205 337.011 168.928C336.531 168.651 335.998 168.512 335.411 168.512C334.814 168.512 334.275 168.651 333.795 168.928C333.326 169.205 332.952 169.595 332.675 170.096C332.408 170.587 332.275 171.152 332.275 171.792C332.275 172.432 332.408 173.003 332.675 173.504C332.952 174.005 333.326 174.395 333.795 174.672C334.275 174.939 334.814 175.072 335.411 175.072ZM349.041 167.584L344.833 177.008C344.492 177.797 344.097 178.357 343.649 178.688C343.201 179.019 342.663 179.184 342.033 179.184C341.628 179.184 341.249 179.12 340.897 178.992C340.545 178.864 340.241 178.672 339.985 178.416L340.513 177.568C340.94 177.995 341.452 178.208 342.049 178.208C342.433 178.208 342.759 178.101 343.025 177.888C343.303 177.675 343.559 177.312 343.793 176.8L344.161 175.984L340.401 167.584H341.585L344.753 174.736L347.921 167.584H349.041ZM354.766 167.792C355.545 167.792 356.238 167.968 356.846 168.32C357.465 168.661 357.945 169.147 358.286 169.776C358.628 170.395 358.798 171.104 358.798 171.904C358.798 172.725 358.617 173.456 358.254 174.096C357.902 174.725 357.406 175.216 356.766 175.568C356.126 175.92 355.39 176.096 354.558 176.096C353.161 176.096 352.078 175.605 351.31 174.624C350.542 173.643 350.158 172.288 350.158 170.56C350.158 168.757 350.5 167.376 351.182 166.416C351.876 165.456 352.953 164.805 354.414 164.464L358.19 163.6L358.382 164.64L354.83 165.456C353.625 165.723 352.74 166.197 352.174 166.88C351.609 167.552 351.3 168.549 351.246 169.872C351.588 169.221 352.062 168.715 352.67 168.352C353.278 167.979 353.977 167.792 354.766 167.792ZM354.59 175.152C355.177 175.152 355.7 175.019 356.158 174.752C356.628 174.475 356.99 174.091 357.246 173.6C357.513 173.109 357.646 172.555 357.646 171.936C357.646 171.317 357.518 170.773 357.262 170.304C357.006 169.835 356.644 169.472 356.174 169.216C355.716 168.949 355.188 168.816 354.59 168.816C353.993 168.816 353.46 168.949 352.99 169.216C352.532 169.472 352.169 169.835 351.902 170.304C351.646 170.773 351.518 171.317 351.518 171.936C351.518 172.555 351.646 173.109 351.902 173.6C352.169 174.091 352.537 174.475 353.006 174.752C353.476 175.019 354.004 175.152 354.59 175.152ZM368.066 167.584V176H366.93V168.592H362.898L362.786 170.672C362.701 172.421 362.498 173.765 362.178 174.704C361.858 175.643 361.288 176.112 360.466 176.112C360.242 176.112 359.97 176.069 359.65 175.984L359.73 175.008C359.922 175.051 360.056 175.072 360.13 175.072C360.568 175.072 360.898 174.869 361.122 174.464C361.346 174.059 361.496 173.557 361.57 172.96C361.645 172.363 361.709 171.573 361.762 170.592L361.906 167.584H368.066ZM378.656 172.144H371.616C371.68 173.019 372.016 173.728 372.624 174.272C373.232 174.805 374 175.072 374.928 175.072C375.45 175.072 375.93 174.981 376.368 174.8C376.805 174.608 377.184 174.331 377.504 173.968L378.144 174.704C377.77 175.152 377.301 175.493 376.736 175.728C376.181 175.963 375.568 176.08 374.896 176.08C374.032 176.08 373.264 175.899 372.592 175.536C371.93 175.163 371.413 174.651 371.04 174C370.666 173.349 370.48 172.613 370.48 171.792C370.48 170.971 370.656 170.235 371.008 169.584C371.37 168.933 371.861 168.427 372.48 168.064C373.109 167.701 373.813 167.52 374.592 167.52C375.37 167.52 376.069 167.701 376.688 168.064C377.306 168.427 377.792 168.933 378.144 169.584C378.496 170.224 378.672 170.96 378.672 171.792L378.656 172.144ZM374.592 168.496C373.781 168.496 373.098 168.757 372.544 169.28C372 169.792 371.69 170.464 371.616 171.296H377.584C377.509 170.464 377.194 169.792 376.64 169.28C376.096 168.757 375.413 168.496 374.592 168.496ZM381.186 167.584H382.322V174.272L387.938 167.584H388.946V176H387.81V169.312L382.21 176H381.186V167.584ZM385.01 166.368C384.285 166.368 383.709 166.187 383.282 165.824C382.856 165.461 382.637 164.949 382.626 164.288H383.442C383.453 164.704 383.602 165.04 383.89 165.296C384.178 165.541 384.552 165.664 385.01 165.664C385.469 165.664 385.842 165.541 386.13 165.296C386.429 165.04 386.584 164.704 386.594 164.288H387.41C387.4 164.949 387.176 165.461 386.738 165.824C386.312 166.187 385.736 166.368 385.01 166.368ZM290.194 187.584H291.33V194.272L296.946 187.584H297.954V196H296.818V189.312L291.218 196H290.194V187.584ZM301.21 187.584H302.346V191.312H307.642V187.584H308.778V196H307.642V192.288H302.346V196H301.21V187.584ZM317.367 191.648C318.508 191.915 319.079 192.603 319.079 193.712C319.079 194.448 318.807 195.013 318.263 195.408C317.719 195.803 316.908 196 315.831 196H312.007V187.584H315.719C316.679 187.584 317.431 187.771 317.975 188.144C318.519 188.517 318.791 189.051 318.791 189.744C318.791 190.203 318.663 190.597 318.407 190.928C318.161 191.248 317.815 191.488 317.367 191.648ZM313.111 191.328H315.639C316.289 191.328 316.785 191.205 317.127 190.96C317.479 190.715 317.655 190.357 317.655 189.888C317.655 189.419 317.479 189.067 317.127 188.832C316.785 188.597 316.289 188.48 315.639 188.48H313.111V191.328ZM315.783 195.104C316.508 195.104 317.052 194.987 317.415 194.752C317.777 194.517 317.959 194.149 317.959 193.648C317.959 193.147 317.793 192.779 317.463 192.544C317.132 192.299 316.609 192.176 315.895 192.176H313.111V195.104H315.783ZM329.101 192.144H322.061C322.125 193.019 322.461 193.728 323.069 194.272C323.677 194.805 324.445 195.072 325.373 195.072C325.896 195.072 326.376 194.981 326.813 194.8C327.25 194.608 327.629 194.331 327.949 193.968L328.589 194.704C328.216 195.152 327.746 195.493 327.181 195.728C326.626 195.963 326.013 196.08 325.341 196.08C324.477 196.08 323.709 195.899 323.037 195.536C322.376 195.163 321.858 194.651 321.485 194C321.112 193.349 320.925 192.613 320.925 191.792C320.925 190.971 321.101 190.235 321.453 189.584C321.816 188.933 322.306 188.427 322.925 188.064C323.554 187.701 324.258 187.52 325.037 187.52C325.816 187.52 326.514 187.701 327.133 188.064C327.752 188.427 328.237 188.933 328.589 189.584C328.941 190.224 329.117 190.96 329.117 191.792L329.101 192.144ZM325.037 188.496C324.226 188.496 323.544 188.757 322.989 189.28C322.445 189.792 322.136 190.464 322.061 191.296H328.029C327.954 190.464 327.64 189.792 327.085 189.28C326.541 188.757 325.858 188.496 325.037 188.496ZM335.152 196.08C334.32 196.08 333.573 195.899 332.912 195.536C332.261 195.173 331.749 194.667 331.376 194.016C331.002 193.355 330.816 192.613 330.816 191.792C330.816 190.971 331.002 190.235 331.376 189.584C331.749 188.933 332.261 188.427 332.912 188.064C333.573 187.701 334.32 187.52 335.152 187.52C335.877 187.52 336.522 187.664 337.088 187.952C337.664 188.229 338.117 188.64 338.448 189.184L337.6 189.76C337.322 189.344 336.97 189.035 336.544 188.832C336.117 188.619 335.653 188.512 335.152 188.512C334.544 188.512 333.994 188.651 333.504 188.928C333.024 189.195 332.645 189.579 332.368 190.08C332.101 190.581 331.968 191.152 331.968 191.792C331.968 192.443 332.101 193.019 332.368 193.52C332.645 194.011 333.024 194.395 333.504 194.672C333.994 194.939 334.544 195.072 335.152 195.072C335.653 195.072 336.117 194.971 336.544 194.768C336.97 194.565 337.322 194.256 337.6 193.84L338.448 194.416C338.117 194.96 337.664 195.376 337.088 195.664C336.512 195.941 335.866 196.08 335.152 196.08ZM346.411 188.592H343.227V196H342.091V188.592H338.907V187.584H346.411V188.592ZM348.054 187.584H349.19V194.272L354.806 187.584H355.814V196H354.678V189.312L349.078 196H348.054V187.584ZM367.837 195.008V198.112H366.765V196H359.069V187.584H360.205V195.008H365.341V187.584H366.477V195.008H367.837ZM370.007 187.584H371.143V194.272L376.759 187.584H377.767V196H376.631V189.312L371.031 196H370.007V187.584ZM381.022 187.584H382.158V194.272L387.774 187.584H388.782V196H387.646V189.312L382.046 196H381.022V187.584ZM290.71 211.648C291.852 211.915 292.422 212.603 292.422 213.712C292.422 214.448 292.15 215.013 291.606 215.408C291.062 215.803 290.252 216 289.174 216H285.35V207.584H289.062C290.022 207.584 290.774 207.771 291.318 208.144C291.862 208.517 292.134 209.051 292.134 209.744C292.134 210.203 292.006 210.597 291.75 210.928C291.505 211.248 291.158 211.488 290.71 211.648ZM286.454 211.328H288.982C289.633 211.328 290.129 211.205 290.47 210.96C290.822 210.715 290.998 210.357 290.998 209.888C290.998 209.419 290.822 209.067 290.47 208.832C290.129 208.597 289.633 208.48 288.982 208.48H286.454V211.328ZM289.126 215.104C289.852 215.104 290.396 214.987 290.758 214.752C291.121 214.517 291.302 214.149 291.302 213.648C291.302 213.147 291.137 212.779 290.806 212.544C290.476 212.299 289.953 212.176 289.238 212.176H286.454V215.104H289.126ZM306.824 207.584V216H305.688V208.592H300.408V216H299.272V207.584H306.824ZM314.39 207.52C315.179 207.52 315.894 207.701 316.534 208.064C317.174 208.416 317.675 208.917 318.038 209.568C318.4 210.219 318.582 210.96 318.582 211.792C318.582 212.635 318.4 213.381 318.038 214.032C317.675 214.683 317.174 215.189 316.534 215.552C315.904 215.904 315.19 216.08 314.39 216.08C313.707 216.08 313.088 215.941 312.534 215.664C311.99 215.376 311.542 214.96 311.19 214.416V219.104H310.054V207.584H311.142V209.248C311.483 208.693 311.931 208.267 312.486 207.968C313.051 207.669 313.686 207.52 314.39 207.52ZM314.31 215.072C314.896 215.072 315.43 214.939 315.91 214.672C316.39 214.395 316.763 214.005 317.03 213.504C317.307 213.003 317.446 212.432 317.446 211.792C317.446 211.152 317.307 210.587 317.03 210.096C316.763 209.595 316.39 209.205 315.91 208.928C315.43 208.651 314.896 208.512 314.31 208.512C313.712 208.512 313.174 208.651 312.694 208.928C312.224 209.205 311.851 209.595 311.574 210.096C311.307 210.587 311.174 211.152 311.174 211.792C311.174 212.432 311.307 213.003 311.574 213.504C311.851 214.005 312.224 214.395 312.694 214.672C313.174 214.939 313.712 215.072 314.31 215.072ZM324.494 216.08C323.684 216.08 322.953 215.899 322.302 215.536C321.652 215.163 321.14 214.651 320.766 214C320.393 213.349 320.206 212.613 320.206 211.792C320.206 210.971 320.393 210.235 320.766 209.584C321.14 208.933 321.652 208.427 322.302 208.064C322.953 207.701 323.684 207.52 324.494 207.52C325.305 207.52 326.036 207.701 326.686 208.064C327.337 208.427 327.844 208.933 328.206 209.584C328.58 210.235 328.766 210.971 328.766 211.792C328.766 212.613 328.58 213.349 328.206 214C327.844 214.651 327.337 215.163 326.686 215.536C326.036 215.899 325.305 216.08 324.494 216.08ZM324.494 215.072C325.092 215.072 325.625 214.939 326.094 214.672C326.574 214.395 326.948 214.005 327.214 213.504C327.481 213.003 327.614 212.432 327.614 211.792C327.614 211.152 327.481 210.581 327.214 210.08C326.948 209.579 326.574 209.195 326.094 208.928C325.625 208.651 325.092 208.512 324.494 208.512C323.897 208.512 323.358 208.651 322.878 208.928C322.409 209.195 322.036 209.579 321.758 210.08C321.492 210.581 321.358 211.152 321.358 211.792C321.358 212.432 321.492 213.003 321.758 213.504C322.036 214.005 322.409 214.395 322.878 214.672C323.358 214.939 323.897 215.072 324.494 215.072ZM337.146 208.592H332.33V216H331.194V207.584H337.146V208.592ZM343.124 207.52C343.913 207.52 344.628 207.701 345.268 208.064C345.908 208.416 346.409 208.917 346.772 209.568C347.135 210.219 347.316 210.96 347.316 211.792C347.316 212.635 347.135 213.381 346.772 214.032C346.409 214.683 345.908 215.189 345.268 215.552C344.639 215.904 343.924 216.08 343.124 216.08C342.441 216.08 341.823 215.941 341.268 215.664C340.724 215.376 340.276 214.96 339.924 214.416V219.104H338.788V207.584H339.876V209.248C340.217 208.693 340.665 208.267 341.22 207.968C341.785 207.669 342.42 207.52 343.124 207.52ZM343.044 215.072C343.631 215.072 344.164 214.939 344.644 214.672C345.124 214.395 345.497 214.005 345.764 213.504C346.041 213.003 346.18 212.432 346.18 211.792C346.18 211.152 346.041 210.587 345.764 210.096C345.497 209.595 345.124 209.205 344.644 208.928C344.164 208.651 343.631 208.512 343.044 208.512C342.447 208.512 341.908 208.651 341.428 208.928C340.959 209.205 340.585 209.595 340.308 210.096C340.041 210.587 339.908 211.152 339.908 211.792C339.908 212.432 340.041 213.003 340.308 213.504C340.585 214.005 340.959 214.395 341.428 214.672C341.908 214.939 342.447 215.072 343.044 215.072ZM352.606 207.52C353.704 207.52 354.547 207.797 355.134 208.352C355.72 208.896 356.014 209.707 356.014 210.784V216H354.926V214.688C354.67 215.125 354.291 215.467 353.79 215.712C353.299 215.957 352.712 216.08 352.03 216.08C351.091 216.08 350.344 215.856 349.79 215.408C349.235 214.96 348.958 214.368 348.958 213.632C348.958 212.917 349.214 212.341 349.726 211.904C350.248 211.467 351.075 211.248 352.206 211.248H354.878V210.736C354.878 210.011 354.675 209.461 354.27 209.088C353.864 208.704 353.272 208.512 352.494 208.512C351.96 208.512 351.448 208.603 350.958 208.784C350.467 208.955 350.046 209.195 349.694 209.504L349.182 208.656C349.608 208.293 350.12 208.016 350.718 207.824C351.315 207.621 351.944 207.52 352.606 207.52ZM352.206 215.184C352.846 215.184 353.395 215.04 353.854 214.752C354.312 214.453 354.654 214.027 354.878 213.472V212.096H352.238C350.798 212.096 350.078 212.597 350.078 213.6C350.078 214.091 350.264 214.48 350.638 214.768C351.011 215.045 351.534 215.184 352.206 215.184ZM368.446 207.584V216H367.406V209.344L363.998 214.976H363.486L360.078 209.328V216H359.038V207.584H360.19L363.758 213.648L367.39 207.584H368.446ZM381.087 207.584V216H380.047V209.344L376.639 214.976H376.127L372.719 209.328V216H371.679V207.584H372.831L376.399 213.648L380.031 207.584H381.087ZM387.855 210.56C388.911 210.571 389.716 210.805 390.271 211.264C390.826 211.723 391.103 212.384 391.103 213.248C391.103 214.144 390.804 214.832 390.207 215.312C389.61 215.792 388.756 216.027 387.647 216.016L384.319 216V207.584H385.455V210.528L387.855 210.56ZM392.511 207.584H393.647V216H392.511V207.584ZM387.583 215.152C388.362 215.163 388.948 215.008 389.343 214.688C389.748 214.357 389.951 213.877 389.951 213.248C389.951 212.629 389.754 212.171 389.359 211.872C388.964 211.573 388.372 211.419 387.583 211.408L385.455 211.376V215.12L387.583 215.152ZM333.323 234.976V238.624H332.219V236H322.443V224.8H323.611V234.976H330.379V224.8H331.547V234.976H333.323ZM340.573 236.096C339.464 236.096 338.461 235.851 337.565 235.36C336.68 234.869 335.981 234.192 335.469 233.328C334.968 232.453 334.717 231.477 334.717 230.4C334.717 229.323 334.968 228.352 335.469 227.488C335.981 226.613 336.685 225.931 337.581 225.44C338.477 224.949 339.48 224.704 340.589 224.704C341.421 224.704 342.189 224.843 342.893 225.12C343.597 225.397 344.194 225.803 344.685 226.336L343.933 227.088C343.058 226.203 341.954 225.76 340.621 225.76C339.736 225.76 338.93 225.963 338.205 226.368C337.48 226.773 336.909 227.328 336.493 228.032C336.088 228.736 335.885 229.525 335.885 230.4C335.885 231.275 336.088 232.064 336.493 232.768C336.909 233.472 337.48 234.027 338.205 234.432C338.93 234.837 339.736 235.04 340.621 235.04C341.965 235.04 343.069 234.592 343.933 233.696L344.685 234.448C344.194 234.981 343.592 235.392 342.877 235.68C342.173 235.957 341.405 236.096 340.573 236.096ZM356.554 224.8V236H355.386V225.824H348.298V236H347.13V224.8H356.554Z" fill="white"/>
<path d="M282.436 410.906C262.672 404.467 239.395 418.093 232.64 431.708C228.715 428.015 217.193 422.173 202.508 428.351C187.823 434.528 187.896 450.518 189.768 457.741C176.497 443.707 150.709 452.499 143.749 473.225C133.449 503.899 151.54 514.455 145.422 522.895C140.752 529.336 125.011 552.543 137.656 575.614C147.772 594.071 164.692 595.286 174.438 596.779C174.968 603.319 179.987 620.581 195.815 637.316C215.601 658.234 262.007 654.212 278.457 645.188C291.618 637.969 296.854 620.252 297.828 612.296C306.076 608.467 317.174 607.71 330.405 591.527C346.944 571.299 344.979 551.071 338.852 531.408C330.764 505.451 317.874 508.344 318.74 487.004C320.707 438.578 302.2 417.344 282.436 410.906Z" fill="#6D0813"/>
<path d="M266.136 484.775C249.548 479.711 230.2 491.103 224.671 502.316C221.355 499.335 211.666 494.673 199.438 499.881C187.21 505.089 187.414 518.175 189.045 524.067C177.819 512.719 156.328 520.181 150.691 537.216C142.35 562.426 157.576 570.878 152.534 577.848C148.686 583.168 135.727 602.324 146.51 621.075C155.136 636.075 169.299 636.894 177.465 638.015C177.967 643.362 182.319 657.437 195.708 670.969C212.445 687.883 251.224 684.111 264.903 676.555C275.846 670.511 280.068 655.957 280.811 649.435C287.676 646.216 296.952 645.482 307.874 632.1C321.527 615.374 319.702 598.839 314.402 582.811C307.405 561.651 296.649 564.153 297.183 546.679C298.395 507.026 282.725 489.84 266.136 484.775Z" fill="#6D0813"/>
<g style="mix-blend-mode:multiply">
<path d="M241.884 749.468C244.184 742.681 243.406 734.5 242.835 726.882C241.953 715.307 241.685 703.611 242.023 691.97C242.118 688.603 242.291 685.13 243.345 682.179C244.14 679.952 245.385 678.209 246.612 676.532C249.102 673.139 251.634 669.826 254.219 666.607C258.532 661.216 263.39 655.824 268.931 655.717C267.038 654.523 264.877 654.389 262.932 655.328C264.177 651.908 265.11 648.206 265.698 644.383C260.78 647.602 259.561 659.767 254.271 660.853C253.951 660.921 253.597 660.934 253.32 660.639C252.966 660.263 252.87 659.512 252.845 658.855C252.758 656.481 253.121 654.067 253.882 652.001C252.456 653.812 252.499 657.125 252.533 659.968C252.577 662.825 252.257 666.259 250.58 667.425C249.88 667.922 249.085 667.881 248.341 668.136C245.86 668.981 244.261 672.737 241.971 674.427C241.253 674.963 240.337 675.245 239.697 674.507C239.075 673.796 238.971 672.428 238.919 671.234L238.375 658.251C238.297 656.414 238.202 654.483 237.519 652.967C236.836 651.452 235.367 650.647 234.442 651.8C234.062 652.27 233.837 652.981 233.673 653.691C232.86 657.38 233.647 661.39 234.2 665.186C234.753 668.995 234.969 673.421 233.318 676.358C231.183 675.231 229.36 673.045 227.57 670.899L210.153 649.949C211.104 653.986 212.582 657.715 214.475 660.84C212.193 660.947 209.937 661.993 207.992 663.844C209.462 665.762 211.657 664.475 213.576 664.582C215.815 664.716 217.76 666.876 219.549 668.941L227.717 678.356C228.72 679.51 229.748 680.717 230.414 682.367C231.028 683.896 231.27 685.706 231.486 687.49C233.586 704.886 233.751 722.831 231.97 740.307C231.771 742.265 231.546 744.344 231.996 746.195C232.575 748.609 234.191 750.125 235.825 750.581C237.459 751.037 239.136 750.594 240.769 750.165" fill="#ABABAB"/>
<path d="M242.679 749.347C244.727 743.083 244.39 736.042 243.889 729.282C243.284 721.155 242.826 713.04 242.739 704.859C242.696 700.902 242.722 696.932 242.826 692.976C242.912 689.408 242.955 685.545 244.045 682.313C245.134 679.081 247.13 676.814 248.859 674.507C250.795 671.918 252.757 669.37 254.754 666.875C258.782 661.846 263.242 656.682 268.619 656.468C268.895 656.468 270.304 655.435 269.578 655.006C267.452 653.758 265.187 653.664 263.009 654.644L263.718 655.22C264.971 651.706 265.913 647.991 266.536 644.088C266.674 643.243 265.481 643.86 265.325 643.967C262.326 646.033 260.692 650.553 258.877 654.523C258.013 656.414 257.027 658.52 255.653 659.579C255.351 659.807 254.892 660.156 254.555 660.116C253.622 660.022 253.656 658.52 253.674 657.46C253.708 655.502 254.071 653.611 254.668 651.894C255.065 650.741 253.38 651.653 253.172 651.948C251.893 653.745 251.668 656.293 251.66 658.842C251.66 661.202 251.919 664.85 250.605 666.594C249.94 667.479 248.591 667.331 247.753 667.761C246.914 668.19 246.197 668.82 245.497 669.571C244.468 670.685 241.814 675.352 240.457 673.917C239.731 673.152 239.775 671.315 239.723 670.135C239.636 668.19 239.558 666.245 239.472 664.287L239.256 659.096C239.187 657.393 239.178 655.609 238.815 653.973C238.314 651.733 236.991 650.244 235.444 650.58C233.897 650.915 232.92 652.833 232.609 655.193C231.701 662.101 235.772 670.296 232.514 676.492L233.966 675.66C231.857 674.48 230.094 672.401 228.339 670.296C226.385 667.948 224.432 665.588 222.478 663.241L210.922 649.332C210.576 648.917 209.098 649.587 209.305 650.446C210.299 654.55 211.777 658.251 213.696 661.47L214.777 660.089C212.244 660.263 209.807 661.403 207.628 663.402C207.482 663.536 206.902 664.099 207.214 664.461C208.977 666.5 211.086 665.212 213.074 665.333C215.659 665.494 217.819 668.458 219.79 670.738C222.055 673.354 224.328 675.969 226.593 678.584C227.518 679.657 228.512 680.703 229.229 682.125C230.007 683.654 230.318 685.559 230.56 687.436C232.747 704.443 232.885 722.214 231.226 739.328C230.854 743.151 230.387 747.188 232.721 749.736C235.055 752.284 237.89 751.573 240.44 750.903C240.743 750.822 241.443 750.594 241.538 750.031C241.633 749.508 241.391 749.307 241.045 749.401C238.538 750.058 235.505 750.782 233.56 747.55C231.753 744.545 232.842 739.704 233.153 736.136C233.871 727.794 234.139 719.357 233.975 710.948C233.81 702.834 233.266 694.706 232.272 686.725C231.822 683.091 230.915 680.636 229.022 678.356C226.939 675.862 224.804 673.474 222.686 671.047C220.568 668.619 218.45 665.601 215.918 664.327C214.811 663.777 213.696 663.737 212.547 663.885C211.233 664.059 209.876 664.502 208.744 663.187L208.329 664.247C210.135 662.584 212.054 661.712 214.154 661.564C214.448 661.551 215.633 660.867 215.235 660.183C213.368 657.044 211.942 653.436 210.974 649.44L209.357 650.553L221.251 664.877C223.196 667.211 225.132 669.558 227.077 671.892C228.806 673.957 230.569 675.929 232.643 677.082C233.128 677.35 233.802 676.814 234.096 676.251C236.715 671.261 234.778 664.77 234.277 659.231C234.104 657.393 234.078 655.475 234.45 653.678C234.614 652.887 234.753 652.082 235.349 652.109C235.781 652.135 236.291 652.779 236.559 653.262C237.251 654.509 237.389 656.333 237.475 657.903C237.57 659.687 237.631 661.484 237.709 663.281L237.942 668.793C238.003 670.322 237.942 672.066 238.236 673.541C238.746 676.049 240.483 675.982 241.814 675.204C243.457 674.239 244.719 672.267 246.093 670.631C246.836 669.746 247.571 669.035 248.505 668.767C249.438 668.498 250.398 668.378 251.253 667.586C252.723 666.218 253.241 663.724 253.337 661.189C253.458 658.158 252.922 654.362 254.547 652.068L253.051 652.122C252.368 654.08 250.726 660.853 253.077 661.591C254.832 662.141 256.924 660.196 258.16 658.453C261.047 654.416 262.3 647.374 266.017 644.812L264.807 644.692C264.202 648.461 263.303 652.042 262.084 655.448C261.833 656.146 262.551 656.132 262.793 656.025C264.634 655.207 266.449 655.381 268.23 656.427L269.189 654.965C264.617 655.153 260.468 658.506 256.82 662.557C252.68 667.157 248.686 672.388 244.961 677.753C243.327 680.1 242.1 682.742 241.581 686.135C241.002 689.931 241.071 694.008 241.019 697.884C240.916 706.415 241.14 714.945 241.685 723.435C242.229 731.925 243.69 741.514 241.054 749.588C240.717 750.621 242.411 750.071 242.653 749.347H242.679Z" fill="#ABABAB"/>
</g>
<path d="M182.484 494.6H194.16V524H188.7V499.178H182.484V494.6ZM220.798 505.982C229.492 505.982 232.978 509.762 232.978 514.97C232.978 520.136 229.24 524.42 221.344 524.42C217.186 524.42 212.986 523.16 210.298 521.018L212.608 516.776C214.75 518.54 217.942 519.674 221.26 519.674C225.166 519.674 227.476 517.952 227.476 515.18C227.476 512.366 225.67 510.602 219.58 510.602H212.482L213.994 494.6H231.256V499.178H218.614L217.984 505.982H220.798ZM234.922 494.6H257.77V498.254L246.346 524H240.508L251.554 499.22H240.004V504.218H234.922V494.6ZM260.475 494.6H283.323V498.254L271.899 524H266.061L277.107 499.22H265.557V504.218H260.475V494.6ZM203.66 555.584V564H202.524V556.592H197.244V564H196.108V555.584H203.66ZM211.225 555.52C212.015 555.52 212.729 555.701 213.369 556.064C214.009 556.416 214.511 556.917 214.873 557.568C215.236 558.219 215.417 558.96 215.417 559.792C215.417 560.635 215.236 561.381 214.873 562.032C214.511 562.683 214.009 563.189 213.369 563.552C212.74 563.904 212.025 564.08 211.225 564.08C210.543 564.08 209.924 563.941 209.369 563.664C208.825 563.376 208.377 562.96 208.025 562.416V567.104H206.889V555.584H207.977V557.248C208.319 556.693 208.767 556.267 209.321 555.968C209.887 555.669 210.521 555.52 211.225 555.52ZM211.145 563.072C211.732 563.072 212.265 562.939 212.745 562.672C213.225 562.395 213.599 562.005 213.865 561.504C214.143 561.003 214.281 560.432 214.281 559.792C214.281 559.152 214.143 558.587 213.865 558.096C213.599 557.595 213.225 557.205 212.745 556.928C212.265 556.651 211.732 556.512 211.145 556.512C210.548 556.512 210.009 556.651 209.529 556.928C209.06 557.205 208.687 557.595 208.409 558.096C208.143 558.587 208.009 559.152 208.009 559.792C208.009 560.432 208.143 561.003 208.409 561.504C208.687 562.005 209.06 562.395 209.529 562.672C210.009 562.939 210.548 563.072 211.145 563.072ZM221.33 564.08C220.52 564.08 219.789 563.899 219.138 563.536C218.488 563.163 217.976 562.651 217.602 562C217.229 561.349 217.042 560.613 217.042 559.792C217.042 558.971 217.229 558.235 217.602 557.584C217.976 556.933 218.488 556.427 219.138 556.064C219.789 555.701 220.52 555.52 221.33 555.52C222.141 555.52 222.872 555.701 223.522 556.064C224.173 556.427 224.68 556.933 225.042 557.584C225.416 558.235 225.602 558.971 225.602 559.792C225.602 560.613 225.416 561.349 225.042 562C224.68 562.651 224.173 563.163 223.522 563.536C222.872 563.899 222.141 564.08 221.33 564.08ZM221.33 563.072C221.928 563.072 222.461 562.939 222.93 562.672C223.41 562.395 223.784 562.005 224.05 561.504C224.317 561.003 224.45 560.432 224.45 559.792C224.45 559.152 224.317 558.581 224.05 558.08C223.784 557.579 223.41 557.195 222.93 556.928C222.461 556.651 221.928 556.512 221.33 556.512C220.733 556.512 220.194 556.651 219.714 556.928C219.245 557.195 218.872 557.579 218.594 558.08C218.328 558.581 218.194 559.152 218.194 559.792C218.194 560.432 218.328 561.003 218.594 561.504C218.872 562.005 219.245 562.395 219.714 562.672C220.194 562.939 220.733 563.072 221.33 563.072ZM235.39 560.144H228.35C228.414 561.019 228.75 561.728 229.358 562.272C229.966 562.805 230.734 563.072 231.662 563.072C232.185 563.072 232.665 562.981 233.102 562.8C233.539 562.608 233.918 562.331 234.238 561.968L234.878 562.704C234.505 563.152 234.035 563.493 233.47 563.728C232.915 563.963 232.302 564.08 231.63 564.08C230.766 564.08 229.998 563.899 229.326 563.536C228.665 563.163 228.147 562.651 227.774 562C227.401 561.349 227.214 560.613 227.214 559.792C227.214 558.971 227.39 558.235 227.742 557.584C228.105 556.933 228.595 556.427 229.214 556.064C229.843 555.701 230.547 555.52 231.326 555.52C232.105 555.52 232.803 555.701 233.422 556.064C234.041 556.427 234.526 556.933 234.878 557.584C235.23 558.224 235.406 558.96 235.406 559.792L235.39 560.144ZM231.326 556.496C230.515 556.496 229.833 556.757 229.278 557.28C228.734 557.792 228.425 558.464 228.35 559.296H234.318C234.243 558.464 233.929 557.792 233.374 557.28C232.83 556.757 232.147 556.496 231.326 556.496ZM240.977 560.256H239.057V564H237.921V555.584H239.057V559.28H240.993L243.953 555.584H245.185L241.873 559.664L245.425 564H244.081L240.977 560.256ZM252.966 556.592H249.782V564H248.646V556.592H245.462V555.584H252.966V556.592ZM257.69 564.08C256.879 564.08 256.148 563.899 255.498 563.536C254.847 563.163 254.335 562.651 253.962 562C253.588 561.349 253.402 560.613 253.402 559.792C253.402 558.971 253.588 558.235 253.962 557.584C254.335 556.933 254.847 556.427 255.498 556.064C256.148 555.701 256.879 555.52 257.69 555.52C258.5 555.52 259.231 555.701 259.882 556.064C260.532 556.427 261.039 556.933 261.402 557.584C261.775 558.235 261.962 558.971 261.962 559.792C261.962 560.613 261.775 561.349 261.402 562C261.039 562.651 260.532 563.163 259.882 563.536C259.231 563.899 258.5 564.08 257.69 564.08ZM257.69 563.072C258.287 563.072 258.82 562.939 259.29 562.672C259.77 562.395 260.143 562.005 260.41 561.504C260.676 561.003 260.81 560.432 260.81 559.792C260.81 559.152 260.676 558.581 260.41 558.08C260.143 557.579 259.77 557.195 259.29 556.928C258.82 556.651 258.287 556.512 257.69 556.512C257.092 556.512 256.554 556.651 256.074 556.928C255.604 557.195 255.231 557.579 254.954 558.08C254.687 558.581 254.554 559.152 254.554 559.792C254.554 560.432 254.687 561.003 254.954 561.504C255.231 562.005 255.604 562.395 256.074 562.672C256.554 562.939 257.092 563.072 257.69 563.072ZM269.749 559.648C270.891 559.915 271.461 560.603 271.461 561.712C271.461 562.448 271.189 563.013 270.645 563.408C270.101 563.803 269.291 564 268.213 564H264.389V555.584H268.101C269.061 555.584 269.813 555.771 270.357 556.144C270.901 556.517 271.173 557.051 271.173 557.744C271.173 558.203 271.045 558.597 270.789 558.928C270.544 559.248 270.197 559.488 269.749 559.648ZM265.493 559.328H268.021C268.672 559.328 269.168 559.205 269.509 558.96C269.861 558.715 270.037 558.357 270.037 557.888C270.037 557.419 269.861 557.067 269.509 556.832C269.168 556.597 268.672 556.48 268.021 556.48H265.493V559.328ZM268.165 563.104C268.891 563.104 269.435 562.987 269.797 562.752C270.16 562.517 270.341 562.149 270.341 561.648C270.341 561.147 270.176 560.779 269.845 560.544C269.515 560.299 268.992 560.176 268.277 560.176H265.493V563.104H268.165ZM189.832 575.584V584H188.696V576.592H183.416V584H182.28V575.584H189.832ZM196.533 584.08C195.723 584.08 194.992 583.899 194.341 583.536C193.691 583.163 193.179 582.651 192.805 582C192.432 581.349 192.245 580.613 192.245 579.792C192.245 578.971 192.432 578.235 192.805 577.584C193.179 576.933 193.691 576.427 194.341 576.064C194.992 575.701 195.723 575.52 196.533 575.52C197.344 575.52 198.075 575.701 198.725 576.064C199.376 576.427 199.883 576.933 200.245 577.584C200.619 578.235 200.805 578.971 200.805 579.792C200.805 580.613 200.619 581.349 200.245 582C199.883 582.651 199.376 583.163 198.725 583.536C198.075 583.899 197.344 584.08 196.533 584.08ZM196.533 583.072C197.131 583.072 197.664 582.939 198.133 582.672C198.613 582.395 198.987 582.005 199.253 581.504C199.52 581.003 199.653 580.432 199.653 579.792C199.653 579.152 199.52 578.581 199.253 578.08C198.987 577.579 198.613 577.195 198.133 576.928C197.664 576.651 197.131 576.512 196.533 576.512C195.936 576.512 195.397 576.651 194.917 576.928C194.448 577.195 194.075 577.579 193.797 578.08C193.531 578.581 193.397 579.152 193.397 579.792C193.397 580.432 193.531 581.003 193.797 581.504C194.075 582.005 194.448 582.395 194.917 582.672C195.397 582.939 195.936 583.072 196.533 583.072ZM211.394 583.008V586.032H210.322V584H202.786V586.032H201.714V583.008H202.194C202.76 582.976 203.144 582.56 203.346 581.76C203.549 580.96 203.688 579.84 203.762 578.4L203.874 575.584H210.082V583.008H211.394ZM204.802 578.464C204.749 579.659 204.648 580.645 204.498 581.424C204.349 582.192 204.082 582.72 203.698 583.008H208.946V576.592H204.898L204.802 578.464ZM221.816 583.008V586.032H220.744V584H213.208V586.032H212.136V583.008H212.616C213.182 582.976 213.566 582.56 213.768 581.76C213.971 580.96 214.11 579.84 214.184 578.4L214.296 575.584H220.504V583.008H221.816ZM215.224 578.464C215.171 579.659 215.07 580.645 214.92 581.424C214.771 582.192 214.504 582.72 214.12 583.008H219.368V576.592H215.32L215.224 578.464ZM231.39 580.144H224.35C224.414 581.019 224.75 581.728 225.358 582.272C225.966 582.805 226.734 583.072 227.662 583.072C228.185 583.072 228.665 582.981 229.102 582.8C229.539 582.608 229.918 582.331 230.238 581.968L230.878 582.704C230.505 583.152 230.035 583.493 229.47 583.728C228.915 583.963 228.302 584.08 227.63 584.08C226.766 584.08 225.998 583.899 225.326 583.536C224.665 583.163 224.147 582.651 223.774 582C223.401 581.349 223.214 580.613 223.214 579.792C223.214 578.971 223.39 578.235 223.742 577.584C224.105 576.933 224.595 576.427 225.214 576.064C225.843 575.701 226.547 575.52 227.326 575.52C228.105 575.52 228.803 575.701 229.422 576.064C230.041 576.427 230.526 576.933 230.878 577.584C231.23 578.224 231.406 578.96 231.406 579.792L231.39 580.144ZM227.326 576.496C226.515 576.496 225.833 576.757 225.278 577.28C224.734 577.792 224.425 578.464 224.35 579.296H230.318C230.243 578.464 229.929 577.792 229.374 577.28C228.83 576.757 228.147 576.496 227.326 576.496ZM238.257 575.52C239.046 575.52 239.761 575.701 240.401 576.064C241.041 576.416 241.542 576.917 241.905 577.568C242.267 578.219 242.449 578.96 242.449 579.792C242.449 580.635 242.267 581.381 241.905 582.032C241.542 582.683 241.041 583.189 240.401 583.552C239.771 583.904 239.057 584.08 238.257 584.08C237.574 584.08 236.955 583.941 236.401 583.664C235.857 583.376 235.409 582.96 235.057 582.416V587.104H233.921V575.584H235.009V577.248C235.35 576.693 235.798 576.267 236.353 575.968C236.918 575.669 237.553 575.52 238.257 575.52ZM238.177 583.072C238.763 583.072 239.297 582.939 239.777 582.672C240.257 582.395 240.63 582.005 240.897 581.504C241.174 581.003 241.313 580.432 241.313 579.792C241.313 579.152 241.174 578.587 240.897 578.096C240.63 577.595 240.257 577.205 239.777 576.928C239.297 576.651 238.763 576.512 238.177 576.512C237.579 576.512 237.041 576.651 236.561 576.928C236.091 577.205 235.718 577.595 235.441 578.096C235.174 578.587 235.041 579.152 235.041 579.792C235.041 580.432 235.174 581.003 235.441 581.504C235.718 582.005 236.091 582.395 236.561 582.672C237.041 582.939 237.579 583.072 238.177 583.072ZM251.969 580.256H250.145V584H249.009V580.256H247.185L244.609 584H243.249L246.273 579.664L243.489 575.584H244.721L247.185 579.28H249.009V575.584H250.145V579.28H251.969L254.449 575.584H255.681L252.897 579.68L255.921 584H254.561L251.969 580.256ZM260.551 575.52C261.65 575.52 262.492 575.797 263.079 576.352C263.666 576.896 263.959 577.707 263.959 578.784V584H262.871V582.688C262.615 583.125 262.236 583.467 261.735 583.712C261.244 583.957 260.658 584.08 259.975 584.08C259.036 584.08 258.29 583.856 257.735 583.408C257.18 582.96 256.903 582.368 256.903 581.632C256.903 580.917 257.159 580.341 257.671 579.904C258.194 579.467 259.02 579.248 260.151 579.248H262.823V578.736C262.823 578.011 262.62 577.461 262.215 577.088C261.81 576.704 261.218 576.512 260.439 576.512C259.906 576.512 259.394 576.603 258.903 576.784C258.412 576.955 257.991 577.195 257.639 577.504L257.127 576.656C257.554 576.293 258.066 576.016 258.663 575.824C259.26 575.621 259.89 575.52 260.551 575.52ZM260.151 583.184C260.791 583.184 261.34 583.04 261.799 582.752C262.258 582.453 262.599 582.027 262.823 581.472V580.096H260.183C258.743 580.096 258.023 580.597 258.023 581.6C258.023 582.091 258.21 582.48 258.583 582.768C258.956 583.045 259.479 583.184 260.151 583.184ZM266.983 575.584H268.119V579.312H273.415V575.584H274.551V584H273.415V580.288H268.119V584H266.983V575.584ZM281.252 584.08C280.441 584.08 279.711 583.899 279.06 583.536C278.409 583.163 277.897 582.651 277.524 582C277.151 581.349 276.964 580.613 276.964 579.792C276.964 578.971 277.151 578.235 277.524 577.584C277.897 576.933 278.409 576.427 279.06 576.064C279.711 575.701 280.441 575.52 281.252 575.52C282.063 575.52 282.793 575.701 283.444 576.064C284.095 576.427 284.601 576.933 284.964 577.584C285.337 578.235 285.524 578.971 285.524 579.792C285.524 580.613 285.337 581.349 284.964 582C284.601 582.651 284.095 583.163 283.444 583.536C282.793 583.899 282.063 584.08 281.252 584.08ZM281.252 583.072C281.849 583.072 282.383 582.939 282.852 582.672C283.332 582.395 283.705 582.005 283.972 581.504C284.239 581.003 284.372 580.432 284.372 579.792C284.372 579.152 284.239 578.581 283.972 578.08C283.705 577.579 283.332 577.195 282.852 576.928C282.383 576.651 281.849 576.512 281.252 576.512C280.655 576.512 280.116 576.651 279.636 576.928C279.167 577.195 278.793 577.579 278.516 578.08C278.249 578.581 278.116 579.152 278.116 579.792C278.116 580.432 278.249 581.003 278.516 581.504C278.793 582.005 279.167 582.395 279.636 582.672C280.116 582.939 280.655 583.072 281.252 583.072Z" fill="white"/>
<path d="M61.1083 303.856C66.9043 303.856 71.2303 307.384 71.2303 312.886C71.2303 318.724 66.4843 322.42 60.4783 322.42C52.4563 322.42 47.7523 317.254 47.7523 307.804C47.7523 297.724 53.6323 292.18 62.1583 292.18C65.0983 292.18 67.9123 292.81 69.8863 294.07L67.8703 298.186C66.2743 297.136 64.3423 296.758 62.2843 296.758C56.7403 296.758 53.2543 300.202 53.2543 306.88V306.922C55.0183 304.864 57.8323 303.856 61.1083 303.856ZM60.1843 318.136C63.5863 318.136 65.9383 316.204 65.9383 313.138C65.9383 310.072 63.6283 308.14 60.0583 308.14C56.5303 308.14 54.0943 310.282 54.0943 313.18C54.0943 315.952 56.2783 318.136 60.1843 318.136ZM83.2823 303.982C91.9763 303.982 95.4623 307.762 95.4623 312.97C95.4623 318.136 91.7243 322.42 83.8283 322.42C79.6703 322.42 75.4703 321.16 72.7823 319.018L75.0923 314.776C77.2343 316.54 80.4263 317.674 83.7443 317.674C87.6503 317.674 89.9603 315.952 89.9603 313.18C89.9603 310.366 88.1543 308.602 82.0643 308.602H74.9663L76.4783 292.6H93.7403V297.178H81.0983L80.4683 303.982H83.2823ZM108.524 292.18C116.546 292.18 121.25 297.346 121.25 306.796C121.25 316.876 115.37 322.42 106.844 322.42C103.904 322.42 101.09 321.79 99.1157 320.53L101.132 316.414C102.728 317.464 104.66 317.842 106.718 317.842C112.262 317.842 115.748 314.398 115.748 307.72V307.678C113.984 309.736 111.17 310.744 107.894 310.744C102.098 310.744 97.7717 307.216 97.7717 301.714C97.7717 295.876 102.518 292.18 108.524 292.18ZM108.944 306.46C112.472 306.46 114.908 304.318 114.908 301.42C114.908 298.648 112.724 296.464 108.818 296.464C105.416 296.464 103.064 298.396 103.064 301.462C103.064 304.528 105.374 306.46 108.944 306.46ZM44.4381 353.584V362H43.3981V355.344L39.9901 360.976H39.4781L36.0701 355.328V362H35.0301V353.584H36.1821L39.7501 359.648L43.3821 353.584H44.4381ZM54.5507 353.584V362H53.4147V354.592H49.3827L49.2707 356.672C49.1854 358.421 48.9827 359.765 48.6627 360.704C48.3427 361.643 47.772 362.112 46.9507 362.112C46.7267 362.112 46.4547 362.069 46.1347 361.984L46.2147 361.008C46.4067 361.051 46.54 361.072 46.6147 361.072C47.052 361.072 47.3827 360.869 47.6067 360.464C47.8307 360.059 47.98 359.557 48.0547 358.96C48.1294 358.363 48.1934 357.573 48.2467 356.592L48.3907 353.584H54.5507ZM57.7801 353.584H58.9161V357.312H64.2121V353.584H65.3481V362H64.2121V358.288H58.9161V362H57.7801V353.584ZM68.6569 362.08C68.4223 362.08 68.2196 361.995 68.0489 361.824C67.8889 361.653 67.8089 361.445 67.8089 361.2C67.8089 360.955 67.8889 360.752 68.0489 360.592C68.2196 360.421 68.4223 360.336 68.6569 360.336C68.8916 360.336 69.0943 360.421 69.2649 360.592C69.4356 360.752 69.5209 360.955 69.5209 361.2C69.5209 361.445 69.4356 361.653 69.2649 361.824C69.0943 361.995 68.8916 362.08 68.6569 362.08ZM80.4911 353.52C81.2804 353.52 81.9951 353.701 82.6351 354.064C83.2751 354.416 83.7764 354.917 84.1391 355.568C84.5017 356.219 84.6831 356.96 84.6831 357.792C84.6831 358.635 84.5017 359.381 84.1391 360.032C83.7764 360.683 83.2751 361.189 82.6351 361.552C82.0057 361.904 81.2911 362.08 80.4911 362.08C79.8084 362.08 79.1897 361.941 78.6351 361.664C78.0911 361.376 77.6431 360.96 77.2911 360.416V365.104H76.1551V353.584H77.2431V355.248C77.5844 354.693 78.0324 354.267 78.5871 353.968C79.1524 353.669 79.7871 353.52 80.4911 353.52ZM80.4111 361.072C80.9977 361.072 81.5311 360.939 82.0111 360.672C82.4911 360.395 82.8644 360.005 83.1311 359.504C83.4084 359.003 83.5471 358.432 83.5471 357.792C83.5471 357.152 83.4084 356.587 83.1311 356.096C82.8644 355.595 82.4911 355.205 82.0111 354.928C81.5311 354.651 80.9977 354.512 80.4111 354.512C79.8137 354.512 79.2751 354.651 78.7951 354.928C78.3257 355.205 77.9524 355.595 77.6751 356.096C77.4084 356.587 77.2751 357.152 77.2751 357.792C77.2751 358.432 77.4084 359.003 77.6751 359.504C77.9524 360.005 78.3257 360.395 78.7951 360.672C79.2751 360.939 79.8137 361.072 80.4111 361.072ZM94.0414 353.584L89.8334 363.008C89.4921 363.797 89.0974 364.357 88.6494 364.688C88.2014 365.019 87.6628 365.184 87.0334 365.184C86.6281 365.184 86.2494 365.12 85.8974 364.992C85.5454 364.864 85.2414 364.672 84.9854 364.416L85.5134 363.568C85.9401 363.995 86.4521 364.208 87.0494 364.208C87.4334 364.208 87.7588 364.101 88.0254 363.888C88.3028 363.675 88.5588 363.312 88.7934 362.8L89.1614 361.984L85.4014 353.584H86.5854L89.7534 360.736L92.9214 353.584H94.0414ZM99.7663 353.792C100.545 353.792 101.238 353.968 101.846 354.32C102.465 354.661 102.945 355.147 103.286 355.776C103.628 356.395 103.798 357.104 103.798 357.904C103.798 358.725 103.617 359.456 103.254 360.096C102.902 360.725 102.406 361.216 101.766 361.568C101.126 361.92 100.39 362.096 99.5583 362.096C98.161 362.096 97.0783 361.605 96.3103 360.624C95.5423 359.643 95.1583 358.288 95.1583 356.56C95.1583 354.757 95.4996 353.376 96.1823 352.416C96.8756 351.456 97.953 350.805 99.4143 350.464L103.19 349.6L103.382 350.64L99.8303 351.456C98.625 351.723 97.7396 352.197 97.1743 352.88C96.609 353.552 96.2996 354.549 96.2463 355.872C96.5876 355.221 97.0623 354.715 97.6703 354.352C98.2783 353.979 98.977 353.792 99.7663 353.792ZM99.5903 361.152C100.177 361.152 100.7 361.019 101.158 360.752C101.628 360.475 101.99 360.091 102.246 359.6C102.513 359.109 102.646 358.555 102.646 357.936C102.646 357.317 102.518 356.773 102.262 356.304C102.006 355.835 101.644 355.472 101.174 355.216C100.716 354.949 100.188 354.816 99.5903 354.816C98.993 354.816 98.4596 354.949 97.9903 355.216C97.5316 355.472 97.169 355.835 96.9023 356.304C96.6463 356.773 96.5183 357.317 96.5183 357.936C96.5183 358.555 96.6463 359.109 96.9023 359.6C97.169 360.091 97.537 360.475 98.0063 360.752C98.4756 361.019 99.0036 361.152 99.5903 361.152ZM113.066 353.584V362H111.93V354.592H107.898L107.786 356.672C107.701 358.421 107.498 359.765 107.178 360.704C106.858 361.643 106.288 362.112 105.466 362.112C105.242 362.112 104.97 362.069 104.65 361.984L104.73 361.008C104.922 361.051 105.056 361.072 105.13 361.072C105.568 361.072 105.898 360.869 106.122 360.464C106.346 360.059 106.496 359.557 106.57 358.96C106.645 358.363 106.709 357.573 106.762 356.592L106.906 353.584H113.066ZM123.656 358.144H116.616C116.68 359.019 117.016 359.728 117.624 360.272C118.232 360.805 119 361.072 119.928 361.072C120.45 361.072 120.93 360.981 121.368 360.8C121.805 360.608 122.184 360.331 122.504 359.968L123.144 360.704C122.77 361.152 122.301 361.493 121.736 361.728C121.181 361.963 120.568 362.08 119.896 362.08C119.032 362.08 118.264 361.899 117.592 361.536C116.93 361.163 116.413 360.651 116.04 360C115.666 359.349 115.48 358.613 115.48 357.792C115.48 356.971 115.656 356.235 116.008 355.584C116.37 354.933 116.861 354.427 117.48 354.064C118.109 353.701 118.813 353.52 119.592 353.52C120.37 353.52 121.069 353.701 121.688 354.064C122.306 354.427 122.792 354.933 123.144 355.584C123.496 356.224 123.672 356.96 123.672 357.792L123.656 358.144ZM119.592 354.496C118.781 354.496 118.098 354.757 117.544 355.28C117 355.792 116.69 356.464 116.616 357.296H122.584C122.509 356.464 122.194 355.792 121.64 355.28C121.096 354.757 120.413 354.496 119.592 354.496ZM126.186 353.584H127.322V360.272L132.938 353.584H133.946V362H132.81V355.312L127.21 362H126.186V353.584ZM130.01 352.368C129.285 352.368 128.709 352.187 128.282 351.824C127.856 351.461 127.637 350.949 127.626 350.288H128.442C128.453 350.704 128.602 351.04 128.89 351.296C129.178 351.541 129.552 351.664 130.01 351.664C130.469 351.664 130.842 351.541 131.13 351.296C131.429 351.04 131.584 350.704 131.594 350.288H132.41C132.4 350.949 132.176 351.461 131.738 351.824C131.312 352.187 130.736 352.368 130.01 352.368ZM33.9786 382.08C33.168 382.08 32.4373 381.899 31.7866 381.536C31.136 381.163 30.624 380.651 30.2506 380C29.8773 379.349 29.6906 378.613 29.6906 377.792C29.6906 376.971 29.8773 376.235 30.2506 375.584C30.624 374.933 31.136 374.427 31.7866 374.064C32.4373 373.701 33.168 373.52 33.9786 373.52C34.7893 373.52 35.52 373.701 36.1706 374.064C36.8213 374.427 37.328 374.933 37.6906 375.584C38.064 376.235 38.2506 376.971 38.2506 377.792C38.2506 378.613 38.064 379.349 37.6906 380C37.328 380.651 36.8213 381.163 36.1706 381.536C35.52 381.899 34.7893 382.08 33.9786 382.08ZM33.9786 381.072C34.576 381.072 35.1093 380.939 35.5786 380.672C36.0586 380.395 36.432 380.005 36.6986 379.504C36.9653 379.003 37.0986 378.432 37.0986 377.792C37.0986 377.152 36.9653 376.581 36.6986 376.08C36.432 375.579 36.0586 375.195 35.5786 374.928C35.1093 374.651 34.576 374.512 33.9786 374.512C33.3813 374.512 32.8426 374.651 32.3626 374.928C31.8933 375.195 31.52 375.579 31.2426 376.08C30.976 376.581 30.8426 377.152 30.8426 377.792C30.8426 378.432 30.976 379.003 31.2426 379.504C31.52 380.005 31.8933 380.395 32.3626 380.672C32.8426 380.939 33.3813 381.072 33.9786 381.072ZM44.7585 373.792C45.5372 373.792 46.2305 373.968 46.8385 374.32C47.4572 374.661 47.9372 375.147 48.2785 375.776C48.6198 376.395 48.7905 377.104 48.7905 377.904C48.7905 378.725 48.6092 379.456 48.2465 380.096C47.8945 380.725 47.3985 381.216 46.7585 381.568C46.1185 381.92 45.3825 382.096 44.5505 382.096C43.1532 382.096 42.0705 381.605 41.3025 380.624C40.5345 379.643 40.1505 378.288 40.1505 376.56C40.1505 374.757 40.4918 373.376 41.1745 372.416C41.8678 371.456 42.9452 370.805 44.4065 370.464L48.1825 369.6L48.3745 370.64L44.8225 371.456C43.6172 371.723 42.7318 372.197 42.1665 372.88C41.6012 373.552 41.2918 374.549 41.2385 375.872C41.5798 375.221 42.0545 374.715 42.6625 374.352C43.2705 373.979 43.9692 373.792 44.7585 373.792ZM44.5825 381.152C45.1692 381.152 45.6918 381.019 46.1505 380.752C46.6198 380.475 46.9825 380.091 47.2385 379.6C47.5052 379.109 47.6385 378.555 47.6385 377.936C47.6385 377.317 47.5105 376.773 47.2545 376.304C46.9985 375.835 46.6358 375.472 46.1665 375.216C45.7078 374.949 45.1798 374.816 44.5825 374.816C43.9852 374.816 43.4518 374.949 42.9825 375.216C42.5238 375.472 42.1612 375.835 41.8945 376.304C41.6385 376.773 41.5105 377.317 41.5105 377.936C41.5105 378.555 41.6385 379.109 41.8945 379.6C42.1612 380.091 42.5292 380.475 42.9985 380.752C43.4678 381.019 43.9958 381.152 44.5825 381.152ZM62.8414 373.584V382H51.2254V373.584H52.3614V381.008H56.4894V373.584H57.6254V381.008H61.7054V373.584H62.8414ZM64.1374 381.008V383.84H63.0654V382H61.6414V381.008H64.1374ZM68.9808 373.52C70.0794 373.52 70.9221 373.797 71.5088 374.352C72.0954 374.896 72.3888 375.707 72.3888 376.784V382H71.3008V380.688C71.0448 381.125 70.6661 381.467 70.1648 381.712C69.6741 381.957 69.0874 382.08 68.4048 382.08C67.4661 382.08 66.7194 381.856 66.1648 381.408C65.6101 380.96 65.3328 380.368 65.3328 379.632C65.3328 378.917 65.5888 378.341 66.1008 377.904C66.6234 377.467 67.4501 377.248 68.5807 377.248H71.2528V376.736C71.2528 376.011 71.0501 375.461 70.6448 375.088C70.2394 374.704 69.6474 374.512 68.8688 374.512C68.3354 374.512 67.8234 374.603 67.3328 374.784C66.8421 374.955 66.4208 375.195 66.0688 375.504L65.5568 374.656C65.9834 374.293 66.4954 374.016 67.0928 373.824C67.6901 373.621 68.3194 373.52 68.9808 373.52ZM68.5807 381.184C69.2208 381.184 69.7701 381.04 70.2288 380.752C70.6874 380.453 71.0288 380.027 71.2528 379.472V378.096H68.6128C67.1728 378.096 66.4528 378.597 66.4528 379.6C66.4528 380.091 66.6394 380.48 67.0128 380.768C67.3861 381.045 67.9088 381.184 68.5807 381.184ZM81.8769 373.584V382H80.8369V379.216H78.1969H77.8769L75.9249 382H74.6929L76.7889 379.056C76.1382 378.875 75.6369 378.565 75.2849 378.128C74.9329 377.691 74.7569 377.136 74.7569 376.464C74.7569 375.525 75.0769 374.811 75.7169 374.32C76.3569 373.829 77.2315 373.584 78.3409 373.584H81.8769ZM75.9089 376.496C75.9089 377.744 76.7035 378.368 78.2929 378.368H80.8369V374.592H78.3729C76.7302 374.592 75.9089 375.227 75.9089 376.496ZM92.8235 382.08C91.9915 382.08 91.2448 381.899 90.5835 381.536C89.9328 381.173 89.4208 380.667 89.0475 380.016C88.6742 379.355 88.4875 378.613 88.4875 377.792C88.4875 376.971 88.6742 376.235 89.0475 375.584C89.4208 374.933 89.9328 374.427 90.5835 374.064C91.2448 373.701 91.9915 373.52 92.8235 373.52C93.5488 373.52 94.1942 373.664 94.7595 373.952C95.3355 374.229 95.7888 374.64 96.1195 375.184L95.2715 375.76C94.9942 375.344 94.6422 375.035 94.2155 374.832C93.7888 374.619 93.3248 374.512 92.8235 374.512C92.2155 374.512 91.6662 374.651 91.1755 374.928C90.6955 375.195 90.3168 375.579 90.0395 376.08C89.7728 376.581 89.6395 377.152 89.6395 377.792C89.6395 378.443 89.7728 379.019 90.0395 379.52C90.3168 380.011 90.6955 380.395 91.1755 380.672C91.6662 380.939 92.2155 381.072 92.8235 381.072C93.3248 381.072 93.7888 380.971 94.2155 380.768C94.6422 380.565 94.9942 380.256 95.2715 379.84L96.1195 380.416C95.7888 380.96 95.3355 381.376 94.7595 381.664C94.1835 381.941 93.5382 382.08 92.8235 382.08ZM105.346 373.584L101.138 383.008C100.797 383.797 100.402 384.357 99.9541 384.688C99.5061 385.019 98.9675 385.184 98.3381 385.184C97.9328 385.184 97.5541 385.12 97.2021 384.992C96.8501 384.864 96.5461 384.672 96.2901 384.416L96.8181 383.568C97.2448 383.995 97.7568 384.208 98.3541 384.208C98.7381 384.208 99.0635 384.101 99.3301 383.888C99.6075 383.675 99.8635 383.312 100.098 382.8L100.466 381.984L96.7061 373.584H97.8901L101.058 380.736L104.226 373.584H105.346ZM116.524 373.584V382H115.484V375.344L112.076 380.976H111.564L108.156 375.328V382H107.116V373.584H108.268L111.836 379.648L115.468 373.584H116.524ZM129.165 373.584V382H128.125V375.344L124.717 380.976H124.205L120.797 375.328V382H119.757V373.584H120.909L124.477 379.648L128.109 373.584H129.165ZM135.293 373.52C136.392 373.52 137.235 373.797 137.821 374.352C138.408 374.896 138.701 375.707 138.701 376.784V382H137.613V380.688C137.357 381.125 136.979 381.467 136.477 381.712C135.987 381.957 135.4 382.08 134.717 382.08C133.779 382.08 133.032 381.856 132.477 381.408C131.923 380.96 131.645 380.368 131.645 379.632C131.645 378.917 131.901 378.341 132.413 377.904C132.936 377.467 133.763 377.248 134.893 377.248H137.565V376.736C137.565 376.011 137.363 375.461 136.957 375.088C136.552 374.704 135.96 374.512 135.181 374.512C134.648 374.512 134.136 374.603 133.645 374.784C133.155 374.955 132.733 375.195 132.381 375.504L131.869 374.656C132.296 374.293 132.808 374.016 133.405 373.824C134.003 373.621 134.632 373.52 135.293 373.52ZM134.893 381.184C135.533 381.184 136.083 381.04 136.541 380.752C137 380.453 137.341 380.027 137.565 379.472V378.096H134.925C133.485 378.096 132.765 378.597 132.765 379.6C132.765 380.091 132.952 380.48 133.325 380.768C133.699 381.045 134.221 381.184 134.893 381.184ZM59.2086 394.592H54.3926V402H53.2566V393.584H59.2086V394.592ZM65.1864 393.52C65.9757 393.52 66.6904 393.701 67.3304 394.064C67.9704 394.416 68.4717 394.917 68.8344 395.568C69.197 396.219 69.3784 396.96 69.3784 397.792C69.3784 398.635 69.197 399.381 68.8344 400.032C68.4717 400.683 67.9704 401.189 67.3304 401.552C66.701 401.904 65.9864 402.08 65.1864 402.08C64.5037 402.08 63.885 401.941 63.3304 401.664C62.7864 401.376 62.3384 400.96 61.9864 400.416V405.104H60.8504V393.584H61.9384V395.248C62.2797 394.693 62.7277 394.267 63.2824 393.968C63.8477 393.669 64.4824 393.52 65.1864 393.52ZM65.1064 401.072C65.693 401.072 66.2264 400.939 66.7064 400.672C67.1864 400.395 67.5597 400.005 67.8264 399.504C68.1037 399.003 68.2424 398.432 68.2424 397.792C68.2424 397.152 68.1037 396.587 67.8264 396.096C67.5597 395.595 67.1864 395.205 66.7064 394.928C66.2264 394.651 65.693 394.512 65.1064 394.512C64.509 394.512 63.9704 394.651 63.4904 394.928C63.021 395.205 62.6477 395.595 62.3704 396.096C62.1037 396.587 61.9704 397.152 61.9704 397.792C61.9704 398.432 62.1037 399.003 62.3704 399.504C62.6477 400.005 63.021 400.395 63.4904 400.672C63.9704 400.939 64.509 401.072 65.1064 401.072ZM74.6683 393.52C75.7669 393.52 76.6096 393.797 77.1963 394.352C77.7829 394.896 78.0763 395.707 78.0763 396.784V402H76.9883V400.688C76.7323 401.125 76.3536 401.467 75.8523 401.712C75.3616 401.957 74.7749 402.08 74.0923 402.08C73.1536 402.08 72.4069 401.856 71.8523 401.408C71.2976 400.96 71.0203 400.368 71.0203 399.632C71.0203 398.917 71.2763 398.341 71.7883 397.904C72.3109 397.467 73.1376 397.248 74.2682 397.248H76.9403V396.736C76.9403 396.011 76.7376 395.461 76.3323 395.088C75.9269 394.704 75.3349 394.512 74.5563 394.512C74.0229 394.512 73.5109 394.603 73.0203 394.784C72.5296 394.955 72.1083 395.195 71.7563 395.504L71.2443 394.656C71.6709 394.293 72.1829 394.016 72.7803 393.824C73.3776 393.621 74.0069 393.52 74.6683 393.52ZM74.2682 401.184C74.9083 401.184 75.4576 401.04 75.9163 400.752C76.3749 400.453 76.7163 400.027 76.9403 399.472V398.096H74.3003C72.8603 398.096 72.1403 398.597 72.1403 399.6C72.1403 400.091 72.3269 400.48 72.7003 400.768C73.0736 401.045 73.5963 401.184 74.2682 401.184ZM81.1004 393.584H82.2364V397.312H87.5324V393.584H88.6684V402H87.5324V398.288H82.2364V402H81.1004V393.584ZM97.8173 394.592H94.6333V402H93.4973V394.592H90.3133V393.584H97.8173V394.592ZM102.541 402.08C101.73 402.08 101 401.899 100.349 401.536C99.6985 401.163 99.1865 400.651 98.8131 400C98.4398 399.349 98.2531 398.613 98.2531 397.792C98.2531 396.971 98.4398 396.235 98.8131 395.584C99.1865 394.933 99.6985 394.427 100.349 394.064C101 393.701 101.73 393.52 102.541 393.52C103.352 393.52 104.082 393.701 104.733 394.064C105.384 394.427 105.89 394.933 106.253 395.584C106.626 396.235 106.813 396.971 106.813 397.792C106.813 398.613 106.626 399.349 106.253 400C105.89 400.651 105.384 401.163 104.733 401.536C104.082 401.899 103.352 402.08 102.541 402.08ZM102.541 401.072C103.138 401.072 103.672 400.939 104.141 400.672C104.621 400.395 104.994 400.005 105.261 399.504C105.528 399.003 105.661 398.432 105.661 397.792C105.661 397.152 105.528 396.581 105.261 396.08C104.994 395.579 104.621 395.195 104.141 394.928C103.672 394.651 103.138 394.512 102.541 394.512C101.944 394.512 101.405 394.651 100.925 394.928C100.456 395.195 100.082 395.579 99.8051 396.08C99.5385 396.581 99.4051 397.152 99.4051 397.792C99.4051 398.432 99.5385 399.003 99.8051 399.504C100.082 400.005 100.456 400.395 100.925 400.672C101.405 400.939 101.944 401.072 102.541 401.072ZM114.601 397.648C115.742 397.915 116.313 398.603 116.313 399.712C116.313 400.448 116.041 401.013 115.497 401.408C114.953 401.803 114.142 402 113.065 402H109.241V393.584H112.953C113.913 393.584 114.665 393.771 115.209 394.144C115.753 394.517 116.025 395.051 116.025 395.744C116.025 396.203 115.897 396.597 115.641 396.928C115.396 397.248 115.049 397.488 114.601 397.648ZM110.345 397.328H112.873C113.524 397.328 114.02 397.205 114.361 396.96C114.713 396.715 114.889 396.357 114.889 395.888C114.889 395.419 114.713 395.067 114.361 394.832C114.02 394.597 113.524 394.48 112.873 394.48H110.345V397.328ZM113.017 401.104C113.742 401.104 114.286 400.987 114.649 400.752C115.012 400.517 115.193 400.149 115.193 399.648C115.193 399.147 115.028 398.779 114.697 398.544C114.366 398.299 113.844 398.176 113.129 398.176H110.345V401.104H113.017Z" fill="white"/>
<path d="M143.455 721.442C138.959 717.653 138.294 710.121 140.21 706.537C138.79 706.134 135.713 704.228 134.765 699.826C133.818 695.424 137.321 693.127 139.191 692.528C134.051 691.39 131.938 683.958 135.376 679.295C140.463 672.394 145.597 675.186 146.483 672.503C147.16 670.455 149.766 663.336 156.781 663.015C162.393 662.759 165.304 666.624 167.154 668.736C168.665 667.916 173.22 666.615 179.349 667.972C187.011 669.669 193.389 681.335 193.991 686.57C194.473 690.759 191.423 694.575 189.838 695.959C190.292 698.483 191.862 701.243 190.397 706.747C188.566 713.625 183.842 716.085 178.59 717.469C171.658 719.295 170.274 715.798 165.749 719.094C155.482 726.575 147.951 725.23 143.455 721.442Z" fill="#D9D9D9"/>
<g style="mix-blend-mode:multiply">
<path d="M164.857 692.859L164.567 716.016C168.666 709.791 175.867 705.634 183.409 705.114C176.878 705.197 171.212 709.579 166.967 714.433C165.577 716.022 164.251 717.735 163.626 719.737C163.032 721.644 163.12 723.688 163.228 725.678C163.701 734.324 164.51 742.952 165.647 751.539C164.055 751.161 162.381 751.096 160.758 751.35L161.168 737.117C161.288 733.066 161.377 728.873 159.753 725.146C158.13 721.42 154.29 718.29 150.177 718.792C155.692 718.396 158.13 720.67 161.87 724.987C162.419 713.595 164.661 703.956 162.286 692.789C163.076 692.682 163.903 692.877 164.56 693.32" fill="#ABABAB"/>
<path d="M165.287 692.966L164.997 716.122L164.157 715.815C168.294 709.626 175.432 705.333 183.252 704.76L183.466 705.48C176.354 705.628 170.423 710.76 166.393 715.803C165.262 717.215 164.295 718.768 163.891 720.504C163.449 722.4 163.594 724.355 163.702 726.28C163.929 730.261 164.226 734.241 164.592 738.216C165.003 742.675 165.502 747.122 166.089 751.557C166.127 751.829 165.837 751.941 165.597 751.888C164.055 751.539 162.502 751.48 160.935 751.711C160.619 751.758 160.329 751.539 160.335 751.244C160.487 745.929 160.689 740.608 160.79 735.287C160.878 730.645 160.613 725.43 157.057 721.833C155.339 720.097 152.945 718.88 150.355 719.158L150.14 718.437C152.509 718.284 154.852 718.615 156.88 719.825C159.021 721.107 160.657 723.009 162.243 724.827L161.453 724.881C161.99 714.156 164.106 703.46 161.87 692.777C161.838 692.623 161.977 692.452 162.142 692.434C163.083 692.34 163.954 692.523 164.75 693.019C165.218 693.314 164.883 693.934 164.403 693.633C163.803 693.261 163.19 693.084 162.464 693.155L162.735 692.812C164.99 703.555 162.855 714.315 162.318 725.105C162.299 725.501 161.699 725.347 161.529 725.158C160.051 723.457 158.522 721.638 156.526 720.44C154.53 719.241 152.464 719.022 150.241 719.164C149.818 719.193 149.508 718.497 150.026 718.443C154.669 717.953 158.604 721.39 160.221 725.2C162.363 730.237 161.649 736.013 161.491 741.299L161.194 751.463L160.594 750.996C162.306 750.748 164.018 750.813 165.704 751.191L165.211 751.522C164.106 743.124 163.304 734.69 162.824 726.245C162.716 724.396 162.584 722.512 162.931 720.682C163.278 718.851 164.15 717.274 165.268 715.803C167.346 713.075 169.892 710.536 172.76 708.516C175.855 706.342 179.436 704.825 183.353 704.748C183.77 704.742 184.092 705.433 183.567 705.468C175.95 706.029 168.989 710.169 164.959 716.205C164.706 716.583 164.119 716.27 164.119 715.898L164.422 692.747C164.422 692.275 165.3 692.529 165.293 692.966H165.287Z" fill="#ABABAB"/>
</g>
</svg>
