<svg width="63" height="18" viewBox="0 0 63 18" fill="none" xmlns="http://www.w3.org/2000/svg">
<path opacity="0.7" d="M1.41848 5.07273C4.56683 0.508545 11.0778 0.41541 15.9959 1.06744C22.1998 1.99682 28.1183 4.29745 33.3212 7.80195C38.5281 11.1459 43.7629 15.086 50.0876 15.7101C53.2918 16.0268 57.0549 15.6169 59.5047 13.3069C60.6783 12.2078 61.6564 10.5125 61.0137 8.84518C60.4548 7.44798 58.8061 6.26501 57.2878 6.87978C57.027 6.99155 56.8594 6.5631 57.1015 6.43269C59.0204 5.38945 61.1162 6.65623 61.8706 8.54711C62.8021 10.8571 61.2466 13.2044 59.4768 14.6389C54.8195 18.3648 48.2992 17.5544 43.1016 15.4027C37.1123 12.925 32.1662 8.55643 26.2794 5.8738C23.2934 4.53134 20.1423 3.59165 16.9088 3.07941C13.9826 2.48728 10.9674 2.48728 8.04119 3.07941C5.38651 3.74075 2.90885 5.31492 2.26614 8.10932C1.94439 9.16737 2.00183 10.3045 2.42863 11.3248C2.85542 12.345 3.62483 13.1843 4.60413 13.6981C4.81401 13.8333 4.96952 14.0382 5.04337 14.2767C5.11722 14.5152 5.10474 14.7721 5.00801 15.0022C4.91127 15.2324 4.73647 15.4211 4.51442 15.5352C4.29236 15.6493 4.03722 15.6816 3.79376 15.6263C-0.46304 14.3408 -0.807728 8.28629 1.41848 5.07273Z" fill="#FFF4E7"/>
</svg>
