<svg width="63" height="18" viewBox="0 0 63 18" fill="none" xmlns="http://www.w3.org/2000/svg">
<path opacity="0.7" d="M60.7124 5.07273C57.5641 0.508545 51.0531 0.41541 46.1443 1.06744C39.9401 1.99529 34.0211 4.29606 28.819 7.80195C23.6121 11.1459 18.368 15.086 12.0526 15.7101C8.8484 16.0268 5.07598 15.6169 2.63554 13.3069C1.46189 12.2078 0.483855 10.5125 1.12657 8.84518C1.67613 7.44798 3.32483 6.26501 4.85243 6.87978C5.11324 6.99155 5.29018 6.5631 5.048 6.43269C3.12918 5.38945 1.03339 6.65623 0.278901 8.54711C-0.652565 10.8571 0.90299 13.2044 2.67278 14.6389C7.3301 18.3648 13.8504 17.5544 19.048 15.4027C25.028 12.925 29.9741 8.55643 35.8144 5.8738C38.8003 4.53134 41.9514 3.59165 45.1849 3.07941C48.1111 2.48728 51.1262 2.48728 54.0524 3.07941C56.7071 3.74075 59.1941 5.31492 59.8368 8.10932C60.1597 9.16838 60.1017 10.307 59.673 11.3278C59.2443 12.3486 58.4718 13.1872 57.4895 13.6981C57.2773 13.8331 57.1199 14.039 57.0452 14.2791C56.9706 14.5193 56.9836 14.7782 57.082 15.0097C57.1804 15.2411 57.3578 15.4302 57.5825 15.5431C57.8073 15.656 58.0648 15.6855 58.3092 15.6263C62.6033 14.3408 62.9386 8.28629 60.7124 5.07273Z" fill="#FFF4E7"/>
</svg>
