<svg width="24" height="24" viewBox="0 0 24 24" fill="none" xmlns="http://www.w3.org/2000/svg">
<path d="M9 20C11.2167 20 13.1043 19.221 14.663 17.663C16.2217 16.105 17.0007 14.2173 17 12C17 9.78333 16.221 7.89567 14.663 6.337C13.105 4.77833 11.2173 3.99933 9 4H8.475C8.30833 4 8.15 4.01667 8 4.05C8.95 5.15 9.68767 6.37933 10.213 7.738C10.7383 9.09667 11.0007 10.5173 11 12C11 13.4833 10.7373 14.9043 10.212 16.263C9.68667 17.6217 8.94933 18.8507 8 19.95C8.15 19.9833 8.30833 20 8.475 20H9ZM9 21C8.474 21 7.96067 20.9547 7.46 20.864C6.95867 20.774 6.472 20.6257 6 20.419C7.268 19.3783 8.25167 18.1263 8.951 16.663C9.65033 15.201 10 13.6467 10 12C10 10.3533 9.65033 8.799 8.951 7.337C8.251 5.87367 7.26733 4.62133 6 3.58C6.472 3.37333 6.95867 3.225 7.46 3.135C7.96 3.045 8.47333 3 9 3C10.2453 3 11.4153 3.236 12.51 3.708C13.6053 4.18067 14.558 4.822 15.368 5.632C16.1773 6.44133 16.8183 7.39333 17.291 8.488C17.7637 9.58267 18 10.7523 18 11.997C18 13.241 17.7637 14.411 17.291 15.507C16.8183 16.603 16.1773 17.556 15.368 18.366C14.558 19.1767 13.6053 19.8183 12.51 20.291C11.4153 20.7637 10.2453 21 9 21Z" fill="#3C4C9A"/>
</svg>
