<svg width="44" height="42" viewBox="0 0 44 42" fill="none" xmlns="http://www.w3.org/2000/svg">
<path d="M6.45646 21.766C9.22714 22.6862 12.1697 21.9733 14.1365 19.9104L14.455 19.5767L14.3994 19.1217C14.0455 16.3156 12.109 14 9.34848 13.0849C7.48788 12.463 5.56156 12.6147 3.91836 13.3731C3.74141 14.1112 3.98409 14.9556 4.16105 15.4359C5.48572 14.6269 7.14408 14.3944 8.73671 14.9252C10.6276 15.5522 11.9928 17.0538 12.3972 18.9043C10.9664 20.1683 8.96423 20.5627 7.07329 19.9357C5.19247 19.3088 3.87792 17.7414 3.47849 15.9213C3.48861 15.9162 3.18019 14.3438 3.55433 13.2669C3.55939 13.2517 3.56445 13.2315 3.5695 13.2163C4.88911 11.6641 6.80027 10.7743 8.84289 10.7743H8.89345C12.5843 10.7996 15.5876 13.6966 15.7544 17.3774V17.4381L15.7595 17.524C15.8656 18.4745 16.3409 19.3745 17.0993 20.0469C18.0043 20.8559 19.1722 21.1997 20.2643 21.0278C20.8761 20.9368 21.1491 20.5728 21.2199 20.3806C21.7862 19.3846 21.8519 18.1156 21.3564 16.9527C20.9418 15.987 20.1834 15.2185 19.2734 14.8393L19.1773 14.7938C17.2763 14.0253 15.8252 12.463 15.1932 10.5164C14.546 8.52438 14.8544 6.44637 15.8656 4.78295C16.1437 4.25208 17.3268 1.98194 21.3109 0.399422C20.6284 0.166847 19.9054 0.0252799 19.1419 0H18.9801L18.611 0.111231C14.6016 1.64319 12.3265 5.78404 13.0545 9.90466C11.8209 9.24232 10.4153 8.86313 8.91872 8.85301H8.853C6.16322 8.85301 3.6504 10.0513 1.9617 12.1495L1.85047 12.286L1.79485 12.4579C1.5825 13.1101 1.46622 13.7725 1.44094 14.4298C1.40049 16.4724 2.36112 18.3178 2.82627 19.0914C3.70096 20.3099 4.94978 21.2756 6.47163 21.7811L6.45646 21.766ZM17.6656 15.9112C18.611 16.1185 19.3037 16.4875 19.7284 17.0134C20.6284 18.1257 20.2744 19.2734 20.2593 19.3189L20.1986 19.506L20.0115 19.5262C19.961 19.5312 18.788 19.6475 17.9234 18.5049C17.5189 17.974 17.3167 17.2004 17.3167 16.2044V15.8353L17.6656 15.9112Z" fill="white"/>
<path d="M19.5515 1.95666C18.0751 3.30661 17.1448 5.24811 17.1448 7.39184C17.1448 10.3091 18.7476 12.8776 21.3312 14.091L21.7458 14.2882L22.1604 14.091C24.7136 12.8675 26.2962 10.299 26.2962 7.39184C26.2962 5.44023 25.5529 3.6757 24.3344 2.35103C23.571 2.35103 22.8227 2.81618 22.3727 3.15999C23.5912 4.16613 24.3597 5.68292 24.3597 7.39184C24.3597 9.38389 23.3637 11.1535 21.7357 12.1192C20.0874 11.1585 19.0762 9.38895 19.0762 7.39184C19.0762 5.53124 20.0267 3.87794 21.4677 2.89708C21.9885 2.51788 23.0249 1.91622 24.3395 1.95161C26.2456 2.72012 27.6967 4.2723 28.3337 6.23402C29.4764 9.74793 27.6764 13.5096 24.2333 14.8292L24.1019 14.8797C23.2322 15.2792 22.5295 16.0123 22.13 16.9476C21.6345 18.1055 21.6952 19.3745 22.2615 20.3705C22.2868 20.4211 22.4081 20.7396 23.2423 20.9621C24.3294 21.1542 25.4973 20.8306 26.4226 20.0469C27.1961 19.3897 27.6916 18.4998 27.8129 17.5493L27.8231 17.4431V17.4128C28.0607 13.732 31.1094 10.8906 34.8155 10.9462C35.8621 10.9614 36.8733 11.204 37.7833 11.654C38.9058 12.0939 40.5136 13.0293 42.2073 15.0567C42.2225 14.2983 42.1264 13.5247 41.8938 12.7613L41.8433 12.5944L41.7321 12.4529C40.0686 10.3041 37.5558 9.0502 34.8408 9.01481C34.8003 9.01481 34.7649 9.01481 34.7245 9.01481C33.1773 9.01481 31.7162 9.41423 30.4471 10.112C30.7353 8.671 30.6696 7.13904 30.1842 5.64753C29.3449 3.06392 27.4034 1.03648 24.8552 0.0808973L24.6884 0.0202255H24.5114C24.2131 0.0202255 23.9198 0.0505614 23.6266 0.0859532C23.6266 0.0859532 23.4244 0.121345 23.3131 0.136513C22.762 0.212353 22.2463 0.364032 21.7609 0.566271C20.8863 0.935357 20.1329 1.46118 19.5414 1.96678C19.5414 1.96678 19.5464 1.96678 19.5515 1.96678V1.95666ZM25.9119 18.1965C25.0979 19.3745 23.8996 19.3593 23.8491 19.3593H23.6569L23.5862 19.1824C23.5659 19.1369 23.1261 18.0397 23.9755 16.887C24.3698 16.351 25.0574 15.9364 26.008 15.6533L26.3619 15.5471L26.3872 15.9061C26.4579 16.8718 26.2962 17.6454 25.917 18.1965H25.9119Z" fill="white"/>
<path d="M43.5117 17.8779C43.2033 16.9982 42.7533 16.2095 42.1871 15.537C42.1871 15.537 42.1871 15.537 42.1871 15.532C41.459 14.6977 40.5793 14.0961 39.836 13.6815C38.1878 12.8523 36.2261 12.645 34.3149 13.2416C31.5392 14.1011 29.5572 16.3814 29.1477 19.1773L29.082 19.6324L29.3904 19.9711C31.3167 22.0795 34.2391 22.848 37.03 21.9834C38.9108 21.4019 40.3871 20.1228 41.277 18.515C41.0293 17.797 40.3518 17.2409 39.8917 16.9325C39.3052 18.4139 38.0816 19.6273 36.4536 20.1329C34.5475 20.7244 32.5554 20.2896 31.1499 18.9953C31.5897 17.1549 32.9852 15.6786 34.8913 15.087C36.6963 14.5258 38.5569 14.9354 39.9271 16.0224C40.4428 16.3915 41.2618 17.1448 41.6309 18.3583C41.368 21.9733 38.3597 24.7692 34.7346 24.7692C34.7042 24.7692 34.6739 24.7692 34.6436 24.7692C32.5959 24.7439 30.6746 23.8187 29.3752 22.2311L29.2994 22.1502C28.6623 21.3918 27.7068 20.9014 26.6602 20.7902C25.4619 20.6638 24.5569 21.0784 23.6721 21.7104C23.2777 21.9935 23.0907 22.6103 23.1614 23.1109C23.2878 24.2384 23.9754 25.3001 25.0473 25.9473C25.9169 26.4731 26.913 26.6602 27.8534 26.4832L27.9848 26.4478C31.5493 25.5175 35.2048 27.5349 36.3171 31.0589C36.5901 31.9234 36.6912 32.8133 36.6204 33.688C36.6255 34.8357 36.3525 36.8227 34.7548 39.3608C35.4727 39.1383 36.1705 38.8046 36.8126 38.3496L36.9592 38.2485L37.0553 38.1018C38.5771 35.8469 38.9765 33.0711 38.1575 30.4825C37.6771 28.9606 36.8277 27.6612 35.7357 26.6501C39.9372 26.1697 43.2792 22.7519 43.5522 18.424V18.0397L43.5016 17.883L43.5117 17.8779ZM28.7989 24.5215C27.909 24.9057 27.1304 25.0069 26.4782 24.8299C25.1029 24.4456 24.7187 23.3131 24.7035 23.2625L24.6428 23.0805L24.7844 22.9541C24.8249 22.9187 25.7096 22.1452 27.0748 22.5648C27.7118 22.762 28.3286 23.2727 28.9101 24.0816L29.1275 24.385L28.7938 24.5265L28.7989 24.5215Z" fill="white"/>
<path d="M33.9812 31.3066C32.2925 28.9404 29.5117 27.7725 26.7259 28.2629L26.2759 28.3438L26.0534 28.7432C24.658 31.2308 24.845 34.2492 26.5388 36.6255C27.6865 38.2282 29.3701 39.2344 31.1751 39.5731C31.7667 39.0928 32.0801 38.2636 32.2268 37.758C30.6392 37.662 29.1022 36.8833 28.1163 35.498C26.9534 33.875 26.7461 31.8476 27.5298 30.1033C29.4207 29.9466 31.256 30.8061 32.4138 32.429C33.4756 33.9155 33.693 35.7407 33.1621 37.3384C33.0307 37.8541 32.6312 39.0321 31.4229 39.8512C27.8786 40.7512 24.2484 38.7237 23.1412 35.23C22.5243 33.2784 22.8024 31.16 23.8996 29.4308L23.9552 29.3348C24.476 28.4955 24.6428 27.4287 24.4203 26.4023C24.1473 25.1383 23.3586 24.1575 22.3423 23.6923C22.1401 23.5861 21.7508 23.571 21.2047 23.753C20.143 24.1928 19.3087 25.1636 18.9902 26.3922C18.7273 27.4135 18.8588 28.4803 19.3492 29.3398L19.3998 29.4359C20.4362 31.2055 20.6334 33.329 19.9458 35.2604C19.152 37.485 17.3268 39.0574 15.1932 39.6186C14.1466 39.9827 12.0635 40.4074 8.92377 39.5327C9.32319 40.1343 9.80856 40.6905 10.4001 41.1759L10.5265 41.282L10.8905 41.4135C11.7399 41.6714 12.5995 41.7927 13.4438 41.7927C16.892 41.7927 20.1126 39.7602 21.5435 36.4839C22.9137 39.8613 26.1899 42 29.7291 42C30.4723 42 31.2206 41.909 31.974 41.7118L32.3431 41.5955L32.4745 41.4944C33.2177 40.9281 33.8194 40.2506 34.2845 39.5023C34.2896 39.5023 34.2947 39.5023 34.2997 39.5023C34.7901 38.6631 35.0834 37.7681 35.2553 37.0097C35.6193 35.0935 35.225 33.0358 33.9964 31.3117L33.9812 31.3066ZM21.6497 29.9617L21.4272 29.6786C20.8255 28.9202 20.5171 28.1972 20.5222 27.5247C20.5222 26.0939 21.5233 25.4265 21.5688 25.4012L21.7306 25.3001L21.8873 25.4012C21.9277 25.4265 22.9137 26.0838 22.8631 27.5096C22.8429 28.177 22.5142 28.905 21.8822 29.6786L21.6497 29.9668V29.9617Z" fill="white"/>
<path d="M11.8209 39.29C13.6107 39.0018 15.2994 38.0664 16.4825 36.5244C18.2622 34.2138 18.5605 31.2004 17.2561 28.6623L17.0488 28.2528L16.5988 28.1567C13.8332 27.5702 11.0119 28.632 9.23221 30.9375C8.03395 32.4948 7.54352 34.3604 7.71542 36.1654C8.33731 36.6002 9.21705 36.6659 9.75298 36.6609C9.40917 35.1289 9.73276 33.4655 10.7692 32.1206C11.9877 30.5432 13.8534 29.7443 15.7342 29.9769C16.4572 31.7465 16.169 33.7638 14.9505 35.3463C13.7876 36.853 11.9827 37.5811 10.1979 37.4395C9.59119 37.4294 8.55471 37.2929 7.58397 36.5294C7.54352 36.4991 7.49801 36.4738 7.45757 36.4435C6.41604 34.6688 6.2138 32.5554 6.90646 30.6139C8.15024 27.1354 11.8765 25.2546 15.4056 26.3113L15.537 26.3517C16.4724 26.5692 17.4735 26.4124 18.3583 25.9169C19.4655 25.3001 20.1885 24.2485 20.3453 23.1058C20.3857 22.8328 20.2593 22.2008 19.9913 21.9126C19.2228 21.1087 18.065 20.684 16.8465 20.7902C15.7999 20.8761 14.8292 21.3514 14.182 22.0997L14.1062 22.1806C12.7866 23.7277 10.8704 24.6125 8.83785 24.6125H8.78729C6.1329 24.5923 3.83749 23.0805 2.69484 20.866C2.05778 19.8599 1.31961 18.1762 1.14771 15.5775C0.697725 16.1589 0.323583 16.8111 0.0556157 17.5442L0 17.701V18.0599V18.0903C0.187071 22.3373 3.33694 25.7754 7.41206 26.4377C6.39581 27.3781 5.5818 28.5764 5.08631 29.9718C4.17118 32.5302 4.47454 35.3211 5.91044 37.6266L6.00144 37.7783L6.14301 37.8844C6.91658 38.4709 7.76598 38.8855 8.65078 39.1282C9.80354 39.4164 10.9563 39.3911 11.8209 39.2951V39.29ZM14.541 24.026C15.0516 23.2069 15.6381 22.6761 16.2701 22.4536C17.6201 21.9834 18.5807 22.6963 18.6212 22.7266L18.7728 22.8429L18.7273 23.0249C18.7172 23.0755 18.429 24.2181 17.0639 24.6479C16.4269 24.8501 15.628 24.7844 14.6927 24.4507L14.3438 24.3243L14.5359 24.0209L14.541 24.026Z" fill="white"/>
</svg>
