<svg width="264" height="52" viewBox="0 0 264 52" fill="none" xmlns="http://www.w3.org/2000/svg">
<path d="M57.3212 37.8681V34.2601C57.3212 34.0548 57.3799 33.9521 57.4972 33.9521C57.6439 33.9521 57.8785 34.0108 58.2012 34.1281C58.7879 34.3041 59.4772 34.4801 60.2692 34.6561C61.0612 34.8028 61.8385 34.9201 62.6012 35.0081C63.3639 35.0961 63.9799 35.1401 64.4492 35.1401C65.9745 35.1401 67.1332 34.7148 67.9252 33.8641C68.7465 33.0134 69.1572 32.0308 69.1572 30.9161C69.1572 29.7721 68.7465 28.8481 67.9252 28.1441C67.1332 27.4401 66.0625 26.8974 64.7132 26.5161C63.9799 26.3401 63.1439 26.0908 62.2052 25.7681C61.2959 25.4454 60.4012 24.9908 59.5212 24.4041C58.6705 23.8174 57.9665 23.0108 57.4092 21.9841C56.8519 20.9281 56.5732 19.5934 56.5732 17.9801C56.5732 15.9854 57.0279 14.3868 57.9372 13.1841C58.8759 11.9814 60.0785 11.1014 61.5452 10.5441C63.0412 9.95743 64.6252 9.66409 66.2972 9.66409C66.9425 9.66409 67.6465 9.73743 68.4092 9.88409C69.2012 10.0014 69.9785 10.1628 70.7412 10.3681C71.5039 10.5734 72.1785 10.8081 72.7652 11.0721C72.9999 11.1308 73.1465 11.2188 73.2052 11.3361C73.2639 11.4241 73.2932 11.5561 73.2932 11.7321V15.0321C73.2932 15.8241 72.8092 15.9561 71.8412 15.4281C71.2252 15.0761 70.4772 14.7681 69.5972 14.5041C68.7465 14.2108 67.7932 14.0641 66.7372 14.0641C65.4465 14.0641 64.4052 14.4014 63.6132 15.0761C62.8212 15.7508 62.4252 16.5574 62.4252 17.4961C62.4252 18.4054 62.6745 19.1388 63.1732 19.6961C63.6719 20.2534 64.3172 20.6934 65.1092 21.0161C65.9012 21.3388 66.7225 21.6028 67.5732 21.8081C68.4239 22.0134 69.2012 22.2481 69.9052 22.5121C71.0785 22.8934 72.0465 23.4068 72.8092 24.0521C73.6012 24.6681 74.2025 25.4894 74.6132 26.5161C75.0239 27.5428 75.2292 28.8481 75.2292 30.4321C75.2292 32.5734 74.7599 34.3481 73.8212 35.7561C72.9119 37.1348 71.6505 38.1614 70.0372 38.8361C68.4239 39.5108 66.5905 39.8481 64.5372 39.8481C63.6279 39.8481 62.6012 39.7601 61.4572 39.5841C60.3132 39.4081 59.2719 39.1588 58.3332 38.8361C57.9519 38.7188 57.6879 38.6014 57.5412 38.4841C57.3945 38.3374 57.3212 38.1321 57.3212 37.8681ZM81.2276 43.8081C81.1103 42.7521 81.0076 41.1094 80.9196 38.8801C80.861 36.6508 80.8463 33.7908 80.8756 30.3001C80.8756 29.3028 80.8903 28.2028 80.9196 27.0001C80.949 25.7681 80.993 24.5801 81.0516 23.4361C81.1396 22.2921 81.257 21.3974 81.4036 20.7521C81.4623 20.4294 81.5796 20.1801 81.7556 20.0041C81.9316 19.7988 82.3276 19.5788 82.9436 19.3441C83.5596 19.1388 84.469 18.9188 85.6716 18.6841C86.9036 18.4494 88.2676 18.3321 89.7636 18.3321C92.6383 18.3321 94.8676 19.1681 96.4516 20.8401C98.065 22.4828 98.8716 25.0788 98.8716 28.6281C98.8716 30.0948 98.7396 31.4148 98.4756 32.5881C98.241 33.7321 97.8743 34.7441 97.3756 35.6241C96.877 36.4748 96.2903 37.1788 95.6156 37.7361C94.9703 38.2934 94.237 38.7188 93.4156 39.0121C92.8876 39.2468 92.2716 39.4228 91.5676 39.5401C90.8636 39.6868 90.1596 39.7601 89.4556 39.7601C88.7516 39.7894 88.121 39.7601 87.5636 39.6721C87.2996 39.6428 87.0943 39.6134 86.9476 39.5841C86.801 39.5841 86.7276 39.6868 86.7276 39.8921C86.7276 40.0974 86.713 40.4201 86.6836 40.8601C86.6836 41.3001 86.6983 41.7401 86.7276 42.1801C86.757 42.6201 86.7716 42.9574 86.7716 43.1921C86.8303 43.5734 86.845 43.8374 86.8156 43.9841C86.8156 44.1601 86.5956 44.2481 86.1556 44.2481H81.9756C81.741 44.2481 81.5503 44.2188 81.4036 44.1601C81.2863 44.1014 81.2276 43.9841 81.2276 43.8081ZM86.6396 33.7761C86.6396 33.9814 86.669 34.1281 86.7276 34.2161C86.7863 34.2748 86.889 34.3188 87.0356 34.3481C87.417 34.4948 87.857 34.6121 88.3556 34.7001C88.8543 34.7881 89.2796 34.8321 89.6316 34.8321C90.013 34.8321 90.3943 34.7588 90.7756 34.6121C91.1863 34.4654 91.5676 34.1868 91.9196 33.7761C92.301 33.3361 92.5943 32.7054 92.7996 31.8841C93.0343 31.0628 93.1516 29.9628 93.1516 28.5841C93.1516 26.3254 92.829 24.7708 92.1836 23.9201C91.5383 23.0694 90.7023 22.6441 89.6756 22.6441C89.2063 22.6441 88.737 22.6881 88.2676 22.7761C87.7983 22.8641 87.4023 22.9668 87.0796 23.0841C87.021 23.1428 86.9623 23.2161 86.9036 23.3041C86.845 23.3921 86.8156 23.5094 86.8156 23.6561C86.7863 24.2721 86.757 24.9321 86.7276 25.6361C86.7276 26.3401 86.713 27.0588 86.6836 27.7921C86.6836 28.4961 86.669 29.2148 86.6396 29.9481C86.6396 30.6521 86.6396 31.3414 86.6396 32.0161C86.6396 32.6614 86.6396 33.2481 86.6396 33.7761ZM113.407 39.8481C110.855 39.8481 108.875 39.3788 107.467 38.4401C106.088 37.4721 105.12 36.1814 104.563 34.5681C104.035 32.9254 103.771 31.0628 103.771 28.9801C103.771 26.9561 104.079 25.1521 104.695 23.5681C105.311 21.9548 106.308 20.6934 107.687 19.7841C109.095 18.8454 111.002 18.3761 113.407 18.3761C115.842 18.3761 117.748 18.8454 119.127 19.7841C120.535 20.6934 121.532 21.9548 122.119 23.5681C122.735 25.1521 123.043 26.9561 123.043 28.9801C123.043 31.0334 122.779 32.8814 122.251 34.5241C121.723 36.1374 120.755 37.4281 119.347 38.3961C117.968 39.3641 115.988 39.8481 113.407 39.8481ZM113.363 35.5361C114.8 35.5361 115.812 34.9788 116.399 33.8641C116.986 32.7494 117.279 31.1801 117.279 29.1561C117.279 27.1321 116.956 25.6068 116.311 24.5801C115.695 23.5241 114.712 22.9961 113.363 22.9961C112.043 22.9961 111.06 23.5241 110.415 24.5801C109.799 25.6068 109.491 27.1321 109.491 29.1561C109.491 31.2094 109.77 32.7934 110.327 33.9081C110.914 34.9934 111.926 35.5361 113.363 35.5361ZM135.756 18.5521C137.985 18.5521 139.819 18.8748 141.256 19.5201C141.549 19.6374 141.711 19.7548 141.74 19.8721C141.799 19.9894 141.813 20.1508 141.784 20.3561L140.992 23.0841C140.933 23.3188 140.86 23.4654 140.772 23.5241C140.684 23.5534 140.508 23.5241 140.244 23.4361C139.745 23.2894 139.188 23.1868 138.572 23.1281C137.956 23.0401 137.487 22.9961 137.164 22.9961C136.695 22.9961 136.299 23.0254 135.976 23.0841C135.653 23.1134 135.404 23.1574 135.228 23.2161C135.052 23.2748 134.905 23.3334 134.788 23.3921C134.671 23.4801 134.539 23.5828 134.392 23.7001C134.275 23.8174 134.216 24.0814 134.216 24.4921V38.5721C134.216 38.9828 134.157 39.2468 134.04 39.3641C133.923 39.4521 133.717 39.4961 133.424 39.4961H129.156C129.009 39.4961 128.877 39.4521 128.76 39.3641C128.643 39.2761 128.584 39.0708 128.584 38.7481V21.1481C128.584 20.6788 128.628 20.3854 128.716 20.2681C128.833 20.1214 129.053 19.9748 129.376 19.8281C130.256 19.4174 131.297 19.1094 132.5 18.9041C133.732 18.6694 134.817 18.5521 135.756 18.5521ZM153.967 39.4961C151.973 39.4961 150.477 39.0854 149.479 38.2641C148.511 37.4134 147.866 36.2401 147.543 34.7441C147.309 33.5121 147.177 32.2508 147.147 30.9601C147.147 29.6694 147.147 28.3641 147.147 27.0441C147.147 26.1934 147.147 25.4454 147.147 24.8001C147.177 24.1548 147.206 23.4361 147.235 22.6441C147.235 22.3508 147.103 22.2041 146.839 22.2041H145.035C144.801 22.2041 144.639 22.1748 144.551 22.1161C144.493 22.0574 144.463 21.8814 144.463 21.5881V19.3881C144.463 19.0361 144.493 18.8454 144.551 18.8161C144.639 18.7574 144.845 18.7281 145.167 18.7281H146.971C147.206 18.7281 147.338 18.6694 147.367 18.5521C147.397 18.4348 147.426 18.2441 147.455 17.9801L147.631 14.6801C147.631 14.3281 147.807 14.1521 148.159 14.1521H152.559C152.706 14.1521 152.853 14.2108 152.999 14.3281C153.146 14.4161 153.205 14.5334 153.175 14.6801L152.955 17.9801C152.926 18.3321 152.926 18.5521 152.955 18.6401C153.014 18.6988 153.131 18.7281 153.307 18.7281H157.003C157.297 18.7281 157.473 18.7721 157.531 18.8601C157.59 18.9188 157.619 19.1241 157.619 19.4761V21.5441C157.619 21.8374 157.575 22.0281 157.487 22.1161C157.399 22.1748 157.209 22.2041 156.915 22.2041H153.263C153.087 22.2041 152.955 22.2628 152.867 22.3801C152.809 22.4681 152.779 22.6148 152.779 22.8201C152.75 23.5828 152.721 24.3601 152.691 25.1521C152.662 25.9148 152.647 26.7068 152.647 27.5281C152.647 28.5548 152.662 29.5961 152.691 30.6521C152.75 31.6788 152.882 32.6761 153.087 33.6441C153.263 34.2014 153.513 34.5974 153.835 34.8321C154.158 35.0668 154.583 35.1841 155.111 35.1841C155.463 35.1841 155.801 35.1401 156.123 35.0521C156.446 34.9348 156.725 34.8468 156.959 34.7881C157.311 34.5828 157.531 34.5241 157.619 34.6121C157.707 34.6708 157.81 34.8468 157.927 35.1401L158.675 37.7801C158.793 37.9854 158.763 38.1761 158.587 38.3521C158.411 38.4988 158.059 38.6748 157.531 38.8801C157.179 38.9974 156.798 39.1148 156.387 39.2321C155.977 39.3201 155.566 39.3934 155.155 39.4521C154.745 39.4814 154.349 39.4961 153.967 39.4961ZM180.649 9.88409C180.854 9.88409 180.986 9.91343 181.045 9.97209C181.103 10.0308 181.133 10.2068 181.133 10.5001V12.7441C181.133 13.3014 180.883 13.9614 180.385 14.7241C179.886 15.4868 179.27 16.3081 178.537 17.1881C177.862 18.0094 177.158 18.9481 176.425 20.0041C175.691 21.0601 174.958 22.1894 174.225 23.3921C173.491 24.5948 172.773 25.8561 172.069 27.1761C171.394 28.4668 170.763 29.7868 170.177 31.1361C169.619 32.4561 169.121 33.7468 168.681 35.0081H181.485C181.807 35.0081 182.013 35.0521 182.101 35.1401C182.189 35.2281 182.233 35.3748 182.233 35.5801V38.9681C182.233 39.2028 182.189 39.3494 182.101 39.4081C182.013 39.4668 181.822 39.4961 181.529 39.4961H163.841C163.195 39.4961 162.799 39.3054 162.653 38.9241C162.506 38.5428 162.462 38.0148 162.521 37.3401C162.609 36.2548 162.843 35.0668 163.225 33.7761C163.635 32.4854 164.149 31.1361 164.765 29.7281C165.381 28.3201 166.055 26.9121 166.789 25.5041C167.551 24.0668 168.329 22.6881 169.121 21.3681C169.942 20.0188 170.763 18.7574 171.585 17.5841C172.406 16.3814 173.183 15.3108 173.917 14.3721H163.665C163.283 14.3721 163.049 14.3281 162.961 14.2401C162.902 14.1521 162.873 14.0201 162.873 13.8441V10.4121C162.873 10.2068 162.902 10.0748 162.961 10.0161C163.049 9.92809 163.269 9.88409 163.621 9.88409H180.649ZM194.975 39.8041C193.479 39.8041 192.071 39.6428 190.751 39.3201C189.46 38.9681 188.404 38.3081 187.583 37.3401C186.791 36.3721 186.395 34.9641 186.395 33.1161C186.395 31.5908 186.673 30.3441 187.231 29.3761C187.817 28.3788 188.551 27.6161 189.431 27.0881C190.34 26.5601 191.279 26.2081 192.247 26.0321C193.215 25.8268 194.08 25.7241 194.843 25.7241C195.459 25.7241 196.045 25.7534 196.603 25.8121C197.189 25.8414 197.732 25.9001 198.231 25.9881C198.495 26.0761 198.627 25.8854 198.627 25.4161C198.627 24.3308 198.289 23.5681 197.615 23.1281C196.969 22.6881 196.06 22.4681 194.887 22.4681C193.772 22.4681 192.701 22.6734 191.675 23.0841C190.677 23.4948 189.827 23.8761 189.123 24.2281C188.8 24.4041 188.58 24.4628 188.463 24.4041C188.375 24.3454 188.301 24.1548 188.243 23.8321L187.847 21.3681C187.788 20.9868 187.788 20.7374 187.847 20.6201C187.905 20.5028 188.067 20.3561 188.331 20.1801C189.093 19.6814 190.061 19.2854 191.235 18.9921C192.408 18.6694 193.655 18.5081 194.975 18.5081C196.969 18.5081 198.568 18.7428 199.771 19.2121C200.973 19.6521 201.868 20.2534 202.455 21.0161C203.071 21.7788 203.467 22.6588 203.643 23.6561C203.848 24.6241 203.951 25.6361 203.951 26.6921C203.98 27.9241 203.98 29.1414 203.951 30.3441C203.951 31.5174 203.921 32.6908 203.863 33.8641C203.804 35.0374 203.716 36.2254 203.599 37.4281C203.54 37.7508 203.452 38.0001 203.335 38.1761C203.217 38.3228 202.983 38.4841 202.631 38.6601C202.22 38.8654 201.677 39.0414 201.003 39.1881C200.328 39.3054 199.595 39.4081 198.803 39.4961C198.04 39.6134 197.321 39.6868 196.647 39.7161C195.972 39.7748 195.415 39.8041 194.975 39.8041ZM195.327 36.4161C195.561 36.4161 195.825 36.4014 196.119 36.3721C196.412 36.3134 196.705 36.2401 196.999 36.1521C197.292 36.0641 197.527 35.9468 197.703 35.8001C197.908 35.6534 198.025 35.4628 198.055 35.2281C198.143 34.5241 198.216 33.7468 198.275 32.8961C198.333 32.0454 198.333 31.2241 198.275 30.4321C198.275 30.0508 198.128 29.7868 197.835 29.6401C197.541 29.4348 197.116 29.3174 196.559 29.2881C196.031 29.2294 195.591 29.2001 195.239 29.2001C194.975 29.2001 194.637 29.2588 194.227 29.3761C193.845 29.4641 193.479 29.6401 193.127 29.9041C192.775 30.1681 192.481 30.5641 192.247 31.0921C192.041 31.6201 191.939 32.2948 191.939 33.1161C191.939 33.7614 192.071 34.3334 192.335 34.8321C192.599 35.3308 192.98 35.7268 193.479 36.0201C193.977 36.2841 194.593 36.4161 195.327 36.4161ZM210.406 39.4961C209.996 39.4961 209.79 39.3054 209.79 38.9241C209.79 35.8734 209.79 32.8374 209.79 29.8161C209.79 26.7654 209.79 23.7148 209.79 20.6641C209.79 20.3708 209.893 20.1508 210.098 20.0041C210.304 19.8574 210.7 19.6814 211.286 19.4761C211.668 19.3588 212.225 19.2268 212.958 19.0801C213.721 18.9041 214.542 18.7428 215.422 18.5961C216.302 18.4494 217.094 18.3761 217.798 18.3761C220.233 18.3761 222.096 18.8454 223.386 19.7841C224.706 20.6934 225.601 21.9108 226.07 23.4361C226.569 24.9321 226.818 26.5894 226.818 28.4081C226.818 29.4934 226.789 30.6374 226.73 31.8401C226.701 33.0134 226.642 34.1721 226.554 35.3161C226.466 36.4601 226.378 37.5014 226.29 38.4401C226.232 38.9681 226.144 39.2761 226.026 39.3641C225.909 39.4521 225.645 39.4961 225.234 39.4961H221.626C221.216 39.4961 220.937 39.4521 220.79 39.3641C220.673 39.2468 220.629 39.0121 220.658 38.6601C220.658 38.5428 220.673 38.0881 220.702 37.2961C220.761 36.4748 220.82 35.5068 220.878 34.3921C220.937 33.2774 220.981 32.1774 221.01 31.0921C221.069 30.0068 221.098 29.1268 221.098 28.4521C221.098 26.9268 220.966 25.7681 220.702 24.9761C220.438 24.1548 220.057 23.5974 219.558 23.3041C219.06 23.0108 218.429 22.8641 217.666 22.8641C217.373 22.8641 217.094 22.8788 216.83 22.9081C216.566 22.9374 216.332 22.9814 216.126 23.0401C215.862 23.0694 215.672 23.1868 215.554 23.3921C215.437 23.5974 215.378 23.9348 215.378 24.4041C215.378 25.6361 215.378 27.0588 215.378 28.6721C215.378 30.2854 215.378 31.9574 215.378 33.6881C215.378 35.4188 215.378 37.1641 215.378 38.9241C215.378 39.3054 215.217 39.4961 214.894 39.4961H210.406ZM238.335 13.0521C238.335 13.9321 238.145 14.6068 237.763 15.0761C237.382 15.5161 236.59 15.7361 235.387 15.7361C234.243 15.7361 233.451 15.5161 233.011 15.0761C232.601 14.6068 232.395 13.9321 232.395 13.0521C232.395 12.2894 232.601 11.6734 233.011 11.2041C233.451 10.7054 234.243 10.4561 235.387 10.4561C236.649 10.4561 237.455 10.7054 237.807 11.2041C238.159 11.6734 238.335 12.2894 238.335 13.0521ZM238.203 38.9681C238.203 39.3201 238.013 39.4961 237.631 39.4961H233.099C232.747 39.4961 232.571 39.3201 232.571 38.9681V19.2561C232.571 18.9041 232.747 18.7281 233.099 18.7281H237.631C238.013 18.7281 238.203 18.9041 238.203 19.2561V38.9681ZM252.192 39.8041C250.696 39.8041 249.288 39.6428 247.968 39.3201C246.677 38.9681 245.621 38.3081 244.8 37.3401C244.008 36.3721 243.612 34.9641 243.612 33.1161C243.612 31.5908 243.89 30.3441 244.448 29.3761C245.034 28.3788 245.768 27.6161 246.648 27.0881C247.557 26.5601 248.496 26.2081 249.464 26.0321C250.432 25.8268 251.297 25.7241 252.06 25.7241C252.676 25.7241 253.262 25.7534 253.82 25.8121C254.406 25.8414 254.949 25.9001 255.448 25.9881C255.712 26.0761 255.844 25.8854 255.844 25.4161C255.844 24.3308 255.506 23.5681 254.832 23.1281C254.186 22.6881 253.277 22.4681 252.104 22.4681C250.989 22.4681 249.918 22.6734 248.892 23.0841C247.894 23.4948 247.044 23.8761 246.34 24.2281C246.017 24.4041 245.797 24.4628 245.68 24.4041C245.592 24.3454 245.518 24.1548 245.46 23.8321L245.064 21.3681C245.005 20.9868 245.005 20.7374 245.064 20.6201C245.122 20.5028 245.284 20.3561 245.548 20.1801C246.31 19.6814 247.278 19.2854 248.452 18.9921C249.625 18.6694 250.872 18.5081 252.192 18.5081C254.186 18.5081 255.785 18.7428 256.988 19.2121C258.19 19.6521 259.085 20.2534 259.672 21.0161C260.288 21.7788 260.684 22.6588 260.86 23.6561C261.065 24.6241 261.168 25.6361 261.168 26.6921C261.197 27.9241 261.197 29.1414 261.168 30.3441C261.168 31.5174 261.138 32.6908 261.08 33.8641C261.021 35.0374 260.933 36.2254 260.816 37.4281C260.757 37.7508 260.669 38.0001 260.552 38.1761C260.434 38.3228 260.2 38.4841 259.848 38.6601C259.437 38.8654 258.894 39.0414 258.22 39.1881C257.545 39.3054 256.812 39.4081 256.02 39.4961C255.257 39.6134 254.538 39.6868 253.864 39.7161C253.189 39.7748 252.632 39.8041 252.192 39.8041ZM252.544 36.4161C252.778 36.4161 253.042 36.4014 253.336 36.3721C253.629 36.3134 253.922 36.2401 254.216 36.1521C254.509 36.0641 254.744 35.9468 254.92 35.8001C255.125 35.6534 255.242 35.4628 255.272 35.2281C255.36 34.5241 255.433 33.7468 255.492 32.8961C255.55 32.0454 255.55 31.2241 255.492 30.4321C255.492 30.0508 255.345 29.7868 255.052 29.6401C254.758 29.4348 254.333 29.3174 253.776 29.2881C253.248 29.2294 252.808 29.2001 252.456 29.2001C252.192 29.2001 251.854 29.2588 251.444 29.3761C251.062 29.4641 250.696 29.6401 250.344 29.9041C249.992 30.1681 249.698 30.5641 249.464 31.0921C249.258 31.6201 249.156 32.2948 249.156 33.1161C249.156 33.7614 249.288 34.3334 249.552 34.8321C249.816 35.3308 250.197 35.7268 250.696 36.0201C251.194 36.2841 251.81 36.4161 252.544 36.4161Z" fill="#72747A"/>
<path fill-rule="evenodd" clip-rule="evenodd" d="M20.8061 5.34216C20.6297 5.8075 20.2787 6.24185 20.026 6.30786C19.7642 6.37603 19.4851 6.819 19.3777 7.33607C19.2738 7.83563 19.0155 8.7698 18.8038 9.4119C17.4333 13.5627 22.7905 16.6576 25.6773 13.3825C27.4802 11.3366 26.8425 8.37587 24.3049 7.01274C23.5957 6.63174 22.5904 5.90962 22.0711 5.40817L21.1266 4.49609L20.8061 5.34216ZM15.2416 12.5709C14.9109 12.8016 14.6404 13.1287 14.6404 13.2979C14.6404 13.667 21.0289 25.0164 21.6164 25.6911C22.3123 26.4903 23.2165 26.2785 23.917 25.1522C25.4382 22.7062 30.0573 14.0609 30.0573 13.66C30.0573 13.0823 28.9221 12.5776 28.0904 12.7854C27.7004 12.8829 27.0478 13.532 26.4735 14.3934C25.3771 16.0387 24.1894 16.732 22.467 16.732C20.8307 16.732 19.2841 15.7463 18.3164 14.0868C17.6372 12.9217 16.7311 12.1514 16.0401 12.1514C15.9316 12.1514 15.5722 12.3403 15.2416 12.5709ZM28.3144 20.4186C26.2977 23.798 24.6479 26.7732 24.6479 27.0303C24.6479 27.2871 24.9435 27.6904 25.3048 27.9262C25.8812 28.3023 26.7697 28.332 32.54 28.1671C36.1738 28.0631 39.2696 27.8591 39.4562 27.7114C39.9666 27.3075 39.8619 26.23 39.2534 25.6238C38.8631 25.2349 38.3519 25.0849 37.4174 25.0849C36.6117 25.0849 35.6672 24.8558 34.9177 24.4786C32.3444 23.1836 31.8062 20.8214 33.3663 17.6697C34.1898 16.0058 34.2169 15.8603 33.8309 15.1724C33.5761 14.7179 33.1491 14.4099 32.7009 14.3579C32.0269 14.2795 31.7459 14.668 28.3144 20.4186ZM11.9357 15.1153C11.2203 15.828 11.2535 16.6455 12.0682 18.3894C12.8904 20.1486 12.9164 21.0636 12.1869 22.5647C11.3953 24.1938 10.2238 24.8302 7.60378 25.0544C5.9228 25.1983 5.36617 25.354 5.05188 25.7679C4.52824 26.458 4.53014 27.0995 5.05783 27.6255C5.4227 27.9887 6.48863 28.0488 12.577 28.0488C20.0136 28.0488 20.3206 28.0014 20.32 26.8497C20.3198 26.2747 13.7373 15.1301 13.1926 14.7825C12.7173 14.4794 12.522 14.5311 11.9357 15.1153ZM3.06337 15.5162C2.44615 16.0336 2.14538 16.607 1.89114 17.7518C1.66367 18.7766 1.29015 19.5523 0.774632 20.0707L0 20.85L0.896615 20.6815C1.38969 20.5891 1.99744 20.4811 2.24735 20.4415C2.54514 20.3943 2.92083 20.7783 3.336 21.5538C5.34183 25.2991 10.8492 23.9179 10.8527 19.6684C10.854 18.1504 10.0261 16.7975 8.68459 16.1263C7.65842 15.6127 6.08671 15.5125 5.44433 15.9196C5.136 16.1152 5.00319 16.0336 4.89149 15.5801C4.68268 14.7324 4.02571 14.7095 3.06337 15.5162ZM40.4283 15.5984C40.319 16.0144 40.0621 16.0664 38.582 15.9727C36.8994 15.866 36.8388 15.8856 35.7448 16.9042C34.119 18.4174 33.8472 20.4477 35.0294 22.2454C35.5552 23.0446 37.33 24.0071 38.2783 24.0071C39.8738 24.0071 41.4802 22.9045 42.1425 21.3544C42.4679 20.5932 42.6305 20.4778 43.1895 20.6134C43.5536 20.7015 44.1862 20.8475 44.5952 20.9375C45.3338 21.1003 45.3349 21.0984 44.7529 20.6686C44.1895 20.2523 43.5298 18.7865 43.183 17.1803C42.8455 15.6178 40.7404 14.4091 40.4283 15.5984ZM9.24826 29.5976C7.34927 29.6458 5.72968 29.8107 5.52926 29.9767C4.94694 30.4579 5.11977 31.47 5.88656 32.0708C6.37043 32.4499 6.99441 32.6294 7.82963 32.6294C9.29856 32.6294 11.0537 33.4324 11.7872 34.4398C12.1109 34.8844 12.3573 35.751 12.4249 36.6814C12.5196 37.9844 12.4136 38.4303 11.6728 39.8487C10.7851 41.5476 10.7632 42.2007 11.567 43.0015C12.5348 43.9659 12.8834 43.5768 16.653 37.327C18.6702 33.9826 20.3203 31.0205 20.3203 30.7446C20.3203 30.4687 20.1291 30.0524 19.8954 29.8193C19.4532 29.3791 18.5925 29.3613 9.24826 29.5976ZM25.1866 29.8589C24.8902 30.0659 24.6479 30.4822 24.6479 30.7845C24.6479 31.4985 31.289 42.5157 31.9233 42.8539C32.2616 43.0344 32.5743 42.9961 32.9597 42.7272C33.8783 42.0862 33.9332 41.1426 33.1401 39.6313C32.5405 38.4888 32.4461 38.0189 32.5446 36.6638C32.6403 35.3435 32.8042 34.9025 33.4555 34.2127C34.5301 33.0743 35.6866 32.6294 37.5707 32.6294C38.7876 32.6294 39.2877 32.503 39.7432 32.08C40.3956 31.4745 40.524 30.4213 39.9972 30.0004C39.8005 29.8433 36.7436 29.6784 32.6922 29.6067C27.0185 29.506 25.6253 29.5528 25.1866 29.8589ZM21.3062 32.1579C19.9901 34.2625 14.9109 43.7271 14.9109 44.0745C14.9109 44.6446 16.0639 45.1323 16.9107 44.9205C17.3305 44.8154 17.9364 44.234 18.4668 43.4267C20.0047 41.0868 22.5836 40.3057 24.643 41.5562C25.7233 42.2123 26.0684 42.6019 26.8287 44.0243C27.5105 45.2996 28.4323 45.7731 29.3887 45.339C29.7649 45.1684 30.1414 44.8497 30.2258 44.6309C30.3797 44.231 23.7718 32.1352 23.1933 31.7577C22.5942 31.367 21.6794 31.5608 21.3062 32.1579ZM5.16467 33.9136C3.37549 34.7664 2.6298 36.0252 2.58761 38.2633C2.56921 39.24 2.45724 40.5126 2.3385 41.0911L2.12294 42.1428L3.0915 41.9862C3.7812 41.8747 4.08386 41.934 4.14363 42.1921C4.21315 42.4939 4.40843 42.4912 5.3091 42.1767C5.90414 41.9687 6.67282 41.7968 7.0174 41.7947C8.41601 41.7855 10.1879 40.2901 10.5979 38.7723C10.9817 37.3531 10.5427 35.921 9.37997 34.7985C8.59074 34.0362 8.20369 33.8737 7.0082 33.8018C6.22248 33.7546 5.39294 33.805 5.16467 33.9136ZM36.1711 34.5872C34.2642 35.6763 33.5891 37.9852 34.6153 39.9088C35.8029 42.1355 38.4108 42.7288 40.6271 41.2762C41.2846 40.8451 42.34 40.3555 42.9723 40.1882C43.6047 40.0206 44.1219 39.8234 44.1219 39.7498C44.1219 39.6763 43.9287 39.3225 43.6929 38.9638C43.4568 38.6049 43.3356 38.1959 43.4232 38.0545C43.6339 37.7147 40.5119 34.5692 39.6336 34.2364C38.5285 33.8179 37.3003 33.9424 36.1711 34.5872ZM20.7125 43.2475C18.6198 44.1556 17.6883 46.6038 18.6775 48.5947C19.5232 50.2966 20.3955 50.8171 22.4013 50.8171C23.9457 50.8171 24.1524 50.7444 25.0411 49.8859C26.2128 48.7548 26.6337 47.4447 26.2642 46.0781C25.5707 43.5121 23.0567 42.2304 20.7125 43.2475Z" fill="#ACB1BC"/>
<path fill-rule="evenodd" clip-rule="evenodd" d="M9.13292 29.647C7.23393 29.6952 5.61435 29.8601 5.41393 30.0261C4.8316 30.5074 5.00443 31.5194 5.77122 32.1203C6.25509 32.4994 6.87907 32.6788 7.71429 32.6788C9.18323 32.6788 10.9383 33.4818 11.6718 34.4892C11.9956 34.9338 12.242 35.8004 12.3096 36.7308C12.4043 38.0338 12.2983 38.4798 11.5574 39.8981C10.6697 41.597 10.6478 42.2502 11.4517 43.051C12.4194 44.0153 12.7681 43.6262 16.5376 37.3764C18.5548 34.032 20.205 31.07 20.205 30.794C20.205 30.5181 20.0137 30.1018 19.7801 29.8688C19.3378 29.4285 18.4772 29.4107 9.13292 29.647ZM25.0713 29.9084C24.7749 30.1153 24.5325 30.5316 24.5325 30.8339C24.5325 31.548 31.1737 42.5651 31.808 42.9033C32.1463 43.0838 32.459 43.0456 32.8444 42.7767C33.7629 42.1356 33.8178 41.192 33.0248 39.6807C32.4252 38.5382 32.3308 38.0683 32.4292 36.7133C32.525 35.393 32.6889 34.9519 33.3402 34.2621C34.4148 33.1237 35.5713 32.6788 37.4554 32.6788C38.6723 32.6788 39.1724 32.5525 39.6278 32.1294C40.2802 31.524 40.4087 30.4707 39.8818 30.0498C39.6852 29.8927 36.6283 29.7278 32.5769 29.6562C26.9032 29.5554 25.51 29.6023 25.0713 29.9084ZM21.1908 32.2073C19.8747 34.312 14.7955 43.7766 14.7955 44.1239C14.7955 44.694 15.9485 45.1817 16.7954 44.97C17.2152 44.8649 17.821 44.2834 18.3514 43.4761C19.8893 41.1363 22.4683 40.3551 24.5277 41.6056C25.6079 42.2617 25.953 42.6514 26.7133 44.0738C27.3952 45.3491 28.317 45.8225 29.2734 45.3884C29.6496 45.2179 30.0261 44.8991 30.1105 44.6803C30.2644 44.2804 23.6565 32.1847 23.0779 31.8072C22.4788 31.4165 21.5641 31.6102 21.1908 32.2073ZM5.04933 33.963C3.26016 34.8158 2.51446 36.0747 2.47227 38.3127C2.45388 39.2895 2.3419 40.5621 2.22316 41.1406L2.0076 42.1922L2.97616 42.0357C3.66586 41.9241 3.96852 41.9834 4.0283 42.2415C4.09781 42.5433 4.29309 42.5406 5.19376 42.2262C5.7888 42.0182 6.55748 41.8463 6.90206 41.8441C8.30068 41.8349 10.0725 40.3395 10.4826 38.8217C10.8664 37.4025 10.4274 35.9704 9.26464 34.8479C8.4754 34.0856 8.08836 33.9231 6.89287 33.8512C6.10715 33.804 5.27761 33.8544 5.04933 33.963ZM36.0557 34.6366C34.1489 35.7257 33.4738 38.0346 34.5 39.9582C35.6876 42.1849 38.2955 42.7783 40.5117 41.3257C41.1693 40.8946 42.2247 40.405 42.857 40.2376C43.4894 40.0701 44.0065 39.8728 44.0065 39.7993C44.0065 39.7257 43.8134 39.3719 43.5776 39.0133C43.3414 38.6544 43.2203 38.2454 43.3079 38.1039C43.5186 37.7641 40.3965 34.6186 39.5183 34.2858C38.4132 33.8674 37.1849 33.9919 36.0557 34.6366ZM20.5972 43.297C18.5045 44.205 17.573 46.6532 18.5621 48.6441C19.4079 50.346 20.2802 50.8666 22.286 50.8666C23.8304 50.8666 24.037 50.7938 24.9258 49.9353C26.0975 48.8042 26.5183 47.4941 26.1489 46.1275C25.4554 43.5616 22.9413 42.2798 20.5972 43.297Z" fill="#606369"/>
<path fill-rule="evenodd" clip-rule="evenodd" d="M11.9357 15.0111C11.2203 15.7238 11.2535 16.5413 12.0682 18.2851C12.8904 20.0444 12.9164 20.9594 12.1869 22.4605C11.3953 24.0896 10.2238 24.726 7.60379 24.9502C5.9228 25.0941 5.36617 25.2498 5.05188 25.6637C4.52825 26.3537 4.53014 26.9953 5.05783 27.5213C5.4227 27.8845 6.48863 27.9446 12.577 27.9446C20.0136 27.9446 20.3206 27.8971 20.32 26.7455C20.3198 26.1705 13.7373 15.0259 13.1926 14.6783C12.7173 14.3752 12.5221 14.4269 11.9357 15.0111ZM3.06337 15.412C2.44615 15.9293 2.14539 16.5027 1.89114 17.6476C1.66367 18.6723 1.29015 19.4481 0.774632 19.9665L0 20.7457L0.896615 20.5773C1.38969 20.4849 1.99744 20.3768 2.24735 20.3372C2.54514 20.2901 2.92083 20.674 3.336 21.4495C5.34183 25.1948 10.8492 23.8137 10.8527 19.5642C10.854 18.0461 10.0261 16.6932 8.68459 16.022C7.65842 15.5085 6.08671 15.4082 5.44433 15.8154C5.136 16.011 5.0032 15.9293 4.89149 15.4759C4.68269 14.6282 4.02571 14.6053 3.06337 15.412ZM9.24826 29.4933C7.34927 29.5416 5.72968 29.7065 5.52926 29.8725C4.94694 30.3537 5.11977 31.3657 5.88656 31.9666C6.37043 32.3457 6.99441 32.5252 7.82963 32.5252C9.29856 32.5252 11.0537 33.3281 11.7872 34.3356C12.1109 34.7802 12.3573 35.6467 12.425 36.5771C12.5196 37.8802 12.4136 38.3261 11.6728 39.7445C10.7851 41.4433 10.7632 42.0965 11.567 42.8973C12.5348 43.8616 12.8834 43.4726 16.653 37.2227C18.6702 33.8783 20.3203 30.9163 20.3203 30.6404C20.3203 30.3645 20.1291 29.9482 19.8954 29.7151C19.4532 29.2748 18.5925 29.257 9.24826 29.4933ZM5.16467 33.8094C3.37549 34.6622 2.6298 35.921 2.58761 38.159C2.56922 39.1358 2.45724 40.4084 2.3385 40.9869L2.12294 42.0386L3.0915 41.882C3.7812 41.7705 4.08386 41.8297 4.14363 42.0879C4.21315 42.3897 4.40843 42.387 5.3091 42.0725C5.90414 41.8645 6.67282 41.6926 7.0174 41.6904C8.41601 41.6813 10.1879 40.1858 10.5979 38.668C10.9817 37.2489 10.5427 35.8167 9.37998 34.6942C8.59074 33.932 8.20369 33.7695 7.00821 33.6975C6.22248 33.6504 5.39294 33.7008 5.16467 33.8094Z" fill="#72747A"/>
</svg>
