<svg width="63" height="27" viewBox="0 0 63 27" fill="none" xmlns="http://www.w3.org/2000/svg">
<mask id="mask0_491_3101" style="mask-type:luminance" maskUnits="userSpaceOnUse" x="0" y="0" width="63" height="27">
<path d="M0.0959473 -7.62939e-05H62.9227V26.6851H0.0959473V-7.62939e-05Z" fill="white"/>
</mask>
<g mask="url(#mask0_491_3101)">
<path d="M13.5099 18.9163C13.4543 18.9537 13.3492 18.9719 13.1942 18.9719H11.9319C11.799 18.9719 11.702 18.9509 11.6411 18.9083C11.5803 18.8661 11.5498 18.7759 11.5498 18.638V8.17525C11.5498 8.03761 11.5803 7.94747 11.6411 7.9049C11.702 7.86265 11.799 7.84136 11.9319 7.84136H13.1942C13.3492 7.84136 13.4543 7.85995 13.5099 7.89696C13.5652 7.93429 13.5929 8.02697 13.5929 8.17525V18.638C13.5929 18.7866 13.5652 18.8792 13.5099 18.9163Z" fill="#72747A"/>
<path d="M60.1993 0.0244293H14.2274C12.7324 0.0244293 11.5161 1.23757 11.5161 2.72876V5.27568V5.73759V5.75292C11.5161 5.86141 11.6051 5.95012 11.7138 5.95012H13.411C13.5197 5.95012 13.6087 5.86141 13.6087 5.75292V5.73759V5.27568V2.72876C13.6087 2.39408 13.8921 2.11151 14.2274 2.11151H60.1993C60.5346 2.11151 60.8181 2.39408 60.8181 2.72876V23.9862C60.8181 24.3207 60.5346 24.6033 60.1993 24.6033H14.2274C13.8921 24.6033 13.6087 24.3207 13.6087 23.9862V21.4253V20.9773V20.948C13.6087 20.8396 13.5197 20.7508 13.411 20.7508H11.7138C11.6051 20.7508 11.5161 20.8396 11.5161 20.948V20.9773V21.4253V23.9862C11.5161 25.4773 12.7324 26.6904 14.2274 26.6904H60.1993C61.6942 26.6904 62.9106 25.4773 62.9106 23.9862V2.72876C62.9106 1.23757 61.6942 0.0244293 60.1993 0.0244293Z" fill="#72747A"/>
<path d="M46.8692 12.9527C46.9891 13.0769 47.0599 13.2183 47.0599 13.3677C47.0599 13.6069 46.8788 13.8242 46.6048 13.9859C46.3307 14.1477 45.9525 14.2575 45.5142 14.2575H43.1353L39.1275 18.8616C39.1101 18.8829 39.0823 18.8962 39.0546 18.8962L38.0083 18.8954C37.9784 18.8951 37.9491 18.8803 37.932 18.8556C37.9151 18.831 37.9102 18.798 37.9207 18.77L39.8758 14.2575H37.7467L36.6387 15.6028C36.6213 15.6241 36.5944 15.6365 36.5668 15.6365H35.7415C35.7114 15.6365 35.6815 15.6206 35.6644 15.5959C35.6472 15.5712 35.6425 15.5384 35.6531 15.5103L36.4559 13.3677L35.6539 11.226C35.6433 11.1979 35.6472 11.1642 35.6644 11.1395C35.6815 11.1148 35.7123 11.0997 35.7424 11.0997H36.5659C36.5936 11.0998 36.6213 11.1131 36.6387 11.1344L37.7459 12.4789H39.8767L37.9216 7.96629C37.9111 7.93826 37.9151 7.9045 37.932 7.87981C37.9491 7.85519 37.9783 7.84025 38.0083 7.84002L39.0546 7.84089C39.0823 7.84097 39.1092 7.85328 39.1266 7.87464L43.1345 12.4789H45.515C45.9533 12.4789 46.3307 12.5877 46.6048 12.7494C46.7076 12.8101 46.7972 12.8782 46.8691 12.9527H46.8692Z" fill="#72747A"/>
<path d="M4.99085 16.9049H5.0864L5.81978 14.4084L7.90835 8.04801C7.94012 7.94215 7.98527 7.87861 8.04372 7.85725C8.10209 7.83612 8.18442 7.82548 8.29089 7.82548H9.80534C9.89038 7.82548 9.94103 7.84931 9.95687 7.89704C9.97272 7.94469 9.97009 8.00036 9.94891 8.06398L6.42551 18.2405C6.32996 18.5268 6.21561 18.7175 6.08287 18.8129C5.94973 18.9084 5.75592 18.9615 5.50095 18.9719H4.64009C4.36354 18.9719 4.15379 18.927 4.0103 18.8368C3.86673 18.7468 3.73654 18.5481 3.61973 18.2405L0.112256 8.06398C0.0908364 8.00036 0.0908364 7.94469 0.112256 7.89704C0.133597 7.84931 0.186629 7.82548 0.271752 7.82548H1.80229C1.91918 7.82548 2.00152 7.84414 2.04938 7.88107C2.09715 7.9184 2.13155 7.97924 2.15305 8.06398L4.19369 14.3766L4.99085 16.9049Z" fill="#72747A"/>
<path d="M15.9112 10.6876C15.9112 10.2425 15.9855 9.8345 16.1343 9.46329C16.2832 9.09232 16.5063 8.77162 16.804 8.50119C17.1014 8.23093 17.476 8.02173 17.928 7.87314C18.3796 7.72486 18.9083 7.65052 19.5142 7.65052C19.8011 7.65052 20.0986 7.66649 20.407 7.69826C20.7152 7.7301 21.0234 7.77251 21.3318 7.82549C21.6398 7.87862 21.9375 7.94748 22.2244 8.03214C22.5114 8.1172 22.7769 8.21258 23.0215 8.31837C23.1066 8.3715 23.1596 8.41923 23.181 8.46148C23.2021 8.50397 23.1914 8.57831 23.1491 8.6841L22.7664 9.7654C22.7239 9.88215 22.6841 9.94576 22.6469 9.95617C22.6095 9.96689 22.5485 9.96165 22.4637 9.94028C21.9319 9.76016 21.4114 9.62499 20.9012 9.53476C20.391 9.44486 19.9181 9.39967 19.4824 9.39967C18.9296 9.39967 18.5283 9.51372 18.2786 9.74157C18.0288 9.96959 17.904 10.2372 17.904 10.5445C17.904 10.7354 17.9491 10.9078 18.0395 11.0613C18.1297 11.2151 18.2759 11.3634 18.478 11.5065C18.6797 11.6496 18.9323 11.7928 19.2352 11.9359C19.538 12.079 19.9074 12.2354 20.3432 12.4049C20.8001 12.5957 21.236 12.7893 21.6505 12.9853C22.0651 13.1816 22.4317 13.4121 22.7506 13.6771C23.0695 13.9421 23.3217 14.2522 23.5078 14.6072C23.6936 14.9625 23.7869 15.3944 23.7869 15.9031C23.7869 16.4544 23.6833 16.9342 23.4759 17.3422C23.2687 17.7504 22.987 18.087 22.631 18.3518C22.2748 18.6169 21.8522 18.8157 21.3635 18.9482C20.8745 19.0806 20.3484 19.147 19.7851 19.147C19.1155 19.147 18.4142 19.0833 17.6808 18.956C16.9474 18.8289 16.2671 18.5958 15.6402 18.2565C15.4912 18.1928 15.4594 18.0656 15.5445 17.8748L16.0228 16.7936C16.097 16.6346 16.2141 16.5869 16.3735 16.6505C16.8836 16.8626 17.4124 17.04 17.9597 17.1832C18.5071 17.3263 19.0359 17.3978 19.5462 17.3978C20.3537 17.3978 20.9251 17.2602 21.2598 16.9844C21.5947 16.7088 21.7621 16.3643 21.7621 15.9509C21.7621 15.7283 21.7195 15.5322 21.6345 15.3624C21.5494 15.193 21.4166 15.0365 21.236 14.8934C21.0551 14.7503 20.8266 14.6126 20.5505 14.48C20.2739 14.3475 19.9447 14.2071 19.562 14.0586C18.9881 13.836 18.4725 13.6134 18.0157 13.3908C17.5585 13.1682 17.1758 12.9272 16.8676 12.6673C16.5593 12.4077 16.323 12.1162 16.1583 11.7928C15.9933 11.4695 15.9112 11.1011 15.9112 10.6876Z" fill="#72747A"/>
<path d="M27.8042 14.8854H30.8651L30.0362 12.2141L29.3666 9.95616H29.2868L28.6333 12.1663L27.8042 14.8854ZM31.3753 16.5391H27.3259L26.6244 18.7017C26.5926 18.797 26.5471 18.8661 26.4889 18.9083C26.4303 18.9508 26.3375 18.9719 26.2099 18.9719H24.7432C24.6262 18.9719 24.5519 18.9376 24.52 18.8686C24.4881 18.7997 24.4881 18.723 24.52 18.638L27.9636 8.57274C28.0168 8.41374 28.0698 8.28651 28.1231 8.19113C28.1761 8.09575 28.2425 8.02173 28.3224 7.96852C28.4021 7.91562 28.495 7.87583 28.6013 7.84931C28.7074 7.82294 28.8349 7.80952 28.9839 7.80952H29.6694C29.9989 7.80952 30.2327 7.85995 30.371 7.96065C30.509 8.06144 30.6312 8.26547 30.7377 8.57274L34.1972 18.638C34.229 18.723 34.2315 18.7997 34.2051 18.8686C34.1785 18.9376 34.1067 18.9719 33.9899 18.9719H32.5231C32.406 18.9719 32.3132 18.9587 32.2442 18.9322C32.175 18.9058 32.1192 18.8343 32.0768 18.7175L31.3753 16.5391Z" fill="#72747A"/>
<path d="M57.4393 15.1761C57.4393 15.8068 57.3292 16.3696 57.1091 16.865C56.8891 17.3605 56.5812 17.7799 56.1863 18.1231C55.7909 18.4668 55.317 18.7285 54.7639 18.9084C54.2106 19.0885 53.6011 19.1787 52.9351 19.1787C52.2125 19.1787 51.4958 19.0998 50.7847 18.9423C50.0734 18.7848 49.4356 18.4694 48.8712 17.9965C48.7468 17.8841 48.7244 17.7658 48.8035 17.6419L49.4808 16.6116C49.5934 16.4428 49.763 16.4317 49.9888 16.5778C50.4064 16.8594 50.8551 17.0649 51.335 17.1942C51.8146 17.3239 52.3085 17.3885 52.8165 17.3885C53.6405 17.3885 54.2839 17.1971 54.7469 16.8143C55.2098 16.4317 55.4413 15.9136 55.4413 15.2604C55.4413 14.9341 55.3819 14.6554 55.2634 14.4245C55.1449 14.1939 54.9867 14.0024 54.7893 13.8503C54.5916 13.6983 54.3631 13.586 54.1035 13.5126C53.8437 13.4394 53.5728 13.4027 53.2907 13.4027C52.9971 13.4027 52.743 13.4196 52.5288 13.4535C52.3142 13.4872 52.111 13.5323 51.9192 13.5886C51.7271 13.645 51.5408 13.7125 51.3604 13.7913C51.1797 13.8701 50.982 13.9545 50.7677 14.0445C50.4855 14.1572 50.2031 14.1628 49.9211 14.0614L49.5316 13.9263C49.3396 13.8588 49.2015 13.7604 49.1167 13.6307C49.032 13.5015 49.0008 13.3073 49.0237 13.0481L49.4471 8.7584C49.4919 8.3644 49.6219 8.07444 49.8364 7.8886C50.0507 7.70283 50.3047 7.60991 50.5984 7.60991H56.3387C56.4741 7.60991 56.5615 7.63262 56.6012 7.6775C56.6406 7.72269 56.6604 7.81267 56.6604 7.94776V8.99484C56.6604 9.11881 56.6377 9.20594 56.5926 9.25661C56.5475 9.30728 56.4627 9.33261 56.3387 9.33261H51.2927L50.9878 12.1192C51.3941 11.9504 51.8146 11.8405 52.2494 11.7899C52.6838 11.7393 53.0986 11.7139 53.4939 11.7139C54.0468 11.7139 54.5664 11.7957 55.0517 11.9588C55.537 12.1222 55.9548 12.353 56.3047 12.6513C56.6546 12.9497 56.9313 13.3127 57.1346 13.7406C57.3378 14.1686 57.4393 14.647 57.4393 15.1761Z" fill="#A3A5AA"/>
<path d="M17.8638 22.4779C17.8638 22.355 17.8229 22.2561 17.7412 22.1808C17.6595 22.1057 17.5403 22.068 17.3841 22.068H16.8105V22.9208H17.3896C17.4908 22.9208 17.5721 22.9057 17.6336 22.8753C17.6951 22.8451 17.743 22.808 17.7771 22.7641C17.8111 22.72 17.834 22.6723 17.8461 22.6209C17.8579 22.5696 17.8638 22.522 17.8638 22.4779ZM16.8105 21.9525H17.3759C17.4146 21.9525 17.4572 21.9475 17.504 21.9373C17.551 21.9271 17.595 21.9083 17.6364 21.8807C17.6779 21.8531 17.7121 21.8159 17.7399 21.7688C17.7673 21.7219 17.7812 21.6625 17.7812 21.5907C17.7812 21.4951 17.7489 21.4144 17.6847 21.3491C17.6202 21.2838 17.5294 21.251 17.4116 21.251H16.8105V21.9525ZM17.6407 22.0048C17.714 22.0212 17.7748 22.0474 17.8225 22.0831C17.8704 22.1189 17.9081 22.1597 17.9355 22.2056C17.9633 22.2514 17.9825 22.2995 17.9934 22.35C18.0046 22.4004 18.01 22.4495 18.01 22.4971C18.01 22.5796 17.9953 22.6553 17.966 22.7241C17.9364 22.793 17.8956 22.8511 17.8432 22.8988C17.791 22.9464 17.7282 22.9836 17.6556 23.0102C17.583 23.0368 17.5026 23.05 17.4146 23.05H16.7803C16.7417 23.05 16.7136 23.0427 16.696 23.0281C16.6786 23.0134 16.6699 22.9868 16.6699 22.9482V21.229C16.6699 21.196 16.6768 21.1699 16.6906 21.1507C16.7044 21.1315 16.7342 21.1217 16.7803 21.1217H17.398C17.4713 21.1217 17.5403 21.131 17.6048 21.1493C17.669 21.1677 17.725 21.196 17.773 21.2347C17.8207 21.2731 17.8584 21.3216 17.886 21.3804C17.9136 21.4391 17.9273 21.5079 17.9273 21.5867C17.9273 21.6252 17.9222 21.6647 17.9121 21.705C17.9019 21.7453 17.886 21.7834 17.8638 21.8191C17.8418 21.8549 17.8125 21.8878 17.7758 21.9181C17.739 21.9484 17.6938 21.9727 17.6407 21.991V22.0048Z" fill="#72747A"/>
<path d="M21.2895 21.3061L21.0549 21.6884L20.2414 22.9675C20.223 22.9987 20.2078 23.0203 20.196 23.0321C20.1839 23.0442 20.1651 23.05 20.1395 23.05H20.0981C20.0632 23.05 20.04 23.0417 20.029 23.0252C20.0179 23.0088 20.0125 22.9878 20.0125 22.9621V21.1465C20.0125 21.1282 20.0216 21.119 20.04 21.119H20.1256C20.144 21.119 20.1531 21.1282 20.1531 21.1465V22.8657H20.1614L20.3683 22.5274L21.2123 21.2016C21.2307 21.1704 21.2457 21.1489 21.2577 21.1369C21.2697 21.1251 21.2886 21.119 21.3142 21.119H21.3555C21.3905 21.119 21.4134 21.1273 21.4246 21.1438C21.4356 21.1603 21.4411 21.1822 21.4411 21.2098V23.0252C21.4411 23.0417 21.4318 23.05 21.4134 23.05H21.3281C21.3097 23.05 21.3004 23.0417 21.3004 23.0252V21.3061H21.2895Z" fill="#72747A"/>
<path d="M24.2761 22.0159C24.3532 22.0324 24.4198 22.0567 24.4758 22.0888C24.5319 22.1208 24.5784 22.1589 24.6152 22.2029C24.652 22.2468 24.679 22.2951 24.6965 22.3473C24.7139 22.3996 24.7226 22.4531 24.7226 22.5082C24.7226 22.5925 24.7051 22.6696 24.6704 22.7392C24.6354 22.809 24.5857 22.8691 24.5215 22.9194C24.4569 22.9699 24.3784 23.0093 24.2856 23.0378C24.1928 23.0662 24.0886 23.0803 23.9727 23.0803C23.9342 23.0803 23.8908 23.079 23.8432 23.0764C23.7952 23.0737 23.7446 23.0673 23.6915 23.0574C23.6381 23.0476 23.5844 23.0341 23.5301 23.0171C23.4759 23.0002 23.4229 22.978 23.3716 22.9509C23.3551 22.942 23.3523 22.9282 23.3632 22.9098L23.3964 22.8521C23.4055 22.8374 23.4185 22.8337 23.4349 22.8411C23.514 22.8814 23.5986 22.9108 23.6887 22.929C23.7786 22.9474 23.8669 22.9566 23.9535 22.9566C24.1573 22.9566 24.3124 22.9157 24.4179 22.8338C24.5237 22.752 24.5766 22.642 24.5766 22.504C24.5766 22.4415 24.5637 22.3841 24.5381 22.3317C24.5121 22.2791 24.4758 22.2345 24.4291 22.1978C24.3821 22.161 24.3251 22.1325 24.2581 22.1122C24.1909 22.0919 24.116 22.0819 24.0334 22.0819H23.8733C23.8513 22.0819 23.8361 22.0776 23.828 22.0695C23.8195 22.0612 23.8154 22.0498 23.8154 22.0351V21.9993C23.8154 21.9646 23.8329 21.947 23.8679 21.947H24.0168C24.0792 21.947 24.1394 21.938 24.1975 21.9196C24.2554 21.9013 24.3067 21.8755 24.3519 21.8425C24.3968 21.8095 24.4327 21.7693 24.4592 21.7214C24.4861 21.6737 24.4995 21.6198 24.4995 21.5592C24.4995 21.4914 24.4847 21.435 24.4552 21.39C24.4259 21.3451 24.3878 21.3098 24.3407 21.2842C24.294 21.2584 24.2411 21.2401 24.1823 21.2291C24.1235 21.2182 24.0654 21.2126 24.0086 21.2126C23.9312 21.2126 23.8527 21.2204 23.7727 21.236C23.6929 21.2515 23.6105 21.2805 23.526 21.3226C23.5185 21.3263 23.5113 21.3281 23.504 21.3281C23.4965 21.3281 23.4911 21.3236 23.4874 21.3144L23.457 21.251C23.4533 21.2419 23.4516 21.2342 23.4516 21.2278C23.4516 21.2213 23.4561 21.2153 23.4653 21.2099C23.5591 21.1604 23.6524 21.1269 23.7453 21.1094C23.8379 21.092 23.9285 21.0833 24.0168 21.0833C24.1087 21.0833 24.1932 21.0929 24.2704 21.1121C24.3478 21.1315 24.4139 21.1604 24.469 21.1989C24.5242 21.2374 24.5673 21.286 24.5986 21.3446C24.6297 21.4034 24.6454 21.4721 24.6454 21.5509C24.6454 21.65 24.6134 21.7398 24.5489 21.8205C24.4847 21.9013 24.3936 21.9626 24.2761 22.0048V22.0159Z" fill="#72747A"/>
<path d="M28.0741 22.0873C28.0741 21.9735 28.0639 21.8641 28.0437 21.7585C28.0235 21.6531 27.989 21.5605 27.9403 21.4808C27.8916 21.4009 27.8259 21.3374 27.743 21.2896C27.6605 21.2418 27.5565 21.2182 27.4315 21.2182C27.3139 21.2182 27.2136 21.2414 27.1309 21.2881C27.048 21.3349 26.9811 21.3982 26.9295 21.4779C26.878 21.5578 26.8408 21.65 26.8178 21.7545C26.7949 21.859 26.7833 21.9691 26.7833 22.0846C26.7833 22.2038 26.7939 22.3161 26.815 22.4215C26.8362 22.5271 26.8721 22.6195 26.9228 22.6993C26.9731 22.7791 27.0399 22.842 27.1225 22.8878C27.2054 22.9336 27.3074 22.9565 27.4288 22.9565C27.55 22.9565 27.6522 22.9328 27.7349 22.8849C27.8176 22.8373 27.8843 22.7732 27.9349 22.6925C27.9853 22.6117 28.0212 22.5191 28.0423 22.4146C28.0635 22.3101 28.0741 22.2011 28.0741 22.0873ZM28.2176 22.0846C28.2176 22.4018 28.1509 22.6471 28.0176 22.8204C27.8843 22.9937 27.687 23.0803 27.4261 23.0803C27.288 23.0803 27.17 23.0559 27.0717 23.0074C26.9731 22.959 26.8923 22.8905 26.8289 22.8026C26.7653 22.7144 26.719 22.6094 26.6895 22.4875C26.6602 22.3656 26.6455 22.2322 26.6455 22.0873C26.6455 21.9297 26.6634 21.7889 26.6993 21.6651C26.7352 21.5412 26.7872 21.4372 26.855 21.3529C26.9232 21.2684 27.0053 21.2043 27.1019 21.1603C27.1984 21.1163 27.3074 21.0943 27.4288 21.0943C27.5594 21.0943 27.6738 21.1167 27.7722 21.1618C27.8704 21.2066 27.9528 21.2714 28.0189 21.3556C28.0853 21.4401 28.1347 21.5436 28.1678 21.6665C28.201 21.7893 28.2176 21.9287 28.2176 22.0846Z" fill="#72747A"/>
<path d="M31.4248 22.4779C31.4248 22.355 31.3839 22.2561 31.3022 22.1808C31.2205 22.1057 31.1013 22.068 30.9451 22.068H30.3715V22.9208H30.9506C31.0518 22.9208 31.1331 22.9057 31.1946 22.8753C31.2561 22.8451 31.304 22.808 31.3381 22.7641C31.3721 22.72 31.3951 22.6723 31.4071 22.6209C31.4189 22.5696 31.4248 22.522 31.4248 22.4779ZM30.3715 21.9525H30.937C30.9755 21.9525 31.0183 21.9475 31.0649 21.9373C31.112 21.9271 31.156 21.9083 31.1974 21.8807C31.2389 21.8531 31.2732 21.8159 31.3008 21.7688C31.3283 21.7219 31.3422 21.6625 31.3422 21.5907C31.3422 21.4951 31.31 21.4144 31.2456 21.3491C31.1811 21.2838 31.0904 21.251 30.9726 21.251H30.3715V21.9525ZM31.2016 22.0048C31.2749 22.0212 31.3358 22.0474 31.3834 22.0831C31.4314 22.1189 31.4691 22.1597 31.4965 22.2056C31.5242 22.2514 31.5436 22.2995 31.5544 22.35C31.5656 22.4004 31.571 22.4495 31.571 22.4971C31.571 22.5796 31.5562 22.6553 31.5269 22.7241C31.4975 22.793 31.4565 22.8511 31.4041 22.8988C31.3519 22.9464 31.2893 22.9836 31.2167 23.0102C31.144 23.0368 31.0636 23.05 30.9755 23.05H30.3413C30.3027 23.05 30.2745 23.0427 30.2571 23.0281C30.2396 23.0134 30.231 22.9868 30.231 22.9482V21.229C30.231 21.196 30.2377 21.1699 30.2516 21.1507C30.2654 21.1315 30.2952 21.1217 30.3413 21.1217H30.9589C31.0323 21.1217 31.1013 21.131 31.1658 21.1493C31.23 21.1677 31.2861 21.196 31.3339 21.2347C31.3817 21.2731 31.4194 21.3216 31.447 21.3804C31.4745 21.4391 31.4884 21.5079 31.4884 21.5867C31.4884 21.6252 31.4831 21.6647 31.4731 21.705C31.4629 21.7453 31.447 21.7834 31.4248 21.8191C31.4028 21.8549 31.3734 21.8878 31.3367 21.9181C31.2999 21.9484 31.2547 21.9727 31.2016 21.991V22.0048Z" fill="#72747A"/>
<path d="M35.2611 23.0253C35.2611 23.0418 35.2519 23.05 35.2334 23.05H35.1453C35.127 23.05 35.1176 23.0418 35.1176 23.0253V21.1493C35.1176 21.131 35.127 21.1217 35.1453 21.1217H35.2334C35.2519 21.1217 35.2611 21.131 35.2611 21.1493V23.0253ZM34.7673 22.4449C34.7673 22.3844 34.7573 22.3276 34.7371 22.2744C34.7169 22.2212 34.6864 22.1749 34.646 22.1355C34.6057 22.0961 34.5551 22.0648 34.4944 22.042C34.4337 22.019 34.3629 22.0076 34.2821 22.0076H33.7138V22.9208H34.2848C34.3858 22.9208 34.4683 22.9043 34.5316 22.8714C34.595 22.8382 34.6442 22.7975 34.6792 22.7489C34.7142 22.7003 34.7376 22.6484 34.7496 22.5935C34.7615 22.5383 34.7673 22.4889 34.7673 22.4449ZM33.6835 23.05C33.645 23.05 33.6169 23.0427 33.5994 23.0281C33.5818 23.0134 33.5732 22.9868 33.5732 22.9482V21.1466C33.5732 21.1301 33.5823 21.1217 33.6006 21.1217H33.6863C33.7047 21.1217 33.7138 21.1301 33.7138 21.1466V21.8838H34.2709C34.4163 21.8838 34.5312 21.9053 34.6157 21.9484C34.7003 21.9915 34.7646 22.0434 34.8088 22.1038C34.8529 22.1644 34.8809 22.2276 34.8928 22.2936C34.9049 22.3596 34.9108 22.4166 34.9108 22.4642C34.9108 22.5467 34.8965 22.6237 34.8681 22.6953C34.8395 22.7668 34.799 22.8285 34.7466 22.881C34.6944 22.9332 34.6313 22.9744 34.5578 23.0047C34.4842 23.0349 34.4015 23.05 34.3096 23.05H33.6835Z" fill="#72747A"/>
<path d="M38.0192 21.0008C37.9363 21.0008 37.8609 20.9773 37.793 20.9306C37.7249 20.8838 37.6689 20.822 37.6248 20.7448C37.6155 20.7303 37.6173 20.7184 37.6302 20.7092L37.6607 20.6844C37.6697 20.6771 37.677 20.6752 37.6827 20.6789C37.6882 20.6826 37.6936 20.6889 37.6992 20.6981C37.7452 20.7623 37.7976 20.8095 37.8564 20.8398C37.9152 20.87 37.9712 20.8851 38.0246 20.8851C38.065 20.8851 38.113 20.872 38.1682 20.8453C38.2231 20.8187 38.28 20.7678 38.3391 20.6926C38.3482 20.6835 38.3546 20.6775 38.3584 20.6748C38.3621 20.6721 38.3684 20.6734 38.3777 20.6789L38.4106 20.701C38.4218 20.7083 38.4254 20.717 38.4218 20.727C38.4181 20.7372 38.4124 20.7468 38.4052 20.7558C38.3482 20.8439 38.2862 20.9067 38.219 20.9444C38.152 20.982 38.0853 21.0008 38.0192 21.0008ZM38.6066 21.3061L38.3721 21.6884L37.5585 22.9675C37.54 22.9987 37.5249 23.0203 37.5131 23.0321C37.501 23.0442 37.4822 23.05 37.4566 23.05H37.4152C37.3803 23.05 37.3571 23.0417 37.3462 23.0252C37.335 23.0088 37.3296 22.9878 37.3296 22.9621V21.1465C37.3296 21.1282 37.3387 21.119 37.3571 21.119H37.4427C37.4611 21.119 37.4701 21.1282 37.4701 21.1465V22.8656H37.4786L37.6854 22.5274L38.5294 21.2015C38.5478 21.1704 38.5627 21.1489 38.5748 21.1369C38.5868 21.125 38.6056 21.119 38.6313 21.119H38.6727C38.7076 21.119 38.7306 21.1273 38.7416 21.1438C38.7528 21.1603 38.7582 21.1822 38.7582 21.2098V23.0252C38.7582 23.0417 38.749 23.05 38.7306 23.05H38.6451C38.6268 23.05 38.6175 23.0417 38.6175 23.0252V21.3061H38.6066Z" fill="#72747A"/>
<path d="M44.6992 22.9208C44.736 22.9226 44.7584 22.9317 44.7669 22.9482C44.775 22.9648 44.7782 22.9831 44.7764 23.0033L44.7489 23.4653C44.7489 23.4855 44.7414 23.4956 44.7266 23.4956H44.6578C44.6431 23.4956 44.6358 23.4855 44.6358 23.4653L44.6219 23.0501H43.2925C43.2503 23.0501 43.2204 23.04 43.2029 23.0198C43.1854 22.9996 43.1768 22.9702 43.1768 22.9317V21.1492C43.1768 21.1328 43.1858 21.1246 43.2042 21.1246H43.2898C43.3082 21.1246 43.3173 21.1328 43.3173 21.1492V22.9235H44.4565V21.1465C44.4565 21.13 44.4655 21.1217 44.4839 21.1217H44.5695C44.5879 21.1217 44.597 21.13 44.597 21.1465V22.9181L44.6992 22.9208Z" fill="#72747A"/>
<path d="M47.9008 23.05H47.1342C47.0551 23.05 46.9889 23.0395 46.9357 23.0185C46.8823 22.9974 46.8395 22.968 46.8075 22.9304C46.7752 22.8928 46.7522 22.8478 46.7384 22.7956C46.7246 22.7433 46.7178 22.6869 46.7178 22.6264V21.5481C46.7178 21.4875 46.725 21.4312 46.7398 21.379C46.7546 21.3267 46.7784 21.2813 46.8116 21.2428C46.8447 21.2043 46.8878 21.1745 46.9412 21.1534C46.9945 21.1324 47.0597 21.1217 47.1369 21.1217H47.8731C47.8933 21.1217 47.9035 21.1328 47.9035 21.1548V21.2181C47.9035 21.2401 47.8933 21.251 47.8731 21.251H47.1396C47.0404 21.251 46.9686 21.2744 46.9246 21.3209C46.8806 21.3675 46.8583 21.4366 46.8583 21.5278V21.9607H47.7877C47.8079 21.9607 47.8179 21.971 47.8179 21.9917V22.0536C47.8179 22.0742 47.8079 22.0845 47.7877 22.0845H46.8583V22.6456C46.8583 22.7282 46.8785 22.7947 46.9191 22.8451C46.9596 22.8956 47.0331 22.9208 47.1396 22.9208H47.9008C47.921 22.9208 47.9309 22.9317 47.9309 22.9538V23.017C47.9309 23.039 47.921 23.05 47.9008 23.05Z" fill="#72747A"/>
<path d="M49.991 23.05H49.9028C49.8843 23.05 49.8752 23.0418 49.8752 23.0253V21.1492C49.8752 21.131 49.8843 21.1217 49.9028 21.1217H49.991C50.0094 21.1217 50.0188 21.131 50.0188 21.1492V21.9662H51.1577V21.1492C51.1577 21.131 51.167 21.1217 51.1854 21.1217H51.2707C51.2891 21.1217 51.2984 21.131 51.2984 21.1492V23.0253C51.2984 23.0418 51.2891 23.05 51.2707 23.05H51.1854C51.167 23.05 51.1577 23.0418 51.1577 23.0253V22.0901H50.0188V23.0253C50.0188 23.0418 50.0094 23.05 49.991 23.05Z" fill="#72747A"/>
<path d="M53.9132 23.05H53.8249C53.8066 23.05 53.7975 23.0418 53.7975 23.0253V21.2455H53.2183C53.2018 21.2455 53.1936 21.2376 53.1936 21.2214V21.1487C53.1936 21.1308 53.2018 21.1217 53.2183 21.1217H54.5391C54.5557 21.1217 54.5641 21.1308 54.5641 21.1487V21.2214C54.5641 21.2376 54.5557 21.2455 54.5391 21.2455H53.938V23.0253C53.938 23.0418 53.9298 23.05 53.9132 23.05Z" fill="#72747A"/>
<path d="M56.5965 22.0984H57.1563C57.2169 22.0984 57.2739 22.0897 57.3272 22.0721C57.3807 22.0547 57.4269 22.0279 57.4667 21.992C57.5061 21.9563 57.5372 21.9116 57.5604 21.8583C57.5834 21.8049 57.5947 21.7433 57.5947 21.6732C57.5947 21.6256 57.5873 21.5767 57.5727 21.5272C57.5579 21.4775 57.534 21.4323 57.5009 21.3918C57.468 21.3514 57.4237 21.3184 57.3686 21.2926C57.3134 21.2667 57.2447 21.2539 57.1618 21.2539H56.5965V22.0984ZM56.4587 21.2291C56.4587 21.1961 56.4651 21.17 56.478 21.1507C56.4909 21.1315 56.5202 21.1217 56.5663 21.1217H57.1949C57.2778 21.1217 57.3529 21.1351 57.421 21.1618C57.4891 21.1884 57.5466 21.2259 57.5933 21.2745C57.6403 21.3231 57.6766 21.3809 57.7023 21.4477C57.7279 21.5148 57.7408 21.5885 57.7408 21.6693C57.7408 21.7205 57.7326 21.7784 57.7161 21.8425C57.6995 21.9067 57.6692 21.9668 57.6251 22.0228C57.5811 22.0787 57.5211 22.1258 57.4457 22.1644C57.3704 22.2029 57.2749 22.2222 57.159 22.2222H56.5965V23.0253C56.5965 23.0418 56.5875 23.05 56.569 23.05H56.4834C56.4669 23.05 56.4587 23.0418 56.4587 23.0253V21.2291Z" fill="#72747A"/>
</g>
</svg>
