<svg width="104" height="37" viewBox="0 0 104 37" fill="none" xmlns="http://www.w3.org/2000/svg">
<path d="M77.3873 26.8191C86.9054 26.8191 92.4957 23.1433 92.4957 23.1433L92.4914 28.5546C92.4914 28.5546 87.0701 33.0628 77.3909 33.0628H77.3873C67.7084 33.0628 62.287 28.5546 62.287 28.5546L62.2825 23.1433C62.2825 23.1433 67.8694 26.8179 77.3873 26.8179V26.8191Z" fill="#A3A5AA"/>
<path d="M32.1003 4.27742C31.0419 4.2649 29.9915 4.462 29.01 4.8573C28.0285 5.25259 27.1354 5.83822 26.3824 6.58026C25.6295 7.32231 25.0318 8.206 24.6238 9.18014C24.2158 10.1543 24.0057 11.1995 24.0057 12.2552C24.0057 13.8453 24.4821 15.3991 25.3737 16.7172C26.2654 18.0354 27.5316 19.0577 29.0099 19.653C30.4732 20.2424 32.0787 20.3869 33.6241 20.0684C35.1696 19.75 36.5862 18.9827 37.6955 17.8632C38.7991 16.7494 39.5496 15.3363 39.8536 13.8C40.1577 12.2637 40.0017 10.6722 39.4051 9.22372C38.8086 7.77524 37.7979 6.53388 36.4989 5.65432C35.2 4.77477 33.6702 4.29591 32.1003 4.27742ZM32.1003 15.2271C30.4974 15.2271 29.2021 13.8532 29.2021 12.2546C29.2021 10.656 30.5019 9.28322 32.1003 9.28322C33.7032 9.28322 34.9997 10.656 34.9997 12.2546C34.9997 13.8532 33.7043 15.2271 32.1003 15.2271ZM25.2912 4.65597H19.746L17.358 9.81461L14.6141 4.65597H9.12402L14.7076 14.6991L12.1078 19.8577H17.6678L25.2912 4.65597ZM86.3554 4.27742C85.2971 4.26489 84.2467 4.462 83.2653 4.85734C82.2838 5.25247 81.3906 5.83804 80.6377 6.5801C79.8848 7.32215 79.2871 8.20592 78.8793 9.18015C78.471 10.1542 78.2608 11.1994 78.2608 12.2552C78.2608 13.3109 78.471 14.3562 78.8793 15.3302C79.2871 16.3044 79.8848 17.1881 80.6376 17.9301C81.3905 18.6722 82.2837 19.2579 83.2653 19.653C84.7286 20.2425 86.334 20.387 87.8794 20.0685C89.4249 19.75 90.8413 18.9827 91.9505 17.8632C93.4305 16.3699 94.2604 14.3549 94.2604 12.2552C94.2604 10.1555 93.4305 8.1405 91.9505 6.64722C90.4708 5.15372 88.4605 4.30223 86.3554 4.27742ZM86.3554 15.2271C84.7527 15.2271 83.4573 13.8532 83.4573 12.2546C83.4573 10.656 84.7575 9.28322 86.3554 9.28322C87.9552 9.28322 89.2547 10.656 89.2547 12.2546C89.2584 13.8532 87.9594 15.2271 86.3554 15.2271ZM51.052 4.68294V13.1994C51.0344 13.7264 50.8121 14.2259 50.4321 14.5925C50.0521 14.9591 49.5441 15.164 49.0154 15.1641C48.4868 15.1641 47.9788 14.9591 47.5988 14.5925C47.2188 14.2259 46.9965 13.7264 46.9789 13.1994V4.68294H41.8763V13.724C41.8763 17.6929 44.8737 20.233 48.8161 20.233H49.2069C53.1493 20.233 56.1478 17.6941 56.1478 13.724V4.68294H51.052ZM68.7061 4.68294H62.2484V19.8577H68.7826C73.5449 19.8577 76.8622 16.4617 76.8622 12.2703V12.0748C76.8658 7.88463 73.4045 4.68294 68.7061 4.68294ZM71.8704 12.2703C71.8704 13.8116 70.7841 15.0238 68.955 15.0777C67.9975 15.108 67.1336 15.0777 67.1336 15.0777V9.46302C67.1336 9.46302 67.9041 9.43266 68.955 9.46302C70.8223 9.51695 71.8692 10.729 71.8692 12.2715L71.8704 12.2703Z" fill="#72747A"/>
</svg>
