<svg width="90" height="39" viewBox="0 0 90 39" fill="none" xmlns="http://www.w3.org/2000/svg">
<mask id="mask0_627_1493" style="mask-type:luminance" maskUnits="userSpaceOnUse" x="0" y="0" width="90" height="39">
<path d="M0.162598 0.473949H89.7511V38.5259H0.162598V0.473949Z" fill="white"/>
</mask>
<g mask="url(#mask0_627_1493)">
<path d="M19.2902 27.4483C19.2108 27.5015 19.061 27.5276 18.84 27.5276H17.0399C16.8504 27.5276 16.7121 27.4976 16.6254 27.4369C16.5386 27.3766 16.4951 27.2481 16.4951 27.0515V12.132C16.4951 11.9357 16.5386 11.8072 16.6254 11.7465C16.7121 11.6862 16.8504 11.6559 17.0399 11.6559H18.84C19.061 11.6559 19.2108 11.6824 19.2902 11.7351C19.369 11.7884 19.4085 11.9205 19.4085 12.132V27.0515C19.4085 27.2633 19.369 27.3954 19.2902 27.4483Z" fill="#72747A"/>
<path d="M85.8676 0.509293H20.3134C18.1817 0.509293 16.4473 2.23918 16.4473 4.36556V7.99737V8.65603V8.67789C16.4473 8.83259 16.5742 8.95909 16.7292 8.95909H19.1492C19.3043 8.95909 19.4312 8.83259 19.4312 8.67789V8.65603V7.99737V4.36556C19.4312 3.88833 19.8353 3.48538 20.3134 3.48538H85.8676C86.3457 3.48538 86.7499 3.88833 86.7499 4.36556V34.6778C86.7499 35.1548 86.3457 35.5577 85.8676 35.5577H20.3134C19.8353 35.5577 19.4312 35.1548 19.4312 34.6778V31.026V30.3872V30.3455C19.4312 30.1908 19.3043 30.0643 19.1492 30.0643H16.7292C16.5742 30.0643 16.4473 30.1908 16.4473 30.3455V30.3872V31.026V34.6778C16.4473 36.804 18.1817 38.5339 20.3134 38.5339H85.8676C87.9992 38.5339 89.7337 36.804 89.7337 34.6778V4.36556C89.7337 2.23918 87.9992 0.509293 85.8676 0.509293Z" fill="#72747A"/>
<path d="M66.8592 18.9444C67.0302 19.1215 67.1311 19.3231 67.1311 19.5362C67.1311 19.8772 66.8729 20.1871 66.4821 20.4178C66.0913 20.6485 65.552 20.805 64.9269 20.805H61.5348L55.8198 27.3703C55.7949 27.4007 55.7553 27.4197 55.7159 27.4197L54.2239 27.4184C54.1812 27.4181 54.1394 27.3969 54.1151 27.3617C54.0909 27.3267 54.084 27.2796 54.099 27.2396L56.8869 20.805H53.8509L52.2709 22.7234C52.2461 22.7538 52.2078 22.7715 52.1684 22.7715H50.9916C50.9486 22.7715 50.9059 22.7487 50.8815 22.7135C50.857 22.6784 50.8503 22.6316 50.8655 22.5915L52.0102 19.5362L50.8667 16.4822C50.8516 16.4421 50.857 16.3941 50.8815 16.3589C50.9059 16.3237 50.9499 16.3022 50.9928 16.3022H52.1671C52.2065 16.3023 52.2461 16.3212 52.2709 16.3515L53.8497 18.2688H56.8882L54.1002 11.834C54.0853 11.794 54.0909 11.7459 54.1151 11.7107C54.1394 11.6756 54.1811 11.6543 54.2239 11.6539L55.7159 11.6552C55.7553 11.6553 55.7937 11.6729 55.8186 11.7033L61.5337 18.2688H64.9282C65.5532 18.2688 66.0913 18.424 66.4821 18.6546C66.6287 18.7411 66.7565 18.8382 66.8591 18.9444H66.8592Z" fill="#72747A"/>
<path d="M7.14218 24.58H7.27844L8.3242 21.0201L11.3024 11.9505C11.3477 11.7996 11.4121 11.709 11.4955 11.6785C11.5787 11.6484 11.6961 11.6332 11.8479 11.6332H14.0075C14.1287 11.6332 14.2009 11.6672 14.2235 11.7352C14.2461 11.8032 14.2424 11.8826 14.2122 11.9733L9.18795 26.4846C9.0517 26.8928 8.88865 27.1648 8.69936 27.3009C8.50951 27.437 8.23314 27.5128 7.86956 27.5276H6.64201C6.24766 27.5276 5.94858 27.4635 5.74397 27.3349C5.53924 27.2066 5.35359 26.9232 5.18702 26.4846L0.185506 11.9733C0.154962 11.8826 0.154962 11.8032 0.185506 11.7352C0.215936 11.6672 0.291558 11.6332 0.41294 11.6332H2.59542C2.76211 11.6332 2.87952 11.6598 2.94776 11.7125C3.01589 11.7657 3.06494 11.8525 3.0956 11.9733L6.00546 20.9748L7.14218 24.58Z" fill="#72747A"/>
<path d="M22.7142 15.7147C22.7142 15.0799 22.8201 14.4981 23.0323 13.9688C23.2445 13.4398 23.5627 12.9825 23.9872 12.5969C24.4113 12.2115 24.9455 11.9132 25.59 11.7013C26.234 11.4899 26.9879 11.3839 27.8518 11.3839C28.261 11.3839 28.6852 11.4066 29.125 11.4519C29.5644 11.4973 30.0039 11.5578 30.4436 11.6334C30.8829 11.7091 31.3074 11.8073 31.7165 11.928C32.1258 12.0493 32.5044 12.1853 32.8532 12.3362C32.9745 12.412 33.0501 12.48 33.0805 12.5403C33.1107 12.6009 33.0954 12.7069 33.0351 12.8577L32.4894 14.3996C32.4288 14.5661 32.372 14.6568 32.319 14.6716C32.2657 14.6869 32.1786 14.6794 32.0577 14.649C31.2994 14.3921 30.5572 14.1994 29.8297 14.0707C29.1022 13.9425 28.4278 13.8781 27.8065 13.8781C27.0183 13.8781 26.446 14.0407 26.09 14.3656C25.7338 14.6908 25.5558 15.0723 25.5558 15.5106C25.5558 15.7827 25.62 16.0286 25.749 16.2475C25.8776 16.4667 26.0862 16.6783 26.3743 16.8824C26.6618 17.0865 27.0221 17.2905 27.4541 17.4946C27.8859 17.6987 28.4125 17.9218 29.0341 18.1635C29.6855 18.4355 30.307 18.7116 30.8982 18.9911C31.4893 19.2709 32.0121 19.5997 32.4668 19.9775C32.9216 20.3554 33.2813 20.7975 33.5466 21.3039C33.8115 21.8104 33.9445 22.4263 33.9445 23.1518C33.9445 23.9378 33.7968 24.622 33.5011 25.2037C33.2057 25.7858 32.8039 26.2658 32.2964 26.6435C31.7884 27.0215 31.1858 27.305 30.4889 27.4939C29.7916 27.6827 29.0414 27.7773 28.2382 27.7773C27.2834 27.7773 26.2834 27.6865 25.2375 27.5051C24.1917 27.3238 23.2217 26.9914 22.3276 26.5076C22.1152 26.4168 22.0699 26.2353 22.1913 25.9633L22.8732 24.4215C22.9791 24.1948 23.1461 24.1267 23.3734 24.2175C24.1008 24.5199 24.8547 24.7728 25.6353 24.977C26.4158 25.1811 27.1698 25.2831 27.8975 25.2831C29.0489 25.2831 29.8637 25.0869 30.3411 24.6936C30.8186 24.3006 31.0572 23.8093 31.0572 23.2198C31.0572 22.9024 30.9966 22.6228 30.8753 22.3808C30.754 22.1392 30.5646 21.916 30.307 21.7119C30.0492 21.5078 29.7233 21.3116 29.3296 21.1224C28.9352 20.9335 28.4658 20.7333 27.9201 20.5215C27.1016 20.2041 26.3664 19.8867 25.7151 19.5692C25.0631 19.2518 24.5174 18.9082 24.078 18.5376C23.6383 18.1674 23.3013 17.7518 23.0665 17.2905C22.8312 16.8296 22.7142 16.3042 22.7142 15.7147Z" fill="#72747A"/>
<path d="M39.6732 21.7004H44.0381L42.856 17.8912L41.9012 14.6715H41.7875L40.8556 17.8231L39.6732 21.7004ZM44.7656 24.0585H38.9913L37.9909 27.1422C37.9456 27.2782 37.8808 27.3766 37.7978 27.4369C37.7142 27.4975 37.5818 27.5276 37.3999 27.5276H35.3085C35.1416 27.5276 35.0356 27.4787 34.9902 27.3803C34.9447 27.2821 34.9447 27.1727 34.9902 27.0515L39.9005 12.6988C39.9764 12.472 40.052 12.2906 40.128 12.1546C40.2036 12.0186 40.2983 11.913 40.4122 11.8372C40.5258 11.7617 40.6583 11.705 40.8099 11.6672C40.9612 11.6296 41.1431 11.6104 41.3555 11.6104H42.3329C42.8028 11.6104 43.1362 11.6824 43.3334 11.826C43.5302 11.9697 43.7045 12.2606 43.8563 12.6988L48.7894 27.0515C48.8349 27.1727 48.8384 27.2821 48.8007 27.3803C48.7628 27.4787 48.6604 27.5276 48.4939 27.5276H46.4022C46.2353 27.5276 46.1029 27.5088 46.0046 27.471C45.9058 27.4334 45.8263 27.3313 45.7658 27.1648L44.7656 24.0585Z" fill="#72747A"/>
<path d="M81.9314 22.1149C81.9314 23.0143 81.7744 23.8169 81.4606 24.5232C81.1468 25.2299 80.7078 25.8278 80.1447 26.3173C79.5809 26.8073 78.905 27.1805 78.1163 27.4371C77.3274 27.6939 76.4583 27.8225 75.5086 27.8225C74.4782 27.8225 73.4563 27.7099 72.4423 27.4854C71.428 27.2608 70.5185 26.8111 69.7136 26.1367C69.5363 25.9764 69.5044 25.8078 69.6171 25.631L70.583 24.1619C70.7435 23.9212 70.9853 23.9054 71.3073 24.1137C71.9027 24.5153 72.5426 24.8084 73.2269 24.9927C73.9108 25.1776 74.6151 25.2697 75.3396 25.2697C76.5145 25.2697 77.432 24.9968 78.0922 24.451C78.7522 23.9054 79.0823 23.1666 79.0823 22.2352C79.0823 21.7699 78.9977 21.3725 78.8287 21.0433C78.6597 20.7144 78.434 20.4412 78.1527 20.2245C77.8707 20.0077 77.5449 19.8475 77.1747 19.7428C76.8043 19.6385 76.4179 19.5862 76.0156 19.5862C75.5971 19.5862 75.2346 19.6103 74.9292 19.6586C74.6233 19.7066 74.3335 19.771 74.06 19.8512C73.7861 19.9317 73.5204 20.028 73.2631 20.1402C73.0055 20.2527 72.7235 20.3731 72.418 20.5014C72.0156 20.6621 71.6129 20.67 71.2108 20.5255L70.6554 20.3328C70.3815 20.2365 70.1846 20.0962 70.0637 19.9113C69.943 19.7271 69.8985 19.4501 69.9311 19.0805L70.5348 12.9636C70.5987 12.4017 70.7841 11.9883 71.0899 11.7233C71.3956 11.4584 71.7577 11.3259 72.1766 11.3259H80.362C80.5551 11.3259 80.6798 11.3583 80.7363 11.4222C80.7925 11.4867 80.8207 11.615 80.8207 11.8076V13.3007C80.8207 13.4775 80.7883 13.6017 80.7241 13.674C80.6597 13.7462 80.5389 13.7824 80.362 13.7824H73.1666L72.7318 17.756C73.3113 17.5152 73.9108 17.3586 74.5308 17.2864C75.1503 17.2142 75.7417 17.1779 76.3054 17.1779C77.0939 17.1779 77.8347 17.2947 78.5268 17.5272C79.2189 17.7602 79.8145 18.0894 80.3136 18.5146C80.8125 18.9402 81.207 19.4579 81.4969 20.068C81.7866 20.6783 81.9314 21.3605 81.9314 22.1149Z" fill="#A3A5AA"/>
<path d="M25.4988 32.5269C25.4988 32.3517 25.4405 32.2106 25.324 32.1033C25.2075 31.9961 25.0376 31.9424 24.8148 31.9424H23.9969V33.1584H24.8226C24.967 33.1584 25.0829 33.137 25.1705 33.0936C25.2583 33.0506 25.3266 32.9976 25.3752 32.935C25.4237 32.8721 25.4564 32.8042 25.4736 32.7309C25.4904 32.6576 25.4988 32.5898 25.4988 32.5269ZM23.9969 31.7778H24.8031C24.8582 31.7778 24.919 31.7706 24.9857 31.756C25.0528 31.7415 25.1156 31.7147 25.1745 31.6753C25.2337 31.636 25.2826 31.5829 25.3221 31.5158C25.3612 31.4489 25.381 31.3642 25.381 31.2618C25.381 31.1255 25.335 31.0104 25.2434 30.9173C25.1514 30.8242 25.022 30.7774 24.854 30.7774H23.9969V31.7778ZM25.1806 31.8523C25.2852 31.8757 25.3719 31.913 25.4399 31.964C25.5082 32.015 25.5619 32.0731 25.6011 32.1386C25.6406 32.2039 25.6681 32.2726 25.6836 32.3445C25.6995 32.4164 25.7073 32.4864 25.7073 32.5543C25.7073 32.672 25.6863 32.7799 25.6445 32.878C25.6024 32.9762 25.5441 33.0591 25.4694 33.127C25.3949 33.195 25.3055 33.248 25.202 33.2859C25.0984 33.3239 24.9838 33.3428 24.8582 33.3428H23.9537C23.8987 33.3428 23.8586 33.3322 23.8336 33.3115C23.8088 33.2905 23.7964 33.2525 23.7964 33.1976V30.7461C23.7964 30.699 23.8062 30.6618 23.8259 30.6344C23.8455 30.607 23.8881 30.5931 23.9537 30.5931H24.8346C24.9391 30.5931 25.0376 30.6063 25.1295 30.6324C25.221 30.6586 25.301 30.699 25.3693 30.7541C25.4373 30.8089 25.4911 30.8781 25.5305 30.9619C25.5698 31.0456 25.5894 31.1437 25.5894 31.256C25.5894 31.311 25.582 31.3674 25.5677 31.4248C25.5532 31.4822 25.5305 31.5366 25.4988 31.5875C25.4674 31.6385 25.4256 31.6855 25.3733 31.7286C25.3208 31.7719 25.2563 31.8065 25.1806 31.8326V31.8523Z" fill="#72747A"/>
<path d="M30.3835 30.8559L30.0489 31.4011L28.8889 33.2251C28.8627 33.2696 28.841 33.3003 28.8242 33.3172C28.807 33.3344 28.7802 33.3428 28.7436 33.3428H28.6847C28.6348 33.3428 28.6018 33.3309 28.5861 33.3073C28.5703 33.2839 28.5625 33.254 28.5625 33.2174V30.6284C28.5625 30.6024 28.5756 30.5892 28.6018 30.5892H28.7239C28.7501 30.5892 28.763 30.6024 28.763 30.6284V33.0799H28.7749L29.0699 32.5975L30.2734 30.707C30.2997 30.6625 30.321 30.6318 30.3381 30.6147C30.3553 30.5978 30.3822 30.5892 30.4188 30.5892H30.4777C30.5275 30.5892 30.5602 30.601 30.5761 30.6246C30.5919 30.6481 30.5998 30.6794 30.5998 30.7187V33.3073C30.5998 33.3309 30.5865 33.3428 30.5602 33.3428H30.4385C30.4123 33.3428 30.399 33.3309 30.399 33.3073V30.8559H30.3835Z" fill="#72747A"/>
<path d="M34.6425 31.8681C34.7525 31.8917 34.8474 31.9263 34.9274 31.9721C35.0073 32.0177 35.0737 32.0721 35.1261 32.1348C35.1786 32.1974 35.2171 32.2663 35.2421 32.3407C35.2669 32.4153 35.2793 32.4917 35.2793 32.5701C35.2793 32.6904 35.2543 32.8003 35.2048 32.8996C35.155 32.9991 35.084 33.0847 34.9925 33.1565C34.9005 33.2286 34.7885 33.2847 34.6561 33.3253C34.5238 33.3658 34.3752 33.386 34.21 33.386C34.155 33.386 34.0932 33.3841 34.0253 33.3804C33.9568 33.3765 33.8847 33.3674 33.809 33.3534C33.7328 33.3393 33.6562 33.3201 33.5788 33.2958C33.5015 33.2717 33.426 33.2401 33.3529 33.2015C33.3292 33.1887 33.3253 33.169 33.3408 33.1428L33.3882 33.0605C33.4011 33.0396 33.4196 33.0343 33.4431 33.0449C33.5558 33.1023 33.6765 33.1442 33.805 33.1702C33.9332 33.1964 34.0591 33.2095 34.1825 33.2095C34.4733 33.2095 34.6944 33.1512 34.8448 33.0345C34.9957 32.9178 35.0711 32.761 35.0711 32.5641C35.0711 32.475 35.0527 32.3932 35.0161 32.3185C34.9791 32.2434 34.9274 32.1799 34.8607 32.1276C34.7937 32.0751 34.7125 32.0345 34.617 32.0055C34.5212 31.9766 34.4143 31.9622 34.2965 31.9622H34.0682C34.0369 31.9622 34.0152 31.9562 34.0036 31.9445C33.9916 31.9328 33.9857 31.9166 33.9857 31.8955V31.8445C33.9857 31.7949 34.0106 31.7699 34.0605 31.7699H34.2729C34.3619 31.7699 34.4476 31.7571 34.5305 31.7308C34.613 31.7048 34.6862 31.668 34.7507 31.6209C34.8147 31.5739 34.8658 31.5165 34.9037 31.4483C34.942 31.3802 34.9611 31.3033 34.9611 31.2169C34.9611 31.1202 34.9401 31.0398 34.898 30.9757C34.8562 30.9116 34.8018 30.8613 34.7347 30.8247C34.6682 30.788 34.5927 30.7619 34.5088 30.7462C34.425 30.7306 34.3421 30.7227 34.2612 30.7227C34.1507 30.7227 34.0388 30.7338 33.9248 30.7561C33.8109 30.7782 33.6934 30.8195 33.573 30.8795C33.5623 30.8849 33.552 30.8874 33.5415 30.8874C33.5309 30.8874 33.5232 30.8809 33.5179 30.8679L33.4746 30.7775C33.4693 30.7645 33.4668 30.7535 33.4668 30.7443C33.4668 30.735 33.4733 30.7265 33.4865 30.7188C33.6202 30.6483 33.7533 30.6005 33.8856 30.5756C34.0178 30.5507 34.1469 30.5383 34.2729 30.5383C34.4039 30.5383 34.5243 30.552 34.6345 30.5794C34.7448 30.6071 34.839 30.6483 34.9177 30.7031C34.9964 30.758 35.0578 30.8273 35.1025 30.9109C35.1468 30.9947 35.1692 31.0927 35.1692 31.2051C35.1692 31.3465 35.1235 31.4744 35.0316 31.5895C34.9401 31.7048 34.8102 31.7922 34.6425 31.8524V31.8681Z" fill="#72747A"/>
<path d="M40.0581 31.9699C40.0581 31.8077 40.0436 31.6517 40.0148 31.5012C39.9859 31.3509 39.9368 31.2187 39.8674 31.1051C39.7979 30.9912 39.7042 30.9006 39.586 30.8324C39.4683 30.7644 39.32 30.7306 39.1418 30.7306C38.9741 30.7306 38.831 30.7638 38.7132 30.8304C38.595 30.8971 38.4995 30.9874 38.426 31.1011C38.3526 31.2149 38.2994 31.3464 38.2667 31.4954C38.234 31.6444 38.2175 31.8014 38.2175 31.9661C38.2175 32.136 38.2326 32.2963 38.2627 32.4466C38.2929 32.5971 38.344 32.7289 38.4164 32.8427C38.4881 32.9564 38.5834 33.0461 38.7011 33.1115C38.8193 33.1768 38.9648 33.2094 39.138 33.2094C39.3108 33.2094 39.4566 33.1756 39.5744 33.1074C39.6923 33.0394 39.7874 32.948 39.8597 32.833C39.9315 32.7178 39.9826 32.5857 40.0128 32.4367C40.0429 32.2877 40.0581 32.1322 40.0581 31.9699ZM40.2628 31.9661C40.2628 32.4185 40.1676 32.7682 39.9775 33.0153C39.7874 33.2624 39.5061 33.386 39.1341 33.386C38.9372 33.386 38.7689 33.3512 38.6287 33.282C38.4881 33.2129 38.3729 33.1153 38.2825 32.99C38.1919 32.8642 38.1258 32.7145 38.0838 32.5407C38.042 32.3669 38.021 32.1766 38.021 31.9699C38.021 31.7452 38.0465 31.5444 38.0976 31.3679C38.1488 31.1913 38.223 31.043 38.3197 30.9227C38.4169 30.8023 38.5341 30.7109 38.6717 30.6482C38.8094 30.5853 38.9648 30.5541 39.138 30.5541C39.3242 30.5541 39.4873 30.586 39.6276 30.6502C39.7677 30.7142 39.8852 30.8065 39.9795 30.9265C40.074 31.047 40.1445 31.1947 40.1918 31.3699C40.2391 31.5451 40.2628 31.7439 40.2628 31.9661Z" fill="#72747A"/>
<path d="M44.8356 32.5269C44.8356 32.3517 44.7774 32.2106 44.6609 32.1033C44.5443 31.9961 44.3744 31.9424 44.1516 31.9424H43.3337V33.1584H44.1595C44.3038 33.1584 44.4197 33.137 44.5074 33.0936C44.5952 33.0506 44.6634 32.9976 44.712 32.935C44.7606 32.8721 44.7933 32.8042 44.8104 32.7309C44.8272 32.6576 44.8356 32.5898 44.8356 32.5269ZM43.3337 31.7778H44.1401C44.195 31.7778 44.256 31.7706 44.3225 31.756C44.3896 31.7415 44.4524 31.7147 44.5114 31.6753C44.5705 31.636 44.6195 31.5829 44.6589 31.5158C44.698 31.4489 44.7179 31.3642 44.7179 31.2618C44.7179 31.1255 44.6719 31.0104 44.5802 30.9173C44.4882 30.8242 44.3588 30.7774 44.1908 30.7774H43.3337V31.7778ZM44.5174 31.8523C44.622 31.8757 44.7088 31.913 44.7767 31.964C44.845 32.015 44.8989 32.0731 44.9379 32.1386C44.9774 32.2039 45.005 32.2726 45.0204 32.3445C45.0365 32.4164 45.0442 32.4864 45.0442 32.5543C45.0442 32.672 45.0231 32.7799 44.9813 32.878C44.9393 32.9762 44.8809 33.0591 44.8062 33.127C44.7318 33.195 44.6424 33.248 44.5389 33.2859C44.4352 33.3239 44.3207 33.3428 44.195 33.3428H43.2906C43.2356 33.3428 43.1954 33.3322 43.1705 33.3115C43.1456 33.2905 43.1333 33.2525 43.1333 33.1976V30.7461C43.1333 30.699 43.143 30.6618 43.1627 30.6344C43.1825 30.607 43.2249 30.5931 43.2906 30.5931H44.1714C44.2759 30.5931 44.3744 30.6063 44.4663 30.6324C44.5579 30.6586 44.6379 30.699 44.7061 30.7541C44.7742 30.8089 44.8279 30.8781 44.8673 30.9619C44.9066 31.0456 44.9263 31.1437 44.9263 31.256C44.9263 31.311 44.9188 31.3674 44.9045 31.4248C44.89 31.4822 44.8673 31.5366 44.8356 31.5875C44.8043 31.6385 44.7624 31.6855 44.7101 31.7286C44.6576 31.7719 44.5931 31.8065 44.5174 31.8326V31.8523Z" fill="#72747A"/>
<path d="M50.3063 33.3074C50.3063 33.331 50.2931 33.3428 50.2668 33.3428H50.1412C50.1149 33.3428 50.1017 33.331 50.1017 33.3074V30.6324C50.1017 30.6063 50.1149 30.5931 50.1412 30.5931H50.2668C50.2931 30.5931 50.3063 30.6063 50.3063 30.6324V33.3074ZM49.6022 32.4799C49.6022 32.3936 49.5879 32.3125 49.559 32.2367C49.5303 32.1609 49.4868 32.0949 49.4291 32.0387C49.3717 31.9824 49.2994 31.9379 49.2129 31.9053C49.1264 31.8726 49.0255 31.8563 48.9102 31.8563H48.0998V33.1585H48.9141C49.0582 33.1585 49.1757 33.135 49.2661 33.088C49.3564 33.0407 49.4266 32.9826 49.4765 32.9133C49.5264 32.844 49.5597 32.7701 49.5768 32.6917C49.5938 32.6131 49.6022 32.5426 49.6022 32.4799ZM48.0567 33.3428C48.0017 33.3428 47.9616 33.3324 47.9367 33.3115C47.9117 33.2906 47.8994 33.2526 47.8994 33.1976V30.6285C47.8994 30.605 47.9124 30.5931 47.9385 30.5931H48.0607C48.0869 30.5931 48.0998 30.605 48.0998 30.6285V31.6798H48.8943C49.1016 31.6798 49.2654 31.7104 49.3859 31.7719C49.5066 31.8333 49.5983 31.9073 49.6613 31.9934C49.7242 32.0798 49.7641 32.17 49.7811 32.2641C49.7983 32.3582 49.8068 32.4395 49.8068 32.5074C49.8068 32.625 49.7863 32.7348 49.7458 32.8369C49.705 32.9388 49.6474 33.0269 49.5726 33.1017C49.4982 33.1762 49.4082 33.235 49.3033 33.2781C49.1984 33.3211 49.0805 33.3428 48.9494 33.3428H48.0567Z" fill="#72747A"/>
<path d="M54.2397 30.4206C54.1215 30.4206 54.014 30.3872 53.9172 30.3205C53.8201 30.2538 53.7402 30.1657 53.6773 30.0556C53.6641 30.0349 53.6666 30.0179 53.685 30.0048L53.7285 29.9695C53.7413 29.959 53.7518 29.9564 53.7598 29.9616C53.7676 29.9669 53.7754 29.9759 53.7834 29.989C53.8489 30.0805 53.9237 30.1479 54.0076 30.191C54.0914 30.2342 54.1713 30.2557 54.2474 30.2557C54.3051 30.2557 54.3734 30.2369 54.4521 30.1988C54.5305 30.1609 54.6116 30.0884 54.6959 29.9812C54.7088 29.9682 54.7179 29.9597 54.7234 29.9558C54.7286 29.9518 54.7377 29.9538 54.751 29.9616L54.7979 29.9931C54.8138 30.0035 54.819 30.0159 54.8138 30.0302C54.8085 30.0447 54.8004 30.0584 54.7901 30.0713C54.7088 30.1969 54.6205 30.2865 54.5247 30.3402C54.4291 30.3939 54.3339 30.4206 54.2397 30.4206ZM55.0773 30.8559L54.7429 31.4011L53.5828 33.2251C53.5565 33.2696 53.5349 33.3003 53.5181 33.3172C53.5008 33.3344 53.474 33.3428 53.4375 33.3428H53.3784C53.3287 33.3428 53.2956 33.3309 53.2801 33.3073C53.2641 33.2839 53.2563 33.254 53.2563 33.2173V30.6284C53.2563 30.6022 53.2693 30.5891 53.2956 30.5891H53.4176C53.4438 30.5891 53.4568 30.6022 53.4568 30.6284V33.0798H53.4688L53.7638 32.5975L54.9672 30.7069C54.9935 30.6625 55.0147 30.6318 55.032 30.6147C55.0491 30.5977 55.0759 30.5891 55.1125 30.5891H55.1715C55.2214 30.5891 55.2541 30.601 55.2699 30.6246C55.2858 30.6481 55.2935 30.6794 55.2935 30.7187V33.3073C55.2935 33.3309 55.2803 33.3428 55.2541 33.3428H55.1323C55.1061 33.3428 55.0929 33.3309 55.0929 33.3073V30.8559H55.0773Z" fill="#72747A"/>
<path d="M63.7647 33.1586C63.8171 33.1612 63.8491 33.1742 63.8612 33.1978C63.8727 33.2214 63.8773 33.2475 63.8748 33.2762L63.8355 33.9351C63.8355 33.9639 63.8248 33.9783 63.8038 33.9783H63.7057C63.6847 33.9783 63.6743 33.9639 63.6743 33.9351L63.6545 33.3429H61.7588C61.6987 33.3429 61.656 33.3286 61.631 33.2998C61.606 33.271 61.5938 33.2291 61.5938 33.1742V30.6324C61.5938 30.609 61.6067 30.5973 61.6329 30.5973H61.755C61.7812 30.5973 61.7942 30.609 61.7942 30.6324V33.1625H63.4186V30.6286C63.4186 30.605 63.4314 30.5932 63.4577 30.5932H63.5798C63.606 30.5932 63.619 30.605 63.619 30.6286V33.1547L63.7647 33.1586Z" fill="#72747A"/>
<path d="M68.33 33.3428H67.2368C67.1241 33.3428 67.0296 33.3277 66.9538 33.2978C66.8777 33.2677 66.8166 33.2258 66.771 33.1721C66.7249 33.1185 66.6922 33.0544 66.6725 32.9799C66.6528 32.9054 66.6431 32.825 66.6431 32.7387V31.2011C66.6431 31.1147 66.6534 31.0343 66.6745 30.9599C66.6955 30.8854 66.7295 30.8206 66.7768 30.7657C66.824 30.7108 66.8856 30.6684 66.9616 30.6383C67.0377 30.6082 67.1307 30.5931 67.2407 30.5931H68.2904C68.3193 30.5931 68.3338 30.6088 68.3338 30.6403V30.7306C68.3338 30.7618 68.3193 30.7774 68.2904 30.7774H67.2445C67.1031 30.7774 67.0008 30.8107 66.938 30.8771C66.8752 30.9436 66.8434 31.042 66.8434 31.1721V31.7894H68.1687C68.1976 31.7894 68.2118 31.8042 68.2118 31.8336V31.9219C68.2118 31.9513 68.1976 31.966 68.1687 31.966H66.8434V32.7661C66.8434 32.8839 66.8723 32.9787 66.9302 33.0506C66.9878 33.1225 67.0927 33.1584 67.2445 33.1584H68.33C68.3588 33.1584 68.373 33.174 68.373 33.2055V33.2957C68.373 33.327 68.3588 33.3428 68.33 33.3428Z" fill="#72747A"/>
<path d="M71.3106 33.3428H71.1848C71.1585 33.3428 71.1455 33.331 71.1455 33.3074V30.6323C71.1455 30.6063 71.1585 30.5931 71.1848 30.5931H71.3106C71.3368 30.5931 71.3502 30.6063 71.3502 30.6323V31.7973H72.9742V30.6323C72.9742 30.6063 72.9875 30.5931 73.0137 30.5931H73.1354C73.1616 30.5931 73.1749 30.6063 73.1749 30.6323V33.3074C73.1749 33.331 73.1616 33.3428 73.1354 33.3428H73.0137C72.9875 33.3428 72.9742 33.331 72.9742 33.3074V31.9739H71.3502V33.3074C71.3502 33.331 71.3368 33.3428 71.3106 33.3428Z" fill="#72747A"/>
<path d="M76.9036 33.3428H76.7777C76.7515 33.3428 76.7385 33.331 76.7385 33.3074V30.7696H75.9126C75.8891 30.7696 75.8774 30.7583 75.8774 30.7352V30.6316C75.8774 30.606 75.8891 30.5931 75.9126 30.5931H77.796C77.8198 30.5931 77.8317 30.606 77.8317 30.6316V30.7352C77.8317 30.7583 77.8198 30.7696 77.796 30.7696H76.9389V33.3074C76.9389 33.331 76.9272 33.3428 76.9036 33.3428Z" fill="#72747A"/>
<path d="M80.7296 31.9857H81.5279C81.6143 31.9857 81.6956 31.9734 81.7717 31.9483C81.8478 31.9234 81.9138 31.8852 81.9704 31.8341C82.0268 31.7831 82.071 31.7195 82.1041 31.6433C82.1369 31.5672 82.153 31.4794 82.153 31.3795C82.153 31.3115 82.1426 31.2419 82.1217 31.1712C82.1005 31.1003 82.0665 31.036 82.0193 30.9782C81.9724 30.9206 81.9093 30.8735 81.8306 30.8367C81.7519 30.7997 81.6539 30.7815 81.5358 30.7815H80.7296V31.9857ZM80.5332 30.7462C80.5332 30.6991 80.5423 30.6619 80.5607 30.6344C80.5791 30.607 80.6208 30.5931 80.6866 30.5931H81.583C81.7012 30.5931 81.8082 30.6121 81.9053 30.6501C82.0025 30.6881 82.0844 30.7417 82.1511 30.811C82.218 30.8802 82.2698 30.9626 82.3065 31.058C82.343 31.1535 82.3614 31.2586 82.3614 31.3738C82.3614 31.4469 82.3497 31.5294 82.3261 31.6208C82.3025 31.7124 82.2593 31.7982 82.1964 31.8779C82.1336 31.9576 82.0481 32.0248 81.9406 32.0798C81.8332 32.1347 81.697 32.1623 81.5318 32.1623H80.7296V33.3074C80.7296 33.331 80.7168 33.3428 80.6904 33.3428H80.5684C80.5448 33.3428 80.5332 33.331 80.5332 33.3074V30.7462Z" fill="#72747A"/>
</g>
</svg>
