<svg width="151" height="67" viewBox="0 0 151 67" fill="none" xmlns="http://www.w3.org/2000/svg">
<mask id="mask0_336_5789" style="mask-type:luminance" maskUnits="userSpaceOnUse" x="0" y="0" width="151" height="67">
<path d="M0 0.448732H151V66.4487H0V0.448732Z" fill="white"/>
</mask>
<g mask="url(#mask0_336_5789)">
<path d="M32.2391 47.2351C32.1053 47.3274 31.8529 47.3726 31.4803 47.3726H28.4463C28.1269 47.3726 27.8938 47.3205 27.7476 47.2152C27.6014 47.1107 27.5281 46.8878 27.5281 46.5468V20.6693C27.5281 20.3289 27.6014 20.1059 27.7476 20.0006C27.8938 19.8961 28.1269 19.8435 28.4463 19.8435H31.4803C31.8529 19.8435 32.1053 19.8895 32.2391 19.981C32.3719 20.0733 32.4385 20.3025 32.4385 20.6693V46.5468C32.4385 46.9141 32.3719 47.1433 32.2391 47.2351Z" fill="#3D6097"/>
<path d="M144.454 0.509728H33.9636C30.3706 0.509728 27.4473 3.51017 27.4473 7.19832V13.4976V14.64V14.6779C27.4473 14.9462 27.6612 15.1657 27.9225 15.1657H32.0014C32.2628 15.1657 32.4766 14.9462 32.4766 14.6779V14.64V13.4976V7.19832C32.4766 6.37057 33.1577 5.67167 33.9636 5.67167H144.454C145.26 5.67167 145.941 6.37057 145.941 7.19832V59.774C145.941 60.6014 145.26 61.3003 144.454 61.3003H33.9636C33.1577 61.3003 32.4766 60.6014 32.4766 59.774V53.4402V52.3321V52.2598C32.4766 51.9915 32.2628 51.7721 32.0014 51.7721H27.9225C27.6612 51.7721 27.4473 51.9915 27.4473 52.2598V52.3321V53.4402V59.774C27.4473 63.462 30.3706 66.4624 33.9636 66.4624H144.454C148.047 66.4624 150.97 63.462 150.97 59.774V7.19832C150.97 3.51017 148.047 0.509728 144.454 0.509728Z" fill="#3D6097"/>
<path d="M112.416 32.4849C112.704 32.7921 112.874 33.1418 112.874 33.5115C112.874 34.1029 112.439 34.6403 111.78 35.0405C111.122 35.4406 110.213 35.7121 109.159 35.7121H103.442L93.8092 47.0994C93.7673 47.1521 93.7005 47.1851 93.6341 47.1851L91.1193 47.1829C91.0474 47.1823 90.977 47.1456 90.936 47.0845C90.8952 47.0238 90.8836 46.9421 90.9088 46.8727L95.6078 35.7121H90.4906L87.8276 39.0396C87.7859 39.0922 87.7212 39.1228 87.6548 39.1228H85.6713C85.5989 39.1228 85.527 39.0834 85.4858 39.0223C85.4445 38.9614 85.4332 38.8803 85.4588 38.8107L87.3882 33.5115L85.4608 28.2144C85.4353 28.1448 85.4445 28.0616 85.4858 28.0005C85.527 27.9394 85.601 27.9021 85.6734 27.9021H87.6527C87.7191 27.9023 87.7859 27.9351 87.8276 27.9877L90.4885 31.313H95.6099L90.9109 20.1522C90.8857 20.0828 90.8952 19.9993 90.936 19.9383C90.977 19.8774 91.0472 19.8404 91.1193 19.8398L93.6341 19.842C93.7005 19.8422 93.7652 19.8726 93.8071 19.9255L103.44 31.313H109.161C110.215 31.313 111.122 31.5823 111.78 31.9823C112.027 32.1323 112.243 32.3007 112.416 32.4849H112.416Z" fill="#3D6097"/>
<path d="M11.764 42.2601H11.9936L13.7563 36.0856L18.776 20.3546C18.8524 20.0928 18.9609 19.9356 19.1014 19.8828C19.2416 19.8305 19.4395 19.8042 19.6954 19.8042H23.3353C23.5397 19.8042 23.6614 19.8631 23.6995 19.9812C23.7376 20.099 23.7313 20.2367 23.6804 20.3941L15.2121 45.5635C14.9824 46.2716 14.7076 46.7434 14.3886 46.9793C14.0686 47.2154 13.6028 47.3468 12.99 47.3726H10.9209C10.2563 47.3726 9.75218 47.2614 9.40731 47.0384C9.06225 46.8159 8.74934 46.3242 8.46858 45.5635L0.0386112 20.3941C-0.0128704 20.2367 -0.0128704 20.099 0.0386112 19.9812C0.0899015 19.8631 0.217361 19.8042 0.421948 19.8042H4.10049C4.38144 19.8042 4.57933 19.8504 4.69435 19.9417C4.80918 20.034 4.89185 20.1845 4.94353 20.3941L9.84806 36.007L11.764 42.2601Z" fill="#3D6097"/>
<path d="M38.0101 26.8828C38.0101 25.7818 38.1887 24.7727 38.5464 23.8546C38.904 22.9371 39.4403 22.1439 40.1559 21.4751C40.8707 20.8067 41.7709 20.2893 42.8572 19.9217C43.9427 19.555 45.2135 19.3712 46.6695 19.3712C47.3593 19.3712 48.0743 19.4106 48.8155 19.4892C49.5561 19.568 50.2968 19.6729 51.038 19.8039C51.7785 19.9353 52.4939 20.1056 53.1834 20.315C53.8733 20.5254 54.5114 20.7613 55.0993 21.0229C55.3037 21.1543 55.4312 21.2724 55.4825 21.3769C55.5334 21.482 55.5075 21.6658 55.4059 21.9275L54.4861 24.6019C54.3839 24.8906 54.2882 25.0479 54.1989 25.0737C54.1091 25.1002 53.9623 25.0872 53.7585 25.0344C52.4805 24.5889 51.2294 24.2546 50.0032 24.0314C48.777 23.8091 47.6404 23.6973 46.5932 23.6973C45.2646 23.6973 44.3 23.9794 43.7001 24.5429C43.0997 25.1069 42.7996 25.7686 42.7996 26.5288C42.7996 27.0008 42.9079 27.4273 43.1253 27.807C43.342 28.1873 43.6936 28.5542 44.1793 28.9082C44.6639 29.2621 45.2711 29.6161 45.9991 29.9701C46.727 30.324 47.6146 30.711 48.6622 31.1302C49.7602 31.602 50.8078 32.0809 51.8041 32.5657C52.8004 33.051 53.6816 33.6213 54.448 34.2766C55.2145 34.932 55.8208 35.6989 56.2681 36.5771C56.7146 37.4557 56.9387 38.5239 56.9387 39.7822C56.9387 41.1457 56.6897 42.3323 56.1913 43.3413C55.6934 44.351 55.0163 45.1834 54.1608 45.8385C53.3045 46.4942 52.2889 46.9859 51.1144 47.3135C49.9391 47.641 48.6746 47.8052 47.3208 47.8052C45.7115 47.8052 44.026 47.6476 42.2632 47.333C40.5005 47.0185 38.8656 46.442 37.3586 45.6028C37.0006 45.4453 36.9242 45.1306 37.1288 44.6588L38.2782 41.9846C38.4566 41.5914 38.7381 41.4733 39.1213 41.6306C40.3473 42.1553 41.618 42.5939 42.9336 42.9481C44.2491 43.3021 45.5201 43.479 46.7465 43.479C48.6873 43.479 50.0606 43.1386 50.8652 42.4564C51.67 41.7748 52.0722 40.9227 52.0722 39.9003C52.0722 39.3497 51.97 38.8647 51.7656 38.445C51.5611 38.026 51.2418 37.6388 50.8078 37.2849C50.3732 36.9309 49.8239 36.5905 49.1604 36.2624C48.4955 35.9348 47.7043 35.5875 46.7846 35.2202C45.4051 34.6696 44.1659 34.119 43.0681 33.5684C41.9692 33.0178 41.0494 32.4219 40.3088 31.7792C39.5678 31.137 38.9997 30.4161 38.604 29.6161C38.2074 28.8166 38.0101 27.9054 38.0101 26.8828Z" fill="#3D6097"/>
<path d="M66.5944 37.2655H73.9513L71.959 30.6585L70.3497 25.074H70.1579L68.5872 30.5404L66.5944 37.2655ZM75.1775 41.3556H65.4449L63.7589 46.7041C63.6825 46.94 63.5732 47.1107 63.4333 47.2152C63.2925 47.3203 63.0693 47.3726 62.7627 47.3726H59.2377C58.9563 47.3726 58.7778 47.2877 58.7012 47.117C58.6245 46.9467 58.6245 46.757 58.7012 46.5468L66.9775 21.6524C67.1054 21.2591 67.2328 20.9445 67.3609 20.7086C67.4883 20.4726 67.6479 20.2896 67.8399 20.158C68.0315 20.0271 68.2548 19.9287 68.5103 19.8631C68.7652 19.7979 69.0718 19.7647 69.4299 19.7647H71.0773C71.8692 19.7647 72.4311 19.8895 72.7636 20.1385C73.0952 20.3878 73.389 20.8924 73.6449 21.6524L81.9596 46.5468C82.0362 46.757 82.0421 46.9467 81.9786 47.117C81.9147 47.2877 81.7422 47.3726 81.4615 47.3726H77.936C77.6547 47.3726 77.4315 47.34 77.2658 47.2743C77.0993 47.2091 76.9653 47.0321 76.8633 46.7434L75.1775 41.3556Z" fill="#3D6097"/>
<path d="M137.82 37.9847C137.82 39.5445 137.556 40.9366 137.027 42.1617C136.498 43.3874 135.758 44.4246 134.809 45.2735C133.858 46.1235 132.719 46.7707 131.39 47.2158C130.06 47.6611 128.595 47.8843 126.995 47.8843C125.258 47.8843 123.536 47.689 121.827 47.2995C120.117 46.91 118.584 46.13 117.227 44.9602C116.928 44.6823 116.875 44.3898 117.065 44.0832L118.693 41.5351C118.963 41.1175 119.371 41.0902 119.913 41.4514C120.917 42.148 121.996 42.6563 123.149 42.9761C124.302 43.2967 125.489 43.4566 126.71 43.4566C128.69 43.4566 130.237 42.9832 131.349 42.0364C132.462 41.0902 133.018 39.8087 133.018 38.1933C133.018 37.3862 132.876 36.6969 132.591 36.1259C132.306 35.5554 131.926 35.0817 131.451 34.7057C130.976 34.3297 130.427 34.0518 129.803 33.8703C129.179 33.6894 128.527 33.5986 127.849 33.5986C127.144 33.5986 126.533 33.6405 126.018 33.7241C125.503 33.8074 125.014 33.9192 124.553 34.0583C124.092 34.1979 123.644 34.3649 123.21 34.5595C122.776 34.7546 122.301 34.9634 121.786 35.186C121.107 35.4647 120.429 35.4784 119.751 35.2278L118.815 34.8937C118.353 34.7265 118.021 34.4831 117.817 34.1626C117.614 33.843 117.539 33.3625 117.594 32.7216L118.611 22.1119C118.719 21.1374 119.032 20.4202 119.547 19.9606C120.062 19.5011 120.673 19.2713 121.379 19.2713H135.175C135.501 19.2713 135.711 19.3275 135.806 19.4385C135.901 19.5502 135.948 19.7728 135.948 20.1069V22.6966C135.948 23.0033 135.894 23.2187 135.785 23.3441C135.677 23.4694 135.473 23.532 135.175 23.532H123.047L122.315 30.4241C123.291 30.0065 124.302 29.7349 125.347 29.6097C126.391 29.4844 127.388 29.4216 128.338 29.4216C129.667 29.4216 130.915 29.6241 132.082 30.0274C133.248 30.4314 134.252 31.0024 135.093 31.74C135.934 32.4782 136.599 33.3761 137.088 34.4342C137.576 35.4928 137.82 36.6761 137.82 37.9847Z" fill="#6A92D0"/>
<path d="M42.7034 56.0439C42.7034 55.74 42.6051 55.4953 42.4087 55.3091C42.2124 55.1233 41.926 55.0301 41.5506 55.0301H40.1719V57.1392H41.5636C41.807 57.1392 42.0023 57.1021 42.15 57.0268C42.298 56.9522 42.4131 56.8603 42.495 56.7516C42.5767 56.6426 42.6319 56.5248 42.6609 56.3977C42.6893 56.2706 42.7034 56.1529 42.7034 56.0439ZM40.1719 54.7445H41.5308C41.6237 54.7445 41.7262 54.7322 41.8385 54.7068C41.9516 54.6817 42.0574 54.6351 42.1567 54.5668C42.2566 54.4986 42.3389 54.4065 42.4055 54.2902C42.4715 54.1741 42.5048 54.0272 42.5048 53.8496C42.5048 53.6131 42.4273 53.4135 42.2729 53.2521C42.1179 53.0906 41.8998 53.0095 41.6166 53.0095H40.1719V54.7445ZM42.1671 54.8738C42.3433 54.9144 42.4895 54.9791 42.6041 55.0675C42.7193 55.1561 42.8098 55.2568 42.8758 55.3704C42.9424 55.4837 42.9887 55.6027 43.0149 55.7275C43.0417 55.8522 43.0547 55.9736 43.0547 56.0914C43.0547 56.2955 43.0193 56.4827 42.9489 56.6528C42.8779 56.8231 42.7798 56.9669 42.6539 57.0848C42.5283 57.2026 42.3776 57.2946 42.203 57.3604C42.0285 57.4262 41.8353 57.459 41.6237 57.459H40.0992C40.0064 57.459 39.9388 57.4407 39.8967 57.4048C39.8548 57.3682 39.834 57.3024 39.834 57.2072V52.9551C39.834 52.8734 39.8504 52.8089 39.8837 52.7614C39.9168 52.7139 39.9886 52.6897 40.0992 52.6897H41.5839C41.7601 52.6897 41.926 52.7127 42.081 52.7579C42.2352 52.8034 42.3699 52.8734 42.4851 52.969C42.5997 53.0641 42.6904 53.1841 42.7568 53.3295C42.823 53.4746 42.8561 53.6447 42.8561 53.8396C42.8561 53.9349 42.8437 54.0327 42.8196 54.1323C42.7951 54.2319 42.7568 54.3261 42.7034 54.4145C42.6504 54.5029 42.58 54.5844 42.4918 54.6593C42.4034 54.7343 42.2947 54.7944 42.1671 54.8396V54.8738Z" fill="#3D6097"/>
<path d="M50.9369 53.1456L50.3731 54.0912L48.4179 57.2549C48.3737 57.3321 48.3371 57.3853 48.3088 57.4146C48.2797 57.4444 48.2346 57.459 48.1729 57.459H48.0736C47.9896 57.459 47.9339 57.4384 47.9075 57.3975C47.8809 57.3568 47.8677 57.305 47.8677 57.2415V52.751C47.8677 52.7058 47.8897 52.683 47.9339 52.683H48.1396C48.1838 52.683 48.2057 52.7058 48.2057 52.751V57.0031H48.2258L48.723 56.1663L50.7514 52.8873C50.7956 52.8101 50.8316 52.7569 50.8605 52.7272C50.8894 52.6979 50.9348 52.683 50.9964 52.683H51.0957C51.1797 52.683 51.2348 52.7034 51.2616 52.7443C51.2882 52.7852 51.3014 52.8394 51.3014 52.9075V57.3975C51.3014 57.4384 51.279 57.459 51.2348 57.459H51.0297C50.9855 57.459 50.9631 57.4384 50.9631 57.3975V53.1456H50.9369Z" fill="#3D6097"/>
<path d="M58.115 54.9005C58.3004 54.9413 58.4604 55.0014 58.5951 55.0808C58.7298 55.16 58.8418 55.2542 58.9302 55.3631C59.0186 55.4717 59.0834 55.5911 59.1255 55.7202C59.1674 55.8496 59.1883 55.982 59.1883 56.1181C59.1883 56.3267 59.1462 56.5173 59.0628 56.6895C58.9788 56.8622 58.8592 57.0107 58.7049 57.1352C58.5498 57.2602 58.3611 57.3576 58.138 57.4279C57.9149 57.4982 57.6644 57.5332 57.386 57.5332C57.2934 57.5332 57.1891 57.5299 57.0747 57.5236C56.9593 57.5167 56.8378 57.501 56.7102 57.4766C56.5818 57.4523 56.4526 57.4189 56.3221 57.3768C56.1918 57.335 56.0646 57.2802 55.9413 57.2132C55.9015 57.191 55.8948 57.1568 55.921 57.1115L56.0008 56.9687C56.0226 56.9323 56.0538 56.9233 56.0934 56.9416C56.2835 57.0411 56.4869 57.1138 56.7035 57.159C56.9195 57.2044 57.1317 57.2272 57.3397 57.2272C57.8297 57.2272 58.2025 57.126 58.456 56.9235C58.7103 56.7212 58.8374 56.4491 58.8374 56.1077C58.8374 55.9531 58.8064 55.8113 58.7447 55.6817C58.6824 55.5514 58.5951 55.4412 58.4828 55.3505C58.3699 55.2595 58.2329 55.189 58.072 55.1387C57.9105 55.0886 57.7304 55.0637 57.5318 55.0637H57.147C57.0942 55.0637 57.0576 55.0533 57.0381 55.0331C57.0178 55.0126 57.0079 54.9845 57.0079 54.948V54.8596C57.0079 54.7736 57.05 54.7302 57.134 54.7302H57.492C57.642 54.7302 57.7865 54.708 57.9262 54.6624C58.0653 54.6172 58.1887 54.5534 58.2974 54.4717C58.4053 54.3901 58.4914 54.2906 58.5553 54.1723C58.6198 54.0543 58.6519 53.9209 58.6519 53.771C58.6519 53.6033 58.6165 53.4638 58.5456 53.3526C58.4751 53.2414 58.3835 53.1542 58.2704 53.0908C58.1583 53.0271 58.031 52.9818 57.8896 52.9546C57.7484 52.9275 57.6087 52.9138 57.4723 52.9138C57.2861 52.9138 57.0974 52.933 56.9053 52.9717C56.7134 53.01 56.5154 53.0817 56.3123 53.1858C56.2944 53.1951 56.2769 53.1994 56.2593 53.1994C56.2414 53.1994 56.2283 53.1882 56.2195 53.1656L56.1464 53.0089C56.1376 52.9863 56.1334 52.9672 56.1334 52.9513C56.1334 52.9352 56.1443 52.9205 56.1665 52.9071C56.3919 52.7847 56.6162 52.7018 56.8393 52.6586C57.062 52.6154 57.2796 52.594 57.492 52.594C57.7128 52.594 57.9158 52.6178 58.1014 52.6653C58.2874 52.7132 58.4462 52.7847 58.5789 52.8798C58.7115 52.9751 58.815 53.0953 58.8904 53.2403C58.965 53.3856 59.0027 53.5555 59.0027 53.7506C59.0027 53.9957 58.9258 54.2177 58.7708 54.4173C58.6165 54.6172 58.3976 54.7689 58.115 54.8732V54.9005Z" fill="#3D6097"/>
<path d="M67.243 55.0771C67.243 54.7958 67.2185 54.5251 67.1699 54.264C67.1213 54.0034 67.0384 53.7742 66.9215 53.5771C66.8044 53.3795 66.6465 53.2224 66.4473 53.1041C66.2488 52.9861 65.9989 52.9275 65.6986 52.9275C65.4159 52.9275 65.1748 52.9851 64.9761 53.1006C64.7769 53.2163 64.6159 53.3728 64.4921 53.5701C64.3683 53.7675 64.2787 53.9955 64.2236 54.254C64.1685 54.5125 64.1407 54.7848 64.1407 55.0704C64.1407 55.3652 64.1662 55.6432 64.2169 55.9038C64.2678 56.1649 64.3539 56.3935 64.4758 56.5909C64.5968 56.7881 64.7574 56.9437 64.9558 57.0571C65.1551 57.1704 65.4002 57.227 65.6921 57.227C65.9834 57.227 66.2291 57.1682 66.4277 57.05C66.6264 56.9321 66.7868 56.7736 66.9085 56.574C67.0296 56.3743 67.1158 56.145 67.1667 55.8867C67.2174 55.6282 67.243 55.3585 67.243 55.0771ZM67.5879 55.0704C67.5879 55.8551 67.4275 56.4617 67.1071 56.8903C66.7868 57.3189 66.3125 57.5332 65.6856 57.5332C65.3537 57.5332 65.0701 57.4729 64.8337 57.3529C64.5968 57.2331 64.4025 57.0637 64.2502 56.8463C64.0975 56.6283 63.9861 56.3686 63.9153 56.0671C63.8449 55.7655 63.8094 55.4355 63.8094 55.0771C63.8094 54.6873 63.8525 54.3391 63.9386 54.0328C64.0249 53.7266 64.1499 53.4693 64.313 53.2607C64.4768 53.0519 64.6743 52.8934 64.9063 52.7845C65.1382 52.6755 65.4002 52.6213 65.6921 52.6213C66.0059 52.6213 66.2809 52.6767 66.5173 52.7881C66.7535 52.8991 66.9515 53.0592 67.1104 53.2674C67.2698 53.4764 67.3887 53.7325 67.4683 54.0364C67.5481 54.3403 67.5879 54.685 67.5879 55.0704Z" fill="#3D6097"/>
<path d="M75.296 56.0439C75.296 55.74 75.1978 55.4953 75.0015 55.3091C74.805 55.1233 74.5186 55.0301 74.1431 55.0301H72.7645V57.1392H74.1563C74.3995 57.1392 74.5949 57.1021 74.7428 57.0268C74.8907 56.9522 75.0057 56.8603 75.0876 56.7516C75.1695 56.6426 75.2246 56.5248 75.2535 56.3977C75.2818 56.2706 75.296 56.1529 75.296 56.0439ZM72.7645 54.7445H74.1236C74.2162 54.7445 74.319 54.7322 74.4311 54.7068C74.5442 54.6817 74.65 54.6351 74.7495 54.5668C74.8492 54.4986 74.9317 54.4065 74.9981 54.2902C75.0641 54.1741 75.0976 54.0272 75.0976 53.8496C75.0976 53.6131 75.0201 53.4135 74.8655 53.2521C74.7105 53.0906 74.4923 53.0095 74.2092 53.0095H72.7645V54.7445ZM74.7597 54.8738C74.9359 54.9144 75.0823 54.9791 75.1967 55.0675C75.3119 55.1561 75.4026 55.2568 75.4684 55.3704C75.535 55.4837 75.5815 55.6027 75.6075 55.7275C75.6345 55.8522 75.6475 55.9736 75.6475 56.0914C75.6475 56.2955 75.6119 56.4827 75.5415 56.6528C75.4707 56.8231 75.3723 56.9669 75.2464 57.0848C75.1209 57.2026 74.9703 57.2946 74.7958 57.3604C74.6211 57.4262 74.4281 57.459 74.2162 57.459H72.692C72.5992 57.459 72.5314 57.4407 72.4895 57.4048C72.4474 57.3682 72.4268 57.3024 72.4268 57.2072V52.9551C72.4268 52.8734 72.443 52.8089 72.4763 52.7614C72.5096 52.7139 72.5812 52.6897 72.692 52.6897H74.1764C74.3527 52.6897 74.5186 52.7127 74.6736 52.7579C74.828 52.8034 74.9627 52.8734 75.0777 52.969C75.1925 53.0641 75.283 53.1841 75.3494 53.3295C75.4156 53.4746 75.4489 53.6447 75.4489 53.8396C75.4489 53.9349 75.4363 54.0327 75.4121 54.1323C75.3877 54.2319 75.3494 54.3261 75.296 54.4145C75.2432 54.5029 75.1726 54.5844 75.0844 54.6593C74.996 54.7343 74.8873 54.7944 74.7597 54.8396V54.8738Z" fill="#3D6097"/>
<path d="M84.5166 57.3977C84.5166 57.4386 84.4944 57.459 84.45 57.459H84.2383C84.1941 57.459 84.1717 57.4386 84.1717 57.3977V52.7579C84.1717 52.7127 84.1941 52.6897 84.2383 52.6897H84.45C84.4944 52.6897 84.5166 52.7127 84.5166 52.7579V57.3977ZM83.3298 55.9624C83.3298 55.8127 83.3057 55.6721 83.2571 55.5405C83.2087 55.4091 83.1354 55.2945 83.0381 55.1971C82.9413 55.0995 82.8196 55.0223 82.6737 54.9657C82.5279 54.9089 82.3578 54.8807 82.1635 54.8807H80.7976V57.1394H82.17C82.4129 57.1394 82.611 57.0985 82.7633 57.017C82.9156 56.9351 83.0339 56.8343 83.1179 56.7141C83.2021 56.5939 83.2582 56.4656 83.2871 56.3297C83.3156 56.1934 83.3298 56.071 83.3298 55.9624ZM80.7249 57.459C80.6323 57.459 80.5647 57.4409 80.5226 57.4048C80.4805 57.3684 80.4598 57.3026 80.4598 57.2072V52.7512C80.4598 52.7103 80.4817 52.6897 80.5257 52.6897H80.7316C80.7758 52.6897 80.7976 52.7103 80.7976 52.7512V54.5746H82.1367C82.4862 54.5746 82.7622 54.6277 82.9652 54.7343C83.1687 54.8408 83.3233 54.9693 83.4295 55.1185C83.5355 55.2684 83.6027 55.4248 83.6314 55.588C83.6603 55.7512 83.6747 55.8923 83.6747 56.0101C83.6747 56.214 83.6402 56.4046 83.5719 56.5815C83.5032 56.7583 83.406 56.9111 83.28 57.0408C83.1545 57.17 83.0029 57.272 82.8261 57.3468C82.6492 57.4215 82.4506 57.459 82.2295 57.459H80.7249Z" fill="#3D6097"/>
<path d="M91.1459 52.3905C90.9467 52.3905 90.7656 52.3326 90.6024 52.2169C90.4387 52.1012 90.304 51.9484 90.198 51.7574C90.1758 51.7215 90.18 51.692 90.211 51.6694L90.2843 51.6082C90.3059 51.5899 90.3235 51.5854 90.3371 51.5944C90.3503 51.6036 90.3633 51.6192 90.3769 51.6419C90.4873 51.8007 90.6133 51.9175 90.7547 51.9924C90.8959 52.0672 91.0307 52.1045 91.1589 52.1045C91.2561 52.1045 91.3713 52.0719 91.504 52.0059C91.636 51.9401 91.7729 51.8144 91.9149 51.6284C91.9367 51.6058 91.952 51.5911 91.9612 51.5844C91.97 51.5775 91.9853 51.5809 92.0077 51.5944L92.0867 51.649C92.1135 51.6671 92.1223 51.6887 92.1135 51.7134C92.1047 51.7386 92.0909 51.7624 92.0737 51.7848C91.9367 52.0026 91.7878 52.158 91.6263 52.2511C91.4651 52.3442 91.3047 52.3905 91.1459 52.3905ZM92.5577 53.1456L91.9941 54.0912L90.0387 57.2549C89.9943 57.3321 89.958 57.3853 89.9297 57.4146C89.9006 57.4444 89.8554 57.459 89.7938 57.459H89.6943C89.6104 57.459 89.5547 57.4384 89.5285 57.3975C89.5015 57.3568 89.4885 57.305 89.4885 57.2413V52.751C89.4885 52.7056 89.5103 52.6828 89.5547 52.6828H89.7603C89.8045 52.6828 89.8263 52.7056 89.8263 52.751V57.0029H89.8466L90.3438 56.1663L92.3721 52.8871C92.4165 52.8101 92.4523 52.7569 92.4813 52.7272C92.5102 52.6978 92.5554 52.6828 92.617 52.6828H92.7166C92.8006 52.6828 92.8557 52.7034 92.8823 52.7443C92.9091 52.7852 92.9221 52.8394 92.9221 52.9075V57.3975C92.9221 57.4384 92.8999 57.459 92.8557 57.459H92.6503C92.6063 57.459 92.5839 57.4384 92.5839 57.3975V53.1456H92.5577Z" fill="#3D6097"/>
<path d="M107.2 57.1393C107.289 57.1438 107.343 57.1664 107.363 57.2072C107.382 57.2483 107.39 57.2935 107.386 57.3434L107.32 58.4862C107.32 58.5361 107.302 58.561 107.266 58.561H107.101C107.065 58.561 107.048 58.5361 107.048 58.4862L107.015 57.4591H103.819C103.718 57.4591 103.646 57.4341 103.604 57.3842C103.562 57.3343 103.541 57.2617 103.541 57.1664V52.7577C103.541 52.7171 103.563 52.6969 103.607 52.6969H103.813C103.857 52.6969 103.879 52.7171 103.879 52.7577V57.1462H106.617V52.7511C106.617 52.7102 106.638 52.6898 106.683 52.6898H106.889C106.933 52.6898 106.955 52.7102 106.955 52.7511V57.1326L107.2 57.1393Z" fill="#3D6097"/>
<path d="M114.895 57.459H113.053C112.863 57.459 112.703 57.4329 112.576 57.381C112.447 57.3288 112.344 57.2561 112.268 57.163C112.19 57.0701 112.135 56.9589 112.101 56.8296C112.068 56.7004 112.052 56.5609 112.052 56.4112V53.7443C112.052 53.5944 112.069 53.455 112.105 53.3259C112.14 53.1967 112.197 53.0843 112.277 52.9891C112.357 52.894 112.461 52.8203 112.589 52.7681C112.717 52.716 112.874 52.6897 113.059 52.6897H114.829C114.877 52.6897 114.902 52.717 114.902 52.7716V52.9282C114.902 52.9824 114.877 53.0095 114.829 53.0095H113.066C112.827 53.0095 112.655 53.0672 112.549 53.1823C112.443 53.2976 112.39 53.4683 112.39 53.694V54.7648H114.623C114.672 54.7648 114.696 54.7903 114.696 54.8414V54.9946C114.696 55.0455 114.672 55.071 114.623 55.071H112.39V56.4588C112.39 56.6631 112.438 56.8275 112.536 56.9522C112.633 57.0769 112.81 57.1392 113.066 57.1392H114.895C114.944 57.1392 114.968 57.1663 114.968 57.2209V57.3773C114.968 57.4317 114.944 57.459 114.895 57.459Z" fill="#3D6097"/>
<path d="M119.919 57.459H119.707C119.663 57.459 119.641 57.4386 119.641 57.3977V52.7577C119.641 52.7127 119.663 52.6897 119.707 52.6897H119.919C119.963 52.6897 119.986 52.7127 119.986 52.7577V54.7783H122.723V52.7577C122.723 52.7127 122.745 52.6897 122.79 52.6897H122.995C123.039 52.6897 123.061 52.7127 123.061 52.7577V57.3977C123.061 57.4386 123.039 57.459 122.995 57.459H122.79C122.745 57.459 122.723 57.4386 122.723 57.3977V55.0848H119.986V57.3977C119.986 57.4386 119.963 57.459 119.919 57.459Z" fill="#3D6097"/>
<path d="M129.346 57.459H129.134C129.09 57.459 129.068 57.4386 129.068 57.3977V52.9959H127.676C127.636 52.9959 127.616 52.9763 127.616 52.9362V52.7565C127.616 52.7121 127.636 52.6897 127.676 52.6897H130.85C130.89 52.6897 130.91 52.7121 130.91 52.7565V52.9362C130.91 52.9763 130.89 52.9959 130.85 52.9959H129.405V57.3977C129.405 57.4386 129.386 57.459 129.346 57.459Z" fill="#3D6097"/>
<path d="M135.795 55.1052H137.14C137.286 55.1052 137.423 55.0838 137.551 55.0404C137.679 54.9971 137.791 54.9309 137.886 54.8422C137.981 54.7538 138.056 54.6434 138.111 54.5114C138.167 54.3794 138.194 54.2269 138.194 54.0537C138.194 53.9358 138.176 53.815 138.141 53.6925C138.105 53.5695 138.048 53.4579 137.968 53.3578C137.889 53.2578 137.783 53.1761 137.65 53.1122C137.518 53.0482 137.353 53.0166 137.153 53.0166H135.795V55.1052ZM135.464 52.9553C135.464 52.8736 135.479 52.8091 135.51 52.7614C135.541 52.7139 135.611 52.6897 135.722 52.6897H137.233C137.432 52.6897 137.613 52.7227 137.776 52.7887C137.94 52.8545 138.078 52.9474 138.191 53.0676C138.303 53.1876 138.391 53.3306 138.452 53.496C138.514 53.6618 138.545 53.8441 138.545 54.0439C138.545 54.1706 138.525 54.3138 138.486 54.4723C138.446 54.6312 138.373 54.7799 138.267 54.9182C138.161 55.0565 138.017 55.1729 137.836 55.2684C137.655 55.3637 137.425 55.4114 137.147 55.4114H135.795V57.3977C135.795 57.4386 135.773 57.459 135.729 57.459H135.523C135.483 57.459 135.464 57.4386 135.464 57.3977V52.9553Z" fill="#3D6097"/>
</g>
</svg>
