<svg width="264" height="52" viewBox="0 0 264 52" fill="none" xmlns="http://www.w3.org/2000/svg">
<path d="M58.1121 37.8681V34.2601C58.1121 34.0548 58.1708 33.9521 58.2881 33.9521C58.4348 33.9521 58.6695 34.0108 58.9921 34.1281C59.5788 34.3041 60.2681 34.4801 61.0601 34.6561C61.8521 34.8028 62.6295 34.9201 63.3921 35.0081C64.1548 35.0961 64.7708 35.1401 65.2401 35.1401C66.7655 35.1401 67.9241 34.7148 68.7161 33.8641C69.5375 33.0134 69.9481 32.0308 69.9481 30.9161C69.9481 29.7721 69.5375 28.8481 68.7161 28.1441C67.9241 27.4401 66.8535 26.8974 65.5041 26.5161C64.7708 26.3401 63.9348 26.0908 62.9961 25.7681C62.0868 25.4454 61.1921 24.9908 60.3121 24.4041C59.4615 23.8174 58.7575 23.0108 58.2001 21.9841C57.6428 20.9281 57.3641 19.5934 57.3641 17.9801C57.3641 15.9854 57.8188 14.3868 58.7281 13.1841C59.6668 11.9814 60.8695 11.1014 62.3361 10.5441C63.8321 9.95743 65.4161 9.66409 67.0881 9.66409C67.7335 9.66409 68.4375 9.73743 69.2001 9.88409C69.9921 10.0014 70.7695 10.1628 71.5321 10.3681C72.2948 10.5734 72.9695 10.8081 73.5561 11.0721C73.7908 11.1308 73.9375 11.2188 73.9961 11.3361C74.0548 11.4241 74.0841 11.5561 74.0841 11.7321V15.0321C74.0841 15.8241 73.6001 15.9561 72.6321 15.4281C72.0161 15.0761 71.2681 14.7681 70.3881 14.5041C69.5375 14.2108 68.5841 14.0641 67.5281 14.0641C66.2375 14.0641 65.1961 14.4014 64.4041 15.0761C63.6121 15.7508 63.2161 16.5574 63.2161 17.4961C63.2161 18.4054 63.4655 19.1388 63.9641 19.6961C64.4628 20.2534 65.1081 20.6934 65.9001 21.0161C66.6921 21.3388 67.5135 21.6028 68.3641 21.8081C69.2148 22.0134 69.9921 22.2481 70.6961 22.5121C71.8695 22.8934 72.8375 23.4068 73.6001 24.0521C74.3921 24.6681 74.9935 25.4894 75.4041 26.5161C75.8148 27.5428 76.0201 28.8481 76.0201 30.4321C76.0201 32.5734 75.5508 34.3481 74.6121 35.7561C73.7028 37.1348 72.4415 38.1614 70.8281 38.8361C69.2148 39.5108 67.3815 39.8481 65.3281 39.8481C64.4188 39.8481 63.3921 39.7601 62.2481 39.5841C61.1041 39.4081 60.0628 39.1588 59.1241 38.8361C58.7428 38.7188 58.4788 38.6014 58.3321 38.4841C58.1855 38.3374 58.1121 38.1321 58.1121 37.8681ZM82.0186 43.8081C81.9012 42.7521 81.7986 41.1094 81.7106 38.8801C81.6519 36.6508 81.6372 33.7908 81.6666 30.3001C81.6666 29.3028 81.6812 28.2028 81.7106 27.0001C81.7399 25.7681 81.7839 24.5801 81.8426 23.4361C81.9306 22.2921 82.0479 21.3974 82.1946 20.7521C82.2532 20.4294 82.3706 20.1801 82.5466 20.0041C82.7226 19.7988 83.1186 19.5788 83.7346 19.3441C84.3506 19.1388 85.2599 18.9188 86.4626 18.6841C87.6946 18.4494 89.0586 18.3321 90.5546 18.3321C93.4292 18.3321 95.6586 19.1681 97.2426 20.8401C98.8559 22.4828 99.6626 25.0788 99.6626 28.6281C99.6626 30.0948 99.5306 31.4148 99.2666 32.5881C99.0319 33.7321 98.6652 34.7441 98.1666 35.6241C97.6679 36.4748 97.0812 37.1788 96.4066 37.7361C95.7612 38.2934 95.0279 38.7188 94.2066 39.0121C93.6786 39.2468 93.0626 39.4228 92.3586 39.5401C91.6546 39.6868 90.9506 39.7601 90.2466 39.7601C89.5426 39.7894 88.9119 39.7601 88.3546 39.6721C88.0906 39.6428 87.8852 39.6134 87.7386 39.5841C87.5919 39.5841 87.5186 39.6868 87.5186 39.8921C87.5186 40.0974 87.5039 40.4201 87.4746 40.8601C87.4746 41.3001 87.4892 41.7401 87.5186 42.1801C87.5479 42.6201 87.5626 42.9574 87.5626 43.1921C87.6212 43.5734 87.6359 43.8374 87.6066 43.9841C87.6066 44.1601 87.3866 44.2481 86.9466 44.2481H82.7666C82.5319 44.2481 82.3412 44.2188 82.1946 44.1601C82.0772 44.1014 82.0186 43.9841 82.0186 43.8081ZM87.4306 33.7761C87.4306 33.9814 87.4599 34.1281 87.5186 34.2161C87.5772 34.2748 87.6799 34.3188 87.8266 34.3481C88.2079 34.4948 88.6479 34.6121 89.1466 34.7001C89.6452 34.7881 90.0706 34.8321 90.4226 34.8321C90.8039 34.8321 91.1852 34.7588 91.5666 34.6121C91.9772 34.4654 92.3586 34.1868 92.7106 33.7761C93.0919 33.3361 93.3852 32.7054 93.5906 31.8841C93.8252 31.0628 93.9426 29.9628 93.9426 28.5841C93.9426 26.3254 93.6199 24.7708 92.9746 23.9201C92.3292 23.0694 91.4932 22.6441 90.4666 22.6441C89.9972 22.6441 89.5279 22.6881 89.0586 22.7761C88.5892 22.8641 88.1932 22.9668 87.8706 23.0841C87.8119 23.1428 87.7532 23.2161 87.6946 23.3041C87.6359 23.3921 87.6066 23.5094 87.6066 23.6561C87.5772 24.2721 87.5479 24.9321 87.5186 25.6361C87.5186 26.3401 87.5039 27.0588 87.4746 27.7921C87.4746 28.4961 87.4599 29.2148 87.4306 29.9481C87.4306 30.6521 87.4306 31.3414 87.4306 32.0161C87.4306 32.6614 87.4306 33.2481 87.4306 33.7761ZM114.198 39.8481C111.646 39.8481 109.666 39.3788 108.258 38.4401C106.879 37.4721 105.911 36.1814 105.354 34.5681C104.826 32.9254 104.562 31.0628 104.562 28.9801C104.562 26.9561 104.87 25.1521 105.486 23.5681C106.102 21.9548 107.099 20.6934 108.478 19.7841C109.886 18.8454 111.793 18.3761 114.198 18.3761C116.633 18.3761 118.539 18.8454 119.918 19.7841C121.326 20.6934 122.323 21.9548 122.91 23.5681C123.526 25.1521 123.834 26.9561 123.834 28.9801C123.834 31.0334 123.57 32.8814 123.042 34.5241C122.514 36.1374 121.546 37.4281 120.138 38.3961C118.759 39.3641 116.779 39.8481 114.198 39.8481ZM114.154 35.5361C115.591 35.5361 116.603 34.9788 117.19 33.8641C117.777 32.7494 118.07 31.1801 118.07 29.1561C118.07 27.1321 117.747 25.6068 117.102 24.5801C116.486 23.5241 115.503 22.9961 114.154 22.9961C112.834 22.9961 111.851 23.5241 111.206 24.5801C110.59 25.6068 110.282 27.1321 110.282 29.1561C110.282 31.2094 110.561 32.7934 111.118 33.9081C111.705 34.9934 112.717 35.5361 114.154 35.5361ZM136.547 18.5521C138.776 18.5521 140.61 18.8748 142.047 19.5201C142.34 19.6374 142.502 19.7548 142.531 19.8721C142.59 19.9894 142.604 20.1508 142.575 20.3561L141.783 23.0841C141.724 23.3188 141.651 23.4654 141.563 23.5241C141.475 23.5534 141.299 23.5241 141.035 23.4361C140.536 23.2894 139.979 23.1868 139.363 23.1281C138.747 23.0401 138.278 22.9961 137.955 22.9961C137.486 22.9961 137.09 23.0254 136.767 23.0841C136.444 23.1134 136.195 23.1574 136.019 23.2161C135.843 23.2748 135.696 23.3334 135.579 23.3921C135.462 23.4801 135.33 23.5828 135.183 23.7001C135.066 23.8174 135.007 24.0814 135.007 24.4921V38.5721C135.007 38.9828 134.948 39.2468 134.831 39.3641C134.714 39.4521 134.508 39.4961 134.215 39.4961H129.947C129.8 39.4961 129.668 39.4521 129.551 39.3641C129.434 39.2761 129.375 39.0708 129.375 38.7481V21.1481C129.375 20.6788 129.419 20.3854 129.507 20.2681C129.624 20.1214 129.844 19.9748 130.167 19.8281C131.047 19.4174 132.088 19.1094 133.291 18.9041C134.523 18.6694 135.608 18.5521 136.547 18.5521ZM154.758 39.4961C152.763 39.4961 151.267 39.0854 150.27 38.2641C149.302 37.4134 148.657 36.2401 148.334 34.7441C148.099 33.5121 147.967 32.2508 147.938 30.9601C147.938 29.6694 147.938 28.3641 147.938 27.0441C147.938 26.1934 147.938 25.4454 147.938 24.8001C147.967 24.1548 147.997 23.4361 148.026 22.6441C148.026 22.3508 147.894 22.2041 147.63 22.2041H145.826C145.591 22.2041 145.43 22.1748 145.342 22.1161C145.283 22.0574 145.254 21.8814 145.254 21.5881V19.3881C145.254 19.0361 145.283 18.8454 145.342 18.8161C145.43 18.7574 145.635 18.7281 145.958 18.7281H147.762C147.997 18.7281 148.129 18.6694 148.158 18.5521C148.187 18.4348 148.217 18.2441 148.246 17.9801L148.422 14.6801C148.422 14.3281 148.598 14.1521 148.95 14.1521H153.35C153.497 14.1521 153.643 14.2108 153.79 14.3281C153.937 14.4161 153.995 14.5334 153.966 14.6801L153.746 17.9801C153.717 18.3321 153.717 18.5521 153.746 18.6401C153.805 18.6988 153.922 18.7281 154.098 18.7281H157.794C158.087 18.7281 158.263 18.7721 158.322 18.8601C158.381 18.9188 158.41 19.1241 158.41 19.4761V21.5441C158.41 21.8374 158.366 22.0281 158.278 22.1161C158.19 22.1748 157.999 22.2041 157.706 22.2041H154.054C153.878 22.2041 153.746 22.2628 153.658 22.3801C153.599 22.4681 153.57 22.6148 153.57 22.8201C153.541 23.5828 153.511 24.3601 153.482 25.1521C153.453 25.9148 153.438 26.7068 153.438 27.5281C153.438 28.5548 153.453 29.5961 153.482 30.6521C153.541 31.6788 153.673 32.6761 153.878 33.6441C154.054 34.2014 154.303 34.5974 154.626 34.8321C154.949 35.0668 155.374 35.1841 155.902 35.1841C156.254 35.1841 156.591 35.1401 156.914 35.0521C157.237 34.9348 157.515 34.8468 157.75 34.7881C158.102 34.5828 158.322 34.5241 158.41 34.6121C158.498 34.6708 158.601 34.8468 158.718 35.1401L159.466 37.7801C159.583 37.9854 159.554 38.1761 159.378 38.3521C159.202 38.4988 158.85 38.6748 158.322 38.8801C157.97 38.9974 157.589 39.1148 157.178 39.2321C156.767 39.3201 156.357 39.3934 155.946 39.4521C155.535 39.4814 155.139 39.4961 154.758 39.4961ZM181.44 9.88409C181.645 9.88409 181.777 9.91343 181.836 9.97209C181.894 10.0308 181.924 10.2068 181.924 10.5001V12.7441C181.924 13.3014 181.674 13.9614 181.176 14.7241C180.677 15.4868 180.061 16.3081 179.328 17.1881C178.653 18.0094 177.949 18.9481 177.216 20.0041C176.482 21.0601 175.749 22.1894 175.016 23.3921C174.282 24.5948 173.564 25.8561 172.86 27.1761C172.185 28.4668 171.554 29.7868 170.968 31.1361C170.41 32.4561 169.912 33.7468 169.472 35.0081H182.276C182.598 35.0081 182.804 35.0521 182.892 35.1401C182.98 35.2281 183.024 35.3748 183.024 35.5801V38.9681C183.024 39.2028 182.98 39.3494 182.892 39.4081C182.804 39.4668 182.613 39.4961 182.32 39.4961H164.632C163.986 39.4961 163.59 39.3054 163.444 38.9241C163.297 38.5428 163.253 38.0148 163.312 37.3401C163.4 36.2548 163.634 35.0668 164.016 33.7761C164.426 32.4854 164.94 31.1361 165.556 29.7281C166.172 28.3201 166.846 26.9121 167.58 25.5041C168.342 24.0668 169.12 22.6881 169.912 21.3681C170.733 20.0188 171.554 18.7574 172.376 17.5841C173.197 16.3814 173.974 15.3108 174.708 14.3721H164.456C164.074 14.3721 163.84 14.3281 163.752 14.2401C163.693 14.1521 163.664 14.0201 163.664 13.8441V10.4121C163.664 10.2068 163.693 10.0748 163.752 10.0161C163.84 9.92809 164.06 9.88409 164.412 9.88409H181.44ZM195.765 39.8041C194.269 39.8041 192.861 39.6428 191.541 39.3201C190.251 38.9681 189.195 38.3081 188.373 37.3401C187.581 36.3721 187.185 34.9641 187.185 33.1161C187.185 31.5908 187.464 30.3441 188.021 29.3761C188.608 28.3788 189.341 27.6161 190.221 27.0881C191.131 26.5601 192.069 26.2081 193.037 26.0321C194.005 25.8268 194.871 25.7241 195.633 25.7241C196.249 25.7241 196.836 25.7534 197.393 25.8121C197.98 25.8414 198.523 25.9001 199.021 25.9881C199.285 26.0761 199.417 25.8854 199.417 25.4161C199.417 24.3308 199.08 23.5681 198.405 23.1281C197.76 22.6881 196.851 22.4681 195.677 22.4681C194.563 22.4681 193.492 22.6734 192.465 23.0841C191.468 23.4948 190.617 23.8761 189.913 24.2281C189.591 24.4041 189.371 24.4628 189.253 24.4041C189.165 24.3454 189.092 24.1548 189.033 23.8321L188.637 21.3681C188.579 20.9868 188.579 20.7374 188.637 20.6201C188.696 20.5028 188.857 20.3561 189.121 20.1801C189.884 19.6814 190.852 19.2854 192.025 18.9921C193.199 18.6694 194.445 18.5081 195.765 18.5081C197.76 18.5081 199.359 18.7428 200.561 19.2121C201.764 19.6521 202.659 20.2534 203.245 21.0161C203.861 21.7788 204.257 22.6588 204.433 23.6561C204.639 24.6241 204.741 25.6361 204.741 26.6921C204.771 27.9241 204.771 29.1414 204.741 30.3441C204.741 31.5174 204.712 32.6908 204.653 33.8641C204.595 35.0374 204.507 36.2254 204.389 37.4281C204.331 37.7508 204.243 38.0001 204.125 38.1761C204.008 38.3228 203.773 38.4841 203.421 38.6601C203.011 38.8654 202.468 39.0414 201.793 39.1881C201.119 39.3054 200.385 39.4081 199.593 39.4961C198.831 39.6134 198.112 39.6868 197.437 39.7161C196.763 39.7748 196.205 39.8041 195.765 39.8041ZM196.117 36.4161C196.352 36.4161 196.616 36.4014 196.909 36.3721C197.203 36.3134 197.496 36.2401 197.789 36.1521C198.083 36.0641 198.317 35.9468 198.493 35.8001C198.699 35.6534 198.816 35.4628 198.845 35.2281C198.933 34.5241 199.007 33.7468 199.065 32.8961C199.124 32.0454 199.124 31.2241 199.065 30.4321C199.065 30.0508 198.919 29.7868 198.625 29.6401C198.332 29.4348 197.907 29.3174 197.349 29.2881C196.821 29.2294 196.381 29.2001 196.029 29.2001C195.765 29.2001 195.428 29.2588 195.017 29.3761C194.636 29.4641 194.269 29.6401 193.917 29.9041C193.565 30.1681 193.272 30.5641 193.037 31.0921C192.832 31.6201 192.729 32.2948 192.729 33.1161C192.729 33.7614 192.861 34.3334 193.125 34.8321C193.389 35.3308 193.771 35.7268 194.269 36.0201C194.768 36.2841 195.384 36.4161 196.117 36.4161ZM211.197 39.4961C210.787 39.4961 210.581 39.3054 210.581 38.9241C210.581 35.8734 210.581 32.8374 210.581 29.8161C210.581 26.7654 210.581 23.7148 210.581 20.6641C210.581 20.3708 210.684 20.1508 210.889 20.0041C211.095 19.8574 211.491 19.6814 212.077 19.4761C212.459 19.3588 213.016 19.2268 213.749 19.0801C214.512 18.9041 215.333 18.7428 216.213 18.5961C217.093 18.4494 217.885 18.3761 218.589 18.3761C221.024 18.3761 222.887 18.8454 224.177 19.7841C225.497 20.6934 226.392 21.9108 226.861 23.4361C227.36 24.9321 227.609 26.5894 227.609 28.4081C227.609 29.4934 227.58 30.6374 227.521 31.8401C227.492 33.0134 227.433 34.1721 227.345 35.3161C227.257 36.4601 227.169 37.5014 227.081 38.4401C227.023 38.9681 226.935 39.2761 226.817 39.3641C226.7 39.4521 226.436 39.4961 226.025 39.4961H222.417C222.007 39.4961 221.728 39.4521 221.581 39.3641C221.464 39.2468 221.42 39.0121 221.449 38.6601C221.449 38.5428 221.464 38.0881 221.493 37.2961C221.552 36.4748 221.611 35.5068 221.669 34.3921C221.728 33.2774 221.772 32.1774 221.801 31.0921C221.86 30.0068 221.889 29.1268 221.889 28.4521C221.889 26.9268 221.757 25.7681 221.493 24.9761C221.229 24.1548 220.848 23.5974 220.349 23.3041C219.851 23.0108 219.22 22.8641 218.457 22.8641C218.164 22.8641 217.885 22.8788 217.621 22.9081C217.357 22.9374 217.123 22.9814 216.917 23.0401C216.653 23.0694 216.463 23.1868 216.345 23.3921C216.228 23.5974 216.169 23.9348 216.169 24.4041C216.169 25.6361 216.169 27.0588 216.169 28.6721C216.169 30.2854 216.169 31.9574 216.169 33.6881C216.169 35.4188 216.169 37.1641 216.169 38.9241C216.169 39.3054 216.008 39.4961 215.685 39.4961H211.197ZM239.126 13.0521C239.126 13.9321 238.936 14.6068 238.554 15.0761C238.173 15.5161 237.381 15.7361 236.178 15.7361C235.034 15.7361 234.242 15.5161 233.802 15.0761C233.392 14.6068 233.186 13.9321 233.186 13.0521C233.186 12.2894 233.392 11.6734 233.802 11.2041C234.242 10.7054 235.034 10.4561 236.178 10.4561C237.44 10.4561 238.246 10.7054 238.598 11.2041C238.95 11.6734 239.126 12.2894 239.126 13.0521ZM238.994 38.9681C238.994 39.3201 238.804 39.4961 238.422 39.4961H233.89C233.538 39.4961 233.362 39.3201 233.362 38.9681V19.2561C233.362 18.9041 233.538 18.7281 233.89 18.7281H238.422C238.804 18.7281 238.994 18.9041 238.994 19.2561V38.9681ZM252.983 39.8041C251.487 39.8041 250.079 39.6428 248.759 39.3201C247.468 38.9681 246.412 38.3081 245.591 37.3401C244.799 36.3721 244.403 34.9641 244.403 33.1161C244.403 31.5908 244.681 30.3441 245.239 29.3761C245.825 28.3788 246.559 27.6161 247.439 27.0881C248.348 26.5601 249.287 26.2081 250.255 26.0321C251.223 25.8268 252.088 25.7241 252.851 25.7241C253.467 25.7241 254.053 25.7534 254.611 25.8121C255.197 25.8414 255.74 25.9001 256.239 25.9881C256.503 26.0761 256.635 25.8854 256.635 25.4161C256.635 24.3308 256.297 23.5681 255.623 23.1281C254.977 22.6881 254.068 22.4681 252.895 22.4681C251.78 22.4681 250.709 22.6734 249.683 23.0841C248.685 23.4948 247.835 23.8761 247.131 24.2281C246.808 24.4041 246.588 24.4628 246.471 24.4041C246.383 24.3454 246.309 24.1548 246.251 23.8321L245.855 21.3681C245.796 20.9868 245.796 20.7374 245.855 20.6201C245.913 20.5028 246.075 20.3561 246.339 20.1801C247.101 19.6814 248.069 19.2854 249.243 18.9921C250.416 18.6694 251.663 18.5081 252.983 18.5081C254.977 18.5081 256.576 18.7428 257.779 19.2121C258.981 19.6521 259.876 20.2534 260.463 21.0161C261.079 21.7788 261.475 22.6588 261.651 23.6561C261.856 24.6241 261.959 25.6361 261.959 26.6921C261.988 27.9241 261.988 29.1414 261.959 30.3441C261.959 31.5174 261.929 32.6908 261.871 33.8641C261.812 35.0374 261.724 36.2254 261.607 37.4281C261.548 37.7508 261.46 38.0001 261.343 38.1761C261.225 38.3228 260.991 38.4841 260.639 38.6601C260.228 38.8654 259.685 39.0414 259.011 39.1881C258.336 39.3054 257.603 39.4081 256.811 39.4961C256.048 39.6134 255.329 39.6868 254.655 39.7161C253.98 39.7748 253.423 39.8041 252.983 39.8041ZM253.335 36.4161C253.569 36.4161 253.833 36.4014 254.127 36.3721C254.42 36.3134 254.713 36.2401 255.007 36.1521C255.3 36.0641 255.535 35.9468 255.711 35.8001C255.916 35.6534 256.033 35.4628 256.063 35.2281C256.151 34.5241 256.224 33.7468 256.283 32.8961C256.341 32.0454 256.341 31.2241 256.283 30.4321C256.283 30.0508 256.136 29.7868 255.843 29.6401C255.549 29.4348 255.124 29.3174 254.567 29.2881C254.039 29.2294 253.599 29.2001 253.247 29.2001C252.983 29.2001 252.645 29.2588 252.235 29.3761C251.853 29.4641 251.487 29.6401 251.135 29.9041C250.783 30.1681 250.489 30.5641 250.255 31.0921C250.049 31.6201 249.947 32.2948 249.947 33.1161C249.947 33.7614 250.079 34.3334 250.343 34.8321C250.607 35.3308 250.988 35.7268 251.487 36.0201C251.985 36.2841 252.601 36.4161 253.335 36.4161Z" fill="#3D6097"/>
<path fill-rule="evenodd" clip-rule="evenodd" d="M20.7273 5.39392C20.5516 5.85925 20.2018 6.2936 19.9502 6.35962C19.6894 6.42779 19.4113 6.87076 19.3043 7.38783C19.2008 7.88739 18.9435 8.82156 18.7325 9.46366C17.3673 13.6145 22.7042 16.7094 25.58 13.4342C27.3762 11.3883 26.7408 8.42763 24.2128 7.06449C23.5064 6.68349 22.5048 5.96137 21.9875 5.45993L21.0466 4.54785L20.7273 5.39392ZM15.1839 12.6227C14.8544 12.8533 14.5849 13.1804 14.5849 13.3496C14.5849 13.7188 20.9493 25.0682 21.5345 25.7429C22.2278 26.5421 23.1286 26.3303 23.8265 25.204C25.3418 22.7579 29.9435 14.1127 29.9435 13.7118C29.9435 13.1341 28.8126 12.6294 27.984 12.8371C27.5955 12.9347 26.9453 13.5838 26.3733 14.4452C25.2809 16.0905 24.0978 16.7837 22.3819 16.7837C20.7518 16.7837 19.2111 15.7981 18.247 14.1386C17.5704 12.9735 16.6678 12.2031 15.9793 12.2031C15.8713 12.2031 15.5132 12.392 15.1839 12.6227ZM28.2071 20.4703C26.1981 23.8497 24.5545 26.825 24.5545 27.082C24.5545 27.3388 24.849 27.7422 25.209 27.9779C25.7832 28.3541 26.6683 28.3837 32.4167 28.2188C36.0367 28.1148 39.1208 27.9109 39.3068 27.7632C39.8152 27.3593 39.7109 26.2818 39.1047 25.6755C38.7159 25.2867 38.2066 25.1366 37.2757 25.1366C36.473 25.1366 35.5321 24.9076 34.7854 24.5304C32.2219 23.2354 31.6857 20.8732 33.2399 17.7214C34.0603 16.0576 34.0873 15.9121 33.7028 15.2242C33.449 14.7696 33.0235 14.4616 32.577 14.4096C31.9056 14.3312 31.6256 14.7198 28.2071 20.4703ZM11.8905 15.1671C11.1778 15.8797 11.2109 16.6973 12.0225 18.4411C12.8416 20.2003 12.8675 21.1154 12.1408 22.6165C11.3521 24.2456 10.1851 24.882 7.57498 25.1062C5.90037 25.2501 5.34584 25.4058 5.03274 25.8197C4.51109 26.5097 4.51298 27.1513 5.03867 27.6772C5.40216 28.0405 6.46405 28.1005 12.5293 28.1005C19.9378 28.1005 20.2436 28.0531 20.2431 26.9015C20.2428 26.3265 13.6853 15.1819 13.1426 14.8343C12.6692 14.5312 12.4746 14.5829 11.8905 15.1671ZM3.05176 15.568C2.43688 16.0853 2.13726 16.6587 1.88398 17.8036C1.65737 18.8283 1.28527 19.6041 0.771698 20.1225L0 20.9017L0.893219 20.7333C1.38442 20.6409 1.98987 20.5328 2.23884 20.4932C2.5355 20.4461 2.90977 20.83 3.32337 21.6055C5.32159 25.3508 10.8081 23.9696 10.8116 19.7202C10.8129 18.2021 9.98816 16.8492 8.6517 16.178C7.62941 15.6645 6.06365 15.5642 5.42371 15.9714C5.11654 16.167 4.98424 16.0853 4.87296 15.6319C4.66495 14.7842 4.01046 14.7613 3.05176 15.568ZM40.2752 15.6502C40.1663 16.0662 39.9103 16.1182 38.4359 16.0244C36.7597 15.9177 36.6993 15.9374 35.6094 16.9559C33.9898 18.4691 33.719 20.4994 34.8967 22.2972C35.4205 23.0964 37.1886 24.0588 38.1333 24.0588C39.7228 24.0588 41.323 22.9563 41.9829 21.4061C42.3071 20.6449 42.469 20.5296 43.026 20.6651C43.3886 20.7532 44.0189 20.8993 44.4263 20.9893C45.1621 21.152 45.1632 21.1501 44.5834 20.7204C44.0221 20.3041 43.3649 18.8383 43.0195 17.2321C42.6832 15.6696 40.5861 14.4608 40.2752 15.6502ZM9.21323 29.6493C7.32143 29.6976 5.70798 29.8625 5.50832 30.0284C4.9282 30.5097 5.10038 31.5217 5.86426 32.1226C6.3463 32.5017 6.96792 32.6812 7.79997 32.6812C9.26334 32.6812 11.0118 33.4841 11.7425 34.4916C12.0651 34.9362 12.3105 35.8027 12.3779 36.7331C12.4722 38.0362 12.3666 38.4821 11.6286 39.9005C10.7442 41.5993 10.7224 42.2525 11.5232 43.0533C12.4873 44.0176 12.8346 43.6286 16.5899 37.3787C18.5994 34.0343 20.2433 31.0723 20.2433 30.7964C20.2433 30.5205 20.0528 30.1042 19.82 29.8711C19.3795 29.4308 18.5221 29.413 9.21323 29.6493ZM25.0912 29.9107C24.7959 30.1176 24.5545 30.5339 24.5545 30.8362C24.5545 31.5503 31.1705 42.5675 31.8024 42.9056C32.1395 43.0862 32.4509 43.0479 32.8349 42.779C33.7499 42.138 33.8046 41.1944 33.0146 39.683C32.4173 38.5406 32.3232 38.0707 32.4213 36.7156C32.5167 35.3953 32.68 34.9542 33.3288 34.2644C34.3993 33.126 35.5515 32.6812 37.4284 32.6812C38.6407 32.6812 39.1389 32.5548 39.5927 32.1318C40.2426 31.5263 40.3705 30.473 39.8457 30.0522C39.6498 29.8951 36.6045 29.7302 32.5684 29.6585C26.9162 29.5577 25.5283 29.6046 25.0912 29.9107ZM21.2255 32.2096C19.9143 34.3143 14.8544 43.7789 14.8544 44.1262C14.8544 44.6964 16.003 45.1841 16.8467 44.9723C17.2649 44.8672 17.8684 44.2857 18.3968 43.4785C19.9289 41.1386 22.4981 40.3575 24.5497 41.608C25.6258 42.2641 25.9696 42.6537 26.7271 44.0761C27.4063 45.3514 28.3246 45.8248 29.2774 45.3907C29.6522 45.2202 30.0273 44.9014 30.1113 44.6826C30.2646 44.2828 23.6818 32.187 23.1054 31.8095C22.5086 31.4188 21.5973 31.6125 21.2255 32.2096ZM5.1451 33.9653C3.36271 34.8182 2.61984 36.077 2.57781 38.315C2.55948 39.2918 2.44793 40.5644 2.32964 41.1429L2.1149 42.1946L3.07979 42.038C3.76688 41.9264 4.06839 41.9857 4.12794 42.2439C4.19719 42.5456 4.39173 42.5429 5.28899 42.2285C5.88177 42.0205 6.64755 41.8486 6.99082 41.8464C8.38414 41.8373 10.1493 40.3418 10.5578 38.824C10.9401 37.4048 10.5028 35.9727 9.34445 34.8502C8.5582 34.0879 8.17262 33.9255 6.98166 33.8535C6.19892 33.8064 5.37252 33.8568 5.1451 33.9653ZM36.0341 34.639C34.1344 35.7281 33.4619 38.037 34.4842 39.9606C35.6673 42.1873 38.2653 42.7806 40.4732 41.328C41.1282 40.8969 42.1796 40.4073 42.8096 40.24C43.4396 40.0724 43.9547 39.8751 43.9547 39.8016C43.9547 39.728 43.7624 39.3742 43.5274 39.0156C43.2922 38.6567 43.1715 38.2477 43.2588 38.1062C43.4687 37.7664 40.3584 34.6209 39.4835 34.2881C38.3826 33.8697 37.159 33.9942 36.0341 34.639ZM20.634 43.2993C18.5493 44.2073 17.6213 46.6555 18.6067 48.6465C19.4493 50.3483 20.3182 50.8689 22.3165 50.8689C23.855 50.8689 24.0609 50.7961 24.9463 49.9377C26.1135 48.8065 26.5328 47.4965 26.1647 46.1298C25.4739 43.5639 22.9693 42.2821 20.634 43.2993Z" fill="#6A92D0"/>
<path fill-rule="evenodd" clip-rule="evenodd" d="M10.0983 29.647C8.20654 29.6952 6.59309 29.8601 6.39342 30.0261C5.8133 30.5074 5.98548 31.5194 6.74937 32.1203C7.23141 32.4994 7.85302 32.6788 8.68508 32.6788C10.1484 32.6788 11.8969 33.4818 12.6276 34.4892C12.9502 34.9338 13.1956 35.8004 13.263 36.7308C13.3573 38.0338 13.2517 38.4798 12.5137 39.8981C11.6293 41.597 11.6075 42.2502 12.4083 43.051C13.3724 44.0153 13.7197 43.6262 17.475 37.3764C19.4845 34.032 21.1284 31.07 21.1284 30.794C21.1284 30.5181 20.9379 30.1018 20.7051 29.8688C20.2646 29.4285 19.4072 29.4107 10.0983 29.647ZM25.9763 29.9084C25.681 30.1153 25.4396 30.5316 25.4396 30.8339C25.4396 31.548 32.0556 42.5651 32.6875 42.9033C33.0246 43.0838 33.336 43.0456 33.72 42.7767C34.6351 42.1356 34.6898 41.192 33.8997 39.6807C33.3024 38.5382 33.2083 38.0683 33.3064 36.7133C33.4018 35.393 33.5651 34.9519 34.2139 34.2621C35.2844 33.1237 36.4366 32.6788 38.3136 32.6788C39.5258 32.6788 40.024 32.5525 40.4778 32.1294C41.1277 31.524 41.2557 30.4707 40.7308 30.0498C40.5349 29.8927 37.4896 29.7278 33.4535 29.6562C27.8013 29.5554 26.4134 29.6023 25.9763 29.9084ZM22.1106 32.2073C20.7994 34.312 15.7395 43.7766 15.7395 44.1239C15.7395 44.694 16.8881 45.1817 17.7318 44.97C18.15 44.8649 18.7535 44.2834 19.2819 43.4761C20.814 41.1363 23.3832 40.3551 25.4348 41.6056C26.5109 42.2617 26.8547 42.6514 27.6122 44.0738C28.2914 45.3491 29.2097 45.8225 30.1625 45.3884C30.5373 45.2179 30.9124 44.8991 30.9964 44.6803C31.1497 44.2804 24.5669 32.1847 23.9905 31.8072C23.3937 31.4165 22.4824 31.6102 22.1106 32.2073ZM6.03021 33.963C4.24781 34.8158 3.50494 36.0747 3.46291 38.3127C3.44459 39.2895 3.33304 40.5621 3.21475 41.1406L3 42.1922L3.96489 42.0357C4.65198 41.9241 4.9535 41.9834 5.01304 42.2415C5.08229 42.5433 5.27683 42.5406 6.17409 42.2262C6.76688 42.0182 7.53265 41.8463 7.87593 41.8441C9.26924 41.8349 11.0344 40.3395 11.4429 38.8217C11.8252 37.4025 11.3879 35.9704 10.2296 34.8479C9.4433 34.0856 9.05773 33.9231 7.86677 33.8512C7.08402 33.804 6.25762 33.8544 6.03021 33.963ZM36.9192 34.6366C35.0196 35.7257 34.347 38.0346 35.3693 39.9582C36.5524 42.1849 39.1505 42.7783 41.3583 41.3257C42.0133 40.8946 43.0647 40.405 43.6947 40.2376C44.3247 40.0701 44.8398 39.8728 44.8398 39.7993C44.8398 39.7257 44.6475 39.3719 44.4125 39.0133C44.1773 38.6544 44.0566 38.2454 44.1439 38.1039C44.3538 37.7641 41.2435 34.6186 40.3686 34.2858C39.2677 33.8674 38.0441 33.9919 36.9192 34.6366ZM21.5191 43.297C19.4344 44.205 18.5065 46.6532 19.4918 48.6441C20.3344 50.346 21.2034 50.8666 23.2016 50.8666C24.7401 50.8666 24.946 50.7938 25.8314 49.9353C26.9986 48.8042 27.4179 47.4941 27.0498 46.1275C26.359 43.5616 23.8544 42.2798 21.5191 43.297Z" fill="#3D6097"/>
<path fill-rule="evenodd" clip-rule="evenodd" d="M12.8905 15.0111C12.1778 15.7238 12.2109 16.5413 13.0225 18.2851C13.8416 20.0444 13.8675 20.9594 13.1408 22.4605C12.3521 24.0896 11.1851 24.726 8.57499 24.9502C6.90037 25.0941 6.34584 25.2498 6.03275 25.6637C5.51109 26.3537 5.51298 26.9953 6.03867 27.5213C6.40216 27.8845 7.46405 27.9446 13.5293 27.9446C20.9378 27.9446 21.2436 27.8971 21.2431 26.7455C21.2428 26.1705 14.6853 15.0259 14.1426 14.6783C13.6692 14.3752 13.4746 14.4269 12.8905 15.0111ZM4.05177 15.412C3.43689 15.9293 3.13726 16.5027 2.88398 17.6476C2.65737 18.6723 2.28527 19.4481 1.7717 19.9665L1 20.7457L1.89322 20.5773C2.38442 20.4849 2.98987 20.3768 3.23884 20.3372C3.5355 20.2901 3.90977 20.674 4.32337 21.4495C6.32159 25.1948 11.8081 23.8137 11.8116 19.5642C11.8129 18.0461 10.9882 16.6932 9.6517 16.022C8.62941 15.5085 7.06365 15.4082 6.42371 15.8154C6.11654 16.011 5.98425 15.9293 5.87296 15.4759C5.66495 14.6282 5.01046 14.6053 4.05177 15.412ZM10.2132 29.4933C8.32144 29.5416 6.70798 29.7065 6.50832 29.8725C5.9282 30.3537 6.10038 31.3657 6.86426 31.9666C7.3463 32.3457 7.96792 32.5252 8.79997 32.5252C10.2633 32.5252 12.0118 33.3281 12.7425 34.3356C13.0651 34.7802 13.3105 35.6467 13.3779 36.5771C13.4722 37.8802 13.3666 38.3261 12.6286 39.7445C11.7442 41.4433 11.7224 42.0965 12.5232 42.8973C13.4873 43.8616 13.8346 43.4726 17.5899 37.2227C19.5994 33.8783 21.2433 30.9163 21.2433 30.6404C21.2433 30.3645 21.0528 29.9482 20.82 29.7151C20.3795 29.2748 19.5221 29.257 10.2132 29.4933ZM6.1451 33.8094C4.36271 34.6622 3.61984 35.921 3.57781 38.159C3.55948 39.1358 3.44793 40.4084 3.32964 40.9869L3.1149 42.0386L4.07979 41.882C4.76688 41.7705 5.06839 41.8297 5.12794 42.0879C5.19719 42.3897 5.39173 42.387 6.28899 42.0725C6.88178 41.8645 7.64755 41.6926 7.99082 41.6904C9.38414 41.6813 11.1493 40.1858 11.5578 38.668C11.9401 37.2489 11.5028 35.8167 10.3444 34.6942C9.5582 33.932 9.17262 33.7695 7.98166 33.6975C7.19892 33.6504 6.37252 33.7008 6.1451 33.8094Z" fill="#4D78BB"/>
</svg>
