<svg width="149" height="51" viewBox="0 0 149 51" fill="none" xmlns="http://www.w3.org/2000/svg">
<path d="M119.415 40.0687C136.011 40.0687 145.758 33.6597 145.758 33.6597L145.751 43.0948C145.751 43.0948 136.298 50.9552 119.421 50.9552H119.415C102.539 50.9552 93.0863 43.0948 93.0863 43.0948L93.0785 33.6597C93.0785 33.6597 102.82 40.0666 119.415 40.0666V40.0687Z" fill="#6A92D0"/>
<path d="M40.453 0.76514C38.6075 0.743317 36.7761 1.08698 35.0647 1.77621C33.3534 2.46544 31.7962 3.48654 30.4834 4.78035C29.1706 6.07418 28.1284 7.61498 27.417 9.31347C26.7057 11.012 26.3393 12.8344 26.3393 14.6751C26.3393 17.4476 27.17 20.1568 28.7246 22.4551C30.2793 24.7534 32.4871 26.5359 35.0646 27.5739C37.6161 28.6015 40.4152 28.8535 43.1099 28.2982C45.8046 27.7429 48.2745 26.4051 50.2087 24.4531C52.1329 22.5111 53.4416 20.0473 53.9716 17.3686C54.5017 14.69 54.2298 11.915 53.1896 9.38946C52.1495 6.86391 50.3872 4.69949 48.1224 3.1659C45.8575 1.63231 43.1903 0.797377 40.453 0.76514ZM40.453 19.8569C37.6582 19.8569 35.3997 17.4614 35.3997 14.6741C35.3997 11.8868 37.6661 9.49321 40.453 9.49321C43.2478 9.49321 45.5083 11.8868 45.5083 14.6741C45.5083 17.4614 43.2497 19.8569 40.453 19.8569ZM28.5808 1.42518H18.9121L14.7484 10.4197L9.96418 1.42518H0.391785L10.1272 18.9363L5.59425 27.9308H15.2886L28.5808 1.42518ZM135.052 0.76514C133.206 0.743291 131.375 1.08698 129.664 1.77629C127.952 2.46522 126.395 3.48622 125.082 4.78007C123.77 6.07391 122.727 7.61484 122.016 9.31349C121.305 11.0118 120.938 12.8343 120.938 14.6751C120.938 16.5159 121.305 18.3383 122.016 20.0367C122.727 21.7352 123.769 23.276 125.082 24.5697C126.395 25.8638 127.952 26.8849 129.664 27.5739C132.215 28.6016 135.014 28.8537 137.709 28.2983C140.403 27.743 142.873 26.4052 144.807 24.4531C147.388 21.8494 148.835 18.3361 148.835 14.6751C148.835 11.0141 147.388 7.50077 144.807 4.8971C142.227 2.29305 138.722 0.808402 135.052 0.76514ZM135.052 19.8569C132.257 19.8569 129.999 17.4614 129.999 14.6741C129.999 11.8868 132.266 9.49321 135.052 9.49321C137.841 9.49321 140.107 11.8868 140.107 14.6741C140.113 17.4614 137.848 19.8569 135.052 19.8569ZM73.497 1.4722V16.3214C73.4662 17.2402 73.0787 18.1112 72.4161 18.7504C71.7535 19.3896 70.8678 19.7469 69.946 19.747C69.0242 19.747 68.1385 19.3897 67.476 18.7505C66.8134 18.1113 66.4258 17.2402 66.3952 16.3214V1.4722H57.4984V17.2361C57.4984 24.1563 62.7246 28.5851 69.5985 28.5851H70.2799C77.1539 28.5851 82.382 24.1583 82.382 17.2361V1.4722H73.497ZM104.278 1.4722H93.0189V27.9308H104.412C112.715 27.9308 118.499 22.0095 118.499 14.7015V14.3607C118.506 7.05463 112.471 1.4722 104.278 1.4722ZM109.796 14.7015C109.796 17.3889 107.902 19.5024 104.712 19.5964C103.043 19.6493 101.537 19.5964 101.537 19.5964V9.8067C101.537 9.8067 102.88 9.75377 104.712 9.8067C107.968 9.90074 109.794 12.0141 109.794 14.7035L109.796 14.7015Z" fill="#3D6097"/>
</svg>
