<svg width="60" height="21" viewBox="0 0 60 21" fill="none" xmlns="http://www.w3.org/2000/svg">
<path d="M48.0625 16.1271C54.7374 16.1271 58.6577 13.5493 58.6577 13.5493L58.6547 17.3442C58.6547 17.3442 54.8528 20.5057 48.065 20.5057H48.0625C41.2748 20.5057 37.4729 17.3442 37.4729 17.3442L37.4697 13.5493C37.4697 13.5493 41.3878 16.1262 48.0625 16.1262V16.1271Z" fill="#A3A5AA"/>
<path d="M16.3035 0.318998C15.5613 0.31022 14.8246 0.448442 14.1363 0.725656C13.448 1.00287 12.8217 1.41356 12.2937 1.93394C11.7657 2.45432 11.3465 3.07404 11.0604 3.75719C10.7743 4.44033 10.6269 5.17331 10.6269 5.91366C10.6269 7.02876 10.961 8.11842 11.5863 9.04281C12.2116 9.9672 13.0996 10.6841 14.1363 11.1016C15.1625 11.515 16.2883 11.6163 17.3722 11.393C18.456 11.1696 19.4494 10.6315 20.2273 9.84643C21.0012 9.06535 21.5276 8.07438 21.7408 6.99702C21.954 5.91966 21.8446 4.80354 21.4263 3.78775C21.0079 2.77196 20.2991 1.90141 19.3882 1.2846C18.4773 0.667779 17.4045 0.331964 16.3035 0.318998ZM16.3035 7.9978C15.1795 7.9978 14.2711 7.03433 14.2711 5.91328C14.2711 4.79219 15.1826 3.82948 16.3035 3.82948C17.4276 3.82948 18.3368 4.79219 18.3368 5.91328C18.3368 7.03433 17.4284 7.9978 16.3035 7.9978ZM11.5284 0.584471H7.63965L5.96499 4.20213L4.04075 0.584471H0.190674L4.10632 7.62753L2.28314 11.2452H6.18225L11.5284 0.584471ZM54.3517 0.318998C53.6095 0.31021 52.8729 0.448443 52.1846 0.725686C51.4963 1.00278 50.8699 1.41343 50.3419 1.93382C49.8139 2.45422 49.3948 3.07399 49.1088 3.75719C48.8225 4.44028 48.675 5.17329 48.675 5.91366C48.675 6.65404 48.8225 7.38704 49.1088 8.07013C49.3948 8.75328 49.8139 9.373 50.3419 9.89335C50.8699 10.4138 51.4962 10.8245 52.1846 11.1016C53.2108 11.515 54.3366 11.6164 55.4204 11.393C56.5042 11.1697 57.4975 10.6316 58.2754 9.84643C59.3133 8.79922 59.8953 7.38613 59.8953 5.91366C59.8953 4.4412 59.3133 3.02811 58.2754 1.9809C57.2377 0.933531 55.8279 0.336398 54.3517 0.318998ZM54.3517 7.9978C53.2277 7.9978 52.3193 7.03433 52.3193 5.91328C52.3193 4.79219 53.2311 3.82948 54.3517 3.82948C55.4735 3.82948 56.3849 4.79219 56.3849 5.91328C56.3875 7.03433 55.4765 7.9978 54.3517 7.9978ZM29.594 0.603382V6.5758C29.5816 6.94537 29.4258 7.29569 29.1593 7.55277C28.8928 7.80985 28.5366 7.95358 28.1658 7.95361C27.795 7.95361 27.4388 7.80989 27.1723 7.5528C26.9058 7.29571 26.75 6.94538 26.7376 6.5758V0.603382H23.1593V6.94373C23.1593 9.72706 25.2613 11.5083 28.026 11.5083H28.3001C31.0648 11.5083 33.1676 9.72787 33.1676 6.94373V0.603382H29.594ZM41.9745 0.603382H37.4458V11.2452H42.0282C45.3678 11.2452 47.6942 8.86362 47.6942 5.92429V5.7872C47.6968 2.84867 45.2694 0.603382 41.9745 0.603382ZM44.1936 5.92429C44.1936 7.00518 43.4317 7.85523 42.149 7.89305C41.4776 7.9143 40.8717 7.89305 40.8717 7.89305V3.95557C40.8717 3.95557 41.4121 3.93428 42.149 3.95557C43.4586 3.99339 44.1927 4.8434 44.1927 5.9251L44.1936 5.92429Z" fill="#72747A"/>
</svg>
