<svg width="188" height="45" viewBox="0 0 188 45" fill="none" xmlns="http://www.w3.org/2000/svg">
<path d="M2.84 36.8145V9.29445H12.4L17.88 25.6145H18.16L23.64 9.29445H33.16V36.8145H26.48V18.9345H26.2L20.24 36.8145H15.56L9.64 18.9345H9.32V36.8145H2.84ZM39.6556 36.8145V9.29445H58.9356V14.6545H46.6156V20.2945H57.0556V25.5745H46.6156V31.4545H58.9356V36.8145H39.6556ZM64.7134 36.8145V9.29445H71.6734V20.1745H73.7134L81.2334 9.29445H88.7534L79.3534 22.3745L88.8734 36.8145H81.0734L73.7134 25.4545H71.6734V36.8145H64.7134Z" fill="#3D6097"/>
<path d="M122.84 36.8145V9.29445H132.4L137.88 25.6145H138.16L143.64 9.29445H153.16V36.8145H146.48V18.9345H146.2L140.24 36.8145H135.56L129.64 18.9345H129.32V36.8145H122.84Z" fill="#3D6097"/>
<path d="M104.28 37.2545C102.253 37.2545 100.36 36.8945 98.6 36.1745C96.84 35.4278 95.2933 34.4011 93.96 33.0945C92.6533 31.7611 91.6267 30.2278 90.88 28.4945C90.16 26.7345 89.8 24.8411 89.8 22.8145C89.8 20.7878 90.16 18.9078 90.88 17.1745C91.6267 15.4145 92.6533 13.8811 93.96 12.5745C95.2933 11.2411 96.84 10.2145 98.6 9.49445C100.36 8.74779 102.253 8.37445 104.28 8.37445C106.307 8.37445 108.2 8.74779 109.96 9.49445C111.72 10.2145 113.253 11.2411 114.56 12.5745C115.893 13.8811 116.92 15.4145 117.64 17.1745C118.387 18.9078 118.76 20.7878 118.76 22.8145C118.76 24.8411 118.387 26.7345 117.64 28.4945C116.92 30.2278 115.893 31.7611 114.56 33.0945C113.253 34.4011 111.72 35.4278 109.96 36.1745C108.2 36.8945 106.307 37.2545 104.28 37.2545ZM104.28 31.1345C105.32 31.1345 106.293 30.9345 107.2 30.5345C108.107 30.1078 108.893 29.5211 109.56 28.7745C110.227 28.0011 110.747 27.1211 111.12 26.1345C111.493 25.1211 111.68 24.0145 111.68 22.8145C111.68 21.6145 111.493 20.5211 111.12 19.5345C110.747 18.5211 110.227 17.6411 109.56 16.8945C108.893 16.1211 108.107 15.5345 107.2 15.1345C106.293 14.7078 105.32 14.4945 104.28 14.4945C103.24 14.4945 102.267 14.7078 101.36 15.1345C100.453 15.5345 99.6667 16.1211 99 16.8945C98.3333 17.6411 97.8133 18.5211 97.44 19.5345C97.0667 20.5211 96.88 21.6145 96.88 22.8145C96.88 24.0145 97.0667 25.1211 97.44 26.1345C97.8133 27.1211 98.3333 28.0011 99 28.7745C99.6667 29.5211 100.453 30.1078 101.36 30.5345C102.267 30.9345 103.24 31.1345 104.28 31.1345Z" fill="#3D6097"/>
<path d="M171.28 37.2545C169.253 37.2545 167.36 36.8945 165.6 36.1745C163.84 35.4278 162.293 34.4011 160.96 33.0945C159.653 31.7611 158.627 30.2278 157.88 28.4945C157.16 26.7345 156.8 24.8411 156.8 22.8145C156.8 20.7878 157.16 18.9078 157.88 17.1745C158.627 15.4145 159.653 13.8811 160.96 12.5745C162.293 11.2411 163.84 10.2145 165.6 9.49445C167.36 8.74779 169.253 8.37445 171.28 8.37445C173.307 8.37445 175.2 8.74779 176.96 9.49445C178.72 10.2145 180.253 11.2411 181.56 12.5745C182.893 13.8811 183.92 15.4145 184.64 17.1745C185.387 18.9078 185.76 20.7878 185.76 22.8145C185.76 24.8411 185.387 26.7345 184.64 28.4945C183.92 30.2278 182.893 31.7611 181.56 33.0945C180.253 34.4011 178.72 35.4278 176.96 36.1745C175.2 36.8945 173.307 37.2545 171.28 37.2545ZM171.28 31.1345C172.32 31.1345 173.293 30.9345 174.2 30.5345C175.107 30.1078 175.893 29.5211 176.56 28.7745C177.227 28.0011 177.747 27.1211 178.12 26.1345C178.493 25.1211 178.68 24.0145 178.68 22.8145C178.68 21.6145 178.493 20.5211 178.12 19.5345C177.747 18.5211 177.227 17.6411 176.56 16.8945C175.893 16.1211 175.107 15.5345 174.2 15.1345C173.293 14.7078 172.32 14.4945 171.28 14.4945C170.24 14.4945 169.267 14.7078 168.36 15.1345C167.453 15.5345 166.667 16.1211 166 16.8945C165.333 17.6411 164.813 18.5211 164.44 19.5345C164.067 20.5211 163.88 21.6145 163.88 22.8145C163.88 24.0145 164.067 25.1211 164.44 26.1345C164.813 27.1211 165.333 28.0011 166 28.7745C166.667 29.5211 167.453 30.1078 168.36 30.5345C169.267 30.9345 170.24 31.1345 171.28 31.1345Z" fill="#3D6097"/>
</svg>
