<svg width="214" height="57" viewBox="0 0 214 57" fill="none" xmlns="http://www.w3.org/2000/svg">
<path fill-rule="evenodd" clip-rule="evenodd" d="M165.613 14.8203V43.0681L190.056 56.9442V38.3292L189.557 38.6079L181.576 34.1477V24.7318L182.291 24.288L165.613 14.8203Z" fill="#72747A"/>
<path fill-rule="evenodd" clip-rule="evenodd" d="M165.613 14.8204L190.056 0.944336L214 14.8204L197.229 24.5397L189.557 19.7762L182.291 24.2881L165.613 14.8204Z" fill="#ACB1BC"/>
<path fill-rule="evenodd" clip-rule="evenodd" d="M197.229 24.5396L197.538 24.7318V34.1477L190.056 38.3292V56.9442L214 43.0681V14.8203L197.229 24.5396Z" fill="#606369"/>
<path d="M62.0251 41.5816V31.5234L53.5739 13.7937H59.8801L62.5828 20.3997C62.9546 21.451 63.3264 22.4738 63.6982 23.4683C64.0986 24.4627 64.499 25.4856 64.8994 26.5369H65.071C65.5 25.4856 65.9147 24.4627 66.3151 23.4683C66.7155 22.4738 67.1159 21.451 67.5163 20.3997L70.1761 13.7937H76.3536L67.9024 31.5234V41.5816H62.0251Z" fill="#72747A"/>
<path d="M79.4253 41.5816V13.7937H85.3026V25.5566H85.4742L94.3115 13.7937H100.832L92.2952 24.7895L102.334 41.5816H95.8559L88.8204 29.3924L85.3026 33.9101V41.5816H79.4253Z" fill="#72747A"/>
<path d="M116.807 42.093C114.319 42.093 112.117 41.5105 110.201 40.3456C108.313 39.1807 106.84 37.5185 105.782 35.3591C104.724 33.1713 104.195 30.5715 104.195 27.5597C104.195 24.548 104.724 21.9766 105.782 19.8456C106.84 17.7147 108.313 16.0951 110.201 14.987C112.117 13.8505 114.319 13.2822 116.807 13.2822C119.295 13.2822 121.483 13.8505 123.371 14.987C125.258 16.0951 126.731 17.7147 127.789 19.8456C128.848 21.9766 129.377 24.548 129.377 27.5597C129.377 30.5715 128.848 33.1713 127.789 35.3591C126.731 37.5185 125.258 39.1807 123.371 40.3456C121.483 41.5105 119.295 42.093 116.807 42.093ZM116.807 37.0213C118.123 37.0213 119.267 36.6377 120.239 35.8705C121.24 35.1034 121.998 34.0095 122.513 32.5888C123.056 31.1682 123.328 29.4918 123.328 27.5597C123.328 25.6277 123.056 23.9797 122.513 22.6159C121.998 21.2237 121.24 20.1582 120.239 19.4194C119.267 18.6807 118.123 18.3113 116.807 18.3113C115.463 18.3113 114.29 18.6807 113.289 19.4194C112.317 20.1582 111.559 21.2237 111.016 22.6159C110.501 23.9797 110.243 25.6277 110.243 27.5597C110.243 29.4918 110.501 31.1682 111.016 32.5888C111.559 34.0095 112.317 35.1034 113.289 35.8705C114.29 36.6377 115.463 37.0213 116.807 37.0213Z" fill="#72747A"/>
<path d="M0 42.0769V13.8291H6.86496L11.8205 27.0105C12.1235 27.8628 12.4115 28.7592 12.6843 29.6997C12.9873 30.6108 13.2904 31.5218 13.5935 32.4329H13.7754C14.0785 31.5218 14.3664 30.6108 14.6392 29.6997C14.9423 28.7592 15.2454 27.8628 15.5484 27.0105L20.3221 13.8291H27.2325V42.0769H21.5041V31.1545C21.5041 30.2434 21.5496 29.2294 21.6405 28.1126C21.7618 26.9664 21.883 25.8202 22.0042 24.674C22.1255 23.5278 22.2316 22.4991 22.3225 21.588H22.1406L19.7311 28.3771L15.3211 41.0067H11.775L7.36505 28.3771L5.00096 21.588H4.81911C4.91004 22.4991 5.01612 23.5278 5.13735 24.674C5.25859 25.8202 5.36467 26.9664 5.4556 28.1126C5.54652 29.2294 5.59199 30.2434 5.59199 31.1545V42.0769H0Z" fill="#72747A"/>
<path d="M30.5893 42.0769L40.9979 13.8291H46.4586L56.8671 42.0769H51.2726L46.1832 27.7599C45.7589 26.2904 45.3346 24.7475 44.9103 23.131C44.5163 21.5146 44.1071 19.9422 43.6828 18.4139H43.5009C43.1372 19.9422 42.7432 21.5146 42.3189 23.131C41.9249 24.7475 41.5157 26.2904 41.0914 27.7599L35.9565 42.0769H30.5893ZM36.5905 36.4219V31.7048H50.775V36.4219H36.5905Z" fill="#72747A"/>
<path d="M137.126 31.6586V41.5813H131.692V13.8291H144.659C147.753 13.8291 150.141 14.5703 151.824 16.0527C153.506 17.5215 154.347 19.6363 154.347 22.397C154.347 24.4098 153.831 26.1506 152.8 27.6194C151.768 29.0746 150.375 30.0334 148.619 30.4958L153.641 41.5813H148.154L143.499 31.6586H137.126ZM148.877 22.6418C148.877 21.2682 148.478 20.2346 147.68 19.5411C146.881 18.8475 145.684 18.5007 144.088 18.5007H137.126V26.987H144.235C145.758 26.987 146.912 26.6062 147.698 25.8446C148.484 25.083 148.877 24.0154 148.877 22.6418Z" fill="#72747A"/>
</svg>
