<svg width="363" height="196" viewBox="0 0 363 196" fill="none" xmlns="http://www.w3.org/2000/svg">
<path d="M205.95 37.9V0.220001H211.35V17.42H211.46L219.34 0.220001H224.74L217.39 15.31L226.12 37.9H220.4L214.26 21.18L211.35 26.63V37.9H205.95Z" fill="white"/>
<path d="M66.93 37.91V0.309998H81.93V5.38H72.32V37.91H66.93Z" fill="white"/>
<path d="M85.05 9.18C85.05 7.67 85.31 6.33 85.84 5.17C86.37 4.01 87.07 3.04 87.95 2.27C88.79 1.53 89.75 0.97 90.83 0.58C91.9 0.19 92.99 0 94.08 0C95.17 0 96.25 0.19 97.33 0.58C98.4 0.97 99.38 1.53 100.26 2.27C101.11 3.04 101.79 4.01 102.32 5.17C102.85 6.33 103.11 7.67 103.11 9.18V29.04C103.11 30.63 102.85 31.98 102.32 33.11C101.79 34.24 101.11 35.17 100.26 35.91C99.38 36.68 98.4 37.27 97.33 37.65C96.26 38.04 95.17 38.23 94.08 38.23C92.99 38.23 91.91 38.04 90.83 37.65C89.76 37.26 88.8 36.68 87.95 35.91C87.07 35.17 86.36 34.24 85.84 33.11C85.31 31.98 85.05 30.63 85.05 29.04V9.18ZM90.44 29.04C90.44 30.34 90.8 31.3 91.52 31.92C92.24 32.54 93.09 32.84 94.08 32.84C95.07 32.84 95.92 32.53 96.64 31.92C97.36 31.31 97.72 30.34 97.72 29.04V9.18C97.72 7.88 97.36 6.92 96.64 6.3C95.92 5.69 95.06 5.38 94.08 5.38C93.1 5.38 92.24 5.69 91.52 6.3C90.8 6.92 90.44 7.88 90.44 9.18V29.04Z" fill="white"/>
<path d="M116.4 5.06V15.99C116.4 16.55 116.38 17.51 116.35 18.87C116.31 20.23 116.23 21.71 116.09 23.33C115.95 24.95 115.74 26.55 115.46 28.14C115.18 29.72 114.79 31.04 114.3 32.1C113.46 33.89 112.38 35.31 111.08 36.35C109.78 37.39 108.19 37.91 106.33 37.91H106.01V32.52C107.07 32.45 107.89 32.13 108.49 31.57C109.09 31.01 109.58 30.3 109.97 29.46C110.29 28.72 110.54 27.82 110.74 26.77C110.93 25.71 111.08 24.59 111.19 23.39C111.3 22.2 111.37 20.96 111.4 19.69C111.44 18.42 111.45 17.21 111.45 16.05V0.309998H127.08V37.91H121.69V5.06H116.41H116.4Z" fill="white"/>
<path d="M132.41 0.309998H137.8V15.73H139.81C141.68 15.73 143.23 15.99 144.49 16.5C145.74 17.01 146.75 17.72 147.53 18.64C148.34 19.63 148.86 20.68 149.09 21.81C149.32 22.94 149.43 24.19 149.43 25.56V27.67C149.43 30.98 148.63 33.51 147.03 35.28C145.43 37.04 142.86 37.92 139.34 37.92H132.42V0.309998H132.41ZM137.8 20.48V32.52H139.7C140.79 32.52 141.64 32.36 142.26 32.05C142.87 31.73 143.34 31.29 143.66 30.73C143.98 30.17 144.17 29.5 144.24 28.72C144.31 27.95 144.35 27.1 144.35 26.19C144.35 24.25 144.05 22.83 143.45 21.91C143.1 21.42 142.64 21.06 142.08 20.83C141.52 20.6 140.74 20.49 139.76 20.49H137.81L137.8 20.48Z" fill="white"/>
<path d="M164.02 32.74C162.29 32.74 160.76 32.46 159.42 31.9C158.08 31.34 157.03 30.56 156.25 29.57C155.69 28.87 155.22 28.06 154.85 27.14C154.48 26.23 154.19 25.28 153.98 24.29C153.77 23.3 153.62 22.3 153.53 21.28C153.44 20.26 153.4 19.29 153.4 18.37C153.4 16.12 153.62 13.96 154.06 11.9C154.5 9.84 155.23 8.25 156.25 7.12C157.17 6.1 158.32 5.37 159.71 4.93C161.1 4.49 162.54 4.27 164.01 4.27H164.64V0.309998H170.03V4.27H170.66C172.14 4.27 173.57 4.49 174.96 4.93C176.35 5.37 177.5 6.1 178.42 7.12C179.44 8.25 180.17 9.84 180.61 11.9C181.05 13.96 181.27 16.12 181.27 18.37C181.27 19.29 181.23 20.26 181.14 21.28C181.05 22.3 180.9 23.31 180.69 24.29C180.48 25.28 180.19 26.23 179.82 27.14C179.45 28.06 178.98 28.87 178.42 29.57C177.64 30.56 176.59 31.33 175.25 31.9C173.91 32.46 172.38 32.74 170.65 32.74H170.02V37.92H164.63V32.74H164H164.02ZM163.75 9.13C163.01 9.17 162.35 9.26 161.77 9.42C161.19 9.58 160.65 9.9 160.16 10.4C159.88 10.72 159.63 11.18 159.42 11.8C159.21 12.42 159.03 13.09 158.89 13.83C158.75 14.57 158.64 15.34 158.57 16.15C158.5 16.96 158.47 17.72 158.47 18.42C158.47 19.12 158.5 19.92 158.55 20.72C158.6 21.51 158.69 22.26 158.81 22.97C158.94 23.67 159.08 24.32 159.26 24.9C159.44 25.48 159.65 25.93 159.89 26.25C160.28 26.78 160.77 27.2 161.37 27.52C161.97 27.84 162.71 27.99 163.59 27.99H164.75V9.13H163.74H163.75ZM169.93 9.13V27.99H171.09C171.97 27.99 172.71 27.83 173.31 27.52C173.91 27.2 174.4 26.78 174.79 26.25C175.04 25.93 175.25 25.48 175.42 24.9C175.6 24.32 175.75 23.68 175.87 22.97C175.99 22.27 176.08 21.52 176.13 20.72C176.18 19.93 176.21 19.16 176.21 18.42C176.21 17.68 176.17 16.96 176.1 16.15C176.03 15.34 175.92 14.56 175.78 13.83C175.64 13.09 175.46 12.41 175.25 11.8C175.04 11.19 174.79 10.72 174.51 10.4C174.02 9.91 173.48 9.58 172.9 9.42C172.32 9.26 171.66 9.16 170.92 9.13H169.92H169.93Z" fill="white"/>
<path d="M189.41 20.29C189.41 19.19 189.81 18.24 190.62 17.43C191.42 16.63 192.38 16.22 193.48 16.22C194.58 16.22 195.53 16.63 196.34 17.43C197.14 18.24 197.55 19.19 197.55 20.29C197.55 21.39 197.15 22.35 196.34 23.15C195.53 23.95 194.58 24.36 193.48 24.36C192.38 24.36 191.42 23.96 190.62 23.15C189.81 22.35 189.41 21.39 189.41 20.29Z" fill="white"/>
<path d="M238.57 5.06V15.99C238.57 16.55 238.55 17.51 238.52 18.87C238.48 20.23 238.39 21.71 238.26 23.33C238.12 24.95 237.91 26.55 237.63 28.14C237.35 29.72 236.96 31.04 236.47 32.1C235.63 33.89 234.55 35.31 233.25 36.35C231.95 37.39 230.36 37.91 228.5 37.91H228.18V32.52C229.24 32.45 230.06 32.13 230.66 31.57C231.26 31.01 231.75 30.3 232.14 29.46C232.46 28.72 232.71 27.82 232.91 26.77C233.1 25.71 233.25 24.59 233.36 23.39C233.47 22.2 233.54 20.96 233.57 19.69C233.61 18.42 233.62 17.21 233.62 16.05V0.309998H249.26V37.91H243.87V5.06H238.59H238.57Z" fill="white"/>
<path d="M255.82 32.84C256.31 32.84 256.87 32.79 257.51 32.68C258.15 32.57 258.64 32.35 258.99 31.99C259.27 31.71 259.58 31.26 259.91 30.64C260.24 30.02 260.55 29.15 260.83 28.02L261.3 25.96L253.18 0.309998H258.89L263.96 18H264.07L268.03 0.309998H273.73L265.91 28.88C265.42 30.61 264.89 32.14 264.32 33.48C263.76 34.82 262.96 35.89 261.94 36.7C261.1 37.41 260.21 37.84 259.27 37.99C258.33 38.15 257.31 38.23 256.18 38.23H255.44V32.84H255.81H255.82Z" fill="white"/>
<path d="M278.01 0.309998H293.43V5.38H283.39V15.73H285.5C287.37 15.73 288.92 15.98 290.17 16.47C291.42 16.96 292.43 17.67 293.21 18.58C294.02 19.57 294.53 20.63 294.74 21.78C294.95 22.92 295.07 24.18 295.11 25.56V27.67C295.11 30.98 294.31 33.51 292.71 35.28C291.11 37.04 288.54 37.92 285.02 37.92H278V0.309998H278.01ZM283.4 20.48V32.52H285.41C286.5 32.52 287.35 32.36 287.97 32.05C288.59 31.73 289.05 31.29 289.37 30.73C289.69 30.17 289.88 29.5 289.95 28.72C290.02 27.95 290.06 27.1 290.06 26.19C290.06 25.28 290 24.4 289.88 23.68C289.76 22.96 289.52 22.37 289.17 21.91C288.82 21.45 288.36 21.1 287.8 20.85C287.24 20.61 286.46 20.48 285.48 20.48H283.42H283.4Z" fill="white"/>
<path d="M238.75 129.59V59.93H248.73V91.73H248.92L263.5 59.93H273.48L259.88 87.82L276.02 129.59H265.45L254.11 98.67L248.73 108.75V129.59H238.75Z" fill="white"/>
<path d="M17.57 98.64H9.95V129.59H0V60.08H9.96V89.86H17.58V76.48C17.58 73.68 18.07 71.21 19.04 69.06C20.02 66.91 21.32 65.12 22.95 63.69C24.51 62.32 26.25 61.28 28.17 60.56C30.09 59.85 32.06 59.49 34.08 59.49C38.25 59.49 41.99 60.89 45.31 63.69C46.87 65.12 48.14 66.91 49.12 69.06C50.1 71.21 50.59 73.68 50.59 76.48V113.19C50.59 116.12 50.1 118.62 49.12 120.71C48.15 122.79 46.88 124.52 45.31 125.88C43.68 127.31 41.91 128.39 39.99 129.1C38.07 129.82 36.1 130.18 34.08 130.18C32.06 130.18 30.09 129.82 28.17 129.1C26.25 128.39 24.51 127.31 22.95 125.88C21.32 124.51 20.02 122.79 19.04 120.71C18.06 118.63 17.58 116.12 17.58 113.19V98.64H17.57ZM27.53 113.19C27.53 115.6 28.16 117.37 29.43 118.51C30.7 119.65 32.25 120.22 34.07 120.22C35.89 120.22 37.44 119.65 38.71 118.51C39.98 117.37 40.61 115.6 40.61 113.19V76.48C40.61 74.07 39.98 72.3 38.71 71.16C37.44 70.02 35.89 69.45 34.07 69.45C32.25 69.45 30.7 70.02 29.43 71.16C28.16 72.3 27.53 74.07 27.53 76.48V113.19Z" fill="white"/>
<path d="M64.93 129.59V140.33H56.33V120.8H61.41C62 119.56 62.55 118.15 63.07 116.55C63.59 114.96 64.05 113.28 64.44 111.52C64.83 109.76 65.19 107.96 65.51 106.1C65.84 104.24 66.1 102.44 66.29 100.68C66.42 99.32 66.53 97.79 66.63 96.09C66.73 94.4 66.81 92.66 66.87 90.87C66.93 89.08 66.98 87.29 67.02 85.5C67.05 83.71 67.07 82 67.07 80.37V60.06H95.68V120.79H101.35V140.32H92.75V129.58H64.93V129.59ZM76.45 68.86V80.28C76.45 81.19 76.42 82.51 76.35 84.23C76.28 85.96 76.19 87.83 76.06 89.84C75.93 91.86 75.8 93.89 75.67 95.94C75.54 97.99 75.38 99.8 75.18 101.36C75.05 102.66 74.84 104.14 74.55 105.8C74.26 107.46 73.91 109.17 73.52 110.93C73.13 112.69 72.71 114.43 72.25 116.15C71.79 117.88 71.27 119.42 70.69 120.79H85.73V68.85H76.45V68.86Z" fill="white"/>
<path d="M134.16 129.59V84.48H133.97L120.88 129.59H110.92V60.08H120.88V105.28H121.08L134.16 60.08H144.12V129.59H134.16Z" fill="white"/>
<path d="M155.83 129.59V60.08H165.79V89.85H178.09V60.08H188.05V129.59H178.09V98.64H165.79V129.59H155.83Z" fill="white"/>
<path d="M230.31 109.77V114.07C230.31 116.22 229.9 118.25 229.09 120.17C228.28 122.09 227.15 123.8 225.72 125.3C224.29 126.8 222.61 127.98 220.69 128.86C218.77 129.74 216.7 130.18 214.49 130.18C212.6 130.18 210.68 129.92 208.73 129.4C206.78 128.88 205.02 127.97 203.46 126.67C201.9 125.37 200.61 123.69 199.61 121.64C198.6 119.59 198.1 116.97 198.1 113.78V75.51C198.1 73.23 198.49 71.11 199.27 69.16C200.05 67.21 201.16 65.52 202.59 64.08C204.02 62.65 205.73 61.53 207.72 60.71C209.7 59.89 211.9 59.49 214.31 59.49C219 59.49 222.8 61.02 225.73 64.08C227.16 65.58 228.29 67.35 229.1 69.4C229.91 71.45 230.32 73.68 230.32 76.09V79.99H220.36V76.67C220.36 74.72 219.8 73.03 218.7 71.59C217.59 70.16 216.09 69.44 214.21 69.44C211.73 69.44 210.09 70.21 209.28 71.74C208.46 73.27 208.06 75.21 208.06 77.55V113.09C208.06 115.11 208.5 116.8 209.38 118.17C210.26 119.53 211.84 120.22 214.12 120.22C214.77 120.22 215.47 120.11 216.22 119.88C216.97 119.65 217.67 119.28 218.32 118.76C218.9 118.24 219.39 117.53 219.78 116.61C220.17 115.7 220.37 114.56 220.37 113.19V109.77H230.33H230.31Z" fill="white"/>
<path d="M281.67 129.59L297.19 60.07H305.49L321.02 129.59H311.06L308.13 114.65H294.56L291.63 129.59H281.67ZM306.27 105.28L301.39 80.09H301.19L296.31 105.28H306.27Z" fill="white"/>
<path d="M352.09 129.59V99.91H347.5L338.81 129.59H328.66L338.13 98.64C336.57 98.06 335.2 97.18 334.03 96C332.86 94.83 331.91 93.49 331.2 91.99C330.48 90.49 330 88.74 329.73 86.72C329.46 84.7 329.34 82.62 329.34 80.47C329.34 66.86 335.2 60.06 346.92 60.06H362.05V129.58H352.09V129.59ZM347.79 69.45C344.27 69.45 341.98 70.38 340.91 72.23C339.84 74.08 339.3 76.77 339.3 80.29C339.3 82.05 339.4 83.59 339.6 84.93C339.79 86.27 340.15 87.39 340.67 88.3C341.26 89.21 342.07 89.91 343.11 90.4C344.15 90.89 345.55 91.13 347.31 91.13H352.1V69.45H347.8H347.79Z" fill="white"/>
<path d="M113.57 189.41V195.25H108.9V184.63H111.66C111.98 183.96 112.28 183.19 112.56 182.32C112.84 181.45 113.09 180.54 113.3 179.59C113.51 178.63 113.71 177.65 113.88 176.64C114.05 175.63 114.2 174.65 114.3 173.69C114.37 172.95 114.43 172.12 114.49 171.2C114.54 170.28 114.59 169.33 114.62 168.36C114.65 167.39 114.68 166.41 114.7 165.44C114.72 164.47 114.73 163.54 114.73 162.65V151.61H130.29V184.63H133.37V195.25H128.7V189.41H113.57ZM119.84 156.39V162.6C119.84 163.1 119.82 163.81 119.79 164.75C119.75 165.69 119.7 166.71 119.63 167.8C119.56 168.9 119.49 170 119.42 171.12C119.35 172.24 119.26 173.22 119.16 174.07C119.09 174.78 118.97 175.58 118.81 176.49C118.65 177.39 118.46 178.32 118.25 179.28C118.04 180.24 117.81 181.18 117.56 182.12C117.31 183.06 117.03 183.9 116.71 184.64H124.89V156.39H119.85H119.84Z" fill="white"/>
<path d="M136.56 160.53C136.56 159.01 136.82 157.66 137.36 156.5C137.89 155.33 138.6 154.36 139.48 153.58C140.33 152.84 141.29 152.27 142.37 151.88C143.45 151.49 144.54 151.3 145.64 151.3C146.74 151.3 147.82 151.49 148.91 151.88C149.99 152.27 150.97 152.84 151.86 153.58C152.71 154.36 153.4 155.33 153.93 156.5C154.46 157.67 154.73 159.01 154.73 160.53V180.49C154.73 182.08 154.47 183.45 153.93 184.58C153.4 185.71 152.71 186.65 151.86 187.39C150.97 188.17 149.99 188.75 148.91 189.14C147.83 189.53 146.74 189.73 145.64 189.73C144.54 189.73 143.45 189.54 142.37 189.14C141.29 188.75 140.33 188.17 139.48 187.39C138.59 186.65 137.89 185.71 137.36 184.58C136.83 183.45 136.56 182.08 136.56 180.49V160.53ZM141.98 180.49C141.98 181.8 142.34 182.76 143.07 183.38C143.79 184 144.65 184.31 145.64 184.31C146.63 184.31 147.49 184 148.21 183.38C148.94 182.76 149.3 181.8 149.3 180.49V160.53C149.3 159.22 148.94 158.26 148.21 157.64C147.48 157.02 146.63 156.71 145.64 156.71C144.65 156.71 143.79 157.02 143.07 157.64C142.34 158.26 141.98 159.22 141.98 160.53V180.49Z" fill="white"/>
<path d="M168.26 156.39V167.38C168.26 167.95 168.24 168.91 168.21 170.27C168.17 171.63 168.09 173.13 167.95 174.76C167.81 176.39 167.6 178 167.31 179.59C167.02 181.18 166.64 182.51 166.14 183.57C165.29 185.37 164.21 186.8 162.9 187.84C161.59 188.88 160 189.41 158.12 189.41H157.8V183.99C158.86 183.92 159.69 183.6 160.29 183.03C160.89 182.46 161.39 181.76 161.78 180.91C162.1 180.17 162.36 179.26 162.55 178.2C162.74 177.14 162.89 176.01 163 174.8C163.11 173.6 163.18 172.36 163.21 171.08C163.25 169.81 163.26 168.59 163.26 167.42V151.6H178.98V189.4H173.57V156.38H168.26V156.39Z" fill="white"/>
<path d="M198.46 189.41V164.88H198.35L191.24 189.41H185.83V151.61H191.24V176.19H191.35L198.46 151.61H203.88V189.41H198.46Z" fill="white"/>
<path d="M209.84 189.41V151.61H215.25V167.8H221.94V151.61H227.36V189.41H221.94V172.58H215.25V189.41H209.84Z" fill="white"/>
<path d="M231.76 189.41L240.2 151.61H244.71L253.15 189.41H247.73L246.14 181.29H238.76L237.17 189.41H231.75H231.76ZM245.14 176.19L242.48 162.49H242.37L239.72 176.19H245.14Z" fill="white"/>
</svg>
