<svg width="156" height="42" viewBox="0 0 156 42" fill="none" xmlns="http://www.w3.org/2000/svg">
<g clip-path="url(#clip0_383_591)">
<path d="M59.7113 16.2388V0.0988331H62.0294V7.46838H62.0725L65.4592 0.0988331H67.7774L64.619 6.56169L68.372 16.2388H65.916L63.279 9.07551L62.0294 11.4131V16.2388H59.7113Z" fill="white"/>
<path d="M0 16.2431V0.137508H6.44165V2.30755H2.31382V16.2431H0Z" fill="white"/>
<path d="M7.786 3.93616C7.786 3.28729 7.89802 2.71578 8.12639 2.21731C8.35476 1.71885 8.65637 1.30632 9.03555 0.975445C9.39749 0.657459 9.81113 0.41682 10.2722 0.249233C10.7332 0.0816452 11.1986 0 11.6682 0C12.1379 0 12.6032 0.0816452 13.0643 0.249233C13.5253 0.41682 13.9433 0.657459 14.3224 0.975445C14.6844 1.30632 14.9817 1.72314 15.2057 2.21731C15.4341 2.71578 15.5461 3.28729 15.5461 3.93616V12.4401C15.5461 13.1191 15.4341 13.6992 15.2057 14.1805C14.9817 14.6618 14.6844 15.0614 14.3224 15.3794C13.9433 15.7103 13.5253 15.9595 13.0643 16.1271C12.6032 16.2947 12.1379 16.3763 11.6682 16.3763C11.1986 16.3763 10.7332 16.2947 10.2722 16.1271C9.81113 15.9595 9.39749 15.7146 9.03555 15.3794C8.65637 15.0614 8.35476 14.6618 8.12639 14.1805C7.89802 13.6992 7.786 13.1191 7.786 12.4401V3.93616ZM10.0998 12.4401C10.0998 12.9988 10.2549 13.4113 10.5652 13.6734C10.8754 13.9355 11.2417 14.0688 11.6639 14.0688C12.0862 14.0688 12.4524 13.9355 12.7627 13.6734C13.0729 13.4113 13.228 12.9988 13.228 12.4401V3.93616C13.228 3.37753 13.0729 2.96501 12.7627 2.70289C12.4524 2.44076 12.0862 2.30755 11.6639 2.30755C11.2417 2.30755 10.8711 2.44076 10.5652 2.70289C10.2549 2.96501 10.0998 3.37753 10.0998 3.93616V12.4401Z" fill="white"/>
<path d="M21.2467 2.17004V6.8539C21.2467 7.09454 21.2381 7.50706 21.2251 8.08717C21.2079 8.66728 21.1734 9.30326 21.1131 9.99939C21.0528 10.6955 20.9623 11.3788 20.8417 12.0577C20.721 12.7366 20.553 13.2996 20.3418 13.7551C19.9799 14.5242 19.5189 15.1301 18.9587 15.577C18.3986 16.0239 17.7178 16.2431 16.9163 16.2431H16.7785V13.9355C17.2309 13.9055 17.5885 13.768 17.8427 13.5273C18.1013 13.2867 18.3124 12.9859 18.4804 12.6206C18.6183 12.3026 18.726 11.9202 18.8079 11.4647C18.8898 11.0135 18.9544 10.5322 19.0018 10.0166C19.0449 9.50522 19.075 8.97667 19.0923 8.43524C19.1095 7.8938 19.1138 7.37385 19.1138 6.87538V0.137508H25.8269V16.2431H23.5131V2.17004H21.2467Z" fill="white"/>
<path d="M28.1235 0.137508H30.4373V6.74217H31.2991C32.1005 6.74217 32.7684 6.8539 33.307 7.06876C33.8413 7.28791 34.2765 7.593 34.6126 7.98404C34.9616 8.40516 35.1813 8.86065 35.2804 9.34193C35.3795 9.8232 35.4269 10.3603 35.4269 10.949V11.8557C35.4269 13.2738 35.0822 14.361 34.3928 15.113C33.7034 15.8692 32.6047 16.2431 31.0923 16.2431H28.1192V0.137508H28.1235ZM30.4373 8.77901V13.9355H31.256C31.7257 13.9355 32.0919 13.8668 32.3548 13.7336C32.6176 13.5961 32.8201 13.407 32.958 13.1664C33.0959 12.9257 33.1777 12.6378 33.2079 12.3069C33.2381 11.9761 33.2553 11.6151 33.2553 11.2198C33.2553 10.3904 33.126 9.78023 32.8675 9.3892C32.7167 9.17864 32.5185 9.02394 32.2772 8.92511C32.0359 8.82627 31.7041 8.77901 31.2776 8.77901H30.4373Z" fill="white"/>
<path d="M41.7005 14.0258C40.9594 14.0258 40.3002 13.9055 39.7271 13.6648C39.154 13.4242 38.6973 13.0933 38.3655 12.6679C38.1242 12.3671 37.9217 12.019 37.7666 11.628C37.6072 11.237 37.4822 10.8287 37.3917 10.4076C37.3013 9.9865 37.2366 9.55249 37.1978 9.11848C37.1591 8.68017 37.1418 8.26765 37.1418 7.87232C37.1418 6.90546 37.2366 5.98158 37.4262 5.10068C37.6158 4.21977 37.9303 3.53653 38.3655 3.05525C38.7576 2.61694 39.2531 2.30325 39.8521 2.11848C40.451 1.92941 41.0671 1.83487 41.7005 1.83487H41.972V0.137508H44.2858V1.83487H44.5573C45.1907 1.83487 45.8068 1.92941 46.4057 2.11848C47.0047 2.30755 47.5002 2.62124 47.8923 3.05525C48.3318 3.53653 48.642 4.21977 48.8316 5.10068C49.0212 5.98158 49.116 6.90546 49.116 7.87232C49.116 8.26335 49.0987 8.68017 49.06 9.11848C49.0212 9.55678 48.9566 9.9865 48.8661 10.4076C48.7756 10.8287 48.6506 11.237 48.4912 11.628C48.3318 12.019 48.1336 12.3671 47.8923 12.6679C47.5605 13.089 47.1038 13.4242 46.5307 13.6648C45.9576 13.9055 45.2984 14.0258 44.5573 14.0258H44.2858V16.2431H41.972V14.0258H41.7005ZM41.5842 3.91467C41.2697 3.93186 40.9853 3.97053 40.7354 4.03929C40.4855 4.10804 40.2571 4.24555 40.046 4.45611C39.9253 4.59362 39.8176 4.79128 39.7271 5.05771C39.6366 5.31983 39.5591 5.61203 39.4987 5.93002C39.4384 6.24801 39.391 6.57888 39.3609 6.92695C39.3307 7.27502 39.3178 7.5973 39.3178 7.8981C39.3178 8.1989 39.3307 8.54267 39.3522 8.88214C39.3738 9.22161 39.4126 9.54389 39.4643 9.84469C39.516 10.1455 39.5806 10.4205 39.6582 10.6697C39.7314 10.919 39.8262 11.1123 39.9296 11.2456C40.0977 11.4733 40.3088 11.6538 40.563 11.787C40.8215 11.9245 41.1361 11.989 41.5153 11.989H42.0151V3.91467H41.5842ZM44.2384 3.91467V11.9932H44.7382C45.1174 11.9932 45.432 11.9245 45.6905 11.7913C45.949 11.6538 46.1601 11.4733 46.3282 11.2498C46.4316 11.1123 46.5264 10.9233 46.5996 10.674C46.6772 10.4248 46.7375 10.1498 46.7935 9.84899C46.8452 9.54819 46.884 9.22591 46.9056 8.88643C46.9271 8.54696 46.94 8.22038 46.94 7.90239C46.94 7.58441 46.9228 7.27502 46.8969 6.93125C46.8668 6.58318 46.8194 6.2523 46.7591 5.93432C46.6987 5.61633 46.6212 5.32842 46.5307 5.062C46.4402 4.79988 46.3368 4.59791 46.2119 4.46041C46.0007 4.24985 45.768 4.10804 45.5181 4.04359C45.2682 3.97483 44.9838 3.93186 44.6693 3.91897H44.2384V3.91467Z" fill="white"/>
<path d="M52.6061 8.69736C52.6061 8.22468 52.7785 7.81645 53.1232 7.47268C53.4679 7.12891 53.8772 6.95703 54.3512 6.95703C54.8251 6.95703 55.2345 7.12891 55.5792 7.47268C55.9239 7.81645 56.0962 8.22897 56.0962 8.69736C56.0962 9.16575 55.9239 9.57827 55.5792 9.92204C55.2345 10.2658 54.8251 10.4377 54.3512 10.4377C53.8772 10.4377 53.4679 10.2658 53.1232 9.92204C52.7785 9.57827 52.6061 9.17004 52.6061 8.69736Z" fill="white"/>
<path d="M73.7192 2.17004V6.8539C73.7192 7.09454 73.7106 7.50706 73.6977 8.08717C73.6804 8.66728 73.646 9.30326 73.5856 9.99939C73.5253 10.6955 73.4348 11.3788 73.3142 12.0577C73.1935 12.7366 73.0255 13.2996 72.8144 13.7551C72.4524 14.5242 71.9914 15.1301 71.4312 15.577C70.8711 16.0239 70.1903 16.2431 69.3889 16.2431H69.251V13.9355C69.7034 13.9055 70.061 13.768 70.3153 13.5273C70.5738 13.2867 70.7849 12.9859 70.9487 12.6206C71.0865 12.3026 71.1943 11.9202 71.2761 11.4647C71.358 11.0135 71.4226 10.5322 71.47 10.0166C71.5131 9.50522 71.5433 8.97667 71.5605 8.43524C71.5777 7.8938 71.5821 7.37385 71.5821 6.87538V0.137508H78.2952V16.2431H75.9813V2.17004H73.7106H73.7192Z" fill="white"/>
<path d="M81.1304 14.0731C81.3415 14.0731 81.5828 14.0516 81.8542 14.0043C82.1257 13.9613 82.3368 13.8625 82.4876 13.7121C82.6083 13.5918 82.7418 13.3984 82.884 13.1363C83.0262 12.8742 83.1598 12.5003 83.2804 12.0147L83.483 11.1338L79.9928 0.137508H82.4445L84.6205 7.71762H84.6636L86.3655 0.137508H88.8129L85.4564 12.3757C85.2453 13.1148 85.0169 13.7723 84.7756 14.3438C84.5343 14.9153 84.1939 15.3751 83.7544 15.7231C83.3925 16.0282 83.009 16.2087 82.6083 16.2775C82.2076 16.3462 81.7637 16.3806 81.2812 16.3806H80.9623V14.0731H81.1217H81.1304Z" fill="white"/>
<path d="M90.6614 0.137508H97.284V2.30755H92.9752V6.74217H93.8801C94.6815 6.74217 95.3494 6.8496 95.888 7.06016C96.4266 7.27072 96.8575 7.57152 97.1935 7.96685C97.5426 8.38797 97.7623 8.84776 97.8528 9.33333C97.9433 9.8232 97.995 10.3646 98.0122 10.9533V11.86C98.0122 13.2781 97.6675 14.3653 96.9824 15.1173C96.293 15.8735 95.1943 16.2474 93.6819 16.2474H90.6657V0.137508H90.6614ZM92.9752 8.77901V13.9355H93.837C94.3066 13.9355 94.6729 13.8668 94.9357 13.7336C95.1986 13.5961 95.4011 13.407 95.539 13.1664C95.6768 12.9257 95.7587 12.6378 95.7889 12.3069C95.819 11.9761 95.8363 11.6151 95.8363 11.2198C95.8363 10.8244 95.8104 10.4549 95.7587 10.1455C95.707 9.8361 95.6036 9.58257 95.4528 9.3892C95.302 9.19153 95.1038 9.04113 94.8625 8.938C94.6212 8.83487 94.2851 8.77901 93.8628 8.77901H92.9795H92.9752Z" fill="white"/>
<path d="M55.9368 39.4905V23.213H58.2765V30.6427H58.3239L61.7365 23.213H64.0761L60.8876 29.7274L64.6707 39.4905H62.1975L59.539 32.2627L58.2765 34.6176V39.4905H55.9368Z" fill="white"/>
<path d="M4.11921 32.2584H2.33537V39.4905H0V23.2474H2.33106V30.2044H4.1149V27.0804C4.1149 26.4273 4.22693 25.8471 4.45961 25.3487C4.68797 24.8459 4.9939 24.4291 5.37307 24.0939C5.73932 23.7759 6.14435 23.531 6.59677 23.3634C7.04488 23.1958 7.50593 23.1142 7.97989 23.1142C8.95368 23.1142 9.83267 23.4408 10.6126 24.0939C10.9788 24.4291 11.2761 24.8459 11.5045 25.3487C11.7329 25.8514 11.8492 26.4273 11.8492 27.0804V35.6575C11.8492 36.3407 11.7329 36.9294 11.5045 37.415C11.2761 37.9006 10.9788 38.3045 10.6126 38.6225C10.2334 38.9576 9.81544 39.2069 9.36733 39.3745C8.91921 39.542 8.45386 39.628 7.9842 39.628C7.51454 39.628 7.04919 39.5463 6.60108 39.3745C6.14865 39.2069 5.74363 38.9576 5.37738 38.6225C4.9939 38.3045 4.69228 37.9006 4.46391 37.415C4.23555 36.9294 4.11921 36.3407 4.11921 35.6575V32.2584ZM6.45458 35.6575C6.45458 36.2204 6.60108 36.6329 6.89838 36.8993C7.19569 37.1657 7.55763 37.299 7.9842 37.299C8.41077 37.299 8.77271 37.1657 9.07002 36.8993C9.36732 36.6329 9.51813 36.2204 9.51813 35.6575V27.0804C9.51813 26.5175 9.36732 26.105 9.07002 25.8386C8.77271 25.5721 8.41077 25.4389 7.9842 25.4389C7.55763 25.4389 7.19569 25.5721 6.89838 25.8386C6.60108 26.105 6.45458 26.5175 6.45458 27.0804V35.6575Z" fill="white"/>
<path d="M15.2144 39.4905V42H13.2021V37.4365H14.3914C14.5293 37.1486 14.6585 36.8177 14.7792 36.4438C14.8998 36.07 15.0075 35.6789 15.098 35.2707C15.1885 34.8582 15.2747 34.4371 15.3479 34.0031C15.4255 33.5691 15.4858 33.1479 15.5332 32.7354C15.5634 32.4174 15.5892 32.0608 15.6151 31.6654C15.6366 31.2701 15.6582 30.8619 15.6711 30.4451C15.684 30.0282 15.6969 29.6071 15.7056 29.1903C15.7142 28.7735 15.7185 28.3738 15.7185 27.9914V23.2474H22.4187V37.4365H23.7458V42H21.7336V39.4905H15.2144ZM17.9117 25.3014V27.9699C17.9117 28.1848 17.903 28.4899 17.8901 28.8938C17.8729 29.2977 17.8513 29.736 17.8212 30.2044C17.791 30.6771 17.7609 31.1498 17.7307 31.6311C17.7005 32.1123 17.6618 32.5335 17.6187 32.8987C17.5885 33.2038 17.5368 33.5476 17.4679 33.9386C17.3989 34.3254 17.317 34.725 17.2266 35.1375C17.1361 35.55 17.037 35.954 16.9293 36.3579C16.8215 36.7618 16.7009 37.1228 16.563 37.4408H20.0876V25.3014H17.916H17.9117Z" fill="white"/>
<path d="M31.4327 39.4905V28.9497H31.3896L28.3217 39.4905H25.9907V23.2474H28.3217V33.8097H28.3691L31.4327 23.2474H33.768V39.4905H31.4327Z" fill="white"/>
<path d="M36.5084 39.4905V23.2474H38.8438V30.2044H41.7264V23.2474H44.0574V39.4905H41.7264V32.2584H38.8438V39.4905H36.5084Z" fill="white"/>
<path d="M53.9591 34.8582V35.8637C53.9591 36.3665 53.8643 36.8392 53.6747 37.2904C53.4851 37.7373 53.2223 38.1369 52.8862 38.4893C52.5501 38.8416 52.158 39.1166 51.7099 39.3229C51.2575 39.5292 50.7749 39.6323 50.2578 39.6323C49.814 39.6323 49.3659 39.5721 48.9092 39.4475C48.4524 39.3272 48.0388 39.1123 47.6725 38.8072C47.3063 38.5021 47.0047 38.1111 46.7677 37.6298C46.5307 37.1529 46.4144 36.5384 46.4144 35.795V26.8527C46.4144 26.3198 46.5049 25.8257 46.6901 25.3702C46.8711 24.9147 47.1339 24.5193 47.47 24.1842C47.8061 23.849 48.2068 23.5869 48.6722 23.3978C49.1375 23.2087 49.6503 23.1142 50.2147 23.1142C51.3135 23.1142 52.2054 23.4708 52.8905 24.1842C53.2266 24.5365 53.4894 24.949 53.679 25.426C53.8686 25.9073 53.9634 26.4273 53.9634 26.9902V27.9012H51.628V27.1277C51.628 26.6722 51.4987 26.2769 51.2402 25.9417C50.9817 25.6065 50.6284 25.4389 50.1889 25.4389C49.6072 25.4389 49.2237 25.6194 49.0341 25.9761C48.8445 26.3327 48.7497 26.7839 48.7497 27.3339V35.6403C48.7497 36.113 48.8531 36.5083 49.06 36.8263C49.2668 37.1443 49.6373 37.3033 50.1673 37.3033C50.3181 37.3033 50.4819 37.2775 50.6585 37.2216C50.8352 37.17 50.9989 37.0798 51.1497 36.9595C51.2876 36.8392 51.3996 36.6716 51.4944 36.4567C51.5849 36.2419 51.6323 35.9754 51.6323 35.6575V34.8582H53.9677H53.9591Z" fill="white"/>
<path d="M65.9978 39.4905L69.6345 23.2474H71.5777L75.2144 39.4905H72.879L72.1939 36.0012H69.014L68.3289 39.4905H65.9935H65.9978ZM71.763 33.8097L70.6212 27.9227H70.5738L69.4319 33.8097H71.763Z" fill="white"/>
<path d="M82.4962 39.4905V32.5549H81.419L79.381 39.4905H77.0025L79.2215 32.2584C78.8553 32.1209 78.5364 31.9147 78.2607 31.644C77.9849 31.3689 77.7652 31.0595 77.5971 30.7072C77.4291 30.3591 77.3171 29.9466 77.2524 29.4739C77.1878 29.0012 77.1619 28.5157 77.1619 28.0129C77.1619 24.833 78.5364 23.2431 81.2812 23.2431H84.8273V39.4862H82.4919L82.4962 39.4905ZM81.488 25.4346C80.665 25.4346 80.1264 25.6538 79.8765 26.0835C79.6266 26.5175 79.4973 27.1449 79.4973 27.9656C79.4973 28.3781 79.5189 28.7391 79.5663 29.0485C79.6093 29.3622 79.6955 29.6243 79.8162 29.8349C79.954 30.0497 80.1436 30.213 80.3892 30.3247C80.6348 30.4408 80.9623 30.4966 81.3716 30.4966H82.4919V25.4303H81.4837L81.488 25.4346Z" fill="white"/>
<path d="M95.8578 39.4905V42H93.8456V37.4365H95.0348C95.1727 37.1486 95.302 36.8177 95.4226 36.4438C95.5433 36.07 95.651 35.6789 95.7415 35.2707C95.832 34.8582 95.9181 34.4371 95.9914 34.0031C96.0646 33.5691 96.1293 33.1479 96.1724 32.7354C96.2025 32.4174 96.2284 32.0608 96.2542 31.6654C96.2758 31.2701 96.2973 30.8619 96.3102 30.4451C96.3232 30.0282 96.3361 29.6071 96.3447 29.1903C96.3533 28.7735 96.3576 28.3738 96.3576 27.9914V23.2474H103.062V37.4365H104.389V42H102.377V39.4905H95.8578ZM98.5594 25.3014V27.9699C98.5594 28.1848 98.5508 28.4899 98.5379 28.8938C98.5207 29.2977 98.4991 29.736 98.4689 30.2044C98.4388 30.6771 98.4086 31.1498 98.3785 31.6311C98.3483 32.1123 98.3095 32.5335 98.2664 32.8987C98.2363 33.2038 98.1846 33.5476 98.1156 33.9386C98.0467 34.3254 97.9648 34.725 97.8743 35.1375C97.7838 35.55 97.6848 35.954 97.577 36.3579C97.4693 36.7618 97.3487 37.1228 97.2108 37.4408H100.735V25.3014H98.5637H98.5594Z" fill="white"/>
<path d="M105.764 27.0804C105.764 26.4273 105.876 25.8471 106.108 25.3487C106.337 24.8459 106.643 24.4291 107.022 24.0939C107.388 23.7759 107.802 23.531 108.267 23.3634C108.732 23.1958 109.202 23.1142 109.676 23.1142C110.15 23.1142 110.615 23.1958 111.085 23.3634C111.55 23.531 111.973 23.7759 112.356 24.0939C112.722 24.4291 113.02 24.8459 113.248 25.3487C113.476 25.8514 113.593 26.4273 113.593 27.0804V35.6575C113.593 36.3407 113.481 36.9294 113.248 37.415C113.02 37.9006 112.722 38.3045 112.356 38.6225C111.973 38.9576 111.55 39.2069 111.085 39.3745C110.62 39.542 110.15 39.628 109.676 39.628C109.202 39.628 108.732 39.5463 108.267 39.3745C107.802 39.2069 107.388 38.9576 107.022 38.6225C106.638 38.3045 106.337 37.9006 106.108 37.415C105.88 36.9294 105.764 36.3407 105.764 35.6575V27.0804ZM108.099 35.6575C108.099 36.2204 108.254 36.6329 108.569 36.8993C108.879 37.1657 109.25 37.299 109.676 37.299C110.103 37.299 110.473 37.1657 110.783 36.8993C111.098 36.6329 111.253 36.2204 111.253 35.6575V27.0804C111.253 26.5175 111.098 26.105 110.783 25.8386C110.469 25.5721 110.103 25.4389 109.676 25.4389C109.25 25.4389 108.879 25.5721 108.569 25.8386C108.254 26.105 108.099 26.5175 108.099 27.0804V35.6575Z" fill="white"/>
<path d="M119.418 25.2971V30.0196C119.418 30.2646 119.41 30.6771 119.397 31.2615C119.38 31.8459 119.345 32.4905 119.285 33.1909C119.224 33.8913 119.134 34.5832 119.009 35.2664C118.884 35.9497 118.72 36.5212 118.505 36.9767C118.139 37.7502 117.673 38.3646 117.109 38.8115C116.544 39.2584 115.859 39.4862 115.049 39.4862H114.911V37.1572C115.368 37.1271 115.726 36.9896 115.984 36.7446C116.243 36.4997 116.458 36.1989 116.626 35.8336C116.764 35.5157 116.876 35.1246 116.958 34.6691C117.04 34.2136 117.104 33.7281 117.152 33.2081C117.199 32.6924 117.229 32.1596 117.242 31.6096C117.26 31.0638 117.264 30.5396 117.264 30.0368V23.2388H124.037V39.4819H121.706V25.2928H119.418V25.2971Z" fill="white"/>
<path d="M132.435 39.4905V28.9497H132.388L129.324 39.4905H126.989V23.2474H129.324V33.8097H129.367L132.435 23.2474H134.766V39.4905H132.435Z" fill="white"/>
<path d="M137.339 39.4905V23.2474H139.67V30.2044H142.552V23.2474H144.888V39.4905H142.552V32.2584H139.67V39.4905H137.339Z" fill="white"/>
<path d="M146.783 39.4905L150.42 23.2474H152.363L156 39.4905H153.665L152.98 36.0012H149.8L149.115 39.4905H146.779H146.783ZM152.549 33.8097L151.403 27.9227H151.355L150.213 33.8097H152.549Z" fill="white"/>
</g>
<defs>
<clipPath id="clip0_383_591">
<rect width="156" height="42" fill="white"/>
</clipPath>
</defs>
</svg>
