<svg width="17" height="20" viewBox="0 0 17 20" fill="none" xmlns="http://www.w3.org/2000/svg">
<path d="M16.0075 12.49C16.6618 11.262 17.0027 9.89143 17 8.5C17 3.8055 13.1945 0 8.50001 0C3.80551 0 1.31058e-05 3.8055 1.31058e-05 8.5C-0.00351474 10.5052 0.705284 12.4464 2.00001 13.9775L2.01001 13.99L2.01901 14H2.00001L7.04401 19.355C7.23099 19.5535 7.45659 19.7116 7.70693 19.8197C7.95728 19.9278 8.22708 19.9836 8.49976 19.9836C8.77245 19.9836 9.04225 19.9278 9.29259 19.8197C9.54294 19.7116 9.76853 19.5535 9.95551 19.355L15 14H14.981L14.989 13.9905L14.99 13.9895C15.026 13.9465 15.0618 13.9032 15.0975 13.8595C15.4444 13.4333 15.7492 12.975 16.0075 12.49ZM8.50251 11.7495C7.70686 11.7495 6.9438 11.4334 6.38119 10.8708C5.81858 10.3082 5.50251 9.54515 5.50251 8.7495C5.50251 7.95385 5.81858 7.19079 6.38119 6.62818C6.9438 6.06557 7.70686 5.7495 8.50251 5.7495C9.29816 5.7495 10.0612 6.06557 10.6238 6.62818C11.1864 7.19079 11.5025 7.95385 11.5025 8.7495C11.5025 9.54515 11.1864 10.3082 10.6238 10.8708C10.0612 11.4334 9.29816 11.7495 8.50251 11.7495Z" fill="#578E6F"/>
</svg>
