<svg width="138" height="151" viewBox="0 0 138 151" fill="none" xmlns="http://www.w3.org/2000/svg">
<path d="M118.753 57.075C118.753 40.0417 104.945 26.2334 87.9117 26.2334C70.8783 26.2334 57.0701 40.0417 57.0701 57.075C57.0701 74.1084 70.8783 87.9166 87.9117 87.9166C104.945 87.9166 118.753 74.1084 118.753 57.075Z" fill="#A5CEB6"/>
<path d="M34.2383 89.223H34.2292C30.0009 89.223 26.5732 92.6507 26.5732 96.879V96.8881C26.5732 101.116 30.0009 104.544 34.2292 104.544H34.2383C38.4666 104.544 41.8943 101.116 41.8943 96.8881V96.879C41.8943 92.6507 38.4666 89.223 34.2383 89.223Z" fill="#A5CEB6"/>
<path d="M103.069 0C108.058 1.56929 107.605 6.56745 107.478 10.9851C120.522 2.80296 136.424 12.2822 137.177 27.2223C137.685 28.719 137.476 29.6896 135.734 30.6148C129.974 29.0183 132.959 14.3323 121.983 12.9081C116.975 11.4295 111.841 13.7155 107.505 16.2644V21.9429C123.497 9.09828 131.725 25.9251 127.189 40.6565C124.196 58.2816 107.95 60.0323 100.675 72.1785C113.265 69.566 124.486 59.9325 129.72 48.122C134.419 28.5194 140.751 36.6199 133.367 50.9522C126.591 65.7834 111.56 75.4985 95.7581 78.2107C90.0706 82.837 83.748 86.7738 76.3642 88.2796C77.8155 107.492 70.1323 106.503 89.6624 106.104C102.044 107.773 95.2592 125.598 96.9101 134.333C105.274 132.565 108.848 138.388 107.487 146.062C110.453 145.128 112.875 148.992 109.7 150.498C111.433 148.593 8.3584 155.07 29.5847 146.108C28.4599 137.635 31.6801 133.127 40.47 134.261C40.47 127.131 40.4972 120.001 40.4428 112.889C41.2592 102.866 53.9496 106.921 60.7166 106.122V88.1617C53.4597 86.7194 47.2098 83.2542 41.8306 78.2833C31.6257 76.6052 21.5931 72.1422 14.1004 64.9125C-7.29826 49.8727 -5.92853 -4.78045 29.2218 10.8671C30.1743 7.50177 28.6594 1.27902 33.9932 0.00907127C57.0156 0.00907127 80.0652 0.0181423 103.069 0.00907127V0ZM34.2835 16.1919C35.0455 25.4443 31.9522 57.8462 37.8394 65.5385C53.6774 97.7407 103.822 85.3406 103.097 49.5371C103.051 38.4341 103.078 27.3221 103.078 16.21C103.078 16.21 34.2563 16.2281 34.2835 16.2009V16.1919ZM34.3016 11.7017C35.3357 8.95314 120.35 18.8587 100.783 4.40854C78.9131 4.40854 57.0519 4.40854 35.1906 4.40854C33.5306 4.53553 34.5919 10.8581 34.3016 11.7107V11.7017ZM34.3016 146.035H103.033V139.658C102.471 137.164 38.2476 139.54 36.9958 138.742C32.9319 137.535 34.6373 144.121 34.3107 146.044L34.3016 146.035ZM107.478 27.1951C107.433 33.1275 107.95 54.8346 106.38 60.1049C116.894 54.499 124.486 42.9696 123.634 30.896C123.833 17.7884 114.789 21.961 107.469 27.1951H107.478ZM31.2356 60.4677C28.1787 50.0995 30.1562 38.933 29.5847 28.2292C4.48505 4.69881 11.4153 54.1452 31.2356 60.4677ZM49.5773 134.297C50.43 129.825 46.6292 115.72 54.5845 115.801C73.026 118.477 91.4584 106.032 87.7937 133.045C86.9138 135.231 91.2498 133.98 92.175 134.288V112.327C91.7487 110.776 90.6783 110.767 89.49 110.812C88.0749 112.118 42.1572 107.71 44.8967 113.697C44.8785 120.554 44.8876 127.421 44.8876 134.279C44.8876 134.279 49.6045 134.27 49.5864 134.279L49.5773 134.297ZM36.8143 72.4687C31.6801 62.2094 18.3275 60.5856 13.5108 49.3647C4.38527 35.9758 8.88452 5.91434 29.494 21.8431C30.9816 14.2597 25.285 13.8062 19.3616 12.3548C9.10222 11.5384 4.21292 22.5416 4.00428 31.2045C3.45095 50.6347 18.264 67.8062 36.8143 72.4778V72.4687ZM82.6413 120.237H54.8295C52.7975 123.965 54.385 130.025 54.0947 134.306H83.0495C82.6958 133.88 83.7571 120.31 82.6413 120.237ZM71.8649 106.095V88.7513C69.579 89.1323 67.4836 89.1142 65.2158 88.7332V106.104C65.2158 106.104 71.8831 106.113 71.8649 106.104V106.095Z" fill="#305A42"/>
<path d="M51.3917 43.9403C48.3166 63.6517 78.3236 71.0627 84.3922 51.9681C91.1229 34.5789 66.3045 20.673 55.0926 35.5858C41.3953 41.1464 62.4674 14.3776 81.1447 29.0002C109.927 53.5374 62.0048 87.9258 47.8811 53.0385C45.9853 49.8727 46.3028 36.9646 51.4007 43.9403H51.3917Z" fill="#305A42"/>
<path d="M76.9177 50.1358C76.2465 47.2149 80.7276 46.1536 81.2628 49.2469C81.6256 51.7233 77.6797 53.0386 76.9177 50.1358Z" fill="#305A42"/>
<path d="M64.4088 57.0208C60.8257 55.3064 64.4541 50.4715 67.1936 53.9276C67.5655 55.6783 66.3046 57.3836 64.3997 57.0208H64.4088Z" fill="#305A42"/>
<path d="M75.8745 43.786C72.1281 41.4548 77.6977 37.1188 78.9949 41.5364C78.7772 43.1057 77.48 44.1307 75.8654 43.786H75.8745Z" fill="#305A42"/>
<path d="M71.0305 55.2881C72.4184 53.0476 75.9924 54.0182 75.439 56.8302C74.2961 59.3701 70.2595 58.3814 71.0305 55.2881Z" fill="#305A42"/>
</svg>
