<svg width="110" height="155" viewBox="0 0 110 155" fill="none" xmlns="http://www.w3.org/2000/svg">
<path d="M75.4051 3.95593H75.3958C71.0511 3.95593 67.5291 7.47799 67.5291 11.8227V11.832C67.5291 16.1767 71.0511 19.6987 75.3958 19.6987H75.4051C79.7498 19.6987 83.2719 16.1767 83.2719 11.832V11.8227C83.2719 7.47799 79.7498 3.95593 75.4051 3.95593Z" fill="#A5CEB6"/>
<path d="M79.1431 113.074C79.1431 95.5722 64.9547 81.3838 47.4524 81.3838C29.9501 81.3838 15.7617 95.5722 15.7617 113.074C15.7617 130.577 29.9501 144.765 47.4524 144.765C64.9547 144.765 79.1431 130.577 79.1431 113.074Z" fill="#A5CEB6"/>
<path d="M76.8685 0.134303C89.1906 2.80005 106.015 6.43516 104.067 22.8397C104.02 50.0564 104.039 77.2825 104.039 104.499C112.688 107.855 108.541 119.729 109.454 126.916C109.967 129.591 108.941 136.153 105.073 132.685C103.47 126.44 107.385 124.073 98.6233 124.958V150.199C106.35 150.954 104.495 149.22 104.626 142.658C108.708 131.576 113.098 154.216 105.94 154.803C103.051 154.151 95.0627 156.472 94.0468 151.998C95.9296 141.214 89.3304 109.56 98.4648 104.695C100.04 106.018 98.6792 37.6598 99.1079 37.6878C91.1387 27.0714 77.055 27.7238 66.7741 21.3205C57.8634 13.5749 65.609 -1.63665 76.8499 0.143624L76.8685 0.134303ZM99.0986 31.3496C99.5553 22.6999 100.879 9.96774 89.4796 8.3366C81.9577 5.91319 66.4013 0.488492 67.7808 13.9757C73.2707 25.2911 91.3997 20.8171 99.0986 31.3589V31.3496ZM101.625 108.619C96.815 109.588 98.9775 116.495 98.7165 120.298H104.635C104.188 117.875 106.322 108.255 101.625 108.619Z" fill="#305A42"/>
<path d="M68.1069 104.182C79.0495 108.954 71.3878 139.573 73.5502 151.084C72.6834 156.91 64.3972 154.542 60.2029 154.431C55.0578 142.37 59.5877 126.524 58.1523 113.223C57.9659 109.16 60.0724 105.674 63.5397 104.341V46.645C47.0978 50.6623 42.8755 40.0086 54.1164 42.7023C57.1829 42.7396 60.8087 42.9726 63.5211 41.6864C61.5451 37.3895 38.0846 18.1886 36.09 28.6093C27.9809 40.6518 32.5854 37.0632 41.8223 41.3601C43.3602 48.6676 22.3139 42.9819 28.1021 32.9994C31.3177 26.6706 36.7797 15.9796 45.1498 21.9822C53.0259 26.7917 61.4239 31.07 67.2867 38.4334C67.7434 39.1325 68.2653 40.6704 68.1069 41.5559C68.1255 41.5745 68.0976 104.182 68.1069 104.201V104.182ZM63.0177 124.902V150.246C65.0124 150.152 67.1003 150.432 68.9644 150.143V124.902H63.0177ZM64.6209 108.88C61.573 111.033 63.4745 117.166 62.9805 120.344C65.0217 120.195 67.2028 120.633 69.0203 120.177C68.5729 116.234 71.0709 107.566 64.6209 108.88Z" fill="#305A42"/>
<path d="M35.9409 154.775C31.4017 154.412 22.491 156.845 23.4044 149.528C25.5948 138.296 17.8586 109.309 28.7825 104.397V78.9695C30.4137 74.421 33.9835 72.5475 37.3297 69.4343C25.8838 67.1601 13.2634 62.481 1.51923 58.4638C-2.36753 54.866 1.83614 45.3308 7.00918 45.1537C18.3433 46.2349 31.1407 50.7368 38.3363 59.8619C38.6439 60.3559 38.2245 60.9711 38.7744 61.3719C36.3883 65.3332 42.1765 65.2307 41.8316 69.22C41.9808 75.2039 31.7372 76.0894 33.3777 82.8563V104.303C35.3071 105.068 36.7239 106.429 37.8703 108.088C38.7185 116.048 41.58 151.457 35.9223 154.775H35.9409ZM6.37536 50.2428C5.75087 51.846 5.20094 53.2255 4.60441 54.7448C13.3194 55.6769 28.5216 66.6567 34.0208 61.7633C27.3192 54.866 15.4352 49.3014 6.37536 50.2428ZM33.9556 124.93H27.981C27.7852 129.861 27.8598 148.931 28.0742 150.199H33.9463V124.93H33.9556ZM30.945 108.563C26.0049 109.691 28.5216 116.672 27.9343 120.307H33.9369C33.387 117.735 35.8011 108.358 30.945 108.563Z" fill="#305A42"/>
</svg>
