<svg width="167" height="118" viewBox="0 0 167 118" fill="none" xmlns="http://www.w3.org/2000/svg">
<path d="M111.475 34C111.475 15.2223 96.2523 0 77.4746 0C58.6969 0 43.4746 15.2223 43.4746 34C43.4746 52.7777 58.6969 68 77.4746 68C96.2523 68 111.475 52.7777 111.475 34Z" fill="#A5CEB6"/>
<path d="M79.4546 96.77H79.4446C74.7834 96.77 71.0046 100.549 71.0046 105.21V105.22C71.0046 109.881 74.7834 113.66 79.4446 113.66H79.4546C84.1159 113.66 87.8946 109.881 87.8946 105.22V105.21C87.8946 100.549 84.1159 96.77 79.4546 96.77Z" fill="#A5CEB6"/>
<path d="M166.215 71.8301C157.645 85.9601 152.145 87.8501 136.105 86.7201C131.185 87.3601 129.315 93.6501 124.745 95.2901C104.305 98.4201 96.8346 90.3201 80.4646 108.47C66.6946 123.22 44.1046 114.27 25.9846 116.56C16.7846 113.02 10.5846 103.36 2.88459 97.2501C1.14459 95.5601 0.304594 93.4801 0.304594 91.0301C1.23459 72.9801 -1.58541 54.0801 1.45459 36.4301C25.4246 12.9201 24.1046 15.3601 56.3746 15.7701C61.0546 15.4801 61.0246 21.5101 56.3946 20.9701C27.6146 20.9501 26.3146 17.1501 5.14459 40.1901C6.88459 49.9801 0.864594 92.5301 9.03459 96.1701C8.74459 91.2801 8.49459 84.3301 15.1846 84.4601C28.9546 84.4801 42.7246 84.4701 56.4946 84.4701C57.2446 75.2801 74.1046 77.7401 80.1946 79.6801C86.3046 83.8501 83.1546 92.4801 83.8846 98.8301C94.7746 87.5101 106.245 92.0501 120.375 91.2701C124.225 91.2601 126.225 87.1301 128.925 84.9201C135.185 78.0701 146.055 85.1501 152.875 80.1301C157.565 75.6201 162.965 71.5601 161.335 64.3301C166.595 57.7301 166.485 68.7501 166.195 71.8201L166.215 71.8301ZM13.9146 100.95C18.6746 104.14 21.7946 110.48 27.5146 111.7C40.6846 111.67 53.8546 111.67 67.0246 111.7C71.9246 110.76 74.9246 105.75 79.0246 103.16C77.6446 97.3701 82.6546 84.9601 75.3946 83.2201C71.0246 83.3401 66.0546 82.5801 62.0046 83.5101C61.6246 85.8801 60.7946 88.3901 58.1346 89.0501C43.5746 90.6101 28.6046 89.1801 13.9146 89.6501C13.9146 89.6501 13.9046 100.95 13.9146 100.95Z" fill="#305A42"/>
<path d="M166.215 54.6501C161.465 58.9801 160.975 52.2601 161.355 48.8701C154.055 47.3701 140.745 53.1101 138.775 42.9401C138.725 42.4901 137.225 42.7001 136.955 42.6601C123.565 42.6601 110.175 42.6201 96.7846 42.7001C90.3646 42.3501 90.8546 35.3901 91.0346 30.6701C83.2946 32.1801 79.5046 26.9501 80.6046 19.6701C69.8946 24.9801 56.9446 14.9801 76.0846 15.7701C84.5546 13.7901 88.8046 2.52006 98.0146 1.81006C112.485 1.85006 126.955 1.82006 141.425 1.83006C148.825 2.64006 152.665 10.7601 158.185 14.9701C161.305 17.8901 165.025 20.8001 166.205 24.8301V54.6401L166.215 54.6501ZM161.355 43.9301C160.555 37.2501 163.155 29.4901 159.995 23.6301C153.375 18.4301 148.485 9.58006 140.605 6.66006C126.625 6.72006 112.645 6.70006 98.6646 6.69006C93.4346 7.29006 90.1746 12.9101 85.9146 15.4801V25.4401C94.5346 24.2401 97.1946 29.8301 96.2346 37.3301C104.765 39.1701 133.025 36.2101 141.225 38.5301C143.335 39.6701 143.945 41.8001 144.235 43.9301H161.355Z" fill="#305A42"/>
<path d="M25.6645 63.36C26.0145 62.1 24.5645 37.97 27.2345 38.26C31.2145 38.93 34.8145 43.06 39.3745 44.09C40.8845 44.84 42.3145 46.28 41.8245 48.09C34.7145 55.96 29.0745 48.7 30.5745 63.39C33.4545 64.22 36.9245 64.75 38.6145 67.61C40.5445 76.7 25.1545 77.16 19.8545 73.54C13.2445 68.63 20.1445 64.07 25.6545 63.34V63.36H25.6645ZM22.7645 69.48C26.0345 71.09 30.1145 70.91 33.4345 69.56C30.2245 67.82 26.0445 68.02 22.7645 69.48ZM30.5045 45.56C30.5945 46.83 30.4245 47.89 30.6645 49.13C31.8245 48.29 33.1145 48.03 34.1645 47.11C32.9345 46.59 31.8145 46.11 30.5045 45.55V45.56Z" fill="#305A42"/>
<path d="M105.615 72.47C101.785 80.96 98.3946 81.74 94.5346 72.88C88.0946 69.51 84.5846 61.58 87.9546 54.8C100.095 33.98 126.525 60.71 105.615 72.48V72.47ZM99.9846 72.41C100.885 68.66 104.765 68.02 106.795 65.35C110.135 60.54 107.405 53.65 101.765 52.24C94.0746 50.81 88.3746 60.32 93.7346 66.15C96.0546 68.3 98.9146 68.97 99.9746 72.42H99.9846V72.41Z" fill="#305A42"/>
<path d="M99.5046 82.01C102.315 81.63 103.405 85.5 100.895 86.87C97.6746 87.66 95.8746 83.18 99.5046 82.01Z" fill="#305A42"/>
<path d="M29.1447 104.73C33.5347 99.7701 52.4847 103.89 59.9847 102.61C63.4947 101.58 67.8247 105.85 62.8847 107.8C57.0247 106.41 28.9147 111.19 29.1447 104.73Z" fill="#305A42"/>
<path d="M53.2846 93.86C62.6046 102.44 28.2046 97.4701 26.7346 98.7001C18.2246 89.9201 48.7446 95.2 53.2846 93.86Z" fill="#305A42"/>
<path d="M61.5547 93.8601C63.6447 93.9901 67.9447 92.9901 68.0347 96.2901C67.4647 101.48 55.5147 98.1801 61.5647 93.8601H61.5547Z" fill="#305A42"/>
<path d="M100.115 22.5201C98.8645 17.6901 132.535 20.8701 134.245 20.0001C136.495 20.7201 137.235 24.1201 134.035 24.8401C126.865 23.3801 103.685 28.0501 100.105 22.5101L100.115 22.5201Z" fill="#305A42"/>
<path d="M97.3447 15.7601C90.2747 7.14011 119.995 11.9801 124.345 11.1001C131.915 19.9301 101.875 15.2601 97.3447 15.7701V15.7601Z" fill="#305A42"/>
<path d="M120.445 33.9201C113.025 26.0801 133.605 29.8801 138.125 29.0601C141.445 29.0001 141.135 34.0201 137.995 33.9301H120.445V33.9201Z" fill="#305A42"/>
<path d="M107.175 29.4301C110.735 27.8001 118.315 30.0401 113.125 33.9201C110.225 34.2301 104.095 33.9801 107.175 29.4301Z" fill="#305A42"/>
<path d="M131.345 14.7601C129.465 10.7501 136.834 9.4301 138.944 12.4801C140.344 16.5501 133.325 17.2901 131.345 14.7601Z" fill="#305A42"/>
<path d="M146.415 33.92C140.185 30.17 150.335 26.71 152.595 30.65C153.395 34.47 148.875 33.96 146.415 33.92Z" fill="#305A42"/>
</svg>
