<svg width="125" height="167" viewBox="0 0 125 167" fill="none" xmlns="http://www.w3.org/2000/svg">
<path d="M104.844 78.5791H104.834C100.167 78.5791 96.3831 82.3626 96.3831 87.0297V87.0397C96.3831 91.7069 100.167 95.4903 104.834 95.4903H104.844C109.511 95.4903 113.294 91.7069 113.294 87.0397V87.0297C113.294 82.3626 109.511 78.5791 104.844 78.5791Z" fill="#A5CEB6"/>
<path d="M76.208 117.027C76.208 98.2262 60.9666 82.9847 42.1653 82.9847C23.364 82.9847 8.12256 98.2262 8.12256 117.027C8.12256 135.829 23.364 151.07 42.1653 151.07C60.9666 151.07 76.208 135.829 76.208 117.027Z" fill="#A5CEB6"/>
<path d="M63.7624 0.0706542C68.3682 1.29219 66.8063 6.84916 70.7112 7.53002C88.4234 11.3949 95.3721 29.4876 95.8827 45.3975C97.6149 54.4489 101.169 69.2174 87.6124 70.1586C85.9903 76.5566 83.2269 82.8345 77.74 87.0899C77.0491 95.2201 77.8801 95.5405 85.4797 97.9335C99.247 104.362 119.462 106.184 123.658 123.456C124.308 127.491 126.792 145.293 119.222 137.814C119.142 131.155 120.213 123.906 115.868 118.279C109.54 109.969 97.8352 108.967 88.8739 104.532C81.9853 114.985 81.0842 132.867 66.2255 118.259C62.4207 117.939 65.805 132.647 64.7136 136.942C56.9839 146.274 60.5885 119.29 59.8175 117.428C43.497 132.347 43.2267 117.428 36.0577 104.502C24.8236 109.518 8.72336 111.21 5.67954 125.358C4.89856 136.792 5.53936 148.317 5.34912 159.741C8.56316 163.476 15.8423 160.392 20.5382 161.363C20.7484 160.332 19.9174 134.64 21.3492 134.529C22.9212 133.829 24.2929 134.069 25.4644 135.25C24.5432 173.298 23.5219 158.58 57.3744 161.323C60.8388 163.145 58.4458 167.15 55.2017 166.229C43.3468 163.576 2.87602 172.878 0.473002 159.861C-0.257916 130.825 -3.95255 108.697 30.7009 101.318C38.5208 96.6919 49.1241 98.9047 46.8312 87.4103C38.0802 82.9847 40.4432 70.7193 31.6221 68.6968C22.2603 63.2099 27.7873 51.7555 28.7185 43.4251C28.2779 26.4938 38.5107 9.94305 55.9426 6.86919C55.4019 2.33349 59.7774 -0.490049 63.7524 0.0706542H63.7624ZM42.4056 72.7919C47.5721 91.3853 75.5773 91.9059 81.5347 73.613C82.556 67.2349 85.74 56.8419 76.5785 57.4326C66.5259 55.2699 56.1429 55.8807 46.1303 57.5428C38.5408 57.5628 42.1553 67.5754 42.4056 72.7919ZM57.9952 11.4449C52.3181 19.1646 50.9363 29.3174 50.7761 38.7292C58.4357 36.186 76.2781 44.3262 73.1642 32.2611C71.3119 23.2898 70.7412 8.2309 57.9952 11.4449ZM91.9879 53.4577C91.6875 45.4977 90.9265 44.7467 82.9465 44.5765C66.7962 42.554 50.5659 43.8856 34.4056 45.1773C29.95 52.7067 31.532 57.713 41.885 53.5978C53.5296 50.514 65.7349 50.2937 77.5597 52.3563C82.1555 52.4163 88.6937 57.5628 91.9879 53.4476V53.4577ZM73.4646 13.7278C77.2794 21.8179 77.5597 31.0095 78.8614 39.3299C82.5961 39.3199 86.4609 40.0709 90.0855 40.211C90.1055 29.2272 83.9578 18.0632 73.4646 13.7278ZM50.4657 13.9381C38.3605 17.7829 24.0526 45.5377 45.1691 39.2899C46.7611 31.1196 46.9814 21.838 50.4657 13.9381ZM52.1479 95.8909C61.5897 109.919 63.4721 109.077 72.8138 95.6206C73.9652 86.3389 69.7299 92.5367 64.0328 92.1863C55.6923 93.9385 50.9263 85.5379 52.1479 95.8909ZM40.6234 102.709C47.1316 113.513 45.6898 124.246 58.666 112.091C53.4195 105.513 49.7448 96.1312 40.6134 102.719H40.6234V102.709ZM75.8576 118.98C49.5145 107.946 99.9478 83.6055 75.8576 118.98V118.98ZM92.929 59.305C87.4522 61.2775 87.1217 58.0334 87.5222 65.2625C91.6875 64.1411 92.7188 62.7894 92.929 59.305ZM36.4882 60.096C34.3956 60.3663 32.9237 59.7355 31.0113 59.5052C32.2228 65.3125 37.95 67.6955 36.4882 60.096Z" fill="#305A42"/>
<path d="M99.0668 135.601C107.658 125.388 102.791 159.771 104.003 161.273C115.417 160.792 121.275 165.138 119.242 149.829C123.698 138.865 125.43 155.426 124.429 159.611C124.419 162.895 121.895 166.239 118.461 166.199C106.977 163.866 69.8301 171.185 65.7249 162.795C65.3344 159.791 98.0255 161.994 99.0768 161.353C99.0567 161.343 99.1068 135.601 99.0567 135.601H99.0668Z" fill="#305A42"/>
</svg>
