<svg width="174" height="147" viewBox="0 0 174 147" fill="none" xmlns="http://www.w3.org/2000/svg">
<path d="M81.4444 45.189H81.4344C76.7731 45.189 72.9944 48.9677 72.9944 53.629V53.639C72.9944 58.3003 76.7731 62.079 81.4344 62.079H81.4444C86.1057 62.079 89.8844 58.3003 89.8844 53.639V53.629C89.8844 48.9677 86.1057 45.189 81.4444 45.189Z" fill="#A5CEB6"/>
<path d="M78.9443 90.689C78.9443 71.9113 63.722 56.689 44.9443 56.689C26.1667 56.689 10.9443 71.9113 10.9443 90.689C10.9443 109.467 26.1667 124.689 44.9443 124.689C63.722 124.689 78.9443 109.467 78.9443 90.689Z" fill="#A5CEB6"/>
<path d="M173.434 127.299C171.794 133.309 165.664 135.559 159.714 134.729C156.934 143.069 150.414 146.099 145.364 146.519C137.714 147.379 130.234 142.089 128.074 134.739C127.594 135.909 44.7144 132.449 46.0044 135.979C41.5744 148.679 22.7344 150.219 16.3644 138.299C14.2844 132.029 14.0244 133.199 8.33443 130.589C-5.26557 126.639 2.34443 109.119 0.434432 98.6191C0.524432 84.4591 18.2944 88.1791 26.0844 80.5791C41.5144 62.4891 65.9644 67.3691 87.0944 66.8191C106.854 67.1391 118.934 87.1291 137.754 90.5291C138.024 89.0891 138.124 66.3691 137.884 61.0991C120.324 60.4991 110.444 66.1191 112.944 42.9291C112.874 41.2891 112.964 39.4491 114.934 38.4591C121.024 39.1491 116.854 50.6891 118.014 55.1691C133.734 57.5491 150.964 55.2391 167.084 56.0191C170.404 56.6491 167.204 6.86908 168.284 6.11908C168.234 4.87908 119.244 6.11909 118.814 5.69909C116.744 11.1691 118.624 18.4991 118.004 24.6991C118.254 26.9591 116.284 27.5691 114.444 27.2791C110.984 21.8791 113.814 13.7991 112.944 7.19909C112.994 3.71909 115.494 0.619084 119.094 0.599084C129.784 2.71908 170.544 -4.47091 173.154 5.21909C173.794 5.00909 173.604 56.3091 173.154 56.1391C170.184 64.8291 157.884 59.8191 150.874 61.0891V93.1291C172.174 95.4491 174.764 108.739 173.434 127.309V127.299ZM14.1844 127.679C18.1844 108.449 45.5644 110.119 47.2444 129.589C49.1144 127.429 133.914 134.779 128.464 124.879C133.714 107.959 160.224 111.949 160.314 129.649C171.754 131.929 167.754 118.999 168.344 111.989C167.404 102.349 157.024 98.4391 148.584 97.8791C120.474 94.0891 118.994 84.9391 96.4344 73.7391C80.8344 70.2391 63.8144 71.4991 47.9744 72.8591C36.6544 74.8191 30.6344 85.8991 20.1144 89.5991C15.2444 92.0691 5.62443 90.9291 5.53443 98.1691C5.50443 106.109 5.53443 114.039 5.50443 121.979C5.84443 125.849 11.4444 125.669 14.1844 127.679ZM31.3344 141.539C45.1644 141.339 45.2244 118.709 30.8844 118.859C15.8444 118.499 15.6944 142.249 31.3344 141.549V141.539ZM132.944 133.569C137.924 148.919 161.724 139.069 153.874 124.839C147.604 112.899 129.154 120.809 132.944 133.569ZM145.734 92.1191V61.1391H143.064C144.194 62.5591 140.254 94.5691 145.734 92.1191Z" fill="#305A42"/>
<path d="M140.005 34.1091C139.715 37.5191 141.925 49.1991 134.645 44.3691V15.5991C137.205 13.3991 141.535 14.7591 144.705 14.5291C161.195 15.5491 156.215 37.3491 140.015 34.1191L140.005 34.1091ZM146.345 29.4491C149.245 28.0291 149.655 24.4591 148.525 21.8291C147.415 18.2791 142.805 19.8391 140.025 19.5291V29.7491C142.255 29.6391 144.435 29.5391 146.355 29.4491H146.345Z" fill="#305A42"/>
<path d="M53.3345 103.309C47.8545 97.349 58.7145 98.609 62.2145 98.589V80.349C47.1645 77.639 37.8545 89.019 26.4745 96.279C26.9845 102.429 39.5045 94.719 40.6045 100.989C38.7645 105.649 30.9745 102.489 26.5545 103.269C16.7345 100.229 22.4145 91.259 29.3845 88.449C36.2245 82.999 42.8145 76.099 52.1045 75.639C64.0745 74.999 77.8645 75.089 89.8245 75.639C100.884 77.449 109.094 85.829 118.424 91.399C150.884 112.119 62.4145 100.519 53.3145 103.319H53.3245L53.3345 103.309ZM119.805 98.519C100.325 83.999 92.6745 78.239 67.4045 80.339C67.1745 85.869 67.2645 97.209 67.5245 98.519H119.805Z" fill="#305A42"/>
<path d="M78.7545 110.249C78.3845 104.269 96.9045 106.379 89.6045 112.099C86.2045 111.439 80.8645 113.839 78.7545 110.249Z" fill="#305A42"/>
<path d="M28.3944 122.929C37.7244 120.239 42.3144 135.139 32.3544 137.549C23.0944 139.759 19.3244 125.879 28.4044 122.929H28.3944ZM28.1644 129.799C27.7644 133.329 32.9244 133.699 33.1144 130.219C32.5144 127.399 28.9444 126.749 28.1644 129.799Z" fill="#305A42"/>
<path d="M143.224 137.779C133.974 136.759 134.434 122.999 143.914 122.579C153.734 123.129 153.844 137.899 143.224 137.799V137.779ZM143.774 127.609C140.884 128.289 140.974 131.559 143.244 132.679C146.554 133.119 148.104 128.489 143.774 127.599V127.609Z" fill="#305A42"/>
</svg>
