<svg width="137" height="158" viewBox="0 0 137 158" fill="none" xmlns="http://www.w3.org/2000/svg">
<path d="M89.9079 119.357H89.8984C85.4619 119.357 81.8655 122.953 81.8655 127.389V127.399C81.8655 131.835 85.4619 135.432 89.8984 135.432H89.9079C94.3443 135.432 97.9408 131.835 97.9408 127.399V127.389C97.9408 122.953 94.3443 119.357 89.9079 119.357Z" fill="#A5CEB6"/>
<path d="M77.0495 110.848C77.0495 92.9757 62.5614 78.4877 44.6895 78.4877C26.8176 78.4877 12.3296 92.9757 12.3296 110.848C12.3296 128.72 26.8176 143.208 44.6895 143.208C62.5614 143.208 77.0495 128.72 77.0495 110.848Z" fill="#A5CEB6"/>
<path d="M47.7923 0.15759C58.4806 17.6795 109.152 20.5063 73.0616 34.0308C66.3231 37.3144 59.4799 40.4743 52.7605 43.7388V92.3929C56.3486 93.1353 65.0097 88.9951 65.0478 94.7818C62.478 98.5508 56.5961 95.7146 52.7605 97.4087C53.1222 98.1416 51.8373 103.452 53.7503 102.529C80.571 104.499 66.285 124.42 46.8596 119.156C41.7772 118.69 34.5723 114.198 37.618 108.363C40.3876 105.813 39.7213 102.996 39.7213 99.5311C13.1862 103.529 -14.4815 127.38 21.6664 144.283C50.4287 156.513 84.4447 156.323 113.255 144.978C122.506 142.008 127.94 134.042 133.851 127.76C139.609 130.197 132.271 137.107 129.92 139.867C105.964 159.397 70.9106 160.444 42.0627 155.504C-11.1599 146.881 -15.9092 105.584 39.512 94.5724C43.9186 79.8106 30.6415 -2.95467 47.8113 0.0814487L47.7923 0.148072V0.15759ZM47.7542 114.636C46.6692 113.417 49.8576 4.84978 46.6311 4.6975C43.2714 4.19306 42.215 117.167 47.7542 114.636ZM73.1092 21.8007C66.2565 24.8558 59.4704 28.0823 52.7986 31.4515V38.4756C62.0687 34.1736 71.139 29.7384 80.3331 25.2746C77.8204 24.0659 75.46 22.9238 73.1092 21.7912V21.8007ZM67.5985 19.0881C62.478 16.9467 57.8524 14.3674 52.7795 12.1212C52.2561 32.3081 51.8658 25.4459 67.5985 19.0881ZM52.7605 115.349C66.8656 114.521 66.8371 107.44 52.7605 107.269V115.349Z" fill="#305A42"/>
<path d="M135.973 120.308C134.422 122.935 131.253 121.45 130.748 118.738C118.251 100.254 92.63 98.3795 72.5002 96.238C63.3062 82.6849 138.219 101.187 135.973 120.308Z" fill="#305A42"/>
<path d="M99.7774 127.58C99.3301 140.343 80.133 139.981 80.0188 127.465C80.3329 114.759 99.7108 114.836 99.7774 127.589V127.58ZM88.3277 132.396C93.8003 132.348 94.8758 131.567 94.7806 125.952C90.7356 116.549 78.9814 128.398 88.3277 132.396Z" fill="#305A42"/>
</svg>
