<svg width="36" height="36" viewBox="0 0 36 36" fill="none" xmlns="http://www.w3.org/2000/svg">
<path d="M17.999 0C8.05779 0 0 8.05779 0 17.999C0 27.9402 8.05779 35.998 17.999 35.998C27.9402 35.998 35.998 27.9402 35.998 17.999C35.998 8.05779 27.9402 0 17.999 0ZM27.4339 21.9333C26.2243 24.1891 24.4039 25.7337 21.9846 26.569C21.5019 26.7345 21.0054 26.8508 20.503 26.9335C19.8805 27.036 19.256 27.0734 18.6255 27.0497C18.3379 27.0399 18.0502 27.0103 17.7646 26.9788C17.0908 26.902 16.4367 26.7424 15.7964 26.5178C15.3216 26.3504 14.8626 26.1494 14.4213 25.9071C14.3701 25.8795 14.3267 25.8756 14.2696 25.8933C12.5635 26.441 10.8554 26.9867 9.14924 27.5344C9.12362 27.5423 9.09801 27.5502 9.05861 27.562C9.0724 27.5226 9.08028 27.495 9.09013 27.4654C9.64571 25.8125 10.2013 24.1596 10.7588 22.5066C10.7746 22.4613 10.7785 22.4239 10.7509 22.3786C10.1875 21.4369 9.80332 20.4262 9.59054 19.3505C9.52159 18.9998 9.47431 18.6452 9.44475 18.2886C9.40929 17.8788 9.40338 17.4671 9.42308 17.0553C9.47628 15.9205 9.72057 14.8291 10.1638 13.781C11.2789 11.1469 13.515 9.1453 16.2555 8.33361C16.679 8.20752 17.1085 8.11492 17.5459 8.04794C18.1389 7.95731 18.7339 7.92185 19.3328 7.94746C21.4999 8.04203 23.4287 8.77097 25.0934 10.1619C26.705 11.5075 27.759 13.2116 28.2653 15.2527C28.3756 15.694 28.4446 16.1432 28.4879 16.5943C28.5254 16.9923 28.5392 17.3902 28.5273 17.7882C28.4801 19.252 28.1313 20.6409 27.4379 21.9333H27.4339Z" fill="#F3F2F3"/>
<path d="M26.6321 15.3768C26.041 13.3259 24.8274 11.7478 23.0011 10.6485C21.8821 9.97472 20.6587 9.62009 19.3544 9.55508C18.9328 9.53341 18.5132 9.54523 18.0916 9.59448C17.7311 9.63586 17.3745 9.69496 17.0238 9.78558C15.4418 10.1934 14.1021 11.0051 13.0205 12.2266C11.8049 13.5997 11.143 15.2113 11.0287 17.0435C10.9873 17.7133 11.0346 18.3812 11.1647 19.0392C11.3873 20.1543 11.8286 21.1748 12.4886 22.0988C12.5201 22.1441 12.526 22.1796 12.5083 22.2308C12.2443 23.009 11.9842 23.7872 11.7222 24.5654C11.6631 24.7408 11.604 24.9181 11.539 25.1092C11.5784 25.0974 11.602 25.0914 11.6257 25.0836C12.5891 24.7762 13.5505 24.4669 14.5139 24.1576C14.571 24.1399 14.6163 24.1399 14.6616 24.1793C14.6715 24.1872 14.6833 24.1931 14.6931 24.201C15.8811 24.9555 17.1775 25.3692 18.5822 25.4402C19.0845 25.4658 19.5869 25.4441 20.0873 25.3712C20.4656 25.316 20.8399 25.2372 21.2064 25.1289C22.613 24.7092 23.8207 23.9645 24.8117 22.8829C26.1159 21.4585 26.8133 19.7761 26.9138 17.8453C26.9335 17.4474 26.9197 17.0494 26.8764 16.6515C26.8291 16.22 26.7542 15.7925 26.634 15.3748L26.6321 15.3768ZM23.7005 21.1689C23.6296 21.3344 23.5075 21.4625 23.3715 21.5787C23.0248 21.8762 22.6347 22.091 22.1914 22.1993C22.0693 22.2289 21.9392 22.2387 21.8151 22.2564C21.7442 22.2663 21.6752 22.2821 21.6043 22.286C21.3659 22.3018 21.1374 22.2486 20.9108 22.1855C20.438 22.0535 19.9849 21.8703 19.5337 21.6812C19.1712 21.5295 18.8127 21.3738 18.4718 21.1729C17.8335 20.7986 17.2661 20.3336 16.748 19.8056C16.1471 19.1949 15.6289 18.5191 15.1738 17.7941C15.0202 17.5498 14.8567 17.3134 14.7227 17.0573C14.5237 16.6751 14.3602 16.2811 14.2676 15.8595C14.2183 15.6388 14.1888 15.4182 14.1927 15.1916C14.1986 14.5966 14.3523 14.0489 14.7089 13.5643C14.8488 13.3732 15.0103 13.2037 15.1857 13.0481C15.3827 12.8747 15.6132 12.7999 15.8792 12.8274C16.0387 12.8452 16.2003 12.855 16.3599 12.859C16.4859 12.8629 16.5845 12.9161 16.6495 13.0166C16.7046 13.1013 16.7519 13.1939 16.7893 13.2885C17.0002 13.8499 17.207 14.4114 17.4158 14.9729C17.4375 15.032 17.4612 15.0911 17.4868 15.1502C17.5498 15.298 17.54 15.4359 17.4671 15.5836C17.3567 15.8082 17.1913 15.9875 17.0277 16.1688C16.9548 16.2476 16.878 16.3224 16.8031 16.3993C16.7795 16.4229 16.7559 16.4466 16.7342 16.4722C16.6514 16.5687 16.6376 16.6771 16.683 16.7933C16.6928 16.8169 16.7027 16.8406 16.7145 16.8623C17.0396 17.4592 17.4257 18.0128 17.9064 18.4975C18.4305 19.0274 19.0274 19.453 19.7012 19.7721C19.7859 19.8115 19.8686 19.8568 19.9553 19.8962C20.0105 19.9219 20.0676 19.9416 20.1267 19.9593C20.2174 19.9869 20.2981 19.9593 20.371 19.9081C20.4065 19.8824 20.438 19.8529 20.4676 19.8194C20.7473 19.514 21.029 19.2126 21.2812 18.8836C21.3876 18.7437 21.5038 18.7083 21.6733 18.7634C21.7698 18.7949 21.8663 18.8324 21.955 18.8797C22.4397 19.1318 22.9204 19.3879 23.403 19.6421C23.5134 19.7012 23.6217 19.7642 23.732 19.8194C23.8818 19.8943 23.9448 20.0085 23.9369 20.178C23.9212 20.5247 23.8384 20.8537 23.7025 21.1709L23.7005 21.1689Z" fill="#F3F2F3"/>
</svg>
