<?xml version="1.0" encoding="UTF-8"?> <svg xmlns="http://www.w3.org/2000/svg" width="323" height="66" viewBox="0 0 323 66" fill="none"><g clip-path="url(#clip0_116_30)"><path d="M132 15.8709C127.613 17.2902 122.967 21.9999 121.677 26.516C120.387 30.7741 120.387 37.4838 121.613 41.7418C122.838 45.8064 126.838 50.4515 130.451 51.9354C132.322 52.7096 135.032 53.0967 138.516 53.0967C148.645 53.0967 154.516 48.3225 156.129 38.5805C157.742 29.0322 154.967 20.9676 148.838 17.1612C146.193 15.5483 144.967 15.2257 140.451 15.0322C136.967 14.9031 134.129 15.1612 132 15.8709ZM141.226 22.5805C144.645 24.387 145.806 37.1612 143.096 42.5805C139.484 49.6773 133.355 46.1935 132.451 36.5805C131.548 26.516 135.871 19.6773 141.226 22.5805Z" fill="white"></path><path d="M166.322 15.2894L162.58 15.5475V34.1927V52.9023H168.387H174.193V45.483C174.193 38.1282 174.193 38.0636 175.741 38.0636C178.128 38.0636 180.516 40.3862 181.29 43.4185C181.612 44.9023 182.387 47.6765 182.967 49.483L183.935 52.9023H190.064C194.774 52.9023 196.128 52.7088 195.87 52.0636C195.741 51.6765 194.645 48.5152 193.548 45.1604C191.419 38.6443 190.903 37.6765 188.451 35.9991L186.967 34.9669L188.903 33.9346C192.451 32.1282 194.193 29.354 194.193 25.5475C194.193 17.0314 186.128 14.0636 166.322 15.2894ZM181.29 22.9023C183.161 24.5798 182.967 28.0636 180.967 29.9991C179.806 31.1604 178.709 31.612 176.774 31.612H174.193V26.3862V21.0959L177.096 21.483C178.709 21.612 180.645 22.3217 181.29 22.9023Z" fill="white"></path><path d="M215.676 15.4833C205.482 17.6123 199.482 23.8059 198.837 32.9027C198.256 41.3543 201.418 47.4188 208.256 50.7736C211.805 52.5156 212.321 52.5801 221.289 52.5801C226.45 52.5801 231.16 52.3865 231.805 52.1285C232.773 51.6769 232.902 50.5801 232.902 41.6123V31.6123H225.16H217.418V34.8381V38.0639H219.998H222.579V42.322V46.6446L219.676 46.322C213.16 45.5478 209.353 39.2898 210.902 31.8059C212.321 24.6446 215.805 22.2575 224.644 22.322H230.192L231.031 19.5478C231.547 17.4833 231.611 16.5156 231.095 15.9994C230.192 15.0962 219.224 14.7091 215.676 15.4833Z" fill="white"></path><path d="M80.6445 34.1927V52.9023H85.8703H91.0961L90.8381 41.2894L90.58 29.7411L93.5478 35.354C95.2252 38.4507 98.1929 43.6765 100.257 46.9023L103.999 52.9023H109.096H114.193V34.1927V15.483H109.29H104.386L104.645 26.9669L104.838 38.3862L100.967 31.612C98.7736 27.8701 95.8058 22.7088 94.2574 20.1282L91.4832 15.483H86.0639H80.6445V34.1927Z" fill="white"></path><path d="M242.064 33.8056C238.774 43.8701 236.129 52.3217 236.129 52.5152C236.129 52.7733 238.645 52.8378 241.742 52.7733L247.29 52.5798L248.387 48.7088L249.484 44.8378L254.387 44.6443C257.806 44.5152 259.355 44.7088 259.355 45.2249C259.355 45.612 259.806 47.483 260.387 49.4185L261.355 52.9023H266.839C270.129 52.9023 272.258 52.6443 272.258 52.2572C272.258 51.8701 269.871 43.4185 266.968 33.5475L261.742 15.483H254.839H248L242.064 33.8056ZM257.419 36.9023C257.419 37.8701 256.839 38.0636 254.129 38.0636C251.742 38.0636 250.903 37.8056 251.161 37.2249C251.29 36.8378 252.129 33.612 252.968 30.0636L254.516 23.7411L255.935 29.7411C256.71 33.0959 257.355 36.3217 257.419 36.9023Z" fill="white"></path><path d="M276.129 28.2576C276.129 37.6769 276.387 41.935 277.097 44.2576C278.839 50.1286 283.419 52.9673 291.548 53.0963C298.064 53.2253 302.193 51.9995 305.161 49.0318C308.516 45.6769 309.032 42.8382 309.032 28.1286V15.4834H303.226H297.419V29.0963C297.419 37.0963 297.161 43.1608 296.774 43.8705C295.032 47.0963 290.322 47.0318 288.71 43.8705C287.935 42.3866 287.742 39.2253 287.742 28.7092V15.4834H281.935H276.129V28.2576Z" fill="white"></path><path d="M0 34.1931V66.4512H32.5806H65.1613V34.1931V1.93504H32.5806H0V34.1931Z" fill="#1596EC"></path><circle cx="316" cy="7" r="6.25" stroke="white" stroke-width="1.5"></circle><path d="M313.569 10V3.45455H316.151C316.646 3.45455 317.067 3.54297 317.417 3.71982C317.768 3.89453 318.036 4.14276 318.219 4.46449C318.404 4.78409 318.497 5.16016 318.497 5.59268C318.497 6.02734 318.403 6.40128 318.216 6.71449C318.028 7.02557 317.757 7.2642 317.401 7.4304C317.047 7.59659 316.619 7.67969 316.116 7.67969H314.387V6.56747H315.892C316.157 6.56747 316.376 6.53125 316.551 6.45881C316.725 6.38636 316.855 6.2777 316.941 6.13281C317.028 5.98793 317.072 5.80788 317.072 5.59268C317.072 5.37535 317.028 5.19212 316.941 5.04297C316.855 4.89382 316.724 4.78089 316.548 4.70419C316.373 4.62536 316.152 4.58594 315.886 4.58594H314.953V10H313.569ZM317.104 7.02131L318.73 10H317.203L315.611 7.02131H317.104Z" fill="white"></path></g><defs><clipPath id="clip0_116_30"><rect width="323" height="66" fill="white"></rect></clipPath></defs></svg> 