<svg width="280" height="282" viewBox="0 0 280 282" fill="none" xmlns="http://www.w3.org/2000/svg">
<rect y="1.00002" width="279.995" height="279.995" rx="30" fill="#F7F7F7"/>
<line x1="187.93" y1="0.99399" x2="188.603" y2="280.989" stroke="#E7E7E7" stroke-width="5"/>
<line x1="279.995" y1="90.662" x2="-3.05176e-05" y2="90.662" stroke="#E7E7E7" stroke-width="5"/>
<line x1="279.995" y1="190.276" x2="-3.05176e-05" y2="190.276" stroke="#E7E7E7" stroke-width="5"/>
<line x1="93.7004" y1="0.993939" x2="94.3792" y2="280.989" stroke="#E7E7E7" stroke-width="5"/>
<circle cx="138.652" cy="43.7397" r="16.3458" stroke="#4BEB51" stroke-width="5"/>
<circle cx="44.7589" cy="139.315" r="16.3458" stroke="#4BEB51" stroke-width="5"/>
<circle cx="138.652" cy="139.315" r="16.3458" stroke="#4BEB51" stroke-width="5"/>
<circle cx="138.652" cy="232.198" r="16.3458" stroke="#4BEB51" stroke-width="5"/>
<line x1="25.0556" y1="61.4072" x2="62.2584" y2="23.8973" stroke="#EB4B4B" stroke-width="5"/>
<line x1="62.1749" y1="63.3452" x2="24.8182" y2="25.9886" stroke="#EB4B4B" stroke-width="5"/>
<line x1="25.3922" y1="249.193" x2="62.5951" y2="211.683" stroke="#EB4B4B" stroke-width="5"/>
<line x1="62.5115" y1="251.131" x2="25.1549" y2="213.774" stroke="#EB4B4B" stroke-width="5"/>
<line x1="25.3922" y1="249.193" x2="62.5951" y2="211.683" stroke="#EB4B4B" stroke-width="5"/>
<line x1="62.5115" y1="251.131" x2="25.1549" y2="213.774" stroke="#EB4B4B" stroke-width="5"/>
<line x1="212.504" y1="62.7533" x2="249.707" y2="25.2435" stroke="#EB4B4B" stroke-width="5"/>
<line x1="249.624" y1="64.6914" x2="212.267" y2="27.3347" stroke="#EB4B4B" stroke-width="5"/>
<line x1="211.495" y1="249.193" x2="248.698" y2="211.683" stroke="#EB4B4B" stroke-width="5"/>
<line x1="248.614" y1="251.131" x2="211.258" y2="213.774" stroke="#EB4B4B" stroke-width="5"/>
<rect x="187.112" y="89.8447" width="92.8831" height="97.9311" fill="#E6E6E6"/>
<line x1="139.171" y1="281.006" x2="138.498" y2="1.00602" stroke="#E6E6E6" stroke-width="5"/>
</svg>
