<svg width="572" height="574" viewBox="0 0 572 574" fill="none" xmlns="http://www.w3.org/2000/svg">
<rect x="0.00927734" y="1" width="571.991" height="571.991" rx="30" fill="#F7F7F7"/>
<line x1="381.316" y1="0.99399" x2="382.691" y2="572.985" stroke="#E7E7E7" stroke-width="5"/>
<line x1="572" y1="181.56" x2="0.00933838" y2="181.56" stroke="#E7E7E7" stroke-width="5"/>
<line x1="572" y1="385.056" x2="0.00933838" y2="385.056" stroke="#E7E7E7" stroke-width="5"/>
<line x1="188.819" y1="0.993939" x2="190.205" y2="572.985" stroke="#E7E7E7" stroke-width="5"/>
<circle cx="283.255" cy="88.3111" r="33.4994" stroke="#4BEB51" stroke-width="10"/>
<circle cx="91.4453" cy="283.558" r="33.4994" stroke="#4BEB51" stroke-width="10"/>
<circle cx="283.255" cy="283.558" r="33.4994" stroke="#4BEB51" stroke-width="10"/>
<circle cx="283.255" cy="473.305" r="33.4994" stroke="#4BEB51" stroke-width="10"/>
<line x1="49.2703" y1="127.479" x2="125.27" y2="50.8515" stroke="#EB4B4B" stroke-width="10"/>
<line x1="127.1" y1="128.287" x2="50.7855" y2="51.9723" stroke="#EB4B4B" stroke-width="10"/>
<line x1="129.555" y1="510.138" x2="53.2406" y2="433.823" stroke="#EB4B4B" stroke-width="5"/>
<line x1="49.9578" y1="511.097" x2="125.958" y2="434.47" stroke="#EB4B4B" stroke-width="10"/>
<line x1="127.787" y1="511.905" x2="51.4729" y2="435.591" stroke="#EB4B4B" stroke-width="10"/>
<line x1="432.201" y1="130.229" x2="508.202" y2="53.6014" stroke="#EB4B4B" stroke-width="10"/>
<line x1="510.031" y1="131.037" x2="433.717" y2="54.7222" stroke="#EB4B4B" stroke-width="10"/>
<line x1="430.139" y1="511.097" x2="506.139" y2="434.47" stroke="#EB4B4B" stroke-width="10"/>
<line x1="507.968" y1="511.905" x2="431.654" y2="435.591" stroke="#EB4B4B" stroke-width="10"/>
<rect x="382.253" y="182.497" width="189.747" height="200.059" fill="#E6E6E6"/>
<line x1="285.38" y1="573.012" x2="284.005" y2="1.01201" stroke="#E6E6E6" stroke-width="10"/>
</svg>
