<svg width="732" height="733" viewBox="0 0 732 733" fill="none" xmlns="http://www.w3.org/2000/svg">
<rect y="1" width="731.002" height="731.002" rx="30" fill="#F7F7F7"/>
<line x1="486.613" y1="0.99399" x2="488.37" y2="731.996" stroke="#E7E7E7" stroke-width="5"/>
<line x1="731.002" y1="231.059" y2="231.059" stroke="#E7E7E7" stroke-width="5"/>
<line x1="731.002" y1="491.127" y2="491.127" stroke="#E7E7E7" stroke-width="5"/>
<line x1="240.603" y1="0.993939" x2="242.375" y2="731.996" stroke="#E7E7E7" stroke-width="5"/>
<circle cx="361.986" cy="112.583" r="44.202" stroke="#4BEB51" stroke-width="10"/>
<circle cx="116.855" cy="362.108" r="44.202" stroke="#4BEB51" stroke-width="10"/>
<circle cx="361.986" cy="362.108" r="44.202" stroke="#4BEB51" stroke-width="10"/>
<circle cx="361.986" cy="604.604" r="44.202" stroke="#4BEB51" stroke-width="10"/>
<line x1="66.4981" y1="159.784" x2="163.626" y2="61.8548" stroke="#EB4B4B" stroke-width="10"/>
<line x1="163.404" y1="162.689" x2="65.8745" y2="65.1595" stroke="#EB4B4B" stroke-width="10"/>
<line x1="69.1517" y1="651.808" x2="166.28" y2="553.878" stroke="#EB4B4B" stroke-width="5"/>
<line x1="166.05" y1="651.184" x2="68.5209" y2="553.655" stroke="#EB4B4B" stroke-width="5"/>
<line x1="67.3767" y1="650.047" x2="164.505" y2="552.118" stroke="#EB4B4B" stroke-width="10"/>
<line x1="164.283" y1="652.952" x2="66.7531" y2="555.423" stroke="#EB4B4B" stroke-width="10"/>
<line x1="555.883" y1="163.299" x2="653.01" y2="65.3692" stroke="#EB4B4B" stroke-width="10"/>
<line x1="652.788" y1="166.203" x2="555.259" y2="68.6739" stroke="#EB4B4B" stroke-width="10"/>
<line x1="553.247" y1="650.047" x2="650.375" y2="552.118" stroke="#EB4B4B" stroke-width="10"/>
<line x1="650.153" y1="652.952" x2="552.623" y2="555.423" stroke="#EB4B4B" stroke-width="10"/>
<rect x="488.506" y="232.952" width="242.496" height="255.675" fill="#E6E6E6"/>
<line x1="362.258" y1="732.026" x2="360.501" y2="1.01204" stroke="#E6E6E6" stroke-width="10"/>
</svg>
