<?xml version="1.0" encoding="utf-8"?><svg xmlns="http://www.w3.org/2000/svg" xmlns:xlink="http://www.w3.org/1999/xlink"><symbol viewBox="0 0 16 16" id="dropdown-arrow" xmlns="http://www.w3.org/2000/svg">
    <path fill-rule="evenodd" clip-rule="evenodd" d="M13.004 5.2616C13.129 5.38662 13.1992 5.55615 13.1992 5.73293C13.1992 5.90971 13.129 6.07925 13.004 6.20426L8.47069 10.7376C8.34568 10.8626 8.17614 10.9328 7.99936 10.9328C7.82258 10.9328 7.65305 10.8626 7.52803 10.7376L2.99469 6.20426C2.87326 6.07853 2.80606 5.91013 2.80758 5.73533C2.8091 5.56053 2.87921 5.39332 3.00282 5.26972C3.12642 5.14611 3.29363 5.076 3.46843 5.07448C3.64322 5.07296 3.81163 5.14016 3.93736 5.2616L7.99936 9.3236L12.0614 5.2616C12.1864 5.13662 12.3559 5.06641 12.5327 5.06641C12.7095 5.06641 12.879 5.13662 13.004 5.2616Z"/>
</symbol></svg>