<svg width="19" height="19" viewBox="0 0 19 19" fill="none" xmlns="http://www.w3.org/2000/svg">
<path d="M17.5687 16.2401C17.5661 16.2433 17.5641 16.2455 17.5633 16.2465C17.5565 16.2544 17.5494 16.2623 17.5443 16.2678C17.5331 16.2802 17.5181 16.2964 17.5013 16.3145C17.4671 16.3512 17.42 16.4012 17.3679 16.4563C17.2637 16.5664 17.1363 16.7001 17.0463 16.793L17.0422 16.7972L17.0422 16.7972C16.7787 17.0628 16.5232 17.3294 16.2861 17.6245C16.2811 17.6307 16.276 17.6367 16.2708 17.6426C15.7612 18.2186 15.1369 18.5 14.3557 18.5H14.3495C14.2922 18.5 14.2122 18.5 14.1334 18.4945L17.5687 16.2401ZM17.5687 16.2401C17.8238 15.9556 18.0009 15.6165 18 15.2312C17.9991 14.8382 17.8134 14.4975 17.5454 14.2166C17.5451 14.2163 17.5448 14.216 17.5445 14.2156L15.2884 11.8309L15.2884 11.8309L15.2884 11.8309L15.2874 11.8298C15.1248 11.6442 14.7926 11.3497 14.327 11.3497C13.8503 11.3497 13.5027 11.6642 13.345 11.8309L11.9437 13.3122C11.8786 13.381 11.7956 13.4546 11.6841 13.4546C11.6439 13.4546 11.5956 13.4465 11.5242 13.4106C11.5199 13.4078 11.5138 13.4038 11.5073 13.3997C11.5025 13.3967 11.4966 13.393 11.4897 13.389C11.3543 13.3014 11.203 13.2215 11.0682 13.1502L11.0572 13.1444C10.8904 13.0563 10.741 12.9768 10.598 12.881L10.5974 12.8806C9.33475 12.0366 8.18097 10.929 7.07752 9.49215C7.07368 9.48715 7.06974 9.48222 7.06572 9.47737C6.47245 8.67918 6.09311 8.02484 5.8251 7.34321L5.82406 7.33992L5.81913 7.3243C5.78973 7.22513 5.77731 7.14944 5.78483 7.08077C5.79108 7.02366 5.81412 6.94039 5.91736 6.83126C5.92036 6.82809 5.92332 6.82488 5.92623 6.82163C6.29037 6.47604 6.62352 6.12375 6.96545 5.75378C7.0468 5.6706 7.12949 5.58219 7.20804 5.4982C7.24611 5.4575 7.28321 5.41784 7.31871 5.38031C7.58376 5.10015 7.78125 4.76228 7.78125 4.36535C7.78125 3.96842 7.58376 3.63056 7.31871 3.35039L6.2027 2.17074C6.13724 2.09941 6.07198 2.02935 6.00865 1.96135L6.00658 1.95913C5.94132 1.88905 5.87815 1.82121 5.81621 1.75364C5.56736 1.48197 5.32457 1.22071 5.06751 0.966476L5.06715 0.966098L5.06097 0.959568L5.06097 0.959565C4.9026 0.79216 4.56914 0.5 4.09951 0.5C3.71197 0.5 3.37961 0.699456 3.1245 0.952601L3.11348 0.963896L1.71621 2.44084L2.07943 2.78446L1.71621 2.44084C1.29533 2.88572 1.06545 3.4139 1.01559 4.03053L1.01559 4.03053L1.01546 4.03217C0.946898 4.91639 1.10588 5.82904 1.50122 6.94807C2.14138 8.77614 3.10556 10.4695 4.52981 12.284L4.53126 12.2858C6.26601 14.4747 8.35764 16.2065 10.7433 17.4273L10.7455 17.4284C11.6042 17.8625 12.8103 18.4049 14.1327 18.4945L17.5687 16.2401ZM17.5558 16.2524C17.5536 16.2547 17.5515 16.2571 17.5493 16.2594L17.187 15.9167C17.3148 15.7763 17.4035 15.6364 17.4531 15.4971C17.5073 15.5317 17.558 15.5786 17.5989 15.6394C17.665 15.7377 17.684 15.8399 17.684 15.9183C17.684 16.0625 17.623 16.1641 17.5898 16.2102C17.5788 16.2254 17.5674 16.2394 17.5558 16.2524ZM5.89391 6.8515L5.89403 6.85139L5.89391 6.8515Z" stroke="white" stroke-linejoin="round"/>
</svg>
