<svg width="17" height="17" viewBox="0 0 17 17" fill="none" xmlns="http://www.w3.org/2000/svg">
<path d="M8.50642 16.9971C6.87914 16.9971 5.25186 16.9971 3.62192 16.9971C2.66095 16.9971 1.81413 16.6937 1.11331 16.0285C0.420452 15.3686 0.0249137 14.557 0.0142952 13.599C-0.00694172 11.771 0.00367676 9.94021 0.00367676 8.11213C0.00367676 6.52619 -0.00959634 4.9376 0.0142952 3.35166C0.0408414 1.73113 1.37877 0.259617 2.9795 0.0467401C3.18922 0.0201305 3.40159 0.0041647 3.61396 0.0041647C6.87117 -0.00115723 10.1257 -0.00115724 13.3803 0.00150372C14.989 0.00416469 16.2791 0.898249 16.7941 2.4017C16.9242 2.77955 16.9853 3.19732 16.9879 3.59913C17.0039 6.8668 17.0012 10.1371 16.9959 13.4048C16.9932 14.9934 16.0774 16.276 14.5908 16.8082C14.1873 16.9519 13.7652 16.9971 13.3378 16.9998C11.7265 16.9971 10.1178 16.9971 8.50642 16.9971ZM8.49846 13.615C11.4796 13.5778 13.6564 11.3638 13.6139 8.40483C13.5767 5.62146 11.2593 3.28247 8.33652 3.37827C5.47219 3.4714 3.35115 5.63743 3.3777 8.60441C3.40424 11.3585 5.75358 13.6496 8.49846 13.615ZM13.744 2.59062C13.3776 2.59062 13.0777 2.88865 13.0803 3.2532C13.083 3.60977 13.375 3.90248 13.736 3.90514C14.0891 3.9078 14.3944 3.61776 14.397 3.27981C14.397 2.89131 14.113 2.59328 13.744 2.59062Z" fill="#FCD8B8"/>
<path d="M4 8.50557C3.99711 6.03364 6.0444 3.9882 8.51158 3.99981C10.9903 4.01141 13 6.02493 13 8.49977C13.0029 10.9833 10.9759 13.0084 8.49421 12.9997C6.01255 12.991 4.0029 10.9804 4 8.50557Z" fill="#FCD8B8"/>
</svg>
