<svg width="23" height="13" viewBox="0 0 23 13" fill="none" xmlns="http://www.w3.org/2000/svg">
<path d="M0.58905 1.05207C0.756725 0.761586 1.05539 0.740837 1.33835 0.73565C2.32343 0.720088 3.30328 0.709714 4.28837 0.725275C4.68135 0.730463 4.95906 0.93795 5.12674 1.30624C5.47257 2.04282 5.81315 2.78459 6.19566 3.50042C6.60961 4.26812 7.06023 5.01508 7.65233 5.66348C7.77809 5.80353 7.93528 5.93321 8.10296 6.02658C8.38591 6.19257 8.6479 6.10957 8.76841 5.80872C8.86797 5.55454 8.93085 5.27962 8.96753 5.00989C9.08804 4.0762 9.05661 3.13732 8.94133 2.20362C8.86273 1.55522 8.48022 1.17656 7.83049 1.06763C7.78857 1.06244 7.75189 1.04688 7.68901 1.03132C7.77809 0.714901 8.01388 0.538537 8.28635 0.43998C8.5693 0.336236 8.87845 0.268803 9.17712 0.242867C10.1412 0.159872 11.1106 0.144311 12.0747 0.268803C12.1009 0.27399 12.1324 0.27399 12.1586 0.279177C12.9026 0.429606 13.1384 0.699339 13.1384 1.45667C13.1332 2.64453 13.0965 3.8324 13.1017 5.01508C13.1017 5.27444 13.1803 5.54936 13.2851 5.78797C13.4319 6.11995 13.7096 6.18738 13.9768 5.94358C14.3017 5.64791 14.6161 5.32631 14.8728 4.97358C15.7007 3.85315 16.34 2.63416 16.8587 1.34774C17.0683 0.834206 17.1888 0.761586 17.7495 0.756398C18.8394 0.746024 19.924 0.730463 21.0139 0.725275C21.2287 0.725275 21.4488 0.746024 21.6531 0.803083C21.9466 0.880891 22.0409 1.05726 21.9937 1.35292C21.9151 1.85608 21.6846 2.30218 21.3964 2.70678C20.6576 3.75978 19.8821 4.78684 19.1275 5.82947C18.9546 6.06289 18.787 6.3015 18.6455 6.55567C18.4149 6.97065 18.4516 7.28188 18.7817 7.63461C19.0594 7.93546 19.3581 8.21557 19.6515 8.50087C20.3746 9.18558 21.0977 9.8651 21.6427 10.7002C21.7737 10.9025 21.8942 11.1152 21.9728 11.3434C22.0828 11.6443 21.9675 11.9244 21.6689 12.0489C21.4383 12.1475 21.1816 12.2253 20.93 12.2356C19.9764 12.272 19.0228 12.2771 18.0639 12.2875C17.3303 12.2927 16.7591 11.9348 16.2666 11.442C15.816 10.9907 15.3968 10.5083 14.9566 10.0466C14.8257 9.90659 14.6737 9.77691 14.5217 9.6628C14.0868 9.33082 13.631 9.42937 13.4161 9.93253C13.2851 10.2386 13.217 10.5757 13.1489 10.9025C13.1122 11.0737 13.1175 11.2604 13.107 11.4368C13.0808 11.94 12.845 12.2201 12.3367 12.2356C11.1159 12.2823 9.90022 12.2512 8.73174 11.8051C7.53706 11.3486 6.51529 10.6535 5.65072 9.72504C4.49796 8.48531 3.56003 7.08995 2.7531 5.6116C2.05096 4.30962 1.40646 2.98689 0.735765 1.67453C0.678127 1.5656 0.636209 1.45148 0.58905 1.33736C0.58905 1.24399 0.58905 1.14544 0.58905 1.05207Z" fill="#FCD8B8"/>
</svg>
