<svg width="20" height="18" viewBox="0 0 20 18" fill="none" xmlns="http://www.w3.org/2000/svg">
<path d="M19.1507 0.924052C19.0248 1.45619 18.8989 1.98367 18.7777 2.51581C17.8733 6.56755 16.9735 10.6146 16.0737 14.6664C15.8686 15.5859 15.6635 16.5055 15.4583 17.4251C15.4443 17.4811 15.4304 17.5325 15.4117 17.6165C13.6401 16.2068 11.8825 14.8157 10.1202 13.4154C9.09459 14.4423 8.07359 15.4599 7.02929 16.5009C6.99199 16.4168 6.96402 16.3562 6.94071 16.2955C6.19943 14.447 5.45816 12.5985 4.72155 10.75C4.67027 10.6193 4.60034 10.5399 4.46514 10.4886C3.05719 9.95179 1.64924 9.40564 0.245955 8.86416C0.199334 8.84549 0.152713 8.82682 0.0548096 8.78948C6.44653 6.13344 12.7963 3.4914 19.1507 0.849365C19.1507 0.872705 19.1507 0.896044 19.1507 0.924052ZM13.5422 5.79735C13.5329 5.78801 13.5282 5.77401 13.5189 5.76467C10.9408 7.29575 8.36264 8.83149 5.77519 10.3719C6.22274 11.4875 6.66098 12.5892 7.11787 13.7281C7.35563 12.8319 7.57941 11.987 7.80785 11.1468C7.83583 11.0534 7.89177 10.9507 7.96636 10.8854C9.05263 9.88643 10.1482 8.89217 11.2391 7.89324C12.0084 7.19305 12.7776 6.49753 13.5422 5.79735Z" fill="#FCD8B8"/>
</svg>
