<svg width="13" height="21" viewBox="0 0 13 21" fill="none" xmlns="http://www.w3.org/2000/svg">
<path d="M2.40609 20.2865C2.34954 20.2582 2.26473 20.23 2.20818 20.2017C1.44482 19.919 0.87937 18.8729 1.72755 18.053C2.85845 16.9503 3.96108 15.8194 5.09198 14.6885C5.20507 14.5754 5.31816 14.4624 5.43125 14.321C5.09198 14.2645 4.78098 14.2362 4.44171 14.1796C3.16945 13.9535 2.03855 13.5011 1.04901 12.6812C0.76628 12.4267 0.483555 12.1723 0.398737 11.8047C0.200829 10.8717 1.10555 10.0518 1.982 10.3628C2.23645 10.4477 2.46263 10.6173 2.71709 10.7587C5.20507 12.2288 7.66479 12.2571 10.1528 10.7587C10.4072 10.589 10.69 10.4477 10.9727 10.3346C11.5381 10.1649 12.0188 10.4194 12.3015 10.9283C12.6125 11.4937 12.5559 11.9744 12.1036 12.3985C11.114 13.3597 9.92659 13.8969 8.59778 14.1514C8.23024 14.2362 7.86269 14.2644 7.46688 14.3493C7.57997 14.4624 7.66479 14.5754 7.77788 14.6885C8.88051 15.7912 9.98314 16.9221 11.0858 18.0247C11.4533 18.3922 11.6795 18.7881 11.5381 19.297C11.3685 19.8341 11.0009 20.1734 10.4638 20.2865C10.4355 20.2865 10.4355 20.3148 10.4072 20.3148C10.3224 20.3148 10.2093 20.3148 10.1245 20.3148C9.75696 20.23 9.47423 20.0038 9.19151 19.7493C8.3716 18.9294 7.5517 18.1095 6.73179 17.2896C6.44907 17.0069 6.36425 17.0069 6.08152 17.2896C5.28989 18.1095 4.46999 18.9012 3.67835 19.7211C3.4239 19.9755 3.16945 20.23 2.8019 20.3431C2.68881 20.2865 2.54745 20.2865 2.40609 20.2865Z" fill="#FCD8B8"/>
<path d="M1.33185 5.18911C1.33185 2.36186 3.62193 0.0717773 6.47746 0.0717773C9.30471 0.0717773 11.5382 2.39013 11.5382 5.24566C11.5382 8.04464 9.21989 10.3064 6.39264 10.3064C3.59365 10.3064 1.33185 7.9881 1.33185 5.18911ZM8.93717 5.18911C8.93717 3.80376 7.83454 2.67285 6.42091 2.67285C5.03555 2.67285 3.93292 3.80376 3.93292 5.16084C3.93292 6.5462 5.03555 7.6771 6.42091 7.6771C7.83454 7.70537 8.93717 6.60274 8.93717 5.18911Z" fill="#FCD8B8"/>
</svg>
