<svg width="11" height="21" viewBox="0 0 11 21" fill="none" xmlns="http://www.w3.org/2000/svg">
<path d="M2.26818 13.0997C1.55019 13.0997 0.871752 13.0997 0.178101 13.0997C0.178101 11.5755 0.178101 10.0635 0.178101 8.5209C0.865668 8.5209 1.55628 8.5209 2.26514 8.5209C2.26514 8.41071 2.26514 8.33113 2.26514 8.25155C2.26818 7.25377 2.24993 6.25292 2.27427 5.25514C2.33511 2.86168 4.18181 0.814075 6.54266 0.504945C6.8043 0.471278 7.06594 0.459035 7.33062 0.455974C8.28896 0.449853 9.24729 0.452914 10.2087 0.452914C10.2756 0.452914 10.3425 0.452914 10.4247 0.452914C10.4247 2.10875 10.4247 3.74622 10.4247 5.41123C10.3547 5.41429 10.2817 5.42042 10.2117 5.42348C9.50893 5.42348 8.80616 5.42348 8.10338 5.42348C7.50708 5.42654 7.20589 5.72955 7.20285 6.32638C7.1998 6.98443 7.20285 7.64554 7.20285 8.30359C7.20285 8.3648 7.20893 8.42295 7.21197 8.51171C7.90258 8.51171 8.58711 8.51171 9.2838 8.51171C9.2838 10.0512 9.2838 11.5632 9.2838 13.0997C8.59623 13.0997 7.91171 13.0997 7.20285 13.0997C7.20285 15.4166 7.20285 17.7091 7.20285 20.0138C5.54782 20.0138 3.92017 20.0138 2.26818 20.0138C2.26818 17.7122 2.26818 15.4197 2.26818 13.0997Z" fill="#FCD8B8"/>
</svg>
