<svg width="21" height="14" viewBox="0 0 21 14" fill="none" xmlns="http://www.w3.org/2000/svg">
<path d="M10.0438 13.9979C7.82116 13.9979 5.59853 13.9979 3.37905 13.9979C2.35298 13.9979 1.47845 13.6475 0.799662 12.8677C0.294519 12.2899 0.0135326 11.6111 0.0103754 10.8439C0.000903995 8.28666 -0.00856743 5.72937 0.0135326 3.17208C0.0293183 1.44196 1.44372 0.0433479 3.17699 0.0117765C4.31672 -0.0103236 5.45645 0.00546221 6.59303 0.00546221C9.99643 0.00546221 13.3998 0.00230507 16.8032 0.00546221C18.2745 0.00546221 19.4994 0.854735 19.9509 2.22178C20.0709 2.58485 20.1246 2.98897 20.1277 3.37414C20.1435 5.79251 20.1372 8.20773 20.134 10.6261C20.1309 12.5709 18.7259 13.9885 16.778 13.9948C14.5301 14.0043 12.2885 13.9979 10.0438 13.9979ZM7.61279 11.0397C9.66493 9.68528 11.6918 8.3498 13.7377 7.0017C11.6823 5.64728 9.65862 4.31181 7.61279 2.96371C7.61279 5.67254 7.61279 8.33717 7.61279 11.0397Z" fill="#FCD8B8"/>
<path d="M7.61279 11.0396C7.61279 8.33709 7.61279 5.67246 7.61279 2.96362C9.65862 4.31173 11.6792 5.64404 13.7377 7.00161C11.6918 8.34972 9.66494 9.68519 7.61279 11.0396Z" fill="#434140"/>
</svg>
