<svg width="21" height="20" viewBox="0 0 21 20" fill="none" xmlns="http://www.w3.org/2000/svg">
<path d="M0.607726 9.30756C0.658104 8.95103 0.696857 8.59451 0.758861 8.24186C1.45253 4.23872 4.60699 1.01839 8.59075 0.258837C9.06353 0.169706 9.54794 0.134829 10.0246 0.0767002C10.1137 0.0650744 10.2029 0.0767002 10.2959 0.0767002C10.2959 0.340218 10.3075 0.588234 10.292 0.83625C10.2261 1.9407 10.1796 3.04902 10.0711 4.14959C9.97422 5.12616 9.73008 6.07559 9.23404 6.93978C8.54812 8.13336 7.5018 8.85028 6.19972 9.23005C5.1534 9.53232 4.07608 9.64083 2.99488 9.69508C2.19658 9.73384 1.39828 9.74934 0.599976 9.77646C0.607726 9.61758 0.607726 9.46257 0.607726 9.30756Z" fill="#FCD8B8"/>
<path d="M0.607727 10.354C1.87494 10.4199 3.14214 10.4548 4.40935 10.5555C5.42079 10.6369 6.40898 10.8578 7.31967 11.3344C8.65663 12.0359 9.43556 13.1752 9.81921 14.609C10.0866 15.6089 10.1874 16.6358 10.2416 17.6627C10.2804 18.3952 10.2959 19.1315 10.323 19.8639C10.168 19.8639 10.013 19.8639 9.85796 19.8639C9.53631 19.8213 9.21079 19.7864 8.88915 19.7321C6.61437 19.3368 4.69612 18.2905 3.14989 16.5777C1.88269 15.1748 1.08438 13.5317 0.762737 11.6677C0.704608 11.3228 0.661981 10.9702 0.611602 10.6214C0.607727 10.5323 0.607727 10.4431 0.607727 10.354Z" fill="#FCD8B8"/>
<path d="M10.9004 19.8679C10.9391 18.9301 10.9624 17.9884 11.0205 17.0506C11.0787 16.1127 11.2104 15.1788 11.4972 14.2797C12.0591 12.5243 13.2449 11.4082 15.0082 10.8966C16.0119 10.606 17.0427 10.5014 18.0774 10.4394C18.74 10.4006 19.4027 10.389 20.0654 10.3657C20.1739 10.3619 20.2824 10.3657 20.4219 10.3657C20.3754 10.7804 20.3521 11.1795 20.2863 11.5671C19.9762 13.4272 19.2089 15.078 17.9572 16.4925C16.287 18.3759 14.1982 19.4803 11.6987 19.7981C11.5204 19.8214 11.346 19.8485 11.1678 19.8717C11.0787 19.8679 10.9895 19.8679 10.9004 19.8679Z" fill="#FCD8B8"/>
<path d="M10.9043 0.0844727C16.0506 0.227857 20.3521 4.55652 20.4025 9.75323C20.2204 9.75323 20.0344 9.76099 19.8522 9.75323C18.7478 9.68736 17.6395 9.64473 16.535 9.53234C15.4732 9.42384 14.4424 9.15645 13.5278 8.57128C12.3962 7.85048 11.7452 6.79641 11.4003 5.52533C11.1445 4.58364 11.0399 3.61483 10.9856 2.64214C10.943 1.85159 10.9275 1.05716 10.9004 0.26661C10.9004 0.212356 10.9043 0.154227 10.9043 0.0844727Z" fill="#FCD8B8"/>
</svg>
