<svg width="18" height="18" viewBox="0 0 18 18" fill="none" xmlns="http://www.w3.org/2000/svg">
<path d="M17.4574 8.84341C17.4574 9.16169 17.4574 9.51534 17.4574 9.83363C17.422 10.1519 17.3865 10.4702 17.3157 10.7885C16.9259 12.9457 15.8276 14.7493 14.056 16.0225C11.3633 17.9322 8.49336 18.1797 5.48173 16.8359C5.37543 16.8005 5.26914 16.7652 5.16285 16.8005C3.74561 17.1895 2.3638 17.5432 0.946564 17.8968C0.804841 17.9322 0.663117 17.9676 0.556824 17.8261C0.450531 17.72 0.485962 17.5785 0.521393 17.4371C0.946564 16.1639 1.37174 14.8908 1.79691 13.6177C1.83234 13.4762 1.83234 13.4055 1.76148 13.264C1.19458 12.2031 0.840272 11.0714 0.76941 9.86899C0.663117 8.03001 1.08829 6.3325 2.08035 4.77644C3.3913 2.76064 5.26914 1.52287 7.64302 1.09849C7.96189 1.02776 8.28077 1.02776 8.56422 0.957031C8.8831 0.957031 9.23741 0.957031 9.55629 0.957031C9.59172 0.957031 9.62715 0.992396 9.69801 0.992396C11.1507 1.09849 12.4971 1.55823 13.7017 2.37163C15.6504 3.71549 16.8905 5.51911 17.3157 7.85319C17.3865 8.20684 17.422 8.52512 17.4574 8.84341ZM3.8519 6.79224C3.92276 7.11053 3.99363 7.46418 4.09992 7.7471C4.34794 8.48976 4.80854 9.09096 5.34 9.62144C6.50922 10.8238 7.67845 11.9909 8.8831 13.1579C9.44999 13.7238 10.1232 14.1481 10.8672 14.3957C11.5759 14.6079 12.2845 14.5725 12.9577 14.2189C13.56 13.9006 13.9852 13.4408 14.4103 12.9457C14.6938 12.6275 14.6938 12.1323 14.4458 11.7787C13.9497 11.036 13.2411 10.5763 12.4971 10.1519C12.4616 10.1165 12.4262 10.1165 12.3908 10.1165C12.001 10.0105 11.7176 10.0812 11.4341 10.3995C11.2924 10.5763 11.1507 10.7531 10.9735 10.9299C10.6901 11.2129 10.3003 11.2482 9.94603 11.0007C9.87517 10.9299 9.8043 10.8592 9.73344 10.7885C9.02482 10.0812 8.3162 9.37388 7.60758 8.66658C7.53672 8.59585 7.46586 8.52512 7.43043 8.48976C7.14698 8.13611 7.18241 7.7471 7.50129 7.46418C7.67845 7.28735 7.8556 7.14589 8.03276 6.96907C8.17448 6.82761 8.28077 6.68615 8.3162 6.47396C8.35163 6.2264 8.3162 6.01421 8.17448 5.80203C7.82017 5.20082 7.395 4.59962 6.86353 4.13987C6.29664 3.64477 5.72974 3.68013 5.19828 4.2106C4.98569 4.42279 4.77311 4.63498 4.59595 4.84717C4.13535 5.41301 3.88733 6.04958 3.8519 6.79224Z" fill="#FCD8B8"/>
</svg>
