<svg width="34" height="35" viewBox="0 0 34 35" fill="none" xmlns="http://www.w3.org/2000/svg">
<path d="M1.44766 6.67189C1.0957 6.8633 1.0625 7.0342 1.0625 8.59279C1.06914 15.0186 2.99492 21.5742 6.26211 26.2979C6.5543 26.7217 6.88633 27.1865 7.00586 27.3233L7.225 27.583L14.0051 27.6035C19.8555 27.6172 20.8117 27.6035 20.9777 27.5215C21.3164 27.3369 22.7441 25.1904 23.5211 23.7071L23.8664 23.0371H25.4402C27.5453 23.0371 28.2027 22.9141 29.3648 22.3194C30.7727 21.5879 32.0145 20.1729 32.5324 18.6963C32.8246 17.8555 32.9441 17.1582 32.9441 16.2696C32.9508 14.3692 32.2535 12.6807 30.9387 11.3819C29.916 10.377 28.973 9.89162 27.3461 9.53615L27.1602 9.50197V8.3672C27.1602 7.10939 27.1004 6.84279 26.7551 6.66506C26.4695 6.50783 1.71992 6.51467 1.44766 6.67189ZM27.9105 12.0654C28.548 12.291 29.0328 12.6055 29.5441 13.125C30.0289 13.624 30.3477 14.1231 30.6 14.8203C30.7594 15.2305 30.7727 15.374 30.7793 16.2354C30.7793 17.124 30.766 17.2334 30.5867 17.7256C30.1086 19.0654 29.1723 20.0156 27.8574 20.4805C27.366 20.6582 27.2332 20.6719 26.1176 20.6992C25.4469 20.7129 24.9023 20.7129 24.9023 20.6924C24.9023 20.6719 25.0086 20.3779 25.1281 20.0362C25.9449 17.8418 26.7418 14.4444 26.9344 12.3252L26.9742 11.8399L27.2199 11.874C27.3527 11.8945 27.6648 11.9834 27.9105 12.0654Z" fill="#222222"/>
</svg>
