<svg width="36" height="36" viewBox="0 0 36 36" fill="none" xmlns="http://www.w3.org/2000/svg">
<g id="free-icon-dustpan-2367695 1 (traced)" clip-path="url(#clip0_1_327)">
<g id="Black">
<path id="Vector" d="M16.8743 0.161669C15.5313 0.6187 14.6384 1.65932 14.4134 3.02339C14.3712 3.29761 14.4204 4.53511 14.6032 7.38276C14.7509 9.76636 14.8282 11.6226 14.8071 12.0234C14.7368 13.3242 14.2095 14.5828 13.3306 15.5179C12.761 16.1296 12.2056 16.5375 11.397 16.9453C7.62119 18.8296 4.80869 22.282 3.69072 26.3882C3.59228 26.7679 3.51494 27.1265 3.529 27.1898C3.54306 27.2531 3.71181 27.0281 3.92978 26.6625C5.96181 23.2242 9.56181 20.4609 13.4642 19.3429C15.2009 18.8437 16.5931 18.675 18.5196 18.7242C21.7259 18.8015 24.5243 19.6875 27.2102 21.4804C29.3759 22.9218 30.9438 24.6234 32.3009 27.021C32.4063 27.2109 32.5118 27.3515 32.5259 27.3304C32.5892 27.2671 32.111 25.5867 31.8017 24.8203C31.2532 23.4281 30.7259 22.4859 29.854 21.3117C28.5181 19.5257 26.9079 18.1687 24.7423 17.0156C23.6384 16.425 23.3009 16.1859 22.7665 15.6234C21.761 14.5687 21.1634 13.1132 21.1634 11.7281C21.1634 11.4468 21.2759 9.47104 21.4024 7.34761C21.6767 2.96011 21.6696 2.88276 21.2407 2.00386C20.7767 1.06167 19.9962 0.407763 18.9907 0.11245C18.4142 -0.0562992 17.4438 -0.0352058 16.8743 0.161669ZM18.8149 2.16558C18.9696 2.24292 19.2298 2.45386 19.3845 2.62261C19.7852 3.05854 19.8977 3.47339 19.8977 4.49995C19.8977 5.52651 19.7852 5.94136 19.3845 6.37729C18.9485 6.84839 18.6321 6.99604 17.9993 6.99604C17.3876 6.99604 17.1415 6.89058 16.6774 6.44761C16.2204 6.00464 16.1009 5.60386 16.1009 4.49995C16.1009 3.76167 16.129 3.52261 16.2415 3.22026C16.4384 2.69292 16.9446 2.21479 17.5001 2.03198C17.7954 1.93354 18.5056 2.01089 18.8149 2.16558Z" fill="#222222"/>
<path id="Vector_2" d="M16.7344 19.9406C14.5687 20.1937 13.1203 20.5805 11.482 21.3398C7.43203 23.2242 4.41562 26.8734 3.4875 31.0148C3.38906 31.4648 3.30469 31.9148 3.30469 32.0203V32.2031H18.007H32.7164L32.6672 31.8234C32.5898 31.1555 32.2242 29.8336 31.8586 28.9266C29.9883 24.2789 25.6289 20.8969 20.4187 20.0742C19.7578 19.9687 17.2687 19.8773 16.7344 19.9406Z" fill="#222222"/>
<path id="Vector_3" d="M3.17773 34.2562C3.20586 35.2336 3.2832 35.4445 3.70508 35.768L3.9582 35.9648H17.9996H32.041L32.2941 35.768C32.716 35.4445 32.7934 35.2336 32.8215 34.2562L32.7269 31.9091L17.9996 30.2727L3.27232 31.9091L3.17773 34.2562Z" fill="#222222"/>
</g>
</g>
<defs>
<clipPath id="clip0_1_327">
<rect width="36" height="36" fill="white"/>
</clipPath>
</defs>
</svg>
