<svg width="31" height="31" viewBox="0 0 31 31" fill="none" xmlns="http://www.w3.org/2000/svg">
<g id="free-icon-coffee-bean-1484509 1 (traced)" clip-path="url(#clip0_1_276)">
<g id="Black">
<path id="Vector" d="M20.3134 0.0666084C15.1427 0.460163 9.27566 3.83868 5.17059 8.7793C3.89305 10.3172 2.86981 11.8914 1.99793 13.6533C0.920196 15.8451 0.369219 17.5889 0.0846492 19.7383C0.0119929 20.3256 -0.00617115 20.7857 0.0180476 21.8272C0.0543757 23.3166 0.145196 23.8979 0.514532 25.0361C0.732501 25.6961 1.25926 26.8283 1.36824 26.8647C1.39852 26.8707 1.58621 26.574 1.79207 26.1986C4.46219 21.2701 8.74891 17.3951 14.1073 15.0762C15.4091 14.507 16.2688 14.0893 17.1831 13.5686C20.495 11.6613 23.4194 8.94278 25.5325 5.78223C26.2712 4.68633 27.1128 3.19083 27.5124 2.28868L27.6698 1.93751L27.2278 1.64083C25.9139 0.756844 24.3095 0.22403 22.493 0.0666084C21.6757 -0.0060482 21.2761 -0.0060482 20.3134 0.0666084Z" fill="#222222"/>
<path id="Vector_2" d="M29.2137 4.52297C26.0653 10.4021 21.3548 14.7251 15.3182 17.2863C10.7833 19.2056 7.28367 22.13 4.74675 26.114C4.2866 26.8345 3.20886 28.8507 3.20886 28.9839C3.20886 29.1898 5.04343 30.2251 5.93347 30.5218C7.0657 30.8911 7.49558 30.9517 9.23328 30.982C11.3645 31.0183 12.1577 30.9214 13.9983 30.3947C17.3829 29.4259 20.8704 27.3189 23.7887 24.4913C26.8948 21.4761 29.02 18.1763 30.2067 14.5193C30.7516 12.8361 30.9999 11.2982 30.9999 9.61497C30.9999 8.00442 30.7819 6.72688 30.2915 5.50989C30.0917 5.01946 29.6557 4.14153 29.5468 4.0386C29.5225 4.00833 29.3712 4.2263 29.2137 4.52297Z" fill="#222222"/>
</g>
</g>
<defs>
<clipPath id="clip0_1_276">
<rect width="31" height="31" fill="white"/>
</clipPath>
</defs>
</svg>
