<svg width="49" height="49" viewBox="0 0 49 49" fill="none" xmlns="http://www.w3.org/2000/svg">
<g id="pepicons-print:hand-point" clip-path="url(#clip0_1_307)">
<g id="Group">
<g id="Group_2">
<path id="Vector" d="M17.2143 24.0692L19.5274 21.9637M19.5274 21.9637L31.6789 11.5155C32.1007 11.1316 32.6577 10.931 33.2274 10.9578C33.7971 10.9845 34.3328 11.2365 34.7167 11.6583C35.1006 12.0801 35.3013 12.6371 35.2745 13.2068C35.2477 13.7765 34.9957 14.3122 34.574 14.6961L26.4705 21.4597L26.0336 21.851M19.5274 21.9637L19.0011 21.3854C17.1251 19.3244 13.7238 20.0602 12.9328 22.7343C12.6587 23.6485 12.4029 24.5681 12.1655 25.4925C10.8531 29.8592 11.2238 33.7515 14.382 37.2212C17.5402 40.6909 22.4332 42.5815 27.0595 38.3706M26.3552 27.374L28.9286 25.0316C29.3504 24.6477 29.6024 24.112 29.6291 23.5423C29.6559 22.9726 29.4553 22.4156 29.0714 21.9938C28.6875 21.5721 28.1518 21.3201 27.5821 21.2933C27.0124 21.2665 26.4554 21.4671 26.0336 21.851M26.0336 21.851L22.9976 24.6145M27.0523 26.7458L27.7719 26.0866C27.9804 25.8964 28.2243 25.7491 28.4897 25.6532C28.7551 25.5573 29.0368 25.5146 29.3187 25.5275C29.6006 25.5405 29.8771 25.6088 30.1326 25.7286C30.3881 25.8485 30.6175 26.0174 30.8077 26.2259C30.9979 26.4344 31.1451 26.6783 31.241 26.9437C31.3369 27.2091 31.3797 27.4908 31.3667 27.7727C31.3538 28.0546 31.2854 28.3311 31.1656 28.5866C31.0458 28.8421 30.8768 29.0715 30.6683 29.2617L28.2083 31.5008M27.0553 38.366L31.2479 34.5498C32.1269 33.7497 32.1897 32.3899 31.3906 31.512L30.9959 31.0783C30.7167 30.7716 30.3271 30.5883 29.9127 30.5688C29.4984 30.5493 29.0933 30.6953 28.7866 30.9745" stroke="#222222" stroke-linecap="round"/>
<path id="Vector_2" d="M32.3137 10.8298L34.678 11.1604L35.4936 14.4706L27.0747 20.3811L28.6538 22.1159L29.4174 23.5357L29.3136 25.745L31.7718 27.374L29.6842 29.6372L31.7897 31.9504L31.7377 33.055L30.4942 35.4439L28.2161 37.3179L25.2209 39.6625L21.9588 40.8986L17.8384 40.1898L14.6744 37.5532L12.0378 33.8619L11.4315 29.3329L14.0561 20.5995L17.3701 20.7552L20.1057 21.4374L24.4429 17.4896L32.3137 10.8298Z" fill="#222222"/>
</g>
</g>
</g>
<defs>
<clipPath id="clip0_1_307">
<rect width="31.2788" height="36.1857" fill="white" transform="translate(27.5479 0.600098) rotate(47.691)"/>
</clipPath>
</defs>
</svg>
