<svg width="38" height="38" viewBox="0 0 38 38" fill="none" xmlns="http://www.w3.org/2000/svg">
<g id="free-icon-low-temperature-6249496 1 (traced)">
<g id="Black">
<path id="Vector" d="M17.9608 0.0446854C17.8569 0.0669518 17.56 0.14859 17.3003 0.230232C15.5116 0.794292 14.146 2.19703 13.5671 4.08218L13.3964 4.63882L13.3741 13.5377L13.3518 22.4365L12.6987 23.1193C11.719 24.1509 11.1624 25.0564 10.6948 26.3775C10.3757 27.2904 10.2421 28.1291 10.2421 29.2794C10.2421 31.699 11.0882 33.74 12.7952 35.447C14.146 36.7978 15.8456 37.6662 17.6565 37.9259C18.6288 38.0744 20.3507 37.9853 21.2487 37.7552C23.6979 37.1095 25.7983 35.3728 26.919 33.0572C27.4905 31.8623 27.6909 31.031 27.7354 29.6357C27.78 28.2775 27.6909 27.5576 27.3495 26.5185C26.8893 25.138 26.3104 24.1806 25.2936 23.1193L24.6479 22.4365L24.6257 13.5377L24.6034 4.63882L24.4327 4.08218C23.8538 2.20445 22.5475 0.853668 20.7069 0.222809C20.321 0.0892143 20.0241 0.0521049 19.1854 0.037262C18.6139 0.022419 18.0647 0.0298424 17.9608 0.0446854ZM19.5343 20.3138C19.653 20.388 19.8237 20.5662 19.9128 20.7072C20.0686 20.9521 20.076 21.0634 20.0983 22.8669L20.1206 24.7744L20.5436 24.9302C21.7757 25.3755 22.7553 26.4072 23.2007 27.7209C23.6089 28.9158 23.4159 30.3705 22.7108 31.4466C22.2803 32.0923 21.605 32.6861 20.8925 33.0275C20.2022 33.3541 19.7124 33.4728 18.9999 33.4728C18.2874 33.4728 17.7975 33.3541 17.1073 33.0275C16.0089 32.5005 15.2296 31.6173 14.8139 30.4298C14.1831 28.6041 14.9104 26.4888 16.5581 25.3904C16.803 25.2271 17.2038 25.0193 17.4413 24.9302L17.8792 24.7744L17.9014 22.8669C17.9237 21.0857 17.9311 20.9521 18.0796 20.722C18.4061 20.2099 19.0444 20.0318 19.5343 20.3138Z" fill="#222222"/>
<path id="Vector_2" d="M18.2804 26.8969C17.3527 27.2012 16.7441 28.0547 16.7441 29.0641C16.7366 30.3406 17.7163 31.3203 19.0003 31.3203C19.8984 31.3203 20.6257 30.875 21.0191 30.0809C21.2195 29.6652 21.2566 29.5094 21.2566 29.0641C21.2566 28.1734 20.7667 27.3867 19.98 27.0082C19.5644 26.8004 18.7257 26.7484 18.2804 26.8969Z" fill="#222222"/>
</g>
</g>
</svg>
