<svg width="24" height="33" viewBox="0 0 24 33" fill="none" xmlns="http://www.w3.org/2000/svg">
<g id="Black">
<path id="Vector" d="M11.6057 0.0812721C11.5477 0.126389 11.4059 0.345524 11.2899 0.577549C10.9354 1.29296 10.2651 2.33063 8.5829 4.76689C4.98007 9.98102 3.4139 12.4624 2.16999 14.918C0.7585 17.6959 0.281559 19.2298 0.223553 21.144C0.184882 22.3106 0.268669 23.084 0.565146 24.2312C1.60281 28.3303 4.96073 31.6625 9.06629 32.6679C10.8967 33.1126 12.972 33.1126 14.8025 32.6679C18.908 31.6625 22.2659 28.3303 23.3036 24.2312C23.6001 23.084 23.6839 22.3106 23.6452 21.144C23.6065 19.9194 23.5292 19.5069 23.0909 18.1728C22.0726 15.1114 20.3195 12.1015 15.3954 4.99247C13.7004 2.54976 13.0365 1.51209 12.6111 0.654888C12.45 0.339077 12.276 0.0619354 12.218 0.0361557C12.0504 -0.0282974 11.7152 -0.00251389 11.6057 0.0812721Z" fill="#222222"/>
</g>
</svg>
