<svg id="town" xmlns="http://www.w3.org/2000/svg" version="1.1" xmlns:xlink="http://www.w3.org/1999/xlink" width="512" height="512" x="0" y="0" viewBox="0 0 64 64" style="enable-background:new 0 0 512 512" xml:space="preserve" class=""><g><path fill="#785349" d="M29 55.708h6V63h-6z" opacity="1" data-original="#785349"></path><path fill="#51a15b" d="m47.347 38.946 6.84 9.88a4.572 4.572 0 0 1 .813 2.6A4.572 4.572 0 0 1 50.428 56a10.286 10.286 0 0 1-4.6-1.086l-.384-.192A6.836 6.836 0 0 0 42.385 54a12.393 12.393 0 0 0-4.6.886A15.575 15.575 0 0 1 32 56a15.575 15.575 0 0 1-5.785-1.114 12.393 12.393 0 0 0-4.6-.886 6.836 6.836 0 0 0-3.059.722l-.384.192a10.286 10.286 0 0 1-4.6 1.086A4.572 4.572 0 0 1 9 51.428a4.572 4.572 0 0 1 .813-2.6L16.615 39 22 32h20z" opacity="1" data-original="#51a15b" class=""></path><path fill="#51a15b" d="m47.347 38.946 6.84 9.88a4.572 4.572 0 0 1 .813 2.6A4.572 4.572 0 0 1 50.428 56a10.286 10.286 0 0 1-4.6-1.086l-.384-.192A6.836 6.836 0 0 0 42.385 54a12.393 12.393 0 0 0-4.6.886A15.575 15.575 0 0 1 32 56a15.575 15.575 0 0 1-5.785-1.114 12.393 12.393 0 0 0-4.6-.886 6.836 6.836 0 0 0-3.059.722l-.384.192a10.286 10.286 0 0 1-4.6 1.086A4.572 4.572 0 0 1 9 51.428a4.572 4.572 0 0 1 .813-2.6L16.615 39 22 32h20z" opacity="1" data-original="#51a15b" class=""></path><path fill="#81c06f" d="m43.347 42.946-.624-.811a6.586 6.586 0 0 0-5.3-2.567l-.26.072a10.474 10.474 0 0 1-9.844.255A8.5 8.5 0 0 0 23.42 39a4.363 4.363 0 0 0-1.892.472l-1.95.974a5.261 5.261 0 0 1-2.342.554h-.018a3.584 3.584 0 0 0-3.018 1.483L9.9 48.7a4.841 4.841 0 0 0-.849 2.04A4.575 4.575 0 0 0 13.572 56a10.286 10.286 0 0 0 4.6-1.086l.384-.192A6.557 6.557 0 0 1 21.323 54a12.4 12.4 0 0 1 4.892.883 15.578 15.578 0 0 0 11.57 0A12.4 12.4 0 0 1 42.677 54a6.557 6.557 0 0 1 2.767.719l.384.192a10.286 10.286 0 0 0 4.6 1.089 4.7 4.7 0 0 0 .52-.052 4.7 4.7 0 0 0 .052-.52 4.572 4.572 0 0 0-.813-2.6z" opacity="1" data-original="#81c06f" class=""></path><path fill="#51a15b" d="m42.9 22.954 6.147 9.562A6 6 0 0 1 50 35.764 3.236 3.236 0 0 1 46.764 39a3.231 3.231 0 0 1-1.447-.342l-1.95-.975a6.507 6.507 0 0 0-.409-.186l-5.9.076a10.376 10.376 0 0 0-1.266.533A8.478 8.478 0 0 1 32 39a8.478 8.478 0 0 1-3.789-.894A10.471 10.471 0 0 0 23.528 37a6.479 6.479 0 0 0-2.895.683l-1.95.975a3.231 3.231 0 0 1-1.447.342A3.236 3.236 0 0 1 14 35.764a6 6 0 0 1 .954-3.248l6.146-9.562L25 19h14z" opacity="1" data-original="#51a15b" class=""></path><path fill="#81c06f" d="M39.452 26.5a6.088 6.088 0 0 0-5.372-1.739A13.488 13.488 0 0 1 32 25a14.3 14.3 0 0 1-4.53-.735 5.157 5.157 0 0 0-1.863-.26 2.882 2.882 0 0 0-.772.158l-1.8.6a4.576 4.576 0 0 1-1.454.237h-.017a3.084 3.084 0 0 0-2.654 1.363l-3.956 6.153a6 6 0 0 0-.932 2.738 3.408 3.408 0 0 0 1.334 3.152 3.259 3.259 0 0 0 3.327.252l1.95-.975A6.479 6.479 0 0 1 23.528 37a11.416 11.416 0 0 1 4.859 1.191 8.474 8.474 0 0 0 7.4-.085 10.376 10.376 0 0 1 1.266-.533l5.519-.071.793.181 1.95.975a3.231 3.231 0 0 0 1.449.342c.062 0 .119-.015.18-.018a6 6 0 0 0-.9-2.466l-5.8-9.027a6.122 6.122 0 0 0-.792-.989z" opacity="1" data-original="#81c06f" class=""></path><circle cx="28" cy="32" r="2" fill="#fecb66" opacity="1" data-original="#fecb66"></circle><circle cx="45" cy="48" r="2" fill="#ffecae" opacity="1" data-original="#ffecae"></circle><g fill="#66c3e9"><path d="M37 25h2v2h-2zM28 43h2v2h-2zM35 49h2v2h-2z" fill="#66c3e9" opacity="1" data-original="#66c3e9"></path></g><path fill="#51a15b" d="M32 23a12.343 12.343 0 0 0 3.9-.632A7.15 7.15 0 0 1 38.162 22a5.153 5.153 0 0 1 1.633.265l1.808.6a2.6 2.6 0 0 0 .816.132A2.582 2.582 0 0 0 45 20.419a4.81 4.81 0 0 0-.771-2.611L35.087 3.679A3.678 3.678 0 0 0 32 2a3.678 3.678 0 0 0-3.087 1.679l-9.142 14.129A4.81 4.81 0 0 0 19 20.419 2.582 2.582 0 0 0 21.581 23a2.6 2.6 0 0 0 .816-.132l1.808-.6A5.153 5.153 0 0 1 25.838 22a7.15 7.15 0 0 1 2.265.368A12.343 12.343 0 0 0 32 23z" opacity="1" data-original="#51a15b" class=""></path><path fill="#81c06f" d="M31.086 5.679a3.669 3.669 0 0 0-2.424-1.612l-8.891 13.741A4.81 4.81 0 0 0 19 20.419a2.582 2.582 0 0 0 3.4 2.449l1.808-.6a5.153 5.153 0 0 1 1.63-.268 7.15 7.15 0 0 1 2.265.368 12.331 12.331 0 0 0 7.794 0A7.15 7.15 0 0 1 38.162 22a5.153 5.153 0 0 1 1.633.265l1.181.394c.007-.081.024-.158.024-.24a4.81 4.81 0 0 0-.771-2.611z" opacity="1" data-original="#81c06f" class=""></path><circle cx="20" cy="47" r="3" fill="#c52c37" opacity="1" data-original="#c52c37"></circle><path fill="#666974" d="M19 41h2v4h-2z" opacity="1" data-original="#666974"></path><path fill="#ed4241" d="M20 44a2.965 2.965 0 0 0-1.554.446A2.965 2.965 0 0 0 18 46a3 3 0 0 0 3 3 2.965 2.965 0 0 0 1.554-.446A2.965 2.965 0 0 0 23 47a3 3 0 0 0-3-3z" opacity="1" data-original="#ed4241"></path><circle cx="40" cy="37" r="3" fill="#c52c37" opacity="1" data-original="#c52c37"></circle><path fill="#666974" d="M39 31h2v4h-2z" opacity="1" data-original="#666974"></path><path fill="#ed4241" d="M40 34a2.965 2.965 0 0 0-1.554.446A2.965 2.965 0 0 0 38 36a3 3 0 0 0 3 3 2.965 2.965 0 0 0 1.554-.446A2.965 2.965 0 0 0 43 37a3 3 0 0 0-3-3z" opacity="1" data-original="#ed4241"></path><path fill="#916658" d="M30.584 57H29v6h5v-2.584A3.415 3.415 0 0 0 30.584 57z" opacity="1" data-original="#916658"></path><path fill="#66c3e9" d="M25 15h2v2h-2z" opacity="1" data-original="#66c3e9"></path><circle cx="34" cy="14" r="3" fill="#eb9732" opacity="1" data-original="#eb9732"></circle><path fill="#666974" d="M33 8h2v4h-2z" opacity="1" data-original="#666974"></path><path fill="#fecb66" d="M34 11a2.965 2.965 0 0 0-1.554.446A2.965 2.965 0 0 0 32 13a3 3 0 0 0 3 3 2.965 2.965 0 0 0 1.554-.446A2.965 2.965 0 0 0 37 14a3 3 0 0 0-3-3z" opacity="1" data-original="#fecb66"></path></g></svg>