<svg xmlns="http://www.w3.org/2000/svg" version="1.1" xmlns:xlink="http://www.w3.org/1999/xlink" width="512" height="512" x="0" y="0" viewBox="0 0 512 512" style="enable-background:new 0 0 512 512" xml:space="preserve" class=""><g><g data-name="Christmas Decoration"><path fill="#ededed" d="M104 288a8 8 0 0 1-8-8V88a8 8 0 0 1 16 0v192a8 8 0 0 1-8 8z" opacity="1" data-original="#ededed" class=""></path><rect width="64" height="56" x="72" y="272" fill="#fecb66" rx="8" opacity="1" data-original="#ffd740" class=""></rect><circle cx="104" cy="408" r="104" fill="#075567" opacity="1" data-original="#b2ebf2" class=""></circle><path fill="#064b62" d="M56 472a160.427 160.427 0 0 1-37.138-4.342 103.98 103.98 0 0 0 183.974-92.028A160.033 160.033 0 0 1 56 472z" opacity="1" data-original="#80deea" class=""></path><path fill="#ededed" d="M272 320a8 8 0 0 1-8-8v-96a8 8 0 0 1 16 0v96a8 8 0 0 1-8 8z" opacity="1" data-original="#ededed" class=""></path><g fill="#81c06f"><path d="M56 64a7.976 7.976 0 0 1-5.657-2.343l-32-32a8 8 0 0 1 11.314-11.314l32 32A8 8 0 0 1 56 64z" fill="#81c06f" opacity="1" data-original="#81c06f" class=""></path><path d="M24 96a8 8 0 0 1-5.657-13.657l32-32a8 8 0 0 1 11.314 11.314l-32 32A7.976 7.976 0 0 1 24 96zM102 64a7.976 7.976 0 0 1-5.657-2.343l-48-48A8 8 0 0 1 59.657 2.343l48 48A8 8 0 0 1 102 64zM54 112a8 8 0 0 1-5.657-13.657l20-20a8 8 0 0 1 11.314 11.314l-20 20A7.976 7.976 0 0 1 54 112zM148 64a7.976 7.976 0 0 1-5.657-2.343l-48-48a8 8 0 0 1 11.314-11.314l48 48A8 8 0 0 1 148 64z" fill="#81c06f" opacity="1" data-original="#81c06f" class=""></path><path d="M129 83a8 8 0 0 1-5.657-13.657l19-19a8 8 0 0 1 11.314 11.314l-19 19A7.976 7.976 0 0 1 129 83zM194 64a7.976 7.976 0 0 1-5.657-2.343l-48-48a8 8 0 0 1 11.314-11.314l48 48A8 8 0 0 1 194 64z" fill="#81c06f" opacity="1" data-original="#81c06f" class=""></path><path d="M146 112a8 8 0 0 1-5.657-13.657l48-48a8 8 0 0 1 11.314 11.314l-48 48A7.976 7.976 0 0 1 146 112zM240 64a7.976 7.976 0 0 1-5.657-2.343l-48-48a8 8 0 0 1 11.314-11.314l48 48A8 8 0 0 1 240 64z" fill="#81c06f" opacity="1" data-original="#81c06f" class=""></path><path d="M192 112a8 8 0 0 1-5.657-13.657l48-48a8 8 0 0 1 11.314 11.314l-48 48A7.976 7.976 0 0 1 192 112zM286 64a7.976 7.976 0 0 1-5.657-2.343l-48-48a8 8 0 0 1 11.314-11.314l48 48A8 8 0 0 1 286 64z" fill="#81c06f" opacity="1" data-original="#81c06f" class=""></path><path d="M238 112a8 8 0 0 1-5.657-13.657l48-48a8 8 0 0 1 11.314 11.314l-48 48A7.976 7.976 0 0 1 238 112zM332 64a7.976 7.976 0 0 1-5.657-2.343l-48-48a8 8 0 0 1 11.314-11.314l48 48A8 8 0 0 1 332 64z" fill="#81c06f" opacity="1" data-original="#81c06f" class=""></path><path d="M284 112a8 8 0 0 1-5.657-13.657l48-48a8 8 0 0 1 11.314 11.314l-48 48A7.976 7.976 0 0 1 284 112zM378 64a7.976 7.976 0 0 1-5.657-2.343l-48-48a8 8 0 0 1 11.314-11.314l48 48A8 8 0 0 1 378 64z" fill="#81c06f" opacity="1" data-original="#81c06f" class=""></path><path d="M359 83a8 8 0 0 1-5.657-13.657l19-19a8 8 0 0 1 11.314 11.314l-19 19A7.976 7.976 0 0 1 359 83zM424 64a7.976 7.976 0 0 1-5.657-2.343l-48-48a8 8 0 0 1 11.314-11.314l48 48A8 8 0 0 1 424 64zM206.152 214.169a7.964 7.964 0 0 1-3.32-.726l-41.16-18.812a8 8 0 1 1 6.65-14.551l41.16 18.811a8 8 0 0 1-3.33 15.278z" fill="#81c06f" opacity="1" data-original="#81c06f" class=""></path><path d="M187.341 255.329A8 8 0 0 1 180.07 244l18.811-41.159a8 8 0 0 1 14.553 6.65l-18.812 41.16a8 8 0 0 1-7.281 4.678zM249.256 198.106a7.964 7.964 0 0 1-3.32-.726L184.2 169.163a8 8 0 0 1 6.651-14.552l61.739 28.217a8 8 0 0 1-3.33 15.278z" fill="#81c06f" opacity="1" data-original="#81c06f" class=""></path><path d="M221.04 259.846a8 8 0 0 1-7.271-11.327l28.216-61.74a8 8 0 0 1 14.552 6.65l-28.217 61.74a8 8 0 0 1-7.28 4.677zM292.361 182.042a7.961 7.961 0 0 1-3.32-.726L227.3 153.1a8 8 0 0 1 6.65-14.552l61.74 28.217a8 8 0 0 1-3.33 15.277zM335.465 165.979a7.979 7.979 0 0 1-3.32-.725L270.4 137.037a8 8 0 0 1 6.65-14.553L338.8 150.7a8 8 0 0 1-3.33 15.277z" fill="#81c06f" opacity="1" data-original="#81c06f" class=""></path><path d="M307.248 227.719a8 8 0 0 1-7.271-11.327l28.217-61.74a8 8 0 0 1 14.552 6.651l-28.217 61.739a8 8 0 0 1-7.281 4.677zM378.569 149.917a7.966 7.966 0 0 1-3.32-.727l-61.74-28.216a8 8 0 0 1 6.651-14.552l61.74 28.217a8 8 0 0 1-3.33 15.278z" fill="#81c06f" opacity="1" data-original="#81c06f" class=""></path><path d="M350.353 211.656a8 8 0 0 1-7.271-11.327l28.216-61.74a8 8 0 0 1 14.552 6.651l-28.217 61.739a8 8 0 0 1-7.28 4.677zM421.674 133.854a7.977 7.977 0 0 1-3.32-.726l-61.741-28.217a8 8 0 0 1 6.651-14.553L425 118.576a8 8 0 0 1-3.33 15.278zM393.457 195.593a8 8 0 0 1-7.271-11.327l11-24.068a8 8 0 1 1 14.551 6.65l-11 24.069a8 8 0 0 1-7.28 4.676zM464.778 117.791a7.962 7.962 0 0 1-3.32-.727l-61.74-28.217a8 8 0 1 1 6.65-14.552l61.74 28.218a8 8 0 0 1-3.33 15.278zM467.778 168a8 8 0 0 1-7.271-11.327l28.217-61.74a8 8 0 0 1 14.552 6.65l-28.217 61.74a8 8 0 0 1-7.281 4.677z" fill="#81c06f" opacity="1" data-original="#81c06f" class=""></path></g><path fill="#ededed" d="M440 272a8 8 0 0 1-8-8V152a8 8 0 0 1 16 0v112a8 8 0 0 1-8 8z" opacity="1" data-original="#ededed" class=""></path><path fill="#fecb66" d="M133.665 456a7.994 7.994 0 0 1-3.616-.864L104 441.936l-26.049 13.2a8 8 0 0 1-11.493-8.536l4.907-27.574-20.843-19.583a8 8 0 0 1 4.369-13.753l29.05-4.068 12.938-25.268a8 8 0 0 1 14.242 0l12.938 25.268 29.05 4.068a8 8 0 0 1 4.369 13.753l-20.843 19.582 4.907 27.574a8 8 0 0 1-7.877 9.4z" opacity="1" data-original="#ffc400" class=""></path><rect width="48" height="56" x="248" y="304" fill="#ed4241" rx="8" opacity="1" data-original="#f29c9c" class=""></rect><circle cx="144" cy="360" r="8" fill="#e0f7fa" opacity="1" data-original="#e0f7fa" class=""></circle><circle cx="104" cy="464" r="8" fill="#e0f7fa" opacity="1" data-original="#e0f7fa" class=""></circle><circle cx="64" cy="360" r="8" fill="#e0f7fa" opacity="1" data-original="#e0f7fa" class=""></circle><circle cx="160" cy="432" r="8" fill="#e0f7fa" opacity="1" data-original="#e0f7fa" class=""></circle><circle cx="48" cy="432" r="8" fill="#e0f7fa" opacity="1" data-original="#e0f7fa" class=""></circle><path fill="#c52c37" d="M296.058 424.058a8 8 0 0 1-5.657-2.343L238.686 370a8 8 0 0 1-1.724-8.744C243.578 345.441 256.676 336 272 336c19.91 0 40 16.255 40 52.571 0 9.582-2.984 20.087-8.869 31.224a7.993 7.993 0 0 1-7.073 4.263zM390.432 344a32.01 32.01 0 0 1-27.7-48.056 80.308 80.308 0 0 1 12.7-16.51 8 8 0 0 1 11.314 0l33.94 33.94a8 8 0 0 1 0 11.314 16.06 16.06 0 0 0-2.536 3.29A32.2 32.2 0 0 1 390.432 344z" opacity="1" data-original="#e56161" class=""></path><path fill="#ededed" d="M432 256a79.471 79.471 0 0 0-56.566 23.434l45.254 45.254A15.892 15.892 0 0 1 432 320a8 8 0 0 0 8-8v-48a8 8 0 0 0-8-8z" opacity="1" data-original="#ededed" class=""></path><path fill="#c52c37" d="M488.568 279.432A79.471 79.471 0 0 0 432 256v64a16.019 16.019 0 0 1 11.958 5.376 8.04 8.04 0 0 0 5.619 2.644c.126.006.253.009.379.009a8.117 8.117 0 0 0 5.474-2.154c.14-.129 33.138-35.13 33.138-35.13a8 8 0 0 0 0-11.313z" opacity="1" data-original="#e56161" class=""></path><path fill="#ededed" d="M510.369 319.862a79.648 79.648 0 0 0-21.8-40.43l-44.61 45.944A15.974 15.974 0 0 1 448 336v48l60.189-56.875a8 8 0 0 0 2.18-7.263z" opacity="1" data-original="#ededed" class=""></path><path fill="#c52c37" d="M510.369 319.862 448 376v44.5a8 8 0 0 0 13.657 5.657l48-48A8 8 0 0 0 512 372.5V336a80.551 80.551 0 0 0-1.631-16.138z" opacity="1" data-original="#e56161" class=""></path><path fill="#ededed" d="M448 420.5V480c0 3.236 12.126-.813 13.657-2.343l48-48A8 8 0 0 0 512 424v-64z" opacity="1" data-original="#ededed" class=""></path><path fill="#c52c37" d="M448 480a32 32 0 0 0 64 0v-56z" opacity="1" data-original="#e56161" class=""></path><path fill="#51a15b" d="M504 64H8a8 8 0 0 1 0-16h496a8 8 0 0 1 0 16zM161.18 230.93a8 8 0 0 1-2.8-15.5l343-127.822a8 8 0 0 1 5.587 14.994l-343 127.821a7.979 7.979 0 0 1-2.787.507z" opacity="1" data-original="#51a15b" class=""></path><path fill="#c52c37" d="M236.962 361.255c-3.293 7.87-4.962 17.061-4.962 27.316 0 31.764 33.054 63.851 34.46 65.2a8 8 0 0 0 11.082 0c.633-.609 15.625-15.117 25.589-33.974z" opacity="1" data-original="#d65858" class=""></path><path fill="#eb9732" d="M159.625 391.191a8 8 0 0 0-6.516-5.5l-23.336-3.268a68 68 0 0 1-58.925 39.506l-4.39 24.671a8 8 0 0 0 11.493 8.537L104 441.936l26.049 13.2a8 8 0 0 0 11.493-8.537l-4.907-27.574 20.843-19.582a8 8 0 0 0 2.147-8.252z" opacity="1" data-original="#f2b200" class=""></path><circle cx="280" cy="360" r="12" fill="#ed4241" opacity="1" data-original="#f29c9c" class=""></circle></g></g></svg>