<svg width="23" height="26" viewBox="0 0 23 26" fill="none" xmlns="http://www.w3.org/2000/svg">
<path d="M9.66709 1.77064C9.66709 1.77064 4.89957 1.99837 4.33236 7.67311C4.33236 7.67311 4.27603 9.20466 3.25455 9.82847C3.25455 9.82847 1.66506 10.8498 2.46014 13.5733C2.46014 13.5733 2.80094 15.2763 1.32479 16.2412C1.32479 16.2412 0.0766391 17.3195 0.871978 18.8521C0.871978 18.8521 1.38285 19.3634 0.474308 20.2709C0.474308 20.2709 -0.320367 21.6896 1.04191 23.6191C1.04191 23.6191 0.871978 22.2018 1.21198 21.8607C1.21198 21.8607 2.4034 23.278 2.12053 24.2442C2.12053 24.2442 4.05028 23.1655 6.83026 22.9392C6.83026 22.9392 10.1786 22.3133 9.83862 18.0588C9.83862 18.0588 6.71732 15.6184 6.83026 13.4612L7.22766 10.2838C7.22766 10.2838 8.53334 8.69631 8.64654 8.07117C8.64654 8.07117 9.55455 9.43266 8.41908 10.4541C8.41908 10.4541 10.4058 9.99987 9.72489 7.1621C9.72489 7.1621 10.1781 6.14075 10.4626 6.19815C10.4626 6.19815 11.4272 8.69445 14.2657 8.86518C14.2657 8.86518 14.7183 11.7016 16.478 11.9864C16.478 11.9864 16.5347 16.2417 14.0372 18.0019C14.0372 18.0019 13.47 22.9961 18.4641 23.2232C18.4641 23.2232 17.5559 25.4927 19.5421 25.9467C19.5421 25.9467 19.2019 23.7338 20.8476 23.7338L21.5852 24.6406C21.5852 24.6406 23.3449 22.4282 22.55 20.8969C22.55 20.8969 20.9044 20.102 21.5289 18.0028C21.5289 18.0028 22.55 17.2093 21.1311 16.1867C21.1311 16.1867 20.8474 15.789 21.3604 15.3358C21.3604 15.3358 23.1189 13.8596 20.1678 10.6249L20.0557 7.67377C20.0557 7.67377 19.2611 3.24771 13.8703 1.14709C13.8683 1.14643 10.0079 0.408088 9.66709 1.77064Z" fill="#A52F2F"/>
</svg>
