<svg width="25" height="26" viewBox="0 0 25 26" fill="none" xmlns="http://www.w3.org/2000/svg">
<g clip-path="url(#clip0)">
<path d="M21.3389 4.23975C18.9779 1.87881 15.8389 0.578613 12.5 0.578613C9.16113 0.578613 6.02207 1.87881 3.66113 4.23975C1.3002 6.60068 0 9.73975 0 13.0786C0 16.4175 1.30024 19.5565 3.66113 21.9175C6.02202 24.2785 9.16113 25.5786 12.5 25.5786C15.8389 25.5786 18.9779 24.2784 21.3389 21.9175C23.6998 19.5565 25 16.4175 25 13.0786C25 9.73975 23.6998 6.60073 21.3389 4.23975ZM12.5 12.2974C14.4385 12.2974 16.0156 13.8745 16.0156 15.813C16.0156 17.4183 14.9337 18.7749 13.461 19.194C13.3552 19.2241 13.2812 19.3193 13.2812 19.4293V20.0878C13.2812 20.5085 12.958 20.8705 12.5377 20.8902C12.0891 20.9113 11.7188 20.5539 11.7188 20.1099V19.4291C11.7188 19.3194 11.6452 19.2242 11.5397 19.1942C10.0733 18.7772 8.99419 17.4309 8.98442 15.8348C8.98184 15.4088 9.3168 15.0443 9.74268 15.0321C10.1846 15.0194 10.5469 15.3739 10.5469 15.813C10.5469 16.9361 11.4999 17.8409 12.6396 17.7612C13.6017 17.694 14.3811 16.9146 14.4482 15.9525C14.5278 14.8127 13.6231 13.8599 12.5 13.8599C10.5615 13.8599 8.98438 12.2828 8.98438 10.3442C8.98438 8.73892 10.0663 7.38237 11.539 6.96323C11.6448 6.93311 11.7188 6.83794 11.7188 6.72793V6.06943C11.7188 5.64873 12.042 5.28677 12.4623 5.26699C12.9109 5.2459 13.2812 5.60337 13.2812 6.04736V6.72808C13.2812 6.83779 13.3548 6.93301 13.4603 6.96304C14.9267 7.38003 16.0058 8.72637 16.0156 10.3224C16.0182 10.7484 15.6832 11.1129 15.2573 11.1251C14.8154 11.1378 14.4531 10.7833 14.4531 10.3442C14.4531 9.22109 13.5001 8.31631 12.3604 8.396C11.3983 8.46323 10.6189 9.24263 10.5518 10.2047C10.4722 11.3445 11.3769 12.2974 12.5 12.2974Z" fill="#A52F2F"/>
</g>
<defs>
<clipPath id="clip0">
<rect width="25" height="25" fill="white" transform="translate(0 0.578613)"/>
</clipPath>
</defs>
</svg>
