<svg width="25" height="25" viewBox="0 0 25 25" fill="none" xmlns="http://www.w3.org/2000/svg">
<path d="M18.8303 17.5931C17.3296 17.5932 15.8338 17.16 14.5046 16.3407C13.758 15.8803 13.083 15.3087 12.5 14.6472C11.9171 15.3085 11.2421 15.8801 10.4955 16.3405C9.16626 17.1598 7.67055 17.5929 6.17006 17.5931C6.16991 17.5931 6.16957 17.5931 6.16938 17.5931C5.01525 17.5931 3.91434 17.3418 2.89185 16.8467C3.27874 18.3081 3.48927 19.9549 3.48927 21.6221C3.48927 22.1586 3.46784 22.6991 3.4255 23.2288C3.40924 23.4325 3.47882 23.6338 3.61744 23.7839C3.7561 23.9341 3.95115 24.0195 4.15554 24.0195H20.8489C21.0533 24.0195 21.2483 23.9341 21.387 23.7839C21.5256 23.6338 21.5952 23.4325 21.5789 23.2288C21.5366 22.6991 21.5152 22.1586 21.5152 21.6221C21.5152 19.9503 21.7256 18.305 22.1128 16.8446C21.0891 17.341 19.9863 17.5931 18.8303 17.5931Z" fill="#A52F2F"/>
<path d="M18.8465 12.1212C19.251 12.1212 19.5789 11.7934 19.5789 11.3889C19.5789 10.9844 19.251 10.6565 18.8465 10.6565C18.442 10.6565 18.1141 10.9844 18.1141 11.3889C18.1141 11.7934 18.442 12.1212 18.8465 12.1212Z" fill="#A52F2F"/>
<path d="M6.15205 10.6565C5.74822 10.6565 5.41968 10.985 5.41968 11.3889C5.41968 11.7927 5.74822 12.1212 6.15205 12.1212C6.55589 12.1212 6.88443 11.7927 6.88443 11.3889C6.88443 10.985 6.55584 10.6565 6.15205 10.6565Z" fill="#A52F2F"/>
<path d="M24.0957 7.06851C22.4206 3.9186 21.9669 2.7781 21.9669 0.755814C21.9669 0.351347 21.6391 0.0234375 21.2346 0.0234375H3.7654C3.36093 0.0234375 3.03307 0.351347 3.03307 0.755814C3.03307 2.7781 2.57943 3.9186 0.904295 7.06851C0.0168509 8.7372 -0.227567 10.6237 0.216057 12.3803C0.666371 14.1634 1.7686 15.5998 3.31972 16.4248C6.49657 18.1143 10.5822 16.6667 12.4273 13.1974C12.452 13.1509 12.4762 13.1043 12.5 13.0574C12.5237 13.1043 12.548 13.151 12.5727 13.1975C13.8945 15.683 16.3663 17.1309 18.8301 17.1308C19.8053 17.1308 20.7794 16.9039 21.6802 16.4248C23.2313 15.5998 24.3336 14.1635 24.7839 12.3804C25.2276 10.6237 24.9832 8.7372 24.0957 7.06851ZM6.15201 13.5884C4.94052 13.5884 3.95489 12.6027 3.95489 11.3912C3.95489 10.1797 4.94052 9.19411 6.15201 9.19411C7.36351 9.19411 8.34914 10.1797 8.34914 11.3912C8.34914 12.6027 7.36346 13.5884 6.15201 13.5884ZM18.8465 13.5884C17.635 13.5884 16.6494 12.6027 16.6494 11.3912C16.6494 10.1797 17.635 9.19411 18.8465 9.19411C20.058 9.19411 21.0436 10.1797 21.0436 11.3912C21.0436 12.6027 20.058 13.5884 18.8465 13.5884Z" fill="#A52F2F"/>
</svg>
