<svg width="25" height="26" viewBox="0 0 25 26" fill="none" xmlns="http://www.w3.org/2000/svg">
<path d="M1.34844 6.50625C1.60895 7.19923 3.38595 8.75355 4.46992 9.14263C4.90425 8.85786 5.5481 8.64223 6.41504 8.64223C6.86339 8.64223 7.42516 8.70473 8.07888 8.89352C5.26821 6.24875 3.44108 5.76779 2.35893 5.89017C1.88476 5.94546 1.54513 6.11406 1.30872 6.28428C1.31172 6.36293 1.32267 6.43841 1.34844 6.50625Z" fill="#A52F2F"/>
<path d="M8.90055 9.18414C9.28281 9.34361 9.68853 9.547 10.116 9.80326L9.53984 5.50072C9.53984 5.50072 4.56213 0.349715 3.29784 2.45265C2.38178 3.97666 1.63422 5.05114 1.39099 5.79475C1.63465 5.66355 1.93258 5.55042 2.30797 5.50445C3.5335 5.35132 5.64132 5.91993 8.90055 9.18414Z" fill="#A52F2F"/>
<path d="M0.319382 16.6742C0.779534 15.6168 2.22462 14.822 4.552 14.3163C4.55243 14.3086 4.55834 14.2524 4.57525 14.1667L4.55404 14.042C4.55125 14.0238 4.32075 12.6565 4.05095 11.4758C2.61225 11.613 -0.131751 12.0928 0.00492057 13.7608C0.127581 15.2621 -0.0389366 16.4361 0.199191 17.0737C0.224045 16.9453 0.258723 16.8138 0.319382 16.6742Z" fill="#A52F2F"/>
<path d="M8.104 14.8322C8.15736 14.7827 8.21372 14.7344 8.26805 14.6859C7.4477 14.9022 6.60443 15.0676 5.93379 15.0676C5.33751 15.0676 4.93651 14.9373 4.7146 14.6744C1.80161 15.2889 0.894566 16.2294 0.623532 16.8416C0.520519 17.0749 0.493517 17.2892 0.499744 17.4692C0.617842 17.5445 0.763048 17.5927 0.953239 17.6017C1.9561 17.6511 5.41293 16.7328 8.104 14.8322Z" fill="#A52F2F"/>
<path d="M11.6333 9.451H12.0805H12.9196H13.1877C13.6961 9.451 14.1446 9.70172 14.4388 10.0845C14.4533 10.0746 14.4672 10.0663 14.4817 10.0566C14.6305 8.94761 15.1016 5.51592 15.4518 3.85711C15.8733 1.86389 15.8384 0.867554 15.2062 0.867554C14.814 0.867554 13.7051 0.867554 12.92 0.867554C12.92 0.867554 12.561 0.867554 12.0809 0.867554C11.2958 0.867554 10.1868 0.867554 9.79438 0.867554C9.16224 0.867554 9.12729 1.86389 9.54869 3.85711C9.8872 5.45728 10.3375 8.71111 10.5028 9.93475C10.7927 9.63587 11.1926 9.451 11.6333 9.451Z" fill="#A52F2F"/>
<path d="M4.95103 14.0562C4.92789 14.1297 4.91313 14.1924 4.90347 14.2407C4.89874 14.2658 4.89498 14.2868 4.89294 14.303C4.95135 14.4325 5.07481 14.5163 5.22625 14.5735C5.43576 14.6525 5.70036 14.6763 5.93365 14.6763C6.70081 14.6763 7.72702 14.4438 8.67159 14.1705C8.78668 14.1371 8.90048 14.103 9.01257 14.0686C9.01729 14.0656 9.02137 14.0619 9.0261 14.0582C9.12718 13.9819 9.23089 13.9058 9.33621 13.8309C9.53381 13.6909 9.7379 13.5533 9.95069 13.4208C9.88515 13.4182 9.81837 13.4158 9.74966 13.414C9.47267 13.4051 9.17259 13.3999 8.86087 13.3999C6.86893 13.4 5.50142 13.6337 4.95103 14.0562Z" fill="#A52F2F"/>
<path d="M6.34948 22.6032L6.54289 22.4146L6.61863 22.6936C6.9697 23.9904 7.50361 25.1588 7.83611 25.8212C7.96972 18.4512 10.2626 15.404 11.421 14.3296C11.1066 14.2867 10.8239 14.1505 10.5943 13.9467C10.5407 13.8991 10.4906 13.8496 10.4438 13.7952C10.4001 13.7448 10.3558 13.6937 10.3183 13.6382C10.0819 13.7791 9.85268 13.9238 9.63479 14.0748C9.46409 14.1928 9.29902 14.3133 9.13959 14.4363C4.47886 18.0273 4.46125 23.6657 4.65869 25.8675C5.25246 23.6946 6.29966 22.6523 6.34948 22.6032Z" fill="#A52F2F"/>
<path d="M10.1808 10.4176C10.1852 10.4083 10.1904 10.4005 10.1948 10.3912C10.2066 10.3664 10.2199 10.3431 10.2327 10.319C10.2154 10.3078 10.1977 10.2971 10.1805 10.2859C10.0047 10.1748 9.83143 10.0695 9.6633 9.97611C9.33633 9.7949 9.02397 9.64698 8.7269 9.52615C7.78512 9.14223 6.99972 9.0332 6.41514 9.0332C5.81246 9.0332 5.31329 9.15192 4.93221 9.32605C4.57909 9.48751 4.32738 9.69587 4.19941 9.90398C4.10171 10.0631 4.07331 10.2147 4.11551 10.3548C4.2095 10.6672 4.30355 11.051 4.39325 11.4475C4.56814 12.2221 4.72199 13.0413 4.80922 13.5304C4.8176 13.578 4.82726 13.6319 4.83451 13.6723C4.87149 13.6477 4.91884 13.6262 4.96044 13.6028C5.05739 13.5481 5.1662 13.4973 5.28634 13.4505C6.03271 13.1594 7.22341 13.0097 8.86158 13.0097C8.9071 13.0097 8.95042 13.0101 8.99562 13.0106C9.12301 13.0111 9.24765 13.0126 9.36983 13.0152C9.61682 13.0194 9.84963 13.0268 10.0648 13.0356C10.0635 13.0302 10.0626 13.0247 10.0617 13.0194C10.0487 12.9516 10.0463 12.8809 10.0415 12.8108C10.039 12.7718 10.0302 12.7341 10.0302 12.6941V11.1092C10.03 10.8615 10.086 10.6288 10.1808 10.4176Z" fill="#A52F2F"/>
<path d="M16.0998 9.18414C19.3592 5.92049 21.4671 5.35188 22.6929 5.50445C23.0682 5.55042 23.3662 5.66355 23.6099 5.79475C23.3667 5.05114 22.6193 3.97666 21.7029 2.45265C20.4387 0.349715 15.4612 5.50072 15.4612 5.50072L14.8849 9.80326C15.3117 9.5465 15.7178 9.34323 16.0998 9.18414Z" fill="#A52F2F"/>
<path d="M23.6518 6.5063C23.6776 6.43796 23.6888 6.36304 23.692 6.28396C23.455 6.11368 23.1159 5.94502 22.6414 5.88973C21.5559 5.76449 19.7302 6.24799 16.9207 8.89363C17.5742 8.70434 18.1363 8.64235 18.5849 8.64235C19.4516 8.64235 20.0957 8.85798 20.5302 9.14275C21.6142 8.75411 23.3917 7.19922 23.6518 6.5063Z" fill="#A52F2F"/>
<path d="M24.8009 17.0727C25.0388 16.4356 24.8725 15.2621 24.9951 13.7609C25.1317 12.0924 22.3876 11.6125 20.9493 11.4753C20.6798 12.656 20.449 14.0238 20.4459 14.0419L20.425 14.1657C20.4418 14.2523 20.4476 14.3075 20.4481 14.3157C22.7757 14.8212 24.2207 15.6163 24.681 16.6736C24.7422 16.8128 24.7766 16.9453 24.8009 17.0727Z" fill="#A52F2F"/>
<path d="M24.5006 17.469C24.507 17.2895 24.4799 17.0746 24.3766 16.8414C24.1058 16.2292 23.1989 15.2887 20.2855 14.6742C20.0637 14.9371 19.6625 15.0673 19.0662 15.0673C18.3957 15.0673 17.5522 14.901 16.7314 14.6852C16.7859 14.7342 16.8431 14.7825 16.8956 14.8321C19.5868 16.7326 23.0435 17.651 24.0465 17.6014C24.237 17.5921 24.3827 17.5442 24.5006 17.469Z" fill="#A52F2F"/>
<path d="M16.1392 13.3999C15.8272 13.3999 15.5274 13.4056 15.2503 13.414C15.1817 13.4159 15.1146 13.4182 15.0496 13.4208C15.2624 13.5542 15.4661 13.6909 15.6639 13.8309C15.7692 13.9058 15.8726 13.982 15.9737 14.0582C15.9783 14.062 15.9828 14.0656 15.9873 14.0686C16.0994 14.103 16.213 14.1366 16.3281 14.1705C17.2731 14.4438 18.2994 14.6763 19.0662 14.6763C19.3002 14.6763 19.5646 14.6524 19.7739 14.5735C19.9254 14.5163 20.0493 14.4316 20.1078 14.3025C20.1052 14.2858 20.102 14.2649 20.0979 14.2407C20.0893 14.1925 20.0749 14.1307 20.0525 14.0587C19.5043 13.6352 18.1355 13.3999 16.1392 13.3999Z" fill="#A52F2F"/>
<path d="M17.164 25.8218C17.4968 25.1588 18.0303 23.9897 18.3814 22.6942L18.4573 22.4146L18.6509 22.604C18.7006 22.6528 19.7472 23.6947 20.3407 25.8666C20.5369 23.6624 20.5152 18.0245 15.8593 14.4369C15.7001 14.3134 15.5351 14.1934 15.3643 14.0759C15.1438 13.923 14.9113 13.7761 14.6712 13.6327C14.6305 13.6086 14.5895 13.5842 14.5481 13.5601C14.5436 13.568 14.5408 13.5762 14.5359 13.5837C14.5006 13.6409 14.4588 13.693 14.4169 13.7457C14.3733 13.8 14.3298 13.8528 14.2798 13.9011C14.0783 14.0963 13.8291 14.2382 13.551 14.3059C14.7017 15.357 17.0293 18.393 17.164 25.8218Z" fill="#A52F2F"/>
<path d="M20.1913 13.53C20.2787 13.0408 20.432 12.2216 20.6073 11.447C20.697 11.0505 20.7917 10.6672 20.8851 10.3543C20.9272 10.2142 20.8993 10.0626 20.8012 9.90356C20.6732 9.69538 20.4211 9.48702 20.0683 9.32563C19.6877 9.15162 19.188 9.03271 18.5855 9.03271C18.0012 9.03271 17.2155 9.14174 16.2731 9.52566C15.9761 9.64668 15.6641 9.79453 15.3373 9.97568C15.1689 10.0691 14.9957 10.1744 14.82 10.2855C14.7582 10.3251 14.6964 10.362 14.6334 10.4041C14.7315 10.6187 14.7911 10.856 14.7911 11.1092V12.6942C14.7911 12.7552 14.7797 12.8127 14.7739 12.8718C14.7682 12.9292 14.7653 12.9873 14.7542 13.0427C14.7956 13.0408 14.8402 13.039 14.883 13.0375C15.1117 13.0278 15.3631 13.02 15.6308 13.0147C15.7529 13.0121 15.8777 13.0106 16.0049 13.0101C16.0501 13.0101 16.0933 13.0092 16.1389 13.0092C17.7852 13.0092 18.9802 13.1605 19.7256 13.4545C19.8411 13.5003 19.9461 13.5496 20.0403 13.6019C20.0814 13.6258 20.1292 13.6472 20.1662 13.6718C20.1732 13.6314 20.1832 13.5772 20.1913 13.53Z" fill="#A52F2F"/>
<path d="M11.8684 13.9618H12.1471H12.3156H12.6852H12.8533H13.1318H13.1877C13.445 13.9618 13.6844 13.8839 13.8844 13.7514C13.9466 13.7103 14.0037 13.6628 14.0577 13.6113C14.105 13.5667 14.1465 13.5168 14.1865 13.4651C14.1977 13.4504 14.2112 13.4377 14.2213 13.4228C14.2573 13.372 14.2865 13.3172 14.3149 13.2613C14.3185 13.2535 14.3231 13.246 14.3267 13.2384C14.3267 13.2379 14.3271 13.2374 14.3276 13.2368C14.3547 13.1808 14.3754 13.1217 14.3939 13.0613C14.3939 13.0608 14.3943 13.0603 14.3943 13.0598C14.4005 13.0407 14.407 13.0222 14.4119 13.0031C14.4376 12.9038 14.4547 12.8012 14.4547 12.694V11.1091C14.4547 10.9285 14.4154 10.7572 14.3474 10.6018C14.3218 10.5442 14.291 10.4902 14.2577 10.4375C14.254 10.431 14.251 10.4245 14.2474 10.418C14.2168 10.3716 14.1811 10.3301 14.145 10.2882C13.9125 10.0169 13.5717 9.84155 13.1872 9.84155H12.9196H12.0805H11.6333C11.2861 9.84155 10.9717 9.98251 10.7425 10.2099C10.6978 10.2542 10.6596 10.304 10.6219 10.3541C10.6059 10.3756 10.5886 10.3961 10.5739 10.4185C10.5546 10.4482 10.5399 10.4809 10.5229 10.5121C10.4265 10.6912 10.3666 10.8922 10.3666 11.1091V12.6941C10.3666 12.7755 10.3758 12.8545 10.3907 12.9314C10.3986 12.9731 10.4125 13.012 10.4244 13.0519C10.4315 13.0769 10.4386 13.1017 10.4475 13.1259C10.4518 13.1374 10.4538 13.1496 10.4581 13.1603C10.4707 13.1914 10.4863 13.2208 10.5009 13.2509C10.5089 13.267 10.5178 13.2821 10.5266 13.2975C10.5495 13.3392 10.5705 13.3807 10.5974 13.419C10.6058 13.4313 10.6165 13.4417 10.6254 13.4533C10.6262 13.4543 10.627 13.4553 10.6275 13.4558C10.6408 13.4738 10.6556 13.4902 10.6705 13.5079C10.7164 13.5621 10.7657 13.6116 10.82 13.6579C10.8795 13.708 10.9431 13.7523 11.0111 13.7913C11.1956 13.8964 11.4064 13.9616 11.6333 13.9616H11.8684V13.9618Z" fill="#A52F2F"/>
</svg>
