<svg width="25" height="26" viewBox="0 0 25 26" fill="none" xmlns="http://www.w3.org/2000/svg">
<g clip-path="url(#clip0)">
<path d="M7.37305 25.1343H22.0215V4.57764H19.0918V22.1558H7.37305V25.1343Z" fill="#A52F2F"/>
<path d="M6.64062 15.564H8.10547V17.0288H6.64062V15.564Z" fill="#A52F2F"/>
<path d="M6.64062 9.70459H8.10547V11.1694H6.64062V9.70459Z" fill="#A52F2F"/>
<path d="M2.97852 20.6909H17.627V0.134277H2.97852V20.6909ZM9.57031 18.4937H5.17578V14.0991H9.57031V18.4937ZM9.57031 12.6343H5.17578V8.23975H9.57031V12.6343ZM15.4297 18.4937H11.7676V17.0288H15.4297V18.4937ZM15.4297 12.6343H11.7676V11.1694H15.4297V12.6343ZM10.3027 5.31006H15.4297V6.7749H10.3027V5.31006ZM6.17144 4.38096L7.0605 5.27144L8.78999 3.54194L9.82563 4.57764L7.06045 7.34282L5.13496 5.41592L6.17144 4.38096Z" fill="#A52F2F"/>
</g>
<defs>
<clipPath id="clip0">
<rect width="25" height="25" fill="white" transform="translate(0 0.134277)"/>
</clipPath>
</defs>
</svg>
