<svg width="25" height="26" viewBox="0 0 25 26" fill="none" xmlns="http://www.w3.org/2000/svg">
<path d="M24.1138 6.56891C24.1053 6.4936 24.0121 6.4936 23.9565 6.4936C23.5116 6.4936 21.488 6.81892 19.8212 7.3547C19.7134 7.38939 19.6288 7.40624 19.5626 7.40624C19.4335 7.40624 19.3834 7.34515 19.2826 7.20685C19.1609 7.04011 18.9943 6.81181 18.547 6.62006C18.3624 6.54093 18.1483 6.50078 17.9107 6.50078C16.9745 6.50078 15.7911 7.11377 15.0966 7.95834C15.0922 7.96361 15.0898 7.96466 15.0895 7.96466C15.0294 7.96466 14.8204 7.73005 14.4591 6.8415C14.1949 6.19178 13.9235 5.36906 13.7676 4.7454C13.5338 3.80985 12.8541 2.49441 12.4043 1.62403C12.2125 1.25263 12.0609 0.959301 12.0227 0.844892C11.9933 0.756748 11.947 0.711985 11.8851 0.711985C11.8453 0.711985 11.8071 0.731733 11.7684 0.772349C11.3301 1.23203 10.4341 5.06783 10.4902 6.24477C10.5362 7.21126 11.2993 7.8648 11.6659 8.17887C11.7093 8.21599 11.7557 8.25569 11.7917 8.2888C11.5966 8.21902 11.188 7.88481 10.6459 7.44139C9.86384 6.80168 8.68189 5.83499 7.08122 4.77845C4.83885 3.29837 3.40242 1.83133 2.54421 0.95489C1.9725 0.371193 1.7338 0.134277 1.56614 0.134277C1.52631 0.134277 1.45377 0.14922 1.41618 0.249477C1.2237 0.762804 1.46582 6.06993 3.85669 8.93892C5.19162 10.5408 6.89374 11.3633 8.02006 11.9076C8.66906 12.2212 9.18173 12.4689 9.26098 12.7013C9.27896 12.7542 9.27435 12.8049 9.2463 12.861C9.13973 13.0741 8.95409 13.3345 8.71896 13.6642C8.07193 14.5715 7.09419 15.9427 6.37844 18.2284C6.0568 19.2554 2.6945 22.853 1.82004 23.7275C1.77738 23.7701 0.776861 24.7752 0.894496 25.0591C0.903844 25.0817 0.934849 25.1343 1.0201 25.1343C1.22917 25.1343 1.78067 24.7761 2.65935 24.0683C3.80936 23.1419 4.59463 22.3667 5.16806 21.8003C5.72608 21.2491 6.07543 20.9053 6.31524 20.8682C6.29332 20.9856 6.22407 21.2873 6.01401 22.0482C6.00894 22.0666 5.99835 22.1099 6.02237 22.1415L6.04574 22.1794H6.07833C6.07839 22.1794 6.07846 22.1794 6.07852 22.1794C6.12941 22.1794 6.15568 22.1388 6.37673 21.8644C7.05107 21.0275 9.10313 18.4702 11.9538 17.9103C13.6243 17.5821 15.6985 16.0329 16.4307 13.7069C17.538 10.1891 18.4649 7.97618 23.3542 6.85546C24.1262 6.67845 24.1213 6.63487 24.1138 6.56891Z" fill="#A52F2F"/>
</svg>
