<svg width="25" height="26" viewBox="0 0 25 26" fill="none" xmlns="http://www.w3.org/2000/svg">
<path d="M22.0116 9.47563L22.229 9.6316H22.4317V9.2414L23.0708 9.17944L23.6778 9.6316H24.6756L24.7457 9.56747C24.6457 9.23107 24.5332 8.90065 24.4071 8.57675L23.7561 8.58762L23.4295 8.22894L23.3664 7.65234L23.0317 7.83494L22.8523 8.5398L22.3692 8.02569L22.3496 7.53984L21.8833 7.13823L21.7116 6.96704H21.1709L21.341 7.44908L21.992 7.81211L22.1051 7.93222L21.9638 8.00286L21.9703 8.38491L21.6529 8.51752L21.3823 8.45828L21.2127 8.21862L21.6535 8.24198L21.7725 8.08167L20.797 7.42354L20.722 7.14312L20.3258 7.5018L19.9242 7.41919L19.3128 8.21427L19.1922 8.52567L18.8009 8.56099L18.2221 8.5648L17.8759 8.40285L17.7737 7.71538L17.8982 7.38767L18.4873 7.25888L19.1297 7.38767L19.2085 7.03225L18.9356 6.96758L19.0286 6.4138L19.6753 6.31272L20.1274 5.67416L20.5943 5.5959L21.0154 5.6584H21.1709L21.085 5.05843L20.5731 5.26494L20.3926 4.81659L20.0954 4.77529L20.0394 4.46824L20.2818 4.20412L20.8584 3.97804L21.0068 3.71283C18.803 1.77161 15.9146 0.5896 12.7538 0.5896C10.011 0.5896 7.47364 1.47978 5.41015 2.98352L6.04056 2.97863L6.32152 3.13405L6.85085 3.24818L6.89215 3.45632L7.73396 3.4873L7.61983 3.2172L6.87204 3.19601L7.04812 3.03025L6.98671 2.83244H6.31065L7.04812 2.28192H7.75461L8.08666 2.73951L8.63772 2.77048L8.96978 2.44821L9.21922 2.57267L8.76163 3.01939C8.76163 3.01939 8.12851 3.0308 8.15948 3.0308C8.19046 3.0308 8.21166 3.46665 8.21166 3.46665L8.97956 3.44545L9.06271 3.2384L9.59203 3.20688L9.65453 2.89548L9.34313 2.84276L9.44693 2.56234L9.68551 2.49006L10.5164 2.53136L10.0583 2.94711L10.1322 3.26883L10.6099 3.34165L10.5789 2.76016L11.036 2.52104L11.8463 2.42756L13.0196 2.94711V3.39383L13.3935 3.4873L13.206 3.84055H12.6761L12.5191 4.24542L11.3099 3.96011L12.2615 3.45306L11.899 3.14492L11.0784 3.24872L11.0066 3.32318L11.0039 3.32209L10.9914 3.33948L10.755 3.58512L10.3643 3.61719L10.3953 3.81174L10.5317 3.86826L10.5262 3.93239L10.2083 3.9775L10.1849 4.16173L9.88115 4.17749L9.82626 3.8112L9.28117 3.97695L8.16709 4.6291L8.29209 5.08832L8.60349 5.29157L9.22629 5.37744V6.08556L9.51432 6.03936L9.77952 5.48613L10.442 5.27635V4.42693L10.8105 4.14868L11.7012 4.359L11.6387 4.92039H11.8778L12.5327 4.59866L12.5642 5.33559L13.0408 5.62634L13.0207 6.06327L12.5642 6.2187L12.5952 6.36326L13.1457 6.61379L13.1343 6.91487L12.975 6.92845C12.9745 6.92356 12.9734 6.9203 12.9734 6.9203L12.2789 6.70618L12.2495 6.48337H12.249L12.4522 6.3437V6.14045L12.2338 6.08556L12.1794 6.27305L11.7963 6.33228L11.7582 6.31979V6.33881L11.6256 6.35891L11.5175 6.14045L11.3925 6.08556H11.1197L10.9958 6.18773V6.4138L11.2289 6.49152L11.4593 6.52412L11.4077 6.54695L11.1974 6.78009L11.105 6.66379L10.9018 6.60999L10.348 7.13062L10.4203 7.18986L9.6029 7.64255L8.83391 8.44252L8.7812 8.79848L8.01058 9.30498L7.62853 9.6892L7.67092 10.4576L7.14105 10.2109L7.14486 9.76148L5.67046 9.76203L4.90691 10.1484L4.5754 10.7598L4.44389 11.2446L4.65855 11.7147L5.26015 11.788L6.21609 11.1489L6.29978 11.4658L6.00795 12.0168L6.73563 12.1413L6.80846 13.2651L7.8057 13.4347L8.43936 12.7021L9.20835 12.8586L9.47845 13.2342L10.2159 13.1907L10.2366 12.9728L10.642 13.1695L11.099 13.8858L11.8881 13.8966L12.1794 14.4064L12.2207 15.0292L13.0935 15.3612L14.1945 15.3727L14.5168 15.9014L15.0048 16.0579L14.9114 16.4954L14.3766 17.1747L14.2206 18.6796L13.7375 19.0611L13.0212 19.0399L12.7827 19.4551L12.9598 20.2355L12.18 21.2322L11.9311 21.6898L11.1882 22.0463L10.6996 22.1207L10.6795 22.3278L11.0224 22.4262L10.9811 22.6495L10.674 22.9452L10.8605 23.1805L11.23 23.1908L11.2094 23.4756L11.111 23.7565L11.0795 23.9848L11.6262 24.4451L11.5534 24.6842L10.8094 24.6701L10.0692 24.0245L9.49258 23.0109L9.57301 22.0327L9.13662 21.4507L9.31324 20.4643L9.05401 20.392V18.2519C9.05401 18.2519 8.32687 17.7008 8.28502 17.7008C8.24318 17.7008 7.90026 17.6073 7.90026 17.6073L7.82743 17.203L6.88237 16.0183L6.97584 15.5928L7.00682 14.8966L7.66114 14.439L7.56766 13.6597L6.61227 13.5879L5.86448 12.7358L5.33461 12.5891L4.99223 12.526L5.03353 12.2146L4.59714 12.1527V12.3293L3.50588 12.057L3.06677 11.3853L3.24557 11.0598L2.55484 10.0517L2.43636 9.31422H2.15594L2.24887 10.0305L2.72657 10.768L2.6744 11.0593L2.26952 10.9968L1.77118 10.1473V9.15879L1.25163 8.90935V8.19796C0.610357 9.70116 0.254395 11.3543 0.254395 13.0896C0.254395 19.9822 5.86176 25.5896 12.7544 25.5896C16.6618 25.5896 20.1552 23.7864 22.4491 20.9691H22.0366V20.1382L21.5594 19.4958V18.4964L21.1953 18.1334L21.1633 17.7177L21.6263 16.8345L20.7497 15.2862L20.8524 14.2357L20.0633 14.1542L19.7726 13.8635H19.2422L18.9726 14.1124H18.0373L18.0058 14.1955H17.4857L16.2923 12.8353L16.3021 11.7755L16.4993 11.7032L16.5727 11.2978H16.2923L16.1776 10.8723L17.5585 9.87561V9.16912L18.2346 8.79359L18.5085 8.82076H19.0644L19.4998 8.58708L20.9024 8.47784V9.19466L22.0116 9.47563ZM18.5052 5.01875L18.6194 4.84268L19.0302 4.75953L19.1329 5.25842L19.3514 5.61112L19.4965 5.77796L19.7612 5.88122L19.5117 6.17794L19.0286 6.22414H18.6656L18.7063 5.79318L19.0085 5.73068L18.9829 5.52797L18.7014 5.35135L18.5047 5.21657L18.5052 5.01875ZM17.8308 5.79807L18.0802 5.39809L18.4166 5.31983L18.6558 5.42363L18.634 5.69373L18.1199 6.0573H17.8297V5.79807H17.8308ZM11.0393 7.3355L10.7789 7.35724L10.7931 7.17627L10.9094 7.03117L11.0659 7.15399L11.0393 7.3355ZM11.9517 7.01595L11.774 7.03117L11.7381 7.2029L11.6012 7.28822L11.3816 7.3067C11.374 7.25507 11.3697 7.21594 11.3697 7.21594H11.2843V7.03117H11.6425L11.7164 6.84042L11.8588 6.8377L12.0213 6.87139L11.9517 7.01595Z" fill="#A52F2F"/>
</svg>
