<svg width="25" height="26" viewBox="0 0 25 26" fill="none" xmlns="http://www.w3.org/2000/svg">
<g clip-path="url(#clip0)">
<path d="M12.5 0.180664C7.65127 0.180664 3.71094 4.12109 3.71094 8.96973C3.71094 10.6104 4.16514 12.2071 5.02935 13.584L11.9042 24.8347C12.0215 25.0251 12.1973 25.1424 12.4024 25.1717C12.6806 25.2156 12.9884 25.0984 13.1495 24.8201L20.044 13.4668C20.8642 12.1192 21.2891 10.5518 21.2891 8.96973C21.2891 4.12109 17.3487 0.180664 12.5 0.180664ZM12.5 13.3643C10.0392 13.3643 8.10547 11.3721 8.10547 8.96973C8.10547 6.55269 10.083 4.5752 12.5 4.5752C14.917 4.5752 16.8945 6.55269 16.8945 8.96973C16.8945 11.3574 14.9902 13.3643 12.5 13.3643Z" fill="#A52F2F" fill-opacity="0.85"/>
<path d="M12.5 0.180664V4.5752C14.917 4.5752 16.8945 6.55269 16.8945 8.96973C16.8945 11.3574 14.9902 13.3643 12.5 13.3643V25.1802C12.75 25.186 13.007 25.0662 13.1494 24.8201L20.0439 13.4668C20.8642 12.1192 21.2891 10.5518 21.2891 8.96973C21.2891 4.12109 17.3487 0.180664 12.5 0.180664Z" fill="#A52F2F"/>
</g>
<defs>
<clipPath id="clip0">
<rect width="25" height="25" fill="white" transform="translate(0 0.180664)"/>
</clipPath>
</defs>
</svg>
