<svg width="25" height="16" viewBox="0 0 25 16" fill="none" xmlns="http://www.w3.org/2000/svg">
<path d="M23.4921 9.53207L23.6506 9.4275C23.9591 9.21415 24.0316 8.79292 23.8181 8.48647C23.6027 8.17729 23.1791 8.10752 22.8771 8.31795C12.3079 15.7073 4.61433 8.6816 4.29112 8.37971C4.01838 8.12446 3.58859 8.13739 3.33462 8.4085C3.07937 8.68069 3.09175 9.10647 3.36176 9.36264C3.37634 9.37648 3.61701 9.59675 4.05628 9.92269L2.70241 12.1555C2.50929 12.4739 2.61059 12.8897 2.92924 13.0844C3.03819 13.15 3.1619 13.183 3.2816 13.183C3.50916 13.183 3.7307 13.0673 3.85951 12.8591L5.18332 10.6777C5.92557 11.1295 6.87734 11.6229 8.0113 12.0398L7.35887 14.221C7.25083 14.5801 7.45288 14.9546 7.8098 15.0614L8.00438 15.0902C8.29279 15.0902 8.56243 14.9007 8.65025 14.6076L9.2963 12.4563C10.343 12.7425 11.5139 12.9358 12.7776 12.9817V15.1421C12.7776 15.516 13.0795 15.8179 13.4534 15.8179C13.8269 15.8179 14.1289 15.516 14.1289 15.1421V12.9697C15.2316 12.9092 16.4001 12.7195 17.6203 12.3715L18.452 14.5648C18.5557 14.8349 18.8125 15.0004 19.0838 15.0004L19.3229 14.9577C19.6718 14.8251 19.8487 14.4354 19.716 14.0867L18.9062 11.9498C20.0172 11.5371 21.1656 10.9938 22.3516 10.273L23.4464 11.7344C23.5798 11.911 23.7833 12.0057 23.9866 12.0057C24.1284 12.0057 24.2699 11.9627 24.3914 11.87C24.691 11.6459 24.7515 11.2223 24.5285 10.924L23.4921 9.53207Z" fill="#A52F2F"/>
<path d="M24.9579 4.24672C24.9579 4.24672 24.6885 3.85537 24.1193 3.33303C23.8411 3.05737 23.4761 2.77971 23.0496 2.45814C22.6151 2.169 22.1217 1.82612 21.5502 1.53589C20.9803 1.23381 20.3479 0.945221 19.6583 0.708918C18.9733 0.438728 18.2188 0.280221 17.4328 0.137564C16.6432 0.0382698 15.8097 0.0198683 14.9694 0.0568532C14.1262 0.12809 13.2834 0.129001 12.4339 0.232122C11.5892 0.302994 10.7491 0.380062 9.92946 0.542759C9.51898 0.614178 9.11196 0.671386 8.71569 0.759203C8.32271 0.867425 7.93336 0.974554 7.55149 1.07968C6.78701 1.2697 6.06662 1.51348 5.40181 1.79952C4.73006 2.05568 4.10715 2.31385 3.5613 2.62649C3.0089 2.91818 2.50259 3.16742 2.06733 3.41757C1.65321 3.70014 1.28955 3.94538 0.990395 4.14724C0.407199 4.55554 0.0737877 4.78929 0.0737877 4.78929L0 5.02049C0.0338877 5.12762 0.149033 5.18392 0.257255 5.14802L0.278936 5.14001C0.278936 5.14001 0.656619 5.01138 1.32107 4.78564C1.6461 4.67177 2.04292 4.53258 2.49548 4.37243C2.9557 4.24089 3.48861 4.1252 4.0545 3.98418C4.61273 3.82312 5.24075 3.72802 5.90338 3.64767C6.22786 3.60049 6.56273 3.54947 6.90562 3.49882C7.25178 3.46184 7.60815 3.45291 7.96452 3.42686C8.32271 3.40445 8.68417 3.38222 9.05038 3.35963C9.41895 3.36163 9.79263 3.36473 10.1672 3.36819C10.9111 3.34615 11.6728 3.41119 12.4288 3.47751C13.9395 3.58354 15.4051 4.08056 16.7813 4.31031C18.1638 4.54005 19.4927 4.60436 20.6649 4.66868C21.8413 4.7022 22.8543 4.72461 23.5971 4.68817C24.3363 4.66139 24.7905 4.61548 24.7905 4.61548L24.902 4.57266C25.0056 4.49997 25.0319 4.35403 24.9579 4.24672Z" fill="#A52F2F"/>
</svg>
