<svg width="38" height="38" viewBox="0 0 38 38" fill="none" xmlns="http://www.w3.org/2000/svg">
<path d="M33.5469 0H4.45312C1.99767 0 0 1.99767 0 4.45312V10.3906H2.96875V4.45312C2.96875 3.63464 3.63464 2.96875 4.45312 2.96875H33.5469C34.3654 2.96875 35.0312 3.63464 35.0312 4.45312V33.5469C35.0312 34.3654 34.3654 35.0312 33.5469 35.0312H4.45312C3.63464 35.0312 2.96875 34.3654 2.96875 33.5469V27.6094H0V33.5469C0 36.0023 1.99767 38 4.45312 38H33.5469C36.0023 38 38 36.0023 38 33.5469V4.45312C38 1.99767 36.0023 0 33.5469 0Z" fill="white"/>
<path d="M17.8125 9.77588L15.7133 11.8751L21.3539 17.5157H0V20.4845H21.3539L15.7133 26.1251L17.8125 28.2243L27.0367 19.0001L17.8125 9.77588Z" fill="white"/>
</svg>
