<svg width="17" height="17" viewBox="0 0 17 17" fill="none" xmlns="http://www.w3.org/2000/svg">
<path d="M16.8275 8.41803C16.8275 8.95031 16.551 9.3924 16.307 9.78201C16.1627 10.0129 16.0263 10.2307 15.9751 10.4215C15.9203 10.6272 15.9289 10.8931 15.9381 11.1749C15.9528 11.6271 15.9695 12.1397 15.7121 12.5841C15.4514 13.035 14.9955 13.2774 14.5934 13.4912C14.3478 13.6218 14.1159 13.7451 13.9703 13.891C13.8244 14.0366 13.7011 14.2685 13.5705 14.5141C13.3567 14.9162 13.1143 15.3721 12.6634 15.6331C12.219 15.8902 11.7064 15.8735 11.2542 15.8588C10.9724 15.8496 10.7065 15.841 10.5008 15.8958C10.3103 15.947 10.0922 16.0834 9.86131 16.2277C9.4717 16.4717 9.02961 16.7482 8.49733 16.7482H8.49373L7.33423 8.14091L8.49373 0.0878906H8.49733C9.02961 0.0878906 9.4717 0.36436 9.86131 0.608361C10.0922 0.752662 10.3103 0.889093 10.5008 0.940255C10.7065 0.995024 10.9724 0.986497 11.2542 0.977314C11.7064 0.962556 12.219 0.94583 12.6634 1.20295C13.1143 1.464 13.3567 1.91987 13.5705 2.32194C13.7011 2.56758 13.8244 2.79945 13.9703 2.94506C14.1159 3.09101 14.3478 3.21432 14.5934 3.34485C14.9955 3.55867 15.4514 3.80104 15.7124 4.25198C15.9695 4.69636 15.9528 5.20896 15.9381 5.66122C15.9289 5.94293 15.9203 6.20891 15.9751 6.41454C16.0263 6.60508 16.1627 6.82317 16.307 7.05373C16.551 7.44367 16.8275 7.88576 16.8275 8.41803Z" fill="#00CB76"/>
<path d="M8.49377 0.0878906V16.7482C7.96314 16.7469 7.52203 16.4711 7.1334 16.2277C6.90252 16.0834 6.68443 15.947 6.49388 15.8958C6.28825 15.841 6.02228 15.8496 5.74056 15.8588C5.28831 15.8735 4.77571 15.8902 4.33132 15.6331C3.88038 15.3721 3.63802 14.9162 3.42419 14.5141C3.29366 14.2685 3.17035 14.0366 3.02441 13.891C2.8788 13.7451 2.64693 13.6218 2.40129 13.4912C1.99921 13.2774 1.54335 13.035 1.28229 12.5841C1.02518 12.1397 1.0419 11.6271 1.05666 11.1749C1.06584 10.8931 1.07437 10.6272 1.0196 10.4215C0.968439 10.231 0.832008 10.0129 0.687706 9.78234C0.443705 9.3924 0.167236 8.95031 0.167236 8.41803C0.167236 7.88576 0.443705 7.44367 0.687706 7.05406C0.832008 6.82317 0.968439 6.60541 1.0196 6.41454C1.07437 6.20891 1.06584 5.94293 1.05666 5.66122C1.0419 5.20896 1.02518 4.69636 1.28262 4.25198C1.54335 3.80104 1.99921 3.55867 2.40129 3.34485C2.64693 3.21432 2.8788 3.09101 3.02441 2.94506C3.17035 2.79945 3.29366 2.56758 3.42419 2.32194C3.63802 1.91987 3.88038 1.464 4.33132 1.20295C4.77571 0.94583 5.28831 0.962556 5.74056 0.977314C6.02228 0.986497 6.28825 0.995024 6.49388 0.940255C6.68443 0.889093 6.90252 0.752662 7.1334 0.608361C7.52203 0.365015 7.96314 0.0892025 8.49377 0.0878906V0.0878906Z" fill="#A4E786"/>
<path d="M14.764 8.418C14.764 11.8734 11.9527 14.6846 8.49736 14.6846H8.49376L8.25139 14.3329L8.49376 13.7007H8.49736C11.4103 13.7007 13.7801 11.3309 13.7801 8.418C13.7801 5.50507 11.4103 3.13524 8.49736 3.13524H8.49376L8.0824 2.73684L8.49376 2.15137H8.49736C11.9527 2.15137 14.764 4.96263 14.764 8.418Z" fill="#009A85"/>
<path d="M11.4619 7.07103L8.49383 9.92033L8.25146 9.40183L8.49383 8.55635L10.7804 6.36133L11.4619 7.07103Z" fill="#009A85"/>
<path d="M8.49378 8.55643V9.92041L7.56861 10.8085L5.52576 8.766L6.22168 8.07007L7.58271 9.4311L8.49378 8.55643Z" fill="#00CB76"/>
<path d="M8.49373 3.13524V2.15137C5.04 2.15333 2.23071 4.96394 2.23071 8.418C2.23071 11.8721 5.04 14.6827 8.49373 14.6846V13.7007C5.58245 13.6988 3.21459 11.3296 3.21459 8.418C3.21459 5.50638 5.58245 3.13721 8.49373 3.13524Z" fill="#00CB76"/>
</svg>
