<svg width="28" height="29" viewBox="0 0 28 29" fill="none" xmlns="http://www.w3.org/2000/svg">
<path d="M28.0001 14.2482C28.0001 15.1427 27.5354 15.8857 27.1253 16.5405C26.8828 16.9286 26.6535 17.2945 26.5675 17.6153C26.4755 17.9609 26.4898 18.4079 26.5053 18.8814C26.5301 19.6415 26.5582 20.503 26.1255 21.2498C25.6873 22.0077 24.9212 22.415 24.2454 22.7744C23.8326 22.9938 23.4429 23.201 23.1982 23.4463C22.9529 23.691 22.7457 24.0807 22.5263 24.4935C22.1669 25.1693 21.7596 25.9354 21.0017 26.3742C20.2549 26.8063 19.3934 26.7782 18.6333 26.7534C18.1598 26.7379 17.7128 26.7236 17.3672 26.8156C17.047 26.9016 16.6805 27.1309 16.2924 27.3734C15.6376 27.7835 14.8946 28.2482 14.0001 28.2482H13.994L12.0453 13.7824L13.994 0.248169H14.0001C14.8946 0.248169 15.6376 0.712815 16.2924 1.12289C16.6805 1.36541 17.047 1.5947 17.3672 1.68069C17.7128 1.77274 18.1598 1.75841 18.6333 1.74297C19.3934 1.71817 20.2549 1.69006 21.0017 2.12218C21.7596 2.56092 22.1669 3.32707 22.5263 4.00281C22.7457 4.41565 22.9529 4.80533 23.1982 5.05006C23.4429 5.29533 23.8326 5.50258 24.2454 5.72195C24.9212 6.08132 25.6873 6.48864 26.1261 7.24652C26.5582 7.99337 26.5301 8.85486 26.5053 9.61494C26.4898 10.0884 26.4755 10.5354 26.5675 10.881C26.6535 11.2012 26.8828 11.5678 27.1253 11.9553C27.5354 12.6106 28.0001 13.3536 28.0001 14.2482Z" fill="#00CB76"/>
<path d="M13.994 0.248169V28.2482C13.1022 28.246 12.3608 27.7824 11.7077 27.3734C11.3197 27.1309 10.9531 26.9016 10.6329 26.8156C10.2873 26.7236 9.84029 26.7379 9.36683 26.7534C8.60675 26.7782 7.74526 26.8063 6.9984 26.3742C6.24053 25.9354 5.83321 25.1693 5.47384 24.4935C5.25447 24.0807 5.04722 23.691 4.80195 23.4463C4.55722 23.201 4.16754 22.9938 3.75471 22.7744C3.07896 22.415 2.31282 22.0077 1.87408 21.2498C1.44195 20.503 1.47006 19.6415 1.49486 18.8814C1.5103 18.4079 1.52463 17.9609 1.43258 17.6153C1.3466 17.2951 1.1173 16.9286 0.874785 16.5411C0.464707 15.8857 6.10352e-05 15.1427 6.10352e-05 14.2482C6.10352e-05 13.3536 0.464707 12.6106 0.874785 11.9558C1.1173 11.5678 1.3466 11.2018 1.43258 10.881C1.52463 10.5354 1.5103 10.0884 1.49486 9.61494C1.47006 8.85486 1.44195 7.99337 1.87463 7.24652C2.31282 6.48864 3.07896 6.08132 3.75471 5.72195C4.16754 5.50258 4.55722 5.29533 4.80195 5.05006C5.04722 4.80533 5.25447 4.41565 5.47384 4.00281C5.83321 3.32707 6.24053 2.56092 6.9984 2.12218C7.74526 1.69006 8.60675 1.71817 9.36683 1.74297C9.84029 1.75841 10.2873 1.77274 10.6329 1.68069C10.9531 1.5947 11.3197 1.36541 11.7077 1.12289C12.3608 0.713917 13.1022 0.250374 13.994 0.248169V0.248169Z" fill="#A4E786"/>
<path d="M24.532 14.248C24.532 20.0552 19.8072 24.78 14 24.78H13.994L13.5866 24.1889L13.994 23.1264H14C18.8956 23.1264 22.8784 19.1436 22.8784 14.248C22.8784 9.35241 18.8956 5.36958 14 5.36958H13.994L13.3026 4.7L13.994 3.71603H14C19.8072 3.71603 24.532 8.44076 24.532 14.248Z" fill="#009A85"/>
<path d="M18.9821 11.9845L13.9939 16.7732L13.5866 15.9017L13.9939 14.4808L17.8368 10.7917L18.9821 11.9845Z" fill="#009A85"/>
<path d="M13.9939 14.4808V16.7732L12.439 18.2658L9.00574 14.833L10.1753 13.6634L12.4627 15.9508L13.9939 14.4808Z" fill="#00CB76"/>
<path d="M13.994 5.36958V3.71603C8.1895 3.71934 3.46808 8.44296 3.46808 14.248C3.46808 20.053 8.1895 24.7767 13.994 24.78V23.1264C9.10115 23.1231 5.12162 19.1414 5.12162 14.248C5.12162 9.35462 9.10115 5.37288 13.994 5.36958Z" fill="#00CB76"/>
</svg>
