<svg width="28" height="29" viewBox="0 0 28 29" fill="none" xmlns="http://www.w3.org/2000/svg">
<path d="M14.0001 28.2482C21.732 28.2482 28.0001 21.9802 28.0001 14.2482C28.0001 6.51618 21.732 0.248169 14.0001 0.248169C6.26807 0.248169 6.10352e-05 6.51618 6.10352e-05 14.2482C6.10352e-05 21.9802 6.26807 28.2482 14.0001 28.2482Z" fill="#A52F2F" fill-opacity="0.8"/>
<path d="M28.0001 14.2481H6.10352e-05C6.10352e-05 21.9801 6.26807 28.2481 14.0001 28.2481C21.7321 28.2481 28.0001 21.9801 28.0001 14.2481Z" fill="#A52F2F"/>
<path d="M10.1719 22.1779C10.0444 22.1779 9.91639 22.1482 9.79859 22.0879C9.52428 21.9477 9.35168 21.6656 9.35168 21.3576V7.13886C9.35168 6.83081 9.52428 6.54873 9.79854 6.40851C10.0728 6.26829 10.4025 6.2935 10.6523 6.47386L20.4961 13.5832C20.7096 13.7374 20.8361 13.9849 20.8361 14.2482C20.8361 14.5116 20.7096 14.759 20.4961 14.9132L10.6523 22.0226C10.5098 22.1255 10.3413 22.1779 10.1719 22.1779Z" fill="#F9F9F9"/>
<path d="M9.35168 14.2481V21.3575C9.35168 21.6656 9.52428 21.9476 9.79854 22.0879C9.91634 22.1481 10.0444 22.1778 10.1719 22.1778C10.3413 22.1778 10.5098 22.1254 10.6523 22.0225L20.4961 14.9131C20.7096 14.7589 20.8361 14.5115 20.8361 14.2481H9.35168Z" fill="#E2DFF4"/>
</svg>
