<svg width="15" height="16" viewBox="0 0 15 16" fill="none" xmlns="http://www.w3.org/2000/svg">
<path d="M7.39262 15.5719C11.4234 15.5719 14.691 12.3043 14.691 8.27348C14.691 4.2427 11.4234 0.975098 7.39262 0.975098C3.36184 0.975098 0.0942383 4.2427 0.0942383 8.27348C0.0942383 12.3043 3.36184 15.5719 7.39262 15.5719Z" fill="#A52F2F" fill-opacity="0.8"/>
<path d="M14.691 8.27344H0.0942383C0.0942383 12.3042 3.36183 15.5718 7.39262 15.5718C11.4234 15.5718 14.691 12.3042 14.691 8.27344Z" fill="#A52F2F"/>
<path d="M5.39697 12.4073C5.33046 12.4073 5.26375 12.3919 5.20234 12.3604C5.05934 12.2873 4.96936 12.1403 4.96936 11.9797V4.56728C4.96936 4.40668 5.05934 4.25963 5.20231 4.18653C5.34528 4.11344 5.51717 4.12658 5.64737 4.2206L10.779 7.92681C10.8904 8.00721 10.9563 8.13618 10.9563 8.27348C10.9563 8.41079 10.8904 8.53976 10.779 8.62016L5.64737 12.3264C5.5731 12.38 5.48526 12.4073 5.39697 12.4073Z" fill="#F9F9F9"/>
<path d="M4.96936 8.27344V11.9796C4.96936 12.1402 5.05934 12.2873 5.20231 12.3604C5.26372 12.3918 5.33046 12.4073 5.39694 12.4073C5.48524 12.4073 5.5731 12.38 5.64737 12.3263L10.779 8.62011C10.8903 8.53971 10.9563 8.41074 10.9563 8.27344H4.96936Z" fill="#E2DFF4"/>
</svg>
