<svg width="126" height="107" viewBox="0 0 126 107" fill="none" xmlns="http://www.w3.org/2000/svg">
<g clip-path="url(#clip0_26_112)">
<path d="M33.3399 103.741L44.1221 85.1261C27.8096 83.7272 12.7404 74.2175 6.13377 61.1498C-0.472897 48.0821 1.63344 31.9738 11.4507 20.5396C19.9874 10.6013 33.6183 4.50413 47.7038 2.67659C61.7894 0.849052 76.2833 3.01622 89.6358 7.3263C96.3353 9.48539 102.886 12.2267 108.37 16.2133C125.564 28.715 128.515 53.031 116.016 69.2281C103.517 85.4253 77.9906 92.3635 56.5653 86.6787C50.0793 94.005 41.988 100.256 32.8574 104.97" stroke="#ABABAB" stroke-width="5" stroke-linecap="round" stroke-linejoin="round"/>
</g>
<defs>
<clipPath id="clip0_26_112">
<rect width="126" height="107" fill="white" transform="matrix(-1 0 0 1 126 0)"/>
</clipPath>
</defs>
</svg>
