<svg width="15" height="7" viewBox="0 0 15 7" fill="none" xmlns="http://www.w3.org/2000/svg">
<path d="M7.00125 6.84399C6.7676 6.84443 6.54117 6.76488 6.36125 6.61915L0.361252 1.73147C0.157036 1.56554 0.0286112 1.32711 0.0042315 1.06862C-0.0201482 0.810134 0.0615137 0.552767 0.231252 0.353137C0.400991 0.153508 0.644902 0.0279686 0.909329 0.00413647C1.17376 -0.0196956 1.43704 0.0601315 1.64125 0.226057L7.00125 4.60542L12.3613 0.382464C12.4635 0.301264 12.5812 0.240626 12.7076 0.204035C12.8339 0.167444 12.9664 0.155622 13.0974 0.169248C13.2285 0.182874 13.3554 0.221679 13.4711 0.283434C13.5867 0.345188 13.6887 0.428675 13.7713 0.529094C13.8628 0.629606 13.9322 0.747523 13.975 0.875457C14.0178 1.00339 14.0331 1.13858 14.0199 1.27257C14.0068 1.40655 13.9655 1.53644 13.8986 1.65409C13.8317 1.77175 13.7407 1.87463 13.6313 1.9563L7.63125 6.6778C7.44617 6.8005 7.22436 6.85901 7.00125 6.84399Z" fill="#303030"/>
</svg>
