<?xml version="1.0" encoding="UTF-8"?> <!-- Generator: Adobe Illustrator 19.1.0, SVG Export Plug-In . SVG Version: 6.00 Build 0) --> <svg xmlns="http://www.w3.org/2000/svg" xmlns:xlink="http://www.w3.org/1999/xlink" id="Layer_1" x="0px" y="0px" viewBox="0 0 119.5 119.5" style="enable-background:new 0 0 119.5 119.5;" xml:space="preserve"> <style type="text/css"> .st0{fill:#FFFFFF;} </style> <path class="st0" d="M59.6,0C26.7,0,0,26.7,0,59.6s26.7,59.6,59.6,59.6s59.6-26.7,59.6-59.6S92.5,0,59.6,0z M99.5,42.8 c-0.1,0.4-0.2,0.9-0.4,1.3c-0.8,2.4-2,4.6-3.4,6.6c-2.5,3.5-5.1,6.9-7.6,10.4c-0.6,0.8-1.2,1.7-1.8,2.5c-0.7,1.1-0.6,1.9,0.2,2.9 c0.4,0.5,0.8,0.9,1.3,1.3c2.4,2.3,4.8,4.7,7.1,7.1c1.4,1.5,2.7,3.1,3.7,4.9c0.6,1,1,2.1,0.9,3.3c-0.2,2-1.7,3.7-3.8,3.6 c-4.1,0-8.2,0-12.3,0c-0.6,0-1.2,0-1.8-0.1c-2.3-0.3-4.3-1.4-5.9-3.1c-1.8-1.9-3.5-3.8-5.3-5.7c-0.7-0.7-1.4-1.3-2.2-1.9 c-0.8-0.5-1.4-0.3-1.9,0.5c-0.6,1-0.9,2-1.1,3.1c-0.1,1.1-0.2,2.3-0.3,3.5c-0.3,2-1.3,3.1-3.3,3.5c-0.7,0.1-1.4,0.2-2,0.2 c-3.8,0.2-7.5-0.2-11.2-1.2c-4.7-1.3-8.8-3.8-12.3-7.1C33,76,30.7,73,28.5,69.9c-3.7-5.2-6.9-10.7-9.7-16.4c-1.8-3.6-3.7-7.2-5-11 c0-0.4,0-0.7,0-1.1c0.2-0.3,0.3-0.7,0.5-1c0.7-1,1.7-1.3,2.8-1.3c3.2-0.1,6.4-0.1,9.5-0.1c0.8,0,1.6,0,2.4,0c2.3,0,3.9,1.1,4.8,3.2 c1.2,3,2.6,5.9,4.2,8.7c1.5,2.7,3.1,5.3,5,7.6c0.5,0.6,1.1,1.1,1.7,1.5c0.5,0.4,0.8,0.3,1-0.3c0.3-0.7,0.5-1.4,0.6-2.1 c0.5-3.9,0.5-7.8-0.1-11.7c-0.3-1.7-1.2-2.7-2.9-3.1c-0.2-0.1-0.5-0.1-0.7-0.2c-1.1-0.5-1.5-1.5-0.8-2.5c1.2-1.8,2.8-2.9,5-2.8 c4.5,0,8.9,0,13.4,0c2.2,0,3.8,1.2,4.3,3.4c0.3,1.2,0.2,2.5,0.2,3.7c0,4.3,0,8.5,0,12.8c0,0.8,0.2,1.6,0.6,2.3 c0.4,0.7,0.8,0.8,1.3,0.2c0.6-0.6,1.1-1.2,1.7-1.8c2.8-3.2,4.9-6.9,6.7-10.8c0.8-1.8,1.6-3.6,2.3-5.4c0.9-2.1,2.2-2.9,4.4-2.9 c3,0,6,0,9,0c1.7,0,3.5,0,5.2,0.1c1.7,0.1,3.2,0.8,3.6,2.7C99.5,42.1,99.5,42.5,99.5,42.8z"></path> </svg> 