<?xml version="1.0" encoding="UTF-8"?> <!-- Generator: Adobe Illustrator 24.1.0, SVG Export Plug-In . SVG Version: 6.00 Build 0) --> <svg xmlns="http://www.w3.org/2000/svg" xmlns:xlink="http://www.w3.org/1999/xlink" id="Layer_1" x="0px" y="0px" viewBox="0 0 122.28 121.89" style="enable-background:new 0 0 122.28 121.89;" xml:space="preserve"> <style type="text/css"> .st0{fill:#FFFFFF;} </style> <path class="st0" d="M61.69,0C27.95,0,0.6,27.35,0.6,61.09s27.35,61.09,61.09,61.09s61.09-27.35,61.09-61.09S95.42,0,61.69,0z M92.64,91.08c-8.16,1.25-54.56,1.2-62.26,0c-7.7-1.2-12.27-6.1-12.7-12.7c-0.44-6.61-0.99-27.88,0-34.73 c0.98-6.78,4.01-11.35,12.7-12.7c8.7-1.36,54.59-0.64,62.26,0c7.67,0.64,11.36,5.12,12.7,12.7c1.4,7.9,0.98,28.18,0,34.73 C104.34,85.1,100.81,89.83,92.64,91.08z"></path> <polygon class="st0" points="53.47,48.72 53.47,74.91 77.02,61.09 "></polygon> </svg> 