<svg width="125" height="86" viewBox="0 0 125 86" fill="none" xmlns="http://www.w3.org/2000/svg">
<g id="&#208;&#155;&#208;&#190;&#208;&#179;&#208;&#190; &#208;&#186;&#208;&#190;&#209;&#132;&#208;&#181; 1" clip-path="url(#clip0_1_2864)">
<g id="Layer_x0020_1">
<path id="Vector" d="M62.4223 2.84275C60.6269 2.84275 58.9474 2.9863 57.6931 3.24733L7.35787 13.74C4.92425 14.2467 2.86836 16.7945 2.86836 19.3043V66.5728C2.86836 69.0817 4.92425 71.6302 7.35787 72.1374L57.6939 82.6299C58.9467 82.8906 60.6266 83.0338 62.4223 83.0338H62.4226C64.2145 83.0338 65.8909 82.8906 67.1428 82.6304L117.554 72.1361C119.989 71.6294 122.044 69.0817 122.044 66.5728V19.3043C122.044 16.7948 119.989 14.2475 117.554 13.7408L67.1428 3.24622C65.8893 2.98597 64.2126 2.84275 62.4223 2.84275ZM62.4226 85.814C60.4455 85.814 58.5688 85.65 57.1382 85.3526L6.80137 74.8601C3.05206 74.0781 0.115234 70.4381 0.115234 66.5728V19.3043C0.115234 15.4384 3.05206 11.7984 6.80137 11.0173L57.137 0.524765C58.5691 0.226905 60.4459 0.0625 62.4223 0.0625C64.3936 0.0625 66.2669 0.226124 67.6978 0.523541L118.11 11.0181C121.86 11.7989 124.798 15.4389 124.798 19.3043V66.5728C124.798 70.4381 121.86 74.0777 118.111 74.8588L67.6982 85.3531C66.2692 85.6505 64.3955 85.814 62.4226 85.814Z" fill="white"/>
<path id="Vector_2" d="M34.5388 33.3649C35.0435 33.3496 35.5144 32.9246 35.5846 32.4202L36.3546 26.9115C36.4249 26.4069 36.0702 25.9941 35.5656 25.9941H12.8435C12.3392 25.9941 11.9888 26.4066 12.0651 26.9102L13.0028 33.0905C13.0795 33.5942 13.5551 33.9941 14.0597 33.9789L19.0605 33.8294C19.5652 33.8137 19.9524 34.218 19.9206 34.7264L18.2873 61.0798C18.2554 61.5885 18.6345 62.0875 19.1295 62.1881L28.0051 63.9965C28.5 64.0971 28.9024 63.7625 28.8996 63.253L28.7396 34.4657C28.7372 33.9562 29.1473 33.5268 29.6519 33.5117L34.5388 33.3649Z" fill="white"/>
<path id="Vector_3" d="M42.1595 57.1705C41.6619 57.086 41.3166 56.6046 41.3925 56.101L42.9631 45.6323C43.039 45.1282 43.17 45.1274 43.2549 45.63L45.129 56.7862C45.2135 57.2888 44.8755 57.6308 44.3778 57.5467L42.1595 57.1705ZM40.8727 25.9941C40.3681 25.9941 40.0243 26.405 40.1088 26.9076L40.9351 31.83C41.0201 32.3325 40.9739 33.1438 40.8328 33.6333L32.1119 63.93C31.9708 64.42 32.2603 64.9049 32.7541 65.0079L38.9339 66.3005C39.4286 66.4038 39.8944 66.0758 39.9697 65.5722L40.5452 61.7393C40.6212 61.2355 41.0782 60.944 41.5619 61.0907L45.2041 62.2002C45.6879 62.3474 46.1522 62.8788 46.2367 63.3813L46.8564 67.0703C46.9409 67.5728 47.4134 68.0713 47.9076 68.1786L54.1181 69.5245C54.6118 69.6321 54.9591 69.3065 54.8901 68.8012L49.1821 26.9122C49.1131 26.407 48.644 25.9941 48.1394 25.9941H40.8727Z" fill="white"/>
<path id="Vector_4" d="M81.9673 22.3007C82.4719 22.2894 82.9529 21.8686 83.0371 21.3662L83.9743 15.7522C84.0584 15.2497 83.7138 14.8341 83.2091 14.8283L42.3317 14.379C41.827 14.3731 41.4661 14.7825 41.5297 15.2881L42.4114 22.2815C42.4751 22.7872 42.9401 23.1914 43.4444 23.1801L57.3444 22.8627C57.8491 22.851 58.2518 23.2583 58.239 23.7679L57.0743 71.877C57.0618 72.3862 57.4646 72.805 57.9688 72.8061L68.7119 72.8339C69.2165 72.8355 69.6134 72.4195 69.5945 71.9111L67.7669 23.5515C67.7479 23.0428 68.1452 22.6166 68.6498 22.6048L81.9673 22.3007Z" fill="white"/>
<path id="Vector_5" d="M71.6971 34.2779C71.7603 34.7835 72.2223 35.1557 72.7246 35.1052L77.0034 34.6743C77.5053 34.6239 77.8859 34.9979 77.8483 35.5064L75.4569 67.7445C75.4196 68.2525 75.7933 68.5839 76.2875 68.4807L86.9596 66.2483C87.4533 66.1454 87.8428 65.6437 87.8239 65.1353L86.6871 34.6278C86.6681 34.119 87.0639 33.6607 87.5657 33.6103L91.3083 33.2333C91.8103 33.1828 92.2619 32.7266 92.3111 32.2194L92.8259 26.9158C92.8751 26.4089 92.5025 25.9941 91.9979 25.9941H71.5813C71.0766 25.9941 70.7157 26.4077 70.7786 26.9133L71.6971 34.2779Z" fill="white"/>
<path id="Vector_6" d="M103.544 55.7909C103.061 55.9377 102.661 55.6407 102.655 55.1312L102.574 47.4419C102.569 46.9323 102.977 46.4948 103.481 46.4701L108.686 46.2115C109.19 46.1864 109.594 45.7492 109.583 45.2397L109.48 40.365C109.469 39.8555 109.053 39.5095 108.556 39.5964L103.407 40.4961C102.909 40.583 102.498 40.2366 102.493 39.7271L102.43 33.703C102.425 33.1935 102.832 32.8032 103.336 32.8357L110.467 33.2983C110.971 33.3312 111.383 32.941 111.383 32.4318V26.9204C111.383 26.4109 110.97 25.9941 110.466 25.9941H95.8147C95.3101 25.9941 94.8818 26.4109 94.8633 26.92L93.5016 63.8529C93.4826 64.3612 93.8721 64.6934 94.3659 64.5898L111.139 61.0766C111.633 60.9729 112.038 60.4712 112.038 59.9616V54.1371C112.038 53.6279 111.643 53.3309 111.159 53.4777L103.544 55.7909Z" fill="white"/>
</g>
</g>
<defs>
<clipPath id="clip0_1_2864">
<rect width="125" height="86" fill="white"/>
</clipPath>
</defs>
</svg>
