<svg width="44" height="44" viewBox="0 0 44 44" fill="none" xmlns="http://www.w3.org/2000/svg">
<g id="logos:whatsapp-icon" clip-path="url(#clip0_1_135)">
<path id="Vector" d="M0.93875 21.7372C0.937719 25.434 1.91122 29.0438 3.76231 32.2254L0.761719 43.0961L11.9735 40.1792C15.0745 41.8543 18.549 42.732 22.0797 42.7322H22.089C33.7447 42.7322 43.2327 33.3211 43.2377 21.7537C43.2399 16.1485 41.042 10.8777 37.0487 6.91226C33.056 2.94715 27.7459 0.762324 22.0881 0.759766C10.4311 0.759766 0.943734 10.1703 0.938922 21.7372" fill="url(#paint0_linear_1_135)"/>
<path id="Vector_2" d="M0.183906 21.7299C0.182703 25.5597 1.19109 29.2985 3.10819 32.5941L0 43.8545L11.6138 40.833C14.8137 42.5642 18.4166 43.4769 22.0827 43.4783H22.0921C34.166 43.4783 43.9948 33.7287 44 21.7473C44.0021 15.9406 41.7251 10.4804 37.5891 6.37284C33.4525 2.26583 27.9525 0.0023876 22.0921 0C10.0162 0 0.188719 9.74822 0.183906 21.7299ZM7.10016 32.0265L6.66652 31.3435C4.84361 28.4675 3.88145 25.144 3.88283 21.7312C3.88678 11.7724 12.055 3.67008 22.099 3.67008C26.9631 3.67212 31.5343 5.55355 34.9724 8.96713C38.4105 12.3811 40.3023 16.9192 40.3011 21.7459C40.2966 31.7047 32.1283 39.8081 22.0921 39.8081H22.0849C18.817 39.8064 15.6121 38.9356 12.8171 37.29L12.1519 36.8986L5.26006 38.6915L7.10016 32.0264V32.0265Z" fill="url(#paint1_linear_1_135)"/>
<path id="Vector_3" d="M16.6173 12.6445C16.2073 11.7401 15.7757 11.7219 15.3857 11.706C15.0663 11.6924 14.7013 11.6934 14.3366 11.6934C13.9715 11.6934 13.3784 11.8296 12.877 12.3728C12.3751 12.9165 10.9609 14.2304 10.9609 16.9026C10.9609 19.575 12.9225 22.1575 13.196 22.5203C13.4698 22.8823 16.9829 28.5416 22.5469 30.7188C27.171 32.5281 28.112 32.1682 29.1156 32.0775C30.1193 31.9871 32.3544 30.764 32.8104 29.4956C33.2667 28.2275 33.2667 27.1404 33.1299 26.9133C32.9931 26.687 32.628 26.5511 32.0806 26.2795C31.533 26.0079 28.8418 24.6938 28.3401 24.5126C27.8382 24.3314 27.4733 24.2411 27.1082 24.7849C26.7432 25.3279 25.6949 26.5511 25.3754 26.9133C25.0562 27.2764 24.7367 27.3216 24.1895 27.0499C23.6417 26.7774 21.8788 26.2045 19.7872 24.3543C18.1599 22.9146 17.0613 21.1367 16.742 20.5928C16.4226 20.0498 16.7078 19.7554 16.9822 19.4848C17.2282 19.2414 17.5298 18.8505 17.8038 18.5335C18.0767 18.2163 18.1678 17.99 18.3504 17.6277C18.5331 17.2652 18.4416 16.948 18.305 16.6763C18.1678 16.4046 17.1041 13.7184 16.6173 12.6445Z" fill="white"/>
</g>
<defs>
<linearGradient id="paint0_linear_1_135" x1="2124.56" y1="4234.4" x2="2124.56" y2="0.759766" gradientUnits="userSpaceOnUse">
<stop stop-color="#1FAF38"/>
<stop offset="1" stop-color="#60D669"/>
</linearGradient>
<linearGradient id="paint1_linear_1_135" x1="2200" y1="4385.45" x2="2200" y2="0" gradientUnits="userSpaceOnUse">
<stop stop-color="#F9F9F9"/>
<stop offset="1" stop-color="white"/>
</linearGradient>
<clipPath id="clip0_1_135">
<rect width="44" height="44" fill="white"/>
</clipPath>
</defs>
</svg>
