<svg width="48" height="48" viewBox="0 0 48 48" fill="none" xmlns="http://www.w3.org/2000/svg">
<rect width="48" height="48" rx="24" fill="url(#paint0_linear_443_3873)"/>
<path d="M20.6712 24C20.6712 22.1591 22.164 20.6664 24.006 20.6664C25.848 20.6664 27.3416 22.1591 27.3416 24C27.3416 25.8409 25.848 27.3336 24.006 27.3336C22.164 27.3336 20.6712 25.8409 20.6712 24ZM18.868 24C18.868 26.836 21.1683 29.1349 24.006 29.1349C26.8437 29.1349 29.144 26.836 29.144 24C29.144 21.164 26.8437 18.8651 24.006 18.8651C21.1683 18.8651 18.868 21.164 18.868 24ZM28.1466 18.6615C28.1465 18.8989 28.2169 19.1309 28.3487 19.3283C28.4806 19.5257 28.6681 19.6796 28.8874 19.7705C29.1068 19.8614 29.3482 19.8852 29.5811 19.839C29.8141 19.7928 30.0281 19.6786 30.1961 19.5109C30.364 19.3431 30.4785 19.1293 30.5249 18.8966C30.5713 18.6638 30.5477 18.4225 30.4569 18.2032C30.3661 17.9839 30.2122 17.7964 30.0148 17.6645C29.8174 17.5326 29.5853 17.4621 29.3478 17.462H29.3474C29.029 17.4621 28.7238 17.5886 28.4987 17.8135C28.2735 18.0384 28.1469 18.3434 28.1466 18.6615ZM19.9636 32.1398C18.988 32.0954 18.4578 31.933 18.1054 31.7958C17.6383 31.614 17.3049 31.3975 16.9545 31.0478C16.604 30.698 16.3871 30.3652 16.206 29.8983C16.0687 29.5463 15.9062 29.0162 15.8618 28.0413C15.8133 26.9872 15.8036 26.6706 15.8036 24.0001C15.8036 21.3296 15.8141 21.0138 15.8618 19.9589C15.9063 18.9839 16.07 18.4549 16.206 18.1018C16.3879 17.635 16.6045 17.3018 16.9545 16.9516C17.3045 16.6014 17.6375 16.3846 18.1054 16.2036C18.4576 16.0663 18.988 15.9039 19.9636 15.8596C21.0183 15.8111 21.3351 15.8014 24.006 15.8014C26.6769 15.8014 26.994 15.8119 28.0496 15.8596C29.0252 15.904 29.5545 16.0676 29.9078 16.2036C30.3749 16.3846 30.7083 16.6018 31.0587 16.9516C31.4092 17.3014 31.6253 17.635 31.8072 18.1018C31.9445 18.4538 32.107 18.9839 32.1514 19.9589C32.1999 21.0138 32.2096 21.3296 32.2096 24.0001C32.2096 26.6706 32.1999 26.9863 32.1514 28.0413C32.1069 29.0162 31.9436 29.5462 31.8072 29.8983C31.6253 30.3652 31.4087 30.6983 31.0587 31.0478C30.7087 31.3972 30.3749 31.614 29.9078 31.7958C29.5556 31.933 29.0252 32.0954 28.0496 32.1398C26.9949 32.1882 26.6781 32.1979 24.006 32.1979C21.3339 32.1979 21.018 32.1882 19.9636 32.1398ZM19.8807 14.0606C18.8155 14.109 18.0877 14.2778 17.452 14.525C16.7937 14.7803 16.2364 15.1228 15.6795 15.6785C15.1226 16.2342 14.7808 16.792 14.5254 17.4499C14.278 18.0856 14.1091 18.8126 14.0606 19.8772C14.0113 20.9434 14 21.2843 14 24C14 26.7157 14.0113 27.0566 14.0606 28.1228C14.1091 29.1874 14.278 29.9144 14.5254 30.5501C14.7808 31.2076 15.1227 31.7661 15.6795 32.3215C16.2363 32.877 16.7937 33.219 17.452 33.475C18.0889 33.7222 18.8155 33.891 19.8807 33.9394C20.9482 33.9879 21.2887 34 24.006 34C26.7233 34 27.0644 33.9887 28.1313 33.9394C29.1966 33.891 29.9239 33.7222 30.56 33.475C31.2179 33.219 31.7756 32.8772 32.3325 32.3215C32.8894 31.7658 33.2305 31.2076 33.4866 30.5501C33.734 29.9144 33.9037 29.1874 33.9514 28.1228C33.9999 27.0558 34.0112 26.7157 34.0112 24C34.0112 21.2843 33.9999 20.9434 33.9514 19.8772C33.9029 18.8126 33.734 18.0852 33.4866 17.4499C33.2305 16.7924 32.8885 16.235 32.3325 15.6785C31.7765 15.1219 31.2179 14.7803 30.5608 14.525C29.9239 14.2778 29.1965 14.1082 28.1321 14.0606C27.0652 14.0121 26.7241 14 24.0068 14C21.2895 14 20.9482 14.0113 19.8807 14.0606Z" fill="white"/>
<path d="M20.6712 24C20.6712 22.1591 22.164 20.6664 24.006 20.6664C25.848 20.6664 27.3416 22.1591 27.3416 24C27.3416 25.8409 25.848 27.3336 24.006 27.3336C22.164 27.3336 20.6712 25.8409 20.6712 24ZM18.868 24C18.868 26.836 21.1683 29.1349 24.006 29.1349C26.8437 29.1349 29.144 26.836 29.144 24C29.144 21.164 26.8437 18.8651 24.006 18.8651C21.1683 18.8651 18.868 21.164 18.868 24ZM28.1466 18.6615C28.1465 18.8989 28.2169 19.1309 28.3487 19.3283C28.4806 19.5257 28.6681 19.6796 28.8874 19.7705C29.1068 19.8614 29.3482 19.8852 29.5811 19.839C29.8141 19.7928 30.0281 19.6786 30.1961 19.5109C30.364 19.3431 30.4785 19.1293 30.5249 18.8966C30.5713 18.6638 30.5477 18.4225 30.4569 18.2032C30.3661 17.9839 30.2122 17.7964 30.0148 17.6645C29.8174 17.5326 29.5853 17.4621 29.3478 17.462H29.3474C29.029 17.4621 28.7238 17.5886 28.4987 17.8135C28.2735 18.0384 28.1469 18.3434 28.1466 18.6615ZM19.9636 32.1398C18.988 32.0954 18.4578 31.933 18.1054 31.7958C17.6383 31.614 17.3049 31.3975 16.9545 31.0478C16.604 30.698 16.3871 30.3652 16.206 29.8983C16.0687 29.5463 15.9062 29.0162 15.8618 28.0413C15.8133 26.9872 15.8036 26.6706 15.8036 24.0001C15.8036 21.3296 15.8141 21.0138 15.8618 19.9589C15.9063 18.9839 16.07 18.4549 16.206 18.1018C16.3879 17.635 16.6045 17.3018 16.9545 16.9516C17.3045 16.6014 17.6375 16.3846 18.1054 16.2036C18.4576 16.0663 18.988 15.9039 19.9636 15.8596C21.0183 15.8111 21.3351 15.8014 24.006 15.8014C26.6769 15.8014 26.994 15.8119 28.0496 15.8596C29.0252 15.904 29.5545 16.0676 29.9078 16.2036C30.3749 16.3846 30.7083 16.6018 31.0587 16.9516C31.4092 17.3014 31.6253 17.635 31.8072 18.1018C31.9445 18.4538 32.107 18.9839 32.1514 19.9589C32.1999 21.0138 32.2096 21.3296 32.2096 24.0001C32.2096 26.6706 32.1999 26.9863 32.1514 28.0413C32.1069 29.0162 31.9436 29.5462 31.8072 29.8983C31.6253 30.3652 31.4087 30.6983 31.0587 31.0478C30.7087 31.3972 30.3749 31.614 29.9078 31.7958C29.5556 31.933 29.0252 32.0954 28.0496 32.1398C26.9949 32.1882 26.6781 32.1979 24.006 32.1979C21.3339 32.1979 21.018 32.1882 19.9636 32.1398ZM19.8807 14.0606C18.8155 14.109 18.0877 14.2778 17.452 14.525C16.7937 14.7803 16.2364 15.1228 15.6795 15.6785C15.1226 16.2342 14.7808 16.792 14.5254 17.4499C14.278 18.0856 14.1091 18.8126 14.0606 19.8772C14.0113 20.9434 14 21.2843 14 24C14 26.7157 14.0113 27.0566 14.0606 28.1228C14.1091 29.1874 14.278 29.9144 14.5254 30.5501C14.7808 31.2076 15.1227 31.7661 15.6795 32.3215C16.2363 32.877 16.7937 33.219 17.452 33.475C18.0889 33.7222 18.8155 33.891 19.8807 33.9394C20.9482 33.9879 21.2887 34 24.006 34C26.7233 34 27.0644 33.9887 28.1313 33.9394C29.1966 33.891 29.9239 33.7222 30.56 33.475C31.2179 33.219 31.7756 32.8772 32.3325 32.3215C32.8894 31.7658 33.2305 31.2076 33.4866 30.5501C33.734 29.9144 33.9037 29.1874 33.9514 28.1228C33.9999 27.0558 34.0112 26.7157 34.0112 24C34.0112 21.2843 33.9999 20.9434 33.9514 19.8772C33.9029 18.8126 33.734 18.0852 33.4866 17.4499C33.2305 16.7924 32.8885 16.235 32.3325 15.6785C31.7765 15.1219 31.2179 14.7803 30.5608 14.525C29.9239 14.2778 29.1965 14.1082 28.1321 14.0606C27.0652 14.0121 26.7241 14 24.0068 14C21.2895 14 20.9482 14.0113 19.8807 14.0606Z" fill="white"/>
<defs>
<linearGradient id="paint0_linear_443_3873" x1="47.0774" y1="48" x2="-0.922559" y2="-1.29202e-06" gradientUnits="userSpaceOnUse">
<stop stop-color="#FBE18A"/>
<stop offset="0.21" stop-color="#FCBB45"/>
<stop offset="0.38" stop-color="#F75274"/>
<stop offset="0.52" stop-color="#D53692"/>
<stop offset="0.74" stop-color="#8F39CE"/>
<stop offset="1" stop-color="#5B4FE9"/>
</linearGradient>
</defs>
</svg>
