<svg width="48" height="48" viewBox="0 0 48 48" fill="none" xmlns="http://www.w3.org/2000/svg">
<g id="Messenger icon 48 x 48">
<rect width="48" height="48" rx="24" fill="#25D366"/>
<path id="Vector" fill-rule="evenodd" clip-rule="evenodd" d="M32.5189 27.2449C32.0905 26.8902 31.589 26.6405 31.0524 26.5149C30.5158 26.3893 29.9584 26.391 29.4226 26.5201C28.6176 26.8634 28.0974 28.1604 27.5773 28.8089C27.4676 28.9644 27.3064 29.0734 27.124 29.1156C26.9416 29.1577 26.7504 29.1301 26.5865 29.0378C23.6392 27.8527 21.1689 25.6792 19.5766 22.8706C19.4407 22.6953 19.3765 22.4728 19.3973 22.2499C19.418 22.0269 19.5223 21.8209 19.688 21.6753C20.2682 21.0856 20.6941 20.3553 20.9265 19.5518C20.9781 18.6655 20.7804 17.7827 20.3568 17.0086C20.0294 15.9233 19.4062 14.957 18.561 14.2238C18.125 14.0225 17.6417 13.955 17.1692 14.0294C16.6967 14.1039 16.2553 14.3171 15.8982 14.6434C15.2783 15.1925 14.7863 15.8774 14.4583 16.6477C14.1304 17.4179 13.9749 18.2539 14.0033 19.094C14.0052 19.5658 14.0634 20.0355 14.1767 20.4927C14.4643 21.5913 14.9065 22.6408 15.4895 23.6081C15.9101 24.3491 16.369 25.0665 16.8642 25.7571C18.4737 28.0256 20.4969 29.9517 22.8214 31.4284C23.9879 32.1788 25.2346 32.789 26.5369 33.2468C27.8898 33.8764 29.3834 34.1181 30.8593 33.9462C31.7002 33.8155 32.4969 33.4746 33.1794 32.9535C33.8618 32.4325 34.4091 31.7472 34.773 30.9579C34.9868 30.4812 35.0517 29.9481 34.9587 29.432C34.7358 28.3766 33.3611 27.7535 32.5189 27.2449Z" fill="white"/>
</g>
</svg>
