<svg width="48" height="48" viewBox="0 0 48 48" fill="none" xmlns="http://www.w3.org/2000/svg">
<g id="Messenger icon 48 x 48">
<rect width="48" height="48" rx="24" fill="#26A5E4"/>
<path id="Vector" d="M11.4714 23.71C11.4714 23.71 22.086 19.3197 25.7673 17.7737C27.1786 17.1554 31.9643 15.1765 31.9643 15.1765C31.9643 15.1765 34.1732 14.3109 33.9891 16.4133C33.9277 17.279 33.4369 20.309 32.9461 23.5864C32.2097 28.2242 31.4121 33.2948 31.4121 33.2948C31.4121 33.2948 31.2894 34.717 30.2464 34.9644C29.2033 35.2117 27.4853 34.0987 27.1786 33.8513C26.9331 33.6658 22.5768 30.8831 20.9816 29.5227C20.5521 29.1517 20.0613 28.4097 21.0429 27.544C23.2518 25.5033 25.8901 22.9681 27.4853 21.3603C28.2216 20.6182 28.9579 18.8868 25.8901 20.9892C21.5338 24.0193 17.2389 26.8638 17.2389 26.8638C17.2389 26.8638 16.2572 27.4821 14.4165 26.9255C12.5757 26.3691 10.4283 25.627 10.4283 25.627C10.4283 25.627 8.95582 24.6995 11.4714 23.71Z" fill="white"/>
</g>
</svg>
