<svg width="48" height="48" viewBox="0 0 48 48" fill="none" xmlns="http://www.w3.org/2000/svg">
<g id="Messenger icon 48 x 48">
<rect width="48" height="48" rx="24" fill="#7360F2"/>
<path id="Vector" d="M13.0067 16.728C12.9822 15.9682 13.3993 15.4165 13.904 14.9203C14.5697 14.289 15.3031 13.7317 16.0912 13.2582C16.4506 13.0388 16.8778 12.9553 17.2945 13.0228C17.7111 13.0904 18.0891 13.3046 18.359 13.626C19.3125 14.6182 20.1659 15.7002 20.9072 16.8564C21.2742 17.3766 21.5514 17.9535 21.7274 18.5636C21.7977 18.8017 21.8022 19.0541 21.7406 19.2945C21.679 19.5349 21.5534 19.7546 21.3769 19.9307C20.9725 20.3236 20.5415 20.6888 20.087 21.0237C19.858 21.2044 19.6877 21.4477 19.5973 21.7235C19.5069 21.9993 19.5005 22.2953 19.5787 22.5747C19.8595 23.8865 20.4956 25.098 21.4189 26.0792C22.5409 27.4351 23.9864 28.4928 25.625 29.1569C26.0276 29.3618 26.489 29.4243 26.9324 29.3338C27.1752 29.2683 27.3911 29.1287 27.5493 28.9348C27.7946 28.626 28.061 28.3276 28.2818 27.998C28.5682 27.5868 29.0056 27.3026 29.5006 27.206C29.9956 27.1095 30.5091 27.2081 30.9317 27.481C32.1198 28.1634 33.2415 28.9532 34.2825 29.8404C34.5279 30.0486 34.7837 30.2499 35.0291 30.4615C35.3194 30.6807 35.5291 30.9881 35.6259 31.3366C35.7228 31.6851 35.7015 32.0554 35.5654 32.3907C35.3488 32.9547 35.0332 33.4763 34.633 33.9313C34.1358 34.6155 33.5024 35.1917 32.7718 35.6246C32.4226 35.8276 32.0302 35.9469 31.626 35.9728C31.2219 35.9987 30.8172 35.9305 30.4445 35.7738C27.6086 34.6436 24.9589 33.101 22.5826 31.1971C20.2584 29.303 18.2272 27.0819 16.5539 24.6045C15.1459 22.5536 14.0257 20.323 13.2241 17.9737C13.1387 17.6896 13.0685 17.4012 13.0138 17.1097C12.9982 16.9831 12.9958 16.8552 13.0067 16.728Z" fill="white"/>
<path id="Vector_2" d="M25.11 13.0363C27.4826 13.0797 29.7646 13.9461 31.5581 15.4844C33.3517 17.0227 34.5429 19.1354 34.9242 21.454C35.0777 22.297 35.1598 23.1513 35.1695 24.0078C35.1695 24.209 35.117 24.3548 34.8996 24.3756C34.6823 24.3964 34.6262 24.2125 34.6262 24.0286C34.6588 22.296 34.2995 20.5782 33.5747 19.0009C32.9643 17.7048 32.0601 16.5656 30.9324 15.6719C29.8047 14.7782 28.4839 14.1541 27.0728 13.8482C26.3268 13.6772 25.5638 13.5888 24.798 13.5845C24.7235 13.5858 24.6491 13.5764 24.5772 13.5567C24.516 13.5397 24.4639 13.4997 24.4319 13.4453C24.3998 13.391 24.3904 13.3264 24.4055 13.2653C24.4059 13.2363 24.4122 13.2076 24.4239 13.1811C24.4357 13.1545 24.4526 13.1305 24.4738 13.1105C24.495 13.0904 24.5201 13.0748 24.5474 13.0644C24.5748 13.0541 24.604 13.0492 24.6333 13.0501C24.791 13.0293 24.9523 13.0363 25.11 13.0363Z" fill="white"/>
<path id="Vector_3" d="M31.8722 22.4463C31.8605 21.4823 31.6207 20.5345 31.1721 19.6788C30.7234 18.8232 30.0785 18.0835 29.289 17.5192C28.3676 16.8784 27.2963 16.4807 26.1765 16.3637C25.9872 16.3394 25.7979 16.329 25.6052 16.3082C25.4124 16.2874 25.2967 16.2076 25.3142 16.0133C25.3318 15.8189 25.4544 15.7496 25.6648 15.7634C28.7702 15.9508 31.4131 17.6892 32.2262 20.9265C32.375 21.5507 32.4491 22.1901 32.4471 22.8314C32.4471 22.8904 32.4471 22.9494 32.4471 23.0049C32.4471 23.1784 32.3349 23.2929 32.1632 23.2894C32.1251 23.2882 32.0876 23.2792 32.0532 23.2632C32.0187 23.2471 31.9879 23.2242 31.9626 23.196C31.9373 23.1677 31.9182 23.1347 31.9062 23.0988C31.8943 23.063 31.8899 23.0251 31.8933 22.9876C31.8652 22.8245 31.8722 22.6579 31.8722 22.4463Z" fill="white"/>
<path id="Vector_4" d="M26.4332 18.5808C28.1367 18.6953 29.3249 19.5211 29.6509 21.315C29.6904 21.5448 29.7185 21.7764 29.735 22.0089C29.735 22.1963 29.6929 22.3559 29.4861 22.3559C29.2793 22.3559 29.2092 22.2171 29.2022 22.0089C29.2003 21.3213 28.9863 20.6506 28.5888 20.0867C28.1712 19.5759 27.5715 19.243 26.9134 19.1568C26.7663 19.1295 26.6176 19.111 26.4683 19.1012C26.2229 19.1012 26.0862 18.9798 26.1178 18.7924C26.1493 18.6051 26.2965 18.5704 26.4332 18.5808Z" fill="white"/>
</g>
</svg>
