<svg width="48" height="48" viewBox="0 0 48 48" fill="none" xmlns="http://www.w3.org/2000/svg">
<g id="Messenger icon 48 x 48">
<rect width="48" height="48" rx="24" fill="#2787F5"/>
<path id="path4" fill-rule="evenodd" clip-rule="evenodd" d="M35.4493 17.948C35.6161 17.4015 35.4493 17 34.6553 17H32.0297C31.3621 17 31.0543 17.3469 30.8874 17.7294C30.8874 17.7294 29.5521 20.9261 27.6606 23.0025C27.0487 23.6036 26.7705 23.7949 26.4367 23.7949C26.2698 23.7949 26.0282 23.6036 26.0282 23.0572V17.948C26.0282 17.2922 25.8345 17 25.2781 17H21.1521C20.7349 17 20.484 17.3043 20.484 17.5928C20.484 18.2144 21.4297 18.3578 21.5272 20.1064V23.9042C21.5272 24.7368 21.3741 24.8878 21.0403 24.8878C20.1502 24.8878 17.9851 21.6768 16.7009 18.0026C16.4493 17.2885 16.1969 17 15.5258 17H12.9002C12.15 17 12 17.3469 12 17.7294C12 18.4124 12.8901 21.8004 16.1446 26.2812C18.3143 29.3412 21.3712 31 24.1528 31C25.8218 31 26.0283 30.6316 26.0283 29.997V27.6842C26.0283 26.9474 26.1864 26.8003 26.7149 26.8003C27.1043 26.8003 27.7719 26.9916 29.3296 28.467C31.1099 30.2156 31.4034 31 32.4047 31H35.0304C35.7805 31 36.1556 30.6316 35.9392 29.9045C35.7024 29.1799 34.8525 28.1286 33.7247 26.8823C33.1127 26.1719 32.1947 25.4069 31.9165 25.0243C31.5271 24.5326 31.6384 24.314 31.9165 23.8769C31.9165 23.8769 35.1155 19.4507 35.4493 17.948Z" fill="white"/>
</g>
</svg>
