<svg width="72" height="89" viewBox="0 0 72 89" fill="none" xmlns="http://www.w3.org/2000/svg">
<g clip-path="url(#clip0_16_367)">
<path d="M64.4987 87.3381C66.9378 87.187 69.1157 85.9216 70.3933 83.8914C71.671 81.8611 71.6419 79.3776 70.5675 77.2624C69.4931 75.1472 67.2379 73.6835 64.8375 73.5041C62.7661 73.3436 60.5302 74.3351 59.2042 75.8743C57.5974 77.744 57.0941 80.1803 58.2266 82.4088C59.0106 83.9669 60.8109 85.1945 62.5435 85.4967C64.7891 85.8933 67.0734 85.2606 68.3704 83.3248C69.5028 81.644 69.2802 79.321 68.2058 77.6685C66.7927 75.4966 64.1793 74.3823 61.6917 75.4966C60.4722 76.0443 59.6591 77.338 59.4849 78.6033C59.2623 80.2369 60.1237 81.8234 61.8369 82.2672C63.0565 82.5788 64.5181 81.8706 64.8181 80.6147C65.1182 79.3588 64.4406 78.0462 63.1243 77.7062C62.7952 77.6212 63.4727 77.8668 63.4533 77.8573C63.4243 77.8384 63.9663 78.3011 63.7631 78.084C63.9276 78.2539 64.0535 78.4333 64.1406 78.6505C64.3535 79.1605 64.1696 78.4617 64.2374 79.0188C64.3245 79.6893 64.2374 78.981 64.2664 78.9999C64.3148 79.0188 64.1115 79.6515 64.2277 79.3588C64.247 79.3021 64.2761 79.236 64.2858 79.1793C64.1502 79.8026 64.0535 79.6515 64.1599 79.4815C64.1696 79.4626 64.2664 79.3115 64.2664 79.321C64.2858 79.3588 63.8212 79.7837 64.0728 79.5759C64.1019 79.5476 64.1502 79.5098 64.1793 79.4721C64.2954 79.3304 63.6663 79.8876 64.0438 79.6043C63.5792 79.9442 63.5405 79.7837 63.7534 79.7365C63.8695 79.7176 64.189 79.6609 63.7244 79.7176C63.2598 79.7742 63.6663 79.7459 63.7921 79.7365C64.1599 79.727 63.1436 79.5854 63.5792 79.7081C63.6856 79.7365 64.1599 79.9064 63.705 79.7176C63.2501 79.5287 63.6953 79.727 63.8018 79.7931C64.2664 80.0764 63.6469 79.7365 63.676 79.6798C63.676 79.6798 63.947 79.9348 63.9663 79.9537C64.0438 80.0292 64.3341 80.388 64.0438 80.0198C63.7534 79.6515 64.0825 80.1047 64.1406 80.1992C64.1986 80.2936 64.3825 80.7091 64.1986 80.2842C64.0147 79.8592 64.189 80.2747 64.218 80.3786C64.247 80.4825 64.2761 80.6052 64.3051 80.7185C64.4213 81.1529 64.2664 80.0764 64.2858 80.6336C64.2858 80.7469 64.2761 80.8602 64.2761 80.9735C64.2761 81.2473 64.4116 80.3786 64.3148 80.6336C64.2954 80.6808 64.2954 80.728 64.2761 80.7752C64.2761 80.7658 64.218 80.9546 64.218 80.9641C64.1986 80.9452 64.5181 80.388 64.3438 80.6713C64.3148 80.7091 64.2954 80.7563 64.2664 80.8035C64.0825 81.2001 64.4019 80.5769 64.4406 80.6147C64.4503 80.6336 64.2277 80.8413 64.189 80.8696C64.1212 80.9452 63.9083 81.0963 64.2374 80.8413C64.5664 80.5863 64.3729 80.7469 64.2761 80.7941C64.218 80.8224 63.9954 80.9074 63.976 80.9546C63.976 80.9357 64.5955 80.7374 64.2858 80.8224C64.2277 80.8413 64.1599 80.8602 64.1018 80.8791C63.8502 80.9452 63.4727 80.9168 64.2664 80.8791C64.1502 80.8791 64.0341 80.898 63.9179 80.898C63.8018 80.898 63.6856 80.898 63.5695 80.8885C63.2307 80.8885 63.8986 80.9263 63.9179 80.9357C63.8695 80.898 63.7244 80.898 63.6663 80.8885C63.5501 80.8602 63.434 80.8319 63.3178 80.8035C63.2017 80.7752 62.7952 80.6052 63.221 80.7846C63.6469 80.9641 63.2404 80.7846 63.1436 80.7374C63.0081 80.6619 62.8823 80.5863 62.7468 80.5014C62.3306 80.2464 63.1243 80.8413 62.8726 80.5958C62.7758 80.5014 62.6693 80.4164 62.5822 80.3219C62.5532 80.2842 62.5145 80.2464 62.4854 80.2086C62.2822 80.0292 62.8145 80.6808 62.679 80.4541C62.6113 80.3408 62.5241 80.2369 62.4661 80.1236C62.437 80.067 62.408 80.0103 62.379 79.9537C62.2434 79.7176 62.5629 80.5108 62.5048 80.2464C62.4757 80.1331 62.4274 80.0292 62.408 79.9159C62.408 79.8876 62.3693 79.7176 62.3693 79.7176C62.408 79.7176 62.3983 80.2842 62.4274 80.067C62.437 79.9537 62.3596 79.6326 62.437 79.5287C62.4757 79.4815 62.3112 80.1142 62.3983 79.8687C62.4274 79.7931 62.4274 79.7176 62.4467 79.642C62.4854 79.5098 62.5435 79.3871 62.5725 79.2549C62.4661 79.7648 62.3693 79.6798 62.4757 79.5004C62.5145 79.4343 62.5532 79.3588 62.5919 79.2927C62.6597 79.1699 62.7468 78.981 62.8532 78.8961C62.8532 78.8961 62.437 79.3682 62.708 79.0944C62.7468 79.0471 62.7855 79.0094 62.8339 78.9622C62.9307 78.8583 63.0371 78.7638 63.1436 78.6694C63.192 78.6316 63.2694 78.5467 63.3372 78.5183C63.3275 78.5183 62.8145 78.8677 63.1436 78.6694C63.2888 78.5844 63.4243 78.49 63.5695 78.4145C63.7824 78.3011 64.2374 78.2067 63.5501 78.3956C63.6856 78.3578 63.8212 78.3011 63.9567 78.2634C64.0922 78.2256 64.2374 78.1973 64.3729 78.1689C64.5955 78.1217 64.5955 78.2539 64.0922 78.2067C64.1696 78.2067 64.2567 78.1973 64.3342 78.1878C64.4406 78.1878 64.7407 78.1406 64.8278 78.1973C64.8375 78.1973 64.1599 78.0745 64.5471 78.1595C64.6052 78.1784 64.6729 78.1878 64.731 78.1973C64.8859 78.235 65.0214 78.2823 65.1762 78.3295C65.544 78.4428 64.9827 78.2634 64.9633 78.235C65.0311 78.3011 65.1762 78.3389 65.2537 78.3861C65.3892 78.4617 65.515 78.5467 65.6408 78.6222C65.8441 78.7544 65.6796 78.7922 65.4666 78.49C65.5053 78.5467 65.6215 78.6222 65.6602 78.66C65.7763 78.7638 65.8828 78.8677 65.9796 78.981C66.3281 79.3588 65.7183 78.5939 66.0086 79.0094C66.1248 79.1699 66.2216 79.3304 66.3184 79.5004C66.3474 79.5571 66.3765 79.6137 66.4055 79.6704C66.541 79.9159 66.2216 79.1416 66.3377 79.5193C66.3958 79.6987 66.4636 79.8781 66.5023 80.067C66.5216 80.1331 66.5313 80.1897 66.541 80.2558C66.6378 80.6997 66.512 79.812 66.512 80.0764C66.512 80.2653 66.5216 80.4636 66.512 80.6524C66.512 80.7374 66.4732 80.9829 66.5313 80.5958C66.5991 80.1708 66.5313 80.558 66.512 80.6524C66.4732 80.8413 66.4055 81.0113 66.3571 81.1907C66.2893 81.4268 66.4926 80.898 66.4829 80.9168C66.4345 81.0113 66.3958 81.1057 66.3474 81.2001C66.2603 81.3701 66.1538 81.5212 66.0474 81.6817C65.999 81.7478 65.8538 81.9367 66.0861 81.644C66.3474 81.3229 66.0861 81.6251 66.028 81.7006C65.9119 81.8234 65.7957 81.9461 65.6602 82.0594C65.6118 82.1067 65.5053 82.1633 65.4666 82.22C65.757 81.8517 65.8054 81.9745 65.5924 82.1161C65.4279 82.22 65.2634 82.3238 65.0988 82.4088C65.0407 82.4372 64.9827 82.4655 64.9246 82.4938C64.6729 82.626 65.4763 82.3144 65.0891 82.4277C64.9246 82.4749 64.76 82.5316 64.5955 82.5694C64.5568 82.5694 64.3922 82.626 64.3438 82.6166L64.731 82.5694C64.6439 82.5694 64.5568 82.5882 64.4697 82.5882C63.2114 82.6638 61.9918 83.6175 62.0499 84.949C62.1079 86.1671 63.1146 87.3947 64.4697 87.3097L64.4987 87.3381Z" fill="#D9D9D9"/>
<path d="M38.7521 86.7431C40.8428 86.3937 42.7593 85.3833 44.3563 84.0519C45.1694 83.372 45.8663 82.5505 46.4471 81.6911C46.9697 80.9263 47.3956 80.0575 47.0665 79.1132C46.8826 78.5844 46.6406 78.0462 46.3019 77.5835C44.9952 75.7798 42.827 74.4484 40.4944 74.5711C39.149 74.6372 37.9875 75.0905 36.9615 75.9215C36.1484 76.5825 35.6257 77.4701 35.2482 78.4144C34.4836 80.303 34.8998 82.6921 36.4097 84.118C38.0842 85.6855 40.4944 85.7705 42.5173 84.864C43.4078 84.4674 44.1918 83.7592 44.6951 82.9376C44.9274 82.5599 45.121 82.1066 45.2081 81.6723C45.2759 81.3417 45.3339 80.9924 45.3243 80.6524C45.3243 79.8687 44.9274 79.3021 44.4338 78.7449C42.6722 76.7619 39.3716 76.4503 37.3486 78.2067C35.2192 80.0481 35.4322 83.9197 38.0552 85.2417C39.6329 86.0349 41.3848 85.6572 42.7206 84.609C43.8724 83.7025 44.4725 82.0311 43.9692 80.643C43.7562 80.0575 43.4175 79.557 42.8561 79.236C42.3334 78.9432 41.5687 78.811 40.988 78.9999C39.8071 79.3682 38.8489 80.6524 39.2941 81.9083C39.3232 81.9933 39.3425 82.0689 39.3619 82.1538L39.2748 81.5306C39.2845 81.6439 39.2941 81.7478 39.2748 81.8517L39.3619 81.2284C39.3425 81.3606 39.3038 81.4928 39.2554 81.6156L39.4974 81.049C39.4393 81.1718 39.3619 81.2945 39.2748 81.3984L39.6523 80.9168C39.5361 81.049 39.42 81.1623 39.2748 81.2756L39.7684 80.9074C39.6232 81.0112 39.4684 81.0962 39.3038 81.1623L39.8846 80.9263C39.7491 80.9735 39.6039 81.0112 39.4587 81.0396L40.0975 80.9546C39.9523 80.9735 39.8168 80.9735 39.6716 80.964L40.3105 81.049C40.1653 81.0301 40.0298 80.9924 39.8943 80.9357L40.475 81.1718C40.3685 81.1246 40.2717 81.0585 40.1749 80.9924L40.6686 81.3606C40.5621 81.2662 40.4653 81.1718 40.3782 81.0679L40.7557 81.5495C40.6783 81.4362 40.6105 81.3229 40.5524 81.1907L40.7944 81.7572C40.7267 81.5967 40.6879 81.4456 40.6589 81.2756L40.746 81.8989C40.717 81.6723 40.717 81.4456 40.746 81.219L40.6589 81.8422C40.6976 81.6439 40.746 81.4551 40.8235 81.2662L40.5815 81.8328C40.6492 81.6723 40.7363 81.5306 40.8428 81.389L40.4653 81.8706C40.5718 81.7384 40.6976 81.6156 40.8331 81.5117L40.3395 81.88C40.4653 81.7856 40.6008 81.71 40.746 81.6439L40.1653 81.88C40.3782 81.795 40.6008 81.7384 40.8331 81.71L40.1943 81.795C40.4266 81.7761 40.6589 81.7761 40.8912 81.8139L40.2524 81.7289C40.4847 81.7667 40.7073 81.8328 40.9299 81.9178L40.3492 81.6817C40.6008 81.7856 40.8331 81.9178 41.0558 82.0783L40.5621 81.71C40.746 81.8611 40.9106 82.0122 41.0654 82.2011L40.6879 81.7195C40.7267 81.7761 40.7654 81.8233 40.8041 81.88L40.475 80.6902C40.475 80.7941 40.475 80.8979 40.4556 81.0018L40.5428 80.3786C40.5137 80.558 40.4653 80.7185 40.3976 80.8885L40.6395 80.3219C40.5524 80.5108 40.446 80.6713 40.3201 80.8318L40.6976 80.3502C40.5621 80.5108 40.4169 80.6524 40.2524 80.7752L40.746 80.4069C40.5137 80.5863 40.2621 80.728 39.9814 80.8413L40.5621 80.6052C40.2814 80.7185 40.0007 80.7941 39.7007 80.8318L40.3395 80.7468C40.0685 80.7752 39.7975 80.7846 39.5361 80.7468L40.1749 80.8318C39.933 80.8035 39.7103 80.7468 39.478 80.6619L40.0588 80.8979C39.8652 80.8129 39.6813 80.7185 39.5071 80.5863L40.0007 80.9546C39.8459 80.8318 39.7103 80.6996 39.5845 80.5485L39.962 81.0301C39.8168 80.8507 39.7103 80.6619 39.6136 80.4541L39.8555 81.0207C39.7587 80.7846 39.691 80.5485 39.6523 80.2936L39.7394 80.9168C39.7007 80.6052 39.7007 80.2936 39.7394 79.982L39.6523 80.6052C39.7007 80.2558 39.7975 79.9253 39.9426 79.6042L39.7007 80.1708C39.8362 79.8781 40.0007 79.6042 40.204 79.3493L39.8265 79.8309C39.991 79.6326 40.1749 79.4437 40.3879 79.2832L39.8943 79.6515C40.1072 79.4909 40.3298 79.3587 40.5718 79.2549L39.991 79.4909C40.2621 79.3776 40.5428 79.3021 40.8428 79.2643L40.204 79.3493C40.5331 79.3115 40.8622 79.3115 41.1913 79.3493L40.5524 79.2643C40.9202 79.321 41.2687 79.4154 41.6171 79.5476L41.0364 79.3115C41.4139 79.472 41.7623 79.6703 42.0817 79.9159L41.5881 79.5476C41.8785 79.7742 42.1495 80.0292 42.3818 80.3219L42.0043 79.8403C42.2366 80.1331 42.4205 80.4447 42.5754 80.7752L42.3334 80.2086C42.3721 80.303 42.4108 80.3975 42.4399 80.4919L42.6819 78.6694C42.4496 79.0849 42.1785 79.4909 41.8785 79.8686L42.256 79.3871C41.772 79.9914 41.2106 80.5391 40.5912 81.0207L41.0848 80.6524C40.4266 81.1435 39.7103 81.5589 38.9554 81.8706L39.5361 81.6345C38.8779 81.8989 38.1907 82.0972 37.4841 82.2199C36.9227 82.3144 36.313 82.8432 36.0419 83.3059C35.7419 83.8158 35.6064 84.5618 35.8 85.1284C35.9935 85.695 36.3517 86.2521 36.9131 86.5354C37.5229 86.847 38.1036 86.8848 38.7811 86.7715L38.7521 86.7431Z" fill="#D9D9D9"/>
<path d="M13.8085 88.9717C14.3602 89.0378 14.9313 88.9717 15.4636 88.8584C15.996 88.7451 16.5187 88.5373 16.9833 88.2824C17.9512 87.7819 18.7449 86.9792 19.345 86.0916C19.9451 85.204 20.2548 84.1369 20.3226 83.0699C20.3516 82.5411 20.2839 81.9745 20.1387 81.4645C19.9451 80.7658 19.5676 80.1897 19.074 79.6515C18.4061 78.9244 17.3704 78.3767 16.3928 78.169C15.3668 77.9518 14.215 77.9329 13.2181 78.3106C12.0663 78.745 11.0209 79.4626 10.4402 80.5675C10.2079 81.0113 9.99491 81.5023 9.91747 82.0028C9.8594 82.3427 9.80132 82.6921 9.80132 83.0415C9.80132 83.3909 9.8594 83.7592 9.91747 84.118C10.0627 85.1284 10.5853 86.0444 11.2629 86.8093C12.0179 87.6686 13.131 88.1879 14.2634 88.339C15.3959 88.4901 16.6155 88.2635 17.6705 87.7064C18.5803 87.2248 19.4708 86.3938 19.9161 85.4778C20.2742 84.7413 20.5549 83.9575 20.4387 83.136C20.3032 82.1539 19.5966 81.4834 18.8126 80.9452C18.0286 80.4069 17.022 80.1803 16.1121 80.1897C14.1666 80.2086 12.3276 81.1907 11.2532 82.7677C11.0015 83.1454 10.808 83.5892 10.6918 84.0236C10.5757 84.458 10.5079 84.949 10.5466 85.4023C10.5853 85.8555 10.6337 86.3088 10.8951 86.7054C11.1564 87.102 11.4565 87.3475 11.834 87.6119C12.1146 87.8008 12.4534 87.933 12.7728 88.0369C13.0922 88.1407 13.4407 88.1785 13.7698 88.2068C13.9247 88.2257 14.0698 88.2163 14.215 88.2068C14.9506 88.1218 15.512 87.9896 16.1799 87.6403C16.6058 87.4136 17.022 87.102 17.3511 86.7526C18.1351 85.9311 18.7158 84.8168 18.6674 83.6648C18.6384 82.9849 18.4739 82.3711 18.1254 81.7762C17.8254 81.2662 17.264 80.8508 16.6832 80.6902C16.1025 80.5297 15.3281 80.6052 14.8151 80.9263C13.7117 81.6251 13.2761 83.0132 13.944 84.1558C13.9827 84.2219 14.0214 84.2974 14.0505 84.3635L13.8085 83.797C13.8569 83.9197 13.8859 84.0425 13.9053 84.1747L13.8182 83.5515C13.8279 83.6837 13.8279 83.8064 13.8182 83.9292L13.9053 83.3059C13.8763 83.4759 13.8375 83.627 13.7698 83.7875L14.0118 83.2209C13.9343 83.4004 13.8279 83.5609 13.7117 83.712L14.0892 83.2304C13.9537 83.4004 13.7988 83.5514 13.6246 83.6837L14.1182 83.3154C13.944 83.4476 13.7601 83.5514 13.5568 83.6459L14.1376 83.4098C13.9537 83.4853 13.7795 83.5326 13.5859 83.5703L14.2247 83.4853C14.0698 83.5042 13.9246 83.5042 13.7795 83.4853L14.4183 83.5703C14.2828 83.5514 14.1666 83.5231 14.0408 83.4759L14.6216 83.712C14.4957 83.6553 14.3796 83.5892 14.2634 83.5137L14.7571 83.882L14.7087 83.8442L15.3281 84.8829L15.3281 84.8263L15.4056 85.4495C15.3862 85.2701 15.3765 85.0907 15.4056 84.9018L15.3185 85.525C15.3475 85.3362 15.3959 85.1473 15.4733 84.9679L15.2313 85.5345C15.3185 85.3362 15.4249 85.1568 15.5604 84.9868L15.1829 85.4684C15.3475 85.2701 15.5314 85.0906 15.7347 84.9396L15.241 85.3078C15.483 85.1284 15.7443 84.9773 16.025 84.864L15.4443 85.1001C15.7443 84.9773 16.0541 84.8924 16.3735 84.8546L15.7347 84.9396C15.996 84.9112 16.2477 84.9018 16.509 84.9396L15.8702 84.8546C16.1025 84.8829 16.3251 84.9396 16.5477 85.034L15.967 84.7979C16.1315 84.8735 16.2864 84.9585 16.4316 85.0623L15.9379 84.694C16.0831 84.8074 16.2186 84.9396 16.3348 85.0812L15.9573 84.5996L15.996 84.6468L15.6669 83.457C15.6669 83.457 15.6669 83.5514 15.6475 83.5892L15.7347 82.966C15.7056 83.1643 15.6475 83.3626 15.5701 83.5515L15.8121 82.9849C15.7153 83.2115 15.5895 83.4192 15.4346 83.6176L15.8121 83.136C15.6379 83.3531 15.4443 83.542 15.2217 83.712L15.7153 83.3437C15.4733 83.5231 15.212 83.6742 14.9313 83.7875L15.512 83.5515C15.2507 83.6553 14.9894 83.7214 14.7087 83.7592L15.3475 83.6742C15.0958 83.7025 14.8442 83.7025 14.5925 83.6742L15.2313 83.7592C14.999 83.7214 14.7861 83.6648 14.5635 83.5798L15.1442 83.8159C14.9603 83.7403 14.7958 83.6364 14.6409 83.5231L15.1345 83.8914C14.941 83.7497 14.7764 83.5892 14.6312 83.4098L15.0087 83.8914C14.8345 83.6742 14.699 83.4381 14.5828 83.1832L14.8248 83.7498C14.7087 83.4665 14.6312 83.1832 14.5925 82.8904L14.6796 83.5137C14.6506 83.2398 14.6506 82.966 14.6796 82.6827L14.5925 83.3059C14.6312 83.051 14.699 82.8149 14.7958 82.5788L14.5538 83.1454C14.6409 82.9471 14.7474 82.7677 14.8829 82.5977L14.5054 83.0793C14.6409 82.9093 14.7958 82.7582 14.97 82.626L14.4764 82.9943C14.6506 82.8716 14.8442 82.7582 15.0378 82.6733L14.457 82.9093C14.7183 82.8055 14.999 82.7299 15.2797 82.6921L14.6409 82.7771C14.9313 82.7488 15.212 82.7488 15.5024 82.7771L14.8635 82.6921C15.1539 82.7299 15.4249 82.8055 15.6959 82.9093L15.1152 82.6733C15.3572 82.7771 15.5895 82.8999 15.7927 83.051L15.2991 82.6827C15.4733 82.8149 15.6282 82.966 15.7637 83.1265L15.3862 82.6449C15.4636 82.7488 15.5411 82.8527 15.6088 82.966L15.3668 82.3994C15.4636 82.6355 15.5217 82.881 15.5604 83.1265L15.4733 82.5033C15.5024 82.7771 15.5024 83.0415 15.4733 83.3154L15.5604 82.6921C15.512 83.0132 15.4249 83.3154 15.2991 83.6081L15.5411 83.0415C15.3862 83.3815 15.2023 83.7025 14.97 83.9953L15.3475 83.5137C15.1249 83.7875 14.8732 84.033 14.5925 84.2408L15.0862 83.8725C14.8248 84.0614 14.5441 84.2313 14.2441 84.3541L14.8248 84.118C14.5635 84.2219 14.3021 84.2974 14.0214 84.3352L14.6603 84.2502C14.3796 84.288 14.0989 84.288 13.8182 84.2502C13.2471 84.1747 12.4921 84.5618 12.105 84.9396C11.6888 85.3456 11.3693 86.0255 11.3984 86.611C11.4274 87.1964 11.6307 87.8574 12.105 88.2824L12.5986 88.6506C12.9761 88.8678 13.3826 88.9717 13.8182 88.9717L13.8085 88.9717Z" fill="#D9D9D9"/>
<path d="M62.8824 60.1895C64.1697 60.1045 65.5248 60.0289 66.7541 59.6135C68.2446 59.113 69.4545 58.3009 70.345 57.0261C71.1581 55.8552 71.4194 54.3632 71.1097 52.9939C70.7322 51.3414 69.3287 50.2366 67.7994 49.6322C65.6022 48.7635 62.6791 49.4339 61.1014 51.1526C60.1722 52.1629 59.5915 53.4378 59.6399 54.8164C59.6883 56.1951 60.2303 57.4321 61.1208 58.4897C62.0113 59.5474 63.3083 60.095 64.673 60.2272C66.0378 60.3594 67.2961 59.7645 68.264 58.9052C69.0674 58.197 69.6965 57.1111 69.8804 56.0629C70.1321 54.5709 69.8127 53.1733 68.7673 52.0307C67.9543 51.1431 66.6089 50.671 65.4086 50.7276C64.1116 50.7937 62.9695 51.2564 61.9919 52.078C61.0821 52.8428 60.4819 54.146 60.5884 55.3169C60.7239 56.8278 61.4789 57.9987 62.7372 58.858C63.6761 59.4907 64.9828 59.7834 66.1055 59.7551C67.3058 59.7268 68.5447 59.3963 69.532 58.7069C70.9064 57.7437 71.9227 56.3745 72.0002 54.6559C72.0776 52.9373 70.9451 51.3509 69.3868 50.7087C68.5641 50.3688 67.6736 50.2649 66.8024 50.5293C65.5926 50.8976 64.7021 52.1913 65.1086 53.4378C65.5151 54.6842 66.7928 55.4869 68.0898 55.0903C68.1866 55.0619 68.2737 55.0431 68.3705 55.0242L67.7316 55.1092C67.8284 55.1092 67.9156 55.1092 68.0123 55.1092L67.3735 55.0242C67.5284 55.0431 67.6736 55.0903 67.8188 55.1469L67.238 54.9109C67.3542 54.9675 67.4606 55.0336 67.5671 55.0997L67.0735 54.7314C67.1993 54.8353 67.3154 54.9392 67.4219 55.0714L67.0444 54.5898C67.1703 54.7503 67.267 54.9109 67.3445 55.0903L67.1025 54.5237C67.1606 54.6748 67.1993 54.8259 67.2283 54.9958L67.1412 54.3726C67.1509 54.5048 67.1509 54.6276 67.1412 54.7598L67.2283 54.1365C67.1993 54.3348 67.1509 54.5331 67.0735 54.722L67.3154 54.1554C67.2187 54.3726 67.1025 54.5709 66.9573 54.7692L67.3348 54.2876C67.1315 54.5331 66.9089 54.7503 66.6573 54.9392L67.1509 54.5709C66.8702 54.7787 66.5701 54.9486 66.2411 55.0808L66.8218 54.8448C66.5218 54.9675 66.2023 55.0431 65.8829 55.0903L66.5218 55.0053C66.1636 55.0431 65.8055 55.0431 65.4474 55.0053L66.0862 55.0903C65.7377 55.0431 65.399 54.9581 65.0796 54.8259L65.6603 55.0619C65.428 54.9581 65.2151 54.8353 65.0215 54.6937L65.5151 55.0619C65.3699 54.9486 65.2344 54.8164 65.1183 54.6748L65.4958 55.1564C65.3796 55.0053 65.2925 54.8542 65.2151 54.6842L65.457 55.2508C65.399 55.0997 65.3506 54.9392 65.3215 54.7787L65.4086 55.4019C65.3893 55.2508 65.3893 55.1092 65.4086 54.9581L65.3215 55.5813C65.3409 55.4113 65.3893 55.2602 65.457 55.1092L65.2151 55.6757C65.2828 55.5246 65.3699 55.3924 65.4764 55.2602L65.0989 55.7418C65.2247 55.5907 65.3603 55.4585 65.5248 55.3452L65.0312 55.7135C65.2151 55.5813 65.4086 55.468 65.6216 55.3736L65.0408 55.6096C65.2828 55.5152 65.5248 55.4397 65.7765 55.4019L65.1376 55.4869C65.3893 55.4585 65.6409 55.4491 65.8926 55.4869L65.2538 55.4019C65.428 55.4302 65.5926 55.468 65.7474 55.5341L65.1667 55.298C65.3312 55.3641 65.4764 55.4491 65.6119 55.553L65.1183 55.1847C65.2441 55.2791 65.3409 55.3924 65.4474 55.5152L65.0699 55.0336C65.1667 55.1658 65.2441 55.298 65.3119 55.4491L65.0699 54.8825C65.1376 55.0525 65.186 55.2225 65.2151 55.4113L65.1279 54.7881C65.157 54.9958 65.157 55.2036 65.1279 55.4208L65.2151 54.7975C65.1763 55.0714 65.0989 55.3263 64.9924 55.5719L65.2344 55.0053C65.1279 55.2319 65.0021 55.4397 64.8569 55.6474L65.2344 55.1658C65.0602 55.383 64.8666 55.5719 64.644 55.7418L65.1376 55.3736C64.9537 55.5058 64.7698 55.6096 64.5666 55.6946L65.1473 55.4585C64.9634 55.5246 64.7795 55.5719 64.5956 55.6096L65.2344 55.5246C65.0312 55.5435 64.8279 55.5435 64.6246 55.5246L65.2635 55.6096C65.0215 55.5719 64.7989 55.5152 64.5859 55.4208L65.1667 55.6568C64.9537 55.5624 64.7505 55.4397 64.5666 55.298L65.0602 55.6663C64.8473 55.4963 64.6633 55.3169 64.4988 55.0997L64.8763 55.5813C64.6924 55.3452 64.5472 55.0903 64.4214 54.8164L64.6633 55.383C64.5472 55.1092 64.4698 54.8259 64.4214 54.5237L64.5085 55.1469C64.4794 54.8825 64.4794 54.6181 64.5085 54.3537L64.4214 54.977C64.4601 54.7409 64.5182 54.5143 64.615 54.2971L64.373 54.8636C64.4698 54.6465 64.5956 54.4387 64.7408 54.2404L64.3633 54.722C64.5472 54.4859 64.7601 54.2782 65.0021 54.0988L64.5085 54.467C64.7601 54.2876 65.0215 54.1365 65.3022 54.0138L64.7214 54.2498C65.0699 54.1082 65.428 54.0138 65.7958 53.9571L65.157 54.0421C65.4958 54.0043 65.8345 53.9949 66.183 54.0421L65.5442 53.9571C65.8829 54.0043 66.212 54.0893 66.5314 54.2121L65.9507 53.976C66.212 54.0893 66.4637 54.231 66.696 54.4009L66.2023 54.0327C66.3766 54.1743 66.5411 54.3254 66.6766 54.4954L66.2991 54.0138C66.4056 54.1554 66.4927 54.2876 66.5701 54.4482L66.3282 53.8816C66.4153 54.0893 66.4734 54.2876 66.5024 54.5048L66.4153 53.8816C66.4346 54.0988 66.4346 54.3159 66.4056 54.5331L66.4927 53.9099C66.454 54.1649 66.3766 54.4104 66.2798 54.6465L66.5218 54.0799C66.3959 54.3537 66.2507 54.5992 66.0668 54.8448L66.4443 54.3632C66.2604 54.5992 66.0475 54.807 65.8152 54.9958L66.3088 54.6276C65.9991 54.8542 65.67 55.0336 65.3119 55.1941L65.8926 54.9581C65.2441 55.2225 64.5666 55.3641 63.8793 55.4585L64.5182 55.3736C63.9858 55.4397 63.4438 55.4774 62.9114 55.5152C62.2629 55.553 61.6628 55.7513 61.1982 56.2045C60.782 56.6106 60.4626 57.2905 60.4916 57.8759C60.5497 59.0846 61.5563 60.3217 62.9114 60.2367L62.8824 60.1895Z" fill="#D9D9D9"/>
<path d="M41.9462 60.7561C42.585 60.5389 43.2142 60.2745 43.7659 59.8779C44.4918 59.3491 45.0339 58.8297 45.5662 58.1121C45.9534 57.6021 46.2244 56.9978 46.4277 56.3934C46.6309 55.7891 46.7277 55.0809 46.66 54.4293C46.5825 53.6455 46.418 52.8995 45.9824 52.2196C45.5759 51.5775 45.0726 51.1148 44.4434 50.6899C43.9885 50.3783 43.4465 50.1611 42.9141 50.0194C42.3818 49.8778 41.8107 49.7928 41.259 49.8306C39.7297 49.9156 38.4327 50.5293 37.5422 51.7475C36.7194 52.8712 36.7678 54.5237 37.1453 55.808C37.5519 57.1866 38.4133 58.3859 39.6522 59.1697C40.3588 59.6229 41.1912 59.8401 42.0333 59.8968C42.8754 59.9534 43.6304 59.6985 44.3563 59.368C44.908 59.113 45.4404 58.7164 45.8372 58.2631C46.3405 57.6871 46.8051 57.0072 46.96 56.2518C47.0374 55.893 47.1052 55.5152 47.0762 55.147C47.0278 54.5143 46.8923 54.0516 46.6212 53.4756C46.2534 52.6918 45.5178 52.0213 44.7628 51.5964C42.4302 50.2649 39.2941 51.0582 37.639 53.0601C37.1163 53.6927 36.7678 54.2593 36.4871 55.0242C36.4097 55.2225 36.3613 55.4208 36.3323 55.6286C36.2742 56.0157 36.1968 56.4218 36.2355 56.8184C36.342 58.0932 36.8453 59.368 37.8713 60.2178C38.7037 60.9166 39.6909 61.436 40.7944 61.5871C41.3751 61.6721 41.9075 61.7382 42.4882 61.6721C43.3013 61.5776 43.9014 61.4265 44.6467 61.1055C45.6049 60.69 46.4954 59.8684 46.96 58.9525C47.715 57.451 47.2891 55.7796 46.1954 54.5709C44.7241 52.9373 41.8204 52.3707 39.9136 53.5889C39.3328 53.9571 38.8198 54.4576 38.5004 55.062C38.21 55.6286 38.0745 56.2518 38.2584 56.8845C38.4133 57.4322 38.8489 58.0271 39.3715 58.2915C40.475 58.858 42.072 58.622 42.6818 57.4416C42.7399 57.3377 42.798 57.2433 42.8657 57.1489L42.4882 57.6305C42.585 57.5171 42.6818 57.4133 42.8076 57.3283L42.314 57.6966C42.4302 57.6116 42.556 57.5455 42.6915 57.4888L42.1107 57.7249C42.285 57.6588 42.4592 57.6116 42.6431 57.5927L42.0043 57.6777C42.2366 57.6494 42.4592 57.6588 42.6915 57.6777L42.0527 57.5927C42.3237 57.6305 42.5947 57.706 42.8464 57.8099L42.2656 57.5738C42.4979 57.6777 42.7205 57.8004 42.9141 57.9515L42.4205 57.5832C42.5657 57.6966 42.7012 57.8288 42.8173 57.9704L42.4398 57.4888C42.5366 57.621 42.6237 57.7532 42.6915 57.8949L42.4495 57.3283C42.5076 57.4605 42.5463 57.5927 42.5657 57.7343L42.4786 57.1111C42.4979 57.2622 42.4979 57.4038 42.4786 57.5549L42.5657 56.9317C42.5657 56.9883 42.5463 57.045 42.5366 57.1017L42.7786 56.5351C42.7012 56.7051 42.6044 56.8656 42.4882 57.0072L42.8657 56.5256C42.7302 56.7051 42.5657 56.8561 42.3914 56.9978L42.8851 56.6295C42.6721 56.79 42.4398 56.9222 42.1979 57.0261L42.7786 56.79C42.4882 56.9034 42.1882 56.9883 41.8688 57.0356L42.5076 56.9506C42.1495 56.9978 41.7817 56.9978 41.4235 56.9506L42.0623 57.0356C41.7236 56.9883 41.3945 56.9034 41.0848 56.7806L41.6655 57.0167C41.3945 56.9034 41.1428 56.7712 40.9105 56.6012L41.4042 56.9695C41.2106 56.8184 41.0364 56.6578 40.8815 56.4595L41.259 56.9411C41.1235 56.7617 41.0073 56.5728 40.9202 56.3651L41.1622 56.9317C41.0848 56.7334 41.0267 56.5351 40.9976 56.3368L41.0848 56.96C41.0557 56.7239 41.0557 56.4973 41.0848 56.2612L40.9976 56.8845C41.0364 56.6295 41.1041 56.384 41.2009 56.1479L40.9589 56.7145C41.0848 56.4312 41.2493 56.1668 41.4429 55.9213L41.0654 56.4029C41.2687 56.1574 41.4913 55.9402 41.7429 55.7419L41.2493 56.1101C41.5203 55.9024 41.8204 55.7324 42.1398 55.5908L41.559 55.8269C41.8494 55.7041 42.1495 55.6286 42.4689 55.5813L41.83 55.6663C42.072 55.638 42.3043 55.638 42.5463 55.6663L41.9075 55.5813C42.1495 55.6097 42.3818 55.6758 42.6044 55.7608L42.0236 55.5247C42.2366 55.6191 42.4302 55.7324 42.6237 55.8646L42.1301 55.4964C42.285 55.6191 42.4205 55.7419 42.556 55.893L42.1785 55.4114C42.2946 55.553 42.3818 55.6947 42.4592 55.8646L42.2172 55.298C42.2753 55.4303 42.3043 55.5625 42.3334 55.7041L42.2463 55.0809C42.2656 55.2225 42.2656 55.3547 42.2463 55.4869L42.3334 54.8637C42.3043 55.0525 42.2559 55.2225 42.1785 55.3925L42.4205 54.8259C42.343 55.0053 42.2366 55.1658 42.1204 55.3169L42.4979 54.8353C42.3527 55.0148 42.1979 55.1658 42.0236 55.3075L42.5173 54.9392C42.314 55.0903 42.1011 55.2131 41.8591 55.3169L42.4398 55.0809C42.2463 55.1564 42.0623 55.2036 41.8591 55.2414L42.4979 55.1564C42.2946 55.1847 42.1011 55.1847 41.8978 55.1564L42.5366 55.2414C42.3334 55.2131 42.1301 55.147 41.9365 55.0714L42.5173 55.3075C42.3043 55.2131 42.1107 55.0997 41.9172 54.9581L42.4108 55.3264C42.2075 55.1658 42.0236 54.9864 41.8688 54.7881L42.2463 55.2697C42.0527 55.0242 41.8978 54.7504 41.7623 54.4671L42.0043 55.0336C41.8591 54.6937 41.7526 54.3349 41.7042 53.9666L41.7913 54.5898C41.7429 54.2216 41.7429 53.8533 41.7913 53.485L41.7042 54.1082C41.7042 54.061 41.7139 54.0138 41.7429 53.976L41.501 54.5426C41.5687 54.3915 41.6461 54.2593 41.7429 54.1271L41.3654 54.6087C41.4622 54.486 41.5784 54.3821 41.7042 54.2877L41.2106 54.6559C41.3558 54.5521 41.5106 54.4671 41.6752 54.401L41.0944 54.637C41.288 54.5615 41.4816 54.5143 41.6849 54.486L41.046 54.5709C41.3171 54.5332 41.5881 54.5332 41.8591 54.5709L41.2203 54.486C41.5203 54.5237 41.8107 54.5993 42.0817 54.722L41.501 54.486C41.7139 54.5804 41.9172 54.6937 42.1107 54.8259L41.6171 54.4576C41.7817 54.5804 41.9365 54.722 42.0623 54.892L41.6849 54.4104C41.801 54.5615 41.8978 54.7126 41.9752 54.892L41.7333 54.3254C41.8204 54.5426 41.8784 54.7598 41.9172 54.9959L41.83 54.3726C41.8688 54.637 41.8688 54.9014 41.83 55.1658L41.9172 54.5426C41.8688 54.8637 41.7817 55.1658 41.6558 55.468L41.8978 54.9014C41.7526 55.2319 41.5687 55.5341 41.3461 55.8174L41.7236 55.3358C41.4719 55.6474 41.1912 55.9213 40.8815 56.1574L41.3751 55.7891C41.0751 56.0063 40.7653 56.1951 40.4169 56.3368L40.9976 56.1007C40.8912 56.1479 40.7847 56.1857 40.6782 56.214C40.0781 56.4123 39.5554 56.7523 39.236 57.3C38.936 57.8099 38.8005 58.5559 38.9941 59.1225C39.1876 59.689 39.5458 60.2462 40.1072 60.5295C40.6685 60.8127 41.3558 60.9733 41.9752 60.7655L41.9462 60.7561Z" fill="#D9D9D9"/>
<path d="M18.2127 61.7288C20.4486 61.0395 21.8327 58.9809 21.8714 56.724C21.8908 55.742 21.6101 54.656 21.039 53.8439C20.6712 53.3246 20.2066 52.7958 19.6355 52.4841C18.6676 51.9365 17.7191 52.2197 16.7802 52.5975C14.7669 53.4096 12.5117 54.7599 12.0471 57.0168C11.5341 59.4719 13.1408 61.946 15.7155 62.3709C17.7771 62.7109 19.8291 62.286 21.7166 61.455C22.9942 60.8884 24.088 59.9158 24.5816 58.6126C25.2204 56.9318 24.2428 55.1754 22.7329 54.3444C20.2453 52.9752 17.0125 52.843 14.7669 54.7127C12.773 56.3747 12.2019 59.793 14.2539 61.6438C15.3961 62.6731 16.8673 63.0131 18.3772 62.7675C19.7323 62.5504 21.0487 61.4927 21.4068 60.1707C21.8521 58.5371 20.4776 56.7524 19.0064 56.1008C17.5352 55.4492 15.9091 55.3737 14.554 56.2425C13.4989 56.9223 12.9472 58.3577 13.6828 59.4719C14.3604 60.5012 15.8607 61.0489 16.9931 60.3218C17.0996 60.2557 17.1964 60.1991 17.3125 60.1518L16.7318 60.3879C16.906 60.3218 17.0706 60.2746 17.2545 60.2557L16.6156 60.3407C16.7995 60.3218 16.9738 60.3218 17.1577 60.3407L16.5188 60.2557C16.7318 60.284 16.935 60.3407 17.1383 60.4162L16.5576 60.1802C16.7608 60.2652 16.935 60.369 17.1093 60.4918L16.6156 60.1235C16.7608 60.2368 16.8867 60.3596 17.0028 60.5012L16.6253 60.0196C16.7124 60.1424 16.7899 60.2652 16.8576 60.3974L16.6156 59.8308C16.664 59.9441 16.7027 60.048 16.7318 60.1707L16.7318 58.9148L16.7027 58.9904L16.9447 58.4238C16.8963 58.5182 16.8479 58.6032 16.7802 58.6976L17.1577 58.216C17.0802 58.3199 16.9834 58.4049 16.8867 58.4804L17.3803 58.1122C17.2738 58.1877 17.1674 58.2538 17.0415 58.301L17.6223 58.0649C17.448 58.131 17.2738 58.1783 17.0802 58.2066L17.7191 58.1216C17.5255 58.1405 17.3319 58.1405 17.1383 58.1216L17.7771 58.2066C17.5545 58.1783 17.3416 58.1216 17.1383 58.0366L17.7191 58.2727C17.5642 58.2066 17.4287 58.1216 17.2932 58.0272L17.7868 58.3954C17.6803 58.3105 17.5836 58.216 17.4964 58.1216L17.8739 58.6032C17.7578 58.4616 17.6803 58.3105 17.6029 58.1499L17.8449 58.7165C17.7868 58.556 17.7481 58.4049 17.7191 58.2444L17.8062 58.8676C17.7868 58.6693 17.7771 58.4804 17.8062 58.2821L17.7191 58.9054C17.7578 58.641 17.8255 58.386 17.932 58.1405L17.69 58.7071C17.8062 58.4521 17.9514 58.2255 18.1159 58.0083L17.7384 58.4899C17.8933 58.301 18.0675 58.1405 18.2611 57.9894L17.7675 58.3577C17.9707 58.2066 18.1837 58.0838 18.416 57.98L17.8352 58.216C18.1643 58.0838 18.4934 57.9988 18.8418 57.9516L18.203 58.0366C18.5999 57.9988 18.987 57.9988 19.3839 58.0461L18.7451 57.9611C19.2774 58.0366 19.7904 58.1783 20.284 58.3766L19.7033 58.1405C20.0033 58.2727 20.2937 58.4049 20.5647 58.5938L20.0711 58.2255C20.1969 58.3199 20.3034 58.4143 20.4002 58.5371L20.0227 58.0555C20.0711 58.1122 20.1098 58.1783 20.1389 58.2444L19.8969 57.6778C19.9356 57.7722 19.9646 57.8572 19.9937 57.9611L19.9066 57.3378C19.9162 57.4323 19.9259 57.5173 19.9066 57.6117L19.9937 56.9884C19.9743 57.1112 19.9453 57.2245 19.8969 57.3473L20.1389 56.7807C20.0808 56.9035 20.013 57.0073 19.9259 57.1206L20.3034 56.6391C20.1389 56.8374 19.955 57.0073 19.7517 57.1679L20.2453 56.7996C19.9066 57.0451 19.5387 57.2434 19.1516 57.4039L19.7323 57.1679C18.9774 57.47 18.1933 57.6872 17.3803 57.8005L18.0191 57.7156C17.5158 57.7817 17.0125 57.8005 16.5092 57.7439L17.148 57.8289C16.8383 57.7911 16.5382 57.7156 16.2381 57.5928L16.8189 57.8289C16.6447 57.7533 16.4898 57.6589 16.3349 57.555L16.8286 57.9233C16.7027 57.8289 16.5963 57.7156 16.4898 57.5928L16.8673 58.0744C16.7511 57.9233 16.6544 57.7628 16.5769 57.5834L16.8189 58.1499C16.7511 57.9705 16.7027 57.8005 16.6737 57.6117L16.7608 58.2349C16.7415 58.0555 16.7415 57.8855 16.7608 57.7061L16.6737 58.3293C16.7027 58.1594 16.7511 57.9894 16.8092 57.8289L16.5672 58.3954C16.664 58.1688 16.7899 57.9705 16.935 57.7817L16.5576 58.2632C16.7899 57.98 17.0512 57.7344 17.3319 57.5173L16.8383 57.8855C17.3803 57.4795 17.9804 57.1584 18.6095 56.894L18.0288 57.1301C18.3482 56.9979 18.6773 56.8751 19.0161 56.7713L17.148 56.5352L17.2157 56.5824L16.7221 56.2141C16.877 56.3369 17.0125 56.4691 17.1383 56.6202L16.7608 56.1386C16.8963 56.3086 17.0028 56.4974 17.0899 56.6957L16.8479 56.1291C16.9447 56.3558 17.0028 56.5918 17.0415 56.8279L16.9544 56.2047C16.9931 56.5069 16.9931 56.809 16.9544 57.1112L17.0415 56.488C17.0028 56.7618 16.9254 57.0262 16.8189 57.2812L17.0609 56.7146C16.9544 56.9696 16.8092 57.1962 16.6447 57.4228L17.0222 56.9412C16.8867 57.1112 16.7318 57.2623 16.5576 57.3945L17.0512 57.0262C16.8963 57.1395 16.7318 57.234 16.5479 57.3095L17.1286 57.0734C17.0512 57.1018 16.9738 57.1301 16.8867 57.1584C15.6864 57.5267 14.7863 58.8204 15.1928 60.0669C15.58 61.2472 16.877 62.116 18.174 61.7194L18.2127 61.7288Z" fill="#D9D9D9"/>
<path d="M62.2238 38.0741C64.6629 37.9231 66.8408 36.6577 68.1184 34.6275C69.3961 32.5972 69.367 30.1137 68.2926 27.9985C67.2182 25.8833 64.963 24.4196 62.5626 24.2402C60.4912 24.0797 58.2553 25.0712 56.9293 26.6104C55.3225 28.4801 54.8192 30.9164 55.9517 33.1449C56.7357 34.703 58.536 35.9306 60.2686 36.2328C62.5142 36.6294 64.7985 35.9967 66.0955 34.0609C67.2279 32.38 67.0053 30.0571 65.9309 28.4045C64.5178 26.2327 61.9044 25.1184 59.4168 26.2327C58.1973 26.7804 57.3842 28.074 57.21 29.3394C56.9874 30.973 57.8488 32.5595 59.562 33.0033C60.7816 33.3149 62.2432 32.6067 62.5432 31.3508C62.8433 30.0948 62.1657 28.7823 60.8494 28.4423C60.5203 28.3573 61.1978 28.6028 61.1784 28.5934C61.1494 28.5745 61.6914 29.0372 61.4882 28.82C61.6527 28.99 61.7786 29.1694 61.8657 29.3866C62.0786 29.8965 61.8947 29.1978 61.9625 29.7549C62.0496 30.4253 61.9625 29.7171 61.9915 29.736C62.0399 29.7549 61.8366 30.3876 61.9528 30.0948C61.9721 30.0382 62.0012 29.9721 62.0109 29.9154C61.8753 30.5387 61.7786 30.3876 61.885 30.2176C61.8947 30.1987 61.9915 30.0476 61.9915 30.0571C62.0109 30.0948 61.5463 30.5198 61.7979 30.312C61.8269 30.2837 61.8753 30.2459 61.9044 30.2082C62.0205 30.0665 61.3914 30.6236 61.7689 30.3404C61.3043 30.6803 61.2656 30.5198 61.4785 30.4726C61.5946 30.4537 61.9141 30.397 61.4495 30.4537C60.9849 30.5103 61.3914 30.482 61.5172 30.4726C61.885 30.4631 60.8687 30.3215 61.3043 30.4442C61.4107 30.4726 61.885 30.6425 61.4301 30.4537C60.9752 30.2648 61.4204 30.4631 61.5269 30.5292C61.9915 30.8125 61.372 30.4726 61.4011 30.4159C61.4011 30.4159 61.6721 30.6709 61.6914 30.6897C61.7689 30.7653 62.0592 31.1241 61.7689 30.7558C61.4785 30.3876 61.8076 30.8408 61.8657 30.9353C61.9237 31.0297 62.1076 31.4452 61.9237 31.0202C61.7398 30.5953 61.9141 31.0108 61.9431 31.1147C61.9721 31.2185 62.0012 31.3413 62.0302 31.4546C62.1464 31.889 61.9915 30.8125 62.0109 31.3696C62.0109 31.483 62.0012 31.5963 62.0012 31.7096C62.0012 31.9834 62.1367 31.1147 62.0399 31.3696C62.0205 31.4169 62.0205 31.4641 62.0012 31.5113C62.0012 31.5018 61.9431 31.6907 61.9431 31.7001C61.9237 31.6813 62.2432 31.1241 62.0689 31.4074C62.0399 31.4452 62.0205 31.4924 61.9915 31.5396C61.8076 31.9362 62.127 31.313 62.1657 31.3508C62.1754 31.3696 61.9528 31.5774 61.9141 31.6057C61.8463 31.6813 61.6334 31.8323 61.9625 31.5774C62.2915 31.3224 62.098 31.483 62.0012 31.5302C61.9431 31.5585 61.7205 31.6435 61.7011 31.6907C61.7011 31.6718 62.3206 31.4735 62.0109 31.5585C61.9528 31.5774 61.885 31.5963 61.8269 31.6152C61.5753 31.6813 61.1978 31.6529 61.9915 31.6152C61.8753 31.6152 61.7592 31.634 61.643 31.634C61.5269 31.634 61.4107 31.634 61.2946 31.6246C60.9558 31.6246 61.6237 31.6624 61.643 31.6718C61.5946 31.634 61.4495 31.634 61.3914 31.6246C61.2752 31.5963 61.1591 31.5679 61.0429 31.5396C60.9268 31.5113 60.5203 31.3413 60.9461 31.5207C61.372 31.7001 60.9655 31.5207 60.8687 31.4735C60.7332 31.398 60.6074 31.3224 60.4719 31.2374C60.0557 30.9825 60.8494 31.5774 60.5977 31.3319C60.5009 31.2374 60.3944 31.1524 60.3073 31.058C60.2783 31.0202 60.2396 30.9825 60.2105 30.9447C60.0073 30.7653 60.5396 31.4168 60.4041 31.1902C60.3364 31.0769 60.2492 30.973 60.1912 30.8597C60.1621 30.8031 60.1331 30.7464 60.1041 30.6897C59.9685 30.4537 60.288 31.2469 60.2299 30.9825C60.2008 30.8692 60.1525 30.7653 60.1331 30.652C60.1331 30.6236 60.0944 30.4537 60.0944 30.4537C60.1331 30.4537 60.1234 31.0202 60.1525 30.8031C60.1621 30.6897 60.0847 30.3687 60.1621 30.2648C60.2008 30.2176 60.0363 30.8503 60.1234 30.6048C60.1525 30.5292 60.1525 30.4537 60.1718 30.3781C60.2105 30.2459 60.2686 30.1232 60.2976 29.991C60.1912 30.5009 60.0944 30.4159 60.2008 30.2365C60.2396 30.1704 60.2783 30.0948 60.317 30.0287C60.3848 29.906 60.4719 29.7171 60.5783 29.6321C60.5783 29.6321 60.1621 30.1043 60.4331 29.8304C60.4719 29.7832 60.5106 29.7454 60.559 29.6982C60.6558 29.5944 60.7622 29.4999 60.8687 29.4055C60.9171 29.3677 60.9945 29.2827 61.0623 29.2544C61.0526 29.2544 60.5396 29.6038 60.8687 29.4055C61.0139 29.3205 61.1494 29.2261 61.2946 29.1505C61.5075 29.0372 61.9625 28.9428 61.2752 29.1317C61.4107 29.0939 61.5463 29.0372 61.6818 28.9994C61.8173 28.9617 61.9625 28.9333 62.098 28.905C62.3206 28.8578 62.3206 28.99 61.8173 28.9428C61.8947 28.9428 61.9818 28.9333 62.0592 28.9239C62.1657 28.9239 62.4658 28.8767 62.5529 28.9333C62.5626 28.9333 61.885 28.8106 62.2722 28.8956C62.3303 28.9145 62.398 28.9239 62.4561 28.9333C62.611 28.9711 62.7465 29.0183 62.9013 29.0656C63.2691 29.1789 62.7078 28.9995 62.6884 28.9711C62.7561 29.0372 62.9013 29.075 62.9788 29.1222C63.1143 29.1978 63.2401 29.2827 63.3659 29.3583C63.5692 29.4905 63.4047 29.5283 63.1917 29.2261C63.2304 29.2827 63.3466 29.3583 63.3853 29.3961C63.5014 29.4999 63.6079 29.6038 63.7047 29.7171C64.0532 30.0948 63.4434 29.33 63.7337 29.7454C63.8499 29.906 63.9467 30.0665 64.0435 30.2365C64.0725 30.2931 64.1016 30.3498 64.1306 30.4065C64.2661 30.652 63.9467 29.8776 64.0628 30.2554C64.1209 30.4348 64.1887 30.6142 64.2274 30.8031C64.2467 30.8692 64.2564 30.9258 64.2661 30.9919C64.3629 31.4357 64.2371 30.5481 64.2371 30.8125C64.2371 31.0014 64.2467 31.1997 64.2371 31.3885C64.2371 31.4735 64.1983 31.719 64.2564 31.3319C64.3242 30.9069 64.2564 31.2941 64.2371 31.3885C64.1983 31.5774 64.1306 31.7474 64.0822 31.9268C64.0144 32.1628 64.2177 31.634 64.208 31.6529C64.1596 31.7474 64.1209 31.8418 64.0725 31.9362C63.9854 32.1062 63.8789 32.2573 63.7725 32.4178C63.7241 32.4839 63.5789 32.6728 63.8112 32.38C64.0725 32.059 63.8112 32.3611 63.7531 32.4367C63.637 32.5594 63.5208 32.6822 63.3853 32.7955C63.3369 32.8427 63.2304 32.8994 63.1917 32.9561C63.4821 32.5878 63.5305 32.7105 63.3175 32.8522C63.153 32.9561 62.9884 33.0599 62.8239 33.1449C62.7658 33.1732 62.7078 33.2016 62.6497 33.2299C62.398 33.3621 63.2014 33.0505 62.8142 33.1638C62.6497 33.211 62.4851 33.2677 62.3206 33.3054C62.2819 33.3054 62.1173 33.3621 62.0689 33.3527L62.4561 33.3054C62.369 33.3054 62.2819 33.3243 62.1948 33.3243C60.9365 33.3999 59.7169 34.3536 59.775 35.6851C59.833 36.9032 60.8397 38.1308 62.1948 38.0458L62.2238 38.0741Z" fill="#D9D9D9"/>
<path d="M36.4772 37.4887C38.5679 37.1393 40.4844 36.1289 42.0814 34.7974C42.8945 34.1175 43.5914 33.296 44.1721 32.4367C44.6948 31.6718 45.1207 30.8031 44.7916 29.8588C44.6077 29.3299 44.3657 28.7917 44.027 28.329C42.7203 26.5254 40.5521 25.1939 38.2195 25.3167C36.8741 25.3828 35.7126 25.836 34.6866 26.667C33.8735 27.328 33.3508 28.2157 32.9733 29.16C32.2087 31.0486 32.6249 33.4376 34.1348 34.8635C35.8093 36.4311 38.2195 36.516 40.2424 35.6095C41.1329 35.2129 41.9169 34.5047 42.4202 33.6832C42.6525 33.3054 42.8461 32.8522 42.9332 32.4178C43.001 32.0873 43.059 31.7379 43.0494 31.398C43.0494 30.6142 42.6525 30.0476 42.1589 29.4905C40.3973 27.5075 37.0967 27.1958 35.0737 28.9522C32.9443 30.7936 33.1572 34.6652 35.7803 35.9872C37.358 36.7805 39.1099 36.4027 40.4457 35.3546C41.5975 34.448 42.1976 32.7766 41.6943 31.3885C41.4813 30.8031 41.1426 30.3026 40.5812 29.9815C40.0585 29.6888 39.2938 29.5566 38.7131 29.7454C37.5322 30.1137 36.574 31.398 37.0192 32.6539C37.0483 32.7389 37.0676 32.8144 37.087 32.8994L36.9999 32.2762C37.0096 32.3895 37.0192 32.4933 36.9999 32.5972L37.087 31.974C37.0676 32.1062 37.0289 32.2384 36.9805 32.3611L37.2225 31.7946C37.1644 31.9173 37.087 32.0401 36.9999 32.144L37.3774 31.6624C37.2612 31.7946 37.1451 31.9079 36.9999 32.0212L37.4935 31.6529C37.3483 31.7568 37.1935 31.8418 37.0289 31.9079L37.6097 31.6718C37.4742 31.719 37.329 31.7568 37.1838 31.7851L37.8226 31.7001C37.6774 31.719 37.5419 31.719 37.3967 31.7096L38.0356 31.7946C37.8904 31.7757 37.7549 31.7379 37.6193 31.6812L38.2001 31.9173C38.0936 31.8701 37.9968 31.804 37.9 31.7379L38.3937 32.1062C38.2872 32.0118 38.1904 31.9173 38.1033 31.8134L38.4808 32.295C38.4034 32.1817 38.3356 32.0684 38.2775 31.9362L38.5195 32.5028C38.4518 32.3423 38.413 32.1912 38.384 32.0212L38.4711 32.6444C38.4421 32.4178 38.4421 32.1912 38.4711 31.9645L38.384 32.5878C38.4227 32.3895 38.4711 32.2006 38.5485 32.0118L38.3066 32.5783C38.3743 32.4178 38.4614 32.2762 38.5679 32.1345L38.1904 32.6161C38.2969 32.4839 38.4227 32.3611 38.5582 32.2573L38.0646 32.6255C38.1904 32.5311 38.3259 32.4556 38.4711 32.3895L37.8904 32.6255C38.1033 32.5406 38.3259 32.4839 38.5582 32.4556L37.9194 32.5406C38.1517 32.5217 38.384 32.5217 38.6163 32.5594L37.9775 32.4745C38.2098 32.5122 38.4324 32.5783 38.655 32.6633L38.0743 32.4272C38.3259 32.5311 38.5582 32.6633 38.7808 32.8238L38.2872 32.4556C38.4711 32.6067 38.6357 32.7577 38.7905 32.9466L38.413 32.465C38.4518 32.5217 38.4905 32.5689 38.5292 32.6255L38.2001 31.4357C38.2001 31.5396 38.2001 31.6435 38.1807 31.7473L38.2679 31.1241C38.2388 31.3035 38.1904 31.4641 38.1227 31.634L38.3646 31.0675C38.2775 31.2563 38.1711 31.4168 38.0452 31.5774L38.4227 31.0958C38.2872 31.2563 38.142 31.398 37.9775 31.5207L38.4711 31.1524C38.2388 31.3319 37.9872 31.4735 37.7065 31.5868L38.2872 31.3507C38.0065 31.4641 37.7258 31.5396 37.4258 31.5774L38.0646 31.4924C37.7936 31.5207 37.5226 31.5302 37.2612 31.4924L37.9 31.5774C37.6581 31.549 37.4354 31.4924 37.2031 31.4074L37.7839 31.6435C37.5903 31.5585 37.4064 31.4641 37.2322 31.3319L37.7258 31.7001C37.571 31.5774 37.4354 31.4452 37.3096 31.2941L37.6871 31.7757C37.5419 31.5963 37.4354 31.4074 37.3387 31.1997L37.5806 31.7662C37.4838 31.5302 37.4161 31.2941 37.3774 31.0391L37.4645 31.6624C37.4258 31.3507 37.4258 31.0391 37.4645 30.7275L37.3774 31.3507C37.4258 31.0014 37.5226 30.6708 37.6677 30.3498L37.4258 30.9164C37.5613 30.6236 37.7258 30.3498 37.9291 30.0948L37.5516 30.5764C37.7161 30.3781 37.9 30.1893 38.113 30.0287L37.6193 30.397C37.8323 30.2365 38.0549 30.1043 38.2969 30.0004L37.7161 30.2365C37.9872 30.1232 38.2679 30.0476 38.5679 30.0098L37.9291 30.0948C38.2582 30.0571 38.5873 30.0571 38.9164 30.0948L38.2775 30.0098C38.6453 30.0665 38.9938 30.1609 39.3422 30.2931L38.7615 30.0571C39.139 30.2176 39.4874 30.4159 39.8068 30.6614L39.3132 30.2931C39.6036 30.5198 39.8746 30.7747 40.1069 31.0675L39.7294 30.5859C39.9617 30.8786 40.1456 31.1902 40.3005 31.5207L40.0585 30.9541C40.0972 31.0486 40.1359 31.143 40.165 31.2374L40.407 29.4149C40.1746 29.8304 39.9036 30.2365 39.6036 30.6142L39.9811 30.1326C39.4971 30.737 38.9357 31.2846 38.3162 31.7662L38.8099 31.398C38.1517 31.889 37.4354 32.3045 36.6805 32.6161L37.2612 32.38C36.603 32.6444 35.9158 32.8427 35.2092 32.9655C34.6478 33.0599 34.0381 33.5887 33.767 34.0514C33.467 34.5614 33.3315 35.3074 33.5251 35.8739C33.7186 36.4405 34.0768 36.9976 34.6382 37.2809C35.248 37.5925 35.8287 37.6303 36.5062 37.517L36.4772 37.4887Z" fill="#D9D9D9"/>
<path d="M11.5439 39.7173C12.0956 39.7834 12.6666 39.7173 13.199 39.6039C13.7313 39.4906 14.254 39.2829 14.7186 39.0279C15.6865 38.5274 16.4802 37.7248 17.0803 36.8371C17.6804 35.9495 17.9902 34.8825 18.0579 33.8154C18.087 33.2866 18.0192 32.72 17.874 32.2101C17.6805 31.5113 17.303 30.9353 16.8093 30.397C16.1415 29.6699 15.1058 29.1222 14.1282 28.9145C13.1022 28.6973 11.9504 28.6784 10.9534 29.0561C9.8016 29.4905 8.75625 30.2082 8.1755 31.313C7.9432 31.7568 7.73026 32.2479 7.65282 32.7483C7.59475 33.0883 7.53668 33.4377 7.53668 33.7871C7.53668 34.1365 7.59475 34.5047 7.65282 34.8636C7.79801 35.874 8.32069 36.7899 8.99823 37.5548C9.75321 38.4141 10.8663 38.9335 11.9988 39.0846C13.1312 39.2357 14.3508 39.009 15.4058 38.4519C16.3157 37.9703 17.2062 37.1393 17.6514 36.2234C18.0095 35.4868 18.2902 34.703 18.1741 33.8815C18.0386 32.8994 17.332 32.229 16.548 31.6907C15.764 31.1525 14.7573 30.9258 13.8475 30.9353C11.902 30.9542 10.0629 31.9362 8.98855 33.5132C8.73689 33.8909 8.54331 34.3348 8.42716 34.7691C8.31101 35.2035 8.24325 35.6945 8.28197 36.1478C8.32069 36.6011 8.36908 37.0543 8.63042 37.4509C8.89176 37.8475 9.19181 38.0931 9.5693 38.3575C9.85 38.5463 10.1888 38.6785 10.5082 38.7824C10.8276 38.8863 11.176 38.924 11.5051 38.9524C11.66 38.9713 11.8052 38.9618 11.9504 38.9524C12.686 38.8674 13.2474 38.7352 13.9153 38.3858C14.3411 38.1592 14.7573 37.8475 15.0864 37.4982C15.8704 36.6766 16.4512 35.5623 16.4028 34.4103C16.3738 33.7304 16.2092 33.1166 15.8608 32.5217C15.5607 32.0118 14.9993 31.5963 14.4186 31.4358C13.8378 31.2752 13.0635 31.3508 12.5505 31.6718C11.4471 32.3706 11.0115 33.7587 11.6794 34.9013C11.7181 34.9674 11.7568 35.043 11.7858 35.1091L11.5439 34.5425C11.5922 34.6653 11.6213 34.788 11.6406 34.9202L11.5535 34.297C11.5632 34.4292 11.5632 34.552 11.5535 34.6747L11.6406 34.0515C11.6116 34.2214 11.5729 34.3725 11.5051 34.5331L11.7471 33.9665C11.6697 34.1459 11.5632 34.3064 11.4471 34.4575L11.8246 33.9759C11.689 34.1459 11.5342 34.297 11.3599 34.4292L11.8536 34.0609C11.6794 34.1931 11.4955 34.297 11.2922 34.3914L11.8729 34.1553C11.689 34.2309 11.5148 34.2781 11.3212 34.3159L11.9601 34.2309C11.8052 34.2498 11.66 34.2498 11.5148 34.2309L12.1536 34.3159C12.0181 34.297 11.902 34.2687 11.7762 34.2214L12.3569 34.4575C12.2311 34.4009 12.1149 34.3348 11.9988 34.2592L12.4924 34.6275L12.444 34.5897L13.0635 35.6284L13.0635 35.5718L13.1409 36.195C13.1216 36.0156 13.1119 35.8362 13.1409 35.6473L13.0538 36.2706C13.0828 36.0817 13.1312 35.8929 13.2087 35.7134L12.9667 36.28C13.0538 36.0817 13.1603 35.9023 13.2958 35.7323L12.9183 36.2139C13.0828 36.0156 13.2667 35.8362 13.47 35.6851L12.9764 36.0534C13.2184 35.874 13.4797 35.7229 13.7604 35.6096L13.1796 35.8456C13.4797 35.7229 13.7894 35.6379 14.1088 35.6001L13.47 35.6851C13.7313 35.6568 13.983 35.6473 14.2443 35.6851L13.6055 35.6001C13.8378 35.6285 14.0604 35.6851 14.2831 35.7795L13.7023 35.5435C13.8669 35.619 14.0217 35.704 14.1669 35.8079L13.6733 35.4396C13.8185 35.5529 13.954 35.6851 14.0701 35.8268L13.6926 35.3452L13.7313 35.3924L13.4023 34.2026C13.4023 34.2026 13.4023 34.297 13.3829 34.3348L13.47 33.7115C13.441 33.9098 13.3829 34.1081 13.3055 34.297L13.5474 33.7304C13.4507 33.957 13.3248 34.1648 13.17 34.3631L13.5474 33.8815C13.3732 34.0987 13.1796 34.2875 12.957 34.4575L13.4506 34.0892C13.2087 34.2687 12.9473 34.4197 12.6666 34.5331L13.2474 34.297C12.986 34.4009 12.7247 34.467 12.444 34.5047L13.0828 34.4197C12.8312 34.4481 12.5795 34.4481 12.3279 34.4197L12.9667 34.5047C12.7344 34.467 12.5214 34.4103 12.2988 34.3253L12.8796 34.5614C12.6957 34.4858 12.5311 34.382 12.3763 34.2687L12.8699 34.6369C12.6763 34.4953 12.5118 34.3348 12.3666 34.1553L12.7441 34.6369C12.5698 34.4197 12.4343 34.1837 12.3182 33.9287L12.5602 34.4953C12.444 34.212 12.3666 33.9287 12.3279 33.636L12.415 34.2592C12.3859 33.9854 12.3859 33.7115 12.415 33.4282L12.3279 34.0515C12.3666 33.7965 12.4343 33.5604 12.5311 33.3244L12.2892 33.8909C12.3763 33.6926 12.4827 33.5132 12.6182 33.3433L12.2408 33.8248C12.3763 33.6549 12.5311 33.5038 12.7054 33.3716L12.2117 33.7399C12.3859 33.6171 12.5795 33.5038 12.7731 33.4188L12.1924 33.6549C12.4537 33.551 12.7344 33.4755 13.0151 33.4377L12.3763 33.5227C12.6666 33.4943 12.9473 33.4943 13.2377 33.5227L12.5989 33.4377C12.8893 33.4755 13.1603 33.551 13.4313 33.6549L12.8505 33.4188C13.0925 33.5227 13.3248 33.6454 13.5281 33.7965L13.0344 33.4282C13.2087 33.5604 13.3635 33.7115 13.499 33.8721L13.1216 33.3905C13.199 33.4943 13.2764 33.5982 13.3442 33.7115L13.1022 33.1449C13.199 33.381 13.2571 33.6265 13.2958 33.8721L13.2087 33.2488C13.2377 33.5227 13.2377 33.7871 13.2087 34.0609L13.2958 33.4377C13.2474 33.7587 13.1603 34.0609 13.0344 34.3536L13.2764 33.7871C13.1216 34.127 12.9377 34.4481 12.7054 34.7408L13.0828 34.2592C12.8602 34.5331 12.6086 34.7786 12.3279 34.9863L12.8215 34.6181C12.5602 34.8069 12.2795 34.9769 11.9794 35.0996L12.5602 34.8636C12.2988 34.9674 12.0375 35.043 11.7568 35.0808L12.3956 34.9958C12.1149 35.0335 11.8342 35.0335 11.5535 34.9958C10.9825 34.9202 10.2275 35.3074 9.84032 35.6851C9.42411 36.0912 9.1047 36.7711 9.13374 37.3565C9.16278 37.942 9.36604 38.603 9.84032 39.0279L10.334 39.3962C10.7114 39.6134 11.118 39.7173 11.5535 39.7173L11.5439 39.7173Z" fill="#D9D9D9"/>
<path d="M60.6077 10.935C61.8951 10.85 63.2502 10.7745 64.4794 10.359C65.97 9.85852 67.1799 9.04643 68.0704 7.77163C68.8834 6.6007 69.1448 5.10871 68.835 3.73948C68.4575 2.08696 67.0541 0.98213 65.5248 0.37778C63.3276 -0.490974 60.4045 0.179477 58.8268 1.8981C57.8976 2.9085 57.3168 4.1833 57.3652 5.56197C57.4136 6.94064 57.9556 8.17767 58.8461 9.23529C59.7366 10.2929 61.0336 10.8406 62.3984 10.9728C63.7631 11.105 65.0214 10.5101 65.9894 9.65078C66.7927 8.94255 67.4219 7.85661 67.6058 6.80844C67.8574 5.31645 67.538 3.91889 66.4927 2.77629C65.6796 1.88866 64.3342 1.41651 63.134 1.47316C61.837 1.53926 60.6949 2.00197 59.7173 2.82351C58.8074 3.58839 58.2073 4.89152 58.3138 6.06245C58.4493 7.57332 59.2043 8.74425 60.4626 9.60356C61.4014 10.2362 62.7081 10.529 63.8309 10.5006C65.0311 10.4723 66.2701 10.1418 67.2573 9.45247C68.6511 8.47985 69.6674 7.12006 69.7449 5.40144C69.8223 3.68282 68.6608 2.0964 67.1121 1.45428C66.2894 1.11433 65.3989 1.01046 64.5278 1.27486C63.3179 1.64314 62.4274 2.93682 62.8339 4.1833C63.2405 5.42977 64.5181 6.23242 65.8151 5.83582C65.9119 5.80749 65.999 5.7886 66.0958 5.76972L65.457 5.8547C65.5538 5.8547 65.6409 5.8547 65.7377 5.8547L65.0989 5.76972C65.2537 5.7886 65.3989 5.83582 65.5441 5.89247L64.9634 5.6564C65.0795 5.71306 65.186 5.77916 65.2925 5.84526L64.7988 5.47698C64.9246 5.58086 65.0408 5.68473 65.1473 5.81693L64.7698 5.33534C64.8956 5.49587 64.9924 5.6564 65.0698 5.83582L64.8279 5.26924C64.8859 5.42033 64.9246 5.57141 64.9537 5.74139L64.8666 5.11815C64.8763 5.25035 64.8763 5.37311 64.8666 5.50531L64.9537 4.88208C64.9246 5.08038 64.8763 5.27868 64.7988 5.46754L65.0408 4.90096C64.944 5.11815 64.8279 5.31645 64.6827 5.51476L65.0602 5.03316C64.8569 5.27868 64.6343 5.49587 64.3826 5.68473L64.8763 5.31645C64.5956 5.5242 64.2955 5.69417 63.9664 5.82637L64.5472 5.5903C64.2471 5.71306 63.9277 5.7886 63.6083 5.83582L64.2471 5.75083C63.889 5.7886 63.5308 5.7886 63.1727 5.75083L63.8115 5.83582C63.4631 5.7886 63.1243 5.70362 62.8049 5.57141L63.3857 5.80749C63.1534 5.70362 62.9404 5.58086 62.7468 5.43921L63.2405 5.80749C63.0953 5.69417 62.9598 5.56197 62.8436 5.42033L63.2211 5.90192C63.105 5.75083 63.0179 5.59974 62.9404 5.42977L63.1824 5.99635C63.1243 5.84526 63.0759 5.68473 63.0469 5.5242L63.134 6.14743C63.1146 5.99635 63.1146 5.8547 63.134 5.70361L63.0469 6.32685C63.0662 6.15688 63.1146 6.00579 63.1824 5.8547L62.9404 6.42128C63.0082 6.27019 63.0953 6.13799 63.2018 6.00579L62.8243 6.48738C62.9501 6.33629 63.0856 6.20409 63.2502 6.09078L62.7565 6.45905C62.9404 6.32685 63.134 6.21354 63.3469 6.11911L62.7662 6.35518C63.0082 6.26075 63.2502 6.18521 63.5018 6.14743L62.863 6.23242C63.1146 6.20409 63.3663 6.19465 63.618 6.23242L62.9791 6.14743C63.1534 6.17576 63.3179 6.21354 63.4728 6.27964L62.892 6.04356C63.0566 6.10966 63.2018 6.19465 63.3373 6.29852L62.8436 5.93025C62.9695 6.02468 63.0662 6.13799 63.1727 6.26075L62.7952 5.77916C62.892 5.91136 62.9695 6.04356 63.0372 6.19465L62.7952 5.62807C62.863 5.79804 62.9114 5.96802 62.9404 6.15688L62.8533 5.53364C62.8823 5.74139 62.8823 5.94913 62.8533 6.16632L62.9404 5.54308C62.9017 5.81693 62.8243 6.07189 62.7178 6.31741L62.9598 5.75083C62.8533 5.97746 62.7275 6.18521 62.5823 6.39295L62.9598 5.91136C62.7856 6.12855 62.592 6.31741 62.3693 6.48738L62.863 6.11911C62.6791 6.25131 62.4952 6.35518 62.2919 6.44017L62.8727 6.20409C62.6888 6.27019 62.5049 6.31741 62.321 6.35518L62.9598 6.27019C62.7565 6.28908 62.5533 6.28908 62.35 6.27019L62.9888 6.35518C62.7468 6.31741 62.5242 6.26075 62.3113 6.16632L62.892 6.40239C62.6791 6.30797 62.4758 6.18521 62.2919 6.04356L62.7856 6.41184C62.5726 6.24186 62.3887 6.06245 62.2242 5.84526L62.6016 6.32685C62.4177 6.09078 62.2726 5.83582 62.1467 5.56197L62.3887 6.12855C62.2726 5.8547 62.1951 5.57141 62.1467 5.26924L62.2338 5.89247C62.2048 5.62807 62.2048 5.36367 62.2338 5.09926L62.1467 5.7225C62.1854 5.48643 62.2435 5.2598 62.3403 5.04261L62.0983 5.60919C62.1951 5.392 62.321 5.18425 62.4661 4.98595L62.0887 5.46754C62.2726 5.23147 62.4855 5.02372 62.7275 4.8443L62.2338 5.21258C62.4855 5.03316 62.7468 4.88208 63.0275 4.75932L62.4468 4.99539C62.7952 4.85375 63.1534 4.75932 63.5212 4.70266L62.8823 4.78765C63.2211 4.74988 63.5599 4.74043 63.9083 4.78765L63.2695 4.70266C63.6083 4.74988 63.9374 4.83486 64.2568 4.95762L63.676 4.72155C63.9374 4.83486 64.189 4.97651 64.4213 5.14648L63.9277 4.7782C64.1019 4.91985 64.2665 5.07094 64.402 5.24091L64.0245 4.75932C64.131 4.90096 64.2181 5.03316 64.2955 5.19369L64.0535 4.62712C64.1406 4.83486 64.1987 5.03316 64.2277 5.25035L64.1406 4.62712C64.16 4.8443 64.16 5.06149 64.131 5.27868L64.2181 4.65545C64.1794 4.91041 64.1019 5.15592 64.0051 5.392L64.2471 4.82542C64.1213 5.09926 63.9761 5.34478 63.7922 5.5903L64.1697 5.10871C63.9858 5.34478 63.7728 5.55253 63.5405 5.74139L64.0342 5.37311C63.7244 5.59974 63.3953 5.77916 63.0372 5.93969L63.618 5.70361C62.9695 5.96802 62.2919 6.10966 61.6047 6.20409L62.2435 6.11911C61.7112 6.18521 61.1691 6.22298 60.6368 6.26075C59.9883 6.29852 59.3882 6.49682 58.9236 6.95009C58.5074 7.35613 58.1879 8.03603 58.217 8.62149C58.2751 9.83019 59.2817 11.0672 60.6368 10.9822L60.6077 10.935Z" fill="#D9D9D9"/>
<path d="M39.6713 11.4922C40.3101 11.275 40.9393 11.0106 41.491 10.614C42.2169 10.0852 42.759 9.5658 43.2913 8.84814C43.6785 8.33822 43.9495 7.73387 44.1528 7.12952C44.356 6.52517 44.4528 5.81694 44.3851 5.16538C44.3076 4.38161 44.1431 3.63562 43.7075 2.95572C43.301 2.3136 42.7977 1.8509 42.1685 1.42596C41.7136 1.11434 41.1716 0.897156 40.6392 0.755511C40.1069 0.613866 39.5358 0.52888 38.9841 0.566652C37.4548 0.651638 36.1578 1.26543 35.2673 2.48357C34.4445 3.60729 34.4929 5.25981 34.8704 6.54405C35.2769 7.92273 36.1384 9.12198 37.3773 9.90575C38.0839 10.359 38.9163 10.5762 39.7584 10.6329C40.6005 10.6895 41.3555 10.4346 42.0814 10.1041C42.6331 9.84909 43.1655 9.45249 43.5623 8.99923C44.0656 8.4232 44.5302 7.74331 44.6851 6.98787C44.7625 6.62904 44.8303 6.25132 44.8013 5.88305C44.7529 5.25037 44.6174 4.78766 44.3463 4.21164C43.9785 3.42787 43.2429 2.75742 42.4879 2.33249C40.1553 1.00103 37.0192 1.79424 35.3641 3.79615C34.8414 4.42883 34.4929 4.99541 34.2122 5.76029C34.1348 5.95859 34.0864 6.15689 34.0574 6.36464C33.9993 6.7518 33.9219 7.15785 33.9606 7.55445C34.0671 8.82925 34.5704 10.1041 35.5964 10.9539C36.4288 11.6527 37.416 12.1721 38.5195 12.3232C39.1002 12.4081 39.6326 12.4742 40.2133 12.4081C41.0264 12.3137 41.6265 12.1626 42.3718 11.8416C43.33 11.4261 44.2205 10.6045 44.6851 9.68856C45.4401 8.18713 45.0142 6.51572 43.9205 5.30702C42.4492 3.67339 39.5455 3.10681 37.6387 4.32495C37.0579 4.69323 36.5449 5.19371 36.2255 5.79806C35.9351 6.36464 35.7996 6.98787 35.9835 7.62055C36.1384 8.16824 36.574 8.76315 37.0966 9.02756C38.2001 9.59413 39.7971 9.35806 40.4069 8.17769C40.465 8.07381 40.5231 7.97939 40.5908 7.88496L40.2133 8.36655C40.3101 8.25323 40.4069 8.14936 40.5327 8.06437L40.0391 8.43265C40.1553 8.34766 40.2811 8.28156 40.4166 8.2249L39.8358 8.46098C40.0101 8.39488 40.1843 8.34766 40.3682 8.32877L39.7294 8.41376C39.9617 8.38543 40.1843 8.39488 40.4166 8.41376L39.7778 8.32877C40.0488 8.36655 40.3198 8.44209 40.5715 8.54596L39.9907 8.30989C40.223 8.41376 40.4456 8.53652 40.6392 8.68761L40.1456 8.31933C40.2908 8.43265 40.4263 8.56485 40.5424 8.70649L40.1649 8.2249C40.2617 8.3571 40.3488 8.48931 40.4166 8.63095L40.1746 8.06437C40.2327 8.19657 40.2714 8.32877 40.2908 8.47042L40.2037 7.84718C40.223 7.99827 40.223 8.13991 40.2037 8.291L40.2908 7.66777C40.2908 7.72442 40.2714 7.78108 40.2617 7.83774L40.5037 7.27116C40.4263 7.44114 40.3295 7.60167 40.2133 7.74331L40.5908 7.26172C40.4553 7.44114 40.2908 7.59222 40.1165 7.73387L40.6102 7.36559C40.3972 7.52612 40.1649 7.65832 39.923 7.7622L40.5037 7.52612C40.2133 7.63944 39.9133 7.72442 39.5939 7.77164L40.2327 7.68665C39.8746 7.73387 39.5068 7.73387 39.1486 7.68665L39.7874 7.77164C39.4487 7.72442 39.1196 7.63944 38.8098 7.51668L39.3906 7.75275C39.1196 7.63944 38.8679 7.50724 38.6356 7.33726L39.1293 7.70554C38.9357 7.55445 38.7615 7.39392 38.6066 7.19562L38.9841 7.67721C38.8486 7.49779 38.7324 7.30893 38.6453 7.10119L38.8873 7.66777C38.8098 7.46946 38.7518 7.27116 38.7227 7.07286L38.8098 7.6961C38.7808 7.46002 38.7808 7.23339 38.8098 6.99732L38.7227 7.62055C38.7615 7.36559 38.8292 7.12007 38.926 6.884L38.684 7.45058C38.8099 7.16729 38.9744 6.90289 39.168 6.65737L38.7905 7.13896C38.9938 6.89344 39.2164 6.67625 39.468 6.47795L38.9744 6.84623C39.2454 6.63848 39.5455 6.46851 39.8649 6.32686L39.2841 6.56294C39.5745 6.44018 39.8746 6.36464 40.194 6.31742L39.5551 6.40241C39.7971 6.37408 40.0294 6.37408 40.2714 6.40241L39.6326 6.31742C39.8746 6.34575 40.1069 6.41185 40.3295 6.49684L39.7487 6.26076C39.9617 6.35519 40.1553 6.46851 40.3488 6.60071L39.8552 6.23243C40.0101 6.35519 40.1456 6.47795 40.2811 6.62904L39.9036 6.14745C40.0197 6.28909 40.1069 6.43074 40.1843 6.60071L39.9423 6.03413C40.0004 6.16633 40.0294 6.29854 40.0585 6.44018L39.9713 5.81694C39.9907 5.95859 39.9907 6.09079 39.9713 6.22299L40.0585 5.59976C40.0294 5.78862 39.981 5.95859 39.9036 6.12856L40.1456 5.56198C40.0681 5.7414 39.9617 5.90193 39.8455 6.05302L40.223 5.57143C40.0778 5.75084 39.923 5.90193 39.7487 6.04358L40.2424 5.6753C40.0391 5.82639 39.8262 5.94915 39.5842 6.05302L40.1649 5.81694C39.9713 5.89249 39.7874 5.9397 39.5842 5.97747L40.223 5.89249C40.0197 5.92082 39.8262 5.92082 39.6229 5.89249L40.2617 5.97747C40.0585 5.94915 39.8552 5.88304 39.6616 5.8075L40.2424 6.04358C40.0294 5.94915 39.8358 5.83583 39.6423 5.69419L40.1359 6.06246C39.9326 5.90193 39.7487 5.72251 39.5939 5.52421L39.9713 6.0058C39.7778 5.76029 39.6229 5.48644 39.4874 5.20315L39.7294 5.76973C39.5842 5.42978 39.4777 5.07095 39.4293 4.70267L39.5164 5.32591C39.468 4.95763 39.468 4.58936 39.5164 4.22108L39.4293 4.84432C39.4293 4.7971 39.439 4.74989 39.468 4.71212L39.2261 5.27869C39.2938 5.12761 39.3712 4.99541 39.468 4.8632L39.0905 5.3448C39.1873 5.22204 39.3035 5.11816 39.4293 5.02373L38.9357 5.39201C39.0809 5.28814 39.2357 5.20315 39.4003 5.13705L38.8195 5.37312C39.0131 5.29758 39.2067 5.25037 39.41 5.22204L38.7711 5.30702C39.0421 5.26925 39.3132 5.26925 39.5842 5.30702L38.9454 5.22204C39.2454 5.25981 39.5358 5.33535 39.8068 5.45811L39.2261 5.22204C39.439 5.31647 39.6423 5.42978 39.8358 5.56198L39.3422 5.19371C39.5067 5.31647 39.6616 5.45811 39.7874 5.62808L39.41 5.14649C39.5261 5.29758 39.6229 5.44867 39.7003 5.62808L39.4584 5.06151C39.5455 5.27869 39.6035 5.49588 39.6423 5.73196L39.5551 5.10872C39.5939 5.37312 39.5939 5.63753 39.5551 5.90193L39.6423 5.27869C39.5939 5.59976 39.5067 5.90193 39.3809 6.20411L39.6229 5.63753C39.4777 5.96803 39.2938 6.27021 39.0712 6.5535L39.4487 6.0719C39.197 6.38352 38.9163 6.65737 38.6066 6.89344L39.1002 6.52517C38.8002 6.74236 38.4904 6.93121 38.142 7.07286L38.7227 6.83678C38.6163 6.884 38.5098 6.92177 38.4033 6.9501C37.8032 7.1484 37.2805 7.48835 36.9611 8.03604C36.6611 8.54596 36.5256 9.29196 36.7191 9.85854C36.9127 10.4251 37.2709 10.9822 37.8323 11.2655C38.3936 11.5488 39.0809 11.7094 39.7003 11.5016L39.6713 11.4922Z" fill="#D9D9D9"/>
<path d="M15.9383 12.4741C18.1742 11.7848 19.5583 9.72621 19.597 7.46934C19.6164 6.48727 19.3357 5.40133 18.7646 4.58924C18.3968 4.06987 17.9322 3.54107 17.3611 3.22945C16.3932 2.68176 15.4446 2.96505 14.5058 3.34277C12.4925 4.15486 10.2373 5.50521 9.77265 7.76208C9.25965 10.2172 10.8664 12.6913 13.4411 13.1162C15.5027 13.4562 17.5547 13.0313 19.4421 12.2003C20.7198 11.6337 21.8135 10.6611 22.3072 9.35794C22.946 7.67709 21.9684 5.9207 20.4585 5.08972C17.9709 3.72048 14.7381 3.58828 12.4925 5.45799C10.4986 7.11995 9.92752 10.5383 11.9795 12.3891C13.1216 13.4184 14.5929 13.7584 16.1028 13.5128C17.4579 13.2957 18.7743 12.238 19.1324 10.916C19.5777 9.2824 18.2032 7.49767 16.732 6.84611C15.2607 6.19454 13.6346 6.119 12.2796 6.98775C11.2245 7.66765 10.6728 9.10298 11.4084 10.2172C12.086 11.2465 13.5862 11.7942 14.7187 11.0671C14.8252 11.001 14.922 10.9444 15.0381 10.8971L14.4574 11.1332C14.6316 11.0671 14.7961 11.0199 14.98 11.001L14.3412 11.086C14.5251 11.0671 14.6994 11.0671 14.8833 11.086L14.2444 11.001C14.4574 11.0293 14.6606 11.086 14.8639 11.1615L14.2831 10.9255C14.4864 11.0105 14.6606 11.1143 14.8349 11.2371L14.3412 10.8688C14.4864 10.9821 14.6122 11.1049 14.7284 11.2465L14.3509 10.7649C14.438 10.8877 14.5154 11.0105 14.5832 11.1427L14.3412 10.5761C14.3896 10.6894 14.4283 10.7933 14.4574 10.916L14.4574 9.66011L14.4283 9.73566L14.6703 9.16908C14.6219 9.26351 14.5735 9.3485 14.5058 9.44293L14.8833 8.96133C14.8058 9.06521 14.709 9.15019 14.6122 9.22574L15.1059 8.85746C14.9994 8.933 14.8929 8.99911 14.7671 9.04632L15.3479 8.81025C15.1736 8.87635 14.9994 8.92356 14.8058 8.95189L15.4446 8.8669C15.2511 8.88579 15.0575 8.88579 14.8639 8.8669L15.5027 8.95189C15.2801 8.92356 15.0672 8.8669 14.8639 8.78192L15.4446 9.01799C15.2898 8.95189 15.1543 8.8669 15.0188 8.77247L15.5124 9.14075C15.4059 9.05576 15.3091 8.96133 15.222 8.8669L15.5995 9.34849C15.4834 9.20685 15.4059 9.05576 15.3285 8.89523L15.5705 9.46181C15.5124 9.30128 15.4737 9.15019 15.4446 8.98966L15.5318 9.6129C15.5124 9.4146 15.5027 9.22574 15.5318 9.02743L15.4446 9.65067C15.4834 9.38627 15.5511 9.13131 15.6576 8.88579L15.4156 9.45237C15.5318 9.19741 15.6769 8.97078 15.8415 8.75359L15.464 9.23518C15.6189 9.04632 15.7931 8.88579 15.9867 8.7347L15.493 9.10298C15.6963 8.95189 15.9092 8.82913 16.1415 8.72526L15.5608 8.96133C15.8899 8.82913 16.219 8.74415 16.5674 8.69693L15.9286 8.78192C16.3255 8.74415 16.7126 8.74415 17.1095 8.79136L16.4706 8.70637C17.003 8.78192 17.516 8.92356 18.0096 9.12186L17.4289 8.88579C17.7289 9.01799 18.0193 9.15019 18.2903 9.33905L17.7967 8.97078C17.9225 9.06521 18.029 9.15964 18.1258 9.28239L17.7483 8.8008C17.7967 8.85746 17.8354 8.92356 17.8644 8.98966L17.6225 8.42308C17.6612 8.51751 17.6902 8.6025 17.7193 8.70637L17.6321 8.08314C17.6418 8.17757 17.6515 8.26255 17.6321 8.35698L17.7193 7.73375C17.6999 7.85651 17.6709 7.96982 17.6225 8.09258L17.8644 7.526C17.8064 7.64876 17.7386 7.75263 17.6515 7.86595L18.029 7.38436C17.8644 7.58266 17.6805 7.75263 17.4773 7.91316L17.9709 7.54489C17.6321 7.7904 17.2643 7.98871 16.8772 8.14924L17.4579 7.91316C16.7029 8.21534 15.9189 8.43253 15.1059 8.54584L15.7447 8.46086C15.2414 8.52696 14.7381 8.54584 14.2347 8.48918L14.8736 8.57417C14.5638 8.5364 14.2638 8.46086 13.9637 8.3381L14.5445 8.57417C14.3703 8.49863 14.2154 8.4042 14.0605 8.30033L14.5542 8.6686C14.4283 8.57417 14.3219 8.46086 14.2154 8.3381L14.5929 8.81969C14.4767 8.6686 14.3799 8.50807 14.3025 8.32865L14.5445 8.89523C14.4767 8.71582 14.4283 8.54584 14.3993 8.35698L14.4864 8.98022C14.4671 8.8008 14.4671 8.63083 14.4864 8.45141L14.3993 9.07465C14.4283 8.90468 14.4767 8.7347 14.5348 8.57417L14.2928 9.14075C14.3896 8.91412 14.5154 8.71582 14.6606 8.52696L14.2831 9.00855C14.5154 8.72526 14.7768 8.47974 15.0575 8.26255L14.5638 8.63083C15.1059 8.22478 15.706 7.90372 16.3351 7.63932L15.7544 7.87539C16.0738 7.74319 16.4029 7.62043 16.7417 7.51656L14.8736 7.28048L14.9413 7.3277L14.4477 6.95942C14.6026 7.08218 14.7381 7.21438 14.8639 7.36547L14.4864 6.88388C14.6219 7.05385 14.7284 7.24271 14.8155 7.44101L14.5735 6.87444C14.6703 7.10107 14.7284 7.33714 14.7671 7.57322L14.68 6.94998C14.7187 7.25216 14.7187 7.55433 14.68 7.85651L14.7671 7.23327C14.7284 7.50712 14.651 7.77152 14.5445 8.02648L14.7865 7.4599C14.68 7.71486 14.5348 7.94149 14.3703 8.16812L14.7477 7.68653C14.6122 7.85651 14.4574 8.00759 14.2831 8.13979L14.7768 7.77152C14.6219 7.88483 14.4574 7.97926 14.2735 8.05481L14.8542 7.81873C14.7768 7.84706 14.6993 7.87539 14.6122 7.90372C13.412 8.272 12.5119 9.56568 12.9184 10.8122C13.3055 11.9925 14.6026 12.8613 15.8996 12.4647L15.9383 12.4741Z" fill="#D9D9D9"/>
</g>
<defs>
<clipPath id="clip0_16_367">
<rect width="89" height="89" fill="white" transform="translate(72) rotate(90)"/>
</clipPath>
</defs>
</svg>
