<svg width="121" height="115" viewBox="0 0 121 115" fill="none" xmlns="http://www.w3.org/2000/svg">
<g clip-path="url(#clip0_1_567)">
<path d="M46.4001 11.99C40.4101 37.17 35.2601 62.55 30.9701 88.08C29.7501 95.35 28.6001 102.63 27.5101 109.92C26.8501 114.36 36.5901 112.82 37.2401 108.97L40.8601 87.45C41.2401 85.19 38.1601 84.56 36.5201 84.76C34.5501 85 31.5201 86.09 31.1301 88.4L27.5101 109.92L37.2401 108.97C41.0501 83.37 45.7001 57.89 51.2201 32.6C52.7901 25.4 54.4301 18.21 56.1401 11.04C56.6801 8.79003 53.3301 8.17003 51.8001 8.35003C49.6901 8.61003 46.9601 9.67003 46.4101 11.99H46.4001Z" fill="#EDEDED"/>
<path d="M80.6901 26.52C80.0401 19.45 80.7101 12.33 82.5801 5.48999L74.1201 0.169993C69.7201 27.25 65.0101 54.28 59.9901 81.25C58.5701 88.89 57.1201 96.52 55.6601 104.15L64.1201 109.15L63.1801 96.99C63.1401 96.47 61.8301 95.49 61.5501 95.27C60.5701 94.47 59.4501 93.74 58.3401 93.14C57.8501 92.87 54.6401 91.1 54.7401 92.31L55.6801 104.47C55.7201 104.98 57.0401 105.97 57.3101 106.19C58.1501 106.85 59.0301 107.44 59.9501 107.99C60.2901 108.19 64.0001 110.21 64.1401 109.47C69.3301 82.53 74.2101 55.53 78.7901 28.49C80.0901 20.83 81.3601 13.17 82.6001 5.49999C82.6801 4.97999 82.0301 4.41999 81.7301 4.12999C80.9001 3.32999 79.8701 2.60999 78.8901 1.99999C78.5501 1.78999 74.3601 -0.660007 74.1301 0.179993C72.2001 7.23999 71.5901 14.56 72.2601 21.85C72.3101 22.38 73.6101 23.34 73.8901 23.57C74.8701 24.37 75.9901 25.1 77.1001 25.7C77.5801 25.96 80.8101 27.74 80.7001 26.53L80.6901 26.52Z" fill="#EDEDED"/>
<path d="M5.26007 58.18L0.810068 59.82C-1.09993 60.52 0.850068 62.15 1.74007 62.57C3.70007 63.48 6.16007 63.78 8.27007 63.28C36.5701 56.57 64.9001 51.19 93.5401 47.14C101.6 46 109.67 44.97 117.75 44.03L113.21 39.91L104.04 41.31C102.83 41.49 100.28 42.25 101.9 43.8C103.4 45.24 106.62 45.72 108.59 45.42L117.76 44.02C118.97 43.84 121.52 43.08 119.9 41.53C118.28 39.98 115.23 39.68 113.21 39.91C83.9201 43.3 54.7901 48.03 25.9401 54.08C17.8201 55.78 9.72007 57.6 1.64007 59.51L9.10007 62.97L13.5501 61.33C15.7001 60.54 13.0801 58.71 12.1401 58.36C9.94007 57.56 7.48007 57.35 5.26007 58.17V58.18Z" fill="#EDEDED"/>
<path d="M25 80.62C48.09 74.63 71.46 69.73 95.02 66C101.68 64.94 108.36 63.98 115.05 63.1C116.49 62.91 114.24 59.84 113.99 59.47C111.22 55.45 107.18 51.32 102.04 50.87C100.57 50.74 102.88 54.2 103.1 54.5C103.85 55.54 104.66 56.56 105.61 57.42C106.13 57.89 106.87 58.7 107.6 58.76C108.64 58.85 109.68 59.05 110.63 59.51C110.88 59.63 111.52 60 111.54 60.02C112.01 60.3 111.74 60.18 111.46 59.9C111.34 59.78 109.92 57.92 110.55 58.84L109.49 55.21C85.68 58.33 62.02 62.58 38.62 67.97C31.97 69.5 25.34 71.13 18.73 72.84C17.75 73.09 20.68 77.15 20.95 77.47C21.72 78.4 23.54 81 25.01 80.62H25Z" fill="#EDEDED"/>
</g>
<defs>
<clipPath id="clip0_1_567">
<rect width="120.42" height="114.3" fill="white"/>
</clipPath>
</defs>
</svg>
