<?xml version="1.0" encoding="utf-8"?>
<!-- Generator: Adobe Illustrator 19.1.0, SVG Export Plug-In . SVG Version: 6.00 Build 0)  -->
<svg version="1.1" id="Layer_1" xmlns="http://www.w3.org/2000/svg" xmlns:xlink="http://www.w3.org/1999/xlink" x="0px" y="0px"
	 viewBox="-448 171 1691.2 500" style="enable-background:new -448 171 1691.2 500;" xml:space="preserve">
<path d="M-330.9,489.8V348.3h15.9v60l18.5-60h16.8l-21.5,66.8l24.1,74.5H-294l-21-68.4v68.4h-15.9V489.8z"/>
<path d="M-232.6,348.3h15.9v141.6h-15.9V348.3z"/>
<path d="M-153.1,489.8V363.2h-18.7v-15h53v15h-18.7v126.6H-153.1z"/>
<path d="M-46.1,473.3c1.4-2.3,1.6-6.3,1.6-13.5v-23.4h15.9v23.8c0,12.1-2.3,18.7-4.7,22.2c-2.6,3.7-8.2,9.3-19.2,9.3
	c-10.3,0-16.1-5.4-18.9-9.6c-5.4-7.9-5.4-19.2-5.4-26.4v-77.3c0-8.2,0.2-16.4,5.4-23.4c2.8-3.7,8.9-8.9,19.9-8.9
	c6.8,0,13.3,2.3,17.8,8.2c5.8,7.9,5.4,19.2,5.4,25.9v15.7h-15.2v-21.3c0-3.3,0-7.9-2.3-10.7c-1.2-1.4-3.3-2.8-6.5-2.8
	c-3.3,0-5.4,1.4-6.5,2.8c-2.3,2.8-2.3,7.5-2.3,10.7v85c0,7.2,0.2,11.2,1.6,13.5c0.7,1.2,2.6,3.7,6.8,3.7
	C-48.7,476.8-46.6,474.4-46.1,473.3z"/>
<path d="M36.1,420.7v68.9H20.2V348.3h15.9V406h17.1v-57.7H69v141.6H53.1v-69.1H36.1z"/>
<path d="M119.7,348.3h41.6v15h-25.9v44.4H152v15h-16.6v52.3h25.9v15h-41.6V348.3z"/>
<path d="M223,381.4l-0.7,0.2l0.7,12.8v95.3h-15.9V348.3h22.4l18.7,105.1h0.7l-0.9-11.9v-93.2h15.9v141.6h-21L223,381.4z"/>
<path d="M407,473.3c1.4-2.3,1.6-6.3,1.6-13.5v-23.4h15.9v23.8c0,12.1-2.3,18.7-4.7,22.2c-2.6,3.7-8.2,9.3-19.2,9.3
	c-10.3,0-16.1-5.4-18.9-9.6c-5.4-7.9-5.4-19.2-5.4-26.4v-77.3c0-8.2,0.2-16.4,5.4-23.4c2.8-3.7,8.9-8.9,19.9-8.9
	c6.8,0,13.3,2.3,17.8,8.2c5.8,7.9,5.4,19.2,5.4,25.9v15.7h-15.2v-21.3c0-3.3,0-7.9-2.3-10.7c-1.2-1.4-3.3-2.8-6.5-2.8
	s-5.4,1.4-6.5,2.8c-2.3,2.8-2.3,7.5-2.3,10.7v85c0,7.2,0.2,11.2,1.6,13.5c0.7,1.2,2.6,3.7,6.8,3.7C404.5,477,406.6,474.4,407,473.3z
	"/>
<path d="M473.4,348.3H515v15H489v44.4h16.6v15H489v52.3H515v15h-41.6V348.3z"/>
<path d="M594.6,489.8c-2.1-4-2.8-8.2-2.8-16.8v-34.1c0-3.7-0.2-7.7-2.1-10.3c-1.6-2.3-4.9-4-8.4-4h-4.4v65.2H561V348.3h23.8
	c5.1,0,14,0.9,19.6,9.3c4.2,6.3,4.4,14.7,4.4,18.7v17.1c0,5.6-0.5,12.8-4,17.5c-2.1,2.6-5.4,4.7-9.6,5.4v0.7
	c3.7,1.2,5.8,3.3,6.8,4.4c5.4,5.8,5.4,13.5,5.4,18v30.4c0,9.1,0,14,4.4,18.9v0.9h-17.3V489.8z M582.7,409.7c2.3,0,6.5-0.2,8.9-3.7
	c0.7-0.9,2.1-3.5,2.1-11v-19.4c0-3,0-7-2.3-9.8c-2.6-2.8-7-2.8-9.3-2.8h-5.4v46.5h6.1V409.7z"/>
<path d="M657.7,348.3h41.6v15h-25.7v44.4h16.6v15h-16.6v52.3h25.9v15h-41.6V348.3H657.7z"/>
<path d="M776.1,489.8l-15.9-114.7h-0.7l1.4,18.7v95.8h-15.9V348.3h24.3l12.1,90.9h0.5l12.1-90.9h24.3v141.6h-15.9v-95.8l1.4-18.7
	h-0.7l-15.9,114.7h-11.2V489.8z"/>
<path d="M874.2,483.5c-5.8-7.5-5.4-17.5-5.4-24.8v-79.4c0-7.2-0.7-17.3,5.4-24.8c2.3-2.8,7.7-8.2,18.7-8.2c11.2,0,16.6,5.4,18.7,8.2
	c5.8,7.5,5.4,17.5,5.4,24.8v79.2c0,7.2,0.7,17.3-5.4,24.8c-2.3,2.8-7.7,8.2-18.7,8.2C882,491.7,876.3,486.3,874.2,483.5z M884.8,462
	c0,7,0.5,9.6,1.2,11c0.9,2.1,3.5,3.7,7,3.7c3.7,0,6.1-1.9,7-3.7c0.7-1.4,1.2-3.7,1.2-11v-86.2c0-7-0.5-9.6-1.2-11
	c-0.9-2.1-3.5-3.7-7-3.7c-3.7,0-6.1,1.9-7,3.7c-0.7,1.4-1.2,3.7-1.2,11V462z"/>
<path d="M982.9,381.4l-0.7,0.2l0.7,12.8v95.3H967V348.3h22.4l18.7,105.1h0.7l-0.9-11.9v-93.2h15.9v141.6h-21L982.9,381.4z"/>
<path d="M1090.6,489.8v-59.3l-21.7-82.2h16.1l12.1,55.1l0.5,5.1h0.7l0.5-5.1l12.1-55.1h16.1l-21.7,82.2v59.3
	C1105.3,489.8,1090.6,489.8,1090.6,489.8z"/>
</svg>
