<svg width="192" height="192" viewBox="0 0 192 192" fill="none" xmlns="http://www.w3.org/2000/svg">
<g clip-path="url(#clip0_514_2103)">
<g clip-path="url(#clip1_514_2103)">
<path d="M163.877 163.878C201.366 126.389 201.366 65.6064 163.877 28.117C126.388 -9.37233 65.6054 -9.37233 28.116 28.117C-9.37339 65.6064 -9.37339 126.389 28.116 163.878C65.6054 201.367 126.388 201.367 163.877 163.878Z" fill="#131313"/>
<path fill-rule="evenodd" clip-rule="evenodd" d="M160.957 126.259C163.219 125.093 165.526 123.799 167.568 122.658C156.82 151.188 129.343 171.636 97.0797 171.847C85.2624 171.933 73.5888 169.254 62.9908 164.025C52.3928 158.797 43.1639 151.163 36.0409 141.734C37.5608 141.242 39.2038 140.706 40.8073 140.219C48.3319 149.713 58.1567 157.129 69.3503 161.763C80.544 166.396 92.7355 168.095 104.769 166.696C116.803 165.298 128.281 160.85 138.114 153.773C147.947 146.696 155.809 137.226 160.957 126.259ZM169.703 107.896C169.967 107.095 170.067 106.249 169.997 105.408C169.927 104.567 169.688 103.749 169.294 103.002C167.701 100.198 162.698 96.9518 153.834 97.0157L133.347 97.1633C133.098 97.1607 132.857 97.0701 132.668 96.9075C131.463 95.8893 130.597 95.0383 129.835 94.6399C129.751 94.5955 129.68 94.5307 129.627 94.4515C129.575 94.3724 129.544 94.2813 129.536 94.1868C129.528 94.0922 129.544 93.9972 129.582 93.9105C129.621 93.8238 129.681 93.7482 129.756 93.6906C130.342 93.1891 130.885 92.6396 131.379 92.0476C131.473 91.9439 131.588 91.8612 131.716 91.8053C131.844 91.7493 131.982 91.7212 132.122 91.723L147.833 91.6099C148.227 91.6099 155.118 91.5262 155.58 91.4918C165.28 90.7736 167.504 84.8857 167.499 83.7544C167.494 82.623 167.637 81.6441 166.422 79.8537C164.503 76.981 160.627 74.497 159.255 73.8624C159.255 73.4984 158.832 73.6361 158.468 73.4443C156.147 72.2545 153.762 71.1921 151.326 70.2618C143.327 67.1432 130.956 63.7836 121.409 61.1224C120.956 61.029 120.479 60.9158 119.962 60.7781C119.811 60.7374 119.653 60.732 119.499 60.7623C119.345 60.7927 119.201 60.8578 119.076 60.9529C118.952 61.0479 118.851 61.1703 118.781 61.3106C118.711 61.4508 118.674 61.6052 118.674 61.7619L118.88 91.1376C125.354 89.4062 126.972 84.9939 126.967 84.0298C126.967 82.9673 127.105 81.9147 125.89 80.1291C124.532 78.0927 122.191 76.2579 120.454 75.1315V71.3439C120.524 70.7521 120.797 70.2028 121.227 69.7896L121.61 69.5928C124.96 71.5604 129.19 74.5855 130.587 77.3007C132.181 79.7602 132.422 81.7278 132.437 83.9905C132.452 86.2532 130.961 90.1489 127.144 93.115C127.008 93.2185 126.9 93.3542 126.83 93.5098C126.759 93.6655 126.729 93.8363 126.741 94.0067C126.753 94.1771 126.808 94.3417 126.9 94.4858C126.992 94.6298 127.118 94.7487 127.267 94.8317C131.084 96.8879 132.875 99.4408 133.524 100.582C134.272 101.964 134.737 103.482 134.89 105.047C135.044 106.611 134.884 108.19 134.419 109.692C134.008 111.113 133.374 112.459 132.54 113.681C131.099 115.772 127.08 119.53 124.144 121.148C123.652 121.448 123.125 121.733 122.638 121.989C122.151 122.245 121.551 122.545 120.932 122.84L120.887 116.746C123.408 115.49 125.63 113.707 127.4 111.517C128.219 110.541 128.826 109.405 129.181 108.182C129.449 107.377 129.552 106.526 129.482 105.68C129.411 104.835 129.17 104.012 128.772 103.263C127.179 100.464 122.176 97.2174 113.312 97.2764L94.1677 97.4142C93.9186 97.4151 93.6775 97.326 93.4889 97.1633C92.2838 96.1402 91.4131 95.2892 90.6556 94.8957C90.5718 94.8513 90.5004 94.7865 90.4482 94.7073C90.396 94.6281 90.3645 94.5371 90.3566 94.4425C90.3488 94.348 90.3649 94.253 90.4033 94.1663C90.4418 94.0796 90.5015 94.0039 90.5769 93.9463C91.161 93.4446 91.7023 92.895 92.1952 92.3034C92.2949 92.1997 92.415 92.1178 92.5479 92.0628C92.6808 92.0078 92.8237 91.9808 92.9675 91.9837L107.336 91.8853C107.621 91.8853 111.271 91.841 113.474 91.8017L113.327 71.5505C112.54 71.216 111.713 70.8766 110.828 70.5323C102.417 67.2563 90.5031 63.695 80.7932 60.9749C80.641 60.9325 80.4811 60.9258 80.3259 60.9553C80.1708 60.9848 80.0245 61.0496 79.8984 61.1447C79.7723 61.2399 79.6699 61.3628 79.599 61.504C79.5281 61.6451 79.4907 61.8007 79.4897 61.9586L79.6913 90.1735C79.6897 90.3357 79.7267 90.496 79.7992 90.6411C79.8717 90.7862 79.9776 90.912 80.1083 91.0081C80.239 91.1042 80.3907 91.1679 80.5508 91.1938C80.7109 91.2197 80.8749 91.2072 81.0293 91.1573C86.7844 89.2832 88.2552 85.2251 88.2503 84.3053C88.2503 82.4361 88.5503 79.5585 82.0131 75.5545C81.864 75.4618 81.7408 75.3329 81.6548 75.1799C81.5688 75.0268 81.5228 74.8545 81.5212 74.679L81.4966 70.7438C81.4947 70.5648 81.5399 70.3883 81.6275 70.2322C81.7152 70.0761 81.8423 69.9457 81.9962 69.854C82.1501 69.7624 82.3253 69.7128 82.5043 69.7101C82.6834 69.7074 82.86 69.7518 83.0165 69.8387C92.4559 75.0282 93.666 79.711 93.7004 84.2512C93.7004 86.627 92.1362 90.6457 88.0437 93.6414C87.9053 93.7458 87.7955 93.8835 87.7247 94.0418C87.6538 94.2 87.6241 94.3736 87.6384 94.5464C87.6526 94.7191 87.7103 94.8855 87.8061 95.03C87.9019 95.1745 88.0327 95.2924 88.1863 95.3728C91.1377 96.937 93.302 98.8898 94.4137 100.843C95.194 102.265 95.6829 103.828 95.8519 105.441C96.0208 107.054 95.8663 108.685 95.3974 110.238C94.03 114.916 90.1588 118.959 83.897 122.255C83.6166 122.407 83.7544 122.255 83.4346 122.427C83.2792 122.503 83.1069 122.539 82.9338 122.531C82.7607 122.523 82.5925 122.471 82.445 122.38C82.2975 122.289 82.1756 122.162 82.0905 122.011C82.0055 121.86 81.9602 121.69 81.959 121.517L81.9294 117.695C81.9295 117.509 81.9798 117.327 82.0751 117.168C82.1704 117.008 82.307 116.878 82.4705 116.79C86.8975 114.33 89.2881 111.723 90.1686 108.708C90.4379 107.857 90.5331 106.961 90.4486 106.073C90.3641 105.185 90.1016 104.323 89.6767 103.538C88.2847 101.079 82.3328 97.4929 73.9706 97.5519L40.158 97.7929C39.8862 97.7955 39.6265 97.9057 39.4357 98.0992C39.2449 98.2928 39.1385 98.5541 39.1398 98.8259L39.3513 131.379C39.3505 131.542 39.3882 131.702 39.4613 131.847C39.5344 131.992 39.6408 132.118 39.7718 132.214C39.9028 132.31 40.0547 132.373 40.215 132.399C40.3754 132.425 40.5396 132.413 40.6942 132.363C51.2748 128.92 64.7034 124.429 73.7936 120.813C73.9895 120.736 74.1567 120.6 74.2721 120.424C74.3875 120.248 74.4455 120.04 74.4379 119.83L74.3002 100.346C74.2989 100.209 74.325 100.073 74.377 99.946C74.429 99.8191 74.5058 99.704 74.603 99.6072C74.7002 99.5105 74.8157 99.4342 74.9428 99.3828C75.0699 99.3314 75.2059 99.306 75.343 99.308C76.5226 99.3257 77.7001 99.4111 78.8699 99.5637C79.1137 99.597 79.3373 99.7175 79.4991 99.9029C79.661 100.088 79.7503 100.326 79.7504 100.572L79.9668 130.774C79.9646 130.938 80.0016 131.099 80.0747 131.245C80.1477 131.391 80.2547 131.518 80.3866 131.614C80.5186 131.711 80.6717 131.774 80.8331 131.799C80.9946 131.824 81.1597 131.81 81.3146 131.758C91.8509 128.241 104.994 123.696 113.656 120.125L113.514 99.5047C113.512 99.4206 113.528 99.3371 113.56 99.2593C113.592 99.1816 113.64 99.1113 113.701 99.0527C113.761 98.9941 113.833 98.9486 113.911 98.9189C113.99 98.8892 114.074 98.876 114.158 98.88C115.752 98.9341 117.528 99.0915 118.585 99.6228C118.691 99.6731 118.781 99.7525 118.844 99.8518C118.906 99.9511 118.94 100.066 118.939 100.184L119.156 130.833C119.156 130.995 119.194 131.155 119.268 131.3C119.341 131.444 119.448 131.569 119.578 131.665C119.709 131.761 119.86 131.824 120.02 131.851C120.18 131.877 120.344 131.866 120.499 131.817C132.83 128.374 151.616 121.31 154.931 119.603C158.246 117.897 160.755 116.854 160.794 116.834C162.6 115.85 165.098 114.684 167.912 111.271C168.729 110.294 169.336 109.158 169.693 107.936L169.703 107.896ZM38.8594 61.9783C38.8599 61.8211 38.8965 61.6662 38.9666 61.5254C39.0366 61.3847 39.1381 61.262 39.2632 61.1669C39.3884 61.0717 39.5337 61.0067 39.688 60.9768C39.8424 60.9469 40.0015 60.953 40.1531 60.9945C50.414 63.7442 63.3163 67.458 72.0621 70.8619C72.554 71.0488 73.0164 71.2406 73.4689 71.4276C73.6559 71.5036 73.816 71.6335 73.929 71.8008C74.042 71.9681 74.1027 72.1652 74.1034 72.3671L74.2363 91.1475C74.2376 91.4193 74.1312 91.6806 73.9404 91.8741C73.7496 92.0677 73.4898 92.1779 73.218 92.1804L40.1039 92.4166C39.969 92.4185 39.835 92.3936 39.7097 92.3433C39.5845 92.293 39.4705 92.2183 39.3744 92.1236C39.2783 92.0289 39.2019 91.9159 39.1498 91.7914C39.0977 91.6669 39.0709 91.5333 39.0709 91.3983L38.8594 61.9783ZM174.051 100.346C173.402 99.2096 171.591 96.6517 167.794 94.5956C167.645 94.5126 167.518 94.3937 167.427 94.2497C167.335 94.1056 167.28 93.9409 167.268 93.7705C167.256 93.6002 167.286 93.4294 167.357 93.2737C167.427 93.1181 167.535 92.9824 167.671 92.8789C171.493 89.9276 172.979 86.0613 172.964 83.7544C172.949 81.4474 172.703 79.5142 171.114 77.0695C169.235 73.4246 162.26 69.2436 159.156 67.7236C157.43 66.8923 155.502 66.0512 153.323 65.2051C139.205 59.6861 115.103 53.6162 107.114 51.6043L105.457 51.1813C105.326 51.1475 105.19 51.1399 105.057 51.159C104.923 51.1781 104.795 51.2235 104.679 51.2926C104.563 51.3617 104.462 51.4531 104.382 51.5615C104.302 51.6699 104.244 51.7931 104.212 51.9241L103.386 55.2197C103.32 55.4832 103.361 55.762 103.501 55.9951C103.64 56.2283 103.865 56.3969 104.129 56.4642C105.604 56.8331 108.585 57.6103 112.466 58.6482C112.683 58.7063 112.875 58.8339 113.013 59.0116C113.151 59.1893 113.226 59.4072 113.229 59.632V60.5223L113.268 65.6577L112.776 65.4658C97.4437 59.4992 71.6883 52.839 66.2283 51.4518C66.0974 51.4187 65.9614 51.4119 65.8279 51.4316C65.6944 51.4513 65.5661 51.4972 65.4504 51.5667C65.3348 51.6362 65.234 51.7279 65.1539 51.8365C65.0738 51.9451 65.016 52.0685 64.9838 52.1995L64.1574 55.4952C64.1243 55.6254 64.1173 55.7608 64.1367 55.8937C64.1562 56.0266 64.2017 56.1544 64.2708 56.2696C64.3398 56.3848 64.431 56.4852 64.539 56.5651C64.647 56.6449 64.7698 56.7026 64.9002 56.7348C66.3758 57.1086 69.3567 57.8809 73.2377 58.9237C73.4549 58.9817 73.647 59.1094 73.7847 59.2871C73.9224 59.4648 73.9981 59.6827 74.0002 59.9075L74.0395 65.7511C65.3183 62.3571 52.8882 58.7466 42.7405 56.0068L40.5368 55.3919C37.7388 59.1349 35.3617 63.1747 33.4486 67.4383L33.8913 129.731C28.3618 119.523 25.4323 108.109 25.3619 96.4993C25.0865 57.2562 56.7889 25.0865 96.0369 24.8208C109.683 24.7383 123.065 28.5744 134.595 35.8735C146.125 43.1725 155.317 53.6277 161.08 65.9971C163.443 67.3126 165.732 68.7577 167.937 70.3257C157.322 40.8959 129.018 19.8921 96.0025 20.1528C83.6902 20.2394 71.5841 23.323 60.7307 29.1371C49.8773 34.9512 40.603 43.3208 33.7093 53.5227C29.966 52.5389 27.0786 51.7765 25.6275 51.4076C25.3648 51.3415 25.0866 51.3812 24.8529 51.5183C24.6191 51.6554 24.4487 51.8789 24.3781 52.1405L23.5567 55.4362C23.5235 55.566 23.5163 55.7011 23.5354 55.8338C23.5545 55.9664 23.5997 56.094 23.6682 56.2091C23.7368 56.3243 23.8274 56.4248 23.9349 56.5049C24.0423 56.5849 24.1646 56.643 24.2945 56.6757C25.5046 56.9856 27.7378 57.5661 30.6891 58.3432C23.9662 70.0745 20.5093 83.3929 20.6779 96.913C20.8466 110.433 24.6348 123.661 31.6483 135.221L25.2537 137.223C25.1252 137.264 25.0062 137.33 24.9034 137.418C24.8006 137.505 24.7162 137.612 24.6549 137.733C24.5936 137.853 24.5568 137.984 24.5464 138.119C24.5361 138.253 24.5524 138.388 24.5946 138.517L25.5784 141.763C25.6172 141.892 25.6811 142.012 25.7665 142.117C25.8518 142.221 25.9569 142.307 26.0758 142.371C26.1946 142.434 26.3248 142.474 26.4589 142.487C26.593 142.5 26.7284 142.486 26.8573 142.447C32.2189 140.789 57.0938 133.047 73.0951 126.908C73.2501 126.849 73.4171 126.829 73.5817 126.849C73.7463 126.868 73.9036 126.928 74.0404 127.021C74.1771 127.115 74.2892 127.241 74.3669 127.387C74.4447 127.533 74.486 127.696 74.4871 127.862L74.5265 133.229C74.5271 133.446 74.459 133.659 74.3318 133.836C74.2046 134.012 74.0248 134.144 73.8182 134.213C69.8584 135.506 66.8136 136.48 65.3379 136.952C65.0858 137.038 64.8766 137.218 64.7546 137.455C64.6326 137.692 64.6072 137.966 64.6837 138.221L65.7069 141.458C65.7472 141.586 65.8124 141.705 65.8987 141.809C65.9851 141.912 66.0909 141.997 66.2101 142.059C66.3294 142.121 66.4597 142.159 66.5936 142.171C66.7275 142.182 66.8625 142.168 66.9907 142.127C72.4507 140.396 98.1373 132.161 113.72 125.949L113.77 133.18C113.772 133.398 113.704 133.612 113.576 133.79C113.447 133.967 113.265 134.098 113.056 134.163L105.107 136.657C104.849 136.738 104.632 136.918 104.506 137.157C104.38 137.397 104.354 137.677 104.433 137.936L105.417 141.188C105.456 141.316 105.52 141.435 105.605 141.539C105.69 141.643 105.795 141.729 105.913 141.792C106.032 141.855 106.161 141.894 106.295 141.907C106.428 141.92 106.563 141.906 106.691 141.866C112.043 140.214 142.107 130.819 153.136 126.101C160.283 123.042 161.965 122.102 164.685 120.868C167.637 119.249 171.641 115.486 173.082 113.401C173.915 112.178 174.549 110.832 174.961 109.411C175.425 107.908 175.584 106.327 175.429 104.761C175.275 103.195 174.809 101.676 174.061 100.292L174.051 100.346ZM118.32 38.8594L119.953 39.5087C120.123 39.5608 120.28 39.6476 120.414 39.7636C120.549 39.8796 120.658 40.0223 120.735 40.1826C120.838 40.5197 120.81 40.8836 120.656 41.2008C120.599 41.3416 120.514 41.4688 120.404 41.5739C120.295 41.679 120.164 41.7598 120.022 41.8108C119.651 41.8978 119.263 41.8561 118.92 41.6927L117.419 41.0926L118.344 38.7807L118.32 38.8594ZM119.697 35.4162L120.794 35.854C121.188 35.9723 121.534 36.2158 121.778 36.5475C121.855 36.6939 121.895 36.8568 121.895 37.0222C121.895 37.1876 121.855 37.3505 121.778 37.4969C121.728 37.6456 121.644 37.7803 121.532 37.8898C121.42 37.9993 121.283 38.0805 121.133 38.1265C120.751 38.1803 120.361 38.1096 120.022 37.9248L118.861 37.4575L119.707 35.3522L119.697 35.4162ZM114.502 40.3351L115.486 40.5269L117.892 34.5209L117.07 33.9405L117.562 32.7747L121.433 34.3242C122.292 34.6132 123.043 35.155 123.588 35.8786C123.794 36.1981 123.915 36.5648 123.941 36.9442C123.967 37.3235 123.896 37.7033 123.735 38.0478C123.588 38.4473 123.319 38.7911 122.968 39.0316C122.675 39.2286 122.336 39.3456 121.984 39.371C122.338 39.6388 122.591 40.0184 122.702 40.4482C122.821 40.9406 122.778 41.458 122.579 41.9239C122.457 42.2957 122.248 42.6329 121.969 42.9076C121.69 43.1822 121.349 43.3863 120.976 43.5029C120.726 43.5733 120.468 43.608 120.208 43.6062C119.579 43.5933 118.958 43.4597 118.379 43.2127L114.104 41.5009L114.571 40.3351H114.502ZM126.736 42.8782L129.048 40.8122L128.384 43.7783L126.756 42.7946L126.736 42.8782ZM127.164 46.3214L127.749 46.5378L128.01 45.3917L125.55 43.9161L124.67 44.6982L125.162 45.1015L124.527 46.1837L121.689 44.5113L122.328 43.4291L122.958 43.6898L129.417 38.2003L131.138 39.2185L129.471 47.5266L130.002 47.9545L129.367 49.0367L126.529 47.3642L127.164 46.2821V46.3214ZM62.3177 48.5792L63.0408 47.8905L59.5976 42.4306L58.6679 42.7995L57.994 41.737L61.3438 39.6071L61.9783 40.6696L61.2454 41.3582L64.6641 46.7297L66.7251 45.4213L66.1791 44.3981L67.4973 43.557L68.9042 45.7705L63.0015 49.6564L62.3325 48.6038L62.3177 48.5792ZM56.2429 49.9417L57.5857 48.8055C57.7134 48.676 57.8671 48.5753 58.0368 48.51C58.2064 48.4447 58.388 48.4163 58.5695 48.4267C58.9175 48.4939 59.227 48.6908 59.4352 48.9776C59.5513 49.0944 59.6387 49.2364 59.6908 49.3925C59.7428 49.5487 59.7581 49.7148 59.7353 49.8778C59.6416 50.247 59.4225 50.5721 59.1155 50.7976L57.8809 51.8454L56.2675 49.9417H56.2429ZM53.8474 47.1134L54.7524 46.3509C55.0419 46.0674 55.414 45.8831 55.8149 45.8246C55.981 45.8194 56.1457 45.8564 56.2937 45.9321C56.4416 46.0078 56.568 46.1197 56.661 46.2575C56.7708 46.3689 56.8513 46.5059 56.8951 46.6562C56.9389 46.8065 56.9446 46.9652 56.9118 47.1183C56.8013 47.4861 56.5754 47.8085 56.2675 48.0381L55.3181 48.8448L53.8424 47.1134H53.8474ZM56.597 54.9836L55.7854 54.0294L56.4101 53.2522L52.229 48.3333L51.3633 48.8251L50.5468 47.8414L53.7293 45.1458C54.3874 44.5218 55.2192 44.1119 56.115 43.9702C56.4911 43.9386 56.8691 44.0033 57.2134 44.1582C57.5576 44.3131 57.8567 44.5531 58.0825 44.8556C58.3409 45.1478 58.5094 45.5084 58.5679 45.8941C58.6263 46.2797 58.5722 46.6741 58.4121 47.0297C58.8135 46.844 59.2658 46.799 59.6959 46.9018C60.1768 47.0289 60.6054 47.3043 60.9208 47.6889C61.1925 47.9714 61.3927 48.3148 61.5048 48.6904C61.6169 49.0661 61.6376 49.463 61.5651 49.8483C61.3261 50.7117 60.807 51.4712 60.0895 52.0077L56.5774 54.959L56.597 54.9836ZM86.3122 31.9188C86.7061 31.8249 87.1198 31.8594 87.4927 32.0172C87.6333 32.1025 87.7513 32.2203 87.8368 32.3607C87.9224 32.5011 87.9731 32.6599 87.9846 32.8239C88.0182 32.977 88.0148 33.1358 87.9745 33.2873C87.9343 33.4387 87.8585 33.5783 87.7534 33.6946C87.4689 33.953 87.1081 34.1118 86.7254 34.1471L85.4957 34.3488L85.1317 32.1058L86.3024 31.9188H86.3122ZM88.9438 36.5721C88.9819 36.733 88.9826 36.9004 88.946 37.0615C88.9093 37.2227 88.8362 37.3733 88.7323 37.5018C88.4706 37.7739 88.1232 37.9476 87.7485 37.9937L86.1499 38.2495L85.7514 35.79L87.4878 35.5096C87.6602 35.4663 87.8397 35.4592 88.015 35.4888C88.1903 35.5185 88.3575 35.5842 88.506 35.6818C88.7675 35.9189 88.9307 36.2453 88.9635 36.5967L88.9438 36.5721ZM83.4346 40.2564L83.233 39.0217L84.1725 38.6774L83.1395 32.2828L82.1557 32.2484L81.9442 30.9892L86.081 30.3448C86.9658 30.1523 87.8881 30.2311 88.7274 30.5711C89.0692 30.7374 89.363 30.9882 89.5807 31.2999C89.7985 31.6115 89.9332 31.9735 89.9719 32.3517C90.0433 32.767 89.9867 33.1942 89.8095 33.5765C89.659 33.9038 89.4228 34.1842 89.1258 34.3881C89.5565 34.4358 89.9594 34.6243 90.2719 34.9243C90.6194 35.2815 90.845 35.7395 90.9163 36.2327C91.0029 36.6144 90.9973 37.0112 90.8997 37.3901C90.8022 37.7691 90.6156 38.1194 90.3555 38.4118C89.7059 39.0274 88.8702 39.4098 87.9797 39.4989L83.4346 40.2318V40.2564ZM91.6295 37.7379L92.6133 37.5215L92.4756 31.0482L91.4918 30.8809L91.4623 29.6217L95.4269 29.5135L95.4565 30.7727L94.4432 30.9892L94.5907 37.3247L97.0502 37.2657L97.1092 36.1098L98.6734 36.0704L98.6292 38.7119L91.6591 38.9676L91.6295 37.7182V37.7379ZM70.6602 40.6155L70.311 37.5313L72.3867 39.8432L70.6602 40.6204V40.6155ZM74.2363 43.3947L73.7444 42.2535L74.2363 41.8993L73.4492 41.0237L70.8324 42.1895L70.9652 43.3553L71.5702 43.2077L72.0621 44.3489L69.0616 45.6967L68.5697 44.5506L69.1452 44.1866L68.4221 35.7359L70.2519 34.9243L70.2913 34.9636L76.0661 41.0828L76.7252 40.8959L77.227 42.037L74.2215 43.3848L74.2363 43.3947ZM102.894 35.2096L104.183 32.3861L104.773 35.4162L102.899 35.1948L102.894 35.2096ZM104.527 39.43L104.675 38.1855L105.299 38.1511L105.073 36.9952L102.23 36.6557L101.738 37.7281L102.333 37.9101L102.186 39.1546L98.9145 38.766L99.062 37.5166H99.7458L103.474 29.8972L105.442 30.1333V30.1923L107.286 38.3675L107.946 38.5446L107.798 39.7891L104.527 39.4005V39.43ZM137.159 48.2054C136.761 48.1704 136.388 47.9962 136.106 47.7135L135.182 46.956L136.746 45.0474L137.695 45.8246C138.014 46.0504 138.232 46.3906 138.305 46.774C138.32 46.9446 138.3 47.1165 138.246 47.279C138.192 47.4415 138.105 47.5911 137.99 47.7184C137.895 47.8541 137.771 47.9662 137.626 48.0464C137.481 48.1265 137.319 48.1725 137.154 48.1808L137.159 48.2054ZM138.497 49.681C138.098 49.7771 137.681 49.7771 137.282 49.681C137.519 50.0488 137.626 50.485 137.587 50.9206C137.511 51.4178 137.297 51.8834 136.967 52.2635L136.667 52.6225C136.568 52.7331 136.503 52.8697 136.48 53.0161C136.482 53.0818 136.496 53.1466 136.524 53.2066C136.551 53.2666 136.589 53.3206 136.638 53.3653L136.844 53.5817L136.042 54.5655L135.27 53.8719C135.063 53.734 134.891 53.5488 134.768 53.3317C134.646 53.1145 134.577 52.8715 134.567 52.6225C134.604 52.158 134.79 51.7179 135.098 51.3682L135.432 50.9649C135.678 50.6966 135.812 50.3447 135.806 49.9811C135.788 49.8074 135.735 49.6392 135.65 49.4864C135.566 49.3335 135.451 49.199 135.314 49.0908L134.178 48.2054L132.732 49.9663L133.376 50.7386L132.584 51.7224L129.51 49.1891L130.307 48.2054L131.183 48.6973L135.27 43.675L134.636 42.9028L135.432 41.919L138.713 44.6047C139.439 45.133 139.961 45.8958 140.189 46.7641C140.27 47.1443 140.259 47.5382 140.158 47.9136C140.058 48.289 139.869 48.6351 139.609 48.9235C139.328 49.2804 138.937 49.5346 138.497 49.6466V49.681Z" fill="white"/>
</g>
</g>
<defs>
<clipPath id="clip0_514_2103">
<rect width="192" height="192" fill="white"/>
</clipPath>
<clipPath id="clip1_514_2103">
<rect width="192" height="192" fill="white"/>
</clipPath>
</defs>
</svg>
