<svg width="100" height="100" viewBox="0 0 100 100" fill="none" xmlns="http://www.w3.org/2000/svg">
<g clip-path="url(#clip0_710_200)">
<path d="M85.3526 85.3535C104.878 65.8277 104.878 34.1703 85.3526 14.6446C65.8269 -4.88113 34.1695 -4.88112 14.6437 14.6446C-4.88197 34.1703 -4.88197 65.8277 14.6437 85.3535C34.1695 104.879 65.8269 104.879 85.3526 85.3535Z" fill="#131313"/>
<path fill-rule="evenodd" clip-rule="evenodd" d="M83.8315 65.7598C85.01 65.1527 86.2116 64.4789 87.2748 63.8845C81.6769 78.7437 67.366 89.3937 50.5622 89.5039C44.4074 89.5483 38.3274 88.1533 32.8076 85.4301C27.2878 82.7069 22.4811 78.7309 18.7712 73.8197C19.5628 73.5635 20.4185 73.2843 21.2537 73.0306C25.1728 77.9758 30.2899 81.8381 36.1199 84.2515C41.9499 86.6649 48.2997 87.5494 54.5673 86.8212C60.8349 86.093 66.8128 83.7762 71.9341 80.0903C77.0555 76.4045 81.1507 71.4718 83.8315 65.7598ZM88.3867 56.1962C88.5244 55.7788 88.5766 55.3379 88.54 54.8999C88.5035 54.4619 88.379 54.0358 88.174 53.647C87.3439 52.1867 84.7385 50.4958 80.1218 50.5292L69.4514 50.606C69.3215 50.6047 69.1963 50.5575 69.0978 50.4728C68.4702 49.9425 68.0193 49.4993 67.6222 49.2917C67.5785 49.2686 67.5414 49.2349 67.5141 49.1936C67.4869 49.1524 67.4705 49.105 67.4665 49.0557C67.4624 49.0065 67.4707 48.957 67.4908 48.9118C67.5108 48.8667 67.5419 48.8273 67.5812 48.7973C67.8863 48.5361 68.1691 48.2499 68.4266 47.9416C68.4754 47.8876 68.5351 47.8445 68.6018 47.8154C68.6685 47.7862 68.7407 47.7716 68.8135 47.7725L76.9963 47.7136C77.2012 47.7136 80.7905 47.67 81.0313 47.6521C86.0835 47.2781 87.2415 44.2114 87.2389 43.6222C87.2363 43.0329 87.3106 42.5231 86.6778 41.5906C85.6787 40.0944 83.6599 38.8006 82.9451 38.4701C82.9451 38.2805 82.7248 38.3523 82.5352 38.2524C81.3262 37.6327 80.0844 37.0794 78.8153 36.5948C74.6496 34.9705 68.2063 33.2207 63.2336 31.8347C62.9979 31.786 62.7494 31.7271 62.4804 31.6554C62.4016 31.6342 62.319 31.6314 62.2389 31.6472C62.1589 31.663 62.0835 31.6969 62.0187 31.7464C61.9538 31.7959 61.9012 31.8597 61.8649 31.9327C61.8286 32.0058 61.8095 32.0862 61.8091 32.1678L61.9167 47.4676C65.2882 46.5658 66.1311 44.2678 66.1286 43.7656C66.1286 43.2123 66.2003 42.664 65.5675 41.734C64.8604 40.6734 63.6409 39.7178 62.7366 39.1311V37.1584C62.773 36.8502 62.9152 36.5641 63.1388 36.3488L63.3386 36.2464C65.0833 37.2711 67.2866 38.8467 68.0142 40.2609C68.8442 41.5419 68.9697 42.5667 68.9774 43.7452C68.9851 44.9236 68.2089 46.9527 66.2208 48.4975C66.15 48.5514 66.0937 48.6221 66.0571 48.7032C66.0204 48.7842 66.0046 48.8732 66.0109 48.9619C66.0173 49.0507 66.0457 49.1364 66.0935 49.2115C66.1413 49.2865 66.2071 49.3484 66.2848 49.3917C68.2729 50.4625 69.2055 51.7922 69.5436 52.3866C69.9333 53.1065 70.1753 53.8971 70.2553 54.7119C70.3354 55.5266 70.252 56.3492 70.0099 57.1313C69.7959 57.8713 69.4655 58.5727 69.0312 59.209C68.2806 60.2978 66.1875 62.2551 64.658 63.098C64.4018 63.2543 64.1277 63.4029 63.8741 63.5361C63.6204 63.6693 63.3079 63.8256 62.9851 63.9793L62.962 60.8051C64.2751 60.1513 65.4319 59.2225 66.354 58.0817C66.7807 57.5736 67.0965 56.982 67.2814 56.3447C67.4214 55.9256 67.4747 55.4823 67.4382 55.0419C67.4016 54.6015 67.276 54.1732 67.0688 53.7828C66.2387 52.3251 63.6332 50.6342 59.0166 50.6649L49.0456 50.7367C48.9158 50.7372 48.7903 50.6908 48.692 50.606C48.0644 50.0731 47.6109 49.6299 47.2164 49.425C47.1727 49.4018 47.1356 49.3681 47.1083 49.3269C47.0811 49.2856 47.0647 49.2382 47.0606 49.1889C47.0566 49.1397 47.0649 49.0902 47.085 49.0451C47.105 48.9999 47.1361 48.9605 47.1754 48.9305C47.4796 48.6692 47.7615 48.3829 48.0182 48.0748C48.0702 48.0208 48.1327 47.9782 48.202 47.9495C48.2712 47.9208 48.3456 47.9068 48.4205 47.9083L55.9039 47.8571C56.0525 47.8571 57.9534 47.834 59.1012 47.8135L59.0243 37.266C58.6144 37.0918 58.184 36.915 57.7229 36.7357C53.3419 35.0295 47.1369 33.1746 42.0797 31.7579C42.0004 31.7358 41.9172 31.7323 41.8363 31.7477C41.7555 31.763 41.6793 31.7968 41.6136 31.8463C41.548 31.8959 41.4946 31.9599 41.4577 32.0334C41.4208 32.1069 41.4013 32.188 41.4008 32.2702L41.5058 46.9655C41.505 47.05 41.5242 47.1335 41.562 47.209C41.5997 47.2846 41.6549 47.3501 41.723 47.4002C41.7911 47.4502 41.8701 47.4834 41.9535 47.4969C42.0368 47.5104 42.1223 47.5039 42.2027 47.4779C45.2001 46.5018 45.9661 44.3882 45.9636 43.9091C45.9636 42.9356 46.1199 41.4368 42.715 39.3514C42.6374 39.3031 42.5732 39.236 42.5284 39.1563C42.4837 39.0766 42.4597 38.9868 42.4588 38.8954L42.446 36.8459C42.4451 36.7526 42.4686 36.6607 42.5142 36.5794C42.5599 36.4981 42.6261 36.4302 42.7063 36.3824C42.7864 36.3347 42.8776 36.3089 42.9709 36.3075C43.0642 36.3061 43.1561 36.3292 43.2377 36.3745C48.154 39.0773 48.7843 41.5163 48.8022 43.8809C48.8022 45.1183 47.9875 47.2114 45.856 48.7717C45.7839 48.8261 45.7268 48.8978 45.6898 48.9802C45.6529 49.0626 45.6375 49.153 45.6449 49.243C45.6523 49.333 45.6824 49.4197 45.7323 49.4949C45.7822 49.5702 45.8503 49.6316 45.9303 49.6735C47.4674 50.4882 48.5947 51.5052 49.1737 52.5223C49.5801 53.2629 49.8348 54.0772 49.9228 54.9174C50.0107 55.7576 49.9303 56.6069 49.6861 57.4156C48.9739 59.852 46.9576 61.9579 43.6963 63.6744C43.5502 63.7539 43.622 63.6744 43.4554 63.7641C43.3745 63.804 43.2847 63.8227 43.1946 63.8185C43.1044 63.8142 43.0168 63.7871 42.94 63.7398C42.8632 63.6924 42.7997 63.6263 42.7554 63.5476C42.7111 63.469 42.6875 63.3804 42.6869 63.2901L42.6715 61.2995C42.6715 61.2028 42.6977 61.1079 42.7474 61.0249C42.797 60.9419 42.8681 60.8739 42.9533 60.8281C45.259 59.5472 46.5041 58.1893 46.9627 56.6189C47.103 56.1758 47.1526 55.7091 47.1085 55.2465C47.0645 54.7839 46.9278 54.3349 46.7065 53.9263C45.9815 52.6453 42.8816 50.7777 38.5263 50.8084L20.9155 50.9339C20.774 50.9353 20.6387 50.9927 20.5393 51.0935C20.4399 51.1943 20.3845 51.3304 20.3852 51.4719L20.4954 68.4268C20.495 68.5114 20.5146 68.5949 20.5527 68.6704C20.5907 68.746 20.6461 68.8114 20.7144 68.8614C20.7826 68.9114 20.8617 68.9445 20.9452 68.9581C21.0287 68.9716 21.1143 68.9651 21.1948 68.9392C26.7055 67.1459 33.6996 64.8068 38.4341 62.9238C38.5361 62.8836 38.6232 62.8127 38.6833 62.721C38.7434 62.6292 38.7736 62.521 38.7697 62.4114L38.6979 52.2636C38.6972 52.1922 38.7108 52.1214 38.7379 52.0553C38.765 51.9892 38.805 51.9293 38.8556 51.8789C38.9062 51.8285 38.9664 51.7888 39.0326 51.762C39.0988 51.7352 39.1697 51.722 39.2411 51.723C39.8554 51.7323 40.4687 51.7767 41.078 51.8562C41.205 51.8736 41.3214 51.9363 41.4057 52.0329C41.49 52.1294 41.5365 52.2533 41.5366 52.3814L41.6493 68.1117C41.6482 68.1968 41.6674 68.2809 41.7055 68.357C41.7435 68.4331 41.7992 68.499 41.8679 68.5492C41.9367 68.5993 42.0164 68.6323 42.1005 68.6454C42.1846 68.6584 42.2706 68.6511 42.3512 68.6241C47.8389 66.7923 54.6844 64.4251 59.196 62.5651L59.1217 51.8255C59.1209 51.7817 59.1292 51.7382 59.1459 51.6977C59.1626 51.6572 59.1875 51.6206 59.219 51.5901C59.2504 51.5596 59.2878 51.5359 59.3288 51.5204C59.3698 51.5049 59.4135 51.498 59.4573 51.5001C60.2874 51.5283 61.2122 51.6103 61.763 51.887C61.8183 51.9132 61.865 51.9546 61.8976 52.0063C61.9303 52.058 61.9476 52.1179 61.9475 52.179L62.0602 68.1425C62.0603 68.2269 62.0803 68.31 62.1186 68.3853C62.1568 68.4605 62.2122 68.5257 62.2803 68.5756C62.3484 68.6255 62.4272 68.6587 62.5105 68.6724C62.5938 68.6862 62.6791 68.6802 62.7596 68.6548C69.1824 66.8615 78.9664 63.1825 80.6932 62.2936C82.4199 61.4046 83.7265 60.8614 83.747 60.8512C84.6872 60.3388 85.9887 59.7316 87.4541 57.9536C87.8797 57.4448 88.1955 56.8534 88.3815 56.2166L88.3867 56.1962ZM20.2392 32.2805C20.2394 32.1986 20.2585 32.1179 20.295 32.0446C20.3315 31.9713 20.3843 31.9074 20.4495 31.8579C20.5147 31.8083 20.5904 31.7744 20.6708 31.7589C20.7511 31.7433 20.834 31.7465 20.913 31.7681C26.2572 33.2002 32.9771 35.1345 37.5322 36.9073C37.7884 37.0047 38.0293 37.1046 38.265 37.202C38.3624 37.2416 38.4458 37.3093 38.5046 37.3964C38.5635 37.4835 38.5951 37.5862 38.5954 37.6913L38.6646 47.4728C38.6653 47.6143 38.6099 47.7504 38.5105 47.8512C38.4111 47.9521 38.2759 48.0094 38.1343 48.0108L20.8874 48.1337C20.8171 48.1348 20.7473 48.1218 20.6821 48.0956C20.6168 48.0694 20.5575 48.0305 20.5074 47.9812C20.4573 47.9318 20.4176 47.873 20.3904 47.8082C20.3633 47.7433 20.3493 47.6737 20.3494 47.6034L20.2392 32.2805ZM90.6514 52.2636C90.3132 51.6718 89.3704 50.3396 87.3926 49.2687C87.3149 49.2254 87.2491 49.1635 87.2013 49.0885C87.1534 49.0135 87.1251 48.9277 87.1187 48.839C87.1124 48.7502 87.1282 48.6613 87.1649 48.5802C87.2015 48.4991 87.2578 48.4284 87.3286 48.3746C89.3192 46.8374 90.0929 44.8237 90.0852 43.6222C90.0775 42.4206 89.9494 41.4138 89.1219 40.1405C88.1433 38.2421 84.5104 36.0645 82.8939 35.2728C81.9946 34.8399 80.9903 34.4018 79.8554 33.9611C72.5027 31.0866 59.9492 27.9252 55.7886 26.8774L54.9252 26.657C54.8573 26.6394 54.7865 26.6355 54.7169 26.6454C54.6474 26.6554 54.5806 26.679 54.5203 26.715C54.46 26.751 54.4074 26.7986 54.3657 26.8551C54.3239 26.9115 54.2938 26.9757 54.2771 27.0439L53.8466 28.7604C53.8125 28.8976 53.834 29.0428 53.9064 29.1642C53.9789 29.2857 54.0965 29.3735 54.2335 29.4086C55.0021 29.6007 56.5546 30.0055 58.576 30.5461C58.6891 30.5763 58.7892 30.6428 58.8609 30.7353C58.9326 30.8279 58.972 30.9414 58.9731 31.0585V31.5222L58.9936 34.1968L58.7374 34.0969C50.7518 30.9893 37.3375 27.5204 34.4938 26.798C34.4257 26.7807 34.3548 26.7771 34.2853 26.7874C34.2157 26.7977 34.1489 26.8216 34.0887 26.8578C34.0284 26.894 33.9759 26.9417 33.9342 26.9983C33.8925 27.0549 33.8624 27.1191 33.8456 27.1874L33.4152 28.9039C33.398 28.9717 33.3943 29.0422 33.4044 29.1114C33.4146 29.1806 33.4383 29.2472 33.4743 29.3072C33.5102 29.3672 33.5577 29.4195 33.614 29.4611C33.6702 29.5027 33.7342 29.5327 33.8021 29.5495C34.5707 29.7442 36.1232 30.1464 38.1446 30.6895C38.2577 30.7198 38.3577 30.7863 38.4295 30.8788C38.5012 30.9713 38.5406 31.0848 38.5417 31.2019L38.5621 34.2455C34.0198 32.4778 27.5458 30.5973 22.2606 29.1703L21.1128 28.8501C19.6555 30.7995 18.4175 32.9036 17.4211 35.1242L17.6516 67.5686C14.7717 62.2516 13.2459 56.3069 13.2092 50.2601C13.0658 29.821 29.5774 13.066 50.0191 12.9276C57.1262 12.8847 64.0963 14.8826 70.1014 18.6842C76.1065 22.4858 80.8941 27.9312 83.8956 34.3736C85.1266 35.0588 86.3189 35.8114 87.4669 36.6281C81.9383 21.3 67.1969 10.3606 50.0012 10.4964C43.5885 10.5415 37.2833 12.1475 31.6305 15.1757C25.9777 18.2039 21.1473 22.5631 17.5568 27.8765C15.6072 27.3641 14.1034 26.967 13.3476 26.7749C13.2107 26.7405 13.0658 26.7612 12.9441 26.8326C12.8224 26.904 12.7336 27.0204 12.6969 27.1566L12.269 28.8731C12.2517 28.9407 12.248 29.0111 12.2579 29.0802C12.2679 29.1493 12.2914 29.2157 12.3271 29.2757C12.3628 29.3357 12.41 29.388 12.466 29.4297C12.522 29.4714 12.5856 29.5017 12.6533 29.5187C13.2835 29.6801 14.4467 29.9824 15.9838 30.3872C12.4823 36.4973 10.6818 43.4339 10.7697 50.4756C10.8575 57.5173 12.8305 64.4069 16.4834 70.4277L13.1529 71.4704C13.086 71.4919 13.0239 71.5264 12.9704 71.572C12.9169 71.6175 12.8729 71.6732 12.841 71.7359C12.8091 71.7985 12.7899 71.8668 12.7845 71.9369C12.7791 72.007 12.7876 72.0774 12.8096 72.1442L13.322 73.8351C13.3422 73.9023 13.3755 73.9648 13.4199 74.0191C13.4644 74.0734 13.5191 74.1184 13.581 74.1515C13.6429 74.1846 13.7107 74.2051 13.7806 74.212C13.8504 74.2188 13.921 74.2117 13.9881 74.1912C16.7806 73.3278 29.7363 69.2953 38.0703 66.098C38.151 66.0675 38.238 66.0569 38.3237 66.0672C38.4094 66.0774 38.4914 66.1083 38.5626 66.1571C38.6338 66.206 38.6922 66.2713 38.7327 66.3475C38.7732 66.4238 38.7947 66.5087 38.7953 66.595L38.8158 69.3901C38.8161 69.5035 38.7806 69.6141 38.7144 69.7061C38.6481 69.7981 38.5545 69.8669 38.4469 69.9025C36.3845 70.5763 34.7987 71.0836 34.0301 71.3295C33.8987 71.3741 33.7898 71.4679 33.7263 71.5912C33.6627 71.7145 33.6495 71.8576 33.6893 71.9905L34.2222 73.6762C34.2432 73.743 34.2772 73.805 34.3222 73.8587C34.3671 73.9124 34.4222 73.9567 34.4844 73.989C34.5464 74.0214 34.6143 74.0412 34.6841 74.0473C34.7538 74.0534 34.8241 74.0457 34.8909 74.0247C37.7346 73.1229 51.1131 68.8342 59.2293 65.5984L59.2549 69.3645C59.2563 69.4785 59.2209 69.5899 59.154 69.6822C59.0871 69.7745 58.9922 69.8427 58.8834 69.8769L54.7433 71.1758C54.6085 71.2177 54.4959 71.3114 54.4301 71.4362C54.3643 71.5611 54.3507 71.707 54.3923 71.8419L54.9047 73.5353C54.9249 73.6022 54.9581 73.6644 55.0025 73.7184C55.0468 73.7724 55.1014 73.8172 55.163 73.85C55.2247 73.8829 55.2922 73.9032 55.3618 73.9099C55.4313 73.9165 55.5015 73.9094 55.5683 73.8889C58.3557 73.0281 74.0142 68.1348 79.7581 65.6779C83.4806 64.0843 84.3567 63.595 85.7735 62.952C87.3106 62.1091 89.396 60.1492 90.1467 59.063C90.5806 58.4264 90.9109 57.7251 91.1254 56.9852C91.3669 56.2021 91.4498 55.3787 91.3693 54.5631C91.2888 53.7475 91.0465 52.9562 90.6565 52.2354L90.6514 52.2636ZM61.6247 20.2394L62.4752 20.5776C62.5637 20.6047 62.6456 20.6499 62.7158 20.7103C62.7859 20.7707 62.8427 20.8451 62.8826 20.9286C62.9366 21.1041 62.922 21.2937 62.8416 21.4589C62.8121 21.5322 62.7674 21.5984 62.7105 21.6532C62.6535 21.708 62.5855 21.75 62.5111 21.7766C62.3184 21.8219 62.116 21.8002 61.9372 21.7151L61.1558 21.4025L61.6375 20.1984L61.6247 20.2394ZM62.342 18.446L62.9133 18.6741C63.1188 18.7357 63.2986 18.8625 63.4257 19.0353C63.4659 19.1115 63.4869 19.1964 63.4869 19.2825C63.4869 19.3687 63.4659 19.4535 63.4257 19.5297C63.3999 19.6072 63.356 19.6773 63.2977 19.7344C63.2393 19.7914 63.1681 19.8337 63.0901 19.8577C62.8908 19.8857 62.6878 19.8489 62.5111 19.7526L61.9065 19.5093L62.3471 18.4127L62.342 18.446ZM59.6366 21.008L60.149 21.1079L61.4018 17.9798L60.974 17.6775L61.2301 17.0703L63.2464 17.8773C63.6935 18.0278 64.0847 18.31 64.3685 18.6869C64.4758 18.8533 64.5392 19.0443 64.5526 19.2419C64.5661 19.4395 64.5292 19.6372 64.4454 19.8167C64.3684 20.0248 64.2288 20.2038 64.0457 20.3291C63.8933 20.4317 63.7166 20.4926 63.5333 20.5058C63.7177 20.6453 63.8495 20.843 63.9074 21.0669C63.9692 21.3233 63.9467 21.5928 63.8433 21.8355C63.7796 22.0291 63.6706 22.2048 63.5253 22.3478C63.38 22.4908 63.2027 22.5971 63.0081 22.6579C62.8781 22.6945 62.7436 22.7126 62.6085 22.7117C62.2806 22.705 61.9571 22.6354 61.6554 22.5067L59.4291 21.6152L59.6725 21.008H59.6366ZM66.0082 22.3325L67.2123 21.2565L66.8664 22.8013L66.0184 22.2889L66.0082 22.3325ZM66.231 24.1259L66.5359 24.2386L66.6717 23.6417L65.3907 22.8731L64.9321 23.2804L65.1883 23.4905L64.8578 24.0541L63.3796 23.1831L63.7127 22.6194L64.0406 22.7552L67.4044 19.8961L68.3011 20.4264L67.4326 24.7535L67.7093 24.9764L67.3788 25.54L65.9006 24.669L66.231 24.1054V24.1259ZM32.4571 25.3018L32.8337 24.9431L31.0403 22.0994L30.5561 22.2915L30.2051 21.7381L31.9498 20.6288L32.2803 21.1822L31.8986 21.5409L33.6791 24.3385L34.7525 23.657L34.4682 23.1241L35.1548 22.6861L35.8875 23.8389L32.8132 25.8628L32.4647 25.3146L32.4571 25.3018ZM29.2931 26.0114L29.9925 25.4196C30.059 25.3522 30.139 25.2998 30.2274 25.2658C30.3158 25.2317 30.4103 25.2169 30.5049 25.2224C30.6861 25.2573 30.8473 25.3599 30.9558 25.5093C31.0162 25.5701 31.0617 25.6441 31.0889 25.7254C31.116 25.8067 31.1239 25.8932 31.112 25.9781C31.0632 26.1704 30.9491 26.3398 30.7892 26.4572L30.1462 27.0029L29.3059 26.0114H29.2931ZM28.0454 24.5383L28.5168 24.1412C28.6676 23.9936 28.8613 23.8976 29.0702 23.8671C29.1567 23.8644 29.2425 23.8837 29.3195 23.9231C29.3966 23.9625 29.4624 24.0208 29.5108 24.0926C29.5681 24.1506 29.61 24.222 29.6328 24.3002C29.6556 24.3785 29.6586 24.4612 29.6415 24.5409C29.5839 24.7324 29.4662 24.9004 29.3059 25.02L28.8114 25.4401L28.0428 24.5383H28.0454ZM29.4775 28.6374L29.0548 28.1404L29.3802 27.7356L27.2025 25.1737L26.7516 25.4299L26.3263 24.9175L27.9839 23.5136C28.3267 23.1885 28.7599 22.9751 29.2265 22.9013C29.4224 22.8848 29.6192 22.9185 29.7985 22.9992C29.9778 23.0799 30.1336 23.2049 30.2512 23.3624C30.3858 23.5146 30.4735 23.7024 30.504 23.9033C30.5344 24.1041 30.5063 24.3095 30.4229 24.4948C30.6319 24.398 30.8675 24.3746 31.0915 24.4282C31.342 24.4944 31.5652 24.6378 31.7295 24.8381C31.871 24.9852 31.9753 25.1641 32.0337 25.3597C32.092 25.5554 32.1028 25.7621 32.0651 25.9628C31.9406 26.4125 31.6702 26.8081 31.2965 27.0875L29.4673 28.6246L29.4775 28.6374ZM44.9542 16.6245C45.1594 16.5756 45.3748 16.5935 45.569 16.6758C45.6422 16.7202 45.7037 16.7815 45.7483 16.8547C45.7928 16.9278 45.8192 17.0105 45.8252 17.0959C45.8427 17.1756 45.8409 17.2584 45.82 17.3372C45.799 17.4161 45.7596 17.4888 45.7048 17.5494C45.5566 17.684 45.3687 17.7667 45.1694 17.7851L44.5289 17.8901L44.3393 16.7219L44.9491 16.6245H44.9542ZM46.3248 19.0481C46.3446 19.1319 46.345 19.2191 46.3259 19.303C46.3068 19.3869 46.2688 19.4654 46.2146 19.5323C46.0784 19.674 45.8974 19.7645 45.7023 19.7885L44.8696 19.9217L44.6621 18.6408L45.5665 18.4947C45.6563 18.4721 45.7498 18.4685 45.8411 18.4839C45.9323 18.4993 46.0194 18.5335 46.0968 18.5844C46.233 18.7079 46.318 18.8779 46.3351 19.0609L46.3248 19.0481ZM43.4554 20.967L43.3504 20.3239L43.8397 20.1446L43.3017 16.8141L42.7893 16.7962L42.6792 16.1403L44.8338 15.8047C45.2946 15.7044 45.775 15.7455 46.2121 15.9225C46.3901 16.0092 46.5431 16.1398 46.6565 16.3021C46.77 16.4644 46.8401 16.653 46.8603 16.85C46.8975 17.0663 46.868 17.2888 46.7757 17.4879C46.6973 17.6583 46.5743 17.8044 46.4196 17.9106C46.6439 17.9354 46.8537 18.0336 47.0165 18.1899C47.1975 18.3759 47.315 18.6144 47.3521 18.8713C47.3973 19.0701 47.3943 19.2768 47.3435 19.4742C47.2927 19.6715 47.1955 19.854 47.0601 20.0063C46.7217 20.3269 46.2865 20.5261 45.8227 20.5725L43.4554 20.9542V20.967ZM47.7236 19.6553L48.236 19.5426L48.1643 16.1711L47.6519 16.0839L47.6365 15.4281L49.7014 15.3717L49.7168 16.0276L49.1891 16.1403L49.2659 19.4401L50.5469 19.4093L50.5776 18.8073L51.3923 18.7868L51.3693 20.1625L47.739 20.2958L47.7236 19.645V19.6553ZM36.8021 21.154L36.6202 19.5477L37.7013 20.7518L36.8021 21.1566V21.154ZM38.6646 22.6015L38.4084 22.0071L38.6646 21.8227L38.2547 21.3667L36.8918 21.9738L36.9609 22.581L37.2761 22.5042L37.5322 23.0985L35.9695 23.8005L35.7133 23.2036L36.013 23.014L35.6364 18.6126L36.5895 18.1899L36.61 18.2104L39.6177 21.3974L39.961 21.3L40.2223 21.8944L38.6569 22.5964L38.6646 22.6015ZM53.5905 18.3384L54.2617 16.8679L54.5691 18.446L53.593 18.3308L53.5905 18.3384ZM54.441 20.5366L54.5179 19.8884L54.8432 19.8705L54.7254 19.2684L53.2446 19.0917L52.9884 19.6502L53.2984 19.7449L53.2215 20.3931L51.5178 20.1907L51.5947 19.54H51.9508L53.8928 15.5716L54.9175 15.6945V15.7253L55.8783 19.9832L56.2216 20.0754L56.1447 20.7236L54.441 20.5212V20.5366ZM71.4369 25.1071C71.2297 25.0889 71.0356 24.9981 70.8886 24.8509L70.407 24.4563L71.2217 23.4623L71.7161 23.8671C71.882 23.9847 71.9958 24.1619 72.0338 24.3616C72.0418 24.4504 72.0314 24.54 72.0032 24.6246C71.975 24.7093 71.9296 24.7872 71.8699 24.8534C71.8204 24.9241 71.7555 24.9825 71.68 25.0243C71.6045 25.066 71.5205 25.09 71.4343 25.0943L71.4369 25.1071ZM72.1337 25.8757C71.9258 25.9257 71.7089 25.9257 71.5009 25.8757C71.6242 26.0672 71.6801 26.2944 71.6598 26.5213C71.6204 26.7802 71.5085 27.0227 71.337 27.2207L71.1807 27.4077C71.1292 27.4653 71.0955 27.5364 71.0833 27.6126C71.0841 27.6469 71.0918 27.6807 71.1059 27.7119C71.12 27.7432 71.1402 27.7713 71.1653 27.7945L71.2729 27.9073L70.8553 28.4197L70.4531 28.0584C70.345 27.9866 70.2555 27.8901 70.1918 27.777C70.1281 27.6639 70.0921 27.5374 70.0868 27.4077C70.1059 27.1657 70.203 26.9365 70.3634 26.7544L70.5377 26.5443C70.6655 26.4046 70.7351 26.2213 70.7324 26.0319C70.7226 25.9415 70.695 25.8539 70.651 25.7743C70.607 25.6946 70.5476 25.6246 70.4762 25.5682L69.8844 25.1071L69.1311 26.0243L69.4668 26.4265L69.0543 26.9389L67.4531 25.6195L67.8681 25.1071L68.3241 25.3633L70.4531 22.7475L70.1226 22.3453L70.5377 21.8329L72.2465 23.2317C72.6246 23.5069 72.8961 23.9042 73.015 24.3564C73.0571 24.5545 73.0516 24.7596 72.9991 24.9551C72.9465 25.1506 72.8484 25.3309 72.7127 25.4811C72.5665 25.667 72.363 25.7994 72.1337 25.8577V25.8757Z" fill="white"/>
</g>
<defs>
<clipPath id="clip0_710_200">
<rect width="100" height="100" fill="white"/>
</clipPath>
</defs>
</svg>
