<svg width="22" height="22" viewBox="0 0 22 22" fill="none" xmlns="http://www.w3.org/2000/svg">
<path d="M10.5024 14.6022L3.20111 6.93929C3.07923 6.81143 3.01123 6.64156 3.01123 6.46492C3.01123 6.28827 3.07923 6.1184 3.20111 5.99054L3.20936 5.98229C3.26845 5.92009 3.33957 5.87057 3.41841 5.83672C3.49724 5.80288 3.58213 5.78543 3.66792 5.78543C3.75371 5.78543 3.83861 5.80288 3.91744 5.83672C3.99627 5.87057 4.0674 5.92009 4.12649 5.98229L11.0015 13.1983L17.8737 5.98229C17.9328 5.92009 18.0039 5.87057 18.0828 5.83672C18.1616 5.80288 18.2465 5.78543 18.3323 5.78543C18.4181 5.78543 18.503 5.80288 18.5818 5.83672C18.6606 5.87057 18.7318 5.92009 18.7909 5.98229L18.7991 5.99054C18.921 6.1184 18.989 6.28827 18.989 6.46492C18.989 6.64156 18.921 6.81143 18.7991 6.93929L11.4979 14.6022C11.4337 14.6696 11.3564 14.7232 11.2709 14.7599C11.1853 14.7965 11.0932 14.8154 11.0001 14.8154C10.907 14.8154 10.8149 14.7965 10.7294 14.7599C10.6438 14.7232 10.5666 14.6696 10.5024 14.6022Z" fill="white"/>
</svg>
