<svg width="22" height="22" viewBox="0 0 22 22" fill="none" xmlns="http://www.w3.org/2000/svg">
<path d="M10.5024 7.39783L3.20111 15.0607C3.07923 15.1886 3.01123 15.3584 3.01123 15.5351C3.01123 15.7117 3.07923 15.8816 3.20111 16.0095L3.20936 16.0177C3.26845 16.0799 3.33957 16.1294 3.41841 16.1633C3.49724 16.1971 3.58213 16.2146 3.66792 16.2146C3.75371 16.2146 3.83861 16.1971 3.91744 16.1633C3.99627 16.1294 4.0674 16.0799 4.12649 16.0177L11.0015 8.80171L17.8737 16.0177C17.9328 16.0799 18.0039 16.1294 18.0828 16.1633C18.1616 16.1971 18.2465 16.2146 18.3323 16.2146C18.4181 16.2146 18.503 16.1971 18.5818 16.1633C18.6606 16.1294 18.7318 16.0799 18.7909 16.0177L18.7991 16.0095C18.921 15.8816 18.989 15.7117 18.989 15.5351C18.989 15.3584 18.921 15.1886 18.7991 15.0607L11.4979 7.39783C11.4337 7.33044 11.3564 7.27679 11.2709 7.24013C11.1853 7.20347 11.0932 7.18457 11.0001 7.18457C10.907 7.18457 10.8149 7.20347 10.7294 7.24013C10.6438 7.27679 10.5666 7.33044 10.5024 7.39783Z" fill="white"/>
</svg>
