<svg width="80" height="51" viewBox="0 0 80 51" fill="none" xmlns="http://www.w3.org/2000/svg">
<path d="M74.6268 30.3075C72.7661 28.6612 69 29.5581 69 31.3515C69 32.6982 74.1631 34.8048 74.6268 35.0787C75.0937 34.8048 80 32.6982 80 31.3515C80 29.5717 76.491 28.6612 74.6268 30.3075Z" fill="#FFBCBC"/>
<path d="M31.6037 19.6586C30.0813 18.0123 27 18.9092 27 20.7026C27 22.0493 31.2243 24.1559 31.6037 24.4298C31.9858 24.1559 36 22.0493 36 20.7026C36 18.9228 33.129 18.0123 31.6037 19.6586Z" fill="#FFBCBC"/>
<path d="M60.5807 6.93793C59.3966 5.65715 57 6.35488 57 7.75007C57 8.79776 60.2856 10.4366 60.5807 10.6497C60.8778 10.4366 64 8.79776 64 7.75007C64 6.36545 61.767 5.65715 60.5807 6.93793Z" fill="#FFBCBC"/>
<path d="M10.5576 0.577586C9.71184 -0.519961 8 0.0779471 8 1.27354C8 2.17135 10.3468 3.57575 10.5576 3.75836C10.7699 3.57575 13 2.17135 13 1.27354C13 0.0870114 11.405 -0.519961 10.5576 0.577586Z" fill="#FFBCBC"/>
<path d="M5.62679 44.2811C3.76605 42.2689 0 43.3651 0 45.5571C0 47.2031 5.16305 49.7779 5.62679 50.1127C6.09371 49.7779 11 47.2031 11 45.5571C11 43.3817 7.491 42.2689 5.62679 44.2811Z" fill="#FFBCBC"/>
</svg>
