<svg width="194" height="42" viewBox="0 0 194 42" fill="none" xmlns="http://www.w3.org/2000/svg">
<path d="M96.5631 20.2077C98.7285 16.2571 100.876 12.3384 103.026 8.4184C103.468 7.6104 103.93 6.80906 104.347 5.98773C104.584 5.52106 104.919 5.3464 105.43 5.3544C106.724 5.37573 108.019 5.3584 109.314 5.3624C109.947 5.36506 110.026 5.4424 110.026 6.0704C110.028 12.2117 110.028 18.3531 110.026 24.4957C110.026 25.1024 109.952 25.1797 109.358 25.1811C108.084 25.1877 106.81 25.1851 105.535 25.1837C104.728 25.1824 104.694 25.1491 104.694 24.3611C104.692 21.5877 104.694 18.8157 104.691 16.0424C104.691 15.8304 104.722 15.6117 104.611 15.2891C104.45 15.5744 104.343 15.7611 104.239 15.9504C102.643 18.8624 101.038 21.7717 99.4605 24.6944C99.2551 25.0744 99.0231 25.2024 98.5991 25.1931C97.2445 25.1677 95.8858 25.1624 94.5311 25.1957C94.0391 25.2077 93.7711 25.0624 93.5338 24.6184C91.9405 21.6571 90.3138 18.7117 88.7005 15.7624C88.6218 15.6211 88.5378 15.4824 88.4325 15.2957C88.2925 15.4837 88.3498 15.6691 88.3498 15.8331C88.3458 18.6251 88.3471 21.4197 88.3471 24.2131C88.3471 24.3557 88.3525 24.5011 88.3458 24.6437C88.3245 25.0624 88.2418 25.1757 87.8405 25.1784C86.4031 25.1904 84.9645 25.1904 83.5258 25.1784C83.1125 25.1744 83.0498 25.0811 83.0325 24.6437C83.0271 24.5197 83.0311 24.3971 83.0311 24.2744V6.28106C83.0311 6.13573 83.0245 5.99306 83.0338 5.84906C83.0578 5.47306 83.1351 5.37173 83.5191 5.36773C84.9578 5.35573 86.3965 5.36373 87.8338 5.36106C88.2991 5.36106 88.5125 5.6664 88.7085 6.02506C90.0725 8.52773 91.4418 11.0277 92.8125 13.5264C93.9445 15.5957 95.0778 17.6637 96.2138 19.7304C96.3005 19.8877 96.3471 20.0757 96.5631 20.2077Z" fill="white"/>
<path d="M153.019 9.98373C151.356 9.98373 149.694 9.9904 148.031 9.97707C147.738 9.97573 147.647 10.0544 147.648 10.3544C147.658 13.6171 147.654 16.8797 147.656 20.1411C147.656 20.5584 147.666 20.5651 148.106 20.5664C150.303 20.5677 152.499 20.5664 154.696 20.5664C155.68 20.5664 156.666 20.5797 157.652 20.5637C158.991 20.5411 159.824 19.8704 160.1 18.5904C160.186 18.1917 160.243 17.7851 160.242 17.3704C160.236 15.8517 160.236 14.3344 160.242 12.8157C160.243 12.4224 160.188 12.0371 160.115 11.6557C159.935 10.7051 159.456 10.2531 158.492 10.0637C158.188 10.0037 157.883 9.98373 157.576 9.98373C156.056 9.98507 154.538 9.98373 153.019 9.98373ZM142.304 15.2744V6.0944C142.304 5.95173 142.31 5.8064 142.304 5.66373C142.296 5.4624 142.372 5.3504 142.588 5.36107C142.711 5.36773 142.834 5.36107 142.958 5.36107C147.971 5.36107 152.984 5.35573 157.998 5.36507C159.127 5.36773 160.247 5.47307 161.347 5.7744C163.562 6.37973 164.887 7.8184 165.416 10.0224C165.574 10.6811 165.683 11.3504 165.692 12.0317C165.72 14.2291 165.742 16.4264 165.678 18.6224C165.656 19.4037 165.515 20.1704 165.319 20.9277C164.704 23.3011 163.12 24.5877 160.759 25.0117C160.007 25.1451 159.248 25.1811 158.49 25.1811C153.311 25.1851 148.134 25.1837 142.955 25.1837C142.894 25.1837 142.832 25.1851 142.77 25.1837C142.314 25.1744 142.306 25.1744 142.306 24.7011C142.303 21.5597 142.304 18.4171 142.304 15.2744Z" fill="white"/>
<path d="M18.8041 18.6569V17.8649V6.3436C18.8041 6.1996 18.7987 6.0556 18.8054 5.9116C18.8267 5.46893 18.9067 5.38493 19.3627 5.3636C19.6707 5.3516 19.9801 5.36093 20.2867 5.36093C21.3347 5.36093 22.3841 5.35693 23.4321 5.36226C24.0681 5.36626 24.1294 5.42893 24.1294 6.0796C24.1321 10.1863 24.1307 14.2956 24.1307 18.4036C24.1307 20.4156 24.1321 22.4289 24.1294 24.4409C24.1281 25.1276 24.0747 25.1809 23.3947 25.1823C21.8134 25.1849 20.2294 25.1596 18.6481 25.1956C18.0707 25.2089 17.7001 24.9916 17.3441 24.5636C13.6134 20.0529 9.8694 15.5543 6.12807 11.0543C5.99073 10.8876 5.8414 10.7289 5.6094 10.4649V11.1849V24.2489C5.6094 24.3929 5.61607 24.5369 5.6094 24.6809C5.58673 25.0596 5.50407 25.1516 5.13607 25.1796C4.8894 25.1956 4.64273 25.1836 4.39607 25.1836C3.28673 25.1836 2.17607 25.1849 1.06673 25.1836C0.334733 25.1809 0.2974 25.1436 0.2974 24.4209C0.296067 19.2663 0.296068 14.1116 0.296068 8.9556C0.296068 7.99026 0.2934 7.02493 0.2974 6.0596C0.300067 5.43027 0.3534 5.36493 0.948067 5.3636C3.0854 5.35826 5.22273 5.37293 7.36007 5.35293C7.8614 5.35027 8.14273 5.61293 8.42407 5.96227C11.2161 9.4356 14.0121 12.9036 16.8094 16.3729C17.4374 17.1516 18.0654 17.9303 18.6934 18.7089C18.7307 18.6916 18.7681 18.6756 18.8041 18.6569Z" fill="white"/>
<path d="M40.1635 20.7155H40.9648C42.0315 20.7128 43.0995 20.7328 44.1661 20.7008C45.5248 20.6608 46.1955 20.0755 46.4581 18.7568C46.5061 18.5181 46.5488 18.2715 46.5501 18.0275C46.5581 16.2021 46.5848 14.3755 46.5448 12.5501C46.5048 10.6955 45.6341 9.86879 43.7755 9.85813C41.3541 9.84613 38.9301 9.85679 36.5088 9.85413C36.1781 9.85413 35.8568 9.89946 35.5315 9.95946C34.7248 10.1061 34.2128 10.5741 33.9715 11.3475C33.8061 11.8808 33.7515 12.4315 33.7501 12.9861C33.7475 14.4221 33.7541 15.8581 33.7475 17.2955C33.7448 17.7475 33.7795 18.1955 33.8421 18.6435C34.0248 19.9448 34.7328 20.6101 36.0381 20.7008C36.2635 20.7181 36.4901 20.7141 36.7155 20.7141C37.8648 20.7155 39.0155 20.7155 40.1635 20.7155ZM40.1528 25.3701C38.8995 25.3715 37.6461 25.3875 36.3941 25.3661C35.0795 25.3448 33.7781 25.2061 32.5141 24.7995C30.1368 24.0355 28.8475 22.3675 28.4328 19.9581C28.3248 19.3301 28.2888 18.6941 28.2888 18.0581C28.2915 16.2101 28.2915 14.3608 28.2901 12.5141C28.2888 11.7528 28.3515 11.0008 28.5061 10.2515C29.0101 7.81679 30.4981 6.33013 32.8648 5.66346C33.9408 5.36079 35.0435 5.23546 36.1488 5.22213C38.7995 5.19146 41.4488 5.18746 44.0981 5.22213C45.4528 5.24079 46.7941 5.41413 48.0795 5.90079C50.1835 6.69279 51.4035 8.21413 51.8501 10.3901C51.9915 11.0768 52.0368 11.7728 52.0395 12.4701C52.0475 14.3581 52.0475 16.2475 52.0395 18.1368C52.0368 18.8968 51.9795 19.6541 51.8115 20.3995C51.2861 22.7368 49.8448 24.2141 47.5595 24.8808C46.3688 25.2288 45.1448 25.3528 43.9128 25.3675C42.6581 25.3835 41.4061 25.3701 40.1528 25.3701Z" fill="white"/>
<path d="M67.0202 14.4291V14.4211C68.6215 14.4211 70.2228 14.4264 71.8255 14.4197C72.7095 14.4144 73.0895 14.0624 73.2055 13.1864C73.3002 12.4704 73.3055 11.7571 73.2122 11.0397C73.0882 10.0971 72.7162 9.7384 71.7588 9.73573C68.5762 9.72773 65.3935 9.73707 62.2108 9.72507C61.8762 9.72373 61.8002 9.8344 61.8042 10.1437C61.8188 11.4157 61.8122 12.6891 61.8095 13.9611C61.8082 14.4637 61.8015 14.4291 62.2762 14.4291C63.8575 14.4277 65.4375 14.4291 67.0202 14.4291ZM75.4908 18.4277C75.8282 19.1637 76.1442 19.8477 76.4602 20.5344C77.0255 21.7637 77.5922 22.9917 78.1588 24.2197C78.2175 24.3504 78.2962 24.4757 78.3362 24.6117C78.4322 24.9291 78.3002 25.1277 77.9682 25.1744C77.8255 25.1931 77.6802 25.1837 77.5375 25.1837C76.4482 25.1837 75.3575 25.1451 74.2695 25.1997C73.6695 25.2304 73.4028 24.9931 73.1748 24.4744C72.4228 22.7677 71.6095 21.0877 70.8495 19.3851C70.6682 18.9811 70.4655 18.8077 69.9935 18.8131C67.4468 18.8411 64.8988 18.8251 62.3508 18.8264C61.7682 18.8264 61.8108 18.7771 61.8108 19.3464C61.8095 20.9891 61.8108 22.6317 61.8095 24.2757C61.8095 24.4184 61.8215 24.5651 61.8042 24.7064C61.7628 25.0571 61.6522 25.1637 61.2842 25.1797C60.9148 25.1944 60.5455 25.1837 60.1748 25.1837C59.1682 25.1837 58.1602 25.1877 57.1548 25.1824C56.5295 25.1797 56.4522 25.1024 56.4508 24.4611C56.4468 22.5304 56.4495 20.6011 56.4495 18.6704V6.3464C56.4495 6.2024 56.4415 6.0584 56.4508 5.9144C56.4788 5.48507 56.5802 5.38907 57.0175 5.3624C57.1402 5.35573 57.2642 5.36107 57.3868 5.36107C62.4215 5.36107 67.4562 5.3584 72.4908 5.36373C73.2295 5.36373 73.9655 5.4144 74.6975 5.5424C76.7495 5.9024 77.9908 7.02107 78.3802 9.06507C78.7588 11.0531 78.7242 13.0691 78.3948 15.0651C78.1215 16.7117 77.1962 17.8664 75.4908 18.4277Z" fill="white"/>
<path d="M186.23 21.0111C184.41 17.5244 182.61 14.0764 180.807 10.6244C180.557 10.7484 180.514 10.9884 180.414 11.1804C178.091 15.6164 175.765 20.0511 173.465 24.4991C173.215 24.9804 172.947 25.1977 172.383 25.1737C171.214 25.1271 170.042 25.1604 168.87 25.1591C168.727 25.1591 168.582 25.1697 168.439 25.1524C168.073 25.1097 167.955 24.9071 168.093 24.5524C168.153 24.4004 168.238 24.2577 168.313 24.1111C171.415 18.1137 174.522 12.1204 177.609 6.11507C177.878 5.59107 178.203 5.3564 178.806 5.3724C180.098 5.41107 181.394 5.4124 182.687 5.3724C183.287 5.35507 183.625 5.57907 183.893 6.10307C186.074 10.3591 188.274 14.6031 190.47 18.8524C191.374 20.6017 192.281 22.3511 193.186 24.1004C193.233 24.1924 193.282 24.2817 193.326 24.3737C193.605 24.9591 193.485 25.1564 192.825 25.1577C189.826 25.1617 186.826 25.1591 183.826 25.1604C183.142 25.1604 183.155 25.0817 183.155 25.8217C183.157 28.4297 183.155 31.0391 183.155 33.6471C183.155 33.7911 183.163 33.9337 183.153 34.0777C183.125 34.5044 183.022 34.6111 182.583 34.6204C182.029 34.6324 181.474 34.6231 180.919 34.6231C180.261 34.6231 179.603 34.6311 178.946 34.6204C178.466 34.6137 178.375 34.5244 178.371 34.0364C178.363 33.0924 178.369 32.1471 178.369 31.2031C178.369 29.3737 178.374 27.5471 178.365 25.7191C178.362 25.3404 178.427 25.0004 178.611 24.6617C179.157 23.6511 179.697 22.6351 180.201 21.6017C180.389 21.2151 180.623 21.0657 181.057 21.0724C182.555 21.0951 184.055 21.0831 185.555 21.0791C185.753 21.0791 185.955 21.1097 186.23 21.0111Z" fill="#FFCC08"/>
<path d="M125.072 21.0345C125.299 20.5932 125.52 20.1612 125.743 19.7292C126.15 18.9479 126.568 18.1719 126.958 17.3825C127.094 17.1092 127.254 16.9932 127.567 17.0039C128.259 17.0265 128.952 17.0092 129.656 17.0092C129.514 16.4799 127.322 12.1972 126.407 10.6425C126.21 10.7772 126.156 11.0052 126.056 11.1959C123.728 15.6452 121.396 20.0919 119.088 24.5505C118.85 25.0092 118.59 25.2159 118.052 25.1972C116.863 25.1559 115.671 25.1839 114.479 25.1825C114.316 25.1825 114.148 25.1945 113.988 25.1639C113.695 25.1079 113.582 24.9012 113.68 24.6159C113.727 24.4799 113.808 24.3572 113.875 24.2305C116.998 18.1865 120.128 12.1465 123.239 6.09586C123.508 5.56919 123.844 5.33853 124.439 5.35186C125.754 5.38386 127.068 5.37719 128.382 5.35319C128.924 5.34386 129.251 5.54919 129.499 6.03053C132.632 12.1172 135.779 18.1945 138.922 24.2759C138.979 24.3839 139.043 24.4919 139.083 24.6065C139.194 24.9145 139.068 25.1212 138.739 25.1759C138.639 25.1919 138.534 25.1839 138.432 25.1839C137.138 25.1839 135.843 25.1732 134.548 25.1905C134.17 25.1972 133.948 25.0679 133.778 24.7279C133.246 23.6652 132.67 22.6239 132.144 21.5599C131.972 21.2119 131.758 21.1052 131.382 21.1092C129.492 21.1252 127.603 21.1172 125.712 21.1145C125.516 21.1132 125.308 21.1679 125.072 21.0345Z" fill="white"/>
<path d="M74.0945 37.1205C74.1012 36.2259 73.5239 35.6085 72.6825 35.6125C71.8599 35.6152 71.2385 36.2712 71.2519 37.1245C71.2652 37.9739 71.8479 38.5832 72.6572 38.5952C73.5145 38.6085 74.0865 38.0219 74.0945 37.1205ZM71.2172 35.1925C72.3452 34.2845 73.9359 34.5499 74.6572 35.3299C75.4385 36.1752 75.5399 37.6672 74.8585 38.6379C74.1265 39.6805 72.9105 39.8725 71.2812 39.1659C71.2812 39.7592 71.2852 40.3245 71.2799 40.8899C71.2745 41.3192 71.2692 41.3299 70.8372 41.3285C69.9412 41.3272 70.0999 41.4005 70.0972 40.6405C70.0892 38.8152 70.0959 36.9899 70.0932 35.1659C70.0932 34.5685 70.1052 34.6472 70.6385 34.6445C70.6785 34.6445 70.7225 34.6499 70.7612 34.6432C71.1172 34.5752 71.3025 34.7045 71.2172 35.1925Z" fill="white"/>
<path d="M146.135 37.6583C146.689 36.7329 147.219 35.8583 147.736 34.9769C147.857 34.7689 147.976 34.6303 148.252 34.6369C149.212 34.6649 149.029 34.5436 149.037 35.4143C149.048 36.6249 149.04 37.8356 149.04 39.0463C149.04 39.6223 149.068 39.5569 148.496 39.5623C148.455 39.5623 148.413 39.5569 148.373 39.5636C148.063 39.6049 147.933 39.4969 147.944 39.1596C147.968 38.4636 147.955 37.7636 147.948 37.0676C147.948 36.9343 148 36.7876 147.849 36.6196C147.417 37.3289 146.999 38.0196 146.577 38.7076C146.504 38.8276 146.464 38.9983 146.319 39.0356C146.075 39.0983 145.849 39.0996 145.695 38.8143C145.389 38.2569 145.055 37.7169 144.725 37.1743C144.624 37.0063 144.556 36.8103 144.297 36.6169C144.201 37.6276 144.299 38.5743 144.235 39.5223C143.892 39.6036 143.569 39.5383 143.224 39.5676V34.6836C144.377 34.5729 144.377 34.5729 144.917 35.5209C145.312 36.2143 145.707 36.9089 146.135 37.6583Z" fill="white"/>
<path d="M48.0541 39.5307C47.6527 39.572 47.2901 39.584 46.8674 39.524V36.5267C46.5914 36.6893 46.4727 36.8827 46.3341 37.048C45.7114 37.784 45.0954 38.528 44.4754 39.268C44.2661 39.516 43.5101 39.68 43.2447 39.5387C43.0794 39.4493 43.1354 39.288 43.1354 39.156C43.1301 38.0253 43.1327 36.896 43.1327 35.7667C43.1327 35.4787 43.1341 35.1907 43.1341 34.904C43.1341 34.7293 43.2114 34.6387 43.3941 34.644C43.5794 34.6493 43.7647 34.6587 43.9487 34.64C44.2434 34.6107 44.3461 34.7227 44.3381 35.0213C44.3194 35.72 44.3327 36.4173 44.3327 37.116V37.78C44.5394 37.548 44.6594 37.42 44.7714 37.2853C45.4181 36.516 46.0647 35.7427 46.7114 34.972C46.9487 34.6907 47.6007 34.524 47.9287 34.656C48.1181 34.7307 48.0501 34.896 48.0514 35.024C48.0567 36.1747 48.0554 37.3253 48.0541 38.476V39.5307Z" fill="white"/>
<path d="M164.305 37.6829C164.973 36.8856 165.641 36.0883 166.313 35.2909C166.909 34.5829 166.911 34.5843 167.895 34.6869V39.4776C167.864 39.5003 167.836 39.5429 167.805 39.5443C166.751 39.6123 166.751 39.6123 166.751 38.5723V36.6003C166.487 36.6003 166.413 36.7976 166.304 36.9269C165.667 37.6789 165.039 38.4389 164.405 39.1949C164.133 39.5203 163.532 39.6843 163.144 39.5496C163.055 39.5189 163.008 39.4669 163.003 39.3776C163 39.3163 162.997 39.2536 162.997 39.1923C162.997 37.8163 163.004 36.4389 162.992 35.0629C162.989 34.7496 163.079 34.5963 163.408 34.6429C163.448 34.6496 163.491 34.6429 163.532 34.6443C164.28 34.6536 164.193 34.5616 164.196 35.2936C164.2 36.0723 164.197 36.8509 164.197 37.6309C164.233 37.6483 164.269 37.6656 164.305 37.6829Z" fill="white"/>
<path d="M86.7754 36.5879C86.0661 37.4385 85.3194 38.2625 84.6594 39.1492C84.2848 39.6519 83.8234 39.5599 83.3474 39.5519C83.1741 39.5479 83.1888 39.3959 83.1888 39.2772C83.1861 38.9892 83.1874 38.7025 83.1874 38.4145C83.1874 37.3065 83.1834 36.1985 83.1888 35.0905C83.1901 34.6559 83.1968 34.6439 83.6234 34.6452C84.5194 34.6492 84.3821 34.5505 84.3901 35.3785C84.3968 36.1319 84.3914 36.8865 84.3914 37.7865C84.5808 37.5719 84.6821 37.4599 84.7781 37.3439C85.4381 36.5599 86.0954 35.7719 86.7554 34.9865C87.0101 34.6839 87.6021 34.5265 87.9674 34.6532C88.0581 34.6839 88.0968 34.7425 88.1021 34.8292C88.1088 34.9319 88.1101 35.0332 88.1101 35.1359C88.1101 36.4492 88.1114 37.7625 88.1088 39.0759C88.1074 39.5532 88.1034 39.5625 87.6581 39.5599C86.7834 39.5545 86.9194 39.6639 86.9114 38.8092C86.9048 38.0799 86.9101 37.3505 86.9101 36.6212C86.8648 36.6105 86.8194 36.5999 86.7754 36.5879Z" fill="white"/>
<path d="M129.027 36.6583H131.615C131.416 35.8796 130.997 35.5503 130.268 35.5703C129.563 35.5876 129.148 35.9489 129.027 36.6583ZM129.017 37.5809C129.14 38.1796 129.556 38.4623 130.081 38.5649C130.589 38.6636 131.119 38.6476 131.551 38.3036C131.777 38.1236 131.925 38.1129 132.088 38.3556C132.144 38.4409 132.213 38.5196 132.288 38.5876C132.483 38.7583 132.42 38.8956 132.255 39.0409C131.749 39.4916 131.131 39.6169 130.487 39.6303C130.12 39.6356 129.755 39.5769 129.401 39.4516C128.225 39.0276 127.636 38.0049 127.808 36.6649C127.953 35.5289 128.88 34.7143 130.072 34.6156C131.755 34.4756 132.835 35.6823 132.791 37.1449C132.783 37.4089 132.703 37.4956 132.437 37.4929C131.411 37.4796 130.385 37.4863 129.359 37.4889C129.257 37.4889 129.152 37.4703 129.017 37.5809Z" fill="white"/>
<path d="M95.7792 36.6543H98.4219C98.2099 35.8969 97.8552 35.5956 97.1832 35.5703C96.4565 35.5436 96.0512 35.8436 95.7792 36.6543ZM95.8232 37.4876C96.1245 38.6903 97.3339 38.9369 98.6965 38.1009C98.7499 38.1729 98.8045 38.2596 98.8712 38.3369C99.3232 38.8489 99.3259 38.9796 98.7272 39.2756C97.6365 39.8129 96.5405 39.7903 95.5245 39.0876C94.6912 38.5129 94.3672 37.3876 94.6725 36.3289C94.9445 35.3863 95.7885 34.7209 96.7872 34.6223C98.6739 34.4329 99.6365 35.8089 99.5979 37.1209C99.5885 37.4289 99.4845 37.4969 99.2032 37.4929C98.3005 37.4783 97.3965 37.4876 96.4939 37.4876H95.8232Z" fill="white"/>
<path d="M31.5697 40.1088C31.7417 40.1888 31.8857 40.2661 32.0391 40.3208C32.6177 40.5301 33.1151 40.2621 33.2817 39.6781C33.3404 39.4688 33.2231 39.3248 33.1524 39.1621C32.5951 37.8635 32.0297 36.5675 31.4724 35.2688C31.3924 35.0848 31.2577 34.9168 31.2831 34.6995C31.3244 34.6808 31.3577 34.6515 31.3924 34.6501C32.4164 34.5861 32.4164 34.5861 32.8177 35.5248C33.1751 36.3648 33.5337 37.2061 33.8937 38.0515C34.1471 37.9501 34.1484 37.7381 34.2164 37.5808C34.5737 36.7755 34.9404 35.9728 35.2511 35.1488C35.4084 34.7301 35.6484 34.5741 36.0697 34.6421C36.2257 34.6675 36.3924 34.5981 36.5391 34.6941C36.5617 34.7835 36.5404 34.8581 36.5057 34.9368C35.7551 36.6648 35.0151 38.3995 34.2511 40.1221C33.8351 41.0595 33.1857 41.4635 32.2871 41.4008C32.2257 41.3955 32.1631 41.3928 32.1031 41.3821C31.1057 41.2141 31.0124 41.0128 31.5697 40.1088Z" fill="white"/>
<path d="M53.4279 36.6752C53.3532 35.8552 52.5879 35.5152 52.0065 35.5685C51.3425 35.6299 50.9479 35.9792 50.8372 36.6752H53.4279ZM54.5465 37.4805H50.8745C50.8052 37.9752 51.1132 38.2285 51.4532 38.3979C52.2239 38.7805 52.9585 38.6579 53.7065 38.0619C53.7719 38.1605 53.8279 38.2752 53.9079 38.3672C54.3359 38.8472 54.3239 38.9272 53.7572 39.2685C52.7732 39.8632 51.2025 39.7165 50.3532 38.9525C49.6479 38.3179 49.3812 37.1939 49.7292 36.2312C50.0839 35.2445 50.8025 34.7232 51.8439 34.6219C53.8185 34.4272 54.8239 36.0379 54.5465 37.4805Z" fill="white"/>
<path d="M154.425 36.6712C154.2 35.8485 153.767 35.5272 153.003 35.5725C152.331 35.6125 151.948 35.9632 151.824 36.6712H154.425ZM154.711 38.0819C154.755 38.1525 154.796 38.2539 154.864 38.3285C155.34 38.8592 155.339 38.9819 154.68 39.2979C153.604 39.8112 152.529 39.7792 151.532 39.0925C150.697 38.5192 150.367 37.3819 150.672 36.3352C150.947 35.3845 151.784 34.7245 152.781 34.6219C154.625 34.4299 155.631 35.7619 155.596 37.1152C155.588 37.4192 155.493 37.4965 155.204 37.4925C154.096 37.4779 152.988 37.4859 151.852 37.4859C151.808 37.9712 152.112 38.2112 152.445 38.4072C153.045 38.7565 153.823 38.6472 154.711 38.0819Z" fill="white"/>
<path d="M114.613 37.6335C114.613 38.2188 114.605 38.7308 114.617 39.2415C114.623 39.4775 114.543 39.5548 114.303 39.5681C113.409 39.6161 113.409 39.6255 113.409 38.7095C113.409 37.5175 113.406 36.3268 113.41 35.1348C113.411 34.6548 113.418 34.6441 113.867 34.6455C114.751 34.6508 114.598 34.5495 114.613 35.3975C114.618 35.7068 114.622 36.0148 114.611 36.3228C114.605 36.5215 114.655 36.6228 114.882 36.6188C115.498 36.6068 116.115 36.6081 116.731 36.6175C116.957 36.6215 117.005 36.5148 117.001 36.3188C116.993 35.8668 117.006 35.4148 116.997 34.9628C116.993 34.7255 117.089 34.6521 117.325 34.6375C118.199 34.5868 118.199 34.5775 118.199 35.4548C118.199 36.6868 118.19 37.9201 118.206 39.1521C118.21 39.4721 118.118 39.6121 117.794 39.5615C117.774 39.5588 117.753 39.5615 117.733 39.5615C116.89 39.5508 117.01 39.6508 116.999 38.8535C116.997 38.5655 116.989 38.2775 117.002 37.9921C117.014 37.7361 116.929 37.6228 116.654 37.6295C115.998 37.6441 115.341 37.6335 114.613 37.6335Z" fill="white"/>
<path d="M105.622 34.6439V39.4785C105.587 39.5052 105.556 39.5439 105.526 39.5465C104.476 39.6105 104.476 39.6105 104.476 38.5719C104.476 37.7319 104.467 36.8919 104.48 36.0519C104.484 35.7599 104.379 35.6452 104.09 35.6585C103.74 35.6732 103.391 35.6759 103.043 35.6572C102.731 35.6399 102.66 35.7892 102.666 36.0639C102.676 36.6599 102.614 37.2505 102.536 37.8399C102.479 38.2705 102.386 38.6879 102.159 39.0639C101.86 39.5612 101.346 39.7612 100.788 39.6239C100.546 39.5652 100.436 39.4545 100.495 39.1999C100.523 39.0799 100.53 38.9545 100.531 38.8332C100.532 38.6652 100.578 38.5692 100.775 38.5745C101.152 38.5852 101.311 38.3145 101.414 38.0105C101.511 37.7199 101.539 37.4119 101.554 37.1039C101.586 36.3879 101.634 35.6719 101.658 34.9545C101.666 34.7212 101.744 34.6372 101.984 34.6385C103.172 34.6492 104.362 34.6439 105.622 34.6439Z" fill="white"/>
<path d="M80.4681 37.1348C80.4787 36.2428 79.9014 35.6188 79.0601 35.6121C78.2161 35.6068 77.6294 36.2188 77.6281 37.1081C77.6281 37.9748 78.1894 38.5801 79.0041 38.5961C79.8667 38.6108 80.4561 38.0228 80.4681 37.1348ZM79.0254 34.6041C80.5507 34.5921 81.6587 35.6215 81.6774 37.0721C81.6987 38.5481 80.5747 39.6415 79.0441 39.6361C77.5374 39.6308 76.4281 38.5695 76.4187 37.1215C76.4081 35.6695 77.5001 34.6148 79.0254 34.6041Z" fill="white"/>
<path d="M108.796 37.8796C108.796 38.0836 108.795 38.2876 108.796 38.4903C108.798 38.6023 108.838 38.6956 108.967 38.6916C109.392 38.6809 109.824 38.7663 110.242 38.6303C110.651 38.4996 110.827 38.2249 110.799 37.7983C110.772 37.4183 110.562 37.1849 110.144 37.1129C109.966 37.0823 109.779 37.0916 109.596 37.0903C108.794 37.0849 108.794 37.0863 108.796 37.8796ZM109.088 39.5623C108.698 39.5623 108.307 39.5529 107.918 39.5649C107.687 39.5729 107.588 39.5023 107.591 39.2543C107.599 37.8169 107.596 36.3783 107.592 34.9409C107.592 34.7423 107.654 34.6569 107.872 34.6383C108.782 34.5609 108.794 34.5649 108.794 35.4756C108.795 36.2449 108.795 36.2436 109.575 36.2463C109.986 36.2476 110.392 36.2303 110.799 36.3409C111.579 36.5543 111.996 37.0503 112.02 37.8289C112.043 38.5969 111.639 39.1756 110.922 39.4329C110.463 39.5969 109.991 39.5569 109.52 39.5623C109.376 39.5636 109.232 39.5623 109.088 39.5623Z" fill="white"/>
<path d="M39.3899 36.2155C39.7313 35.7648 40.0326 35.4048 40.2899 35.0128C40.4806 34.7208 40.7099 34.6021 41.0526 34.6381C41.2753 34.6635 41.5019 34.6435 41.8606 34.6435C41.2166 35.4928 40.6313 36.2648 40.0339 37.0541C40.6486 37.8635 41.2539 38.6608 41.9393 39.5621C41.4806 39.5621 41.1259 39.5528 40.7713 39.5648C40.5659 39.5715 40.4926 39.4208 40.3966 39.2928C40.0659 38.8515 39.7366 38.4088 39.3659 37.9101C39.0326 38.3515 38.7073 38.7355 38.4339 39.1541C38.2339 39.4635 38.0059 39.6141 37.6326 39.5675C37.3979 39.5381 37.1566 39.5621 36.8033 39.5621C37.2299 39.0021 37.5859 38.5341 37.9433 38.0675C38.1179 37.8395 38.2779 37.5981 38.4726 37.3875C38.6766 37.1675 38.6779 36.9968 38.4819 36.7568C38.0419 36.2168 37.6339 35.6501 37.2139 35.0928C37.1299 34.9795 37.0179 34.8835 36.9713 34.6448C37.3379 34.6448 37.6926 34.6501 38.0446 34.6435C38.2513 34.6395 38.3193 34.8008 38.4166 34.9261C38.7273 35.3301 39.0313 35.7395 39.3899 36.2155Z" fill="white"/>
<path d="M121.318 37.8939C121.318 38.0779 121.317 38.2592 121.318 38.4432C121.32 38.5765 121.356 38.6992 121.514 38.6952C121.92 38.6805 122.33 38.7645 122.728 38.6272C123.134 38.4832 123.301 38.2219 123.269 37.7859C123.242 37.4285 123.05 37.2045 122.665 37.1245C122.488 37.0885 122.3 37.0925 122.118 37.0912C121.317 37.0832 121.317 37.0845 121.318 37.8939ZM121.317 36.2459C121.761 36.2459 122.128 36.2472 122.496 36.2459C122.741 36.2445 122.982 36.2685 123.225 36.3312C124.033 36.5379 124.448 37.0085 124.478 37.7792C124.513 38.6325 124.124 39.1952 123.325 39.4459C123.128 39.5072 122.933 39.5619 122.725 39.5605C121.986 39.5592 121.248 39.5539 120.51 39.5659C120.261 39.5699 120.141 39.5192 120.144 39.2312C120.157 37.8165 120.154 36.4032 120.145 34.9885C120.144 34.7245 120.233 34.6312 120.501 34.6392C121.488 34.6672 121.294 34.5165 121.317 35.4405C121.322 35.6859 121.317 35.9299 121.317 36.2459Z" fill="white"/>
<path d="M63.5724 35.7585C63.4217 35.8505 63.3017 35.9265 63.179 35.9985C62.747 36.2519 62.747 36.2519 62.3764 35.9412C61.807 35.4652 60.9337 35.5052 60.4217 36.0279C59.8897 36.5705 59.8777 37.6065 60.3964 38.1665C60.8844 38.6919 61.7884 38.7519 62.3524 38.2945C62.7617 37.9639 62.763 37.9612 63.2004 38.2292C63.3204 38.3012 63.4697 38.3412 63.5377 38.4812C63.259 39.3132 62.0404 39.8585 60.687 39.5359C59.5804 39.2732 58.8497 38.3319 58.8204 37.1612C58.791 35.9945 59.4564 35.0625 60.595 34.7292C61.7524 34.3892 63.1164 34.7199 63.5724 35.7585Z" fill="white"/>
<path d="M141.761 38.4616C141.305 39.4723 139.937 39.8709 138.731 39.4843C137.615 39.1256 136.956 38.1669 137.012 37.0069C137.075 35.6763 138.017 34.7189 139.352 34.6216C140.068 34.5696 140.745 34.6563 141.311 35.1469C141.449 35.2656 141.552 35.4229 141.669 35.5643C141.724 35.6296 141.769 35.7243 141.695 35.7789C141.515 35.9123 141.305 36.0043 141.129 36.1416C140.843 36.3669 140.743 36.0923 140.587 35.9603C140.117 35.5643 139.592 35.4976 139.04 35.7416C138.472 35.9896 138.22 36.4669 138.207 37.0629C138.193 37.6549 138.405 38.1469 138.955 38.4403C139.459 38.7109 140.127 38.6376 140.565 38.2723C140.937 37.9629 140.937 37.9629 141.364 38.2136C141.485 38.2856 141.604 38.3643 141.761 38.4616Z" fill="white"/>
<path d="M161.559 35.7233C161.451 35.9153 161.23 35.9513 161.071 36.074C160.851 36.2433 160.693 36.254 160.454 36.0207C159.863 35.438 158.957 35.4767 158.422 36.0473C157.895 36.6087 157.901 37.626 158.433 38.1807C158.974 38.7433 159.875 38.766 160.467 38.1847C160.675 37.9793 160.817 37.9433 161.029 38.1127C161.201 38.2513 161.445 38.2953 161.569 38.4993C161.175 39.4153 159.897 39.866 158.625 39.5087C157.513 39.1953 156.815 38.234 156.831 37.0793C156.846 35.8993 157.591 34.9633 158.745 34.6767C159.947 34.3753 161.021 34.774 161.559 35.7233Z" fill="white"/>
<path d="M30.5867 38.5241C30.096 39.5281 28.6653 39.8935 27.432 39.4348C26.3307 39.0228 25.6827 37.8828 25.8773 36.7215C26.0813 35.5015 26.9893 34.7028 28.2507 34.6188C29.0173 34.5681 29.7267 34.6921 30.2893 35.2681C30.684 35.6708 30.6533 35.7028 30.196 36.0228C29.8573 36.2615 29.6693 36.1921 29.38 35.9255C28.8373 35.4255 27.928 35.5201 27.4333 36.0601C26.9307 36.6081 26.9293 37.6028 27.4307 38.1521C27.904 38.6721 28.7707 38.7601 29.336 38.3348C29.4813 38.2268 29.6173 37.9908 29.744 37.9988C29.948 38.0135 30.1427 38.1841 30.3387 38.2895C30.4293 38.3375 30.5267 38.3775 30.5867 38.5241Z" fill="white"/>
<path d="M89.3927 35.6621C89.3047 34.6435 89.3047 34.6435 90.2007 34.6435C91.33 34.6435 92.4593 34.6421 93.5887 34.6448C93.7207 34.6461 93.8833 34.5901 93.9527 34.7835C94.006 34.9341 93.9753 35.5768 93.89 35.6115C93.8007 35.6488 93.6953 35.6568 93.5953 35.6595C93.2873 35.6648 92.978 35.6808 92.6727 35.6568C92.3367 35.6301 92.2593 35.7768 92.2633 36.0835C92.2793 37.0688 92.2713 38.0541 92.2687 39.0381C92.2673 39.5581 92.262 39.5581 91.722 39.5621H91.598C91.0327 39.5581 91.0687 39.6181 91.0687 39.0301C91.07 38.0461 91.0567 37.0608 91.0767 36.0768C91.0833 35.7541 90.9873 35.6368 90.6633 35.6555C90.2553 35.6795 89.846 35.6621 89.3927 35.6621Z" fill="white"/>
<path d="M67.1465 35.6608V38.8208C67.1465 38.9648 67.1398 39.1088 67.1465 39.2515C67.1665 39.7408 66.7878 39.5568 66.5798 39.5461C66.3518 39.5355 65.9465 39.7795 65.9465 39.2488V36.6021C65.9465 35.6608 65.9465 35.6608 65.0132 35.6608C64.9118 35.6608 64.8092 35.6635 64.7065 35.6608C64.2452 35.6515 64.2452 35.6515 64.2438 35.1755C64.2412 34.6475 64.2412 34.6448 64.7852 34.6435C65.9772 34.6421 67.1678 34.6408 68.3585 34.6435C68.8598 34.6448 68.8598 34.6501 68.8625 35.1448C68.8638 35.6528 68.8638 35.6555 68.3772 35.6608C67.9892 35.6648 67.5998 35.6608 67.1465 35.6608Z" fill="white"/>
<path d="M191.109 4.94733C192.198 4.942 193.061 4.074 193.053 2.98866C193.045 1.906 192.163 1.03266 191.086 1.04466C190.007 1.05533 189.126 1.94333 189.131 3.01133C189.137 4.082 190.026 4.95133 191.109 4.94733ZM188.702 3.00466C188.702 1.634 189.746 0.603331 191.125 0.611331C192.45 0.619331 193.509 1.67666 193.511 2.99666C193.514 4.31933 192.398 5.422 191.071 5.41C189.754 5.39533 188.702 4.32733 188.702 3.00466Z" fill="white"/>
<path d="M126.238 37.1517C126.238 37.8464 126.231 38.5437 126.242 39.2397C126.244 39.4677 126.18 39.5944 125.932 39.5624C125.912 39.5597 125.891 39.5624 125.871 39.5624C124.896 39.5464 125.082 39.6757 125.074 38.8117C125.062 37.5837 125.068 36.3544 125.071 35.1264C125.074 34.6517 125.08 34.6517 125.531 34.6437C125.632 34.6424 125.738 34.6571 125.836 34.6411C126.18 34.5877 126.25 34.7611 126.243 35.0637C126.227 35.7584 126.238 36.4557 126.238 37.1517Z" fill="white"/>
<path d="M190.915 2.84187C191.359 2.8432 191.569 2.72187 191.555 2.47387C191.541 2.24853 191.335 2.12587 190.943 2.1112C190.861 2.10853 190.78 2.11253 190.7 2.11253C190.547 2.1152 190.503 2.20587 190.485 2.34453C190.431 2.76587 190.491 2.84053 190.915 2.84187ZM191.495 3.2152C191.756 3.5752 192.017 3.88587 192.175 4.26453C191.824 4.3992 191.615 4.28053 191.465 3.97253C191.369 3.7712 191.235 3.58587 191.091 3.4152C190.967 3.2672 190.777 3.20453 190.593 3.2832C190.423 3.35653 190.499 3.53387 190.489 3.6672C190.479 3.8112 190.483 3.95387 190.487 4.09653C190.491 4.2512 190.42 4.3152 190.267 4.31387C190.121 4.3112 190.032 4.2632 190.032 4.10453C190.032 3.94053 190.029 3.77653 190.029 3.61387C190.028 3.08053 190.032 2.5472 190.028 2.0152C190.027 1.81387 190.1 1.71387 190.315 1.7232C190.621 1.73653 190.931 1.71653 191.236 1.73787C191.681 1.7672 191.955 1.9592 192.031 2.2912C192.113 2.66053 191.955 2.92453 191.629 3.10053C191.596 3.1192 191.568 3.1512 191.495 3.2152Z" fill="white"/>
</svg>
