<svg width="171" height="72" viewBox="0 0 171 72" fill="none" xmlns="http://www.w3.org/2000/svg">
<path d="M157.663 56.0153H4.82389V13.1567H157.663V56.0153ZM4.82389 8.562H0.229248V13.1567V56.0153V60.6087H4.82389H157.663H162.259V56.0153V13.1567V8.562H157.663H4.82389Z" fill="white"/>
<path d="M143.228 45.2689L146.916 23.9009H139.963L138.207 39.9276L136.451 23.9009H129.498L133.184 45.2689H143.228Z" fill="white"/>
<path d="M142.469 68.4733V65.2053H141.173V69.844H142.775L144.819 66.4893V69.844H146.112V65.2053H144.511L142.469 68.4733Z" fill="white"/>
<path d="M137.647 68.3301V66.6235C137.647 66.1888 137.969 65.9728 138.616 65.9728C138.96 65.9728 139.465 66.0488 140.129 66.2021V65.2808C139.543 65.1661 139.072 65.1088 138.721 65.1088C138.511 65.1088 138.34 65.1115 138.208 65.1128C138.076 65.1181 137.915 65.1315 137.719 65.1581C137.524 65.1821 137.367 65.2155 137.244 65.2581C137.124 65.2981 136.991 65.3595 136.847 65.4448C136.703 65.5275 136.592 65.6275 136.511 65.7461C136.432 65.8648 136.364 66.0115 136.309 66.1875C136.256 66.3621 136.229 66.5648 136.229 66.7968V68.3395C136.229 68.5955 136.26 68.8181 136.325 69.0061C136.389 69.1941 136.485 69.3448 136.617 69.4581C136.747 69.5688 136.879 69.6595 137.009 69.7288C137.141 69.8008 137.313 69.8501 137.527 69.8781C137.74 69.9075 137.919 69.9248 138.06 69.9315C138.199 69.9381 138.389 69.9408 138.624 69.9408C139.111 69.9408 139.635 69.8875 140.196 69.7781V68.8568C139.54 68.9981 139.044 69.0688 138.712 69.0688C138.001 69.0688 137.647 68.8221 137.647 68.3301Z" fill="white"/>
<path d="M133.764 67.1036H132.086V66.4316C132.086 66.2849 132.145 66.1716 132.265 66.0903C132.384 66.0116 132.61 65.9729 132.949 65.9729C133.256 65.9729 133.469 66.0116 133.588 66.0903C133.706 66.1716 133.764 66.2849 133.764 66.4316V67.1036ZM134.569 65.4729C134.218 65.2316 133.682 65.1089 132.969 65.1089C132.208 65.1089 131.637 65.2356 131.252 65.4916C130.869 65.7476 130.678 66.1729 130.678 66.7676V68.4356C130.678 69.4396 131.5 69.9409 133.14 69.9409C133.768 69.9409 134.374 69.8809 134.964 69.7583V68.8676C134.388 69.0009 133.87 69.0689 133.409 69.0689C132.898 69.0689 132.55 69.0103 132.365 68.8916C132.178 68.7716 132.086 68.5823 132.086 68.3196V67.8996H135.097V66.7676C135.097 66.1463 134.921 65.7169 134.569 65.4729Z" fill="white"/>
<path d="M126.498 68.3301L125.481 65.2048H123.575V69.8448H124.81V66.6808H124.859L125.933 69.8448H126.959L128.07 66.6808H128.117V69.8448H129.393V65.2048H127.581L126.498 68.3301Z" fill="white"/>
<path d="M118.771 29.2727H121.427V39.9273H118.771V29.2727ZM114.771 45.2687H125.425C127.009 45.2687 128.111 44.17 128.111 42.6127V26.5567C128.111 25.0007 127.009 23.9007 125.425 23.9007H114.771C113.183 23.9007 112.083 25.0007 112.083 26.5567V42.6127C112.083 44.17 113.183 45.2687 114.771 45.2687" fill="white"/>
<path d="M120.045 68.3301V66.6235C120.045 66.1888 120.368 65.9728 121.014 65.9728C121.358 65.9728 121.864 66.0488 122.528 66.2021V65.2808C121.941 65.1661 121.47 65.1088 121.12 65.1088C120.909 65.1088 120.738 65.1115 120.606 65.1128C120.474 65.1181 120.313 65.1315 120.117 65.1581C119.922 65.1821 119.765 65.2155 119.642 65.2581C119.522 65.2981 119.389 65.3595 119.246 65.4448C119.101 65.5275 118.99 65.6275 118.909 65.7461C118.83 65.8648 118.762 66.0115 118.709 66.1875C118.654 66.3621 118.628 66.5648 118.628 66.7968V68.3395C118.628 68.5955 118.658 68.8181 118.724 69.0061C118.788 69.1941 118.884 69.3448 119.016 69.4581C119.146 69.5688 119.277 69.6595 119.408 69.7288C119.54 69.8008 119.712 69.8501 119.925 69.8781C120.138 69.9075 120.317 69.9248 120.458 69.9315C120.597 69.9381 120.788 69.9408 121.022 69.9408C121.509 69.9408 122.033 69.8875 122.597 69.7781V68.8568C121.938 68.9981 121.442 69.0688 121.11 69.0688C120.4 69.0688 120.045 68.8221 120.045 68.3301Z" fill="white"/>
<path d="M113.766 67.1036H112.089V66.4316C112.089 66.2849 112.148 66.1716 112.265 66.0903C112.384 66.0116 112.613 65.9729 112.952 65.9729C113.258 65.9729 113.47 66.0116 113.588 66.0903C113.709 66.1716 113.766 66.2849 113.766 66.4316V67.1036ZM114.572 65.4729C114.221 65.2316 113.685 65.1089 112.972 65.1089C112.21 65.1089 111.637 65.2356 111.254 65.4916C110.872 65.7476 110.681 66.1729 110.681 66.7676V68.4356C110.681 69.4396 111.502 69.9409 113.142 69.9409C113.77 69.9409 114.377 69.8809 114.964 69.7583V68.8676C114.39 69.0009 113.87 69.0689 113.412 69.0689C112.901 69.0689 112.553 69.0103 112.368 68.8916C112.182 68.7716 112.089 68.5823 112.089 68.3196V67.8996H115.1V66.7676C115.1 66.1463 114.924 65.7169 114.572 65.4729Z" fill="white"/>
<path d="M109.429 42.6127V37.758C109.429 36.0513 109.093 35.1047 107.626 34.1273L101.829 30.2513V29.2727H109.429V23.9007H97.8303C96.2423 23.9007 95.1423 25.0007 95.1423 26.5567V31.0433C95.1423 32.7527 95.4783 33.6687 96.945 34.678L102.744 38.5233V39.9273H95.1423V45.2687H106.773C108.332 45.2687 109.429 44.17 109.429 42.6127Z" fill="white"/>
<path d="M107.996 69.8447H109.396V65.206H107.996V69.8447Z" fill="white"/>
<path d="M105.799 68.4069C105.799 68.6243 105.748 68.7709 105.642 68.8523C105.538 68.9323 105.292 68.9723 104.908 68.9723H104.064V67.6869H104.927C105.262 67.6869 105.488 67.7203 105.612 67.7829C105.738 67.8469 105.799 67.9856 105.799 68.1949V68.4069ZM106.802 67.0549C106.506 66.8869 105.886 66.8056 104.947 66.8056H104.064V65.2056H102.664V69.8443H104.976C105.716 69.8443 106.28 69.7509 106.667 69.5669C107.055 69.3816 107.247 69.0603 107.247 68.6083V68.1096C107.247 67.5736 107.1 67.2216 106.802 67.0549" fill="white"/>
<path d="M99.8484 66.9968H97.9577V65.2048H96.5591V69.8448H97.9577V67.9088H99.8484V69.8448H101.246V65.2048H99.8484V66.9968Z" fill="white"/>
<path d="M93.9226 68.4069C93.9226 68.6243 93.8693 68.7709 93.7653 68.8523C93.6586 68.9323 93.4146 68.9723 93.0293 68.9723H92.1853V67.6869H93.0506C93.3826 67.6869 93.612 67.7203 93.7346 67.7829C93.86 67.8469 93.9226 67.9856 93.9226 68.1949V68.4069ZM94.9253 67.0549C94.6253 66.8869 94.0093 66.8056 93.0693 66.8056H92.1853V65.2056H90.7866V69.8443H93.0986C93.8386 69.8443 94.4026 69.7509 94.788 69.5669C95.176 69.3816 95.3706 69.0603 95.3706 68.6083V68.1096C95.3706 67.5736 95.2213 67.2216 94.9253 67.0549" fill="white"/>
<path d="M92.11 39.9277H84.4794V36.9984H91.0407V31.6557H84.4794V29.2731H91.0407H92.11V26.5571V23.8997H77.8234V45.2691H92.11V39.9277Z" fill="white"/>
<path d="M85.0359 68.2533C85.0359 68.5667 84.9985 68.7787 84.9252 68.892C84.8505 69.0027 84.7252 69.0587 84.5465 69.0587C84.4572 69.0587 84.3545 69.044 84.2385 69.0093V69.8653C84.3985 69.896 84.5959 69.912 84.8252 69.912C85.0412 69.912 85.2239 69.9027 85.3652 69.888C85.5092 69.872 85.6559 69.836 85.8012 69.7813C85.9492 69.728 86.0639 69.652 86.1479 69.5533C86.2305 69.452 86.2985 69.3147 86.3545 69.1387C86.4079 68.9653 86.4345 68.7493 86.4345 68.4933V66.068H87.9772V69.844H89.3692V65.2053H85.0359V68.2533Z" fill="white"/>
<path d="M82.1388 67.1036H80.4628V66.4316C80.4628 66.2849 80.5201 66.1716 80.6415 66.0903C80.7588 66.0116 80.9868 65.9729 81.3255 65.9729C81.6321 65.9729 81.8455 66.0116 81.9628 66.0903C82.0815 66.1716 82.1388 66.2849 82.1388 66.4316V67.1036ZM82.9455 65.4729C82.5935 65.2316 82.0588 65.1089 81.3441 65.1089C80.5828 65.1089 80.0121 65.2356 79.6281 65.4916C79.2441 65.7476 79.0535 66.1729 79.0535 66.7676V68.4356C79.0535 69.4396 79.8748 69.9409 81.5175 69.9409C82.1441 69.9409 82.7495 69.8809 83.3388 69.7583V68.8676C82.7628 69.0009 82.2468 69.0689 81.7855 69.0689C81.2735 69.0689 80.9255 69.0103 80.7415 68.8916C80.5561 68.7716 80.4628 68.5823 80.4628 68.3196V67.8996H83.4735V66.7676C83.4735 66.1463 83.2975 65.7169 82.9455 65.4729" fill="white"/>
<path d="M74.0215 66.0684H75.4575V69.8444H76.8575V66.0684H78.2868V65.2057H74.0215V66.0684Z" fill="white"/>
<path d="M59.8888 37.6361L60.9395 45.2695H63.7315H66.5222L67.5755 37.6361L68.6915 45.2695H75.5342L72.4142 23.9001H71.4475H65.5755H65.5688L65.5715 23.9201L63.7315 32.3175L61.8902 23.9201L61.8955 23.9001H61.8862H56.0168H55.0502L51.9275 45.2695H58.7728L59.8888 37.6361Z" fill="white"/>
<path d="M69.2845 68.4733V65.2053H67.9885V69.844H69.5912L71.6339 66.4893V69.844H72.9272V65.2053H71.3259L69.2845 68.4733Z" fill="white"/>
<path d="M65.3055 68.4148C65.3055 68.6615 65.2442 68.8308 65.1188 68.9255C64.9948 69.0215 64.7362 69.0681 64.3455 69.0681C63.9562 69.0681 63.7015 69.0215 63.5762 68.9255C63.4508 68.8308 63.3895 68.6615 63.3895 68.4148V66.6641C63.3895 66.4135 63.4535 66.2348 63.5802 66.1308C63.7082 66.0241 63.9628 65.9735 64.3455 65.9735C64.7308 65.9735 64.9855 66.0241 65.1135 66.1308C65.2415 66.2348 65.3055 66.4135 65.3055 66.6641V68.4148ZM66.1922 65.5415C66.0508 65.4188 65.8628 65.3255 65.6308 65.2588C65.4015 65.1908 65.1948 65.1495 65.0135 65.1335C64.8322 65.1175 64.6095 65.1095 64.3455 65.1095C64.0855 65.1095 63.8628 65.1175 63.6802 65.1335C63.4988 65.1495 63.2935 65.1908 63.0615 65.2588C62.8335 65.3255 62.6455 65.4188 62.5028 65.5415C62.3575 65.6615 62.2348 65.8361 62.1375 66.0615C62.0375 66.2881 61.9882 66.5628 61.9882 66.8841V68.2535C61.9882 68.5535 62.0375 68.8121 62.1335 69.0255C62.2282 69.2388 62.3468 69.4055 62.4882 69.5241C62.6268 69.6428 62.8122 69.7335 63.0402 69.7961C63.2668 69.8601 63.4735 69.9001 63.6628 69.9161C63.8495 69.9321 64.0788 69.9415 64.3455 69.9415C64.6148 69.9415 64.8442 69.9321 65.0322 69.9161C65.2215 69.9001 65.4295 69.8601 65.6562 69.7961C65.8828 69.7335 66.0668 69.6428 66.2082 69.5241C66.3482 69.4055 66.4655 69.2388 66.5615 69.0255C66.6575 68.8121 66.7068 68.5535 66.7068 68.2535V66.8841C66.7068 66.5628 66.6562 66.2881 66.5575 66.0615C66.4575 65.8361 66.3362 65.6615 66.1922 65.5415" fill="white"/>
<path d="M59.4382 68.3769C59.4382 68.6529 59.3769 68.8369 59.2516 68.9289C59.1276 69.0209 58.8596 69.0689 58.4529 69.0689C58.0942 69.0689 57.8489 69.0316 57.7156 68.9596C57.6942 68.9529 57.6782 68.9409 57.6649 68.9289C57.5502 68.8369 57.4929 68.6529 57.4929 68.3769V66.6636C57.4929 66.4063 57.5502 66.2263 57.6716 66.1249C57.6876 66.1116 57.7022 66.0996 57.7222 66.0876C57.8556 66.0129 58.0942 65.9729 58.4409 65.9729C58.8822 65.9729 59.1582 66.0116 59.2716 66.0903C59.3836 66.1716 59.4382 66.3623 59.4382 66.6636V68.3769ZM60.5222 65.5156C60.3942 65.3716 60.2049 65.2689 59.9582 65.2049C59.7076 65.1396 59.3849 65.1089 58.9889 65.1089C58.5156 65.1089 58.1556 65.1516 57.9102 65.2343C57.6649 65.3156 57.4996 65.4596 57.4169 65.6663V65.2049H56.0916V71.8383H57.4929V69.3743C57.5569 69.6116 57.6942 69.7649 57.9102 69.8356C58.1236 69.9049 58.4489 69.9409 58.8822 69.9409C59.5729 69.9409 60.0716 69.8223 60.3782 69.5863C60.6862 69.3503 60.8396 68.8849 60.8396 68.1943V66.6716C60.8396 66.3916 60.8169 66.1649 60.7769 65.9903C60.7356 65.8196 60.6502 65.6609 60.5222 65.5156Z" fill="white"/>
<path d="M50.735 66.0684H52.171V69.8444H53.571V66.0684H55.0003V65.2057H50.735V66.0684Z" fill="white"/>
<path d="M40.0489 40.9655L40.6823 35.6241L41.4343 29.2721L42.1743 35.6241L42.7956 40.9655L43.2969 45.2695H50.4063L46.9903 23.9001H35.8769L32.4609 45.2695H39.5409L40.0489 40.9655Z" fill="white"/>
<path d="M47.5333 68.3301V66.6235C47.5333 66.1888 47.8533 65.9728 48.4999 65.9728C48.8439 65.9728 49.3493 66.0488 50.0159 66.2021V65.2808C49.4279 65.1661 48.9573 65.1088 48.6066 65.1088C48.3946 65.1088 48.2239 65.1115 48.0919 65.1128C47.9626 65.1181 47.7973 65.1315 47.6053 65.1581C47.4079 65.1821 47.2506 65.2155 47.1293 65.2581C47.0066 65.2981 46.8759 65.3595 46.7306 65.4448C46.5866 65.5275 46.4759 65.6275 46.3946 65.7461C46.3146 65.8648 46.2479 66.0115 46.1946 66.1875C46.1413 66.3621 46.1133 66.5648 46.1133 66.7968V68.3395C46.1133 68.5955 46.1453 68.8181 46.2079 69.0061C46.2733 69.1941 46.3706 69.3448 46.5026 69.4581C46.6306 69.5688 46.7626 69.6595 46.8946 69.7288C47.0253 69.8008 47.1986 69.8501 47.4119 69.8781C47.6266 69.9075 47.8039 69.9248 47.9453 69.9315C48.0853 69.9381 48.2733 69.9408 48.5106 69.9408C48.9959 69.9408 49.5186 69.8875 50.0826 69.7781V68.8568C49.4239 68.9981 48.9293 69.0688 48.5959 69.0688C47.8879 69.0688 47.5333 68.8221 47.5333 68.3301Z" fill="white"/>
<path d="M41.2533 67.1036H39.5746V66.4316C39.5746 66.2849 39.6346 66.1716 39.7533 66.0903C39.872 66.0116 40.0986 65.9729 40.44 65.9729C40.744 65.9729 40.9573 66.0116 41.076 66.0903C41.1933 66.1716 41.2533 66.2849 41.2533 66.4316V67.1036ZM42.0586 65.4729C41.7066 65.2316 41.1733 65.1089 40.456 65.1089C39.6973 65.1089 39.1253 65.2356 38.74 65.4916C38.3573 65.7476 38.1666 66.1729 38.1666 66.7676V68.4356C38.1666 69.4396 38.988 69.9409 40.6306 69.9409C41.256 69.9409 41.864 69.8809 42.4506 69.7583V68.8676C41.876 69.0009 41.3586 69.0689 40.8973 69.0689C40.388 69.0689 40.0386 69.0103 39.8533 68.8916C39.6693 68.7716 39.5746 68.5823 39.5746 68.3196V67.8996H42.5853V66.7676C42.5853 66.1463 42.4093 65.7169 42.0586 65.4729" fill="white"/>
<path d="M33.2377 68.4733V65.2053H31.9443V69.844H33.5443L35.587 66.4893V69.844H36.8803V65.2053H35.279L33.2377 68.4733Z" fill="white"/>
<path d="M30.9551 65.2051H29.3365L28.4151 66.5384L27.5045 65.2051H25.8858L27.6111 67.4664L25.7898 69.8437H27.4085L28.4151 68.3891L29.4325 69.8437H31.0538L29.2205 67.4664L30.9551 65.2051Z" fill="white"/>
<path d="M30.679 39.9277H23.171V39.1944L30.4057 29.3957V23.8997H15.5697V26.5571V29.2731H16.607H22.775V30.0064L15.5697 39.8051V45.2691H30.679V39.9277Z" fill="white"/>
<path d="M23.0293 68.4837L21.9853 65.2051H20.4586L22.3093 69.8064L21.4653 71.8384H22.8853L25.4253 65.2051H23.9773L23.0293 68.4837Z" fill="white"/>
<path d="M17.4694 68.3301V66.6235C17.4694 66.1888 17.7894 65.9728 18.4361 65.9728C18.7801 65.9728 19.2854 66.0488 19.9508 66.2021V65.2808C19.3641 65.1661 18.8934 65.1088 18.5428 65.1088C18.3308 65.1088 18.1601 65.1115 18.0281 65.1128C17.8988 65.1181 17.7334 65.1315 17.5401 65.1581C17.3441 65.1821 17.1868 65.2155 17.0654 65.2581C16.9428 65.2981 16.8121 65.3595 16.6668 65.4448C16.5228 65.5275 16.4108 65.6275 16.3308 65.7461C16.2508 65.8648 16.1841 66.0115 16.1308 66.1875C16.0774 66.3621 16.0494 66.5648 16.0494 66.7968V68.3395C16.0494 68.5955 16.0814 68.8181 16.1441 69.0061C16.2094 69.1941 16.3068 69.3448 16.4388 69.4581C16.5694 69.5688 16.6988 69.6595 16.8308 69.7288C16.9614 69.8008 17.1348 69.8501 17.3481 69.8781C17.5628 69.9075 17.7401 69.9248 17.8814 69.9315C18.0214 69.9381 18.2081 69.9408 18.4454 69.9408C18.9321 69.9408 19.4548 69.8875 20.0188 69.7781V68.8568C19.3601 68.9981 18.8654 69.0688 18.5308 69.0688C17.8241 69.0688 17.4694 68.8221 17.4694 68.3301Z" fill="white"/>
<path d="M169.869 4.13213C169.664 4.50147 169.377 4.78947 169.008 4.99613C168.637 5.20147 168.249 5.30413 167.847 5.30413C167.444 5.30413 167.059 5.20147 166.689 4.99613C166.32 4.78947 166.029 4.50147 165.823 4.13213C165.619 3.7628 165.513 3.3788 165.513 2.9748C165.513 2.56947 165.62 2.18013 165.831 1.80547C166.039 1.4348 166.331 1.14413 166.7 0.9428C167.072 0.744134 167.455 0.641467 167.847 0.641467C168.236 0.641467 168.62 0.744134 168.992 0.9428C169.365 1.14413 169.655 1.4348 169.864 1.80547C170.071 2.18013 170.176 2.56947 170.176 2.9748C170.176 3.3788 170.073 3.7628 169.869 4.13213ZM170.265 1.57347C170.017 1.12413 169.669 0.781467 169.221 0.5388C168.776 0.2988 168.317 0.180134 167.847 0.180134C167.38 0.180134 166.92 0.2988 166.473 0.5388C166.025 0.781467 165.677 1.12413 165.427 1.57347C165.176 2.02147 165.053 2.48947 165.053 2.9748C165.053 3.4548 165.175 3.9188 165.423 4.36413C165.669 4.8068 166.013 5.15213 166.457 5.39747C166.9 5.64413 167.364 5.7668 167.847 5.7668C168.331 5.7668 168.795 5.64413 169.239 5.39747C169.679 5.15213 170.027 4.8068 170.269 4.36413C170.516 3.9188 170.639 3.4548 170.639 2.9748C170.639 2.48947 170.513 2.02147 170.265 1.57347" fill="white"/>
<path d="M167.696 2.82746H167.105V1.91813H167.657C167.895 1.91813 168.057 1.9368 168.145 1.97146C168.233 2.00613 168.301 2.05946 168.349 2.1288C168.399 2.19946 168.424 2.27813 168.424 2.36613C168.424 2.50746 168.372 2.61813 168.271 2.7008C168.169 2.78346 167.976 2.82746 167.696 2.82746ZM168.335 3.3328C168.272 3.2728 168.187 3.21946 168.08 3.17546C168.339 3.15546 168.548 3.06346 168.704 2.90213C168.863 2.7368 168.939 2.54746 168.939 2.32613C168.939 2.17146 168.891 2.02613 168.8 1.88613C168.704 1.74746 168.579 1.65013 168.421 1.59413C168.264 1.53813 168.007 1.5128 167.653 1.5128H166.621V4.5208H167.105V3.24213H167.391C167.561 3.24213 167.691 3.27813 167.78 3.3448C167.909 3.43813 168.079 3.67413 168.287 4.04346L168.556 4.5208H169.147L168.779 3.93013C168.604 3.65146 168.456 3.45413 168.335 3.3328Z" fill="white"/>
</svg>
