<svg width="21" height="20" viewBox="0 0 21 20" fill="none" xmlns="http://www.w3.org/2000/svg">
<path d="M16.4403 17.4432H4.49628C3.08161 17.4432 1.93628 16.2979 1.93628 14.8832V5.92453L7.45095 11.4365C9.11895 13.0992 11.8176 13.0992 13.4843 11.4365L18.9989 5.92453V14.8832C18.9989 16.2979 17.8536 17.4432 16.4403 17.4432ZM4.49628 2.08453H16.4403C17.4856 2.08719 18.4243 2.72453 18.8123 3.69519L12.2776 10.2299C11.2776 11.2272 9.65895 11.2272 8.65761 10.2299L2.12428 3.69519C2.51095 2.72453 3.45095 2.08719 4.49628 2.08453ZM16.4403 0.379192H4.49628C2.14028 0.381859 0.232281 2.29119 0.229614 4.64453V14.8832C0.232281 17.2379 2.14028 19.1459 4.49628 19.1485H16.4403C18.7949 19.1459 20.7029 17.2379 20.7056 14.8832V4.64453C20.7029 2.29119 18.7949 0.381859 16.4403 0.379192Z" fill="white"/>
</svg>
