<svg width="20" height="21" viewBox="0 0 20 21" fill="none" xmlns="http://www.w3.org/2000/svg">
<path d="M15.4408 9.54614C15.7581 9.2288 15.7581 8.7128 15.4408 8.39414L14.0501 7.00214V4.89147C14.0501 4.4408 13.6848 4.07547 13.2341 4.07547C12.7835 4.07547 12.4195 4.4408 12.4195 4.89147V7.3368C12.4195 7.5528 12.5048 7.75947 12.6581 7.9128L14.2888 9.54347C14.6075 9.8608 15.1235 9.8608 15.4408 9.54347V9.54614ZM18.5861 11.0675C22.6541 5.07814 15.4875 -2.08053 9.50613 1.98747C9.13147 2.23813 9.03147 2.74347 9.2808 3.11814C9.53147 3.4928 10.0368 3.59414 10.4115 3.34347C10.4208 3.33813 10.4301 3.33147 10.4395 3.3248C14.9021 0.259468 20.3115 5.6768 17.2488 10.1341C16.9795 10.4968 17.0541 11.0075 17.4155 11.2768C17.7768 11.5448 18.2875 11.4701 18.5568 11.1088C18.5661 11.0955 18.5768 11.0808 18.5861 11.0675ZM4.3248 2.4448C4.08747 2.4448 3.8608 2.53814 3.6928 2.70614L2.75547 3.5208C-1.8472 9.05547 12.2381 22.3555 17.0821 17.7781L17.8261 16.9208C18.1955 16.5915 18.2288 16.0248 17.8995 15.6555C17.8981 15.6541 17.8968 15.6515 17.8955 15.6501L15.9981 14.1928C15.9688 14.1728 15.9421 14.1488 15.9168 14.1235C15.5635 13.7861 15.0075 13.7861 14.6541 14.1235C14.6328 14.1448 14.6101 14.1648 14.5861 14.1848L12.9901 15.4568C12.7648 15.6355 12.4608 15.6835 12.1915 15.5795C8.86613 14.3421 6.24347 11.7208 5.0008 8.3968C4.89013 8.12347 4.93547 7.81147 5.11947 7.5808L6.38613 5.98614C6.4048 5.96214 6.42613 5.93947 6.44747 5.91814C6.79413 5.5688 6.79413 5.0048 6.44747 4.65547C6.42213 4.6288 6.39813 4.60214 6.37813 4.57414L4.92347 2.67947C4.75947 2.53014 4.54613 2.4488 4.3248 2.4488V2.4448ZM14.6715 20.3808C8.04213 20.6048 -3.8992 8.75947 1.6448 2.3368L2.58213 1.5208C3.57013 0.567469 5.1408 0.582136 6.1088 1.5568C6.13413 1.58214 6.15813 1.61014 6.17947 1.63814L7.64613 3.54614C8.5728 4.5248 8.5688 6.05947 7.63813 7.03414L6.69413 8.22214C7.75013 10.7861 9.78347 12.8235 12.3448 13.8848L13.5381 12.9355C14.5248 12.0288 16.0408 12.0261 17.0288 12.9301L18.9368 14.3981C18.9661 14.4181 18.9928 14.4421 19.0195 14.4661C19.9981 15.4555 19.9981 17.0475 19.0195 18.0355L18.2755 18.8928C17.3248 19.8528 16.0235 20.3915 14.6715 20.3808Z" fill="white"/>
</svg>
