<svg width="24" height="25" viewBox="0 0 24 25" fill="none" xmlns="http://www.w3.org/2000/svg">
<path d="M23.9643 12.8287C23.9643 19.3807 18.6536 24.6913 12.103 24.6913C5.54962 24.6913 0.238953 19.3807 0.238953 12.8287C0.238953 6.27668 5.54962 0.966011 12.103 0.966011C18.6536 0.966011 23.9643 6.27668 23.9643 12.8287Z" fill="#EB2429"/>
<path d="M17.4696 15.2609V15.5609C17.4629 15.5849 17.4536 15.6116 17.4509 15.6356C17.3002 17.0663 16.0989 18.1649 14.6602 18.1836C14.1202 18.1916 13.5882 18.1329 13.0616 18.0183C10.3896 17.4316 8.29222 15.4543 7.55622 12.8236C7.34955 12.0849 7.24022 11.3316 7.30555 10.5649C7.40155 9.4356 8.22955 8.43694 9.32155 8.1236C9.51355 8.06894 9.71488 8.04227 9.91222 8.0036H10.2109C10.3376 8.05027 10.4029 8.1476 10.4522 8.27294C10.8562 9.28894 11.2656 10.3063 11.6709 11.3223C11.7682 11.5636 11.7069 11.7036 11.4642 11.7996C11.0482 11.9676 10.6309 12.1369 10.2122 12.2983C10.1389 12.3263 10.1216 12.3636 10.1322 12.4316C10.1469 12.5223 10.1576 12.6156 10.1709 12.7063C10.3989 14.0943 11.6455 15.2356 13.0416 15.3409C13.1175 15.3463 13.1496 15.3209 13.1762 15.2516C13.3389 14.8356 13.5055 14.4209 13.6722 14.0076C13.7695 13.7649 13.9082 13.7036 14.1496 13.8009C15.1642 14.2063 16.1762 14.6143 17.1909 15.0156C17.3176 15.0663 17.4202 15.1289 17.4696 15.2609Z" fill="white"/>
</svg>
