<svg width="21" height="22" viewBox="0 0 21 22" fill="none" xmlns="http://www.w3.org/2000/svg">
<path d="M11.579 19.2817V15.9017C11.579 14.4817 10.4296 13.3324 9.01098 13.3324H6.72298C6.49631 13.3324 6.27765 13.2431 6.11765 13.0817L2.30165 9.26439C3.11898 4.61906 7.54831 1.51506 12.1936 2.3324C13.335 2.53239 14.4243 2.9644 15.3936 3.59773L15.2016 3.79106C15.1216 3.86973 15.0123 3.91506 14.9003 3.9164H13.719C12.5376 3.9164 11.579 4.87373 11.579 6.05506V6.91239C11.579 7.14706 11.387 7.34039 11.151 7.34039C9.96831 7.34039 9.01098 8.29906 9.01098 9.47906V9.90839C9.01098 11.3257 10.1603 12.4764 11.579 12.4764H14.147C14.6203 12.4764 15.003 12.8604 15.003 13.3324V14.1564C15.0043 14.7231 15.2296 15.2671 15.6296 15.6684L16.7736 16.8124C15.3803 18.2124 13.5443 19.0857 11.579 19.2817ZM2.20298 11.5884L4.90698 14.2924C5.38698 14.7764 6.04165 15.0471 6.72298 15.0444H9.01098C9.48298 15.0444 9.86698 15.4271 9.86698 15.9017V19.2817C5.80698 18.8671 2.60165 15.6497 2.20298 11.5884ZM19.2843 10.7644C19.2843 12.4417 18.7896 14.0831 17.8603 15.4791L16.8403 14.4591C16.7603 14.3777 16.7163 14.2697 16.7163 14.1564V13.3324C16.7163 11.9151 15.5656 10.7644 14.147 10.7644H11.579C11.107 10.7644 10.723 10.3804 10.723 9.90839V9.47906C10.723 9.24439 10.9136 9.05239 11.151 9.05239C12.3323 9.05239 13.291 8.09373 13.291 6.91239V6.05506C13.291 5.81906 13.483 5.6284 13.719 5.6284H14.9003C15.467 5.62573 16.011 5.40039 16.4123 5.00039L16.735 4.67773C18.3656 6.28306 19.2843 8.47639 19.2843 10.7644ZM10.723 0.49106C5.04965 0.49106 0.449646 5.08973 0.449646 10.7644C0.449646 16.4377 5.04965 21.0377 10.723 21.0377C16.3963 21.0377 20.9963 16.4377 20.9963 10.7644C20.9896 5.09239 16.3936 0.496395 10.723 0.49106Z" fill="white"/>
</svg>
