<svg width="24" height="25" viewBox="0 0 24 25" fill="none" xmlns="http://www.w3.org/2000/svg">
<path d="M23.9618 12.8287C23.9618 19.3807 18.6512 24.6913 12.0992 24.6913C5.54583 24.6913 0.235168 19.3807 0.235168 12.8287C0.235168 6.27668 5.54583 0.966011 12.0992 0.966011C18.6512 0.966011 23.9618 6.27668 23.9618 12.8287Z" fill="#EB2429"/>
<path d="M6.14398 12.4849C6.23732 12.2929 6.40798 12.1916 6.59465 12.1209C7.33598 11.8316 8.07732 11.5489 8.81998 11.2636C11.3626 10.2903 13.9053 9.31694 16.4493 8.34494C16.5093 8.32094 16.572 8.29961 16.636 8.29028C16.976 8.24228 17.22 8.44628 17.2093 8.80761C17.2026 9.04228 17.1506 9.27828 17.1013 9.51028C16.5786 11.9689 16.0533 14.4289 15.5253 16.8889C15.4986 17.0129 15.456 17.1396 15.3973 17.2529C15.284 17.4729 15.0893 17.5556 14.8533 17.4849C14.7373 17.4503 14.6213 17.3996 14.5253 17.3289C13.7306 16.7543 12.9426 16.1743 12.152 15.5943C12.12 15.5703 12.088 15.5489 12.0493 15.5209C12.0173 15.5489 11.988 15.5729 11.96 15.5996C11.556 15.9849 11.152 16.3703 10.748 16.7569C10.6293 16.8716 10.492 16.9396 10.308 16.9369C10.3186 16.7809 10.328 16.6263 10.3386 16.4743C10.388 15.7983 10.4346 15.1236 10.4866 14.4489C10.4906 14.3983 10.52 14.3383 10.5586 14.3036C12.0893 12.9249 13.6226 11.5489 15.1573 10.1716C15.168 10.1609 15.1826 10.1543 15.188 10.1423C15.2186 10.0889 15.244 10.0343 15.272 9.97961C15.2066 9.96628 15.1373 9.93561 15.0746 9.94628C15.0013 9.95828 14.928 10.0036 14.8613 10.0436C12.9533 11.2356 11.0466 12.4303 9.13732 13.6223C9.09465 13.6476 9.02665 13.6636 8.98132 13.6489C8.17065 13.4009 7.35998 13.1476 6.54932 12.8956C6.38532 12.8449 6.23465 12.7703 6.14398 12.6143V12.4849Z" fill="white"/>
</svg>
