<svg width="24" height="25" viewBox="0 0 24 25" fill="none" xmlns="http://www.w3.org/2000/svg">
<path d="M23.9631 12.8287C23.9631 19.3807 18.6524 24.6913 12.1004 24.6913C5.54706 24.6913 0.236389 19.3807 0.236389 12.8287C0.236389 6.27668 5.54706 0.966011 12.1004 0.966011C18.6524 0.966011 23.9631 6.27668 23.9631 12.8287Z" fill="#EB2429"/>
<path d="M15.6569 14.2688C15.4729 14.1781 14.5729 13.7341 14.4049 13.6728C14.2369 13.6115 14.1143 13.5808 13.9929 13.7648C13.8703 13.9488 13.5183 14.3608 13.4116 14.4821C13.3049 14.6048 13.1983 14.6208 13.0156 14.5288C12.8316 14.4368 12.2409 14.2435 11.5409 13.6195C10.9969 13.1328 10.6289 12.5341 10.5223 12.3515C10.4143 12.1675 10.5116 12.0688 10.6023 11.9768C10.6849 11.8955 10.7863 11.7621 10.8769 11.6555C10.9689 11.5488 10.9996 11.4715 11.0609 11.3515C11.1223 11.2288 11.0916 11.1208 11.0449 11.0288C10.9996 10.9381 10.6329 10.0355 10.4796 9.6688C10.3316 9.31147 10.1809 9.35947 10.0689 9.35414C9.96227 9.35014 9.83961 9.3488 9.71694 9.3488C9.59427 9.3488 9.39694 9.39414 9.22894 9.5768C9.06094 9.7608 8.58627 10.2035 8.58627 11.1061C8.58627 12.0075 9.24361 12.8781 9.33561 13.0008C9.42627 13.1235 10.6276 14.9728 12.4649 15.7661C12.9036 15.9555 13.2436 16.0688 13.5103 16.1528C13.9489 16.2928 14.3489 16.2728 14.6649 16.2248C15.0169 16.1728 15.7476 15.7821 15.9009 15.3528C16.0543 14.9261 16.0543 14.5595 16.0089 14.4821C15.9623 14.4075 15.8409 14.3608 15.6569 14.2688ZM12.3129 18.8328H12.3103C11.2169 18.8328 10.1436 18.5381 9.20894 17.9835L8.98627 17.8515L6.67961 18.4568L7.29561 16.2075L7.14894 15.9768C6.53961 15.0075 6.21694 13.8861 6.21827 12.7341C6.21961 9.37414 8.95427 6.6408 12.3156 6.6408C13.9436 6.64214 15.4743 7.2768 16.6249 8.42747C17.7756 9.57947 18.4089 11.1115 18.4076 12.7395C18.4076 16.0995 15.6729 18.8328 12.3129 18.8328ZM17.5009 7.5528C16.1169 6.16747 14.2756 5.4048 12.3129 5.40347C8.27161 5.40347 4.98094 8.69147 4.97961 12.7341C4.97827 14.0248 5.31694 15.2875 5.95961 16.3995L4.91827 20.1981L8.80494 19.1795C9.87694 19.7621 11.0823 20.0701 12.3103 20.0715H12.3129C16.3543 20.0715 19.6449 16.7821 19.6463 12.7408C19.6476 10.7808 18.8863 8.93947 17.5009 7.5528Z" fill="white"/>
</svg>
