<svg width="24" height="25" viewBox="0 0 24 25" fill="none" xmlns="http://www.w3.org/2000/svg">
<path d="M23.9629 12.8287C23.9629 19.3807 18.6523 24.6913 12.1016 24.6913C5.54828 24.6913 0.23761 19.3807 0.23761 12.8287C0.23761 6.27668 5.54828 0.96601 12.1016 0.96601C18.6523 0.96601 23.9629 6.27668 23.9629 12.8287Z" fill="#EB2429"/>
<path d="M11.1296 11.2584V14.3931C12.143 13.8664 13.1256 13.3571 14.143 12.8304C13.1163 12.2944 12.135 11.7837 11.1296 11.2584ZM12.2723 8.87707C13.5696 8.91974 14.8683 8.95307 16.163 9.00907C16.427 9.01974 16.699 9.07574 16.9456 9.16907C17.5456 9.39574 17.767 9.91974 17.8683 10.4971C17.935 10.8704 17.971 11.2504 17.9856 11.6291C18.0323 12.8811 18.0696 14.1357 17.8723 15.3784C17.731 16.2571 17.239 16.7757 16.5136 16.8491C16.1216 16.8904 15.7256 16.9317 15.3323 16.9331C13.2883 16.9411 11.2443 16.9411 9.20162 16.9331C8.83629 16.9317 8.47229 16.8904 8.10829 16.8477C7.27629 16.7517 6.81496 16.2957 6.66562 15.3931C6.59362 14.9451 6.53496 14.4891 6.53762 14.0371C6.54429 12.9424 6.56962 11.8451 6.62962 10.7517C6.64829 10.4277 6.76696 10.0944 6.90429 9.7944C7.11762 9.3344 7.52962 9.07974 8.02562 9.0504C9.12562 8.9824 10.2296 8.95174 11.331 8.9104C11.6456 8.89841 11.959 8.90774 12.271 8.90774C12.2723 8.89707 12.2723 8.88774 12.2723 8.87707Z" fill="white"/>
</svg>
