<svg width="132" height="40" viewBox="0 0 132 40" fill="none" xmlns="http://www.w3.org/2000/svg">
<path d="M64.816 15.144C63.632 15.144 62.6507 14.76 61.872 13.992C61.104 13.2133 60.72 12.184 60.72 10.904V10.776C60.72 9.51733 61.1093 8.488 61.888 7.688C62.6773 6.888 63.6427 6.488 64.784 6.488C65.744 6.488 66.56 6.728 67.232 7.208C67.904 7.67733 68.2987 8.41333 68.416 9.416H67.104C66.912 8.2 66.1387 7.592 64.784 7.592C64.0053 7.592 63.36 7.88533 62.848 8.472C62.3467 9.048 62.096 9.816 62.096 10.776V10.904C62.096 11.9067 62.3413 12.68 62.832 13.224C63.3333 13.768 64 14.04 64.832 14.04C65.4613 14.04 66 13.864 66.448 13.512C66.9067 13.1493 67.168 12.6427 67.232 11.992H68.464C68.3787 12.9093 67.9947 13.6667 67.312 14.264C66.64 14.8507 65.808 15.144 64.816 15.144ZM76.341 6.632V7.752H73.637V15H72.309V7.752H69.605V6.632H76.341ZM82.2041 14.04C83.0361 14.04 83.6708 13.768 84.1081 13.224C84.5455 12.68 84.7641 11.9013 84.7641 10.888V10.76C84.7641 9.74667 84.5188 8.968 84.0281 8.424C83.5481 7.86933 82.9348 7.592 82.1881 7.592C81.3775 7.592 80.7161 7.864 80.2041 8.408C79.7028 8.94133 79.4521 9.72533 79.4521 10.76V10.888C79.4521 11.9227 79.6975 12.7067 80.1881 13.24C80.6895 13.7733 81.3615 14.04 82.2041 14.04ZM78.1721 17.912V6.632H79.5001V8.04C79.7561 7.61333 80.1455 7.25067 80.6681 6.952C81.1908 6.64267 81.7455 6.488 82.3321 6.488C83.4521 6.488 84.3641 6.872 85.0681 7.64C85.7828 8.39733 86.1401 9.416 86.1401 10.696V10.824C86.1401 12.1147 85.7881 13.16 85.0841 13.96C84.3908 14.7493 83.4735 15.144 82.3321 15.144C81.6815 15.144 81.1108 15.0053 80.6201 14.728C80.1295 14.44 79.7561 14.072 79.5001 13.624V17.912H78.1721ZM91.6754 15.144C90.4914 15.144 89.51 14.744 88.7314 13.944C87.9634 13.1333 87.5794 12.1147 87.5794 10.888V10.76C87.5794 9.512 87.9634 8.488 88.7314 7.688C89.51 6.888 90.4967 6.488 91.6914 6.488C92.886 6.488 93.8674 6.888 94.6354 7.688C95.414 8.47733 95.8034 9.496 95.8034 10.744V10.872C95.8034 12.1307 95.414 13.16 94.6354 13.96C93.8567 14.7493 92.87 15.144 91.6754 15.144ZM91.6914 14.04C92.5234 14.04 93.1847 13.752 93.6754 13.176C94.1767 12.6 94.4274 11.8373 94.4274 10.888V10.776C94.4274 9.80533 94.1767 9.032 93.6754 8.456C93.1847 7.88 92.5234 7.592 91.6914 7.592C90.8487 7.592 90.182 7.88 89.6914 8.456C89.2007 9.032 88.9554 9.8 88.9554 10.76V10.888C88.9554 11.848 89.2007 12.616 89.6914 13.192C90.182 13.7573 90.8487 14.04 91.6914 14.04ZM102.788 4.504C102.372 4.89867 101.876 5.096 101.3 5.096C100.724 5.096 100.233 4.89867 99.8276 4.504C99.433 4.09867 99.2196 3.592 99.1876 2.984H100.34C100.404 3.77333 100.724 4.168 101.3 4.168C101.62 4.168 101.865 4.06133 102.036 3.848C102.217 3.624 102.324 3.336 102.356 2.984H103.476C103.444 3.592 103.214 4.09867 102.788 4.504ZM99.1876 15H97.8596V6.632H99.1876V13.08L103.46 6.632H104.788V15H103.46V8.552L99.1876 15ZM61.232 35V23.56H63.824V28.488L67.824 23.544H70.576L66.048 28.968L70.8 35H67.776L63.824 29.864V35H61.232ZM76.6008 25.672L75.0807 30.616H78.1048L76.6008 25.672ZM71.3048 35L75.0648 23.56H78.4408L82.1528 35H79.4488L78.6648 32.456H74.5208L73.7368 35H71.3048ZM83.7164 35V23.56H87.6684C89.0764 23.56 90.1537 23.8693 90.9004 24.488C91.6577 25.1067 92.0364 26.0133 92.0364 27.208V27.272C92.0364 28.4453 91.6577 29.336 90.9004 29.944C90.143 30.5413 89.0924 30.84 87.7484 30.84H86.2924V35H83.7164ZM86.2924 29.032H87.6044C88.895 29.032 89.5404 28.4507 89.5404 27.288V27.224C89.5404 26.0933 88.895 25.528 87.6044 25.528H86.2924V29.032ZM93.732 35V23.56H96.324V28.488L100.324 23.544H103.076L98.548 28.968L103.3 35H100.276L96.324 29.864V35H93.732ZM109.101 25.672L107.581 30.616H110.605L109.101 25.672ZM103.805 35L107.565 23.56H110.941L114.653 35H111.949L111.165 32.456H107.021L106.237 35H103.805ZM120.728 35.176C118.893 35.176 117.474 34.6533 116.472 33.608C115.48 32.5627 114.984 31.144 114.984 29.352V29.224C114.984 27.5067 115.517 26.104 116.584 25.016C117.661 23.928 119.021 23.384 120.664 23.384C122.093 23.384 123.261 23.736 124.168 24.44C125.085 25.144 125.608 26.1787 125.736 27.544H123.08C122.888 26.136 122.088 25.432 120.68 25.432C119.773 25.432 119.053 25.768 118.52 26.44C117.986 27.112 117.72 28.0347 117.72 29.208V29.336C117.72 30.52 117.981 31.4427 118.504 32.104C119.026 32.7547 119.757 33.08 120.696 33.08C121.421 33.08 122.013 32.8987 122.472 32.536C122.93 32.1627 123.213 31.6133 123.32 30.888H125.864C125.725 32.2747 125.192 33.336 124.264 34.072C123.346 34.808 122.168 35.176 120.728 35.176Z" fill="black"/>
<g clip-path="url(#clip0_443_3836)">
<path d="M29 5.5L22 10.4264L15.2902 5.06887L10.7285 8.71093V4H6.96928V11.7196L0 17.2816V36H15.2902H30H30.5804H43.994V17.2816L29 5.5ZM6.96928 31.8895H3.75919V19.3732L6.96928 16.8066V31.8895ZM26.8272 31.8895H15.2902H10.7285V13.8045L15.2902 10.1625L26.8272 19.3732V31.8895Z" fill="black"/>
<path d="M29 5L22 10.5L31 18V36H44V17L29 5Z" fill="#4DA10B"/>
<path d="M22.9894 20.4883H13.5039V24.5988H22.9894V20.4883Z" fill="black"/>
</g>
<defs>
<clipPath id="clip0_443_3836">
<rect width="44" height="32" fill="white" transform="translate(0 4)"/>
</clipPath>
</defs>
</svg>
