<svg width="163" height="157" viewBox="0 0 163 157" fill="none" xmlns="http://www.w3.org/2000/svg">
<path fill-rule="evenodd" clip-rule="evenodd" d="M155.749 60.554C151.459 58.3918 145.517 60.1275 144.257 64.1246C146.81 63.4006 151.752 62.498 152.197 65.9496C152.632 69.3814 147.853 70.3038 144.464 68.7367C141.064 67.1497 141.781 61.3772 142.15 61.2185C147.69 58.9175 148.493 55.2179 147.635 52.2721C146.68 48.9197 142.042 47.2237 139.945 45.974C140.673 45.2499 144.627 42.9191 142.335 38.3467C139.076 31.8502 129.094 36.4821 129.094 36.4821C129.094 36.4821 133.993 37.0276 133.689 39.3187C133.428 41.2925 131.473 41.2429 129.518 40.8858C127.563 40.5089 125.998 38.1781 120.524 36.6011C115.05 35.034 113.138 36.4821 111.498 37.2557C108.598 34.9546 103.634 33.8636 98.5504 33.3677V32.5742C98.5504 32.5742 98.5069 32.475 98.2462 32.356C98.5829 31.1658 99.6691 28.0217 102.83 23.7568C106.849 18.2818 102.504 10.0099 94.2925 14.3343C93.4453 10.9521 90.1107 8.89901 82.6159 11.4976C82.3878 10.0396 81.8665 9.30566 81.0735 9.30566H80.9866C80.1937 9.30566 79.6723 10.0297 79.4442 11.4976C71.9604 8.89901 68.6149 10.9422 67.7677 14.3343C59.5561 10.0198 55.1896 18.2818 59.2302 23.7568C62.706 28.4779 63.6945 31.8402 63.9008 32.6833C63.5424 32.9015 63.5098 33.0503 63.5098 33.0503V33.2883L63.5207 33.3677C58.4264 33.8636 53.4517 34.9546 50.5624 37.2656C48.9222 36.492 47.0214 35.0538 41.547 36.611C36.0617 38.188 34.5085 40.5188 32.5425 40.8957C30.5873 41.2528 28.643 41.2925 28.3823 39.3286C28.0782 37.0375 32.9769 36.492 32.9769 36.492C32.9769 36.492 22.984 31.8601 19.7254 38.3566C17.4335 42.929 21.3873 45.2598 22.115 45.9839C20.0295 47.2336 15.3806 48.9296 14.4248 52.2821C13.5775 55.2278 14.3813 58.9274 19.91 61.2284C20.2793 61.3871 20.9745 67.1596 17.5965 68.7466C14.1967 70.3236 9.42829 69.3913 9.8519 65.9595C10.2755 62.5178 15.2394 63.4105 17.8028 64.1345C16.5428 60.1374 10.6122 58.4017 6.31091 60.5639C2.00959 62.736 -3.44309 69.9467 2.81337 79.5676C5.24645 83.3167 9.7107 84.3383 9.7107 84.3383C9.7107 84.3383 -1.03175 95.4171 11.0141 107.22C11.0141 107.22 6.46298 126.105 18.4328 132.522C18.4328 132.522 17.2489 140.744 31.1521 144.543C47.6948 149.066 59.48 145.138 62.7603 146.08C72.0581 148.719 79.4985 151.575 81.0084 157C82.529 151.565 89.9586 148.719 99.2564 146.08C102.537 145.138 114.322 149.066 130.854 144.543C144.757 140.754 143.562 132.522 143.562 132.522C155.554 126.105 150.992 107.22 150.992 107.22C163.048 95.4171 152.295 84.3383 152.295 84.3383C152.295 84.3383 156.77 83.3167 159.203 79.5676C165.46 69.9467 160.007 62.7261 155.706 60.5639L155.749 60.554ZM142.606 69.6095C142.943 69.5897 152.067 73.7653 154.087 67.477C155.738 62.2798 147.711 62.012 147.711 62.012C147.711 62.012 150.633 60.2763 154.457 62.1409C158.269 63.9957 159.996 70.6509 152.969 74.2116C145.93 77.7624 138.783 74.6778 138.783 74.6778C138.783 74.6778 142.335 69.7979 142.606 69.6095ZM146.343 52.8176C147.168 55.9122 143.475 58.9373 143.475 58.9373H143.28C143.28 58.9373 143.986 54.9303 143.475 53.5417C142.052 49.5942 138.066 48.3841 135.926 47.5411C139.967 45.974 145.376 49.1677 146.343 52.8176ZM133.254 36.1052C133.254 36.1052 140.716 35.2323 141.531 40.8065C141.846 42.9885 139.369 45.5475 136.936 45.2003C136.936 45.2003 138.294 43.4745 136.893 40.0031C135.763 37.1962 133.254 36.0952 133.254 36.0952V36.1052ZM140.488 50.9332C145.506 54.5534 139.174 61.5161 135.198 64.075C133.537 65.1561 130.126 64.4817 130.126 64.4817C130.126 64.4817 140.293 56.4379 138.012 52.8077C131.125 51.8357 128.16 53.7698 122.566 56.547C116.961 59.344 117.037 54.6228 118.21 52.5598C118.667 51.7365 120.796 50.1298 123.489 49.5942C125.89 49.1082 125.173 48.2651 125.575 47.8386C126.943 46.3608 135.481 47.2931 140.499 50.9332H140.488ZM117.754 44.4564C114.919 45.24 113.344 47.8386 113.344 47.8386C113.344 47.8386 108.022 42.9687 114.974 41.8677C120.014 41.0644 125.955 44.03 125.955 44.03C125.955 44.03 119.036 44.0895 117.754 44.4465V44.4564ZM113.877 38.5153C116.657 38.0591 120.644 40.2411 120.676 40.6775C120.698 40.9553 117.689 40.5883 114.811 40.6279C113.225 40.6577 112.247 41.0842 110.922 41.5504C110.553 40.8561 110.976 38.9914 113.877 38.5054V38.5153ZM109.304 53.3433C112.638 55.6841 113.909 59.6415 113.909 59.6415L111.389 59.5324C111.389 59.5324 111.954 63.8271 111.53 63.2815C109.738 61.0202 106.197 59.7605 106.197 59.7605C106.197 59.7605 107.001 62.3294 106.197 63.2815C101.581 58.1736 93.0542 53.0359 93.0542 53.0359C101.125 53.0359 105.448 57.7471 105.448 57.7471L106.197 54.5534L108.826 57.7471C108.826 57.7471 108.348 53.2739 109.315 53.3532L109.304 53.3433ZM119.699 123.466C119.568 121.929 119.155 120.362 118.493 118.973C117.776 117.555 116.755 116.216 115.767 114.798C115.267 114.084 114.789 113.35 114.387 112.546C114.007 111.763 113.703 110.82 113.898 109.948H114.181C114.311 110.761 114.745 111.435 115.234 112.09C115.756 112.745 116.342 113.369 116.918 114.004C118.08 115.274 119.297 116.603 120.166 118.229C120.372 118.626 120.578 119.063 120.73 119.489C120.817 119.707 120.872 119.925 120.937 120.124C121.002 120.342 121.056 120.58 121.1 120.798C121.317 121.661 121.393 122.574 121.35 123.466C121.241 125.262 120.676 126.977 119.709 128.455L119.416 128.356C119.644 126.66 119.84 125.053 119.688 123.476L119.699 123.466ZM122.696 130.439C123.652 129.288 124.163 128.039 124.326 126.67C124.489 125.311 124.326 123.804 123.859 122.425C122.946 119.588 120.665 116.801 118.754 113.588C117.809 111.961 116.95 110.205 116.494 108.341C116.038 106.456 116.016 104.483 116.527 102.697L117.265 102.747C117.559 104.483 118.091 106.079 118.916 107.547C119.731 109.005 120.763 110.364 121.871 111.703C122.99 113.052 124.217 114.421 125.368 115.909C126.52 117.416 127.628 119.112 128.334 121.086C129.04 123.07 129.3 125.162 128.92 127.315C128.551 129.467 127.334 131.54 125.694 132.978C124.043 134.446 122.077 135.349 120.1 135.904C118.102 136.42 116.103 136.678 114.083 136.459L114.007 135.835C117.504 134.476 120.817 132.77 122.707 130.439H122.696ZM117.863 81.0355C117.32 78.9328 117.081 76.8301 117.222 74.6976L117.917 74.6183C118.678 76.5722 119.394 78.4964 120.209 80.3511C121.024 82.1761 121.925 83.9912 123.142 85.3103C124.499 86.7881 126.053 88.1767 127.606 89.6446C129.138 91.1026 130.843 92.64 131.831 94.6733L131.212 95.0601C129.605 93.7112 127.758 92.6697 125.966 91.3903C124.152 90.1604 122.403 88.7421 120.872 87.0956C119.242 85.221 118.406 83.1283 117.852 81.0454L117.863 81.0355ZM114.126 92.7094C109.543 95.7445 104.285 97.9761 100.69 101.18L102.58 99.3151C102.58 99.3151 101.005 96.0023 100.734 94.6237C100.408 92.9971 101.114 91.4101 101.114 91.4101C101.114 91.4101 112.193 84.6954 111.487 77.0086C111.378 75.7986 108.228 76.8995 108.228 76.8995C108.228 76.8995 106.729 77.4153 104.524 75.7986C102.298 74.1719 100.853 73.1008 100.853 73.1008C100.853 73.1008 99.8755 72.4164 99.1695 72.833C98.1919 73.4281 97.475 74.1224 96.0413 74.7274C94.6075 75.3423 94.1404 74.896 93.1628 76.1556C92.1853 77.4351 90.9579 81.9182 90.8275 83.6143L90.6972 85.3103L94.803 84.1598C94.803 84.1598 94.6075 82.6423 94.9985 81.7298C95.3895 80.8173 95.8457 80.7677 96.1716 80.7677C96.4975 80.7677 97.7357 80.6982 100.017 80.6387C102.298 80.5891 104.003 79.3097 104.003 79.3097C104.003 79.3097 105.23 78.9526 105.23 79.3791C105.23 79.7064 103.786 81.8091 101.7 83.3266C101.114 83.7531 101.657 83.8821 102.222 83.7432C102.222 83.7432 107.186 80.4007 108.359 78.3575C109.521 76.2945 110.553 77.4549 110.553 77.4549C110.553 77.4549 110.053 86.7485 98.7133 90.5571C97.4533 90.9935 97.3447 91.906 97.475 92.7491C97.6054 93.5822 100.364 101.239 100.429 101.408C98.029 103.6 96.4106 106.278 96.3019 109.977C96.1607 115.006 97.2361 116.375 97.8226 116.771C97.3881 117.327 95.5959 119.499 94.2056 119.787C92.5872 120.114 83.159 116.98 82.4856 114.47C82.2249 113.449 81.9642 112.169 82.4856 110.592C83.0178 109.015 85.1902 108.956 85.3531 108.529C85.5161 108.103 84.6362 107.617 85.3531 107.081C86.0809 106.526 89.6544 106.099 90.1758 105.455C90.6972 104.78 93.1628 101.487 93.0325 100.366C92.8696 98.9481 89.2091 96.3495 88.7964 95.9329C88.3619 95.4866 88.6117 96.0321 88.6117 96.0321L91.7617 100.446C91.7617 100.446 92.0223 102.053 89.9694 102.469C87.9274 102.896 85.1793 103.411 83.5826 106.248C83.0504 107.21 83.3871 108.212 83.3871 108.212L81.0409 109.799L78.6948 108.212C78.6948 108.212 79.0532 107.21 78.5101 106.248C76.9134 103.401 74.1762 102.896 72.1233 102.469C70.0704 102.053 70.3202 100.446 70.3202 100.446L73.4919 96.0321C73.4919 96.0321 73.7417 95.4767 73.2964 95.9329C72.8945 96.3495 69.234 98.9481 69.0602 100.366C68.9299 101.487 71.4064 104.78 71.9278 105.455C72.4492 106.109 76.0227 106.526 76.7505 107.081C77.4782 107.617 76.5876 108.103 76.7505 108.529C76.9134 108.956 79.0967 109.015 79.618 110.592C80.1394 112.169 79.8896 113.459 79.618 114.47C78.9446 116.99 69.5164 120.114 67.898 119.787C66.5077 119.499 64.7155 117.337 64.2701 116.771C64.8567 116.375 65.932 115.006 65.8017 109.977C65.693 106.278 64.0746 103.61 61.6741 101.408C61.7502 101.229 64.4982 93.5723 64.6177 92.7491C64.7481 91.8961 64.6503 90.9836 63.3795 90.5571C52.0396 86.7485 51.54 77.4549 51.54 77.4549C51.54 77.4549 52.561 76.2945 53.7341 78.3575C54.8963 80.4007 59.8711 83.7432 59.8711 83.7432C60.4359 83.8821 60.979 83.7531 60.4033 83.3266C58.2961 81.8091 56.8623 79.7064 56.8623 79.3791C56.8623 78.9526 58.0897 79.3097 58.0897 79.3097C58.0897 79.3097 59.795 80.5891 62.076 80.6387C64.357 80.6982 65.5953 80.7677 65.9211 80.7677C66.247 80.7677 66.7032 80.8173 67.0942 81.7298C67.4853 82.6423 67.2897 84.1598 67.2897 84.1598L71.4064 85.3103L71.2761 83.6143C71.1457 81.9182 69.9292 77.4351 68.9408 76.1556C67.974 74.896 67.507 75.3423 66.0623 74.7274C64.6177 74.1224 63.9117 73.4281 62.9341 72.833C62.2281 72.4164 61.2505 73.1008 61.2505 73.1008C61.2505 73.1008 59.8059 74.1719 57.5792 75.7986C55.3634 77.4153 53.8753 76.8995 53.8753 76.8995C53.8753 76.8995 50.7253 75.7986 50.6167 77.0086C49.8998 84.6954 60.9898 91.4101 60.9898 91.4101C60.9898 91.4101 61.6959 92.9971 61.37 94.6237C61.0984 96.0023 59.5235 99.3151 59.5235 99.3151L61.4134 101.18C57.8182 97.9761 52.561 95.7345 47.9881 92.7094C40.1675 87.5519 48.075 74.0033 48.7702 73.8347C49.4653 73.676 53.2018 70.4526 53.2018 70.4526C57.5357 71.4146 58.5785 70.1153 60.9898 68.2606C60.9898 68.2606 64.6937 69.8277 68.7561 69.8872C66.4968 67.9531 65.2803 65.3644 66.323 62.379C66.7901 61.0102 70.5809 58.1042 74.4803 59.1456C78.4015 60.1969 81.0409 66.4058 81.0409 66.4058C81.0409 66.4058 83.6804 60.187 87.6015 59.1456C91.5118 58.0942 95.3027 61.0003 95.7806 62.379C96.8233 65.3644 95.5959 67.9531 93.3475 69.8872C97.4099 69.8277 101.103 68.2606 101.103 68.2606C103.514 70.1153 104.546 71.4047 108.891 70.4526C108.891 70.4526 112.627 73.6859 113.323 73.8347C114.018 74.0033 121.914 87.5519 114.115 92.7094H114.126ZM106.251 111.862C106.251 111.862 97.6705 112.278 102.406 105.95C105.85 101.368 113.257 98.958 113.257 98.958C113.257 98.958 107.664 104.483 106.925 105.752C105.285 108.599 106.262 111.862 106.262 111.862H106.251ZM100.777 78.9625C97.7357 80.1131 94.2056 79.2303 94.2056 79.2303C94.2056 79.2303 94.5315 77.693 95.3678 76.8797C96.215 76.0564 97.7249 74.8464 99.7235 74.6679C101.179 74.529 102.026 75.6696 102.45 76.5127C102.884 77.3756 102.124 78.4567 100.777 78.9625ZM98.1919 116.94C98.1919 116.94 98.1376 117.039 98.029 117.218L97.9638 116.861C98.1159 116.92 98.2028 116.94 98.2028 116.94H98.1919ZM64.1398 116.861L64.0855 117.218C63.9769 117.039 63.9226 116.94 63.9226 116.94C63.9226 116.94 64.0094 116.92 64.1398 116.861ZM59.643 76.5028C60.0666 75.6597 60.9138 74.5191 62.3693 74.6579C64.3679 74.8365 65.8777 76.0465 66.7249 76.8698C67.583 77.6831 67.898 79.2204 67.898 79.2204C67.898 79.2204 64.357 80.1031 61.3157 78.9526C59.9688 78.4369 59.2085 77.3557 59.6321 76.5028H59.643ZM55.1787 105.752C54.451 104.483 48.8462 98.958 48.8462 98.958C48.8462 98.958 56.254 101.368 59.6973 105.95C64.4331 112.268 55.863 111.862 55.863 111.862C55.863 111.862 56.8297 108.599 55.1896 105.752H55.1787ZM43.2089 107.537C44.0126 106.069 44.5449 104.483 44.8382 102.737L45.5876 102.687C46.109 104.473 46.0873 106.446 45.6202 108.331C45.164 110.196 44.3059 111.951 43.3501 113.578C41.4384 116.791 39.1682 119.578 38.245 122.415C37.7779 123.794 37.6258 125.301 37.7779 126.66C37.9517 128.029 38.4622 129.279 39.4072 130.429C41.2972 132.75 44.61 134.456 48.0967 135.825L48.0207 136.45C46.0112 136.658 44.0126 136.41 42.0249 135.894C40.048 135.339 38.0929 134.436 36.431 132.968C34.7909 131.53 33.5635 129.447 33.205 127.305C32.814 125.162 33.0638 123.06 33.7699 121.076C34.4759 119.102 35.5947 117.416 36.7352 115.899C37.8974 114.411 39.1139 113.042 40.2327 111.693C41.3515 110.354 42.3834 108.995 43.2089 107.537ZM41.232 87.0857C39.6896 88.7421 37.9408 90.1505 36.1269 91.3804C34.3455 92.6598 32.499 93.7013 30.8806 95.0502L30.2723 94.6633C31.2499 92.6301 32.9552 91.0828 34.4867 89.6347C36.0509 88.1668 37.6041 86.7782 38.951 85.3004C40.1784 83.9713 41.0691 82.1563 41.8837 80.3412C42.6984 78.4864 43.4152 76.5623 44.1756 74.6084L44.8707 74.6877C45.0228 76.8202 44.773 78.9328 44.2299 81.0256C43.6759 83.1084 42.8504 85.2012 41.2211 87.0758L41.232 87.0857ZM42.6766 128.336L42.3942 128.435C41.4275 126.958 40.8518 125.242 40.7432 123.447C40.7106 122.554 40.7758 121.641 41.0039 120.778C41.0365 120.56 41.1234 120.322 41.1668 120.104C41.232 119.916 41.2863 119.697 41.3732 119.469C41.5253 119.043 41.7316 118.606 41.938 118.21C42.7961 116.583 44.0126 115.254 45.1857 113.984C45.7506 113.35 46.3371 112.725 46.8585 112.07C47.3473 111.416 47.7817 110.741 47.9121 109.928H48.1945C48.39 110.801 48.0859 111.743 47.7166 112.526C47.3255 113.33 46.8259 114.074 46.3371 114.778C45.3378 116.196 44.3276 117.535 43.6108 118.953C42.9482 120.342 42.5246 121.909 42.4051 123.447C42.2422 125.024 42.4377 126.63 42.6658 128.326L42.6766 128.336ZM51.8115 67.9432C51.8115 67.9432 54.1251 68.0424 56.178 67.0505C58.4481 65.9595 59.2845 64.0552 59.2845 64.0552C59.2845 64.0552 61.5112 66.7827 58.2744 68.7763C55.9933 70.2046 52.8108 69.6194 51.8006 67.9333L51.8115 67.9432ZM65.932 68.7863C63.3686 68.3003 60.5228 67.2886 60.5554 64.0651C60.5988 59.82 67.4092 57.7273 67.4092 57.7273C67.4092 57.7273 65.8994 59.9589 64.7589 62.746C63.3577 66.2075 65.9429 68.7863 65.9429 68.7863H65.932ZM75.7295 53.5913C75.7295 53.5913 73.7743 48.7214 70.2225 47.2534C68.6149 46.5988 59.9471 46.46 59.9471 46.46C59.9471 46.46 67.3766 40.9354 73.6983 42.4133C82.3661 44.4564 75.7186 53.5913 75.7186 53.5913H75.7295ZM88.4053 42.4133C94.7161 40.9354 102.146 46.46 102.146 46.46C102.146 46.46 93.4778 46.5988 91.8811 47.2534C88.3293 48.7214 86.3633 53.5913 86.3633 53.5913C86.3633 53.5913 79.7267 44.4564 88.4053 42.4133ZM97.3338 62.7559C96.2042 59.9589 94.6835 57.7372 94.6835 57.7372C94.6835 57.7372 101.505 59.83 101.548 64.075C101.581 67.2985 98.7242 68.3102 96.1607 68.7962C96.1607 68.7962 98.735 66.2174 97.323 62.7559H97.3338ZM102.819 64.0651C102.819 64.0651 103.634 65.9694 105.915 67.0605C107.979 68.0424 110.292 67.9531 110.292 67.9531C109.293 69.6392 106.11 70.2343 103.818 68.7962C100.592 66.7927 102.819 64.075 102.819 64.075V64.0651ZM105.947 39.3088C107.196 40.4693 108.011 42.1058 108.196 43.6729C108.391 45.2499 108.065 46.7278 107.511 48.0072C106.914 49.3065 106.154 50.4472 105.057 51.3795L104.47 51.0621C104.818 48.5825 104.937 46.1525 104.231 44.4366C103.894 43.5737 103.384 42.9489 102.71 42.3835C102.037 41.838 101.135 41.352 100.212 41.0544C98.2897 40.4197 95.7045 40.4197 92.913 40.0229C91.5118 39.8246 90.0455 39.4972 88.6877 38.8823C87.3409 38.2872 86.1135 37.3946 85.3097 36.3035L85.7767 35.7679C88.2641 36.7499 90.556 36.7499 93.0868 36.5713C94.3359 36.4821 95.6611 36.373 97.0949 36.363C98.4961 36.3531 100.06 36.4424 101.635 36.9085C103.232 37.3747 104.709 38.1483 105.947 39.3187V39.3088ZM94.4663 15.0782C101.298 12.4895 104.72 19.6505 101.157 24.461C98.7133 27.7935 97.5837 30.4517 97.084 31.8998C95.6937 31.5427 92.9999 31.1261 87.8405 30.9178C88.0252 30.1442 88.7638 28.1209 91.4141 24.8379C93.5213 22.2095 94.9008 18.2223 94.4771 15.0782H94.4663ZM82.3335 19.0554C82.7028 16.3279 82.8332 14.1954 82.7463 12.6184C95.1397 8.80974 94.0318 19.9382 89.85 25.1354C87.1997 28.4581 86.6566 30.3525 86.5479 30.8881C85.1359 30.8484 83.5283 30.8286 81.7578 30.8187C81.7035 28.7755 81.6601 24.0146 82.3335 19.0654V19.0554ZM79.3465 12.6184C79.2596 14.2053 79.4008 16.3378 79.7701 19.0554C80.4435 24.0047 80.4001 28.7655 80.3458 30.8087C78.5753 30.8187 76.9677 30.8484 75.5665 30.898C75.4688 30.3922 74.9365 28.4878 72.2428 25.1354C68.0718 19.9382 66.9639 8.80974 79.3573 12.6184H79.3465ZM60.9464 24.461C57.3837 19.6605 60.8052 12.4895 67.6265 15.0782C67.192 18.2223 68.5932 22.2095 70.6895 24.8379C73.3833 28.1804 74.0785 30.1938 74.274 30.9476C69.1906 31.1956 66.5077 31.6816 65.0956 32.1378C64.6503 30.7294 63.5315 27.9721 60.9464 24.451V24.461ZM71.4499 36.6507C73.0792 36.6308 74.665 36.4424 76.3377 35.7679L76.8048 36.3035C75.9902 37.3946 74.7845 38.2971 73.4159 38.8823C72.0581 39.4972 70.5918 39.8246 69.2014 40.0229C66.4099 40.4197 63.8248 40.4197 61.9022 41.0544C60.979 41.352 60.0774 41.838 59.3931 42.3835C58.7197 42.9489 58.1983 43.5737 57.8725 44.4366C57.1664 46.1525 57.2968 48.5825 57.6335 51.0621L57.047 51.3795C55.9608 50.4472 55.1896 49.3065 54.603 48.0072C54.0382 46.7178 53.7123 45.2499 53.9187 43.6729C54.1034 42.1058 54.9072 40.4693 56.1671 39.3088C57.3945 38.1384 58.8718 37.3648 60.4793 36.8986C62.0543 36.4424 63.5967 36.3432 65.0196 36.3531C66.1275 36.3531 67.1703 36.4325 68.1804 36.492M52.8217 53.3235C53.7775 53.2441 53.2996 57.7173 53.2996 57.7173L55.939 54.5236L56.6885 57.7173C56.6885 57.7173 61.0007 53.0061 69.0711 53.0061C69.0711 53.0061 60.5554 58.1438 55.9282 63.2518C55.1135 62.2996 55.9282 59.7308 55.9282 59.7308C55.9282 59.7308 52.3763 60.9904 50.595 63.2518C50.1714 63.7973 50.7253 59.5026 50.7253 59.5026L48.2053 59.6117C48.2053 59.6117 49.4762 55.6543 52.8217 53.3136V53.3235ZM48.2488 38.4955C51.1381 38.9815 51.5617 40.8461 51.2032 41.5404C49.8672 41.0743 48.8897 40.6478 47.3147 40.618C44.4363 40.5784 41.4166 40.9453 41.4492 40.6676C41.5035 40.2213 45.479 38.0392 48.2597 38.5054L48.2488 38.4955ZM47.1517 41.8479C54.1034 42.9389 48.7919 47.8188 48.7919 47.8188C48.7919 47.8188 47.2169 45.2202 44.382 44.4366C43.1111 44.0696 36.1703 44.02 36.1703 44.02C36.1703 44.02 42.1118 41.0544 47.1626 41.8578L47.1517 41.8479ZM20.5943 40.7866C21.409 35.2125 28.8603 36.0853 28.8603 36.0853C28.8603 36.0853 26.362 37.1863 25.2324 39.9932C23.8312 43.4547 25.1889 45.1904 25.1889 45.1904C22.745 45.5375 20.2793 42.9786 20.6052 40.7966L20.5943 40.7866ZM18.6283 58.9075C18.6283 58.9075 14.9353 55.8824 15.7608 52.7879C16.7275 49.1379 22.1476 45.9442 26.1882 47.5113C24.0376 48.3544 20.0621 49.5743 18.6283 53.5119C18.1287 54.9005 18.8347 58.9075 18.8347 58.9075H18.6283ZM21.6371 50.9133C26.6444 47.2733 35.1928 46.3409 36.5614 47.8188C36.9524 48.2453 36.2355 49.0883 38.636 49.5743C41.308 50.1198 43.437 51.7167 43.9257 52.5399C45.0771 54.6129 45.1531 59.3241 39.5484 56.5271C33.9545 53.75 31.0001 51.806 24.1027 52.7879C21.8326 56.4081 31.9994 64.4618 31.9994 64.4618C31.9994 64.4618 28.5887 65.1462 26.9051 64.0552C22.9297 61.4962 16.608 54.5335 21.6371 50.9133ZM7.66865 62.1112C11.4812 60.2564 14.403 61.9822 14.403 61.9822C14.403 61.9822 6.37609 62.25 8.03796 67.4473C10.0583 73.7455 19.1714 69.5599 19.5081 69.5797C19.7906 69.7583 23.3315 74.648 23.3315 74.648C23.3315 74.648 16.1953 77.7426 9.15674 74.1819C2.12907 70.6212 3.84526 63.9659 7.67952 62.1112H7.66865ZM2.43321 75.3721C1.62943 73.4777 1.70546 70.6807 1.8358 70.5121C1.96614 70.3434 2.22683 70.3038 2.24855 71.0179C2.27028 71.7221 3.45423 76.3143 7.89675 78.9427C9.29794 79.7659 13.23 80.5495 13.23 80.5495L11.3834 82.5232C11.3834 82.5232 5.27903 82.1166 2.43321 75.3721ZM12.5348 85.7566C17.1946 75.8977 26.2534 75.8977 26.2534 75.8977L31.2064 79.0617C31.2064 79.0617 23.2772 82.8109 19.7797 86.8179C17.6508 89.2281 15.3046 94.6733 15.6304 98.8489C15.1417 100.198 14.3922 101.14 13.23 103.451C13.23 103.451 7.89675 95.5461 12.5239 85.7665L12.5348 85.7566ZM20.9854 127.721C20.9854 127.721 10.7534 120.451 13.8165 107.438C16.8796 94.4352 26.4598 88.0874 29.979 84.5664C38.4513 76.0961 39.7874 72.347 40.5477 69.5896C40.5477 69.5896 34.5954 73.8347 29.2622 73.7256C23.9181 73.5967 20.9311 70.403 20.5618 68.2209C25.1563 70.2244 36.1703 71.861 40.7975 64.6701C40.7975 64.6701 35.649 66.9514 31.0978 66.8224C26.5358 66.7133 22.5603 64.0651 22.5603 64.0651C22.5603 64.0651 31.9451 67.4374 39.0487 62.9047C42.6766 60.5838 48.8788 51.8853 48.8788 51.8853C48.8788 51.8853 50.9208 51.5084 50.6167 52.3217C49.2481 55.9221 43.3718 73.1503 40.5694 77.8021C37.7779 82.4538 28.8277 92.8086 25.7538 96.3098C22.6907 99.8209 17.868 109.442 21.9738 118.339C21.2678 120.927 20.9962 127.721 20.9962 127.721H20.9854ZM76.0662 149.155C75.7946 147.876 75.2298 146.665 74.3934 145.684C73.5788 144.672 72.4817 143.908 71.2761 143.353C68.843 142.232 66.0624 141.825 63.2817 141.647C57.7095 141.3 52.0613 142.024 46.2502 142.192C43.3501 142.242 40.3522 142.321 37.1262 141.557C34.0631 140.784 31.2173 139.564 28.6322 137.828C26.0905 136.073 23.7334 133.781 22.6472 130.538C21.7892 127.632 21.9304 124.518 22.821 121.731C23.7117 118.953 25.1781 116.454 26.8508 114.212C28.5127 111.961 30.294 109.878 32.0102 107.756C35.3774 103.52 39.0922 99.2754 39.7548 94.0782C39.8091 93.7013 39.8199 93.3244 39.8308 92.9673C39.7765 93.0466 39.7222 93.1062 39.6679 93.1756C38.7012 94.2468 37.6693 95.1791 36.6265 96.1313C34.5628 98.0158 32.423 99.8407 30.1094 101.428C27.9153 102.866 26.3077 104.82 25.341 107.17C24.4069 109.491 24.0376 112.11 24.1788 114.708L23.5271 114.827C22.6907 112.179 22.6581 109.343 23.4836 106.585C23.8855 105.217 24.5589 103.907 25.4388 102.707C26.3294 101.527 27.4699 100.466 28.6865 99.6622C30.9458 98.0554 33.3354 96.6074 35.6381 95.0402C36.7569 94.2369 37.8757 93.4037 38.7989 92.4615C39.0053 92.2234 39.2334 91.9755 39.3746 91.7573L39.4941 91.5391L39.5267 91.4597C39.5701 91.4002 39.6353 91.3308 39.7005 91.2812C39.7548 91.2316 39.9394 91.1423 40.0806 91.1423C40.2218 91.1126 40.4717 91.2018 40.526 91.2613C40.841 91.539 40.7867 91.6184 40.8627 91.7573C40.8953 91.8564 40.9279 91.9556 40.9387 92.0548C41.0582 92.8086 41.0148 93.493 40.9496 94.1972C40.6346 96.9446 39.581 99.563 38.1907 101.973C36.7786 104.334 35.2471 106.595 33.6612 108.837C30.5873 113.32 26.992 117.624 26.0144 122.465C25.5257 124.835 25.7755 127.245 26.6336 129.417C27.0029 130.28 27.7089 131.242 28.491 132.056C29.2947 132.889 30.2723 133.623 31.3368 134.287C33.444 135.606 35.8879 136.638 38.3536 137.253C40.678 137.838 43.4913 137.937 46.2828 138.076C51.9201 138.344 57.7856 138.493 63.5967 139.435C64.5417 139.604 65.4758 139.792 66.4099 140.04C65.3889 139.306 64.2593 138.761 63.0753 138.294C61.3048 137.56 59.404 137.005 57.5032 136.37C55.5915 135.765 53.6472 135.12 51.7246 134.218C49.8129 133.325 47.8143 132.214 46.2828 130.27C45.8918 129.755 45.6202 129.318 45.3595 128.832C45.088 128.346 44.849 127.85 44.6535 127.315C44.2516 126.273 44.0126 125.152 43.9909 124.002C43.9475 121.701 44.7947 119.598 45.7614 117.872C47.7274 114.381 50.1279 111.673 50.3777 107.855L50.8013 107.795C51.5291 109.65 51.3879 111.782 50.8774 113.717C50.3343 115.651 49.5305 117.446 48.8679 119.112C48.2379 120.798 47.7926 122.385 47.9338 123.873C47.9881 124.607 48.1619 125.321 48.466 126.045C48.5964 126.412 48.781 126.769 48.9765 127.116C49.1721 127.463 49.4002 127.84 49.5957 128.108C50.4212 129.229 51.9093 130.251 53.5168 131.153C55.157 132.036 56.9383 132.869 58.7306 133.762C58.8935 133.841 59.0673 133.93 59.2193 134.02C58.7414 133.405 58.3069 132.78 57.9376 132.115C57.3619 131.104 56.884 129.983 56.6016 128.852C56.0042 126.571 56.0042 124.299 55.9933 122.098C55.9716 121.007 55.9933 119.906 55.8739 118.844C55.7544 117.783 55.548 116.752 54.8854 115.839L55.1027 115.67C56.0477 116.434 56.5473 117.595 56.8514 118.686C57.1447 119.806 57.3076 120.917 57.438 122.028C57.6878 124.23 57.8507 126.412 58.4047 128.435C58.9912 130.409 60.0231 132.333 61.3591 134.02C62.0977 134.972 62.9667 135.854 63.9008 136.678C63.9551 136.707 63.9986 136.747 64.0529 136.777C64.7589 137.293 65.4541 137.858 66.0732 138.493C66.1275 138.542 66.171 138.572 66.2144 138.612V138.632C66.6923 139.167 67.1051 139.703 67.4418 140.318C69.0168 140.764 70.5483 141.359 71.9712 142.202C73.2312 142.966 74.3717 143.968 75.1538 145.168C75.9576 146.388 76.3486 147.757 76.4572 149.115L76.0336 149.155H76.0662ZM68.0392 135.964C68.0392 135.964 72.1559 131.034 74.8714 135.011C76.8374 137.898 74.9583 142.569 74.9583 142.569C74.9583 142.569 73.3616 138.265 72.6881 137.59C71.2218 136.083 68.0392 135.964 68.0392 135.964ZM81.0627 134.218C81.0627 134.218 80.3675 132.641 78.8468 131.451C76.2617 129.437 73.5462 129.923 71.4607 129.021C69.3752 128.148 66.8553 125.718 66.8553 125.718C66.8553 125.718 69.1689 122.594 68.7344 121.126C70.6352 121.056 74.741 120.441 78.7817 117.307C80.2915 116.137 81.0518 117.069 81.0518 117.069C81.0518 117.069 81.823 116.137 83.3328 117.307C87.3734 120.441 91.4684 121.056 93.3801 121.126C92.9565 122.603 95.2701 125.718 95.2701 125.718C95.2701 125.718 92.7392 128.148 90.6537 129.021C88.5791 129.913 85.8528 129.427 83.2785 131.451C81.7578 132.641 81.0627 134.218 81.0627 134.218ZM94.0861 135.964C94.0861 135.964 90.9253 136.083 89.4372 137.59C88.7855 138.265 87.1671 142.569 87.1671 142.569C87.1671 142.569 85.288 137.898 87.2648 135.011C89.9803 131.034 94.0861 135.964 94.0861 135.964ZM139.467 130.538C138.392 133.772 136.024 136.073 133.493 137.828C130.908 139.564 128.073 140.784 124.999 141.557C121.773 142.321 118.786 142.242 115.886 142.192C110.075 142.034 104.427 141.31 98.8436 141.647C96.0738 141.825 93.2823 142.232 90.8493 143.353C89.6545 143.908 88.5574 144.672 87.7319 145.684C86.9064 146.665 86.3416 147.885 86.07 149.155L85.6464 149.115C85.755 147.757 86.1569 146.388 86.9498 145.168C87.7427 143.968 88.8833 142.966 90.1432 142.202C91.5553 141.349 93.0977 140.754 94.6835 140.318C94.9985 139.703 95.433 139.167 95.9109 138.632L95.8892 138.612C95.8892 138.612 95.9978 138.532 96.0521 138.493C96.6713 137.858 97.3664 137.293 98.0616 136.777C98.1159 136.747 98.1702 136.707 98.2136 136.678C99.1478 135.845 100.017 134.972 100.766 134.02C102.091 132.333 103.134 130.409 103.71 128.435C104.275 126.412 104.438 124.23 104.687 122.028C104.807 120.917 104.959 119.797 105.252 118.686C105.556 117.595 106.056 116.434 107.001 115.67L107.24 115.839C106.566 116.752 106.349 117.793 106.251 118.844C106.132 119.906 106.143 120.997 106.132 122.098C106.11 124.29 106.11 126.571 105.513 128.852C105.23 129.983 104.753 131.104 104.177 132.115C103.797 132.78 103.373 133.415 102.895 134.02C103.058 133.93 103.221 133.831 103.395 133.762C105.187 132.869 106.968 132.036 108.598 131.153C110.205 130.251 111.693 129.229 112.519 128.108C112.725 127.84 112.953 127.463 113.149 127.116C113.333 126.759 113.518 126.412 113.659 126.045C113.953 125.331 114.137 124.617 114.192 123.873C114.322 122.385 113.887 120.798 113.247 119.112C112.584 117.436 111.791 115.651 111.237 113.717C110.737 111.782 110.585 109.65 111.302 107.795L111.748 107.855C111.997 111.673 114.387 114.391 116.342 117.872C117.32 119.598 118.167 121.701 118.124 124.002C118.102 125.152 117.874 126.283 117.472 127.315C117.255 127.86 117.026 128.356 116.766 128.832C116.494 129.318 116.234 129.755 115.853 130.27C114.311 132.224 112.312 133.325 110.412 134.218C108.478 135.12 106.523 135.775 104.622 136.37C102.721 137.005 100.831 137.56 99.05 138.294C97.8769 138.761 96.7473 139.306 95.7263 140.04C96.6713 139.802 97.6162 139.604 98.5504 139.435C104.361 138.493 110.216 138.344 115.843 138.076C118.645 137.937 121.458 137.848 123.804 137.253C126.259 136.638 128.703 135.606 130.821 134.287C131.864 133.613 132.852 132.889 133.656 132.056C134.449 131.242 135.144 130.28 135.503 129.417C136.372 127.245 136.621 124.835 136.122 122.465C135.144 117.624 131.549 113.32 128.486 108.837C126.911 106.595 125.368 104.334 123.967 101.973C122.577 99.563 121.534 96.9446 121.219 94.1972C121.132 93.5029 121.089 92.8185 121.219 92.0548C121.23 91.9556 121.263 91.8465 121.295 91.7573C121.371 91.6184 121.306 91.539 121.632 91.2613C121.675 91.2018 121.925 91.1225 122.088 91.1423C122.208 91.1423 122.403 91.2316 122.447 91.2812C122.523 91.3308 122.577 91.4002 122.62 91.4597L122.653 91.5391L122.783 91.7573C122.914 91.9854 123.142 92.2234 123.348 92.4615C124.271 93.4037 125.379 94.2369 126.52 95.0402C128.79 96.6074 131.18 98.0554 133.45 99.6622C134.655 100.466 135.818 101.527 136.719 102.707C137.588 103.907 138.272 105.207 138.674 106.585C139.489 109.343 139.456 112.179 138.631 114.827L137.979 114.708C138.109 112.11 137.751 109.491 136.817 107.17C135.85 104.82 134.243 102.876 132.038 101.428C129.735 99.8407 127.595 98.0158 125.51 96.1313C124.478 95.1791 123.435 94.2468 122.49 93.1756C122.436 93.1161 122.381 93.0466 122.327 92.9673C122.327 93.3343 122.36 93.7112 122.414 94.0782C123.055 99.2754 126.781 103.52 130.148 107.756C131.864 109.888 133.656 111.961 135.318 114.212C136.991 116.454 138.457 118.953 139.348 121.731C140.238 124.528 140.38 127.642 139.522 130.538H139.467ZM141.151 127.721C141.151 127.721 140.901 120.927 140.162 118.339C144.279 109.432 139.446 99.8209 136.393 96.3098C133.33 92.8086 124.391 82.4538 121.588 77.8021C118.786 73.1503 112.91 55.9221 111.541 52.3217C111.226 51.5084 113.268 51.8853 113.268 51.8853C113.268 51.8853 119.481 60.5838 123.109 62.9047C130.213 67.4473 139.598 64.0651 139.598 64.0651C139.598 64.0651 135.622 66.7133 131.06 66.8224C126.498 66.9514 121.35 64.6701 121.35 64.6701C125.977 71.861 136.991 70.2244 141.585 68.2209C141.227 70.403 138.229 73.6066 132.885 73.7256C127.541 73.8347 121.599 69.5896 121.599 69.5896C122.371 72.337 123.707 76.0961 132.168 84.5664C135.687 88.0874 145.267 94.4352 148.331 107.438C151.394 120.461 141.173 127.721 141.173 127.721H141.151ZM148.895 103.451C147.722 101.14 146.973 100.198 146.495 98.8489C146.821 94.6633 144.475 89.2281 142.346 86.8179C138.848 82.8109 130.919 79.0617 130.919 79.0617L135.872 75.8977C135.872 75.8977 144.931 75.8977 149.601 85.7566C154.239 95.5461 148.906 103.441 148.906 103.441L148.895 103.451ZM150.731 82.5332L148.895 80.5594C148.895 80.5594 152.838 79.7659 154.229 78.9526C158.671 76.3143 159.844 71.732 159.866 71.0278C159.898 70.3137 160.159 70.3633 160.279 70.522C160.409 70.6906 160.485 73.4876 159.692 75.382C156.835 82.1265 150.72 82.5332 150.72 82.5332H150.731Z" fill="#231F20"/>
<path fill-rule="evenodd" clip-rule="evenodd" d="M96.1715 30.4016C96.8558 28.7254 98.0071 26.4541 99.984 23.7662C99.2563 22.4768 97.8551 20.9494 95.3134 20.3047C94.7268 22.2189 93.771 24.0737 92.5219 25.6309C91.099 27.4261 90.2626 28.775 89.7847 29.7371C92.435 29.8859 94.5639 30.1041 96.1715 30.4016Z" fill="#231F20"/>
<path fill-rule="evenodd" clip-rule="evenodd" d="M85.5159 29.5586C85.9395 28.4676 86.8302 26.7517 88.7419 24.3812C89.6978 23.201 90.469 21.6338 90.9252 20.0469C90.6102 20.0866 90.2735 20.1064 89.9259 20.1659C89.9259 20.1659 88.9483 17.478 84.017 16.6846C83.941 17.4681 83.8541 18.331 83.7237 19.2336C83.1806 23.2803 83.1154 27.2278 83.148 29.5388C83.9627 29.5388 84.7773 29.5586 85.5268 29.5586H85.5159Z" fill="#231F20"/>
<path fill-rule="evenodd" clip-rule="evenodd" d="M76.5983 29.5881C77.3478 29.5583 78.1407 29.5385 78.9553 29.5385C78.9879 27.2374 78.9336 23.28 78.3905 19.2333C78.2602 18.3307 78.1624 17.4777 78.0972 16.7041C73.2311 17.5174 72.2752 20.1656 72.2752 20.1656C71.8951 20.1061 71.5366 20.0664 71.1891 20.0466C71.6344 21.6335 72.4273 23.1907 73.3723 24.3809C75.284 26.7614 76.1855 28.4971 76.6092 29.598L76.5983 29.5881Z" fill="#231F20"/>
<path fill-rule="evenodd" clip-rule="evenodd" d="M72.3296 29.7667C71.8625 28.8145 71.0261 27.4359 69.5706 25.6208C68.3324 24.0834 67.3765 22.2188 66.8009 20.3145C64.2592 20.9988 62.8797 22.5263 62.1628 23.8355C64.2049 26.6126 65.3562 28.9732 65.9971 30.5602C67.6155 30.2031 69.7336 29.9452 72.3404 29.7568L72.3296 29.7667Z" fill="#231F20"/>
<path fill-rule="evenodd" clip-rule="evenodd" d="M74.893 4.92128C75.1319 4.89153 75.4035 4.87169 75.7185 4.92128C76.0226 4.96095 76.3593 5.0403 76.7178 5.24859C77.0762 5.44696 77.4455 5.77426 77.7931 6.19083C78.1298 6.61733 78.434 7.13308 78.6512 7.70835C78.9119 8.26378 79.0857 8.8688 79.2269 9.1366C79.3681 9.40439 79.4767 9.31513 79.6179 9.14652C79.7591 8.9779 79.9438 8.72003 80.1176 8.44231C80.2914 8.17451 80.4543 7.90672 80.6064 7.59925C80.7476 7.31161 80.8996 7.00414 80.9974 6.72643C81.03 6.66692 81.0408 6.58757 81.0626 6.53798C81.0843 6.59749 81.0951 6.66692 81.1169 6.72643C81.2146 7.00414 81.345 7.31161 81.5079 7.59925C81.66 7.8968 81.8229 8.1646 81.9858 8.44231C82.1705 8.72003 82.3551 8.9779 82.4963 9.14652C82.6484 9.30521 82.7461 9.39448 82.8874 9.1366C83.0286 8.8688 83.2132 8.26378 83.4522 7.70835C83.702 7.13308 83.9844 6.61733 84.332 6.19083C84.6687 5.77426 85.0489 5.44696 85.4073 5.24859C85.7549 5.0403 86.0916 4.96095 86.4066 4.92128C86.7216 4.87169 86.9823 4.89153 87.2213 4.92128C87.4711 4.96095 87.6666 5.0403 87.7426 5.00063C87.8295 4.99071 87.7752 4.86177 87.6666 4.6634C87.5471 4.46503 87.3625 4.20716 87.0583 3.97903C86.7759 3.75091 86.3849 3.56246 85.983 3.46328C85.5811 3.36409 85.1792 3.35417 84.7556 3.39385C84.332 3.44344 83.8975 3.55254 83.5391 3.74099C83.2023 3.92944 82.9091 4.20716 82.7353 4.38569C82.5724 4.54438 82.4963 4.61381 82.518 4.38569C82.5506 4.1774 82.6593 3.68148 82.7027 3.24507C82.7462 2.79874 82.7136 2.41193 82.5832 2.03503C82.4637 1.64821 82.2574 1.26139 82.051 0.884495C81.8446 0.497677 81.6274 0.120778 81.4862 -0.176773C81.3341 -0.474325 81.2472 -0.662775 81.1712 -0.821469C81.0626 -1.05951 81.0517 -1.05951 80.9431 -0.821469C80.867 -0.672693 80.7801 -0.474325 80.6389 -0.176773C80.4977 0.120778 80.2805 0.507596 80.085 0.884495C79.8677 1.27131 79.6614 1.65813 79.5419 2.03503C79.4224 2.41193 79.3681 2.79874 79.4224 3.24507C79.455 3.68148 79.5853 4.1774 79.607 4.38569C79.6396 4.60389 79.5636 4.54438 79.3898 4.38569C79.216 4.20716 78.9553 3.92944 78.586 3.74099C78.2276 3.55254 77.7931 3.45336 77.3695 3.39385C76.9459 3.35417 76.544 3.36409 76.1421 3.46328C75.7402 3.56246 75.3492 3.75091 75.0559 3.97903C74.7735 4.20716 74.578 4.46503 74.4694 4.6634C74.339 4.85185 74.3064 4.98079 74.3716 5.00063C74.4585 5.0403 74.654 4.96095 74.893 4.92128Z" fill="#231F20"/>
</svg>
