<svg width="443" height="442" viewBox="0 0 443 442" fill="none" xmlns="http://www.w3.org/2000/svg">
<path d="M425.305 247.623C423.926 257.509 413.247 263.155 401.273 261.484C389.299 259.813 380.574 251.458 381.954 241.572C383.333 231.686 394.012 226.04 405.986 227.711C417.96 229.383 426.685 237.737 425.305 247.623ZM400.518 266.888C412.799 268.602 424.12 260.604 425.919 247.709C427.719 234.814 419.022 224.022 406.741 222.308C394.398 220.585 383.139 228.592 381.34 241.487C379.54 254.382 388.176 265.165 400.518 266.888Z" fill="#171717"/>
<path d="M407.308 309.292L407.536 308.716L378.088 297.032C372.613 294.86 369.852 287.361 372.184 281.482C374.722 275.086 380.4 271.535 387.142 274.21L416.591 285.894L418.512 281.054L389.063 269.369C382.09 266.603 374.586 271.897 371.82 278.87C369.053 285.843 370.886 294.841 377.859 297.608L407.308 309.292Z" fill="#171717"/>
<path d="M355.33 321.408C353.399 320.169 353.192 318.195 354.23 316.577C355.334 314.855 359.371 313.614 361.394 313.217C364.101 312.671 367.006 311.587 370.125 309.021C365.868 317.266 368.659 325.317 375.913 329.97C383.793 335.024 392.97 333.693 398.695 324.769L402.009 319.602L365.478 296.17L362.666 300.554L371.694 306.345C368.012 312.085 357.989 306.467 353.437 313.564C351.763 316.174 351.875 319.56 355.162 321.669L355.33 321.408ZM372.216 306.68L398.675 323.651L398.173 324.434C394.256 330.54 386.448 330.54 378.725 325.586C370.949 320.598 367.798 313.568 371.714 307.462L372.216 306.68Z" fill="#171717"/>
<path d="M342.915 344.445L364.068 367.697L363.38 368.323C358.014 373.205 350.473 371.18 344.299 364.393C338.082 357.559 336.862 349.953 342.228 345.071L342.915 344.445ZM368.338 364.651L339.133 332.548L335.28 336.053L342.498 343.987L341.81 344.613C333.968 351.747 334.188 361.018 340.446 367.897C346.746 374.822 355.955 375.916 363.798 368.782L368.338 364.651Z" fill="#171717"/>
<path d="M300.709 368.282C299.47 366.352 300.105 364.471 301.723 363.433C303.445 362.329 307.632 362.884 309.635 363.367C312.324 363.999 315.416 364.226 319.321 363.194C312.014 368.912 311.193 377.394 315.846 384.648C320.901 392.528 329.798 395.145 338.722 389.42L343.888 386.106L320.456 349.576L316.072 352.388L321.864 361.416C316.123 365.098 309.356 355.812 302.259 360.364C299.649 362.038 298.339 365.162 300.448 368.45L300.709 368.282ZM322.198 361.938L339.17 388.396L338.387 388.899C332.281 392.815 325.184 389.56 320.23 381.836C315.242 374.06 315.31 366.356 321.415 362.44L322.198 361.938Z" fill="#171717"/>
<path d="M296.927 411.158L297.177 411.725L312.893 404.8L295.392 365.085L279.676 372.011L279.926 372.578L290.876 367.753L299.301 386.872L288.352 391.698L288.602 392.265L299.551 387.44L307.877 406.333L296.927 411.158Z" fill="#171717"/>
<path d="M279.248 378.728C276.272 375.624 271.413 374.324 266.93 375.558C260.115 377.432 253.837 383.596 256.024 391.547C260.201 406.731 280.271 396.709 283.313 407.768C284.744 412.969 282.159 416.895 275.882 418.622C272.833 419.46 268.073 418.519 266.03 416.702L265.65 417.192C267.65 419.085 272.579 420.173 276.046 419.219C282.144 417.542 287.972 412.081 286.048 405.087C282.102 390.739 262.635 400.853 259.395 389.076C257.85 383.457 259.98 378.112 267.094 376.155C271.398 374.971 275.985 376.218 278.792 379.175L279.248 378.728Z" fill="#171717"/>
<path d="M237.831 424.879L237.905 425.494L254.957 423.447L249.784 380.357L232.732 382.403L232.806 383.019L244.687 381.593L247.177 402.338L235.297 403.764L235.37 404.38L247.251 402.953L249.712 423.452L237.831 424.879Z" fill="#171717"/>
<path d="M199.59 425.232L201.069 390.42L227.031 426.398L227.651 426.424L229.493 383.063L228.873 383.037L227.395 417.849L201.432 381.871L200.813 381.845L198.971 425.206L199.59 425.232Z" fill="#171717"/>
<path d="M173.504 419.707L161.783 417.004L161.644 417.608L190.16 424.184L190.299 423.58L178.579 420.877L188.191 379.191L183.116 378.021L173.504 419.707Z" fill="#171717"/>
<path d="M136.172 408.835L172.025 376.166L171.462 375.908L165.81 381.092L142.084 370.212L142.269 362.521L137.535 360.35L136.172 408.835ZM141.1 403.592L142.051 370.879L165.327 381.552L141.1 403.592Z" fill="#171717"/>
<path d="M98.8168 384.572L89.142 377.425L88.7736 377.924L112.312 395.311L112.681 394.812L103.006 387.666L128.423 353.255L124.234 350.161L98.8168 384.572Z" fill="#171717"/>
<path d="M79.1355 368.659L82.9106 372.247L112.809 340.788L109.034 337.2L79.1355 368.659Z" fill="#171717"/>
<path d="M56.9786 343.913C51.0479 335.884 54.728 324.379 64.4528 317.195C74.1775 310.012 86.2564 309.877 92.1871 317.906C98.1178 325.936 94.4377 337.441 84.7129 344.624C74.9882 351.807 62.9093 351.942 56.9786 343.913ZM61.2112 312.807C51.2371 320.174 48.7442 333.809 56.4799 344.282C64.2156 354.754 77.9805 356.38 87.9546 349.013C97.9785 341.609 100.422 328.011 92.6858 317.538C84.9501 307.065 71.2351 305.403 61.2112 312.807Z" fill="#171717"/>
<path d="M27.5441 289.572L59.5847 275.879L38.3379 314.829L38.5816 315.399L78.4898 298.343L78.2461 297.773L46.2055 311.466L67.4523 272.517L67.2087 271.947L27.3005 289.002L27.5441 289.572Z" fill="#171717"/>
<path d="M40.006 244.013L37.8617 244.346L39.8592 257.212L42.0035 256.879L40.006 244.013Z" fill="#171717"/>
<path d="M17.6438 193.58C19.0236 183.694 29.7026 178.048 41.6766 179.719C53.6505 181.39 62.3754 189.745 60.9956 199.631C59.6157 209.517 48.9368 215.163 36.9628 213.492C24.9889 211.821 16.264 203.466 17.6438 193.58ZM42.4308 174.316C30.1498 172.601 18.8296 180.599 17.0298 193.494C15.23 206.389 23.9277 217.181 36.2086 218.895C48.551 220.618 59.8098 212.612 61.6096 199.717C63.4094 186.822 54.7731 176.038 42.4308 174.316Z" fill="#171717"/>
<path d="M35.867 131.45L35.6362 132.025L65.0411 143.82C70.5077 146.012 73.2408 153.521 70.8865 159.391C68.3246 165.778 62.6338 169.307 55.9011 166.607L26.4963 154.813L24.5575 159.646L53.9624 171.441C60.9251 174.233 68.4482 168.967 71.241 162.005C74.0337 155.042 72.2347 146.037 65.2719 143.244L35.867 131.45Z" fill="#171717"/>
<path d="M87.4887 119.956C89.4196 121.194 89.6265 123.168 88.5888 124.786C87.4841 126.508 83.4472 127.749 81.4248 128.146C78.7171 128.693 75.8126 129.776 72.6934 132.342C76.9505 124.098 74.1596 116.046 66.9057 111.394C59.0255 106.339 49.8479 107.671 44.1237 116.595L40.8098 121.761L77.3405 145.193L80.1524 140.809L71.1241 135.018C74.8063 129.278 84.829 134.897 89.3816 127.799C91.0553 125.19 90.9438 121.804 87.6561 119.695L87.4887 119.956ZM70.6022 134.684L44.1435 117.712L44.6456 116.929C48.5621 110.823 56.3702 110.823 64.0938 115.777C71.8697 120.765 75.0208 127.795 71.1043 133.901L70.6022 134.684Z" fill="#171717"/>
<path d="M99.5172 97.1787L78.3644 73.9267L79.0523 73.3009C84.4182 68.4195 91.9592 70.4438 98.134 77.2313C104.351 84.0648 105.571 91.6715 100.205 96.5529L99.5172 97.1787ZM74.0948 76.9727L103.3 109.076L107.152 105.571L99.9344 97.6373L100.622 97.0115C108.465 89.8771 108.245 80.606 101.986 73.7267C95.6865 66.8016 86.4775 65.7079 78.6351 72.8423L74.0948 76.9727Z" fill="#171717"/>
<path d="M141.81 73.1462C143.049 75.0771 142.413 76.9577 140.796 77.9954C139.073 79.1001 134.887 78.5445 132.883 78.062C130.194 77.4297 127.102 77.2031 123.197 78.2347C130.505 72.5164 131.325 64.0349 126.672 56.781C121.618 48.9008 112.721 46.2841 103.797 52.0083L98.6303 55.3222L122.062 91.853L126.446 89.0412L120.655 80.0128C126.396 76.3307 133.162 85.617 140.26 81.0645C142.869 79.3908 144.18 76.2666 142.071 72.9788L141.81 73.1462ZM120.32 79.491L103.349 53.0323L104.132 52.5301C110.237 48.6136 117.334 51.8692 122.289 59.5928C127.276 67.3687 127.209 75.0723 121.103 78.9889L120.32 79.491Z" fill="#171717"/>
<path d="M145.769 30.1046L145.519 29.5373L129.803 36.4628L147.305 76.1776L163.02 69.2521L162.77 68.6847L151.82 73.5101L143.395 54.3902L154.345 49.5649L154.095 48.9975L143.145 53.8229L134.819 34.93L145.769 30.1046Z" fill="#171717"/>
<path d="M163.601 62.392C166.565 65.5072 171.419 66.8256 175.907 65.6093C182.729 63.7606 189.031 57.6207 186.874 49.6617C182.755 34.462 162.646 44.4078 159.646 33.3371C158.235 28.1309 160.835 24.2144 167.119 22.5117C170.171 21.6846 174.927 22.6439 176.963 24.4689L177.345 23.9801C175.352 22.0791 170.427 20.9727 166.957 21.9133C160.853 23.5674 155.004 29.0066 156.901 36.0081C160.793 50.37 180.298 40.3308 183.493 52.1196C185.017 57.7447 182.866 63.0811 175.745 65.0109C171.436 66.1785 166.854 64.915 164.059 61.9469L163.601 62.392Z" fill="#171717"/>
<path d="M205.059 16.3069L204.987 15.691L187.928 17.6724L192.935 60.7826L209.995 58.8012L209.923 58.1853L198.037 59.5659L195.626 38.8114L207.513 37.4309L207.441 36.815L195.555 38.1956L193.173 17.6874L205.059 16.3069Z" fill="#171717"/>
<path d="M243.502 15.9706L241.889 50.7772L216.065 14.6991L215.446 14.6704L213.437 58.0239L214.056 58.0526L215.669 23.246L241.493 59.3241L242.112 59.3528L244.121 15.9993L243.502 15.9706Z" fill="#171717"/>
<path d="M268.336 21.1818L280.056 23.8844L280.196 23.2803L251.68 16.7048L251.541 17.309L263.261 20.0116L253.649 61.6977L258.724 62.8679L268.336 21.1818Z" fill="#171717"/>
<path d="M306.827 32.3268L270.853 64.8617L271.415 65.1222L277.086 59.9591L300.772 70.9278L300.558 78.6181L305.284 80.8066L306.827 32.3268ZM301.88 37.5515L300.807 70.261L277.572 59.5008L301.88 37.5515Z" fill="#171717"/>
<path d="M343.993 56.4666L353.668 63.6129L354.036 63.1142L330.497 45.7273L330.129 46.226L339.804 53.3723L314.386 87.7829L318.575 90.8772L343.993 56.4666Z" fill="#171717"/>
<path d="M363.718 72.3909L359.943 68.8031L330.045 100.262L333.82 103.85L363.718 72.3909Z" fill="#171717"/>
<path d="M385.898 97.1259C391.829 105.155 388.149 116.66 378.424 123.844C368.699 131.027 356.621 131.162 350.69 123.133C344.759 115.103 348.439 103.598 358.164 96.4149C367.889 89.2317 379.968 89.0968 385.898 97.1259ZM381.666 128.232C391.64 120.865 394.133 107.23 386.397 96.7575C378.661 86.2847 364.896 84.6589 354.922 92.0263C344.898 99.4304 342.455 113.028 350.191 123.501C357.927 133.974 371.642 135.636 381.666 128.232Z" fill="#171717"/>
<path d="M415.563 152.046L383.471 165.62L404.863 126.75L404.622 126.179L364.65 143.085L364.892 143.656L396.983 130.083L375.591 168.953L375.833 169.524L415.804 152.617L415.563 152.046Z" fill="#171717"/>
<path d="M402.938 197.054L405.083 196.721L403.085 183.855L400.941 184.188L402.938 197.054Z" fill="#171717"/>
</svg>
