<svg width="74" height="44" viewBox="0 0 74 44" fill="none" xmlns="http://www.w3.org/2000/svg">
<path opacity="0.7" d="M48.0265 43.6772C44.2718 42.8672 40.6025 40.0501 37.0896 36.7131C34.7192 34.7061 32.3488 32.953 29.9785 31.1757C24.9533 35.2381 19.3734 40.8481 14.0874 37.3418H14.149C8.3511 32.3364 13.125 23.2201 16.9319 23.4256C21.5162 22.0715 25.8919 25.6987 30.2724 28.5399C32.4768 26.1218 34.6576 23.4982 36.7909 20.669C33.5003 18.797 30.2654 16.3365 27.1103 13.3059H27.0724L26.4892 12.7981C19.9944 7.51456 13.3289 1.57811 6.41209 3.27079H6.4927C5.61295 3.35985 4.74138 3.73776 3.89952 4.39519L3.98482 4.32265C2.56259 5.32617 0.315509 9.53366 1.41537 13.6203C1.43888 13.7521 1.44413 13.9004 1.43035 14.0409C1.41658 14.1814 1.38457 14.3059 1.3395 14.394C0.135344 15.6031 -0.224977 10.7669 0.13058 8.63897C1.26836 0.477882 4.9899 0.0184484 7.87703 0.332802C18.3067 -0.0782757 27.5417 14.8414 37.5826 19.6776L39.1471 17.7069H39.1992C48.3584 5.20527 58.8118 -2.39969 69.2367 1.43301C71.8489 1.85617 74.5179 8.0586 72.8112 14.7326C71.0145 21.8781 67.2503 23.5707 64.2257 25.481C55.6118 28.9027 46.6469 27.077 38.2273 21.5395L37.1607 22.8816L36.6866 23.4982C35.0178 25.6503 33.3112 27.5727 31.5998 29.4709C36.2836 32.5661 40.7352 37.5957 45.495 39.9655H45.4239C46.4937 40.5435 47.5793 40.9114 48.6713 41.0657C50.4206 41.1745 52.3596 41.5251 53.9856 39.7116H53.9477C54.18 39.373 54.1848 38.2486 54.5308 38.5025C54.5985 38.553 54.6568 38.6638 54.6951 38.8147C54.7334 38.9656 54.7491 39.1466 54.7395 39.3247C53.8198 44.8621 49.9939 43.5684 48.0265 43.6772ZM17.6335 36.1449C19.2626 35.9497 20.8821 35.3955 22.4738 34.4885H22.4169C24.5077 33.434 26.5671 32.0079 28.5799 30.2205C23.8391 26.7868 18.5437 23.1234 13.7508 27.9838C13.1914 28.7818 12.3286 30.0392 12.6036 32.0099C12.6036 31.9495 12.6035 31.9011 12.5703 31.8527C12.6038 32.0472 12.6468 32.23 12.6983 32.3968L12.6557 32.2517L12.7268 32.4572L12.6794 32.3243C14.0163 35.3106 15.8889 36.2416 17.6335 36.1449ZM50.8188 24.7314C53.1576 24.7314 55.4917 24.5904 57.821 24.3083H57.7736C66.4112 24.405 81.1597 5.85817 62.9268 4.18968C55.3415 3.06526 48.0076 9.02588 41.2947 17.4892C40.5219 18.5048 39.7539 19.5325 38.9717 20.5119C39.9198 21.0559 40.8964 21.7209 41.8683 22.2045L42.4514 22.5068H42.4135C45.1823 23.909 47.9961 24.6537 50.8188 24.7314Z" fill="#283344"/>
</svg>
