<svg width="74" height="44" viewBox="0 0 74 44" fill="none" xmlns="http://www.w3.org/2000/svg">
<path opacity="0.7" d="M25.9735 43.6772C29.7282 42.8672 33.3975 40.0501 36.9104 36.7131C39.2808 34.7061 41.6512 32.953 44.0216 31.1757C49.0468 35.2381 54.6267 40.8481 59.9126 37.3418H59.851C65.6489 32.3364 60.875 23.2201 57.0682 23.4256C52.4838 22.0715 48.1081 25.6987 43.7276 28.5399C41.5232 26.1218 39.3424 23.4982 37.2091 20.669C40.4997 18.797 43.7346 16.3365 46.8898 13.3059H46.9277L47.5108 12.7981C54.0057 7.51456 60.6712 1.57811 67.5879 3.27079H67.5073C68.3871 3.35985 69.2586 3.73776 70.1005 4.39519L70.0152 4.32265C71.4374 5.32617 73.6845 9.53366 72.5847 13.6203C72.5612 13.7521 72.5559 13.9004 72.5697 14.0409C72.5835 14.1814 72.6155 14.3059 72.6605 14.394C73.8647 15.6031 74.225 10.7669 73.8695 8.63897C72.7317 0.477882 69.0101 0.0184484 66.123 0.332802C55.6933 -0.0782757 46.4584 14.8414 36.4174 19.6776L34.8529 17.7069H34.8008C25.6417 5.20527 15.1883 -2.39969 4.76334 1.43301C2.15118 1.85617 -0.517891 8.0586 1.18878 14.7326C2.98553 21.8781 6.74969 23.5707 9.7743 25.481C18.3883 28.9027 27.3531 27.077 35.7727 21.5395L36.8394 22.8816L37.3134 23.4982C38.9822 25.6503 40.6888 27.5727 42.4003 29.4709C37.7164 32.5661 33.2648 37.5957 28.5051 39.9655H28.5762C27.5063 40.5435 26.4207 40.9114 25.3288 41.0657C23.5794 41.1745 21.6405 41.5251 20.0144 39.7116H20.0523C19.82 39.373 19.8153 38.2486 19.4692 38.5025C19.4015 38.553 19.3432 38.6638 19.305 38.8147C19.2667 38.9656 19.2509 39.1466 19.2606 39.3247C20.1803 44.8621 24.0061 43.5684 25.9735 43.6772ZM56.3665 36.1449C54.7374 35.9497 53.1179 35.3955 51.5262 34.4885H51.5831C49.4923 33.434 47.4329 32.0079 45.4201 30.2205C50.1609 26.7868 55.4563 23.1234 60.2492 27.9838C60.8087 28.7818 61.6714 30.0392 61.3965 32.0099C61.3965 31.9495 61.3965 31.9011 61.4297 31.8527C61.3962 32.0472 61.3532 32.23 61.3017 32.3968L61.3443 32.2517L61.2732 32.4572L61.3206 32.3243C59.9837 35.3106 58.1111 36.2416 56.3665 36.1449ZM23.1812 24.7314C20.8424 24.7314 18.5084 24.5904 16.1791 24.3083H16.2265C7.5888 24.405 -7.15971 5.85817 11.0733 4.18968C18.6585 3.06526 25.9924 9.02588 32.7054 17.4892C33.4781 18.5048 34.2461 19.5325 35.0284 20.5119C34.0802 21.0559 33.1036 21.7209 32.1318 22.2045L31.5486 22.5068H31.5866C28.8177 23.909 26.0039 24.6537 23.1812 24.7314Z" fill="#283344"/>
</svg>
