<svg width="123" height="125" viewBox="0 0 123 125" fill="none" xmlns="http://www.w3.org/2000/svg">
<g clip-path="url(#clip0_1_249)">
<path d="M112.218 122.666C115.561 122.454 118.546 120.676 120.298 117.825C122.049 114.974 122.009 111.485 120.537 108.515C119.064 105.544 115.972 103.488 112.682 103.236C109.843 103.011 106.778 104.403 104.96 106.565C102.757 109.191 102.067 112.613 103.62 115.743C104.695 117.931 107.162 119.655 109.537 120.08C112.616 120.637 115.747 119.748 117.525 117.029C119.077 114.669 118.772 111.406 117.299 109.085C115.362 106.035 111.78 104.47 108.37 106.035C106.698 106.804 105.584 108.621 105.345 110.398C105.04 112.692 106.22 114.92 108.569 115.544C110.241 115.982 112.244 114.987 112.655 113.223C113.067 111.459 112.138 109.615 110.333 109.138C109.882 109.019 110.811 109.363 110.785 109.35C110.745 109.324 111.488 109.974 111.209 109.669C111.435 109.907 111.607 110.159 111.727 110.464C112.019 111.18 111.766 110.199 111.859 110.982C111.979 111.923 111.859 110.928 111.899 110.955C111.965 110.982 111.687 111.87 111.846 111.459C111.873 111.379 111.912 111.287 111.926 111.207C111.74 112.082 111.607 111.87 111.753 111.631C111.766 111.605 111.899 111.393 111.899 111.406C111.926 111.459 111.289 112.056 111.634 111.764C111.674 111.724 111.74 111.671 111.78 111.618C111.939 111.419 111.077 112.202 111.594 111.804C110.957 112.281 110.904 112.056 111.196 111.989C111.355 111.963 111.793 111.883 111.156 111.963C110.519 112.043 111.077 112.003 111.249 111.989C111.753 111.976 110.36 111.777 110.957 111.95C111.103 111.989 111.753 112.228 111.13 111.963C110.506 111.698 111.116 111.976 111.262 112.069C111.899 112.467 111.05 111.989 111.09 111.91C111.09 111.91 111.461 112.268 111.488 112.294C111.594 112.401 111.992 112.905 111.594 112.387C111.196 111.87 111.647 112.507 111.727 112.639C111.806 112.772 112.058 113.356 111.806 112.759C111.554 112.162 111.793 112.745 111.833 112.891C111.873 113.037 111.912 113.21 111.952 113.369C112.111 113.979 111.899 112.467 111.926 113.249C111.926 113.409 111.912 113.568 111.912 113.727C111.912 114.111 112.098 112.891 111.965 113.249C111.939 113.316 111.939 113.382 111.912 113.448C111.912 113.435 111.833 113.7 111.833 113.714C111.806 113.687 112.244 112.905 112.005 113.302C111.965 113.356 111.939 113.422 111.899 113.488C111.647 114.045 112.085 113.17 112.138 113.223C112.151 113.249 111.846 113.541 111.793 113.581C111.7 113.687 111.408 113.899 111.859 113.541C112.31 113.183 112.045 113.409 111.912 113.475C111.833 113.515 111.528 113.634 111.501 113.7C111.501 113.674 112.35 113.395 111.926 113.515C111.846 113.541 111.753 113.568 111.674 113.594C111.329 113.687 110.811 113.647 111.899 113.594C111.74 113.594 111.581 113.621 111.421 113.621C111.262 113.621 111.103 113.621 110.944 113.608C110.479 113.608 111.395 113.661 111.421 113.674C111.355 113.621 111.156 113.621 111.077 113.608C110.917 113.568 110.758 113.528 110.599 113.488C110.44 113.448 109.882 113.21 110.466 113.462C111.05 113.714 110.493 113.462 110.36 113.395C110.174 113.289 110.002 113.183 109.816 113.064C109.246 112.706 110.333 113.541 109.989 113.196C109.856 113.064 109.71 112.944 109.59 112.812C109.551 112.759 109.498 112.706 109.458 112.653C109.179 112.401 109.909 113.316 109.723 112.997C109.63 112.838 109.511 112.692 109.431 112.533C109.391 112.454 109.352 112.374 109.312 112.294C109.126 111.963 109.564 113.077 109.484 112.706C109.445 112.546 109.378 112.401 109.352 112.241C109.352 112.202 109.299 111.963 109.299 111.963C109.352 111.963 109.338 112.759 109.378 112.454C109.391 112.294 109.285 111.844 109.391 111.698C109.445 111.631 109.219 112.52 109.338 112.175C109.378 112.069 109.378 111.963 109.405 111.857C109.458 111.671 109.537 111.499 109.577 111.313C109.431 112.029 109.299 111.91 109.445 111.658C109.498 111.565 109.551 111.459 109.604 111.366C109.697 111.194 109.816 110.928 109.962 110.809C109.962 110.809 109.391 111.472 109.763 111.088C109.816 111.021 109.869 110.968 109.935 110.902C110.068 110.756 110.214 110.623 110.36 110.491C110.426 110.438 110.533 110.318 110.625 110.279C110.612 110.279 109.909 110.769 110.36 110.491C110.559 110.371 110.745 110.239 110.944 110.133C111.236 109.974 111.859 109.841 110.917 110.106C111.103 110.053 111.289 109.974 111.475 109.92C111.66 109.867 111.859 109.828 112.045 109.788C112.35 109.722 112.35 109.907 111.66 109.841C111.766 109.841 111.886 109.828 111.992 109.814C112.138 109.814 112.549 109.748 112.669 109.828C112.682 109.828 111.753 109.655 112.284 109.775C112.364 109.801 112.456 109.814 112.536 109.828C112.748 109.881 112.934 109.947 113.146 110.013C113.651 110.172 112.881 109.92 112.854 109.881C112.947 109.974 113.146 110.027 113.252 110.093C113.438 110.199 113.611 110.318 113.783 110.424C114.062 110.61 113.836 110.663 113.544 110.239C113.597 110.318 113.757 110.424 113.81 110.478C113.969 110.623 114.115 110.769 114.248 110.928C114.725 111.459 113.889 110.385 114.287 110.968C114.447 111.194 114.579 111.419 114.712 111.658C114.752 111.737 114.792 111.817 114.831 111.897C115.017 112.241 114.579 111.154 114.738 111.684C114.818 111.936 114.911 112.188 114.964 112.454C114.991 112.546 115.004 112.626 115.017 112.719C115.15 113.342 114.977 112.096 114.977 112.467C114.977 112.732 114.991 113.011 114.977 113.276C114.977 113.395 114.924 113.74 115.004 113.196C115.097 112.6 115.004 113.143 114.977 113.276C114.924 113.541 114.831 113.78 114.765 114.032C114.672 114.363 114.951 113.621 114.938 113.647C114.871 113.78 114.818 113.913 114.752 114.045C114.632 114.284 114.486 114.496 114.34 114.722C114.274 114.814 114.075 115.08 114.394 114.669C114.752 114.218 114.394 114.642 114.314 114.748C114.155 114.92 113.995 115.093 113.81 115.252C113.743 115.318 113.597 115.398 113.544 115.478C113.942 114.96 114.009 115.133 113.717 115.332C113.491 115.478 113.266 115.623 113.04 115.743C112.961 115.783 112.881 115.822 112.801 115.862C112.456 116.048 113.558 115.61 113.027 115.769C112.801 115.836 112.576 115.915 112.35 115.968C112.297 115.968 112.072 116.048 112.005 116.035L112.536 115.968C112.417 115.968 112.297 115.995 112.178 115.995C110.453 116.101 108.781 117.44 108.861 119.31C108.94 121.021 110.32 122.745 112.178 122.626L112.218 122.666Z" fill="#D9D9D9"/>
<path d="M76.9242 121.83C79.7901 121.34 82.4172 119.92 84.6064 118.05C85.721 117.096 86.6763 115.942 87.4723 114.735C88.1888 113.661 88.7726 112.44 88.3215 111.114C88.0694 110.371 87.7377 109.615 87.2733 108.966C85.4821 106.432 82.5101 104.562 79.3125 104.735C77.4682 104.828 75.876 105.464 74.4696 106.631C73.3551 107.56 72.6386 108.806 72.1212 110.133C71.073 112.785 71.6435 116.141 73.7133 118.143C76.0087 120.345 79.3125 120.464 82.0855 119.191C83.3062 118.634 84.3809 117.639 85.0708 116.485C85.3893 115.955 85.6546 115.318 85.774 114.708C85.8669 114.244 85.9465 113.753 85.9332 113.276C85.9332 112.175 85.3893 111.379 84.7126 110.597C82.2978 107.812 77.7734 107.374 75.0003 109.841C72.0814 112.427 72.3733 117.865 75.9689 119.722C78.1316 120.836 80.5331 120.305 82.3641 118.833C83.943 117.56 84.7657 115.212 84.0757 113.263C83.7838 112.44 83.3194 111.737 82.5499 111.287C81.8334 110.875 80.7852 110.69 79.9891 110.955C78.3704 111.472 77.0569 113.276 77.6672 115.04C77.707 115.159 77.7336 115.265 77.7601 115.385L77.6407 114.509C77.654 114.668 77.6672 114.814 77.6407 114.96L77.7601 114.085C77.7336 114.271 77.6805 114.456 77.6142 114.629L77.9459 113.833C77.8663 114.005 77.7601 114.178 77.6407 114.324L78.1582 113.647C77.9989 113.833 77.8397 113.992 77.6407 114.151L78.3174 113.634C78.1183 113.78 77.9061 113.899 77.6805 113.992L78.4766 113.66C78.2908 113.727 78.0918 113.78 77.8928 113.82L78.7685 113.7C78.5695 113.727 78.3837 113.727 78.1847 113.714L79.0604 113.833C78.8614 113.806 78.6756 113.753 78.4899 113.674L79.2859 114.005C79.14 113.939 79.0073 113.846 78.8746 113.753L79.5513 114.271C79.4054 114.138 79.2727 114.005 79.1533 113.859L79.6707 114.536C79.5646 114.377 79.4717 114.218 79.3921 114.032L79.7238 114.828C79.6309 114.602 79.5778 114.39 79.538 114.151L79.6574 115.027C79.6176 114.708 79.6176 114.39 79.6574 114.072L79.538 114.947C79.5911 114.668 79.6574 114.403 79.7636 114.138L79.4319 114.934C79.5248 114.708 79.6442 114.509 79.7901 114.31L79.2727 114.987C79.4186 114.801 79.5911 114.629 79.7769 114.483L79.1002 115C79.2727 114.867 79.4584 114.761 79.6574 114.668L78.8614 115C79.1533 114.881 79.4584 114.801 79.7769 114.761L78.9012 114.881C79.2196 114.854 79.538 114.854 79.8565 114.907L78.9808 114.788C79.2992 114.841 79.6044 114.934 79.9095 115.053L79.1135 114.722C79.4584 114.867 79.7769 115.053 80.082 115.279L79.4054 114.761C79.6574 114.973 79.883 115.186 80.0953 115.451L79.5778 114.775C79.6309 114.854 79.684 114.92 79.7371 115L79.2859 113.329C79.2859 113.475 79.2859 113.621 79.2594 113.767L79.3788 112.891C79.339 113.143 79.2727 113.369 79.1798 113.607L79.5115 112.812C79.3921 113.077 79.2461 113.302 79.0736 113.528L79.5911 112.851C79.4054 113.077 79.2063 113.276 78.9808 113.448L79.6574 112.931C79.339 113.183 78.994 113.382 78.6093 113.541L79.4054 113.21C79.0206 113.369 78.6358 113.475 78.2245 113.528L79.1002 113.409C78.7287 113.448 78.3572 113.462 77.9989 113.409L78.8746 113.528C78.5429 113.488 78.2378 113.409 77.9193 113.289L78.7154 113.621C78.45 113.501 78.198 113.369 77.9591 113.183L78.6358 113.7C78.4235 113.528 78.2378 113.342 78.0653 113.13L78.5827 113.806C78.3837 113.554 78.2378 113.289 78.1051 112.997L78.4368 113.793C78.3041 113.462 78.2112 113.13 78.1582 112.772L78.2776 113.647C78.2245 113.21 78.2245 112.772 78.2776 112.334L78.1582 113.21C78.2245 112.719 78.3572 112.255 78.5562 111.804L78.2245 112.599C78.4102 112.188 78.6358 111.804 78.9144 111.446L78.397 112.122C78.6225 111.844 78.8746 111.578 79.1665 111.353L78.4899 111.87C78.7818 111.645 79.0869 111.459 79.4186 111.313L78.6225 111.645C78.994 111.485 79.3788 111.379 79.7901 111.326L78.9144 111.446C79.3655 111.393 79.8167 111.393 80.2678 111.446L79.3921 111.326C79.8963 111.406 80.3739 111.538 80.8516 111.724L80.0555 111.393C80.5729 111.618 81.0506 111.897 81.4884 112.241L80.8118 111.724C81.2098 112.042 81.5813 112.401 81.8997 112.812L81.3823 112.135C81.7007 112.546 81.9528 112.984 82.1651 113.448L81.8334 112.653C81.8865 112.785 81.9396 112.918 81.9794 113.05L82.3111 110.491C81.9926 111.074 81.6211 111.645 81.2098 112.175L81.7273 111.499C81.0639 112.348 80.2943 113.117 79.4452 113.793L80.1218 113.276C79.2196 113.966 78.2378 114.549 77.2028 114.987L77.9989 114.655C77.0967 115.027 76.1547 115.305 75.1861 115.477C74.4166 115.61 73.5807 116.353 73.2092 117.003C72.7978 117.719 72.6121 118.767 72.8775 119.562C73.1428 120.358 73.6337 121.141 74.4033 121.538C75.2392 121.976 76.0353 122.029 76.964 121.87L76.9242 121.83Z" fill="#D9D9D9"/>
<path d="M42.7323 124.96C43.4886 125.053 44.2714 124.96 45.0012 124.801C45.7309 124.642 46.4474 124.35 47.0843 123.992C48.4111 123.289 49.499 122.162 50.3217 120.915C51.1443 119.668 51.5689 118.17 51.6617 116.671C51.7016 115.928 51.6087 115.133 51.4096 114.416C51.1443 113.435 50.6268 112.626 49.9502 111.87C49.0347 110.849 47.615 110.08 46.2749 109.788C44.8685 109.483 43.2896 109.456 41.923 109.987C40.3441 110.597 38.9111 111.605 38.115 113.156C37.7966 113.78 37.5047 114.469 37.3986 115.172C37.319 115.65 37.2393 116.141 37.2393 116.631C37.2393 117.122 37.319 117.639 37.3986 118.143C37.5976 119.562 38.3141 120.849 39.2428 121.923C40.2777 123.13 41.8036 123.859 43.3559 124.072C44.9083 124.284 46.5801 123.966 48.0263 123.183C49.2735 122.507 50.4942 121.34 51.1045 120.053C51.5954 119.019 51.9802 117.918 51.821 116.764C51.6352 115.385 50.6666 114.443 49.5919 113.687C48.5172 112.931 47.1373 112.613 45.8901 112.626C43.2232 112.653 40.7023 114.032 39.2296 116.247C38.8846 116.777 38.6192 117.401 38.46 118.011C38.3008 118.621 38.2079 119.31 38.261 119.947C38.3141 120.584 38.3804 121.22 38.7386 121.777C39.0969 122.334 39.5082 122.679 40.0256 123.05C40.4104 123.316 40.8748 123.501 41.3126 123.647C41.7505 123.793 42.2281 123.846 42.6793 123.886C42.8915 123.912 43.0906 123.899 43.2896 123.886C44.298 123.767 45.0675 123.581 45.983 123.09C46.5668 122.772 47.1373 122.334 47.5884 121.843C48.6632 120.69 49.4592 119.125 49.3929 117.507C49.3531 116.552 49.1275 115.69 48.6499 114.854C48.2386 114.138 47.469 113.554 46.6729 113.329C45.8769 113.103 44.8154 113.21 44.1122 113.66C42.5996 114.642 42.0026 116.592 42.9181 118.196C42.9712 118.289 43.0242 118.395 43.064 118.488L42.7323 117.692C42.7987 117.865 42.8385 118.037 42.865 118.223L42.7456 117.347C42.7589 117.533 42.7589 117.706 42.7456 117.878L42.865 117.003C42.8252 117.241 42.7721 117.454 42.6793 117.679L43.011 116.883C42.9048 117.135 42.7589 117.361 42.5996 117.573L43.1171 116.897C42.9313 117.135 42.7191 117.347 42.4802 117.533L43.1569 117.016C42.9181 117.202 42.666 117.347 42.3874 117.48L43.1834 117.149C42.9313 117.255 42.6925 117.321 42.4272 117.374L43.3029 117.255C43.0906 117.281 42.8915 117.281 42.6925 117.255L43.5682 117.374C43.3825 117.347 43.2232 117.308 43.0508 117.241L43.8468 117.573C43.6744 117.493 43.5151 117.401 43.3559 117.294L44.0326 117.812L43.9663 117.759L44.8154 119.217L44.8154 119.138L44.9216 120.013C44.895 119.761 44.8818 119.509 44.9216 119.244L44.8021 120.119C44.8419 119.854 44.9083 119.589 45.0144 119.337L44.6827 120.133C44.8021 119.854 44.9481 119.602 45.1338 119.363L44.6164 120.04C44.842 119.761 45.094 119.509 45.3727 119.297L44.696 119.814C45.0277 119.562 45.3859 119.35 45.7707 119.191L44.9746 119.523C45.3859 119.35 45.8105 119.231 46.2484 119.178L45.3727 119.297C45.7309 119.257 46.0759 119.244 46.4341 119.297L45.5584 119.178C45.8769 119.218 46.182 119.297 46.4872 119.43L45.6911 119.098C45.9167 119.204 46.129 119.324 46.328 119.469L45.6513 118.952C45.8503 119.111 46.0361 119.297 46.1953 119.496L45.6778 118.82L45.7309 118.886L45.2798 117.215C45.2798 117.215 45.2798 117.347 45.2533 117.401L45.3727 116.525C45.3329 116.804 45.2533 117.082 45.1471 117.347L45.4788 116.552C45.3461 116.87 45.1737 117.162 44.9614 117.44L45.4788 116.764C45.24 117.069 44.9746 117.334 44.6695 117.573L45.3461 117.056C45.0144 117.308 44.6562 117.52 44.2714 117.679L45.0675 117.347C44.7093 117.493 44.351 117.586 43.9663 117.639L44.842 117.52C44.497 117.56 44.152 117.56 43.807 117.52L44.6827 117.639C44.3643 117.586 44.0724 117.507 43.7672 117.387L44.5633 117.719C44.3112 117.613 44.0857 117.467 43.8734 117.308L44.5501 117.825C44.2847 117.626 44.0591 117.401 43.8601 117.149L44.3776 117.825C44.1387 117.52 43.953 117.188 43.7938 116.83L44.1255 117.626C43.9663 117.228 43.8601 116.83 43.807 116.419L43.9265 117.294C43.8866 116.91 43.8866 116.525 43.9265 116.127L43.807 117.003C43.8601 116.645 43.953 116.313 44.0857 115.981L43.754 116.777C43.8734 116.499 44.0193 116.247 44.2051 116.008L43.6876 116.684C43.8734 116.446 44.0857 116.233 44.3245 116.048L43.6478 116.565C43.8866 116.393 44.152 116.233 44.4174 116.114L43.6213 116.446C43.9795 116.3 44.3643 116.194 44.7491 116.141L43.8734 116.26C44.2714 116.22 44.6562 116.22 45.0542 116.26L44.1785 116.141C44.5766 116.194 44.9481 116.3 45.3196 116.446L44.5235 116.114C44.8552 116.26 45.1737 116.432 45.4523 116.645L44.7756 116.127C45.0144 116.313 45.2267 116.525 45.4125 116.751L44.895 116.074C45.0012 116.22 45.1073 116.366 45.2002 116.525L44.8685 115.729C45.0012 116.061 45.0808 116.406 45.1338 116.751L45.0144 115.875C45.0542 116.26 45.0542 116.631 45.0144 117.016L45.1338 116.141C45.0675 116.592 44.9481 117.016 44.7756 117.427L45.1073 116.631C44.895 117.109 44.6429 117.56 44.3245 117.971L44.842 117.294C44.5368 117.679 44.1918 118.024 43.807 118.316L44.4837 117.798C44.1255 118.064 43.7407 118.302 43.3294 118.475L44.1255 118.143C43.7672 118.289 43.409 118.395 43.0242 118.448L43.8999 118.329C43.5151 118.382 43.1304 118.382 42.7456 118.329C41.9628 118.223 40.9279 118.767 40.3971 119.297C39.8266 119.867 39.3888 120.822 39.4286 121.645C39.4684 122.467 39.747 123.395 40.3971 123.992L41.0738 124.509C41.5913 124.814 42.1485 124.96 42.7456 124.96L42.7323 124.96Z" fill="#D9D9D9"/>
<path d="M110.002 84.5358C111.766 84.4164 113.624 84.3103 115.309 83.7268C117.352 83.0239 119.011 81.8833 120.231 80.0928C121.346 78.4483 121.704 76.3528 121.28 74.4297C120.762 72.1087 118.838 70.557 116.742 69.7082C113.73 68.4881 109.723 69.4297 107.56 71.8435C106.287 73.2626 105.491 75.053 105.557 76.9894C105.623 78.9257 106.366 80.6631 107.587 82.1485C108.808 83.6339 110.586 84.4032 112.456 84.5888C114.327 84.7745 116.052 83.939 117.379 82.7321C118.48 81.7374 119.342 80.2122 119.595 78.74C119.94 76.6445 119.502 74.6817 118.069 73.0769C116.954 71.8302 115.11 71.1671 113.465 71.2467C111.687 71.3395 110.121 71.9894 108.781 73.1432C107.534 74.2175 106.711 76.0477 106.857 77.6923C107.043 79.8143 108.078 81.4589 109.803 82.6658C111.09 83.5544 112.881 83.9655 114.42 83.9257C116.065 83.8859 117.764 83.4217 119.117 82.4536C121.001 81.1008 122.394 79.1777 122.5 76.7639C122.606 74.3501 121.054 72.122 118.918 71.2201C117.79 70.7427 116.569 70.5968 115.375 70.9682C113.717 71.4854 112.496 73.3024 113.053 75.053C113.611 76.8037 115.362 77.931 117.14 77.374C117.273 77.3342 117.392 77.3077 117.525 77.2812L116.649 77.4005C116.782 77.4005 116.901 77.4005 117.034 77.4005L116.158 77.2812C116.37 77.3077 116.569 77.374 116.768 77.4536L115.972 77.122C116.132 77.2016 116.278 77.2944 116.423 77.3873L115.747 76.87C115.919 77.0159 116.078 77.1618 116.224 77.3475L115.707 76.6711C115.879 76.8965 116.012 77.122 116.118 77.374L115.787 76.5782C115.866 76.7904 115.919 77.0026 115.959 77.2414L115.84 76.366C115.853 76.5517 115.853 76.7241 115.84 76.9098L115.959 76.0345C115.919 76.313 115.853 76.5915 115.747 76.8568L116.078 76.061C115.946 76.366 115.787 76.6445 115.588 76.9231L116.105 76.2467C115.826 76.5915 115.521 76.8965 115.176 77.1618L115.853 76.6446C115.468 76.9363 115.057 77.1751 114.606 77.3607L115.402 77.0292C114.991 77.2016 114.553 77.3077 114.115 77.374L114.991 77.2546C114.5 77.3077 114.009 77.3077 113.518 77.2546L114.393 77.374C113.916 77.3077 113.451 77.1883 113.014 77.0026L113.81 77.3342C113.491 77.1883 113.199 77.0159 112.934 76.817L113.611 77.3342C113.412 77.1751 113.226 76.9894 113.067 76.7904L113.584 77.4668C113.425 77.2546 113.305 77.0424 113.199 76.8037L113.531 77.5995C113.451 77.3873 113.385 77.1618 113.345 76.9363L113.465 77.8117C113.438 77.5995 113.438 77.4005 113.465 77.1883L113.345 78.0636C113.372 77.8249 113.438 77.6127 113.531 77.4005L113.199 78.1963C113.292 77.9841 113.412 77.7984 113.558 77.6127L113.04 78.2891C113.213 78.0769 113.398 77.8912 113.624 77.7321L112.947 78.2493C113.199 78.0636 113.465 77.9045 113.757 77.7719L112.96 78.1034C113.292 77.9708 113.624 77.8647 113.969 77.8117L113.093 77.931C113.438 77.8912 113.783 77.878 114.128 77.931L113.252 77.8117C113.491 77.8514 113.717 77.9045 113.929 77.9973L113.133 77.6658C113.359 77.7586 113.558 77.878 113.743 78.0239L113.067 77.5066C113.239 77.6392 113.372 77.7984 113.518 77.9708L113 77.2944C113.133 77.4801 113.239 77.6658 113.332 77.878L113 77.0822C113.093 77.3209 113.16 77.5597 113.199 77.8249L113.08 76.9496C113.12 77.2414 113.12 77.5331 113.08 77.8382L113.199 76.9628C113.146 77.3475 113.04 77.7056 112.894 78.0504L113.226 77.2546C113.08 77.5729 112.907 77.8647 112.708 78.1565L113.226 77.4801C112.987 77.7851 112.722 78.0504 112.416 78.2891L113.093 77.7719C112.841 77.9575 112.589 78.1034 112.31 78.2228L113.106 77.8912C112.854 77.9841 112.602 78.0504 112.35 78.1034L113.226 77.9841C112.947 78.0106 112.669 78.0106 112.39 77.9841L113.266 78.1034C112.934 78.0504 112.629 77.9708 112.337 77.8382L113.133 78.1697C112.841 78.0371 112.562 77.8647 112.31 77.6658L112.987 78.183C112.695 77.9443 112.443 77.6923 112.217 77.3873L112.735 78.0636C112.483 77.7321 112.284 77.374 112.111 76.9894L112.443 77.7851C112.284 77.4005 112.178 77.0026 112.111 76.5782L112.231 77.4536C112.191 77.0822 112.191 76.7109 112.231 76.3395L112.111 77.2148C112.164 76.8833 112.244 76.565 112.377 76.2599L112.045 77.0557C112.178 76.7506 112.35 76.4589 112.549 76.1804L112.032 76.8568C112.284 76.5252 112.576 76.2334 112.907 75.9814L112.231 76.4987C112.576 76.2467 112.934 76.0345 113.319 75.8621L112.523 76.1936C113 75.9947 113.491 75.8621 113.995 75.7825L113.12 75.9018C113.584 75.8488 114.048 75.8355 114.526 75.9018L113.65 75.7825C114.115 75.8488 114.566 75.9682 115.004 76.1406L114.208 75.809C114.566 75.9682 114.911 76.1671 115.229 76.4058L114.553 75.8886C114.791 76.0875 115.017 76.2997 115.203 76.5384L114.685 75.8621C114.831 76.061 114.951 76.2467 115.057 76.4721L114.725 75.6764C114.845 75.9682 114.924 76.2467 114.964 76.5517L114.845 75.6764C114.871 75.9814 114.871 76.2865 114.831 76.5915L114.951 75.7162C114.898 76.0743 114.791 76.4191 114.659 76.7506L114.991 75.9549C114.818 76.3395 114.619 76.6843 114.367 77.0292L114.884 76.3528C114.632 76.6843 114.34 76.9761 114.022 77.2414L114.699 76.7241C114.274 77.0424 113.823 77.2944 113.332 77.5199L114.128 77.1883C113.239 77.5597 112.31 77.7586 111.368 77.8912L112.244 77.7719C111.514 77.8647 110.771 77.9178 110.042 77.9708C109.153 78.0239 108.33 78.3024 107.693 78.939C107.123 79.5093 106.685 80.4642 106.724 81.2865C106.804 82.9841 108.184 84.7215 110.042 84.6021L110.002 84.5358Z" fill="#D9D9D9"/>
<path d="M81.3029 85.3315C82.1786 85.0265 83.041 84.6552 83.7973 84.0981C84.7924 83.3554 85.5354 82.626 86.2651 81.618C86.7959 80.9018 87.1674 80.053 87.446 79.2042C87.7246 78.3554 87.8573 77.3607 87.7644 76.4456C87.6583 75.3448 87.4327 74.2971 86.8357 73.3422C86.2784 72.4403 85.5885 71.7904 84.726 71.1936C84.1024 70.756 83.3594 70.4509 82.6297 70.252C81.8999 70.053 81.1171 69.9337 80.3608 69.9867C78.2645 70.1061 76.4866 70.9682 75.2659 72.679C74.1381 74.2573 74.2045 76.5782 74.7219 78.3819C75.2792 80.3183 76.46 82.0026 78.1583 83.1034C79.1269 83.74 80.268 84.0451 81.4223 84.1247C82.5766 84.2042 83.6115 83.8461 84.6066 83.3819C85.3629 83.0239 86.0927 82.4668 86.6366 81.8302C87.3266 81.0212 87.9635 80.0663 88.1757 79.0053C88.2819 78.5013 88.3748 77.9708 88.335 77.4536C88.2686 76.565 88.0829 75.9151 87.7114 75.1061C87.2072 74.0053 86.1988 73.0636 85.1639 72.4668C81.9663 70.5968 77.6674 71.7109 75.3986 74.5225C74.6821 75.4111 74.2045 76.2069 73.8197 77.2812C73.7135 77.5597 73.6472 77.8382 73.6074 78.13C73.5278 78.6737 73.4216 79.244 73.4747 79.801C73.6207 81.5915 74.3106 83.3819 75.717 84.5756C76.8581 85.557 78.2114 86.2865 79.724 86.4987C80.5201 86.618 81.2498 86.7109 82.0459 86.618C83.1604 86.4854 83.983 86.2732 85.0047 85.8223C86.3182 85.2387 87.5389 84.0849 88.1757 82.7984C89.2107 80.6896 88.6269 78.3422 87.1276 76.6445C85.1108 74.3501 81.1304 73.5544 78.5166 75.2652C77.7205 75.7825 77.0173 76.4854 76.5794 77.3342C76.1814 78.13 75.9956 79.0053 76.2477 79.8939C76.46 80.6631 77.0571 81.4987 77.7736 81.87C79.2861 82.6658 81.4754 82.3342 82.3113 80.6764C82.3909 80.5305 82.4705 80.3979 82.5633 80.2652L82.0459 80.9416C82.1786 80.7825 82.3113 80.6366 82.4837 80.5172L81.8071 81.0345C81.9663 80.9151 82.1388 80.8223 82.3245 80.7427L81.5284 81.0743C81.7673 80.9814 82.0061 80.9151 82.2582 80.8886L81.3825 81.0079C81.7009 80.9682 82.0061 80.9814 82.3245 81.0079L81.4488 80.8886C81.8203 80.9416 82.1918 81.0477 82.5368 81.1936L81.7407 80.8621C82.0592 81.0079 82.3643 81.1804 82.6297 81.3926L81.953 80.8753C82.152 81.0345 82.3378 81.2201 82.497 81.4191L81.9795 80.7427C82.1122 80.9284 82.2316 81.114 82.3245 81.313L81.9928 80.5172C82.0724 80.7029 82.1255 80.8886 82.152 81.0875L82.0326 80.2122C82.0592 80.4244 82.0592 80.6233 82.0326 80.8355L82.152 79.9602C82.152 80.0398 82.1255 80.1194 82.1122 80.1989L82.4439 79.4032C82.3378 79.6419 82.2051 79.8674 82.0459 80.0663L82.5633 79.3899C82.3776 79.6419 82.152 79.8541 81.9132 80.053L82.5899 79.5358C82.298 79.7613 81.9795 79.9469 81.6478 80.0928L82.4439 79.7613C82.0459 79.9204 81.6346 80.0398 81.1967 80.1061L82.0724 79.9867C81.5815 80.053 81.0773 80.053 80.5864 79.9867L81.4621 80.1061C80.9977 80.0398 80.5466 79.9204 80.122 79.748L80.9181 80.0796C80.5466 79.9204 80.2016 79.7347 79.8832 79.496L80.5599 80.0133C80.2945 79.801 80.0557 79.5756 79.8434 79.2971L80.3608 79.9735C80.1751 79.7215 80.0159 79.4562 79.8965 79.1644L80.2282 79.9602C80.122 79.6817 80.0424 79.4032 80.0026 79.1247L80.122 80C80.0822 79.6684 80.0822 79.3501 80.122 79.0186L80.0026 79.8939C80.0557 79.5358 80.1486 79.191 80.2812 78.8594L79.9495 79.6552C80.122 79.2573 80.3476 78.8859 80.6129 78.5411L80.0955 79.2175C80.3741 78.8727 80.6793 78.5676 81.0242 78.2891L80.3476 78.8063C80.7191 78.5146 81.1304 78.2758 81.5682 78.0769L80.7722 78.4085C81.1702 78.2361 81.5815 78.13 82.0194 78.0636L81.1437 78.183C81.4754 78.1432 81.7938 78.1432 82.1255 78.183L81.2498 78.0636C81.5815 78.1034 81.8999 78.1963 82.2051 78.3156L81.409 77.9841C81.7009 78.1167 81.9663 78.2758 82.2316 78.4615L81.555 77.9443C81.7673 78.1167 81.953 78.2891 82.1388 78.5013L81.6213 77.8249C81.7805 78.0239 81.8999 78.2228 82.0061 78.4615L81.6744 77.6658C81.754 77.8514 81.7938 78.0371 81.8336 78.2361L81.7142 77.3607C81.7407 77.5597 81.7407 77.7453 81.7142 77.931L81.8336 77.0557C81.7938 77.3209 81.7275 77.5597 81.6213 77.7984L81.953 77.0026C81.8469 77.2546 81.7009 77.4801 81.5417 77.6923L82.0592 77.0159C81.8601 77.2679 81.6478 77.4801 81.409 77.679L82.0857 77.1618C81.8071 77.374 81.5152 77.5464 81.1835 77.6923L81.9795 77.3607C81.7142 77.4668 81.4621 77.5331 81.1835 77.5862L82.0592 77.4668C81.7805 77.5066 81.5152 77.5066 81.2365 77.4668L82.1122 77.5862C81.8336 77.5464 81.555 77.4536 81.2896 77.3475L82.0857 77.679C81.7938 77.5464 81.5284 77.3873 81.2631 77.1883L81.9397 77.7056C81.6611 77.4801 81.409 77.2281 81.1967 76.9496L81.7142 77.626C81.4488 77.2812 81.2365 76.8965 81.0508 76.4987L81.3825 77.2944C81.1835 76.817 81.0375 76.313 80.9712 75.7957L81.0906 76.6711C81.0242 76.1538 81.0242 75.6366 81.0906 75.1193L80.9712 75.9947C80.9712 75.9284 80.9844 75.8621 81.0242 75.809L80.6925 76.6048C80.7854 76.3926 80.8916 76.2069 81.0242 76.0212L80.5068 76.6976C80.6395 76.5252 80.7987 76.3793 80.9712 76.2467L80.2945 76.7639C80.4935 76.618 80.7058 76.4987 80.9314 76.4058L80.1353 76.7374C80.4006 76.6313 80.666 76.565 80.9446 76.5252L80.0689 76.6445C80.4405 76.5915 80.812 76.5915 81.1835 76.6445L80.3078 76.5252C80.7191 76.5782 81.1171 76.6843 81.4886 76.8568L80.6925 76.5252C80.9844 76.6578 81.2631 76.817 81.5284 77.0026L80.8518 76.4854C81.0773 76.6578 81.2896 76.8568 81.4621 77.0955L80.9446 76.4191C81.1039 76.6313 81.2365 76.8435 81.3427 77.0955L81.011 76.2997C81.1304 76.6048 81.21 76.9098 81.2631 77.2414L81.1437 76.366C81.1967 76.7374 81.1967 77.1087 81.1437 77.4801L81.2631 76.6048C81.1967 77.0557 81.0773 77.4801 80.9048 77.9045L81.2365 77.1087C81.0375 77.5729 80.7854 77.9973 80.4803 78.3952L80.9977 77.7188C80.6527 78.1565 80.268 78.5411 79.8434 78.8727L80.5201 78.3554C80.1088 78.6605 79.6842 78.9257 79.2065 79.1247L80.0026 78.7931C79.8567 78.8594 79.7107 78.9125 79.5648 78.9522C78.7421 79.2308 78.0257 79.7082 77.5878 80.4774C77.1765 81.1936 76.9908 82.2414 77.2561 83.0371C77.5215 83.8329 78.0124 84.6154 78.7819 85.0132C79.5515 85.4111 80.4935 85.6366 81.3427 85.3448L81.3029 85.3315Z" fill="#D9D9D9"/>
<path d="M48.7692 86.6978C51.8342 85.7297 53.7315 82.8384 53.7846 79.6686C53.8111 78.2893 53.4263 76.7641 52.6435 75.6236C52.1393 74.8941 51.5025 74.1514 50.7196 73.7137C49.3928 72.9445 48.0926 73.3424 46.8056 73.8729C44.0458 75.0135 40.9543 76.91 40.3175 80.0798C39.6143 83.5281 41.8168 87.0029 45.3461 87.5997C48.1722 88.0771 50.985 87.4803 53.5723 86.3132C55.3237 85.5175 56.823 84.1514 57.4996 82.3212C58.3753 79.9604 57.0352 77.4936 54.9654 76.3265C51.5555 74.4034 47.124 74.2177 44.0458 76.8437C41.3126 79.1779 40.5298 83.979 43.3426 86.5785C44.9082 88.0241 46.925 88.5015 48.9948 88.1567C50.8523 87.8517 52.6568 86.3663 53.1477 84.5095C53.758 82.2151 51.874 79.7084 49.8572 78.7933C47.8405 77.8782 45.6114 77.7721 43.7539 78.9923C42.3077 79.9472 41.5514 81.9631 42.5598 83.5281C43.4885 84.9737 45.5451 85.7429 47.0974 84.7217C47.2434 84.6289 47.3761 84.5493 47.5353 84.483L46.7392 84.8145C46.978 84.7217 47.2036 84.6554 47.4557 84.6289L46.58 84.7482C46.8321 84.7217 47.0709 84.7217 47.323 84.7482L46.4473 84.6289C46.7392 84.6686 47.0178 84.7482 47.2965 84.8543L46.5004 84.5228C46.779 84.6421 47.0178 84.788 47.2567 84.9604L46.58 84.4432C46.779 84.6023 46.9515 84.7747 47.1107 84.9737L46.5933 84.2973C46.7127 84.4697 46.8188 84.6421 46.9117 84.8278L46.58 84.032C46.6463 84.1912 46.6994 84.3371 46.7392 84.5095L46.7392 82.7456L46.6994 82.8517L47.0311 82.0559C46.9648 82.1885 46.8984 82.3079 46.8056 82.4405L47.323 81.7641C47.2169 81.91 47.0842 82.0294 46.9515 82.1355L47.6282 81.6182C47.4822 81.7243 47.3363 81.8172 47.1638 81.8835L47.9599 81.5519C47.7211 81.6448 47.4822 81.7111 47.2169 81.7509L48.0926 81.6315C47.8272 81.658 47.5618 81.658 47.2965 81.6315L48.1722 81.7509C47.867 81.7111 47.5751 81.6315 47.2965 81.5121L48.0926 81.8437C47.8803 81.7509 47.6945 81.6315 47.5088 81.4989L48.1854 82.0161C48.0395 81.8968 47.9068 81.7641 47.7874 81.6315L48.3049 82.3079C48.1456 82.109 48.0395 81.8968 47.9333 81.6713L48.265 82.4671C48.1854 82.2416 48.1324 82.0294 48.0926 81.8039L48.212 82.6793C48.1854 82.4007 48.1722 82.1355 48.212 81.857L48.0926 82.7323C48.1456 82.361 48.2385 82.0029 48.3845 81.658L48.0528 82.4538C48.212 82.0957 48.411 81.7774 48.6366 81.4724L48.1191 82.1487C48.3314 81.8835 48.5702 81.658 48.8356 81.4458L48.1589 81.9631C48.4375 81.7509 48.7294 81.5785 49.0479 81.4326L48.2518 81.7641C48.7029 81.5785 49.154 81.4591 49.6317 81.3928L48.756 81.5121C49.3 81.4591 49.8307 81.4591 50.3747 81.5254L49.499 81.406C50.2287 81.5121 50.9319 81.7111 51.6086 81.9896L50.8125 81.658C51.2238 81.8437 51.6219 82.0294 51.9934 82.2946L51.3167 81.7774C51.4892 81.91 51.6351 82.0427 51.7678 82.2151L51.2504 81.5387C51.3167 81.6182 51.3698 81.7111 51.4096 81.8039L51.0779 81.0082C51.1309 81.1408 51.1708 81.2602 51.2106 81.406L51.0911 80.5307C51.1044 80.6633 51.1177 80.7827 51.0911 80.9153L51.2106 80.04C51.184 80.2124 51.1442 80.3716 51.0779 80.544L51.4096 79.7482C51.33 79.9206 51.2371 80.0665 51.1177 80.2257L51.6351 79.5493C51.4096 79.8278 51.1575 80.0665 50.8789 80.292L51.5555 79.7747C51.0911 80.1196 50.587 80.3981 50.0562 80.6236L50.8523 80.292C49.8174 80.7164 48.7427 81.0214 47.6282 81.1806L48.5039 81.0612C47.8139 81.1541 47.124 81.1806 46.434 81.101L47.3097 81.2204C46.8852 81.1673 46.4739 81.0612 46.0625 80.8888L46.8586 81.2204C46.6198 81.1143 46.4075 80.9816 46.1952 80.8358L46.8719 81.353C46.6994 81.2204 46.5535 81.0612 46.4075 80.8888L46.925 81.5652C46.7658 81.353 46.6331 81.1275 46.5269 80.8755L46.8586 81.6713C46.7658 81.4193 46.6994 81.1806 46.6596 80.9153L46.779 81.7907C46.7525 81.5387 46.7525 81.2999 46.779 81.048L46.6596 81.9233C46.6994 81.6846 46.7657 81.4458 46.8454 81.2204L46.5137 82.0161C46.6463 81.6978 46.8188 81.4193 47.0178 81.1541L46.5004 81.8305C46.8188 81.4326 47.1771 81.0877 47.5618 80.7827L46.8852 81.2999C47.6282 80.7297 48.4508 80.2787 49.3132 79.9074L48.5171 80.2389C48.955 80.0533 49.4061 79.8808 49.8705 79.735L47.3097 79.4034L47.4026 79.4697L46.7259 78.9525C46.9382 79.1249 47.124 79.3106 47.2965 79.5228L46.779 78.8464C46.9648 79.0851 47.1107 79.3503 47.2301 79.6289L46.8984 78.8331C47.0311 79.1514 47.1107 79.483 47.1638 79.8145L47.0444 78.9392C47.0975 79.3636 47.0975 79.788 47.0444 80.2124L47.1638 79.3371C47.1107 79.7217 47.0046 80.093 46.8586 80.4511L47.1903 79.6554C47.0444 80.0135 46.8454 80.3318 46.6198 80.6501L47.1373 79.9737C46.9515 80.2124 46.7392 80.4246 46.5004 80.6103L47.1771 80.093C46.9648 80.2522 46.7392 80.3848 46.4871 80.4909L47.2832 80.1594C47.1771 80.1991 47.0709 80.2389 46.9515 80.2787C45.3063 80.796 44.0723 82.6129 44.6296 84.3636C45.1603 86.0214 46.9382 87.2416 48.7162 86.6846L48.7692 86.6978Z" fill="#D9D9D9"/>
<path d="M109.099 53.4749C112.443 53.2627 115.428 51.4855 117.18 48.6341C118.931 45.7826 118.891 42.2946 117.418 39.3237C115.946 36.3529 112.854 34.2972 109.564 34.0452C106.724 33.8198 103.659 35.2123 101.842 37.3741C99.6393 40.0001 98.9493 43.4219 100.502 46.5518C101.576 48.7402 104.044 50.4643 106.419 50.8887C109.497 51.4457 112.629 50.5572 114.407 47.8383C115.959 45.4776 115.654 42.215 114.181 39.894C112.244 36.8436 108.662 35.2786 105.252 36.8436C103.58 37.6129 102.465 39.4298 102.227 41.207C101.921 43.5015 103.102 45.7296 105.451 46.3529C107.122 46.7906 109.126 45.7959 109.537 44.032C109.949 42.268 109.02 40.4245 107.215 39.9471C106.764 39.8277 107.693 40.1725 107.666 40.1593C107.627 40.1328 108.37 40.7826 108.091 40.4776C108.317 40.7163 108.489 40.9683 108.608 41.2733C108.9 41.9895 108.648 41.0081 108.741 41.7906C108.861 42.7322 108.741 41.7375 108.781 41.7641C108.847 41.7906 108.569 42.6792 108.728 42.268C108.754 42.1885 108.794 42.0956 108.807 42.016C108.622 42.8914 108.489 42.6792 108.635 42.4404C108.648 42.4139 108.781 42.2017 108.781 42.215C108.807 42.268 108.171 42.8648 108.516 42.5731C108.555 42.5333 108.622 42.4802 108.662 42.4272C108.821 42.2282 107.958 43.0107 108.476 42.6129C107.839 43.0903 107.786 42.8648 108.078 42.7985C108.237 42.772 108.675 42.6924 108.038 42.772C107.401 42.8516 107.958 42.8118 108.131 42.7985C108.635 42.7853 107.242 42.5863 107.839 42.7588C107.985 42.7985 108.635 43.0373 108.011 42.772C107.388 42.5068 107.998 42.7853 108.144 42.8781C108.781 43.276 107.932 42.7985 107.972 42.719C107.972 42.719 108.343 43.0771 108.37 43.1036C108.476 43.2097 108.874 43.7137 108.476 43.1964C108.078 42.6792 108.529 43.3158 108.608 43.4484C108.688 43.581 108.94 44.1646 108.688 43.5678C108.436 42.9709 108.675 43.5545 108.715 43.7004C108.754 43.8463 108.794 44.0187 108.834 44.1778C108.993 44.7879 108.781 43.276 108.807 44.0585C108.807 44.2176 108.794 44.3768 108.794 44.5359C108.794 44.9206 108.98 43.7004 108.847 44.0585C108.821 44.1248 108.821 44.1911 108.794 44.2574C108.794 44.2442 108.715 44.5094 108.715 44.5227C108.688 44.4961 109.126 43.7137 108.887 44.1115C108.847 44.1646 108.821 44.2309 108.781 44.2972C108.529 44.8542 108.967 43.9789 109.02 44.032C109.033 44.0585 108.728 44.3503 108.675 44.39C108.582 44.4962 108.29 44.7083 108.741 44.3503C109.192 43.9922 108.927 44.2176 108.794 44.2839C108.715 44.3237 108.409 44.4431 108.383 44.5094C108.383 44.4829 109.232 44.2044 108.807 44.3237C108.728 44.3503 108.635 44.3768 108.555 44.4033C108.21 44.4961 107.693 44.4564 108.781 44.4033C108.622 44.4033 108.463 44.4298 108.303 44.4298C108.144 44.4298 107.985 44.4298 107.826 44.4166C107.361 44.4166 108.277 44.4696 108.303 44.4829C108.237 44.4298 108.038 44.4298 107.958 44.4166C107.799 44.3768 107.64 44.337 107.481 44.2972C107.321 44.2574 106.764 44.0187 107.348 44.2707C107.932 44.5227 107.375 44.2707 107.242 44.2044C107.056 44.0983 106.884 43.9922 106.698 43.8728C106.127 43.5147 107.215 44.3503 106.87 44.0054C106.738 43.8728 106.592 43.7534 106.472 43.6208C106.433 43.5678 106.379 43.5147 106.34 43.4617C106.061 43.2097 106.791 44.1248 106.605 43.8065C106.512 43.6473 106.393 43.5015 106.313 43.3423C106.273 43.2627 106.233 43.1832 106.194 43.1036C106.008 42.772 106.446 43.8861 106.366 43.5147C106.326 43.3556 106.26 43.2097 106.233 43.0505C106.233 43.0107 106.18 42.772 106.18 42.772C106.233 42.772 106.22 43.5678 106.26 43.2627C106.273 43.1036 106.167 42.6526 106.273 42.5068C106.326 42.4404 106.101 43.329 106.22 42.9842C106.26 42.8781 106.26 42.772 106.287 42.6659C106.34 42.4802 106.419 42.3078 106.459 42.1221C106.313 42.8383 106.18 42.719 106.326 42.467C106.379 42.3741 106.433 42.268 106.486 42.1752C106.578 42.0028 106.698 41.7375 106.844 41.6182C106.844 41.6182 106.273 42.2813 106.645 41.8967C106.698 41.8304 106.751 41.7773 106.817 41.711C106.95 41.5651 107.096 41.4325 107.242 41.2999C107.308 41.2468 107.414 41.1274 107.507 41.0877C107.494 41.0877 106.791 41.5784 107.242 41.2999C107.441 41.1805 107.627 41.0479 107.826 40.9418C108.118 40.7826 108.741 40.65 107.799 40.9152C107.985 40.8622 108.171 40.7826 108.356 40.7296C108.542 40.6765 108.741 40.6367 108.927 40.5969C109.232 40.5306 109.232 40.7163 108.542 40.65C108.648 40.65 108.768 40.6367 108.874 40.6235C109.02 40.6235 109.431 40.5572 109.551 40.6367C109.564 40.6367 108.635 40.4643 109.166 40.5837C109.245 40.6102 109.338 40.6235 109.418 40.6367C109.63 40.6898 109.816 40.7561 110.028 40.8224C110.532 40.9816 109.763 40.7296 109.736 40.6898C109.829 40.7826 110.028 40.8357 110.134 40.902C110.32 41.0081 110.493 41.1274 110.665 41.2335C110.944 41.4192 110.718 41.4723 110.426 41.0479C110.479 41.1274 110.638 41.2335 110.692 41.2866C110.851 41.4325 110.997 41.5784 111.129 41.7375C111.607 42.268 110.771 41.1938 111.169 41.7773C111.328 42.0028 111.461 42.2282 111.594 42.467C111.634 42.5465 111.673 42.6261 111.713 42.7057C111.899 43.0505 111.461 41.963 111.62 42.4935C111.7 42.7455 111.793 42.9975 111.846 43.2627C111.872 43.3556 111.886 43.4351 111.899 43.528C112.032 44.1513 111.859 42.9046 111.859 43.276C111.859 43.5412 111.872 43.8198 111.859 44.085C111.859 44.2044 111.806 44.5492 111.886 44.0054C111.979 43.4086 111.886 43.9524 111.859 44.085C111.806 44.3503 111.713 44.589 111.647 44.841C111.554 45.1725 111.833 44.4298 111.819 44.4564C111.753 44.589 111.7 44.7216 111.634 44.8542C111.514 45.093 111.368 45.3052 111.222 45.5306C111.156 45.6235 110.957 45.8887 111.275 45.4776C111.634 45.0267 111.275 45.4511 111.196 45.5572C111.037 45.7296 110.877 45.902 110.692 46.0611C110.625 46.1274 110.479 46.207 110.426 46.2866C110.824 45.7694 110.891 45.9418 110.599 46.1407C110.373 46.2866 110.148 46.4325 109.922 46.5518C109.842 46.5916 109.763 46.6314 109.683 46.6712C109.338 46.8569 110.439 46.4192 109.909 46.5784C109.683 46.6447 109.458 46.7243 109.232 46.7773C109.179 46.7773 108.953 46.8569 108.887 46.8436L109.418 46.7773C109.298 46.7773 109.179 46.8038 109.06 46.8038C107.335 46.9099 105.663 48.2495 105.743 50.1195C105.822 51.8304 107.202 53.5545 109.06 53.4351L109.099 53.4749Z" fill="#D9D9D9"/>
<path d="M73.8061 52.6527C76.672 52.1619 79.299 50.7428 81.4883 48.8728C82.6028 47.9179 83.5581 46.7641 84.3542 45.5572C85.0707 44.4829 85.6545 43.2627 85.2033 41.9365C84.9512 41.1938 84.6195 40.4378 84.1552 39.7879C82.364 37.2548 79.3919 35.3848 76.1943 35.5572C74.35 35.65 72.7579 36.2866 71.3515 37.4537C70.2369 38.3821 69.5205 39.6288 69.003 40.955C67.9548 43.6076 68.5254 46.963 70.5952 48.9656C72.8906 51.1672 76.1943 51.2866 78.9673 50.0134C80.188 49.4564 81.2627 48.4617 81.9527 47.3078C82.2711 46.7773 82.5365 46.1407 82.6559 45.5306C82.7487 45.0665 82.8284 44.5757 82.8151 44.0983C82.8151 42.9975 82.2711 42.2017 81.5944 41.4192C79.1796 38.6341 74.6552 38.1964 71.8822 40.6633C68.9632 43.2495 69.2551 48.6871 72.8508 50.5439C75.0135 51.658 77.415 51.1275 79.246 49.6553C80.8249 48.3821 81.6475 46.0346 80.9576 44.085C80.6657 43.2627 80.2013 42.5598 79.4317 42.1089C78.7152 41.6977 77.6671 41.5121 76.871 41.7773C75.2523 42.2946 73.9387 44.0983 74.5491 45.8622C74.5889 45.9816 74.6154 46.0877 74.6419 46.207L74.5225 45.3317C74.5358 45.4909 74.5491 45.6367 74.5225 45.7826L74.6419 44.9073C74.6154 45.093 74.5623 45.2787 74.496 45.4511L74.8277 44.6553C74.7481 44.8277 74.6419 45.0001 74.5225 45.146L75.04 44.4696C74.8808 44.6553 74.7216 44.8145 74.5225 44.9736L75.1992 44.4564C75.0002 44.6023 74.7879 44.7216 74.5623 44.8145L75.3584 44.4829C75.1727 44.5492 74.9736 44.6023 74.7746 44.642L75.6503 44.5227C75.4513 44.5492 75.2655 44.5492 75.0665 44.5359L75.9422 44.6553C75.7432 44.6288 75.5574 44.5757 75.3717 44.4962L76.1678 44.8277C76.0218 44.7614 75.8891 44.6686 75.7565 44.5757L76.4331 45.093C76.2872 44.9603 76.1545 44.8277 76.0351 44.6818L76.5525 45.3582C76.4464 45.1991 76.3535 45.0399 76.2739 44.8542L76.6056 45.65C76.5127 45.4245 76.4597 45.2123 76.4199 44.9736L76.5393 45.8489C76.4995 45.5306 76.4995 45.2123 76.5393 44.894L76.4199 45.7694C76.4729 45.4908 76.5393 45.2256 76.6454 44.9603L76.3137 45.7561C76.4066 45.5306 76.526 45.3317 76.672 45.1328L76.1545 45.8092C76.3005 45.6235 76.4729 45.4511 76.6587 45.3052L75.982 45.8224C76.1545 45.6898 76.3403 45.5837 76.5393 45.4909L75.7432 45.8224C76.0351 45.7031 76.3403 45.6235 76.6587 45.5837L75.783 45.7031C76.1014 45.6765 76.4199 45.6765 76.7383 45.7296L75.8626 45.6102C76.181 45.6633 76.4862 45.7561 76.7914 45.8755L75.9953 45.5439C76.3403 45.6898 76.6587 45.8755 76.9639 46.1009L76.2872 45.5837C76.5393 45.7959 76.7648 46.0081 76.9771 46.2733L76.4597 45.597C76.5127 45.6765 76.5658 45.7428 76.6189 45.8224L76.1678 44.1513C76.1678 44.2972 76.1678 44.4431 76.1412 44.589L76.2607 43.7137C76.2208 43.9657 76.1545 44.1911 76.0616 44.4298L76.3933 43.6341C76.2739 43.8993 76.128 44.1248 75.9555 44.3503L76.4729 43.6739C76.2872 43.8993 76.0882 44.0983 75.8626 44.2707L76.5393 43.7535C76.2208 44.0054 75.8759 44.2044 75.4911 44.3635L76.2872 44.032C75.9024 44.1911 75.5176 44.2972 75.1063 44.3503L75.982 44.2309C75.6105 44.2707 75.239 44.284 74.8808 44.2309L75.7565 44.3503C75.4248 44.3105 75.1196 44.2309 74.8012 44.1115L75.5972 44.4431C75.3319 44.3237 75.0798 44.1911 74.841 44.0054L75.5176 44.5227C75.3053 44.3503 75.1196 44.1646 74.9471 43.9524L75.4646 44.6288C75.2655 44.3768 75.1196 44.1115 74.9869 43.8198L75.3186 44.6155C75.1859 44.284 75.0931 43.9524 75.04 43.5943L75.1594 44.4696C75.1063 44.032 75.1063 43.5943 75.1594 43.1566L75.04 44.032C75.1063 43.5413 75.239 43.0771 75.438 42.6261L75.1063 43.4219C75.2921 43.0107 75.5176 42.6261 75.7963 42.268L75.2788 42.9444C75.5044 42.6659 75.7565 42.4007 76.0484 42.1752L75.3717 42.6924C75.6636 42.467 75.9688 42.2813 76.3005 42.1354L75.5044 42.467C75.8759 42.3078 76.2607 42.2017 76.672 42.1487L75.7963 42.268C76.2474 42.215 76.6985 42.215 77.1496 42.268L76.2739 42.1487C76.7781 42.2283 77.2558 42.3609 77.7334 42.5466L76.9373 42.215C77.4548 42.4405 77.9324 42.719 78.3703 43.0638L77.6936 42.5466C78.0916 42.8649 78.4632 43.2229 78.7816 43.6341L78.2641 42.9577C78.5826 43.3688 78.8347 43.8065 79.0469 44.2707L78.7152 43.4749C78.7683 43.6076 78.8214 43.7402 78.8612 43.8728L79.1929 41.3131C78.8745 41.8967 78.503 42.467 78.0916 42.9975L78.6091 42.3211C77.9457 43.1699 77.1761 43.9391 76.327 44.6155L77.0037 44.0983C76.1014 44.7879 75.1196 45.3715 74.0847 45.8092L74.8808 45.4776C73.9785 45.8489 73.0365 46.1275 72.0679 46.2999C71.2984 46.4325 70.4625 47.1752 70.091 47.8251C69.6797 48.5413 69.4939 49.589 69.7593 50.3848C70.0247 51.1805 70.5156 51.963 71.2851 52.3609C72.121 52.7985 72.9171 52.8516 73.8459 52.6924L73.8061 52.6527Z" fill="#D9D9D9"/>
<path d="M39.6278 55.7826C40.3841 55.8754 41.1669 55.7826 41.8967 55.6234C42.6264 55.4643 43.3429 55.1725 43.9798 54.8144C45.3066 54.1115 46.3946 52.9842 47.2172 51.7375C48.0398 50.4908 48.4644 48.9921 48.5573 47.4935C48.5971 46.7508 48.5042 45.955 48.3052 45.2388C48.0398 44.2574 47.5223 43.4484 46.8457 42.6924C45.9302 41.6712 44.5105 40.902 43.1704 40.6102C41.764 40.3051 40.1851 40.2786 38.8185 40.8091C37.2396 41.4192 35.8066 42.4272 35.0105 43.9789C34.6921 44.6022 34.4002 45.2919 34.2941 45.9948C34.2145 46.4722 34.1349 46.963 34.1349 47.4537C34.1349 47.9444 34.2145 48.4616 34.2941 48.9656C34.4931 50.3847 35.2096 51.6712 36.1383 52.7455C37.1732 53.9524 38.6991 54.6818 40.2514 54.894C41.8038 55.1062 43.4756 54.7879 44.9218 54.0054C46.169 53.329 47.3897 52.1619 48 50.8754C48.4909 49.8409 48.8757 48.7402 48.7165 47.5863C48.5307 46.207 47.5621 45.2654 46.4874 44.5094C45.4127 43.7534 44.0328 43.4351 42.7856 43.4484C40.1188 43.4749 37.5978 44.8542 36.1251 47.0691C35.7801 47.5996 35.5147 48.2229 35.3555 48.833C35.1963 49.4431 35.1034 50.1327 35.1565 50.7693C35.2096 51.4059 35.2759 52.0425 35.6341 52.5996C35.9924 53.1566 36.4037 53.5014 36.9211 53.8728C37.3059 54.138 37.7703 54.3237 38.2082 54.4696C38.646 54.6155 39.1236 54.6685 39.5748 54.7083C39.7871 54.7348 39.9861 54.7216 40.1851 54.7083C41.1935 54.589 41.963 54.4033 42.8785 53.9126C43.4623 53.5943 44.0328 53.1566 44.484 52.6659C45.5587 51.512 46.3548 49.947 46.2884 48.329C46.2486 47.3741 46.023 46.512 45.5454 45.6765C45.1341 44.9603 44.3645 44.3768 43.5685 44.1513C42.7724 43.9258 41.7109 44.0319 41.0077 44.4829C39.4952 45.4643 38.8981 47.4139 39.8136 49.0187C39.8667 49.1115 39.9197 49.2176 39.9595 49.3104L39.6278 48.5147C39.6942 48.6871 39.734 48.8595 39.7605 49.0452L39.6411 48.1699C39.6544 48.3555 39.6544 48.528 39.6411 48.7004L39.7605 47.825C39.7207 48.0638 39.6676 48.276 39.5748 48.5014L39.9065 47.7057C39.8003 47.9577 39.6544 48.1831 39.4952 48.3953L40.0126 47.7189C39.8269 47.9577 39.6146 48.1699 39.3757 48.3555L40.0524 47.8383C39.8136 48.024 39.5615 48.1699 39.2829 48.3025L40.079 47.9709C39.8269 48.077 39.588 48.1433 39.3227 48.1964L40.1984 48.077C39.9861 48.1035 39.787 48.1035 39.588 48.077L40.4637 48.1964C40.278 48.1699 40.1188 48.1301 39.9463 48.0638L40.7424 48.3953C40.5699 48.3157 40.4106 48.2229 40.2514 48.1168L40.9281 48.634L40.8618 48.581L41.7109 50.0399L41.7109 49.9603L41.8171 50.8356C41.7905 50.5837 41.7773 50.3317 41.8171 50.0664L41.6977 50.9417C41.7375 50.6765 41.8038 50.4112 41.9099 50.1592L41.5782 50.955C41.6977 50.6765 41.8436 50.4245 42.0294 50.1858L41.5119 50.8622C41.7375 50.5837 41.9896 50.3317 42.2682 50.1195L41.5915 50.6367C41.9232 50.3847 42.2815 50.1725 42.6662 50.0134L41.8701 50.3449C42.2814 50.1725 42.706 50.0531 43.1439 50.0001L42.2682 50.1195C42.6264 50.0797 42.9714 50.0664 43.3296 50.1195L42.4539 50.0001C42.7724 50.0399 43.0775 50.1195 43.3827 50.2521L42.5866 49.9205C42.8122 50.0266 43.0245 50.146 43.2235 50.2919L42.5468 49.7746C42.7458 49.9338 42.9316 50.1195 43.0908 50.3184L42.5733 49.642L42.6264 49.7083L42.1753 48.0372C42.1753 48.0372 42.1753 48.1699 42.1488 48.2229L42.2682 47.3476C42.2284 47.6261 42.1488 47.9046 42.0426 48.1699L42.3743 47.3741C42.2416 47.6924 42.0692 47.9842 41.8569 48.2627L42.3743 47.5863C42.1355 47.8913 41.8701 48.1566 41.565 48.3953L42.2416 47.8781C41.9099 48.1301 41.5517 48.3423 41.1669 48.5014L41.963 48.1699C41.6048 48.3157 41.2465 48.4086 40.8618 48.4616L41.7375 48.3423C41.3925 48.3821 41.0475 48.3821 40.7025 48.3423L41.5782 48.4616C41.2598 48.4086 40.9679 48.329 40.6627 48.2096L41.4588 48.5412C41.2067 48.4351 40.9812 48.2892 40.7689 48.1301L41.4456 48.6473C41.1802 48.4484 40.9546 48.2229 40.7556 47.9709L41.2731 48.6473C41.0342 48.3423 40.8485 48.0107 40.6893 47.6526L41.021 48.4484C40.8618 48.0505 40.7556 47.6526 40.7025 47.2415L40.822 48.1168C40.7822 47.7322 40.7822 47.3476 40.822 46.9497L40.7025 47.825C40.7556 47.4669 40.8485 47.1354 40.9812 46.8038L40.6495 47.5996C40.7689 47.3211 40.9148 47.0691 41.1006 46.8303L40.5831 47.5067C40.7689 47.268 40.9812 47.0558 41.22 46.8701L40.5433 47.3874C40.7822 47.215 41.0475 47.0558 41.3129 46.9364L40.5168 47.268C40.875 47.1221 41.2598 47.016 41.6446 46.963L40.7689 47.0823C41.1669 47.0425 41.5517 47.0425 41.9498 47.0823L41.0741 46.963C41.4721 47.016 41.8436 47.1221 42.2151 47.268L41.419 46.9364C41.7507 47.0823 42.0692 47.2547 42.3478 47.4669L41.6711 46.9497C41.9099 47.1354 42.1222 47.3476 42.308 47.573L41.7905 46.8967C41.8967 47.0425 42.0028 47.1884 42.0957 47.3476L41.764 46.5518C41.8967 46.8834 41.9763 47.2282 42.0294 47.573L41.9099 46.6977C41.9497 47.0823 41.9497 47.4537 41.9099 47.8383L42.0294 46.963C41.963 47.4139 41.8436 47.8383 41.6711 48.2494L42.0028 47.4537C41.7905 47.9311 41.5384 48.3821 41.22 48.7932L41.7375 48.1168C41.4323 48.5014 41.0873 48.8463 40.7025 49.138L41.3792 48.6208C41.021 48.886 40.6362 49.1248 40.2249 49.2972L41.021 48.9656C40.6627 49.1115 40.3045 49.2176 39.9197 49.2707L40.7954 49.1513C40.4106 49.2043 40.0259 49.2043 39.6411 49.1513C38.8583 49.0452 37.8234 49.589 37.2927 50.1195C36.7221 50.6898 36.2843 51.6447 36.3241 52.4669C36.3639 53.2892 36.6425 54.2176 37.2927 54.8144L37.9693 55.3317C38.4868 55.6367 39.044 55.7826 39.6411 55.7826L39.6278 55.7826Z" fill="#D9D9D9"/>
<path d="M106.883 15.3582C108.648 15.2388 110.506 15.1327 112.191 14.5492C114.234 13.8462 115.893 12.7057 117.113 10.9152C118.228 9.27065 118.586 7.17516 118.161 5.25208C117.644 2.93113 115.72 1.3794 113.624 0.530598C110.612 -0.689561 106.605 0.252083 104.442 2.66588C103.168 4.08497 102.372 5.87542 102.439 7.81176C102.505 9.7481 103.248 11.4855 104.469 12.9709C105.689 14.4563 107.467 15.2256 109.338 15.4112C111.209 15.5969 112.934 14.7614 114.261 13.5545C115.362 12.5598 116.224 11.0346 116.476 9.56243C116.821 7.46694 116.383 5.50407 114.95 3.8993C113.836 2.65261 111.992 1.98948 110.346 2.06906C108.569 2.1619 107.003 2.81176 105.663 3.96561C104.416 5.03988 103.593 6.87012 103.739 8.51468C103.925 10.6367 104.96 12.2813 106.684 13.4882C107.971 14.3768 109.763 14.7879 111.302 14.7481C112.947 14.7083 114.645 14.2441 115.999 13.276C117.909 11.9099 119.302 10.0001 119.409 7.5863C119.515 5.17251 117.923 2.94439 115.8 2.04253C114.672 1.56508 113.451 1.41919 112.257 1.79054C110.599 2.30779 109.378 4.12476 109.935 5.87542C110.492 7.62609 112.244 8.75341 114.022 8.19638C114.154 8.15659 114.274 8.13007 114.406 8.10354L113.531 8.2229C113.663 8.2229 113.783 8.2229 113.916 8.2229L113.04 8.10354C113.252 8.13007 113.451 8.19638 113.65 8.27596L112.854 7.94439C113.013 8.02397 113.159 8.1168 113.305 8.20964L112.629 7.6924C112.801 7.83829 112.96 7.98418 113.106 8.16985L112.589 7.49346C112.761 7.71893 112.894 7.94439 113 8.19638L112.668 7.40062C112.748 7.61283 112.801 7.82503 112.841 8.06375L112.721 7.18842C112.735 7.3741 112.735 7.54651 112.721 7.73219L112.841 6.85686C112.801 7.13537 112.735 7.41389 112.629 7.67914L112.96 6.88338C112.828 7.18842 112.668 7.46694 112.469 7.74545L112.987 7.06906C112.708 7.41389 112.403 7.71893 112.058 7.98418L112.735 7.46694C112.35 7.75871 111.939 7.99744 111.488 8.18312L112.284 7.85155C111.872 8.02397 111.434 8.13007 110.997 8.19638L111.872 8.07702C111.381 8.13007 110.89 8.13007 110.4 8.07702L111.275 8.19638C110.798 8.13007 110.333 8.0107 109.895 7.82503L110.691 8.15659C110.373 8.0107 110.081 7.83829 109.816 7.63935L110.492 8.15659C110.293 7.99744 110.108 7.81176 109.948 7.61283L110.466 8.28922C110.307 8.07702 110.187 7.86482 110.081 7.62609L110.413 8.42184C110.333 8.20964 110.267 7.98418 110.227 7.75871L110.346 8.63405C110.32 8.42185 110.32 8.22291 110.346 8.0107L110.227 8.88604C110.254 8.64731 110.32 8.43511 110.413 8.2229L110.081 9.01866C110.174 8.80646 110.293 8.62078 110.439 8.43511L109.922 9.1115C110.094 8.8993 110.28 8.71362 110.506 8.55447L109.829 9.07171C110.081 8.88604 110.346 8.72688 110.638 8.59426L109.842 8.92582C110.174 8.7932 110.506 8.6871 110.851 8.63405L109.975 8.75341C110.32 8.71362 110.665 8.70036 111.01 8.75341L110.134 8.63405C110.373 8.67383 110.599 8.72688 110.811 8.81972L110.015 8.48816C110.24 8.581 110.439 8.70036 110.625 8.84625L109.948 8.32901C110.121 8.46163 110.254 8.62078 110.4 8.7932L109.882 8.1168C110.015 8.30248 110.121 8.48816 110.214 8.70036L109.882 7.9046C109.975 8.14333 110.041 8.38206 110.081 8.64731L109.962 7.77198C110.001 8.06375 110.001 8.35553 109.962 8.66057L110.081 7.78524C110.028 8.16985 109.922 8.52795 109.776 8.87277L110.108 8.07702C109.962 8.39532 109.789 8.6871 109.59 8.97887L110.108 8.30248C109.869 8.60752 109.603 8.87277 109.298 9.1115L109.975 8.59426C109.723 8.77993 109.471 8.92582 109.192 9.04519L109.988 8.71362C109.736 8.80646 109.484 8.87277 109.232 8.92582L110.108 8.80646C109.829 8.83298 109.55 8.83298 109.272 8.80646L110.147 8.92582C109.816 8.87277 109.511 8.7932 109.219 8.66057L110.015 8.99214C109.723 8.85951 109.444 8.6871 109.192 8.48816L109.869 9.0054C109.577 8.76667 109.325 8.51468 109.099 8.20964L109.617 8.88604C109.365 8.55447 109.166 8.19638 108.993 7.81176L109.325 8.60752C109.166 8.2229 109.059 7.82503 108.993 7.40062L109.113 8.27596C109.073 7.9046 109.073 7.53325 109.113 7.1619L108.993 8.03723C109.046 7.70566 109.126 7.38736 109.258 7.08232L108.927 7.87808C109.059 7.57304 109.232 7.28126 109.431 7.00275L108.914 7.67914C109.166 7.34757 109.458 7.0558 109.789 6.80381L109.113 7.32105C109.458 7.06906 109.816 6.85686 110.201 6.68444L109.404 7.01601C109.882 6.81707 110.373 6.68444 110.877 6.60487L110.001 6.72423C110.466 6.67118 110.93 6.65792 111.408 6.72423L110.532 6.60487C110.997 6.67118 111.448 6.79054 111.886 6.96296L111.089 6.63139C111.448 6.79054 111.793 6.98948 112.111 7.22821L111.434 6.71097C111.673 6.90991 111.899 7.12211 112.085 7.36084L111.567 6.68444C111.713 6.88338 111.832 7.06906 111.939 7.29452L111.607 6.49877C111.726 6.79054 111.806 7.06906 111.846 7.3741L111.726 6.49877C111.753 6.80381 111.753 7.10885 111.713 7.41389L111.832 6.53855C111.779 6.89665 111.673 7.24147 111.541 7.57304L111.872 6.77728C111.7 7.1619 111.501 7.50672 111.249 7.85155L111.766 7.17516C111.514 7.50672 111.222 7.7985 110.904 8.06375L111.58 7.54651C111.156 7.86482 110.705 8.1168 110.214 8.34227L111.01 8.0107C110.121 8.38206 109.192 8.581 108.25 8.71362L109.126 8.59426C108.396 8.6871 107.653 8.74015 106.923 8.7932C106.034 8.84625 105.212 9.12476 104.575 9.76137C104.004 10.3317 103.566 11.2866 103.606 12.1088C103.686 13.8065 105.066 15.5439 106.923 15.4245L106.883 15.3582Z" fill="#D9D9D9"/>
<path d="M78.1847 16.1408C79.0604 15.8357 79.9228 15.4644 80.6791 14.9073C81.6742 14.1646 82.4172 13.4352 83.147 12.4272C83.6777 11.711 84.0492 10.8622 84.3278 10.0134C84.6065 9.16463 84.7391 8.16993 84.6463 7.25481C84.5401 6.15402 84.3146 5.10627 83.7175 4.15137C83.1602 3.24951 82.4703 2.59964 81.6079 2.00282C80.9843 1.56516 80.2413 1.26012 79.5115 1.06118C78.7818 0.862241 77.999 0.742878 77.2427 0.795928C75.1463 0.915292 73.3684 1.77736 72.1477 3.48824C71.0199 5.06649 71.0863 7.38744 71.6037 9.19115C72.161 11.1275 73.3419 12.8118 75.0402 13.9126C76.0087 14.5492 77.1498 14.8543 78.3041 14.9339C79.4584 15.0134 80.4934 14.6553 81.4885 14.1912C82.2447 13.8331 82.9745 13.276 83.5185 12.6394C84.2084 11.8304 84.8453 10.8755 85.0576 9.8145C85.1637 9.31052 85.2566 8.78001 85.2168 8.26277C85.1505 7.37418 84.9647 6.72431 84.5932 5.91529C84.089 4.8145 83.0806 3.87285 82.0457 3.27603C78.8481 1.40601 74.5493 2.52007 72.2804 5.33174C71.5639 6.22033 71.0863 7.01609 70.7015 8.09036C70.5954 8.36887 70.529 8.64739 70.4892 8.93916C70.4096 9.48293 70.3035 10.0532 70.3565 10.6103C70.5025 12.4007 71.1924 14.1912 72.5988 15.3848C73.7399 16.3662 75.0932 17.0957 76.6058 17.3079C77.4019 17.4272 78.1316 17.5201 78.9277 17.4272C80.0422 17.2946 80.8649 17.0824 81.8865 16.6315C83.2 16.0479 84.4207 14.8941 85.0576 13.6076C86.0925 11.4988 85.5087 9.15137 84.0094 7.45375C81.9927 5.15932 78.0122 4.36357 75.3984 6.07444C74.6023 6.59168 73.8991 7.2946 73.4613 8.14341C73.0632 8.93916 72.8775 9.8145 73.1296 10.7031C73.3419 11.4723 73.9389 12.3079 74.6554 12.6792C76.168 13.475 78.3572 13.1434 79.1931 11.4856C79.2727 11.3397 79.3523 11.2071 79.4452 11.0744L78.9277 11.7508C79.0604 11.5917 79.1931 11.4458 79.3656 11.3264L78.6889 11.8437C78.8481 11.7243 79.0206 11.6315 79.2064 11.5519L78.4103 11.8835C78.6491 11.7906 78.8879 11.7243 79.14 11.6978L78.2643 11.8171C78.5828 11.7774 78.8879 11.7906 79.2064 11.8171L78.3307 11.6978C78.7022 11.7508 79.0737 11.8569 79.4186 12.0028L78.6226 11.6713C78.941 11.8171 79.2462 11.9896 79.5115 12.2018L78.8348 11.6845C79.0339 11.8437 79.2196 12.0294 79.3788 12.2283L78.8614 11.5519C78.9941 11.7376 79.1135 11.9232 79.2064 12.1222L78.8747 11.3264C78.9543 11.5121 79.0073 11.6978 79.0339 11.8967L78.9145 11.0214C78.941 11.2336 78.941 11.4325 78.9145 11.6447L79.0339 10.7694C79.0339 10.849 79.0073 10.9286 78.9941 11.0081L79.3258 10.2124C79.2196 10.4511 79.0869 10.6766 78.9277 10.8755L79.4452 10.1991C79.2594 10.4511 79.0339 10.6633 78.795 10.8622L79.4717 10.345C79.1798 10.5705 78.8614 10.7561 78.5297 10.902L79.3258 10.5705C78.9277 10.7296 78.5164 10.849 78.0786 10.9153L78.9543 10.7959C78.4633 10.8622 77.9592 10.8622 77.4682 10.7959L78.3439 10.9153C77.8795 10.849 77.4284 10.7296 77.0039 10.5572L77.7999 10.8888C77.4284 10.7296 77.0835 10.5439 76.765 10.3052L77.4417 10.8225C77.1763 10.6103 76.9375 10.3848 76.7252 10.1063L77.2427 10.7827C77.0569 10.5307 76.8977 10.2654 76.7783 9.97365L77.11 10.7694C77.0039 10.4909 76.9242 10.2124 76.8844 9.93386L77.0039 10.8092C76.964 10.4776 76.964 10.1593 77.0039 9.82776L76.8844 10.7031C76.9375 10.345 77.0304 10.0002 77.1631 9.66861L76.8314 10.4644C77.0039 10.0665 77.2294 9.69513 77.4948 9.35031L76.9773 10.0267C77.2559 9.68187 77.5611 9.37683 77.9061 9.09832L77.2294 9.61556C77.6009 9.32378 78.0122 9.08505 78.4501 8.88611L77.654 9.21768C78.052 9.04526 78.4633 8.93916 78.9012 8.87285L78.0255 8.99221C78.3572 8.95243 78.6756 8.95243 79.0073 8.99221L78.1316 8.87285C78.4633 8.91264 78.7818 9.00548 79.0869 9.12484L78.2909 8.79328C78.5828 8.9259 78.8481 9.08505 79.1135 9.27073L78.4368 8.75349C78.6491 8.9259 78.8348 9.09832 79.0206 9.31052L78.5031 8.63412C78.6624 8.83306 78.7818 9.032 78.8879 9.27073L78.5562 8.47497C78.6358 8.66065 78.6756 8.84633 78.7154 9.04527L78.596 8.16993C78.6226 8.36887 78.6226 8.55455 78.596 8.74023L78.7154 7.86489C78.6756 8.13015 78.6093 8.36887 78.5031 8.6076L78.8348 7.81184C78.7287 8.06383 78.5828 8.2893 78.4235 8.5015L78.941 7.82511C78.742 8.0771 78.5297 8.2893 78.2909 8.48824L78.9675 7.971C78.6889 8.1832 78.397 8.35561 78.0653 8.5015L78.8614 8.16993C78.596 8.27603 78.3439 8.34235 78.0653 8.3954L78.941 8.27603C78.6624 8.31582 78.397 8.31582 78.1184 8.27603L78.9941 8.3954C78.7154 8.35561 78.4368 8.26277 78.1714 8.15667L78.9675 8.48824C78.6756 8.35561 78.4103 8.19646 78.1449 7.99752L78.8216 8.51476C78.543 8.2893 78.2909 8.03731 78.0786 7.75879L78.596 8.43519C78.3307 8.09036 78.1184 7.70574 77.9326 7.30786L78.2643 8.10362C78.0653 7.62617 77.9193 7.12219 77.853 6.60495L77.9724 7.48028C77.9061 6.96304 77.9061 6.4458 77.9724 5.92855L77.853 6.80389C77.853 6.73757 77.8663 6.67126 77.9061 6.61821L77.5744 7.41397C77.6673 7.20176 77.7734 7.01609 77.9061 6.83041L77.3886 7.5068C77.5213 7.33439 77.6805 7.1885 77.853 7.05588L77.1763 7.57312C77.3754 7.42723 77.5876 7.30786 77.8132 7.21503L77.0171 7.54659C77.2825 7.44049 77.5478 7.37418 77.8265 7.33439L76.9508 7.45375C77.3223 7.4007 77.6938 7.4007 78.0653 7.45375L77.1896 7.33439C77.6009 7.38744 77.999 7.49354 78.3705 7.66596L77.5744 7.33439C77.8663 7.46702 78.1449 7.62617 78.4103 7.81184L77.7336 7.2946C77.9592 7.46702 78.1714 7.66596 78.3439 7.90468L77.8265 7.22829C77.9857 7.44049 78.1184 7.65269 78.2245 7.90468L77.8928 7.10893C78.0122 7.41397 78.0918 7.71901 78.1449 8.05057L78.0255 7.17524C78.0786 7.54659 78.0786 7.91794 78.0255 8.2893L78.1449 7.41397C78.0786 7.86489 77.9592 8.2893 77.7867 8.7137L78.1184 7.91794C77.9193 8.38214 77.6673 8.80654 77.3621 9.20442L77.8795 8.52802C77.5346 8.96569 77.1498 9.35031 76.7252 9.68187L77.4019 9.16463C76.9906 9.46967 76.566 9.73492 76.0884 9.93386L76.8844 9.60229C76.7385 9.66861 76.5925 9.72166 76.4466 9.76145C75.624 10.04 74.9075 10.5174 74.4696 11.2866C74.0583 12.0028 73.8726 13.0506 74.1379 13.8463C74.4033 14.6421 74.8942 15.4246 75.6638 15.8225C76.4333 16.2203 77.3754 16.4458 78.2245 16.154L78.1847 16.1408Z" fill="#D9D9D9"/>
<path d="M8.95205 124.164C11.818 123.674 14.445 122.255 16.6343 120.385C17.7488 119.43 18.7041 118.276 19.5002 117.069C20.2167 115.995 20.8004 114.775 20.3493 113.448C20.0972 112.706 19.7655 111.95 19.3012 111.3C17.51 108.767 14.5379 106.897 11.3403 107.069C9.49604 107.162 7.90387 107.798 6.49745 108.966C5.38294 109.894 4.66646 111.141 4.14901 112.467C3.10083 115.119 3.67135 118.475 5.74117 120.477C8.03655 122.679 11.3403 122.798 14.1133 121.525C15.334 120.968 16.4087 119.974 17.0986 118.82C17.4171 118.289 17.6824 117.653 17.8019 117.042C17.8947 116.578 17.9743 116.088 17.9611 115.61C17.9611 114.509 17.4171 113.714 16.7404 112.931C14.3256 110.146 9.80121 109.708 7.02818 112.175C4.1092 114.761 4.40109 120.199 7.99674 122.056C10.1594 123.17 12.561 122.639 14.392 121.167C15.9709 119.894 16.7935 117.546 16.1035 115.597C15.8116 114.775 15.3473 114.072 14.5777 113.621C13.8612 113.21 12.8131 113.024 12.017 113.289C10.3983 113.806 9.08473 115.61 9.69507 117.374C9.73487 117.493 9.76141 117.6 9.78794 117.719L9.66852 116.844C9.68179 117.003 9.69506 117.149 9.66852 117.294L9.78794 116.419C9.76141 116.605 9.70833 116.79 9.64199 116.963L9.9737 116.167C9.89409 116.34 9.78794 116.512 9.66852 116.658L10.186 115.981C10.0268 116.167 9.86755 116.326 9.66852 116.485L10.3452 115.968C10.1462 116.114 9.93389 116.233 9.70833 116.326L10.5044 115.995C10.3187 116.061 10.1196 116.114 9.92062 116.154L10.7963 116.035C10.5973 116.061 10.4115 116.061 10.2125 116.048L11.0882 116.167C10.8892 116.141 10.7034 116.088 10.5177 116.008L11.3138 116.34C11.1678 116.273 11.0351 116.18 10.9025 116.088L11.5791 116.605C11.4332 116.472 11.3005 116.34 11.1811 116.194L11.6985 116.87C11.5924 116.711 11.4995 116.552 11.4199 116.366L11.7516 117.162C11.6587 116.936 11.6057 116.724 11.5659 116.485L11.6853 117.361C11.6455 117.042 11.6455 116.724 11.6853 116.406L11.5659 117.281C11.6189 117.003 11.6853 116.737 11.7914 116.472L11.4597 117.268C11.5526 117.042 11.672 116.844 11.818 116.645L11.3005 117.321C11.4465 117.135 11.6189 116.963 11.8047 116.817L11.128 117.334C11.3005 117.202 11.4863 117.096 11.6853 117.003L10.8892 117.334C11.1811 117.215 11.4863 117.135 11.8047 117.096L10.929 117.215C11.2474 117.188 11.5659 117.188 11.8843 117.241L11.0086 117.122C11.327 117.175 11.6322 117.268 11.9374 117.387L11.1413 117.056C11.4863 117.202 11.8047 117.387 12.1099 117.613L11.4332 117.096C11.6853 117.308 11.9108 117.52 12.1231 117.785L11.6057 117.109C11.6587 117.188 11.7118 117.255 11.7649 117.334L11.3138 115.663C11.3138 115.809 11.3138 115.955 11.2872 116.101L11.4066 115.225C11.3668 115.477 11.3005 115.703 11.2076 115.942L11.5393 115.146C11.4199 115.411 11.274 115.637 11.1015 115.862L11.6189 115.186C11.4332 115.411 11.2342 115.61 11.0086 115.783L11.6853 115.265C11.3668 115.517 11.0219 115.716 10.6371 115.875L11.4332 115.544C11.0484 115.703 10.6636 115.809 10.2523 115.862L11.128 115.743C10.7565 115.783 10.385 115.796 10.0268 115.743L10.9025 115.862C10.5708 115.822 10.2656 115.743 9.94715 115.623L10.7432 115.955C10.4779 115.836 10.2258 115.703 9.98696 115.517L10.6636 116.035C10.4513 115.862 10.2656 115.676 10.0931 115.464L10.6106 116.141C10.4115 115.889 10.2656 115.623 10.1329 115.332L10.4646 116.127C10.3319 115.796 10.2391 115.464 10.186 115.106L10.3054 115.981C10.2523 115.544 10.2523 115.106 10.3054 114.668L10.186 115.544C10.2523 115.053 10.385 114.589 10.584 114.138L10.2523 114.934C10.4381 114.523 10.6636 114.138 10.9423 113.78L10.4248 114.456C10.6504 114.178 10.9025 113.913 11.1944 113.687L10.5177 114.204C10.8096 113.979 11.1148 113.793 11.4465 113.647L10.6504 113.979C11.0219 113.82 11.4066 113.714 11.818 113.661L10.9423 113.78C11.3934 113.727 11.8445 113.727 12.2956 113.78L11.4199 113.661C11.9241 113.74 12.4017 113.873 12.8794 114.058L12.0833 113.727C12.6008 113.952 13.0784 114.231 13.5163 114.576L12.8396 114.058C13.2376 114.377 13.6091 114.735 13.9276 115.146L13.4101 114.47C13.7286 114.881 13.9807 115.318 14.1929 115.783L13.8612 114.987C13.9143 115.119 13.9674 115.252 14.0072 115.385L14.3389 112.825C14.0205 113.409 13.649 113.979 13.2376 114.509L13.7551 113.833C13.0917 114.682 12.3221 115.451 11.473 116.127L12.1497 115.61C11.2474 116.3 10.2656 116.883 9.23068 117.321L10.0268 116.989C9.12454 117.361 8.1825 117.639 7.21393 117.812C6.44438 117.944 5.6085 118.687 5.23699 119.337C4.82568 120.053 4.63993 121.101 4.90529 121.897C5.17065 122.692 5.66156 123.475 6.43111 123.873C7.267 124.31 8.06308 124.363 8.99185 124.204L8.95205 124.164Z" fill="#D9D9D9"/>
<path d="M13.3439 87.6658C14.2196 87.3607 15.082 86.9894 15.8383 86.4324C16.8334 85.6897 17.5764 84.9602 18.3062 83.9523C18.8369 83.2361 19.2084 82.3873 19.487 81.5385C19.7656 80.6897 19.8983 79.695 19.8054 78.7798C19.6993 77.679 19.4737 76.6313 18.8767 75.6764C18.3194 74.7745 17.6295 74.1247 16.7671 73.5278C16.1435 73.0902 15.4004 72.7851 14.6707 72.5862C13.941 72.3873 13.1581 72.2679 12.4019 72.321C10.3055 72.4403 8.52757 73.3024 7.30691 75.0133C6.17912 76.5915 6.24546 78.9125 6.76292 80.7162C7.32017 82.6525 8.50104 84.3369 10.1994 85.4377C11.1679 86.0743 12.309 86.3793 13.4633 86.4589C14.6176 86.5385 15.6525 86.1804 16.6476 85.7162C17.4039 85.3581 18.1337 84.8011 18.6777 84.1645C19.3676 83.3554 20.0045 82.4005 20.2168 81.3395C20.3229 80.8355 20.4158 80.305 20.376 79.7878C20.3096 78.8992 20.1239 78.2493 19.7524 77.4403C19.2482 76.3395 18.2398 75.3979 17.2049 74.8011C14.0073 72.931 9.70843 74.0451 7.43959 76.8568C6.72311 77.7454 6.24546 78.5411 5.86069 79.6154C5.75454 79.8939 5.68821 80.1724 5.6484 80.4642C5.56879 81.008 5.46265 81.5782 5.51572 82.1353C5.66167 83.9257 6.3516 85.7162 7.75802 86.9098C8.89908 87.8912 10.2524 88.6207 11.765 88.8329C12.5611 88.9523 13.2908 89.0451 14.0869 88.9523C15.2014 88.8196 16.024 88.6074 17.0457 88.1565C18.3592 87.5729 19.5799 86.4191 20.2168 85.1326C21.2517 83.0239 20.6679 80.6764 19.1686 78.9788C17.1518 76.6843 13.1714 75.8886 10.5576 77.5995C9.7615 78.1167 9.05829 78.8196 8.62045 79.6684C8.22241 80.4642 8.03665 81.3395 8.28875 82.2281C8.50104 82.9973 9.0981 83.8329 9.81458 84.2042C11.3271 85 13.5164 84.6684 14.3523 83.0106C14.4319 82.8647 14.5115 82.7321 14.6044 82.5995L14.0869 83.2759C14.2196 83.1167 14.3523 82.9708 14.5248 82.8515L13.8481 83.3687C14.0073 83.2493 14.1798 83.1565 14.3655 83.0769L13.5694 83.4085C13.8083 83.3156 14.0471 83.2493 14.2992 83.2228L13.4235 83.3422C13.7419 83.3024 14.0471 83.3157 14.3655 83.3422L13.4898 83.2228C13.8613 83.2759 14.2329 83.382 14.5778 83.5279L13.7817 83.1963C14.1002 83.3422 14.4053 83.5146 14.6707 83.7268L13.994 83.2096C14.193 83.3687 14.3788 83.5544 14.538 83.7533L14.0206 83.0769C14.1532 83.2626 14.2727 83.4483 14.3655 83.6472L14.0338 82.8515C14.1134 83.0371 14.1665 83.2228 14.193 83.4218L14.0736 82.5464C14.1002 82.7586 14.1002 82.9576 14.0736 83.1698L14.193 82.2944C14.193 82.374 14.1665 82.4536 14.1532 82.5332L14.4849 81.7374C14.3788 81.9761 14.2461 82.2016 14.0869 82.4005L14.6044 81.7241C14.4186 81.9761 14.193 82.1883 13.9542 82.3873L14.6309 81.87C14.339 82.0955 14.0206 82.2812 13.6889 82.4271L14.4849 82.0955C14.0869 82.2546 13.6756 82.374 13.2377 82.4403L14.1134 82.321C13.6225 82.3873 13.1183 82.3873 12.6274 82.321L13.5031 82.4403C13.0387 82.374 12.5876 82.2546 12.163 82.0822L12.9591 82.4138C12.5876 82.2546 12.2426 82.069 11.9242 81.8302L12.6009 82.3475C12.3355 82.1353 12.0967 81.9098 11.8844 81.6313L12.4019 82.3077C12.2161 82.0557 12.0569 81.7905 11.9375 81.4987L12.2692 82.2944C12.163 82.0159 12.0834 81.7374 12.0436 81.4589L12.163 82.3342C12.1232 82.0027 12.1232 81.6843 12.163 81.3528L12.0436 82.2281C12.0967 81.87 12.1896 81.5252 12.3222 81.1936L11.9905 81.9894C12.163 81.5915 12.3886 81.2202 12.6539 80.8753L12.1365 81.5517C12.4151 81.2069 12.7203 80.9019 13.0653 80.6233L12.3886 81.1406C12.7601 80.8488 13.1714 80.6101 13.6093 80.4111L12.8132 80.7427C13.2112 80.5703 13.6225 80.4642 14.0604 80.3979L13.1847 80.5172C13.5164 80.4775 13.8348 80.4775 14.1665 80.5172L13.2908 80.3979C13.6225 80.4377 13.941 80.5305 14.2461 80.6499L13.45 80.3183C13.7419 80.4509 14.0073 80.6101 14.2727 80.7958L13.596 80.2785C13.8083 80.4509 13.994 80.6233 14.1798 80.8355L13.6623 80.1591C13.8215 80.3581 13.941 80.557 14.0471 80.7958L13.7154 80C13.795 80.1857 13.8348 80.3714 13.8746 80.5703L13.7552 79.695C13.7817 79.8939 13.7817 80.0796 13.7552 80.2653L13.8746 79.3899C13.8348 79.6552 13.7685 79.8939 13.6623 80.1326L13.994 79.3369C13.8879 79.5889 13.7419 79.8143 13.5827 80.0265L14.1002 79.3501C13.9012 79.6021 13.6889 79.8143 13.45 80.0133L14.1267 79.496C13.8481 79.7082 13.5562 79.8806 13.2245 80.0265L14.0206 79.695C13.7552 79.8011 13.5031 79.8674 13.2245 79.9204L14.1002 79.8011C13.8215 79.8408 13.5562 79.8408 13.2775 79.8011L14.1532 79.9204C13.8746 79.8806 13.596 79.7878 13.3306 79.6817L14.1267 80.0133C13.8348 79.8806 13.5694 79.7215 13.3041 79.5225L13.9808 80.0398C13.7021 79.8143 13.45 79.5623 13.2377 79.2838L13.7552 79.9602C13.4898 79.6154 13.2775 79.2308 13.0918 78.8329L13.4235 79.6286C13.2245 79.1512 13.0785 78.6472 13.0122 78.13L13.1316 79.0053C13.0653 78.4881 13.0653 77.9708 13.1316 77.4536L13.0122 78.3289C13.0122 78.2626 13.0254 78.1963 13.0653 78.1432L12.7336 78.939C12.8264 78.7268 12.9326 78.5411 13.0653 78.3554L12.5478 79.0318C12.6805 78.8594 12.8397 78.7135 13.0122 78.5809L12.3355 79.0981C12.5345 78.9523 12.7468 78.8329 12.9724 78.7401L12.1763 79.0716C12.4417 78.9655 12.707 78.8992 12.9856 78.8594L12.11 78.9788C12.4815 78.9257 12.853 78.9257 13.2245 78.9788L12.3488 78.8594C12.7601 78.9125 13.1581 79.0186 13.5296 79.191L12.7336 78.8594C13.0254 78.992 13.3041 79.1512 13.5694 79.3369L12.8928 78.8196C13.1183 78.992 13.3306 79.191 13.5031 79.4297L12.9856 78.7533C13.1449 78.9655 13.2776 79.1777 13.3837 79.4297L13.052 78.634C13.1714 78.939 13.251 79.244 13.3041 79.5756L13.1847 78.7003C13.2377 79.0716 13.2377 79.443 13.1847 79.8143L13.3041 78.939C13.2377 79.3899 13.1183 79.8143 12.9458 80.2387L13.2775 79.443C13.0785 79.9072 12.8264 80.3316 12.5213 80.7294L13.0387 80.0531C12.6938 80.4907 12.309 80.8753 11.8844 81.2069L12.5611 80.6897C12.1498 80.9947 11.7252 81.2599 11.2475 81.4589L12.0436 81.1273C11.8977 81.1936 11.7517 81.2467 11.6058 81.2865C10.7831 81.565 10.0667 82.0424 9.62882 82.8117C9.21751 83.5278 9.03176 84.5756 9.29712 85.3714C9.56249 86.1671 10.0534 86.9496 10.823 87.3475C11.5925 87.7454 12.5345 87.9708 13.3837 87.679L13.3439 87.6658Z" fill="#D9D9D9"/>
<path d="M5.83388 54.9869C8.69979 54.4962 11.3269 53.0771 13.5161 51.207C14.6306 50.2521 15.5859 49.0983 16.382 47.8914C17.0985 46.8171 17.6823 45.597 17.2312 44.2707C16.9791 43.528 16.6474 42.772 16.183 42.1222C14.3918 39.589 11.4198 37.719 8.22214 37.8914C6.37788 37.9842 4.78571 38.6208 3.37929 39.7879C2.26477 40.7163 1.54829 41.963 1.03083 43.2893C-0.0173439 45.9418 0.55319 49.2972 2.62301 51.2999C4.91839 53.5015 8.22214 53.6208 10.9952 52.3476C12.2158 51.7906 13.2905 50.7959 13.9805 49.6421C14.2989 49.1116 14.5643 48.4749 14.6837 47.8649C14.7766 47.4007 14.8562 46.91 14.8429 46.4325C14.8429 45.3317 14.2989 44.536 13.6223 43.7535C11.2075 40.9683 6.68304 40.5306 3.91002 42.9975C0.991037 45.5837 1.28293 51.0214 4.87858 52.8781C7.04128 53.9922 9.4428 53.4617 11.2738 51.9895C12.8527 50.7163 13.6753 48.3688 12.9854 46.4192C12.6935 45.597 12.2291 44.894 11.4595 44.4431C10.7431 44.032 9.69489 43.8463 8.89881 44.1115C7.2801 44.6288 5.96656 46.4325 6.57689 48.1964C6.6167 48.3158 6.64323 48.4219 6.66977 48.5413L6.55036 47.6659C6.56363 47.8251 6.5769 47.971 6.55036 48.1169L6.66977 47.2415C6.64323 47.4272 6.59016 47.6129 6.52382 47.7853L6.85552 46.9895C6.77591 47.162 6.66977 47.3344 6.55036 47.4803L7.06782 46.8039C6.9086 46.9895 6.74938 47.1487 6.55036 47.3078L7.22704 46.7906C7.02801 46.9365 6.81572 47.0558 6.59016 47.1487L7.38625 46.8171C7.20049 46.8834 7.00148 46.9365 6.80246 46.9763L7.67815 46.8569C7.47912 46.8834 7.29337 46.8834 7.09435 46.8702L7.97005 46.9895C7.77102 46.963 7.58527 46.91 7.39952 46.8304L8.1956 47.162C8.04965 47.0956 7.91697 47.0028 7.78429 46.91L8.46097 47.4272C8.31502 47.2946 8.18233 47.162 8.06292 47.0161L8.58038 47.6925C8.47423 47.5333 8.38136 47.3742 8.30175 47.1885L8.63345 47.9842C8.54057 47.7588 8.4875 47.5466 8.4477 47.3078L8.5671 48.1832C8.5273 47.8649 8.5273 47.5466 8.5671 47.2283L8.4477 48.1036C8.50077 47.8251 8.56711 47.5598 8.67325 47.2946L8.34155 48.0903C8.43443 47.8649 8.55384 47.6659 8.69979 47.467L8.18233 48.1434C8.32828 47.9577 8.50077 47.7853 8.68652 47.6394L8.00985 48.1566C8.18233 48.024 8.36808 47.9179 8.5671 47.8251L7.77102 48.1566C8.06292 48.0373 8.36809 47.9577 8.68652 47.9179L7.81082 48.0373C8.12926 48.0108 8.44769 48.0108 8.76613 48.0638L7.89044 47.9444C8.20887 47.9975 8.51404 48.0903 8.8192 48.2097L8.02312 47.8781C8.36809 48.024 8.68652 48.2097 8.99168 48.4352L8.31502 47.9179C8.56711 48.1301 8.79267 48.3423 9.00495 48.6076L8.4875 47.9312C8.54057 48.0108 8.59365 48.0771 8.64672 48.1566L8.1956 46.4856C8.1956 46.6314 8.1956 46.7773 8.16907 46.9232L8.28848 46.0479C8.24867 46.2999 8.18233 46.5253 8.08945 46.7641L8.42116 45.9683C8.30174 46.2336 8.1558 46.459 7.98332 46.6845L8.50077 46.0081C8.31502 46.2336 8.116 46.4325 7.89044 46.6049L8.5671 46.0877C8.24867 46.3397 7.9037 46.5386 7.51893 46.6978L8.31502 46.3662C7.93024 46.5253 7.54547 46.6314 7.13416 46.6845L8.00985 46.5651C7.63834 46.6049 7.26683 46.6182 6.90859 46.5651L7.78429 46.6845C7.45259 46.6447 7.14742 46.5651 6.82899 46.4458L7.62507 46.7773C7.35971 46.658 7.10762 46.5253 6.86879 46.3397L7.54547 46.8569C7.33318 46.6845 7.14742 46.4988 6.97494 46.2866L7.49239 46.963C7.29337 46.711 7.14742 46.4458 7.01474 46.154L7.34644 46.9498C7.21376 46.6182 7.12089 46.2866 7.06782 45.9285L7.18722 46.8039C7.13415 46.3662 7.13415 45.9285 7.18722 45.4909L7.06782 46.3662C7.13416 45.8755 7.26684 45.4113 7.46586 44.9604L7.13416 45.7561C7.31991 45.345 7.54547 44.9604 7.8241 44.6023L7.30664 45.2787C7.5322 45.0001 7.78429 44.7349 8.07619 44.5094L7.39952 45.0267C7.69142 44.8012 7.99658 44.6155 8.32828 44.4696L7.5322 44.8012C7.9037 44.6421 8.28848 44.536 8.69979 44.4829L7.8241 44.6023C8.27521 44.5492 8.72632 44.5492 9.17744 44.6023L8.30175 44.4829C8.80593 44.5625 9.28358 44.6951 9.76123 44.8808L8.96515 44.5492C9.48261 44.7747 9.96026 45.0532 10.3981 45.398L9.72143 44.8808C10.1195 45.1991 10.491 45.5572 10.8094 45.9683L10.292 45.2919C10.6104 45.7031 10.8625 46.1407 11.0748 46.6049L10.7431 45.8092C10.7961 45.9418 10.8492 46.0744 10.889 46.207L11.2207 43.6474C10.9023 44.2309 10.5308 44.8012 10.1195 45.3317L10.6369 44.6553C9.97353 45.5041 9.20398 46.2734 8.35482 46.9498L9.0315 46.4325C8.12927 47.1222 7.14742 47.7057 6.11251 48.1434L6.90859 47.8118C6.00637 48.1832 5.06434 48.4617 4.09577 48.6341C3.32622 48.7667 2.49032 49.5094 2.11882 50.1593C1.70751 50.8755 1.52175 51.9232 1.78711 52.719C2.05248 53.5147 2.5434 54.2972 3.31295 54.6951C4.14883 55.1328 4.94492 55.1858 5.87369 55.0267L5.83388 54.9869Z" fill="#D9D9D9"/>
<path d="M10.2257 18.4882C11.1014 18.1831 11.9639 17.8118 12.7201 17.2547C13.7152 16.512 14.4583 15.7826 15.188 14.7746C15.7187 14.0585 16.0902 13.2097 16.3689 12.3608C16.6475 11.512 16.7802 10.5173 16.6873 9.60223C16.5811 8.50143 16.3556 7.45369 15.7585 6.49878C15.2013 5.59692 14.5113 4.94705 13.6489 4.35024C13.0253 3.91257 12.2823 3.60753 11.5525 3.40859C10.8228 3.20965 10.04 3.09029 9.2837 3.14334C7.18734 3.2627 5.40942 4.12477 4.18876 5.83565C3.06097 7.4139 3.12731 9.73485 3.64476 11.5386C4.20202 13.4749 5.38289 15.1593 7.0812 16.2601C8.04977 16.8967 9.19082 17.2017 10.3451 17.2813C11.4995 17.3608 12.5344 17.0028 13.5295 16.5386C14.2858 16.1805 15.0155 15.6234 15.5595 14.9868C16.2494 14.1778 16.8863 13.2229 17.0986 12.1619C17.2047 11.6579 17.2976 11.1274 17.2578 10.6102C17.1915 9.72159 17.0057 9.07172 16.6342 8.2627C16.13 7.16191 15.1217 6.22026 14.0867 5.62345C10.8891 3.75342 6.59028 4.86748 4.32144 7.67915C3.60496 8.56774 3.12731 9.3635 2.74253 10.4378C2.63639 10.7163 2.57005 10.9948 2.53025 11.2866C2.45064 11.8303 2.3445 12.4006 2.39757 12.9577C2.54352 14.7481 3.23345 16.5386 4.63987 17.7322C5.78092 18.7136 7.13427 19.4431 8.64683 19.6553C9.44292 19.7746 10.1727 19.8675 10.9687 19.7746C12.0833 19.642 12.9059 19.4298 13.9275 18.9789C15.2411 18.3953 16.4617 17.2415 17.0986 15.955C18.1335 13.8463 17.5497 11.4988 16.0504 9.80117C14.0337 7.50674 10.0532 6.71098 7.43943 8.42186C6.64335 8.9391 5.94014 9.64201 5.50229 10.4908C5.10425 11.2866 4.9185 12.1619 5.17059 13.0505C5.38288 13.8197 5.97995 14.6553 6.69642 15.0266C8.20898 15.8224 10.3982 15.4908 11.2341 13.833C11.3137 13.6871 11.3933 13.5545 11.4862 13.4219L10.9687 14.0982C11.1014 13.9391 11.2341 13.7932 11.4066 13.6738L10.7299 14.1911C10.8891 14.0717 11.0616 13.9789 11.2474 13.8993L10.4513 14.2309C10.6901 14.138 10.9289 14.0717 11.181 14.0452L10.3053 14.1646C10.6238 14.1248 10.9289 14.138 11.2474 14.1646L10.3717 14.0452C10.7432 14.0982 11.1147 14.2043 11.4597 14.3502L10.6636 14.0187C10.982 14.1646 11.2872 14.337 11.5525 14.5492L10.8759 14.0319C11.0749 14.1911 11.2606 14.3768 11.4199 14.5757L10.9024 13.8993C11.0351 14.085 11.1545 14.2707 11.2474 14.4696L10.9157 13.6738C10.9953 13.8595 11.0483 14.0452 11.0749 14.2441L10.9555 13.3688C10.982 13.581 10.982 13.7799 10.9555 13.9921L11.0749 13.1168C11.0749 13.1964 11.0484 13.276 11.0351 13.3555L11.3668 12.5598C11.2606 12.7985 11.128 13.024 10.9687 13.2229L11.4862 12.5465C11.3004 12.7985 11.0749 13.0107 10.8361 13.2097L11.5127 12.6924C11.2208 12.9179 10.9024 13.1036 10.5707 13.2494L11.3668 12.9179C10.9687 13.077 10.5574 13.1964 10.1196 13.2627L10.9953 13.1433C10.5044 13.2097 10.0002 13.2097 9.50925 13.1433L10.3849 13.2627C9.92057 13.1964 9.46945 13.077 9.04487 12.9046L9.84095 13.2362C9.46945 13.077 9.12448 12.8914 8.80604 12.6526L9.48272 13.1699C9.21736 12.9577 8.97853 12.7322 8.76624 12.4537L9.2837 13.1301C9.09794 12.8781 8.93873 12.6128 8.81932 12.3211L9.15102 13.1168C9.04487 12.8383 8.96527 12.5598 8.92546 12.2813L9.04487 13.1566C9.00507 12.825 9.00507 12.5067 9.04487 12.1752L8.92546 13.0505C8.97853 12.6924 9.07141 12.3476 9.20409 12.016L8.87239 12.8118C9.04487 12.4139 9.27043 12.0425 9.53579 11.6977L9.01834 12.3741C9.29697 12.0293 9.60213 11.7242 9.9471 11.4457L9.27043 11.963C9.64194 11.6712 10.0532 11.4325 10.4911 11.2335L9.69501 11.5651C10.0931 11.3927 10.5044 11.2866 10.9422 11.2203L10.0665 11.3396C10.3982 11.2998 10.7167 11.2998 11.0484 11.3396L10.1727 11.2203C10.5044 11.2601 10.8228 11.3529 11.128 11.4723L10.3319 11.1407C10.6238 11.2733 10.8891 11.4325 11.1545 11.6181L10.4778 11.1009C10.6901 11.2733 10.8759 11.4457 11.0616 11.6579L10.5442 10.9815C10.7034 11.1805 10.8228 11.3794 10.9289 11.6181L10.5972 10.8224C10.6769 11.0081 10.7166 11.1937 10.7565 11.3927L10.637 10.5173C10.6636 10.7163 10.6636 10.902 10.637 11.0876L10.7565 10.2123C10.7166 10.4776 10.6503 10.7163 10.5442 10.955L10.8759 10.1593C10.7697 10.4112 10.6238 10.6367 10.4646 10.8489L10.982 10.1725C10.783 10.4245 10.5707 10.6367 10.3319 10.8356L11.0086 10.3184C10.7299 10.5306 10.438 10.703 10.1063 10.8489L10.9024 10.5173C10.637 10.6234 10.385 10.6898 10.1063 10.7428L10.982 10.6234C10.7034 10.6632 10.438 10.6632 10.1594 10.6234L11.0351 10.7428C10.7565 10.703 10.4778 10.6102 10.2125 10.5041L11.0086 10.8356C10.7167 10.703 10.4513 10.5439 10.1859 10.3449L10.8626 10.8622C10.584 10.6367 10.3319 10.3847 10.1196 10.1062L10.637 10.7826C10.3717 10.4378 10.1594 10.0532 9.97364 9.65528L10.3053 10.451C10.1063 9.97358 9.96037 9.4696 9.89403 8.95236L10.0134 9.82769C9.9471 9.31045 9.9471 8.79321 10.0134 8.27597L9.89403 9.1513C9.89403 9.08499 9.9073 9.01867 9.9471 8.96562L9.6154 9.76138C9.70827 9.54918 9.81442 9.3635 9.9471 9.17782L9.42965 9.85422C9.56233 9.6818 9.72154 9.53591 9.89403 9.40329L9.21736 9.92053C9.41638 9.77464 9.62867 9.65528 9.85422 9.56244L9.05814 9.894C9.3235 9.7879 9.58886 9.72159 9.86749 9.6818L8.9918 9.80117C9.3633 9.74811 9.73481 9.74811 10.1063 9.80117L9.23062 9.6818C9.64193 9.73485 10.04 9.84095 10.4115 10.0134L9.6154 9.6818C9.9073 9.81443 10.1859 9.97358 10.4513 10.1593L9.77462 9.64201C10.0002 9.81443 10.2125 10.0134 10.3849 10.2521L9.86749 9.5757C10.0267 9.7879 10.1594 10.0001 10.2655 10.2521L9.93384 9.45634C10.0533 9.76138 10.1329 10.0664 10.1859 10.398L10.0665 9.52265C10.1196 9.894 10.1196 10.2654 10.0665 10.6367L10.1859 9.76138C10.1196 10.2123 10.0002 10.6367 9.82769 11.0611L10.1594 10.2654C9.96037 10.7295 9.70828 11.154 9.40311 11.5518L9.92057 10.8754C9.5756 11.3131 9.19082 11.6977 8.76624 12.0293L9.44292 11.512C9.03161 11.8171 8.60703 12.0823 8.12938 12.2813L8.92546 11.9497C8.77951 12.016 8.63356 12.0691 8.48761 12.1089C7.66499 12.3874 6.94852 12.8648 6.51067 13.6341C6.09936 14.3502 5.91361 15.398 6.17897 16.1937C6.44433 16.9895 6.93525 17.772 7.7048 18.1699C8.47435 18.5677 9.41638 18.7932 10.2655 18.5014L10.2257 18.4882Z" fill="#D9D9D9"/>
<path d="M45.6516 17.5198C48.7165 16.5517 50.6138 13.6604 50.6669 10.4907C50.6934 9.11136 50.3086 7.58616 49.5258 6.44558C49.0216 5.71613 48.3848 4.97343 47.602 4.53576C46.2752 3.76653 44.9749 4.16441 43.6879 4.69491C40.9281 5.8355 37.8367 7.73205 37.1998 10.9018C36.4966 14.3501 38.6991 17.8249 42.2284 18.4217C45.0545 18.8992 47.8673 18.3023 50.4546 17.1352C52.206 16.3395 53.7053 14.9734 54.3819 13.1432C55.2576 10.7824 53.9176 8.3156 51.8477 7.14849C48.4379 5.22542 44.0063 5.03974 40.9281 7.66574C38.1949 9.99995 37.4121 14.801 40.2249 17.4005C41.7905 18.8461 43.8073 19.3236 45.8771 18.9787C47.7346 18.6737 49.5391 17.1883 50.03 15.3315C50.6404 13.0371 48.7563 10.5305 46.7395 9.61534C44.7228 8.70022 42.4937 8.59412 40.6362 9.81428C39.19 10.7692 38.4337 12.7851 39.4421 14.3501C40.3709 15.7957 42.4274 16.5649 43.9798 15.5437C44.1257 15.4509 44.2584 15.3713 44.4176 15.305L43.6215 15.6366C43.8604 15.5437 44.0859 15.4774 44.338 15.4509L43.4623 15.5702C43.7144 15.5437 43.9532 15.5437 44.2053 15.5702L43.3296 15.4509C43.6215 15.4907 43.9002 15.5702 44.1788 15.6763L43.3827 15.3448C43.6613 15.4641 43.9002 15.61 44.139 15.7824L43.4623 15.2652C43.6613 15.4244 43.8338 15.5968 43.993 15.7957L43.4756 15.1193C43.595 15.2917 43.7011 15.4641 43.794 15.6498L43.4623 14.8541C43.5287 15.0132 43.5817 15.1591 43.6215 15.3315L43.6215 13.5676L43.5817 13.6737L43.9134 12.8779C43.8471 13.0106 43.7808 13.1299 43.6879 13.2626L44.2053 12.5862C44.0992 12.732 43.9665 12.8514 43.8338 12.9575L44.5105 12.4403C44.3646 12.5464 44.2186 12.6392 44.0461 12.7055L44.8422 12.374C44.6034 12.4668 44.3645 12.5331 44.0992 12.5729L44.9749 12.4535C44.7095 12.4801 44.4442 12.4801 44.1788 12.4535L45.0545 12.5729C44.7493 12.5331 44.4574 12.4535 44.1788 12.3342L44.9749 12.6657C44.7626 12.5729 44.5768 12.4535 44.3911 12.3209L45.0678 12.8381C44.9218 12.7188 44.7891 12.5862 44.6697 12.4535L45.1872 13.1299C45.028 12.931 44.9218 12.7188 44.8157 12.4933L45.1474 13.2891C45.0678 13.0636 45.0147 12.8514 44.9749 12.6259L45.0943 13.5013C45.0678 13.2228 45.0545 12.9575 45.0943 12.679L44.9749 13.5543C45.028 13.183 45.1208 12.8249 45.2668 12.4801L44.9351 13.2758C45.0943 12.9177 45.2933 12.5994 45.5189 12.2944L45.0014 12.9708C45.2137 12.7055 45.4525 12.4801 45.7179 12.2679L45.0412 12.7851C45.3199 12.5729 45.6118 12.4005 45.9302 12.2546L45.1341 12.5862C45.5852 12.4005 46.0363 12.2811 46.514 12.2148L45.6383 12.3342C46.1823 12.2811 46.713 12.2811 47.257 12.3474L46.3813 12.2281C47.111 12.3342 47.8143 12.5331 48.4909 12.8116L47.6948 12.4801C48.1061 12.6657 48.5042 12.8514 48.8757 13.1167L48.199 12.5994C48.3715 12.732 48.5175 12.8647 48.6501 13.0371L48.1327 12.3607C48.199 12.4403 48.2521 12.5331 48.2919 12.6259L47.9602 11.8302C48.0133 11.9628 48.0531 12.0822 48.0929 12.2281L47.9735 11.3527C47.9867 11.4854 48 11.6047 47.9735 11.7374L48.0929 10.862C48.0663 11.0344 48.0265 11.1936 47.9602 11.366L48.2919 10.5702C48.2123 10.7427 48.1194 10.8885 48 11.0477L48.5175 10.3713C48.2919 10.6498 48.0398 10.8885 47.7612 11.114L48.4379 10.5968C47.9735 10.9416 47.4693 11.2201 46.9386 11.4456L47.7346 11.114C46.6997 11.5384 45.625 11.8435 44.5105 12.0026L45.3862 11.8832C44.6963 11.9761 44.0063 12.0026 43.3164 11.923L44.1921 12.0424C43.7675 11.9893 43.3562 11.8832 42.9449 11.7108L43.7409 12.0424C43.5021 11.9363 43.2898 11.8037 43.0775 11.6578L43.7542 12.175C43.5817 12.0424 43.4358 11.8832 43.2898 11.7108L43.8073 12.3872C43.6481 12.175 43.5154 11.9496 43.4092 11.6976L43.7409 12.4933C43.6481 12.2413 43.5817 12.0026 43.5419 11.7374L43.6613 12.6127C43.6348 12.3607 43.6348 12.122 43.6613 11.87L43.5419 12.7453C43.5817 12.5066 43.6481 12.2679 43.7277 12.0424L43.396 12.8381C43.5287 12.5198 43.7011 12.2413 43.9002 11.9761L43.3827 12.6525C43.7011 12.2546 44.0594 11.9098 44.4442 11.6047L43.7675 12.122C44.5105 11.5517 45.3331 11.1007 46.1955 10.7294L45.3995 11.061C45.8373 10.8753 46.2884 10.7029 46.7528 10.557L44.1921 10.2254L44.2849 10.2917L43.6083 9.77449C43.8206 9.9469 44.0063 10.1326 44.1788 10.3448L43.6613 9.66839C43.8471 9.90711 43.993 10.1724 44.1125 10.4509L43.7808 9.65513C43.9134 9.97343 43.993 10.305 44.0461 10.6366L43.9267 9.76123C43.9798 10.1856 43.9798 10.61 43.9267 11.0344L44.0461 10.1591C43.993 10.5437 43.8869 10.9151 43.7409 11.2732L44.0727 10.4774C43.9267 10.8355 43.7277 11.1538 43.5021 11.4721L44.0196 10.7957C43.8338 11.0344 43.6215 11.2466 43.3827 11.4323L44.0594 10.9151C43.8471 11.0742 43.6215 11.2068 43.3694 11.3129L44.1655 10.9814C44.0594 11.0212 43.9532 11.061 43.8338 11.1007C42.1886 11.618 40.9547 13.435 41.5119 15.1856C42.0426 16.8435 43.8206 18.0636 45.5985 17.5066L45.6516 17.5198Z" fill="#D9D9D9"/>
</g>
<defs>
<clipPath id="clip0_1_249">
<rect width="125" height="122" fill="white" transform="translate(122.5) rotate(90)"/>
</clipPath>
</defs>
</svg>
