<svg width="60" height="60" viewBox="0 0 60 60" fill="none" xmlns="http://www.w3.org/2000/svg">
<path d="M34.9071 25.36L29.5871 37H26.3071L31.6071 25.56H24.9471V22.92H34.9071V25.36Z" fill="black"/>
<path d="M2 30C2 36.5157 4.27236 42.8274 8.42563 47.8479C12.5789 52.8683 18.353 56.2831 24.7533 57.504C31.1536 58.725 37.7793 57.6756 43.4891 54.5366C49.1989 51.3976 53.6351 46.3656 56.0337 40.3075C58.4323 34.2493 58.643 27.5443 56.6296 21.3475C54.6161 15.1507 50.5045 9.85011 45.0032 6.35882C39.5018 2.86753 32.955 1.40415 26.4907 2.22079C20.0263 3.03742 14.0492 6.08293 9.58888 10.8327" stroke="#4DA10B" stroke-width="4"/>
</svg>
