<svg width="60" height="60" viewBox="0 0 60 60" fill="none" xmlns="http://www.w3.org/2000/svg">
<path d="M30.103 34.62C31.443 34.62 32.363 33.7 32.363 32.34C32.363 30.96 31.323 30.12 30.123 30.12C29.183 30.12 28.403 30.5 27.923 31.26H24.923L25.603 22.92H34.603V25.56H28.163L27.863 28.94C28.483 28.22 29.523 27.7 30.883 27.7C33.223 27.7 35.423 29.26 35.423 32.28C35.423 35.42 33.083 37.24 30.163 37.24C27.163 37.24 25.083 35.46 24.823 33.1H27.843C28.023 33.82 28.783 34.62 30.103 34.62Z" fill="black"/>
<path d="M2 30C2 34.4187 3.04577 38.7747 5.05182 42.7117C7.05786 46.6488 9.96722 50.0552 13.542 52.6525C17.1168 55.2497 21.2555 56.964 25.6198 57.6553C29.9841 58.3465 34.4501 57.995 38.6525 56.6296C42.8549 55.2641 46.6745 52.9235 49.799 49.799C52.9235 46.6745 55.2641 42.8549 56.6296 38.6525C57.995 34.45 58.3465 29.9841 57.6553 25.6198C56.964 21.2555 55.2497 17.1168 52.6525 13.542" stroke="#4DA10B" stroke-width="4"/>
</svg>
