<svg width="60" height="60" viewBox="0 0 60 60" fill="none" xmlns="http://www.w3.org/2000/svg">
<path d="M31.0161 27.74C33.3561 27.74 35.5961 29.44 35.5961 32.26C35.5961 35.16 33.4761 37.24 30.3961 37.24C26.6361 37.24 24.4961 34.4 24.4961 30.08C24.4961 25.08 26.9961 22.68 30.3561 22.68C33.2161 22.68 35.0761 24.46 35.3561 26.56H32.3761C32.1961 25.94 31.5361 25.28 30.3561 25.28C28.7361 25.28 27.5561 26.44 27.4361 29.52C28.2161 28.26 29.5961 27.74 31.0161 27.74ZM27.9761 32.38C27.9761 33.68 28.9961 34.62 30.2961 34.62C31.5961 34.62 32.5361 33.68 32.5361 32.38C32.5361 31.06 31.5361 30.16 30.2561 30.16C29.0161 30.16 27.9761 31.02 27.9761 32.38Z" fill="black"/>
<path d="M2 30C2 35.3133 3.5118 40.517 6.35882 45.0032C9.20584 49.4893 13.2705 53.0729 18.0782 55.3352C22.8858 57.5975 28.2379 58.4451 33.5093 57.7792C38.7808 57.1133 43.7539 54.9612 47.8479 51.5744C51.9419 48.1875 54.9877 43.7057 56.6296 38.6525C58.2715 33.5992 58.4417 28.1831 57.1203 23.0367C55.799 17.8903 53.0406 13.2261 49.1673 9.58888C45.2941 5.95166 40.4659 3.49157 35.2467 2.49596" stroke="#4DA10B" stroke-width="4"/>
</svg>
