<svg width="60" height="60" viewBox="0 0 60 60" fill="none" xmlns="http://www.w3.org/2000/svg">
<path d="M31.93 27.06C31.93 26.04 31.13 25.32 29.97 25.32C28.73 25.32 27.99 26.02 27.81 27.02H24.87C25.09 24.54 26.99 22.68 30.03 22.68C33.15 22.68 34.99 24.58 34.99 26.96C34.99 28.94 33.87 30.18 32.47 31.4L29.07 34.36H35.23V37H24.97V34.52L30.29 29.72C31.31 28.8 31.93 28.1 31.93 27.06Z" fill="black"/>
<path d="M2 30C2 37.1217 4.71373 43.9758 9.58888 49.1673C14.464 54.3588 21.1342 57.4976 28.2419 57.9447" stroke="#4DA10B" stroke-width="4"/>
</svg>
