<svg width="60" height="60" viewBox="0 0 60 60" fill="none" xmlns="http://www.w3.org/2000/svg">
<path d="M24.7714 26.82C25.0514 24.2 27.2914 22.68 29.9714 22.68C32.9714 22.68 34.8714 24.38 34.8714 26.58C34.8714 28.26 33.7714 29.22 32.8114 29.6C33.8914 29.9 35.3714 30.9 35.3714 33C35.3714 35.46 33.2114 37.24 30.0914 37.24C27.1314 37.24 24.8514 35.64 24.6314 32.96H27.5914C27.8114 33.92 28.6914 34.62 30.0914 34.62C31.3314 34.62 32.3114 33.94 32.3114 32.8C32.3114 31.62 31.2914 31.08 29.9714 31.08H28.4114V28.56H29.7314C31.0514 28.56 31.8314 27.88 31.8314 26.9C31.8314 25.94 31.0714 25.3 29.8714 25.3C28.6514 25.3 27.9114 25.96 27.7314 26.82H24.7714Z" fill="black"/>
<path d="M2 30C2 35.3133 3.5118 40.517 6.35882 45.0032C9.20584 49.4893 13.2705 53.0729 18.0782 55.3352C22.8858 57.5975 28.2379 58.4451 33.5093 57.7792C38.7808 57.1133 43.7539 54.9612 47.8479 51.5744" stroke="#4DA10B" stroke-width="4"/>
</svg>
