<svg width="60" height="60" viewBox="0 0 60 60" fill="none" xmlns="http://www.w3.org/2000/svg">
<rect x="8" y="8" width="44" height="44" rx="22" fill="#4DA10B"/>
<path d="M24.5254 33.08C24.5254 31.18 25.8454 30.04 27.0454 29.68C25.9854 29.22 24.9054 28.28 24.9054 26.58C24.9054 24.46 26.8054 22.68 30.0054 22.68C33.1654 22.68 35.0854 24.46 35.0854 26.58C35.0854 28.28 34.0054 29.22 32.9454 29.68C34.1454 30.04 35.4654 31.18 35.4654 33.08C35.4654 35.48 33.2654 37.24 30.0054 37.24C26.7254 37.24 24.5254 35.48 24.5254 33.08ZM27.6254 32.84C27.6254 33.94 28.5654 34.74 30.0054 34.74C31.4254 34.74 32.3654 33.94 32.3654 32.84C32.3654 31.7 31.4054 30.9 30.0054 30.9C28.5854 30.9 27.6254 31.7 27.6254 32.84ZM27.9254 26.92C27.9254 27.92 28.8454 28.66 30.0054 28.66C31.1454 28.66 32.0654 27.92 32.0654 26.92C32.0654 25.88 31.2254 25.18 30.0054 25.18C28.7654 25.18 27.9254 25.88 27.9254 26.92Z" fill="white"/>
<path d="M2 30C2 33.677 2.72424 37.318 4.13137 40.7151C5.53851 44.1123 7.60097 47.1989 10.201 49.799C12.8011 52.399 15.8877 54.4615 19.2849 55.8686C22.682 57.2758 26.323 58 30 58C33.677 58 37.318 57.2758 40.7151 55.8686C44.1123 54.4615 47.199 52.399 49.799 49.799C52.399 47.1989 54.4615 44.1123 55.8686 40.7151C57.2758 37.318 58 33.677 58 30C58 26.323 57.2758 22.682 55.8686 19.2849C54.4615 15.8877 52.399 12.801 49.799 10.201C47.1989 7.60097 44.1122 5.5385 40.7151 4.13137C37.318 2.72424 33.677 2 30 2C26.323 2 22.682 2.72424 19.2849 4.13137C15.8877 5.53851 12.801 7.60097 10.201 10.201C7.60097 12.8011 5.5385 15.8878 4.13137 19.2849C2.72424 22.682 2 26.323 2 30L2 30Z" stroke="#4DA10B" stroke-width="4"/>
</svg>
