<svg width="52" height="52" viewBox="0 0 52 52" fill="none" xmlns="http://www.w3.org/2000/svg">
<mask id="mask0_601_2199" style="mask-type:alpha" maskUnits="userSpaceOnUse" x="0" y="0" width="52" height="52">
<rect width="52" height="52" fill="#D9D9D9"/>
</mask>
<g mask="url(#mask0_601_2199)">
<path d="M27.0833 49.8333C26.1805 49.8333 25.4131 49.5264 24.7812 48.9125C24.1492 48.2986 23.8333 47.5403 23.8333 46.6375C23.8333 46.2042 23.9145 45.7889 24.077 45.3917C24.2395 44.9945 24.4833 44.6514 24.8083 44.3625L27.0833 42.25L29.3583 44.3625C29.6833 44.6514 29.927 44.9945 30.0895 45.3917C30.252 45.7889 30.3333 46.2042 30.3333 46.6375C30.3333 47.5403 30.0173 48.2986 29.3853 48.9125C28.7534 49.5264 27.986 49.8333 27.0833 49.8333ZM19.6083 46.5833L17.3333 44.3083L23.7249 37.9167L25.9999 40.1917L19.6083 46.5833ZM33.5833 43.3333L30.3333 40.0833L33.5833 36.8333L36.8333 40.0833L33.5833 43.3333ZM14.0833 43.3333L10.8333 40.0833L14.0833 36.8333L17.3333 40.0833L14.0833 43.3333ZM16.2499 34.6667C12.9638 34.6667 10.1562 33.5021 7.827 31.1729C5.49784 28.8438 4.33325 26.0361 4.33325 22.75C4.33325 19.7528 5.32631 17.1347 7.31242 14.8958C9.29853 12.657 11.7541 11.3389 14.6791 10.9417C15.8346 8.88334 17.4145 7.26737 19.4187 6.09376C21.4228 4.92015 23.6166 4.33334 25.9999 4.33334C29.2499 4.33334 32.0756 5.37154 34.477 7.44793C36.8784 9.52432 38.3319 12.1153 38.8374 15.2208C41.3291 15.4375 43.4235 16.4667 45.1208 18.3083C46.818 20.15 47.6666 22.3528 47.6666 24.9167C47.6666 27.625 46.7187 29.9271 44.8228 31.8229C42.927 33.7188 40.6249 34.6667 37.9166 34.6667H16.2499Z" fill="#4DA10B"/>
</g>
</svg>
