<svg width="53" height="52" viewBox="0 0 53 52" fill="none" xmlns="http://www.w3.org/2000/svg">
<mask id="mask0_601_2204" style="mask-type:alpha" maskUnits="userSpaceOnUse" x="0" y="0" width="53" height="52">
<rect x="0.800049" width="52" height="52" fill="#D9D9D9"/>
</mask>
<g mask="url(#mask0_601_2204)">
<path d="M33.3001 43.3333C28.4612 43.3333 24.3626 41.6542 21.0043 38.2958C17.646 34.9375 15.9668 30.8389 15.9668 26C15.9668 21.1972 17.646 17.1076 21.0043 13.7312C24.3626 10.3549 28.4612 8.66666 33.3001 8.66666C38.1029 8.66666 42.1925 10.3549 45.5689 13.7312C48.9453 17.1076 50.6335 21.1972 50.6335 26C50.6335 30.8389 48.9453 34.9375 45.5689 38.2958C42.1925 41.6542 38.1029 43.3333 33.3001 43.3333ZM38.2293 34.0708L41.3168 30.9833L35.4668 25.1333V17.3333H31.1335V26.9208L38.2293 34.0708ZM5.13346 19.5V15.1667H13.8001V19.5H5.13346ZM2.9668 28.1667V23.8333H13.8001V28.1667H2.9668ZM5.13346 36.8333V32.5H13.8001V36.8333H5.13346Z" fill="#4DA10B"/>
</g>
</svg>
