<svg width="53" height="52" viewBox="0 0 53 52" fill="none" xmlns="http://www.w3.org/2000/svg">
<mask id="mask0_601_3382" style="mask-type:alpha" maskUnits="userSpaceOnUse" x="0" y="0" width="53" height="52">
<rect x="0.399902" width="52" height="52" fill="#D9D9D9"/>
</mask>
<g mask="url(#mask0_601_3382)">
<path d="M26.4 47.6667C23.4028 47.6667 20.8479 46.6104 18.7354 44.4979C16.6229 42.3854 15.5667 39.8306 15.5667 36.8333C15.5667 35.1 15.9458 33.484 16.7042 31.9854C17.4625 30.4868 18.5278 29.2139 19.9 28.1667V10.8333C19.9 9.02779 20.5319 7.49307 21.7958 6.22918C23.0597 4.96529 24.5944 4.33334 26.4 4.33334C28.2055 4.33334 29.7403 4.96529 31.0041 6.22918C32.268 7.49307 32.9 9.02779 32.9 10.8333V28.1667C34.2722 29.2139 35.3375 30.4868 36.0958 31.9854C36.8541 33.484 37.2333 35.1 37.2333 36.8333C37.2333 39.8306 36.1771 42.3854 34.0646 44.4979C31.9521 46.6104 29.3972 47.6667 26.4 47.6667ZM24.2333 23.8333H28.5666V21.6667H26.4V19.5H28.5666V15.1667H26.4V13H28.5666V10.8333C28.5666 10.2195 28.359 9.70487 27.9437 9.28959C27.5285 8.87432 27.0139 8.66668 26.4 8.66668C25.7861 8.66668 25.2715 8.87432 24.8562 9.28959C24.441 9.70487 24.2333 10.2195 24.2333 10.8333V23.8333Z" fill="#4DA10B"/>
</g>
</svg>
