<svg width="53" height="52" viewBox="0 0 53 52" fill="none" xmlns="http://www.w3.org/2000/svg">
<mask id="mask0_601_1108" style="mask-type:alpha" maskUnits="userSpaceOnUse" x="0" y="0" width="53" height="52">
<rect x="0.200073" width="52" height="52" fill="#D9D9D9"/>
</mask>
<g mask="url(#mask0_601_1108)">
<path d="M6.70007 28.1667V23.8333H11.0334V28.1667H6.70007ZM6.70007 19.5V15.1667H11.0334V19.5H6.70007ZM6.70007 10.8333V6.5H11.0334V10.8333H6.70007ZM15.3667 10.8333V6.5H19.7001V10.8333H15.3667ZM24.0334 45.5V41.1667H28.3667V45.5H24.0334ZM24.0334 10.8333V6.5H28.3667V10.8333H24.0334ZM32.7001 45.5V41.1667H37.0334V45.5H32.7001ZM41.3667 45.5V41.1667H45.7001V45.5H41.3667ZM41.3667 36.8333V32.5H45.7001V36.8333H41.3667ZM41.3667 28.1667V23.8333H45.7001V28.1667H41.3667ZM41.3667 19.5V10.8333H32.7001V6.5H45.7001V19.5H41.3667ZM6.70007 45.5V32.5H11.0334V41.1667H19.7001V45.5H6.70007Z" fill="#4DA10B"/>
</g>
</svg>
