<svg width="53" height="52" viewBox="0 0 53 52" fill="none" xmlns="http://www.w3.org/2000/svg">
<mask id="mask0_601_2534" style="mask-type:alpha" maskUnits="userSpaceOnUse" x="0" y="0" width="53" height="52">
<rect x="0.600098" width="52" height="52" fill="#D9D9D9"/>
</mask>
<g mask="url(#mask0_601_2534)">
<path d="M24.4335 47.6667V38.675L17.3918 45.6083L14.3585 42.575L24.4335 32.5V28.1667H20.1001L10.0251 38.2417L6.99181 35.2083L13.9251 28.1667H4.93347V23.8333H13.9251L6.99181 16.7917L10.0251 13.7583L20.1001 23.8333H24.4335V19.5L14.3585 9.42501L17.3918 6.39168L24.4335 13.325V4.33334H28.7668V13.325L35.8085 6.39168L38.8418 9.42501L28.7668 19.5V23.8333H33.1001L43.1751 13.7583L46.2085 16.7917L39.2751 23.8333H48.2668V28.1667H39.2751L46.2085 35.2083L43.1751 38.2417L33.1001 28.1667H28.7668V32.5L38.8418 42.575L35.8085 45.6083L28.7668 38.675V47.6667H24.4335Z" fill="#4DA10B"/>
</g>
</svg>
