<?xml version="1.0" encoding="utf-8"?><svg xmlns="http://www.w3.org/2000/svg" xmlns:xlink="http://www.w3.org/1999/xlink"><symbol viewBox="0 0 11 6" id="dropdown-arrow" xmlns="http://www.w3.org/2000/svg">
    <path d="M5.16161 5.22801L0.944292 1.351C0.608846 1.04263 0.827028 0.48291 1.28268 0.48291H9.71732C10.173 0.48291 10.3912 1.04262 10.0557 1.351L5.83839 5.22801C5.64708 5.40388 5.35292 5.40388 5.16161 5.22801Z"/>
</symbol><symbol viewBox="0 0 24 18" id="mail" xmlns="http://www.w3.org/2000/svg">
    <path d="M22.7903 0.00789705C22.6881 -0.00263235 22.5851 -0.00263235 22.4829 0.00789705H1.49205C1.35752 0.00997 1.22388 0.0301424 1.09473 0.0678709L11.9275 10.8557L22.7903 0.00789705Z"/>
    <path d="M23.8996 1.0498L12.9843 11.9201C12.7034 12.1993 12.3234 12.3561 11.9273 12.3561C11.5312 12.3561 11.1512 12.1993 10.8703 11.9201L0.0524772 1.13227C0.0192212 1.2545 0.00158832 1.38044 0 1.50711V16.5006C0 16.8982 0.157967 17.2796 0.439149 17.5608C0.720331 17.842 1.1017 17.9999 1.49935 17.9999H22.4902C22.8879 17.9999 23.2692 17.842 23.5504 17.5608C23.8316 17.2796 23.9896 16.8982 23.9896 16.5006V1.50711C23.9836 1.35091 23.9532 1.19662 23.8996 1.0498ZM2.5264 16.5006H1.48435V15.4285L6.93448 10.0234L7.99152 11.0804L2.5264 16.5006ZM22.4752 16.5006H21.4257L15.9606 11.0804L17.0176 10.0234L22.4677 15.4285L22.4752 16.5006Z"/>
</symbol><symbol viewBox="0 0 18 18" id="phone" xmlns="http://www.w3.org/2000/svg">
    <path d="M12.5568 11.5476L12.1018 12.0273C12.1018 12.0273 11.0188 13.1666 8.0638 10.0557C5.10882 6.94486 6.19181 5.80555 6.19181 5.80555L6.47781 5.50273C7.18481 4.75943 7.25181 3.56507 6.63481 2.69259L5.37482 0.910574C4.61083 -0.169435 3.13584 -0.312377 2.26084 0.608807L0.690852 2.26059C0.257854 2.718 -0.0321438 3.30883 0.00285598 3.9653C0.0928554 5.64567 0.810851 9.25947 4.81482 13.4757C9.0618 17.9461 13.0468 18.124 14.6758 17.9631C15.1918 17.9122 15.6398 17.6348 16.0007 17.2536L17.4207 15.7586C18.3807 14.7495 18.1107 13.0183 16.8827 12.3121L14.9728 11.212C14.1668 10.7492 13.1868 10.8848 12.5568 11.5476Z"/>
</symbol><symbol viewBox="0 0 19 18" id="rate-star" xmlns="http://www.w3.org/2000/svg">
    <path d="M4.85028 16.2116L6.00589 11.2158L6.07373 10.9225L5.84628 10.7253L1.97002 7.36473L7.09324 6.92L7.3933 6.89395L7.51056 6.61652L9.5 1.90936L11.4894 6.61652L11.6067 6.89395L11.9068 6.92L17.03 7.36473L13.1537 10.7253L12.9263 10.9225L12.9941 11.2158L14.1497 16.2116L9.75827 13.5625L9.5 13.4067L9.24173 13.5625L4.85028 16.2116Z" stroke-opacity="0.5"/>
</symbol><symbol viewBox="0 0 19 16" id="reviews-arrow" xmlns="http://www.w3.org/2000/svg">
    <path d="M10.5 15L17.2167 8.73106C17.6403 8.33572 17.6403 7.66428 17.2167 7.26894L10.5 1" stroke-width="1.5"/>
    <path d="M17.5 8L0.5 8" stroke-width="1.5"/>
</symbol><symbol viewBox="0 0 84 84" id="search-order" xmlns="http://www.w3.org/2000/svg">
    <path d="M57.5274 20.6843C55.1787 18.6119 52.9682 17.5066 49.7906 17.6448C49.6525 17.6448 49.5143 17.6448 49.3761 17.6448C47.9945 17.0922 46.7511 16.6777 46.0603 16.8158C44.9551 17.0922 44.1261 17.6448 43.4353 18.3356V18.1974C42.7446 16.5395 40.9485 17.2303 40.2577 18.4737C39.9814 18.6119 39.8432 18.8882 39.7051 19.1645C38.4616 19.1645 37.2182 19.1645 35.8367 19.579C35.1459 19.7172 34.4551 20.5461 34.4551 21.375C34.7314 24.5527 35.5603 27.5922 36.5274 30.6316C37.0801 32.4277 37.2182 34.2237 38.5998 35.4672C38.5998 35.8816 38.5998 40.0264 36.2511 42.9277C35.4222 43.8948 37.3564 46.2435 37.909 46.6579C38.4617 47.0724 39.1524 47.3487 39.7051 47.4869C40.534 49.6974 43.159 50.5264 46.1985 49.5593C46.8893 49.4211 47.4419 49.1448 48.1327 48.7303L48.2709 48.8685C48.9617 49.5593 50.3432 49.6974 50.8959 48.8685C51.7248 47.9014 52.2774 46.9343 53.7972 46.7961C54.9024 46.7961 56.5603 44.1711 56.1458 43.0658C54.9024 40.0264 53.7972 38.3685 53.659 35.1908C54.488 34.3619 55.0406 33.5329 54.9024 32.2895C54.9024 32.1514 54.9024 32.1514 54.9024 32.0132C55.0406 31.7369 55.1788 31.5987 55.3169 31.3224C56.284 29.6645 57.2511 26.4869 56.4222 24.2764C56.9748 24.1382 57.3893 23.8619 57.8038 23.4474C58.2182 22.6185 58.3564 21.375 57.5274 20.6843Z"/>
    <path d="M62.3625 55.362C62.3625 55.5002 62.3625 55.5002 62.3625 55.362C62.5006 55.362 62.6388 55.362 62.777 55.362C62.6388 55.362 62.5007 55.2239 62.2244 55.2239C61.8099 55.0857 61.3954 54.6712 61.1191 54.2568C60.9809 54.1186 60.8428 53.9804 60.8428 53.8423C60.8428 53.9804 60.8428 54.1186 60.8428 54.3949V54.5331V54.6712V54.8094C60.8428 54.9476 60.8428 55.2239 60.8428 55.362C60.8428 55.5002 60.8428 55.6383 60.8428 55.7765C61.3954 55.7765 61.948 55.6383 62.3625 55.362Z"/>
    <path d="M71.7571 55.9145C71.7571 55.6382 71.7571 55.3619 71.7571 55.0856C71.7571 54.6711 71.7571 54.2566 71.7571 53.8422C71.7571 52.7369 71.6189 51.4935 71.3426 50.2501C71.0663 49.0066 70.3755 47.4869 69.4084 46.1053C68.4413 44.7237 62.2242 41.9606 61.5334 42.0987C60.0137 42.2369 59.0466 42.6514 58.4939 42.7895C58.2176 42.9277 57.9413 43.0659 57.665 43.0659C57.3887 43.204 57.2505 43.204 57.2505 43.204C53.9347 44.5856 52.415 48.454 53.9347 51.7698C55.1782 54.6711 58.2176 56.0527 61.1189 55.5001C61.1189 55.3619 61.1189 55.2237 61.1189 55.0856C61.1189 54.9474 61.1189 54.6711 61.1189 54.533V54.3948V54.2566V54.1185C61.1189 53.8422 61.1189 53.704 61.1189 53.5659C61.1189 53.704 61.2571 53.8422 61.3953 53.9803C61.6716 54.2566 62.086 54.6711 62.5005 54.9474C62.7768 55.0856 62.915 55.0856 63.0531 55.0856H63.1913C63.3295 55.0856 63.3294 55.0856 63.0531 55.0856C62.915 55.0856 62.7768 55.0856 62.6387 55.0856C62.5005 55.0856 62.5005 55.0856 62.5005 55.0856C62.086 55.2237 61.5334 55.3619 61.1189 55.5001C61.1189 55.9145 61.1189 56.1908 61.2571 56.6053C61.3953 58.4014 61.8097 60.0593 62.0861 61.8553C62.2242 62.6843 62.3624 63.5132 62.5005 64.3422L72.0334 58.6777C71.7571 57.9869 71.7571 56.8816 71.7571 55.9145Z"/>
    <path d="M71.8952 58.9541C71.8952 59.3686 72.0334 59.9212 72.0334 60.3357V71.5002H63.7092C63.6229 71.8881 63.565 72.1507 63.4999 71.5002C62.8091 68.737 62.9149 67.3817 62.3623 64.6186L71.8952 58.9541Z"/>
    <path d="M19.6718 55.9145C19.6718 55.6382 19.6718 55.3619 19.6718 55.0856C19.6718 54.6711 19.6718 54.2566 19.6718 53.8422C19.6718 52.7369 19.81 51.4935 20.0863 50.2501C20.3626 49.0066 21.0534 47.4869 22.0205 46.1053C22.9876 44.7237 29.2047 41.9606 29.8955 42.0987C31.4152 42.2369 32.3823 42.6514 32.935 42.7895C33.2113 42.9277 33.4876 43.0659 33.7639 43.0659C34.0402 43.204 34.1784 43.204 34.1784 43.204C37.4942 44.5856 39.0139 48.454 37.4942 51.7698C36.2507 54.6711 33.2113 56.0527 30.31 55.5001C30.31 55.3619 30.31 55.2237 30.31 55.0856C30.31 54.9474 30.31 54.6711 30.31 54.533V54.3948V54.2566V54.1185C30.31 53.8422 30.31 53.704 30.31 53.5659C30.31 53.704 30.1718 53.8422 30.0336 53.9803C29.7573 54.2566 29.3429 54.6711 28.9284 54.9474C28.6521 55.0856 28.5139 55.0856 28.3758 55.0856H28.2376C28.0994 55.0856 28.0995 55.0856 28.3758 55.0856C28.5139 55.0856 28.6521 55.0856 28.7902 55.0856H28.9284C29.3429 55.2237 29.8955 55.3619 30.31 55.5001C30.31 55.9145 30.31 56.1908 30.1718 56.6053C30.0336 58.4014 29.6192 60.0593 29.3429 61.8553C29.2047 62.6843 29.0666 63.5132 28.9284 64.3422L19.3955 58.6777C19.5337 57.9869 19.6718 56.8816 19.6718 55.9145Z"/>
    <path d="M30.1713 55.362C30.1713 55.5002 30.3095 55.5002 30.1713 55.362C30.0331 55.362 29.895 55.362 29.7568 55.362C29.895 55.362 30.0331 55.2239 30.3095 55.2239C30.7239 55.0857 31.1384 54.6712 31.4147 54.2568C31.5529 54.1186 31.691 53.9804 31.691 53.8423C31.691 53.9804 31.691 54.1186 31.691 54.3949V54.5331V54.6712V54.8094C31.691 54.9476 31.691 55.2239 31.691 55.362C31.691 55.5002 31.691 55.6383 31.691 55.7765C31.1384 55.7765 30.7239 55.6383 30.1713 55.362Z"/>
    <path d="M64.0002 71.5002C62.7568 41.3818 64.4348 41.8226 60.5664 41.8226H56.0072C53.9348 45.5529 50.0664 48.0397 45.6453 48.0397C41.2243 48.0397 37.3559 45.5529 35.2835 41.8226H31.2769C27.4085 41.8226 28.862 41.4345 29.0001 71.0002L64.0002 71.5002Z"/>
    <path d="M56.6979 21.6514C55.8689 23.8619 55.4545 26.0724 55.3163 28.2829C55.1782 30.6316 54.211 32.704 53.1058 34.6382C52.2768 35.0527 51.586 35.329 50.8952 35.329C50.7571 33.9474 50.4808 32.4277 50.0663 30.9079C49.0992 30.079 47.8558 29.3882 46.4742 29.1119V30.7698C47.4413 30.9079 48.2703 31.3224 48.961 31.875C49.6518 33.1185 49.9281 34.3619 50.2045 35.7435C48.961 36.7106 46.8887 37.125 45.6453 37.2632C44.4018 37.125 42.8821 36.7106 41.6386 35.7435C41.915 34.3619 42.1913 33.1185 42.8821 31.875C43.5729 31.3224 44.4018 31.0461 45.3689 30.7698V29.1119C43.9873 29.3882 42.8821 30.079 41.7768 30.9079C41.3623 32.4277 41.086 33.9474 40.9479 35.329C40.2571 35.1908 39.5663 34.9145 38.7374 34.6382C37.4939 32.704 36.665 30.4935 36.5268 28.2829C36.5268 26.0724 36.1124 23.8619 35.1453 21.6514H33.7637L35.2834 28.6974C35.836 30.9079 36.8031 33.1185 38.1847 35.0527C39.0136 35.4672 39.7045 36.158 40.1189 36.8487C41.3624 38.5066 43.4347 39.3356 45.2308 39.7501C45.3689 39.7501 45.3689 39.7501 45.5071 39.8882C45.6453 39.8882 45.6452 39.8882 45.7834 39.8882C47.7176 39.4737 50.2044 38.6448 51.4479 36.9869C52.0005 36.1579 52.6913 35.6053 53.5202 35.1908C54.9018 33.2566 56.0071 31.0461 56.4216 28.8356L58.0795 21.7895H56.6979V21.6514Z"/>
    <path d="M55.5925 67.1052L51.8623 66.5525L55.5925 41.8223H59.461L55.5925 67.1052Z"/>
    <path d="M36.2512 67.1052L39.9815 66.5525L36.2512 41.8223H32.3828L36.2512 67.1052Z"/>
    <path d="M38.5994 67.1053C38.5994 67.5198 38.323 67.7961 37.9086 67.7961C37.4941 67.7961 37.2178 67.5198 37.2178 67.1053C37.2178 66.6909 37.4941 66.4146 37.9086 66.4146C38.323 66.4146 38.5994 66.829 38.5994 67.1053Z"/>
    <path d="M54.2117 67.1053C54.2117 67.5198 53.9353 67.7961 53.5209 67.7961C53.1064 67.7961 52.8301 67.5198 52.8301 67.1053C52.8301 66.6909 53.1064 66.4146 53.5209 66.4146C53.9353 66.4146 54.2117 66.829 54.2117 67.1053Z"/>
    <path d="M59.1854 19.441C59.1854 13.6384 56.5604 8.66472 52.692 5.90156C50.7578 4.51998 48.4091 4.65813 45.7841 4.65813C43.2973 4.65813 40.9486 4.51998 38.8762 5.90156C35.0078 8.66472 32.3828 13.6384 32.3828 19.441C32.3828 20.1318 32.3828 20.8226 32.521 21.6516H58.9091C59.1854 20.8226 59.1854 20.1318 59.1854 19.441Z"/>
    <path d="M33.2117 21.6515H58.6327C59.4616 21.6515 60.0143 21.0989 60.0143 20.2699V17.2305H31.8301V20.2699C31.8301 20.9607 32.3827 21.6515 33.2117 21.6515Z"/>
    <path d="M45.9221 4.65813C43.4352 4.65813 41.2247 4.51998 39.1523 5.90156L40.5339 19.441H51.1721L52.5537 5.90156C50.6195 4.51998 48.4089 4.65813 45.9221 4.65813Z"/>
    <path d="M43.1592 5.21053C43.1592 5.21053 43.1592 4.79605 43.1592 4.10526C43.1592 3.41447 43.7118 3 44.5408 3H47.3039C48.1329 3 48.6855 3.41447 48.6855 4.10526V5.21053H43.1592Z"/>
    <path d="M43.5729 5.76318C43.5729 5.76318 40.3952 5.90134 37.7702 8.6645C35.1452 11.4277 33.7637 15.9869 33.7637 15.9869H37.7702C37.7702 15.8487 38.1847 9.90792 43.5729 5.76318Z"/>
    <path d="M57.4261 79.8827H54.4873V71.4189H64.3617L61.5404 78.3545C60.7176 79.7652 59.0718 79.8827 57.4261 79.8827Z"/>
    <path d="M64.2441 71.4189L60.4825 77.8843C59.6596 79.295 58.0139 79.4125 56.3681 79.4125H54.4873V80.0003H57.5437C59.1894 80.0003 60.8351 79.8827 61.658 78.4721L64.2441 74.1226V71.4189Z"/>
    <path d="M58.2486 79.8827H14.9893C13.8138 79.8827 12.7559 78.9423 12.7559 77.6492V49.9068C12.7559 48.7313 13.6963 47.6733 14.9893 47.6733H58.2486C59.4241 47.6733 60.4821 48.6138 60.4821 49.9068V77.6492C60.3646 78.9423 59.4241 79.8827 58.2486 79.8827Z"/>
    <path d="M42.4962 63.8956C42.4962 67.187 39.7925 69.8907 36.501 69.8907C33.2096 69.8907 30.5059 67.187 30.5059 63.8956C30.5059 60.6041 33.2096 57.9004 36.501 57.9004C39.9101 57.9004 42.4962 60.6041 42.4962 63.8956Z"/>
</symbol><symbol viewBox="0 0 84 84" id="search-services" xmlns="http://www.w3.org/2000/svg">
    <path d="M47.187 71.3122L60.9503 49.2414L53.7587 43.9097L35.9036 45.1496L29.084 51.5972L44.4592 72.9242C45.3271 72.3042 46.3191 71.8082 47.187 71.3122Z"/>
    <path d="M34.4155 46.5137L29.2078 47.8776C29.2078 47.8776 21.1482 49.1175 19.6603 51.3494C16.9324 53.0853 16.8085 74.2882 17.3044 74.2882C17.8004 74.4122 42.3511 74.2882 42.3511 74.2882C43.2191 73.6683 44.211 73.0483 45.203 72.5523L34.4155 46.5137Z"/>
    <path d="M55.9909 46.5137L61.1986 47.8776C61.1986 47.8776 69.2582 49.1175 70.7461 51.3494C73.474 53.0853 73.35 75.4042 72.854 75.4042C72.358 75.5281 40.8637 75.4042 40.8637 75.4042C39.9957 74.7842 43.3435 73.2963 45.2034 72.4283L55.9909 46.5137Z"/>
    <path d="M53.1387 35.2305H37.1436V47.7538H53.1387V35.2305Z"/>
    <path d="M57.892 27.6018C56.9208 37.192 49.6371 44.3543 45.024 44.3543C40.0468 44.3543 33.3701 37.0706 32.1561 27.6018C31.0636 18.3757 37.8617 13.7627 45.024 13.7627C52.1864 13.7627 58.8631 18.3757 57.892 27.6018Z"/>
    <path d="M33.3703 29.0585C33.9772 31.0008 34.5842 32.8217 33.7345 33.0645C32.8847 33.3073 31.1852 31.972 30.4568 30.0296C29.7284 28.0873 29.8498 26.3878 30.6996 26.0236C31.5493 25.7808 32.7633 27.1161 33.3703 29.0585Z"/>
    <path d="M56.7998 29.0585C56.0714 31.0008 55.5858 32.8217 56.4356 33.0645C57.2854 33.3073 58.9849 31.972 59.7133 30.0296C60.3203 28.0873 60.3203 26.3878 59.4705 26.0236C58.6207 25.7808 57.4068 27.1161 56.7998 29.0585Z"/>
    <path d="M32.1564 26.2665L34.0987 27.1162C34.0987 27.1162 33.2489 24.4455 33.6131 23.353C33.9773 22.139 34.7057 15.9478 38.8331 17.0404C42.9606 18.0116 45.8741 17.1618 45.8741 17.1618L46.1169 11.2134C45.9955 11.3348 28.3931 7.69296 32.1564 26.2665Z"/>
    <path d="M58.0139 26.3879L56.0716 27.2377C56.0716 27.2377 56.9213 24.567 56.5571 23.4744C56.193 22.2604 55.4646 16.0693 51.3371 17.1618C47.3311 18.133 44.4176 17.2832 44.4176 17.2832L44.1748 11.3349C44.1748 11.3349 61.7771 7.81438 58.0139 26.3879Z"/>
    <path d="M49.1709 49.8615L45.2031 53.2093L41.1113 49.8615L45.2031 46.5137L49.1709 49.8615Z"/>
    <path d="M44.4594 52.4653L42.1035 64.1207L45.0794 73.6682L48.6752 64.1207L45.9473 52.4653H44.4594Z"/>
    <path d="M36.647 41.5542L45.2025 46.5139L42.3507 52.4656L35.655 46.2659C35.655 46.2659 33.9191 45.77 34.5391 45.026C35.035 44.282 36.523 43.5381 36.647 41.5542Z"/>
    <path d="M53.7577 41.5542L45.2021 46.5139L48.054 52.4656L54.7497 46.2659C54.7497 46.2659 56.4856 45.77 55.8656 45.026C55.3696 44.282 53.8817 43.5381 53.7577 41.5542Z"/>
    <path d="M45.203 72.4283L35.4075 44.1577L32.0597 46.8856L28.5879 48.7455L32.8037 55.8131L34.7876 55.6891L33.5476 59.7809L45.203 72.4283Z"/>
    <path d="M45.2031 72.4283L54.9986 44.1577L58.3464 46.6376L62.0663 48.7455L57.4785 55.8131L55.6186 55.6891L56.8585 59.7809L45.2031 72.4283Z"/>
    <path d="M55.6703 80.8827H52.7314V72.4189H62.6058L59.7846 79.3545C58.9617 80.7652 57.316 80.8827 55.6703 80.8827Z"/>
    <path d="M62.4883 72.4189L58.7266 78.8843C57.9038 80.295 56.258 80.4125 54.6123 80.4125H52.7314V81.0003H55.7878C57.4335 81.0003 59.0793 80.8827 59.9021 79.4721L62.4883 75.1226V72.4189Z"/>
    <path d="M56.4928 80.8827H13.2335C12.058 80.8827 11 79.9423 11 78.6492V50.9068C11 49.7313 11.9404 48.6733 13.2335 48.6733H56.4928C57.6683 48.6733 58.7262 49.6138 58.7262 50.9068V78.6492C58.6087 79.9423 57.6683 80.8827 56.4928 80.8827Z"/>
    <path d="M40.7403 64.8956C40.7403 68.187 38.0366 70.8907 34.7452 70.8907C31.4537 70.8907 28.75 68.187 28.75 64.8956C28.75 61.6041 31.4537 58.9004 34.7452 58.9004C38.1542 58.9004 40.7403 61.6041 40.7403 64.8956Z"/>
</symbol><symbol viewBox="0 0 19 16" id="swiper-arrow" xmlns="http://www.w3.org/2000/svg">
    <path d="M8.5 1L1.78327 7.26894C1.3597 7.66428 1.3597 8.33572 1.78327 8.73106L8.5 15" stroke-width="1.5"/>
    <path d="M1.5 8H18.5" stroke-width="1.5"/>
</symbol><symbol viewBox="0 0 84 84" id="take-order" xmlns="http://www.w3.org/2000/svg">
    <g clip-path="url(#iclip0_387_109)">
        <path d="M43.8435 66.0324L57.4398 44.1812L50.2774 38.8398L32.5537 40.0538L25.877 46.3664L41.0514 67.4892C42.0226 67.125 42.8723 66.518 43.8435 66.0324Z"/>
        <path d="M31.0965 41.5107L25.9979 42.8461C25.9979 42.8461 17.9858 44.06 16.529 46.2452C13.8583 47.9447 13.7369 86.5001 14.2225 86.5001C14.7081 86.6215 39.1086 86.5001 39.1086 86.5001C40.0798 85.8931 40.9295 85.2861 41.9007 84.6792L31.0965 41.5107Z"/>
        <path d="M52.5833 41.5107L57.6819 42.8461C57.6819 42.8461 65.694 44.06 67.1508 46.2452C69.8215 47.9447 69.9429 85.0001 69.4573 85.0001C68.9717 85.1215 37.5303 85.0001 37.5303 85.0001C36.5591 84.3931 39.9582 84.0289 41.9005 83.1792L52.5833 41.5107Z"/>
        <path d="M49.7915 30.3423H33.8887V42.7246H49.7915V30.3423Z"/>
        <path d="M54.6468 21.6018C53.6757 31.192 46.392 38.3543 41.7789 38.3543C36.8017 38.3543 30.125 31.0706 28.911 21.6018C27.8185 12.3757 34.6166 7.7627 41.7789 7.7627C48.9413 7.7627 55.618 12.3757 54.6468 21.6018Z"/>
        <path d="M30.1252 23.0585C30.7321 25.0008 31.3391 26.8217 30.4893 27.0645C29.6396 27.3073 27.94 25.972 27.2117 24.0296C26.4833 22.0873 26.6047 20.3878 27.4545 20.0236C28.3042 19.7808 29.5182 21.1161 30.1252 23.0585Z"/>
        <path d="M53.5547 23.0585C52.8263 25.0008 52.3407 26.8217 53.1905 27.0645C54.0403 27.3073 55.7398 25.972 56.4682 24.0296C57.0751 22.0873 57.0751 20.3878 56.2254 20.0236C55.3756 19.7808 54.1617 21.1161 53.5547 23.0585Z"/>
        <path d="M28.9113 20.2665L30.8536 21.1162C30.8536 21.1162 30.0038 18.4455 30.368 17.353C30.7322 16.139 31.4606 9.94784 35.588 11.0404C39.7155 12.0116 42.629 11.1618 42.629 11.1618L42.8718 5.21342C42.7504 5.33482 25.148 1.69296 28.9113 20.2665Z"/>
        <path d="M54.7688 20.3879L52.8264 21.2377C52.8264 21.2377 53.6762 18.567 53.312 17.4744C52.9478 16.2604 52.2195 10.0693 48.092 11.1618C44.086 12.133 41.1725 11.2832 41.1725 11.2832L40.9297 5.33485C40.9297 5.33485 58.532 1.81438 54.7688 20.3879Z"/>
        <path d="M45.7855 44.7884L41.7795 48.1875L37.7734 44.7884L41.7795 41.5107L45.7855 44.7884Z"/>
        <path d="M41.0516 47.459L38.7451 58.8702L41.6586 68.339L45.3005 58.8702L42.6298 47.459H41.0516Z"/>
        <path d="M33.2818 36.5332L41.7795 41.5104L38.9874 47.4588L32.4321 41.2676C32.4321 41.2676 30.7325 40.782 31.2181 40.0537C31.8251 39.3253 33.1604 38.5969 33.2818 36.5332Z"/>
        <path d="M50.277 36.5332L41.7793 41.5104L44.5714 47.4588L51.2481 41.389C51.2481 41.389 52.9477 40.9034 52.4621 40.1751C51.8551 39.3253 50.3984 38.5969 50.277 36.5332Z"/>
        <path d="M41.779 67.1251L32.0674 39.2041L28.7897 41.8748L25.3906 43.6957L29.6395 50.7367L31.5818 50.6153L30.2464 54.7427L41.779 67.1251Z"/>
        <path d="M49 60H34.5V83.5H49V60Z"/>
        <path d="M41.7793 67.1251L51.6123 39.2041L54.7686 41.632L58.5319 43.6957L54.0402 50.7367L52.0979 50.6153L53.3119 54.7427L41.7793 67.1251Z"/>
    </g>
    <defs>
        <clipPath id="iclip0_387_109">
            <rect width="84" height="84" rx="42"/>
        </clipPath>
    </defs>
</symbol><symbol viewBox="0 0 84 84" id="take-services" xmlns="http://www.w3.org/2000/svg">
    <path d="M53.8907 17.6843C51.542 15.6119 49.3315 14.5066 46.1539 14.6448C46.0157 14.6448 45.8776 14.6448 45.7394 14.6448C44.3578 14.0922 43.1144 13.6777 42.4236 13.8158C41.3184 14.0922 40.4894 14.6448 39.7986 15.3356V15.1974C39.1078 13.5395 37.3118 14.2303 36.621 15.4737C36.3447 15.6119 36.2065 15.8882 36.0683 16.1645C34.8249 16.1645 33.5815 16.1645 32.1999 16.579C31.5091 16.7172 30.8184 17.5461 30.8184 18.375C31.0947 21.5527 31.9236 24.5922 32.8907 27.6316C33.4434 29.4277 33.5815 31.2237 34.9631 32.4672C34.9631 32.8816 34.9631 37.0264 32.6144 39.9277C31.7854 40.8948 33.7197 43.2435 34.2723 43.6579C34.8249 44.0724 35.5157 44.3487 36.0683 44.4869C36.8973 46.6974 39.5223 47.5264 42.5618 46.5593C43.2526 46.4211 43.8052 46.1448 44.496 45.7303L44.6341 45.8685C45.3249 46.5593 46.7065 46.6974 47.2591 45.8685C48.0881 44.9014 48.6407 43.9343 50.1605 43.7961C51.2657 43.7961 52.9236 41.1711 52.5091 40.0658C51.2657 37.0264 50.1605 35.3685 50.0223 32.1908C50.8512 31.3619 51.4039 30.5329 51.2657 29.2895C51.2657 29.1514 51.2657 29.1514 51.2657 29.0132C51.4039 28.7369 51.5421 28.5987 51.6802 28.3224C52.6473 26.6645 53.6144 23.4869 52.7855 21.2764C53.3381 21.1382 53.7526 20.8619 54.167 20.4474C54.5815 19.6185 54.7197 18.375 53.8907 17.6843Z"/>
    <path d="M58.7267 52.362C58.7267 52.5002 58.7267 52.5002 58.7267 52.362C58.8649 52.362 59.0031 52.362 59.1412 52.362C59.0031 52.362 58.8649 52.2239 58.5886 52.2239C58.1741 52.0857 57.7596 51.6712 57.4833 51.2568C57.3452 51.1186 57.207 50.9804 57.207 50.8423C57.207 50.9804 57.207 51.1186 57.207 51.3949V51.5331V51.6712V51.8094C57.207 51.9476 57.207 52.2239 57.207 52.362C57.207 52.5002 57.207 52.6383 57.207 52.7765C57.7597 52.7765 58.3123 52.6383 58.7267 52.362Z"/>
    <path d="M68.1214 52.9145C68.1214 52.6382 68.1214 52.3619 68.1214 52.0856C68.1214 51.6711 68.1214 51.2566 68.1214 50.8422C68.1214 49.7369 67.9832 48.4935 67.7069 47.2501C67.4305 46.0066 66.7398 44.4869 65.7727 43.1053C64.8056 41.7237 58.5885 38.9606 57.8977 39.0987C56.3779 39.2369 55.4108 39.6514 54.8582 39.7895C54.5819 39.9277 54.3056 40.0659 54.0292 40.0659C53.7529 40.204 53.6148 40.204 53.6148 40.204C50.299 41.5856 48.7793 45.454 50.299 48.7698C51.5424 51.6711 54.5819 53.0527 57.4832 52.5001C57.4832 52.3619 57.4832 52.2237 57.4832 52.0856C57.4832 51.9474 57.4832 51.6711 57.4832 51.533V51.3948V51.2566V51.1185C57.4832 50.8422 57.4832 50.704 57.4832 50.5659C57.4832 50.704 57.6214 50.8422 57.7595 50.9803C58.0358 51.2566 58.4503 51.6711 58.8648 51.9474C59.1411 52.0856 59.2792 52.0856 59.4174 52.0856H59.5556C59.6937 52.0856 59.6937 52.0856 59.4174 52.0856C59.2792 52.0856 59.1411 52.0856 59.0029 52.0856C58.8648 52.0856 58.8648 52.0856 58.8648 52.0856C58.4503 52.2237 57.8977 52.3619 57.4832 52.5001C57.4832 52.9145 57.4832 53.1908 57.6214 53.6053C57.7595 55.4014 58.174 57.0593 58.4503 58.8553C58.5885 59.6843 58.7266 60.5132 58.8648 61.3422L68.3977 55.6777C68.1213 54.9869 68.1214 53.8816 68.1214 52.9145Z"/>
    <path d="M63.2858 84.0002H69.0884C68.8121 82.3423 69.7792 69.4936 69.6411 67.8357C69.0884 64.2436 68.6739 60.6515 68.3976 57.3357C68.3976 56.9212 68.2595 56.3686 68.2595 55.9541L58.7266 61.6186C59.2792 64.3817 59.8319 67.1449 60.5226 69.908C60.6608 71.2896 62.8713 83.3094 63.2858 84.0002Z"/>
    <path d="M16.0361 52.9145C16.0361 52.6382 16.0361 52.3619 16.0361 52.0856C16.0361 51.6711 16.0361 51.2566 16.0361 50.8422C16.0361 49.7369 16.1742 48.4935 16.4506 47.2501C16.7269 46.0066 17.4177 44.4869 18.3848 43.1053C19.3519 41.7237 25.5689 38.9606 26.2597 39.0987C27.7795 39.2369 28.7466 39.6514 29.2992 39.7895C29.5755 39.9277 29.8519 40.0659 30.1282 40.0659C30.4045 40.204 30.5426 40.204 30.5426 40.204C33.8584 41.5856 35.3782 45.454 33.8584 48.7698C32.615 51.6711 29.5755 53.0527 26.6742 52.5001C26.6742 52.3619 26.6742 52.2237 26.6742 52.0856C26.6742 51.9474 26.6742 51.6711 26.6742 51.533V51.3948V51.2566V51.1185C26.6742 50.8422 26.6742 50.704 26.6742 50.5659C26.6742 50.704 26.5361 50.8422 26.3979 50.9803C26.1216 51.2566 25.7071 51.6711 25.2927 51.9474C25.0163 52.0856 24.8782 52.0856 24.74 52.0856H24.6019C24.4637 52.0856 24.4637 52.0856 24.74 52.0856C24.8782 52.0856 25.0163 52.0856 25.1545 52.0856H25.2927C25.7071 52.2237 26.2598 52.3619 26.6742 52.5001C26.6742 52.9145 26.6742 53.1908 26.5361 53.6053C26.3979 55.4014 25.9834 57.0593 25.7071 58.8553C25.569 59.6843 25.4308 60.5132 25.2927 61.3422L15.7598 55.6777C15.8979 54.9869 16.0361 53.8816 16.0361 52.9145Z"/>
    <path d="M20.7331 84.0002H14.9305C15.2068 82.3423 14.2397 69.4936 14.3778 67.8357C14.9305 64.2436 15.3449 60.6515 15.6213 57.3357C15.6213 56.9212 15.7594 56.3686 15.7594 55.9541L25.2923 61.6186C24.7397 64.3817 24.187 67.1449 23.4962 69.908C23.3581 71.2896 21.2857 83.3094 20.7331 84.0002Z"/>
    <path d="M26.5356 52.362C26.5356 52.5002 26.6737 52.5002 26.5356 52.362C26.3974 52.362 26.2593 52.362 26.1211 52.362C26.2593 52.362 26.3974 52.2239 26.6737 52.2239C27.0882 52.0857 27.5026 51.6712 27.779 51.2568C27.9171 51.1186 28.0553 50.9804 28.0553 50.8423C28.0553 50.9804 28.0553 51.1186 28.0553 51.3949V51.5331V51.6712V51.8094C28.0553 51.9476 28.0553 52.2239 28.0553 52.362C28.0553 52.5002 28.0553 52.6383 28.0553 52.7765C27.5027 52.7765 27.0882 52.6383 26.5356 52.362Z"/>
    <path d="M59.4174 83.9999C58.174 53.8815 60.799 38.8223 56.9306 38.8223H52.3714C50.2991 42.5525 46.4306 45.0394 42.0096 45.0394C37.5885 45.0394 33.7201 42.5525 31.6477 38.8223H27.6411C23.7727 38.8223 25.0161 54.4341 25.1543 83.9999H59.4174Z"/>
    <path d="M53.0621 18.6514C52.2332 20.8619 51.8187 23.0724 51.6806 25.2829C51.5424 27.6316 50.5753 29.704 49.47 31.6382C48.6411 32.0527 47.9503 32.329 47.2595 32.329C47.1213 30.9474 46.845 29.4277 46.4305 27.9079C45.4634 27.079 44.22 26.3882 42.8384 26.1119V27.7698C43.8055 27.9079 44.6345 28.3224 45.3253 28.875C46.0161 30.1185 46.2924 31.3619 46.5687 32.7435C45.3253 33.7106 43.2529 34.125 42.0095 34.2632C40.7661 34.125 39.2463 33.7106 38.0029 32.7435C38.2792 31.3619 38.5556 30.1185 39.2464 28.875C39.9371 28.3224 40.7661 28.0461 41.7332 27.7698V26.1119C40.3516 26.3882 39.2463 27.079 38.1411 27.9079C37.7266 29.4277 37.4503 30.9474 37.3121 32.329C36.6213 32.1908 35.9306 31.9145 35.1016 31.6382C33.8582 29.704 33.0292 27.4935 32.8911 25.2829C32.8911 23.0724 32.4766 20.8619 31.5095 18.6514H30.1279L31.6477 25.6974C32.2003 27.9079 33.1674 30.1185 34.549 32.0527C35.3779 32.4672 36.0687 33.158 36.4832 33.8487C37.7266 35.5066 39.799 36.3356 41.595 36.7501C41.7332 36.7501 41.7332 36.7501 41.8714 36.8882C42.0095 36.8882 42.0095 36.8882 42.1476 36.8882C44.0819 36.4737 46.5687 35.6448 47.8121 33.9869C48.3648 33.1579 49.0555 32.6053 49.8845 32.1908C51.2661 30.2566 52.3713 28.0461 52.7858 25.8356L54.4437 18.7895H53.0621V18.6514Z"/>
    <path d="M55.2725 83.9999L51.9567 62.4473H32.6146L29.2988 83.9999H55.2725Z"/>
    <path d="M51.9568 64.1052L48.2266 63.5525L51.9568 38.8223H55.8252L51.9568 64.1052Z"/>
    <path d="M32.6145 64.1052L36.3448 63.5525L32.6145 38.8223H28.7461L32.6145 64.1052Z"/>
    <path d="M34.9636 64.1053C34.9636 64.5198 34.6873 64.7961 34.2728 64.7961C33.8583 64.7961 33.582 64.5198 33.582 64.1053C33.582 63.6909 33.8583 63.4146 34.2728 63.4146C34.6873 63.4146 34.9636 63.829 34.9636 64.1053Z"/>
    <path d="M50.5749 64.1053C50.5749 64.5198 50.2986 64.7961 49.8841 64.7961C49.4697 64.7961 49.1934 64.5198 49.1934 64.1053C49.1934 63.6909 49.4697 63.4146 49.8841 63.4146C50.2986 63.4146 50.5749 63.829 50.5749 64.1053Z"/>
    <path d="M55.5487 16.441C55.5487 10.6384 52.9237 5.66472 49.0553 2.90156C47.1211 1.51998 44.7724 1.65813 42.1474 1.65813C39.6605 1.65813 37.3119 1.51998 35.2395 2.90156C31.3711 5.66472 28.7461 10.6384 28.7461 16.441C28.7461 17.1318 28.7461 17.8226 28.8843 18.6516H55.2724C55.5487 17.8226 55.5487 17.1318 55.5487 16.441Z"/>
    <path d="M29.5749 18.6515H54.996C55.8249 18.6515 56.3776 18.0989 56.3776 17.2699V14.2305H28.1934V17.2699C28.1934 17.9607 28.746 18.6515 29.5749 18.6515Z"/>
    <path d="M42.2854 1.65813C39.7985 1.65813 37.588 1.51998 35.5156 2.90156L36.8972 16.441H47.5354L48.917 2.90156C46.9827 1.51998 44.7722 1.65813 42.2854 1.65813Z"/>
    <path d="M39.5225 2.21053C39.5225 2.21053 39.5225 1.79605 39.5225 1.10526C39.5225 0.414473 40.0751 0 40.904 0H43.6672C44.4961 0 45.0488 0.414473 45.0488 1.10526V2.21053H39.5225Z"/>
    <path d="M39.9371 2.76318C39.9371 2.76318 36.7595 2.90134 34.1345 5.6645C31.5095 8.42766 30.1279 12.9869 30.1279 12.9869H34.1345C34.1345 12.8487 34.549 6.90792 39.9371 2.76318Z"/>
</symbol></svg>