<?xml version="1.0" encoding="utf-8"?><svg viewBox="0 0 84 84" xmlns="http://www.w3.org/2000/svg" xmlns:xlink="http://www.w3.org/1999/xlink"><style>:root>svg{display:none}:root>svg:target{display:block}</style><svg fill="none" viewBox="0 0 11 6" id="dropdown-arrow" xmlns="http://www.w3.org/2000/svg">
    <path d="M5.162 5.228.944 1.351a.5.5 0 0 1 .339-.868h8.434a.5.5 0 0 1 .339.868L5.838 5.228a.5.5 0 0 1-.676 0Z" fill="#ACACAC"/>
</svg><svg fill="none" viewBox="0 0 24 18" id="mail" xmlns="http://www.w3.org/2000/svg">
    <path d="M22.79.008a1.5 1.5 0 0 0-.307 0H1.492a1.5 1.5 0 0 0-.397.06l10.832 10.788L22.79.008Z" fill="#FFD24D"/>
    <path d="M23.9 1.05 12.984 11.92a1.5 1.5 0 0 1-2.114 0L.052 1.132A1.5 1.5 0 0 0 0 1.507v14.994A1.5 1.5 0 0 0 1.5 18h20.99a1.5 1.5 0 0 0 1.5-1.5V1.508a1.502 1.502 0 0 0-.09-.457ZM2.526 16.5H1.484v-1.072l5.45-5.405 1.058 1.057-5.466 5.42Zm19.95 0h-1.05l-5.465-5.42 1.057-1.057 5.45 5.405.007 1.073Z" fill="#FFD24D"/>
</svg><svg fill="none" viewBox="0 0 18 18" id="phone" xmlns="http://www.w3.org/2000/svg">
    <path d="m12.557 11.548-.455.48s-1.083 1.139-4.038-1.972c-2.955-3.111-1.872-4.25-1.872-4.25l.286-.303c.707-.744.774-1.938.157-2.81L5.375.91C4.61-.17 3.135-.312 2.26.609L.69 2.26c-.433.457-.723 1.048-.688 1.704.09 1.68.808 5.294 4.812 9.51 4.247 4.471 8.232 4.649 9.86 4.488.517-.05.965-.328 1.326-.71l1.42-1.494c.96-1.01.69-2.74-.538-3.447l-1.91-1.1c-.806-.463-1.786-.327-2.416.336Z" fill="#FFD24D"/>
</svg><svg fill="none" viewBox="0 0 19 18" id="rate-star" xmlns="http://www.w3.org/2000/svg">
    <path d="m4.85 16.212 1.156-4.996.068-.293-.228-.198-3.876-3.36 5.123-.445.3-.026.118-.277L9.5 1.909l1.99 4.708.117.277.3.026 5.123.445-3.876 3.36-.228.197.068.294 1.156 4.996-4.392-2.65-.258-.155-.258.155-4.392 2.65Z" stroke="#202020" stroke-opacity=".5"/>
</svg><svg fill="none" viewBox="0 0 19 16" id="reviews-arrow" xmlns="http://www.w3.org/2000/svg">
    <path d="m10.5 15 6.717-6.269a1 1 0 0 0 0-1.462L10.5 1M17.5 8H.5" stroke="#363636" stroke-width="1.5"/>
</svg><svg fill="none" viewBox="0 0 84 84" id="search-order" xmlns="http://www.w3.org/2000/svg">
    <path d="M57.527 20.684c-2.348-2.072-4.559-3.177-7.736-3.04h-.415c-1.381-.552-2.625-.966-3.316-.828-1.105.276-1.934.829-2.625 1.52v-.139c-.69-1.657-2.486-.967-3.177.277-.277.138-.415.414-.553.69-1.243 0-2.487 0-3.868.415-.691.138-1.382.967-1.382 1.796.276 3.178 1.105 6.217 2.072 9.257.553 1.796.691 3.592 2.073 4.835 0 .415 0 4.56-2.349 7.46-.829.968 1.105 3.316 1.658 3.73.553.415 1.243.692 1.796.83.829 2.21 3.454 3.04 6.494 2.072.69-.138 1.243-.414 1.934-.829l.138.139c.69.69 2.072.828 2.625 0 .829-.968 1.381-1.935 2.901-2.073 1.105 0 2.763-2.625 2.349-3.73-1.244-3.04-2.349-4.698-2.487-7.875.829-.83 1.382-1.658 1.243-2.902v-.276c.139-.276.277-.414.415-.69.967-1.659 1.934-4.836 1.105-7.047.553-.138.967-.414 1.382-.829.414-.828.552-2.072-.277-2.763Z" fill="#FFE2C2"/>
    <path d="M62.362 55.362c0 .138 0 .138 0 0h.415c-.138 0-.276-.138-.553-.138-.414-.138-.829-.553-1.105-.967-.138-.138-.276-.277-.276-.415v1.934c.552 0 1.105-.138 1.52-.414Z" fill="#363636"/>
    <path d="M71.757 55.914v-2.072c0-1.105-.138-2.349-.414-3.592-.277-1.243-.968-2.763-1.935-4.145-.967-1.381-7.184-4.144-7.875-4.006-1.52.138-2.486.552-3.04.69-.275.139-.552.277-.828.277-.276.138-.414.138-.414.138-3.316 1.382-4.836 5.25-3.316 8.566 1.243 2.901 4.283 4.283 7.184 3.73v-1.934c0 .138.138.276.276.414.277.277.691.691 1.105.967.277.139.415.139.553.139h.138H62.5c-.414.138-.967.276-1.381.414 0 .414 0 .69.138 1.105.138 1.796.553 3.454.83 5.25l.413 2.487 9.533-5.664c-.276-.691-.276-1.796-.276-2.764Z" fill="#363636"/>
    <path d="M71.895 58.954c0 .415.138.967.138 1.382V71.5H63.71c-.086.388-.144.65-.21 0-.69-2.763-.584-4.118-1.137-6.881l9.533-5.665Z" fill="#EBC59B"/>
    <path d="M19.672 55.914v-2.072c0-1.105.138-2.349.414-3.592.277-1.243.967-2.763 1.934-4.145.968-1.381 7.185-4.144 7.875-4.006 1.52.138 2.487.552 3.04.69.276.139.553.277.829.277.276.138.414.138.414.138 3.316 1.382 4.836 5.25 3.316 8.566-1.243 2.901-4.283 4.283-7.184 3.73v-1.934c0 .138-.138.276-.276.414-.277.277-.691.691-1.106.967-.276.139-.414.139-.552.139h-.138H28.928c.415.138.967.276 1.382.414 0 .414 0 .69-.138 1.105-.138 1.796-.553 3.454-.83 5.25-.137.83-.275 1.658-.414 2.487l-9.533-5.664c.139-.691.277-1.796.277-2.764Z" fill="#363636"/>
    <path d="M30.171 55.362c0 .138.139.138 0 0h-.414c.138 0 .276-.138.552-.138.415-.138.83-.553 1.106-.967.138-.138.276-.277.276-.415v1.934c-.553 0-.967-.138-1.52-.414Z" fill="#363636"/>
    <path d="M64 71.5c-1.243-30.118.435-29.677-3.434-29.677h-4.559c-2.072 3.73-5.94 6.217-10.362 6.217-4.42 0-8.29-2.487-10.362-6.217h-4.006c-3.869 0-2.415-.389-2.277 29.177l35 .5Z" fill="#FFD24D"/>
    <path d="M56.698 21.651c-.83 2.21-1.243 4.421-1.382 6.632-.138 2.349-1.105 4.421-2.21 6.355-.83.415-1.52.691-2.21.691a27.414 27.414 0 0 0-.83-4.421c-.967-.829-2.21-1.52-3.592-1.796v1.658c.967.138 1.796.552 2.487 1.105.69 1.243.967 2.487 1.244 3.868-1.244.968-3.316 1.382-4.56 1.52-1.243-.138-2.763-.552-4.006-1.52.276-1.381.552-2.625 1.243-3.868.69-.553 1.52-.829 2.487-1.105v-1.658c-1.382.276-2.487.967-3.592 1.796-.415 1.52-.691 3.04-.83 4.421-.69-.138-1.38-.415-2.21-.69-1.243-1.935-2.072-4.146-2.21-6.356 0-2.21-.415-4.421-1.382-6.632h-1.381l1.52 7.046c.552 2.21 1.52 4.421 2.9 6.356a4.88 4.88 0 0 1 1.935 1.796c1.243 1.658 3.316 2.487 5.112 2.901.138 0 .138 0 .276.138h.276c1.935-.414 4.421-1.243 5.665-2.901.553-.83 1.243-1.382 2.072-1.796 1.382-1.934 2.487-4.145 2.902-6.355l1.658-7.046h-1.382v-.139ZM55.593 67.105l-3.73-.553 3.73-24.73h3.868l-3.868 25.283ZM36.251 67.105l3.73-.553-3.73-24.73h-3.868l3.868 25.283Z" fill="#363636"/>
    <path d="M38.6 67.105c0 .415-.277.691-.691.691-.415 0-.691-.276-.691-.69 0-.415.276-.691.69-.691.415 0 .691.414.691.69ZM54.212 67.105c0 .415-.277.691-.691.691-.415 0-.69-.276-.69-.69 0-.415.275-.691.69-.691.414 0 .69.414.69.69Z" fill="#fff"/>
    <path d="M59.185 19.441c0-5.803-2.625-10.776-6.493-13.54-1.934-1.381-4.283-1.243-6.908-1.243-2.487 0-4.835-.138-6.908 1.244-3.868 2.763-6.493 7.736-6.493 13.539 0 .69 0 1.382.138 2.21h26.388c.276-.828.276-1.52.276-2.21Z" fill="#FFD24D"/>
    <path d="M33.212 21.651h25.42c.83 0 1.382-.552 1.382-1.381v-3.04H31.83v3.04c0 .69.553 1.381 1.382 1.381Z" fill="#FFD24D"/>
    <path d="M45.922 4.658c-2.487 0-4.697-.138-6.77 1.244l1.382 13.539h10.638l1.382-13.54c-1.934-1.381-4.145-1.243-6.632-1.243Z" fill="#FFD24D"/>
    <path d="M43.16 5.21V4.106c0-.69.552-1.105 1.38-1.105h2.764c.829 0 1.381.414 1.381 1.105v1.106H43.16ZM43.573 5.763s-3.178.138-5.803 2.902c-2.625 2.763-4.006 7.322-4.006 7.322h4.006c0-.138.415-6.08 5.803-10.224Z" fill="#FFD24D"/>
    <path d="M57.426 79.883h-2.939v-8.464h9.875l-2.822 6.936c-.822 1.41-2.468 1.528-4.114 1.528Z" fill="#B6C9C9"/>
    <path d="m64.244 71.419-3.761 6.465c-.823 1.411-2.47 1.528-4.115 1.528h-1.88V80h3.056c1.645 0 3.291-.117 4.114-1.528l2.586-4.35V71.42Z" fill="#D7D7D7"/>
    <path d="M58.249 79.883h-43.26c-1.175 0-2.233-.94-2.233-2.234V49.907c0-1.176.94-2.234 2.233-2.234h43.26c1.175 0 2.233.94 2.233 2.234v27.742c-.117 1.293-1.058 2.234-2.233 2.234Z" fill="#DCDCDC"/>
    <path d="M42.496 63.896c0 3.291-2.704 5.995-5.995 5.995s-5.995-2.704-5.995-5.995c0-3.292 2.704-5.996 5.995-5.996 3.41 0 5.995 2.704 5.995 5.996Z" fill="#C1C1C1"/>
</svg><svg fill="none" viewBox="0 0 84 84" id="search-services" xmlns="http://www.w3.org/2000/svg">
    <path d="m47.187 71.312 13.763-22.07-7.191-5.332-17.855 1.24-6.82 6.447 15.375 21.327c.868-.62 1.86-1.116 2.728-1.612Z" fill="#FFF8F8"/>
    <path d="m34.416 46.514-5.208 1.364s-8.06 1.24-9.548 3.471c-2.728 1.736-2.852 22.94-2.356 22.94.496.123 25.047 0 25.047 0 .868-.62 1.86-1.24 2.852-1.737L34.415 46.514Z" fill="#363636"/>
    <path d="m55.99 46.514 5.209 1.364s8.06 1.24 9.547 3.471c2.728 1.736 2.604 24.055 2.108 24.055-.496.124-31.99 0-31.99 0-.868-.62 2.48-2.108 4.34-2.976L55.99 46.514Z" fill="#363636"/>
    <path d="M53.139 35.23H37.144v12.524h15.995V35.23Z" fill="#D1AB86"/>
    <path d="M57.892 27.602c-.971 9.59-8.255 16.752-12.868 16.752-4.977 0-11.654-7.283-12.868-16.752-1.092-9.226 5.706-13.84 12.868-13.84s13.84 4.614 12.868 13.84Z" fill="#FFE2C2"/>
    <path d="M33.37 29.058c.607 1.943 1.214 3.764.364 4.007-.85.242-2.549-1.093-3.277-3.035-.729-1.943-.607-3.642.243-4.006.85-.243 2.063 1.092 2.67 3.034ZM56.8 29.058c-.729 1.943-1.214 3.764-.364 4.007.85.242 2.549-1.093 3.277-3.035.607-1.943.607-3.642-.242-4.006-.85-.243-2.064 1.092-2.671 3.034Z" fill="#FFE2C2"/>
    <path d="m32.156 26.267 1.943.85s-.85-2.672-.486-3.764c.364-1.214 1.093-7.405 5.22-6.313 4.128.972 7.041.122 7.041.122l.243-5.949c-.121.122-17.724-3.52-13.96 15.054Z" fill="#363636"/>
    <path d="m58.014 26.388-1.942.85s.85-2.671.485-3.764c-.364-1.214-1.092-7.405-5.22-6.312-4.006.971-6.92.121-6.92.121l-.242-5.948s17.602-3.52 13.839 15.053ZM49.17 49.861l-3.967 3.348-4.092-3.348 4.092-3.347 3.968 3.347Z" fill="#363636"/>
    <path d="m44.46 52.465-2.357 11.656 2.976 9.547 3.596-9.547-2.728-11.656H44.46Z" fill="#363636"/>
    <path d="m36.647 41.554 8.556 4.96-2.852 5.952-6.696-6.2s-1.736-.496-1.116-1.24c.496-.744 1.984-1.488 2.108-3.472Z" fill="#FFF8F8"/>
    <path d="m53.758 41.554-8.556 4.96 2.852 5.952 6.696-6.2s1.736-.496 1.116-1.24c-.496-.744-1.984-1.488-2.108-3.472Z" fill="#FFF8F8"/>
    <path d="m45.203 72.428-9.796-28.27-3.347 2.728-3.472 1.86 4.216 7.067 1.984-.124-1.24 4.092 11.655 12.647ZM45.203 72.428 55 44.158l3.347 2.48 3.72 2.108-4.588 7.067-1.86-.124 1.24 4.092-11.655 12.647Z" fill="#363636"/>
    <path d="M55.67 80.883h-2.939v-8.464h9.875l-2.821 6.936c-.823 1.41-2.469 1.528-4.115 1.528Z" fill="#B6C9C9"/>
    <path d="m62.488 72.419-3.761 6.465c-.823 1.411-2.469 1.528-4.115 1.528h-1.88V81h3.056c1.646 0 3.291-.117 4.114-1.528l2.586-4.35V72.42Z" fill="#D7D7D7"/>
    <path d="M56.493 80.883h-43.26c-1.175 0-2.233-.94-2.233-2.234V50.907c0-1.176.94-2.234 2.233-2.234h43.26c1.175 0 2.233.94 2.233 2.234v27.742c-.117 1.293-1.058 2.234-2.233 2.234Z" fill="#DCDCDC"/>
    <path d="M40.74 64.896c0 3.291-2.703 5.995-5.995 5.995-3.291 0-5.995-2.704-5.995-5.995 0-3.292 2.704-5.996 5.995-5.996 3.41 0 5.995 2.704 5.995 5.996Z" fill="#C1C1C1"/>
</svg><svg fill="none" viewBox="0 0 19 16" id="swiper-arrow" xmlns="http://www.w3.org/2000/svg">
    <path d="M8.5 1 1.783 7.269a1 1 0 0 0 0 1.462L8.5 15M1.5 8h17" stroke="#363636" stroke-width="1.5"/>
</svg><svg fill="none" viewBox="0 0 84 84" id="take-order" xmlns="http://www.w3.org/2000/svg">
    <g clip-path="url(#ia)">
        <path d="m43.843 66.032 13.597-21.85-7.163-5.342-17.723 1.214-6.677 6.312L41.051 67.49c.972-.364 1.821-.971 2.792-1.457Z" fill="#FFF8F8"/>
        <path d="m31.096 41.51-5.098 1.336s-8.012 1.214-9.469 3.4c-2.67 1.699-2.792 40.254-2.306 40.254.485.121 24.886 0 24.886 0 .97-.607 1.82-1.214 2.792-1.82L31.096 41.51Z" fill="#363636"/>
        <path d="m52.583 41.51 5.099 1.336s8.012 1.214 9.469 3.4C69.82 47.944 69.943 85 69.457 85c-.485.121-31.927 0-31.927 0-.97-.607 2.428-.971 4.37-1.82l10.683-41.67Z" fill="#363636"/>
        <path d="M49.791 30.342H33.89v12.383H49.79V30.342Z" fill="#D1AB86"/>
        <path d="M54.647 21.602c-.971 9.59-8.255 16.752-12.868 16.752-4.977 0-11.654-7.283-12.868-16.752-1.093-9.226 5.706-13.84 12.868-13.84s13.839 4.614 12.868 13.84Z" fill="#FFE2C2"/>
        <path d="M30.125 23.058c.607 1.943 1.214 3.764.364 4.006-.85.243-2.549-1.092-3.277-3.034-.729-1.943-.607-3.642.242-4.006.85-.243 2.064 1.092 2.671 3.034ZM53.555 23.058c-.729 1.943-1.214 3.764-.364 4.006.85.243 2.549-1.092 3.277-3.034.607-1.943.607-3.642-.243-4.006-.85-.243-2.063 1.092-2.67 3.034Z" fill="#FFE2C2"/>
        <path d="m28.911 20.267 1.943.85s-.85-2.672-.486-3.764c.364-1.214 1.093-7.405 5.22-6.313 4.127.972 7.041.122 7.041.122l.243-5.949c-.122.122-17.724-3.52-13.96 15.054Z" fill="#363636"/>
        <path d="m54.769 20.388-1.943.85s.85-2.671.486-3.764c-.364-1.214-1.093-7.405-5.22-6.312-4.006.971-6.92.121-6.92.121l-.242-5.948s17.602-3.52 13.839 15.053ZM45.785 44.788l-4.005 3.4-4.007-3.4 4.006-3.277 4.006 3.277Z" fill="#363636"/>
        <path d="M41.052 47.459 38.745 58.87l2.914 9.469L45.3 58.87 42.63 47.46h-1.578Z" fill="#363636"/>
        <path d="m33.282 36.533 8.498 4.977-2.793 5.949-6.555-6.191s-1.7-.486-1.214-1.214c.607-.729 1.942-1.457 2.064-3.52Z" fill="#FFF8F8"/>
        <path d="m50.277 36.533-8.498 4.977 2.792 5.949 6.677-6.07s1.7-.486 1.214-1.214c-.607-.85-2.064-1.578-2.185-3.642Z" fill="#FFF8F8"/>
        <path d="m41.779 67.125-9.712-27.92-3.277 2.67-3.4 1.82 4.25 7.042 1.942-.122-1.336 4.128L41.78 67.125Z" fill="#363636"/>
        <path d="M49 60H34.5v23.5H49V60Z" fill="#363636"/>
        <path d="m41.78 67.125 9.832-27.92 3.157 2.427 3.763 2.064-4.492 7.04-1.942-.12 1.214 4.127-11.533 12.382Z" fill="#363636"/>
    </g>
    <defs>
        <clipPath id="ia">
            <rect width="84" height="84" rx="42" fill="#fff"/>
        </clipPath>
    </defs>
</svg><svg fill="none" viewBox="0 0 84 84" id="take-services" xmlns="http://www.w3.org/2000/svg">
    <path d="M53.89 17.684c-2.348-2.072-4.559-3.177-7.736-3.04h-.415c-1.381-.552-2.625-.966-3.315-.828-1.106.276-1.935.829-2.625 1.52v-.139c-.691-1.657-2.487-.967-3.178.277-.276.138-.415.414-.553.69-1.243 0-2.486 0-3.868.415-.69.138-1.382.967-1.382 1.796.277 3.178 1.106 6.217 2.073 9.257.552 1.796.69 3.592 2.072 4.835 0 .415 0 4.56-2.349 7.46-.829.968 1.106 3.316 1.658 3.73.553.415 1.244.692 1.796.83.83 2.21 3.454 3.04 6.494 2.072.69-.138 1.243-.414 1.934-.829l.138.139c.69.69 2.072.828 2.625 0 .83-.968 1.382-1.935 2.901-2.073 1.106 0 2.764-2.625 2.35-3.73-1.244-3.04-2.35-4.698-2.488-7.875.83-.83 1.382-1.658 1.244-2.902v-.276c.138-.276.276-.414.414-.69.967-1.659 1.934-4.836 1.105-7.047.553-.138.968-.414 1.382-.829.414-.828.553-2.072-.276-2.763Z" fill="#FFE2C2"/>
    <path d="M58.727 52.362c0 .138 0 .138 0 0h.414c-.138 0-.276-.138-.552-.138-.415-.138-.83-.553-1.106-.967-.138-.138-.276-.277-.276-.415v1.934c.553 0 1.105-.138 1.52-.414Z" fill="#363636"/>
    <path d="M68.121 52.914v-2.072c0-1.105-.138-2.349-.414-3.592-.276-1.243-.967-2.763-1.934-4.145-.967-1.381-7.184-4.144-7.875-4.006-1.52.138-2.487.552-3.04.69-.276.139-.552.277-.829.277-.276.138-.414.138-.414.138-3.316 1.382-4.836 5.25-3.316 8.566 1.243 2.901 4.283 4.283 7.184 3.73v-1.934c0 .138.138.276.277.414.276.277.69.691 1.105.967.276.139.414.139.552.139h.139-.691c-.415.138-.967.276-1.382.414 0 .414 0 .69.138 1.105.139 1.796.553 3.454.83 5.25l.414 2.487 9.533-5.664c-.277-.691-.277-1.796-.277-2.764Z" fill="#363636"/>
    <path d="M63.286 84h5.802c-.276-1.658.691-14.506.553-16.164a153.97 153.97 0 0 1-1.243-10.5c0-.415-.138-.967-.138-1.382l-9.533 5.665c.552 2.763 1.105 5.526 1.796 8.289C60.66 71.29 62.87 83.309 63.286 84Z" fill="#EBC59B"/>
    <path d="M16.036 52.914v-2.072c0-1.105.138-2.349.415-3.592.276-1.243.967-2.763 1.934-4.145.967-1.381 7.184-4.144 7.875-4.006 1.52.138 2.487.552 3.04.69.276.139.552.277.828.277.276.138.415.138.415.138 3.315 1.382 4.835 5.25 3.315 8.566-1.243 2.901-4.282 4.283-7.184 3.73v-1.934c0 .138-.138.276-.276.414-.276.277-.69.691-1.105.967-.277.139-.415.139-.553.139h-.138.691c.414.138.967.276 1.381.414 0 .414 0 .69-.138 1.105-.138 1.796-.553 3.454-.829 5.25l-.414 2.487-9.533-5.664c.138-.691.276-1.796.276-2.764Z" fill="#363636"/>
    <path d="M20.733 84H14.93c.277-1.658-.69-14.506-.552-16.164.553-3.592.967-7.184 1.243-10.5 0-.415.138-.967.138-1.382l9.533 5.665c-.552 2.763-1.105 5.526-1.796 8.289-.138 1.382-2.21 13.401-2.763 14.092Z" fill="#EBC59B"/>
    <path d="M26.536 52.362c0 .138.138.138 0 0h-.415c.138 0 .276-.138.553-.138.414-.138.829-.553 1.105-.967.138-.138.276-.277.276-.415v1.934c-.552 0-.967-.138-1.52-.414Z" fill="#363636"/>
    <path d="M59.417 84c-1.243-30.118 1.382-45.178-2.486-45.178h-4.56c-2.072 3.73-5.94 6.217-10.361 6.217s-8.29-2.486-10.362-6.217H27.64c-3.868 0-2.625 15.612-2.487 45.178h34.263Z" fill="#FFD24D"/>
    <path d="M53.062 18.651c-.829 2.21-1.243 4.421-1.381 6.632-.139 2.349-1.106 4.421-2.211 6.355-.829.415-1.52.691-2.21.691a27.425 27.425 0 0 0-.83-4.421c-.967-.829-2.21-1.52-3.592-1.796v1.658c.968.138 1.797.552 2.487 1.105.691 1.244.967 2.487 1.244 3.868-1.244.968-3.316 1.382-4.56 1.52-1.243-.138-2.763-.552-4.006-1.52.276-1.381.553-2.625 1.243-3.868.691-.553 1.52-.829 2.487-1.105v-1.658c-1.381.276-2.487.967-3.592 1.796-.414 1.52-.69 3.04-.829 4.421-.69-.138-1.381-.415-2.21-.69-1.244-1.935-2.073-4.145-2.21-6.356 0-2.21-.415-4.421-1.383-6.632h-1.381l1.52 7.046c.552 2.21 1.52 4.422 2.901 6.356a4.88 4.88 0 0 1 1.934 1.796c1.244 1.658 3.316 2.487 5.112 2.901.138 0 .138 0 .276.138h.277c1.934-.414 4.42-1.243 5.664-2.901.553-.83 1.244-1.382 2.073-1.796 1.381-1.934 2.486-4.145 2.9-6.355l1.659-7.046h-1.382v-.139ZM55.273 84l-3.316-21.553H32.615L29.299 84h25.974Z" fill="#363636"/>
    <path d="m51.957 64.105-3.73-.553 3.73-24.73h3.868l-3.868 25.283ZM32.614 64.105l3.73-.553-3.73-24.73h-3.868l3.869 25.283Z" fill="#363636"/>
    <path d="M34.964 64.105c0 .415-.277.691-.691.691-.415 0-.691-.276-.691-.69 0-.415.276-.691.69-.691.415 0 .692.414.692.69ZM50.575 64.105c0 .415-.276.691-.69.691-.415 0-.692-.276-.692-.69 0-.415.277-.691.691-.691.415 0 .69.414.69.69Z" fill="#fff"/>
    <path d="M55.549 16.441c0-5.803-2.625-10.776-6.494-13.54-1.934-1.381-4.283-1.243-6.908-1.243-2.486 0-4.835-.138-6.907 1.244-3.869 2.763-6.494 7.736-6.494 13.539 0 .69 0 1.382.138 2.21h26.388c.277-.828.277-1.52.277-2.21Z" fill="#FFD24D"/>
    <path d="M29.575 18.651h25.421c.829 0 1.382-.552 1.382-1.381v-3.04H28.193v3.04c0 .69.553 1.381 1.382 1.381Z" fill="#FFD24D"/>
    <path d="M42.285 1.658c-2.486 0-4.697-.138-6.77 1.244l1.382 13.539h10.638l1.382-13.54c-1.934-1.381-4.145-1.243-6.632-1.243Z" fill="#FFD24D"/>
    <path d="M39.523 2.21V1.106c0-.69.552-1.105 1.381-1.105h2.763c.83 0 1.382.414 1.382 1.105v1.106h-5.526ZM39.937 2.763s-3.177.138-5.802 2.902c-2.625 2.763-4.007 7.322-4.007 7.322h4.007c0-.138.414-6.08 5.802-10.224Z" fill="#FFD24D"/>
</svg></svg>