<?xml version="1.0" encoding="UTF-8"?> <!-- Generator: Adobe Illustrator 19.1.0, SVG Export Plug-In . SVG Version: 6.00 Build 0) --> <svg xmlns="http://www.w3.org/2000/svg" xmlns:xlink="http://www.w3.org/1999/xlink" id="Layer_1" x="0px" y="0px" viewBox="-237 361.4 119.5 119.5" style="enable-background:new -237 361.4 119.5 119.5;" xml:space="preserve"> <style type="text/css"> .st0{fill:#FFFFFF;} </style> <g> <path class="st0" d="M-194,478.4c0-0.1,0-0.1,0.1-0.2c3.2-4.9,5-10.3,6.6-15.9c1.1-4,2.1-8.1,3.2-12.1c0.1-0.2,0.1-0.4,0.3-0.8 c0.2,0.3,0.3,0.5,0.5,0.7c4.1,4.9,9.5,6.9,15.8,6.5c8.3-0.4,14.9-4.1,20.1-10.4c6.2-7.5,9.8-16,10.2-25.7c0.2-5,0-9.9-1.6-14.7 c-2.2-6.6-6.3-11.8-11.6-16c-7-5.5-15-8-23.8-8.2c-8.6-0.2-16.8,1.6-24.3,6c-11.5,6.6-17.5,16.6-18.9,29.6 c-0.6,5.6,0.3,11.1,3.1,16.2c1.5,2.7,3.6,5,6.1,7c1.1,0.8,2.3,1.5,3.7,1.6c0.7,0,1.2-0.2,1.5-0.8c1.2-2.1,1.9-4.3,2.1-6.7 c0.1-0.8-0.2-1.6-0.8-2.2c-3.7-4-4.7-8.8-4.1-14c1-8.7,4.8-16,12-21.4c3.6-2.7,7.7-4.1,12.1-4.7c5.4-0.7,10.7-0.5,15.9,1.5 c8.1,3.2,12.9,9.2,13.8,17.9c0.9,8.9-0.8,17.4-5.1,25.4c-1.8,3.2-4.1,6-7.4,7.9c-3.5,1.9-7.2,2-10.8,0.5c-2.8-1.1-4.3-3.3-4.6-6.4 c-0.2-2.4,0.1-4.7,0.8-6.9c0.8-2.9,1.7-5.7,2.5-8.6c0.9-3.2,1.6-6.5,1.6-9.9c0-1-0.1-1.9-0.3-2.9c-0.8-4.2-3.8-6.5-8.1-6 c-4.1,0.4-6.9,2.8-8.7,6.4c-2,4-2.5,8.3-1.9,12.7c0.1,0.9,0.5,1.7,0.7,2.5c0.2,0.7,0.5,1.4,0.7,2c0.3,1.2,0.3,2.3-0.1,3.4 c-3,10.6-5.8,21.3-7.5,32.2c-0.6,3.7-0.7,7.5-1,11.2c0,0.2,0,0.4,0,0.7c-10.1-4.5-18.4-11.2-24.6-20.2c-9.9-14.2-13.2-30-9.6-46.9 c6.9-33.3,40.5-54.6,74.5-45c33.5,9.4,51.8,45.5,39.7,78C-133.1,473.7-166.8,486.8-194,478.4z"></path> </g> </svg> 