<?xml version="1.0" encoding="UTF-8"?> <!-- Generator: Adobe Illustrator 24.1.0, SVG Export Plug-In . SVG Version: 6.00 Build 0) --> <svg xmlns="http://www.w3.org/2000/svg" xmlns:xlink="http://www.w3.org/1999/xlink" id="Layer_1" x="0px" y="0px" viewBox="0 0 122.28 121.89" style="enable-background:new 0 0 122.28 121.89;" xml:space="preserve"> <style type="text/css"> .st0{fill:#FFFFFF;} </style> <path class="st0" d="M61.01,122C27.32,122.01-0.01,94.67,0,60.99C0.01,27.3,27.34-0.02,61.02,0c33.69,0.02,61,27.35,60.98,61.04 C121.97,94.71,94.67,122,61.01,122z M52.14,73.96c0.21,0.15,2.78,2.45,2.96,2.58c4.75,3.52,15.16,11.22,19.94,14.69 c0.68,0.49,1.55,0.8,2.38,1c1.17,0.29,2.16-0.18,2.74-1.23c0.38-0.7,0.67-1.49,0.84-2.27c3.26-15.24,6.49-30.48,9.73-45.72 c0.26-1.25,0.61-2.49,0.41-3.79c-0.25-1.62-1.41-2.63-3.04-2.52c-0.46,0.03-0.92,0.16-1.35,0.33c-3.68,1.41-7.35,2.84-11.03,4.26 c-15.88,6.13-31.77,12.25-47.64,18.4c-0.91,0.35-1.79,0.89-2.54,1.51c-1.03,0.87-0.91,1.94,0.24,2.66c0.59,0.37,1.28,0.62,1.95,0.83 c4.67,1.47,9.34,2.91,14.02,4.35c0.41,0.13,0.62,0.33,0.74,0.75c8.19-4.49,25.77-14.79,28.98-14.73 C73.36,55.1,51.48,74.6,52.14,73.96z"></path> </svg> 