<svg width="229" height="212" viewBox="0 0 229 212" fill="none" xmlns="http://www.w3.org/2000/svg">
<path d="M250.854 191.016V203.135C250.854 206.941 249.068 210.747 245.498 212.922L144.112 274.4C134.429 280.299 122.497 280.299 112.812 274.4L6.20889 208.927C2.70138 206.791 0.925498 203.079 0.864642 199.339L0.853555 199.336V187.051L250.854 191.016Z" fill="url(#paint0_linear_2039_1826)"/>
<path d="M245.498 200.803L144.112 262.281C134.429 268.18 122.497 268.18 112.812 262.281L6.20889 196.809C-0.93154 192.46 -0.93154 181.584 6.20889 177.236L107.595 115.757C117.278 109.858 129.21 109.858 138.895 115.757L245.498 181.23C252.639 185.58 252.639 196.453 245.498 200.803Z" fill="url(#paint1_linear_2039_1826)"/>
<path d="M225.43 59.8517L128.359 0.490404C127.223 -0.202242 125.949 -0.1186 124.948 0.474818L124.946 0.470929L124.918 0.488445L124.911 0.494293L116.166 5.79809L123.192 17.2384V100.109C123.192 104.971 125.65 109.461 129.641 111.893L212.4 162.503L221.128 176.716L230.057 171.309L230.051 171.302C231.108 170.704 231.879 169.552 231.879 168.107V71.6364C231.877 66.7743 229.419 62.2818 225.43 59.8517Z" fill="#DFDAEF"/>
<path d="M119.538 5.83312L216.609 65.1944C220.6 67.6245 223.058 72.117 223.058 76.9772V173.448C223.058 176.245 220.187 177.994 217.889 176.596L120.818 117.234C116.827 114.804 114.369 110.312 114.369 105.45V8.97922C114.371 6.18335 117.242 4.43421 119.538 5.83312Z" fill="url(#paint2_linear_2039_1826)"/>
<path d="M164.439 67.014V126.825L124.184 102.304V42.4932L164.439 67.014Z" fill="#D5C9F1"/>
<path d="M210.611 95.1068V117.999L170.355 93.4782V70.5859L210.611 95.1068Z" fill="#D5C9F1"/>
<path d="M210.611 130.673V153.565L170.355 129.045V106.152L210.611 130.673Z" fill="#D5C9F1"/>
<path d="M231.877 71.6364C231.877 66.7743 229.419 62.2837 225.428 59.8517L128.357 0.490404C127.221 -0.202242 125.947 -0.1186 124.946 0.474818L124.944 0.470929L124.916 0.488445L124.909 0.494293L116.164 5.79809L223.058 90.5032L231.877 85.1313V71.6364Z" fill="url(#paint3_linear_2039_1826)"/>
<path d="M119.538 5.8331L216.609 65.1944C220.6 67.6245 223.058 72.117 223.058 76.9772V90.5012L114.371 24.0637V8.98115C114.371 6.18333 117.242 4.43418 119.538 5.8331Z" fill="url(#paint4_linear_2039_1826)"/>
<path d="M216.219 76.6969C216.219 79.7399 214.465 81.1369 212.304 79.8197C210.141 78.5025 208.389 74.9692 208.389 71.9262C208.389 68.8833 210.142 67.4863 212.304 68.8035C214.465 70.1207 216.219 73.6539 216.219 76.6969Z" fill="#FF7A85"/>
<path d="M153.919 70.8248L60.9277 14.1797V169.826L153.919 226.47V70.8248Z" fill="url(#paint5_linear_2039_1826)"/>
<path d="M118.695 81.0763V93.7073L81.6758 71.1574V58.5264L118.695 81.0763Z" fill="#06DAAE"/>
<path d="M146.294 127.389V140.02L109.275 117.47V104.839L146.294 127.389Z" fill="#FF4757"/>
<path d="M114.37 135.338V147.969L77.3516 125.419V112.788L114.37 135.338Z" fill="#79D3FE"/>
<path d="M121.066 183.449V196.078L84.0469 173.529V160.897L121.066 183.449Z" fill="#F7E041"/>
<path d="M141.859 81.0472L108.019 60.4332C106.358 59.4215 104.279 60.6861 104.279 62.7115C104.279 64.7175 105.294 66.5717 106.94 67.5756L140.78 88.1896C142.442 89.2013 144.52 87.9367 144.52 85.9113C144.52 83.9034 143.506 82.0492 141.859 81.0472Z" fill="#43386B"/>
<path d="M142.318 99.075L70.4362 55.2904C69.339 54.6231 67.9688 55.4577 67.9688 56.7944C67.9688 58.454 68.8078 59.9892 70.1706 60.818L142.053 104.603C143.15 105.27 144.52 104.435 144.52 103.099C144.52 101.441 143.681 99.9058 142.318 99.075Z" fill="#43386B"/>
<path d="M142.318 113.364L70.4362 69.5795C69.339 68.9121 67.9688 69.7468 67.9688 71.0835C67.9688 72.7431 68.8078 74.2782 70.1706 75.1071L142.053 118.892C143.15 119.559 144.52 118.724 144.52 117.39C144.52 115.73 143.681 114.195 142.318 113.364Z" fill="#43386B"/>
<path d="M142.319 127.655L84.6197 92.3959C83.5225 91.7286 82.1523 92.5633 82.1523 93.8999C82.1523 95.5595 82.9914 97.0946 84.3542 97.9235L142.053 133.182C143.15 133.85 144.52 133.015 144.52 131.678C144.52 130.019 143.681 128.484 142.319 127.655Z" fill="#43386B"/>
<path d="M142.318 141.943L70.4362 98.1586C69.339 97.4913 67.9688 98.3259 67.9688 99.6626C67.9688 101.322 68.8078 102.857 70.1706 103.686L142.053 147.471C143.15 148.138 144.52 147.303 144.52 145.967C144.52 144.307 143.681 142.772 142.318 141.943Z" fill="#43386B"/>
<path d="M142.318 156.232L70.4362 112.448C69.339 111.78 67.9688 112.615 67.9688 113.952C67.9688 115.611 68.8078 117.146 70.1706 117.975L142.053 161.76C143.15 162.427 144.52 161.592 144.52 160.256C144.52 158.596 143.681 157.061 142.318 156.232Z" fill="#43386B"/>
<path d="M142.318 170.52L106.778 148.745C105.681 148.077 104.311 148.912 104.311 150.249C104.311 151.908 105.15 153.443 106.512 154.272L142.052 176.048C143.15 176.715 144.52 175.88 144.52 174.544C144.52 172.884 143.681 171.349 142.318 170.52Z" fill="#43386B"/>
<path d="M142.318 184.809L70.4362 141.025C69.339 140.357 67.9688 141.192 67.9688 142.529C67.9688 144.188 68.8078 145.724 70.1706 146.552L142.053 190.337C143.15 191.004 144.52 190.17 144.52 188.835C144.52 187.173 143.681 185.64 142.318 184.809Z" fill="#43386B"/>
<path d="M142.318 199.098L70.4362 155.314C69.339 154.647 67.9688 155.481 67.9688 156.816C67.9688 158.476 68.8078 160.011 70.1706 160.839L142.053 204.624C143.15 205.291 144.52 204.457 144.52 203.12C144.52 201.462 143.681 199.929 142.318 199.098Z" fill="#43386B"/>
<path d="M179.656 213.333V165.103" stroke="url(#paint6_linear_2039_1826)" stroke-width="2.7954" stroke-miterlimit="10" stroke-linecap="round"/>
<path d="M180.805 166.726L209.918 184.46L180.805 193.219V166.726Z" fill="#FF4757"/>
<path d="M17.291 21.8359L31.9683 0L46.6475 39.7162L39.6178 35.4359V56.3514L24.319 47.0318V26.1163L17.291 21.8359Z" fill="url(#paint7_linear_2039_1826)"/>
<path d="M57.5894 184.131L57.5838 184.143C56.6636 183.534 55.4557 183.538 54.1169 184.353C51.2493 186.1 48.9238 190.787 48.9238 194.823C48.9238 197.157 49.7168 198.729 50.9284 199.329L57.9674 203.609L64.6542 188.373L57.5894 184.131Z" fill="url(#paint8_linear_2039_1826)"/>
<path d="M78.2542 196.675L64.652 188.373L64.6189 188.449C63.7337 188.003 62.629 188.064 61.4138 188.803C58.5462 190.55 56.2207 195.237 56.2207 199.272C56.2207 201.726 57.0874 203.358 58.4078 203.88L71.4199 211.806L78.2542 196.675Z" fill="white"/>
<path d="M78.2553 196.675L78.2424 196.704C77.3591 196.265 76.2582 196.327 75.0466 197.064C72.179 198.812 69.8535 203.499 69.8535 207.534C69.8535 209.583 70.4566 211.061 71.4229 211.799L71.421 211.805L158.812 264.969L165.796 249.916L78.2553 196.675Z" fill="url(#paint9_linear_2039_1826)"/>
<defs>
<linearGradient id="paint0_linear_2039_1826" x1="144.599" y1="232.939" x2="116.456" y2="232.939" gradientUnits="userSpaceOnUse">
<stop stop-color="#C9C9C9"/>
<stop offset="0.4363" stop-color="#E3E3E3"/>
<stop offset="1" stop-color="#CDCDCD"/>
</linearGradient>
<linearGradient id="paint1_linear_2039_1826" x1="194.56" y1="140.239" x2="32.6571" y2="243.508" gradientUnits="userSpaceOnUse">
<stop stop-color="#E3E3E3"/>
<stop offset="1" stop-color="#E8E8E8"/>
</linearGradient>
<linearGradient id="paint2_linear_2039_1826" x1="168.715" y1="151.515" x2="168.715" y2="17.6702" gradientUnits="userSpaceOnUse">
<stop stop-color="#F2EFFA"/>
<stop offset="1" stop-color="white"/>
</linearGradient>
<linearGradient id="paint3_linear_2039_1826" x1="204.255" y1="92.1414" x2="195.497" y2="77.7647" gradientUnits="userSpaceOnUse">
<stop stop-color="#0072BC"/>
<stop offset="1" stop-color="#C9EDFF"/>
</linearGradient>
<linearGradient id="paint4_linear_2039_1826" x1="168.715" y1="75.5774" x2="168.715" y2="28.582" gradientUnits="userSpaceOnUse">
<stop stop-color="#2F97F7"/>
<stop offset="1" stop-color="#79D3FE"/>
</linearGradient>
<linearGradient id="paint5_linear_2039_1826" x1="107.423" y1="67.9405" x2="107.423" y2="232.3" gradientUnits="userSpaceOnUse">
<stop stop-color="#F2EFFA"/>
<stop offset="1" stop-color="white"/>
</linearGradient>
<linearGradient id="paint6_linear_2039_1826" x1="-nan" y1="-nan" x2="-nan" y2="-nan" gradientUnits="userSpaceOnUse">
<stop stop-color="#594A8E"/>
<stop offset="1" stop-color="#7662BD"/>
</linearGradient>
<linearGradient id="paint7_linear_2039_1826" x1="31.9687" y1="70.0553" x2="31.9687" y2="14.0516" gradientUnits="userSpaceOnUse">
<stop offset="0.0319" stop-color="#2F878A"/>
<stop offset="0.2629" stop-color="#289690"/>
<stop offset="0.7041" stop-color="#15BDA1"/>
<stop offset="1" stop-color="#06DAAE"/>
</linearGradient>
<linearGradient id="paint8_linear_2039_1826" x1="52.4291" y1="199.4" x2="58.703" y2="189.1" gradientUnits="userSpaceOnUse">
<stop stop-color="#FF4757"/>
<stop offset="1" stop-color="#FF7A85"/>
</linearGradient>
<linearGradient id="paint9_linear_2039_1826" x1="114.377" y1="234.498" x2="118.802" y2="227.234" gradientUnits="userSpaceOnUse">
<stop stop-color="#FFA538"/>
<stop offset="0.3168" stop-color="#FDB43A"/>
<stop offset="0.9225" stop-color="#F8DB40"/>
<stop offset="1" stop-color="#F7E041"/>
</linearGradient>
</defs>
</svg>
