<?xml version="1.0" encoding="UTF-8"?> <!-- Generator: Adobe Illustrator 24.1.0, SVG Export Plug-In . SVG Version: 6.00 Build 0) --> <svg xmlns="http://www.w3.org/2000/svg" xmlns:xlink="http://www.w3.org/1999/xlink" id="Layer_1" x="0px" y="0px" viewBox="0 0 418.02 174.75" style="enable-background:new 0 0 418.02 174.75;" xml:space="preserve"> <style type="text/css"> .st0{fill:#FFFFFF;} </style> <g> <path class="st0" d="M29.84,105.28V70.57h3.89v14.72l4.52-14.72h4.12L37.1,86.95L43,105.22h-4.12l-5.15-16.78v16.78h-3.89V105.28z"></path> <path class="st0" d="M53.93,70.57h3.89v34.71h-3.89V70.57z"></path> <path class="st0" d="M73.39,105.28V74.23h-4.58v-3.67H81.8v3.67h-4.58v31.05H73.39z"></path> <path class="st0" d="M99.6,101.21c0.34-0.57,0.4-1.55,0.4-3.32v-5.73h3.89v5.84c0,2.98-0.57,4.58-1.14,5.44 c-0.63,0.92-2,2.29-4.69,2.29c-2.52,0-3.95-1.32-4.64-2.35c-1.32-1.95-1.32-4.7-1.32-6.47V77.96c0-2,0.06-4.01,1.32-5.73 c0.69-0.92,2.17-2.18,4.86-2.18c1.66,0,3.26,0.57,4.35,2c1.43,1.95,1.32,4.7,1.32,6.36v3.84h-3.72v-5.21c0-0.8,0-1.95-0.57-2.64 c-0.29-0.34-0.8-0.69-1.6-0.69s-1.32,0.34-1.6,0.69c-0.57,0.69-0.57,1.83-0.57,2.64v20.85c0,1.78,0.06,2.75,0.4,3.32 c0.17,0.29,0.63,0.92,1.66,0.92C98.97,102.07,99.48,101.5,99.6,101.21z"></path> <path class="st0" d="M119.74,88.33v16.9h-3.89V70.57h3.89v14.15h4.18V70.57h3.89v34.71h-3.89V88.33H119.74z"></path> <path class="st0" d="M140.23,70.57h10.19v3.67h-6.35v10.88h4.06v3.67h-4.06v12.83h6.35v3.67h-10.19V70.57z"></path> <path class="st0" d="M165.53,78.7l-0.17,0.06l0.17,3.15v23.37h-3.89V70.57h5.49l4.58,25.78h0.17l-0.23-2.92V70.57h3.89v34.71h-5.15 L165.53,78.7z"></path> <path class="st0" d="M210.62,101.21c0.34-0.57,0.4-1.55,0.4-3.32v-5.73h3.89v5.84c0,2.98-0.57,4.58-1.14,5.44 c-0.63,0.92-2,2.29-4.69,2.29c-2.52,0-3.95-1.32-4.64-2.35c-1.32-1.95-1.32-4.7-1.32-6.47V77.96c0-2,0.06-4.01,1.32-5.73 c0.69-0.92,2.17-2.18,4.86-2.18c1.66,0,3.26,0.57,4.35,2c1.43,1.95,1.32,4.7,1.32,6.36v3.84h-3.72v-5.21c0-0.8,0-1.95-0.57-2.64 c-0.29-0.34-0.8-0.69-1.6-0.69c-0.8,0-1.32,0.34-1.6,0.69c-0.57,0.69-0.57,1.83-0.57,2.64v20.85c0,1.78,0.06,2.75,0.4,3.32 c0.17,0.29,0.63,0.92,1.66,0.92C209.99,102.13,210.51,101.5,210.62,101.21z"></path> <path class="st0" d="M226.88,70.57h10.19v3.67h-6.35v10.88h4.06v3.67h-4.06v12.83h6.35v3.67h-10.19V70.57z"></path> <path class="st0" d="M256.58,105.28c-0.52-0.97-0.69-2-0.69-4.12v-8.36c0-0.92-0.06-1.89-0.52-2.52c-0.4-0.57-1.2-0.97-2.06-0.97 h-1.09v15.98h-3.89V70.57h5.84c1.26,0,3.43,0.23,4.81,2.29c1.03,1.55,1.09,3.61,1.09,4.58v4.18c0,1.37-0.11,3.15-0.97,4.3 c-0.52,0.63-1.32,1.15-2.35,1.32v0.17c0.92,0.29,1.43,0.8,1.66,1.09c1.32,1.43,1.32,3.32,1.32,4.41v7.45c0,2.23,0,3.44,1.09,4.64 v0.23h-4.23V105.28z M253.66,85.63c0.57,0,1.6-0.06,2.17-0.92c0.17-0.23,0.51-0.86,0.51-2.69v-4.75c0-0.74,0-1.72-0.57-2.41 c-0.63-0.69-1.72-0.69-2.29-0.69h-1.32v11.4h1.49V85.63z"></path> <path class="st0" d="M272.03,70.57h10.19v3.67h-6.3v10.88h4.06v3.67h-4.06v12.83h6.35v3.67h-10.19V70.57H272.03z"></path> <path class="st0" d="M301.04,105.28l-3.89-28.13h-0.17l0.34,4.58v23.49h-3.89V70.57h5.95l2.98,22.28h0.11l2.98-22.28h5.95v34.71 h-3.89V81.8l0.34-4.58h-0.17l-3.89,28.13h-2.75V105.28z"></path> <path class="st0" d="M325.08,103.74c-1.43-1.83-1.32-4.3-1.32-6.07V78.19c0-1.78-0.17-4.24,1.32-6.07 c0.57-0.69,1.89-2.01,4.58-2.01c2.75,0,4.06,1.32,4.58,2.01c1.43,1.83,1.32,4.3,1.32,6.07v19.42c0,1.78,0.17,4.24-1.32,6.07 c-0.57,0.69-1.89,2-4.58,2C326.97,105.74,325.59,104.42,325.08,103.74z M327.66,98.47c0,1.72,0.11,2.35,0.29,2.69 c0.23,0.52,0.86,0.92,1.72,0.92c0.92,0,1.49-0.46,1.72-0.92c0.17-0.34,0.29-0.92,0.29-2.69V77.33c0-1.72-0.11-2.35-0.29-2.69 c-0.23-0.52-0.86-0.92-1.72-0.92c-0.92,0-1.49,0.46-1.72,0.92c-0.17,0.34-0.29,0.92-0.29,2.69V98.47z"></path> <path class="st0" d="M351.69,78.7l-0.17,0.06l0.17,3.15v23.37h-3.89V70.57h5.49l4.58,25.78h0.17l-0.23-2.92V70.57h3.89v34.71h-5.15 L351.69,78.7z"></path> <path class="st0" d="M378.07,105.28V90.73l-5.32-20.16h3.95l2.98,13.52l0.11,1.26h0.17l0.11-1.26l2.98-13.52H387l-5.32,20.16v14.55 H378.07z"></path> </g> </svg> 