<svg width="53" height="52" viewBox="0 0 53 52" fill="none" xmlns="http://www.w3.org/2000/svg">
<mask id="mask0_619_2744" style="mask-type:alpha" maskUnits="userSpaceOnUse" x="0" y="0" width="53" height="52">
<rect x="0.600098" width="52" height="52" fill="#D9D9D9"/>
</mask>
<g mask="url(#mask0_619_2744)">
<path d="M33.1001 43.3334C28.2612 43.3334 24.1626 41.6542 20.8042 38.2959C17.4459 34.9376 15.7667 30.839 15.7667 26.0001C15.7667 21.1973 17.4459 17.1077 20.8042 13.7313C24.1626 10.3549 28.2612 8.66675 33.1001 8.66675C37.9028 8.66675 41.9924 10.3549 45.3688 13.7313C48.7452 17.1077 50.4334 21.1973 50.4334 26.0001C50.4334 30.839 48.7452 34.9376 45.3688 38.2959C41.9924 41.6542 37.9028 43.3334 33.1001 43.3334ZM38.0292 34.0709L41.1167 30.9834L35.2667 25.1334V17.3334H30.9334V26.9209L38.0292 34.0709ZM4.93339 19.5001V15.1667H13.6001V19.5001H4.93339ZM2.76672 28.1667V23.8334H13.6001V28.1667H2.76672ZM4.93339 36.8334V32.5001H13.6001V36.8334H4.93339Z" fill="#4DA10B"/>
</g>
</svg>
