<svg width="52" height="52" viewBox="0 0 52 52" fill="none" xmlns="http://www.w3.org/2000/svg">
<mask id="mask0_619_2714" style="mask-type:alpha" maskUnits="userSpaceOnUse" x="0" y="0" width="52" height="52">
<rect width="52" height="52" fill="#D9D9D9"/>
</mask>
<g mask="url(#mask0_619_2714)">
<path d="M26 30.3333C25.3861 30.3333 24.8715 30.1256 24.4563 29.7103C24.041 29.2951 23.8333 28.7805 23.8333 28.1666C23.8333 27.5527 24.041 27.0381 24.4563 26.6228C24.8715 26.2076 25.3861 25.9999 26 25.9999C26.6139 25.9999 27.1285 26.2076 27.5438 26.6228C27.959 27.0381 28.1667 27.5527 28.1667 28.1666C28.1667 28.7805 27.959 29.2951 27.5438 29.7103C27.1285 30.1256 26.6139 30.3333 26 30.3333ZM17.3333 30.3333C16.7194 30.3333 16.2049 30.1256 15.7896 29.7103C15.3743 29.2951 15.1667 28.7805 15.1667 28.1666C15.1667 27.5527 15.3743 27.0381 15.7896 26.6228C16.2049 26.2076 16.7194 25.9999 17.3333 25.9999C17.9472 25.9999 18.4618 26.2076 18.8771 26.6228C19.2924 27.0381 19.5 27.5527 19.5 28.1666C19.5 28.7805 19.2924 29.2951 18.8771 29.7103C18.4618 30.1256 17.9472 30.3333 17.3333 30.3333ZM34.6667 30.3333C34.0528 30.3333 33.5382 30.1256 33.1229 29.7103C32.7076 29.2951 32.5 28.7805 32.5 28.1666C32.5 27.5527 32.7076 27.0381 33.1229 26.6228C33.5382 26.2076 34.0528 25.9999 34.6667 25.9999C35.2806 25.9999 35.7951 26.2076 36.2104 26.6228C36.6257 27.0381 36.8333 27.5527 36.8333 28.1666C36.8333 28.7805 36.6257 29.2951 36.2104 29.7103C35.7951 30.1256 35.2806 30.3333 34.6667 30.3333ZM26 38.9999C25.3861 38.9999 24.8715 38.7923 24.4563 38.377C24.041 37.9617 23.8333 37.4471 23.8333 36.8333C23.8333 36.2194 24.041 35.7048 24.4563 35.2895C24.8715 34.8742 25.3861 34.6666 26 34.6666C26.6139 34.6666 27.1285 34.8742 27.5438 35.2895C27.959 35.7048 28.1667 36.2194 28.1667 36.8333C28.1667 37.4471 27.959 37.9617 27.5438 38.377C27.1285 38.7923 26.6139 38.9999 26 38.9999ZM17.3333 38.9999C16.7194 38.9999 16.2049 38.7923 15.7896 38.377C15.3743 37.9617 15.1667 37.4471 15.1667 36.8333C15.1667 36.2194 15.3743 35.7048 15.7896 35.2895C16.2049 34.8742 16.7194 34.6666 17.3333 34.6666C17.9472 34.6666 18.4618 34.8742 18.8771 35.2895C19.2924 35.7048 19.5 36.2194 19.5 36.8333C19.5 37.4471 19.2924 37.9617 18.8771 38.377C18.4618 38.7923 17.9472 38.9999 17.3333 38.9999ZM34.6667 38.9999C34.0528 38.9999 33.5382 38.7923 33.1229 38.377C32.7076 37.9617 32.5 37.4471 32.5 36.8333C32.5 36.2194 32.7076 35.7048 33.1229 35.2895C33.5382 34.8742 34.0528 34.6666 34.6667 34.6666C35.2806 34.6666 35.7951 34.8742 36.2104 35.2895C36.6257 35.7048 36.8333 36.2194 36.8333 36.8333C36.8333 37.4471 36.6257 37.9617 36.2104 38.377C35.7951 38.7923 35.2806 38.9999 34.6667 38.9999ZM10.8333 47.6666C9.64167 47.6666 8.62153 47.2423 7.77292 46.3937C6.92431 45.5451 6.5 44.5249 6.5 43.3333V12.9999C6.5 11.8083 6.92431 10.7881 7.77292 9.9395C8.62153 9.09089 9.64167 8.66659 10.8333 8.66659H13V4.33325H17.3333V8.66659H34.6667V4.33325H39V8.66659H41.1667C42.3583 8.66659 43.3785 9.09089 44.2271 9.9395C45.0757 10.7881 45.5 11.8083 45.5 12.9999V43.3333C45.5 44.5249 45.0757 45.5451 44.2271 46.3937C43.3785 47.2423 42.3583 47.6666 41.1667 47.6666H10.8333ZM10.8333 43.3333H41.1667V21.6666H10.8333V43.3333Z" fill="#4DA10B"/>
</g>
</svg>
