<svg width="53" height="52" viewBox="0 0 53 52" fill="none" xmlns="http://www.w3.org/2000/svg">
<mask id="mask0_619_2728" style="mask-type:alpha" maskUnits="userSpaceOnUse" x="0" y="0" width="53" height="52">
<rect x="0.399902" width="52" height="52" fill="#D9D9D9"/>
</mask>
<g mask="url(#mask0_619_2728)">
<path d="M32.9 43.3334C28.0611 43.3334 23.9625 41.6542 20.6041 38.2959C17.2458 34.9376 15.5666 30.839 15.5666 26.0001C15.5666 21.1612 17.2458 17.0626 20.6041 13.7042C23.9625 10.3459 28.0611 8.66675 32.9 8.66675C37.7389 8.66675 41.8375 10.3459 45.1958 13.7042C48.5541 17.0626 50.2333 21.1612 50.2333 26.0001C50.2333 30.839 48.5541 34.9376 45.1958 38.2959C41.8375 41.6542 37.7389 43.3334 32.9 43.3334ZM15.5666 42.7917C11.7389 41.7806 8.61526 39.7223 6.19582 36.6167C3.77637 33.5112 2.56665 29.9723 2.56665 26.0001C2.56665 22.0279 3.77637 18.489 6.19582 15.3834C8.61526 12.2779 11.7389 10.2195 15.5666 9.20841V13.7584C12.9666 14.6612 10.8722 16.232 9.28332 18.4709C7.69443 20.7098 6.89998 23.2195 6.89998 26.0001C6.89998 28.7806 7.69443 31.2904 9.28332 33.5292C10.8722 35.7681 12.9666 37.339 15.5666 38.2417V42.7917Z" fill="#4DA10B"/>
</g>
</svg>
