<svg width="53" height="52" viewBox="0 0 53 52" fill="none" xmlns="http://www.w3.org/2000/svg">
<mask id="mask0_619_2487" style="mask-type:alpha" maskUnits="userSpaceOnUse" x="0" y="0" width="53" height="52">
<rect x="0.199951" width="52" height="52" fill="#D9D9D9"/>
</mask>
<g mask="url(#mask0_619_2487)">
<path d="M8.86658 45.5001V25.1876L4.96658 28.1667L2.36658 24.7001L8.86658 19.7167V13.0001H13.1999V16.4126L26.1999 6.50008L50.0332 24.7001L47.4332 28.1126L43.5332 25.1876V45.5001H28.3666V32.5001H24.0332V45.5001H8.86658ZM8.86658 10.8334C8.86658 9.02786 9.49852 7.49314 10.7624 6.22925C12.0263 4.96536 13.561 4.33341 15.3666 4.33341C15.9805 4.33341 16.495 4.12578 16.9103 3.7105C17.3256 3.29522 17.5332 2.78064 17.5332 2.16675H21.8666C21.8666 3.9723 21.2346 5.50703 19.9707 6.77091C18.7069 8.0348 17.1721 8.66675 15.3666 8.66675C14.7527 8.66675 14.2381 8.87439 13.8228 9.28966C13.4075 9.70494 13.1999 10.2195 13.1999 10.8334H8.86658Z" fill="#4DA10B"/>
</g>
</svg>
