<svg width="53" height="52" viewBox="0 0 53 52" fill="none" xmlns="http://www.w3.org/2000/svg">
<mask id="mask0_619_2693" style="mask-type:alpha" maskUnits="userSpaceOnUse" x="0" y="0" width="53" height="52">
<rect x="0.800049" width="52" height="52" fill="#D9D9D9"/>
</mask>
<g mask="url(#mask0_619_2693)">
<path d="M13.8 47.6666C11.9945 47.6666 10.4598 47.0346 9.19588 45.7708C7.93199 44.5069 7.30005 42.9721 7.30005 41.1666V34.6666H13.8V4.33325H46.3V41.1666C46.3 42.9721 45.6681 44.5069 44.4042 45.7708C43.1403 47.0346 41.6056 47.6666 39.8 47.6666H13.8ZM39.8 43.3333C40.4139 43.3333 40.9285 43.1256 41.3438 42.7103C41.7591 42.2951 41.9667 41.7805 41.9667 41.1666V8.66659H18.1334V34.6666H37.6334V41.1666C37.6334 41.7805 37.841 42.2951 38.2563 42.7103C38.6716 43.1256 39.1862 43.3333 39.8 43.3333ZM20.3 19.4999V15.1666H39.8V19.4999H20.3ZM20.3 25.9999V21.6666H39.8V25.9999H20.3Z" fill="#4DA10B"/>
</g>
</svg>
