<svg width="23" height="23" viewBox="0 0 23 23" fill="none" xmlns="http://www.w3.org/2000/svg">
<path d="M7.9 20.7238C7.32391 21.3002 6.54256 21.6243 5.72762 21.6249H1.375V17.3004C1.375 16.4859 1.699 15.7041 2.275 15.1281M7.9 20.7238L2.275 15.1281M7.9 20.7238L19.1208 9.49857M2.275 15.1281L13.507 3.8837L15.1113 2.2772C15.3967 1.99129 15.7357 1.76445 16.1089 1.60964C16.4821 1.45484 16.8822 1.3751 17.2862 1.375C17.6902 1.3749 18.0903 1.45442 18.4636 1.60904C18.8369 1.76365 19.176 1.99031 19.4616 2.27607L20.7284 3.54395C21.305 4.12055 21.6289 4.90258 21.6289 5.71801C21.6289 6.53344 21.305 7.31547 20.7284 7.89207L19.1208 9.49857M19.1208 9.49857L13.5059 3.8837" stroke="#CACACA" stroke-width="1.5" stroke-linecap="round" stroke-linejoin="round"/>
</svg>
