<svg width="31" height="19" viewBox="0 0 31 19" fill="none" xmlns="http://www.w3.org/2000/svg">
<path d="M22.8926 3.36425L26.8068 0.710375C27.0153 0.56975 27.2734 0.5 27.5316 0.5C28.1412 0.5 28.6253 0.8825 28.6253 1.34375C28.6253 1.57662 28.4999 1.8095 28.2549 1.976L4.19241 18.2896C3.98533 18.4314 3.7272 18.5 3.46908 18.5C2.86387 18.5 2.37533 18.1243 2.37533 17.6562C2.37533 17.4234 2.50074 17.1905 2.74428 17.024L6.2997 14.6131C4.23762 13.3396 2.46866 11.7421 1.12699 10.0816C0.986992 9.90275 0.916992 9.70138 0.916992 9.5C0.916992 9.29862 0.98845 9.09725 1.12845 8.91838C4.20699 5.10462 9.55033 1.625 15.4974 1.625C18.1443 1.625 20.6541 2.29212 22.8926 3.36425ZM26.2745 5.423C27.6832 6.48388 28.9039 7.68875 29.8824 8.92962C30.0166 9.10513 30.0837 9.30313 30.0837 9.5C30.0837 9.69687 30.0166 9.89487 29.8824 10.0704C26.8666 13.8988 21.5393 17.375 15.4974 17.375C13.606 17.375 11.7743 17.0229 10.0593 16.4199L11.8778 15.1869C13.0372 15.5075 14.2491 15.6875 15.4974 15.6875C20.6249 15.6875 25.0874 12.7378 27.7664 9.5C26.8987 8.4515 25.8443 7.43225 24.6382 6.53337L26.2745 5.423ZM21.2666 8.81938C21.3103 9.041 21.3337 9.26825 21.3337 9.5C21.3337 11.984 18.7203 14 15.5003 14C14.9403 14 14.3978 13.9392 13.8859 13.8245L16.1901 12.2619C17.4953 12.0695 18.5541 11.3383 18.9624 10.382L21.2666 8.81938ZM21.182 4.52413C19.4364 3.77038 17.5187 3.3125 15.4974 3.3125C10.4443 3.3125 5.97012 6.2735 3.24158 9.5C4.48553 10.9715 6.09262 12.3879 7.95345 13.4926L10.4735 11.7837C9.96158 11.1144 9.66699 10.3336 9.66699 9.5C9.66699 7.016 12.2803 5 15.5003 5C16.8493 5 18.0918 5.35438 19.0805 5.94838L21.182 4.52413ZM17.3903 7.09475C16.8391 6.836 16.1916 6.6875 15.5003 6.6875C13.4878 6.6875 11.8545 7.9475 11.8545 9.5C11.8545 9.905 11.9653 10.2886 12.1651 10.6374L17.3903 7.09475Z" fill="#CACACA"/>
</svg>
