<svg width="21" height="23" viewBox="0 0 21 23" fill="none" xmlns="http://www.w3.org/2000/svg">
<path d="M8.20312 4.07812V4.46875H12.1094V4.07812C12.1094 3.56012 11.9036 3.06334 11.5373 2.69706C11.171 2.33078 10.6743 2.125 10.1562 2.125C9.63825 2.125 9.14146 2.33078 8.77518 2.69706C8.4089 3.06334 8.20312 3.56012 8.20312 4.07812ZM6.64062 4.46875V4.07812C6.64062 3.14572 7.01102 2.25151 7.67033 1.5922C8.32964 0.932895 9.22385 0.5625 10.1562 0.5625C11.0887 0.5625 11.9829 0.932895 12.6422 1.5922C13.3015 2.25151 13.6719 3.14572 13.6719 4.07812V4.46875H19.5312C19.7385 4.46875 19.9372 4.55106 20.0837 4.69757C20.2302 4.84409 20.3125 5.0428 20.3125 5.25C20.3125 5.4572 20.2302 5.65591 20.0837 5.80243C19.9372 5.94894 19.7385 6.03125 19.5312 6.03125H18.3531L16.875 18.975C16.766 19.9283 16.31 20.8081 15.5939 21.4467C14.8778 22.0853 13.9517 22.438 12.9922 22.4375H7.32031C6.36083 22.438 5.43474 22.0853 4.71863 21.4467C4.00253 20.8081 3.5465 19.9283 3.4375 18.975L1.95937 6.03125H0.78125C0.57405 6.03125 0.375336 5.94894 0.228823 5.80243C0.08231 5.65591 0 5.4572 0 5.25C0 5.0428 0.08231 4.84409 0.228823 4.69757C0.375336 4.55106 0.57405 4.46875 0.78125 4.46875H6.64062ZM4.99062 18.7969C5.05585 19.3687 5.32918 19.8965 5.75853 20.2797C6.18788 20.663 6.74323 20.8749 7.31875 20.875H12.993C13.5685 20.8749 14.1238 20.663 14.5532 20.2797C14.9825 19.8965 15.2559 19.3687 15.3211 18.7969L16.7812 6.03125H3.53203L4.99062 18.7969ZM7.8125 8.76562C8.0197 8.76562 8.21841 8.84793 8.36493 8.99445C8.51144 9.14096 8.59375 9.33967 8.59375 9.54688V17.3594C8.59375 17.5666 8.51144 17.7653 8.36493 17.9118C8.21841 18.0583 8.0197 18.1406 7.8125 18.1406C7.6053 18.1406 7.40659 18.0583 7.26007 17.9118C7.11356 17.7653 7.03125 17.5666 7.03125 17.3594V9.54688C7.03125 9.33967 7.11356 9.14096 7.26007 8.99445C7.40659 8.84793 7.6053 8.76562 7.8125 8.76562ZM13.2812 9.54688C13.2812 9.33967 13.1989 9.14096 13.0524 8.99445C12.9059 8.84793 12.7072 8.76562 12.5 8.76562C12.2928 8.76562 12.0941 8.84793 11.9476 8.99445C11.8011 9.14096 11.7188 9.33967 11.7188 9.54688V17.3594C11.7188 17.5666 11.8011 17.7653 11.9476 17.9118C12.0941 18.0583 12.2928 18.1406 12.5 18.1406C12.7072 18.1406 12.9059 18.0583 13.0524 17.9118C13.1989 17.7653 13.2812 17.5666 13.2812 17.3594V9.54688Z" fill="#CACACA"/>
</svg>
