<svg width="30" height="26" viewBox="0 0 30 26" fill="none" xmlns="http://www.w3.org/2000/svg">
<path d="M14.5688 4.07821L15 4.81287L15.4312 4.07821C16.7358 1.85546 19.1326 0.500095 21.9441 0.5C23.9445 0.502536 25.864 1.31204 27.2812 2.75383C28.6987 4.19599 29.4976 6.15307 29.5 8.19624C29.4998 12.0222 27.1285 16.118 22.2556 20.3644C20.0117 22.3071 17.589 24.0252 15.0214 25.4949C15.0143 25.4984 15.007 25.5 15 25.5C14.993 25.5 14.9857 25.4984 14.9786 25.4949C12.411 24.0252 9.98846 22.3072 7.74454 20.3646C2.87143 16.118 0.50012 12.022 0.5 8.19594C0.502496 6.15288 1.30141 4.19592 2.71885 2.75383C4.13599 1.31204 6.05549 0.502536 8.05585 0.5C10.8674 0.500094 13.2642 1.85546 14.5688 4.07821ZM14.7496 25.2204L15 25.3652L15.2504 25.2204C16.2363 24.6501 19.7446 22.5296 23.0129 19.5105C26.2557 16.515 29.3889 12.5198 29.3889 8.19565V8.19506C29.3865 6.19229 28.6036 4.27053 27.2091 2.85177C25.8143 1.43273 23.9214 0.632843 21.9451 0.630434H21.9444C18.824 0.630434 16.1669 2.33854 15.0503 5.11313C15.045 5.1261 15.0367 5.1358 15.0276 5.14197C15.0187 5.14808 15.0091 5.15078 15 5.15078C14.9909 5.15078 14.9813 5.14808 14.9724 5.14197L14.6907 5.55506L14.9724 5.14197C14.9633 5.1358 14.955 5.1261 14.9497 5.11313L14.4861 5.30032L14.95 5.11369C13.8335 2.33877 11.1762 0.630434 8.05556 0.630434L8.05495 0.630435C6.07864 0.632843 4.18573 1.43273 2.79094 2.85177C1.39644 4.27053 0.61347 6.19229 0.611111 8.19506V8.19565C0.611111 12.5247 3.74424 16.5198 6.98719 19.5143C10.2556 22.5322 13.7639 24.6502 14.7496 25.2204ZM14.0222 5.48696L14.0225 5.48752C14.101 5.68188 14.235 5.84952 14.409 5.96815C14.583 6.08684 14.7888 6.15078 15 6.15078C15.2112 6.15078 15.417 6.08684 15.591 5.96815L15.3093 5.55506L15.591 5.96814C15.765 5.84952 15.899 5.68188 15.9775 5.48752L15.9778 5.48696C16.9307 3.11849 19.2011 1.63055 21.9441 1.63043C23.6499 1.63259 25.287 2.32288 26.4959 3.55276C27.7051 4.783 28.3868 6.45277 28.3889 8.19624C28.3886 12.0675 25.5497 15.8057 22.3343 18.7759C19.3787 21.5062 16.2118 23.4903 15 24.2082C13.788 23.4905 10.6211 21.5086 7.66559 18.7796C4.45029 15.8107 1.61125 12.0723 1.61111 8.19593C1.61324 6.45257 2.29497 4.78293 3.50412 3.55276C4.71297 2.32288 6.35008 1.63259 8.05587 1.63043C10.7989 1.63055 13.0693 3.11849 14.0222 5.48696Z" stroke="#D3D3D3"/>
</svg>
