<svg width="30" height="26" viewBox="0 0 30 26" fill="none" xmlns="http://www.w3.org/2000/svg">
<path d="M21.9444 0C18.9667 0 16.4 1.43989 15 3.82511C13.6 1.43989 11.0333 0 8.05556 0C5.91988 0.00261763 3.87241 0.866926 2.36226 2.40334C0.852107 3.93976 0.00257289 6.02283 0 8.19565C0 12.2355 2.5 16.4577 7.41667 20.7421C9.68681 22.7075 12.138 24.4455 14.7361 25.9322C14.8172 25.9767 14.9079 26 15 26C15.0921 26 15.1828 25.9767 15.2639 25.9322C17.862 24.4455 20.3132 22.7075 22.5833 20.7421C27.5 16.4577 30 12.2355 30 8.19565C29.9974 6.02283 29.1479 3.93976 27.6377 2.40334C26.1276 0.866926 24.0801 0.00261763 21.9444 0ZM15 24.7876C13.0556 23.6628 1.11111 16.4012 1.11111 8.19565C1.11332 6.32253 1.84567 4.52676 3.14753 3.20227C4.44939 1.87777 6.21445 1.13268 8.05556 1.13043C10.9875 1.13043 13.4514 2.72859 14.4861 5.30032C14.528 5.40399 14.5992 5.49266 14.6907 5.55506C14.7822 5.61746 14.8898 5.65078 15 5.65078C15.1102 5.65078 15.2178 5.61746 15.3093 5.55506C15.4008 5.49266 15.472 5.40399 15.5139 5.30032C16.5486 2.72859 19.0125 1.13043 21.9444 1.13043C23.7855 1.13268 25.5506 1.87777 26.8525 3.20227C28.1543 4.52676 28.8867 6.32253 28.8889 8.19565C28.8889 16.3913 16.9444 23.6628 15 24.7876Z" fill="#FD7A00"/>
<path d="M15 24.7876C13.0556 23.6628 1.11111 16.4012 1.11111 8.19565C1.11332 6.32253 1.84567 4.52676 3.14753 3.20227C4.44939 1.87777 6.21445 1.13268 8.05556 1.13043C10.9875 1.13043 13.4514 2.72859 14.4861 5.30032C14.528 5.40399 14.5992 5.49266 14.6907 5.55506C14.7822 5.61746 14.8898 5.65078 15 5.65078C15.1102 5.65078 15.2178 5.61746 15.3093 5.55506C15.4008 5.49266 15.472 5.40399 15.5139 5.30032C16.5486 2.72859 19.0125 1.13043 21.9444 1.13043C23.7855 1.13268 25.5506 1.87777 26.8525 3.20227C28.1543 4.52676 28.8867 6.32253 28.8889 8.19565C28.8889 16.3913 16.9444 23.6628 15 24.7876Z" fill="#FD7A00"/>
</svg>
