<svg width="33" height="33" viewBox="0 0 33 33" fill="none" xmlns="http://www.w3.org/2000/svg">
<rect x="0.5" y="0.5" width="32" height="32" rx="16" stroke="#E2E2E2"/>
<path d="M26.62 16.7397C26.62 15.9922 26.5529 15.2735 26.4283 14.5835H16.5V18.666H22.1733C21.9242 19.9789 21.1767 21.0906 20.0554 21.8381V24.4927H23.4767C25.47 22.6527 26.62 19.9502 26.62 16.7397Z" fill="#4285F4"/>
<path d="M16.5002 27.0419C19.3464 27.0419 21.7327 26.1027 23.4769 24.4927L20.0556 21.8381C19.1164 22.4706 17.9185 22.8539 16.5002 22.8539C13.7594 22.8539 11.4306 21.0044 10.5969 18.5127H7.08936V21.2344C8.82394 24.6748 12.3794 27.0419 16.5002 27.0419Z" fill="#34A853"/>
<path d="M10.5968 18.5029C10.386 17.8704 10.2614 17.1996 10.2614 16.5C10.2614 15.8004 10.386 15.1296 10.5968 14.4971V11.7754H7.08933C6.37058 13.1937 5.9585 14.7941 5.9585 16.5C5.9585 18.2058 6.37058 19.8062 7.08933 21.2246L9.82058 19.0971L10.5968 18.5029Z" fill="#FBBC05"/>
<path d="M16.5002 10.156C18.0527 10.156 19.4327 10.6927 20.5348 11.7277L23.5535 8.70891C21.7231 7.00308 19.3464 5.9585 16.5002 5.9585C12.3794 5.9585 8.82394 8.32558 7.08936 11.7756L10.5969 14.4972C11.4306 12.0056 13.7594 10.156 16.5002 10.156Z" fill="#EA4335"/>
</svg>
