<svg width="24" height="17" viewBox="0 0 24 17" fill="none" xmlns="http://www.w3.org/2000/svg">
<path d="M0 0.944444C0 0.422842 0.447715 0 1 0H23C23.5523 0 24 0.422842 24 0.944444C24 1.46605 23.5523 1.88889 23 1.88889H1C0.447716 1.88889 0 1.46605 0 0.944444Z" fill="#3E3E3E"/>
<path d="M0 8.5C0 7.9784 0.447715 7.55556 1 7.55556H23C23.5523 7.55556 24 7.9784 24 8.5C24 9.0216 23.5523 9.44444 23 9.44444H1C0.447716 9.44444 0 9.0216 0 8.5Z" fill="#3E3E3E"/>
<path d="M0 16.0556C0 15.534 0.447715 15.1111 1 15.1111H23C23.5523 15.1111 24 15.534 24 16.0556C24 16.5772 23.5523 17 23 17H1C0.447716 17 0 16.5772 0 16.0556Z" fill="#3E3E3E"/>
</svg>
