<svg width="86" height="86" viewBox="0 0 86 86" fill="none" xmlns="http://www.w3.org/2000/svg">
<path d="M10.7502 43C6.8085 43 3.5835 39.775 3.5835 35.8333V17.9167C3.5835 13.975 6.8085 10.75 10.7502 10.75H39.4168C43.3585 10.75 46.5835 13.975 46.5835 17.9167V35.8333C46.5835 39.775 43.3585 43 39.4168 43H32.2502V53.75L21.5002 43H10.7502ZM75.2502 64.5C79.1918 64.5 82.4168 61.275 82.4168 57.3333V39.4167C82.4168 35.475 79.1918 32.25 75.2502 32.25H53.7502V35.8333C53.7502 43.7167 47.3002 50.1667 39.4168 50.1667V57.3333C39.4168 61.275 42.6418 64.5 46.5835 64.5H53.7502V75.25L64.5002 64.5H75.2502Z" fill="#F0F0F0"/>
</svg>
