<svg width="84" height="84" viewBox="0 0 84 84" fill="none" xmlns="http://www.w3.org/2000/svg">
<path d="M47.187 71.3122L60.9503 49.2414L53.7587 43.9097L35.9036 45.1496L29.084 51.5972L44.4592 72.9242C45.3271 72.3042 46.3191 71.8082 47.187 71.3122Z" fill="#FFF8F8"/>
<path d="M34.4155 46.5137L29.2078 47.8776C29.2078 47.8776 21.1482 49.1175 19.6603 51.3494C16.9324 53.0853 16.8085 74.2882 17.3044 74.2882C17.8004 74.4122 42.3511 74.2882 42.3511 74.2882C43.2191 73.6683 44.211 73.0483 45.203 72.5523L34.4155 46.5137Z" fill="#363636"/>
<path d="M55.9909 46.5137L61.1986 47.8776C61.1986 47.8776 69.2582 49.1175 70.7461 51.3494C73.474 53.0853 73.35 75.4042 72.854 75.4042C72.358 75.5281 40.8637 75.4042 40.8637 75.4042C39.9957 74.7842 43.3435 73.2963 45.2034 72.4283L55.9909 46.5137Z" fill="#363636"/>
<path d="M53.1387 35.2305H37.1436V47.7538H53.1387V35.2305Z" fill="#D1AB86"/>
<path d="M57.892 27.6018C56.9208 37.192 49.6371 44.3543 45.024 44.3543C40.0468 44.3543 33.3701 37.0706 32.1561 27.6018C31.0636 18.3757 37.8617 13.7627 45.024 13.7627C52.1864 13.7627 58.8631 18.3757 57.892 27.6018Z" fill="#FFE2C2"/>
<path d="M33.3703 29.0585C33.9772 31.0008 34.5842 32.8217 33.7345 33.0645C32.8847 33.3073 31.1852 31.972 30.4568 30.0296C29.7284 28.0873 29.8498 26.3878 30.6996 26.0236C31.5493 25.7808 32.7633 27.1161 33.3703 29.0585Z" fill="#FFE2C2"/>
<path d="M56.7998 29.0585C56.0714 31.0008 55.5858 32.8217 56.4356 33.0645C57.2854 33.3073 58.9849 31.972 59.7133 30.0296C60.3203 28.0873 60.3203 26.3878 59.4705 26.0236C58.6207 25.7808 57.4068 27.1161 56.7998 29.0585Z" fill="#FFE2C2"/>
<path d="M32.1564 26.2665L34.0987 27.1162C34.0987 27.1162 33.2489 24.4455 33.6131 23.353C33.9773 22.139 34.7057 15.9478 38.8331 17.0404C42.9606 18.0116 45.8741 17.1618 45.8741 17.1618L46.1169 11.2134C45.9955 11.3348 28.3931 7.69296 32.1564 26.2665Z" fill="#363636"/>
<path d="M58.0139 26.3879L56.0716 27.2377C56.0716 27.2377 56.9213 24.567 56.5571 23.4744C56.193 22.2604 55.4646 16.0693 51.3371 17.1618C47.3311 18.133 44.4176 17.2832 44.4176 17.2832L44.1748 11.3349C44.1748 11.3349 61.7771 7.81438 58.0139 26.3879Z" fill="#363636"/>
<path d="M49.1709 49.8615L45.2031 53.2093L41.1113 49.8615L45.2031 46.5137L49.1709 49.8615Z" fill="#363636"/>
<path d="M44.4594 52.4653L42.1035 64.1207L45.0794 73.6682L48.6752 64.1207L45.9473 52.4653H44.4594Z" fill="#363636"/>
<path d="M36.647 41.5542L45.2025 46.5139L42.3507 52.4656L35.655 46.2659C35.655 46.2659 33.9191 45.77 34.5391 45.026C35.035 44.282 36.523 43.5381 36.647 41.5542Z" fill="#FFF8F8"/>
<path d="M53.7577 41.5542L45.2021 46.5139L48.054 52.4656L54.7497 46.2659C54.7497 46.2659 56.4856 45.77 55.8656 45.026C55.3696 44.282 53.8817 43.5381 53.7577 41.5542Z" fill="#FFF8F8"/>
<path d="M45.203 72.4283L35.4075 44.1577L32.0597 46.8856L28.5879 48.7455L32.8037 55.8131L34.7876 55.6891L33.5476 59.7809L45.203 72.4283Z" fill="#363636"/>
<path d="M45.2031 72.4283L54.9986 44.1577L58.3464 46.6376L62.0663 48.7455L57.4785 55.8131L55.6186 55.6891L56.8585 59.7809L45.2031 72.4283Z" fill="#363636"/>
<path d="M55.6703 80.8827H52.7314V72.4189H62.6058L59.7846 79.3545C58.9617 80.7652 57.316 80.8827 55.6703 80.8827Z" fill="#B6C9C9"/>
<path d="M62.4883 72.4189L58.7266 78.8843C57.9038 80.295 56.258 80.4125 54.6123 80.4125H52.7314V81.0003H55.7878C57.4335 81.0003 59.0793 80.8827 59.9021 79.4721L62.4883 75.1226V72.4189Z" fill="#D7D7D7"/>
<path d="M56.4928 80.8827H13.2335C12.058 80.8827 11 79.9423 11 78.6492V50.9068C11 49.7313 11.9404 48.6733 13.2335 48.6733H56.4928C57.6683 48.6733 58.7262 49.6138 58.7262 50.9068V78.6492C58.6087 79.9423 57.6683 80.8827 56.4928 80.8827Z" fill="#DCDCDC"/>
<path d="M40.7403 64.8956C40.7403 68.187 38.0366 70.8907 34.7452 70.8907C31.4537 70.8907 28.75 68.187 28.75 64.8956C28.75 61.6041 31.4537 58.9004 34.7452 58.9004C38.1542 58.9004 40.7403 61.6041 40.7403 64.8956Z" fill="#C1C1C1"/>
</svg>
