<svg width="34" height="33" viewBox="0 0 34 33" fill="none" xmlns="http://www.w3.org/2000/svg">
<g clip-path="url(#clip0_387_259)">
<g clip-path="url(#clip1_387_259)">
<path d="M16.5 33C25.6127 33 33 25.6127 33 16.5C33 7.3873 25.6127 0 16.5 0C7.3873 0 0 7.3873 0 16.5C0 25.6127 7.3873 33 16.5 33Z" fill="url(#paint0_linear_387_259)"/>
<path d="M23.1209 9.19768C23.1209 9.19768 24.8208 8.53487 24.6791 10.1446C24.6319 10.8074 24.2069 13.1272 23.8764 15.6365L22.7432 23.0695C22.7432 23.0695 22.6488 24.1583 21.7989 24.3477C20.9489 24.5371 19.6741 23.6849 19.438 23.4955C19.2491 23.3535 15.8967 21.223 14.7163 20.1815C14.3857 19.8974 14.008 19.3293 14.7635 18.6665L19.7213 13.9321C20.2879 13.364 20.8545 12.0383 18.4936 13.648L11.8832 18.1457C11.8832 18.1457 11.1278 18.6191 9.71126 18.193L6.64212 17.2462C6.64212 17.2462 5.5089 16.536 7.44482 15.8258C12.1666 13.6006 17.9743 11.3281 23.1209 9.19768Z" fill="white"/>
</g>
</g>
<defs>
<linearGradient id="paint0_linear_387_259" x1="16.5" y1="33" x2="16.5" y2="0" gradientUnits="userSpaceOnUse">
<stop stop-color="#1D93D2"/>
<stop offset="1" stop-color="#38B0E3"/>
</linearGradient>
<clipPath id="clip0_387_259">
<rect x="0.137695" width="33" height="33" rx="16.5" fill="white"/>
</clipPath>
<clipPath id="clip1_387_259">
<rect width="33" height="33" fill="white"/>
</clipPath>
</defs>
</svg>
