<svg width="34" height="33" viewBox="0 0 34 33" fill="none" xmlns="http://www.w3.org/2000/svg">
<g clip-path="url(#clip0_387_253)">
<g clip-path="url(#clip1_387_253)">
<g clip-path="url(#clip2_387_253)">
<path d="M44.6657 4.04092C44.0902 1.9253 42.4003 0.262737 40.2501 -0.303585C36.3568 -1.33105 20.7378 -1.33105 20.7378 -1.33105C20.7378 -1.33105 5.11889 -1.33105 1.22546 -0.303585C-0.92475 0.262737 -2.61451 1.9253 -3.1901 4.04092C-4.23437 7.87167 -4.23438 15.8689 -4.23438 15.8689C-4.23438 15.8689 -4.23437 23.8663 -3.1901 27.697C-2.61451 29.8126 -0.92475 31.4752 1.22546 32.0414C5.11889 33.0689 20.7378 33.0689 20.7378 33.0689C20.7378 33.0689 36.3568 33.0689 40.2501 32.0414C42.4003 31.4752 44.0902 29.8126 44.6657 27.697C45.7101 23.8663 45.7101 15.8689 45.7101 15.8689C45.7101 15.8689 45.7059 7.87167 44.6657 4.04092Z" fill="#FF0000"/>
<path d="M12.127 23.6091L24.1825 16.7292L12.127 9.84912V23.6091Z" fill="white"/>
</g>
</g>
</g>
<defs>
<clipPath id="clip0_387_253">
<rect x="0.0693359" width="33" height="33" rx="16.5" fill="white"/>
</clipPath>
<clipPath id="clip1_387_253">
<rect width="62" height="43" fill="white" transform="translate(-9.93066 -1)"/>
</clipPath>
<clipPath id="clip2_387_253">
<rect width="62" height="43" fill="white" transform="translate(-9.93066 -1)"/>
</clipPath>
</defs>
</svg>
