<svg width="1157" height="80" viewBox="0 0 1157 80" fill="none" xmlns="http://www.w3.org/2000/svg">
<path d="M50.1675 1.69999H73.7115V4.861C70.6595 6.89567 67.6801 8.349 64.7735 9.221V79.308H58.5605L18.9935 19.249L14.7425 10.747H14.4155L15.3965 19.249V71.024C18.3758 71.8233 21.1735 73.095 23.7895 74.839V78H0.245473V74.839C1.55347 74.0397 2.93414 73.3493 4.38747 72.768C5.91347 72.114 7.51214 71.5327 9.18347 71.024V8.567C7.73014 7.98566 6.27681 7.368 4.82347 6.714C3.44281 6.05999 2.13481 5.40599 0.899473 4.75199V1.69999H19.3205L53.6555 53.475L58.6695 62.849H59.1055L58.5605 53.475V9.221C57.0345 8.567 55.5448 7.87666 54.0915 7.15C52.7108 6.42333 51.4028 5.66033 50.1675 4.861V1.69999ZM131.745 1.69999C131.673 4.60666 131.527 7.54966 131.309 10.529C131.164 13.4357 130.91 16.3787 130.546 19.358H127.712L123.243 7.368H99.4815V36.253H117.248L121.499 28.187H124.224C124.66 35.381 124.66 42.7203 124.224 50.205H121.499L117.248 41.921H99.4815V72.332H124.551L129.892 59.252H132.617C133.126 62.304 133.489 65.3923 133.707 68.517C133.925 71.6417 133.962 74.8027 133.816 78H80.0795V74.839C82.6228 73.6763 85.6021 72.8043 89.0175 72.223V7.586C87.5641 7.29533 86.0745 6.932 84.5485 6.496C83.0225 5.98733 81.5328 5.44233 80.0795 4.861V1.69999H131.745ZM183.415 1.69999H208.485V4.861C207.25 5.36966 205.942 5.87833 204.561 6.387C203.18 6.823 201.763 7.22266 200.31 7.586L181.126 37.125L203.471 72.223C206.959 72.8043 209.938 73.6763 212.409 74.839V78H183.415V74.839C186.031 73.531 188.792 72.659 191.699 72.223L174.477 44.864L157.909 72.332C159.435 72.55 160.925 72.8407 162.378 73.204C163.831 73.4947 165.248 74.0397 166.629 74.839V78H141.45V74.839C142.831 74.1123 144.175 73.5673 145.483 73.204C146.864 72.8407 148.208 72.5137 149.516 72.223L170.88 39.632L150.388 7.586C148.935 7.15 147.481 6.714 146.028 6.27799C144.647 5.842 143.23 5.36966 141.777 4.861V1.69999H170.662V4.861C169.572 5.297 168.337 5.733 166.956 6.169C165.648 6.60499 164.122 7.07733 162.378 7.586L177.638 32.22L192.462 7.586C189.483 6.932 186.467 6.02366 183.415 4.861V1.69999ZM262.325 78H231.696V74.839C233.295 74.2577 234.893 73.749 236.492 73.313C238.163 72.877 239.944 72.5137 241.833 72.223V7.368H225.156L219.379 22.955H216.654C216.436 21.5017 216.254 19.8667 216.109 18.05C215.964 16.1607 215.818 14.2713 215.673 12.382C215.6 10.42 215.528 8.53066 215.455 6.714C215.382 4.82466 215.346 3.15333 215.346 1.69999H278.675C278.675 3.15333 278.639 4.78833 278.566 6.605C278.493 8.42166 278.384 10.311 278.239 12.273C278.166 14.1623 278.057 16.0517 277.912 17.941C277.839 19.7577 277.694 21.429 277.476 22.955H274.642L268.974 7.368H252.297V72.223C254.186 72.5863 255.93 72.9497 257.529 73.313C259.2 73.6763 260.799 74.185 262.325 74.839V78ZM281.581 43.883H312.319V50.75H281.581V43.883ZM386.527 72.768C385.146 73.5673 383.511 74.3667 381.622 75.166C379.805 75.8927 377.843 76.583 375.736 77.237C373.701 77.8183 371.63 78.2907 369.523 78.654C367.488 79.09 365.563 79.308 363.746 79.308C357.933 79.308 352.701 78.545 348.05 77.019C343.399 75.4203 339.439 73.0223 336.169 69.825C332.899 66.555 330.356 62.4493 328.539 57.508C326.795 52.5667 325.923 46.6807 325.923 39.85C325.923 32.7287 326.94 26.661 328.975 21.647C331.082 16.633 333.844 12.5637 337.259 9.439C340.747 6.24166 344.671 3.95266 349.031 2.572C353.464 1.11866 357.969 0.391999 362.547 0.391999C367.343 0.391999 371.376 0.718999 374.646 1.373C377.989 1.95433 380.895 2.86266 383.366 4.098C383.366 5.188 383.33 6.53233 383.257 8.131C383.184 9.72966 383.075 11.401 382.93 13.145C382.785 14.889 382.603 16.633 382.385 18.377C382.167 20.0483 381.949 21.538 381.731 22.846H378.897L373.229 7.15C372.43 6.714 371.085 6.42333 369.196 6.27799C367.307 6.13266 365.454 6.06 363.637 6.06C360.004 6.06 356.552 6.75033 353.282 8.131C350.012 9.439 347.142 11.51 344.671 14.344C342.273 17.1053 340.347 20.6297 338.894 24.917C337.441 29.1317 336.714 34.1093 336.714 39.85C336.714 45.0093 337.404 49.66 338.785 53.802C340.238 57.944 342.2 61.5047 344.671 64.484C347.214 67.3907 350.157 69.6433 353.5 71.242C356.915 72.8407 360.585 73.64 364.509 73.64C365.962 73.64 367.379 73.4947 368.76 73.204C370.141 72.9133 371.412 72.5863 372.575 72.223C373.738 71.787 374.682 71.351 375.409 70.915C376.208 70.479 376.753 70.1157 377.044 69.825V47.807C375.155 47.6617 373.338 47.3347 371.594 46.826C369.923 46.3173 368.251 45.7723 366.58 45.191V42.03H393.285V45.191C392.558 45.6997 391.686 46.172 390.669 46.608C389.652 47.044 388.271 47.4437 386.527 47.807V72.768ZM450.017 1.69999C449.944 4.60666 449.799 7.54966 449.581 10.529C449.436 13.4357 449.181 16.3787 448.818 19.358H445.984L441.515 7.368H417.753V36.253H435.52L439.771 28.187H442.496C442.932 35.381 442.932 42.7203 442.496 50.205H439.771L435.52 41.921H417.753V72.332H442.823L448.164 59.252H450.889C451.398 62.304 451.761 65.3923 451.979 68.517C452.197 71.6417 452.233 74.8027 452.088 78H398.351V74.839C400.894 73.6763 403.874 72.8043 407.289 72.223V7.586C405.836 7.29533 404.346 6.932 402.82 6.496C401.294 5.98733 399.804 5.44233 398.351 4.861V1.69999H450.017ZM511.714 1.69999H535.258V4.861C532.206 6.89567 529.227 8.349 526.32 9.221V79.308H520.107L480.54 19.249L476.289 10.747H475.962L476.943 19.249V71.024C479.923 71.8233 482.72 73.095 485.336 74.839V78H461.792V74.839C463.1 74.0397 464.481 73.3493 465.934 72.768C467.46 72.114 469.059 71.5327 470.73 71.024V8.567C469.277 7.98566 467.824 7.368 466.37 6.714C464.99 6.05999 463.682 5.40599 462.446 4.75199V1.69999H480.867L515.202 53.475L520.216 62.849H520.652L520.107 53.475V9.221C518.581 8.567 517.092 7.87666 515.638 7.15C514.258 6.42333 512.95 5.66033 511.714 4.861V1.69999ZM581.32 70.479C582.192 71.351 583.319 72.114 584.699 72.768C586.08 73.3493 588.151 73.64 590.912 73.64C593.238 73.64 595.418 73.3493 597.452 72.768C599.487 72.114 601.231 71.2057 602.684 70.043C604.21 68.8077 605.409 67.3543 606.281 65.683C607.153 63.939 607.589 61.977 607.589 59.797C607.589 56.8903 606.681 54.456 604.864 52.494C603.12 50.532 600.904 48.788 598.215 47.262C595.599 45.736 592.729 44.2463 589.604 42.793C586.48 41.3397 583.573 39.632 580.884 37.67C578.268 35.6353 576.052 33.2373 574.235 30.476C572.491 27.642 571.619 24.1177 571.619 19.903C571.619 16.851 572.164 14.126 573.254 11.728C574.344 9.33 575.87 7.29533 577.832 5.624C579.867 3.95266 582.265 2.681 585.026 1.80899C587.788 0.86433 590.876 0.391999 594.291 0.391999C598.724 0.391999 602.757 0.755332 606.39 1.482C610.096 2.136 613.003 2.97166 615.11 3.989C615.11 5.22433 615.001 6.67766 614.783 8.34899C614.638 9.94766 614.42 11.619 614.129 13.363C613.911 15.107 613.657 16.8147 613.366 18.486C613.076 20.0847 612.785 21.5017 612.494 22.737H609.66L605.3 7.80399C603.992 7.22266 602.321 6.78667 600.286 6.496C598.324 6.20533 596.217 6.06 593.964 6.06C590.258 6.06 587.279 7.11366 585.026 9.221C582.774 11.2557 581.647 14.126 581.647 17.832C581.647 20.8113 582.519 23.3183 584.263 25.353C586.08 27.3877 588.333 29.2043 591.021 30.803C593.71 32.4017 596.58 33.964 599.632 35.49C602.757 36.9433 605.664 38.651 608.352 40.613C611.041 42.575 613.257 44.9003 615.001 47.589C616.818 50.2777 617.726 53.6203 617.726 57.617C617.726 60.887 617.109 63.8663 615.873 66.555C614.711 69.2437 613.003 71.5327 610.75 73.422C608.498 75.3113 605.736 76.7647 602.466 77.782C599.196 78.7993 595.49 79.308 591.348 79.308C586.77 79.308 582.665 78.763 579.031 77.673C575.398 76.583 572.818 75.4203 571.292 74.185C571.365 72.9497 571.474 71.46 571.619 69.716C571.837 67.972 572.055 66.1917 572.273 64.375C572.564 62.4857 572.855 60.669 573.145 58.925C573.436 57.181 573.727 55.6913 574.017 54.456H576.851L581.32 70.479ZM629.186 39.85C629.186 34.182 629.949 28.95 631.475 24.154C633.073 19.2853 635.326 15.107 638.233 11.619C641.212 8.05833 644.845 5.29699 649.133 3.33499C653.42 1.373 658.289 0.391999 663.739 0.391999C669.189 0.391999 674.057 1.373 678.345 3.33499C682.632 5.29699 686.229 8.05833 689.136 11.619C692.115 15.107 694.368 19.2853 695.894 24.154C697.492 28.95 698.292 34.182 698.292 39.85C698.292 45.518 697.492 50.7863 695.894 55.655C694.368 60.451 692.115 64.6293 689.136 68.19C686.229 71.678 682.632 74.403 678.345 76.365C674.057 78.327 669.189 79.308 663.739 79.308C658.289 79.308 653.42 78.327 649.133 76.365C644.845 74.403 641.212 71.678 638.233 68.19C635.326 64.6293 633.073 60.451 631.475 55.655C629.949 50.7863 629.186 45.518 629.186 39.85ZM640.849 39.85C640.849 44.5007 641.321 48.897 642.266 53.039C643.283 57.1083 644.773 60.669 646.735 63.721C648.697 66.773 651.167 69.2073 654.147 71.024C657.126 72.768 660.65 73.64 664.72 73.64C668.426 73.64 671.659 72.768 674.421 71.024C677.182 69.2073 679.435 66.773 681.179 63.721C682.995 60.669 684.34 57.1083 685.212 53.039C686.156 48.897 686.629 44.5007 686.629 39.85C686.629 35.1993 686.156 30.8393 685.212 26.77C684.267 22.628 682.814 19.031 680.852 15.979C678.89 12.927 676.419 10.529 673.44 8.78499C670.46 6.96833 666.936 6.06 662.867 6.06C658.87 6.06 655.455 6.96833 652.621 8.78499C649.859 10.529 647.607 12.927 645.863 15.979C644.119 19.031 642.847 22.628 642.048 26.77C641.248 30.8393 640.849 35.1993 640.849 39.85ZM707.255 1.69999H737.121V4.861C735.377 5.515 733.633 6.09633 731.889 6.605C730.145 7.041 728.401 7.368 726.657 7.586V72.332H751.727L758.158 54.783H760.992C761.21 56.309 761.392 58.0893 761.537 60.124C761.755 62.086 761.901 64.157 761.973 66.337C762.119 68.4443 762.191 70.5153 762.191 72.55C762.191 74.5847 762.155 76.4013 762.082 78H707.255V74.839C708.999 74.0397 710.598 73.4583 712.051 73.095C713.505 72.7317 714.885 72.441 716.193 72.223V7.586C714.522 7.29533 712.923 6.932 711.397 6.496C709.871 5.98733 708.491 5.44233 707.255 4.861V1.69999ZM765.007 1.69999H792.693V4.861C791.312 5.44233 789.931 5.951 788.551 6.387C787.17 6.823 785.789 7.22266 784.409 7.586V52.167C784.409 56.0183 784.808 59.252 785.608 61.868C786.48 64.4113 787.715 66.4823 789.314 68.081C790.912 69.607 792.874 70.7333 795.2 71.46C797.598 72.114 800.286 72.441 803.266 72.441C809.006 72.441 813.475 70.8787 816.673 67.754C819.87 64.5567 821.469 59.3247 821.469 52.058V8.567C819.797 7.98566 818.235 7.40433 816.782 6.82299C815.328 6.16899 814.02 5.515 812.858 4.861V1.69999H836.075V4.861C834.694 5.66033 833.277 6.387 831.824 7.041C830.443 7.695 829.026 8.20366 827.573 8.567V52.276C827.573 56.9267 826.955 60.9233 825.72 64.266C824.484 67.6087 822.74 70.37 820.488 72.55C818.308 74.73 815.619 76.365 812.422 77.455C809.297 78.4723 805.809 78.981 801.958 78.981C792.874 78.981 785.935 76.9463 781.139 72.877C776.343 68.735 773.945 62.413 773.945 53.911V7.586C770.965 7.15 767.986 6.24167 765.007 4.861V1.69999ZM886.201 78H855.572V74.839C857.171 74.2577 858.769 73.749 860.368 73.313C862.039 72.877 863.82 72.5137 865.709 72.223V7.368H849.032L843.255 22.955H840.53C840.312 21.5017 840.13 19.8667 839.985 18.05C839.84 16.1607 839.694 14.2713 839.549 12.382C839.476 10.42 839.404 8.53066 839.331 6.714C839.258 4.82466 839.222 3.15333 839.222 1.69999H902.551C902.551 3.15333 902.515 4.78833 902.442 6.605C902.369 8.42166 902.26 10.311 902.115 12.273C902.042 14.1623 901.933 16.0517 901.788 17.941C901.715 19.7577 901.57 21.429 901.352 22.955H898.518L892.85 7.368H876.173V72.223C878.062 72.5863 879.806 72.9497 881.405 73.313C883.076 73.6763 884.675 74.185 886.201 74.839V78ZM937.773 78H909.869V74.839C912.703 73.531 915.61 72.659 918.589 72.223V7.586C917.136 7.29533 915.683 6.932 914.229 6.496C912.776 5.98733 911.323 5.44233 909.869 4.861V1.69999H937.773V4.861C936.465 5.44233 935.048 5.98733 933.522 6.496C931.996 6.932 930.507 7.29533 929.053 7.586V72.223C930.579 72.5137 932.105 72.877 933.631 73.313C935.157 73.749 936.538 74.2577 937.773 74.839V78ZM948.735 39.85C948.735 34.182 949.498 28.95 951.024 24.154C952.622 19.2853 954.875 15.107 957.782 11.619C960.761 8.05833 964.394 5.29699 968.682 3.33499C972.969 1.373 977.838 0.391999 983.288 0.391999C988.738 0.391999 993.606 1.373 997.894 3.33499C1002.18 5.29699 1005.78 8.05833 1008.68 11.619C1011.66 15.107 1013.92 19.2853 1015.44 24.154C1017.04 28.95 1017.84 34.182 1017.84 39.85C1017.84 45.518 1017.04 50.7863 1015.44 55.655C1013.92 60.451 1011.66 64.6293 1008.68 68.19C1005.78 71.678 1002.18 74.403 997.894 76.365C993.606 78.327 988.738 79.308 983.288 79.308C977.838 79.308 972.969 78.327 968.682 76.365C964.394 74.403 960.761 71.678 957.782 68.19C954.875 64.6293 952.622 60.451 951.024 55.655C949.498 50.7863 948.735 45.518 948.735 39.85ZM960.398 39.85C960.398 44.5007 960.87 48.897 961.815 53.039C962.832 57.1083 964.322 60.669 966.284 63.721C968.246 66.773 970.716 69.2073 973.696 71.024C976.675 72.768 980.199 73.64 984.269 73.64C987.975 73.64 991.208 72.768 993.97 71.024C996.731 69.2073 998.984 66.773 1000.73 63.721C1002.54 60.669 1003.89 57.1083 1004.76 53.039C1005.71 48.897 1006.18 44.5007 1006.18 39.85C1006.18 35.1993 1005.71 30.8393 1004.76 26.77C1003.82 22.628 1002.36 19.031 1000.4 15.979C998.439 12.927 995.968 10.529 992.989 8.78499C990.009 6.96833 986.485 6.06 982.416 6.06C978.419 6.06 975.004 6.96833 972.17 8.78499C969.408 10.529 967.156 12.927 965.412 15.979C963.668 19.031 962.396 22.628 961.597 26.77C960.797 30.8393 960.398 35.1993 960.398 39.85ZM1076.73 1.69999H1100.27V4.861C1097.22 6.89567 1094.24 8.349 1091.33 9.221V79.308H1085.12L1045.55 19.249L1041.3 10.747H1040.97L1041.96 19.249V71.024C1044.93 71.8233 1047.73 73.095 1050.35 74.839V78H1026.8V74.839C1028.11 74.0397 1029.49 73.3493 1030.95 72.768C1032.47 72.114 1034.07 71.5327 1035.74 71.024V8.567C1034.29 7.98566 1032.84 7.368 1031.38 6.714C1030 6.05999 1028.69 5.40599 1027.46 4.75199V1.69999H1045.88L1080.21 53.475L1085.23 62.849H1085.66L1085.12 53.475V9.221C1083.59 8.567 1082.1 7.87666 1080.65 7.15C1079.27 6.42333 1077.96 5.66033 1076.73 4.861V1.69999ZM1119.83 70.479C1120.7 71.351 1121.83 72.114 1123.21 72.768C1124.59 73.3493 1126.66 73.64 1129.42 73.64C1131.74 73.64 1133.92 73.3493 1135.96 72.768C1137.99 72.114 1139.74 71.2057 1141.19 70.043C1142.72 68.8077 1143.92 67.3543 1144.79 65.683C1145.66 63.939 1146.1 61.977 1146.1 59.797C1146.1 56.8903 1145.19 54.456 1143.37 52.494C1141.63 50.532 1139.41 48.788 1136.72 47.262C1134.11 45.736 1131.24 44.2463 1128.11 42.793C1124.99 41.3397 1122.08 39.632 1119.39 37.67C1116.78 35.6353 1114.56 33.2373 1112.74 30.476C1111 27.642 1110.13 24.1177 1110.13 19.903C1110.13 16.851 1110.67 14.126 1111.76 11.728C1112.85 9.33 1114.38 7.29533 1116.34 5.624C1118.37 3.95266 1120.77 2.681 1123.53 1.80899C1126.29 0.86433 1129.38 0.391999 1132.8 0.391999C1137.23 0.391999 1141.26 0.755332 1144.9 1.482C1148.6 2.136 1151.51 2.97166 1153.62 3.989C1153.62 5.22433 1153.51 6.67766 1153.29 8.34899C1153.14 9.94766 1152.93 11.619 1152.64 13.363C1152.42 15.107 1152.16 16.8147 1151.87 18.486C1151.58 20.0847 1151.29 21.5017 1151 22.737H1148.17L1143.81 7.80399C1142.5 7.22266 1140.83 6.78667 1138.79 6.496C1136.83 6.20533 1134.72 6.06 1132.47 6.06C1128.77 6.06 1125.79 7.11366 1123.53 9.221C1121.28 11.2557 1120.15 14.126 1120.15 17.832C1120.15 20.8113 1121.03 23.3183 1122.77 25.353C1124.59 27.3877 1126.84 29.2043 1129.53 30.803C1132.22 32.4017 1135.09 33.964 1138.14 35.49C1141.26 36.9433 1144.17 38.651 1146.86 40.613C1149.55 42.575 1151.76 44.9003 1153.51 47.589C1155.32 50.2777 1156.23 53.6203 1156.23 57.617C1156.23 60.887 1155.62 63.8663 1154.38 66.555C1153.22 69.2437 1151.51 71.5327 1149.26 73.422C1147 75.3113 1144.24 76.7647 1140.97 77.782C1137.7 78.7993 1134 79.308 1129.86 79.308C1125.28 79.308 1121.17 78.763 1117.54 77.673C1113.9 76.583 1111.33 75.4203 1109.8 74.185C1109.87 72.9497 1109.98 71.46 1110.13 69.716C1110.34 67.972 1110.56 66.1917 1110.78 64.375C1111.07 62.4857 1111.36 60.669 1111.65 58.925C1111.94 57.181 1112.23 55.6913 1112.52 54.456H1115.36L1119.83 70.479Z" fill="#3C4C9A"/>
</svg>
