<svg width="1157" height="80" viewBox="0 0 1157 80" fill="none" xmlns="http://www.w3.org/2000/svg">
<path d="M50.1143 1.69999H73.6583V4.861C70.6063 6.89567 67.6269 8.349 64.7203 9.221V79.308H58.5073L18.9403 19.249L14.6893 10.747H14.3623L15.3433 19.249V71.024C18.3226 71.8233 21.1203 73.095 23.7363 74.839V78H0.19225V74.839C1.50025 74.0397 2.88092 73.3493 4.33425 72.768C5.86025 72.114 7.45892 71.5327 9.13025 71.024V8.567C7.67692 7.98566 6.22358 7.368 4.77025 6.714C3.38958 6.05999 2.08158 5.40599 0.84625 4.75199V1.69999H19.2673L53.6023 53.475L58.6162 62.849H59.0523L58.5073 53.475V9.221C56.9813 8.567 55.4916 7.87666 54.0383 7.15C52.6576 6.42333 51.3496 5.66033 50.1143 4.861V1.69999ZM131.692 1.69999C131.62 4.60666 131.474 7.54966 131.256 10.529C131.111 13.4357 130.857 16.3787 130.493 19.358H127.659L123.19 7.368H99.4282V36.253H117.195L121.446 28.187H124.171C124.607 35.381 124.607 42.7203 124.171 50.205H121.446L117.195 41.921H99.4282V72.332H124.498L129.839 59.252H132.564C133.073 62.304 133.436 65.3923 133.654 68.517C133.872 71.6417 133.909 74.8027 133.763 78H80.0262V74.839C82.5696 73.6763 85.5489 72.8043 88.9642 72.223V7.586C87.5109 7.29533 86.0212 6.932 84.4952 6.496C82.9692 5.98733 81.4796 5.44233 80.0262 4.861V1.69999H131.692ZM183.362 1.69999H208.432V4.861C207.196 5.36966 205.888 5.87833 204.508 6.387C203.127 6.823 201.71 7.22266 200.257 7.586L181.073 37.125L203.418 72.223C206.906 72.8043 209.885 73.6763 212.356 74.839V78H183.362V74.839C185.978 73.531 188.739 72.659 191.646 72.223L174.424 44.864L157.856 72.332C159.382 72.55 160.871 72.8407 162.325 73.204C163.778 73.4947 165.195 74.0397 166.576 74.839V78H141.397V74.839C142.777 74.1123 144.122 73.5673 145.43 73.204C146.81 72.8407 148.155 72.5137 149.463 72.223L170.827 39.632L150.335 7.586C148.881 7.15 147.428 6.714 145.975 6.27799C144.594 5.842 143.177 5.36966 141.724 4.861V1.69999H170.609V4.861C169.519 5.297 168.283 5.733 166.903 6.169C165.595 6.60499 164.069 7.07733 162.325 7.586L177.585 32.22L192.409 7.586C189.429 6.932 186.414 6.02366 183.362 4.861V1.69999ZM262.378 78H231.749V74.839C233.348 74.2577 234.946 73.749 236.545 73.313C238.216 72.877 239.997 72.5137 241.886 72.223V7.368H225.209L219.432 22.955H216.707C216.489 21.5017 216.307 19.8667 216.162 18.05C216.017 16.1607 215.871 14.2713 215.726 12.382C215.653 10.42 215.581 8.53066 215.508 6.714C215.435 4.82466 215.399 3.15333 215.399 1.69999H278.728C278.728 3.15333 278.692 4.78833 278.619 6.605C278.546 8.42166 278.437 10.311 278.292 12.273C278.219 14.1623 278.11 16.0517 277.965 17.941C277.892 19.7577 277.747 21.429 277.529 22.955H274.695L269.027 7.368H252.35V72.223C254.239 72.5863 255.983 72.9497 257.582 73.313C259.253 73.6763 260.852 74.185 262.378 74.839V78ZM281.635 43.883H312.373V50.75H281.635V43.883ZM386.58 72.768C385.2 73.5673 383.565 74.3667 381.675 75.166C379.859 75.8927 377.897 76.583 375.789 77.237C373.755 77.8183 371.684 78.2907 369.576 78.654C367.542 79.09 365.616 79.308 363.799 79.308C357.986 79.308 352.754 78.545 348.103 77.019C343.453 75.4203 339.492 73.0223 336.222 69.825C332.952 66.555 330.409 62.4493 328.592 57.508C326.848 52.5667 325.976 46.6807 325.976 39.85C325.976 32.7287 326.994 26.661 329.028 21.647C331.136 16.633 333.897 12.5637 337.312 9.439C340.8 6.24166 344.724 3.95266 349.084 2.572C353.517 1.11866 358.022 0.391999 362.6 0.391999C367.396 0.391999 371.429 0.718999 374.699 1.373C378.042 1.95433 380.949 2.86266 383.419 4.098C383.419 5.188 383.383 6.53233 383.31 8.131C383.238 9.72966 383.129 11.401 382.983 13.145C382.838 14.889 382.656 16.633 382.438 18.377C382.22 20.0483 382.002 21.538 381.784 22.846H378.95L373.282 7.15C372.483 6.714 371.139 6.42333 369.249 6.27799C367.36 6.13266 365.507 6.06 363.69 6.06C360.057 6.06 356.605 6.75033 353.335 8.131C350.065 9.439 347.195 11.51 344.724 14.344C342.326 17.1053 340.401 20.6297 338.947 24.917C337.494 29.1317 336.767 34.1093 336.767 39.85C336.767 45.0093 337.458 49.66 338.838 53.802C340.292 57.944 342.254 61.5047 344.724 64.484C347.268 67.3907 350.211 69.6433 353.553 71.242C356.969 72.8407 360.638 73.64 364.562 73.64C366.016 73.64 367.433 73.4947 368.813 73.204C370.194 72.9133 371.466 72.5863 372.628 72.223C373.791 71.787 374.736 71.351 375.462 70.915C376.262 70.479 376.807 70.1157 377.097 69.825V47.807C375.208 47.6617 373.391 47.3347 371.647 46.826C369.976 46.3173 368.305 45.7723 366.633 45.191V42.03H393.338V45.191C392.612 45.6997 391.74 46.172 390.722 46.608C389.705 47.044 388.324 47.4437 386.58 47.807V72.768ZM450.07 1.69999C449.998 4.60666 449.852 7.54966 449.634 10.529C449.489 13.4357 449.234 16.3787 448.871 19.358H446.037L441.568 7.368H417.806V36.253H435.573L439.824 28.187H442.549C442.985 35.381 442.985 42.7203 442.549 50.205H439.824L435.573 41.921H417.806V72.332H442.876L448.217 59.252H450.942C451.451 62.304 451.814 65.3923 452.032 68.517C452.25 71.6417 452.287 74.8027 452.141 78H398.404V74.839C400.947 73.6763 403.927 72.8043 407.342 72.223V7.586C405.889 7.29533 404.399 6.932 402.873 6.496C401.347 5.98733 399.857 5.44233 398.404 4.861V1.69999H450.07ZM511.768 1.69999H535.312V4.861C532.26 6.89567 529.28 8.349 526.374 9.221V79.308H520.161L480.594 19.249L476.343 10.747H476.016L476.997 19.249V71.024C479.976 71.8233 482.774 73.095 485.39 74.839V78H461.846V74.839C463.154 74.0397 464.534 73.3493 465.988 72.768C467.514 72.114 469.112 71.5327 470.784 71.024V8.567C469.33 7.98566 467.877 7.368 466.424 6.714C465.043 6.05999 463.735 5.40599 462.5 4.75199V1.69999H480.921L515.256 53.475L520.27 62.849H520.706L520.161 53.475V9.221C518.635 8.567 517.145 7.87666 515.692 7.15C514.311 6.42333 513.003 5.66033 511.768 4.861V1.69999ZM581.373 70.479C582.245 71.351 583.372 72.114 584.752 72.768C586.133 73.3493 588.204 73.64 590.965 73.64C593.291 73.64 595.471 73.3493 597.505 72.768C599.54 72.114 601.284 71.2057 602.737 70.043C604.263 68.8077 605.462 67.3543 606.334 65.683C607.206 63.939 607.642 61.977 607.642 59.797C607.642 56.8903 606.734 54.456 604.917 52.494C603.173 50.532 600.957 48.788 598.268 47.262C595.652 45.736 592.782 44.2463 589.657 42.793C586.533 41.3397 583.626 39.632 580.937 37.67C578.321 35.6353 576.105 33.2373 574.288 30.476C572.544 27.642 571.672 24.1177 571.672 19.903C571.672 16.851 572.217 14.126 573.307 11.728C574.397 9.33 575.923 7.29533 577.885 5.624C579.92 3.95266 582.318 2.681 585.079 1.80899C587.841 0.86433 590.929 0.391999 594.344 0.391999C598.777 0.391999 602.81 0.755332 606.443 1.482C610.149 2.136 613.056 2.97166 615.163 3.989C615.163 5.22433 615.054 6.67766 614.836 8.34899C614.691 9.94766 614.473 11.619 614.182 13.363C613.964 15.107 613.71 16.8147 613.419 18.486C613.129 20.0847 612.838 21.5017 612.547 22.737H609.713L605.353 7.80399C604.045 7.22266 602.374 6.78667 600.339 6.496C598.377 6.20533 596.27 6.06 594.017 6.06C590.311 6.06 587.332 7.11366 585.079 9.221C582.827 11.2557 581.7 14.126 581.7 17.832C581.7 20.8113 582.572 23.3183 584.316 25.353C586.133 27.3877 588.386 29.2043 591.074 30.803C593.763 32.4017 596.633 33.964 599.685 35.49C602.81 36.9433 605.717 38.651 608.405 40.613C611.094 42.575 613.31 44.9003 615.054 47.589C616.871 50.2777 617.779 53.6203 617.779 57.617C617.779 60.887 617.162 63.8663 615.926 66.555C614.764 69.2437 613.056 71.5327 610.803 73.422C608.551 75.3113 605.789 76.7647 602.519 77.782C599.249 78.7993 595.543 79.308 591.401 79.308C586.823 79.308 582.718 78.763 579.084 77.673C575.451 76.583 572.871 75.4203 571.345 74.185C571.418 72.9497 571.527 71.46 571.672 69.716C571.89 67.972 572.108 66.1917 572.326 64.375C572.617 62.4857 572.908 60.669 573.198 58.925C573.489 57.181 573.78 55.6913 574.07 54.456H576.904L581.373 70.479ZM629.239 39.85C629.239 34.182 630.002 28.95 631.528 24.154C633.127 19.2853 635.379 15.107 638.286 11.619C641.265 8.05833 644.899 5.29699 649.186 3.33499C653.473 1.373 658.342 0.391999 663.792 0.391999C669.242 0.391999 674.111 1.373 678.398 3.33499C682.685 5.29699 686.282 8.05833 689.189 11.619C692.168 15.107 694.421 19.2853 695.947 24.154C697.546 28.95 698.345 34.182 698.345 39.85C698.345 45.518 697.546 50.7863 695.947 55.655C694.421 60.451 692.168 64.6293 689.189 68.19C686.282 71.678 682.685 74.403 678.398 76.365C674.111 78.327 669.242 79.308 663.792 79.308C658.342 79.308 653.473 78.327 649.186 76.365C644.899 74.403 641.265 71.678 638.286 68.19C635.379 64.6293 633.127 60.451 631.528 55.655C630.002 50.7863 629.239 45.518 629.239 39.85ZM640.902 39.85C640.902 44.5007 641.374 48.897 642.319 53.039C643.336 57.1083 644.826 60.669 646.788 63.721C648.75 66.773 651.221 69.2073 654.2 71.024C657.179 72.768 660.704 73.64 664.773 73.64C668.479 73.64 671.713 72.768 674.474 71.024C677.235 69.2073 679.488 66.773 681.232 63.721C683.049 60.669 684.393 57.1083 685.265 53.039C686.21 48.897 686.682 44.5007 686.682 39.85C686.682 35.1993 686.21 30.8393 685.265 26.77C684.32 22.628 682.867 19.031 680.905 15.979C678.943 12.927 676.472 10.529 673.493 8.78499C670.514 6.96833 666.989 6.06 662.92 6.06C658.923 6.06 655.508 6.96833 652.674 8.78499C649.913 10.529 647.66 12.927 645.916 15.979C644.172 19.031 642.9 22.628 642.101 26.77C641.302 30.8393 640.902 35.1993 640.902 39.85ZM707.308 1.69999H737.174V4.861C735.43 5.515 733.686 6.09633 731.942 6.605C730.198 7.041 728.454 7.368 726.71 7.586V72.332H751.78L758.211 54.783H761.045C761.263 56.309 761.445 58.0893 761.59 60.124C761.808 62.086 761.954 64.157 762.026 66.337C762.172 68.4443 762.244 70.5153 762.244 72.55C762.244 74.5847 762.208 76.4013 762.135 78H707.308V74.839C709.052 74.0397 710.651 73.4583 712.104 73.095C713.558 72.7317 714.938 72.441 716.246 72.223V7.586C714.575 7.29533 712.976 6.932 711.45 6.496C709.924 5.98733 708.544 5.44233 707.308 4.861V1.69999ZM765.06 1.69999H792.746V4.861C791.365 5.44233 789.984 5.951 788.604 6.387C787.223 6.823 785.842 7.22266 784.462 7.586V52.167C784.462 56.0183 784.861 59.252 785.661 61.868C786.533 64.4113 787.768 66.4823 789.367 68.081C790.965 69.607 792.927 70.7333 795.253 71.46C797.651 72.114 800.339 72.441 803.319 72.441C809.059 72.441 813.528 70.8787 816.726 67.754C819.923 64.5567 821.522 59.3247 821.522 52.058V8.567C819.85 7.98566 818.288 7.40433 816.835 6.82299C815.381 6.16899 814.073 5.515 812.911 4.861V1.69999H836.128V4.861C834.747 5.66033 833.33 6.387 831.877 7.041C830.496 7.695 829.079 8.20366 827.626 8.567V52.276C827.626 56.9267 827.008 60.9233 825.773 64.266C824.537 67.6087 822.793 70.37 820.541 72.55C818.361 74.73 815.672 76.365 812.475 77.455C809.35 78.4723 805.862 78.981 802.011 78.981C792.927 78.981 785.988 76.9463 781.192 72.877C776.396 68.735 773.998 62.413 773.998 53.911V7.586C771.018 7.15 768.039 6.24167 765.06 4.861V1.69999ZM886.254 78H855.625V74.839C857.224 74.2577 858.822 73.749 860.421 73.313C862.092 72.877 863.873 72.5137 865.762 72.223V7.368H849.085L843.308 22.955H840.583C840.365 21.5017 840.183 19.8667 840.038 18.05C839.893 16.1607 839.747 14.2713 839.602 12.382C839.529 10.42 839.457 8.53066 839.384 6.714C839.311 4.82466 839.275 3.15333 839.275 1.69999H902.604C902.604 3.15333 902.568 4.78833 902.495 6.605C902.422 8.42166 902.313 10.311 902.168 12.273C902.095 14.1623 901.986 16.0517 901.841 17.941C901.768 19.7577 901.623 21.429 901.405 22.955H898.571L892.903 7.368H876.226V72.223C878.115 72.5863 879.859 72.9497 881.458 73.313C883.129 73.6763 884.728 74.185 886.254 74.839V78ZM937.826 78H909.922V74.839C912.756 73.531 915.663 72.659 918.642 72.223V7.586C917.189 7.29533 915.736 6.932 914.282 6.496C912.829 5.98733 911.376 5.44233 909.922 4.861V1.69999H937.826V4.861C936.518 5.44233 935.101 5.98733 933.575 6.496C932.049 6.932 930.56 7.29533 929.106 7.586V72.223C930.632 72.5137 932.158 72.877 933.684 73.313C935.21 73.749 936.591 74.2577 937.826 74.839V78ZM948.788 39.85C948.788 34.182 949.551 28.95 951.077 24.154C952.675 19.2853 954.928 15.107 957.835 11.619C960.814 8.05833 964.447 5.29699 968.735 3.33499C973.022 1.373 977.891 0.391999 983.341 0.391999C988.791 0.391999 993.659 1.373 997.947 3.33499C1002.23 5.29699 1005.83 8.05833 1008.74 11.619C1011.72 15.107 1013.97 19.2853 1015.5 24.154C1017.09 28.95 1017.89 34.182 1017.89 39.85C1017.89 45.518 1017.09 50.7863 1015.5 55.655C1013.97 60.451 1011.72 64.6293 1008.74 68.19C1005.83 71.678 1002.23 74.403 997.947 76.365C993.659 78.327 988.791 79.308 983.341 79.308C977.891 79.308 973.022 78.327 968.735 76.365C964.447 74.403 960.814 71.678 957.835 68.19C954.928 64.6293 952.675 60.451 951.077 55.655C949.551 50.7863 948.788 45.518 948.788 39.85ZM960.451 39.85C960.451 44.5007 960.923 48.897 961.868 53.039C962.885 57.1083 964.375 60.669 966.337 63.721C968.299 66.773 970.769 69.2073 973.749 71.024C976.728 72.768 980.252 73.64 984.322 73.64C988.028 73.64 991.261 72.768 994.023 71.024C996.784 69.2073 999.037 66.773 1000.78 63.721C1002.6 60.669 1003.94 57.1083 1004.81 53.039C1005.76 48.897 1006.23 44.5007 1006.23 39.85C1006.23 35.1993 1005.76 30.8393 1004.81 26.77C1003.87 22.628 1002.42 19.031 1000.45 15.979C998.492 12.927 996.021 10.529 993.042 8.78499C990.062 6.96833 986.538 6.06 982.469 6.06C978.472 6.06 975.057 6.96833 972.223 8.78499C969.461 10.529 967.209 12.927 965.465 15.979C963.721 19.031 962.449 22.628 961.65 26.77C960.85 30.8393 960.451 35.1993 960.451 39.85ZM1076.78 1.69999H1100.32V4.861C1097.27 6.89567 1094.29 8.349 1091.39 9.221V79.308H1085.17L1045.61 19.249L1041.35 10.747H1041.03L1042.01 19.249V71.024C1044.99 71.8233 1047.79 73.095 1050.4 74.839V78H1026.86V74.839C1028.17 74.0397 1029.55 73.3493 1031 72.768C1032.53 72.114 1034.12 71.5327 1035.8 71.024V8.567C1034.34 7.98566 1032.89 7.368 1031.44 6.714C1030.05 6.05999 1028.75 5.40599 1027.51 4.75199V1.69999H1045.93L1080.27 53.475L1085.28 62.849H1085.72L1085.17 53.475V9.221C1083.65 8.567 1082.16 7.87666 1080.7 7.15C1079.32 6.42333 1078.01 5.66033 1076.78 4.861V1.69999ZM1119.88 70.479C1120.75 71.351 1121.88 72.114 1123.26 72.768C1124.64 73.3493 1126.71 73.64 1129.47 73.64C1131.8 73.64 1133.98 73.3493 1136.01 72.768C1138.05 72.114 1139.79 71.2057 1141.24 70.043C1142.77 68.8077 1143.97 67.3543 1144.84 65.683C1145.71 63.939 1146.15 61.977 1146.15 59.797C1146.15 56.8903 1145.24 54.456 1143.42 52.494C1141.68 50.532 1139.46 48.788 1136.78 47.262C1134.16 45.736 1131.29 44.2463 1128.16 42.793C1125.04 41.3397 1122.13 39.632 1119.44 37.67C1116.83 35.6353 1114.61 33.2373 1112.8 30.476C1111.05 27.642 1110.18 24.1177 1110.18 19.903C1110.18 16.851 1110.72 14.126 1111.81 11.728C1112.9 9.33 1114.43 7.29533 1116.39 5.624C1118.43 3.95266 1120.82 2.681 1123.59 1.80899C1126.35 0.86433 1129.44 0.391999 1132.85 0.391999C1137.28 0.391999 1141.32 0.755332 1144.95 1.482C1148.66 2.136 1151.56 2.97166 1153.67 3.989C1153.67 5.22433 1153.56 6.67766 1153.34 8.34899C1153.2 9.94766 1152.98 11.619 1152.69 13.363C1152.47 15.107 1152.22 16.8147 1151.93 18.486C1151.64 20.0847 1151.34 21.5017 1151.05 22.737H1148.22L1143.86 7.80399C1142.55 7.22266 1140.88 6.78667 1138.85 6.496C1136.88 6.20533 1134.78 6.06 1132.52 6.06C1128.82 6.06 1125.84 7.11366 1123.59 9.221C1121.33 11.2557 1120.21 14.126 1120.21 17.832C1120.21 20.8113 1121.08 23.3183 1122.82 25.353C1124.64 27.3877 1126.89 29.2043 1129.58 30.803C1132.27 32.4017 1135.14 33.964 1138.19 35.49C1141.32 36.9433 1144.22 38.651 1146.91 40.613C1149.6 42.575 1151.82 44.9003 1153.56 47.589C1155.38 50.2777 1156.29 53.6203 1156.29 57.617C1156.29 60.887 1155.67 63.8663 1154.43 66.555C1153.27 69.2437 1151.56 71.5327 1149.31 73.422C1147.06 75.3113 1144.3 76.7647 1141.03 77.782C1137.76 78.7993 1134.05 79.308 1129.91 79.308C1125.33 79.308 1121.22 78.763 1117.59 77.673C1113.96 76.583 1111.38 75.4203 1109.85 74.185C1109.92 72.9497 1110.03 71.46 1110.18 69.716C1110.4 67.972 1110.62 66.1917 1110.83 64.375C1111.12 62.4857 1111.41 60.669 1111.71 58.925C1112 57.181 1112.29 55.6913 1112.58 54.456H1115.41L1119.88 70.479Z" fill="#F5F7FF"/>
</svg>
