<svg width="96" height="86" viewBox="0 0 96 86" fill="none" xmlns="http://www.w3.org/2000/svg">
<g id="noun-puzzle-5762895">
<path id="Vector" d="M54.5513 20.2671C54.2767 20.2671 54.0133 20.3725 53.8191 20.5601C53.625 20.7478 53.5159 21.0023 53.5159 21.2676V31.5311C53.517 31.7096 53.5675 31.8845 53.6621 32.0378C53.7568 32.1911 53.8922 32.3171 54.0542 32.4028C54.2163 32.4885 54.3991 32.5307 54.5838 32.5251C54.7684 32.5195 54.9481 32.4663 55.1043 32.3709C55.7186 31.9974 56.4253 31.7899 57.1508 31.7699C57.8763 31.7499 58.5941 31.9182 59.2295 32.2573C59.8648 32.5963 60.3945 33.0938 60.7633 33.6978C61.1322 34.3018 61.3267 34.9903 61.3267 35.6917C61.3267 36.393 61.1322 37.0815 60.7633 37.6855C60.3945 38.2895 59.8648 38.787 59.2295 39.126C58.5941 39.4651 57.8763 39.6334 57.1508 39.6134C56.4253 39.5934 55.7186 39.3859 55.1043 39.0124C54.9476 38.9171 54.7673 38.8641 54.5823 38.859C54.3972 38.8538 54.2141 38.8966 54.052 38.983C53.8898 39.0694 53.7546 39.1961 53.6603 39.3501C53.566 39.5041 53.5162 39.6796 53.5159 39.8586V49.1246H45.4846C45.7638 48.2388 45.8244 47.3021 45.6614 46.3895C45.4984 45.477 45.1164 44.6141 44.5459 43.87C43.9755 43.1259 43.2326 42.5213 42.3767 42.1047C41.5209 41.6881 40.5759 41.4711 39.6176 41.4711C38.6592 41.4711 37.7143 41.6881 36.8584 42.1047C36.0025 42.5213 35.2596 43.1259 34.6892 43.87C34.1188 44.6141 33.7367 45.477 33.5737 46.3895C33.4107 47.3021 33.4713 48.2388 33.7505 49.1246H24.6795C24.5435 49.1246 24.4089 49.1505 24.2832 49.2008C24.1576 49.2511 24.0435 49.3248 23.9473 49.4177C23.8512 49.5106 23.7749 49.6209 23.7229 49.7423C23.6708 49.8637 23.6441 49.9938 23.6441 50.1251C23.6423 56.0326 25.4537 61.8078 28.8489 66.7205C32.2442 71.6331 37.0708 75.4625 42.7185 77.7242C48.3662 79.986 54.5811 80.5786 60.5773 79.4271C66.5736 78.2755 72.0817 75.4316 76.4051 71.2549C80.7286 67.0782 83.6731 61.7565 84.8663 55.9626C86.0594 50.1688 85.4477 44.1632 83.1084 38.7054C80.7691 33.2475 76.8074 28.5826 71.7242 25.3006C66.641 22.0186 60.6648 20.2669 54.5513 20.2671ZM55.5867 41.3997C56.4992 41.6513 57.4597 41.6947 58.3925 41.5267C59.3254 41.3587 60.2051 40.9837 60.9626 40.4314C61.72 39.8791 62.3345 39.1644 62.7576 38.3437C63.1807 37.523 63.4009 36.6186 63.4009 35.7016C63.4009 34.7847 63.1807 33.8803 62.7576 33.0595C62.3345 32.2388 61.72 31.5242 60.9626 30.9718C60.2051 30.4195 59.3254 30.0446 58.3925 29.8766C57.4597 29.7085 56.4992 29.752 55.5867 30.0035V22.287C62.868 22.5494 69.7775 25.462 74.9297 30.4407C80.0818 35.4194 83.0957 42.0961 83.367 49.132H73.7201C73.5324 49.1323 73.3483 49.182 73.1874 49.2756C73.0266 49.3692 72.8951 49.5032 72.807 49.6634C72.7188 49.8236 72.6774 50.0039 72.687 50.1851C72.6967 50.3662 72.7571 50.5415 72.8618 50.6921C73.2714 51.2828 73.5071 51.97 73.5439 52.6802C73.5807 53.3903 73.4171 54.0968 73.0706 54.7241C72.7241 55.3514 72.2078 55.876 71.5767 56.2417C70.9456 56.6075 70.2236 56.8007 69.4877 56.8007C68.7518 56.8007 68.0298 56.6075 67.3987 56.2417C66.7677 55.876 66.2513 55.3514 65.9048 54.7241C65.5583 54.0968 65.3947 53.3903 65.4315 52.6802C65.4683 51.97 65.7041 51.2828 66.1136 50.6921C66.2183 50.5415 66.2787 50.3662 66.2884 50.1851C66.2981 50.0039 66.2566 49.8236 66.1685 49.6634C66.0803 49.5032 65.9488 49.3692 65.788 49.2756C65.6272 49.182 65.4431 49.1323 65.2553 49.132H55.5856L55.5867 41.3997ZM25.7334 51.133H35.3672C35.5544 51.1332 35.7382 51.0844 35.8989 50.9916C36.0596 50.8988 36.1913 50.7657 36.2798 50.6063C36.3684 50.4469 36.4105 50.2673 36.4017 50.0866C36.3929 49.9059 36.3335 49.7309 36.2299 49.5803C35.8244 48.9889 35.5923 48.3024 35.5584 47.5938C35.5245 46.8852 35.69 46.1809 36.0373 45.556C36.3847 44.931 36.9008 44.4087 37.5308 44.0446C38.1609 43.6805 38.8813 43.4882 39.6154 43.4882C40.3495 43.4882 41.0699 43.6805 41.6999 44.0446C42.33 44.4087 42.8461 44.931 43.1934 45.556C43.5407 46.1809 43.7062 46.8852 43.6723 47.5938C43.6384 48.3024 43.4064 48.9889 43.0009 49.5803C42.8972 49.7309 42.8379 49.9059 42.8291 50.0866C42.8203 50.2673 42.8624 50.4469 42.951 50.6063C43.0395 50.7657 43.1711 50.8988 43.3319 50.9916C43.4926 51.0844 43.6763 51.1332 43.8635 51.133H53.5159V58.9765C52.5911 58.6618 51.6018 58.566 50.6309 58.697C49.6599 58.828 48.7356 59.182 47.9354 59.7295C47.1353 60.2769 46.4827 61.0017 46.0322 61.8431C45.5818 62.6846 45.3467 63.6181 45.3467 64.5655C45.3467 65.5128 45.5818 66.4463 46.0322 67.2878C46.4827 68.1292 47.1353 68.854 47.9354 69.4015C48.7356 69.9489 49.6599 70.3029 50.6309 70.4339C51.6018 70.5649 52.5911 70.4691 53.5159 70.1544V77.9801C46.2336 77.7186 39.323 74.8061 34.1702 69.8269C29.0175 64.8476 26.0037 58.1698 25.7334 51.133ZM55.5867 77.9801V68.4862C55.5868 68.2998 55.5331 68.1172 55.4315 67.9588C55.33 67.8003 55.1847 67.6725 55.012 67.5896C54.8826 67.5309 54.742 67.499 54.5991 67.4961C54.5828 67.4961 54.5676 67.4856 54.5513 67.4856C54.535 67.4856 54.5219 67.4919 54.5078 67.4919C54.438 67.4959 54.3689 67.5069 54.3014 67.5245C54.2688 67.5329 54.2362 67.536 54.2047 67.5465C54.1048 67.5804 54.0107 67.6285 53.9255 67.6893C53.2213 68.2088 52.3592 68.4889 51.4733 68.4862C50.4078 68.4693 49.3919 68.0485 48.6446 67.3145C47.8972 66.5804 47.4784 65.592 47.4784 64.5623C47.4784 63.5326 47.8972 62.5442 48.6446 61.8101C49.3919 61.0761 50.4078 60.6553 51.4733 60.6385C52.3592 60.6357 53.2213 60.9158 53.9255 61.4353C54.0789 61.5483 54.262 61.6175 54.4541 61.6353C54.6461 61.653 54.8395 61.6185 55.0123 61.5356C55.1851 61.4527 55.3304 61.3247 55.432 61.1662C55.5335 61.0077 55.5871 60.8249 55.5867 60.6385V51.133H63.6267C63.3455 52.0189 63.2833 52.9562 63.4451 53.8695C63.6069 54.7829 63.9881 55.6468 64.5582 56.3919C65.1283 57.137 65.8713 57.7425 66.7275 58.1598C67.5837 58.577 68.5293 58.7944 69.4883 58.7944C70.4472 58.7944 71.3928 58.577 72.249 58.1598C73.1052 57.7425 73.8482 57.137 74.4183 56.3919C74.9884 55.6468 75.3696 54.7829 75.5314 53.8695C75.6932 52.9562 75.631 52.0189 75.3498 51.133H83.367C83.0965 58.1694 80.0829 64.8467 74.9307 69.8259C69.7784 74.8051 62.8685 77.7179 55.5867 77.9801ZM25.9735 30.225C26.7073 30.225 27.4274 30.4172 28.0572 30.7811C28.687 31.1449 29.203 31.6669 29.5502 32.2916C29.8975 32.9162 30.0631 33.6201 30.0294 34.3284C29.9958 35.0367 29.7641 35.723 29.359 36.3142C29.256 36.465 29.1971 36.6399 29.1887 36.8204C29.1803 37.0009 29.2227 37.1802 29.3112 37.3394C29.3998 37.4985 29.5313 37.6314 29.6918 37.7241C29.8523 37.8169 30.0358 37.8658 30.2227 37.8659H40.9094C41.1838 37.8659 41.447 37.7606 41.6412 37.5732C41.8353 37.3858 41.9445 37.1316 41.9448 36.8664V28.1316C42.8573 28.3831 43.8178 28.4266 44.7506 28.2586C45.6835 28.0905 46.5633 27.7156 47.3207 27.1633C48.0781 26.6109 48.6926 25.8963 49.1157 25.0756C49.5388 24.2548 49.759 23.3504 49.759 22.4335C49.759 21.5166 49.5388 20.6121 49.1157 19.7914C48.6926 18.9707 48.0781 18.256 47.3207 17.7037C46.5633 17.1514 45.6835 16.7764 44.7506 16.6084C43.8178 16.4404 42.8573 16.4838 41.9448 16.7354V8.00052C41.9448 7.73516 41.8357 7.48068 41.6415 7.29304C41.4474 7.10541 41.184 7 40.9094 7C32.7145 7.00889 24.858 10.1585 19.0633 15.7578C13.2687 21.3571 10.0092 28.9489 10 36.8675C10.0001 36.9989 10.0271 37.129 10.0792 37.2503C10.1314 37.3716 10.2078 37.4819 10.304 37.5747C10.4003 37.6675 10.5145 37.7411 10.6402 37.7912C10.7659 37.8414 10.9005 37.8671 11.0365 37.867H21.7242C21.9115 37.8672 22.0952 37.8183 22.2559 37.7256C22.4166 37.6328 22.5483 37.4996 22.6368 37.3402C22.7254 37.1809 22.7675 37.0013 22.7587 36.8206C22.7499 36.6399 22.6905 36.4649 22.5869 36.3142C22.1818 35.7229 21.9501 35.0366 21.9164 34.3282C21.8828 33.6197 22.0485 32.9158 22.3959 32.2911C22.7433 31.6665 23.2595 31.1445 23.8894 30.7807C24.5194 30.4168 25.2396 30.2248 25.9735 30.225ZM19.8414 34.1484C19.841 34.7306 19.9296 35.3097 20.1043 35.867H12.0937C12.3639 28.8304 15.3773 22.1528 20.5296 17.1734C25.6819 12.194 32.592 9.2811 39.874 9.01888V18.2682C39.8742 18.4469 39.9239 18.6223 40.018 18.7761C40.112 18.93 40.2471 19.0567 40.409 19.1431C40.5709 19.2294 40.7538 19.2723 40.9387 19.2673C41.1235 19.2622 41.3036 19.2094 41.4602 19.1143C42.0745 18.7407 42.7813 18.5329 43.5069 18.5128C44.2324 18.4927 44.9503 18.6609 45.5858 18.9999C46.2213 19.339 46.751 19.8364 47.12 20.4405C47.4889 21.0445 47.6835 21.7331 47.6835 22.4345C47.6835 23.1359 47.4889 23.8245 47.12 24.4286C46.751 25.0327 46.2213 25.5301 45.5858 25.8691C44.9503 26.2082 44.2324 26.3764 43.5069 26.3562C42.7813 26.3361 42.0745 26.1284 41.4602 25.7547C41.3036 25.6594 41.1234 25.6063 40.9384 25.6011C40.7533 25.5959 40.5702 25.6388 40.4081 25.7252C40.2461 25.8116 40.1109 25.9384 40.0168 26.0924C39.9226 26.2464 39.8729 26.422 39.8729 26.6009V35.867H31.8427C32.0979 35.0521 32.1684 34.1936 32.0494 33.3501C31.9304 32.5065 31.6246 31.6976 31.153 30.9785C30.6813 30.2594 30.0548 29.6469 29.3162 29.1828C28.5775 28.7187 27.744 28.4139 26.8724 28.2891C26.0009 28.1643 25.1117 28.2224 24.2655 28.4596C23.4193 28.6967 22.6359 29.1072 21.9687 29.6633C21.3015 30.2193 20.7661 30.9077 20.399 31.6817C20.0319 32.4557 19.8417 33.297 19.8414 34.1484Z" fill="white"/>
</g>
</svg>
