<svg width="96" height="86" viewBox="0 0 96 86" fill="none" xmlns="http://www.w3.org/2000/svg">
<g id="noun-statistics-5762887">
<path id="Vector" d="M87.9645 75.9916C87.9645 76.2786 87.8504 76.5539 87.6475 76.7569C87.4445 76.9598 87.1692 77.0739 86.8822 77.0739H10.0829C9.79583 77.0739 9.52054 76.9598 9.31757 76.7569C9.1146 76.5539 9.00057 76.2786 9.00057 75.9916V15.6131C8.99587 15.4681 9.02037 15.3236 9.07262 15.1883C9.12487 15.0529 9.20379 14.9294 9.3047 14.8252C9.40562 14.721 9.52646 14.6381 9.66004 14.5815C9.79362 14.5249 9.93722 14.4957 10.0823 14.4957C10.2274 14.4957 10.371 14.5249 10.5046 14.5815C10.6382 14.6381 10.759 14.721 10.8599 14.8252C10.9608 14.9294 11.0397 15.0529 11.092 15.1883C11.1442 15.3236 11.1687 15.4681 11.164 15.6131V74.9081H86.8822C87.0244 74.9081 87.1652 74.9361 87.2966 74.9906C87.428 75.0451 87.5474 75.1249 87.6479 75.2255C87.7484 75.3261 87.8281 75.4456 87.8824 75.577C87.9367 75.7085 87.9646 75.8493 87.9645 75.9916ZM16.1156 69.8384V55.8957C16.1156 55.6088 16.2295 55.3337 16.4322 55.1308C16.6349 54.9278 16.9099 54.8137 17.1968 54.8134H27.3986C27.6856 54.8134 27.9609 54.9274 28.1639 55.1304C28.3669 55.3334 28.4809 55.6086 28.4809 55.8957V69.8384C28.4809 70.1255 28.3669 70.4008 28.1639 70.6037C27.9609 70.8067 27.6856 70.9207 27.3986 70.9207H17.1956C16.909 70.9201 16.6343 70.8058 16.4318 70.6029C16.2293 70.4 16.1156 70.1251 16.1156 69.8384ZM18.2791 68.755H26.3163V56.978H18.2734L18.2791 68.755ZM43.4481 37.7907C43.7349 37.7907 44.01 37.9045 44.213 38.1073C44.4159 38.31 44.5301 38.585 44.5304 38.8718V69.8384C44.5304 70.1255 44.4163 70.4008 44.2134 70.6037C44.0104 70.8067 43.7351 70.9207 43.4481 70.9207H33.2462C32.9594 70.9204 32.6844 70.8063 32.4817 70.6033C32.2789 70.4004 32.1651 70.1253 32.1651 69.8384V38.8718C32.1651 38.5851 32.279 38.3101 32.4817 38.1073C32.6845 37.9046 32.9595 37.7907 33.2462 37.7907H43.4481ZM42.3657 39.9541H34.3285V68.7573H42.3657V39.9541ZM59.4986 47.6768C59.7855 47.6771 60.0605 47.7912 60.2632 47.9942C60.4659 48.1971 60.5798 48.4722 60.5798 48.7591V69.8384C60.5798 70.1253 60.4659 70.4004 60.2632 70.6033C60.0605 70.8063 59.7855 70.9204 59.4986 70.9207H49.2968C49.01 70.9204 48.735 70.8063 48.5322 70.6033C48.3295 70.4004 48.2156 70.1253 48.2156 69.8384V48.7625C48.2156 48.4756 48.3295 48.2005 48.5322 47.9976C48.735 47.7946 49.01 47.6805 49.2968 47.6802L59.4986 47.6768ZM58.4163 49.8505H50.3791V68.7573H58.4163V49.8505ZM65.344 25.6355H75.5458C75.6879 25.6353 75.8286 25.6632 75.9599 25.7174C76.0912 25.7717 76.2105 25.8513 76.311 25.9517C76.4116 26.0521 76.4913 26.1714 76.5457 26.3026C76.6001 26.4339 76.6281 26.5746 76.6281 26.7166V69.8384C76.6281 70.1255 76.5141 70.4008 76.3111 70.6037C76.1081 70.8067 75.8328 70.9207 75.5458 70.9207H65.3474C65.0609 70.9198 64.7865 70.8054 64.5843 70.6025C64.382 70.3997 64.2685 70.1249 64.2685 69.8384V26.7109C64.2688 26.4247 64.3825 26.1502 64.5847 25.9476C64.7869 25.745 65.0611 25.6307 65.3474 25.6298L65.344 25.6355ZM66.4263 68.7573H74.4646V27.7933H66.4263V68.7573ZM17.8191 41.6951C17.8167 40.9478 18.0019 40.2118 18.358 39.5547C18.714 38.8976 19.2294 38.3405 19.8568 37.9344C20.4842 37.5283 21.2035 37.2864 21.9488 37.2307C22.6941 37.175 23.4414 37.3074 24.1222 37.6158L34.6363 25.9444C34.1976 25.3075 33.9308 24.5682 33.8617 23.798C33.7926 23.0278 33.9236 22.2528 34.242 21.5481C34.5604 20.8433 35.0554 20.2328 35.679 19.7755C36.3027 19.3183 37.0338 19.0298 37.8017 18.9381C38.5695 18.8464 39.348 18.9545 40.0618 19.252C40.7756 19.5495 41.4005 20.0263 41.8759 20.6362C42.3513 21.2462 42.6612 21.9685 42.7754 22.7333C42.8897 23.4981 42.8045 24.2795 42.5281 25.0017L51.4478 31.1344C52.0785 30.5656 52.86 30.1909 53.6984 30.0553C54.5369 29.9197 55.3966 30.0291 56.1745 30.3701L66.9635 16.2547C66.3245 15.4695 65.9738 14.4892 65.9697 13.4769C65.97 12.5912 66.2328 11.7256 66.725 10.9893C67.2172 10.2531 67.9166 9.6793 68.7349 9.34054C69.5531 9.00179 70.4535 8.91327 71.322 9.08618C72.1906 9.2591 72.9884 9.68567 73.6146 10.312C74.2407 10.9383 74.6671 11.7362 74.8398 12.6048C75.0125 13.4734 74.9237 14.3737 74.5847 15.1919C74.2458 16.0101 73.6718 16.7094 72.9355 17.2014C72.1991 17.6934 71.3334 17.956 70.4477 17.956C69.8363 17.9555 69.2316 17.8287 68.6715 17.5835L57.8826 31.6989C58.5202 32.4843 58.8704 33.4639 58.8751 34.4756C58.8846 35.0696 58.7758 35.6595 58.555 36.211C58.3342 36.7625 58.006 37.2646 57.5892 37.688C57.1725 38.1114 56.6758 38.4477 56.1278 38.6772C55.5799 38.9067 54.9918 39.0249 54.3977 39.0249C53.8037 39.0249 53.2155 38.9067 52.6676 38.6772C52.1197 38.4477 51.6229 38.1114 51.2062 37.688C50.7895 37.2646 50.4612 36.7625 50.2404 36.211C50.0197 35.6595 49.9108 35.0696 49.9203 34.4756C49.9243 33.9415 50.0247 33.4125 50.2167 32.914L41.2971 26.7814C40.6241 27.3937 39.7765 27.7802 38.873 27.8869C37.9694 27.9936 37.0551 27.8152 36.2581 27.3765L25.82 38.9604C26.4336 39.7369 26.7694 40.6964 26.774 41.686C26.7834 42.28 26.6746 42.87 26.4539 43.4215C26.2331 43.973 25.9048 44.4751 25.4881 44.8985C25.0714 45.3219 24.5746 45.6581 24.0267 45.8876C23.4787 46.1171 22.8906 46.2353 22.2966 46.2353C21.7025 46.2353 21.1144 46.1171 20.5664 45.8876C20.0185 45.6581 19.5217 45.3219 19.105 44.8985C18.6883 44.4751 18.36 43.973 18.1393 43.4215C17.9185 42.87 17.8097 42.28 17.8191 41.686V41.6951ZM68.1298 13.478C68.1296 13.9358 68.2651 14.3834 68.5193 14.7642C68.7735 15.1449 69.1349 15.4418 69.5578 15.6171C69.9807 15.7925 70.4461 15.8385 70.8952 15.7493C71.3442 15.6601 71.7567 15.4398 72.0805 15.1161C72.4043 14.7925 72.6249 14.3801 72.7143 13.9311C72.8037 13.4821 72.7579 13.0167 72.5828 12.5937C72.4076 12.1707 72.111 11.8091 71.7303 11.5548C71.3497 11.3004 70.9021 11.1646 70.4443 11.1646C69.8309 11.1655 69.2429 11.4095 68.8091 11.8431C68.3753 12.2767 68.131 12.8646 68.1298 13.478ZM52.0838 34.4767C52.0835 34.9346 52.2191 35.3822 52.4734 35.763C52.7276 36.1438 53.0891 36.4407 53.512 36.616C53.935 36.7913 54.4005 36.8372 54.8495 36.748C55.2986 36.6587 55.7111 36.4382 56.0349 36.1145C56.3587 35.7907 56.5791 35.3782 56.6684 34.9291C56.7577 34.4801 56.7117 34.0146 56.5364 33.5916C56.3611 33.1686 56.0643 32.8072 55.6835 32.5529C55.3027 32.2987 54.855 32.1631 54.3971 32.1634C53.7839 32.1643 53.196 32.4083 52.7623 32.8419C52.3287 33.2756 52.0847 33.8635 52.0838 34.4767ZM36.0343 23.4413C36.0343 23.8989 36.17 24.3461 36.4242 24.7266C36.6784 25.107 37.0397 25.4035 37.4624 25.5786C37.8851 25.7537 38.3503 25.7995 38.799 25.7103C39.2478 25.621 39.66 25.4007 39.9835 25.0771C40.307 24.7536 40.5274 24.3414 40.6166 23.8926C40.7059 23.4439 40.6601 22.9787 40.485 22.556C40.3099 22.1333 40.0134 21.772 39.6329 21.5178C39.2525 21.2636 38.8053 21.1279 38.3477 21.1279C37.7344 21.1288 37.1465 21.3729 36.7129 21.8065C36.2792 22.2402 36.0352 22.8281 36.0343 23.4413ZM19.9837 41.6951C19.9837 42.1527 20.1194 42.5999 20.3736 42.9804C20.6278 43.3608 20.9891 43.6573 21.4118 43.8324C21.8345 44.0075 22.2997 44.0533 22.7484 43.9641C23.1972 43.8748 23.6094 43.6545 23.9329 43.3309C24.2565 43.0074 24.4768 42.5952 24.5661 42.1464C24.6553 41.6977 24.6095 41.2325 24.4344 40.8098C24.2593 40.3871 23.9628 40.0258 23.5824 39.7716C23.2019 39.5174 22.7547 39.3817 22.2971 39.3817C21.6838 39.3823 21.0957 39.6263 20.662 40.06C20.2283 40.4937 19.9843 41.0818 19.9837 41.6951Z" fill="white"/>
</g>
</svg>
