<svg width="96" height="86" viewBox="0 0 96 86" fill="none" xmlns="http://www.w3.org/2000/svg">
<g id="noun-strategy-6121581">
<g id="Group">
<path id="Vector" d="M86.2927 77.4112H81.8177V67.9938H78.8658V58.4659H73.9255C73.861 55.6879 73.1668 53.0036 71.8193 50.6617C71.611 50.2797 71.4026 49.9324 71.1532 49.5378L63.9441 38.4093H66.2645L70.1209 41.3737L70.4981 41.5726C71.5131 41.9199 72.6481 41.901 73.753 41.5158C75.6678 40.7392 76.9527 38.725 76.9527 36.5025C76.9527 35.2996 76.5581 34.0526 75.7214 32.7709L64.8597 19.5618H61.4059L59.5496 14.4285L58.17 15.1965V7.06314H48.6341V14.0054H43.3651V7H32.5033V14.0054H27.2011V7.06314H17.3985V19.7891L21.5958 28.0984H24.5823V37.2475H28.2682V49.923L25.2463 58.4659H17.037V67.9938H14.2083V77.4112H10V80H29.561V77.4112H16.7939V70.5826H17.037H28.8001H75.6599H78.8658H79.232V77.4112H37.2268H32.9045H29.561V80L33.4279 80H35.5216L37.226 80H86.2927V77.4112ZM59.5906 22.1506H63.6379L73.6346 34.2925C74.1145 35.0344 74.3671 35.7984 74.3671 36.5024C74.3671 37.6642 73.7151 38.7408 72.8438 39.0944C72.4018 39.2491 71.9314 39.2743 71.5037 39.1733L67.1454 35.8205H62.2686L61.1786 34.1378L58.3878 33.7337L58.0153 36.2909L59.6443 36.5308L60.4809 37.8221L60.4823 37.8211L68.9765 50.9364C69.1864 51.2647 69.3664 51.5615 69.5605 51.9214C70.6965 53.8973 71.2823 56.1421 71.3456 58.4659H43.6742C43.4004 53.9229 43.117 44.7001 44.5758 36.1646C45.2309 32.2278 46.2048 28.9224 47.5607 26.1221C48.35 24.5436 49.3366 23.2903 50.3279 22.5042L58.151 18.1664L59.5906 22.1506ZM24.5823 25.5097H23.1585L19.9841 19.4703V9.65191H24.6155V16.5942H35.0889V9.58876H40.7795V16.5942H51.2197V9.65191H55.5843V16.6358L48.9104 20.3511C47.6213 21.3483 46.5201 22.6961 45.5442 24.4742H24.5823V25.5097ZM27.1679 34.6587V27.0629H44.34C43.4696 29.2509 42.769 31.8014 42.2362 34.6587H27.1679ZM30.7796 50.5765L30.8472 37.2475H41.8096C40.5954 45.4885 40.8217 54.0295 41.0833 58.4659H27.9893L30.7796 50.5765ZM76.2802 67.9938H75.6599H28.8001H19.6226V61.0546H76.2802V67.9938Z" fill="white"/>
<path id="Vector_2" d="M61.3008 28.1362H58.7152V31.4732H61.3008V28.1362Z" fill="white"/>
</g>
</g>
</svg>
