<svg width="96" height="86" viewBox="0 0 96 86" fill="none" xmlns="http://www.w3.org/2000/svg">
<g id="noun-responsibility-5762905" clip-path="url(#clip0_149_1291)">
<path id="Vector" d="M88.1151 55.4392C87.2379 53.9276 85.7976 52.825 84.1094 52.3728C82.4212 51.9205 80.6226 52.1555 79.1072 53.0261L65.3596 60.9605C64.2934 61.624 63.1768 62.203 62.0201 62.6921C62.5224 62.0618 62.8891 61.3346 63.0974 60.5561C63.4989 59.037 63.2827 57.4207 62.4961 56.0605C61.7095 54.7003 60.4165 53.7067 58.8995 53.297L40.3666 48.3298C34.9109 46.8642 32.4805 48.3039 28.452 50.6873C27.9647 50.9767 27.4477 51.2822 26.8924 51.6025L20.7081 55.1746L18.5313 51.4108C18.3748 51.1409 18.1178 50.944 17.8164 50.8631C17.5151 50.7822 17.194 50.8239 16.9234 50.9792L7.58766 56.3582C7.31799 56.5149 7.12127 56.772 7.0404 57.0732C6.95953 57.3744 7.00108 57.6954 7.156 57.9661L22.9975 85.4105C23.0747 85.5446 23.1775 85.6621 23.3001 85.7563C23.4227 85.8505 23.5627 85.9197 23.712 85.9598C23.8613 85.9999 24.0171 86.0101 24.1704 85.9899C24.3237 85.9698 24.4716 85.9196 24.6054 85.8422L33.9387 80.4607C34.0728 80.3836 34.1904 80.2807 34.2847 80.1581C34.3789 80.0354 34.448 79.8953 34.4879 79.7458C34.5665 79.4427 34.522 79.1208 34.3642 78.8503L32.1873 75.0779L34.7847 73.5838L52.6732 79.0903C52.7969 79.1298 52.9367 79.1781 53.0839 79.2313C54.0553 79.6191 55.0904 79.823 56.1364 79.8324C58.4813 79.7208 60.7547 78.9897 62.7251 77.7136L64.0151 76.9715C71.2359 72.7984 78.4632 68.6249 85.6971 64.4509C87.2086 63.5727 88.3112 62.1321 88.7642 60.4437C89.2173 58.7553 88.9839 56.9562 88.1151 55.4392ZM24.4496 83.2127L9.78677 57.814L17.0842 53.6087L19.2363 57.3477C19.2393 57.3591 19.243 57.3702 19.2474 57.3811L29.5565 75.2412C29.5664 75.2585 29.5813 75.2709 29.5912 75.2869L31.7408 79.0111L24.4496 83.2127ZM84.5221 62.4064C77.2857 66.5812 70.0571 70.7547 62.8364 74.927L61.5476 75.6691C57.1729 78.1898 55.1902 77.4786 53.8792 77.0099C53.6949 76.9431 53.5254 76.8862 53.3671 76.833L34.9925 71.1781C34.8376 71.1317 34.6749 71.117 34.5142 71.1351C34.3535 71.1532 34.1981 71.2036 34.0574 71.2833L32.7983 72.0093L32.3852 72.248L31.016 73.0359L21.8844 57.2166L28.0686 53.6433C28.6314 53.3193 29.1546 53.0088 29.6506 52.7145C33.4971 50.4374 35.2572 49.3985 39.7519 50.6044L58.2823 55.5703C59.1968 55.8172 59.9765 56.4157 60.4513 57.2353C60.9261 58.0549 61.0574 59.029 60.8167 59.9451C60.5907 60.7833 60.0662 61.51 59.3418 61.9883C58.6174 62.4667 57.7431 62.6638 56.8835 62.5425L54.6213 61.9451L54.6126 61.9797L42.233 58.6662C42.0819 58.6208 41.9233 58.6062 41.7665 58.6232C41.6097 58.6402 41.4579 58.6885 41.3201 58.7653C41.1823 58.8421 41.0613 58.9457 40.9643 59.0701C40.8673 59.1944 40.7962 59.337 40.7553 59.4894C40.7144 59.6417 40.7045 59.8007 40.7262 59.957C40.7479 60.1132 40.8007 60.2635 40.8815 60.399C40.9623 60.5344 41.0695 60.6523 41.1967 60.7455C41.3239 60.8388 41.4685 60.9056 41.622 60.942L55.8309 64.749C55.9793 64.7886 56.1302 64.796 56.2799 64.8232L58.124 65.3105C61.1976 66.1157 64.0399 64.4608 66.547 62.9976L80.2871 55.0682C80.769 54.7901 81.3008 54.6097 81.8524 54.5372C82.404 54.4646 82.9644 54.5015 83.5018 54.6456C84.0391 54.7896 84.5428 55.0381 84.9841 55.3769C85.4254 55.7156 85.7956 56.138 86.0737 56.6198C86.3518 57.1017 86.5322 57.6335 86.6047 58.1851C86.6772 58.7367 86.6404 59.2971 86.4963 59.8345C86.3522 60.3718 86.1037 60.8755 85.765 61.3168C85.4263 61.7581 85.0039 62.1283 84.5221 62.4064ZM44.9961 33.7882L43.4179 36.9125L48.8959 42.3967L52.0128 40.8086C53.7564 41.8552 55.6465 42.6356 57.6206 43.1239L58.6917 46.4523H66.4641L67.5364 43.1239C69.5087 42.6339 71.3961 41.8505 73.1357 40.7999L76.2612 42.3917L81.7392 36.9075L80.1597 33.7845C81.2075 32.0432 81.9892 30.1552 82.4788 28.1828L85.8035 27.1031V19.3505L82.4788 18.2695C81.9898 16.2977 81.2081 14.4104 80.1597 12.6703L81.7404 9.54599L76.2612 4.06181L73.1369 5.65487C71.3972 4.60334 69.5093 3.81947 67.5364 3.32959L66.4653 0H58.6917L57.6231 3.32836C55.6479 3.81753 53.7569 4.5992 52.0128 5.64745L48.8959 4.0581L43.4179 9.54599L44.9961 12.6703C43.9483 14.4108 43.1662 16.298 42.6758 18.2695L39.3512 19.3505V27.108L42.6758 28.1878C43.1658 30.1598 43.9479 32.0475 44.9961 33.7882ZM41.7111 21.0635L44.6857 20.0901L44.8279 19.4309C45.2874 17.2742 46.1384 15.2201 47.3387 13.3703L47.7098 12.7952L46.2874 10.0036L49.3548 6.94119L52.1315 8.36851L52.7079 7.99746C54.5582 6.79772 56.6121 5.94598 58.7684 5.48418L59.4029 5.34937L60.4073 2.36114H64.7436L65.4214 4.46379L65.7455 5.34937L66.38 5.48542C68.5319 5.94535 70.5811 6.79638 72.4257 7.99622L72.9848 8.36109L75.7998 6.9449L78.8623 10.0086L77.4424 12.8026L77.8134 13.3753C79.0137 15.225 79.8647 17.2792 80.3242 19.4358L80.4665 20.0938L83.4411 21.0685V25.3974L80.4665 26.3708L80.3242 27.0276C79.8637 29.1839 79.0128 31.2379 77.8134 33.0882L77.4424 33.6633L78.8635 36.4549L75.7998 39.521L72.9872 38.0999L72.4245 38.4709C70.5812 39.6725 68.5321 40.5237 66.38 40.9817L65.743 41.119L64.7436 44.106H60.4097L59.7319 42.0034L59.4066 41.1165L58.7697 40.9805C56.6134 40.5196 54.5596 39.6687 52.7091 38.4697L52.1352 38.0986L49.3548 39.5198L46.2911 36.4536L47.7147 33.6645L47.3437 33.0869C46.1443 31.2367 45.2934 29.1827 44.8329 27.0264L44.6906 26.3684L41.716 25.3962L41.7111 21.0635ZM62.5779 35.5346C65.0112 35.5332 67.3894 34.8103 69.4119 33.4573C71.4343 32.1044 73.0102 30.1821 73.9403 27.9337C74.8704 25.6852 75.1129 23.2114 74.6372 20.8251C74.1616 18.4387 72.989 16.247 71.2678 14.5271C69.5466 12.8071 67.3541 11.6361 64.9674 11.162C62.5808 10.688 60.1072 10.9323 57.8593 11.864C55.6115 12.7957 53.6904 14.3729 52.3388 16.3963C50.9873 18.4197 50.2661 20.7984 50.2663 23.2317C50.2696 26.4949 51.5681 29.6234 53.8766 31.9298C56.1851 34.2362 59.3147 35.5318 62.5779 35.5322V35.5346ZM62.5779 13.2862C64.5446 13.2879 66.4666 13.8727 68.101 14.9665C69.7354 16.0604 71.0088 17.6143 71.7602 19.4317C72.5116 21.2492 72.7073 23.2486 72.3226 25.1773C71.9379 27.106 70.99 28.8773 69.5987 30.2673C68.2075 31.6573 66.4354 32.6037 64.5064 32.9867C62.5774 33.3698 60.5781 33.1723 58.7613 32.4193C56.9445 31.6663 55.3917 30.3916 54.2993 28.7562C53.2068 27.1209 52.6238 25.1984 52.6238 23.2317C52.6248 20.5926 53.674 18.0619 55.5407 16.1963C57.4075 14.3308 59.9388 13.2831 62.5779 13.2837V13.2862ZM23.2944 40.3398C25.8676 40.3388 28.3828 39.5749 30.5219 38.1445C32.661 36.7142 34.328 34.6817 35.3121 32.3041C36.2961 29.9264 36.5531 27.3104 36.0505 24.7867C35.5478 22.263 34.3082 19.945 32.4883 18.1258C30.6684 16.3066 28.3499 15.0678 25.8261 14.5662C23.3022 14.0645 20.6862 14.3225 18.309 15.3074C15.9317 16.2924 13.8998 17.9601 12.4703 20.0998C11.0408 22.2394 10.2778 24.7549 10.2778 27.3282C10.2827 30.7784 11.6558 34.0859 14.096 36.5251C16.5362 38.9643 19.8441 40.3362 23.2944 40.3398ZM23.2944 16.674C25.4014 16.6749 27.4608 17.3006 29.2122 18.4719C30.9636 19.6432 32.3284 21.3075 33.1341 23.2544C33.9397 25.2013 34.15 27.3433 33.7383 29.4097C33.3267 31.4761 32.3116 33.374 30.8214 34.8636C29.3311 36.3531 27.4327 37.3673 25.3662 37.778C23.2996 38.1887 21.1576 37.9774 19.2111 37.1709C17.2646 36.3644 15.6009 34.9988 14.4304 33.2468C13.26 31.4948 12.6352 29.4351 12.6352 27.3282C12.6392 24.5028 13.7636 21.7944 15.7619 19.7971C17.7601 17.7997 20.4691 16.6766 23.2944 16.674ZM16.8628 27.9639C16.7533 27.8544 16.6665 27.7245 16.6072 27.5814C16.548 27.4384 16.5175 27.2851 16.5175 27.1303C16.5175 26.9754 16.548 26.8221 16.6072 26.6791C16.6665 26.5361 16.7533 26.4061 16.8628 26.2966C16.9723 26.1872 17.1022 26.1003 17.2453 26.0411C17.3883 25.9818 17.5416 25.9513 17.6964 25.9513C17.8512 25.9513 18.0045 25.9818 18.1476 26.0411C18.2906 26.1003 18.4206 26.1872 18.53 26.2966L21.2511 29.0177L28.1243 23.1303C28.3618 22.9269 28.6703 22.8262 28.9821 22.8503C29.2938 22.8745 29.5832 23.0214 29.7866 23.2589C29.99 23.4964 30.0907 23.805 30.0666 24.1167C30.0424 24.4285 29.8955 24.7179 29.658 24.9213L21.9561 31.5174C21.7305 31.7103 21.4404 31.811 21.1438 31.7996C20.8471 31.7881 20.5657 31.6653 20.3556 31.4555L16.8628 27.9639Z" fill="white"/>
</g>
<defs>
<clipPath id="clip0_149_1291">
<rect width="96" height="86" fill="white"/>
</clipPath>
</defs>
</svg>
