<svg width="96" height="86" viewBox="0 0 96 86" fill="none" xmlns="http://www.w3.org/2000/svg">
<g id="noun-game-1158666 2">
<g id="Group 34">
<path id="Vector" d="M28.7422 46H24.7835V42C24.7835 40.346 23.4513 39 21.8144 39H19.835C18.1981 39 16.8659 40.346 16.8659 42V46H12.9072C11.2702 46 9.93811 47.346 9.93811 49V51C9.93811 52.654 11.2702 54 12.9072 54H16.8659V58C16.8659 59.654 18.1981 61 19.835 61H21.8144C23.4513 61 24.7835 59.654 24.7835 58V54H28.7422C30.3792 54 31.7113 52.654 31.7113 51V49C31.7113 47.346 30.3792 46 28.7422 46ZM29.7319 51C29.7319 51.551 29.2885 52 28.7422 52H23.7938C23.2465 52 22.8041 52.448 22.8041 53V58C22.8041 58.551 22.3607 59 21.8144 59H19.835C19.2887 59 18.8453 58.551 18.8453 58V53C18.8453 52.448 18.4029 52 17.8556 52H12.9072C12.3609 52 11.9175 51.551 11.9175 51V49C11.9175 48.449 12.3609 48 12.9072 48H17.8556C18.4029 48 18.8453 47.552 18.8453 47V42C18.8453 41.449 19.2887 41 19.835 41H21.8144C22.3607 41 22.8041 41.449 22.8041 42V47C22.8041 47.552 23.2465 48 23.7938 48H28.7422C29.2885 48 29.7319 48.449 29.7319 49V51Z" fill="white"/>
<path id="Vector_2" d="M82.1856 33H56.4536V30C56.4536 27.243 54.2337 25 51.5052 25H50.5155V21C50.5155 20.449 50.9588 20 51.5052 20H54.4742C58.2934 20 61.4021 16.86 61.4021 13V7C61.4021 6.448 60.9597 6 60.4124 6H56.4536C55.9063 6 55.4639 6.448 55.4639 7V13C55.4639 13.551 55.0205 14 54.4742 14H51.5052C47.6859 14 44.5773 17.14 44.5773 21V25H43.5876C40.8591 25 38.6392 27.243 38.6392 30V33H12.9072C7.99538 33 4 37.038 4 42V58C4 62.962 7.99538 67 12.9072 67H28.7423C33.6541 67 37.6495 62.962 37.6495 58V55H57.4433V58C57.4433 62.962 61.4387 67 66.3505 67H82.1856C87.0974 67 91.0928 62.962 91.0928 58V42C91.0928 37.038 87.0974 33 82.1856 33ZM46.5567 21C46.5567 18.243 48.7766 16 51.5052 16H54.4742C56.1112 16 57.4433 14.654 57.4433 13V8H59.4227V13C59.4227 15.757 57.2028 18 54.4742 18H51.5052C49.8682 18 48.5361 19.346 48.5361 21V25H46.5567V21ZM40.6186 30C40.6186 28.346 41.9507 27 43.5876 27C47.391 27 47.7018 27 51.5052 27C53.1421 27 54.4742 28.346 54.4742 30V33H40.6186V30ZM89.1134 58C89.1134 61.86 86.0048 65 82.1856 65H66.3505C62.5313 65 59.4227 61.86 59.4227 58V54C59.4227 53.448 58.9803 53 58.433 53H36.6598C36.1125 53 35.6701 53.448 35.6701 54V58C35.6701 61.86 32.5615 65 28.7423 65H12.9072C9.088 65 5.97938 61.86 5.97938 58V42C5.97938 38.14 9.088 35 12.9072 35C45.6442 35 50.1325 35 82.1856 35C86.0048 35 89.1134 38.14 89.1134 42V58Z" fill="white"/>
<path id="Vector_3" d="M74.268 47C76.4513 47 78.2268 45.206 78.2268 43C78.2268 40.794 76.4513 39 74.268 39C72.0848 39 70.3093 40.794 70.3093 43C70.3093 45.206 72.0848 47 74.268 47ZM74.268 41C75.3597 41 76.2474 41.897 76.2474 43C76.2474 44.103 75.3597 45 74.268 45C73.1764 45 72.2886 44.103 72.2886 43C72.2886 41.897 73.1764 41 74.268 41Z" fill="white"/>
<path id="Vector_4" d="M74.268 53C72.0848 53 70.3093 54.794 70.3093 57C70.3093 59.206 72.0848 61 74.268 61C76.4513 61 78.2268 59.206 78.2268 57C78.2268 54.794 76.4513 53 74.268 53ZM74.268 59C73.1764 59 72.2886 58.103 72.2886 57C72.2886 55.897 73.1764 55 74.268 55C75.3597 55 76.2474 55.897 76.2474 57C76.2474 58.103 75.3597 59 74.268 59Z" fill="white"/>
<path id="Vector_5" d="M67.3402 46C65.1569 46 63.3814 47.794 63.3814 50C63.3814 52.206 65.1569 54 67.3402 54C69.5234 54 71.2989 52.206 71.2989 50C71.2989 47.794 69.5234 46 67.3402 46ZM67.3402 52C66.2485 52 65.3608 51.103 65.3608 50C65.3608 48.897 66.2485 48 67.3402 48C68.4318 48 69.3196 48.897 69.3196 50C69.3196 51.103 68.4318 52 67.3402 52Z" fill="white"/>
<path id="Vector_6" d="M81.1958 46C79.0126 46 77.2371 47.794 77.2371 50C77.2371 52.206 79.0126 54 81.1958 54C83.3791 54 85.1546 52.206 85.1546 50C85.1546 47.794 83.3791 46 81.1958 46ZM81.1958 52C80.1042 52 79.2164 51.103 79.2164 50C79.2164 48.897 80.1042 48 81.1958 48C82.2875 48 83.1752 48.897 83.1752 50C83.1752 51.103 82.2875 52 81.1958 52Z" fill="white"/>
</g>
</g>
</svg>
