<svg width="13" height="12" viewBox="0 0 13 12" fill="none" xmlns="http://www.w3.org/2000/svg">
<path d="M10.9333 7.50686C10.4634 7.0787 9.87689 7.0787 9.41005 7.50686C9.05393 7.83281 8.69782 8.15876 8.34769 8.49023C8.25193 8.58139 8.17113 8.60072 8.05442 8.53995C7.82399 8.42394 7.5786 8.33002 7.35715 8.20295C6.32472 7.60354 5.45987 6.83286 4.69378 5.9655C4.31372 5.53459 3.97556 5.07328 3.73915 4.55398C3.69127 4.44901 3.70025 4.37995 3.79302 4.29432C4.14913 3.97666 4.49627 3.65071 4.8464 3.32476C5.33418 2.87174 5.33418 2.34138 4.8434 1.88561C4.56509 1.62595 4.28679 1.37182 4.00848 1.11217C3.72119 0.846987 3.4369 0.579045 3.14662 0.316628C2.67679 -0.106002 2.09025 -0.106002 1.62341 0.31939C1.2643 0.64534 0.92016 0.979576 0.555068 1.3C0.216908 1.59557 0.0463326 1.95743 0.010422 2.38006C-0.0464366 3.06787 0.136109 3.717 0.393469 4.34957C0.92016 5.65889 1.72217 6.82181 2.69475 7.88805C4.00848 9.32997 5.57658 10.4708 7.41102 11.294C8.23696 11.6641 9.09284 11.9486 10.0235 11.9956C10.6639 12.0287 11.2205 11.8796 11.6664 11.4183C11.9717 11.1034 12.3158 10.8161 12.639 10.515C13.1178 10.0675 13.1208 9.52609 12.645 9.08412C12.0764 8.55653 11.5048 8.03169 10.9333 7.50686Z" fill="white"/>
</svg>
