<svg width="177" height="46" viewBox="0 0 177 46" fill="none" xmlns="http://www.w3.org/2000/svg">
<path d="M20.3396 29.8267H14.9134L13.6531 26.4309H6.6515L5.3212 29.8267H0L7.49169 10.3623H13.0229L20.3396 29.8267ZM12.3228 22.5801L10.2223 16.3487L8.05182 22.5801H12.3228ZM38.7188 29.8267H32.4523L27.6212 22.37V29.8267H22.5801V10.3623H30.4569C32.7674 10.3623 34.4478 11.0625 35.568 12.4278C36.4432 13.548 36.8983 14.8433 36.8983 16.3487C36.8983 18.064 36.3732 19.4644 35.358 20.4796C34.6928 21.1447 33.7826 21.5998 32.6624 21.8449L38.7188 29.8267ZM31.6121 16.6287C31.6121 15.9286 31.3671 15.3334 30.842 14.8783C30.3869 14.4232 29.6167 14.2132 28.5314 14.2132H27.5862V19.0793H28.5314C29.5817 19.0793 30.3519 18.8692 30.842 18.4141C31.3671 17.924 31.6121 17.3289 31.6121 16.6287ZM52.4068 14.5633H48.2059V29.8267H43.1648V14.5633H39.0338V10.3623H52.4068V14.5633ZM77.5425 16.7688C77.5425 18.5191 77.1224 19.9895 76.3172 21.1447C75.232 22.6501 73.4466 23.3852 70.961 23.3852H67.8103V29.8267H62.7692V10.3623H70.821C73.0965 10.3623 74.8469 11.0275 76.0372 12.3578C77.0174 13.513 77.5425 14.9833 77.5425 16.7688ZM72.2913 16.8388C72.2913 16.1036 72.0813 15.5085 71.6612 15.0884C71.2411 14.6333 70.5059 14.4232 69.4907 14.4232H67.7753V19.3243H69.4557C70.5409 19.3243 71.3111 19.0793 71.7312 18.5892C72.0813 18.1691 72.2913 17.5739 72.2913 16.8388ZM91.3707 29.8267H80.2381V10.3623H85.2793V25.6258H91.3707V29.8267ZM112.445 29.8267H107.054L105.794 26.4309H98.7923L97.462 29.8267H92.1058L99.5975 10.3623H105.129L112.445 29.8267ZM104.429 22.5801L102.328 16.3487L100.193 22.5801H104.429ZM131.7 10.3623L124.383 20.4796V29.8267H119.342V20.4796L112.305 10.3623H118.327L122.003 15.7185L125.538 10.3623H131.7Z" fill="#E30613"/>
<path d="M136.776 14.2832L136.741 20.6547L136.776 29.1966L141.887 28.2164L144.408 21.5999L142.062 15.2634L136.776 14.2832ZM144.548 21.3548L146.543 16.1386L142.272 15.3335L144.548 21.3548ZM136.671 0.595134L136.776 14.0382L141.992 15.0534L136.671 0.595134ZM136.531 0L142.167 15.0884L146.578 15.9286L147.943 12.3928L136.531 0ZM142.342 28.1464L151.899 26.396L144.618 21.985L142.342 28.1464ZM136.741 43.4098L174.829 22.3L152.739 26.466L136.741 43.4098ZM136.531 43.6199V0L177 21.7399L136.531 43.6199ZM136.811 43.0247L151.899 26.571L142.272 28.4264L136.811 43.0247ZM152.354 26.2559V17.2589L144.758 21.7749L152.354 26.2559ZM152.739 26.1859L175.915 21.7749L152.634 17.3289L152.739 26.1859ZM146.718 16.1737L144.758 21.4599L152.249 17.2239L146.718 16.1737ZM152.249 17.0138L148.048 12.4978L146.788 15.9636L152.249 17.0138ZM136.776 29.4767L136.846 41.5194L141.817 28.5314L136.776 29.4767ZM147.978 12.3228L149.869 7.42168L136.811 0.210047L147.978 12.3228ZM149.939 7.42168L148.083 12.4278L152.564 17.0839L175.95 21.4599C175.985 21.4599 149.939 7.42168 149.939 7.42168Z" fill="white"/>
<path d="M0.10498 37.3184H1.01519V41.5193L3.60577 37.3184H4.621V42.8146H3.67579V38.6487L1.0852 42.8146H0.10498V37.3184Z" fill="white"/>
<path d="M7.35156 37.4235H8.26177V39.699H10.8524V37.4235H11.7976V42.9197H10.8524V40.4691H8.26177V42.9197H7.35156V37.4235Z" fill="white"/>
<path d="M13.5127 37.3884H17.9587V38.1586H16.1733V42.8847H15.2631V38.1586H13.5127V37.3884Z" fill="white"/>
<path d="M23.6304 41.0643L24.6106 41.2043C24.4706 41.7644 24.1905 42.1845 23.7704 42.4996C23.3503 42.8147 22.8252 42.9547 22.1951 42.9547C21.3899 42.9547 20.7598 42.7096 20.3047 42.2195C19.8495 41.7294 19.6045 41.0293 19.6045 40.1541C19.6045 39.2439 19.8495 38.5087 20.3047 38.0186C20.7948 37.4935 21.3899 37.2484 22.1601 37.2484C22.8952 37.2484 23.4904 37.4935 23.9455 37.9836C24.4006 38.4737 24.6456 39.1738 24.6456 40.0841C24.6456 40.1541 24.6456 40.2241 24.6456 40.3291H20.5147C20.5497 40.9242 20.7247 41.3793 21.0398 41.7294C21.3549 42.0445 21.74 42.2195 22.1951 42.2195C22.5452 42.2195 22.8252 42.1145 23.0703 41.9395C23.2803 41.7294 23.4904 41.4494 23.6304 41.0643ZM20.5847 39.5589H23.6304C23.5954 39.1038 23.4554 38.7538 23.2803 38.5087C23.0003 38.1586 22.6152 37.9836 22.1251 37.9836C21.705 37.9836 21.3549 38.1236 21.0398 38.4037C20.7598 38.7187 20.6197 39.0688 20.5847 39.5589Z" fill="white"/>
<path d="M26.3257 45.0201V37.4234H27.1659V38.1585C27.3759 37.8785 27.586 37.6684 27.831 37.5284C28.0761 37.3884 28.3912 37.3184 28.7412 37.3184C29.1963 37.3184 29.6164 37.4234 29.9665 37.6684C30.3166 37.9135 30.5967 38.2636 30.7717 38.6837C30.9467 39.1388 31.0518 39.5939 31.0518 40.119C31.0518 40.6791 30.9467 41.1692 30.7367 41.6243C30.5266 42.0794 30.2466 42.4295 29.8615 42.6396C29.4764 42.8846 29.0913 42.9896 28.6362 42.9896C28.3211 42.9896 28.0411 42.9196 27.796 42.7796C27.551 42.6396 27.3409 42.4995 27.2009 42.2895V44.9851L26.3257 45.0201ZM27.1659 40.189C27.1659 40.8892 27.3059 41.4143 27.586 41.7644C27.866 42.1144 28.2161 42.2545 28.6362 42.2545C29.0563 42.2545 29.4064 42.0794 29.6864 41.7294C29.9665 41.3793 30.1415 40.8542 30.1415 40.119C30.1415 39.4188 30.0015 38.8937 29.7215 38.5436C29.4414 38.1936 29.0913 38.0185 28.7062 38.0185C28.3211 38.0185 27.9711 38.1936 27.656 38.5786C27.3409 38.9637 27.1659 39.4889 27.1659 40.189Z" fill="white"/>
<path d="M33.3623 37.2834H34.3075V39.4189H35.4978C36.268 39.4189 36.8631 39.559 37.2832 39.874C37.7033 40.1891 37.9133 40.5742 37.9133 41.0993C37.9133 41.5544 37.7383 41.9395 37.3882 42.2896C37.0381 42.6047 36.478 42.7797 35.7428 42.7797H33.4323L33.3623 37.2834ZM34.2725 42.0445H35.2527C35.8479 42.0445 36.268 41.9745 36.513 41.8345C36.7581 41.6944 36.8981 41.4494 36.8981 41.1693C36.8981 40.9243 36.7931 40.7142 36.618 40.5392C36.443 40.3641 36.0229 40.2591 35.3928 40.2591H34.2725V42.0445Z" fill="white"/>
<path d="M43.2696 40.8542L44.2498 40.9942C44.1098 41.5543 43.8297 41.9744 43.4096 42.2895C42.9895 42.6046 42.4644 42.7446 41.8342 42.7446C41.0291 42.7446 40.3989 42.4996 39.9438 42.0095C39.4887 41.5193 39.2437 40.8192 39.2437 39.944C39.2437 39.0338 39.4887 38.2986 39.9438 37.8085C40.4339 37.2834 41.0291 37.0383 41.7992 37.0383C42.5344 37.0383 43.1295 37.2834 43.5846 37.7735C44.0397 38.2636 44.2848 38.9638 44.2848 39.874C44.2848 39.944 44.2848 40.014 44.2848 40.119H40.1889C40.2239 40.7142 40.3989 41.1693 40.714 41.5193C41.0291 41.8344 41.4141 42.0095 41.8692 42.0095C42.2193 42.0095 42.4994 41.9044 42.7444 41.7294C42.9195 41.5193 43.1295 41.2393 43.2696 40.8542ZM40.2239 39.3489H43.2696C43.2346 38.8937 43.0945 38.5437 42.9195 38.2986C42.6394 37.9485 42.2543 37.7735 41.7642 37.7735C41.3441 37.7735 40.994 37.9135 40.679 38.1936C40.3989 38.5087 40.2589 38.8937 40.2239 39.3489Z" fill="white"/>
<path d="M46.1753 44.8101V37.2134H47.0155V37.9486C47.2255 37.6685 47.4356 37.4585 47.6806 37.3184C47.9257 37.1784 48.2408 37.1084 48.5908 37.1084C49.0459 37.1084 49.466 37.2134 49.8161 37.4585C50.1662 37.7035 50.4463 38.0536 50.6213 38.4737C50.7963 38.9288 50.9014 39.3839 50.9014 39.909C50.9014 40.4692 50.7963 40.9593 50.5863 41.4144C50.3762 41.8695 50.0962 42.2196 49.7111 42.4296C49.326 42.6747 48.9409 42.7797 48.4858 42.7797C48.1707 42.7797 47.8907 42.7097 47.6456 42.5696C47.4006 42.4296 47.1905 42.2896 47.0505 42.0795V44.7751L46.1753 44.8101ZM47.0155 39.979C47.0155 40.6792 47.1555 41.2043 47.4356 41.5544C47.7156 41.9045 48.0657 42.0445 48.4858 42.0445C48.9059 42.0445 49.256 41.8695 49.5361 41.5194C49.8161 41.1693 49.9912 40.6442 49.9912 39.909C49.9912 39.2089 49.8511 38.6838 49.5711 38.3337C49.291 37.9836 48.9409 37.8086 48.5558 37.8086C48.1707 37.8086 47.8207 37.9836 47.5056 38.3687C47.1905 38.7188 47.0155 39.2789 47.0155 39.979Z" fill="white"/>
<path d="M53.002 37.2484H53.9122V39.5589H56.5027V37.2484H57.448V42.7447H56.5027V40.3291H53.9122V42.7447H53.002V37.2484Z" fill="white"/>
<path d="M63.539 42.1845C63.189 42.4646 62.8739 42.6746 62.5238 42.8146C62.2088 42.9197 61.8587 42.9897 61.5086 42.9897C60.9135 42.9897 60.4584 42.8497 60.1083 42.5346C59.7932 42.2545 59.6182 41.8694 59.6182 41.4143C59.6182 41.1343 59.6882 40.8892 59.7932 40.6792C59.9332 40.4691 60.0733 40.2941 60.2833 40.154C60.4934 40.014 60.7034 39.909 60.9485 39.839C61.1235 39.804 61.4036 39.7339 61.7887 39.6989C62.5238 39.5939 63.0839 39.4889 63.434 39.3839C63.434 39.2438 63.434 39.1738 63.434 39.1388C63.434 38.7537 63.329 38.5087 63.154 38.3336C62.9089 38.1236 62.5588 38.0186 62.1037 38.0186C61.6486 38.0186 61.3336 38.0886 61.1235 38.2636C60.9135 38.4036 60.7734 38.6837 60.6684 39.0688L59.7582 38.9288C59.8282 38.5437 59.9682 38.2286 60.1783 37.9836C60.3533 37.7385 60.6334 37.5635 61.0185 37.4234C61.3686 37.2834 61.7887 37.2134 62.2788 37.2134C62.7339 37.2134 63.119 37.2834 63.434 37.3884C63.7141 37.4934 63.9591 37.6335 64.0642 37.8085C64.2042 37.9836 64.3092 38.1936 64.3442 38.4387C64.3792 38.6137 64.3792 38.8938 64.3792 39.2788V40.5041C64.3792 41.3793 64.4142 41.9044 64.4493 42.1495C64.4843 42.3945 64.5543 42.6046 64.6943 42.8146H63.7141C63.6441 42.6746 63.5741 42.4646 63.539 42.1845ZM63.469 40.119C63.119 40.2591 62.6288 40.3641 61.9287 40.4691C61.5436 40.5391 61.2635 40.5741 61.1235 40.6442C60.9485 40.7142 60.8434 40.8192 60.7734 40.9592C60.7034 41.0993 60.6334 41.2393 60.6334 41.4143C60.6334 41.6594 60.7384 41.8694 60.9135 42.0445C61.0885 42.2195 61.3686 42.2895 61.7536 42.2895C62.1037 42.2895 62.4188 42.2195 62.6989 42.0445C62.9789 41.9044 63.189 41.6594 63.329 41.4143C63.434 41.2043 63.469 40.8892 63.469 40.5041V40.119Z" fill="white"/>
<path d="M71.3812 37.3884V42.8847H70.436V40.7492H69.9109C69.5958 40.7492 69.3508 40.7842 69.1757 40.8892C69.0007 40.9592 68.7907 41.2393 68.4756 41.6944L67.6704 42.8847H66.5151L67.5304 41.4143C67.8454 40.9592 68.1605 40.7142 68.4406 40.6442C67.9155 40.5741 67.5304 40.3641 67.2503 40.084C67.0052 39.769 66.8652 39.4189 66.8652 38.9988C66.8652 38.5087 67.0403 38.1236 67.3553 37.8435C67.7054 37.5285 68.1955 37.3884 68.8257 37.3884H71.3812ZM70.436 38.1586H69.1057C68.5456 38.1586 68.1955 38.2286 68.0205 38.4037C67.8454 38.5787 67.7754 38.7887 67.7754 38.9988C67.7754 39.3139 67.8804 39.5589 68.1255 39.734C68.3706 39.874 68.7906 39.979 69.3858 39.979H70.401C70.436 39.979 70.436 38.1586 70.436 38.1586Z" fill="white"/>
<path d="M128.409 37.4235V42.9197H127.464V40.7842H126.939C126.624 40.7842 126.379 40.8192 126.204 40.9243C126.029 40.9943 125.818 41.2743 125.503 41.7294L124.698 42.9197H123.543L124.558 41.4494C124.873 40.9943 125.188 40.7492 125.468 40.6792C124.943 40.6092 124.558 40.3991 124.278 40.1191C124.033 39.804 123.893 39.4539 123.893 39.0338C123.893 38.5437 124.068 38.1586 124.383 37.8786C124.733 37.5635 125.223 37.4235 125.853 37.4235H128.409ZM127.499 38.1936H126.169C125.608 38.1936 125.258 38.2637 125.083 38.4387C124.908 38.6137 124.838 38.8238 124.838 39.0338C124.838 39.3489 124.943 39.594 125.188 39.769C125.433 39.909 125.853 40.014 126.449 40.014H127.464V38.1936H127.499Z" fill="white"/>
<path d="M77.8924 37.5985H78.8026V39.944C79.0827 39.944 79.2927 39.874 79.3978 39.769C79.5028 39.664 79.6778 39.3139 79.8879 38.7888C80.0629 38.3687 80.203 38.0886 80.308 37.9486C80.413 37.8086 80.553 37.7035 80.6931 37.6685C80.8331 37.6335 81.0782 37.5985 81.3932 37.5985H81.5683V38.3687H81.3232C81.0782 38.3687 80.9381 38.4037 80.8681 38.4737C80.7981 38.5437 80.6931 38.7888 80.553 39.1389C80.413 39.4889 80.308 39.734 80.1679 39.874C80.0629 40.0141 79.8879 40.1191 79.6428 40.2591C80.0279 40.3641 80.413 40.7492 80.7981 41.3794L81.7783 43.0597H80.7981L79.8179 41.3794C79.6078 41.0293 79.4678 40.8192 79.2927 40.7142C79.1527 40.6092 78.9777 40.5392 78.7676 40.5392V43.0597H77.8574L77.8924 37.5985Z" fill="white"/>
<path d="M83.2139 40.3641C83.2139 39.3489 83.4939 38.6137 84.0191 38.1236C84.4742 37.7035 85.0343 37.5284 85.6994 37.5284C86.4346 37.5284 87.0297 37.7735 87.4848 38.2636C87.9399 38.7537 88.185 39.4189 88.185 40.2941C88.185 40.9942 88.08 41.5544 87.8699 41.9394C87.6599 42.3245 87.3798 42.6396 86.9597 42.8847C86.5746 43.0947 86.1545 43.2347 85.6994 43.2347C84.9643 43.2347 84.3691 42.9897 83.914 42.4996C83.4589 42.0095 83.2139 41.2743 83.2139 40.3641ZM84.1241 40.3641C84.1241 41.0642 84.2641 41.5894 84.5792 41.9394C84.8943 42.2895 85.2443 42.4646 85.6994 42.4646C86.1545 42.4646 86.5046 42.2895 86.8197 41.9394C87.0997 41.5894 87.2748 41.0642 87.2748 40.3641C87.2748 39.6989 87.1348 39.1738 86.8197 38.8237C86.5396 38.4737 86.1545 38.2986 85.6994 38.2986C85.2443 38.2986 84.8592 38.4737 84.5792 38.8237C84.2991 39.1738 84.1241 39.6639 84.1241 40.3641Z" fill="white"/>
<path d="M90.1104 37.6685H91.4757L92.876 42.0094L94.4513 37.6685H95.7116V43.0947H94.8014V38.7187L93.2611 43.0947H92.4559L90.9855 38.5086V43.0947H90.1104V37.6685Z" fill="white"/>
<path d="M98.3374 37.5635H102.503V43.0247H101.628V38.3336H99.2126V43.0247H98.3374V37.5635Z" fill="white"/>
<path d="M108.209 42.2195C107.859 42.4996 107.544 42.7096 107.264 42.8497C106.949 42.9547 106.634 43.0247 106.284 43.0247C105.689 43.0247 105.269 42.8847 104.954 42.5696C104.639 42.2896 104.499 41.9045 104.499 41.4494C104.499 41.1693 104.569 40.9242 104.674 40.7142C104.779 40.5041 104.954 40.3291 105.129 40.1891C105.304 40.049 105.549 39.944 105.759 39.874C105.934 39.839 106.214 39.769 106.564 39.734C107.299 39.629 107.824 39.5239 108.174 39.4189C108.174 39.2789 108.174 39.2089 108.174 39.1738C108.174 38.7888 108.104 38.5437 107.929 38.3687C107.684 38.1586 107.369 38.0536 106.914 38.0536C106.494 38.0536 106.179 38.1236 105.969 38.2987C105.759 38.4387 105.619 38.7187 105.514 39.1038L104.639 38.9638C104.709 38.5787 104.849 38.2636 105.024 38.0186C105.199 37.7735 105.479 37.5985 105.829 37.4585C106.179 37.3184 106.564 37.2484 107.019 37.2484C107.474 37.2484 107.824 37.3184 108.139 37.4235C108.419 37.5285 108.629 37.6685 108.77 37.8435C108.91 38.0186 108.98 38.2286 109.05 38.4737C109.085 38.6487 109.085 38.9288 109.085 39.3139V40.5392C109.085 41.3793 109.12 41.9395 109.155 42.1495C109.19 42.3946 109.26 42.6046 109.365 42.8147H108.419C108.279 42.7096 108.209 42.4646 108.209 42.2195ZM108.139 40.1541C107.824 40.2941 107.334 40.3991 106.669 40.5041C106.284 40.5742 106.039 40.6092 105.899 40.6792C105.759 40.7492 105.619 40.8542 105.549 40.9943C105.479 41.1343 105.409 41.2743 105.409 41.4144C105.409 41.6594 105.514 41.8695 105.689 42.0095C105.864 42.1845 106.144 42.2545 106.494 42.2545C106.844 42.2545 107.159 42.1845 107.404 42.0095C107.684 41.8695 107.859 41.6594 107.999 41.3793C108.104 41.1693 108.139 40.8542 108.139 40.4691V40.1541Z" fill="white"/>
<path d="M111.22 37.6335H112.13V39.9091H114.616V37.6335H115.526V43.0598H114.616V40.6442H112.13V43.0598H111.22V37.6335Z" fill="white"/>
<path d="M117.696 37.6335H118.571V41.7995L121.092 37.6335H122.037V43.0948H121.127V38.9638L118.641 43.0948H117.696V37.6335Z" fill="white"/>
</svg>
