<svg width="28" height="23" viewBox="0 0 28 23" fill="none" xmlns="http://www.w3.org/2000/svg">
<g clip-path="url(#clip0_187_1070)">
<path d="M26.5463 -7.41333e-07C26.3842 0.0260776 26.226 0.0712529 26.0749 0.134553L6.77093 7.43084C4.89427 8.13833 3.01322 8.84582 1.14097 9.54897C0.652386 9.69793 0.242677 10.0299 0 10.4735L0 10.7947C0.237147 11.1509 0.604966 11.4028 1.02643 11.4978C3.08223 12.1286 5.13803 12.7537 7.19383 13.3729C7.32817 13.4014 7.46847 13.3781 7.5859 13.3078C12.4082 10.3389 17.232 7.36573 22.0573 4.38819C22.2201 4.27325 22.4042 4.19069 22.5991 4.14512C22.7687 4.14389 22.9371 4.17179 23.0969 4.22759C23.0264 4.36214 22.9604 4.50104 22.8855 4.63125C22.8855 4.66163 22.8326 4.679 22.8062 4.70504C18.9266 8.13977 15.0485 11.5745 11.1718 15.0092C11.0681 15.1035 11.0024 15.2314 10.9868 15.3695C10.8546 17.0493 10.7357 18.7333 10.6167 20.4218C10.5859 20.7994 10.5639 21.1814 10.5374 21.572C10.7434 21.5784 10.9486 21.5431 11.1403 21.4685C11.3319 21.3939 11.5061 21.2814 11.652 21.1379C12.6696 20.1744 13.696 19.2108 14.7357 18.2516L14.9604 18.0562L15.2203 18.2385C17.2203 19.6796 19.2159 21.1293 21.2247 22.579C21.4777 22.7521 21.7573 22.884 22.0529 22.9696C22.3139 23.0668 22.603 23.0611 22.8598 22.9535C23.1167 22.846 23.3215 22.645 23.4317 22.3923C23.58 22.1037 23.6896 21.7973 23.7577 21.4808C25.094 15.3521 26.4156 9.22054 27.7225 3.08605C27.8649 2.51631 27.9563 1.93536 27.9956 1.34988C28.0312 1.15784 28.0176 0.960083 27.956 0.774556C27.8943 0.589029 27.7866 0.421612 27.6426 0.287509C27.4986 0.153407 27.3229 0.0568671 27.1315 0.0066576C26.94 -0.0435519 26.7388 -0.0458407 26.5463 -7.41333e-07Z" fill="#DD0B22"/>
</g>
<defs>
<clipPath id="clip0_187_1070">
<rect width="28" height="23" fill="white"/>
</clipPath>
</defs>
</svg>
