<svg width="33" height="19" viewBox="0 0 33 19" fill="none" xmlns="http://www.w3.org/2000/svg">
<g clip-path="url(#clip0_187_1066)">
<path d="M31.7785 15.6697C30.6907 14.4751 29.5494 13.3303 28.4125 12.1674C27.3648 11.086 27.3069 10.6199 28.1807 9.38009C28.8628 8.42082 29.5895 7.49774 30.285 6.54751C31.2596 5.33661 32.086 4.01018 32.7459 2.59729C33.2943 1.28507 32.9688 0.787332 31.5779 0.787332C29.8213 0.787332 28.0648 0.828056 26.3127 0.828056C26.0434 0.810033 25.776 0.884002 25.553 1.03817C25.33 1.19235 25.1642 1.41785 25.0822 1.67873C24.8504 2.25792 24.6364 2.83258 24.36 3.40272C23.593 5.17408 22.5975 6.83416 21.3997 8.33937C21.1175 8.66576 20.7971 8.95599 20.4456 9.20362C20.3883 9.25384 20.3204 9.29017 20.2472 9.30985C20.174 9.32953 20.0974 9.33206 20.0231 9.31724C19.9488 9.30242 19.8787 9.27063 19.8183 9.2243C19.7579 9.17796 19.7087 9.11828 19.6743 9.04978C19.4866 8.78897 19.3628 8.48649 19.3132 8.16742C19.2597 7.12217 19.2597 6.07692 19.2597 5.03168C19.2597 3.98643 19.3177 2.85521 19.2954 1.76923C19.2954 0.828056 18.9075 0.411766 18.0114 0.226246C16.342 -0.046549 14.6432 -0.0800587 12.9647 0.126698C12.632 0.160267 12.3043 0.233159 11.9883 0.343893C11.7446 0.418835 11.5208 0.549018 11.3339 0.724606C11.147 0.900195 11.0018 1.1166 10.9094 1.35747C12.1488 1.47059 12.7774 2.181 12.8487 3.32127C12.929 4.64706 12.929 5.9819 12.9067 7.31222C12.8834 7.7997 12.7857 8.28055 12.6169 8.73756C12.5953 8.87577 12.5351 9.0048 12.4435 9.10942C12.3519 9.21404 12.2328 9.28986 12.1001 9.32792C11.9674 9.36599 11.8268 9.36472 11.6948 9.32425C11.5628 9.28378 11.4449 9.20581 11.3552 9.09955C11.0187 8.81649 10.7191 8.4911 10.4636 8.13122C9.09205 6.26032 7.96374 4.21786 7.10651 2.0543C6.99278 1.67499 6.75275 1.34756 6.42746 1.12801C6.10217 0.908462 5.71183 0.81043 5.3232 0.85068C3.90994 0.904979 2.48776 0.877829 1.07003 0.904979C0.883001 0.910755 0.69736 0.939625 0.517207 0.990951C0.424254 1.00554 0.335793 1.0414 0.258525 1.09584C0.181258 1.15027 0.117213 1.22184 0.0712435 1.30513C0.0252741 1.38841 -0.00141349 1.48122 -0.00679665 1.57653C-0.0121798 1.67184 0.0038827 1.76713 0.0401736 1.8552C0.0848963 2.01093 0.14308 2.16235 0.214045 2.30769C0.78916 3.52036 1.33753 4.74661 1.94831 5.9276C3.38149 8.89777 5.13222 11.6989 7.16892 14.2805C8.74721 16.2906 10.8798 17.7777 13.2946 18.552C14.7106 18.9181 16.1734 19.063 17.6324 18.9819C18.8674 18.9819 19.224 18.5837 19.3177 17.3348C19.3647 16.646 19.5151 15.9686 19.7635 15.3258C20.1112 14.457 20.78 14.3213 21.5067 14.905C21.9117 15.2587 22.2958 15.6364 22.6569 16.0362C23.3747 16.7647 24.0568 17.5339 24.8147 18.2217C25.3654 18.7337 26.0875 19.0136 26.8343 19.0045C28.3323 19.0045 29.8347 18.9683 31.3327 18.9367C31.5924 18.933 31.8503 18.8935 32.0995 18.819C32.9421 18.5656 33.2051 17.9729 32.7861 17.1946C32.5153 16.6449 32.1767 16.1325 31.7785 15.6697Z" fill="#DD0B22"/>
</g>
<defs>
<clipPath id="clip0_187_1066">
<rect width="33" height="19" fill="white"/>
</clipPath>
</defs>
</svg>
